G75*
%MOIN*%
%OFA0B0*%
%FSLAX25Y25*%
%IPPOS*%
%LPD*%
%AMOC8*
5,1,8,0,0,1.08239X$1,22.5*
%
%ADD10R,0.06000X0.13000*%
%ADD11R,0.10000X0.10000*%
%ADD12R,0.03937X0.03150*%
%ADD13R,0.02756X0.05906*%
%ADD14R,0.08661X0.02362*%
%ADD15R,0.05118X0.05906*%
%ADD16R,0.15748X0.05512*%
%ADD17R,0.03937X0.18110*%
%ADD18R,0.06299X0.13386*%
%ADD19C,0.03740*%
%ADD20R,0.05315X0.01575*%
%ADD21R,0.05512X0.06299*%
%ADD22R,0.05512X0.04331*%
D10*
X0079942Y0400543D03*
X0079942Y0417543D03*
X0089942Y0417543D03*
X0099942Y0417543D03*
X0109942Y0417543D03*
X0119942Y0417543D03*
X0129942Y0417543D03*
X0139942Y0417543D03*
X0149942Y0417543D03*
X0159942Y0417543D03*
X0159942Y0400543D03*
X0149942Y0400543D03*
X0139942Y0400543D03*
X0129942Y0400543D03*
X0119942Y0400543D03*
X0109942Y0400543D03*
X0099942Y0400543D03*
X0089942Y0400543D03*
X0169942Y0400543D03*
X0179942Y0400543D03*
X0189942Y0400543D03*
X0199942Y0400543D03*
X0209942Y0400543D03*
X0219942Y0400543D03*
X0229942Y0400543D03*
X0239942Y0400543D03*
X0239942Y0417543D03*
X0229942Y0417543D03*
X0219942Y0417543D03*
X0209942Y0417543D03*
X0199942Y0417543D03*
X0189942Y0417543D03*
X0179942Y0417543D03*
X0169942Y0417543D03*
X0249942Y0417543D03*
X0259942Y0417543D03*
X0269942Y0417543D03*
X0269942Y0400543D03*
X0259942Y0400543D03*
X0249942Y0400543D03*
D11*
X0165738Y0263795D03*
X0165738Y0249425D03*
X0165738Y0221866D03*
X0165738Y0207496D03*
X0074005Y0207496D03*
X0074005Y0263795D03*
D12*
X0088966Y0461630D03*
X0088966Y0470291D03*
X0056289Y0470291D03*
X0056289Y0461630D03*
D13*
X0063769Y0457102D03*
X0075580Y0457102D03*
X0081486Y0457102D03*
D14*
X0086801Y0050232D03*
X0086801Y0045232D03*
X0086801Y0040232D03*
X0086801Y0035232D03*
X0066328Y0035232D03*
X0066328Y0040232D03*
X0066328Y0045232D03*
X0066328Y0050232D03*
D15*
X0045659Y0036827D03*
X0052352Y0036827D03*
X0052352Y0048638D03*
X0045659Y0048638D03*
X0112588Y0036827D03*
X0119281Y0036827D03*
D16*
X0074596Y0296866D03*
X0074596Y0304740D03*
X0074596Y0312614D03*
X0074596Y0320488D03*
X0074596Y0328362D03*
D17*
X0189753Y0256118D03*
X0197627Y0256118D03*
D18*
X0207076Y0235646D03*
X0180304Y0235646D03*
D19*
X0037096Y0360154D02*
X0033356Y0360154D01*
X0033356Y0363894D01*
X0037096Y0363894D01*
X0037096Y0360154D01*
X0037096Y0363893D02*
X0033356Y0363893D01*
X0033356Y0369602D02*
X0037096Y0369602D01*
X0033356Y0369602D02*
X0033356Y0373342D01*
X0037096Y0373342D01*
X0037096Y0369602D01*
X0037096Y0373341D02*
X0033356Y0373341D01*
D20*
X0046545Y0371866D03*
X0046545Y0369307D03*
X0046545Y0366748D03*
X0046545Y0364189D03*
X0046545Y0361630D03*
D21*
X0110423Y0048441D03*
X0121446Y0048441D03*
D22*
X0080501Y0060449D03*
X0080501Y0068323D03*
X0219281Y0064386D03*
X0219281Y0056512D03*
M02*
