G75*
%MOIN*%
%OFA0B0*%
%FSLAX25Y25*%
%IPPOS*%
%LPD*%
%AMOC8*
5,1,8,0,0,1.08239X$1,22.5*
%
%ADD10R,0.02756X0.00394*%
%ADD11R,0.05512X0.00394*%
%ADD12R,0.05906X0.00394*%
%ADD13R,0.02362X0.00394*%
%ADD14R,0.00787X0.00394*%
%ADD15R,0.01181X0.00394*%
%ADD16R,0.00394X0.00394*%
%ADD17R,0.01575X0.00394*%
%ADD18R,0.01969X0.00394*%
%ADD19R,0.03150X0.00394*%
%ADD20R,0.05118X0.00394*%
%ADD21R,0.31102X0.00394*%
%ADD22R,0.18504X0.00394*%
%ADD23R,0.03543X0.00394*%
%ADD24R,0.30709X0.00394*%
%ADD25R,0.18898X0.00394*%
%ADD26R,0.04331X0.00394*%
%ADD27R,0.06299X0.00394*%
%ADD28R,0.03937X0.00394*%
%ADD29R,0.08661X0.00394*%
%ADD30R,0.06693X0.00394*%
%ADD31R,0.09843X0.00394*%
%ADD32R,0.12205X0.00394*%
%ADD33R,0.11417X0.00394*%
%ADD34R,0.04724X0.00394*%
%ADD35R,0.07087X0.00394*%
%ADD36R,0.07874X0.00394*%
%ADD37R,0.07480X0.00394*%
%ADD38R,0.08268X0.00394*%
%ADD39R,0.10630X0.00394*%
%ADD40R,0.12598X0.00394*%
%ADD41R,0.17717X0.00394*%
%ADD42R,0.16535X0.00394*%
%ADD43R,0.14961X0.00394*%
%ADD44R,0.13386X0.00394*%
%ADD45R,0.11024X0.00394*%
%ADD46R,0.11811X0.00394*%
%ADD47R,0.13780X0.00394*%
%ADD48R,0.15748X0.00394*%
%ADD49R,0.17323X0.00394*%
%ADD50R,0.20079X0.00394*%
%ADD51R,0.21260X0.00394*%
%ADD52R,0.22441X0.00394*%
%ADD53R,0.23228X0.00394*%
%ADD54R,0.24409X0.00394*%
%ADD55R,0.25197X0.00394*%
%ADD56R,0.25984X0.00394*%
%ADD57R,0.26772X0.00394*%
%ADD58R,0.27559X0.00394*%
%ADD59R,0.28346X0.00394*%
%ADD60R,0.29134X0.00394*%
%ADD61R,0.29528X0.00394*%
%ADD62R,0.29921X0.00394*%
%ADD63R,0.31890X0.00394*%
%ADD64R,0.32283X0.00394*%
%ADD65R,0.32677X0.00394*%
%ADD66R,0.33071X0.00394*%
%ADD67R,0.33465X0.00394*%
%ADD68R,0.33858X0.00394*%
%ADD69R,0.34252X0.00394*%
%ADD70R,0.34646X0.00394*%
%ADD71R,0.35039X0.00394*%
%ADD72R,0.35433X0.00394*%
%ADD73R,0.35827X0.00394*%
%ADD74R,0.36220X0.00394*%
%ADD75R,0.36614X0.00394*%
%ADD76R,0.37008X0.00394*%
%ADD77R,0.09449X0.00394*%
%ADD78R,0.37402X0.00394*%
%ADD79R,0.14173X0.00394*%
%ADD80R,0.23622X0.00394*%
%ADD81R,0.30315X0.00394*%
%ADD82R,0.31496X0.00394*%
%ADD83R,0.24803X0.00394*%
%ADD84R,0.27165X0.00394*%
%ADD85R,0.28740X0.00394*%
%ADD86R,0.27953X0.00394*%
%ADD87R,0.14567X0.00394*%
%ADD88R,0.26378X0.00394*%
%ADD89R,0.25591X0.00394*%
%ADD90R,0.24016X0.00394*%
%ADD91R,0.22835X0.00394*%
%ADD92R,0.12992X0.00394*%
%ADD93R,0.22047X0.00394*%
%ADD94R,0.20472X0.00394*%
%ADD95R,0.19685X0.00394*%
%ADD96R,0.18110X0.00394*%
%ADD97R,0.10236X0.00394*%
%ADD98R,0.09055X0.00394*%
%ADD99R,0.16142X0.00394*%
%ADD100R,0.19291X0.00394*%
%ADD101R,0.21654X0.00394*%
%ADD102R,0.78740X0.00394*%
%ADD103R,0.80315X0.00394*%
%ADD104R,0.81102X0.00394*%
%ADD105R,0.82283X0.00394*%
%ADD106R,0.82677X0.00394*%
%ADD107R,0.83465X0.00394*%
%ADD108R,0.83858X0.00394*%
%ADD109R,0.84252X0.00394*%
%ADD110R,0.84646X0.00394*%
%ADD111R,0.85039X0.00394*%
%ADD112R,0.15354X0.00394*%
%ADD113R,0.52756X0.00394*%
%ADD114R,0.53150X0.00394*%
%ADD115R,0.83071X0.00394*%
%ADD116R,0.81496X0.00394*%
%ADD117R,0.80709X0.00394*%
%ADD118R,0.79134X0.00394*%
%ADD119R,0.76772X0.00394*%
%ADD120R,0.20866X0.00394*%
%ADD121R,0.16929X0.00394*%
%ADD122C,0.11136*%
%ADD123R,0.23622X0.11142*%
%ADD124R,0.17717X0.00197*%
%ADD125R,0.19488X0.00197*%
%ADD126R,0.20276X0.00197*%
%ADD127R,0.20866X0.00197*%
%ADD128R,0.21260X0.00197*%
%ADD129R,0.00984X0.00197*%
%ADD130R,0.01969X0.00197*%
%ADD131R,0.01575X0.00197*%
%ADD132R,0.00197X0.00197*%
%ADD133R,0.01378X0.00197*%
%ADD134R,0.00394X0.00197*%
%ADD135R,0.01181X0.00197*%
%ADD136R,0.00591X0.00197*%
%ADD137R,0.00787X0.00197*%
%ADD138R,0.01772X0.00197*%
%ADD139R,0.02165X0.00197*%
%ADD140R,0.02559X0.00197*%
%ADD141R,0.02953X0.00197*%
%ADD142R,0.02756X0.00197*%
%ADD143R,0.69685X0.00197*%
%ADD144R,0.03346X0.00197*%
%ADD145R,0.05512X0.00197*%
%ADD146R,0.07480X0.00197*%
%ADD147R,0.07087X0.00197*%
%ADD148R,0.03740X0.00197*%
%ADD149R,0.08661X0.00197*%
%ADD150R,0.08071X0.00197*%
%ADD151R,0.16339X0.00197*%
%ADD152R,0.14567X0.00197*%
%ADD153R,0.09843X0.00197*%
%ADD154R,0.09646X0.00197*%
%ADD155R,0.09252X0.00197*%
%ADD156R,0.16535X0.00197*%
%ADD157R,0.10827X0.00197*%
%ADD158R,0.10433X0.00197*%
%ADD159R,0.10039X0.00197*%
%ADD160R,0.69488X0.00197*%
%ADD161R,0.04134X0.00197*%
%ADD162R,0.12008X0.00197*%
%ADD163R,0.11024X0.00197*%
%ADD164R,0.12795X0.00197*%
%ADD165R,0.11614X0.00197*%
%ADD166R,0.11811X0.00197*%
%ADD167R,0.13583X0.00197*%
%ADD168R,0.12598X0.00197*%
%ADD169R,0.14370X0.00197*%
%ADD170R,0.14173X0.00197*%
%ADD171R,0.12205X0.00197*%
%ADD172R,0.12992X0.00197*%
%ADD173R,0.15157X0.00197*%
%ADD174R,0.13780X0.00197*%
%ADD175R,0.05709X0.00197*%
%ADD176R,0.06693X0.00197*%
%ADD177R,0.04921X0.00197*%
%ADD178R,0.05906X0.00197*%
%ADD179R,0.13189X0.00197*%
%ADD180R,0.04724X0.00197*%
%ADD181R,0.69291X0.00197*%
%ADD182R,0.04528X0.00197*%
%ADD183R,0.05118X0.00197*%
%ADD184R,0.13386X0.00197*%
%ADD185R,0.04331X0.00197*%
%ADD186R,0.02362X0.00197*%
%ADD187R,0.03937X0.00197*%
%ADD188R,0.03543X0.00197*%
%ADD189R,0.69094X0.00197*%
%ADD190R,0.03150X0.00197*%
%ADD191R,0.15748X0.00197*%
%ADD192R,0.14764X0.00197*%
%ADD193R,0.13976X0.00197*%
%ADD194R,0.07677X0.00197*%
%ADD195R,0.06299X0.00197*%
%ADD196R,0.05315X0.00197*%
%ADD197R,0.12402X0.00197*%
%ADD198R,0.11417X0.00197*%
%ADD199R,0.16732X0.00197*%
%ADD200R,0.11220X0.00197*%
%ADD201R,0.16142X0.00197*%
%ADD202R,0.06496X0.00197*%
%ADD203R,0.10630X0.00197*%
%ADD204R,0.15945X0.00197*%
%ADD205R,0.15551X0.00197*%
%ADD206R,0.06890X0.00197*%
%ADD207R,0.10236X0.00197*%
%ADD208R,0.15354X0.00197*%
%ADD209R,0.07283X0.00197*%
%ADD210R,0.07874X0.00197*%
%ADD211R,0.08268X0.00197*%
%ADD212R,0.08465X0.00197*%
%ADD213R,0.08858X0.00197*%
%ADD214R,0.09449X0.00197*%
%ADD215R,0.16929X0.00197*%
%ADD216R,0.17520X0.00197*%
%ADD217R,0.17913X0.00197*%
%ADD218R,0.18110X0.00197*%
%ADD219R,0.18307X0.00197*%
%ADD220R,0.18504X0.00197*%
%ADD221R,0.18701X0.00197*%
%ADD222R,0.18898X0.00197*%
%ADD223R,0.06102X0.00197*%
%ADD224R,0.72835X0.00197*%
%ADD225R,0.49016X0.00197*%
%ADD226R,0.22441X0.00197*%
%ADD227R,0.48819X0.00197*%
%ADD228R,0.22047X0.00197*%
%ADD229R,0.48622X0.00197*%
%ADD230R,0.21850X0.00197*%
%ADD231R,0.48425X0.00197*%
%ADD232R,0.21654X0.00197*%
%ADD233R,0.21457X0.00197*%
%ADD234R,0.49409X0.00197*%
%ADD235R,0.72638X0.00197*%
%ADD236R,0.19094X0.00197*%
%ADD237R,0.23425X0.00197*%
%ADD238R,0.23031X0.00197*%
%ADD239C,0.00400*%
%ADD240R,0.05512X0.02559*%
%ADD241C,0.00500*%
%ADD242C,0.00200*%
%ADD243R,0.00787X0.00787*%
%ADD244C,0.00800*%
D10*
X0030895Y0017929D03*
X0034045Y0017929D03*
X0037194Y0017929D03*
X0034438Y0021472D03*
X0046643Y0021472D03*
X0046643Y0021866D03*
X0046249Y0017929D03*
X0052549Y0021866D03*
X0058848Y0021866D03*
X0058848Y0021472D03*
X0058454Y0017929D03*
X0061604Y0017929D03*
X0065147Y0021866D03*
X0071052Y0021866D03*
X0071052Y0021472D03*
X0070659Y0017929D03*
X0076958Y0017929D03*
X0080108Y0017929D03*
X0083257Y0017929D03*
X0086407Y0017929D03*
X0089556Y0017929D03*
X0092706Y0017929D03*
X0089950Y0021472D03*
X0083651Y0021472D03*
X0077352Y0021472D03*
X0077352Y0021866D03*
X0079714Y0043520D03*
X0083257Y0048244D03*
X0102155Y0021472D03*
X0101761Y0017929D03*
X0108060Y0017929D03*
X0111210Y0017929D03*
X0114360Y0017929D03*
X0117509Y0017929D03*
X0121052Y0021866D03*
X0126958Y0021866D03*
X0126958Y0021472D03*
X0126564Y0017929D03*
X0129714Y0017929D03*
X0133257Y0021866D03*
X0139163Y0021866D03*
X0139163Y0021472D03*
X0138769Y0017929D03*
X0141919Y0017929D03*
X0145068Y0017929D03*
X0145068Y0021866D03*
X0140344Y0025803D03*
X0140344Y0032890D03*
X0136013Y0043126D03*
X0136013Y0046276D03*
X0132864Y0048638D03*
X0129714Y0048638D03*
X0123415Y0048638D03*
X0123415Y0043520D03*
X0117509Y0036433D03*
X0119084Y0032890D03*
X0108454Y0021866D03*
X0108454Y0021472D03*
X0150974Y0017929D03*
X0151367Y0021866D03*
X0157667Y0021866D03*
X0157273Y0017929D03*
X0160423Y0017929D03*
X0163572Y0017929D03*
X0166722Y0017929D03*
X0169871Y0017929D03*
X0173021Y0017929D03*
X0176171Y0017929D03*
X0179320Y0017929D03*
X0182470Y0017929D03*
X0188769Y0021866D03*
X0195068Y0021866D03*
X0194675Y0017929D03*
X0200974Y0017929D03*
X0204123Y0017929D03*
X0207273Y0017929D03*
X0210423Y0017929D03*
X0213572Y0017929D03*
X0219871Y0021866D03*
X0226171Y0021866D03*
X0201367Y0021866D03*
X0201367Y0021472D03*
X0198218Y0046276D03*
X0198218Y0046669D03*
X0198218Y0047063D03*
X0198218Y0047457D03*
X0198218Y0047850D03*
X0198218Y0048244D03*
X0198218Y0048638D03*
X0198218Y0049031D03*
X0198218Y0049425D03*
X0197824Y0050606D03*
X0197824Y0051000D03*
X0197430Y0051787D03*
X0197037Y0052969D03*
X0170265Y0021866D03*
X0170265Y0021472D03*
X0163966Y0021472D03*
X0167903Y0046276D03*
X0167903Y0046669D03*
X0167903Y0047063D03*
X0167903Y0047457D03*
X0167903Y0047850D03*
X0167903Y0048244D03*
X0168297Y0049031D03*
X0168297Y0049425D03*
X0168297Y0049819D03*
X0168297Y0050213D03*
X0168690Y0051000D03*
X0168690Y0051394D03*
X0169084Y0052575D03*
X0049005Y0315961D03*
X0049005Y0386827D03*
X0052942Y0458087D03*
X0282864Y0402575D03*
X0282864Y0332102D03*
D11*
X0281486Y0334858D03*
X0281486Y0405331D03*
X0164556Y0109661D03*
X0175186Y0059268D03*
X0190934Y0059268D03*
X0186997Y0017929D03*
X0219281Y0034465D03*
X0218493Y0036039D03*
X0134241Y0017929D03*
X0122037Y0017929D03*
X0127942Y0043520D03*
X0097234Y0017929D03*
X0075580Y0047850D03*
X0066131Y0017929D03*
X0041722Y0017929D03*
X0050383Y0313205D03*
X0050383Y0384071D03*
D12*
X0050580Y0383677D03*
X0050580Y0312811D03*
X0176564Y0205724D03*
X0176564Y0168717D03*
X0219871Y0170291D03*
X0231682Y0192339D03*
X0176171Y0059661D03*
X0195462Y0032890D03*
X0218297Y0017929D03*
X0224596Y0017929D03*
X0224596Y0036039D03*
X0224596Y0041945D03*
X0131289Y0033677D03*
X0131289Y0030921D03*
X0131289Y0027772D03*
X0131289Y0024622D03*
X0050974Y0017929D03*
X0281289Y0335252D03*
X0281289Y0405724D03*
D13*
X0283060Y0402181D03*
X0283060Y0331709D03*
X0164556Y0041157D03*
X0164556Y0040764D03*
X0164556Y0040370D03*
X0164556Y0039976D03*
X0164556Y0039583D03*
X0164556Y0039189D03*
X0164556Y0038795D03*
X0164556Y0038402D03*
X0164556Y0038008D03*
X0164556Y0037614D03*
X0164556Y0037220D03*
X0163769Y0021866D03*
X0161407Y0019110D03*
X0167706Y0019110D03*
X0173612Y0019110D03*
X0176367Y0021866D03*
X0179911Y0019110D03*
X0182667Y0021866D03*
X0184635Y0019504D03*
X0186210Y0019110D03*
X0190934Y0019504D03*
X0192509Y0019110D03*
X0191722Y0017929D03*
X0198021Y0017929D03*
X0198808Y0019110D03*
X0207470Y0021866D03*
X0211013Y0019110D03*
X0213769Y0021866D03*
X0215738Y0019504D03*
X0217312Y0019110D03*
X0222037Y0019504D03*
X0223612Y0019110D03*
X0220856Y0025803D03*
X0220856Y0026197D03*
X0220856Y0026591D03*
X0220856Y0026984D03*
X0220856Y0027378D03*
X0220856Y0027772D03*
X0220856Y0031709D03*
X0220856Y0032102D03*
X0220856Y0032496D03*
X0220856Y0032890D03*
X0220856Y0033283D03*
X0220856Y0033677D03*
X0155108Y0019110D03*
X0154320Y0017929D03*
X0153533Y0019504D03*
X0148808Y0019110D03*
X0148021Y0017929D03*
X0147234Y0019504D03*
X0142509Y0019110D03*
X0136604Y0019110D03*
X0130304Y0019110D03*
X0124399Y0019110D03*
X0118100Y0019110D03*
X0114556Y0021866D03*
X0111801Y0019110D03*
X0105895Y0019110D03*
X0105108Y0017929D03*
X0101958Y0021866D03*
X0099596Y0019110D03*
X0093297Y0019110D03*
X0089753Y0021866D03*
X0087391Y0019110D03*
X0083454Y0021866D03*
X0081092Y0019110D03*
X0074793Y0019110D03*
X0074005Y0017929D03*
X0068493Y0019110D03*
X0062194Y0019110D03*
X0056289Y0019110D03*
X0055501Y0017929D03*
X0054714Y0019504D03*
X0049989Y0019110D03*
X0044084Y0019110D03*
X0037785Y0019110D03*
X0034241Y0021866D03*
X0031879Y0019110D03*
X0044871Y0030921D03*
X0080304Y0048244D03*
X0083454Y0043520D03*
X0092903Y0035252D03*
X0118887Y0025803D03*
X0122037Y0025803D03*
X0125186Y0025803D03*
X0125186Y0032890D03*
X0122037Y0032890D03*
X0131486Y0035646D03*
X0137391Y0032890D03*
X0137391Y0025803D03*
X0143297Y0025803D03*
X0143297Y0032890D03*
X0132667Y0043520D03*
X0048808Y0316354D03*
X0048808Y0387220D03*
X0052745Y0454937D03*
X0052745Y0458480D03*
X0086210Y0458480D03*
X0086210Y0454937D03*
D14*
X0089360Y0454937D03*
X0089360Y0455724D03*
X0089360Y0456118D03*
X0089360Y0458480D03*
X0092115Y0458480D03*
X0048021Y0388795D03*
X0048021Y0318323D03*
X0048021Y0317929D03*
X0122430Y0053756D03*
X0122430Y0053362D03*
X0122430Y0052969D03*
X0122430Y0052575D03*
X0122430Y0052181D03*
X0122430Y0051787D03*
X0122430Y0051000D03*
X0122430Y0050606D03*
X0122430Y0050213D03*
X0122430Y0049425D03*
X0122430Y0049031D03*
X0122430Y0047850D03*
X0122430Y0047457D03*
X0122430Y0046276D03*
X0122430Y0045882D03*
X0122430Y0044701D03*
X0122430Y0044307D03*
X0122430Y0043126D03*
X0122430Y0042732D03*
X0123612Y0042732D03*
X0123612Y0043126D03*
X0123612Y0041551D03*
X0123612Y0041157D03*
X0123612Y0040370D03*
X0123612Y0039976D03*
X0123612Y0039583D03*
X0125186Y0038795D03*
X0125186Y0038008D03*
X0123612Y0037220D03*
X0123612Y0036827D03*
X0122037Y0038008D03*
X0122037Y0038402D03*
X0122037Y0038795D03*
X0120462Y0039583D03*
X0120462Y0040370D03*
X0120462Y0040764D03*
X0120462Y0041157D03*
X0120462Y0041551D03*
X0118887Y0038008D03*
X0116525Y0038008D03*
X0120462Y0031315D03*
X0120462Y0030528D03*
X0122037Y0029740D03*
X0122037Y0029346D03*
X0122037Y0028953D03*
X0123612Y0028165D03*
X0123612Y0027772D03*
X0123612Y0027378D03*
X0125186Y0026591D03*
X0126761Y0027378D03*
X0125186Y0028953D03*
X0125186Y0029740D03*
X0123612Y0030528D03*
X0123612Y0030921D03*
X0123612Y0031315D03*
X0125186Y0032102D03*
X0126761Y0031315D03*
X0123612Y0033677D03*
X0123612Y0034071D03*
X0122037Y0035252D03*
X0122037Y0035646D03*
X0122037Y0032496D03*
X0122037Y0032102D03*
X0118887Y0029740D03*
X0118887Y0028953D03*
X0120462Y0028165D03*
X0120462Y0027378D03*
X0122037Y0026591D03*
X0122037Y0026197D03*
X0123612Y0025016D03*
X0123612Y0024622D03*
X0122037Y0023441D03*
X0122037Y0023047D03*
X0122037Y0022654D03*
X0122037Y0022260D03*
X0122037Y0021079D03*
X0122037Y0020685D03*
X0122037Y0020291D03*
X0122037Y0019110D03*
X0122037Y0018717D03*
X0119675Y0019898D03*
X0120068Y0023441D03*
X0115738Y0023441D03*
X0115738Y0023047D03*
X0115738Y0022654D03*
X0115738Y0022260D03*
X0115738Y0021079D03*
X0115738Y0020685D03*
X0115738Y0020291D03*
X0115738Y0019504D03*
X0115738Y0019110D03*
X0115738Y0018717D03*
X0115738Y0018323D03*
X0113375Y0019898D03*
X0113769Y0023835D03*
X0117706Y0027378D03*
X0109438Y0018323D03*
X0107076Y0019504D03*
X0107076Y0019898D03*
X0107470Y0020291D03*
X0107470Y0020685D03*
X0107470Y0021079D03*
X0107470Y0022654D03*
X0107470Y0023047D03*
X0107470Y0023441D03*
X0107470Y0023835D03*
X0103927Y0023835D03*
X0101171Y0023441D03*
X0101171Y0023047D03*
X0101171Y0022654D03*
X0101171Y0021079D03*
X0101171Y0020685D03*
X0101171Y0020291D03*
X0100777Y0019898D03*
X0100777Y0019504D03*
X0100383Y0018323D03*
X0103139Y0018323D03*
X0106682Y0018323D03*
X0097234Y0018717D03*
X0097234Y0019110D03*
X0097234Y0020291D03*
X0097234Y0020685D03*
X0097234Y0021079D03*
X0097234Y0022260D03*
X0097234Y0022654D03*
X0097234Y0023047D03*
X0097234Y0023441D03*
X0096840Y0024228D03*
X0096840Y0024622D03*
X0096840Y0025016D03*
X0096840Y0025409D03*
X0096840Y0025803D03*
X0096840Y0026197D03*
X0096840Y0026591D03*
X0096840Y0026984D03*
X0096840Y0027378D03*
X0096840Y0027772D03*
X0096840Y0028165D03*
X0096840Y0028559D03*
X0096840Y0028953D03*
X0096840Y0029346D03*
X0096840Y0029740D03*
X0096446Y0030921D03*
X0096446Y0031315D03*
X0096446Y0031709D03*
X0096446Y0032102D03*
X0096446Y0032496D03*
X0096446Y0032890D03*
X0096446Y0033283D03*
X0096446Y0033677D03*
X0096446Y0034071D03*
X0096446Y0034465D03*
X0096446Y0034858D03*
X0093690Y0034858D03*
X0093690Y0034465D03*
X0093690Y0034071D03*
X0093690Y0033677D03*
X0093690Y0033283D03*
X0093690Y0032890D03*
X0093690Y0032496D03*
X0093690Y0032102D03*
X0093690Y0031709D03*
X0093690Y0031315D03*
X0093690Y0030921D03*
X0094478Y0029740D03*
X0094478Y0029346D03*
X0094478Y0028953D03*
X0094478Y0028559D03*
X0094478Y0028165D03*
X0094478Y0027772D03*
X0094478Y0027378D03*
X0094478Y0026984D03*
X0094478Y0026591D03*
X0094478Y0026197D03*
X0094478Y0025803D03*
X0094478Y0025409D03*
X0094478Y0025016D03*
X0094478Y0024622D03*
X0094478Y0024228D03*
X0094871Y0023047D03*
X0094871Y0022654D03*
X0094871Y0021472D03*
X0094871Y0021079D03*
X0094871Y0020685D03*
X0094871Y0020291D03*
X0094478Y0019504D03*
X0094084Y0018717D03*
X0094084Y0018323D03*
X0090934Y0018323D03*
X0090934Y0018717D03*
X0090934Y0021079D03*
X0088572Y0019898D03*
X0088178Y0018323D03*
X0084635Y0018323D03*
X0084635Y0018717D03*
X0084635Y0021079D03*
X0082273Y0019898D03*
X0081879Y0018323D03*
X0078336Y0018323D03*
X0078730Y0020685D03*
X0078730Y0021079D03*
X0078730Y0022260D03*
X0078730Y0022654D03*
X0076367Y0022654D03*
X0076367Y0023047D03*
X0076367Y0023441D03*
X0076367Y0021079D03*
X0076367Y0020685D03*
X0076367Y0020291D03*
X0075974Y0019898D03*
X0075974Y0019504D03*
X0075580Y0018717D03*
X0075580Y0018323D03*
X0072037Y0018323D03*
X0069675Y0019504D03*
X0069675Y0019898D03*
X0070068Y0020291D03*
X0070068Y0020685D03*
X0070068Y0021079D03*
X0070068Y0022654D03*
X0070068Y0023047D03*
X0070068Y0023441D03*
X0068887Y0023835D03*
X0069281Y0024622D03*
X0069281Y0025016D03*
X0068100Y0025803D03*
X0068100Y0026197D03*
X0067706Y0026591D03*
X0066919Y0025803D03*
X0066525Y0026591D03*
X0066131Y0026984D03*
X0066131Y0027378D03*
X0066131Y0027772D03*
X0064556Y0028953D03*
X0064163Y0029346D03*
X0061801Y0028953D03*
X0062588Y0027378D03*
X0064163Y0023835D03*
X0066131Y0023047D03*
X0066131Y0022654D03*
X0066131Y0022260D03*
X0066131Y0021079D03*
X0066131Y0020685D03*
X0066131Y0020291D03*
X0066131Y0019110D03*
X0066131Y0018717D03*
X0063769Y0019898D03*
X0060226Y0020291D03*
X0060226Y0020685D03*
X0060226Y0021079D03*
X0060226Y0022260D03*
X0060226Y0022654D03*
X0060226Y0023047D03*
X0060226Y0023441D03*
X0060226Y0023835D03*
X0057864Y0023835D03*
X0057864Y0023441D03*
X0057864Y0023047D03*
X0057864Y0022654D03*
X0057864Y0021079D03*
X0057864Y0020685D03*
X0057864Y0020291D03*
X0057470Y0019898D03*
X0057470Y0019504D03*
X0057076Y0018717D03*
X0057076Y0018323D03*
X0053927Y0018717D03*
X0053927Y0019110D03*
X0053927Y0020291D03*
X0053927Y0020685D03*
X0053927Y0021079D03*
X0053927Y0022260D03*
X0053927Y0022654D03*
X0053927Y0023047D03*
X0051958Y0023835D03*
X0051564Y0023047D03*
X0051564Y0022654D03*
X0051564Y0021472D03*
X0051564Y0021079D03*
X0051564Y0020685D03*
X0051564Y0020291D03*
X0051171Y0019504D03*
X0050777Y0018717D03*
X0050777Y0018323D03*
X0047627Y0018323D03*
X0045265Y0019504D03*
X0045265Y0019898D03*
X0045659Y0020291D03*
X0045659Y0020685D03*
X0045659Y0021079D03*
X0045659Y0022654D03*
X0045659Y0023047D03*
X0045659Y0023441D03*
X0045659Y0023835D03*
X0048021Y0023835D03*
X0048021Y0023441D03*
X0045659Y0026984D03*
X0045659Y0027378D03*
X0045659Y0027772D03*
X0045659Y0028165D03*
X0047627Y0030134D03*
X0041722Y0029740D03*
X0041328Y0029346D03*
X0040934Y0028953D03*
X0040541Y0028559D03*
X0040147Y0028165D03*
X0039753Y0027772D03*
X0039360Y0027378D03*
X0038966Y0026984D03*
X0038572Y0026591D03*
X0038178Y0026197D03*
X0037785Y0025803D03*
X0037391Y0025409D03*
X0036997Y0025016D03*
X0036604Y0024622D03*
X0036210Y0024228D03*
X0035816Y0023835D03*
X0033454Y0023835D03*
X0033454Y0023441D03*
X0035423Y0021079D03*
X0035423Y0018717D03*
X0035423Y0018323D03*
X0032667Y0018323D03*
X0033060Y0019898D03*
X0029911Y0019898D03*
X0029911Y0023441D03*
X0029911Y0023835D03*
X0039360Y0023047D03*
X0039360Y0022654D03*
X0039360Y0021472D03*
X0039360Y0021079D03*
X0039360Y0020685D03*
X0039360Y0020291D03*
X0038966Y0019504D03*
X0038572Y0018717D03*
X0038572Y0018323D03*
X0041722Y0018717D03*
X0041722Y0019110D03*
X0041722Y0020291D03*
X0041722Y0020685D03*
X0041722Y0021079D03*
X0041722Y0022260D03*
X0041722Y0022654D03*
X0041722Y0023047D03*
X0039753Y0023835D03*
X0044871Y0018323D03*
X0051958Y0025803D03*
X0057470Y0024622D03*
X0057864Y0025016D03*
X0060226Y0019110D03*
X0060226Y0018717D03*
X0066525Y0023835D03*
X0069281Y0018717D03*
X0069281Y0018323D03*
X0072430Y0022260D03*
X0072824Y0023835D03*
X0082667Y0023835D03*
X0082667Y0023441D03*
X0088966Y0023441D03*
X0088966Y0023835D03*
X0091328Y0023835D03*
X0078730Y0042732D03*
X0075974Y0043126D03*
X0075974Y0044307D03*
X0076367Y0044701D03*
X0076761Y0045882D03*
X0074793Y0045094D03*
X0072824Y0045094D03*
X0072824Y0044701D03*
X0072824Y0044307D03*
X0072824Y0043913D03*
X0072824Y0043520D03*
X0072824Y0043126D03*
X0072824Y0042732D03*
X0072824Y0045488D03*
X0072824Y0045882D03*
X0072824Y0046276D03*
X0072824Y0046669D03*
X0072824Y0047063D03*
X0072824Y0047457D03*
X0123612Y0046276D03*
X0123612Y0045882D03*
X0123612Y0049031D03*
X0123612Y0049425D03*
X0125186Y0050213D03*
X0125186Y0051000D03*
X0123612Y0051787D03*
X0123612Y0052181D03*
X0123612Y0052575D03*
X0123612Y0052969D03*
X0123612Y0053362D03*
X0123612Y0053756D03*
X0126761Y0053756D03*
X0126761Y0051787D03*
X0128336Y0050213D03*
X0126761Y0048638D03*
X0131092Y0050213D03*
X0131092Y0051000D03*
X0132667Y0051787D03*
X0132667Y0052181D03*
X0132667Y0052575D03*
X0132667Y0052969D03*
X0132667Y0053362D03*
X0132667Y0053756D03*
X0135816Y0053756D03*
X0135816Y0053362D03*
X0135816Y0052969D03*
X0135816Y0052575D03*
X0135816Y0052181D03*
X0135816Y0051787D03*
X0134241Y0051000D03*
X0134241Y0050606D03*
X0134241Y0050213D03*
X0132667Y0049425D03*
X0132667Y0049031D03*
X0132667Y0046276D03*
X0132667Y0045882D03*
X0132667Y0043126D03*
X0132667Y0042732D03*
X0132667Y0041157D03*
X0132667Y0040370D03*
X0132667Y0039976D03*
X0132667Y0039583D03*
X0134241Y0038795D03*
X0134241Y0038402D03*
X0134241Y0038008D03*
X0132667Y0037220D03*
X0132667Y0036827D03*
X0134241Y0035646D03*
X0134241Y0035252D03*
X0135816Y0034071D03*
X0135816Y0033677D03*
X0135816Y0031315D03*
X0135816Y0030921D03*
X0135816Y0030528D03*
X0137391Y0029740D03*
X0137391Y0028953D03*
X0135816Y0028165D03*
X0135816Y0027772D03*
X0135816Y0027378D03*
X0135816Y0025016D03*
X0135816Y0024622D03*
X0134241Y0023441D03*
X0134241Y0023047D03*
X0134241Y0022654D03*
X0134241Y0022260D03*
X0134241Y0021079D03*
X0134241Y0020685D03*
X0134241Y0020291D03*
X0134241Y0019110D03*
X0134241Y0018717D03*
X0131092Y0018717D03*
X0128336Y0018717D03*
X0128336Y0020291D03*
X0128336Y0020685D03*
X0128336Y0021079D03*
X0128336Y0022260D03*
X0128336Y0022654D03*
X0128336Y0023441D03*
X0125974Y0023441D03*
X0125974Y0023047D03*
X0125974Y0022654D03*
X0125974Y0021079D03*
X0125974Y0020685D03*
X0125974Y0020291D03*
X0125580Y0019898D03*
X0125580Y0019504D03*
X0125186Y0018717D03*
X0125186Y0018323D03*
X0132273Y0022260D03*
X0132273Y0023441D03*
X0137391Y0018717D03*
X0137391Y0018323D03*
X0137785Y0019504D03*
X0137785Y0019898D03*
X0138178Y0020291D03*
X0138178Y0020685D03*
X0138178Y0021079D03*
X0138178Y0022654D03*
X0138178Y0023047D03*
X0138178Y0023441D03*
X0140541Y0023441D03*
X0140541Y0022260D03*
X0140541Y0021079D03*
X0143690Y0019504D03*
X0143297Y0018717D03*
X0143297Y0018323D03*
X0144084Y0020291D03*
X0144084Y0020685D03*
X0144084Y0021079D03*
X0144084Y0021472D03*
X0144084Y0022654D03*
X0144084Y0023047D03*
X0144084Y0023441D03*
X0144871Y0024622D03*
X0144871Y0025016D03*
X0146446Y0025016D03*
X0146446Y0024622D03*
X0146446Y0023047D03*
X0146446Y0022654D03*
X0146446Y0022260D03*
X0146446Y0021079D03*
X0146446Y0020685D03*
X0146446Y0020291D03*
X0146446Y0019110D03*
X0146446Y0018717D03*
X0149596Y0018717D03*
X0149596Y0018323D03*
X0149989Y0019504D03*
X0149989Y0019898D03*
X0150383Y0020291D03*
X0150383Y0020685D03*
X0150383Y0021079D03*
X0150383Y0021472D03*
X0150383Y0022654D03*
X0150383Y0023047D03*
X0150383Y0023441D03*
X0152745Y0023047D03*
X0152745Y0022654D03*
X0152745Y0022260D03*
X0152745Y0021079D03*
X0152745Y0020685D03*
X0152745Y0020291D03*
X0152745Y0019110D03*
X0152745Y0018717D03*
X0152352Y0018323D03*
X0155895Y0018323D03*
X0155895Y0018717D03*
X0156289Y0019504D03*
X0156289Y0019898D03*
X0156682Y0020291D03*
X0156682Y0020685D03*
X0156682Y0021079D03*
X0156682Y0021472D03*
X0156682Y0022654D03*
X0156682Y0023047D03*
X0156682Y0023441D03*
X0159045Y0023047D03*
X0159045Y0022654D03*
X0159045Y0022260D03*
X0159045Y0021079D03*
X0159045Y0020685D03*
X0159045Y0020291D03*
X0159045Y0019110D03*
X0159045Y0018717D03*
X0162194Y0018323D03*
X0162588Y0019504D03*
X0162588Y0019898D03*
X0162982Y0020291D03*
X0162982Y0020685D03*
X0162982Y0021079D03*
X0162982Y0022654D03*
X0162982Y0023441D03*
X0162982Y0023835D03*
X0165738Y0023835D03*
X0169281Y0023835D03*
X0169281Y0023441D03*
X0169281Y0022654D03*
X0169281Y0021079D03*
X0169281Y0020685D03*
X0169281Y0020291D03*
X0168887Y0019898D03*
X0168887Y0019504D03*
X0168493Y0018323D03*
X0171249Y0018323D03*
X0174399Y0018717D03*
X0175186Y0019898D03*
X0175580Y0022260D03*
X0175580Y0023835D03*
X0177549Y0023047D03*
X0177549Y0022654D03*
X0177549Y0022260D03*
X0177549Y0021079D03*
X0177549Y0020685D03*
X0177549Y0020291D03*
X0177549Y0019504D03*
X0177549Y0019110D03*
X0177549Y0018717D03*
X0180698Y0018717D03*
X0183848Y0018717D03*
X0183848Y0019110D03*
X0183848Y0020291D03*
X0183848Y0020685D03*
X0183848Y0021079D03*
X0183848Y0022260D03*
X0183848Y0022654D03*
X0183848Y0023047D03*
X0184241Y0023835D03*
X0181879Y0023835D03*
X0181879Y0022260D03*
X0187785Y0022654D03*
X0187785Y0023047D03*
X0187785Y0021472D03*
X0187785Y0021079D03*
X0187785Y0020685D03*
X0187785Y0020291D03*
X0187391Y0019898D03*
X0187391Y0019504D03*
X0186997Y0018717D03*
X0186997Y0018323D03*
X0190147Y0018717D03*
X0190147Y0019110D03*
X0190147Y0020291D03*
X0190147Y0020685D03*
X0190147Y0021079D03*
X0190147Y0022260D03*
X0190147Y0022654D03*
X0190147Y0023047D03*
X0194084Y0023047D03*
X0194084Y0022654D03*
X0194084Y0021472D03*
X0194084Y0021079D03*
X0194084Y0020685D03*
X0194084Y0020291D03*
X0193690Y0019898D03*
X0193690Y0019504D03*
X0193297Y0018717D03*
X0193297Y0018323D03*
X0196446Y0018717D03*
X0196446Y0019110D03*
X0196446Y0020291D03*
X0196446Y0020685D03*
X0196446Y0021079D03*
X0196446Y0022260D03*
X0196446Y0022654D03*
X0196446Y0023047D03*
X0196840Y0023835D03*
X0200383Y0023835D03*
X0200383Y0023441D03*
X0200383Y0023047D03*
X0200383Y0022654D03*
X0200383Y0021079D03*
X0200383Y0020685D03*
X0200383Y0020291D03*
X0199989Y0019898D03*
X0199989Y0019504D03*
X0199596Y0018323D03*
X0202352Y0018323D03*
X0205895Y0018323D03*
X0206289Y0019898D03*
X0208651Y0020291D03*
X0208651Y0020685D03*
X0208651Y0021079D03*
X0208651Y0022260D03*
X0208651Y0022654D03*
X0208651Y0023047D03*
X0206682Y0023835D03*
X0202745Y0023441D03*
X0208651Y0019504D03*
X0208651Y0019110D03*
X0208651Y0018717D03*
X0208651Y0018323D03*
X0212588Y0019898D03*
X0214950Y0020291D03*
X0214950Y0020685D03*
X0214950Y0021079D03*
X0214950Y0022260D03*
X0214950Y0022654D03*
X0214950Y0023047D03*
X0212982Y0023441D03*
X0211013Y0025409D03*
X0209438Y0029346D03*
X0216919Y0027378D03*
X0216919Y0026984D03*
X0216919Y0026591D03*
X0216919Y0026197D03*
X0216919Y0025803D03*
X0218887Y0023441D03*
X0218887Y0023047D03*
X0218887Y0022654D03*
X0218887Y0021472D03*
X0218887Y0021079D03*
X0218887Y0020685D03*
X0218887Y0020291D03*
X0218493Y0019504D03*
X0218100Y0018717D03*
X0218100Y0018323D03*
X0214950Y0018323D03*
X0214950Y0018717D03*
X0214950Y0019110D03*
X0221249Y0019110D03*
X0221249Y0018717D03*
X0221249Y0020291D03*
X0221249Y0020685D03*
X0221249Y0021079D03*
X0221249Y0022260D03*
X0221249Y0022654D03*
X0221249Y0023047D03*
X0221249Y0023441D03*
X0223218Y0025803D03*
X0223218Y0026197D03*
X0223218Y0026591D03*
X0223218Y0026984D03*
X0223218Y0027378D03*
X0223218Y0027772D03*
X0223218Y0031709D03*
X0223218Y0032102D03*
X0223218Y0032496D03*
X0223218Y0032890D03*
X0223218Y0033283D03*
X0223218Y0033677D03*
X0222824Y0034858D03*
X0223218Y0038008D03*
X0223218Y0038402D03*
X0223218Y0038795D03*
X0223218Y0039189D03*
X0223218Y0039583D03*
X0223218Y0039976D03*
X0222824Y0040764D03*
X0222037Y0041551D03*
X0227155Y0041157D03*
X0227549Y0041551D03*
X0227155Y0037220D03*
X0227549Y0036827D03*
X0227155Y0034858D03*
X0227155Y0030921D03*
X0227549Y0030528D03*
X0227549Y0029346D03*
X0227155Y0028953D03*
X0227155Y0025016D03*
X0227549Y0024622D03*
X0227549Y0023441D03*
X0227549Y0023047D03*
X0227549Y0022654D03*
X0227549Y0022260D03*
X0227549Y0021079D03*
X0227549Y0020685D03*
X0227549Y0020291D03*
X0227549Y0019898D03*
X0227549Y0019504D03*
X0227549Y0019110D03*
X0227549Y0018717D03*
X0227155Y0018323D03*
X0224793Y0019504D03*
X0225186Y0020291D03*
X0225186Y0020685D03*
X0225186Y0021079D03*
X0225186Y0021472D03*
X0225186Y0022654D03*
X0225186Y0023047D03*
X0225186Y0023441D03*
X0224399Y0018717D03*
X0224399Y0018323D03*
X0216919Y0031709D03*
X0216919Y0032102D03*
X0216919Y0032496D03*
X0216919Y0032890D03*
X0216919Y0033283D03*
X0216919Y0033677D03*
X0216525Y0034858D03*
X0215738Y0035252D03*
X0201171Y0036433D03*
X0171643Y0023835D03*
X0164950Y0018323D03*
X0159438Y0023835D03*
X0165344Y0036433D03*
X0165344Y0042339D03*
X0146446Y0041551D03*
X0146446Y0041157D03*
X0146446Y0040764D03*
X0146446Y0040370D03*
X0146446Y0039976D03*
X0146446Y0039583D03*
X0146446Y0038795D03*
X0146446Y0038402D03*
X0146446Y0038008D03*
X0146446Y0037220D03*
X0146446Y0036827D03*
X0146446Y0035646D03*
X0146446Y0035252D03*
X0146446Y0034071D03*
X0146446Y0033677D03*
X0146446Y0032496D03*
X0146446Y0032102D03*
X0146446Y0031315D03*
X0146446Y0030921D03*
X0146446Y0030528D03*
X0146446Y0029740D03*
X0146446Y0029346D03*
X0146446Y0028953D03*
X0146446Y0028165D03*
X0146446Y0027772D03*
X0146446Y0027378D03*
X0146446Y0026591D03*
X0146446Y0026197D03*
X0144871Y0027378D03*
X0144871Y0027772D03*
X0144871Y0028165D03*
X0143297Y0028953D03*
X0143297Y0029740D03*
X0144871Y0030528D03*
X0144871Y0030921D03*
X0144871Y0031315D03*
X0143297Y0032102D03*
X0141722Y0031315D03*
X0138966Y0031315D03*
X0138966Y0027378D03*
X0141722Y0027378D03*
X0143297Y0026591D03*
X0144871Y0033677D03*
X0144871Y0034071D03*
X0144871Y0036827D03*
X0144871Y0037220D03*
X0143297Y0038008D03*
X0143297Y0038795D03*
X0144871Y0039583D03*
X0144871Y0039976D03*
X0144871Y0040370D03*
X0144871Y0040764D03*
X0144871Y0041157D03*
X0144871Y0041551D03*
X0141722Y0041551D03*
X0141722Y0039583D03*
X0138966Y0039583D03*
X0137391Y0038795D03*
X0137391Y0038008D03*
X0135816Y0037220D03*
X0135816Y0036827D03*
X0135816Y0039583D03*
X0135816Y0039976D03*
X0135816Y0040370D03*
X0135816Y0041157D03*
X0137391Y0041157D03*
X0137391Y0041945D03*
X0135816Y0048638D03*
X0135816Y0049031D03*
X0135816Y0049425D03*
X0137391Y0050213D03*
X0137391Y0051000D03*
X0138966Y0051787D03*
X0140147Y0050213D03*
X0140147Y0053756D03*
X0138966Y0053756D03*
X0129517Y0053756D03*
X0131092Y0041945D03*
X0131092Y0041157D03*
X0129517Y0039583D03*
X0131092Y0038008D03*
X0126761Y0039583D03*
X0126761Y0041551D03*
X0125186Y0041157D03*
X0125186Y0041945D03*
X0283848Y0330134D03*
X0283848Y0400606D03*
D15*
X0283651Y0401000D03*
X0283651Y0330528D03*
X0123021Y0054150D03*
X0128139Y0038008D03*
X0140344Y0038008D03*
X0146643Y0023441D03*
X0144281Y0022260D03*
X0146249Y0018323D03*
X0140738Y0019898D03*
X0140344Y0018323D03*
X0138375Y0022260D03*
X0134438Y0019898D03*
X0134045Y0018323D03*
X0128533Y0019898D03*
X0128139Y0018323D03*
X0126171Y0022260D03*
X0122234Y0019898D03*
X0121840Y0018323D03*
X0120265Y0022260D03*
X0117115Y0019504D03*
X0113966Y0022260D03*
X0113572Y0023441D03*
X0109635Y0023441D03*
X0107667Y0022260D03*
X0110029Y0019898D03*
X0104517Y0019504D03*
X0103730Y0019898D03*
X0101367Y0022260D03*
X0097430Y0019898D03*
X0097037Y0018323D03*
X0095068Y0022260D03*
X0095068Y0023441D03*
X0091131Y0023441D03*
X0089163Y0022260D03*
X0091525Y0019898D03*
X0087588Y0018717D03*
X0086013Y0019504D03*
X0085226Y0019898D03*
X0082864Y0022260D03*
X0081289Y0018717D03*
X0078927Y0019898D03*
X0076564Y0022260D03*
X0078927Y0023441D03*
X0072627Y0023441D03*
X0070265Y0022260D03*
X0072627Y0019898D03*
X0066328Y0019898D03*
X0065934Y0018323D03*
X0064360Y0022260D03*
X0063966Y0023441D03*
X0066328Y0023441D03*
X0066722Y0026197D03*
X0065541Y0028165D03*
X0065147Y0028559D03*
X0059635Y0026591D03*
X0058060Y0022260D03*
X0060423Y0019898D03*
X0060029Y0018323D03*
X0053730Y0018323D03*
X0051761Y0022260D03*
X0051761Y0023441D03*
X0054123Y0023441D03*
X0054123Y0023835D03*
X0048218Y0019898D03*
X0045856Y0022260D03*
X0041919Y0023441D03*
X0039556Y0023441D03*
X0039556Y0022260D03*
X0041919Y0019898D03*
X0041525Y0018323D03*
X0036013Y0019898D03*
X0033651Y0022260D03*
X0035619Y0023441D03*
X0032076Y0018717D03*
X0042312Y0030134D03*
X0046643Y0030528D03*
X0047037Y0029346D03*
X0047037Y0028953D03*
X0047037Y0028559D03*
X0047037Y0028165D03*
X0074596Y0045488D03*
X0076564Y0045094D03*
X0092312Y0035646D03*
X0102549Y0035646D03*
X0116722Y0032890D03*
X0116722Y0025803D03*
X0150580Y0022260D03*
X0152942Y0023441D03*
X0156879Y0022260D03*
X0159241Y0023441D03*
X0159241Y0019898D03*
X0158848Y0018323D03*
X0163178Y0022260D03*
X0165541Y0019898D03*
X0166328Y0019504D03*
X0167903Y0018717D03*
X0169478Y0022260D03*
X0171446Y0023441D03*
X0171840Y0019898D03*
X0175383Y0023441D03*
X0177745Y0023441D03*
X0181682Y0023441D03*
X0184045Y0023441D03*
X0187982Y0023441D03*
X0187982Y0022260D03*
X0190344Y0023441D03*
X0194281Y0023441D03*
X0194281Y0022260D03*
X0196643Y0023441D03*
X0196643Y0019898D03*
X0196249Y0018323D03*
X0200580Y0022260D03*
X0202942Y0019898D03*
X0205304Y0018717D03*
X0206879Y0022260D03*
X0206486Y0023441D03*
X0208848Y0023441D03*
X0210029Y0019504D03*
X0213178Y0022260D03*
X0215147Y0023441D03*
X0215147Y0024622D03*
X0219084Y0022260D03*
X0221446Y0024622D03*
X0225383Y0022260D03*
X0226958Y0025409D03*
X0226958Y0028559D03*
X0226958Y0031315D03*
X0221446Y0030528D03*
X0226958Y0037614D03*
X0226958Y0040764D03*
X0221052Y0018323D03*
X0201367Y0041945D03*
X0189950Y0018323D03*
X0183651Y0018323D03*
X0178927Y0019504D03*
X0177352Y0018323D03*
X0048218Y0317535D03*
X0048218Y0388402D03*
X0056092Y0454937D03*
X0056092Y0455331D03*
X0056092Y0455724D03*
X0056092Y0456118D03*
X0056092Y0457299D03*
X0056092Y0457693D03*
X0054123Y0457693D03*
X0054123Y0457299D03*
X0054123Y0456906D03*
X0054123Y0456512D03*
X0054123Y0456118D03*
X0054123Y0455724D03*
X0051367Y0455724D03*
X0051367Y0456118D03*
X0051367Y0456512D03*
X0051367Y0456906D03*
X0051367Y0457299D03*
X0051367Y0457693D03*
X0060423Y0457693D03*
X0060423Y0457299D03*
X0060423Y0456118D03*
X0060423Y0455724D03*
X0060423Y0455331D03*
X0060423Y0454937D03*
X0084832Y0455724D03*
X0084832Y0456118D03*
X0084832Y0456512D03*
X0084832Y0456906D03*
X0084832Y0457299D03*
X0084832Y0457693D03*
X0087588Y0457693D03*
X0087588Y0457299D03*
X0087588Y0456906D03*
X0087588Y0456512D03*
X0087588Y0456118D03*
X0087588Y0455724D03*
X0089556Y0455331D03*
X0091919Y0454937D03*
X0091919Y0457299D03*
X0091919Y0457693D03*
X0091919Y0458087D03*
X0089556Y0458087D03*
D16*
X0284045Y0400213D03*
X0284045Y0329740D03*
X0140344Y0053362D03*
X0140344Y0052969D03*
X0140344Y0052575D03*
X0140344Y0052181D03*
X0140344Y0051787D03*
X0140344Y0051000D03*
X0140344Y0050606D03*
X0140344Y0049425D03*
X0140344Y0049031D03*
X0140344Y0047850D03*
X0140344Y0047457D03*
X0140344Y0046276D03*
X0140344Y0045882D03*
X0140344Y0044701D03*
X0140344Y0044307D03*
X0140344Y0043126D03*
X0140344Y0042732D03*
X0138769Y0042732D03*
X0138769Y0043126D03*
X0138769Y0041551D03*
X0138769Y0041157D03*
X0138769Y0040370D03*
X0138769Y0039976D03*
X0140344Y0038795D03*
X0140344Y0038402D03*
X0141919Y0037220D03*
X0141919Y0036827D03*
X0143493Y0035646D03*
X0143493Y0035252D03*
X0141919Y0034071D03*
X0141919Y0033677D03*
X0143493Y0032496D03*
X0141919Y0030921D03*
X0141919Y0030528D03*
X0140344Y0029740D03*
X0140344Y0029346D03*
X0140344Y0028953D03*
X0141919Y0028165D03*
X0141919Y0027772D03*
X0140344Y0026591D03*
X0140344Y0026197D03*
X0141919Y0025016D03*
X0141919Y0024622D03*
X0143493Y0026197D03*
X0143493Y0029346D03*
X0140344Y0032102D03*
X0140344Y0032496D03*
X0138769Y0033677D03*
X0138769Y0034071D03*
X0137194Y0035252D03*
X0137194Y0035646D03*
X0138769Y0036827D03*
X0138769Y0037220D03*
X0137194Y0038402D03*
X0135226Y0038008D03*
X0135619Y0041551D03*
X0137194Y0041551D03*
X0132864Y0041551D03*
X0131289Y0041551D03*
X0129714Y0041551D03*
X0129714Y0041157D03*
X0129714Y0040370D03*
X0129714Y0039976D03*
X0131289Y0038795D03*
X0131289Y0038402D03*
X0129714Y0037220D03*
X0129714Y0036827D03*
X0128139Y0035646D03*
X0128139Y0035252D03*
X0126564Y0034071D03*
X0126564Y0033677D03*
X0124989Y0032496D03*
X0126564Y0030921D03*
X0126564Y0030528D03*
X0124989Y0029346D03*
X0126564Y0028165D03*
X0126564Y0027772D03*
X0124989Y0026197D03*
X0126564Y0025016D03*
X0126564Y0024622D03*
X0128139Y0023047D03*
X0128139Y0019110D03*
X0130108Y0018717D03*
X0131289Y0018323D03*
X0131682Y0019504D03*
X0131682Y0019898D03*
X0132076Y0020291D03*
X0132076Y0020685D03*
X0132076Y0021079D03*
X0132076Y0021472D03*
X0132076Y0022654D03*
X0132076Y0023047D03*
X0137194Y0026197D03*
X0137194Y0026591D03*
X0138769Y0027772D03*
X0138769Y0028165D03*
X0137194Y0029346D03*
X0138769Y0030528D03*
X0138769Y0030921D03*
X0137194Y0032102D03*
X0137194Y0032496D03*
X0140344Y0035252D03*
X0140344Y0035646D03*
X0143493Y0038402D03*
X0141919Y0039976D03*
X0141919Y0040370D03*
X0141919Y0040764D03*
X0141919Y0041157D03*
X0138769Y0045882D03*
X0138769Y0046276D03*
X0138769Y0049031D03*
X0138769Y0049425D03*
X0137194Y0050606D03*
X0138769Y0052181D03*
X0138769Y0052575D03*
X0138769Y0052969D03*
X0138769Y0053362D03*
X0131289Y0050606D03*
X0129714Y0049425D03*
X0129714Y0049031D03*
X0131289Y0047850D03*
X0131289Y0047457D03*
X0129714Y0046276D03*
X0129714Y0045882D03*
X0131289Y0044701D03*
X0131289Y0044307D03*
X0129714Y0043126D03*
X0129714Y0042732D03*
X0126564Y0041157D03*
X0126564Y0040370D03*
X0126564Y0039976D03*
X0128139Y0038795D03*
X0128139Y0038402D03*
X0126564Y0037220D03*
X0126564Y0036827D03*
X0124989Y0035646D03*
X0124989Y0035252D03*
X0124989Y0038402D03*
X0123021Y0038008D03*
X0121052Y0038008D03*
X0120659Y0037220D03*
X0120659Y0036827D03*
X0119084Y0035646D03*
X0119084Y0035252D03*
X0120659Y0034071D03*
X0120659Y0033677D03*
X0119084Y0032496D03*
X0119084Y0032102D03*
X0120659Y0030921D03*
X0119084Y0029346D03*
X0117509Y0028165D03*
X0117509Y0027772D03*
X0116328Y0027772D03*
X0116328Y0028165D03*
X0116328Y0027378D03*
X0116328Y0026591D03*
X0116328Y0026197D03*
X0116328Y0025016D03*
X0116328Y0024622D03*
X0117509Y0024622D03*
X0117509Y0025016D03*
X0119084Y0026197D03*
X0119084Y0026591D03*
X0120659Y0027772D03*
X0120659Y0025016D03*
X0120659Y0024622D03*
X0119871Y0023047D03*
X0119871Y0022654D03*
X0119871Y0021472D03*
X0119871Y0021079D03*
X0119871Y0020685D03*
X0119871Y0020291D03*
X0119478Y0019504D03*
X0119084Y0018323D03*
X0124202Y0018717D03*
X0116328Y0028953D03*
X0116328Y0029346D03*
X0116328Y0029740D03*
X0116328Y0030528D03*
X0116328Y0030921D03*
X0117509Y0030921D03*
X0117509Y0030528D03*
X0116328Y0032102D03*
X0116328Y0032496D03*
X0116328Y0033677D03*
X0116328Y0034071D03*
X0116328Y0035252D03*
X0116328Y0035646D03*
X0116328Y0036827D03*
X0116328Y0037220D03*
X0117509Y0037220D03*
X0117509Y0036827D03*
X0116328Y0038402D03*
X0116328Y0038795D03*
X0116328Y0039583D03*
X0116328Y0039976D03*
X0116328Y0040370D03*
X0116328Y0040764D03*
X0116328Y0041157D03*
X0116328Y0041551D03*
X0117509Y0041551D03*
X0117509Y0041157D03*
X0117509Y0040764D03*
X0117509Y0040370D03*
X0117509Y0039976D03*
X0117509Y0039583D03*
X0119084Y0038795D03*
X0119084Y0038402D03*
X0120659Y0039976D03*
X0117509Y0034071D03*
X0117509Y0033677D03*
X0113572Y0023047D03*
X0113572Y0022654D03*
X0113572Y0021472D03*
X0113572Y0021079D03*
X0113572Y0020685D03*
X0113572Y0020291D03*
X0113178Y0019504D03*
X0112785Y0018323D03*
X0109635Y0018717D03*
X0109635Y0019110D03*
X0109635Y0020291D03*
X0109635Y0020685D03*
X0109635Y0021079D03*
X0109635Y0022260D03*
X0109635Y0022654D03*
X0109635Y0023047D03*
X0110029Y0023835D03*
X0103336Y0023047D03*
X0103336Y0022654D03*
X0103336Y0022260D03*
X0103336Y0021079D03*
X0103336Y0020685D03*
X0103336Y0020291D03*
X0103336Y0019504D03*
X0103336Y0019110D03*
X0103336Y0018717D03*
X0102155Y0023835D03*
X0102155Y0024228D03*
X0102155Y0024622D03*
X0102155Y0025016D03*
X0102155Y0025409D03*
X0102155Y0025803D03*
X0102155Y0026197D03*
X0102155Y0026591D03*
X0102155Y0026984D03*
X0102155Y0027378D03*
X0102155Y0027772D03*
X0102155Y0028165D03*
X0102155Y0028559D03*
X0102155Y0028953D03*
X0102155Y0029346D03*
X0102155Y0029740D03*
X0101367Y0029740D03*
X0102155Y0030921D03*
X0102942Y0030921D03*
X0102942Y0031315D03*
X0102942Y0031709D03*
X0102942Y0032102D03*
X0102942Y0032496D03*
X0102942Y0032890D03*
X0102942Y0033283D03*
X0102942Y0033677D03*
X0102942Y0034071D03*
X0102942Y0034465D03*
X0102942Y0034858D03*
X0101367Y0035646D03*
X0097037Y0035646D03*
X0091919Y0034858D03*
X0091919Y0034465D03*
X0091919Y0034071D03*
X0091919Y0033677D03*
X0091919Y0033283D03*
X0091919Y0032890D03*
X0091919Y0032496D03*
X0091919Y0032102D03*
X0091919Y0031709D03*
X0091919Y0031315D03*
X0091919Y0030921D03*
X0092706Y0029740D03*
X0092706Y0029346D03*
X0092706Y0028953D03*
X0092706Y0028559D03*
X0092706Y0028165D03*
X0092706Y0027772D03*
X0092706Y0027378D03*
X0092706Y0026984D03*
X0092706Y0026591D03*
X0092706Y0026197D03*
X0092706Y0025803D03*
X0092706Y0025409D03*
X0092706Y0025016D03*
X0092706Y0024622D03*
X0092706Y0024228D03*
X0092706Y0023835D03*
X0091131Y0023047D03*
X0091131Y0022654D03*
X0091131Y0022260D03*
X0091131Y0020685D03*
X0091131Y0020291D03*
X0091131Y0019110D03*
X0093100Y0018717D03*
X0094675Y0019898D03*
X0088769Y0020291D03*
X0088769Y0020685D03*
X0088769Y0021079D03*
X0088769Y0022654D03*
X0088769Y0023047D03*
X0088375Y0019504D03*
X0084832Y0019504D03*
X0084832Y0019110D03*
X0084832Y0020291D03*
X0084832Y0020685D03*
X0084832Y0022260D03*
X0084832Y0022654D03*
X0084832Y0023047D03*
X0085226Y0023835D03*
X0082470Y0023047D03*
X0082470Y0022654D03*
X0082470Y0021079D03*
X0082470Y0020685D03*
X0082470Y0020291D03*
X0082076Y0019504D03*
X0078533Y0019110D03*
X0078533Y0018717D03*
X0078533Y0020291D03*
X0078533Y0023047D03*
X0078927Y0023835D03*
X0076564Y0023835D03*
X0072234Y0023047D03*
X0072234Y0022654D03*
X0072234Y0021079D03*
X0072234Y0020685D03*
X0072234Y0020291D03*
X0072234Y0019110D03*
X0072234Y0018717D03*
X0074596Y0018717D03*
X0068297Y0018717D03*
X0070265Y0023835D03*
X0069084Y0024228D03*
X0068297Y0025016D03*
X0064360Y0027378D03*
X0063966Y0027772D03*
X0061997Y0026984D03*
X0061210Y0027772D03*
X0061210Y0028165D03*
X0061210Y0028559D03*
X0060816Y0027378D03*
X0060423Y0026984D03*
X0058848Y0026197D03*
X0058454Y0025803D03*
X0058060Y0025409D03*
X0057667Y0024228D03*
X0056092Y0018717D03*
X0051367Y0019898D03*
X0049793Y0018717D03*
X0047824Y0018717D03*
X0047824Y0019110D03*
X0047824Y0020291D03*
X0047824Y0020685D03*
X0047824Y0021079D03*
X0047824Y0022260D03*
X0047824Y0022654D03*
X0047824Y0023047D03*
X0047037Y0027772D03*
X0047037Y0029740D03*
X0048218Y0029740D03*
X0048612Y0029346D03*
X0049005Y0028953D03*
X0049399Y0028559D03*
X0049793Y0028165D03*
X0050186Y0027772D03*
X0050580Y0027378D03*
X0050974Y0026984D03*
X0051367Y0026591D03*
X0051761Y0026197D03*
X0052549Y0025409D03*
X0052942Y0025016D03*
X0053336Y0024622D03*
X0053730Y0024228D03*
X0062391Y0029346D03*
X0063966Y0023047D03*
X0063966Y0022654D03*
X0063966Y0021472D03*
X0063966Y0021079D03*
X0063966Y0020685D03*
X0063966Y0020291D03*
X0063572Y0019504D03*
X0063178Y0018323D03*
X0073808Y0043126D03*
X0075777Y0043913D03*
X0076171Y0043520D03*
X0077745Y0043126D03*
X0078533Y0043126D03*
X0078533Y0044307D03*
X0078533Y0044701D03*
X0078533Y0045882D03*
X0078533Y0046276D03*
X0077745Y0047063D03*
X0078533Y0047457D03*
X0080108Y0046276D03*
X0080108Y0045882D03*
X0081682Y0044701D03*
X0081682Y0044307D03*
X0080108Y0043126D03*
X0080108Y0042732D03*
X0083257Y0042732D03*
X0083257Y0043126D03*
X0084832Y0044307D03*
X0084832Y0044701D03*
X0083257Y0045882D03*
X0083257Y0046276D03*
X0081682Y0047457D03*
X0084832Y0047457D03*
X0076958Y0046276D03*
X0076958Y0045488D03*
X0074989Y0045882D03*
X0073808Y0047063D03*
X0041919Y0023835D03*
X0039163Y0019898D03*
X0037588Y0018717D03*
X0035619Y0019110D03*
X0035619Y0020291D03*
X0035619Y0020685D03*
X0035619Y0022260D03*
X0035619Y0022654D03*
X0035619Y0023047D03*
X0033257Y0023047D03*
X0033257Y0022654D03*
X0033257Y0021079D03*
X0033257Y0020685D03*
X0033257Y0020291D03*
X0032864Y0019504D03*
X0124989Y0041551D03*
X0126564Y0049031D03*
X0126564Y0049425D03*
X0124989Y0050606D03*
X0126564Y0052181D03*
X0126564Y0052575D03*
X0126564Y0052969D03*
X0126564Y0053362D03*
X0128139Y0051000D03*
X0128139Y0050606D03*
X0129714Y0051787D03*
X0129714Y0052181D03*
X0129714Y0052575D03*
X0129714Y0052969D03*
X0129714Y0053362D03*
X0138769Y0025016D03*
X0138769Y0024622D03*
X0140344Y0023047D03*
X0140344Y0022654D03*
X0140344Y0020685D03*
X0140344Y0020291D03*
X0140344Y0019110D03*
X0140344Y0018717D03*
X0142312Y0018717D03*
X0143887Y0019898D03*
X0148612Y0018717D03*
X0150580Y0023835D03*
X0153336Y0023835D03*
X0154911Y0018717D03*
X0156879Y0023835D03*
X0162785Y0023047D03*
X0165147Y0023047D03*
X0165147Y0022654D03*
X0165147Y0022260D03*
X0165147Y0021079D03*
X0165147Y0020685D03*
X0165147Y0020291D03*
X0165147Y0019504D03*
X0165147Y0019110D03*
X0165147Y0018717D03*
X0169084Y0023047D03*
X0171446Y0023047D03*
X0171446Y0022654D03*
X0171446Y0022260D03*
X0171446Y0021079D03*
X0171446Y0020685D03*
X0171446Y0020291D03*
X0171446Y0019110D03*
X0171446Y0018717D03*
X0173415Y0018717D03*
X0174596Y0018323D03*
X0174989Y0019504D03*
X0175383Y0020291D03*
X0175383Y0020685D03*
X0175383Y0021079D03*
X0175383Y0021472D03*
X0175383Y0022654D03*
X0175383Y0023047D03*
X0178139Y0023835D03*
X0181682Y0023047D03*
X0181682Y0022654D03*
X0181682Y0021472D03*
X0181682Y0021079D03*
X0181682Y0020685D03*
X0181682Y0020291D03*
X0181289Y0019898D03*
X0181289Y0019504D03*
X0180895Y0018323D03*
X0179714Y0018717D03*
X0186013Y0018717D03*
X0187982Y0023835D03*
X0190738Y0023835D03*
X0194281Y0023835D03*
X0192312Y0018717D03*
X0202549Y0018717D03*
X0202549Y0019110D03*
X0202549Y0020291D03*
X0202549Y0020685D03*
X0202549Y0021079D03*
X0202549Y0022260D03*
X0202549Y0022654D03*
X0202549Y0023047D03*
X0202942Y0023835D03*
X0206486Y0023047D03*
X0206486Y0022654D03*
X0206486Y0021472D03*
X0206486Y0021079D03*
X0206486Y0020685D03*
X0206486Y0020291D03*
X0206092Y0019504D03*
X0209241Y0024622D03*
X0209241Y0025016D03*
X0209241Y0025409D03*
X0209241Y0025803D03*
X0209241Y0026197D03*
X0209241Y0026591D03*
X0209241Y0026984D03*
X0209241Y0027378D03*
X0209241Y0027772D03*
X0209241Y0028165D03*
X0209241Y0028559D03*
X0209241Y0028953D03*
X0210029Y0028953D03*
X0210423Y0028559D03*
X0210816Y0027772D03*
X0210816Y0027378D03*
X0210816Y0026984D03*
X0210816Y0026591D03*
X0210816Y0026197D03*
X0210816Y0025803D03*
X0212785Y0023047D03*
X0212785Y0022654D03*
X0212785Y0021472D03*
X0212785Y0021079D03*
X0212785Y0020685D03*
X0212785Y0020291D03*
X0212391Y0019504D03*
X0211997Y0018323D03*
X0217115Y0018717D03*
X0218690Y0019898D03*
X0223415Y0018717D03*
X0224989Y0019898D03*
X0223415Y0025409D03*
X0223021Y0028559D03*
X0222627Y0028953D03*
X0217115Y0027772D03*
X0216722Y0028559D03*
X0216328Y0028953D03*
X0215541Y0030528D03*
X0215541Y0030921D03*
X0215541Y0031315D03*
X0215541Y0031709D03*
X0215541Y0032102D03*
X0215541Y0032496D03*
X0215541Y0032890D03*
X0215541Y0033283D03*
X0215541Y0033677D03*
X0215541Y0034071D03*
X0215541Y0034465D03*
X0215541Y0034858D03*
X0217115Y0025409D03*
X0221840Y0036827D03*
X0221840Y0037220D03*
X0221840Y0037614D03*
X0221840Y0038008D03*
X0221840Y0038402D03*
X0221840Y0038795D03*
X0221840Y0039189D03*
X0221840Y0039583D03*
X0221840Y0039976D03*
X0221840Y0040370D03*
X0221840Y0040764D03*
X0221840Y0041157D03*
X0222627Y0041157D03*
X0223415Y0037614D03*
X0227352Y0035252D03*
X0200974Y0042339D03*
X0136407Y0018717D03*
D17*
X0146840Y0019898D03*
X0151958Y0021472D03*
X0153139Y0019898D03*
X0158257Y0021472D03*
X0161801Y0018717D03*
X0165344Y0023441D03*
X0164950Y0036827D03*
X0164950Y0041945D03*
X0176761Y0021472D03*
X0177942Y0019898D03*
X0184241Y0019898D03*
X0189360Y0021472D03*
X0190541Y0019898D03*
X0195659Y0021472D03*
X0199202Y0018717D03*
X0209045Y0019898D03*
X0211407Y0018717D03*
X0215344Y0019898D03*
X0214950Y0025016D03*
X0214950Y0028953D03*
X0215344Y0029346D03*
X0220462Y0021472D03*
X0221643Y0019898D03*
X0221249Y0025016D03*
X0221249Y0028953D03*
X0221643Y0029346D03*
X0221249Y0030921D03*
X0221249Y0034858D03*
X0221643Y0035252D03*
X0226761Y0033677D03*
X0226761Y0033283D03*
X0226761Y0032890D03*
X0226761Y0032496D03*
X0226761Y0032102D03*
X0226761Y0031709D03*
X0226761Y0027772D03*
X0226761Y0027378D03*
X0226761Y0026984D03*
X0226761Y0026591D03*
X0226761Y0026197D03*
X0226761Y0025803D03*
X0226761Y0021472D03*
X0226761Y0038008D03*
X0226761Y0038402D03*
X0226761Y0038795D03*
X0226761Y0039189D03*
X0226761Y0039583D03*
X0226761Y0039976D03*
X0201564Y0036827D03*
X0146052Y0032890D03*
X0146052Y0025803D03*
X0145659Y0041945D03*
X0118493Y0018717D03*
X0116131Y0019898D03*
X0114950Y0021472D03*
X0112194Y0018717D03*
X0106289Y0018717D03*
X0103533Y0023441D03*
X0099989Y0018717D03*
X0094871Y0023835D03*
X0085029Y0023441D03*
X0068493Y0025409D03*
X0063375Y0029740D03*
X0062588Y0018717D03*
X0054320Y0019898D03*
X0044478Y0018717D03*
X0043297Y0030528D03*
X0030304Y0019504D03*
X0075580Y0046276D03*
X0075580Y0046669D03*
X0116919Y0041945D03*
X0048415Y0317142D03*
X0048415Y0388008D03*
X0091722Y0455331D03*
X0091722Y0455724D03*
X0089753Y0457693D03*
X0283454Y0401394D03*
X0283454Y0330921D03*
D18*
X0283257Y0331315D03*
X0283257Y0401787D03*
X0091525Y0456118D03*
X0089950Y0457299D03*
X0048612Y0387614D03*
X0048612Y0316748D03*
X0139556Y0054150D03*
X0129320Y0036433D03*
X0133651Y0021472D03*
X0134832Y0019504D03*
X0128927Y0019504D03*
X0122627Y0019504D03*
X0121446Y0021472D03*
X0117115Y0031315D03*
X0110423Y0019504D03*
X0097824Y0019504D03*
X0096643Y0021472D03*
X0091919Y0019504D03*
X0079320Y0019504D03*
X0073021Y0019504D03*
X0066722Y0019504D03*
X0065541Y0021472D03*
X0060816Y0019504D03*
X0053336Y0021472D03*
X0048612Y0019504D03*
X0042312Y0019504D03*
X0041131Y0021472D03*
X0036407Y0019504D03*
X0141131Y0019504D03*
X0145856Y0021472D03*
X0159635Y0019504D03*
X0172234Y0019504D03*
X0183257Y0021472D03*
X0197037Y0019504D03*
X0203336Y0019504D03*
X0204911Y0019110D03*
X0208060Y0021472D03*
X0214360Y0021472D03*
X0214753Y0025409D03*
X0214753Y0025803D03*
X0214753Y0026197D03*
X0214753Y0026591D03*
X0214753Y0026984D03*
X0214753Y0027378D03*
X0214753Y0027772D03*
X0214753Y0028559D03*
X0221052Y0028559D03*
X0221052Y0031315D03*
X0221052Y0025409D03*
X0201761Y0037220D03*
X0201761Y0037614D03*
X0201761Y0038008D03*
X0201761Y0038402D03*
X0201761Y0038795D03*
X0201761Y0039189D03*
X0201761Y0039583D03*
X0201761Y0039976D03*
X0201761Y0040370D03*
X0201761Y0040764D03*
X0201761Y0041157D03*
X0201761Y0041551D03*
X0164753Y0041551D03*
D19*
X0168100Y0048638D03*
X0168493Y0050606D03*
X0168887Y0051787D03*
X0168887Y0052181D03*
X0169281Y0052969D03*
X0169675Y0053362D03*
X0169675Y0053756D03*
X0170068Y0054150D03*
X0170068Y0054543D03*
X0170462Y0054937D03*
X0183060Y0062811D03*
X0195265Y0055724D03*
X0195659Y0055331D03*
X0196052Y0054543D03*
X0196446Y0054150D03*
X0196446Y0053756D03*
X0196840Y0053362D03*
X0197234Y0052575D03*
X0197234Y0052181D03*
X0197627Y0051394D03*
X0198021Y0050213D03*
X0198021Y0049819D03*
X0218100Y0031315D03*
X0224399Y0031315D03*
X0138966Y0048638D03*
X0135816Y0047850D03*
X0135816Y0047457D03*
X0135816Y0045882D03*
X0135816Y0044701D03*
X0135816Y0042732D03*
X0134241Y0054150D03*
X0126761Y0046276D03*
X0126761Y0045882D03*
X0126761Y0043126D03*
X0126761Y0042732D03*
X0099202Y0029740D03*
X0096052Y0021866D03*
X0040541Y0021866D03*
X0049202Y0315567D03*
X0049202Y0386433D03*
X0086210Y0455331D03*
X0086210Y0458087D03*
X0061801Y0458480D03*
X0061407Y0456906D03*
X0061407Y0456512D03*
X0057076Y0456512D03*
X0057076Y0456906D03*
X0282667Y0402969D03*
X0282667Y0332496D03*
D20*
X0281682Y0334465D03*
X0281682Y0404937D03*
X0274989Y0188008D03*
X0174596Y0058874D03*
X0213178Y0028165D03*
X0219478Y0028165D03*
X0219478Y0034071D03*
X0131289Y0034071D03*
X0099793Y0032496D03*
X0099793Y0031709D03*
X0099005Y0023835D03*
X0075777Y0048244D03*
X0050186Y0313598D03*
X0050186Y0384465D03*
D21*
X0063178Y0358480D03*
X0063178Y0428953D03*
X0063178Y0287614D03*
X0176564Y0197850D03*
X0176564Y0197457D03*
X0176564Y0176591D03*
X0219871Y0162417D03*
X0219871Y0162024D03*
X0219871Y0141551D03*
X0219871Y0141157D03*
X0231682Y0200606D03*
X0231682Y0221472D03*
X0274989Y0179740D03*
X0274989Y0158874D03*
X0263178Y0123047D03*
X0263178Y0102181D03*
X0268690Y0289583D03*
X0268690Y0360449D03*
X0268690Y0430921D03*
X0131682Y0023835D03*
D22*
X0131289Y0042339D03*
X0131289Y0043913D03*
X0131289Y0045094D03*
X0131289Y0045488D03*
X0131289Y0046669D03*
X0131289Y0047063D03*
X0131289Y0048244D03*
X0131289Y0049819D03*
X0131289Y0051394D03*
X0218297Y0029740D03*
X0218297Y0023835D03*
X0274989Y0276984D03*
X0274989Y0347850D03*
X0274989Y0418323D03*
X0056879Y0441551D03*
X0056879Y0371079D03*
X0056879Y0300213D03*
D23*
X0049399Y0315173D03*
X0049399Y0386039D03*
X0052942Y0455331D03*
X0057273Y0458087D03*
X0057273Y0458480D03*
X0090738Y0456906D03*
X0090738Y0456512D03*
X0282470Y0403362D03*
X0282470Y0332890D03*
X0194281Y0056906D03*
X0194675Y0056512D03*
X0195068Y0056118D03*
X0195856Y0054937D03*
X0211997Y0025016D03*
X0218297Y0025016D03*
X0218297Y0030921D03*
X0224596Y0030921D03*
X0224596Y0037220D03*
X0224596Y0025016D03*
X0171446Y0056118D03*
X0171052Y0055724D03*
X0170659Y0055331D03*
X0140344Y0041945D03*
X0137194Y0040764D03*
X0135619Y0044307D03*
X0131289Y0040764D03*
X0128139Y0041945D03*
X0126564Y0044307D03*
X0126564Y0044701D03*
X0126564Y0047457D03*
X0126564Y0047850D03*
X0128139Y0054150D03*
X0122234Y0041945D03*
X0124989Y0040764D03*
X0099399Y0029346D03*
X0099399Y0028559D03*
X0099399Y0027772D03*
X0099399Y0026984D03*
X0099399Y0026197D03*
X0099399Y0025409D03*
X0099399Y0025016D03*
X0099399Y0024622D03*
X0099399Y0024228D03*
D24*
X0131486Y0024228D03*
X0131486Y0025409D03*
X0131486Y0026984D03*
X0131486Y0028559D03*
X0131486Y0030134D03*
X0131486Y0031709D03*
X0131486Y0033283D03*
X0131486Y0034465D03*
X0131486Y0034858D03*
X0131486Y0036039D03*
X0131486Y0037614D03*
X0131486Y0039189D03*
X0164556Y0117535D03*
X0164556Y0138795D03*
X0231486Y0200213D03*
X0275186Y0180134D03*
X0262982Y0101787D03*
X0268887Y0289189D03*
X0268887Y0360055D03*
X0268887Y0430528D03*
X0062982Y0429346D03*
X0062982Y0358874D03*
X0062982Y0288008D03*
D25*
X0057076Y0299819D03*
X0057076Y0370685D03*
X0057076Y0441157D03*
X0231486Y0194701D03*
X0275186Y0185646D03*
X0262982Y0096276D03*
X0218493Y0024228D03*
X0164556Y0112024D03*
X0274793Y0277378D03*
X0274793Y0348244D03*
X0274793Y0418717D03*
D26*
X0282076Y0404150D03*
X0282076Y0333677D03*
X0193493Y0057693D03*
X0173415Y0058087D03*
X0173021Y0057693D03*
X0211997Y0024622D03*
X0218297Y0024622D03*
X0218297Y0030528D03*
X0224596Y0030528D03*
X0225383Y0028165D03*
X0224596Y0024622D03*
X0225383Y0034071D03*
X0224596Y0036827D03*
X0225383Y0040370D03*
X0131289Y0035252D03*
X0099399Y0034858D03*
X0099399Y0030921D03*
X0049793Y0314386D03*
X0049793Y0385252D03*
D27*
X0050777Y0383283D03*
X0050777Y0312417D03*
X0037785Y0162024D03*
X0037785Y0161630D03*
X0081879Y0047850D03*
X0131092Y0032496D03*
X0131486Y0031315D03*
X0131486Y0030528D03*
X0131092Y0029346D03*
X0131486Y0028165D03*
X0131486Y0027378D03*
X0131092Y0026197D03*
X0131486Y0025016D03*
X0143690Y0036433D03*
X0137391Y0043520D03*
X0170856Y0032890D03*
X0190147Y0059661D03*
X0224793Y0036433D03*
X0219675Y0133283D03*
X0164556Y0146669D03*
X0116525Y0161630D03*
X0231486Y0229346D03*
X0281092Y0335646D03*
X0281092Y0406118D03*
D28*
X0282273Y0403756D03*
X0282273Y0333283D03*
X0193690Y0057299D03*
X0172430Y0057299D03*
X0172037Y0056906D03*
X0171643Y0056512D03*
X0134241Y0041945D03*
X0099596Y0028953D03*
X0099596Y0028165D03*
X0099596Y0027378D03*
X0099596Y0026591D03*
X0099596Y0025803D03*
X0049596Y0314780D03*
X0049596Y0385646D03*
X0061801Y0458087D03*
D29*
X0051958Y0380921D03*
X0051958Y0310055D03*
X0066525Y0189976D03*
X0087785Y0189583D03*
X0115344Y0163598D03*
X0087785Y0134071D03*
X0087785Y0133677D03*
X0066525Y0133677D03*
X0066525Y0133283D03*
X0038966Y0159661D03*
X0038966Y0163598D03*
X0123612Y0036433D03*
X0131092Y0032890D03*
X0131092Y0025803D03*
X0170856Y0034465D03*
X0170856Y0034858D03*
X0170856Y0035252D03*
X0170856Y0035646D03*
X0170856Y0036039D03*
X0170856Y0036433D03*
X0170856Y0036827D03*
X0170856Y0037220D03*
X0170856Y0037614D03*
X0170856Y0038008D03*
X0170856Y0038402D03*
X0170856Y0038795D03*
X0170856Y0039189D03*
X0170856Y0039583D03*
X0170856Y0039976D03*
X0170856Y0040370D03*
X0170856Y0040764D03*
X0170856Y0041157D03*
X0170856Y0041551D03*
X0170856Y0041945D03*
X0170856Y0042339D03*
X0170856Y0042732D03*
X0170856Y0043126D03*
X0170856Y0043520D03*
X0170856Y0043913D03*
X0170856Y0044307D03*
X0262982Y0094307D03*
X0279911Y0338008D03*
X0279911Y0408480D03*
D30*
X0280895Y0406512D03*
X0280895Y0336039D03*
X0274989Y0151000D03*
X0196249Y0045882D03*
X0195462Y0033283D03*
X0131289Y0032102D03*
X0131289Y0029740D03*
X0131289Y0028953D03*
X0131289Y0026591D03*
X0081682Y0043913D03*
X0081682Y0045094D03*
X0081682Y0045488D03*
X0081682Y0046669D03*
X0081682Y0047063D03*
X0116328Y0161236D03*
X0116328Y0162024D03*
X0037982Y0161236D03*
X0050974Y0312024D03*
X0050974Y0382890D03*
D31*
X0052549Y0379740D03*
X0052549Y0308874D03*
X0067115Y0191551D03*
X0087194Y0191157D03*
X0114753Y0164386D03*
X0114753Y0158874D03*
X0087194Y0132496D03*
X0087194Y0132102D03*
X0067115Y0132102D03*
X0067115Y0131709D03*
X0039556Y0158874D03*
X0097430Y0030134D03*
X0176564Y0169110D03*
X0176564Y0205331D03*
X0219871Y0169898D03*
X0219871Y0133677D03*
X0231682Y0228953D03*
X0279320Y0339189D03*
X0279320Y0409661D03*
D32*
X0278139Y0412024D03*
X0278139Y0341551D03*
X0231682Y0193126D03*
X0219871Y0169504D03*
X0219871Y0134071D03*
X0176564Y0169504D03*
X0176564Y0204937D03*
X0164753Y0110449D03*
X0113572Y0157299D03*
X0086013Y0129346D03*
X0086013Y0128953D03*
X0068297Y0128953D03*
X0068297Y0128559D03*
X0040738Y0166354D03*
X0068297Y0194701D03*
X0086013Y0194307D03*
X0053730Y0306512D03*
X0053730Y0377378D03*
X0221446Y0035646D03*
X0221446Y0030134D03*
X0274989Y0187220D03*
D33*
X0278533Y0340764D03*
X0278533Y0411236D03*
X0113966Y0165567D03*
X0113966Y0157693D03*
X0086407Y0130134D03*
X0067903Y0129740D03*
X0040344Y0157693D03*
X0067903Y0193520D03*
X0086407Y0193126D03*
X0053336Y0307299D03*
X0053336Y0378165D03*
X0097430Y0036039D03*
X0097430Y0030528D03*
D34*
X0099596Y0031315D03*
X0099596Y0032102D03*
X0099596Y0032890D03*
X0099596Y0033283D03*
X0099596Y0033677D03*
X0099596Y0034071D03*
X0099596Y0034465D03*
X0174005Y0058480D03*
X0191722Y0058874D03*
X0192509Y0058480D03*
X0192903Y0058087D03*
X0225186Y0034465D03*
X0262982Y0093913D03*
X0281879Y0334071D03*
X0281879Y0404543D03*
X0049989Y0384858D03*
X0049989Y0313992D03*
D35*
X0051171Y0311630D03*
X0051171Y0382496D03*
X0038178Y0162417D03*
X0038178Y0160843D03*
X0116131Y0162417D03*
X0170068Y0045882D03*
X0170856Y0033283D03*
X0099596Y0035252D03*
X0280698Y0336433D03*
X0280698Y0406906D03*
D36*
X0280304Y0407693D03*
X0280304Y0337220D03*
X0115738Y0162811D03*
X0115738Y0160449D03*
X0088178Y0134858D03*
X0066131Y0134465D03*
X0038572Y0160449D03*
X0038572Y0163205D03*
X0066131Y0188795D03*
X0088178Y0188402D03*
X0051564Y0310843D03*
X0051564Y0381709D03*
X0177549Y0060055D03*
X0170462Y0045094D03*
X0170856Y0034071D03*
X0170856Y0033677D03*
X0195659Y0045094D03*
X0136210Y0036433D03*
D37*
X0170265Y0045488D03*
X0188769Y0060055D03*
X0195856Y0045488D03*
X0195462Y0033677D03*
X0263178Y0130921D03*
X0280501Y0336827D03*
X0280501Y0407299D03*
X0115934Y0160843D03*
X0065934Y0134858D03*
X0038375Y0162811D03*
X0065934Y0188402D03*
X0051367Y0311236D03*
X0051367Y0382102D03*
D38*
X0051761Y0381315D03*
X0051761Y0310449D03*
X0066328Y0189583D03*
X0066328Y0189189D03*
X0087982Y0189189D03*
X0087982Y0188795D03*
X0115541Y0163205D03*
X0115541Y0160055D03*
X0087982Y0134465D03*
X0066328Y0134071D03*
X0038769Y0160055D03*
X0170659Y0044701D03*
X0183257Y0062417D03*
X0195462Y0044701D03*
X0195462Y0044307D03*
X0195462Y0043913D03*
X0195462Y0043520D03*
X0195462Y0043126D03*
X0195462Y0042732D03*
X0195462Y0042339D03*
X0195462Y0041945D03*
X0195462Y0041551D03*
X0195462Y0041157D03*
X0195462Y0040764D03*
X0195462Y0040370D03*
X0195462Y0039976D03*
X0195462Y0039583D03*
X0195462Y0039189D03*
X0195462Y0038795D03*
X0195462Y0038402D03*
X0195462Y0038008D03*
X0195462Y0037614D03*
X0195462Y0037220D03*
X0195462Y0036827D03*
X0195462Y0036433D03*
X0195462Y0036039D03*
X0195462Y0035646D03*
X0195462Y0035252D03*
X0195462Y0034858D03*
X0195462Y0034465D03*
X0195462Y0034071D03*
X0280108Y0337614D03*
X0280108Y0408087D03*
D39*
X0278927Y0410449D03*
X0278927Y0339976D03*
X0263178Y0130528D03*
X0114360Y0158480D03*
X0086801Y0131315D03*
X0067509Y0130921D03*
X0039950Y0165173D03*
X0067509Y0192339D03*
X0067509Y0192732D03*
X0086801Y0192339D03*
X0086801Y0191945D03*
X0052942Y0308087D03*
X0052942Y0378953D03*
X0097430Y0036433D03*
D40*
X0078730Y0042339D03*
X0068493Y0128165D03*
X0085816Y0128559D03*
X0113375Y0156906D03*
X0113375Y0166354D03*
X0085816Y0194701D03*
X0068493Y0195094D03*
X0040934Y0166748D03*
X0040934Y0156906D03*
X0053927Y0306118D03*
X0053927Y0376984D03*
X0164556Y0145882D03*
X0231486Y0228559D03*
X0275186Y0151787D03*
X0277942Y0341945D03*
X0277942Y0412417D03*
D41*
X0275383Y0417535D03*
X0275383Y0347063D03*
X0275383Y0276197D03*
X0231682Y0227378D03*
X0231682Y0194307D03*
X0219871Y0168323D03*
X0219871Y0135252D03*
X0176564Y0170685D03*
X0164753Y0144701D03*
X0176564Y0203756D03*
X0183257Y0060449D03*
X0274989Y0152969D03*
X0056486Y0301000D03*
X0056486Y0371866D03*
D42*
X0055895Y0373047D03*
X0055895Y0302181D03*
X0183060Y0060843D03*
X0262982Y0129346D03*
X0275974Y0275016D03*
X0275974Y0345882D03*
X0275974Y0416354D03*
D43*
X0276761Y0414780D03*
X0276761Y0344307D03*
X0262982Y0129740D03*
X0183060Y0061236D03*
X0112194Y0168323D03*
X0084635Y0197850D03*
X0042115Y0168323D03*
X0042115Y0154937D03*
X0055108Y0303756D03*
X0055108Y0374622D03*
D44*
X0054320Y0376197D03*
X0054320Y0305331D03*
X0068887Y0196276D03*
X0085423Y0195882D03*
X0112982Y0167142D03*
X0085423Y0127772D03*
X0085423Y0127378D03*
X0068887Y0127378D03*
X0068887Y0126984D03*
X0041328Y0156118D03*
X0041328Y0167142D03*
X0183060Y0061630D03*
X0277549Y0342732D03*
X0277549Y0413205D03*
D45*
X0278730Y0410843D03*
X0278730Y0340370D03*
X0114163Y0165173D03*
X0114163Y0158087D03*
X0086604Y0130921D03*
X0086604Y0130528D03*
X0067706Y0130528D03*
X0067706Y0130134D03*
X0040147Y0158087D03*
X0040147Y0165567D03*
X0067706Y0193126D03*
X0086604Y0192732D03*
X0053139Y0307693D03*
X0053139Y0378559D03*
X0183060Y0062024D03*
D46*
X0113769Y0165961D03*
X0086210Y0193520D03*
X0086210Y0193913D03*
X0068100Y0193913D03*
X0068100Y0194307D03*
X0040541Y0165961D03*
X0040541Y0157299D03*
X0068100Y0129346D03*
X0086210Y0129740D03*
X0053533Y0306906D03*
X0053533Y0377772D03*
X0262982Y0094701D03*
X0278336Y0341157D03*
X0278336Y0411630D03*
D47*
X0277352Y0413598D03*
X0277352Y0343126D03*
X0274989Y0186827D03*
X0263178Y0095094D03*
X0112785Y0156118D03*
X0085226Y0126984D03*
X0069084Y0126591D03*
X0041525Y0167535D03*
X0069084Y0196669D03*
X0085226Y0196276D03*
X0054517Y0304937D03*
X0054517Y0375803D03*
D48*
X0055501Y0373835D03*
X0055501Y0302969D03*
X0111801Y0168717D03*
X0111801Y0154543D03*
X0164556Y0111236D03*
X0262982Y0095488D03*
X0275186Y0186433D03*
X0276367Y0345094D03*
X0276367Y0415567D03*
D49*
X0275580Y0417142D03*
X0275580Y0346669D03*
X0275580Y0275803D03*
X0275186Y0186039D03*
X0262982Y0095882D03*
X0164556Y0111630D03*
X0056289Y0301394D03*
X0056289Y0372260D03*
X0056682Y0442339D03*
D50*
X0057667Y0439976D03*
X0057667Y0369504D03*
X0057667Y0298638D03*
X0176564Y0202969D03*
X0176564Y0171472D03*
X0164753Y0112417D03*
X0219871Y0136039D03*
X0219871Y0167535D03*
X0231682Y0195094D03*
X0274989Y0185252D03*
X0263178Y0096669D03*
X0274202Y0278559D03*
X0274202Y0349425D03*
X0274202Y0419898D03*
D51*
X0273612Y0421079D03*
X0273612Y0350606D03*
X0273612Y0279740D03*
X0275186Y0184858D03*
X0262982Y0097063D03*
X0164556Y0112811D03*
X0058257Y0297457D03*
X0058257Y0368323D03*
X0058257Y0438795D03*
D52*
X0058848Y0437614D03*
X0058848Y0367142D03*
X0058848Y0296276D03*
X0176564Y0202181D03*
X0176564Y0172260D03*
X0164753Y0113205D03*
X0219871Y0136827D03*
X0219871Y0166748D03*
X0231682Y0195882D03*
X0231682Y0225803D03*
X0274989Y0184465D03*
X0263178Y0097457D03*
X0273021Y0280921D03*
X0273021Y0351787D03*
X0273021Y0422260D03*
D53*
X0272627Y0423047D03*
X0272627Y0352575D03*
X0272627Y0281709D03*
X0274989Y0184071D03*
X0219871Y0166354D03*
X0263178Y0097850D03*
X0076958Y0119504D03*
X0059241Y0295488D03*
X0059241Y0366354D03*
X0059241Y0436827D03*
D54*
X0059832Y0435646D03*
X0059832Y0365173D03*
X0059832Y0294307D03*
X0164556Y0142339D03*
X0164556Y0113992D03*
X0176367Y0201394D03*
X0231486Y0196669D03*
X0275186Y0183677D03*
X0262982Y0098244D03*
X0272037Y0282890D03*
X0272037Y0353756D03*
X0272037Y0424228D03*
D55*
X0271643Y0425016D03*
X0271643Y0354543D03*
X0271643Y0283677D03*
X0275186Y0183283D03*
X0262982Y0098638D03*
X0164556Y0114386D03*
X0060226Y0293520D03*
X0060226Y0364386D03*
X0060226Y0434858D03*
D56*
X0060619Y0434071D03*
X0060619Y0363598D03*
X0060619Y0292732D03*
X0077155Y0120291D03*
X0164556Y0114780D03*
X0262982Y0099031D03*
X0271249Y0284465D03*
X0271249Y0355331D03*
X0271249Y0425803D03*
D57*
X0270856Y0426591D03*
X0270856Y0356118D03*
X0270856Y0285252D03*
X0164556Y0115173D03*
X0262982Y0099425D03*
X0061013Y0291945D03*
X0061013Y0362811D03*
X0061013Y0433283D03*
D58*
X0061407Y0432496D03*
X0061407Y0362024D03*
X0061407Y0291157D03*
X0077155Y0121079D03*
X0164556Y0115567D03*
X0262982Y0099819D03*
X0275186Y0182102D03*
X0270462Y0286039D03*
X0270462Y0356906D03*
X0270462Y0427378D03*
D59*
X0270068Y0428165D03*
X0270068Y0357693D03*
X0270068Y0286827D03*
X0231486Y0198638D03*
X0219675Y0163992D03*
X0176367Y0199425D03*
X0164556Y0140370D03*
X0164556Y0115961D03*
X0077155Y0121472D03*
X0077155Y0201787D03*
X0061801Y0290370D03*
X0061801Y0361236D03*
X0061801Y0431709D03*
X0275186Y0181709D03*
X0262982Y0100213D03*
D60*
X0262982Y0100606D03*
X0262982Y0124228D03*
X0275186Y0157693D03*
X0231486Y0199031D03*
X0231486Y0222654D03*
X0269675Y0287614D03*
X0269675Y0358480D03*
X0269675Y0428953D03*
X0176367Y0199031D03*
X0176367Y0175409D03*
X0164556Y0139976D03*
X0164556Y0116354D03*
X0219675Y0139976D03*
X0077155Y0122260D03*
X0077155Y0201000D03*
X0062194Y0289583D03*
X0062194Y0360449D03*
X0062194Y0430921D03*
D61*
X0062391Y0430528D03*
X0062391Y0360055D03*
X0062391Y0289189D03*
X0076958Y0200606D03*
X0076958Y0123047D03*
X0076958Y0122654D03*
X0164753Y0116748D03*
X0176564Y0175803D03*
X0176564Y0198638D03*
X0219871Y0163205D03*
X0219871Y0140370D03*
X0231682Y0199425D03*
X0231682Y0222260D03*
X0274989Y0180921D03*
X0263178Y0101000D03*
X0269478Y0288008D03*
X0269478Y0358874D03*
X0269478Y0429346D03*
D62*
X0269281Y0429740D03*
X0269281Y0359268D03*
X0269281Y0288402D03*
X0275186Y0158087D03*
X0262982Y0123835D03*
X0262982Y0101394D03*
X0164556Y0139583D03*
X0077155Y0139583D03*
X0077155Y0139976D03*
X0077155Y0140370D03*
X0077155Y0140764D03*
X0077155Y0141157D03*
X0077155Y0141551D03*
X0077155Y0141945D03*
X0077155Y0142339D03*
X0077155Y0142732D03*
X0077155Y0143126D03*
X0077155Y0143520D03*
X0077155Y0143913D03*
X0077155Y0144307D03*
X0077155Y0144701D03*
X0077155Y0145094D03*
X0077155Y0145488D03*
X0077155Y0145882D03*
X0077155Y0146276D03*
X0077155Y0139189D03*
X0077155Y0138795D03*
X0077155Y0138402D03*
X0077155Y0138008D03*
X0077155Y0137614D03*
X0077155Y0137220D03*
X0077155Y0136827D03*
X0077155Y0136433D03*
X0077155Y0136039D03*
X0077155Y0135646D03*
X0077155Y0135252D03*
X0077155Y0125409D03*
X0077155Y0125016D03*
X0077155Y0124622D03*
X0077155Y0124228D03*
X0077155Y0123835D03*
X0077155Y0123441D03*
X0077155Y0176984D03*
X0077155Y0177378D03*
X0077155Y0177772D03*
X0077155Y0178165D03*
X0077155Y0178559D03*
X0077155Y0178953D03*
X0077155Y0179346D03*
X0077155Y0179740D03*
X0077155Y0180134D03*
X0077155Y0180528D03*
X0077155Y0180921D03*
X0077155Y0181315D03*
X0077155Y0181709D03*
X0077155Y0182102D03*
X0077155Y0182496D03*
X0077155Y0182890D03*
X0077155Y0183283D03*
X0077155Y0183677D03*
X0077155Y0184071D03*
X0077155Y0184465D03*
X0077155Y0184858D03*
X0077155Y0185252D03*
X0077155Y0185646D03*
X0077155Y0186039D03*
X0077155Y0186433D03*
X0077155Y0186827D03*
X0077155Y0187220D03*
X0077155Y0187614D03*
X0077155Y0188008D03*
X0077155Y0198244D03*
X0077155Y0198638D03*
X0077155Y0199031D03*
X0077155Y0199425D03*
X0077155Y0199819D03*
X0077155Y0200213D03*
X0062588Y0288795D03*
X0062588Y0359661D03*
X0062588Y0430134D03*
D63*
X0063572Y0428165D03*
X0063572Y0357693D03*
X0063572Y0286827D03*
X0164753Y0138008D03*
X0164753Y0118323D03*
X0176564Y0177378D03*
X0176564Y0197063D03*
X0219871Y0161630D03*
X0219871Y0141945D03*
X0231682Y0201000D03*
X0231682Y0220685D03*
X0274989Y0179346D03*
X0274989Y0159661D03*
X0263178Y0122260D03*
X0263178Y0102575D03*
X0268297Y0290370D03*
X0268297Y0361236D03*
X0268297Y0431709D03*
D64*
X0268100Y0432102D03*
X0268100Y0361630D03*
X0268100Y0290764D03*
X0231486Y0220291D03*
X0231486Y0201394D03*
X0219675Y0161236D03*
X0176367Y0177772D03*
X0176367Y0196669D03*
X0164556Y0137614D03*
X0164556Y0118717D03*
X0262982Y0121866D03*
X0262982Y0102969D03*
X0275186Y0178953D03*
X0063769Y0286433D03*
X0063769Y0357299D03*
X0063769Y0427772D03*
D65*
X0063966Y0427378D03*
X0063966Y0356906D03*
X0063966Y0286039D03*
X0164753Y0119110D03*
X0176564Y0178165D03*
X0176564Y0196276D03*
X0219871Y0160843D03*
X0219871Y0142732D03*
X0219871Y0142339D03*
X0231682Y0201787D03*
X0231682Y0219898D03*
X0274989Y0178559D03*
X0274989Y0160449D03*
X0274989Y0160055D03*
X0263178Y0103362D03*
X0267903Y0291157D03*
X0267903Y0362024D03*
X0267903Y0432496D03*
D66*
X0267706Y0432890D03*
X0267706Y0362417D03*
X0267706Y0291551D03*
X0275186Y0178165D03*
X0262982Y0121472D03*
X0262982Y0103756D03*
X0164556Y0119504D03*
X0164556Y0136827D03*
X0164556Y0137220D03*
X0064163Y0285646D03*
X0064163Y0356512D03*
X0064163Y0426984D03*
D67*
X0064360Y0426591D03*
X0064360Y0356118D03*
X0064360Y0285252D03*
X0164753Y0119898D03*
X0176564Y0178559D03*
X0176564Y0178953D03*
X0176564Y0195488D03*
X0176564Y0195882D03*
X0219871Y0160449D03*
X0219871Y0160055D03*
X0219871Y0143520D03*
X0219871Y0143126D03*
X0231682Y0202181D03*
X0231682Y0202575D03*
X0231682Y0219110D03*
X0231682Y0219504D03*
X0274989Y0177772D03*
X0274989Y0161236D03*
X0274989Y0160843D03*
X0263178Y0121079D03*
X0263178Y0104150D03*
X0267509Y0291945D03*
X0267509Y0362811D03*
X0267509Y0433283D03*
D68*
X0267312Y0433677D03*
X0267312Y0363205D03*
X0267312Y0292339D03*
X0275186Y0177378D03*
X0262982Y0120685D03*
X0262982Y0104543D03*
X0164556Y0120291D03*
X0164556Y0136039D03*
X0164556Y0136433D03*
X0064556Y0284858D03*
X0064556Y0355724D03*
X0064556Y0426197D03*
D69*
X0064753Y0425803D03*
X0064753Y0355331D03*
X0064753Y0284465D03*
X0164753Y0120685D03*
X0176564Y0179346D03*
X0176564Y0179740D03*
X0176564Y0194701D03*
X0176564Y0195094D03*
X0219871Y0159661D03*
X0219871Y0159268D03*
X0219871Y0144307D03*
X0219871Y0143913D03*
X0231682Y0202969D03*
X0231682Y0203362D03*
X0231682Y0218323D03*
X0231682Y0218717D03*
X0274989Y0176984D03*
X0274989Y0162024D03*
X0274989Y0161630D03*
X0263178Y0120291D03*
X0263178Y0104937D03*
X0267115Y0292732D03*
X0267115Y0363598D03*
X0267115Y0434071D03*
D70*
X0266919Y0434465D03*
X0266919Y0363992D03*
X0266919Y0293126D03*
X0231486Y0217929D03*
X0231486Y0203756D03*
X0219675Y0158874D03*
X0176367Y0180134D03*
X0176367Y0194307D03*
X0164556Y0135646D03*
X0164556Y0135252D03*
X0164556Y0121079D03*
X0262982Y0119898D03*
X0262982Y0119504D03*
X0262982Y0105331D03*
X0275186Y0176591D03*
X0064950Y0284071D03*
X0064950Y0354937D03*
X0064950Y0425409D03*
D71*
X0065147Y0425016D03*
X0065147Y0354543D03*
X0065147Y0283677D03*
X0066328Y0282496D03*
X0073415Y0275409D03*
X0164753Y0134858D03*
X0164753Y0121472D03*
X0176564Y0180528D03*
X0176564Y0180921D03*
X0176564Y0193520D03*
X0176564Y0193913D03*
X0219871Y0158480D03*
X0219871Y0158087D03*
X0219871Y0145488D03*
X0219871Y0145094D03*
X0219871Y0144701D03*
X0231682Y0204150D03*
X0231682Y0204543D03*
X0231682Y0217535D03*
X0274989Y0176197D03*
X0274989Y0175803D03*
X0274989Y0162811D03*
X0274989Y0162417D03*
X0263178Y0119110D03*
X0263178Y0105724D03*
X0266722Y0293520D03*
X0266722Y0364386D03*
X0265934Y0365173D03*
X0266722Y0434858D03*
X0259635Y0442339D03*
X0118297Y0442339D03*
D72*
X0118493Y0441945D03*
X0118887Y0441551D03*
X0119281Y0441157D03*
X0119675Y0440764D03*
X0120068Y0440370D03*
X0120462Y0439976D03*
X0120856Y0439583D03*
X0121249Y0439189D03*
X0121643Y0438795D03*
X0122037Y0438402D03*
X0122430Y0438008D03*
X0122824Y0437614D03*
X0123218Y0437220D03*
X0123612Y0436827D03*
X0124005Y0436433D03*
X0124399Y0436039D03*
X0124793Y0435646D03*
X0125186Y0435252D03*
X0125580Y0434858D03*
X0125974Y0434465D03*
X0126367Y0434071D03*
X0126761Y0433677D03*
X0127155Y0433283D03*
X0127549Y0432890D03*
X0127942Y0432496D03*
X0128336Y0432102D03*
X0128730Y0431709D03*
X0129123Y0431315D03*
X0129517Y0430921D03*
X0129911Y0430528D03*
X0130304Y0430134D03*
X0130698Y0429740D03*
X0131092Y0429346D03*
X0131486Y0428953D03*
X0131879Y0428559D03*
X0132273Y0428165D03*
X0132667Y0427772D03*
X0133060Y0427378D03*
X0133454Y0426984D03*
X0133848Y0426591D03*
X0134241Y0426197D03*
X0134635Y0425803D03*
X0135029Y0425409D03*
X0135423Y0425016D03*
X0135816Y0424622D03*
X0136210Y0424228D03*
X0136604Y0423835D03*
X0136997Y0423441D03*
X0137391Y0423047D03*
X0137785Y0422654D03*
X0138178Y0422260D03*
X0138572Y0421866D03*
X0138966Y0421472D03*
X0139360Y0421079D03*
X0139753Y0420685D03*
X0140147Y0420291D03*
X0140541Y0419898D03*
X0140934Y0419504D03*
X0141328Y0419110D03*
X0141722Y0418717D03*
X0142115Y0418323D03*
X0142509Y0417929D03*
X0142903Y0417535D03*
X0143297Y0417142D03*
X0143690Y0416748D03*
X0144084Y0416354D03*
X0144478Y0415961D03*
X0144871Y0415567D03*
X0145265Y0415173D03*
X0145659Y0414780D03*
X0146052Y0414386D03*
X0146446Y0413992D03*
X0146840Y0413598D03*
X0147234Y0413205D03*
X0147627Y0412811D03*
X0148021Y0412417D03*
X0148415Y0412024D03*
X0148808Y0411630D03*
X0149202Y0411236D03*
X0149596Y0410843D03*
X0149989Y0410449D03*
X0150383Y0410055D03*
X0150777Y0409661D03*
X0151171Y0409268D03*
X0151564Y0408874D03*
X0151958Y0408480D03*
X0152352Y0408087D03*
X0152745Y0407693D03*
X0153139Y0407299D03*
X0153533Y0406906D03*
X0153927Y0406512D03*
X0154320Y0406118D03*
X0154714Y0405724D03*
X0155108Y0405331D03*
X0155501Y0404937D03*
X0155895Y0404543D03*
X0156289Y0404150D03*
X0156682Y0403756D03*
X0157076Y0403362D03*
X0157470Y0402969D03*
X0157864Y0402575D03*
X0158257Y0402181D03*
X0158651Y0401787D03*
X0159045Y0401394D03*
X0159438Y0401000D03*
X0159832Y0400606D03*
X0160226Y0400213D03*
X0160619Y0399819D03*
X0161013Y0399425D03*
X0161407Y0399031D03*
X0161801Y0398638D03*
X0162194Y0398244D03*
X0162588Y0397850D03*
X0162982Y0397457D03*
X0163375Y0397063D03*
X0163769Y0396669D03*
X0164163Y0396276D03*
X0164556Y0395882D03*
X0164950Y0395488D03*
X0165344Y0395094D03*
X0165738Y0394701D03*
X0166131Y0394307D03*
X0166525Y0393913D03*
X0166919Y0393520D03*
X0167312Y0393126D03*
X0167706Y0392732D03*
X0168100Y0392339D03*
X0168493Y0391945D03*
X0168887Y0391551D03*
X0169281Y0391157D03*
X0169675Y0390764D03*
X0170068Y0390370D03*
X0170462Y0389976D03*
X0170856Y0389583D03*
X0171249Y0389189D03*
X0171643Y0388795D03*
X0172037Y0388402D03*
X0172430Y0388008D03*
X0172824Y0387614D03*
X0173218Y0387220D03*
X0173612Y0386827D03*
X0174005Y0386433D03*
X0174399Y0386039D03*
X0174793Y0385646D03*
X0175186Y0385252D03*
X0175580Y0384858D03*
X0175974Y0384465D03*
X0176367Y0384071D03*
X0176761Y0383677D03*
X0177155Y0383283D03*
X0177549Y0382890D03*
X0177942Y0382496D03*
X0178336Y0382102D03*
X0178730Y0381709D03*
X0179123Y0381315D03*
X0179517Y0380921D03*
X0179911Y0380528D03*
X0180304Y0380134D03*
X0180698Y0379740D03*
X0181092Y0379346D03*
X0181486Y0378953D03*
X0181879Y0378559D03*
X0182273Y0378165D03*
X0182667Y0377772D03*
X0183060Y0377378D03*
X0183454Y0376984D03*
X0183848Y0376591D03*
X0184241Y0376197D03*
X0184635Y0375803D03*
X0185029Y0375409D03*
X0185423Y0375016D03*
X0185816Y0374622D03*
X0186210Y0374228D03*
X0186604Y0373835D03*
X0186997Y0373441D03*
X0187391Y0373047D03*
X0187785Y0372654D03*
X0188178Y0372260D03*
X0188572Y0371866D03*
X0188966Y0371472D03*
X0189360Y0371079D03*
X0189753Y0370685D03*
X0190147Y0370291D03*
X0190541Y0369898D03*
X0190934Y0369504D03*
X0191328Y0369110D03*
X0191722Y0368717D03*
X0192115Y0368323D03*
X0192509Y0367929D03*
X0192903Y0367535D03*
X0193297Y0367142D03*
X0193690Y0366748D03*
X0194084Y0366354D03*
X0194478Y0365961D03*
X0194871Y0365567D03*
X0195265Y0365173D03*
X0195659Y0364780D03*
X0196052Y0364386D03*
X0196446Y0363992D03*
X0196840Y0363598D03*
X0197234Y0363205D03*
X0197627Y0362811D03*
X0198021Y0362417D03*
X0198415Y0362024D03*
X0198808Y0361630D03*
X0199202Y0361236D03*
X0199596Y0360843D03*
X0199989Y0360449D03*
X0200383Y0360055D03*
X0200777Y0359661D03*
X0201171Y0359268D03*
X0201564Y0358874D03*
X0201958Y0358480D03*
X0202352Y0358087D03*
X0202745Y0357693D03*
X0203139Y0357299D03*
X0203533Y0356906D03*
X0203927Y0356512D03*
X0204320Y0356118D03*
X0204714Y0355724D03*
X0205108Y0355331D03*
X0205501Y0354937D03*
X0205895Y0354543D03*
X0206289Y0354150D03*
X0206682Y0353756D03*
X0207076Y0353362D03*
X0207470Y0352969D03*
X0207864Y0352575D03*
X0208257Y0352181D03*
X0208651Y0351787D03*
X0209045Y0351394D03*
X0209438Y0351000D03*
X0209832Y0350606D03*
X0210226Y0350213D03*
X0210619Y0349819D03*
X0211013Y0349425D03*
X0211407Y0349031D03*
X0211801Y0348638D03*
X0212194Y0348244D03*
X0212588Y0347850D03*
X0212982Y0347457D03*
X0213375Y0347063D03*
X0213769Y0346669D03*
X0214163Y0346276D03*
X0214556Y0345882D03*
X0214950Y0345488D03*
X0215344Y0345094D03*
X0215738Y0344701D03*
X0216131Y0344307D03*
X0216525Y0343913D03*
X0216919Y0343520D03*
X0217312Y0343126D03*
X0217706Y0342732D03*
X0218100Y0342339D03*
X0218493Y0341945D03*
X0218887Y0341551D03*
X0219281Y0341157D03*
X0219675Y0340764D03*
X0220068Y0340370D03*
X0220462Y0339976D03*
X0220856Y0339583D03*
X0221249Y0339189D03*
X0221643Y0338795D03*
X0222037Y0338402D03*
X0222430Y0338008D03*
X0222824Y0337614D03*
X0223218Y0337220D03*
X0223612Y0336827D03*
X0224005Y0336433D03*
X0224399Y0336039D03*
X0224793Y0335646D03*
X0225186Y0335252D03*
X0225580Y0334858D03*
X0225974Y0334465D03*
X0226367Y0334071D03*
X0226761Y0333677D03*
X0227155Y0333283D03*
X0227549Y0332890D03*
X0227942Y0332496D03*
X0228336Y0332102D03*
X0228730Y0331709D03*
X0229123Y0331315D03*
X0229517Y0330921D03*
X0229911Y0330528D03*
X0230304Y0330134D03*
X0230698Y0329740D03*
X0231092Y0329346D03*
X0231486Y0328953D03*
X0231879Y0328559D03*
X0232273Y0328165D03*
X0232667Y0327772D03*
X0233060Y0327378D03*
X0233454Y0326984D03*
X0233848Y0326591D03*
X0234241Y0326197D03*
X0234635Y0325803D03*
X0235029Y0325409D03*
X0235423Y0325016D03*
X0235816Y0324622D03*
X0236210Y0324228D03*
X0236604Y0323835D03*
X0236997Y0323441D03*
X0237391Y0323047D03*
X0237785Y0322654D03*
X0238178Y0322260D03*
X0238572Y0321866D03*
X0238966Y0321472D03*
X0239360Y0321079D03*
X0239753Y0320685D03*
X0240147Y0320291D03*
X0240541Y0319898D03*
X0240934Y0319504D03*
X0241328Y0319110D03*
X0241722Y0318717D03*
X0242115Y0318323D03*
X0242509Y0317929D03*
X0242903Y0317535D03*
X0243297Y0317142D03*
X0243690Y0316748D03*
X0244084Y0316354D03*
X0244478Y0315961D03*
X0244871Y0315567D03*
X0245265Y0315173D03*
X0245659Y0314780D03*
X0246052Y0314386D03*
X0246446Y0313992D03*
X0246840Y0313598D03*
X0247234Y0313205D03*
X0247627Y0312811D03*
X0248021Y0312417D03*
X0248415Y0312024D03*
X0248808Y0311630D03*
X0249202Y0311236D03*
X0249596Y0310843D03*
X0249989Y0310449D03*
X0250383Y0310055D03*
X0250777Y0309661D03*
X0251171Y0309268D03*
X0251564Y0308874D03*
X0251958Y0308480D03*
X0252352Y0308087D03*
X0252745Y0307693D03*
X0253139Y0307299D03*
X0253533Y0306906D03*
X0253927Y0306512D03*
X0254320Y0306118D03*
X0254714Y0305724D03*
X0255108Y0305331D03*
X0255501Y0304937D03*
X0255895Y0304543D03*
X0256289Y0304150D03*
X0256682Y0303756D03*
X0257076Y0303362D03*
X0257470Y0302969D03*
X0257864Y0302575D03*
X0258257Y0302181D03*
X0258651Y0301787D03*
X0259045Y0301394D03*
X0259438Y0301000D03*
X0259832Y0300606D03*
X0260226Y0300213D03*
X0260619Y0299819D03*
X0261013Y0299425D03*
X0261407Y0299031D03*
X0261801Y0298638D03*
X0262194Y0298244D03*
X0262588Y0297850D03*
X0262982Y0297457D03*
X0263375Y0297063D03*
X0263769Y0296669D03*
X0264163Y0296276D03*
X0264556Y0295882D03*
X0264950Y0295488D03*
X0265344Y0295094D03*
X0265738Y0294701D03*
X0266525Y0293913D03*
X0266525Y0364780D03*
X0265738Y0365567D03*
X0265344Y0365961D03*
X0264950Y0366354D03*
X0264556Y0366748D03*
X0264163Y0367142D03*
X0263769Y0367535D03*
X0263375Y0367929D03*
X0262982Y0368323D03*
X0262588Y0368717D03*
X0262194Y0369110D03*
X0261801Y0369504D03*
X0261407Y0369898D03*
X0261013Y0370291D03*
X0260619Y0370685D03*
X0260226Y0371079D03*
X0259832Y0371472D03*
X0259438Y0371866D03*
X0259045Y0372260D03*
X0258651Y0372654D03*
X0258257Y0373047D03*
X0257864Y0373441D03*
X0257470Y0373835D03*
X0257076Y0374228D03*
X0256682Y0374622D03*
X0256289Y0375016D03*
X0255895Y0375409D03*
X0255501Y0375803D03*
X0255108Y0376197D03*
X0254714Y0376591D03*
X0254320Y0376984D03*
X0253927Y0377378D03*
X0253533Y0377772D03*
X0253139Y0378165D03*
X0252745Y0378559D03*
X0252352Y0378953D03*
X0251958Y0379346D03*
X0251564Y0379740D03*
X0251171Y0380134D03*
X0250777Y0380528D03*
X0250383Y0380921D03*
X0249989Y0381315D03*
X0249596Y0381709D03*
X0249202Y0382102D03*
X0248808Y0382496D03*
X0248415Y0382890D03*
X0248021Y0383283D03*
X0247627Y0383677D03*
X0247234Y0384071D03*
X0246840Y0384465D03*
X0246446Y0384858D03*
X0246052Y0385252D03*
X0245659Y0385646D03*
X0245265Y0386039D03*
X0244871Y0386433D03*
X0244478Y0386827D03*
X0244084Y0387220D03*
X0243690Y0387614D03*
X0243297Y0388008D03*
X0242903Y0388402D03*
X0242509Y0388795D03*
X0242115Y0389189D03*
X0241722Y0389583D03*
X0241328Y0389976D03*
X0240934Y0390370D03*
X0240541Y0390764D03*
X0240147Y0391157D03*
X0239753Y0391551D03*
X0239360Y0391945D03*
X0238966Y0392339D03*
X0238572Y0392732D03*
X0238178Y0393126D03*
X0237785Y0393520D03*
X0237391Y0393913D03*
X0236997Y0394307D03*
X0236604Y0394701D03*
X0236210Y0395094D03*
X0235816Y0395488D03*
X0235423Y0395882D03*
X0235029Y0396276D03*
X0234635Y0396669D03*
X0234241Y0397063D03*
X0233848Y0397457D03*
X0233454Y0397850D03*
X0233060Y0398244D03*
X0232667Y0398638D03*
X0232273Y0399031D03*
X0231879Y0399425D03*
X0231486Y0399819D03*
X0231092Y0400213D03*
X0230698Y0400606D03*
X0230304Y0401000D03*
X0229911Y0401394D03*
X0229517Y0401787D03*
X0229123Y0402181D03*
X0228730Y0402575D03*
X0228336Y0402969D03*
X0227942Y0403362D03*
X0227549Y0403756D03*
X0227155Y0404150D03*
X0226761Y0404543D03*
X0226367Y0404937D03*
X0225974Y0405331D03*
X0225580Y0405724D03*
X0225186Y0406118D03*
X0224793Y0406512D03*
X0224399Y0406906D03*
X0224005Y0407299D03*
X0223612Y0407693D03*
X0223218Y0408087D03*
X0222824Y0408480D03*
X0222430Y0408874D03*
X0222037Y0409268D03*
X0221643Y0409661D03*
X0221249Y0410055D03*
X0220856Y0410449D03*
X0220462Y0410843D03*
X0220068Y0411236D03*
X0219675Y0411630D03*
X0219281Y0412024D03*
X0218887Y0412417D03*
X0218493Y0412811D03*
X0218100Y0413205D03*
X0217706Y0413598D03*
X0217312Y0413992D03*
X0216919Y0414386D03*
X0216525Y0414780D03*
X0216131Y0415173D03*
X0215738Y0415567D03*
X0215344Y0415961D03*
X0214950Y0416354D03*
X0214556Y0416748D03*
X0214163Y0417142D03*
X0213769Y0417535D03*
X0213375Y0417929D03*
X0212982Y0418323D03*
X0212588Y0418717D03*
X0212194Y0419110D03*
X0211801Y0419504D03*
X0211407Y0419898D03*
X0211013Y0420291D03*
X0210619Y0420685D03*
X0210226Y0421079D03*
X0209832Y0421472D03*
X0209438Y0421866D03*
X0209045Y0422260D03*
X0208651Y0422654D03*
X0208257Y0423047D03*
X0207864Y0423441D03*
X0207470Y0423835D03*
X0207076Y0424228D03*
X0206682Y0424622D03*
X0206289Y0425016D03*
X0205895Y0425409D03*
X0205501Y0425803D03*
X0205108Y0426197D03*
X0204714Y0426591D03*
X0204320Y0426984D03*
X0203927Y0427378D03*
X0203533Y0427772D03*
X0203139Y0428165D03*
X0202745Y0428559D03*
X0202352Y0428953D03*
X0201958Y0429346D03*
X0201564Y0429740D03*
X0201171Y0430134D03*
X0200777Y0430528D03*
X0200383Y0430921D03*
X0199989Y0431315D03*
X0199596Y0431709D03*
X0199202Y0432102D03*
X0198808Y0432496D03*
X0198415Y0432890D03*
X0198021Y0433283D03*
X0197627Y0433677D03*
X0197234Y0434071D03*
X0196840Y0434465D03*
X0196446Y0434858D03*
X0196052Y0435252D03*
X0195659Y0435646D03*
X0195265Y0436039D03*
X0194871Y0436433D03*
X0194478Y0436827D03*
X0194084Y0437220D03*
X0193690Y0437614D03*
X0193297Y0438008D03*
X0192903Y0438402D03*
X0192509Y0438795D03*
X0192115Y0439189D03*
X0191722Y0439583D03*
X0191328Y0439976D03*
X0190934Y0440370D03*
X0190541Y0440764D03*
X0190147Y0441157D03*
X0189753Y0441551D03*
X0188966Y0442339D03*
X0131486Y0358480D03*
X0131879Y0358087D03*
X0132273Y0357693D03*
X0132667Y0357299D03*
X0133060Y0356906D03*
X0133454Y0356512D03*
X0133848Y0356118D03*
X0134241Y0355724D03*
X0134635Y0355331D03*
X0135029Y0354937D03*
X0135423Y0354543D03*
X0135816Y0354150D03*
X0136210Y0353756D03*
X0136604Y0353362D03*
X0136997Y0352969D03*
X0137391Y0352575D03*
X0137785Y0352181D03*
X0138178Y0351787D03*
X0138572Y0351394D03*
X0138966Y0351000D03*
X0139360Y0350606D03*
X0139753Y0350213D03*
X0140147Y0349819D03*
X0140541Y0349425D03*
X0140934Y0349031D03*
X0141328Y0348638D03*
X0141722Y0348244D03*
X0142115Y0347850D03*
X0142509Y0347457D03*
X0142903Y0347063D03*
X0143297Y0346669D03*
X0143690Y0346276D03*
X0144084Y0345882D03*
X0144478Y0345488D03*
X0144871Y0345094D03*
X0145265Y0344701D03*
X0145659Y0344307D03*
X0146052Y0343913D03*
X0146446Y0343520D03*
X0146840Y0343126D03*
X0147234Y0342732D03*
X0147627Y0342339D03*
X0148021Y0341945D03*
X0148415Y0341551D03*
X0148808Y0341157D03*
X0149202Y0340764D03*
X0149596Y0340370D03*
X0149989Y0339976D03*
X0150383Y0339583D03*
X0150777Y0339189D03*
X0151171Y0338795D03*
X0151564Y0338402D03*
X0151958Y0338008D03*
X0152352Y0337614D03*
X0152745Y0337220D03*
X0153139Y0336827D03*
X0153533Y0336433D03*
X0153927Y0336039D03*
X0154320Y0335646D03*
X0154714Y0335252D03*
X0155108Y0334858D03*
X0155501Y0334465D03*
X0155895Y0334071D03*
X0156289Y0333677D03*
X0156682Y0333283D03*
X0157076Y0332890D03*
X0157470Y0332496D03*
X0157864Y0332102D03*
X0158257Y0331709D03*
X0158651Y0331315D03*
X0159045Y0330921D03*
X0159438Y0330528D03*
X0159832Y0330134D03*
X0160226Y0329740D03*
X0160619Y0329346D03*
X0161013Y0328953D03*
X0161407Y0328559D03*
X0161801Y0328165D03*
X0162194Y0327772D03*
X0162588Y0327378D03*
X0162982Y0326984D03*
X0163375Y0326591D03*
X0163769Y0326197D03*
X0164163Y0325803D03*
X0164556Y0325409D03*
X0164950Y0325016D03*
X0165344Y0324622D03*
X0165738Y0324228D03*
X0166131Y0323835D03*
X0166525Y0323441D03*
X0166919Y0323047D03*
X0167312Y0322654D03*
X0167706Y0322260D03*
X0168100Y0321866D03*
X0168493Y0321472D03*
X0168887Y0321079D03*
X0169281Y0320685D03*
X0169675Y0320291D03*
X0170068Y0319898D03*
X0170462Y0319504D03*
X0170856Y0319110D03*
X0171249Y0318717D03*
X0171643Y0318323D03*
X0172037Y0317929D03*
X0172430Y0317535D03*
X0172824Y0317142D03*
X0173218Y0316748D03*
X0173612Y0316354D03*
X0174005Y0315961D03*
X0174399Y0315567D03*
X0174793Y0315173D03*
X0175186Y0314780D03*
X0175580Y0314386D03*
X0175974Y0313992D03*
X0176367Y0313598D03*
X0176761Y0313205D03*
X0177155Y0312811D03*
X0177549Y0312417D03*
X0177942Y0312024D03*
X0178336Y0311630D03*
X0178730Y0311236D03*
X0179123Y0310843D03*
X0179517Y0310449D03*
X0179911Y0310055D03*
X0180304Y0309661D03*
X0180698Y0309268D03*
X0181092Y0308874D03*
X0181486Y0308480D03*
X0181879Y0308087D03*
X0182273Y0307693D03*
X0182667Y0307299D03*
X0183060Y0306906D03*
X0183454Y0306512D03*
X0183848Y0306118D03*
X0184241Y0305724D03*
X0184635Y0305331D03*
X0185029Y0304937D03*
X0185423Y0304543D03*
X0185816Y0304150D03*
X0186210Y0303756D03*
X0186604Y0303362D03*
X0186997Y0302969D03*
X0187391Y0302575D03*
X0187785Y0302181D03*
X0188178Y0301787D03*
X0188572Y0301394D03*
X0188966Y0301000D03*
X0189360Y0300606D03*
X0189753Y0300213D03*
X0190147Y0299819D03*
X0190541Y0299425D03*
X0190934Y0299031D03*
X0191328Y0298638D03*
X0191722Y0298244D03*
X0192115Y0297850D03*
X0192509Y0297457D03*
X0192903Y0297063D03*
X0193297Y0296669D03*
X0193690Y0296276D03*
X0194084Y0295882D03*
X0194478Y0295488D03*
X0194871Y0295094D03*
X0195265Y0294701D03*
X0195659Y0294307D03*
X0196052Y0293913D03*
X0196446Y0293520D03*
X0196840Y0293126D03*
X0197234Y0292732D03*
X0197627Y0292339D03*
X0198021Y0291945D03*
X0198415Y0291551D03*
X0198808Y0291157D03*
X0199202Y0290764D03*
X0199596Y0290370D03*
X0199989Y0289976D03*
X0200383Y0289583D03*
X0200777Y0289189D03*
X0201171Y0288795D03*
X0201564Y0288402D03*
X0201958Y0288008D03*
X0202352Y0287614D03*
X0202745Y0287220D03*
X0203139Y0286827D03*
X0203533Y0286433D03*
X0203927Y0286039D03*
X0204320Y0285646D03*
X0204714Y0285252D03*
X0205108Y0284858D03*
X0205501Y0284465D03*
X0205895Y0284071D03*
X0206289Y0283677D03*
X0206682Y0283283D03*
X0207076Y0282890D03*
X0207470Y0282496D03*
X0207864Y0282102D03*
X0208257Y0281709D03*
X0208651Y0281315D03*
X0209045Y0280921D03*
X0209438Y0280528D03*
X0209832Y0280134D03*
X0210226Y0279740D03*
X0210619Y0279346D03*
X0211013Y0278953D03*
X0211407Y0278559D03*
X0211801Y0278165D03*
X0212194Y0277772D03*
X0212588Y0277378D03*
X0212982Y0276984D03*
X0213375Y0276591D03*
X0213769Y0276197D03*
X0214163Y0275803D03*
X0214556Y0275409D03*
X0214950Y0275016D03*
X0231486Y0217142D03*
X0275186Y0163205D03*
X0262982Y0118717D03*
X0262982Y0106512D03*
X0262982Y0106118D03*
X0164556Y0121866D03*
X0164556Y0122260D03*
X0164556Y0134071D03*
X0164556Y0134465D03*
X0144084Y0275409D03*
X0143690Y0275803D03*
X0143297Y0276197D03*
X0142903Y0276591D03*
X0142509Y0276984D03*
X0142115Y0277378D03*
X0141722Y0277772D03*
X0141328Y0278165D03*
X0140934Y0278559D03*
X0140541Y0278953D03*
X0140147Y0279346D03*
X0139753Y0279740D03*
X0139360Y0280134D03*
X0138966Y0280528D03*
X0138572Y0280921D03*
X0138178Y0281315D03*
X0137785Y0281709D03*
X0137391Y0282102D03*
X0136997Y0282496D03*
X0136604Y0282890D03*
X0136210Y0283283D03*
X0135816Y0283677D03*
X0135423Y0284071D03*
X0135029Y0284465D03*
X0134635Y0284858D03*
X0134241Y0285252D03*
X0133848Y0285646D03*
X0133454Y0286039D03*
X0133060Y0286433D03*
X0132667Y0286827D03*
X0132273Y0287220D03*
X0131879Y0287614D03*
X0131486Y0288008D03*
X0131092Y0288402D03*
X0130698Y0288795D03*
X0130304Y0289189D03*
X0129911Y0289583D03*
X0129517Y0289976D03*
X0129123Y0290370D03*
X0128730Y0290764D03*
X0128336Y0291157D03*
X0127942Y0291551D03*
X0127549Y0291945D03*
X0127155Y0292339D03*
X0126761Y0292732D03*
X0126367Y0293126D03*
X0125974Y0293520D03*
X0125580Y0293913D03*
X0125186Y0294307D03*
X0124793Y0294701D03*
X0124399Y0295094D03*
X0124005Y0295488D03*
X0123612Y0295882D03*
X0123218Y0296276D03*
X0122824Y0296669D03*
X0122430Y0297063D03*
X0122037Y0297457D03*
X0121643Y0297850D03*
X0121249Y0298244D03*
X0120856Y0298638D03*
X0120462Y0299031D03*
X0120068Y0299425D03*
X0119675Y0299819D03*
X0119281Y0300213D03*
X0118887Y0300606D03*
X0118493Y0301000D03*
X0118100Y0301394D03*
X0117706Y0301787D03*
X0117312Y0302181D03*
X0116919Y0302575D03*
X0116525Y0302969D03*
X0116131Y0303362D03*
X0115738Y0303756D03*
X0115344Y0304150D03*
X0114950Y0304543D03*
X0114556Y0304937D03*
X0114163Y0305331D03*
X0113769Y0305724D03*
X0113375Y0306118D03*
X0112982Y0306512D03*
X0112588Y0306906D03*
X0112194Y0307299D03*
X0111801Y0307693D03*
X0111407Y0308087D03*
X0111013Y0308480D03*
X0110619Y0308874D03*
X0110226Y0309268D03*
X0109832Y0309661D03*
X0109438Y0310055D03*
X0109045Y0310449D03*
X0108651Y0310843D03*
X0108257Y0311236D03*
X0107864Y0311630D03*
X0107470Y0312024D03*
X0107076Y0312417D03*
X0106682Y0312811D03*
X0106289Y0313205D03*
X0105895Y0313598D03*
X0105501Y0313992D03*
X0105108Y0314386D03*
X0104714Y0314780D03*
X0104320Y0315173D03*
X0103927Y0315567D03*
X0103533Y0315961D03*
X0103139Y0316354D03*
X0102745Y0316748D03*
X0102352Y0317142D03*
X0101958Y0317535D03*
X0101564Y0317929D03*
X0101171Y0318323D03*
X0100777Y0318717D03*
X0100383Y0319110D03*
X0099989Y0319504D03*
X0099596Y0319898D03*
X0099202Y0320291D03*
X0098808Y0320685D03*
X0098415Y0321079D03*
X0098021Y0321472D03*
X0097627Y0321866D03*
X0097234Y0322260D03*
X0096840Y0322654D03*
X0096446Y0323047D03*
X0096052Y0323441D03*
X0095659Y0323835D03*
X0095265Y0324228D03*
X0094871Y0324622D03*
X0094478Y0325016D03*
X0094084Y0325409D03*
X0093690Y0325803D03*
X0093297Y0326197D03*
X0092903Y0326591D03*
X0092509Y0326984D03*
X0092115Y0327378D03*
X0091722Y0327772D03*
X0091328Y0328165D03*
X0090934Y0328559D03*
X0090541Y0328953D03*
X0090147Y0329346D03*
X0089753Y0329740D03*
X0089360Y0330134D03*
X0088966Y0330528D03*
X0088572Y0330921D03*
X0088178Y0331315D03*
X0087785Y0331709D03*
X0087391Y0332102D03*
X0086997Y0332496D03*
X0086604Y0332890D03*
X0086210Y0333283D03*
X0085816Y0333677D03*
X0085423Y0334071D03*
X0085029Y0334465D03*
X0084635Y0334858D03*
X0084241Y0335252D03*
X0083848Y0335646D03*
X0083454Y0336039D03*
X0083060Y0336433D03*
X0082667Y0336827D03*
X0082273Y0337220D03*
X0081879Y0337614D03*
X0081486Y0338008D03*
X0081092Y0338402D03*
X0080698Y0338795D03*
X0080304Y0339189D03*
X0079911Y0339583D03*
X0079517Y0339976D03*
X0079123Y0340370D03*
X0078730Y0340764D03*
X0078336Y0341157D03*
X0077942Y0341551D03*
X0077549Y0341945D03*
X0077155Y0342339D03*
X0076761Y0342732D03*
X0076367Y0343126D03*
X0075974Y0343520D03*
X0075580Y0343913D03*
X0075186Y0344307D03*
X0074793Y0344701D03*
X0074399Y0345094D03*
X0074005Y0345488D03*
X0073612Y0345882D03*
X0073218Y0346276D03*
X0072824Y0346669D03*
X0072430Y0347063D03*
X0072037Y0347457D03*
X0071643Y0347850D03*
X0071249Y0348244D03*
X0070856Y0348638D03*
X0070462Y0349031D03*
X0070068Y0349425D03*
X0069675Y0349819D03*
X0069281Y0350213D03*
X0068887Y0350606D03*
X0068493Y0351000D03*
X0068100Y0351394D03*
X0067706Y0351787D03*
X0067312Y0352181D03*
X0066919Y0352575D03*
X0066525Y0352969D03*
X0066131Y0353362D03*
X0065738Y0353756D03*
X0065344Y0354150D03*
X0095659Y0394307D03*
X0096052Y0393913D03*
X0096446Y0393520D03*
X0096840Y0393126D03*
X0097234Y0392732D03*
X0097627Y0392339D03*
X0098021Y0391945D03*
X0098415Y0391551D03*
X0098808Y0391157D03*
X0099202Y0390764D03*
X0099596Y0390370D03*
X0099989Y0389976D03*
X0100383Y0389583D03*
X0100777Y0389189D03*
X0101171Y0388795D03*
X0101564Y0388402D03*
X0101958Y0388008D03*
X0102352Y0387614D03*
X0102745Y0387220D03*
X0103139Y0386827D03*
X0103533Y0386433D03*
X0103927Y0386039D03*
X0104320Y0385646D03*
X0104714Y0385252D03*
X0105108Y0384858D03*
X0105501Y0384465D03*
X0105895Y0384071D03*
X0106289Y0383677D03*
X0106682Y0383283D03*
X0107076Y0382890D03*
X0107470Y0382496D03*
X0107864Y0382102D03*
X0108257Y0381709D03*
X0108651Y0381315D03*
X0109045Y0380921D03*
X0109438Y0380528D03*
X0109832Y0380134D03*
X0110226Y0379740D03*
X0110619Y0379346D03*
X0111013Y0378953D03*
X0111407Y0378559D03*
X0111801Y0378165D03*
X0112194Y0377772D03*
X0112588Y0377378D03*
X0112982Y0376984D03*
X0113375Y0376591D03*
X0113769Y0376197D03*
X0114163Y0375803D03*
X0114556Y0375409D03*
X0114950Y0375016D03*
X0115344Y0374622D03*
X0115738Y0374228D03*
X0116131Y0373835D03*
X0116525Y0373441D03*
X0116919Y0373047D03*
X0117312Y0372654D03*
X0117706Y0372260D03*
X0118100Y0371866D03*
X0118493Y0371472D03*
X0118887Y0371079D03*
X0119281Y0370685D03*
X0119675Y0370291D03*
X0120068Y0369898D03*
X0120462Y0369504D03*
X0120856Y0369110D03*
X0121249Y0368717D03*
X0121643Y0368323D03*
X0122037Y0367929D03*
X0122430Y0367535D03*
X0122824Y0367142D03*
X0123218Y0366748D03*
X0123612Y0366354D03*
X0124005Y0365961D03*
X0124399Y0365567D03*
X0124793Y0365173D03*
X0125186Y0364780D03*
X0125580Y0364386D03*
X0125974Y0363992D03*
X0126367Y0363598D03*
X0126761Y0363205D03*
X0127155Y0362811D03*
X0127549Y0362417D03*
X0127942Y0362024D03*
X0128336Y0361630D03*
X0128730Y0361236D03*
X0129123Y0360843D03*
X0129517Y0360449D03*
X0129911Y0360055D03*
X0130304Y0359661D03*
X0130698Y0359268D03*
X0131092Y0358874D03*
X0095265Y0394701D03*
X0094871Y0395094D03*
X0094478Y0395488D03*
X0094084Y0395882D03*
X0093690Y0396276D03*
X0093297Y0396669D03*
X0092903Y0397063D03*
X0092509Y0397457D03*
X0092115Y0397850D03*
X0091722Y0398244D03*
X0091328Y0398638D03*
X0090934Y0399031D03*
X0090541Y0399425D03*
X0090147Y0399819D03*
X0089753Y0400213D03*
X0089360Y0400606D03*
X0088966Y0401000D03*
X0088572Y0401394D03*
X0088178Y0401787D03*
X0087785Y0402181D03*
X0087391Y0402575D03*
X0086997Y0402969D03*
X0086604Y0403362D03*
X0086210Y0403756D03*
X0085816Y0404150D03*
X0085423Y0404543D03*
X0085029Y0404937D03*
X0084635Y0405331D03*
X0084241Y0405724D03*
X0083848Y0406118D03*
X0083454Y0406512D03*
X0083060Y0406906D03*
X0082667Y0407299D03*
X0082273Y0407693D03*
X0081879Y0408087D03*
X0081486Y0408480D03*
X0081092Y0408874D03*
X0080698Y0409268D03*
X0080304Y0409661D03*
X0079911Y0410055D03*
X0079517Y0410449D03*
X0079123Y0410843D03*
X0078730Y0411236D03*
X0078336Y0411630D03*
X0077942Y0412024D03*
X0077549Y0412417D03*
X0077155Y0412811D03*
X0076761Y0413205D03*
X0076367Y0413598D03*
X0075974Y0413992D03*
X0075580Y0414386D03*
X0075186Y0414780D03*
X0074793Y0415173D03*
X0074399Y0415567D03*
X0074005Y0415961D03*
X0073612Y0416354D03*
X0073218Y0416748D03*
X0072824Y0417142D03*
X0072430Y0417535D03*
X0072037Y0417929D03*
X0071643Y0418323D03*
X0071249Y0418717D03*
X0070856Y0419110D03*
X0070462Y0419504D03*
X0070068Y0419898D03*
X0069675Y0420291D03*
X0069281Y0420685D03*
X0068887Y0421079D03*
X0068493Y0421472D03*
X0068100Y0421866D03*
X0067706Y0422260D03*
X0067312Y0422654D03*
X0066919Y0423047D03*
X0066525Y0423441D03*
X0066131Y0423835D03*
X0065738Y0424228D03*
X0065344Y0424622D03*
X0065344Y0283283D03*
X0065738Y0282890D03*
X0066525Y0282102D03*
X0066919Y0281709D03*
X0067312Y0281315D03*
X0067706Y0280921D03*
X0068100Y0280528D03*
X0068493Y0280134D03*
X0068887Y0279740D03*
X0069281Y0279346D03*
X0069675Y0278953D03*
X0070068Y0278559D03*
X0070462Y0278165D03*
X0070856Y0277772D03*
X0071249Y0277378D03*
X0071643Y0276984D03*
X0072037Y0276591D03*
X0072430Y0276197D03*
X0072824Y0275803D03*
X0073612Y0275016D03*
X0259832Y0441945D03*
X0260226Y0441551D03*
X0260619Y0441157D03*
X0261013Y0440764D03*
X0261407Y0440370D03*
X0261801Y0439976D03*
X0262194Y0439583D03*
X0262588Y0439189D03*
X0262982Y0438795D03*
X0263375Y0438402D03*
X0263769Y0438008D03*
X0264163Y0437614D03*
X0264556Y0437220D03*
X0264950Y0436827D03*
X0265344Y0436433D03*
X0265738Y0436039D03*
X0266131Y0435646D03*
X0266525Y0435252D03*
D73*
X0189163Y0441945D03*
X0266328Y0294307D03*
X0231682Y0216748D03*
X0231682Y0216354D03*
X0231682Y0205724D03*
X0231682Y0205331D03*
X0231682Y0204937D03*
X0219871Y0157693D03*
X0219871Y0157299D03*
X0219871Y0156906D03*
X0219871Y0146669D03*
X0219871Y0146276D03*
X0219871Y0145882D03*
X0176564Y0181315D03*
X0176564Y0181709D03*
X0176564Y0182102D03*
X0176564Y0192339D03*
X0176564Y0192732D03*
X0176564Y0193126D03*
X0164753Y0133677D03*
X0164753Y0122654D03*
X0144281Y0275016D03*
X0263178Y0118323D03*
X0263178Y0117929D03*
X0263178Y0106906D03*
X0274989Y0163598D03*
X0274989Y0163992D03*
X0274989Y0174622D03*
X0274989Y0175016D03*
X0274989Y0175409D03*
D74*
X0275186Y0174228D03*
X0275186Y0164386D03*
X0262982Y0117535D03*
X0262982Y0117142D03*
X0262982Y0108087D03*
X0262982Y0107693D03*
X0262982Y0107299D03*
X0231486Y0206118D03*
X0231486Y0215567D03*
X0231486Y0215961D03*
X0176367Y0191945D03*
X0176367Y0182496D03*
X0164556Y0133283D03*
X0164556Y0132890D03*
X0164556Y0123441D03*
X0164556Y0123047D03*
D75*
X0164753Y0123835D03*
X0164753Y0124228D03*
X0164753Y0132102D03*
X0164753Y0132496D03*
X0176564Y0182890D03*
X0176564Y0183283D03*
X0176564Y0183677D03*
X0176564Y0190764D03*
X0176564Y0191157D03*
X0176564Y0191551D03*
X0219871Y0156512D03*
X0219871Y0156118D03*
X0219871Y0155724D03*
X0219871Y0155331D03*
X0219871Y0148244D03*
X0219871Y0147850D03*
X0219871Y0147457D03*
X0219871Y0147063D03*
X0231682Y0206512D03*
X0231682Y0206906D03*
X0231682Y0207299D03*
X0231682Y0214386D03*
X0231682Y0214780D03*
X0231682Y0215173D03*
X0274989Y0173835D03*
X0274989Y0173441D03*
X0274989Y0173047D03*
X0274989Y0165961D03*
X0274989Y0165567D03*
X0274989Y0165173D03*
X0274989Y0164780D03*
X0263178Y0116748D03*
X0263178Y0116354D03*
X0263178Y0108480D03*
D76*
X0262982Y0108874D03*
X0262982Y0109268D03*
X0262982Y0109661D03*
X0262982Y0110055D03*
X0262982Y0114780D03*
X0262982Y0115173D03*
X0262982Y0115567D03*
X0262982Y0115961D03*
X0275186Y0166354D03*
X0275186Y0172260D03*
X0275186Y0172654D03*
X0231486Y0207693D03*
X0231486Y0208087D03*
X0231486Y0213598D03*
X0231486Y0213992D03*
X0219675Y0154937D03*
X0219675Y0148638D03*
X0176367Y0184071D03*
X0176367Y0184465D03*
X0176367Y0189976D03*
X0176367Y0190370D03*
X0164556Y0131709D03*
X0164556Y0131315D03*
X0164556Y0130921D03*
X0164556Y0130528D03*
X0164556Y0125803D03*
X0164556Y0125409D03*
X0164556Y0125016D03*
X0164556Y0124622D03*
D77*
X0164556Y0110055D03*
X0114950Y0159268D03*
X0114950Y0163992D03*
X0087391Y0190370D03*
X0087391Y0190764D03*
X0066919Y0190764D03*
X0066919Y0191157D03*
X0039360Y0164386D03*
X0039360Y0159268D03*
X0066919Y0132496D03*
X0087391Y0132890D03*
X0052352Y0309268D03*
X0052352Y0380134D03*
X0231486Y0192732D03*
X0279517Y0338795D03*
X0279517Y0409268D03*
D78*
X0231682Y0213205D03*
X0231682Y0212811D03*
X0231682Y0212417D03*
X0231682Y0212024D03*
X0231682Y0211630D03*
X0231682Y0211236D03*
X0231682Y0210843D03*
X0231682Y0210449D03*
X0231682Y0210055D03*
X0231682Y0209661D03*
X0231682Y0209268D03*
X0231682Y0208874D03*
X0231682Y0208480D03*
X0219871Y0154543D03*
X0219871Y0154150D03*
X0219871Y0153756D03*
X0219871Y0153362D03*
X0219871Y0152969D03*
X0219871Y0152575D03*
X0219871Y0152181D03*
X0219871Y0151787D03*
X0219871Y0151394D03*
X0219871Y0151000D03*
X0219871Y0150606D03*
X0219871Y0150213D03*
X0219871Y0149819D03*
X0219871Y0149425D03*
X0219871Y0149031D03*
X0176564Y0184858D03*
X0176564Y0185252D03*
X0176564Y0185646D03*
X0176564Y0186039D03*
X0176564Y0186433D03*
X0176564Y0186827D03*
X0176564Y0187220D03*
X0176564Y0187614D03*
X0176564Y0188008D03*
X0176564Y0188402D03*
X0176564Y0188795D03*
X0176564Y0189189D03*
X0176564Y0189583D03*
X0164753Y0130134D03*
X0164753Y0129740D03*
X0164753Y0129346D03*
X0164753Y0128953D03*
X0164753Y0128559D03*
X0164753Y0128165D03*
X0164753Y0127772D03*
X0164753Y0127378D03*
X0164753Y0126984D03*
X0164753Y0126591D03*
X0164753Y0126197D03*
X0263178Y0114386D03*
X0263178Y0113992D03*
X0263178Y0113598D03*
X0263178Y0113205D03*
X0263178Y0112811D03*
X0263178Y0112417D03*
X0263178Y0112024D03*
X0263178Y0111630D03*
X0263178Y0111236D03*
X0263178Y0110843D03*
X0263178Y0110449D03*
X0274989Y0166748D03*
X0274989Y0167142D03*
X0274989Y0167535D03*
X0274989Y0167929D03*
X0274989Y0168323D03*
X0274989Y0168717D03*
X0274989Y0169110D03*
X0274989Y0169504D03*
X0274989Y0169898D03*
X0274989Y0170291D03*
X0274989Y0170685D03*
X0274989Y0171079D03*
X0274989Y0171472D03*
X0274989Y0171866D03*
D79*
X0231486Y0193520D03*
X0164556Y0110843D03*
X0112588Y0155724D03*
X0112588Y0167535D03*
X0085029Y0196669D03*
X0085029Y0197063D03*
X0069281Y0197063D03*
X0069281Y0197457D03*
X0041722Y0167929D03*
X0041722Y0155724D03*
X0069281Y0126197D03*
X0085029Y0126591D03*
X0054714Y0304543D03*
X0054714Y0375409D03*
X0277155Y0343520D03*
X0277155Y0413992D03*
D80*
X0272430Y0423441D03*
X0272430Y0352969D03*
X0272430Y0282102D03*
X0231486Y0225409D03*
X0231486Y0196276D03*
X0219675Y0137220D03*
X0176367Y0172654D03*
X0176367Y0201787D03*
X0164556Y0142732D03*
X0164556Y0113598D03*
X0059438Y0295094D03*
X0059438Y0365961D03*
X0059438Y0436433D03*
D81*
X0062785Y0429740D03*
X0062785Y0359268D03*
X0062785Y0288402D03*
X0076958Y0146669D03*
X0164753Y0139189D03*
X0164753Y0117142D03*
X0176564Y0176197D03*
X0176564Y0198244D03*
X0219871Y0162811D03*
X0219871Y0140764D03*
X0231682Y0199819D03*
X0231682Y0221866D03*
X0274989Y0180528D03*
X0274989Y0158480D03*
X0263178Y0123441D03*
X0269084Y0288795D03*
X0269084Y0359661D03*
X0269084Y0430134D03*
D82*
X0268493Y0431315D03*
X0268493Y0360843D03*
X0268493Y0289976D03*
X0231486Y0221079D03*
X0275186Y0159268D03*
X0262982Y0122654D03*
X0176367Y0176984D03*
X0164556Y0138402D03*
X0164556Y0117929D03*
X0063375Y0287220D03*
X0063375Y0358087D03*
X0063375Y0428559D03*
D83*
X0060029Y0435252D03*
X0060029Y0364780D03*
X0060029Y0293913D03*
X0076958Y0119898D03*
X0176564Y0173047D03*
X0219871Y0165961D03*
X0219871Y0137614D03*
X0263178Y0126591D03*
X0274989Y0155331D03*
X0231682Y0225016D03*
X0271840Y0283283D03*
X0271840Y0354150D03*
X0271840Y0424622D03*
D84*
X0270659Y0426984D03*
X0270659Y0356512D03*
X0270659Y0285646D03*
X0231682Y0223835D03*
X0231682Y0197850D03*
X0219871Y0164780D03*
X0219871Y0138795D03*
X0176564Y0174228D03*
X0176564Y0200213D03*
X0164753Y0141157D03*
X0076958Y0120685D03*
X0076958Y0202575D03*
X0061210Y0291551D03*
X0061210Y0362417D03*
X0061210Y0432890D03*
X0263178Y0125409D03*
X0274989Y0156512D03*
X0274989Y0182496D03*
D85*
X0274989Y0181315D03*
X0274989Y0157299D03*
X0263178Y0124622D03*
X0219871Y0139583D03*
X0219871Y0163598D03*
X0231682Y0223047D03*
X0269871Y0287220D03*
X0269871Y0358087D03*
X0269871Y0428559D03*
X0176564Y0175016D03*
X0076958Y0201394D03*
X0076958Y0121866D03*
X0061997Y0289976D03*
X0061997Y0360843D03*
X0061997Y0431315D03*
D86*
X0061604Y0432102D03*
X0061604Y0361630D03*
X0061604Y0290764D03*
X0076958Y0202181D03*
X0164753Y0140764D03*
X0176564Y0174622D03*
X0176564Y0199819D03*
X0219871Y0164386D03*
X0219871Y0139189D03*
X0231682Y0198244D03*
X0231682Y0223441D03*
X0270265Y0286433D03*
X0270265Y0357299D03*
X0270265Y0427772D03*
X0274989Y0156906D03*
X0263178Y0125016D03*
D87*
X0274989Y0152181D03*
X0231682Y0228165D03*
X0219871Y0169110D03*
X0219871Y0134465D03*
X0176564Y0169898D03*
X0164753Y0145488D03*
X0176564Y0204543D03*
X0112391Y0167929D03*
X0112391Y0155331D03*
X0084832Y0126197D03*
X0084832Y0125803D03*
X0069478Y0125803D03*
X0041919Y0155331D03*
X0069478Y0197850D03*
X0084832Y0197457D03*
X0054911Y0304150D03*
X0054911Y0375016D03*
X0276958Y0343913D03*
X0276958Y0414386D03*
D88*
X0271052Y0426197D03*
X0271052Y0355724D03*
X0271052Y0284858D03*
X0231682Y0224228D03*
X0231682Y0197457D03*
X0219871Y0165173D03*
X0219871Y0138402D03*
X0176564Y0173835D03*
X0176564Y0200606D03*
X0164753Y0141551D03*
X0076958Y0202969D03*
X0060816Y0292339D03*
X0060816Y0363205D03*
X0060816Y0433677D03*
X0263178Y0125803D03*
X0274989Y0156118D03*
X0274989Y0182890D03*
D89*
X0274989Y0155724D03*
X0263178Y0126197D03*
X0219871Y0138008D03*
X0219871Y0165567D03*
X0231682Y0197063D03*
X0231682Y0224622D03*
X0271446Y0284071D03*
X0271446Y0354937D03*
X0271446Y0425409D03*
X0176564Y0201000D03*
X0176564Y0173441D03*
X0164753Y0141945D03*
X0076958Y0203362D03*
X0060423Y0293126D03*
X0060423Y0363992D03*
X0060423Y0434465D03*
D90*
X0059635Y0436039D03*
X0059635Y0365567D03*
X0059635Y0294701D03*
X0076958Y0203756D03*
X0263178Y0126984D03*
X0274989Y0154937D03*
X0272234Y0282496D03*
X0272234Y0353362D03*
X0272234Y0423835D03*
D91*
X0272824Y0422654D03*
X0272824Y0352181D03*
X0272824Y0281315D03*
X0275186Y0154543D03*
X0262982Y0127378D03*
X0164556Y0143126D03*
X0059045Y0295882D03*
X0059045Y0366748D03*
X0059045Y0437220D03*
D92*
X0054123Y0376591D03*
X0054123Y0305724D03*
X0068690Y0195882D03*
X0068690Y0195488D03*
X0085619Y0195488D03*
X0085619Y0195094D03*
X0113178Y0166748D03*
X0113178Y0156512D03*
X0085619Y0128165D03*
X0068690Y0127772D03*
X0041131Y0156512D03*
X0263178Y0130134D03*
X0277745Y0342339D03*
X0277745Y0412811D03*
D93*
X0273218Y0421866D03*
X0273218Y0351394D03*
X0273218Y0280528D03*
X0262982Y0127772D03*
X0058651Y0296669D03*
X0058651Y0367535D03*
X0058651Y0438008D03*
D94*
X0057864Y0439583D03*
X0057864Y0369110D03*
X0057864Y0298244D03*
X0164556Y0143913D03*
X0231486Y0226591D03*
X0274005Y0278953D03*
X0274005Y0349819D03*
X0274005Y0420291D03*
X0275186Y0153756D03*
X0262982Y0128165D03*
D95*
X0262982Y0128559D03*
X0274399Y0278165D03*
X0274399Y0349031D03*
X0274399Y0419504D03*
X0057470Y0440370D03*
X0057470Y0369898D03*
X0057470Y0299031D03*
D96*
X0056682Y0300606D03*
X0056682Y0371472D03*
X0056682Y0441945D03*
X0262982Y0128953D03*
X0275186Y0276591D03*
X0275186Y0347457D03*
X0275186Y0417929D03*
D97*
X0279123Y0410055D03*
X0279123Y0339583D03*
X0275186Y0151394D03*
X0164556Y0146276D03*
X0114556Y0164780D03*
X0086997Y0191551D03*
X0067312Y0191945D03*
X0039753Y0164780D03*
X0039753Y0158480D03*
X0067312Y0131315D03*
X0086997Y0131709D03*
X0052745Y0308480D03*
X0052745Y0379346D03*
D98*
X0052155Y0380528D03*
X0052155Y0309661D03*
X0066722Y0190370D03*
X0087588Y0189976D03*
X0115147Y0159661D03*
X0087588Y0133283D03*
X0066722Y0132890D03*
X0039163Y0163992D03*
X0274989Y0187614D03*
X0279714Y0338402D03*
X0279714Y0408874D03*
D99*
X0276171Y0415961D03*
X0276171Y0345488D03*
X0231682Y0227772D03*
X0231682Y0193913D03*
X0219871Y0168717D03*
X0219871Y0134858D03*
X0176564Y0170291D03*
X0164753Y0145094D03*
X0176564Y0204150D03*
X0274989Y0152575D03*
X0055698Y0302575D03*
X0055698Y0373441D03*
D100*
X0057273Y0370291D03*
X0057273Y0299425D03*
X0057273Y0440764D03*
X0176564Y0203362D03*
X0176564Y0171079D03*
X0164753Y0144307D03*
X0219871Y0135646D03*
X0219871Y0167929D03*
X0231682Y0226984D03*
X0274596Y0277772D03*
X0274596Y0348638D03*
X0274596Y0419110D03*
X0274989Y0153362D03*
D101*
X0274989Y0154150D03*
X0231682Y0195488D03*
X0219871Y0167142D03*
X0219871Y0136433D03*
X0176564Y0171866D03*
X0164753Y0143520D03*
X0176564Y0202575D03*
X0231682Y0226197D03*
X0273415Y0280134D03*
X0273415Y0351000D03*
X0273415Y0421472D03*
X0058454Y0438402D03*
X0058454Y0367929D03*
X0058454Y0297063D03*
D102*
X0077155Y0147063D03*
D103*
X0077155Y0147457D03*
D104*
X0077155Y0147850D03*
D105*
X0076958Y0148244D03*
X0076958Y0175016D03*
D106*
X0077155Y0148638D03*
D107*
X0077155Y0149031D03*
X0077155Y0174228D03*
D108*
X0076958Y0173835D03*
X0076958Y0149425D03*
D109*
X0077155Y0149819D03*
X0077155Y0173441D03*
D110*
X0076958Y0173047D03*
X0076958Y0172654D03*
X0076958Y0172260D03*
X0076958Y0151000D03*
X0076958Y0150606D03*
X0076958Y0150213D03*
D111*
X0077155Y0151394D03*
X0077155Y0151787D03*
X0077155Y0152181D03*
X0077155Y0152575D03*
X0077155Y0152969D03*
X0077155Y0153362D03*
X0077155Y0153756D03*
X0077155Y0154150D03*
X0077155Y0169110D03*
X0077155Y0169504D03*
X0077155Y0169898D03*
X0077155Y0170291D03*
X0077155Y0170685D03*
X0077155Y0171079D03*
X0077155Y0171472D03*
X0077155Y0171866D03*
D112*
X0111997Y0154937D03*
X0042312Y0154543D03*
X0042312Y0168717D03*
X0055304Y0303362D03*
X0055304Y0374228D03*
X0276564Y0344701D03*
X0276564Y0415173D03*
D113*
X0077155Y0168717D03*
X0077155Y0154543D03*
D114*
X0076958Y0154937D03*
X0076958Y0155331D03*
X0076958Y0155724D03*
X0076958Y0156118D03*
X0076958Y0156512D03*
X0076958Y0156906D03*
X0076958Y0157299D03*
X0076958Y0157693D03*
X0076958Y0158087D03*
X0076958Y0158480D03*
X0076958Y0158874D03*
X0076958Y0159268D03*
X0076958Y0159661D03*
X0076958Y0160055D03*
X0076958Y0160449D03*
X0076958Y0160843D03*
X0076958Y0161236D03*
X0076958Y0161630D03*
X0076958Y0162024D03*
X0076958Y0162417D03*
X0076958Y0162811D03*
X0076958Y0163205D03*
X0076958Y0163598D03*
X0076958Y0163992D03*
X0076958Y0164386D03*
X0076958Y0164780D03*
X0076958Y0165173D03*
X0076958Y0165567D03*
X0076958Y0165961D03*
X0076958Y0166354D03*
X0076958Y0166748D03*
X0076958Y0167142D03*
X0076958Y0167535D03*
X0076958Y0167929D03*
X0076958Y0168323D03*
D115*
X0076958Y0174622D03*
D116*
X0076958Y0175409D03*
D117*
X0076958Y0175803D03*
D118*
X0076958Y0176197D03*
D119*
X0076958Y0176591D03*
D120*
X0076958Y0204150D03*
X0058060Y0297850D03*
X0058060Y0368717D03*
X0058060Y0439189D03*
X0273808Y0420685D03*
X0273808Y0350213D03*
X0273808Y0279346D03*
D121*
X0275777Y0275409D03*
X0275777Y0346276D03*
X0275777Y0416748D03*
X0056092Y0372654D03*
X0056092Y0301787D03*
D122*
X0131899Y0080173D03*
X0155521Y0080173D03*
X0177175Y0080173D03*
X0200797Y0080173D03*
D123*
X0188769Y0080173D03*
X0143493Y0080173D03*
D124*
X0061112Y0230921D03*
D125*
X0061407Y0231118D03*
X0062982Y0264583D03*
X0062982Y0264780D03*
X0062982Y0264976D03*
X0062982Y0265173D03*
X0062982Y0265370D03*
X0062982Y0265567D03*
X0062982Y0265764D03*
D126*
X0061604Y0231315D03*
D127*
X0061702Y0231512D03*
D128*
X0061899Y0231709D03*
D129*
X0060816Y0238402D03*
X0064753Y0238402D03*
X0073612Y0233480D03*
X0073808Y0233677D03*
X0073808Y0233874D03*
X0074005Y0234071D03*
X0074005Y0234268D03*
X0074202Y0234465D03*
X0074202Y0234661D03*
X0074399Y0235252D03*
X0074399Y0235449D03*
X0074399Y0235646D03*
X0074399Y0268717D03*
X0074399Y0268913D03*
X0053730Y0260646D03*
X0051564Y0260646D03*
X0051564Y0260843D03*
X0051564Y0261039D03*
X0051564Y0261236D03*
X0051564Y0261433D03*
X0051564Y0261630D03*
X0051564Y0261827D03*
X0051564Y0262024D03*
X0051564Y0262220D03*
X0051564Y0262417D03*
X0051564Y0262614D03*
X0051564Y0262811D03*
X0051564Y0263008D03*
X0051564Y0263205D03*
X0051564Y0263402D03*
X0051564Y0263598D03*
X0051564Y0263795D03*
X0051564Y0263992D03*
X0051564Y0264189D03*
X0051564Y0264386D03*
X0051564Y0264583D03*
X0051564Y0264780D03*
X0051564Y0264976D03*
X0051564Y0265173D03*
X0051564Y0265370D03*
X0051564Y0265567D03*
X0051564Y0265764D03*
X0051564Y0265961D03*
X0051564Y0266157D03*
X0051564Y0266354D03*
X0051564Y0266551D03*
X0051564Y0266748D03*
X0051564Y0266945D03*
X0051564Y0267142D03*
X0051564Y0267339D03*
X0051564Y0267535D03*
X0051564Y0267732D03*
X0051564Y0267929D03*
X0051564Y0268126D03*
X0051564Y0268323D03*
X0051564Y0268520D03*
X0051564Y0268717D03*
X0051761Y0268913D03*
X0051564Y0260449D03*
X0051564Y0260252D03*
X0051564Y0260055D03*
X0051564Y0259858D03*
X0051564Y0259661D03*
X0051564Y0259465D03*
X0051564Y0259268D03*
X0051564Y0259071D03*
X0051564Y0258874D03*
X0051564Y0258677D03*
X0051564Y0258480D03*
X0051564Y0258283D03*
X0051564Y0258087D03*
X0051564Y0257890D03*
X0051564Y0257693D03*
X0051564Y0257496D03*
X0051564Y0257299D03*
X0051564Y0257102D03*
X0051564Y0256906D03*
X0051564Y0256709D03*
X0051564Y0256512D03*
X0051564Y0256315D03*
X0051564Y0256118D03*
X0051564Y0255921D03*
X0051564Y0255724D03*
X0051564Y0255528D03*
X0051564Y0255331D03*
X0051564Y0255134D03*
X0051564Y0254937D03*
X0051564Y0254740D03*
X0051564Y0254543D03*
X0051564Y0254346D03*
X0051564Y0254150D03*
X0051564Y0253953D03*
X0051564Y0253756D03*
X0051564Y0253559D03*
X0051564Y0253362D03*
X0051564Y0253165D03*
X0051564Y0252969D03*
X0051564Y0252772D03*
X0051564Y0252575D03*
X0051564Y0252378D03*
X0051564Y0252181D03*
X0051564Y0251984D03*
X0051564Y0251787D03*
X0051564Y0251591D03*
X0051564Y0251394D03*
X0051564Y0251197D03*
X0051564Y0251000D03*
X0051564Y0250803D03*
X0051564Y0250606D03*
X0051564Y0250409D03*
X0051564Y0250213D03*
X0051564Y0250016D03*
X0051564Y0249819D03*
X0051564Y0249622D03*
X0051564Y0249425D03*
X0051564Y0249228D03*
X0051564Y0249031D03*
X0051564Y0248835D03*
X0051564Y0248638D03*
X0051564Y0248441D03*
X0051564Y0248244D03*
X0051564Y0248047D03*
X0051564Y0247850D03*
X0051564Y0247654D03*
X0051564Y0247457D03*
X0051564Y0247260D03*
X0051564Y0247063D03*
X0051564Y0246866D03*
X0051564Y0246669D03*
X0051564Y0246472D03*
X0051564Y0246276D03*
X0051564Y0246079D03*
X0051564Y0245882D03*
X0051564Y0245685D03*
X0051564Y0245488D03*
X0051564Y0245291D03*
X0051564Y0245094D03*
X0051564Y0244898D03*
X0051564Y0244701D03*
X0051564Y0244504D03*
X0051564Y0244307D03*
X0051564Y0244110D03*
X0051564Y0243913D03*
X0051564Y0243717D03*
X0051564Y0243520D03*
X0051564Y0243323D03*
X0051564Y0243126D03*
X0051564Y0242929D03*
X0051564Y0242732D03*
X0051564Y0242535D03*
X0051564Y0242339D03*
X0051564Y0242142D03*
X0051564Y0241945D03*
X0051564Y0241748D03*
X0051564Y0241551D03*
X0051564Y0241354D03*
X0051564Y0241157D03*
X0051564Y0240961D03*
X0051564Y0240764D03*
X0051564Y0240567D03*
X0051564Y0240370D03*
X0051564Y0240173D03*
X0051564Y0239976D03*
X0051564Y0239780D03*
X0051564Y0239583D03*
X0051564Y0239386D03*
X0051564Y0239189D03*
X0051564Y0238992D03*
X0051564Y0238795D03*
X0051564Y0238598D03*
X0051564Y0238402D03*
X0051564Y0238205D03*
X0051564Y0238008D03*
X0051564Y0237811D03*
X0051564Y0237614D03*
X0051564Y0237417D03*
X0051564Y0237220D03*
X0051564Y0237024D03*
X0051564Y0236827D03*
X0051564Y0236630D03*
X0051564Y0236433D03*
X0051564Y0236236D03*
X0051564Y0236039D03*
X0051564Y0235843D03*
X0051564Y0235646D03*
X0051564Y0235449D03*
X0051564Y0235252D03*
X0051564Y0235055D03*
X0051564Y0234858D03*
X0051564Y0234661D03*
X0051564Y0234465D03*
X0051564Y0234268D03*
X0051564Y0234071D03*
X0051564Y0233874D03*
X0051564Y0233677D03*
X0051564Y0233480D03*
X0051564Y0233283D03*
X0051564Y0233087D03*
X0051564Y0232890D03*
X0051564Y0232693D03*
X0051564Y0232496D03*
X0051564Y0232299D03*
X0051564Y0232102D03*
X0051564Y0231906D03*
X0210029Y0241157D03*
X0210029Y0241354D03*
X0210029Y0241551D03*
X0210029Y0241748D03*
X0210029Y0241945D03*
X0210029Y0242142D03*
X0210029Y0242339D03*
X0213769Y0244898D03*
X0214950Y0253559D03*
D130*
X0217214Y0251984D03*
X0222923Y0249819D03*
X0222726Y0248441D03*
X0222726Y0248244D03*
X0222726Y0248047D03*
X0210521Y0248047D03*
X0210521Y0248244D03*
X0210521Y0248441D03*
X0210521Y0248638D03*
X0210521Y0248835D03*
X0210521Y0249031D03*
X0210521Y0249228D03*
X0235127Y0249228D03*
X0235127Y0249031D03*
X0235127Y0248835D03*
X0235127Y0248638D03*
X0235127Y0249425D03*
X0235127Y0249622D03*
X0244379Y0246669D03*
X0245954Y0252575D03*
X0250482Y0252378D03*
X0103631Y0260055D03*
X0071741Y0231906D03*
X0056387Y0240764D03*
X0056387Y0240961D03*
X0056387Y0241157D03*
X0056387Y0241354D03*
X0056387Y0241551D03*
X0056387Y0241748D03*
X0056387Y0241945D03*
X0056387Y0242142D03*
X0056387Y0244701D03*
X0056387Y0244898D03*
X0056387Y0245094D03*
X0056387Y0245291D03*
X0056387Y0245488D03*
X0056387Y0245685D03*
X0056387Y0245882D03*
X0056387Y0246079D03*
D131*
X0056387Y0246276D03*
X0059537Y0237614D03*
X0063671Y0237811D03*
X0064458Y0238205D03*
X0072135Y0232102D03*
X0103631Y0259858D03*
X0210324Y0246472D03*
X0210324Y0246276D03*
X0210324Y0246079D03*
X0210324Y0245882D03*
X0210324Y0245685D03*
X0210324Y0245488D03*
X0210324Y0245291D03*
X0244576Y0246079D03*
X0244576Y0246276D03*
X0249301Y0246079D03*
X0250875Y0244504D03*
X0245954Y0252772D03*
D132*
X0214556Y0252969D03*
X0213572Y0245488D03*
X0068297Y0236827D03*
X0067115Y0236236D03*
X0067706Y0232299D03*
D133*
X0072430Y0232299D03*
X0067509Y0239386D03*
X0067509Y0243126D03*
X0065147Y0243323D03*
X0065147Y0247063D03*
X0069084Y0245685D03*
X0071446Y0245488D03*
X0071446Y0241748D03*
X0069084Y0249425D03*
X0063375Y0237614D03*
X0060619Y0238205D03*
X0056289Y0240567D03*
X0210226Y0243913D03*
X0210226Y0244110D03*
X0210226Y0244307D03*
X0210226Y0244504D03*
X0210226Y0244701D03*
X0210226Y0244898D03*
X0210226Y0245094D03*
X0215147Y0253756D03*
X0244675Y0245882D03*
X0244871Y0245685D03*
X0244871Y0245488D03*
D134*
X0251466Y0245291D03*
X0251663Y0245488D03*
X0214655Y0253165D03*
X0213671Y0245291D03*
X0103631Y0259268D03*
X0071741Y0238402D03*
X0071938Y0238008D03*
X0072135Y0237614D03*
X0072332Y0237417D03*
X0072332Y0237220D03*
X0072529Y0237024D03*
X0072529Y0236827D03*
X0072726Y0236630D03*
X0072923Y0236236D03*
X0073119Y0235843D03*
X0073316Y0235449D03*
X0072135Y0235055D03*
X0072135Y0234858D03*
X0071938Y0235252D03*
X0071938Y0235449D03*
X0071741Y0235646D03*
X0071741Y0235843D03*
X0071545Y0236039D03*
X0071348Y0236433D03*
X0071151Y0236827D03*
X0070954Y0237024D03*
X0070954Y0237220D03*
X0070757Y0237417D03*
X0070757Y0237614D03*
X0070560Y0237811D03*
X0070560Y0238008D03*
X0069379Y0237417D03*
X0069379Y0237220D03*
X0069576Y0237024D03*
X0069773Y0236630D03*
X0069970Y0236236D03*
X0070167Y0236039D03*
X0070167Y0235843D03*
X0070364Y0235646D03*
X0070364Y0235449D03*
X0070560Y0235252D03*
X0070757Y0234858D03*
X0070954Y0234465D03*
X0070954Y0234268D03*
X0069970Y0233677D03*
X0069773Y0233874D03*
X0069773Y0234071D03*
X0069576Y0234268D03*
X0069576Y0234465D03*
X0069379Y0234661D03*
X0069182Y0235055D03*
X0068986Y0235449D03*
X0068789Y0235646D03*
X0068789Y0235843D03*
X0068592Y0236039D03*
X0068592Y0236236D03*
X0068395Y0236433D03*
X0067214Y0236039D03*
X0067214Y0235843D03*
X0067411Y0235646D03*
X0067608Y0235252D03*
X0067804Y0234858D03*
X0068001Y0234661D03*
X0068001Y0234465D03*
X0068198Y0234268D03*
X0068198Y0234071D03*
X0068395Y0233874D03*
X0068592Y0233480D03*
X0068789Y0233087D03*
X0067608Y0232693D03*
X0067608Y0232496D03*
X0067411Y0232890D03*
X0067411Y0233087D03*
X0067214Y0233283D03*
X0067017Y0233677D03*
X0066820Y0234071D03*
X0066623Y0234268D03*
X0066623Y0234465D03*
X0066427Y0234661D03*
X0066427Y0234858D03*
X0066230Y0235055D03*
X0066033Y0235449D03*
D135*
X0063080Y0237417D03*
X0059143Y0237417D03*
X0072726Y0232496D03*
X0072923Y0232693D03*
X0073119Y0232890D03*
X0073316Y0233087D03*
X0073513Y0233283D03*
X0053828Y0260449D03*
X0053828Y0260843D03*
X0103631Y0259661D03*
X0210127Y0243717D03*
X0210127Y0243520D03*
X0210127Y0243323D03*
X0210127Y0243126D03*
X0210127Y0242929D03*
X0210127Y0242732D03*
X0210127Y0242535D03*
X0213867Y0244701D03*
X0251072Y0244701D03*
D136*
X0251367Y0245094D03*
X0214753Y0253362D03*
X0213769Y0245094D03*
X0073218Y0235646D03*
X0073021Y0236039D03*
X0072824Y0236433D03*
X0071446Y0236236D03*
X0071249Y0236630D03*
X0069871Y0236433D03*
X0069675Y0236827D03*
X0068297Y0236630D03*
X0067509Y0235449D03*
X0067706Y0235055D03*
X0069084Y0235252D03*
X0069281Y0234858D03*
X0070659Y0235055D03*
X0070856Y0234661D03*
X0068493Y0233677D03*
X0068690Y0233283D03*
X0067115Y0233480D03*
X0066919Y0233874D03*
X0066131Y0235252D03*
X0062982Y0237220D03*
X0061013Y0238598D03*
X0059045Y0237220D03*
X0071840Y0238205D03*
X0072037Y0237811D03*
D137*
X0074497Y0237811D03*
X0074497Y0237614D03*
X0074497Y0237417D03*
X0074497Y0237220D03*
X0074497Y0237024D03*
X0074497Y0236827D03*
X0074497Y0236630D03*
X0074497Y0236433D03*
X0074497Y0236236D03*
X0074497Y0236039D03*
X0074497Y0235843D03*
X0074301Y0235055D03*
X0074301Y0234858D03*
X0074497Y0238008D03*
X0074497Y0238205D03*
X0074497Y0238402D03*
X0074497Y0238598D03*
X0074497Y0238795D03*
X0074497Y0238992D03*
X0074497Y0239189D03*
X0074497Y0239386D03*
X0074497Y0239583D03*
X0074497Y0239780D03*
X0074497Y0239976D03*
X0074497Y0240173D03*
X0074497Y0240370D03*
X0074497Y0240567D03*
X0074497Y0240764D03*
X0074497Y0240961D03*
X0074497Y0241157D03*
X0074497Y0241354D03*
X0074497Y0241551D03*
X0074497Y0241748D03*
X0074497Y0241945D03*
X0074497Y0242142D03*
X0074497Y0242339D03*
X0074497Y0242535D03*
X0074497Y0242732D03*
X0074497Y0242929D03*
X0074497Y0243126D03*
X0074497Y0243323D03*
X0074497Y0243520D03*
X0074497Y0243717D03*
X0074497Y0243913D03*
X0074497Y0244110D03*
X0074497Y0244307D03*
X0074497Y0244504D03*
X0074497Y0244701D03*
X0074497Y0244898D03*
X0074497Y0245094D03*
X0074497Y0245291D03*
X0074497Y0245488D03*
X0074497Y0245685D03*
X0074497Y0245882D03*
X0074497Y0246079D03*
X0074497Y0246276D03*
X0074497Y0246472D03*
X0074497Y0246669D03*
X0074497Y0246866D03*
X0074497Y0247063D03*
X0074497Y0247260D03*
X0074497Y0247457D03*
X0074497Y0247654D03*
X0074497Y0247850D03*
X0074497Y0248047D03*
X0074497Y0248244D03*
X0074497Y0248441D03*
X0074497Y0248638D03*
X0074497Y0248835D03*
X0074497Y0249031D03*
X0074497Y0249228D03*
X0074497Y0249425D03*
X0074497Y0249622D03*
X0074497Y0249819D03*
X0074497Y0250016D03*
X0074497Y0250213D03*
X0074497Y0250409D03*
X0074497Y0250606D03*
X0074497Y0250803D03*
X0074497Y0251000D03*
X0074497Y0251197D03*
X0074497Y0251394D03*
X0074497Y0251591D03*
X0074497Y0251787D03*
X0074497Y0251984D03*
X0074497Y0252181D03*
X0074497Y0252378D03*
X0074497Y0252575D03*
X0074497Y0252772D03*
X0074497Y0252969D03*
X0074497Y0253165D03*
X0074497Y0253362D03*
X0074497Y0253559D03*
X0074497Y0253756D03*
X0074497Y0253953D03*
X0074497Y0254150D03*
X0074497Y0254346D03*
X0074497Y0254543D03*
X0074497Y0254740D03*
X0074497Y0254937D03*
X0074497Y0255134D03*
X0074497Y0255331D03*
X0074497Y0255528D03*
X0074497Y0255724D03*
X0074497Y0255921D03*
X0074497Y0256118D03*
X0074497Y0256315D03*
X0074497Y0256512D03*
X0074497Y0256709D03*
X0074497Y0256906D03*
X0074497Y0257102D03*
X0074497Y0257299D03*
X0074497Y0257496D03*
X0074497Y0257693D03*
X0074497Y0257890D03*
X0074497Y0258087D03*
X0074497Y0258283D03*
X0074497Y0258480D03*
X0074497Y0258677D03*
X0074497Y0258874D03*
X0074497Y0259071D03*
X0074497Y0259268D03*
X0074497Y0259465D03*
X0074497Y0259661D03*
X0074497Y0259858D03*
X0074497Y0260055D03*
X0074497Y0260252D03*
X0074497Y0260449D03*
X0074497Y0260646D03*
X0074497Y0260843D03*
X0074497Y0261039D03*
X0074497Y0261236D03*
X0074497Y0261433D03*
X0074497Y0261630D03*
X0074497Y0261827D03*
X0074497Y0262024D03*
X0074497Y0262220D03*
X0074497Y0262417D03*
X0074497Y0262614D03*
X0074497Y0262811D03*
X0074497Y0263008D03*
X0074497Y0263205D03*
X0074497Y0263402D03*
X0074497Y0263598D03*
X0074497Y0263795D03*
X0074497Y0263992D03*
X0074497Y0264189D03*
X0074497Y0264386D03*
X0074497Y0264583D03*
X0074497Y0264780D03*
X0074497Y0264976D03*
X0074497Y0265173D03*
X0074497Y0265370D03*
X0074497Y0265567D03*
X0074497Y0265764D03*
X0074497Y0265961D03*
X0074497Y0266157D03*
X0074497Y0266354D03*
X0074497Y0266551D03*
X0074497Y0266748D03*
X0074497Y0266945D03*
X0074497Y0267142D03*
X0074497Y0267339D03*
X0074497Y0267535D03*
X0074497Y0267732D03*
X0074497Y0267929D03*
X0074497Y0268126D03*
X0074497Y0268323D03*
X0074497Y0268520D03*
X0103631Y0259465D03*
X0209930Y0240961D03*
X0209930Y0240764D03*
X0209930Y0240567D03*
X0209930Y0240370D03*
X0209930Y0240173D03*
X0209930Y0239976D03*
X0251269Y0244898D03*
D138*
X0244871Y0245291D03*
X0244478Y0246472D03*
X0240934Y0246472D03*
X0241525Y0251984D03*
X0246052Y0252969D03*
X0228533Y0246472D03*
X0222824Y0248638D03*
X0222824Y0248835D03*
X0222824Y0249031D03*
X0222824Y0249228D03*
X0222824Y0249425D03*
X0222824Y0249622D03*
X0223021Y0250016D03*
X0223021Y0250213D03*
X0223021Y0250409D03*
X0216328Y0246472D03*
X0214163Y0244504D03*
X0210423Y0246669D03*
X0210423Y0246866D03*
X0210423Y0247063D03*
X0210423Y0247260D03*
X0210423Y0247457D03*
X0210423Y0247654D03*
X0210423Y0247850D03*
X0215344Y0253953D03*
X0266722Y0246472D03*
X0064163Y0238008D03*
X0060226Y0238008D03*
X0059832Y0237811D03*
X0055895Y0260449D03*
X0055895Y0260646D03*
X0055895Y0260843D03*
D139*
X0065147Y0246866D03*
X0065147Y0243520D03*
X0067509Y0242929D03*
X0067509Y0239583D03*
X0071446Y0241945D03*
X0071446Y0245291D03*
X0069084Y0245882D03*
X0069084Y0249228D03*
X0056289Y0242339D03*
X0102549Y0244701D03*
X0102549Y0244898D03*
X0102745Y0246276D03*
X0102942Y0247654D03*
X0103139Y0249031D03*
X0103139Y0249228D03*
X0103336Y0250409D03*
X0103336Y0250606D03*
X0116722Y0259465D03*
X0119871Y0259858D03*
X0118887Y0263205D03*
X0130698Y0250016D03*
X0130501Y0248638D03*
X0130304Y0247260D03*
X0130108Y0245882D03*
X0129911Y0244504D03*
X0129714Y0243126D03*
X0129714Y0242929D03*
X0131289Y0254150D03*
X0131289Y0254346D03*
X0131486Y0255528D03*
X0131486Y0255724D03*
X0131682Y0256906D03*
X0131682Y0257102D03*
X0131879Y0258283D03*
X0131879Y0258480D03*
X0132076Y0259858D03*
X0132076Y0260055D03*
X0190934Y0250213D03*
X0190934Y0250016D03*
X0190738Y0248835D03*
X0190738Y0248638D03*
X0190541Y0247457D03*
X0190541Y0247260D03*
X0190344Y0245882D03*
X0190147Y0244504D03*
X0189950Y0243126D03*
X0189950Y0242929D03*
X0191525Y0254150D03*
X0191525Y0254346D03*
X0191722Y0255528D03*
X0191722Y0255724D03*
X0191919Y0256906D03*
X0191919Y0257102D03*
X0191919Y0257299D03*
X0192115Y0258283D03*
X0192115Y0258480D03*
X0192115Y0258677D03*
X0192312Y0259858D03*
X0192312Y0260055D03*
X0210619Y0250606D03*
X0210619Y0250409D03*
X0210619Y0250213D03*
X0210619Y0250016D03*
X0210619Y0249819D03*
X0210619Y0249622D03*
X0210619Y0249425D03*
X0214360Y0244307D03*
X0222627Y0247457D03*
X0222627Y0247654D03*
X0222627Y0247850D03*
X0223021Y0250606D03*
X0223021Y0250803D03*
X0229320Y0251984D03*
X0235226Y0250409D03*
X0235226Y0250213D03*
X0235226Y0250016D03*
X0235226Y0249819D03*
X0235029Y0248441D03*
X0235029Y0248244D03*
X0235029Y0248047D03*
X0244281Y0246866D03*
X0250974Y0248638D03*
X0267509Y0251984D03*
D140*
X0261013Y0250803D03*
X0261013Y0250606D03*
X0260816Y0250213D03*
X0260816Y0250016D03*
X0260816Y0249819D03*
X0260619Y0248638D03*
X0260619Y0248441D03*
X0260619Y0248244D03*
X0260619Y0248047D03*
X0260619Y0247850D03*
X0260619Y0247654D03*
X0260619Y0247457D03*
X0255698Y0248638D03*
X0255698Y0248835D03*
X0255895Y0250016D03*
X0255895Y0250213D03*
X0255501Y0247457D03*
X0255501Y0247260D03*
X0255501Y0247063D03*
X0255304Y0246079D03*
X0255304Y0245882D03*
X0255304Y0245685D03*
X0255108Y0244701D03*
X0255108Y0244504D03*
X0249399Y0246276D03*
X0245856Y0252181D03*
X0241525Y0251787D03*
X0240934Y0246669D03*
X0234832Y0247260D03*
X0234832Y0247457D03*
X0235423Y0251000D03*
X0235423Y0251197D03*
X0223218Y0251394D03*
X0222627Y0247063D03*
X0210816Y0252181D03*
X0210816Y0252378D03*
X0210816Y0252575D03*
X0210816Y0252772D03*
X0210816Y0252969D03*
X0210816Y0253165D03*
X0210816Y0253362D03*
X0169675Y0253362D03*
X0169675Y0253165D03*
X0169675Y0253559D03*
X0169675Y0253756D03*
X0169675Y0253953D03*
X0169675Y0254150D03*
X0169675Y0254346D03*
X0169675Y0254543D03*
X0169478Y0254740D03*
X0169478Y0254937D03*
X0169478Y0255134D03*
X0169478Y0255331D03*
X0169478Y0255528D03*
X0169281Y0256118D03*
X0169281Y0256315D03*
X0169084Y0256906D03*
X0169478Y0252378D03*
X0169478Y0252181D03*
X0169478Y0251984D03*
X0169478Y0251787D03*
X0169478Y0251591D03*
X0169478Y0251394D03*
X0169281Y0251197D03*
X0169281Y0251000D03*
X0169281Y0250803D03*
X0169281Y0250606D03*
X0169084Y0250213D03*
X0169084Y0250016D03*
X0169084Y0249819D03*
X0168887Y0249622D03*
X0168887Y0249425D03*
X0168690Y0249031D03*
X0168690Y0248835D03*
X0168493Y0248441D03*
X0168297Y0248047D03*
X0168100Y0247654D03*
X0167903Y0247260D03*
X0148415Y0247654D03*
X0148218Y0248244D03*
X0148218Y0248441D03*
X0148218Y0248638D03*
X0148218Y0248835D03*
X0148218Y0249031D03*
X0148218Y0249228D03*
X0148021Y0249425D03*
X0148021Y0249622D03*
X0148021Y0249819D03*
X0148021Y0250016D03*
X0148021Y0250213D03*
X0148021Y0250409D03*
X0148021Y0250606D03*
X0148218Y0251394D03*
X0148218Y0251591D03*
X0148218Y0251787D03*
X0148218Y0251984D03*
X0148218Y0252181D03*
X0148415Y0252575D03*
X0148415Y0252772D03*
X0148415Y0252969D03*
X0148415Y0253165D03*
X0148612Y0253362D03*
X0148612Y0253559D03*
X0148612Y0253756D03*
X0148612Y0253953D03*
X0148808Y0254150D03*
X0148808Y0254346D03*
X0149005Y0254740D03*
X0149005Y0254937D03*
X0149202Y0255331D03*
X0149399Y0255724D03*
X0149596Y0256118D03*
X0149793Y0256512D03*
X0143493Y0257299D03*
X0143493Y0257496D03*
X0143493Y0257693D03*
X0143493Y0257890D03*
X0143493Y0258087D03*
X0143493Y0258283D03*
X0143493Y0258480D03*
X0143297Y0256906D03*
X0143297Y0256709D03*
X0143297Y0256512D03*
X0143100Y0256118D03*
X0142903Y0255724D03*
X0142706Y0255331D03*
X0142509Y0255134D03*
X0142903Y0249425D03*
X0143100Y0248835D03*
X0143100Y0248638D03*
X0143100Y0248441D03*
X0143100Y0248244D03*
X0143100Y0248047D03*
X0143100Y0247850D03*
X0143100Y0247654D03*
X0143100Y0247457D03*
X0143100Y0247260D03*
X0143100Y0247063D03*
X0143100Y0246866D03*
X0143100Y0246669D03*
X0143100Y0246472D03*
X0142903Y0246276D03*
X0142903Y0246079D03*
X0142903Y0245882D03*
X0142706Y0245685D03*
X0142706Y0245488D03*
X0142509Y0245094D03*
X0125383Y0240567D03*
X0125186Y0241157D03*
X0124989Y0241748D03*
X0124989Y0241945D03*
X0124793Y0242535D03*
X0124596Y0243126D03*
X0124596Y0243323D03*
X0124399Y0243913D03*
X0124202Y0244504D03*
X0124202Y0244701D03*
X0124005Y0245291D03*
X0124005Y0245488D03*
X0123808Y0245882D03*
X0123808Y0246079D03*
X0123021Y0248638D03*
X0123021Y0248835D03*
X0122824Y0249228D03*
X0122824Y0249425D03*
X0122824Y0249622D03*
X0122627Y0249819D03*
X0122627Y0250016D03*
X0122627Y0250213D03*
X0122627Y0250409D03*
X0122430Y0250606D03*
X0122430Y0250803D03*
X0122430Y0251000D03*
X0122234Y0251197D03*
X0122234Y0251394D03*
X0122234Y0251591D03*
X0122234Y0251787D03*
X0122037Y0251984D03*
X0122037Y0252181D03*
X0122037Y0252378D03*
X0121840Y0252772D03*
X0121840Y0252969D03*
X0121643Y0253559D03*
X0121643Y0253756D03*
X0121446Y0254150D03*
X0121446Y0254346D03*
X0121249Y0254937D03*
X0121249Y0255134D03*
X0121052Y0255724D03*
X0120856Y0256315D03*
X0120659Y0257102D03*
X0118887Y0263008D03*
X0114950Y0256315D03*
X0114163Y0254937D03*
X0113966Y0254543D03*
X0113572Y0253953D03*
X0113375Y0253559D03*
X0113178Y0253165D03*
X0112982Y0252772D03*
X0112785Y0252575D03*
X0112588Y0252181D03*
X0112391Y0251787D03*
X0112194Y0251394D03*
X0111997Y0251197D03*
X0111801Y0250803D03*
X0111604Y0250409D03*
X0111407Y0250016D03*
X0111210Y0249819D03*
X0111210Y0249622D03*
X0111013Y0249425D03*
X0110816Y0249031D03*
X0110619Y0248835D03*
X0110619Y0248638D03*
X0109241Y0246276D03*
X0109045Y0245882D03*
X0108848Y0245488D03*
X0108651Y0245291D03*
X0108651Y0245094D03*
X0108454Y0244898D03*
X0108257Y0244504D03*
X0108060Y0244110D03*
X0107864Y0243717D03*
X0107667Y0243520D03*
X0107470Y0243126D03*
X0107273Y0242732D03*
X0106682Y0241748D03*
X0106486Y0241354D03*
X0086604Y0255724D03*
X0086407Y0255331D03*
X0086210Y0254937D03*
X0086210Y0254740D03*
X0086013Y0254346D03*
X0086013Y0254150D03*
X0085816Y0253953D03*
X0085816Y0253756D03*
X0085816Y0253559D03*
X0085816Y0253362D03*
X0085619Y0253165D03*
X0085619Y0252969D03*
X0085619Y0252772D03*
X0085619Y0252575D03*
X0085423Y0252181D03*
X0085423Y0251984D03*
X0085423Y0251787D03*
X0085423Y0251591D03*
X0085423Y0251394D03*
X0085226Y0250606D03*
X0085226Y0250409D03*
X0085226Y0250213D03*
X0085226Y0250016D03*
X0085226Y0249819D03*
X0085226Y0249622D03*
X0085226Y0249425D03*
X0085423Y0249228D03*
X0085423Y0249031D03*
X0085423Y0248835D03*
X0085423Y0248638D03*
X0085423Y0248441D03*
X0085423Y0248244D03*
X0085619Y0247654D03*
X0086801Y0256118D03*
X0086997Y0256512D03*
X0071446Y0245094D03*
X0069084Y0246079D03*
X0069084Y0249031D03*
X0065147Y0246669D03*
X0065147Y0243717D03*
X0067509Y0242732D03*
X0067509Y0239780D03*
X0071446Y0242142D03*
D141*
X0071446Y0242339D03*
X0071446Y0244898D03*
X0069084Y0246276D03*
X0069084Y0248835D03*
X0065147Y0246472D03*
X0065147Y0243913D03*
X0067509Y0242535D03*
X0067509Y0239976D03*
X0086210Y0245882D03*
X0086407Y0245685D03*
X0086407Y0245488D03*
X0086604Y0245291D03*
X0086604Y0245094D03*
X0086801Y0244898D03*
X0087785Y0257693D03*
X0088178Y0258283D03*
X0088375Y0258480D03*
X0088572Y0258677D03*
X0088769Y0258874D03*
X0088966Y0259071D03*
X0089163Y0259268D03*
X0101958Y0243323D03*
X0141722Y0244110D03*
X0141919Y0244307D03*
X0142115Y0244504D03*
X0142706Y0249819D03*
X0142509Y0250016D03*
X0142509Y0250213D03*
X0141328Y0253953D03*
X0143297Y0259268D03*
X0143297Y0259465D03*
X0149005Y0245882D03*
X0149202Y0245685D03*
X0149202Y0245488D03*
X0149399Y0245291D03*
X0149399Y0245094D03*
X0149596Y0244898D03*
X0157076Y0239976D03*
X0165738Y0244504D03*
X0165934Y0244701D03*
X0166131Y0244898D03*
X0166328Y0245094D03*
X0166525Y0245291D03*
X0166722Y0245488D03*
X0167115Y0246079D03*
X0171840Y0242929D03*
X0172824Y0244110D03*
X0173021Y0244307D03*
X0174005Y0245488D03*
X0174202Y0245685D03*
X0175186Y0246866D03*
X0176367Y0248244D03*
X0177352Y0249425D03*
X0177549Y0249622D03*
X0178533Y0250803D03*
X0179714Y0252181D03*
X0180895Y0253559D03*
X0181879Y0254740D03*
X0183060Y0256118D03*
X0184241Y0257496D03*
X0186407Y0260055D03*
X0168690Y0257890D03*
X0168493Y0258283D03*
X0168297Y0258480D03*
X0168297Y0258677D03*
X0168100Y0258874D03*
X0151958Y0259268D03*
X0151761Y0259071D03*
X0151564Y0258874D03*
X0151367Y0258677D03*
X0151171Y0258480D03*
X0150974Y0258283D03*
X0150580Y0257693D03*
X0217115Y0251787D03*
X0223218Y0251787D03*
X0229320Y0251787D03*
X0235423Y0251591D03*
X0234832Y0247063D03*
X0234832Y0246866D03*
X0241525Y0251591D03*
X0245856Y0251984D03*
X0250383Y0252181D03*
X0250580Y0248441D03*
X0256092Y0251984D03*
X0256092Y0252181D03*
X0261210Y0251591D03*
X0261210Y0251394D03*
X0261407Y0251787D03*
X0260619Y0247063D03*
X0260619Y0246866D03*
X0267509Y0251787D03*
D142*
X0266820Y0246669D03*
X0260521Y0247260D03*
X0261112Y0251000D03*
X0261112Y0251197D03*
X0255993Y0251197D03*
X0255993Y0251394D03*
X0255993Y0251591D03*
X0255993Y0251787D03*
X0255993Y0251000D03*
X0255993Y0250803D03*
X0255993Y0250606D03*
X0255993Y0250409D03*
X0255797Y0249819D03*
X0255797Y0249622D03*
X0255797Y0249425D03*
X0255797Y0249228D03*
X0255797Y0249031D03*
X0255600Y0248441D03*
X0255600Y0248244D03*
X0255600Y0248047D03*
X0255600Y0247850D03*
X0255600Y0247654D03*
X0255403Y0246866D03*
X0255403Y0246669D03*
X0255403Y0246472D03*
X0255403Y0246276D03*
X0255206Y0245488D03*
X0255206Y0245291D03*
X0255206Y0245094D03*
X0255206Y0244898D03*
X0244773Y0244898D03*
X0246151Y0253362D03*
X0235521Y0251394D03*
X0228631Y0246669D03*
X0222529Y0246866D03*
X0223119Y0251591D03*
X0216427Y0246669D03*
X0210915Y0253559D03*
X0210915Y0253756D03*
X0210915Y0253953D03*
X0187293Y0261039D03*
X0187096Y0260843D03*
X0186899Y0260646D03*
X0186702Y0260449D03*
X0186505Y0260252D03*
X0186308Y0259858D03*
X0186112Y0259661D03*
X0185915Y0259465D03*
X0185718Y0259268D03*
X0185521Y0259071D03*
X0185324Y0258874D03*
X0185324Y0258677D03*
X0185127Y0258480D03*
X0184930Y0258283D03*
X0184734Y0258087D03*
X0184537Y0257890D03*
X0184340Y0257693D03*
X0184143Y0257299D03*
X0183946Y0257102D03*
X0183749Y0256906D03*
X0183552Y0256709D03*
X0183356Y0256512D03*
X0183159Y0256315D03*
X0182962Y0255921D03*
X0182765Y0255724D03*
X0182568Y0255528D03*
X0182371Y0255331D03*
X0182175Y0255134D03*
X0181978Y0254937D03*
X0181781Y0254543D03*
X0181584Y0254346D03*
X0181387Y0254150D03*
X0181190Y0253953D03*
X0180993Y0253756D03*
X0180797Y0253362D03*
X0180600Y0253165D03*
X0180403Y0252969D03*
X0180206Y0252772D03*
X0180009Y0252575D03*
X0179812Y0252378D03*
X0179615Y0251984D03*
X0179419Y0251787D03*
X0179222Y0251591D03*
X0179025Y0251394D03*
X0178828Y0251197D03*
X0178631Y0251000D03*
X0178434Y0250606D03*
X0178238Y0250409D03*
X0178041Y0250213D03*
X0177844Y0250016D03*
X0177647Y0249819D03*
X0177253Y0249228D03*
X0177056Y0249031D03*
X0176860Y0248835D03*
X0176663Y0248638D03*
X0176466Y0248441D03*
X0176269Y0248047D03*
X0176072Y0247850D03*
X0175875Y0247654D03*
X0175678Y0247457D03*
X0175482Y0247260D03*
X0175285Y0247063D03*
X0175088Y0246669D03*
X0174891Y0246472D03*
X0174694Y0246276D03*
X0174497Y0246079D03*
X0174301Y0245882D03*
X0173907Y0245291D03*
X0173710Y0245094D03*
X0173513Y0244898D03*
X0173316Y0244701D03*
X0173119Y0244504D03*
X0172726Y0243913D03*
X0172529Y0243717D03*
X0172332Y0243520D03*
X0172135Y0243323D03*
X0171938Y0243126D03*
X0171741Y0242732D03*
X0167017Y0245882D03*
X0166820Y0245685D03*
X0167214Y0246276D03*
X0167411Y0246472D03*
X0167608Y0246669D03*
X0167608Y0246866D03*
X0167804Y0247063D03*
X0168001Y0247457D03*
X0168198Y0247850D03*
X0168395Y0248244D03*
X0168592Y0248638D03*
X0168789Y0249228D03*
X0169182Y0250409D03*
X0169379Y0255724D03*
X0169379Y0255921D03*
X0169182Y0256512D03*
X0169182Y0256709D03*
X0168986Y0257102D03*
X0168986Y0257299D03*
X0168789Y0257496D03*
X0168789Y0257693D03*
X0168592Y0258087D03*
X0150875Y0258087D03*
X0150678Y0257890D03*
X0150482Y0257496D03*
X0150285Y0257299D03*
X0150088Y0257102D03*
X0150088Y0256906D03*
X0149891Y0256709D03*
X0149694Y0256315D03*
X0149497Y0255921D03*
X0149301Y0255528D03*
X0149104Y0255134D03*
X0148907Y0254543D03*
X0148316Y0248047D03*
X0148316Y0247850D03*
X0148513Y0247457D03*
X0148513Y0247260D03*
X0148513Y0247063D03*
X0148710Y0246866D03*
X0148710Y0246669D03*
X0148710Y0246472D03*
X0148907Y0246276D03*
X0148907Y0246079D03*
X0142608Y0245291D03*
X0142411Y0244898D03*
X0142214Y0244701D03*
X0143001Y0249031D03*
X0143001Y0249228D03*
X0142804Y0249622D03*
X0141623Y0254150D03*
X0141820Y0254346D03*
X0142017Y0254543D03*
X0142214Y0254740D03*
X0142411Y0254937D03*
X0143395Y0258677D03*
X0143395Y0258874D03*
X0143395Y0259071D03*
X0124891Y0242339D03*
X0124891Y0242142D03*
X0124694Y0242732D03*
X0124694Y0242929D03*
X0124497Y0243520D03*
X0124497Y0243717D03*
X0124301Y0244110D03*
X0124301Y0244307D03*
X0124104Y0244898D03*
X0124104Y0245094D03*
X0123907Y0245685D03*
X0123710Y0246276D03*
X0122923Y0249031D03*
X0125088Y0241551D03*
X0125088Y0241354D03*
X0125285Y0240961D03*
X0125285Y0240764D03*
X0118789Y0262614D03*
X0118789Y0262811D03*
X0109143Y0246079D03*
X0108946Y0245685D03*
X0108356Y0244701D03*
X0108159Y0244307D03*
X0107962Y0243913D03*
X0107568Y0243323D03*
X0107371Y0242929D03*
X0107175Y0242535D03*
X0106978Y0242339D03*
X0106978Y0242142D03*
X0106781Y0241945D03*
X0106584Y0241551D03*
X0106387Y0241157D03*
X0106190Y0240961D03*
X0106190Y0240764D03*
X0105993Y0240567D03*
X0094182Y0239976D03*
X0086112Y0246079D03*
X0086112Y0246276D03*
X0085915Y0246472D03*
X0085915Y0246669D03*
X0085915Y0246866D03*
X0085718Y0247063D03*
X0085718Y0247260D03*
X0085718Y0247457D03*
X0085521Y0247850D03*
X0085521Y0248047D03*
X0086112Y0254543D03*
X0086308Y0255134D03*
X0086505Y0255528D03*
X0086702Y0255921D03*
X0086899Y0256315D03*
X0087096Y0256709D03*
X0087293Y0256906D03*
X0087293Y0257102D03*
X0087489Y0257299D03*
X0087686Y0257496D03*
X0087883Y0257890D03*
X0088080Y0258087D03*
D143*
X0247529Y0240764D03*
X0247529Y0240567D03*
X0247529Y0240370D03*
X0247529Y0240173D03*
X0247529Y0239976D03*
D144*
X0240934Y0246866D03*
X0245856Y0251787D03*
X0246249Y0253559D03*
X0255895Y0252969D03*
X0261604Y0252181D03*
X0260816Y0246276D03*
X0260816Y0246079D03*
X0267509Y0251591D03*
X0234832Y0246669D03*
X0229320Y0251591D03*
X0217115Y0251591D03*
X0167706Y0259465D03*
X0167509Y0259661D03*
X0167312Y0259858D03*
X0167115Y0260055D03*
X0165147Y0243913D03*
X0152155Y0259465D03*
X0152352Y0259661D03*
X0152549Y0259858D03*
X0142903Y0260055D03*
X0140541Y0253559D03*
X0141328Y0243717D03*
X0141131Y0243520D03*
X0149989Y0244307D03*
X0150186Y0244110D03*
X0150383Y0243913D03*
X0118690Y0262024D03*
X0101761Y0243126D03*
X0089753Y0259858D03*
X0089556Y0259661D03*
X0089360Y0259465D03*
X0097824Y0263795D03*
X0087194Y0244307D03*
X0087391Y0244110D03*
X0087588Y0243913D03*
X0071446Y0244504D03*
X0071446Y0244701D03*
X0071446Y0242732D03*
X0071446Y0242535D03*
X0067509Y0242339D03*
X0067509Y0242142D03*
X0067509Y0240370D03*
X0067509Y0240173D03*
X0065147Y0244110D03*
X0065147Y0244307D03*
X0065147Y0246079D03*
X0065147Y0246276D03*
X0069084Y0246472D03*
X0069084Y0246669D03*
X0069084Y0248441D03*
X0069084Y0248638D03*
X0070659Y0253362D03*
X0070856Y0253756D03*
X0070856Y0253953D03*
X0070856Y0254150D03*
X0070856Y0254346D03*
D145*
X0056387Y0242535D03*
X0094379Y0240173D03*
X0093001Y0261630D03*
X0155797Y0261630D03*
X0160521Y0263598D03*
X0164655Y0261630D03*
X0161899Y0242142D03*
X0157175Y0240173D03*
X0216623Y0248244D03*
X0216623Y0248441D03*
X0216623Y0248638D03*
X0216820Y0249622D03*
X0216820Y0249819D03*
X0216820Y0250016D03*
X0228828Y0248638D03*
X0228828Y0248441D03*
X0228828Y0248244D03*
X0229025Y0249622D03*
X0229025Y0249819D03*
X0229025Y0250016D03*
X0235718Y0253165D03*
X0267017Y0248638D03*
X0267017Y0248441D03*
X0267017Y0248244D03*
X0267214Y0249622D03*
X0267214Y0249819D03*
X0267214Y0250016D03*
D146*
X0242214Y0248638D03*
X0235718Y0253756D03*
X0094576Y0240370D03*
D147*
X0157175Y0240370D03*
X0160521Y0263402D03*
X0222332Y0244701D03*
X0242017Y0248047D03*
D148*
X0240934Y0247063D03*
X0245856Y0251591D03*
X0249596Y0247063D03*
X0249596Y0246866D03*
X0249989Y0248047D03*
X0255895Y0253362D03*
X0261801Y0252575D03*
X0260816Y0245882D03*
X0235619Y0252181D03*
X0223415Y0252378D03*
X0222430Y0246079D03*
X0166722Y0260449D03*
X0164360Y0243323D03*
X0163966Y0243126D03*
X0150974Y0243323D03*
X0150777Y0243520D03*
X0153336Y0260449D03*
X0118690Y0261630D03*
X0103533Y0260646D03*
X0090541Y0260449D03*
X0087982Y0243520D03*
X0088178Y0243323D03*
X0101564Y0242929D03*
X0071446Y0242929D03*
X0071446Y0243126D03*
X0071446Y0243323D03*
X0071446Y0243913D03*
X0071446Y0244110D03*
X0071446Y0244307D03*
X0069084Y0246866D03*
X0069084Y0247063D03*
X0069084Y0247260D03*
X0069084Y0247850D03*
X0069084Y0248047D03*
X0069084Y0248244D03*
X0065147Y0245882D03*
X0065147Y0245685D03*
X0065147Y0245488D03*
X0065147Y0244898D03*
X0065147Y0244701D03*
X0065147Y0244504D03*
X0067509Y0241945D03*
X0067509Y0241748D03*
X0067509Y0241551D03*
X0067509Y0240961D03*
X0067509Y0240764D03*
X0067509Y0240567D03*
X0055108Y0253362D03*
D149*
X0094773Y0240567D03*
X0132568Y0240567D03*
X0234537Y0244504D03*
X0248119Y0251394D03*
D150*
X0242509Y0249228D03*
X0222430Y0244504D03*
X0160423Y0263205D03*
X0157273Y0240567D03*
D151*
X0177942Y0240567D03*
X0178139Y0241551D03*
X0178139Y0241748D03*
X0178139Y0241945D03*
X0178139Y0242142D03*
X0178336Y0242535D03*
D152*
X0195757Y0241354D03*
X0195757Y0241157D03*
X0195757Y0240961D03*
X0195757Y0240764D03*
X0195757Y0240567D03*
X0195954Y0241748D03*
X0195954Y0241945D03*
X0195954Y0242142D03*
X0195954Y0242339D03*
X0195954Y0242535D03*
D153*
X0235915Y0254150D03*
X0094773Y0240764D03*
D154*
X0097824Y0263008D03*
X0133060Y0240764D03*
D155*
X0157273Y0240764D03*
X0160423Y0263008D03*
X0223808Y0254150D03*
X0222430Y0244307D03*
D156*
X0178238Y0242339D03*
X0178041Y0241354D03*
X0178041Y0241157D03*
X0178041Y0240961D03*
X0178041Y0240764D03*
X0116623Y0246866D03*
X0116623Y0247063D03*
D157*
X0136801Y0262614D03*
X0094871Y0240961D03*
X0276958Y0246866D03*
X0276958Y0247063D03*
X0276958Y0252575D03*
X0276958Y0252772D03*
D158*
X0277155Y0252181D03*
X0277155Y0251984D03*
X0277155Y0247850D03*
X0277155Y0247654D03*
X0133454Y0240961D03*
D159*
X0157273Y0240961D03*
X0234438Y0244307D03*
X0243887Y0250213D03*
X0277352Y0250213D03*
X0277352Y0250409D03*
X0277352Y0250606D03*
X0277352Y0250803D03*
X0277352Y0251000D03*
X0277352Y0251197D03*
X0277352Y0251394D03*
X0277352Y0250016D03*
X0277352Y0249819D03*
X0277352Y0249622D03*
X0277352Y0249425D03*
X0277352Y0249228D03*
X0277352Y0249031D03*
X0277352Y0248835D03*
X0277352Y0248638D03*
D160*
X0247627Y0242142D03*
X0247627Y0241945D03*
X0247627Y0241748D03*
X0247627Y0241551D03*
X0247627Y0241354D03*
X0247627Y0241157D03*
X0247627Y0240961D03*
D161*
X0249793Y0247457D03*
X0250186Y0251787D03*
X0255698Y0253559D03*
X0261997Y0252969D03*
X0262194Y0253165D03*
X0261013Y0245488D03*
X0246249Y0253756D03*
X0235619Y0252378D03*
X0223415Y0252575D03*
X0222430Y0245882D03*
X0165934Y0261039D03*
X0154320Y0261039D03*
X0142115Y0260843D03*
X0139950Y0253362D03*
X0151761Y0242732D03*
X0163375Y0242732D03*
X0103533Y0260843D03*
X0091525Y0261039D03*
X0088966Y0242732D03*
X0071446Y0243520D03*
X0071446Y0243717D03*
X0069084Y0247457D03*
X0069084Y0247654D03*
X0065147Y0245291D03*
X0065147Y0245094D03*
X0067509Y0241354D03*
X0067509Y0241157D03*
D162*
X0095068Y0241157D03*
X0097627Y0262417D03*
X0137194Y0262024D03*
D163*
X0135324Y0252378D03*
X0133749Y0241157D03*
X0157371Y0241157D03*
X0160324Y0262614D03*
X0276860Y0252969D03*
X0276860Y0246669D03*
D164*
X0275974Y0245094D03*
X0137588Y0261236D03*
X0136210Y0251591D03*
X0134832Y0242142D03*
X0097627Y0262220D03*
X0095068Y0241354D03*
D165*
X0134045Y0241354D03*
X0135619Y0252181D03*
X0135816Y0253165D03*
X0136997Y0262220D03*
X0276564Y0245882D03*
D166*
X0276466Y0245685D03*
X0276466Y0253559D03*
X0160324Y0262417D03*
X0157371Y0241354D03*
X0134340Y0241551D03*
D167*
X0160226Y0261827D03*
X0095068Y0241551D03*
X0275580Y0244701D03*
D168*
X0276072Y0253953D03*
X0245167Y0250409D03*
X0157371Y0241551D03*
X0134734Y0241945D03*
X0136112Y0251787D03*
X0137489Y0261433D03*
D169*
X0195856Y0241551D03*
D170*
X0198513Y0261433D03*
X0198513Y0261630D03*
X0198513Y0261827D03*
X0198513Y0262024D03*
X0198513Y0262220D03*
X0198513Y0262417D03*
X0198710Y0262614D03*
X0198710Y0262811D03*
X0198710Y0263008D03*
X0198710Y0263205D03*
X0259537Y0254150D03*
X0095167Y0241748D03*
D171*
X0134537Y0241748D03*
X0135915Y0251984D03*
X0137293Y0261827D03*
X0276269Y0253756D03*
X0276269Y0245488D03*
D172*
X0275875Y0244898D03*
X0245954Y0251197D03*
X0157371Y0241748D03*
D173*
X0095265Y0241945D03*
D174*
X0157371Y0241945D03*
D175*
X0153139Y0242142D03*
X0101958Y0261630D03*
X0097824Y0263598D03*
X0090344Y0242142D03*
X0056289Y0242732D03*
X0056289Y0242929D03*
X0056289Y0243126D03*
X0056289Y0243323D03*
X0056289Y0243520D03*
X0056289Y0243717D03*
X0056289Y0243913D03*
X0056289Y0244110D03*
X0056289Y0244307D03*
X0216722Y0248835D03*
X0216722Y0249031D03*
X0216722Y0249228D03*
X0216722Y0249425D03*
X0222430Y0245094D03*
X0228927Y0248835D03*
X0228927Y0249031D03*
X0228927Y0249228D03*
X0228927Y0249425D03*
X0223612Y0253362D03*
X0234635Y0245291D03*
X0244478Y0244307D03*
X0262982Y0253953D03*
X0267115Y0249425D03*
X0267115Y0249228D03*
X0267115Y0249031D03*
X0267115Y0248835D03*
D176*
X0242017Y0247654D03*
X0234537Y0244898D03*
X0235718Y0253559D03*
X0099891Y0242142D03*
D177*
X0089753Y0242339D03*
X0102549Y0261433D03*
X0152549Y0242339D03*
X0165147Y0261433D03*
X0216525Y0247850D03*
X0216525Y0247654D03*
X0222430Y0245488D03*
X0228730Y0247654D03*
X0228730Y0247850D03*
X0229123Y0250606D03*
X0246249Y0253953D03*
X0267312Y0250606D03*
X0266919Y0247850D03*
X0266919Y0247654D03*
D178*
X0261702Y0244504D03*
X0100482Y0242339D03*
D179*
X0135029Y0242339D03*
X0136407Y0251394D03*
X0160226Y0262024D03*
X0196840Y0252772D03*
X0245856Y0251000D03*
X0245856Y0250803D03*
X0275777Y0254150D03*
D180*
X0267411Y0251000D03*
X0267411Y0250803D03*
X0262489Y0253559D03*
X0261308Y0244898D03*
X0255403Y0253953D03*
X0235718Y0252772D03*
X0234734Y0245685D03*
X0229222Y0250803D03*
X0229222Y0251000D03*
X0223513Y0252969D03*
X0217017Y0251000D03*
X0217017Y0250803D03*
X0162489Y0242339D03*
X0155206Y0261433D03*
X0092411Y0261433D03*
D181*
X0247726Y0243520D03*
X0247726Y0243323D03*
X0247726Y0243126D03*
X0247726Y0242929D03*
X0247726Y0242732D03*
X0247726Y0242535D03*
X0247726Y0242339D03*
D182*
X0250186Y0251591D03*
X0262391Y0253362D03*
X0266919Y0247457D03*
X0261210Y0245094D03*
X0235619Y0252575D03*
X0228730Y0247457D03*
X0222430Y0245685D03*
X0216525Y0247457D03*
X0162982Y0242535D03*
X0152155Y0242535D03*
X0140934Y0251197D03*
X0141722Y0261039D03*
X0154714Y0261236D03*
X0118493Y0260646D03*
X0102942Y0261236D03*
X0091919Y0261236D03*
X0089360Y0242535D03*
D183*
X0100875Y0242535D03*
X0139458Y0242732D03*
X0216623Y0248047D03*
X0217017Y0250606D03*
X0223513Y0253165D03*
X0235718Y0252969D03*
X0261505Y0244701D03*
X0262686Y0253756D03*
D184*
X0245757Y0250606D03*
X0196938Y0252969D03*
X0196938Y0253165D03*
X0196938Y0253362D03*
X0196741Y0252575D03*
X0196741Y0252378D03*
X0196741Y0252181D03*
X0196741Y0251984D03*
X0196741Y0251787D03*
X0196741Y0251591D03*
X0196741Y0251394D03*
X0135127Y0242535D03*
X0097529Y0262024D03*
D185*
X0103238Y0261039D03*
X0101269Y0242732D03*
X0118592Y0260843D03*
X0118592Y0261039D03*
X0140049Y0242929D03*
X0165639Y0261236D03*
X0217017Y0251197D03*
X0216427Y0247260D03*
X0223513Y0252772D03*
X0229222Y0251197D03*
X0228631Y0247260D03*
X0234734Y0245882D03*
X0244576Y0244504D03*
X0255600Y0253756D03*
X0261112Y0245291D03*
X0266820Y0247260D03*
X0267411Y0251197D03*
D186*
X0260915Y0250409D03*
X0260718Y0249622D03*
X0260718Y0249425D03*
X0260718Y0249228D03*
X0260718Y0249031D03*
X0260718Y0248835D03*
X0245954Y0252378D03*
X0246151Y0253165D03*
X0244182Y0247063D03*
X0244773Y0245094D03*
X0234930Y0247654D03*
X0234930Y0247850D03*
X0235324Y0250606D03*
X0235324Y0250803D03*
X0223119Y0251000D03*
X0223119Y0251197D03*
X0222529Y0247260D03*
X0210718Y0250803D03*
X0210718Y0251000D03*
X0210718Y0251197D03*
X0210718Y0251394D03*
X0210718Y0251591D03*
X0210718Y0251787D03*
X0210718Y0251984D03*
X0192214Y0258874D03*
X0192214Y0259071D03*
X0192214Y0259268D03*
X0192214Y0259465D03*
X0192214Y0259661D03*
X0192411Y0260252D03*
X0192411Y0260449D03*
X0192411Y0260646D03*
X0192411Y0260843D03*
X0192411Y0261039D03*
X0192017Y0258087D03*
X0192017Y0257890D03*
X0192017Y0257693D03*
X0192017Y0257496D03*
X0191820Y0256709D03*
X0191820Y0256512D03*
X0191820Y0256315D03*
X0191820Y0256118D03*
X0191820Y0255921D03*
X0191623Y0255331D03*
X0191623Y0255134D03*
X0191623Y0254937D03*
X0191623Y0254740D03*
X0191623Y0254543D03*
X0191427Y0253953D03*
X0191427Y0253756D03*
X0191427Y0253559D03*
X0191033Y0251197D03*
X0191033Y0251000D03*
X0191033Y0250803D03*
X0191033Y0250606D03*
X0191033Y0250409D03*
X0190836Y0249819D03*
X0190836Y0249622D03*
X0190836Y0249425D03*
X0190836Y0249228D03*
X0190836Y0249031D03*
X0190639Y0248441D03*
X0190639Y0248244D03*
X0190639Y0248047D03*
X0190639Y0247850D03*
X0190639Y0247654D03*
X0190442Y0247063D03*
X0190442Y0246866D03*
X0190442Y0246669D03*
X0190442Y0246472D03*
X0190442Y0246276D03*
X0190442Y0246079D03*
X0190245Y0245685D03*
X0190245Y0245488D03*
X0190245Y0245291D03*
X0190245Y0245094D03*
X0190245Y0244898D03*
X0190245Y0244701D03*
X0190049Y0244307D03*
X0190049Y0244110D03*
X0190049Y0243913D03*
X0190049Y0243717D03*
X0190049Y0243520D03*
X0190049Y0243323D03*
X0189852Y0242732D03*
X0169576Y0252575D03*
X0169576Y0252772D03*
X0169576Y0252969D03*
X0148316Y0252378D03*
X0148119Y0251197D03*
X0148119Y0251000D03*
X0148119Y0250803D03*
X0142804Y0255528D03*
X0143001Y0255921D03*
X0143198Y0256315D03*
X0143395Y0257102D03*
X0131978Y0258677D03*
X0131978Y0258874D03*
X0131978Y0259071D03*
X0131978Y0259268D03*
X0131978Y0259465D03*
X0131978Y0259661D03*
X0132175Y0260252D03*
X0132175Y0260449D03*
X0132175Y0260646D03*
X0132175Y0260843D03*
X0132175Y0261039D03*
X0131781Y0258087D03*
X0131781Y0257890D03*
X0131781Y0257693D03*
X0131781Y0257496D03*
X0131781Y0257299D03*
X0131584Y0256709D03*
X0131584Y0256512D03*
X0131584Y0256315D03*
X0131584Y0256118D03*
X0131584Y0255921D03*
X0131387Y0255331D03*
X0131387Y0255134D03*
X0131387Y0254937D03*
X0131387Y0254740D03*
X0131387Y0254543D03*
X0131190Y0253953D03*
X0131190Y0253756D03*
X0131190Y0253559D03*
X0131190Y0253362D03*
X0130797Y0251197D03*
X0130797Y0251000D03*
X0130797Y0250803D03*
X0130797Y0250606D03*
X0130797Y0250409D03*
X0130797Y0250213D03*
X0130600Y0249819D03*
X0130600Y0249622D03*
X0130600Y0249425D03*
X0130600Y0249228D03*
X0130600Y0249031D03*
X0130600Y0248835D03*
X0130403Y0248441D03*
X0130403Y0248244D03*
X0130403Y0248047D03*
X0130403Y0247850D03*
X0130403Y0247654D03*
X0130403Y0247457D03*
X0130206Y0247063D03*
X0130206Y0246866D03*
X0130206Y0246669D03*
X0130206Y0246472D03*
X0130206Y0246276D03*
X0130206Y0246079D03*
X0130009Y0245685D03*
X0130009Y0245488D03*
X0130009Y0245291D03*
X0130009Y0245094D03*
X0130009Y0244898D03*
X0130009Y0244701D03*
X0129812Y0244307D03*
X0129812Y0244110D03*
X0129812Y0243913D03*
X0129812Y0243717D03*
X0129812Y0243520D03*
X0129812Y0243323D03*
X0129615Y0242732D03*
X0121938Y0252575D03*
X0121741Y0253165D03*
X0121741Y0253362D03*
X0121545Y0253953D03*
X0121348Y0254543D03*
X0121348Y0254740D03*
X0121151Y0255331D03*
X0121151Y0255528D03*
X0120954Y0255921D03*
X0120954Y0256118D03*
X0120757Y0256512D03*
X0120757Y0256709D03*
X0120757Y0256906D03*
X0120560Y0257299D03*
X0120560Y0257496D03*
X0120560Y0257693D03*
X0120364Y0257890D03*
X0120364Y0258087D03*
X0120364Y0258283D03*
X0120364Y0258480D03*
X0120167Y0258677D03*
X0120167Y0258874D03*
X0120167Y0259071D03*
X0119970Y0259268D03*
X0119970Y0259465D03*
X0119970Y0259661D03*
X0119773Y0260055D03*
X0119773Y0260252D03*
X0119773Y0260449D03*
X0117214Y0260449D03*
X0117214Y0260252D03*
X0117017Y0260055D03*
X0117017Y0259858D03*
X0116820Y0259661D03*
X0116623Y0259268D03*
X0116427Y0259071D03*
X0116427Y0258874D03*
X0116230Y0258677D03*
X0116230Y0258480D03*
X0116033Y0258283D03*
X0116033Y0258087D03*
X0115836Y0257890D03*
X0115639Y0257693D03*
X0115639Y0257496D03*
X0115442Y0257299D03*
X0115442Y0257102D03*
X0115245Y0256906D03*
X0115245Y0256709D03*
X0115049Y0256512D03*
X0114852Y0256118D03*
X0114655Y0255921D03*
X0114655Y0255724D03*
X0114458Y0255528D03*
X0114458Y0255331D03*
X0114261Y0255134D03*
X0114064Y0254740D03*
X0113867Y0254346D03*
X0113671Y0254150D03*
X0113474Y0253756D03*
X0113277Y0253362D03*
X0113080Y0252969D03*
X0112686Y0252378D03*
X0112489Y0251984D03*
X0112293Y0251591D03*
X0111899Y0251000D03*
X0111702Y0250606D03*
X0111505Y0250213D03*
X0110915Y0249228D03*
X0103434Y0250803D03*
X0103434Y0251000D03*
X0103434Y0251197D03*
X0103238Y0250213D03*
X0103238Y0250016D03*
X0103238Y0249819D03*
X0103238Y0249622D03*
X0103238Y0249425D03*
X0103041Y0248835D03*
X0103041Y0248638D03*
X0103041Y0248441D03*
X0103041Y0248244D03*
X0103041Y0248047D03*
X0103041Y0247850D03*
X0102844Y0247457D03*
X0102844Y0247260D03*
X0102844Y0247063D03*
X0102844Y0246866D03*
X0102844Y0246669D03*
X0102844Y0246472D03*
X0102647Y0246079D03*
X0102647Y0245882D03*
X0102647Y0245685D03*
X0102647Y0245488D03*
X0102647Y0245291D03*
X0102647Y0245094D03*
X0102450Y0244504D03*
X0102450Y0244307D03*
X0102450Y0244110D03*
X0102450Y0243913D03*
X0102450Y0243717D03*
X0102253Y0243520D03*
X0103631Y0260252D03*
X0085521Y0252378D03*
X0085324Y0251197D03*
X0085324Y0251000D03*
X0085324Y0250803D03*
X0056387Y0244504D03*
D187*
X0088474Y0243126D03*
X0088671Y0242929D03*
X0090836Y0260646D03*
X0091230Y0260843D03*
X0118592Y0261236D03*
X0118592Y0261433D03*
X0140442Y0243126D03*
X0141427Y0251000D03*
X0142411Y0260646D03*
X0153631Y0260646D03*
X0154025Y0260843D03*
X0166230Y0260843D03*
X0166427Y0260646D03*
X0163671Y0242929D03*
X0151466Y0242929D03*
X0151269Y0243126D03*
X0216427Y0247063D03*
X0217017Y0251394D03*
X0229222Y0251394D03*
X0228631Y0247063D03*
X0234734Y0246276D03*
X0234734Y0246079D03*
X0249694Y0247260D03*
X0249891Y0247654D03*
X0249891Y0247850D03*
X0260915Y0245685D03*
X0261899Y0252772D03*
X0267411Y0251394D03*
X0266820Y0247063D03*
D188*
X0266820Y0246866D03*
X0261702Y0252378D03*
X0255797Y0253165D03*
X0250285Y0251984D03*
X0250285Y0248244D03*
X0249497Y0246669D03*
X0244576Y0244701D03*
X0241427Y0251394D03*
X0235521Y0251984D03*
X0234734Y0246472D03*
X0228631Y0246866D03*
X0222529Y0246276D03*
X0223316Y0252181D03*
X0216427Y0246866D03*
X0167017Y0260252D03*
X0164852Y0243717D03*
X0164655Y0243520D03*
X0150482Y0243717D03*
X0141820Y0250803D03*
X0142804Y0260252D03*
X0142608Y0260449D03*
X0152844Y0260055D03*
X0153041Y0260252D03*
X0140836Y0243323D03*
X0118789Y0261827D03*
X0090245Y0260252D03*
X0090049Y0260055D03*
X0087686Y0243717D03*
X0070954Y0254543D03*
X0070954Y0254740D03*
X0070954Y0254937D03*
X0070954Y0255134D03*
X0070954Y0255331D03*
X0070954Y0255528D03*
X0070954Y0255724D03*
X0070954Y0255921D03*
X0070954Y0256118D03*
X0070954Y0256315D03*
X0070954Y0256512D03*
X0070954Y0256709D03*
X0070954Y0256906D03*
X0070954Y0257102D03*
X0070954Y0257299D03*
X0070954Y0257496D03*
X0070954Y0257693D03*
X0070954Y0257890D03*
X0070954Y0258087D03*
X0070954Y0258283D03*
X0070954Y0258480D03*
X0070954Y0258677D03*
X0070954Y0258874D03*
X0070954Y0259071D03*
X0070954Y0259268D03*
X0070954Y0259465D03*
X0070954Y0259661D03*
X0070954Y0259858D03*
X0070954Y0260055D03*
X0070954Y0260252D03*
X0070954Y0260449D03*
X0070954Y0260646D03*
X0070954Y0260843D03*
X0070954Y0261039D03*
X0070954Y0261236D03*
X0070954Y0261433D03*
X0070954Y0261630D03*
X0070954Y0261827D03*
X0070954Y0262024D03*
X0070954Y0262220D03*
X0070954Y0262417D03*
X0070954Y0262614D03*
X0070954Y0262811D03*
X0070954Y0263008D03*
X0070954Y0263205D03*
X0070954Y0263402D03*
X0070954Y0263598D03*
X0070954Y0263795D03*
X0070954Y0263992D03*
X0070954Y0264189D03*
X0070954Y0264386D03*
X0055009Y0264386D03*
X0055009Y0264189D03*
X0055009Y0263992D03*
X0055009Y0263795D03*
X0055009Y0263598D03*
X0055009Y0263402D03*
X0055009Y0263205D03*
X0055009Y0263008D03*
X0055009Y0262811D03*
X0055009Y0262614D03*
X0055009Y0262417D03*
X0055009Y0262220D03*
X0055009Y0262024D03*
X0055009Y0261827D03*
X0055009Y0261630D03*
X0055009Y0261433D03*
X0055009Y0261236D03*
X0055009Y0261039D03*
X0055009Y0260252D03*
X0055009Y0260055D03*
X0055009Y0259858D03*
X0055009Y0259661D03*
X0055009Y0259465D03*
X0055009Y0259268D03*
X0055009Y0259071D03*
X0055009Y0258874D03*
X0055009Y0258677D03*
X0055009Y0258480D03*
X0055009Y0258283D03*
X0055009Y0258087D03*
X0055009Y0257890D03*
X0055009Y0257693D03*
X0055009Y0257496D03*
X0055009Y0257299D03*
X0055009Y0257102D03*
X0055009Y0256906D03*
X0055009Y0256709D03*
X0055009Y0256512D03*
X0055009Y0256315D03*
X0055009Y0256118D03*
X0055009Y0255921D03*
X0055009Y0255724D03*
X0055009Y0255528D03*
X0055009Y0255331D03*
X0055009Y0255134D03*
X0055009Y0254937D03*
X0055009Y0254740D03*
X0055009Y0254543D03*
X0055009Y0254346D03*
X0055009Y0254150D03*
X0055009Y0253953D03*
X0055009Y0253756D03*
X0055009Y0253559D03*
D189*
X0247824Y0244110D03*
X0247824Y0243913D03*
X0247824Y0243717D03*
D190*
X0249497Y0246472D03*
X0255993Y0252378D03*
X0255993Y0252575D03*
X0255993Y0252772D03*
X0261505Y0251984D03*
X0260718Y0246669D03*
X0260718Y0246472D03*
X0235521Y0251787D03*
X0223316Y0251984D03*
X0222529Y0246669D03*
X0222529Y0246472D03*
X0168001Y0259071D03*
X0167804Y0259268D03*
X0160521Y0263795D03*
X0165442Y0244307D03*
X0165245Y0244110D03*
X0149891Y0244504D03*
X0149694Y0244701D03*
X0141623Y0243913D03*
X0142214Y0250409D03*
X0142017Y0250606D03*
X0141033Y0253756D03*
X0143198Y0259661D03*
X0143001Y0259858D03*
X0118789Y0262220D03*
X0118789Y0262417D03*
X0103631Y0260449D03*
X0087096Y0244504D03*
X0086899Y0244701D03*
X0070757Y0253559D03*
D191*
X0257371Y0244307D03*
D192*
X0274989Y0244307D03*
D193*
X0275383Y0244504D03*
X0198415Y0261236D03*
X0097627Y0261827D03*
D194*
X0100974Y0253362D03*
X0100974Y0253165D03*
X0100974Y0252969D03*
X0100777Y0251984D03*
X0100777Y0251787D03*
X0100777Y0251591D03*
X0100777Y0251394D03*
X0234438Y0244701D03*
X0242312Y0248835D03*
D195*
X0234537Y0245094D03*
X0222332Y0244898D03*
D196*
X0222430Y0245291D03*
X0228730Y0248047D03*
X0229123Y0250213D03*
X0229123Y0250409D03*
X0234635Y0245488D03*
X0216919Y0250213D03*
X0216919Y0250409D03*
X0266919Y0248047D03*
X0267312Y0250213D03*
X0267312Y0250409D03*
D197*
X0276171Y0245291D03*
X0160226Y0262220D03*
X0137391Y0261630D03*
D198*
X0097726Y0262614D03*
X0276663Y0253362D03*
X0276663Y0246276D03*
X0276663Y0246079D03*
D199*
X0116525Y0246472D03*
X0116525Y0246669D03*
D200*
X0135619Y0252969D03*
X0136801Y0262417D03*
X0276761Y0253165D03*
X0276761Y0246472D03*
D201*
X0181190Y0263008D03*
X0181190Y0263205D03*
X0180993Y0262417D03*
X0180993Y0262220D03*
X0180993Y0262024D03*
X0180993Y0261827D03*
X0116623Y0247457D03*
X0116623Y0247260D03*
X0061702Y0251394D03*
D202*
X0242115Y0247457D03*
X0242115Y0247260D03*
X0246446Y0254150D03*
D203*
X0277056Y0252378D03*
X0277056Y0247457D03*
X0277056Y0247260D03*
X0135324Y0252772D03*
X0097726Y0262811D03*
D204*
X0116722Y0247654D03*
X0180895Y0261236D03*
X0180895Y0261433D03*
X0180895Y0261630D03*
X0181092Y0262614D03*
X0181092Y0262811D03*
D205*
X0116722Y0248047D03*
X0116722Y0247850D03*
D206*
X0223612Y0253756D03*
X0242115Y0247850D03*
D207*
X0277253Y0248047D03*
X0277253Y0248244D03*
X0277253Y0248441D03*
X0277253Y0251591D03*
X0277253Y0251787D03*
X0160324Y0262811D03*
X0136505Y0262811D03*
X0134930Y0252575D03*
D208*
X0116820Y0248441D03*
X0116820Y0248244D03*
D209*
X0097824Y0263402D03*
X0213178Y0254150D03*
X0242115Y0248441D03*
X0242115Y0248244D03*
D210*
X0242411Y0249031D03*
X0223710Y0253953D03*
X0100875Y0252772D03*
X0100875Y0252575D03*
X0100875Y0252378D03*
X0100875Y0252181D03*
D211*
X0242608Y0249425D03*
D212*
X0242903Y0249622D03*
X0235816Y0253953D03*
X0135619Y0263205D03*
X0097824Y0263205D03*
D213*
X0243100Y0249819D03*
D214*
X0243395Y0250016D03*
X0136112Y0263008D03*
D215*
X0061899Y0251591D03*
D216*
X0061997Y0251787D03*
D217*
X0062194Y0251984D03*
D218*
X0062293Y0252181D03*
D219*
X0062391Y0252378D03*
D220*
X0062489Y0252575D03*
D221*
X0062588Y0252772D03*
D222*
X0062686Y0252969D03*
X0062686Y0253165D03*
X0062883Y0266157D03*
D223*
X0223612Y0253559D03*
X0235816Y0253362D03*
D224*
X0245954Y0254346D03*
X0245954Y0254543D03*
X0245954Y0254740D03*
X0245954Y0254937D03*
X0245954Y0255134D03*
X0245954Y0255331D03*
X0245954Y0255528D03*
X0245954Y0255724D03*
X0245954Y0255921D03*
X0245954Y0258874D03*
X0245954Y0259071D03*
X0245954Y0259268D03*
X0245954Y0259465D03*
X0245954Y0259661D03*
X0245954Y0259858D03*
X0245954Y0260055D03*
X0245954Y0260252D03*
X0245954Y0260449D03*
X0245954Y0260646D03*
X0245954Y0260843D03*
X0245954Y0261039D03*
X0245954Y0261236D03*
X0245954Y0261433D03*
X0245954Y0261630D03*
X0245954Y0261827D03*
X0245954Y0262024D03*
X0245954Y0262220D03*
X0245954Y0262417D03*
X0245954Y0262614D03*
X0245954Y0262811D03*
X0245954Y0263008D03*
X0245954Y0263205D03*
X0245954Y0263402D03*
X0245954Y0263598D03*
X0245954Y0263795D03*
D225*
X0234045Y0258480D03*
X0234045Y0256118D03*
D226*
X0271151Y0256118D03*
X0063080Y0269701D03*
D227*
X0233946Y0258283D03*
X0233946Y0256315D03*
D228*
X0271348Y0256315D03*
X0271348Y0258677D03*
D229*
X0233848Y0258087D03*
X0233848Y0257890D03*
X0233848Y0256512D03*
D230*
X0271446Y0256512D03*
X0271446Y0258480D03*
D231*
X0233749Y0257693D03*
X0233749Y0257496D03*
X0233749Y0257299D03*
X0233749Y0257102D03*
X0233749Y0256906D03*
X0233749Y0256709D03*
D232*
X0271545Y0256709D03*
X0271545Y0258283D03*
D233*
X0271643Y0258087D03*
X0271643Y0257890D03*
X0271643Y0257693D03*
X0271643Y0257496D03*
X0271643Y0257299D03*
X0271643Y0257102D03*
X0271643Y0256906D03*
D234*
X0234241Y0258677D03*
D235*
X0246052Y0263992D03*
D236*
X0062982Y0265961D03*
D237*
X0062982Y0269110D03*
X0062982Y0269307D03*
D238*
X0062982Y0269504D03*
D239*
X0046994Y0389753D02*
X0042390Y0389753D01*
X0042390Y0394357D02*
X0046994Y0394357D01*
X0046994Y0397426D01*
X0046994Y0398961D02*
X0046994Y0401263D01*
X0046227Y0402030D01*
X0043158Y0402030D01*
X0042390Y0401263D01*
X0042390Y0398961D01*
X0046994Y0398961D01*
X0044692Y0395891D02*
X0044692Y0394357D01*
X0042390Y0394357D02*
X0042390Y0397426D01*
X0043925Y0403565D02*
X0042390Y0405099D01*
X0046994Y0405099D01*
X0046994Y0403565D02*
X0046994Y0406634D01*
X0046994Y0392822D02*
X0046994Y0389753D01*
X0032994Y0415917D02*
X0028390Y0415917D01*
X0028390Y0418218D01*
X0029158Y0418986D01*
X0030692Y0418986D01*
X0031460Y0418218D01*
X0031460Y0415917D01*
X0031460Y0417451D02*
X0032994Y0418986D01*
X0032994Y0420520D02*
X0029925Y0423590D01*
X0029158Y0423590D01*
X0028390Y0422822D01*
X0028390Y0421288D01*
X0029158Y0420520D01*
X0032994Y0420520D02*
X0032994Y0423590D01*
X0208304Y0396513D02*
X0209839Y0398048D01*
X0209839Y0393444D01*
X0208304Y0393444D02*
X0211374Y0393444D01*
X0212908Y0394211D02*
X0212908Y0394979D01*
X0213676Y0395746D01*
X0215210Y0395746D01*
X0215978Y0394979D01*
X0215978Y0394211D01*
X0215210Y0393444D01*
X0213676Y0393444D01*
X0212908Y0394211D01*
X0213676Y0395746D02*
X0212908Y0396513D01*
X0212908Y0397281D01*
X0213676Y0398048D01*
X0215210Y0398048D01*
X0215978Y0397281D01*
X0215978Y0396513D01*
X0215210Y0395746D01*
X0214443Y0321670D02*
X0214443Y0317066D01*
X0212908Y0317066D02*
X0215978Y0317066D01*
X0212908Y0320135D02*
X0214443Y0321670D01*
X0297296Y0352866D02*
X0297296Y0355168D01*
X0298063Y0355935D01*
X0299598Y0355935D01*
X0300365Y0355168D01*
X0300365Y0352866D01*
X0301900Y0352866D02*
X0297296Y0352866D01*
X0300365Y0354401D02*
X0301900Y0355935D01*
X0301900Y0357470D02*
X0301900Y0360539D01*
X0301900Y0359005D02*
X0297296Y0359005D01*
X0298830Y0357470D01*
D240*
X0293106Y0355994D03*
X0293106Y0361794D03*
X0037188Y0415796D03*
X0037188Y0421596D03*
D241*
X0047509Y0442969D02*
X0284753Y0442969D01*
X0284753Y0274780D01*
X0047509Y0274780D01*
X0047509Y0442969D01*
X0171368Y0201911D02*
X0172319Y0201911D01*
X0172636Y0201595D01*
X0172636Y0201278D01*
X0172319Y0200961D01*
X0171368Y0200961D01*
X0171368Y0201911D02*
X0171368Y0200010D01*
X0172319Y0200010D01*
X0172636Y0200327D01*
X0172636Y0200644D01*
X0172319Y0200961D01*
X0173578Y0201911D02*
X0174846Y0201911D01*
X0174212Y0201911D02*
X0174212Y0200010D01*
X0175788Y0200010D02*
X0175788Y0201911D01*
X0177056Y0200010D01*
X0177056Y0201911D01*
X0177998Y0199693D02*
X0179266Y0199693D01*
X0180842Y0200010D02*
X0180842Y0200961D01*
X0181476Y0201595D01*
X0181476Y0201911D01*
X0180842Y0200961D02*
X0180208Y0201595D01*
X0180208Y0201911D01*
X0214675Y0166478D02*
X0214675Y0164577D01*
X0215626Y0164577D01*
X0215943Y0164894D01*
X0215943Y0165211D01*
X0215626Y0165528D01*
X0214675Y0165528D01*
X0214675Y0166478D02*
X0215626Y0166478D01*
X0215943Y0166161D01*
X0215943Y0165845D01*
X0215626Y0165528D01*
X0216885Y0166478D02*
X0218153Y0166478D01*
X0217519Y0166478D02*
X0217519Y0164577D01*
X0219095Y0164577D02*
X0219095Y0166478D01*
X0220363Y0164577D01*
X0220363Y0166478D01*
X0221305Y0164260D02*
X0222573Y0164260D01*
X0223515Y0164577D02*
X0224466Y0164577D01*
X0224783Y0164894D01*
X0224783Y0165211D01*
X0224466Y0165528D01*
X0223515Y0165528D01*
X0223515Y0166478D02*
X0224466Y0166478D01*
X0224783Y0166161D01*
X0224783Y0165845D01*
X0224466Y0165528D01*
X0223515Y0164577D02*
X0223515Y0166478D01*
X0256878Y0127108D02*
X0257828Y0127108D01*
X0258145Y0126791D01*
X0258145Y0126474D01*
X0257828Y0126158D01*
X0256878Y0126158D01*
X0256878Y0127108D02*
X0256878Y0125207D01*
X0257828Y0125207D01*
X0258145Y0125524D01*
X0258145Y0125841D01*
X0257828Y0126158D01*
X0259087Y0127108D02*
X0260355Y0127108D01*
X0259721Y0127108D02*
X0259721Y0125207D01*
X0261297Y0125207D02*
X0261297Y0127108D01*
X0262565Y0125207D01*
X0262565Y0127108D01*
X0263507Y0124890D02*
X0264775Y0124890D01*
X0265717Y0125207D02*
X0265717Y0127108D01*
X0266668Y0127108D01*
X0266985Y0126791D01*
X0266985Y0126158D01*
X0266668Y0125841D01*
X0265717Y0125841D01*
X0266351Y0125841D02*
X0266985Y0125207D01*
X0267927Y0125207D02*
X0269195Y0125207D01*
X0268561Y0125207D02*
X0268561Y0127108D01*
X0267927Y0126474D01*
X0269990Y0182254D02*
X0270941Y0182254D01*
X0271258Y0182571D01*
X0271258Y0182888D01*
X0270941Y0183205D01*
X0269990Y0183205D01*
X0269990Y0184156D02*
X0270941Y0184156D01*
X0271258Y0183839D01*
X0271258Y0183522D01*
X0270941Y0183205D01*
X0269990Y0182254D02*
X0269990Y0184156D01*
X0272200Y0184156D02*
X0273468Y0184156D01*
X0272834Y0184156D02*
X0272834Y0182254D01*
X0274410Y0182254D02*
X0274410Y0184156D01*
X0275678Y0182254D01*
X0275678Y0184156D01*
X0276620Y0181937D02*
X0277888Y0181937D01*
X0278830Y0182254D02*
X0278830Y0183522D01*
X0279464Y0184156D01*
X0280098Y0183522D01*
X0280098Y0182254D01*
X0280098Y0183205D02*
X0278830Y0183205D01*
X0236594Y0223632D02*
X0235326Y0225534D01*
X0236594Y0225534D02*
X0235326Y0223632D01*
X0234384Y0223315D02*
X0233116Y0223315D01*
X0232174Y0223632D02*
X0232174Y0225534D01*
X0230906Y0225534D02*
X0232174Y0223632D01*
X0230906Y0223632D02*
X0230906Y0225534D01*
X0229964Y0225534D02*
X0228696Y0225534D01*
X0229330Y0225534D02*
X0229330Y0223632D01*
X0227754Y0223949D02*
X0227437Y0223632D01*
X0226486Y0223632D01*
X0226486Y0225534D01*
X0227437Y0225534D01*
X0227754Y0225217D01*
X0227754Y0224900D01*
X0227437Y0224583D01*
X0226486Y0224583D01*
X0227437Y0224583D02*
X0227754Y0224266D01*
X0227754Y0223949D01*
X0170136Y0142856D02*
X0170136Y0140955D01*
X0170769Y0140955D02*
X0169502Y0140955D01*
X0168560Y0140955D02*
X0167292Y0140955D01*
X0167292Y0142856D01*
X0169502Y0142222D02*
X0170136Y0142856D01*
X0166350Y0140638D02*
X0165082Y0140638D01*
X0164140Y0140955D02*
X0164140Y0142856D01*
X0162872Y0142856D02*
X0164140Y0140955D01*
X0162872Y0140955D02*
X0162872Y0142856D01*
X0161930Y0142856D02*
X0160662Y0142856D01*
X0161296Y0142856D02*
X0161296Y0140955D01*
X0159720Y0141272D02*
X0159403Y0140955D01*
X0158452Y0140955D01*
X0158452Y0142856D01*
X0159403Y0142856D01*
X0159720Y0142539D01*
X0159720Y0142222D01*
X0159403Y0141906D01*
X0158452Y0141906D01*
X0159403Y0141906D02*
X0159720Y0141589D01*
X0159720Y0141272D01*
X0154067Y0089825D02*
X0152799Y0089825D01*
X0153433Y0089825D02*
X0153433Y0087923D01*
X0151857Y0088240D02*
X0151540Y0087923D01*
X0150906Y0087923D01*
X0150590Y0088240D01*
X0150590Y0089508D01*
X0150906Y0089825D01*
X0151540Y0089825D01*
X0151857Y0089508D01*
X0149647Y0089825D02*
X0148380Y0089825D01*
X0148380Y0087923D01*
X0149647Y0087923D01*
X0149014Y0088874D02*
X0148380Y0088874D01*
X0147438Y0087923D02*
X0146170Y0087923D01*
X0146170Y0089825D01*
X0145228Y0089825D02*
X0143960Y0089825D01*
X0143960Y0087923D01*
X0145228Y0087923D01*
X0144594Y0088874D02*
X0143960Y0088874D01*
X0143018Y0088557D02*
X0143018Y0088240D01*
X0142701Y0087923D01*
X0142067Y0087923D01*
X0141750Y0088240D01*
X0142067Y0088874D02*
X0142701Y0088874D01*
X0143018Y0088557D01*
X0143018Y0089508D02*
X0142701Y0089825D01*
X0142067Y0089825D01*
X0141750Y0089508D01*
X0141750Y0089191D01*
X0142067Y0088874D01*
X0140808Y0087606D02*
X0139540Y0087606D01*
X0138598Y0087923D02*
X0138598Y0089825D01*
X0137330Y0089825D02*
X0138598Y0087923D01*
X0137330Y0087923D02*
X0137330Y0089825D01*
X0136388Y0089825D02*
X0135120Y0089825D01*
X0135754Y0089825D02*
X0135754Y0087923D01*
X0134178Y0088240D02*
X0133861Y0087923D01*
X0132911Y0087923D01*
X0132911Y0089825D01*
X0133861Y0089825D01*
X0134178Y0089508D01*
X0134178Y0089191D01*
X0133861Y0088874D01*
X0132911Y0088874D01*
X0133861Y0088874D02*
X0134178Y0088557D01*
X0134178Y0088240D01*
X0092002Y0122332D02*
X0092002Y0123283D01*
X0091685Y0123599D01*
X0091368Y0123599D01*
X0091051Y0123283D01*
X0091051Y0122332D01*
X0091051Y0123283D02*
X0090734Y0123599D01*
X0090417Y0123599D01*
X0090100Y0123283D01*
X0090100Y0122332D01*
X0092002Y0122332D01*
X0092002Y0125175D02*
X0090100Y0125175D01*
X0090100Y0124542D02*
X0090100Y0125809D01*
X0090100Y0126751D02*
X0092002Y0128019D01*
X0090100Y0128019D01*
X0090100Y0126751D02*
X0092002Y0126751D01*
X0092319Y0128961D02*
X0092319Y0130229D01*
X0092002Y0131171D02*
X0092002Y0132122D01*
X0091685Y0132439D01*
X0090417Y0132439D01*
X0090100Y0132122D01*
X0090100Y0131171D01*
X0092002Y0131171D01*
X0091685Y0133381D02*
X0092002Y0133698D01*
X0092002Y0134332D01*
X0091685Y0134649D01*
X0090417Y0134649D01*
X0090100Y0134332D01*
X0090100Y0133698D01*
X0090417Y0133381D01*
X0091685Y0133381D01*
X0092002Y0135591D02*
X0091368Y0136225D01*
X0092002Y0136859D01*
X0090100Y0136859D01*
X0090100Y0137801D02*
X0092002Y0139069D01*
X0090100Y0139069D01*
X0090100Y0137801D02*
X0092002Y0137801D01*
X0092002Y0135591D02*
X0090100Y0135591D01*
X0094196Y0153091D02*
X0094196Y0154042D01*
X0094513Y0154359D01*
X0094830Y0154359D01*
X0095147Y0154042D01*
X0095147Y0153091D01*
X0096098Y0153091D02*
X0094196Y0153091D01*
X0095147Y0154042D02*
X0095464Y0154359D01*
X0095781Y0154359D01*
X0096098Y0154042D01*
X0096098Y0153091D01*
X0096098Y0155935D02*
X0094196Y0155935D01*
X0094196Y0155301D02*
X0094196Y0156569D01*
X0094196Y0157511D02*
X0096098Y0158779D01*
X0094196Y0158779D01*
X0094196Y0157511D02*
X0096098Y0157511D01*
X0096415Y0159721D02*
X0096415Y0160989D01*
X0096098Y0161931D02*
X0094196Y0161931D01*
X0094196Y0162881D01*
X0094513Y0163198D01*
X0095147Y0163198D01*
X0095464Y0162881D01*
X0095464Y0161931D01*
X0095464Y0162565D02*
X0096098Y0163198D01*
X0096098Y0164141D02*
X0096098Y0164774D01*
X0096098Y0164457D02*
X0094196Y0164457D01*
X0094196Y0164141D02*
X0094196Y0164774D01*
X0094513Y0165614D02*
X0095781Y0165614D01*
X0096098Y0165931D01*
X0096098Y0166565D01*
X0095781Y0166882D01*
X0095147Y0166882D01*
X0095147Y0166248D01*
X0094513Y0166882D02*
X0094196Y0166565D01*
X0094196Y0165931D01*
X0094513Y0165614D01*
X0094196Y0167824D02*
X0096098Y0167824D01*
X0095147Y0167824D02*
X0095147Y0169091D01*
X0094196Y0169091D02*
X0096098Y0169091D01*
X0096098Y0170667D02*
X0094196Y0170667D01*
X0094196Y0170034D02*
X0094196Y0171301D01*
X0064602Y0187534D02*
X0064602Y0188485D01*
X0064285Y0188801D01*
X0063968Y0188801D01*
X0063651Y0188485D01*
X0063651Y0187534D01*
X0063651Y0188485D02*
X0063334Y0188801D01*
X0063017Y0188801D01*
X0062700Y0188485D01*
X0062700Y0187534D01*
X0064602Y0187534D01*
X0064602Y0190377D02*
X0062700Y0190377D01*
X0062700Y0189744D02*
X0062700Y0191011D01*
X0062700Y0191953D02*
X0064602Y0193221D01*
X0062700Y0193221D01*
X0062700Y0191953D02*
X0064602Y0191953D01*
X0064919Y0194163D02*
X0064919Y0195431D01*
X0064285Y0196373D02*
X0064602Y0196690D01*
X0064602Y0197324D01*
X0064285Y0197641D01*
X0062700Y0197641D01*
X0062700Y0198583D02*
X0062700Y0199534D01*
X0063017Y0199851D01*
X0063651Y0199851D01*
X0063968Y0199534D01*
X0063968Y0198583D01*
X0064602Y0198583D02*
X0062700Y0198583D01*
X0062700Y0196373D02*
X0064285Y0196373D01*
X0033106Y0169931D02*
X0031204Y0169931D01*
X0031204Y0169297D02*
X0031204Y0170565D01*
X0031204Y0168355D02*
X0031204Y0167087D01*
X0033106Y0167087D01*
X0033106Y0166145D02*
X0033106Y0164877D01*
X0031204Y0164877D01*
X0031204Y0166145D01*
X0032155Y0165511D02*
X0032155Y0164877D01*
X0033106Y0163935D02*
X0033106Y0162667D01*
X0031204Y0162667D01*
X0033423Y0161725D02*
X0033423Y0160457D01*
X0033106Y0159515D02*
X0031204Y0159515D01*
X0031204Y0158248D02*
X0033106Y0159515D01*
X0033106Y0158248D02*
X0031204Y0158248D01*
X0031204Y0157305D02*
X0031204Y0156038D01*
X0031204Y0156672D02*
X0033106Y0156672D01*
X0032789Y0155096D02*
X0033106Y0154779D01*
X0033106Y0153828D01*
X0031204Y0153828D01*
X0031204Y0154779D01*
X0031521Y0155096D01*
X0031838Y0155096D01*
X0032155Y0154779D01*
X0032155Y0153828D01*
X0032155Y0154779D02*
X0032472Y0155096D01*
X0032789Y0155096D01*
X0032155Y0167087D02*
X0032155Y0167721D01*
X0173106Y0027047D02*
X0175007Y0027047D01*
X0175007Y0027680D02*
X0175007Y0026413D01*
X0173739Y0026413D02*
X0173106Y0027047D01*
X0173106Y0025470D02*
X0173106Y0024837D01*
X0173106Y0025154D02*
X0174690Y0025154D01*
X0175007Y0024837D01*
X0175007Y0024520D01*
X0174690Y0024203D01*
X0179685Y0087923D02*
X0180636Y0087923D01*
X0180953Y0088240D01*
X0180953Y0088557D01*
X0180636Y0088874D01*
X0179685Y0088874D01*
X0180636Y0088874D02*
X0180953Y0089191D01*
X0180953Y0089508D01*
X0180636Y0089825D01*
X0179685Y0089825D01*
X0179685Y0087923D01*
X0182529Y0087923D02*
X0182529Y0089825D01*
X0183162Y0089825D02*
X0181895Y0089825D01*
X0184105Y0089825D02*
X0185372Y0087923D01*
X0185372Y0089825D01*
X0184105Y0089825D02*
X0184105Y0087923D01*
X0186314Y0087606D02*
X0187582Y0087606D01*
X0188524Y0088240D02*
X0188841Y0087923D01*
X0189475Y0087923D01*
X0189792Y0088240D01*
X0189792Y0088557D01*
X0189475Y0088874D01*
X0188841Y0088874D01*
X0188524Y0089191D01*
X0188524Y0089508D01*
X0188841Y0089825D01*
X0189475Y0089825D01*
X0189792Y0089508D01*
X0190734Y0089825D02*
X0192002Y0089825D01*
X0191368Y0089825D02*
X0191368Y0087923D01*
X0192944Y0087923D02*
X0192944Y0089191D01*
X0193578Y0089825D01*
X0194212Y0089191D01*
X0194212Y0087923D01*
X0195154Y0087923D02*
X0195154Y0089825D01*
X0196105Y0089825D01*
X0196422Y0089508D01*
X0196422Y0088874D01*
X0196105Y0088557D01*
X0195154Y0088557D01*
X0195788Y0088557D02*
X0196422Y0087923D01*
X0197998Y0087923D02*
X0197998Y0089825D01*
X0197364Y0089825D02*
X0198632Y0089825D01*
X0194212Y0088874D02*
X0192944Y0088874D01*
D242*
X0173224Y0334152D02*
X0171756Y0334152D01*
X0172490Y0334152D02*
X0172490Y0336354D01*
X0171756Y0335620D01*
X0171014Y0336354D02*
X0171014Y0334152D01*
X0169546Y0336354D01*
X0169546Y0334152D01*
X0168804Y0334152D02*
X0167336Y0334152D01*
X0167336Y0336354D01*
X0168804Y0336354D01*
X0168070Y0335253D02*
X0167336Y0335253D01*
X0166594Y0336354D02*
X0165126Y0336354D01*
X0165126Y0334152D01*
X0166594Y0334152D01*
X0165860Y0335253D02*
X0165126Y0335253D01*
X0164384Y0335253D02*
X0164017Y0334886D01*
X0162916Y0334886D01*
X0162916Y0334152D02*
X0162916Y0336354D01*
X0164017Y0336354D01*
X0164384Y0335987D01*
X0164384Y0335253D01*
X0163650Y0334886D02*
X0164384Y0334152D01*
X0162174Y0334519D02*
X0161807Y0334152D01*
X0161073Y0334152D01*
X0160706Y0334519D01*
X0160706Y0335987D01*
X0161073Y0336354D01*
X0161807Y0336354D01*
X0162174Y0335987D01*
X0159965Y0335987D02*
X0159598Y0336354D01*
X0158864Y0336354D01*
X0158497Y0335987D01*
X0158497Y0335620D01*
X0158864Y0335253D01*
X0159598Y0335253D01*
X0159965Y0334886D01*
X0159965Y0334519D01*
X0159598Y0334152D01*
X0158864Y0334152D01*
X0158497Y0334519D01*
D243*
X0037194Y0402575D03*
D244*
X0159635Y0058480D02*
X0159635Y0054543D01*
X0159635Y0058480D02*
X0206879Y0058480D01*
X0206879Y0054543D01*
X0206879Y0042732D02*
X0206879Y0015173D01*
X0159635Y0015173D01*
X0159635Y0042732D01*
M02*
