%
M48
M72
T01C0.0138
T02C0.0200
T03C0.0315
T04C0.0354
T05C0.0394
T06C0.0400
T07C0.0472
T08C0.0512
T09C0.0630
%
T01
X5294Y6045
X6475Y8013
X9034Y6045
X10019Y4470
X12676Y3683
X14152Y4372
X14152Y5454
X16712Y6439
X15924Y9982
X19369Y13722
X21830Y8998
X24586Y16084
X27932Y13919
X29113Y19431
X24782Y23368
X20452Y19628
X11987Y21793
X9231Y21793
X15924Y33840
X16434Y34470
X16994Y35100
X17994Y34785
X17499Y33525
X19074Y35730
X19467Y34155
X18483Y38328
X14743Y38328
X14349Y36557
X11987Y37541
X11003Y37541
X9994Y37541
X8994Y37541
X6278Y35966
X5688Y35966
X5688Y37147
X5294Y37580
X4507Y39903
X7558Y44234
X8149Y43742
X8149Y44824
X23798Y43840
X25994Y44824
X26948Y35730
T02
X3523Y35641
X3523Y38496
T03
X4597Y38023
X4597Y36114
T04
X6672Y46596
X7853Y46596
T05
X23176Y21088
X21995Y15183
X17664Y18726
X16483Y12820
X14371Y8017
X18938Y8017
X26326Y11246
X27527Y16950
X10885Y16242
X7735Y19391
X4586Y16242
X7735Y13092
T06
X21928Y4273
X21928Y3273
T07
X20294Y2895
X20294Y1911
X18326Y4864
X16357Y2895
X16357Y1911
T08
X18326Y2895
X19310Y4864
X20334Y4864
X17341Y4864
X16318Y4864
T09
X3129Y29293
X3129Y33230
M30
