%
M48
M72
T01C0.0138
T02C0.0200
T03C0.0315
T04C0.0320
T05C0.0354
T06C0.0400
T07C0.0472
T08C0.0512
T09C0.0630
%
T01
X4435Y6245
X5616Y8213
X8175Y6245
X9159Y4670
X11817Y3883
X13293Y5851
X14080Y4965
X15852Y6639
X15065Y10576
X18510Y14251
X19002Y10580
X23726Y16613
X23135Y24355
X19592Y20156
X27248Y13331
X27661Y19631
X26135Y36481
X22939Y44040
X25139Y44631
X18135Y36481
X17139Y34985
X17632Y34394
X16639Y35772
X15635Y33804
X15135Y34394
X13884Y37741
X12506Y33410
X11139Y27702
X10139Y27702
X9139Y27702
X6541Y24355
X8569Y21599
X11139Y21599
X4041Y24355
X3057Y23174
X4828Y36166
X4828Y37347
X5813Y36166
X8139Y37741
X7289Y43548
X6698Y44040
X7289Y44631
T02
X2269Y35448
X2269Y38302
T03
X3344Y35920
X3344Y37830
T04
X2950Y41087
X3950Y41087
T05
X6994Y46402
X5813Y46402
T06
X21069Y3867
X21069Y4867
T07
X15624Y13020
X16805Y18926
X17466Y5457
X15498Y3489
X15498Y2505
X19435Y2505
X19435Y3489
X25466Y11446
X22317Y21288
T08
X19474Y5457
X18450Y5457
X16482Y5457
X15458Y5457
X17466Y3489
T09
X2269Y29493
X2269Y33430
M30
