G75*
%MOIN*%
%OFA0B0*%
%FSLAX25Y25*%
%IPPOS*%
%LPD*%
%AMOC8*
5,1,8,0,0,1.08239X$1,22.5*
%
%ADD10C,0.00000*%
%ADD11C,0.00039*%
%ADD12C,0.02000*%
%ADD13C,0.00500*%
%ADD14C,0.00200*%
D10*
X0020725Y0023079D02*
X0020725Y0199850D01*
X0020858Y0199852D01*
X0020991Y0199858D01*
X0021123Y0199868D01*
X0021256Y0199881D01*
X0021387Y0199899D01*
X0021519Y0199920D01*
X0021649Y0199945D01*
X0021779Y0199974D01*
X0021908Y0200007D01*
X0022035Y0200044D01*
X0022162Y0200084D01*
X0022288Y0200128D01*
X0022412Y0200176D01*
X0022534Y0200227D01*
X0022655Y0200282D01*
X0022775Y0200341D01*
X0022892Y0200402D01*
X0023008Y0200468D01*
X0023122Y0200536D01*
X0023234Y0200608D01*
X0023343Y0200684D01*
X0023451Y0200762D01*
X0023556Y0200844D01*
X0023658Y0200928D01*
X0023758Y0201016D01*
X0023856Y0201106D01*
X0023950Y0201200D01*
X0024042Y0201296D01*
X0024131Y0201395D01*
X0024217Y0201496D01*
X0024300Y0201600D01*
X0024380Y0201706D01*
X0024457Y0201814D01*
X0024531Y0201925D01*
X0024601Y0202038D01*
X0024668Y0202152D01*
X0024732Y0202269D01*
X0024792Y0202388D01*
X0024849Y0202508D01*
X0024902Y0202630D01*
X0024951Y0202753D01*
X0024997Y0202878D01*
X0025040Y0203004D01*
X0025078Y0203131D01*
X0025113Y0203260D01*
X0025144Y0203389D01*
X0025171Y0203519D01*
X0025194Y0203650D01*
X0025214Y0203781D01*
X0025229Y0203914D01*
X0025241Y0204046D01*
X0025249Y0204179D01*
X0025253Y0204312D01*
X0025253Y0204444D01*
X0025249Y0204577D01*
X0025241Y0204710D01*
X0025229Y0204842D01*
X0025214Y0204975D01*
X0025194Y0205106D01*
X0025171Y0205237D01*
X0025144Y0205367D01*
X0025113Y0205496D01*
X0025078Y0205625D01*
X0025040Y0205752D01*
X0024997Y0205878D01*
X0024951Y0206003D01*
X0024902Y0206126D01*
X0024849Y0206248D01*
X0024792Y0206368D01*
X0024732Y0206487D01*
X0024668Y0206604D01*
X0024601Y0206718D01*
X0024531Y0206831D01*
X0024457Y0206942D01*
X0024380Y0207050D01*
X0024300Y0207156D01*
X0024217Y0207260D01*
X0024131Y0207361D01*
X0024042Y0207460D01*
X0023950Y0207556D01*
X0023856Y0207650D01*
X0023758Y0207740D01*
X0023658Y0207828D01*
X0023556Y0207912D01*
X0023451Y0207994D01*
X0023343Y0208072D01*
X0023234Y0208148D01*
X0023122Y0208220D01*
X0023008Y0208288D01*
X0022892Y0208354D01*
X0022775Y0208415D01*
X0022655Y0208474D01*
X0022534Y0208529D01*
X0022412Y0208580D01*
X0022288Y0208628D01*
X0022162Y0208672D01*
X0022035Y0208712D01*
X0021908Y0208749D01*
X0021779Y0208782D01*
X0021649Y0208811D01*
X0021519Y0208836D01*
X0021387Y0208857D01*
X0021256Y0208875D01*
X0021123Y0208888D01*
X0020991Y0208898D01*
X0020858Y0208904D01*
X0020725Y0208906D01*
X0020725Y0278984D01*
X0017772Y0278984D01*
X0017648Y0278986D01*
X0017525Y0278992D01*
X0017401Y0279001D01*
X0017279Y0279015D01*
X0017156Y0279032D01*
X0017034Y0279054D01*
X0016913Y0279079D01*
X0016793Y0279108D01*
X0016674Y0279140D01*
X0016555Y0279177D01*
X0016438Y0279217D01*
X0016323Y0279260D01*
X0016208Y0279308D01*
X0016096Y0279359D01*
X0015985Y0279413D01*
X0015875Y0279471D01*
X0015768Y0279532D01*
X0015662Y0279597D01*
X0015559Y0279665D01*
X0015458Y0279736D01*
X0015359Y0279810D01*
X0015262Y0279887D01*
X0015168Y0279968D01*
X0015077Y0280051D01*
X0014988Y0280137D01*
X0014902Y0280226D01*
X0014819Y0280317D01*
X0014738Y0280411D01*
X0014661Y0280508D01*
X0014587Y0280607D01*
X0014516Y0280708D01*
X0014448Y0280811D01*
X0014383Y0280917D01*
X0014322Y0281024D01*
X0014264Y0281134D01*
X0014210Y0281245D01*
X0014159Y0281357D01*
X0014111Y0281472D01*
X0014068Y0281587D01*
X0014028Y0281704D01*
X0013991Y0281823D01*
X0013959Y0281942D01*
X0013930Y0282062D01*
X0013905Y0282183D01*
X0013883Y0282305D01*
X0013866Y0282428D01*
X0013852Y0282550D01*
X0013843Y0282674D01*
X0013837Y0282797D01*
X0013835Y0282921D01*
X0013835Y0385283D01*
X0013837Y0385407D01*
X0013843Y0385530D01*
X0013852Y0385654D01*
X0013866Y0385776D01*
X0013883Y0385899D01*
X0013905Y0386021D01*
X0013930Y0386142D01*
X0013959Y0386262D01*
X0013991Y0386381D01*
X0014028Y0386500D01*
X0014068Y0386617D01*
X0014111Y0386732D01*
X0014159Y0386847D01*
X0014210Y0386959D01*
X0014264Y0387070D01*
X0014322Y0387180D01*
X0014383Y0387287D01*
X0014448Y0387393D01*
X0014516Y0387496D01*
X0014587Y0387597D01*
X0014661Y0387696D01*
X0014738Y0387793D01*
X0014819Y0387887D01*
X0014902Y0387978D01*
X0014988Y0388067D01*
X0015077Y0388153D01*
X0015168Y0388236D01*
X0015262Y0388317D01*
X0015359Y0388394D01*
X0015458Y0388468D01*
X0015559Y0388539D01*
X0015662Y0388607D01*
X0015768Y0388672D01*
X0015875Y0388733D01*
X0015985Y0388791D01*
X0016096Y0388845D01*
X0016208Y0388896D01*
X0016323Y0388944D01*
X0016438Y0388987D01*
X0016555Y0389027D01*
X0016674Y0389064D01*
X0016793Y0389096D01*
X0016913Y0389125D01*
X0017034Y0389150D01*
X0017156Y0389172D01*
X0017279Y0389189D01*
X0017401Y0389203D01*
X0017525Y0389212D01*
X0017648Y0389218D01*
X0017772Y0389220D01*
X0020725Y0389220D01*
X0020725Y0460087D01*
X0020727Y0460211D01*
X0020733Y0460334D01*
X0020742Y0460458D01*
X0020756Y0460580D01*
X0020773Y0460703D01*
X0020795Y0460825D01*
X0020820Y0460946D01*
X0020849Y0461066D01*
X0020881Y0461185D01*
X0020918Y0461304D01*
X0020958Y0461421D01*
X0021001Y0461536D01*
X0021049Y0461651D01*
X0021100Y0461763D01*
X0021154Y0461874D01*
X0021212Y0461984D01*
X0021273Y0462091D01*
X0021338Y0462197D01*
X0021406Y0462300D01*
X0021477Y0462401D01*
X0021551Y0462500D01*
X0021628Y0462597D01*
X0021709Y0462691D01*
X0021792Y0462782D01*
X0021878Y0462871D01*
X0021967Y0462957D01*
X0022058Y0463040D01*
X0022152Y0463121D01*
X0022249Y0463198D01*
X0022348Y0463272D01*
X0022449Y0463343D01*
X0022552Y0463411D01*
X0022658Y0463476D01*
X0022765Y0463537D01*
X0022875Y0463595D01*
X0022986Y0463649D01*
X0023098Y0463700D01*
X0023213Y0463748D01*
X0023328Y0463791D01*
X0023445Y0463831D01*
X0023564Y0463868D01*
X0023683Y0463900D01*
X0023803Y0463929D01*
X0023924Y0463954D01*
X0024046Y0463976D01*
X0024169Y0463993D01*
X0024291Y0464007D01*
X0024415Y0464016D01*
X0024538Y0464022D01*
X0024662Y0464024D01*
X0040410Y0464024D01*
X0040410Y0467961D01*
X0042379Y0467961D01*
X0042379Y0469929D01*
X0052221Y0469929D01*
X0052221Y0467961D01*
X0075843Y0467961D01*
X0075843Y0469929D01*
X0085686Y0469929D01*
X0085686Y0467961D01*
X0087654Y0467961D01*
X0087654Y0464024D01*
X0290410Y0464024D01*
X0290534Y0464022D01*
X0290657Y0464016D01*
X0290781Y0464007D01*
X0290903Y0463993D01*
X0291026Y0463976D01*
X0291148Y0463954D01*
X0291269Y0463929D01*
X0291389Y0463900D01*
X0291508Y0463868D01*
X0291627Y0463831D01*
X0291744Y0463791D01*
X0291859Y0463748D01*
X0291974Y0463700D01*
X0292086Y0463649D01*
X0292197Y0463595D01*
X0292307Y0463537D01*
X0292414Y0463476D01*
X0292520Y0463411D01*
X0292623Y0463343D01*
X0292724Y0463272D01*
X0292823Y0463198D01*
X0292920Y0463121D01*
X0293014Y0463040D01*
X0293105Y0462957D01*
X0293194Y0462871D01*
X0293280Y0462782D01*
X0293363Y0462691D01*
X0293444Y0462597D01*
X0293521Y0462500D01*
X0293595Y0462401D01*
X0293666Y0462300D01*
X0293734Y0462197D01*
X0293799Y0462091D01*
X0293860Y0461984D01*
X0293918Y0461874D01*
X0293972Y0461763D01*
X0294023Y0461651D01*
X0294071Y0461536D01*
X0294114Y0461421D01*
X0294154Y0461304D01*
X0294191Y0461185D01*
X0294223Y0461066D01*
X0294252Y0460946D01*
X0294277Y0460825D01*
X0294299Y0460703D01*
X0294316Y0460580D01*
X0294330Y0460458D01*
X0294339Y0460334D01*
X0294345Y0460211D01*
X0294347Y0460087D01*
X0294347Y0089811D01*
X0294345Y0089687D01*
X0294339Y0089564D01*
X0294330Y0089440D01*
X0294316Y0089318D01*
X0294299Y0089195D01*
X0294277Y0089073D01*
X0294252Y0088952D01*
X0294223Y0088832D01*
X0294191Y0088713D01*
X0294154Y0088594D01*
X0294114Y0088477D01*
X0294071Y0088362D01*
X0294023Y0088247D01*
X0293972Y0088135D01*
X0293918Y0088024D01*
X0293860Y0087914D01*
X0293799Y0087807D01*
X0293734Y0087701D01*
X0293666Y0087598D01*
X0293595Y0087497D01*
X0293521Y0087398D01*
X0293444Y0087301D01*
X0293363Y0087207D01*
X0293280Y0087116D01*
X0293194Y0087027D01*
X0293105Y0086941D01*
X0293014Y0086858D01*
X0292920Y0086777D01*
X0292823Y0086700D01*
X0292724Y0086626D01*
X0292623Y0086555D01*
X0292520Y0086487D01*
X0292414Y0086422D01*
X0292307Y0086361D01*
X0292197Y0086303D01*
X0292086Y0086249D01*
X0291974Y0086198D01*
X0291859Y0086150D01*
X0291744Y0086107D01*
X0291627Y0086067D01*
X0291508Y0086030D01*
X0291389Y0085998D01*
X0291269Y0085969D01*
X0291148Y0085944D01*
X0291026Y0085922D01*
X0290903Y0085905D01*
X0290781Y0085891D01*
X0290657Y0085882D01*
X0290534Y0085876D01*
X0290410Y0085874D01*
X0223481Y0085874D01*
X0223357Y0085872D01*
X0223234Y0085866D01*
X0223110Y0085857D01*
X0222988Y0085843D01*
X0222865Y0085826D01*
X0222743Y0085804D01*
X0222622Y0085779D01*
X0222502Y0085750D01*
X0222383Y0085718D01*
X0222264Y0085681D01*
X0222147Y0085641D01*
X0222032Y0085598D01*
X0221917Y0085550D01*
X0221805Y0085499D01*
X0221694Y0085445D01*
X0221584Y0085387D01*
X0221477Y0085326D01*
X0221371Y0085261D01*
X0221268Y0085193D01*
X0221167Y0085122D01*
X0221068Y0085048D01*
X0220971Y0084971D01*
X0220877Y0084890D01*
X0220786Y0084807D01*
X0220697Y0084721D01*
X0220611Y0084632D01*
X0220528Y0084541D01*
X0220447Y0084447D01*
X0220370Y0084350D01*
X0220296Y0084251D01*
X0220225Y0084150D01*
X0220157Y0084047D01*
X0220092Y0083941D01*
X0220031Y0083834D01*
X0219973Y0083724D01*
X0219919Y0083613D01*
X0219868Y0083501D01*
X0219820Y0083386D01*
X0219777Y0083271D01*
X0219737Y0083154D01*
X0219700Y0083035D01*
X0219668Y0082916D01*
X0219639Y0082796D01*
X0219614Y0082675D01*
X0219592Y0082553D01*
X0219575Y0082430D01*
X0219561Y0082308D01*
X0219552Y0082184D01*
X0219546Y0082061D01*
X0219544Y0081937D01*
X0219544Y0023079D01*
X0219542Y0022955D01*
X0219536Y0022832D01*
X0219527Y0022708D01*
X0219513Y0022586D01*
X0219496Y0022463D01*
X0219474Y0022341D01*
X0219449Y0022220D01*
X0219420Y0022100D01*
X0219388Y0021981D01*
X0219351Y0021862D01*
X0219311Y0021745D01*
X0219268Y0021630D01*
X0219220Y0021515D01*
X0219169Y0021403D01*
X0219115Y0021292D01*
X0219057Y0021182D01*
X0218996Y0021075D01*
X0218931Y0020969D01*
X0218863Y0020866D01*
X0218792Y0020765D01*
X0218718Y0020666D01*
X0218641Y0020569D01*
X0218560Y0020475D01*
X0218477Y0020384D01*
X0218391Y0020295D01*
X0218302Y0020209D01*
X0218211Y0020126D01*
X0218117Y0020045D01*
X0218020Y0019968D01*
X0217921Y0019894D01*
X0217820Y0019823D01*
X0217717Y0019755D01*
X0217611Y0019690D01*
X0217504Y0019629D01*
X0217394Y0019571D01*
X0217283Y0019517D01*
X0217171Y0019466D01*
X0217056Y0019418D01*
X0216941Y0019375D01*
X0216824Y0019335D01*
X0216705Y0019298D01*
X0216586Y0019266D01*
X0216466Y0019237D01*
X0216345Y0019212D01*
X0216223Y0019190D01*
X0216100Y0019173D01*
X0215978Y0019159D01*
X0215854Y0019150D01*
X0215731Y0019144D01*
X0215607Y0019142D01*
X0191985Y0019142D01*
X0191861Y0019144D01*
X0191738Y0019150D01*
X0191614Y0019159D01*
X0191492Y0019173D01*
X0191369Y0019190D01*
X0191247Y0019212D01*
X0191126Y0019237D01*
X0191006Y0019266D01*
X0190887Y0019298D01*
X0190768Y0019335D01*
X0190651Y0019375D01*
X0190536Y0019418D01*
X0190421Y0019466D01*
X0190309Y0019517D01*
X0190198Y0019571D01*
X0190088Y0019629D01*
X0189981Y0019690D01*
X0189875Y0019755D01*
X0189772Y0019823D01*
X0189671Y0019894D01*
X0189572Y0019968D01*
X0189475Y0020045D01*
X0189381Y0020126D01*
X0189290Y0020209D01*
X0189201Y0020295D01*
X0189115Y0020384D01*
X0189032Y0020475D01*
X0188951Y0020569D01*
X0188874Y0020666D01*
X0188800Y0020765D01*
X0188729Y0020866D01*
X0188661Y0020969D01*
X0188596Y0021075D01*
X0188535Y0021182D01*
X0188477Y0021292D01*
X0188423Y0021403D01*
X0188372Y0021515D01*
X0188324Y0021630D01*
X0188281Y0021745D01*
X0188241Y0021862D01*
X0188204Y0021981D01*
X0188172Y0022100D01*
X0188143Y0022220D01*
X0188118Y0022341D01*
X0188096Y0022463D01*
X0188079Y0022586D01*
X0188065Y0022708D01*
X0188056Y0022832D01*
X0188050Y0022955D01*
X0188048Y0023079D01*
X0188048Y0026031D01*
X0160489Y0026031D01*
X0160489Y0023079D01*
X0160487Y0022955D01*
X0160481Y0022832D01*
X0160472Y0022708D01*
X0160458Y0022586D01*
X0160441Y0022463D01*
X0160419Y0022341D01*
X0160394Y0022220D01*
X0160365Y0022100D01*
X0160333Y0021981D01*
X0160296Y0021862D01*
X0160256Y0021745D01*
X0160213Y0021630D01*
X0160165Y0021515D01*
X0160114Y0021403D01*
X0160060Y0021292D01*
X0160002Y0021182D01*
X0159941Y0021075D01*
X0159876Y0020969D01*
X0159808Y0020866D01*
X0159737Y0020765D01*
X0159663Y0020666D01*
X0159586Y0020569D01*
X0159505Y0020475D01*
X0159422Y0020384D01*
X0159336Y0020295D01*
X0159247Y0020209D01*
X0159156Y0020126D01*
X0159062Y0020045D01*
X0158965Y0019968D01*
X0158866Y0019894D01*
X0158765Y0019823D01*
X0158662Y0019755D01*
X0158556Y0019690D01*
X0158449Y0019629D01*
X0158339Y0019571D01*
X0158228Y0019517D01*
X0158116Y0019466D01*
X0158001Y0019418D01*
X0157886Y0019375D01*
X0157769Y0019335D01*
X0157650Y0019298D01*
X0157531Y0019266D01*
X0157411Y0019237D01*
X0157290Y0019212D01*
X0157168Y0019190D01*
X0157045Y0019173D01*
X0156923Y0019159D01*
X0156799Y0019150D01*
X0156676Y0019144D01*
X0156552Y0019142D01*
X0024662Y0019142D01*
X0024538Y0019144D01*
X0024415Y0019150D01*
X0024291Y0019159D01*
X0024169Y0019173D01*
X0024046Y0019190D01*
X0023924Y0019212D01*
X0023803Y0019237D01*
X0023683Y0019266D01*
X0023564Y0019298D01*
X0023445Y0019335D01*
X0023328Y0019375D01*
X0023213Y0019418D01*
X0023098Y0019466D01*
X0022986Y0019517D01*
X0022875Y0019571D01*
X0022765Y0019629D01*
X0022658Y0019690D01*
X0022552Y0019755D01*
X0022449Y0019823D01*
X0022348Y0019894D01*
X0022249Y0019968D01*
X0022152Y0020045D01*
X0022058Y0020126D01*
X0021967Y0020209D01*
X0021878Y0020295D01*
X0021792Y0020384D01*
X0021709Y0020475D01*
X0021628Y0020569D01*
X0021551Y0020666D01*
X0021477Y0020765D01*
X0021406Y0020866D01*
X0021338Y0020969D01*
X0021273Y0021075D01*
X0021212Y0021182D01*
X0021154Y0021292D01*
X0021100Y0021403D01*
X0021049Y0021515D01*
X0021001Y0021630D01*
X0020958Y0021745D01*
X0020918Y0021862D01*
X0020881Y0021981D01*
X0020849Y0022100D01*
X0020820Y0022220D01*
X0020795Y0022341D01*
X0020773Y0022463D01*
X0020756Y0022586D01*
X0020742Y0022708D01*
X0020733Y0022832D01*
X0020727Y0022955D01*
X0020725Y0023079D01*
X0152615Y0025047D02*
X0152617Y0025144D01*
X0152623Y0025241D01*
X0152633Y0025337D01*
X0152647Y0025433D01*
X0152665Y0025529D01*
X0152686Y0025623D01*
X0152712Y0025717D01*
X0152741Y0025809D01*
X0152775Y0025900D01*
X0152811Y0025990D01*
X0152852Y0026078D01*
X0152896Y0026164D01*
X0152944Y0026249D01*
X0152995Y0026331D01*
X0153049Y0026412D01*
X0153107Y0026490D01*
X0153168Y0026565D01*
X0153231Y0026638D01*
X0153298Y0026709D01*
X0153368Y0026776D01*
X0153440Y0026841D01*
X0153515Y0026902D01*
X0153593Y0026961D01*
X0153672Y0027016D01*
X0153754Y0027068D01*
X0153838Y0027116D01*
X0153924Y0027161D01*
X0154012Y0027203D01*
X0154101Y0027241D01*
X0154192Y0027275D01*
X0154284Y0027305D01*
X0154377Y0027332D01*
X0154472Y0027354D01*
X0154567Y0027373D01*
X0154663Y0027388D01*
X0154759Y0027399D01*
X0154856Y0027406D01*
X0154953Y0027409D01*
X0155050Y0027408D01*
X0155147Y0027403D01*
X0155243Y0027394D01*
X0155339Y0027381D01*
X0155435Y0027364D01*
X0155530Y0027343D01*
X0155623Y0027319D01*
X0155716Y0027290D01*
X0155808Y0027258D01*
X0155898Y0027222D01*
X0155986Y0027183D01*
X0156073Y0027139D01*
X0156158Y0027093D01*
X0156241Y0027042D01*
X0156322Y0026989D01*
X0156400Y0026932D01*
X0156477Y0026872D01*
X0156550Y0026809D01*
X0156621Y0026743D01*
X0156689Y0026674D01*
X0156755Y0026602D01*
X0156817Y0026528D01*
X0156876Y0026451D01*
X0156932Y0026372D01*
X0156985Y0026290D01*
X0157035Y0026207D01*
X0157080Y0026121D01*
X0157123Y0026034D01*
X0157162Y0025945D01*
X0157197Y0025855D01*
X0157228Y0025763D01*
X0157255Y0025670D01*
X0157279Y0025576D01*
X0157299Y0025481D01*
X0157315Y0025385D01*
X0157327Y0025289D01*
X0157335Y0025192D01*
X0157339Y0025095D01*
X0157339Y0024999D01*
X0157335Y0024902D01*
X0157327Y0024805D01*
X0157315Y0024709D01*
X0157299Y0024613D01*
X0157279Y0024518D01*
X0157255Y0024424D01*
X0157228Y0024331D01*
X0157197Y0024239D01*
X0157162Y0024149D01*
X0157123Y0024060D01*
X0157080Y0023973D01*
X0157035Y0023887D01*
X0156985Y0023804D01*
X0156932Y0023722D01*
X0156876Y0023643D01*
X0156817Y0023566D01*
X0156755Y0023492D01*
X0156689Y0023420D01*
X0156621Y0023351D01*
X0156550Y0023285D01*
X0156477Y0023222D01*
X0156400Y0023162D01*
X0156322Y0023105D01*
X0156241Y0023052D01*
X0156158Y0023001D01*
X0156073Y0022955D01*
X0155986Y0022911D01*
X0155898Y0022872D01*
X0155808Y0022836D01*
X0155716Y0022804D01*
X0155623Y0022775D01*
X0155530Y0022751D01*
X0155435Y0022730D01*
X0155339Y0022713D01*
X0155243Y0022700D01*
X0155147Y0022691D01*
X0155050Y0022686D01*
X0154953Y0022685D01*
X0154856Y0022688D01*
X0154759Y0022695D01*
X0154663Y0022706D01*
X0154567Y0022721D01*
X0154472Y0022740D01*
X0154377Y0022762D01*
X0154284Y0022789D01*
X0154192Y0022819D01*
X0154101Y0022853D01*
X0154012Y0022891D01*
X0153924Y0022933D01*
X0153838Y0022978D01*
X0153754Y0023026D01*
X0153672Y0023078D01*
X0153593Y0023133D01*
X0153515Y0023192D01*
X0153440Y0023253D01*
X0153368Y0023318D01*
X0153298Y0023385D01*
X0153231Y0023456D01*
X0153168Y0023529D01*
X0153107Y0023604D01*
X0153049Y0023682D01*
X0152995Y0023763D01*
X0152944Y0023845D01*
X0152896Y0023930D01*
X0152852Y0024016D01*
X0152811Y0024104D01*
X0152775Y0024194D01*
X0152741Y0024285D01*
X0152712Y0024377D01*
X0152686Y0024471D01*
X0152665Y0024565D01*
X0152647Y0024661D01*
X0152633Y0024757D01*
X0152623Y0024853D01*
X0152617Y0024950D01*
X0152615Y0025047D01*
X0152615Y0034890D02*
X0152617Y0034987D01*
X0152623Y0035084D01*
X0152633Y0035180D01*
X0152647Y0035276D01*
X0152665Y0035372D01*
X0152686Y0035466D01*
X0152712Y0035560D01*
X0152741Y0035652D01*
X0152775Y0035743D01*
X0152811Y0035833D01*
X0152852Y0035921D01*
X0152896Y0036007D01*
X0152944Y0036092D01*
X0152995Y0036174D01*
X0153049Y0036255D01*
X0153107Y0036333D01*
X0153168Y0036408D01*
X0153231Y0036481D01*
X0153298Y0036552D01*
X0153368Y0036619D01*
X0153440Y0036684D01*
X0153515Y0036745D01*
X0153593Y0036804D01*
X0153672Y0036859D01*
X0153754Y0036911D01*
X0153838Y0036959D01*
X0153924Y0037004D01*
X0154012Y0037046D01*
X0154101Y0037084D01*
X0154192Y0037118D01*
X0154284Y0037148D01*
X0154377Y0037175D01*
X0154472Y0037197D01*
X0154567Y0037216D01*
X0154663Y0037231D01*
X0154759Y0037242D01*
X0154856Y0037249D01*
X0154953Y0037252D01*
X0155050Y0037251D01*
X0155147Y0037246D01*
X0155243Y0037237D01*
X0155339Y0037224D01*
X0155435Y0037207D01*
X0155530Y0037186D01*
X0155623Y0037162D01*
X0155716Y0037133D01*
X0155808Y0037101D01*
X0155898Y0037065D01*
X0155986Y0037026D01*
X0156073Y0036982D01*
X0156158Y0036936D01*
X0156241Y0036885D01*
X0156322Y0036832D01*
X0156400Y0036775D01*
X0156477Y0036715D01*
X0156550Y0036652D01*
X0156621Y0036586D01*
X0156689Y0036517D01*
X0156755Y0036445D01*
X0156817Y0036371D01*
X0156876Y0036294D01*
X0156932Y0036215D01*
X0156985Y0036133D01*
X0157035Y0036050D01*
X0157080Y0035964D01*
X0157123Y0035877D01*
X0157162Y0035788D01*
X0157197Y0035698D01*
X0157228Y0035606D01*
X0157255Y0035513D01*
X0157279Y0035419D01*
X0157299Y0035324D01*
X0157315Y0035228D01*
X0157327Y0035132D01*
X0157335Y0035035D01*
X0157339Y0034938D01*
X0157339Y0034842D01*
X0157335Y0034745D01*
X0157327Y0034648D01*
X0157315Y0034552D01*
X0157299Y0034456D01*
X0157279Y0034361D01*
X0157255Y0034267D01*
X0157228Y0034174D01*
X0157197Y0034082D01*
X0157162Y0033992D01*
X0157123Y0033903D01*
X0157080Y0033816D01*
X0157035Y0033730D01*
X0156985Y0033647D01*
X0156932Y0033565D01*
X0156876Y0033486D01*
X0156817Y0033409D01*
X0156755Y0033335D01*
X0156689Y0033263D01*
X0156621Y0033194D01*
X0156550Y0033128D01*
X0156477Y0033065D01*
X0156400Y0033005D01*
X0156322Y0032948D01*
X0156241Y0032895D01*
X0156158Y0032844D01*
X0156073Y0032798D01*
X0155986Y0032754D01*
X0155898Y0032715D01*
X0155808Y0032679D01*
X0155716Y0032647D01*
X0155623Y0032618D01*
X0155530Y0032594D01*
X0155435Y0032573D01*
X0155339Y0032556D01*
X0155243Y0032543D01*
X0155147Y0032534D01*
X0155050Y0032529D01*
X0154953Y0032528D01*
X0154856Y0032531D01*
X0154759Y0032538D01*
X0154663Y0032549D01*
X0154567Y0032564D01*
X0154472Y0032583D01*
X0154377Y0032605D01*
X0154284Y0032632D01*
X0154192Y0032662D01*
X0154101Y0032696D01*
X0154012Y0032734D01*
X0153924Y0032776D01*
X0153838Y0032821D01*
X0153754Y0032869D01*
X0153672Y0032921D01*
X0153593Y0032976D01*
X0153515Y0033035D01*
X0153440Y0033096D01*
X0153368Y0033161D01*
X0153298Y0033228D01*
X0153231Y0033299D01*
X0153168Y0033372D01*
X0153107Y0033447D01*
X0153049Y0033525D01*
X0152995Y0033606D01*
X0152944Y0033688D01*
X0152896Y0033773D01*
X0152852Y0033859D01*
X0152811Y0033947D01*
X0152775Y0034037D01*
X0152741Y0034128D01*
X0152712Y0034220D01*
X0152686Y0034314D01*
X0152665Y0034408D01*
X0152647Y0034504D01*
X0152633Y0034600D01*
X0152623Y0034696D01*
X0152617Y0034793D01*
X0152615Y0034890D01*
X0172300Y0054575D02*
X0172302Y0054672D01*
X0172308Y0054769D01*
X0172318Y0054865D01*
X0172332Y0054961D01*
X0172350Y0055057D01*
X0172371Y0055151D01*
X0172397Y0055245D01*
X0172426Y0055337D01*
X0172460Y0055428D01*
X0172496Y0055518D01*
X0172537Y0055606D01*
X0172581Y0055692D01*
X0172629Y0055777D01*
X0172680Y0055859D01*
X0172734Y0055940D01*
X0172792Y0056018D01*
X0172853Y0056093D01*
X0172916Y0056166D01*
X0172983Y0056237D01*
X0173053Y0056304D01*
X0173125Y0056369D01*
X0173200Y0056430D01*
X0173278Y0056489D01*
X0173357Y0056544D01*
X0173439Y0056596D01*
X0173523Y0056644D01*
X0173609Y0056689D01*
X0173697Y0056731D01*
X0173786Y0056769D01*
X0173877Y0056803D01*
X0173969Y0056833D01*
X0174062Y0056860D01*
X0174157Y0056882D01*
X0174252Y0056901D01*
X0174348Y0056916D01*
X0174444Y0056927D01*
X0174541Y0056934D01*
X0174638Y0056937D01*
X0174735Y0056936D01*
X0174832Y0056931D01*
X0174928Y0056922D01*
X0175024Y0056909D01*
X0175120Y0056892D01*
X0175215Y0056871D01*
X0175308Y0056847D01*
X0175401Y0056818D01*
X0175493Y0056786D01*
X0175583Y0056750D01*
X0175671Y0056711D01*
X0175758Y0056667D01*
X0175843Y0056621D01*
X0175926Y0056570D01*
X0176007Y0056517D01*
X0176085Y0056460D01*
X0176162Y0056400D01*
X0176235Y0056337D01*
X0176306Y0056271D01*
X0176374Y0056202D01*
X0176440Y0056130D01*
X0176502Y0056056D01*
X0176561Y0055979D01*
X0176617Y0055900D01*
X0176670Y0055818D01*
X0176720Y0055735D01*
X0176765Y0055649D01*
X0176808Y0055562D01*
X0176847Y0055473D01*
X0176882Y0055383D01*
X0176913Y0055291D01*
X0176940Y0055198D01*
X0176964Y0055104D01*
X0176984Y0055009D01*
X0177000Y0054913D01*
X0177012Y0054817D01*
X0177020Y0054720D01*
X0177024Y0054623D01*
X0177024Y0054527D01*
X0177020Y0054430D01*
X0177012Y0054333D01*
X0177000Y0054237D01*
X0176984Y0054141D01*
X0176964Y0054046D01*
X0176940Y0053952D01*
X0176913Y0053859D01*
X0176882Y0053767D01*
X0176847Y0053677D01*
X0176808Y0053588D01*
X0176765Y0053501D01*
X0176720Y0053415D01*
X0176670Y0053332D01*
X0176617Y0053250D01*
X0176561Y0053171D01*
X0176502Y0053094D01*
X0176440Y0053020D01*
X0176374Y0052948D01*
X0176306Y0052879D01*
X0176235Y0052813D01*
X0176162Y0052750D01*
X0176085Y0052690D01*
X0176007Y0052633D01*
X0175926Y0052580D01*
X0175843Y0052529D01*
X0175758Y0052483D01*
X0175671Y0052439D01*
X0175583Y0052400D01*
X0175493Y0052364D01*
X0175401Y0052332D01*
X0175308Y0052303D01*
X0175215Y0052279D01*
X0175120Y0052258D01*
X0175024Y0052241D01*
X0174928Y0052228D01*
X0174832Y0052219D01*
X0174735Y0052214D01*
X0174638Y0052213D01*
X0174541Y0052216D01*
X0174444Y0052223D01*
X0174348Y0052234D01*
X0174252Y0052249D01*
X0174157Y0052268D01*
X0174062Y0052290D01*
X0173969Y0052317D01*
X0173877Y0052347D01*
X0173786Y0052381D01*
X0173697Y0052419D01*
X0173609Y0052461D01*
X0173523Y0052506D01*
X0173439Y0052554D01*
X0173357Y0052606D01*
X0173278Y0052661D01*
X0173200Y0052720D01*
X0173125Y0052781D01*
X0173053Y0052846D01*
X0172983Y0052913D01*
X0172916Y0052984D01*
X0172853Y0053057D01*
X0172792Y0053132D01*
X0172734Y0053210D01*
X0172680Y0053291D01*
X0172629Y0053373D01*
X0172581Y0053458D01*
X0172537Y0053544D01*
X0172496Y0053632D01*
X0172460Y0053722D01*
X0172426Y0053813D01*
X0172397Y0053905D01*
X0172371Y0053999D01*
X0172350Y0054093D01*
X0172332Y0054189D01*
X0172318Y0054285D01*
X0172308Y0054381D01*
X0172302Y0054478D01*
X0172300Y0054575D01*
X0191985Y0034890D02*
X0191987Y0034987D01*
X0191993Y0035084D01*
X0192003Y0035180D01*
X0192017Y0035276D01*
X0192035Y0035372D01*
X0192056Y0035466D01*
X0192082Y0035560D01*
X0192111Y0035652D01*
X0192145Y0035743D01*
X0192181Y0035833D01*
X0192222Y0035921D01*
X0192266Y0036007D01*
X0192314Y0036092D01*
X0192365Y0036174D01*
X0192419Y0036255D01*
X0192477Y0036333D01*
X0192538Y0036408D01*
X0192601Y0036481D01*
X0192668Y0036552D01*
X0192738Y0036619D01*
X0192810Y0036684D01*
X0192885Y0036745D01*
X0192963Y0036804D01*
X0193042Y0036859D01*
X0193124Y0036911D01*
X0193208Y0036959D01*
X0193294Y0037004D01*
X0193382Y0037046D01*
X0193471Y0037084D01*
X0193562Y0037118D01*
X0193654Y0037148D01*
X0193747Y0037175D01*
X0193842Y0037197D01*
X0193937Y0037216D01*
X0194033Y0037231D01*
X0194129Y0037242D01*
X0194226Y0037249D01*
X0194323Y0037252D01*
X0194420Y0037251D01*
X0194517Y0037246D01*
X0194613Y0037237D01*
X0194709Y0037224D01*
X0194805Y0037207D01*
X0194900Y0037186D01*
X0194993Y0037162D01*
X0195086Y0037133D01*
X0195178Y0037101D01*
X0195268Y0037065D01*
X0195356Y0037026D01*
X0195443Y0036982D01*
X0195528Y0036936D01*
X0195611Y0036885D01*
X0195692Y0036832D01*
X0195770Y0036775D01*
X0195847Y0036715D01*
X0195920Y0036652D01*
X0195991Y0036586D01*
X0196059Y0036517D01*
X0196125Y0036445D01*
X0196187Y0036371D01*
X0196246Y0036294D01*
X0196302Y0036215D01*
X0196355Y0036133D01*
X0196405Y0036050D01*
X0196450Y0035964D01*
X0196493Y0035877D01*
X0196532Y0035788D01*
X0196567Y0035698D01*
X0196598Y0035606D01*
X0196625Y0035513D01*
X0196649Y0035419D01*
X0196669Y0035324D01*
X0196685Y0035228D01*
X0196697Y0035132D01*
X0196705Y0035035D01*
X0196709Y0034938D01*
X0196709Y0034842D01*
X0196705Y0034745D01*
X0196697Y0034648D01*
X0196685Y0034552D01*
X0196669Y0034456D01*
X0196649Y0034361D01*
X0196625Y0034267D01*
X0196598Y0034174D01*
X0196567Y0034082D01*
X0196532Y0033992D01*
X0196493Y0033903D01*
X0196450Y0033816D01*
X0196405Y0033730D01*
X0196355Y0033647D01*
X0196302Y0033565D01*
X0196246Y0033486D01*
X0196187Y0033409D01*
X0196125Y0033335D01*
X0196059Y0033263D01*
X0195991Y0033194D01*
X0195920Y0033128D01*
X0195847Y0033065D01*
X0195770Y0033005D01*
X0195692Y0032948D01*
X0195611Y0032895D01*
X0195528Y0032844D01*
X0195443Y0032798D01*
X0195356Y0032754D01*
X0195268Y0032715D01*
X0195178Y0032679D01*
X0195086Y0032647D01*
X0194993Y0032618D01*
X0194900Y0032594D01*
X0194805Y0032573D01*
X0194709Y0032556D01*
X0194613Y0032543D01*
X0194517Y0032534D01*
X0194420Y0032529D01*
X0194323Y0032528D01*
X0194226Y0032531D01*
X0194129Y0032538D01*
X0194033Y0032549D01*
X0193937Y0032564D01*
X0193842Y0032583D01*
X0193747Y0032605D01*
X0193654Y0032632D01*
X0193562Y0032662D01*
X0193471Y0032696D01*
X0193382Y0032734D01*
X0193294Y0032776D01*
X0193208Y0032821D01*
X0193124Y0032869D01*
X0193042Y0032921D01*
X0192963Y0032976D01*
X0192885Y0033035D01*
X0192810Y0033096D01*
X0192738Y0033161D01*
X0192668Y0033228D01*
X0192601Y0033299D01*
X0192538Y0033372D01*
X0192477Y0033447D01*
X0192419Y0033525D01*
X0192365Y0033606D01*
X0192314Y0033688D01*
X0192266Y0033773D01*
X0192222Y0033859D01*
X0192181Y0033947D01*
X0192145Y0034037D01*
X0192111Y0034128D01*
X0192082Y0034220D01*
X0192056Y0034314D01*
X0192035Y0034408D01*
X0192017Y0034504D01*
X0192003Y0034600D01*
X0191993Y0034696D01*
X0191987Y0034793D01*
X0191985Y0034890D01*
X0191985Y0025047D02*
X0191987Y0025144D01*
X0191993Y0025241D01*
X0192003Y0025337D01*
X0192017Y0025433D01*
X0192035Y0025529D01*
X0192056Y0025623D01*
X0192082Y0025717D01*
X0192111Y0025809D01*
X0192145Y0025900D01*
X0192181Y0025990D01*
X0192222Y0026078D01*
X0192266Y0026164D01*
X0192314Y0026249D01*
X0192365Y0026331D01*
X0192419Y0026412D01*
X0192477Y0026490D01*
X0192538Y0026565D01*
X0192601Y0026638D01*
X0192668Y0026709D01*
X0192738Y0026776D01*
X0192810Y0026841D01*
X0192885Y0026902D01*
X0192963Y0026961D01*
X0193042Y0027016D01*
X0193124Y0027068D01*
X0193208Y0027116D01*
X0193294Y0027161D01*
X0193382Y0027203D01*
X0193471Y0027241D01*
X0193562Y0027275D01*
X0193654Y0027305D01*
X0193747Y0027332D01*
X0193842Y0027354D01*
X0193937Y0027373D01*
X0194033Y0027388D01*
X0194129Y0027399D01*
X0194226Y0027406D01*
X0194323Y0027409D01*
X0194420Y0027408D01*
X0194517Y0027403D01*
X0194613Y0027394D01*
X0194709Y0027381D01*
X0194805Y0027364D01*
X0194900Y0027343D01*
X0194993Y0027319D01*
X0195086Y0027290D01*
X0195178Y0027258D01*
X0195268Y0027222D01*
X0195356Y0027183D01*
X0195443Y0027139D01*
X0195528Y0027093D01*
X0195611Y0027042D01*
X0195692Y0026989D01*
X0195770Y0026932D01*
X0195847Y0026872D01*
X0195920Y0026809D01*
X0195991Y0026743D01*
X0196059Y0026674D01*
X0196125Y0026602D01*
X0196187Y0026528D01*
X0196246Y0026451D01*
X0196302Y0026372D01*
X0196355Y0026290D01*
X0196405Y0026207D01*
X0196450Y0026121D01*
X0196493Y0026034D01*
X0196532Y0025945D01*
X0196567Y0025855D01*
X0196598Y0025763D01*
X0196625Y0025670D01*
X0196649Y0025576D01*
X0196669Y0025481D01*
X0196685Y0025385D01*
X0196697Y0025289D01*
X0196705Y0025192D01*
X0196709Y0025095D01*
X0196709Y0024999D01*
X0196705Y0024902D01*
X0196697Y0024805D01*
X0196685Y0024709D01*
X0196669Y0024613D01*
X0196649Y0024518D01*
X0196625Y0024424D01*
X0196598Y0024331D01*
X0196567Y0024239D01*
X0196532Y0024149D01*
X0196493Y0024060D01*
X0196450Y0023973D01*
X0196405Y0023887D01*
X0196355Y0023804D01*
X0196302Y0023722D01*
X0196246Y0023643D01*
X0196187Y0023566D01*
X0196125Y0023492D01*
X0196059Y0023420D01*
X0195991Y0023351D01*
X0195920Y0023285D01*
X0195847Y0023222D01*
X0195770Y0023162D01*
X0195692Y0023105D01*
X0195611Y0023052D01*
X0195528Y0023001D01*
X0195443Y0022955D01*
X0195356Y0022911D01*
X0195268Y0022872D01*
X0195178Y0022836D01*
X0195086Y0022804D01*
X0194993Y0022775D01*
X0194900Y0022751D01*
X0194805Y0022730D01*
X0194709Y0022713D01*
X0194613Y0022700D01*
X0194517Y0022691D01*
X0194420Y0022686D01*
X0194323Y0022685D01*
X0194226Y0022688D01*
X0194129Y0022695D01*
X0194033Y0022706D01*
X0193937Y0022721D01*
X0193842Y0022740D01*
X0193747Y0022762D01*
X0193654Y0022789D01*
X0193562Y0022819D01*
X0193471Y0022853D01*
X0193382Y0022891D01*
X0193294Y0022933D01*
X0193208Y0022978D01*
X0193124Y0023026D01*
X0193042Y0023078D01*
X0192963Y0023133D01*
X0192885Y0023192D01*
X0192810Y0023253D01*
X0192738Y0023318D01*
X0192668Y0023385D01*
X0192601Y0023456D01*
X0192538Y0023529D01*
X0192477Y0023604D01*
X0192419Y0023682D01*
X0192365Y0023763D01*
X0192314Y0023845D01*
X0192266Y0023930D01*
X0192222Y0024016D01*
X0192181Y0024104D01*
X0192145Y0024194D01*
X0192111Y0024285D01*
X0192082Y0024377D01*
X0192056Y0024471D01*
X0192035Y0024565D01*
X0192017Y0024661D01*
X0192003Y0024757D01*
X0191993Y0024853D01*
X0191987Y0024950D01*
X0191985Y0025047D01*
X0252300Y0114457D02*
X0252302Y0114554D01*
X0252308Y0114651D01*
X0252318Y0114747D01*
X0252332Y0114843D01*
X0252350Y0114939D01*
X0252371Y0115033D01*
X0252397Y0115127D01*
X0252426Y0115219D01*
X0252460Y0115310D01*
X0252496Y0115400D01*
X0252537Y0115488D01*
X0252581Y0115574D01*
X0252629Y0115659D01*
X0252680Y0115741D01*
X0252734Y0115822D01*
X0252792Y0115900D01*
X0252853Y0115975D01*
X0252916Y0116048D01*
X0252983Y0116119D01*
X0253053Y0116186D01*
X0253125Y0116251D01*
X0253200Y0116312D01*
X0253278Y0116371D01*
X0253357Y0116426D01*
X0253439Y0116478D01*
X0253523Y0116526D01*
X0253609Y0116571D01*
X0253697Y0116613D01*
X0253786Y0116651D01*
X0253877Y0116685D01*
X0253969Y0116715D01*
X0254062Y0116742D01*
X0254157Y0116764D01*
X0254252Y0116783D01*
X0254348Y0116798D01*
X0254444Y0116809D01*
X0254541Y0116816D01*
X0254638Y0116819D01*
X0254735Y0116818D01*
X0254832Y0116813D01*
X0254928Y0116804D01*
X0255024Y0116791D01*
X0255120Y0116774D01*
X0255215Y0116753D01*
X0255308Y0116729D01*
X0255401Y0116700D01*
X0255493Y0116668D01*
X0255583Y0116632D01*
X0255671Y0116593D01*
X0255758Y0116549D01*
X0255843Y0116503D01*
X0255926Y0116452D01*
X0256007Y0116399D01*
X0256085Y0116342D01*
X0256162Y0116282D01*
X0256235Y0116219D01*
X0256306Y0116153D01*
X0256374Y0116084D01*
X0256440Y0116012D01*
X0256502Y0115938D01*
X0256561Y0115861D01*
X0256617Y0115782D01*
X0256670Y0115700D01*
X0256720Y0115617D01*
X0256765Y0115531D01*
X0256808Y0115444D01*
X0256847Y0115355D01*
X0256882Y0115265D01*
X0256913Y0115173D01*
X0256940Y0115080D01*
X0256964Y0114986D01*
X0256984Y0114891D01*
X0257000Y0114795D01*
X0257012Y0114699D01*
X0257020Y0114602D01*
X0257024Y0114505D01*
X0257024Y0114409D01*
X0257020Y0114312D01*
X0257012Y0114215D01*
X0257000Y0114119D01*
X0256984Y0114023D01*
X0256964Y0113928D01*
X0256940Y0113834D01*
X0256913Y0113741D01*
X0256882Y0113649D01*
X0256847Y0113559D01*
X0256808Y0113470D01*
X0256765Y0113383D01*
X0256720Y0113297D01*
X0256670Y0113214D01*
X0256617Y0113132D01*
X0256561Y0113053D01*
X0256502Y0112976D01*
X0256440Y0112902D01*
X0256374Y0112830D01*
X0256306Y0112761D01*
X0256235Y0112695D01*
X0256162Y0112632D01*
X0256085Y0112572D01*
X0256007Y0112515D01*
X0255926Y0112462D01*
X0255843Y0112411D01*
X0255758Y0112365D01*
X0255671Y0112321D01*
X0255583Y0112282D01*
X0255493Y0112246D01*
X0255401Y0112214D01*
X0255308Y0112185D01*
X0255215Y0112161D01*
X0255120Y0112140D01*
X0255024Y0112123D01*
X0254928Y0112110D01*
X0254832Y0112101D01*
X0254735Y0112096D01*
X0254638Y0112095D01*
X0254541Y0112098D01*
X0254444Y0112105D01*
X0254348Y0112116D01*
X0254252Y0112131D01*
X0254157Y0112150D01*
X0254062Y0112172D01*
X0253969Y0112199D01*
X0253877Y0112229D01*
X0253786Y0112263D01*
X0253697Y0112301D01*
X0253609Y0112343D01*
X0253523Y0112388D01*
X0253439Y0112436D01*
X0253357Y0112488D01*
X0253278Y0112543D01*
X0253200Y0112602D01*
X0253125Y0112663D01*
X0253053Y0112728D01*
X0252983Y0112795D01*
X0252916Y0112866D01*
X0252853Y0112939D01*
X0252792Y0113014D01*
X0252734Y0113092D01*
X0252680Y0113173D01*
X0252629Y0113255D01*
X0252581Y0113340D01*
X0252537Y0113426D01*
X0252496Y0113514D01*
X0252460Y0113604D01*
X0252426Y0113695D01*
X0252397Y0113787D01*
X0252371Y0113881D01*
X0252350Y0113975D01*
X0252332Y0114071D01*
X0252318Y0114167D01*
X0252308Y0114263D01*
X0252302Y0114360D01*
X0252300Y0114457D01*
X0220804Y0212882D02*
X0220806Y0212979D01*
X0220812Y0213076D01*
X0220822Y0213172D01*
X0220836Y0213268D01*
X0220854Y0213364D01*
X0220875Y0213458D01*
X0220901Y0213552D01*
X0220930Y0213644D01*
X0220964Y0213735D01*
X0221000Y0213825D01*
X0221041Y0213913D01*
X0221085Y0213999D01*
X0221133Y0214084D01*
X0221184Y0214166D01*
X0221238Y0214247D01*
X0221296Y0214325D01*
X0221357Y0214400D01*
X0221420Y0214473D01*
X0221487Y0214544D01*
X0221557Y0214611D01*
X0221629Y0214676D01*
X0221704Y0214737D01*
X0221782Y0214796D01*
X0221861Y0214851D01*
X0221943Y0214903D01*
X0222027Y0214951D01*
X0222113Y0214996D01*
X0222201Y0215038D01*
X0222290Y0215076D01*
X0222381Y0215110D01*
X0222473Y0215140D01*
X0222566Y0215167D01*
X0222661Y0215189D01*
X0222756Y0215208D01*
X0222852Y0215223D01*
X0222948Y0215234D01*
X0223045Y0215241D01*
X0223142Y0215244D01*
X0223239Y0215243D01*
X0223336Y0215238D01*
X0223432Y0215229D01*
X0223528Y0215216D01*
X0223624Y0215199D01*
X0223719Y0215178D01*
X0223812Y0215154D01*
X0223905Y0215125D01*
X0223997Y0215093D01*
X0224087Y0215057D01*
X0224175Y0215018D01*
X0224262Y0214974D01*
X0224347Y0214928D01*
X0224430Y0214877D01*
X0224511Y0214824D01*
X0224589Y0214767D01*
X0224666Y0214707D01*
X0224739Y0214644D01*
X0224810Y0214578D01*
X0224878Y0214509D01*
X0224944Y0214437D01*
X0225006Y0214363D01*
X0225065Y0214286D01*
X0225121Y0214207D01*
X0225174Y0214125D01*
X0225224Y0214042D01*
X0225269Y0213956D01*
X0225312Y0213869D01*
X0225351Y0213780D01*
X0225386Y0213690D01*
X0225417Y0213598D01*
X0225444Y0213505D01*
X0225468Y0213411D01*
X0225488Y0213316D01*
X0225504Y0213220D01*
X0225516Y0213124D01*
X0225524Y0213027D01*
X0225528Y0212930D01*
X0225528Y0212834D01*
X0225524Y0212737D01*
X0225516Y0212640D01*
X0225504Y0212544D01*
X0225488Y0212448D01*
X0225468Y0212353D01*
X0225444Y0212259D01*
X0225417Y0212166D01*
X0225386Y0212074D01*
X0225351Y0211984D01*
X0225312Y0211895D01*
X0225269Y0211808D01*
X0225224Y0211722D01*
X0225174Y0211639D01*
X0225121Y0211557D01*
X0225065Y0211478D01*
X0225006Y0211401D01*
X0224944Y0211327D01*
X0224878Y0211255D01*
X0224810Y0211186D01*
X0224739Y0211120D01*
X0224666Y0211057D01*
X0224589Y0210997D01*
X0224511Y0210940D01*
X0224430Y0210887D01*
X0224347Y0210836D01*
X0224262Y0210790D01*
X0224175Y0210746D01*
X0224087Y0210707D01*
X0223997Y0210671D01*
X0223905Y0210639D01*
X0223812Y0210610D01*
X0223719Y0210586D01*
X0223624Y0210565D01*
X0223528Y0210548D01*
X0223432Y0210535D01*
X0223336Y0210526D01*
X0223239Y0210521D01*
X0223142Y0210520D01*
X0223045Y0210523D01*
X0222948Y0210530D01*
X0222852Y0210541D01*
X0222756Y0210556D01*
X0222661Y0210575D01*
X0222566Y0210597D01*
X0222473Y0210624D01*
X0222381Y0210654D01*
X0222290Y0210688D01*
X0222201Y0210726D01*
X0222113Y0210768D01*
X0222027Y0210813D01*
X0221943Y0210861D01*
X0221861Y0210913D01*
X0221782Y0210968D01*
X0221704Y0211027D01*
X0221629Y0211088D01*
X0221557Y0211153D01*
X0221487Y0211220D01*
X0221420Y0211291D01*
X0221357Y0211364D01*
X0221296Y0211439D01*
X0221238Y0211517D01*
X0221184Y0211598D01*
X0221133Y0211680D01*
X0221085Y0211765D01*
X0221041Y0211851D01*
X0221000Y0211939D01*
X0220964Y0212029D01*
X0220930Y0212120D01*
X0220901Y0212212D01*
X0220875Y0212306D01*
X0220854Y0212400D01*
X0220836Y0212496D01*
X0220822Y0212592D01*
X0220812Y0212688D01*
X0220806Y0212785D01*
X0220804Y0212882D01*
X0165686Y0189260D02*
X0165688Y0189357D01*
X0165694Y0189454D01*
X0165704Y0189550D01*
X0165718Y0189646D01*
X0165736Y0189742D01*
X0165757Y0189836D01*
X0165783Y0189930D01*
X0165812Y0190022D01*
X0165846Y0190113D01*
X0165882Y0190203D01*
X0165923Y0190291D01*
X0165967Y0190377D01*
X0166015Y0190462D01*
X0166066Y0190544D01*
X0166120Y0190625D01*
X0166178Y0190703D01*
X0166239Y0190778D01*
X0166302Y0190851D01*
X0166369Y0190922D01*
X0166439Y0190989D01*
X0166511Y0191054D01*
X0166586Y0191115D01*
X0166664Y0191174D01*
X0166743Y0191229D01*
X0166825Y0191281D01*
X0166909Y0191329D01*
X0166995Y0191374D01*
X0167083Y0191416D01*
X0167172Y0191454D01*
X0167263Y0191488D01*
X0167355Y0191518D01*
X0167448Y0191545D01*
X0167543Y0191567D01*
X0167638Y0191586D01*
X0167734Y0191601D01*
X0167830Y0191612D01*
X0167927Y0191619D01*
X0168024Y0191622D01*
X0168121Y0191621D01*
X0168218Y0191616D01*
X0168314Y0191607D01*
X0168410Y0191594D01*
X0168506Y0191577D01*
X0168601Y0191556D01*
X0168694Y0191532D01*
X0168787Y0191503D01*
X0168879Y0191471D01*
X0168969Y0191435D01*
X0169057Y0191396D01*
X0169144Y0191352D01*
X0169229Y0191306D01*
X0169312Y0191255D01*
X0169393Y0191202D01*
X0169471Y0191145D01*
X0169548Y0191085D01*
X0169621Y0191022D01*
X0169692Y0190956D01*
X0169760Y0190887D01*
X0169826Y0190815D01*
X0169888Y0190741D01*
X0169947Y0190664D01*
X0170003Y0190585D01*
X0170056Y0190503D01*
X0170106Y0190420D01*
X0170151Y0190334D01*
X0170194Y0190247D01*
X0170233Y0190158D01*
X0170268Y0190068D01*
X0170299Y0189976D01*
X0170326Y0189883D01*
X0170350Y0189789D01*
X0170370Y0189694D01*
X0170386Y0189598D01*
X0170398Y0189502D01*
X0170406Y0189405D01*
X0170410Y0189308D01*
X0170410Y0189212D01*
X0170406Y0189115D01*
X0170398Y0189018D01*
X0170386Y0188922D01*
X0170370Y0188826D01*
X0170350Y0188731D01*
X0170326Y0188637D01*
X0170299Y0188544D01*
X0170268Y0188452D01*
X0170233Y0188362D01*
X0170194Y0188273D01*
X0170151Y0188186D01*
X0170106Y0188100D01*
X0170056Y0188017D01*
X0170003Y0187935D01*
X0169947Y0187856D01*
X0169888Y0187779D01*
X0169826Y0187705D01*
X0169760Y0187633D01*
X0169692Y0187564D01*
X0169621Y0187498D01*
X0169548Y0187435D01*
X0169471Y0187375D01*
X0169393Y0187318D01*
X0169312Y0187265D01*
X0169229Y0187214D01*
X0169144Y0187168D01*
X0169057Y0187124D01*
X0168969Y0187085D01*
X0168879Y0187049D01*
X0168787Y0187017D01*
X0168694Y0186988D01*
X0168601Y0186964D01*
X0168506Y0186943D01*
X0168410Y0186926D01*
X0168314Y0186913D01*
X0168218Y0186904D01*
X0168121Y0186899D01*
X0168024Y0186898D01*
X0167927Y0186901D01*
X0167830Y0186908D01*
X0167734Y0186919D01*
X0167638Y0186934D01*
X0167543Y0186953D01*
X0167448Y0186975D01*
X0167355Y0187002D01*
X0167263Y0187032D01*
X0167172Y0187066D01*
X0167083Y0187104D01*
X0166995Y0187146D01*
X0166909Y0187191D01*
X0166825Y0187239D01*
X0166743Y0187291D01*
X0166664Y0187346D01*
X0166586Y0187405D01*
X0166511Y0187466D01*
X0166439Y0187531D01*
X0166369Y0187598D01*
X0166302Y0187669D01*
X0166239Y0187742D01*
X0166178Y0187817D01*
X0166120Y0187895D01*
X0166066Y0187976D01*
X0166015Y0188058D01*
X0165967Y0188143D01*
X0165923Y0188229D01*
X0165882Y0188317D01*
X0165846Y0188407D01*
X0165812Y0188498D01*
X0165783Y0188590D01*
X0165757Y0188684D01*
X0165736Y0188778D01*
X0165718Y0188874D01*
X0165704Y0188970D01*
X0165694Y0189066D01*
X0165688Y0189163D01*
X0165686Y0189260D01*
X0153875Y0130205D02*
X0153877Y0130302D01*
X0153883Y0130399D01*
X0153893Y0130495D01*
X0153907Y0130591D01*
X0153925Y0130687D01*
X0153946Y0130781D01*
X0153972Y0130875D01*
X0154001Y0130967D01*
X0154035Y0131058D01*
X0154071Y0131148D01*
X0154112Y0131236D01*
X0154156Y0131322D01*
X0154204Y0131407D01*
X0154255Y0131489D01*
X0154309Y0131570D01*
X0154367Y0131648D01*
X0154428Y0131723D01*
X0154491Y0131796D01*
X0154558Y0131867D01*
X0154628Y0131934D01*
X0154700Y0131999D01*
X0154775Y0132060D01*
X0154853Y0132119D01*
X0154932Y0132174D01*
X0155014Y0132226D01*
X0155098Y0132274D01*
X0155184Y0132319D01*
X0155272Y0132361D01*
X0155361Y0132399D01*
X0155452Y0132433D01*
X0155544Y0132463D01*
X0155637Y0132490D01*
X0155732Y0132512D01*
X0155827Y0132531D01*
X0155923Y0132546D01*
X0156019Y0132557D01*
X0156116Y0132564D01*
X0156213Y0132567D01*
X0156310Y0132566D01*
X0156407Y0132561D01*
X0156503Y0132552D01*
X0156599Y0132539D01*
X0156695Y0132522D01*
X0156790Y0132501D01*
X0156883Y0132477D01*
X0156976Y0132448D01*
X0157068Y0132416D01*
X0157158Y0132380D01*
X0157246Y0132341D01*
X0157333Y0132297D01*
X0157418Y0132251D01*
X0157501Y0132200D01*
X0157582Y0132147D01*
X0157660Y0132090D01*
X0157737Y0132030D01*
X0157810Y0131967D01*
X0157881Y0131901D01*
X0157949Y0131832D01*
X0158015Y0131760D01*
X0158077Y0131686D01*
X0158136Y0131609D01*
X0158192Y0131530D01*
X0158245Y0131448D01*
X0158295Y0131365D01*
X0158340Y0131279D01*
X0158383Y0131192D01*
X0158422Y0131103D01*
X0158457Y0131013D01*
X0158488Y0130921D01*
X0158515Y0130828D01*
X0158539Y0130734D01*
X0158559Y0130639D01*
X0158575Y0130543D01*
X0158587Y0130447D01*
X0158595Y0130350D01*
X0158599Y0130253D01*
X0158599Y0130157D01*
X0158595Y0130060D01*
X0158587Y0129963D01*
X0158575Y0129867D01*
X0158559Y0129771D01*
X0158539Y0129676D01*
X0158515Y0129582D01*
X0158488Y0129489D01*
X0158457Y0129397D01*
X0158422Y0129307D01*
X0158383Y0129218D01*
X0158340Y0129131D01*
X0158295Y0129045D01*
X0158245Y0128962D01*
X0158192Y0128880D01*
X0158136Y0128801D01*
X0158077Y0128724D01*
X0158015Y0128650D01*
X0157949Y0128578D01*
X0157881Y0128509D01*
X0157810Y0128443D01*
X0157737Y0128380D01*
X0157660Y0128320D01*
X0157582Y0128263D01*
X0157501Y0128210D01*
X0157418Y0128159D01*
X0157333Y0128113D01*
X0157246Y0128069D01*
X0157158Y0128030D01*
X0157068Y0127994D01*
X0156976Y0127962D01*
X0156883Y0127933D01*
X0156790Y0127909D01*
X0156695Y0127888D01*
X0156599Y0127871D01*
X0156503Y0127858D01*
X0156407Y0127849D01*
X0156310Y0127844D01*
X0156213Y0127843D01*
X0156116Y0127846D01*
X0156019Y0127853D01*
X0155923Y0127864D01*
X0155827Y0127879D01*
X0155732Y0127898D01*
X0155637Y0127920D01*
X0155544Y0127947D01*
X0155452Y0127977D01*
X0155361Y0128011D01*
X0155272Y0128049D01*
X0155184Y0128091D01*
X0155098Y0128136D01*
X0155014Y0128184D01*
X0154932Y0128236D01*
X0154853Y0128291D01*
X0154775Y0128350D01*
X0154700Y0128411D01*
X0154628Y0128476D01*
X0154558Y0128543D01*
X0154491Y0128614D01*
X0154428Y0128687D01*
X0154367Y0128762D01*
X0154309Y0128840D01*
X0154255Y0128921D01*
X0154204Y0129003D01*
X0154156Y0129088D01*
X0154112Y0129174D01*
X0154071Y0129262D01*
X0154035Y0129352D01*
X0154001Y0129443D01*
X0153972Y0129535D01*
X0153946Y0129629D01*
X0153925Y0129723D01*
X0153907Y0129819D01*
X0153893Y0129915D01*
X0153883Y0130011D01*
X0153877Y0130108D01*
X0153875Y0130205D01*
X0068166Y0464024D02*
X0068168Y0464108D01*
X0068174Y0464191D01*
X0068184Y0464274D01*
X0068198Y0464357D01*
X0068215Y0464439D01*
X0068237Y0464520D01*
X0068262Y0464599D01*
X0068291Y0464678D01*
X0068324Y0464755D01*
X0068360Y0464830D01*
X0068400Y0464904D01*
X0068443Y0464976D01*
X0068490Y0465045D01*
X0068540Y0465112D01*
X0068593Y0465177D01*
X0068649Y0465239D01*
X0068707Y0465299D01*
X0068769Y0465356D01*
X0068833Y0465409D01*
X0068900Y0465460D01*
X0068969Y0465507D01*
X0069040Y0465552D01*
X0069113Y0465592D01*
X0069188Y0465629D01*
X0069265Y0465663D01*
X0069343Y0465693D01*
X0069422Y0465719D01*
X0069503Y0465742D01*
X0069585Y0465760D01*
X0069667Y0465775D01*
X0069750Y0465786D01*
X0069833Y0465793D01*
X0069917Y0465796D01*
X0070001Y0465795D01*
X0070084Y0465790D01*
X0070168Y0465781D01*
X0070250Y0465768D01*
X0070332Y0465752D01*
X0070413Y0465731D01*
X0070494Y0465707D01*
X0070572Y0465679D01*
X0070650Y0465647D01*
X0070726Y0465611D01*
X0070800Y0465572D01*
X0070872Y0465530D01*
X0070942Y0465484D01*
X0071010Y0465435D01*
X0071075Y0465383D01*
X0071138Y0465328D01*
X0071198Y0465270D01*
X0071256Y0465209D01*
X0071310Y0465145D01*
X0071362Y0465079D01*
X0071410Y0465011D01*
X0071455Y0464940D01*
X0071496Y0464867D01*
X0071535Y0464793D01*
X0071569Y0464717D01*
X0071600Y0464639D01*
X0071627Y0464560D01*
X0071651Y0464479D01*
X0071670Y0464398D01*
X0071686Y0464316D01*
X0071698Y0464233D01*
X0071706Y0464149D01*
X0071710Y0464066D01*
X0071710Y0463982D01*
X0071706Y0463899D01*
X0071698Y0463815D01*
X0071686Y0463732D01*
X0071670Y0463650D01*
X0071651Y0463569D01*
X0071627Y0463488D01*
X0071600Y0463409D01*
X0071569Y0463331D01*
X0071535Y0463255D01*
X0071496Y0463181D01*
X0071455Y0463108D01*
X0071410Y0463037D01*
X0071362Y0462969D01*
X0071310Y0462903D01*
X0071256Y0462839D01*
X0071198Y0462778D01*
X0071138Y0462720D01*
X0071075Y0462665D01*
X0071010Y0462613D01*
X0070942Y0462564D01*
X0070872Y0462518D01*
X0070800Y0462476D01*
X0070726Y0462437D01*
X0070650Y0462401D01*
X0070572Y0462369D01*
X0070494Y0462341D01*
X0070413Y0462317D01*
X0070332Y0462296D01*
X0070250Y0462280D01*
X0070168Y0462267D01*
X0070084Y0462258D01*
X0070001Y0462253D01*
X0069917Y0462252D01*
X0069833Y0462255D01*
X0069750Y0462262D01*
X0069667Y0462273D01*
X0069585Y0462288D01*
X0069503Y0462306D01*
X0069422Y0462329D01*
X0069343Y0462355D01*
X0069265Y0462385D01*
X0069188Y0462419D01*
X0069113Y0462456D01*
X0069040Y0462496D01*
X0068969Y0462541D01*
X0068900Y0462588D01*
X0068833Y0462639D01*
X0068769Y0462692D01*
X0068707Y0462749D01*
X0068649Y0462809D01*
X0068593Y0462871D01*
X0068540Y0462936D01*
X0068490Y0463003D01*
X0068443Y0463072D01*
X0068400Y0463144D01*
X0068360Y0463218D01*
X0068324Y0463293D01*
X0068291Y0463370D01*
X0068262Y0463449D01*
X0068237Y0463528D01*
X0068215Y0463609D01*
X0068198Y0463691D01*
X0068184Y0463774D01*
X0068174Y0463857D01*
X0068168Y0463940D01*
X0068166Y0464024D01*
X0056355Y0464024D02*
X0056357Y0464108D01*
X0056363Y0464191D01*
X0056373Y0464274D01*
X0056387Y0464357D01*
X0056404Y0464439D01*
X0056426Y0464520D01*
X0056451Y0464599D01*
X0056480Y0464678D01*
X0056513Y0464755D01*
X0056549Y0464830D01*
X0056589Y0464904D01*
X0056632Y0464976D01*
X0056679Y0465045D01*
X0056729Y0465112D01*
X0056782Y0465177D01*
X0056838Y0465239D01*
X0056896Y0465299D01*
X0056958Y0465356D01*
X0057022Y0465409D01*
X0057089Y0465460D01*
X0057158Y0465507D01*
X0057229Y0465552D01*
X0057302Y0465592D01*
X0057377Y0465629D01*
X0057454Y0465663D01*
X0057532Y0465693D01*
X0057611Y0465719D01*
X0057692Y0465742D01*
X0057774Y0465760D01*
X0057856Y0465775D01*
X0057939Y0465786D01*
X0058022Y0465793D01*
X0058106Y0465796D01*
X0058190Y0465795D01*
X0058273Y0465790D01*
X0058357Y0465781D01*
X0058439Y0465768D01*
X0058521Y0465752D01*
X0058602Y0465731D01*
X0058683Y0465707D01*
X0058761Y0465679D01*
X0058839Y0465647D01*
X0058915Y0465611D01*
X0058989Y0465572D01*
X0059061Y0465530D01*
X0059131Y0465484D01*
X0059199Y0465435D01*
X0059264Y0465383D01*
X0059327Y0465328D01*
X0059387Y0465270D01*
X0059445Y0465209D01*
X0059499Y0465145D01*
X0059551Y0465079D01*
X0059599Y0465011D01*
X0059644Y0464940D01*
X0059685Y0464867D01*
X0059724Y0464793D01*
X0059758Y0464717D01*
X0059789Y0464639D01*
X0059816Y0464560D01*
X0059840Y0464479D01*
X0059859Y0464398D01*
X0059875Y0464316D01*
X0059887Y0464233D01*
X0059895Y0464149D01*
X0059899Y0464066D01*
X0059899Y0463982D01*
X0059895Y0463899D01*
X0059887Y0463815D01*
X0059875Y0463732D01*
X0059859Y0463650D01*
X0059840Y0463569D01*
X0059816Y0463488D01*
X0059789Y0463409D01*
X0059758Y0463331D01*
X0059724Y0463255D01*
X0059685Y0463181D01*
X0059644Y0463108D01*
X0059599Y0463037D01*
X0059551Y0462969D01*
X0059499Y0462903D01*
X0059445Y0462839D01*
X0059387Y0462778D01*
X0059327Y0462720D01*
X0059264Y0462665D01*
X0059199Y0462613D01*
X0059131Y0462564D01*
X0059061Y0462518D01*
X0058989Y0462476D01*
X0058915Y0462437D01*
X0058839Y0462401D01*
X0058761Y0462369D01*
X0058683Y0462341D01*
X0058602Y0462317D01*
X0058521Y0462296D01*
X0058439Y0462280D01*
X0058357Y0462267D01*
X0058273Y0462258D01*
X0058190Y0462253D01*
X0058106Y0462252D01*
X0058022Y0462255D01*
X0057939Y0462262D01*
X0057856Y0462273D01*
X0057774Y0462288D01*
X0057692Y0462306D01*
X0057611Y0462329D01*
X0057532Y0462355D01*
X0057454Y0462385D01*
X0057377Y0462419D01*
X0057302Y0462456D01*
X0057229Y0462496D01*
X0057158Y0462541D01*
X0057089Y0462588D01*
X0057022Y0462639D01*
X0056958Y0462692D01*
X0056896Y0462749D01*
X0056838Y0462809D01*
X0056782Y0462871D01*
X0056729Y0462936D01*
X0056679Y0463003D01*
X0056632Y0463072D01*
X0056589Y0463144D01*
X0056549Y0463218D01*
X0056513Y0463293D01*
X0056480Y0463370D01*
X0056451Y0463449D01*
X0056426Y0463528D01*
X0056404Y0463609D01*
X0056387Y0463691D01*
X0056373Y0463774D01*
X0056363Y0463857D01*
X0056357Y0463940D01*
X0056355Y0464024D01*
D11*
X0023087Y0439614D02*
X0023089Y0439757D01*
X0023095Y0439900D01*
X0023105Y0440042D01*
X0023119Y0440184D01*
X0023137Y0440326D01*
X0023159Y0440468D01*
X0023184Y0440608D01*
X0023214Y0440748D01*
X0023248Y0440887D01*
X0023285Y0441025D01*
X0023327Y0441162D01*
X0023372Y0441297D01*
X0023421Y0441431D01*
X0023473Y0441564D01*
X0023529Y0441696D01*
X0023589Y0441825D01*
X0023653Y0441953D01*
X0023720Y0442080D01*
X0023791Y0442204D01*
X0023865Y0442326D01*
X0023942Y0442446D01*
X0024023Y0442564D01*
X0024107Y0442680D01*
X0024194Y0442793D01*
X0024284Y0442904D01*
X0024378Y0443012D01*
X0024474Y0443118D01*
X0024573Y0443220D01*
X0024676Y0443320D01*
X0024780Y0443417D01*
X0024888Y0443512D01*
X0024998Y0443603D01*
X0025111Y0443691D01*
X0025226Y0443775D01*
X0025343Y0443857D01*
X0025463Y0443935D01*
X0025584Y0444010D01*
X0025708Y0444082D01*
X0025834Y0444150D01*
X0025961Y0444214D01*
X0026091Y0444275D01*
X0026222Y0444332D01*
X0026354Y0444386D01*
X0026488Y0444435D01*
X0026623Y0444482D01*
X0026760Y0444524D01*
X0026898Y0444562D01*
X0027036Y0444597D01*
X0027176Y0444627D01*
X0027316Y0444654D01*
X0027457Y0444677D01*
X0027599Y0444696D01*
X0027741Y0444711D01*
X0027884Y0444722D01*
X0028026Y0444729D01*
X0028169Y0444732D01*
X0028312Y0444731D01*
X0028455Y0444726D01*
X0028598Y0444717D01*
X0028740Y0444704D01*
X0028882Y0444687D01*
X0029023Y0444666D01*
X0029164Y0444641D01*
X0029304Y0444613D01*
X0029443Y0444580D01*
X0029581Y0444543D01*
X0029718Y0444503D01*
X0029854Y0444459D01*
X0029989Y0444411D01*
X0030122Y0444359D01*
X0030254Y0444304D01*
X0030384Y0444245D01*
X0030513Y0444182D01*
X0030639Y0444116D01*
X0030764Y0444046D01*
X0030887Y0443973D01*
X0031007Y0443897D01*
X0031126Y0443817D01*
X0031242Y0443733D01*
X0031356Y0443647D01*
X0031467Y0443557D01*
X0031576Y0443465D01*
X0031682Y0443369D01*
X0031786Y0443271D01*
X0031887Y0443169D01*
X0031984Y0443065D01*
X0032079Y0442958D01*
X0032171Y0442849D01*
X0032260Y0442737D01*
X0032346Y0442622D01*
X0032428Y0442506D01*
X0032507Y0442386D01*
X0032583Y0442265D01*
X0032655Y0442142D01*
X0032724Y0442017D01*
X0032789Y0441890D01*
X0032851Y0441761D01*
X0032909Y0441630D01*
X0032964Y0441498D01*
X0033014Y0441364D01*
X0033061Y0441229D01*
X0033105Y0441093D01*
X0033144Y0440956D01*
X0033179Y0440817D01*
X0033211Y0440678D01*
X0033239Y0440538D01*
X0033263Y0440397D01*
X0033283Y0440255D01*
X0033299Y0440113D01*
X0033311Y0439971D01*
X0033319Y0439828D01*
X0033323Y0439685D01*
X0033323Y0439543D01*
X0033319Y0439400D01*
X0033311Y0439257D01*
X0033299Y0439115D01*
X0033283Y0438973D01*
X0033263Y0438831D01*
X0033239Y0438690D01*
X0033211Y0438550D01*
X0033179Y0438411D01*
X0033144Y0438272D01*
X0033105Y0438135D01*
X0033061Y0437999D01*
X0033014Y0437864D01*
X0032964Y0437730D01*
X0032909Y0437598D01*
X0032851Y0437467D01*
X0032789Y0437338D01*
X0032724Y0437211D01*
X0032655Y0437086D01*
X0032583Y0436963D01*
X0032507Y0436842D01*
X0032428Y0436722D01*
X0032346Y0436606D01*
X0032260Y0436491D01*
X0032171Y0436379D01*
X0032079Y0436270D01*
X0031984Y0436163D01*
X0031887Y0436059D01*
X0031786Y0435957D01*
X0031682Y0435859D01*
X0031576Y0435763D01*
X0031467Y0435671D01*
X0031356Y0435581D01*
X0031242Y0435495D01*
X0031126Y0435411D01*
X0031007Y0435331D01*
X0030887Y0435255D01*
X0030764Y0435182D01*
X0030639Y0435112D01*
X0030513Y0435046D01*
X0030384Y0434983D01*
X0030254Y0434924D01*
X0030122Y0434869D01*
X0029989Y0434817D01*
X0029854Y0434769D01*
X0029718Y0434725D01*
X0029581Y0434685D01*
X0029443Y0434648D01*
X0029304Y0434615D01*
X0029164Y0434587D01*
X0029023Y0434562D01*
X0028882Y0434541D01*
X0028740Y0434524D01*
X0028598Y0434511D01*
X0028455Y0434502D01*
X0028312Y0434497D01*
X0028169Y0434496D01*
X0028026Y0434499D01*
X0027884Y0434506D01*
X0027741Y0434517D01*
X0027599Y0434532D01*
X0027457Y0434551D01*
X0027316Y0434574D01*
X0027176Y0434601D01*
X0027036Y0434631D01*
X0026898Y0434666D01*
X0026760Y0434704D01*
X0026623Y0434746D01*
X0026488Y0434793D01*
X0026354Y0434842D01*
X0026222Y0434896D01*
X0026091Y0434953D01*
X0025961Y0435014D01*
X0025834Y0435078D01*
X0025708Y0435146D01*
X0025584Y0435218D01*
X0025463Y0435293D01*
X0025343Y0435371D01*
X0025226Y0435453D01*
X0025111Y0435537D01*
X0024998Y0435625D01*
X0024888Y0435716D01*
X0024780Y0435811D01*
X0024676Y0435908D01*
X0024573Y0436008D01*
X0024474Y0436110D01*
X0024378Y0436216D01*
X0024284Y0436324D01*
X0024194Y0436435D01*
X0024107Y0436548D01*
X0024023Y0436664D01*
X0023942Y0436782D01*
X0023865Y0436902D01*
X0023791Y0437024D01*
X0023720Y0437148D01*
X0023653Y0437275D01*
X0023589Y0437403D01*
X0023529Y0437532D01*
X0023473Y0437664D01*
X0023421Y0437797D01*
X0023372Y0437931D01*
X0023327Y0438066D01*
X0023285Y0438203D01*
X0023248Y0438341D01*
X0023214Y0438480D01*
X0023184Y0438620D01*
X0023159Y0438760D01*
X0023137Y0438902D01*
X0023119Y0439044D01*
X0023105Y0439186D01*
X0023095Y0439328D01*
X0023089Y0439471D01*
X0023087Y0439614D01*
X0023087Y0268354D02*
X0023089Y0268497D01*
X0023095Y0268640D01*
X0023105Y0268782D01*
X0023119Y0268924D01*
X0023137Y0269066D01*
X0023159Y0269208D01*
X0023184Y0269348D01*
X0023214Y0269488D01*
X0023248Y0269627D01*
X0023285Y0269765D01*
X0023327Y0269902D01*
X0023372Y0270037D01*
X0023421Y0270171D01*
X0023473Y0270304D01*
X0023529Y0270436D01*
X0023589Y0270565D01*
X0023653Y0270693D01*
X0023720Y0270820D01*
X0023791Y0270944D01*
X0023865Y0271066D01*
X0023942Y0271186D01*
X0024023Y0271304D01*
X0024107Y0271420D01*
X0024194Y0271533D01*
X0024284Y0271644D01*
X0024378Y0271752D01*
X0024474Y0271858D01*
X0024573Y0271960D01*
X0024676Y0272060D01*
X0024780Y0272157D01*
X0024888Y0272252D01*
X0024998Y0272343D01*
X0025111Y0272431D01*
X0025226Y0272515D01*
X0025343Y0272597D01*
X0025463Y0272675D01*
X0025584Y0272750D01*
X0025708Y0272822D01*
X0025834Y0272890D01*
X0025961Y0272954D01*
X0026091Y0273015D01*
X0026222Y0273072D01*
X0026354Y0273126D01*
X0026488Y0273175D01*
X0026623Y0273222D01*
X0026760Y0273264D01*
X0026898Y0273302D01*
X0027036Y0273337D01*
X0027176Y0273367D01*
X0027316Y0273394D01*
X0027457Y0273417D01*
X0027599Y0273436D01*
X0027741Y0273451D01*
X0027884Y0273462D01*
X0028026Y0273469D01*
X0028169Y0273472D01*
X0028312Y0273471D01*
X0028455Y0273466D01*
X0028598Y0273457D01*
X0028740Y0273444D01*
X0028882Y0273427D01*
X0029023Y0273406D01*
X0029164Y0273381D01*
X0029304Y0273353D01*
X0029443Y0273320D01*
X0029581Y0273283D01*
X0029718Y0273243D01*
X0029854Y0273199D01*
X0029989Y0273151D01*
X0030122Y0273099D01*
X0030254Y0273044D01*
X0030384Y0272985D01*
X0030513Y0272922D01*
X0030639Y0272856D01*
X0030764Y0272786D01*
X0030887Y0272713D01*
X0031007Y0272637D01*
X0031126Y0272557D01*
X0031242Y0272473D01*
X0031356Y0272387D01*
X0031467Y0272297D01*
X0031576Y0272205D01*
X0031682Y0272109D01*
X0031786Y0272011D01*
X0031887Y0271909D01*
X0031984Y0271805D01*
X0032079Y0271698D01*
X0032171Y0271589D01*
X0032260Y0271477D01*
X0032346Y0271362D01*
X0032428Y0271246D01*
X0032507Y0271126D01*
X0032583Y0271005D01*
X0032655Y0270882D01*
X0032724Y0270757D01*
X0032789Y0270630D01*
X0032851Y0270501D01*
X0032909Y0270370D01*
X0032964Y0270238D01*
X0033014Y0270104D01*
X0033061Y0269969D01*
X0033105Y0269833D01*
X0033144Y0269696D01*
X0033179Y0269557D01*
X0033211Y0269418D01*
X0033239Y0269278D01*
X0033263Y0269137D01*
X0033283Y0268995D01*
X0033299Y0268853D01*
X0033311Y0268711D01*
X0033319Y0268568D01*
X0033323Y0268425D01*
X0033323Y0268283D01*
X0033319Y0268140D01*
X0033311Y0267997D01*
X0033299Y0267855D01*
X0033283Y0267713D01*
X0033263Y0267571D01*
X0033239Y0267430D01*
X0033211Y0267290D01*
X0033179Y0267151D01*
X0033144Y0267012D01*
X0033105Y0266875D01*
X0033061Y0266739D01*
X0033014Y0266604D01*
X0032964Y0266470D01*
X0032909Y0266338D01*
X0032851Y0266207D01*
X0032789Y0266078D01*
X0032724Y0265951D01*
X0032655Y0265826D01*
X0032583Y0265703D01*
X0032507Y0265582D01*
X0032428Y0265462D01*
X0032346Y0265346D01*
X0032260Y0265231D01*
X0032171Y0265119D01*
X0032079Y0265010D01*
X0031984Y0264903D01*
X0031887Y0264799D01*
X0031786Y0264697D01*
X0031682Y0264599D01*
X0031576Y0264503D01*
X0031467Y0264411D01*
X0031356Y0264321D01*
X0031242Y0264235D01*
X0031126Y0264151D01*
X0031007Y0264071D01*
X0030887Y0263995D01*
X0030764Y0263922D01*
X0030639Y0263852D01*
X0030513Y0263786D01*
X0030384Y0263723D01*
X0030254Y0263664D01*
X0030122Y0263609D01*
X0029989Y0263557D01*
X0029854Y0263509D01*
X0029718Y0263465D01*
X0029581Y0263425D01*
X0029443Y0263388D01*
X0029304Y0263355D01*
X0029164Y0263327D01*
X0029023Y0263302D01*
X0028882Y0263281D01*
X0028740Y0263264D01*
X0028598Y0263251D01*
X0028455Y0263242D01*
X0028312Y0263237D01*
X0028169Y0263236D01*
X0028026Y0263239D01*
X0027884Y0263246D01*
X0027741Y0263257D01*
X0027599Y0263272D01*
X0027457Y0263291D01*
X0027316Y0263314D01*
X0027176Y0263341D01*
X0027036Y0263371D01*
X0026898Y0263406D01*
X0026760Y0263444D01*
X0026623Y0263486D01*
X0026488Y0263533D01*
X0026354Y0263582D01*
X0026222Y0263636D01*
X0026091Y0263693D01*
X0025961Y0263754D01*
X0025834Y0263818D01*
X0025708Y0263886D01*
X0025584Y0263958D01*
X0025463Y0264033D01*
X0025343Y0264111D01*
X0025226Y0264193D01*
X0025111Y0264277D01*
X0024998Y0264365D01*
X0024888Y0264456D01*
X0024780Y0264551D01*
X0024676Y0264648D01*
X0024573Y0264748D01*
X0024474Y0264850D01*
X0024378Y0264956D01*
X0024284Y0265064D01*
X0024194Y0265175D01*
X0024107Y0265288D01*
X0024023Y0265404D01*
X0023942Y0265522D01*
X0023865Y0265642D01*
X0023791Y0265764D01*
X0023720Y0265888D01*
X0023653Y0266015D01*
X0023589Y0266143D01*
X0023529Y0266272D01*
X0023473Y0266404D01*
X0023421Y0266537D01*
X0023372Y0266671D01*
X0023327Y0266806D01*
X0023285Y0266943D01*
X0023248Y0267081D01*
X0023214Y0267220D01*
X0023184Y0267360D01*
X0023159Y0267500D01*
X0023137Y0267642D01*
X0023119Y0267784D01*
X0023105Y0267926D01*
X0023095Y0268068D01*
X0023089Y0268211D01*
X0023087Y0268354D01*
X0109701Y0126228D02*
X0109703Y0126359D01*
X0109709Y0126491D01*
X0109719Y0126622D01*
X0109733Y0126753D01*
X0109751Y0126883D01*
X0109773Y0127012D01*
X0109798Y0127141D01*
X0109828Y0127269D01*
X0109862Y0127396D01*
X0109899Y0127523D01*
X0109940Y0127647D01*
X0109985Y0127771D01*
X0110034Y0127893D01*
X0110086Y0128014D01*
X0110142Y0128132D01*
X0110202Y0128250D01*
X0110265Y0128365D01*
X0110332Y0128478D01*
X0110402Y0128590D01*
X0110475Y0128699D01*
X0110551Y0128805D01*
X0110631Y0128910D01*
X0110714Y0129012D01*
X0110800Y0129111D01*
X0110889Y0129208D01*
X0110981Y0129302D01*
X0111076Y0129393D01*
X0111173Y0129482D01*
X0111273Y0129567D01*
X0111376Y0129649D01*
X0111481Y0129728D01*
X0111588Y0129804D01*
X0111698Y0129876D01*
X0111810Y0129945D01*
X0111924Y0130011D01*
X0112039Y0130073D01*
X0112157Y0130132D01*
X0112276Y0130187D01*
X0112397Y0130239D01*
X0112520Y0130286D01*
X0112644Y0130330D01*
X0112769Y0130371D01*
X0112895Y0130407D01*
X0113023Y0130440D01*
X0113151Y0130468D01*
X0113280Y0130493D01*
X0113410Y0130514D01*
X0113540Y0130531D01*
X0113671Y0130544D01*
X0113802Y0130553D01*
X0113933Y0130558D01*
X0114065Y0130559D01*
X0114196Y0130556D01*
X0114328Y0130549D01*
X0114459Y0130538D01*
X0114589Y0130523D01*
X0114719Y0130504D01*
X0114849Y0130481D01*
X0114977Y0130455D01*
X0115105Y0130424D01*
X0115232Y0130389D01*
X0115358Y0130351D01*
X0115482Y0130309D01*
X0115606Y0130263D01*
X0115727Y0130213D01*
X0115847Y0130160D01*
X0115966Y0130103D01*
X0116083Y0130043D01*
X0116197Y0129979D01*
X0116310Y0129911D01*
X0116421Y0129840D01*
X0116530Y0129766D01*
X0116636Y0129689D01*
X0116740Y0129608D01*
X0116841Y0129525D01*
X0116940Y0129438D01*
X0117036Y0129348D01*
X0117129Y0129255D01*
X0117220Y0129160D01*
X0117307Y0129062D01*
X0117392Y0128961D01*
X0117473Y0128858D01*
X0117551Y0128752D01*
X0117626Y0128644D01*
X0117698Y0128534D01*
X0117766Y0128422D01*
X0117831Y0128308D01*
X0117892Y0128191D01*
X0117950Y0128073D01*
X0118004Y0127953D01*
X0118055Y0127832D01*
X0118102Y0127709D01*
X0118145Y0127585D01*
X0118184Y0127460D01*
X0118220Y0127333D01*
X0118251Y0127205D01*
X0118279Y0127077D01*
X0118303Y0126948D01*
X0118323Y0126818D01*
X0118339Y0126687D01*
X0118351Y0126556D01*
X0118359Y0126425D01*
X0118363Y0126294D01*
X0118363Y0126162D01*
X0118359Y0126031D01*
X0118351Y0125900D01*
X0118339Y0125769D01*
X0118323Y0125638D01*
X0118303Y0125508D01*
X0118279Y0125379D01*
X0118251Y0125251D01*
X0118220Y0125123D01*
X0118184Y0124996D01*
X0118145Y0124871D01*
X0118102Y0124747D01*
X0118055Y0124624D01*
X0118004Y0124503D01*
X0117950Y0124383D01*
X0117892Y0124265D01*
X0117831Y0124148D01*
X0117766Y0124034D01*
X0117698Y0123922D01*
X0117626Y0123812D01*
X0117551Y0123704D01*
X0117473Y0123598D01*
X0117392Y0123495D01*
X0117307Y0123394D01*
X0117220Y0123296D01*
X0117129Y0123201D01*
X0117036Y0123108D01*
X0116940Y0123018D01*
X0116841Y0122931D01*
X0116740Y0122848D01*
X0116636Y0122767D01*
X0116530Y0122690D01*
X0116421Y0122616D01*
X0116310Y0122545D01*
X0116198Y0122477D01*
X0116083Y0122413D01*
X0115966Y0122353D01*
X0115847Y0122296D01*
X0115727Y0122243D01*
X0115606Y0122193D01*
X0115482Y0122147D01*
X0115358Y0122105D01*
X0115232Y0122067D01*
X0115105Y0122032D01*
X0114977Y0122001D01*
X0114849Y0121975D01*
X0114719Y0121952D01*
X0114589Y0121933D01*
X0114459Y0121918D01*
X0114328Y0121907D01*
X0114196Y0121900D01*
X0114065Y0121897D01*
X0113933Y0121898D01*
X0113802Y0121903D01*
X0113671Y0121912D01*
X0113540Y0121925D01*
X0113410Y0121942D01*
X0113280Y0121963D01*
X0113151Y0121988D01*
X0113023Y0122016D01*
X0112895Y0122049D01*
X0112769Y0122085D01*
X0112644Y0122126D01*
X0112520Y0122170D01*
X0112397Y0122217D01*
X0112276Y0122269D01*
X0112157Y0122324D01*
X0112039Y0122383D01*
X0111924Y0122445D01*
X0111810Y0122511D01*
X0111698Y0122580D01*
X0111588Y0122652D01*
X0111481Y0122728D01*
X0111376Y0122807D01*
X0111273Y0122889D01*
X0111173Y0122974D01*
X0111076Y0123063D01*
X0110981Y0123154D01*
X0110889Y0123248D01*
X0110800Y0123345D01*
X0110714Y0123444D01*
X0110631Y0123546D01*
X0110551Y0123651D01*
X0110475Y0123757D01*
X0110402Y0123866D01*
X0110332Y0123978D01*
X0110265Y0124091D01*
X0110202Y0124206D01*
X0110142Y0124324D01*
X0110086Y0124442D01*
X0110034Y0124563D01*
X0109985Y0124685D01*
X0109940Y0124809D01*
X0109899Y0124933D01*
X0109862Y0125060D01*
X0109828Y0125187D01*
X0109798Y0125315D01*
X0109773Y0125444D01*
X0109751Y0125573D01*
X0109733Y0125703D01*
X0109719Y0125834D01*
X0109709Y0125965D01*
X0109703Y0126097D01*
X0109701Y0126228D01*
X0104977Y0107331D02*
X0104979Y0107474D01*
X0104985Y0107617D01*
X0104995Y0107759D01*
X0105009Y0107901D01*
X0105027Y0108043D01*
X0105049Y0108185D01*
X0105074Y0108325D01*
X0105104Y0108465D01*
X0105138Y0108604D01*
X0105175Y0108742D01*
X0105217Y0108879D01*
X0105262Y0109014D01*
X0105311Y0109148D01*
X0105363Y0109281D01*
X0105419Y0109413D01*
X0105479Y0109542D01*
X0105543Y0109670D01*
X0105610Y0109797D01*
X0105681Y0109921D01*
X0105755Y0110043D01*
X0105832Y0110163D01*
X0105913Y0110281D01*
X0105997Y0110397D01*
X0106084Y0110510D01*
X0106174Y0110621D01*
X0106268Y0110729D01*
X0106364Y0110835D01*
X0106463Y0110937D01*
X0106566Y0111037D01*
X0106670Y0111134D01*
X0106778Y0111229D01*
X0106888Y0111320D01*
X0107001Y0111408D01*
X0107116Y0111492D01*
X0107233Y0111574D01*
X0107353Y0111652D01*
X0107474Y0111727D01*
X0107598Y0111799D01*
X0107724Y0111867D01*
X0107851Y0111931D01*
X0107981Y0111992D01*
X0108112Y0112049D01*
X0108244Y0112103D01*
X0108378Y0112152D01*
X0108513Y0112199D01*
X0108650Y0112241D01*
X0108788Y0112279D01*
X0108926Y0112314D01*
X0109066Y0112344D01*
X0109206Y0112371D01*
X0109347Y0112394D01*
X0109489Y0112413D01*
X0109631Y0112428D01*
X0109774Y0112439D01*
X0109916Y0112446D01*
X0110059Y0112449D01*
X0110202Y0112448D01*
X0110345Y0112443D01*
X0110488Y0112434D01*
X0110630Y0112421D01*
X0110772Y0112404D01*
X0110913Y0112383D01*
X0111054Y0112358D01*
X0111194Y0112330D01*
X0111333Y0112297D01*
X0111471Y0112260D01*
X0111608Y0112220D01*
X0111744Y0112176D01*
X0111879Y0112128D01*
X0112012Y0112076D01*
X0112144Y0112021D01*
X0112274Y0111962D01*
X0112403Y0111899D01*
X0112529Y0111833D01*
X0112654Y0111763D01*
X0112777Y0111690D01*
X0112897Y0111614D01*
X0113016Y0111534D01*
X0113132Y0111450D01*
X0113246Y0111364D01*
X0113357Y0111274D01*
X0113466Y0111182D01*
X0113572Y0111086D01*
X0113676Y0110988D01*
X0113777Y0110886D01*
X0113874Y0110782D01*
X0113969Y0110675D01*
X0114061Y0110566D01*
X0114150Y0110454D01*
X0114236Y0110339D01*
X0114318Y0110223D01*
X0114397Y0110103D01*
X0114473Y0109982D01*
X0114545Y0109859D01*
X0114614Y0109734D01*
X0114679Y0109607D01*
X0114741Y0109478D01*
X0114799Y0109347D01*
X0114854Y0109215D01*
X0114904Y0109081D01*
X0114951Y0108946D01*
X0114995Y0108810D01*
X0115034Y0108673D01*
X0115069Y0108534D01*
X0115101Y0108395D01*
X0115129Y0108255D01*
X0115153Y0108114D01*
X0115173Y0107972D01*
X0115189Y0107830D01*
X0115201Y0107688D01*
X0115209Y0107545D01*
X0115213Y0107402D01*
X0115213Y0107260D01*
X0115209Y0107117D01*
X0115201Y0106974D01*
X0115189Y0106832D01*
X0115173Y0106690D01*
X0115153Y0106548D01*
X0115129Y0106407D01*
X0115101Y0106267D01*
X0115069Y0106128D01*
X0115034Y0105989D01*
X0114995Y0105852D01*
X0114951Y0105716D01*
X0114904Y0105581D01*
X0114854Y0105447D01*
X0114799Y0105315D01*
X0114741Y0105184D01*
X0114679Y0105055D01*
X0114614Y0104928D01*
X0114545Y0104803D01*
X0114473Y0104680D01*
X0114397Y0104559D01*
X0114318Y0104439D01*
X0114236Y0104323D01*
X0114150Y0104208D01*
X0114061Y0104096D01*
X0113969Y0103987D01*
X0113874Y0103880D01*
X0113777Y0103776D01*
X0113676Y0103674D01*
X0113572Y0103576D01*
X0113466Y0103480D01*
X0113357Y0103388D01*
X0113246Y0103298D01*
X0113132Y0103212D01*
X0113016Y0103128D01*
X0112897Y0103048D01*
X0112777Y0102972D01*
X0112654Y0102899D01*
X0112529Y0102829D01*
X0112403Y0102763D01*
X0112274Y0102700D01*
X0112144Y0102641D01*
X0112012Y0102586D01*
X0111879Y0102534D01*
X0111744Y0102486D01*
X0111608Y0102442D01*
X0111471Y0102402D01*
X0111333Y0102365D01*
X0111194Y0102332D01*
X0111054Y0102304D01*
X0110913Y0102279D01*
X0110772Y0102258D01*
X0110630Y0102241D01*
X0110488Y0102228D01*
X0110345Y0102219D01*
X0110202Y0102214D01*
X0110059Y0102213D01*
X0109916Y0102216D01*
X0109774Y0102223D01*
X0109631Y0102234D01*
X0109489Y0102249D01*
X0109347Y0102268D01*
X0109206Y0102291D01*
X0109066Y0102318D01*
X0108926Y0102348D01*
X0108788Y0102383D01*
X0108650Y0102421D01*
X0108513Y0102463D01*
X0108378Y0102510D01*
X0108244Y0102559D01*
X0108112Y0102613D01*
X0107981Y0102670D01*
X0107851Y0102731D01*
X0107724Y0102795D01*
X0107598Y0102863D01*
X0107474Y0102935D01*
X0107353Y0103010D01*
X0107233Y0103088D01*
X0107116Y0103170D01*
X0107001Y0103254D01*
X0106888Y0103342D01*
X0106778Y0103433D01*
X0106670Y0103528D01*
X0106566Y0103625D01*
X0106463Y0103725D01*
X0106364Y0103827D01*
X0106268Y0103933D01*
X0106174Y0104041D01*
X0106084Y0104152D01*
X0105997Y0104265D01*
X0105913Y0104381D01*
X0105832Y0104499D01*
X0105755Y0104619D01*
X0105681Y0104741D01*
X0105610Y0104865D01*
X0105543Y0104992D01*
X0105479Y0105120D01*
X0105419Y0105249D01*
X0105363Y0105381D01*
X0105311Y0105514D01*
X0105262Y0105648D01*
X0105217Y0105783D01*
X0105175Y0105920D01*
X0105138Y0106058D01*
X0105104Y0106197D01*
X0105074Y0106337D01*
X0105049Y0106477D01*
X0105027Y0106619D01*
X0105009Y0106761D01*
X0104995Y0106903D01*
X0104985Y0107045D01*
X0104979Y0107188D01*
X0104977Y0107331D01*
X0130568Y0151425D02*
X0130570Y0151562D01*
X0130576Y0151700D01*
X0130586Y0151837D01*
X0130600Y0151973D01*
X0130618Y0152110D01*
X0130640Y0152245D01*
X0130666Y0152380D01*
X0130695Y0152514D01*
X0130729Y0152648D01*
X0130766Y0152780D01*
X0130808Y0152911D01*
X0130853Y0153041D01*
X0130902Y0153169D01*
X0130954Y0153296D01*
X0131011Y0153421D01*
X0131070Y0153545D01*
X0131134Y0153667D01*
X0131201Y0153787D01*
X0131271Y0153905D01*
X0131345Y0154021D01*
X0131422Y0154135D01*
X0131503Y0154246D01*
X0131586Y0154355D01*
X0131673Y0154462D01*
X0131763Y0154565D01*
X0131856Y0154667D01*
X0131952Y0154765D01*
X0132050Y0154861D01*
X0132152Y0154954D01*
X0132255Y0155044D01*
X0132362Y0155131D01*
X0132471Y0155214D01*
X0132582Y0155295D01*
X0132696Y0155372D01*
X0132812Y0155446D01*
X0132930Y0155516D01*
X0133050Y0155583D01*
X0133172Y0155647D01*
X0133296Y0155706D01*
X0133421Y0155763D01*
X0133548Y0155815D01*
X0133676Y0155864D01*
X0133806Y0155909D01*
X0133937Y0155951D01*
X0134069Y0155988D01*
X0134203Y0156022D01*
X0134337Y0156051D01*
X0134472Y0156077D01*
X0134607Y0156099D01*
X0134744Y0156117D01*
X0134880Y0156131D01*
X0135017Y0156141D01*
X0135155Y0156147D01*
X0135292Y0156149D01*
X0135429Y0156147D01*
X0135567Y0156141D01*
X0135704Y0156131D01*
X0135840Y0156117D01*
X0135977Y0156099D01*
X0136112Y0156077D01*
X0136247Y0156051D01*
X0136381Y0156022D01*
X0136515Y0155988D01*
X0136647Y0155951D01*
X0136778Y0155909D01*
X0136908Y0155864D01*
X0137036Y0155815D01*
X0137163Y0155763D01*
X0137288Y0155706D01*
X0137412Y0155647D01*
X0137534Y0155583D01*
X0137654Y0155516D01*
X0137772Y0155446D01*
X0137888Y0155372D01*
X0138002Y0155295D01*
X0138113Y0155214D01*
X0138222Y0155131D01*
X0138329Y0155044D01*
X0138432Y0154954D01*
X0138534Y0154861D01*
X0138632Y0154765D01*
X0138728Y0154667D01*
X0138821Y0154565D01*
X0138911Y0154462D01*
X0138998Y0154355D01*
X0139081Y0154246D01*
X0139162Y0154135D01*
X0139239Y0154021D01*
X0139313Y0153905D01*
X0139383Y0153787D01*
X0139450Y0153667D01*
X0139514Y0153545D01*
X0139573Y0153421D01*
X0139630Y0153296D01*
X0139682Y0153169D01*
X0139731Y0153041D01*
X0139776Y0152911D01*
X0139818Y0152780D01*
X0139855Y0152648D01*
X0139889Y0152514D01*
X0139918Y0152380D01*
X0139944Y0152245D01*
X0139966Y0152110D01*
X0139984Y0151973D01*
X0139998Y0151837D01*
X0140008Y0151700D01*
X0140014Y0151562D01*
X0140016Y0151425D01*
X0140014Y0151288D01*
X0140008Y0151150D01*
X0139998Y0151013D01*
X0139984Y0150877D01*
X0139966Y0150740D01*
X0139944Y0150605D01*
X0139918Y0150470D01*
X0139889Y0150336D01*
X0139855Y0150202D01*
X0139818Y0150070D01*
X0139776Y0149939D01*
X0139731Y0149809D01*
X0139682Y0149681D01*
X0139630Y0149554D01*
X0139573Y0149429D01*
X0139514Y0149305D01*
X0139450Y0149183D01*
X0139383Y0149063D01*
X0139313Y0148945D01*
X0139239Y0148829D01*
X0139162Y0148715D01*
X0139081Y0148604D01*
X0138998Y0148495D01*
X0138911Y0148388D01*
X0138821Y0148285D01*
X0138728Y0148183D01*
X0138632Y0148085D01*
X0138534Y0147989D01*
X0138432Y0147896D01*
X0138329Y0147806D01*
X0138222Y0147719D01*
X0138113Y0147636D01*
X0138002Y0147555D01*
X0137888Y0147478D01*
X0137772Y0147404D01*
X0137654Y0147334D01*
X0137534Y0147267D01*
X0137412Y0147203D01*
X0137288Y0147144D01*
X0137163Y0147087D01*
X0137036Y0147035D01*
X0136908Y0146986D01*
X0136778Y0146941D01*
X0136647Y0146899D01*
X0136515Y0146862D01*
X0136381Y0146828D01*
X0136247Y0146799D01*
X0136112Y0146773D01*
X0135977Y0146751D01*
X0135840Y0146733D01*
X0135704Y0146719D01*
X0135567Y0146709D01*
X0135429Y0146703D01*
X0135292Y0146701D01*
X0135155Y0146703D01*
X0135017Y0146709D01*
X0134880Y0146719D01*
X0134744Y0146733D01*
X0134607Y0146751D01*
X0134472Y0146773D01*
X0134337Y0146799D01*
X0134203Y0146828D01*
X0134069Y0146862D01*
X0133937Y0146899D01*
X0133806Y0146941D01*
X0133676Y0146986D01*
X0133548Y0147035D01*
X0133421Y0147087D01*
X0133296Y0147144D01*
X0133172Y0147203D01*
X0133050Y0147267D01*
X0132930Y0147334D01*
X0132812Y0147404D01*
X0132696Y0147478D01*
X0132582Y0147555D01*
X0132471Y0147636D01*
X0132362Y0147719D01*
X0132255Y0147806D01*
X0132152Y0147896D01*
X0132050Y0147989D01*
X0131952Y0148085D01*
X0131856Y0148183D01*
X0131763Y0148285D01*
X0131673Y0148388D01*
X0131586Y0148495D01*
X0131503Y0148604D01*
X0131422Y0148715D01*
X0131345Y0148829D01*
X0131271Y0148945D01*
X0131201Y0149063D01*
X0131134Y0149183D01*
X0131070Y0149305D01*
X0131011Y0149429D01*
X0130954Y0149554D01*
X0130902Y0149681D01*
X0130853Y0149809D01*
X0130808Y0149939D01*
X0130766Y0150070D01*
X0130729Y0150202D01*
X0130695Y0150336D01*
X0130666Y0150470D01*
X0130640Y0150605D01*
X0130618Y0150740D01*
X0130600Y0150877D01*
X0130586Y0151013D01*
X0130576Y0151150D01*
X0130570Y0151288D01*
X0130568Y0151425D01*
X0197300Y0107331D02*
X0197302Y0107500D01*
X0197308Y0107669D01*
X0197319Y0107838D01*
X0197333Y0108006D01*
X0197352Y0108174D01*
X0197375Y0108342D01*
X0197401Y0108509D01*
X0197432Y0108675D01*
X0197467Y0108841D01*
X0197506Y0109005D01*
X0197550Y0109169D01*
X0197597Y0109331D01*
X0197648Y0109492D01*
X0197703Y0109652D01*
X0197762Y0109811D01*
X0197824Y0109968D01*
X0197891Y0110123D01*
X0197962Y0110277D01*
X0198036Y0110429D01*
X0198114Y0110579D01*
X0198195Y0110727D01*
X0198280Y0110873D01*
X0198369Y0111017D01*
X0198461Y0111159D01*
X0198557Y0111298D01*
X0198656Y0111435D01*
X0198758Y0111570D01*
X0198864Y0111702D01*
X0198973Y0111831D01*
X0199085Y0111958D01*
X0199200Y0112082D01*
X0199318Y0112203D01*
X0199439Y0112321D01*
X0199563Y0112436D01*
X0199690Y0112548D01*
X0199819Y0112657D01*
X0199951Y0112763D01*
X0200086Y0112865D01*
X0200223Y0112964D01*
X0200362Y0113060D01*
X0200504Y0113152D01*
X0200648Y0113241D01*
X0200794Y0113326D01*
X0200942Y0113407D01*
X0201092Y0113485D01*
X0201244Y0113559D01*
X0201398Y0113630D01*
X0201553Y0113697D01*
X0201710Y0113759D01*
X0201869Y0113818D01*
X0202029Y0113873D01*
X0202190Y0113924D01*
X0202352Y0113971D01*
X0202516Y0114015D01*
X0202680Y0114054D01*
X0202846Y0114089D01*
X0203012Y0114120D01*
X0203179Y0114146D01*
X0203347Y0114169D01*
X0203515Y0114188D01*
X0203683Y0114202D01*
X0203852Y0114213D01*
X0204021Y0114219D01*
X0204190Y0114221D01*
X0204359Y0114219D01*
X0204528Y0114213D01*
X0204697Y0114202D01*
X0204865Y0114188D01*
X0205033Y0114169D01*
X0205201Y0114146D01*
X0205368Y0114120D01*
X0205534Y0114089D01*
X0205700Y0114054D01*
X0205864Y0114015D01*
X0206028Y0113971D01*
X0206190Y0113924D01*
X0206351Y0113873D01*
X0206511Y0113818D01*
X0206670Y0113759D01*
X0206827Y0113697D01*
X0206982Y0113630D01*
X0207136Y0113559D01*
X0207288Y0113485D01*
X0207438Y0113407D01*
X0207586Y0113326D01*
X0207732Y0113241D01*
X0207876Y0113152D01*
X0208018Y0113060D01*
X0208157Y0112964D01*
X0208294Y0112865D01*
X0208429Y0112763D01*
X0208561Y0112657D01*
X0208690Y0112548D01*
X0208817Y0112436D01*
X0208941Y0112321D01*
X0209062Y0112203D01*
X0209180Y0112082D01*
X0209295Y0111958D01*
X0209407Y0111831D01*
X0209516Y0111702D01*
X0209622Y0111570D01*
X0209724Y0111435D01*
X0209823Y0111298D01*
X0209919Y0111159D01*
X0210011Y0111017D01*
X0210100Y0110873D01*
X0210185Y0110727D01*
X0210266Y0110579D01*
X0210344Y0110429D01*
X0210418Y0110277D01*
X0210489Y0110123D01*
X0210556Y0109968D01*
X0210618Y0109811D01*
X0210677Y0109652D01*
X0210732Y0109492D01*
X0210783Y0109331D01*
X0210830Y0109169D01*
X0210874Y0109005D01*
X0210913Y0108841D01*
X0210948Y0108675D01*
X0210979Y0108509D01*
X0211005Y0108342D01*
X0211028Y0108174D01*
X0211047Y0108006D01*
X0211061Y0107838D01*
X0211072Y0107669D01*
X0211078Y0107500D01*
X0211080Y0107331D01*
X0211078Y0107162D01*
X0211072Y0106993D01*
X0211061Y0106824D01*
X0211047Y0106656D01*
X0211028Y0106488D01*
X0211005Y0106320D01*
X0210979Y0106153D01*
X0210948Y0105987D01*
X0210913Y0105821D01*
X0210874Y0105657D01*
X0210830Y0105493D01*
X0210783Y0105331D01*
X0210732Y0105170D01*
X0210677Y0105010D01*
X0210618Y0104851D01*
X0210556Y0104694D01*
X0210489Y0104539D01*
X0210418Y0104385D01*
X0210344Y0104233D01*
X0210266Y0104083D01*
X0210185Y0103935D01*
X0210100Y0103789D01*
X0210011Y0103645D01*
X0209919Y0103503D01*
X0209823Y0103364D01*
X0209724Y0103227D01*
X0209622Y0103092D01*
X0209516Y0102960D01*
X0209407Y0102831D01*
X0209295Y0102704D01*
X0209180Y0102580D01*
X0209062Y0102459D01*
X0208941Y0102341D01*
X0208817Y0102226D01*
X0208690Y0102114D01*
X0208561Y0102005D01*
X0208429Y0101899D01*
X0208294Y0101797D01*
X0208157Y0101698D01*
X0208018Y0101602D01*
X0207876Y0101510D01*
X0207732Y0101421D01*
X0207586Y0101336D01*
X0207438Y0101255D01*
X0207288Y0101177D01*
X0207136Y0101103D01*
X0206982Y0101032D01*
X0206827Y0100965D01*
X0206670Y0100903D01*
X0206511Y0100844D01*
X0206351Y0100789D01*
X0206190Y0100738D01*
X0206028Y0100691D01*
X0205864Y0100647D01*
X0205700Y0100608D01*
X0205534Y0100573D01*
X0205368Y0100542D01*
X0205201Y0100516D01*
X0205033Y0100493D01*
X0204865Y0100474D01*
X0204697Y0100460D01*
X0204528Y0100449D01*
X0204359Y0100443D01*
X0204190Y0100441D01*
X0204021Y0100443D01*
X0203852Y0100449D01*
X0203683Y0100460D01*
X0203515Y0100474D01*
X0203347Y0100493D01*
X0203179Y0100516D01*
X0203012Y0100542D01*
X0202846Y0100573D01*
X0202680Y0100608D01*
X0202516Y0100647D01*
X0202352Y0100691D01*
X0202190Y0100738D01*
X0202029Y0100789D01*
X0201869Y0100844D01*
X0201710Y0100903D01*
X0201553Y0100965D01*
X0201398Y0101032D01*
X0201244Y0101103D01*
X0201092Y0101177D01*
X0200942Y0101255D01*
X0200794Y0101336D01*
X0200648Y0101421D01*
X0200504Y0101510D01*
X0200362Y0101602D01*
X0200223Y0101698D01*
X0200086Y0101797D01*
X0199951Y0101899D01*
X0199819Y0102005D01*
X0199690Y0102114D01*
X0199563Y0102226D01*
X0199439Y0102341D01*
X0199318Y0102459D01*
X0199200Y0102580D01*
X0199085Y0102704D01*
X0198973Y0102831D01*
X0198864Y0102960D01*
X0198758Y0103092D01*
X0198656Y0103227D01*
X0198557Y0103364D01*
X0198461Y0103503D01*
X0198369Y0103645D01*
X0198280Y0103789D01*
X0198195Y0103935D01*
X0198114Y0104083D01*
X0198036Y0104233D01*
X0197962Y0104385D01*
X0197891Y0104539D01*
X0197824Y0104694D01*
X0197762Y0104851D01*
X0197703Y0105010D01*
X0197648Y0105170D01*
X0197597Y0105331D01*
X0197550Y0105493D01*
X0197506Y0105657D01*
X0197467Y0105821D01*
X0197432Y0105987D01*
X0197401Y0106153D01*
X0197375Y0106320D01*
X0197352Y0106488D01*
X0197333Y0106656D01*
X0197319Y0106824D01*
X0197308Y0106993D01*
X0197302Y0107162D01*
X0197300Y0107331D01*
X0227418Y0180953D02*
X0227420Y0181084D01*
X0227426Y0181216D01*
X0227436Y0181347D01*
X0227450Y0181478D01*
X0227468Y0181608D01*
X0227490Y0181737D01*
X0227515Y0181866D01*
X0227545Y0181994D01*
X0227579Y0182121D01*
X0227616Y0182248D01*
X0227657Y0182372D01*
X0227702Y0182496D01*
X0227751Y0182618D01*
X0227803Y0182739D01*
X0227859Y0182857D01*
X0227919Y0182975D01*
X0227982Y0183090D01*
X0228049Y0183203D01*
X0228119Y0183315D01*
X0228192Y0183424D01*
X0228268Y0183530D01*
X0228348Y0183635D01*
X0228431Y0183737D01*
X0228517Y0183836D01*
X0228606Y0183933D01*
X0228698Y0184027D01*
X0228793Y0184118D01*
X0228890Y0184207D01*
X0228990Y0184292D01*
X0229093Y0184374D01*
X0229198Y0184453D01*
X0229305Y0184529D01*
X0229415Y0184601D01*
X0229527Y0184670D01*
X0229641Y0184736D01*
X0229756Y0184798D01*
X0229874Y0184857D01*
X0229993Y0184912D01*
X0230114Y0184964D01*
X0230237Y0185011D01*
X0230361Y0185055D01*
X0230486Y0185096D01*
X0230612Y0185132D01*
X0230740Y0185165D01*
X0230868Y0185193D01*
X0230997Y0185218D01*
X0231127Y0185239D01*
X0231257Y0185256D01*
X0231388Y0185269D01*
X0231519Y0185278D01*
X0231650Y0185283D01*
X0231782Y0185284D01*
X0231913Y0185281D01*
X0232045Y0185274D01*
X0232176Y0185263D01*
X0232306Y0185248D01*
X0232436Y0185229D01*
X0232566Y0185206D01*
X0232694Y0185180D01*
X0232822Y0185149D01*
X0232949Y0185114D01*
X0233075Y0185076D01*
X0233199Y0185034D01*
X0233323Y0184988D01*
X0233444Y0184938D01*
X0233564Y0184885D01*
X0233683Y0184828D01*
X0233800Y0184768D01*
X0233914Y0184704D01*
X0234027Y0184636D01*
X0234138Y0184565D01*
X0234247Y0184491D01*
X0234353Y0184414D01*
X0234457Y0184333D01*
X0234558Y0184250D01*
X0234657Y0184163D01*
X0234753Y0184073D01*
X0234846Y0183980D01*
X0234937Y0183885D01*
X0235024Y0183787D01*
X0235109Y0183686D01*
X0235190Y0183583D01*
X0235268Y0183477D01*
X0235343Y0183369D01*
X0235415Y0183259D01*
X0235483Y0183147D01*
X0235548Y0183033D01*
X0235609Y0182916D01*
X0235667Y0182798D01*
X0235721Y0182678D01*
X0235772Y0182557D01*
X0235819Y0182434D01*
X0235862Y0182310D01*
X0235901Y0182185D01*
X0235937Y0182058D01*
X0235968Y0181930D01*
X0235996Y0181802D01*
X0236020Y0181673D01*
X0236040Y0181543D01*
X0236056Y0181412D01*
X0236068Y0181281D01*
X0236076Y0181150D01*
X0236080Y0181019D01*
X0236080Y0180887D01*
X0236076Y0180756D01*
X0236068Y0180625D01*
X0236056Y0180494D01*
X0236040Y0180363D01*
X0236020Y0180233D01*
X0235996Y0180104D01*
X0235968Y0179976D01*
X0235937Y0179848D01*
X0235901Y0179721D01*
X0235862Y0179596D01*
X0235819Y0179472D01*
X0235772Y0179349D01*
X0235721Y0179228D01*
X0235667Y0179108D01*
X0235609Y0178990D01*
X0235548Y0178873D01*
X0235483Y0178759D01*
X0235415Y0178647D01*
X0235343Y0178537D01*
X0235268Y0178429D01*
X0235190Y0178323D01*
X0235109Y0178220D01*
X0235024Y0178119D01*
X0234937Y0178021D01*
X0234846Y0177926D01*
X0234753Y0177833D01*
X0234657Y0177743D01*
X0234558Y0177656D01*
X0234457Y0177573D01*
X0234353Y0177492D01*
X0234247Y0177415D01*
X0234138Y0177341D01*
X0234027Y0177270D01*
X0233915Y0177202D01*
X0233800Y0177138D01*
X0233683Y0177078D01*
X0233564Y0177021D01*
X0233444Y0176968D01*
X0233323Y0176918D01*
X0233199Y0176872D01*
X0233075Y0176830D01*
X0232949Y0176792D01*
X0232822Y0176757D01*
X0232694Y0176726D01*
X0232566Y0176700D01*
X0232436Y0176677D01*
X0232306Y0176658D01*
X0232176Y0176643D01*
X0232045Y0176632D01*
X0231913Y0176625D01*
X0231782Y0176622D01*
X0231650Y0176623D01*
X0231519Y0176628D01*
X0231388Y0176637D01*
X0231257Y0176650D01*
X0231127Y0176667D01*
X0230997Y0176688D01*
X0230868Y0176713D01*
X0230740Y0176741D01*
X0230612Y0176774D01*
X0230486Y0176810D01*
X0230361Y0176851D01*
X0230237Y0176895D01*
X0230114Y0176942D01*
X0229993Y0176994D01*
X0229874Y0177049D01*
X0229756Y0177108D01*
X0229641Y0177170D01*
X0229527Y0177236D01*
X0229415Y0177305D01*
X0229305Y0177377D01*
X0229198Y0177453D01*
X0229093Y0177532D01*
X0228990Y0177614D01*
X0228890Y0177699D01*
X0228793Y0177788D01*
X0228698Y0177879D01*
X0228606Y0177973D01*
X0228517Y0178070D01*
X0228431Y0178169D01*
X0228348Y0178271D01*
X0228268Y0178376D01*
X0228192Y0178482D01*
X0228119Y0178591D01*
X0228049Y0178703D01*
X0227982Y0178816D01*
X0227919Y0178931D01*
X0227859Y0179049D01*
X0227803Y0179167D01*
X0227751Y0179288D01*
X0227702Y0179410D01*
X0227657Y0179534D01*
X0227616Y0179658D01*
X0227579Y0179785D01*
X0227545Y0179912D01*
X0227515Y0180040D01*
X0227490Y0180169D01*
X0227468Y0180298D01*
X0227450Y0180428D01*
X0227436Y0180559D01*
X0227426Y0180690D01*
X0227420Y0180822D01*
X0227418Y0180953D01*
X0236080Y0141583D02*
X0236082Y0141767D01*
X0236089Y0141950D01*
X0236100Y0142133D01*
X0236116Y0142316D01*
X0236136Y0142499D01*
X0236161Y0142681D01*
X0236190Y0142862D01*
X0236224Y0143042D01*
X0236262Y0143222D01*
X0236304Y0143400D01*
X0236351Y0143578D01*
X0236402Y0143754D01*
X0236458Y0143929D01*
X0236517Y0144103D01*
X0236581Y0144275D01*
X0236649Y0144445D01*
X0236722Y0144614D01*
X0236798Y0144781D01*
X0236879Y0144946D01*
X0236963Y0145109D01*
X0237052Y0145270D01*
X0237144Y0145428D01*
X0237240Y0145585D01*
X0237341Y0145739D01*
X0237444Y0145890D01*
X0237552Y0146039D01*
X0237663Y0146185D01*
X0237778Y0146328D01*
X0237896Y0146469D01*
X0238018Y0146606D01*
X0238143Y0146741D01*
X0238271Y0146872D01*
X0238402Y0147000D01*
X0238537Y0147125D01*
X0238674Y0147247D01*
X0238815Y0147365D01*
X0238958Y0147480D01*
X0239104Y0147591D01*
X0239253Y0147699D01*
X0239404Y0147802D01*
X0239558Y0147903D01*
X0239715Y0147999D01*
X0239873Y0148091D01*
X0240034Y0148180D01*
X0240197Y0148264D01*
X0240362Y0148345D01*
X0240529Y0148421D01*
X0240698Y0148494D01*
X0240868Y0148562D01*
X0241040Y0148626D01*
X0241214Y0148685D01*
X0241389Y0148741D01*
X0241565Y0148792D01*
X0241743Y0148839D01*
X0241921Y0148881D01*
X0242101Y0148919D01*
X0242281Y0148953D01*
X0242462Y0148982D01*
X0242644Y0149007D01*
X0242827Y0149027D01*
X0243010Y0149043D01*
X0243193Y0149054D01*
X0243376Y0149061D01*
X0243560Y0149063D01*
X0243744Y0149061D01*
X0243927Y0149054D01*
X0244110Y0149043D01*
X0244293Y0149027D01*
X0244476Y0149007D01*
X0244658Y0148982D01*
X0244839Y0148953D01*
X0245019Y0148919D01*
X0245199Y0148881D01*
X0245377Y0148839D01*
X0245555Y0148792D01*
X0245731Y0148741D01*
X0245906Y0148685D01*
X0246080Y0148626D01*
X0246252Y0148562D01*
X0246422Y0148494D01*
X0246591Y0148421D01*
X0246758Y0148345D01*
X0246923Y0148264D01*
X0247086Y0148180D01*
X0247247Y0148091D01*
X0247405Y0147999D01*
X0247562Y0147903D01*
X0247716Y0147802D01*
X0247867Y0147699D01*
X0248016Y0147591D01*
X0248162Y0147480D01*
X0248305Y0147365D01*
X0248446Y0147247D01*
X0248583Y0147125D01*
X0248718Y0147000D01*
X0248849Y0146872D01*
X0248977Y0146741D01*
X0249102Y0146606D01*
X0249224Y0146469D01*
X0249342Y0146328D01*
X0249457Y0146185D01*
X0249568Y0146039D01*
X0249676Y0145890D01*
X0249779Y0145739D01*
X0249880Y0145585D01*
X0249976Y0145428D01*
X0250068Y0145270D01*
X0250157Y0145109D01*
X0250241Y0144946D01*
X0250322Y0144781D01*
X0250398Y0144614D01*
X0250471Y0144445D01*
X0250539Y0144275D01*
X0250603Y0144103D01*
X0250662Y0143929D01*
X0250718Y0143754D01*
X0250769Y0143578D01*
X0250816Y0143400D01*
X0250858Y0143222D01*
X0250896Y0143042D01*
X0250930Y0142862D01*
X0250959Y0142681D01*
X0250984Y0142499D01*
X0251004Y0142316D01*
X0251020Y0142133D01*
X0251031Y0141950D01*
X0251038Y0141767D01*
X0251040Y0141583D01*
X0251038Y0141399D01*
X0251031Y0141216D01*
X0251020Y0141033D01*
X0251004Y0140850D01*
X0250984Y0140667D01*
X0250959Y0140485D01*
X0250930Y0140304D01*
X0250896Y0140124D01*
X0250858Y0139944D01*
X0250816Y0139766D01*
X0250769Y0139588D01*
X0250718Y0139412D01*
X0250662Y0139237D01*
X0250603Y0139063D01*
X0250539Y0138891D01*
X0250471Y0138721D01*
X0250398Y0138552D01*
X0250322Y0138385D01*
X0250241Y0138220D01*
X0250157Y0138057D01*
X0250068Y0137896D01*
X0249976Y0137738D01*
X0249880Y0137581D01*
X0249779Y0137427D01*
X0249676Y0137276D01*
X0249568Y0137127D01*
X0249457Y0136981D01*
X0249342Y0136838D01*
X0249224Y0136697D01*
X0249102Y0136560D01*
X0248977Y0136425D01*
X0248849Y0136294D01*
X0248718Y0136166D01*
X0248583Y0136041D01*
X0248446Y0135919D01*
X0248305Y0135801D01*
X0248162Y0135686D01*
X0248016Y0135575D01*
X0247867Y0135467D01*
X0247716Y0135364D01*
X0247562Y0135263D01*
X0247405Y0135167D01*
X0247247Y0135075D01*
X0247086Y0134986D01*
X0246923Y0134902D01*
X0246758Y0134821D01*
X0246591Y0134745D01*
X0246422Y0134672D01*
X0246252Y0134604D01*
X0246080Y0134540D01*
X0245906Y0134481D01*
X0245731Y0134425D01*
X0245555Y0134374D01*
X0245377Y0134327D01*
X0245199Y0134285D01*
X0245019Y0134247D01*
X0244839Y0134213D01*
X0244658Y0134184D01*
X0244476Y0134159D01*
X0244293Y0134139D01*
X0244110Y0134123D01*
X0243927Y0134112D01*
X0243744Y0134105D01*
X0243560Y0134103D01*
X0243376Y0134105D01*
X0243193Y0134112D01*
X0243010Y0134123D01*
X0242827Y0134139D01*
X0242644Y0134159D01*
X0242462Y0134184D01*
X0242281Y0134213D01*
X0242101Y0134247D01*
X0241921Y0134285D01*
X0241743Y0134327D01*
X0241565Y0134374D01*
X0241389Y0134425D01*
X0241214Y0134481D01*
X0241040Y0134540D01*
X0240868Y0134604D01*
X0240698Y0134672D01*
X0240529Y0134745D01*
X0240362Y0134821D01*
X0240197Y0134902D01*
X0240034Y0134986D01*
X0239873Y0135075D01*
X0239715Y0135167D01*
X0239558Y0135263D01*
X0239404Y0135364D01*
X0239253Y0135467D01*
X0239104Y0135575D01*
X0238958Y0135686D01*
X0238815Y0135801D01*
X0238674Y0135919D01*
X0238537Y0136041D01*
X0238402Y0136166D01*
X0238271Y0136294D01*
X0238143Y0136425D01*
X0238018Y0136560D01*
X0237896Y0136697D01*
X0237778Y0136838D01*
X0237663Y0136981D01*
X0237552Y0137127D01*
X0237444Y0137276D01*
X0237341Y0137427D01*
X0237240Y0137581D01*
X0237144Y0137738D01*
X0237052Y0137896D01*
X0236963Y0138057D01*
X0236879Y0138220D01*
X0236798Y0138385D01*
X0236722Y0138552D01*
X0236649Y0138721D01*
X0236581Y0138891D01*
X0236517Y0139063D01*
X0236458Y0139237D01*
X0236402Y0139412D01*
X0236351Y0139588D01*
X0236304Y0139766D01*
X0236262Y0139944D01*
X0236224Y0140124D01*
X0236190Y0140304D01*
X0236161Y0140485D01*
X0236136Y0140667D01*
X0236116Y0140850D01*
X0236100Y0141033D01*
X0236089Y0141216D01*
X0236082Y0141399D01*
X0236080Y0141583D01*
X0280174Y0132921D02*
X0280176Y0133058D01*
X0280182Y0133196D01*
X0280192Y0133333D01*
X0280206Y0133469D01*
X0280224Y0133606D01*
X0280246Y0133741D01*
X0280272Y0133876D01*
X0280301Y0134010D01*
X0280335Y0134144D01*
X0280372Y0134276D01*
X0280414Y0134407D01*
X0280459Y0134537D01*
X0280508Y0134665D01*
X0280560Y0134792D01*
X0280617Y0134917D01*
X0280676Y0135041D01*
X0280740Y0135163D01*
X0280807Y0135283D01*
X0280877Y0135401D01*
X0280951Y0135517D01*
X0281028Y0135631D01*
X0281109Y0135742D01*
X0281192Y0135851D01*
X0281279Y0135958D01*
X0281369Y0136061D01*
X0281462Y0136163D01*
X0281558Y0136261D01*
X0281656Y0136357D01*
X0281758Y0136450D01*
X0281861Y0136540D01*
X0281968Y0136627D01*
X0282077Y0136710D01*
X0282188Y0136791D01*
X0282302Y0136868D01*
X0282418Y0136942D01*
X0282536Y0137012D01*
X0282656Y0137079D01*
X0282778Y0137143D01*
X0282902Y0137202D01*
X0283027Y0137259D01*
X0283154Y0137311D01*
X0283282Y0137360D01*
X0283412Y0137405D01*
X0283543Y0137447D01*
X0283675Y0137484D01*
X0283809Y0137518D01*
X0283943Y0137547D01*
X0284078Y0137573D01*
X0284213Y0137595D01*
X0284350Y0137613D01*
X0284486Y0137627D01*
X0284623Y0137637D01*
X0284761Y0137643D01*
X0284898Y0137645D01*
X0285035Y0137643D01*
X0285173Y0137637D01*
X0285310Y0137627D01*
X0285446Y0137613D01*
X0285583Y0137595D01*
X0285718Y0137573D01*
X0285853Y0137547D01*
X0285987Y0137518D01*
X0286121Y0137484D01*
X0286253Y0137447D01*
X0286384Y0137405D01*
X0286514Y0137360D01*
X0286642Y0137311D01*
X0286769Y0137259D01*
X0286894Y0137202D01*
X0287018Y0137143D01*
X0287140Y0137079D01*
X0287260Y0137012D01*
X0287378Y0136942D01*
X0287494Y0136868D01*
X0287608Y0136791D01*
X0287719Y0136710D01*
X0287828Y0136627D01*
X0287935Y0136540D01*
X0288038Y0136450D01*
X0288140Y0136357D01*
X0288238Y0136261D01*
X0288334Y0136163D01*
X0288427Y0136061D01*
X0288517Y0135958D01*
X0288604Y0135851D01*
X0288687Y0135742D01*
X0288768Y0135631D01*
X0288845Y0135517D01*
X0288919Y0135401D01*
X0288989Y0135283D01*
X0289056Y0135163D01*
X0289120Y0135041D01*
X0289179Y0134917D01*
X0289236Y0134792D01*
X0289288Y0134665D01*
X0289337Y0134537D01*
X0289382Y0134407D01*
X0289424Y0134276D01*
X0289461Y0134144D01*
X0289495Y0134010D01*
X0289524Y0133876D01*
X0289550Y0133741D01*
X0289572Y0133606D01*
X0289590Y0133469D01*
X0289604Y0133333D01*
X0289614Y0133196D01*
X0289620Y0133058D01*
X0289622Y0132921D01*
X0289620Y0132784D01*
X0289614Y0132646D01*
X0289604Y0132509D01*
X0289590Y0132373D01*
X0289572Y0132236D01*
X0289550Y0132101D01*
X0289524Y0131966D01*
X0289495Y0131832D01*
X0289461Y0131698D01*
X0289424Y0131566D01*
X0289382Y0131435D01*
X0289337Y0131305D01*
X0289288Y0131177D01*
X0289236Y0131050D01*
X0289179Y0130925D01*
X0289120Y0130801D01*
X0289056Y0130679D01*
X0288989Y0130559D01*
X0288919Y0130441D01*
X0288845Y0130325D01*
X0288768Y0130211D01*
X0288687Y0130100D01*
X0288604Y0129991D01*
X0288517Y0129884D01*
X0288427Y0129781D01*
X0288334Y0129679D01*
X0288238Y0129581D01*
X0288140Y0129485D01*
X0288038Y0129392D01*
X0287935Y0129302D01*
X0287828Y0129215D01*
X0287719Y0129132D01*
X0287608Y0129051D01*
X0287494Y0128974D01*
X0287378Y0128900D01*
X0287260Y0128830D01*
X0287140Y0128763D01*
X0287018Y0128699D01*
X0286894Y0128640D01*
X0286769Y0128583D01*
X0286642Y0128531D01*
X0286514Y0128482D01*
X0286384Y0128437D01*
X0286253Y0128395D01*
X0286121Y0128358D01*
X0285987Y0128324D01*
X0285853Y0128295D01*
X0285718Y0128269D01*
X0285583Y0128247D01*
X0285446Y0128229D01*
X0285310Y0128215D01*
X0285173Y0128205D01*
X0285035Y0128199D01*
X0284898Y0128197D01*
X0284761Y0128199D01*
X0284623Y0128205D01*
X0284486Y0128215D01*
X0284350Y0128229D01*
X0284213Y0128247D01*
X0284078Y0128269D01*
X0283943Y0128295D01*
X0283809Y0128324D01*
X0283675Y0128358D01*
X0283543Y0128395D01*
X0283412Y0128437D01*
X0283282Y0128482D01*
X0283154Y0128531D01*
X0283027Y0128583D01*
X0282902Y0128640D01*
X0282778Y0128699D01*
X0282656Y0128763D01*
X0282536Y0128830D01*
X0282418Y0128900D01*
X0282302Y0128974D01*
X0282188Y0129051D01*
X0282077Y0129132D01*
X0281968Y0129215D01*
X0281861Y0129302D01*
X0281758Y0129392D01*
X0281656Y0129485D01*
X0281558Y0129581D01*
X0281462Y0129679D01*
X0281369Y0129781D01*
X0281279Y0129884D01*
X0281192Y0129991D01*
X0281109Y0130100D01*
X0281028Y0130211D01*
X0280951Y0130325D01*
X0280877Y0130441D01*
X0280807Y0130559D01*
X0280740Y0130679D01*
X0280676Y0130801D01*
X0280617Y0130925D01*
X0280560Y0131050D01*
X0280508Y0131177D01*
X0280459Y0131305D01*
X0280414Y0131435D01*
X0280372Y0131566D01*
X0280335Y0131698D01*
X0280301Y0131832D01*
X0280272Y0131966D01*
X0280246Y0132101D01*
X0280224Y0132236D01*
X0280206Y0132373D01*
X0280192Y0132509D01*
X0280182Y0132646D01*
X0280176Y0132784D01*
X0280174Y0132921D01*
X0281749Y0270323D02*
X0281751Y0270466D01*
X0281757Y0270609D01*
X0281767Y0270751D01*
X0281781Y0270893D01*
X0281799Y0271035D01*
X0281821Y0271177D01*
X0281846Y0271317D01*
X0281876Y0271457D01*
X0281910Y0271596D01*
X0281947Y0271734D01*
X0281989Y0271871D01*
X0282034Y0272006D01*
X0282083Y0272140D01*
X0282135Y0272273D01*
X0282191Y0272405D01*
X0282251Y0272534D01*
X0282315Y0272662D01*
X0282382Y0272789D01*
X0282453Y0272913D01*
X0282527Y0273035D01*
X0282604Y0273155D01*
X0282685Y0273273D01*
X0282769Y0273389D01*
X0282856Y0273502D01*
X0282946Y0273613D01*
X0283040Y0273721D01*
X0283136Y0273827D01*
X0283235Y0273929D01*
X0283338Y0274029D01*
X0283442Y0274126D01*
X0283550Y0274221D01*
X0283660Y0274312D01*
X0283773Y0274400D01*
X0283888Y0274484D01*
X0284005Y0274566D01*
X0284125Y0274644D01*
X0284246Y0274719D01*
X0284370Y0274791D01*
X0284496Y0274859D01*
X0284623Y0274923D01*
X0284753Y0274984D01*
X0284884Y0275041D01*
X0285016Y0275095D01*
X0285150Y0275144D01*
X0285285Y0275191D01*
X0285422Y0275233D01*
X0285560Y0275271D01*
X0285698Y0275306D01*
X0285838Y0275336D01*
X0285978Y0275363D01*
X0286119Y0275386D01*
X0286261Y0275405D01*
X0286403Y0275420D01*
X0286546Y0275431D01*
X0286688Y0275438D01*
X0286831Y0275441D01*
X0286974Y0275440D01*
X0287117Y0275435D01*
X0287260Y0275426D01*
X0287402Y0275413D01*
X0287544Y0275396D01*
X0287685Y0275375D01*
X0287826Y0275350D01*
X0287966Y0275322D01*
X0288105Y0275289D01*
X0288243Y0275252D01*
X0288380Y0275212D01*
X0288516Y0275168D01*
X0288651Y0275120D01*
X0288784Y0275068D01*
X0288916Y0275013D01*
X0289046Y0274954D01*
X0289175Y0274891D01*
X0289301Y0274825D01*
X0289426Y0274755D01*
X0289549Y0274682D01*
X0289669Y0274606D01*
X0289788Y0274526D01*
X0289904Y0274442D01*
X0290018Y0274356D01*
X0290129Y0274266D01*
X0290238Y0274174D01*
X0290344Y0274078D01*
X0290448Y0273980D01*
X0290549Y0273878D01*
X0290646Y0273774D01*
X0290741Y0273667D01*
X0290833Y0273558D01*
X0290922Y0273446D01*
X0291008Y0273331D01*
X0291090Y0273215D01*
X0291169Y0273095D01*
X0291245Y0272974D01*
X0291317Y0272851D01*
X0291386Y0272726D01*
X0291451Y0272599D01*
X0291513Y0272470D01*
X0291571Y0272339D01*
X0291626Y0272207D01*
X0291676Y0272073D01*
X0291723Y0271938D01*
X0291767Y0271802D01*
X0291806Y0271665D01*
X0291841Y0271526D01*
X0291873Y0271387D01*
X0291901Y0271247D01*
X0291925Y0271106D01*
X0291945Y0270964D01*
X0291961Y0270822D01*
X0291973Y0270680D01*
X0291981Y0270537D01*
X0291985Y0270394D01*
X0291985Y0270252D01*
X0291981Y0270109D01*
X0291973Y0269966D01*
X0291961Y0269824D01*
X0291945Y0269682D01*
X0291925Y0269540D01*
X0291901Y0269399D01*
X0291873Y0269259D01*
X0291841Y0269120D01*
X0291806Y0268981D01*
X0291767Y0268844D01*
X0291723Y0268708D01*
X0291676Y0268573D01*
X0291626Y0268439D01*
X0291571Y0268307D01*
X0291513Y0268176D01*
X0291451Y0268047D01*
X0291386Y0267920D01*
X0291317Y0267795D01*
X0291245Y0267672D01*
X0291169Y0267551D01*
X0291090Y0267431D01*
X0291008Y0267315D01*
X0290922Y0267200D01*
X0290833Y0267088D01*
X0290741Y0266979D01*
X0290646Y0266872D01*
X0290549Y0266768D01*
X0290448Y0266666D01*
X0290344Y0266568D01*
X0290238Y0266472D01*
X0290129Y0266380D01*
X0290018Y0266290D01*
X0289904Y0266204D01*
X0289788Y0266120D01*
X0289669Y0266040D01*
X0289549Y0265964D01*
X0289426Y0265891D01*
X0289301Y0265821D01*
X0289175Y0265755D01*
X0289046Y0265692D01*
X0288916Y0265633D01*
X0288784Y0265578D01*
X0288651Y0265526D01*
X0288516Y0265478D01*
X0288380Y0265434D01*
X0288243Y0265394D01*
X0288105Y0265357D01*
X0287966Y0265324D01*
X0287826Y0265296D01*
X0287685Y0265271D01*
X0287544Y0265250D01*
X0287402Y0265233D01*
X0287260Y0265220D01*
X0287117Y0265211D01*
X0286974Y0265206D01*
X0286831Y0265205D01*
X0286688Y0265208D01*
X0286546Y0265215D01*
X0286403Y0265226D01*
X0286261Y0265241D01*
X0286119Y0265260D01*
X0285978Y0265283D01*
X0285838Y0265310D01*
X0285698Y0265340D01*
X0285560Y0265375D01*
X0285422Y0265413D01*
X0285285Y0265455D01*
X0285150Y0265502D01*
X0285016Y0265551D01*
X0284884Y0265605D01*
X0284753Y0265662D01*
X0284623Y0265723D01*
X0284496Y0265787D01*
X0284370Y0265855D01*
X0284246Y0265927D01*
X0284125Y0266002D01*
X0284005Y0266080D01*
X0283888Y0266162D01*
X0283773Y0266246D01*
X0283660Y0266334D01*
X0283550Y0266425D01*
X0283442Y0266520D01*
X0283338Y0266617D01*
X0283235Y0266717D01*
X0283136Y0266819D01*
X0283040Y0266925D01*
X0282946Y0267033D01*
X0282856Y0267144D01*
X0282769Y0267257D01*
X0282685Y0267373D01*
X0282604Y0267491D01*
X0282527Y0267611D01*
X0282453Y0267733D01*
X0282382Y0267857D01*
X0282315Y0267984D01*
X0282251Y0268112D01*
X0282191Y0268241D01*
X0282135Y0268373D01*
X0282083Y0268506D01*
X0282034Y0268640D01*
X0281989Y0268775D01*
X0281947Y0268912D01*
X0281910Y0269050D01*
X0281876Y0269189D01*
X0281846Y0269329D01*
X0281821Y0269469D01*
X0281799Y0269611D01*
X0281781Y0269753D01*
X0281767Y0269895D01*
X0281757Y0270037D01*
X0281751Y0270180D01*
X0281749Y0270323D01*
X0281749Y0443551D02*
X0281751Y0443694D01*
X0281757Y0443837D01*
X0281767Y0443979D01*
X0281781Y0444121D01*
X0281799Y0444263D01*
X0281821Y0444405D01*
X0281846Y0444545D01*
X0281876Y0444685D01*
X0281910Y0444824D01*
X0281947Y0444962D01*
X0281989Y0445099D01*
X0282034Y0445234D01*
X0282083Y0445368D01*
X0282135Y0445501D01*
X0282191Y0445633D01*
X0282251Y0445762D01*
X0282315Y0445890D01*
X0282382Y0446017D01*
X0282453Y0446141D01*
X0282527Y0446263D01*
X0282604Y0446383D01*
X0282685Y0446501D01*
X0282769Y0446617D01*
X0282856Y0446730D01*
X0282946Y0446841D01*
X0283040Y0446949D01*
X0283136Y0447055D01*
X0283235Y0447157D01*
X0283338Y0447257D01*
X0283442Y0447354D01*
X0283550Y0447449D01*
X0283660Y0447540D01*
X0283773Y0447628D01*
X0283888Y0447712D01*
X0284005Y0447794D01*
X0284125Y0447872D01*
X0284246Y0447947D01*
X0284370Y0448019D01*
X0284496Y0448087D01*
X0284623Y0448151D01*
X0284753Y0448212D01*
X0284884Y0448269D01*
X0285016Y0448323D01*
X0285150Y0448372D01*
X0285285Y0448419D01*
X0285422Y0448461D01*
X0285560Y0448499D01*
X0285698Y0448534D01*
X0285838Y0448564D01*
X0285978Y0448591D01*
X0286119Y0448614D01*
X0286261Y0448633D01*
X0286403Y0448648D01*
X0286546Y0448659D01*
X0286688Y0448666D01*
X0286831Y0448669D01*
X0286974Y0448668D01*
X0287117Y0448663D01*
X0287260Y0448654D01*
X0287402Y0448641D01*
X0287544Y0448624D01*
X0287685Y0448603D01*
X0287826Y0448578D01*
X0287966Y0448550D01*
X0288105Y0448517D01*
X0288243Y0448480D01*
X0288380Y0448440D01*
X0288516Y0448396D01*
X0288651Y0448348D01*
X0288784Y0448296D01*
X0288916Y0448241D01*
X0289046Y0448182D01*
X0289175Y0448119D01*
X0289301Y0448053D01*
X0289426Y0447983D01*
X0289549Y0447910D01*
X0289669Y0447834D01*
X0289788Y0447754D01*
X0289904Y0447670D01*
X0290018Y0447584D01*
X0290129Y0447494D01*
X0290238Y0447402D01*
X0290344Y0447306D01*
X0290448Y0447208D01*
X0290549Y0447106D01*
X0290646Y0447002D01*
X0290741Y0446895D01*
X0290833Y0446786D01*
X0290922Y0446674D01*
X0291008Y0446559D01*
X0291090Y0446443D01*
X0291169Y0446323D01*
X0291245Y0446202D01*
X0291317Y0446079D01*
X0291386Y0445954D01*
X0291451Y0445827D01*
X0291513Y0445698D01*
X0291571Y0445567D01*
X0291626Y0445435D01*
X0291676Y0445301D01*
X0291723Y0445166D01*
X0291767Y0445030D01*
X0291806Y0444893D01*
X0291841Y0444754D01*
X0291873Y0444615D01*
X0291901Y0444475D01*
X0291925Y0444334D01*
X0291945Y0444192D01*
X0291961Y0444050D01*
X0291973Y0443908D01*
X0291981Y0443765D01*
X0291985Y0443622D01*
X0291985Y0443480D01*
X0291981Y0443337D01*
X0291973Y0443194D01*
X0291961Y0443052D01*
X0291945Y0442910D01*
X0291925Y0442768D01*
X0291901Y0442627D01*
X0291873Y0442487D01*
X0291841Y0442348D01*
X0291806Y0442209D01*
X0291767Y0442072D01*
X0291723Y0441936D01*
X0291676Y0441801D01*
X0291626Y0441667D01*
X0291571Y0441535D01*
X0291513Y0441404D01*
X0291451Y0441275D01*
X0291386Y0441148D01*
X0291317Y0441023D01*
X0291245Y0440900D01*
X0291169Y0440779D01*
X0291090Y0440659D01*
X0291008Y0440543D01*
X0290922Y0440428D01*
X0290833Y0440316D01*
X0290741Y0440207D01*
X0290646Y0440100D01*
X0290549Y0439996D01*
X0290448Y0439894D01*
X0290344Y0439796D01*
X0290238Y0439700D01*
X0290129Y0439608D01*
X0290018Y0439518D01*
X0289904Y0439432D01*
X0289788Y0439348D01*
X0289669Y0439268D01*
X0289549Y0439192D01*
X0289426Y0439119D01*
X0289301Y0439049D01*
X0289175Y0438983D01*
X0289046Y0438920D01*
X0288916Y0438861D01*
X0288784Y0438806D01*
X0288651Y0438754D01*
X0288516Y0438706D01*
X0288380Y0438662D01*
X0288243Y0438622D01*
X0288105Y0438585D01*
X0287966Y0438552D01*
X0287826Y0438524D01*
X0287685Y0438499D01*
X0287544Y0438478D01*
X0287402Y0438461D01*
X0287260Y0438448D01*
X0287117Y0438439D01*
X0286974Y0438434D01*
X0286831Y0438433D01*
X0286688Y0438436D01*
X0286546Y0438443D01*
X0286403Y0438454D01*
X0286261Y0438469D01*
X0286119Y0438488D01*
X0285978Y0438511D01*
X0285838Y0438538D01*
X0285698Y0438568D01*
X0285560Y0438603D01*
X0285422Y0438641D01*
X0285285Y0438683D01*
X0285150Y0438730D01*
X0285016Y0438779D01*
X0284884Y0438833D01*
X0284753Y0438890D01*
X0284623Y0438951D01*
X0284496Y0439015D01*
X0284370Y0439083D01*
X0284246Y0439155D01*
X0284125Y0439230D01*
X0284005Y0439308D01*
X0283888Y0439390D01*
X0283773Y0439474D01*
X0283660Y0439562D01*
X0283550Y0439653D01*
X0283442Y0439748D01*
X0283338Y0439845D01*
X0283235Y0439945D01*
X0283136Y0440047D01*
X0283040Y0440153D01*
X0282946Y0440261D01*
X0282856Y0440372D01*
X0282769Y0440485D01*
X0282685Y0440601D01*
X0282604Y0440719D01*
X0282527Y0440839D01*
X0282453Y0440961D01*
X0282382Y0441085D01*
X0282315Y0441212D01*
X0282251Y0441340D01*
X0282191Y0441469D01*
X0282135Y0441601D01*
X0282083Y0441734D01*
X0282034Y0441868D01*
X0281989Y0442003D01*
X0281947Y0442140D01*
X0281910Y0442278D01*
X0281876Y0442417D01*
X0281846Y0442557D01*
X0281821Y0442697D01*
X0281799Y0442839D01*
X0281781Y0442981D01*
X0281767Y0443123D01*
X0281757Y0443265D01*
X0281751Y0443408D01*
X0281749Y0443551D01*
X0023088Y0111661D02*
X0023090Y0111798D01*
X0023096Y0111936D01*
X0023106Y0112073D01*
X0023120Y0112209D01*
X0023138Y0112346D01*
X0023160Y0112481D01*
X0023186Y0112616D01*
X0023215Y0112750D01*
X0023249Y0112884D01*
X0023286Y0113016D01*
X0023328Y0113147D01*
X0023373Y0113277D01*
X0023422Y0113405D01*
X0023474Y0113532D01*
X0023531Y0113657D01*
X0023590Y0113781D01*
X0023654Y0113903D01*
X0023721Y0114023D01*
X0023791Y0114141D01*
X0023865Y0114257D01*
X0023942Y0114371D01*
X0024023Y0114482D01*
X0024106Y0114591D01*
X0024193Y0114698D01*
X0024283Y0114801D01*
X0024376Y0114903D01*
X0024472Y0115001D01*
X0024570Y0115097D01*
X0024672Y0115190D01*
X0024775Y0115280D01*
X0024882Y0115367D01*
X0024991Y0115450D01*
X0025102Y0115531D01*
X0025216Y0115608D01*
X0025332Y0115682D01*
X0025450Y0115752D01*
X0025570Y0115819D01*
X0025692Y0115883D01*
X0025816Y0115942D01*
X0025941Y0115999D01*
X0026068Y0116051D01*
X0026196Y0116100D01*
X0026326Y0116145D01*
X0026457Y0116187D01*
X0026589Y0116224D01*
X0026723Y0116258D01*
X0026857Y0116287D01*
X0026992Y0116313D01*
X0027127Y0116335D01*
X0027264Y0116353D01*
X0027400Y0116367D01*
X0027537Y0116377D01*
X0027675Y0116383D01*
X0027812Y0116385D01*
X0027949Y0116383D01*
X0028087Y0116377D01*
X0028224Y0116367D01*
X0028360Y0116353D01*
X0028497Y0116335D01*
X0028632Y0116313D01*
X0028767Y0116287D01*
X0028901Y0116258D01*
X0029035Y0116224D01*
X0029167Y0116187D01*
X0029298Y0116145D01*
X0029428Y0116100D01*
X0029556Y0116051D01*
X0029683Y0115999D01*
X0029808Y0115942D01*
X0029932Y0115883D01*
X0030054Y0115819D01*
X0030174Y0115752D01*
X0030292Y0115682D01*
X0030408Y0115608D01*
X0030522Y0115531D01*
X0030633Y0115450D01*
X0030742Y0115367D01*
X0030849Y0115280D01*
X0030952Y0115190D01*
X0031054Y0115097D01*
X0031152Y0115001D01*
X0031248Y0114903D01*
X0031341Y0114801D01*
X0031431Y0114698D01*
X0031518Y0114591D01*
X0031601Y0114482D01*
X0031682Y0114371D01*
X0031759Y0114257D01*
X0031833Y0114141D01*
X0031903Y0114023D01*
X0031970Y0113903D01*
X0032034Y0113781D01*
X0032093Y0113657D01*
X0032150Y0113532D01*
X0032202Y0113405D01*
X0032251Y0113277D01*
X0032296Y0113147D01*
X0032338Y0113016D01*
X0032375Y0112884D01*
X0032409Y0112750D01*
X0032438Y0112616D01*
X0032464Y0112481D01*
X0032486Y0112346D01*
X0032504Y0112209D01*
X0032518Y0112073D01*
X0032528Y0111936D01*
X0032534Y0111798D01*
X0032536Y0111661D01*
X0032534Y0111524D01*
X0032528Y0111386D01*
X0032518Y0111249D01*
X0032504Y0111113D01*
X0032486Y0110976D01*
X0032464Y0110841D01*
X0032438Y0110706D01*
X0032409Y0110572D01*
X0032375Y0110438D01*
X0032338Y0110306D01*
X0032296Y0110175D01*
X0032251Y0110045D01*
X0032202Y0109917D01*
X0032150Y0109790D01*
X0032093Y0109665D01*
X0032034Y0109541D01*
X0031970Y0109419D01*
X0031903Y0109299D01*
X0031833Y0109181D01*
X0031759Y0109065D01*
X0031682Y0108951D01*
X0031601Y0108840D01*
X0031518Y0108731D01*
X0031431Y0108624D01*
X0031341Y0108521D01*
X0031248Y0108419D01*
X0031152Y0108321D01*
X0031054Y0108225D01*
X0030952Y0108132D01*
X0030849Y0108042D01*
X0030742Y0107955D01*
X0030633Y0107872D01*
X0030522Y0107791D01*
X0030408Y0107714D01*
X0030292Y0107640D01*
X0030174Y0107570D01*
X0030054Y0107503D01*
X0029932Y0107439D01*
X0029808Y0107380D01*
X0029683Y0107323D01*
X0029556Y0107271D01*
X0029428Y0107222D01*
X0029298Y0107177D01*
X0029167Y0107135D01*
X0029035Y0107098D01*
X0028901Y0107064D01*
X0028767Y0107035D01*
X0028632Y0107009D01*
X0028497Y0106987D01*
X0028360Y0106969D01*
X0028224Y0106955D01*
X0028087Y0106945D01*
X0027949Y0106939D01*
X0027812Y0106937D01*
X0027675Y0106939D01*
X0027537Y0106945D01*
X0027400Y0106955D01*
X0027264Y0106969D01*
X0027127Y0106987D01*
X0026992Y0107009D01*
X0026857Y0107035D01*
X0026723Y0107064D01*
X0026589Y0107098D01*
X0026457Y0107135D01*
X0026326Y0107177D01*
X0026196Y0107222D01*
X0026068Y0107271D01*
X0025941Y0107323D01*
X0025816Y0107380D01*
X0025692Y0107439D01*
X0025570Y0107503D01*
X0025450Y0107570D01*
X0025332Y0107640D01*
X0025216Y0107714D01*
X0025102Y0107791D01*
X0024991Y0107872D01*
X0024882Y0107955D01*
X0024775Y0108042D01*
X0024672Y0108132D01*
X0024570Y0108225D01*
X0024472Y0108321D01*
X0024376Y0108419D01*
X0024283Y0108521D01*
X0024193Y0108624D01*
X0024106Y0108731D01*
X0024023Y0108840D01*
X0023942Y0108951D01*
X0023865Y0109065D01*
X0023791Y0109181D01*
X0023721Y0109299D01*
X0023654Y0109419D01*
X0023590Y0109541D01*
X0023531Y0109665D01*
X0023474Y0109790D01*
X0023422Y0109917D01*
X0023373Y0110045D01*
X0023328Y0110175D01*
X0023286Y0110306D01*
X0023249Y0110438D01*
X0023215Y0110572D01*
X0023186Y0110706D01*
X0023160Y0110841D01*
X0023138Y0110976D01*
X0023120Y0111113D01*
X0023106Y0111249D01*
X0023096Y0111386D01*
X0023090Y0111524D01*
X0023088Y0111661D01*
D12*
X0024150Y0354476D02*
X0021150Y0354476D01*
X0021150Y0383020D02*
X0024150Y0383020D01*
D13*
X0016194Y0383248D02*
X0015694Y0383748D01*
X0016194Y0383248D02*
X0015694Y0382748D01*
X0016194Y0383248D02*
X0014194Y0383248D01*
X0014194Y0354748D01*
X0016194Y0354748D01*
X0015694Y0355248D01*
X0016194Y0354748D02*
X0015694Y0354248D01*
D14*
X0012728Y0355082D02*
X0012728Y0355782D01*
X0012261Y0355549D02*
X0012261Y0355082D01*
X0012494Y0354848D01*
X0012728Y0355082D01*
X0012261Y0355549D02*
X0012027Y0355782D01*
X0011794Y0355549D01*
X0011794Y0354848D01*
X0011794Y0356321D02*
X0011794Y0356788D01*
X0011794Y0356555D02*
X0013195Y0356555D01*
X0013195Y0356321D01*
X0012494Y0357303D02*
X0012728Y0357537D01*
X0012728Y0358004D01*
X0012494Y0358238D01*
X0012027Y0358238D01*
X0011794Y0358004D01*
X0011794Y0357537D01*
X0012027Y0357303D01*
X0012494Y0357303D01*
X0012728Y0358777D02*
X0012728Y0359244D01*
X0012961Y0359010D02*
X0012027Y0359010D01*
X0011794Y0359244D01*
X0012027Y0361232D02*
X0012494Y0361232D01*
X0012728Y0361466D01*
X0012728Y0362166D01*
X0013195Y0362166D02*
X0011794Y0362166D01*
X0011794Y0361466D01*
X0012027Y0361232D01*
X0011794Y0362705D02*
X0012728Y0362705D01*
X0012261Y0362705D02*
X0012728Y0363172D01*
X0012728Y0363406D01*
X0012728Y0363933D02*
X0012728Y0364167D01*
X0011794Y0364167D01*
X0011794Y0364400D02*
X0011794Y0363933D01*
X0011794Y0364915D02*
X0011794Y0365382D01*
X0011794Y0365149D02*
X0013195Y0365149D01*
X0013195Y0364915D01*
X0013195Y0364167D02*
X0013428Y0364167D01*
X0013195Y0365897D02*
X0013195Y0366131D01*
X0011794Y0366131D01*
X0011794Y0365897D02*
X0011794Y0366365D01*
X0011794Y0366880D02*
X0011794Y0367580D01*
X0012027Y0367814D01*
X0012261Y0367580D01*
X0012261Y0367113D01*
X0012494Y0366880D01*
X0012728Y0367113D01*
X0012728Y0367814D01*
X0012728Y0369826D02*
X0012027Y0369826D01*
X0011794Y0370060D01*
X0012027Y0370293D01*
X0011794Y0370527D01*
X0012027Y0370760D01*
X0012728Y0370760D01*
X0012728Y0371299D02*
X0012728Y0371533D01*
X0011794Y0371533D01*
X0011794Y0371766D02*
X0011794Y0371299D01*
X0012027Y0372515D02*
X0011794Y0372749D01*
X0012027Y0372515D02*
X0012961Y0372515D01*
X0012728Y0372282D02*
X0012728Y0372749D01*
X0012494Y0373264D02*
X0012728Y0373497D01*
X0012728Y0373964D01*
X0012494Y0374198D01*
X0011794Y0374198D01*
X0011794Y0373264D02*
X0013195Y0373264D01*
X0013195Y0371533D02*
X0013428Y0371533D01*
X0012494Y0376210D02*
X0012027Y0376210D01*
X0011794Y0376444D01*
X0011794Y0377144D01*
X0012027Y0377683D02*
X0011794Y0377917D01*
X0011794Y0378384D01*
X0012027Y0378618D01*
X0012494Y0378618D01*
X0012728Y0378384D01*
X0012728Y0377917D01*
X0012494Y0377683D01*
X0012027Y0377683D01*
X0012728Y0377144D02*
X0012728Y0376444D01*
X0012494Y0376210D01*
X0012728Y0379157D02*
X0011326Y0379157D01*
X0011794Y0379157D02*
X0011794Y0379857D01*
X0012027Y0380091D01*
X0012494Y0380091D01*
X0012728Y0379857D01*
X0012728Y0379157D01*
X0012728Y0380630D02*
X0011326Y0380630D01*
X0011794Y0380630D02*
X0011794Y0381331D01*
X0012027Y0381564D01*
X0012494Y0381564D01*
X0012728Y0381331D01*
X0012728Y0380630D01*
X0012494Y0382103D02*
X0012728Y0382337D01*
X0012728Y0382804D01*
X0012494Y0383037D01*
X0012261Y0383037D01*
X0012261Y0382103D01*
X0012494Y0382103D02*
X0012027Y0382103D01*
X0011794Y0382337D01*
X0011794Y0382804D01*
X0011794Y0383576D02*
X0012728Y0383576D01*
X0012261Y0383576D02*
X0012728Y0384044D01*
X0012728Y0384277D01*
M02*
