%
M48
M72
T01C0.01181
T02C0.01378
%
T01
X65083Y138705
X65083Y135555
X65083Y132406
X65083Y129256
X65083Y126106
X65083Y122957
X65083Y119807
X65083Y116657
X65083Y113508
X65083Y110358
X65083Y107209
X65083Y104059
X65083Y100909
X65083Y97760
X65083Y94610
X65083Y91461
X65083Y88311
X65083Y85161
T02
X76303Y143232
X84177Y143232
X78272Y118626
X77287Y101894
X84177Y52681
X119610Y95988
X123547Y99925
X127484Y103862
X131421Y127484
X127484Y131421
X123547Y135358
X162917Y123547
X166854Y115673
X166854Y103862
X162917Y99925
M30
