G75*
%MOIN*%
%OFA0B0*%
%FSLAX25Y25*%
%IPPOS*%
%LPD*%
%AMOC8*
5,1,8,0,0,1.08239X$1,22.5*
%
%ADD10C,0.00300*%
%ADD11C,0.08908*%
%ADD12C,0.01981*%
%ADD13C,0.01000*%
%ADD14C,0.02978*%
%ADD15C,0.01200*%
D10*
X0002189Y0001992D02*
X0002189Y0082209D01*
X0065083Y0082209D01*
X0065083Y0141854D01*
X0002189Y0141854D01*
X0002189Y0199925D01*
X0227189Y0199925D01*
X0227189Y0001992D01*
X0002189Y0001992D01*
D11*
X0010949Y0010949D03*
X0010949Y0190476D03*
X0218823Y0190476D03*
X0218823Y0010949D03*
D12*
X0067064Y0085161D02*
X0065083Y0085161D01*
X0065083Y0088311D02*
X0067064Y0088311D01*
X0067064Y0091461D02*
X0065083Y0091461D01*
X0065083Y0094610D02*
X0067064Y0094610D01*
X0067064Y0097760D02*
X0065083Y0097760D01*
X0065083Y0100909D02*
X0067064Y0100909D01*
X0067064Y0104059D02*
X0065083Y0104059D01*
X0065083Y0107209D02*
X0067064Y0107209D01*
X0067064Y0110358D02*
X0065083Y0110358D01*
X0065083Y0113508D02*
X0067064Y0113508D01*
X0067064Y0116657D02*
X0065083Y0116657D01*
X0065083Y0119807D02*
X0067064Y0119807D01*
X0067064Y0122957D02*
X0065083Y0122957D01*
X0065083Y0126106D02*
X0067064Y0126106D01*
X0067064Y0129256D02*
X0065083Y0129256D01*
X0065083Y0132406D02*
X0067064Y0132406D01*
X0067064Y0135555D02*
X0065083Y0135555D01*
X0065083Y0138705D02*
X0067064Y0138705D01*
D13*
X0069733Y0138296D02*
X0082277Y0138296D01*
X0082277Y0137298D02*
X0069733Y0137298D01*
X0069733Y0136299D02*
X0082277Y0136299D01*
X0082277Y0135301D02*
X0069733Y0135301D01*
X0069733Y0134302D02*
X0082277Y0134302D01*
X0082277Y0133303D02*
X0069733Y0133303D01*
X0069733Y0132305D02*
X0082277Y0132305D01*
X0082277Y0131306D02*
X0069733Y0131306D01*
X0069733Y0130308D02*
X0082277Y0130308D01*
X0082277Y0129309D02*
X0069733Y0129309D01*
X0069733Y0128311D02*
X0082277Y0128311D01*
X0082277Y0127312D02*
X0069733Y0127312D01*
X0069733Y0126314D02*
X0082277Y0126314D01*
X0082277Y0125315D02*
X0069733Y0125315D01*
X0069733Y0124317D02*
X0082277Y0124317D01*
X0082277Y0123318D02*
X0069733Y0123318D01*
X0069733Y0122320D02*
X0082277Y0122320D01*
X0082277Y0121321D02*
X0069733Y0121321D01*
X0069733Y0120323D02*
X0082277Y0120323D01*
X0082277Y0119324D02*
X0069733Y0119324D01*
X0069733Y0118326D02*
X0082277Y0118326D01*
X0082277Y0117327D02*
X0069733Y0117327D01*
X0069733Y0116329D02*
X0082277Y0116329D01*
X0082277Y0115330D02*
X0069733Y0115330D01*
X0069733Y0114332D02*
X0082277Y0114332D01*
X0082277Y0113333D02*
X0069733Y0113333D01*
X0069733Y0112335D02*
X0082277Y0112335D01*
X0082277Y0111336D02*
X0069733Y0111336D01*
X0069733Y0110338D02*
X0082277Y0110338D01*
X0082277Y0109339D02*
X0069733Y0109339D01*
X0069733Y0108341D02*
X0082277Y0108341D01*
X0082277Y0107342D02*
X0069733Y0107342D01*
X0069733Y0106344D02*
X0082277Y0106344D01*
X0082277Y0105345D02*
X0069733Y0105345D01*
X0069733Y0104347D02*
X0082277Y0104347D01*
X0082277Y0103348D02*
X0069733Y0103348D01*
X0069733Y0102350D02*
X0082277Y0102350D01*
X0082277Y0101351D02*
X0069733Y0101351D01*
X0069733Y0100353D02*
X0082277Y0100353D01*
X0082277Y0099354D02*
X0069733Y0099354D01*
X0069733Y0098356D02*
X0082277Y0098356D01*
X0082277Y0097357D02*
X0069733Y0097357D01*
X0069733Y0096359D02*
X0082277Y0096359D01*
X0082277Y0095360D02*
X0069733Y0095360D01*
X0069733Y0094362D02*
X0082277Y0094362D01*
X0082277Y0093363D02*
X0069733Y0093363D01*
X0069733Y0092365D02*
X0082277Y0092365D01*
X0082277Y0091366D02*
X0069733Y0091366D01*
X0069733Y0090368D02*
X0082277Y0090368D01*
X0082277Y0089369D02*
X0069733Y0089369D01*
X0069733Y0088370D02*
X0082277Y0088370D01*
X0082277Y0087372D02*
X0069733Y0087372D01*
X0069733Y0086373D02*
X0082277Y0086373D01*
X0082277Y0085375D02*
X0069733Y0085375D01*
X0069733Y0084376D02*
X0082277Y0084376D01*
X0082277Y0083378D02*
X0069733Y0083378D01*
X0069733Y0082379D02*
X0082277Y0082379D01*
X0082277Y0081381D02*
X0069733Y0081381D01*
X0069733Y0081284D02*
X0069733Y0142779D01*
X0069025Y0144488D01*
X0067717Y0145796D01*
X0066008Y0146504D01*
X0006839Y0146504D01*
X0006839Y0182487D01*
X0009168Y0181522D01*
X0012730Y0181522D01*
X0016021Y0182885D01*
X0018540Y0185404D01*
X0019903Y0188695D01*
X0019903Y0192257D01*
X0018653Y0195275D01*
X0211119Y0195275D01*
X0209869Y0192257D01*
X0209869Y0188695D01*
X0211232Y0185404D01*
X0213751Y0182885D01*
X0217042Y0181522D01*
X0220604Y0181522D01*
X0222539Y0182324D01*
X0222539Y0019101D01*
X0220604Y0019903D01*
X0217042Y0019903D01*
X0213751Y0018540D01*
X0211232Y0016021D01*
X0209869Y0012730D01*
X0209869Y0009168D01*
X0210915Y0006642D01*
X0018857Y0006642D01*
X0019903Y0009168D01*
X0019903Y0012730D01*
X0018540Y0016021D01*
X0016021Y0018540D01*
X0012730Y0019903D01*
X0009168Y0019903D01*
X0006839Y0018938D01*
X0006839Y0077559D01*
X0066008Y0077559D01*
X0067717Y0078267D01*
X0069025Y0079575D01*
X0069733Y0081284D01*
X0069359Y0080382D02*
X0082277Y0080382D01*
X0082277Y0079384D02*
X0068834Y0079384D01*
X0067835Y0078385D02*
X0082277Y0078385D01*
X0082277Y0077387D02*
X0006839Y0077387D01*
X0006839Y0076388D02*
X0082277Y0076388D01*
X0082277Y0075390D02*
X0006839Y0075390D01*
X0006839Y0074391D02*
X0082277Y0074391D01*
X0082277Y0073393D02*
X0006839Y0073393D01*
X0006839Y0072394D02*
X0082277Y0072394D01*
X0082277Y0071396D02*
X0006839Y0071396D01*
X0006839Y0070397D02*
X0082277Y0070397D01*
X0082277Y0069399D02*
X0006839Y0069399D01*
X0006839Y0068400D02*
X0082277Y0068400D01*
X0082277Y0067402D02*
X0006839Y0067402D01*
X0006839Y0066403D02*
X0082277Y0066403D01*
X0082277Y0065405D02*
X0006839Y0065405D01*
X0006839Y0064406D02*
X0082277Y0064406D01*
X0082277Y0063408D02*
X0006839Y0063408D01*
X0006839Y0062409D02*
X0082277Y0062409D01*
X0082277Y0061411D02*
X0006839Y0061411D01*
X0006839Y0060412D02*
X0082277Y0060412D01*
X0082277Y0059414D02*
X0006839Y0059414D01*
X0006839Y0058415D02*
X0082277Y0058415D01*
X0082277Y0057417D02*
X0006839Y0057417D01*
X0006839Y0056418D02*
X0082277Y0056418D01*
X0082277Y0055420D02*
X0006839Y0055420D01*
X0006839Y0054421D02*
X0081973Y0054421D01*
X0081813Y0054261D02*
X0081388Y0053236D01*
X0081388Y0052126D01*
X0081813Y0051101D01*
X0082597Y0050317D01*
X0083622Y0049892D01*
X0084732Y0049892D01*
X0085757Y0050317D01*
X0086542Y0051101D01*
X0086966Y0052126D01*
X0086966Y0053236D01*
X0086542Y0054261D01*
X0086077Y0054725D01*
X0086077Y0141188D01*
X0086542Y0141652D01*
X0086966Y0142678D01*
X0086966Y0143787D01*
X0086542Y0144812D01*
X0085757Y0145597D01*
X0084732Y0146021D01*
X0083622Y0146021D01*
X0082597Y0145597D01*
X0081813Y0144812D01*
X0081388Y0143787D01*
X0081388Y0142678D01*
X0081813Y0141652D01*
X0082277Y0141188D01*
X0082277Y0054725D01*
X0081813Y0054261D01*
X0081466Y0053423D02*
X0006839Y0053423D01*
X0006839Y0052424D02*
X0081388Y0052424D01*
X0081678Y0051426D02*
X0006839Y0051426D01*
X0006839Y0050427D02*
X0082487Y0050427D01*
X0085867Y0050427D02*
X0222539Y0050427D01*
X0222539Y0049429D02*
X0006839Y0049429D01*
X0006839Y0048430D02*
X0222539Y0048430D01*
X0222539Y0047432D02*
X0006839Y0047432D01*
X0006839Y0046433D02*
X0222539Y0046433D01*
X0222539Y0045434D02*
X0006839Y0045434D01*
X0006839Y0044436D02*
X0222539Y0044436D01*
X0222539Y0043437D02*
X0006839Y0043437D01*
X0006839Y0042439D02*
X0222539Y0042439D01*
X0222539Y0041440D02*
X0006839Y0041440D01*
X0006839Y0040442D02*
X0222539Y0040442D01*
X0222539Y0039443D02*
X0006839Y0039443D01*
X0006839Y0038445D02*
X0222539Y0038445D01*
X0222539Y0037446D02*
X0006839Y0037446D01*
X0006839Y0036448D02*
X0222539Y0036448D01*
X0222539Y0035449D02*
X0006839Y0035449D01*
X0006839Y0034451D02*
X0222539Y0034451D01*
X0222539Y0033452D02*
X0006839Y0033452D01*
X0006839Y0032454D02*
X0222539Y0032454D01*
X0222539Y0031455D02*
X0006839Y0031455D01*
X0006839Y0030457D02*
X0222539Y0030457D01*
X0222539Y0029458D02*
X0006839Y0029458D01*
X0006839Y0028460D02*
X0222539Y0028460D01*
X0222539Y0027461D02*
X0006839Y0027461D01*
X0006839Y0026463D02*
X0222539Y0026463D01*
X0222539Y0025464D02*
X0006839Y0025464D01*
X0006839Y0024466D02*
X0222539Y0024466D01*
X0222539Y0023467D02*
X0006839Y0023467D01*
X0006839Y0022469D02*
X0222539Y0022469D01*
X0222539Y0021470D02*
X0006839Y0021470D01*
X0006839Y0020472D02*
X0222539Y0020472D01*
X0222539Y0019473D02*
X0221642Y0019473D01*
X0216004Y0019473D02*
X0013768Y0019473D01*
X0016086Y0018475D02*
X0213686Y0018475D01*
X0212687Y0017476D02*
X0017085Y0017476D01*
X0018083Y0016478D02*
X0211689Y0016478D01*
X0211007Y0015479D02*
X0018764Y0015479D01*
X0019178Y0014481D02*
X0210594Y0014481D01*
X0210180Y0013482D02*
X0019591Y0013482D01*
X0019903Y0012484D02*
X0209869Y0012484D01*
X0209869Y0011485D02*
X0019903Y0011485D01*
X0019903Y0010487D02*
X0209869Y0010487D01*
X0209869Y0009488D02*
X0019903Y0009488D01*
X0019622Y0008490D02*
X0210150Y0008490D01*
X0210563Y0007491D02*
X0019209Y0007491D01*
X0008130Y0019473D02*
X0006839Y0019473D01*
X0086676Y0051426D02*
X0222539Y0051426D01*
X0222539Y0052424D02*
X0086966Y0052424D01*
X0086889Y0053423D02*
X0222539Y0053423D01*
X0222539Y0054421D02*
X0086381Y0054421D01*
X0086077Y0055420D02*
X0222539Y0055420D01*
X0222539Y0056418D02*
X0086077Y0056418D01*
X0086077Y0057417D02*
X0222539Y0057417D01*
X0222539Y0058415D02*
X0086077Y0058415D01*
X0086077Y0059414D02*
X0222539Y0059414D01*
X0222539Y0060412D02*
X0086077Y0060412D01*
X0086077Y0061411D02*
X0222539Y0061411D01*
X0222539Y0062409D02*
X0086077Y0062409D01*
X0086077Y0063408D02*
X0222539Y0063408D01*
X0222539Y0064406D02*
X0086077Y0064406D01*
X0086077Y0065405D02*
X0222539Y0065405D01*
X0222539Y0066403D02*
X0086077Y0066403D01*
X0086077Y0067402D02*
X0222539Y0067402D01*
X0222539Y0068400D02*
X0086077Y0068400D01*
X0086077Y0069399D02*
X0222539Y0069399D01*
X0222539Y0070397D02*
X0086077Y0070397D01*
X0086077Y0071396D02*
X0222539Y0071396D01*
X0222539Y0072394D02*
X0086077Y0072394D01*
X0086077Y0073393D02*
X0222539Y0073393D01*
X0222539Y0074391D02*
X0086077Y0074391D01*
X0086077Y0075390D02*
X0222539Y0075390D01*
X0222539Y0076388D02*
X0086077Y0076388D01*
X0086077Y0077387D02*
X0222539Y0077387D01*
X0222539Y0078385D02*
X0086077Y0078385D01*
X0086077Y0079384D02*
X0222539Y0079384D01*
X0222539Y0080382D02*
X0086077Y0080382D01*
X0086077Y0081381D02*
X0222539Y0081381D01*
X0222539Y0082379D02*
X0086077Y0082379D01*
X0086077Y0083378D02*
X0222539Y0083378D01*
X0222539Y0084376D02*
X0086077Y0084376D01*
X0086077Y0085375D02*
X0222539Y0085375D01*
X0222539Y0086373D02*
X0086077Y0086373D01*
X0086077Y0087372D02*
X0222539Y0087372D01*
X0222539Y0088370D02*
X0086077Y0088370D01*
X0086077Y0089369D02*
X0222539Y0089369D01*
X0222539Y0090368D02*
X0086077Y0090368D01*
X0086077Y0091366D02*
X0222539Y0091366D01*
X0222539Y0092365D02*
X0086077Y0092365D01*
X0086077Y0093363D02*
X0118660Y0093363D01*
X0119055Y0093199D02*
X0120165Y0093199D01*
X0121190Y0093624D01*
X0121654Y0094088D01*
X0132208Y0094088D01*
X0133321Y0095201D01*
X0133321Y0125440D01*
X0133786Y0125904D01*
X0134210Y0126929D01*
X0134210Y0128039D01*
X0133786Y0129064D01*
X0133001Y0129849D01*
X0131976Y0130273D01*
X0130866Y0130273D01*
X0129854Y0129854D01*
X0130273Y0130866D01*
X0130273Y0131976D01*
X0129849Y0133001D01*
X0129064Y0133786D01*
X0128039Y0134210D01*
X0126929Y0134210D01*
X0125917Y0133791D01*
X0126336Y0134803D01*
X0126336Y0135913D01*
X0125912Y0136938D01*
X0125127Y0137723D01*
X0124102Y0138147D01*
X0122992Y0138147D01*
X0121967Y0137723D01*
X0121183Y0136938D01*
X0120758Y0135913D01*
X0120758Y0134803D01*
X0121183Y0133778D01*
X0121647Y0133314D01*
X0121647Y0101969D01*
X0121183Y0101505D01*
X0120758Y0100480D01*
X0120758Y0099370D01*
X0121178Y0098358D01*
X0120165Y0098777D01*
X0119055Y0098777D01*
X0118030Y0098353D01*
X0117246Y0097568D01*
X0116821Y0096543D01*
X0116821Y0095433D01*
X0117246Y0094408D01*
X0118030Y0093624D01*
X0119055Y0093199D01*
X0120561Y0093363D02*
X0222539Y0093363D01*
X0222539Y0094362D02*
X0132482Y0094362D01*
X0133321Y0095360D02*
X0222539Y0095360D01*
X0222539Y0096359D02*
X0133321Y0096359D01*
X0133321Y0097357D02*
X0161829Y0097357D01*
X0161337Y0097561D02*
X0162363Y0097136D01*
X0163472Y0097136D01*
X0164497Y0097561D01*
X0165282Y0098345D01*
X0165706Y0099370D01*
X0165706Y0100480D01*
X0165287Y0101493D01*
X0166300Y0101073D01*
X0167409Y0101073D01*
X0168434Y0101498D01*
X0169219Y0102282D01*
X0169643Y0103307D01*
X0169643Y0104417D01*
X0169219Y0105442D01*
X0168754Y0105906D01*
X0168754Y0113629D01*
X0169219Y0114093D01*
X0169643Y0115118D01*
X0169643Y0116228D01*
X0169219Y0117253D01*
X0168434Y0118038D01*
X0167409Y0118462D01*
X0166300Y0118462D01*
X0165274Y0118038D01*
X0164817Y0117580D01*
X0164817Y0121503D01*
X0165282Y0121967D01*
X0165706Y0122992D01*
X0165706Y0124102D01*
X0165282Y0125127D01*
X0164497Y0125912D01*
X0163472Y0126336D01*
X0162363Y0126336D01*
X0161337Y0125912D01*
X0160553Y0125127D01*
X0160128Y0124102D01*
X0160128Y0122992D01*
X0160553Y0121967D01*
X0161017Y0121503D01*
X0161017Y0101969D01*
X0160553Y0101505D01*
X0160128Y0100480D01*
X0160128Y0099370D01*
X0160553Y0098345D01*
X0161337Y0097561D01*
X0160549Y0098356D02*
X0133321Y0098356D01*
X0133321Y0099354D02*
X0160135Y0099354D01*
X0160128Y0100353D02*
X0133321Y0100353D01*
X0133321Y0101351D02*
X0160489Y0101351D01*
X0161017Y0102350D02*
X0133321Y0102350D01*
X0133321Y0103348D02*
X0161017Y0103348D01*
X0161017Y0104347D02*
X0133321Y0104347D01*
X0133321Y0105345D02*
X0161017Y0105345D01*
X0161017Y0106344D02*
X0133321Y0106344D01*
X0133321Y0107342D02*
X0161017Y0107342D01*
X0161017Y0108341D02*
X0133321Y0108341D01*
X0133321Y0109339D02*
X0161017Y0109339D01*
X0161017Y0110338D02*
X0133321Y0110338D01*
X0133321Y0111336D02*
X0161017Y0111336D01*
X0161017Y0112335D02*
X0133321Y0112335D01*
X0133321Y0113333D02*
X0161017Y0113333D01*
X0161017Y0114332D02*
X0133321Y0114332D01*
X0133321Y0115330D02*
X0161017Y0115330D01*
X0161017Y0116329D02*
X0133321Y0116329D01*
X0133321Y0117327D02*
X0161017Y0117327D01*
X0161017Y0118326D02*
X0133321Y0118326D01*
X0133321Y0119324D02*
X0161017Y0119324D01*
X0161017Y0120323D02*
X0133321Y0120323D01*
X0133321Y0121321D02*
X0161017Y0121321D01*
X0160407Y0122320D02*
X0133321Y0122320D01*
X0133321Y0123318D02*
X0160128Y0123318D01*
X0160217Y0124317D02*
X0133321Y0124317D01*
X0133321Y0125315D02*
X0160741Y0125315D01*
X0162309Y0126314D02*
X0133955Y0126314D01*
X0134210Y0127312D02*
X0222539Y0127312D01*
X0222539Y0126314D02*
X0163526Y0126314D01*
X0165093Y0125315D02*
X0222539Y0125315D01*
X0222539Y0124317D02*
X0165617Y0124317D01*
X0165706Y0123318D02*
X0222539Y0123318D01*
X0222539Y0122320D02*
X0165428Y0122320D01*
X0164817Y0121321D02*
X0222539Y0121321D01*
X0222539Y0120323D02*
X0164817Y0120323D01*
X0164817Y0119324D02*
X0222539Y0119324D01*
X0222539Y0118326D02*
X0167738Y0118326D01*
X0169144Y0117327D02*
X0222539Y0117327D01*
X0222539Y0116329D02*
X0169602Y0116329D01*
X0169643Y0115330D02*
X0222539Y0115330D01*
X0222539Y0114332D02*
X0169317Y0114332D01*
X0168754Y0113333D02*
X0222539Y0113333D01*
X0222539Y0112335D02*
X0168754Y0112335D01*
X0168754Y0111336D02*
X0222539Y0111336D01*
X0222539Y0110338D02*
X0168754Y0110338D01*
X0168754Y0109339D02*
X0222539Y0109339D01*
X0222539Y0108341D02*
X0168754Y0108341D01*
X0168754Y0107342D02*
X0222539Y0107342D01*
X0222539Y0106344D02*
X0168754Y0106344D01*
X0169259Y0105345D02*
X0222539Y0105345D01*
X0222539Y0104347D02*
X0169643Y0104347D01*
X0169643Y0103348D02*
X0222539Y0103348D01*
X0222539Y0102350D02*
X0169247Y0102350D01*
X0168080Y0101351D02*
X0222539Y0101351D01*
X0222539Y0100353D02*
X0165706Y0100353D01*
X0165700Y0099354D02*
X0222539Y0099354D01*
X0222539Y0098356D02*
X0165286Y0098356D01*
X0164005Y0097357D02*
X0222539Y0097357D01*
X0222539Y0128311D02*
X0134098Y0128311D01*
X0133540Y0129309D02*
X0222539Y0129309D01*
X0222539Y0130308D02*
X0130042Y0130308D01*
X0130273Y0131306D02*
X0222539Y0131306D01*
X0222539Y0132305D02*
X0130137Y0132305D01*
X0129546Y0133303D02*
X0222539Y0133303D01*
X0222539Y0134302D02*
X0126128Y0134302D01*
X0126336Y0135301D02*
X0222539Y0135301D01*
X0222539Y0136299D02*
X0126176Y0136299D01*
X0125552Y0137298D02*
X0222539Y0137298D01*
X0222539Y0138296D02*
X0086077Y0138296D01*
X0086077Y0137298D02*
X0121542Y0137298D01*
X0120918Y0136299D02*
X0086077Y0136299D01*
X0086077Y0135301D02*
X0120758Y0135301D01*
X0120966Y0134302D02*
X0086077Y0134302D01*
X0086077Y0133303D02*
X0121647Y0133303D01*
X0121647Y0132305D02*
X0086077Y0132305D01*
X0086077Y0131306D02*
X0121647Y0131306D01*
X0121647Y0130308D02*
X0086077Y0130308D01*
X0086077Y0129309D02*
X0121647Y0129309D01*
X0121647Y0128311D02*
X0086077Y0128311D01*
X0086077Y0127312D02*
X0121647Y0127312D01*
X0121647Y0126314D02*
X0086077Y0126314D01*
X0086077Y0125315D02*
X0121647Y0125315D01*
X0121647Y0124317D02*
X0086077Y0124317D01*
X0086077Y0123318D02*
X0121647Y0123318D01*
X0121647Y0122320D02*
X0086077Y0122320D01*
X0086077Y0121321D02*
X0121647Y0121321D01*
X0121647Y0120323D02*
X0086077Y0120323D01*
X0086077Y0119324D02*
X0121647Y0119324D01*
X0121647Y0118326D02*
X0086077Y0118326D01*
X0086077Y0117327D02*
X0121647Y0117327D01*
X0121647Y0116329D02*
X0086077Y0116329D01*
X0086077Y0115330D02*
X0121647Y0115330D01*
X0121647Y0114332D02*
X0086077Y0114332D01*
X0086077Y0113333D02*
X0121647Y0113333D01*
X0121647Y0112335D02*
X0086077Y0112335D01*
X0086077Y0111336D02*
X0121647Y0111336D01*
X0121647Y0110338D02*
X0086077Y0110338D01*
X0086077Y0109339D02*
X0121647Y0109339D01*
X0121647Y0108341D02*
X0086077Y0108341D01*
X0086077Y0107342D02*
X0121647Y0107342D01*
X0121647Y0106344D02*
X0086077Y0106344D01*
X0086077Y0105345D02*
X0121647Y0105345D01*
X0121647Y0104347D02*
X0086077Y0104347D01*
X0086077Y0103348D02*
X0121647Y0103348D01*
X0121647Y0102350D02*
X0086077Y0102350D01*
X0086077Y0101351D02*
X0121119Y0101351D01*
X0120758Y0100353D02*
X0086077Y0100353D01*
X0086077Y0099354D02*
X0120765Y0099354D01*
X0118038Y0098356D02*
X0086077Y0098356D01*
X0086077Y0097357D02*
X0117158Y0097357D01*
X0116821Y0096359D02*
X0086077Y0096359D01*
X0086077Y0095360D02*
X0116852Y0095360D01*
X0117293Y0094362D02*
X0086077Y0094362D01*
X0086077Y0139295D02*
X0222539Y0139295D01*
X0222539Y0140293D02*
X0086077Y0140293D01*
X0086181Y0141292D02*
X0222539Y0141292D01*
X0222539Y0142290D02*
X0086806Y0142290D01*
X0086966Y0143289D02*
X0222539Y0143289D01*
X0222539Y0144287D02*
X0086759Y0144287D01*
X0086068Y0145286D02*
X0222539Y0145286D01*
X0222539Y0146284D02*
X0066539Y0146284D01*
X0068227Y0145286D02*
X0082286Y0145286D01*
X0081595Y0144287D02*
X0069108Y0144287D01*
X0069522Y0143289D02*
X0081388Y0143289D01*
X0081549Y0142290D02*
X0069733Y0142290D01*
X0069733Y0141292D02*
X0082174Y0141292D01*
X0082277Y0140293D02*
X0069733Y0140293D01*
X0069733Y0139295D02*
X0082277Y0139295D01*
X0018880Y0186225D02*
X0210892Y0186225D01*
X0210478Y0187223D02*
X0019293Y0187223D01*
X0019707Y0188222D02*
X0210065Y0188222D01*
X0209869Y0189220D02*
X0019903Y0189220D01*
X0019903Y0190219D02*
X0209869Y0190219D01*
X0209869Y0191217D02*
X0019903Y0191217D01*
X0019903Y0192216D02*
X0209869Y0192216D01*
X0210265Y0193214D02*
X0019507Y0193214D01*
X0019093Y0194213D02*
X0210679Y0194213D01*
X0211092Y0195211D02*
X0018680Y0195211D01*
X0018362Y0185226D02*
X0211410Y0185226D01*
X0212408Y0184228D02*
X0017363Y0184228D01*
X0016365Y0183229D02*
X0213407Y0183229D01*
X0215332Y0182231D02*
X0014440Y0182231D01*
X0007458Y0182231D02*
X0006839Y0182231D01*
X0006839Y0181232D02*
X0222539Y0181232D01*
X0222539Y0180234D02*
X0006839Y0180234D01*
X0006839Y0179235D02*
X0222539Y0179235D01*
X0222539Y0178237D02*
X0006839Y0178237D01*
X0006839Y0177238D02*
X0222539Y0177238D01*
X0222539Y0176239D02*
X0006839Y0176239D01*
X0006839Y0175241D02*
X0222539Y0175241D01*
X0222539Y0174242D02*
X0006839Y0174242D01*
X0006839Y0173244D02*
X0222539Y0173244D01*
X0222539Y0172245D02*
X0006839Y0172245D01*
X0006839Y0171247D02*
X0222539Y0171247D01*
X0222539Y0170248D02*
X0006839Y0170248D01*
X0006839Y0169250D02*
X0222539Y0169250D01*
X0222539Y0168251D02*
X0006839Y0168251D01*
X0006839Y0167253D02*
X0222539Y0167253D01*
X0222539Y0166254D02*
X0006839Y0166254D01*
X0006839Y0165256D02*
X0222539Y0165256D01*
X0222539Y0164257D02*
X0006839Y0164257D01*
X0006839Y0163259D02*
X0222539Y0163259D01*
X0222539Y0162260D02*
X0006839Y0162260D01*
X0006839Y0161262D02*
X0222539Y0161262D01*
X0222539Y0160263D02*
X0006839Y0160263D01*
X0006839Y0159265D02*
X0222539Y0159265D01*
X0222539Y0158266D02*
X0006839Y0158266D01*
X0006839Y0157268D02*
X0222539Y0157268D01*
X0222539Y0156269D02*
X0006839Y0156269D01*
X0006839Y0155271D02*
X0222539Y0155271D01*
X0222539Y0154272D02*
X0006839Y0154272D01*
X0006839Y0153274D02*
X0222539Y0153274D01*
X0222539Y0152275D02*
X0006839Y0152275D01*
X0006839Y0151277D02*
X0222539Y0151277D01*
X0222539Y0150278D02*
X0006839Y0150278D01*
X0006839Y0149280D02*
X0222539Y0149280D01*
X0222539Y0148281D02*
X0006839Y0148281D01*
X0006839Y0147283D02*
X0222539Y0147283D01*
X0222314Y0182231D02*
X0222539Y0182231D01*
X0165970Y0118326D02*
X0164817Y0118326D01*
X0165345Y0101351D02*
X0165629Y0101351D01*
D14*
X0166854Y0103862D03*
X0162917Y0099925D03*
X0166854Y0115673D03*
X0162917Y0123547D03*
X0131421Y0127484D03*
X0127484Y0131421D03*
X0123547Y0135358D03*
X0127484Y0103862D03*
X0123547Y0099925D03*
X0119610Y0095988D03*
X0077287Y0101894D03*
X0078272Y0118626D03*
X0076303Y0143232D03*
X0084177Y0143232D03*
X0084177Y0052681D03*
D15*
X0084177Y0143232D01*
X0123547Y0135358D02*
X0123547Y0099925D01*
X0119610Y0095988D02*
X0131421Y0095988D01*
X0131421Y0127484D01*
X0127484Y0131421D02*
X0127484Y0103862D01*
X0162917Y0099925D02*
X0162917Y0123547D01*
X0166854Y0115673D02*
X0166854Y0103862D01*
M02*
