%
M48
M72
T01C0.01378
T02C0.02000
T03C0.03150
T04C0.03543
T05C0.04000
T06C0.04724
T07C0.05118
T08C0.06299
%
T01
X52942Y62449
X64753Y82134
X90344Y62449
X100186Y46701
X126761Y38827
X141525Y58512
X149399Y49654
X167115Y66386
X159241Y101819
X204517Y201563
X239942Y235677
X245856Y166130
X279320Y141189
X291131Y196307
X218297Y92114
X193690Y142508
X119871Y212055
X93297Y212055
X76564Y235677
X45068Y235677
X99942Y294732
X110029Y294732
X119871Y294732
X147430Y294732
X189942Y362449
X179942Y371898
X184832Y378197
X169942Y368748
X159942Y381346
X155304Y375047
X165147Y384496
X214360Y345913
X230108Y341976
X269478Y362449
X287194Y385283
X259942Y450244
X237982Y440402
X89942Y377409
X62785Y361661
X56879Y361661
X56879Y373472
X45068Y401031
X81486Y450244
X75580Y444339
X81486Y439417
T02
X31289Y383020
X31289Y354476
T03
X42037Y378295
X42037Y359201
T04
X78533Y467961
X66722Y467961
T05
X219281Y38669
X219281Y48669
T06
X164832Y130205
X176643Y189260
X183257Y54575
X163572Y34890
X163572Y25047
X202942Y25047
X202942Y34890
X263257Y114457
X231761Y212882
T07
X203336Y54575
X193100Y54575
X173415Y54575
X163178Y54575
X183257Y34890
T08
X31289Y334299
X31289Y294929
M30
