%
M48
M72
T01C0.0138
T02C0.0200
T03C0.0315
T04C0.0354
T05C0.0394
T06C0.0400
T07C0.0472
T08C0.0512
T09C0.0630
%
T01
X5294Y6245
X6475Y8213
X9034Y6245
X10019Y4670
X12676Y3883
X14152Y5851
X14940Y4965
X16712Y6639
X15924Y10182
X20452Y18926
X24782Y23568
X24586Y15776
X27932Y14119
X29113Y19631
X21830Y9211
X19369Y13922
X11987Y21993
X9231Y21993
X7656Y23568
X4507Y23568
X9994Y29473
X11003Y29473
X11987Y29473
X14743Y29473
X18994Y36245
X17994Y37190
X18483Y37820
X16994Y36875
X15994Y38135
X15530Y37505
X16515Y38450
X21436Y34591
X23011Y34198
X26948Y36245
X28719Y38528
X25994Y45024
X23798Y44040
X8994Y37741
X6278Y36166
X5688Y36166
X5688Y37347
X4507Y40103
X8149Y45024
X7558Y44434
X8149Y43942
T02
X3129Y38302
X3129Y35448
T03
X4204Y37830
X4204Y35920
T04
X7853Y46796
X6672Y46796
T05
X16483Y13020
X17664Y18926
X26326Y11446
X23176Y21288
T06
X21928Y3867
X21928Y4867
T07
X18326Y5457
X16357Y3489
X16357Y2505
X20294Y2505
X20294Y3489
T08
X20334Y5457
X19310Y5457
X17341Y5457
X16318Y5457
X18326Y3489
T09
X3129Y33430
X3129Y29493
M30
