G75*
%MOIN*%
%OFA0B0*%
%FSLAX25Y25*%
%IPPOS*%
%LPD*%
%AMOC8*
5,1,8,0,0,1.08239X$1,22.5*
%
%ADD10C,0.00000*%
%ADD11C,0.00039*%
%ADD12C,0.00200*%
%ADD13C,0.00500*%
%ADD14C,0.00400*%
%ADD15C,0.00394*%
%ADD16C,0.01000*%
%ADD17C,0.02000*%
%ADD18C,0.00800*%
%ADD19R,0.05512X0.02559*%
%ADD20C,0.00100*%
%ADD21C,0.01200*%
%ADD22R,0.02559X0.05512*%
D10*
X0029320Y0017142D02*
X0029320Y0202181D01*
X0029453Y0202183D01*
X0029586Y0202189D01*
X0029718Y0202199D01*
X0029851Y0202212D01*
X0029982Y0202230D01*
X0030114Y0202251D01*
X0030244Y0202276D01*
X0030374Y0202305D01*
X0030503Y0202338D01*
X0030630Y0202375D01*
X0030757Y0202415D01*
X0030883Y0202459D01*
X0031007Y0202507D01*
X0031129Y0202558D01*
X0031250Y0202613D01*
X0031370Y0202672D01*
X0031487Y0202733D01*
X0031603Y0202799D01*
X0031717Y0202867D01*
X0031829Y0202939D01*
X0031938Y0203015D01*
X0032046Y0203093D01*
X0032151Y0203175D01*
X0032253Y0203259D01*
X0032353Y0203347D01*
X0032451Y0203437D01*
X0032545Y0203531D01*
X0032637Y0203627D01*
X0032726Y0203726D01*
X0032812Y0203827D01*
X0032895Y0203931D01*
X0032975Y0204037D01*
X0033052Y0204145D01*
X0033126Y0204256D01*
X0033196Y0204369D01*
X0033263Y0204483D01*
X0033327Y0204600D01*
X0033387Y0204719D01*
X0033444Y0204839D01*
X0033497Y0204961D01*
X0033546Y0205084D01*
X0033592Y0205209D01*
X0033635Y0205335D01*
X0033673Y0205462D01*
X0033708Y0205591D01*
X0033739Y0205720D01*
X0033766Y0205850D01*
X0033789Y0205981D01*
X0033809Y0206112D01*
X0033824Y0206245D01*
X0033836Y0206377D01*
X0033844Y0206510D01*
X0033848Y0206643D01*
X0033848Y0206775D01*
X0033844Y0206908D01*
X0033836Y0207041D01*
X0033824Y0207173D01*
X0033809Y0207306D01*
X0033789Y0207437D01*
X0033766Y0207568D01*
X0033739Y0207698D01*
X0033708Y0207827D01*
X0033673Y0207956D01*
X0033635Y0208083D01*
X0033592Y0208209D01*
X0033546Y0208334D01*
X0033497Y0208457D01*
X0033444Y0208579D01*
X0033387Y0208699D01*
X0033327Y0208818D01*
X0033263Y0208935D01*
X0033196Y0209049D01*
X0033126Y0209162D01*
X0033052Y0209273D01*
X0032975Y0209381D01*
X0032895Y0209487D01*
X0032812Y0209591D01*
X0032726Y0209692D01*
X0032637Y0209791D01*
X0032545Y0209887D01*
X0032451Y0209981D01*
X0032353Y0210071D01*
X0032253Y0210159D01*
X0032151Y0210243D01*
X0032046Y0210325D01*
X0031938Y0210403D01*
X0031829Y0210479D01*
X0031717Y0210551D01*
X0031603Y0210619D01*
X0031487Y0210685D01*
X0031370Y0210746D01*
X0031250Y0210805D01*
X0031129Y0210860D01*
X0031007Y0210911D01*
X0030883Y0210959D01*
X0030757Y0211003D01*
X0030630Y0211043D01*
X0030503Y0211080D01*
X0030374Y0211113D01*
X0030244Y0211142D01*
X0030114Y0211167D01*
X0029982Y0211188D01*
X0029851Y0211206D01*
X0029718Y0211219D01*
X0029586Y0211229D01*
X0029453Y0211235D01*
X0029320Y0211237D01*
X0029320Y0211236D02*
X0029320Y0276984D01*
X0022430Y0276984D01*
X0022430Y0347850D01*
X0029320Y0347850D01*
X0029320Y0465961D01*
X0049005Y0465961D01*
X0049005Y0473835D01*
X0050974Y0473835D01*
X0050974Y0475803D01*
X0060816Y0475803D01*
X0060816Y0473835D01*
X0084438Y0473835D01*
X0084438Y0475803D01*
X0094281Y0475803D01*
X0094281Y0473835D01*
X0096249Y0473835D01*
X0096249Y0465961D01*
X0302942Y0465961D01*
X0302942Y0083874D01*
X0228139Y0083874D01*
X0228139Y0017142D01*
X0029320Y0017142D01*
X0075383Y0130921D02*
X0075385Y0131009D01*
X0075391Y0131097D01*
X0075401Y0131185D01*
X0075415Y0131273D01*
X0075432Y0131359D01*
X0075454Y0131445D01*
X0075479Y0131529D01*
X0075509Y0131613D01*
X0075541Y0131695D01*
X0075578Y0131775D01*
X0075618Y0131854D01*
X0075662Y0131931D01*
X0075709Y0132006D01*
X0075759Y0132078D01*
X0075813Y0132149D01*
X0075869Y0132216D01*
X0075929Y0132282D01*
X0075991Y0132344D01*
X0076057Y0132404D01*
X0076124Y0132460D01*
X0076195Y0132514D01*
X0076267Y0132564D01*
X0076342Y0132611D01*
X0076419Y0132655D01*
X0076498Y0132695D01*
X0076578Y0132732D01*
X0076660Y0132764D01*
X0076744Y0132794D01*
X0076828Y0132819D01*
X0076914Y0132841D01*
X0077000Y0132858D01*
X0077088Y0132872D01*
X0077176Y0132882D01*
X0077264Y0132888D01*
X0077352Y0132890D01*
X0077440Y0132888D01*
X0077528Y0132882D01*
X0077616Y0132872D01*
X0077704Y0132858D01*
X0077790Y0132841D01*
X0077876Y0132819D01*
X0077960Y0132794D01*
X0078044Y0132764D01*
X0078126Y0132732D01*
X0078206Y0132695D01*
X0078285Y0132655D01*
X0078362Y0132611D01*
X0078437Y0132564D01*
X0078509Y0132514D01*
X0078580Y0132460D01*
X0078647Y0132404D01*
X0078713Y0132344D01*
X0078775Y0132282D01*
X0078835Y0132216D01*
X0078891Y0132149D01*
X0078945Y0132078D01*
X0078995Y0132006D01*
X0079042Y0131931D01*
X0079086Y0131854D01*
X0079126Y0131775D01*
X0079163Y0131695D01*
X0079195Y0131613D01*
X0079225Y0131529D01*
X0079250Y0131445D01*
X0079272Y0131359D01*
X0079289Y0131273D01*
X0079303Y0131185D01*
X0079313Y0131097D01*
X0079319Y0131009D01*
X0079321Y0130921D01*
X0079319Y0130833D01*
X0079313Y0130745D01*
X0079303Y0130657D01*
X0079289Y0130569D01*
X0079272Y0130483D01*
X0079250Y0130397D01*
X0079225Y0130313D01*
X0079195Y0130229D01*
X0079163Y0130147D01*
X0079126Y0130067D01*
X0079086Y0129988D01*
X0079042Y0129911D01*
X0078995Y0129836D01*
X0078945Y0129764D01*
X0078891Y0129693D01*
X0078835Y0129626D01*
X0078775Y0129560D01*
X0078713Y0129498D01*
X0078647Y0129438D01*
X0078580Y0129382D01*
X0078509Y0129328D01*
X0078437Y0129278D01*
X0078362Y0129231D01*
X0078285Y0129187D01*
X0078206Y0129147D01*
X0078126Y0129110D01*
X0078044Y0129078D01*
X0077960Y0129048D01*
X0077876Y0129023D01*
X0077790Y0129001D01*
X0077704Y0128984D01*
X0077616Y0128970D01*
X0077528Y0128960D01*
X0077440Y0128954D01*
X0077352Y0128952D01*
X0077264Y0128954D01*
X0077176Y0128960D01*
X0077088Y0128970D01*
X0077000Y0128984D01*
X0076914Y0129001D01*
X0076828Y0129023D01*
X0076744Y0129048D01*
X0076660Y0129078D01*
X0076578Y0129110D01*
X0076498Y0129147D01*
X0076419Y0129187D01*
X0076342Y0129231D01*
X0076267Y0129278D01*
X0076195Y0129328D01*
X0076124Y0129382D01*
X0076057Y0129438D01*
X0075991Y0129498D01*
X0075929Y0129560D01*
X0075869Y0129626D01*
X0075813Y0129693D01*
X0075759Y0129764D01*
X0075709Y0129836D01*
X0075662Y0129911D01*
X0075618Y0129988D01*
X0075578Y0130067D01*
X0075541Y0130147D01*
X0075509Y0130229D01*
X0075479Y0130313D01*
X0075454Y0130397D01*
X0075432Y0130483D01*
X0075415Y0130569D01*
X0075401Y0130657D01*
X0075391Y0130745D01*
X0075385Y0130833D01*
X0075383Y0130921D01*
X0043887Y0162417D02*
X0043889Y0162505D01*
X0043895Y0162593D01*
X0043905Y0162681D01*
X0043919Y0162769D01*
X0043936Y0162855D01*
X0043958Y0162941D01*
X0043983Y0163025D01*
X0044013Y0163109D01*
X0044045Y0163191D01*
X0044082Y0163271D01*
X0044122Y0163350D01*
X0044166Y0163427D01*
X0044213Y0163502D01*
X0044263Y0163574D01*
X0044317Y0163645D01*
X0044373Y0163712D01*
X0044433Y0163778D01*
X0044495Y0163840D01*
X0044561Y0163900D01*
X0044628Y0163956D01*
X0044699Y0164010D01*
X0044771Y0164060D01*
X0044846Y0164107D01*
X0044923Y0164151D01*
X0045002Y0164191D01*
X0045082Y0164228D01*
X0045164Y0164260D01*
X0045248Y0164290D01*
X0045332Y0164315D01*
X0045418Y0164337D01*
X0045504Y0164354D01*
X0045592Y0164368D01*
X0045680Y0164378D01*
X0045768Y0164384D01*
X0045856Y0164386D01*
X0045944Y0164384D01*
X0046032Y0164378D01*
X0046120Y0164368D01*
X0046208Y0164354D01*
X0046294Y0164337D01*
X0046380Y0164315D01*
X0046464Y0164290D01*
X0046548Y0164260D01*
X0046630Y0164228D01*
X0046710Y0164191D01*
X0046789Y0164151D01*
X0046866Y0164107D01*
X0046941Y0164060D01*
X0047013Y0164010D01*
X0047084Y0163956D01*
X0047151Y0163900D01*
X0047217Y0163840D01*
X0047279Y0163778D01*
X0047339Y0163712D01*
X0047395Y0163645D01*
X0047449Y0163574D01*
X0047499Y0163502D01*
X0047546Y0163427D01*
X0047590Y0163350D01*
X0047630Y0163271D01*
X0047667Y0163191D01*
X0047699Y0163109D01*
X0047729Y0163025D01*
X0047754Y0162941D01*
X0047776Y0162855D01*
X0047793Y0162769D01*
X0047807Y0162681D01*
X0047817Y0162593D01*
X0047823Y0162505D01*
X0047825Y0162417D01*
X0047823Y0162329D01*
X0047817Y0162241D01*
X0047807Y0162153D01*
X0047793Y0162065D01*
X0047776Y0161979D01*
X0047754Y0161893D01*
X0047729Y0161809D01*
X0047699Y0161725D01*
X0047667Y0161643D01*
X0047630Y0161563D01*
X0047590Y0161484D01*
X0047546Y0161407D01*
X0047499Y0161332D01*
X0047449Y0161260D01*
X0047395Y0161189D01*
X0047339Y0161122D01*
X0047279Y0161056D01*
X0047217Y0160994D01*
X0047151Y0160934D01*
X0047084Y0160878D01*
X0047013Y0160824D01*
X0046941Y0160774D01*
X0046866Y0160727D01*
X0046789Y0160683D01*
X0046710Y0160643D01*
X0046630Y0160606D01*
X0046548Y0160574D01*
X0046464Y0160544D01*
X0046380Y0160519D01*
X0046294Y0160497D01*
X0046208Y0160480D01*
X0046120Y0160466D01*
X0046032Y0160456D01*
X0045944Y0160450D01*
X0045856Y0160448D01*
X0045768Y0160450D01*
X0045680Y0160456D01*
X0045592Y0160466D01*
X0045504Y0160480D01*
X0045418Y0160497D01*
X0045332Y0160519D01*
X0045248Y0160544D01*
X0045164Y0160574D01*
X0045082Y0160606D01*
X0045002Y0160643D01*
X0044923Y0160683D01*
X0044846Y0160727D01*
X0044771Y0160774D01*
X0044699Y0160824D01*
X0044628Y0160878D01*
X0044561Y0160934D01*
X0044495Y0160994D01*
X0044433Y0161056D01*
X0044373Y0161122D01*
X0044317Y0161189D01*
X0044263Y0161260D01*
X0044213Y0161332D01*
X0044166Y0161407D01*
X0044122Y0161484D01*
X0044082Y0161563D01*
X0044045Y0161643D01*
X0044013Y0161725D01*
X0043983Y0161809D01*
X0043958Y0161893D01*
X0043936Y0161979D01*
X0043919Y0162065D01*
X0043905Y0162153D01*
X0043895Y0162241D01*
X0043889Y0162329D01*
X0043887Y0162417D01*
X0075383Y0193913D02*
X0075385Y0194001D01*
X0075391Y0194089D01*
X0075401Y0194177D01*
X0075415Y0194265D01*
X0075432Y0194351D01*
X0075454Y0194437D01*
X0075479Y0194521D01*
X0075509Y0194605D01*
X0075541Y0194687D01*
X0075578Y0194767D01*
X0075618Y0194846D01*
X0075662Y0194923D01*
X0075709Y0194998D01*
X0075759Y0195070D01*
X0075813Y0195141D01*
X0075869Y0195208D01*
X0075929Y0195274D01*
X0075991Y0195336D01*
X0076057Y0195396D01*
X0076124Y0195452D01*
X0076195Y0195506D01*
X0076267Y0195556D01*
X0076342Y0195603D01*
X0076419Y0195647D01*
X0076498Y0195687D01*
X0076578Y0195724D01*
X0076660Y0195756D01*
X0076744Y0195786D01*
X0076828Y0195811D01*
X0076914Y0195833D01*
X0077000Y0195850D01*
X0077088Y0195864D01*
X0077176Y0195874D01*
X0077264Y0195880D01*
X0077352Y0195882D01*
X0077440Y0195880D01*
X0077528Y0195874D01*
X0077616Y0195864D01*
X0077704Y0195850D01*
X0077790Y0195833D01*
X0077876Y0195811D01*
X0077960Y0195786D01*
X0078044Y0195756D01*
X0078126Y0195724D01*
X0078206Y0195687D01*
X0078285Y0195647D01*
X0078362Y0195603D01*
X0078437Y0195556D01*
X0078509Y0195506D01*
X0078580Y0195452D01*
X0078647Y0195396D01*
X0078713Y0195336D01*
X0078775Y0195274D01*
X0078835Y0195208D01*
X0078891Y0195141D01*
X0078945Y0195070D01*
X0078995Y0194998D01*
X0079042Y0194923D01*
X0079086Y0194846D01*
X0079126Y0194767D01*
X0079163Y0194687D01*
X0079195Y0194605D01*
X0079225Y0194521D01*
X0079250Y0194437D01*
X0079272Y0194351D01*
X0079289Y0194265D01*
X0079303Y0194177D01*
X0079313Y0194089D01*
X0079319Y0194001D01*
X0079321Y0193913D01*
X0079319Y0193825D01*
X0079313Y0193737D01*
X0079303Y0193649D01*
X0079289Y0193561D01*
X0079272Y0193475D01*
X0079250Y0193389D01*
X0079225Y0193305D01*
X0079195Y0193221D01*
X0079163Y0193139D01*
X0079126Y0193059D01*
X0079086Y0192980D01*
X0079042Y0192903D01*
X0078995Y0192828D01*
X0078945Y0192756D01*
X0078891Y0192685D01*
X0078835Y0192618D01*
X0078775Y0192552D01*
X0078713Y0192490D01*
X0078647Y0192430D01*
X0078580Y0192374D01*
X0078509Y0192320D01*
X0078437Y0192270D01*
X0078362Y0192223D01*
X0078285Y0192179D01*
X0078206Y0192139D01*
X0078126Y0192102D01*
X0078044Y0192070D01*
X0077960Y0192040D01*
X0077876Y0192015D01*
X0077790Y0191993D01*
X0077704Y0191976D01*
X0077616Y0191962D01*
X0077528Y0191952D01*
X0077440Y0191946D01*
X0077352Y0191944D01*
X0077264Y0191946D01*
X0077176Y0191952D01*
X0077088Y0191962D01*
X0077000Y0191976D01*
X0076914Y0191993D01*
X0076828Y0192015D01*
X0076744Y0192040D01*
X0076660Y0192070D01*
X0076578Y0192102D01*
X0076498Y0192139D01*
X0076419Y0192179D01*
X0076342Y0192223D01*
X0076267Y0192270D01*
X0076195Y0192320D01*
X0076124Y0192374D01*
X0076057Y0192430D01*
X0075991Y0192490D01*
X0075929Y0192552D01*
X0075869Y0192618D01*
X0075813Y0192685D01*
X0075759Y0192756D01*
X0075709Y0192828D01*
X0075662Y0192903D01*
X0075618Y0192980D01*
X0075578Y0193059D01*
X0075541Y0193139D01*
X0075509Y0193221D01*
X0075479Y0193305D01*
X0075454Y0193389D01*
X0075432Y0193475D01*
X0075415Y0193561D01*
X0075401Y0193649D01*
X0075391Y0193737D01*
X0075385Y0193825D01*
X0075383Y0193913D01*
X0106879Y0162417D02*
X0106881Y0162505D01*
X0106887Y0162593D01*
X0106897Y0162681D01*
X0106911Y0162769D01*
X0106928Y0162855D01*
X0106950Y0162941D01*
X0106975Y0163025D01*
X0107005Y0163109D01*
X0107037Y0163191D01*
X0107074Y0163271D01*
X0107114Y0163350D01*
X0107158Y0163427D01*
X0107205Y0163502D01*
X0107255Y0163574D01*
X0107309Y0163645D01*
X0107365Y0163712D01*
X0107425Y0163778D01*
X0107487Y0163840D01*
X0107553Y0163900D01*
X0107620Y0163956D01*
X0107691Y0164010D01*
X0107763Y0164060D01*
X0107838Y0164107D01*
X0107915Y0164151D01*
X0107994Y0164191D01*
X0108074Y0164228D01*
X0108156Y0164260D01*
X0108240Y0164290D01*
X0108324Y0164315D01*
X0108410Y0164337D01*
X0108496Y0164354D01*
X0108584Y0164368D01*
X0108672Y0164378D01*
X0108760Y0164384D01*
X0108848Y0164386D01*
X0108936Y0164384D01*
X0109024Y0164378D01*
X0109112Y0164368D01*
X0109200Y0164354D01*
X0109286Y0164337D01*
X0109372Y0164315D01*
X0109456Y0164290D01*
X0109540Y0164260D01*
X0109622Y0164228D01*
X0109702Y0164191D01*
X0109781Y0164151D01*
X0109858Y0164107D01*
X0109933Y0164060D01*
X0110005Y0164010D01*
X0110076Y0163956D01*
X0110143Y0163900D01*
X0110209Y0163840D01*
X0110271Y0163778D01*
X0110331Y0163712D01*
X0110387Y0163645D01*
X0110441Y0163574D01*
X0110491Y0163502D01*
X0110538Y0163427D01*
X0110582Y0163350D01*
X0110622Y0163271D01*
X0110659Y0163191D01*
X0110691Y0163109D01*
X0110721Y0163025D01*
X0110746Y0162941D01*
X0110768Y0162855D01*
X0110785Y0162769D01*
X0110799Y0162681D01*
X0110809Y0162593D01*
X0110815Y0162505D01*
X0110817Y0162417D01*
X0110815Y0162329D01*
X0110809Y0162241D01*
X0110799Y0162153D01*
X0110785Y0162065D01*
X0110768Y0161979D01*
X0110746Y0161893D01*
X0110721Y0161809D01*
X0110691Y0161725D01*
X0110659Y0161643D01*
X0110622Y0161563D01*
X0110582Y0161484D01*
X0110538Y0161407D01*
X0110491Y0161332D01*
X0110441Y0161260D01*
X0110387Y0161189D01*
X0110331Y0161122D01*
X0110271Y0161056D01*
X0110209Y0160994D01*
X0110143Y0160934D01*
X0110076Y0160878D01*
X0110005Y0160824D01*
X0109933Y0160774D01*
X0109858Y0160727D01*
X0109781Y0160683D01*
X0109702Y0160643D01*
X0109622Y0160606D01*
X0109540Y0160574D01*
X0109456Y0160544D01*
X0109372Y0160519D01*
X0109286Y0160497D01*
X0109200Y0160480D01*
X0109112Y0160466D01*
X0109024Y0160456D01*
X0108936Y0160450D01*
X0108848Y0160448D01*
X0108760Y0160450D01*
X0108672Y0160456D01*
X0108584Y0160466D01*
X0108496Y0160480D01*
X0108410Y0160497D01*
X0108324Y0160519D01*
X0108240Y0160544D01*
X0108156Y0160574D01*
X0108074Y0160606D01*
X0107994Y0160643D01*
X0107915Y0160683D01*
X0107838Y0160727D01*
X0107763Y0160774D01*
X0107691Y0160824D01*
X0107620Y0160878D01*
X0107553Y0160934D01*
X0107487Y0160994D01*
X0107425Y0161056D01*
X0107365Y0161122D01*
X0107309Y0161189D01*
X0107255Y0161260D01*
X0107205Y0161332D01*
X0107158Y0161407D01*
X0107114Y0161484D01*
X0107074Y0161563D01*
X0107037Y0161643D01*
X0107005Y0161725D01*
X0106975Y0161809D01*
X0106950Y0161893D01*
X0106928Y0161979D01*
X0106911Y0162065D01*
X0106897Y0162153D01*
X0106887Y0162241D01*
X0106881Y0162329D01*
X0106879Y0162417D01*
X0141741Y0080173D02*
X0141743Y0080261D01*
X0141749Y0080349D01*
X0141759Y0080437D01*
X0141773Y0080525D01*
X0141790Y0080611D01*
X0141812Y0080697D01*
X0141837Y0080781D01*
X0141867Y0080865D01*
X0141899Y0080947D01*
X0141936Y0081027D01*
X0141976Y0081106D01*
X0142020Y0081183D01*
X0142067Y0081258D01*
X0142117Y0081330D01*
X0142171Y0081401D01*
X0142227Y0081468D01*
X0142287Y0081534D01*
X0142349Y0081596D01*
X0142415Y0081656D01*
X0142482Y0081712D01*
X0142553Y0081766D01*
X0142625Y0081816D01*
X0142700Y0081863D01*
X0142777Y0081907D01*
X0142856Y0081947D01*
X0142936Y0081984D01*
X0143018Y0082016D01*
X0143102Y0082046D01*
X0143186Y0082071D01*
X0143272Y0082093D01*
X0143358Y0082110D01*
X0143446Y0082124D01*
X0143534Y0082134D01*
X0143622Y0082140D01*
X0143710Y0082142D01*
X0143798Y0082140D01*
X0143886Y0082134D01*
X0143974Y0082124D01*
X0144062Y0082110D01*
X0144148Y0082093D01*
X0144234Y0082071D01*
X0144318Y0082046D01*
X0144402Y0082016D01*
X0144484Y0081984D01*
X0144564Y0081947D01*
X0144643Y0081907D01*
X0144720Y0081863D01*
X0144795Y0081816D01*
X0144867Y0081766D01*
X0144938Y0081712D01*
X0145005Y0081656D01*
X0145071Y0081596D01*
X0145133Y0081534D01*
X0145193Y0081468D01*
X0145249Y0081401D01*
X0145303Y0081330D01*
X0145353Y0081258D01*
X0145400Y0081183D01*
X0145444Y0081106D01*
X0145484Y0081027D01*
X0145521Y0080947D01*
X0145553Y0080865D01*
X0145583Y0080781D01*
X0145608Y0080697D01*
X0145630Y0080611D01*
X0145647Y0080525D01*
X0145661Y0080437D01*
X0145671Y0080349D01*
X0145677Y0080261D01*
X0145679Y0080173D01*
X0145677Y0080085D01*
X0145671Y0079997D01*
X0145661Y0079909D01*
X0145647Y0079821D01*
X0145630Y0079735D01*
X0145608Y0079649D01*
X0145583Y0079565D01*
X0145553Y0079481D01*
X0145521Y0079399D01*
X0145484Y0079319D01*
X0145444Y0079240D01*
X0145400Y0079163D01*
X0145353Y0079088D01*
X0145303Y0079016D01*
X0145249Y0078945D01*
X0145193Y0078878D01*
X0145133Y0078812D01*
X0145071Y0078750D01*
X0145005Y0078690D01*
X0144938Y0078634D01*
X0144867Y0078580D01*
X0144795Y0078530D01*
X0144720Y0078483D01*
X0144643Y0078439D01*
X0144564Y0078399D01*
X0144484Y0078362D01*
X0144402Y0078330D01*
X0144318Y0078300D01*
X0144234Y0078275D01*
X0144148Y0078253D01*
X0144062Y0078236D01*
X0143974Y0078222D01*
X0143886Y0078212D01*
X0143798Y0078206D01*
X0143710Y0078204D01*
X0143622Y0078206D01*
X0143534Y0078212D01*
X0143446Y0078222D01*
X0143358Y0078236D01*
X0143272Y0078253D01*
X0143186Y0078275D01*
X0143102Y0078300D01*
X0143018Y0078330D01*
X0142936Y0078362D01*
X0142856Y0078399D01*
X0142777Y0078439D01*
X0142700Y0078483D01*
X0142625Y0078530D01*
X0142553Y0078580D01*
X0142482Y0078634D01*
X0142415Y0078690D01*
X0142349Y0078750D01*
X0142287Y0078812D01*
X0142227Y0078878D01*
X0142171Y0078945D01*
X0142117Y0079016D01*
X0142067Y0079088D01*
X0142020Y0079163D01*
X0141976Y0079240D01*
X0141936Y0079319D01*
X0141899Y0079399D01*
X0141867Y0079481D01*
X0141837Y0079565D01*
X0141812Y0079649D01*
X0141790Y0079735D01*
X0141773Y0079821D01*
X0141759Y0079909D01*
X0141749Y0079997D01*
X0141743Y0080085D01*
X0141741Y0080173D01*
X0162863Y0128205D02*
X0162865Y0128293D01*
X0162871Y0128381D01*
X0162881Y0128469D01*
X0162895Y0128557D01*
X0162912Y0128643D01*
X0162934Y0128729D01*
X0162959Y0128813D01*
X0162989Y0128897D01*
X0163021Y0128979D01*
X0163058Y0129059D01*
X0163098Y0129138D01*
X0163142Y0129215D01*
X0163189Y0129290D01*
X0163239Y0129362D01*
X0163293Y0129433D01*
X0163349Y0129500D01*
X0163409Y0129566D01*
X0163471Y0129628D01*
X0163537Y0129688D01*
X0163604Y0129744D01*
X0163675Y0129798D01*
X0163747Y0129848D01*
X0163822Y0129895D01*
X0163899Y0129939D01*
X0163978Y0129979D01*
X0164058Y0130016D01*
X0164140Y0130048D01*
X0164224Y0130078D01*
X0164308Y0130103D01*
X0164394Y0130125D01*
X0164480Y0130142D01*
X0164568Y0130156D01*
X0164656Y0130166D01*
X0164744Y0130172D01*
X0164832Y0130174D01*
X0164920Y0130172D01*
X0165008Y0130166D01*
X0165096Y0130156D01*
X0165184Y0130142D01*
X0165270Y0130125D01*
X0165356Y0130103D01*
X0165440Y0130078D01*
X0165524Y0130048D01*
X0165606Y0130016D01*
X0165686Y0129979D01*
X0165765Y0129939D01*
X0165842Y0129895D01*
X0165917Y0129848D01*
X0165989Y0129798D01*
X0166060Y0129744D01*
X0166127Y0129688D01*
X0166193Y0129628D01*
X0166255Y0129566D01*
X0166315Y0129500D01*
X0166371Y0129433D01*
X0166425Y0129362D01*
X0166475Y0129290D01*
X0166522Y0129215D01*
X0166566Y0129138D01*
X0166606Y0129059D01*
X0166643Y0128979D01*
X0166675Y0128897D01*
X0166705Y0128813D01*
X0166730Y0128729D01*
X0166752Y0128643D01*
X0166769Y0128557D01*
X0166783Y0128469D01*
X0166793Y0128381D01*
X0166799Y0128293D01*
X0166801Y0128205D01*
X0166799Y0128117D01*
X0166793Y0128029D01*
X0166783Y0127941D01*
X0166769Y0127853D01*
X0166752Y0127767D01*
X0166730Y0127681D01*
X0166705Y0127597D01*
X0166675Y0127513D01*
X0166643Y0127431D01*
X0166606Y0127351D01*
X0166566Y0127272D01*
X0166522Y0127195D01*
X0166475Y0127120D01*
X0166425Y0127048D01*
X0166371Y0126977D01*
X0166315Y0126910D01*
X0166255Y0126844D01*
X0166193Y0126782D01*
X0166127Y0126722D01*
X0166060Y0126666D01*
X0165989Y0126612D01*
X0165917Y0126562D01*
X0165842Y0126515D01*
X0165765Y0126471D01*
X0165686Y0126431D01*
X0165606Y0126394D01*
X0165524Y0126362D01*
X0165440Y0126332D01*
X0165356Y0126307D01*
X0165270Y0126285D01*
X0165184Y0126268D01*
X0165096Y0126254D01*
X0165008Y0126244D01*
X0164920Y0126238D01*
X0164832Y0126236D01*
X0164744Y0126238D01*
X0164656Y0126244D01*
X0164568Y0126254D01*
X0164480Y0126268D01*
X0164394Y0126285D01*
X0164308Y0126307D01*
X0164224Y0126332D01*
X0164140Y0126362D01*
X0164058Y0126394D01*
X0163978Y0126431D01*
X0163899Y0126471D01*
X0163822Y0126515D01*
X0163747Y0126562D01*
X0163675Y0126612D01*
X0163604Y0126666D01*
X0163537Y0126722D01*
X0163471Y0126782D01*
X0163409Y0126844D01*
X0163349Y0126910D01*
X0163293Y0126977D01*
X0163239Y0127048D01*
X0163189Y0127120D01*
X0163142Y0127195D01*
X0163098Y0127272D01*
X0163058Y0127351D01*
X0163021Y0127431D01*
X0162989Y0127513D01*
X0162959Y0127597D01*
X0162934Y0127681D01*
X0162912Y0127767D01*
X0162895Y0127853D01*
X0162881Y0127941D01*
X0162871Y0128029D01*
X0162865Y0128117D01*
X0162863Y0128205D01*
X0187410Y0080173D02*
X0187412Y0080261D01*
X0187418Y0080349D01*
X0187428Y0080437D01*
X0187442Y0080525D01*
X0187459Y0080611D01*
X0187481Y0080697D01*
X0187506Y0080781D01*
X0187536Y0080865D01*
X0187568Y0080947D01*
X0187605Y0081027D01*
X0187645Y0081106D01*
X0187689Y0081183D01*
X0187736Y0081258D01*
X0187786Y0081330D01*
X0187840Y0081401D01*
X0187896Y0081468D01*
X0187956Y0081534D01*
X0188018Y0081596D01*
X0188084Y0081656D01*
X0188151Y0081712D01*
X0188222Y0081766D01*
X0188294Y0081816D01*
X0188369Y0081863D01*
X0188446Y0081907D01*
X0188525Y0081947D01*
X0188605Y0081984D01*
X0188687Y0082016D01*
X0188771Y0082046D01*
X0188855Y0082071D01*
X0188941Y0082093D01*
X0189027Y0082110D01*
X0189115Y0082124D01*
X0189203Y0082134D01*
X0189291Y0082140D01*
X0189379Y0082142D01*
X0189467Y0082140D01*
X0189555Y0082134D01*
X0189643Y0082124D01*
X0189731Y0082110D01*
X0189817Y0082093D01*
X0189903Y0082071D01*
X0189987Y0082046D01*
X0190071Y0082016D01*
X0190153Y0081984D01*
X0190233Y0081947D01*
X0190312Y0081907D01*
X0190389Y0081863D01*
X0190464Y0081816D01*
X0190536Y0081766D01*
X0190607Y0081712D01*
X0190674Y0081656D01*
X0190740Y0081596D01*
X0190802Y0081534D01*
X0190862Y0081468D01*
X0190918Y0081401D01*
X0190972Y0081330D01*
X0191022Y0081258D01*
X0191069Y0081183D01*
X0191113Y0081106D01*
X0191153Y0081027D01*
X0191190Y0080947D01*
X0191222Y0080865D01*
X0191252Y0080781D01*
X0191277Y0080697D01*
X0191299Y0080611D01*
X0191316Y0080525D01*
X0191330Y0080437D01*
X0191340Y0080349D01*
X0191346Y0080261D01*
X0191348Y0080173D01*
X0191346Y0080085D01*
X0191340Y0079997D01*
X0191330Y0079909D01*
X0191316Y0079821D01*
X0191299Y0079735D01*
X0191277Y0079649D01*
X0191252Y0079565D01*
X0191222Y0079481D01*
X0191190Y0079399D01*
X0191153Y0079319D01*
X0191113Y0079240D01*
X0191069Y0079163D01*
X0191022Y0079088D01*
X0190972Y0079016D01*
X0190918Y0078945D01*
X0190862Y0078878D01*
X0190802Y0078812D01*
X0190740Y0078750D01*
X0190674Y0078690D01*
X0190607Y0078634D01*
X0190536Y0078580D01*
X0190464Y0078530D01*
X0190389Y0078483D01*
X0190312Y0078439D01*
X0190233Y0078399D01*
X0190153Y0078362D01*
X0190071Y0078330D01*
X0189987Y0078300D01*
X0189903Y0078275D01*
X0189817Y0078253D01*
X0189731Y0078236D01*
X0189643Y0078222D01*
X0189555Y0078212D01*
X0189467Y0078206D01*
X0189379Y0078204D01*
X0189291Y0078206D01*
X0189203Y0078212D01*
X0189115Y0078222D01*
X0189027Y0078236D01*
X0188941Y0078253D01*
X0188855Y0078275D01*
X0188771Y0078300D01*
X0188687Y0078330D01*
X0188605Y0078362D01*
X0188525Y0078399D01*
X0188446Y0078439D01*
X0188369Y0078483D01*
X0188294Y0078530D01*
X0188222Y0078580D01*
X0188151Y0078634D01*
X0188084Y0078690D01*
X0188018Y0078750D01*
X0187956Y0078812D01*
X0187896Y0078878D01*
X0187840Y0078945D01*
X0187786Y0079016D01*
X0187736Y0079088D01*
X0187689Y0079163D01*
X0187645Y0079240D01*
X0187605Y0079319D01*
X0187568Y0079399D01*
X0187536Y0079481D01*
X0187506Y0079565D01*
X0187481Y0079649D01*
X0187459Y0079735D01*
X0187442Y0079821D01*
X0187428Y0079909D01*
X0187418Y0079997D01*
X0187412Y0080085D01*
X0187410Y0080173D01*
X0180304Y0048441D02*
X0180306Y0048549D01*
X0180312Y0048658D01*
X0180322Y0048766D01*
X0180336Y0048873D01*
X0180354Y0048980D01*
X0180375Y0049087D01*
X0180401Y0049192D01*
X0180431Y0049297D01*
X0180464Y0049400D01*
X0180501Y0049502D01*
X0180542Y0049602D01*
X0180586Y0049701D01*
X0180635Y0049799D01*
X0180686Y0049894D01*
X0180741Y0049987D01*
X0180800Y0050079D01*
X0180862Y0050168D01*
X0180927Y0050255D01*
X0180995Y0050339D01*
X0181066Y0050421D01*
X0181140Y0050500D01*
X0181217Y0050576D01*
X0181297Y0050650D01*
X0181380Y0050720D01*
X0181465Y0050788D01*
X0181552Y0050852D01*
X0181642Y0050913D01*
X0181734Y0050971D01*
X0181828Y0051025D01*
X0181924Y0051076D01*
X0182021Y0051123D01*
X0182121Y0051167D01*
X0182222Y0051207D01*
X0182324Y0051243D01*
X0182427Y0051275D01*
X0182532Y0051304D01*
X0182638Y0051328D01*
X0182744Y0051349D01*
X0182851Y0051366D01*
X0182959Y0051379D01*
X0183067Y0051388D01*
X0183176Y0051393D01*
X0183284Y0051394D01*
X0183393Y0051391D01*
X0183501Y0051384D01*
X0183609Y0051373D01*
X0183716Y0051358D01*
X0183823Y0051339D01*
X0183929Y0051316D01*
X0184034Y0051290D01*
X0184139Y0051259D01*
X0184241Y0051225D01*
X0184343Y0051187D01*
X0184443Y0051145D01*
X0184542Y0051100D01*
X0184639Y0051051D01*
X0184733Y0050998D01*
X0184826Y0050942D01*
X0184917Y0050883D01*
X0185006Y0050820D01*
X0185092Y0050755D01*
X0185176Y0050686D01*
X0185257Y0050614D01*
X0185335Y0050539D01*
X0185411Y0050461D01*
X0185484Y0050380D01*
X0185554Y0050297D01*
X0185620Y0050212D01*
X0185684Y0050124D01*
X0185744Y0050033D01*
X0185801Y0049941D01*
X0185854Y0049846D01*
X0185904Y0049750D01*
X0185950Y0049652D01*
X0185993Y0049552D01*
X0186032Y0049451D01*
X0186067Y0049348D01*
X0186099Y0049245D01*
X0186126Y0049140D01*
X0186150Y0049034D01*
X0186170Y0048927D01*
X0186186Y0048820D01*
X0186198Y0048712D01*
X0186206Y0048604D01*
X0186210Y0048495D01*
X0186210Y0048387D01*
X0186206Y0048278D01*
X0186198Y0048170D01*
X0186186Y0048062D01*
X0186170Y0047955D01*
X0186150Y0047848D01*
X0186126Y0047742D01*
X0186099Y0047637D01*
X0186067Y0047534D01*
X0186032Y0047431D01*
X0185993Y0047330D01*
X0185950Y0047230D01*
X0185904Y0047132D01*
X0185854Y0047036D01*
X0185801Y0046941D01*
X0185744Y0046849D01*
X0185684Y0046758D01*
X0185620Y0046670D01*
X0185554Y0046585D01*
X0185484Y0046502D01*
X0185411Y0046421D01*
X0185335Y0046343D01*
X0185257Y0046268D01*
X0185176Y0046196D01*
X0185092Y0046127D01*
X0185006Y0046062D01*
X0184917Y0045999D01*
X0184826Y0045940D01*
X0184734Y0045884D01*
X0184639Y0045831D01*
X0184542Y0045782D01*
X0184443Y0045737D01*
X0184343Y0045695D01*
X0184241Y0045657D01*
X0184139Y0045623D01*
X0184034Y0045592D01*
X0183929Y0045566D01*
X0183823Y0045543D01*
X0183716Y0045524D01*
X0183609Y0045509D01*
X0183501Y0045498D01*
X0183393Y0045491D01*
X0183284Y0045488D01*
X0183176Y0045489D01*
X0183067Y0045494D01*
X0182959Y0045503D01*
X0182851Y0045516D01*
X0182744Y0045533D01*
X0182638Y0045554D01*
X0182532Y0045578D01*
X0182427Y0045607D01*
X0182324Y0045639D01*
X0182222Y0045675D01*
X0182121Y0045715D01*
X0182021Y0045759D01*
X0181924Y0045806D01*
X0181828Y0045857D01*
X0181734Y0045911D01*
X0181642Y0045969D01*
X0181552Y0046030D01*
X0181465Y0046094D01*
X0181380Y0046162D01*
X0181297Y0046232D01*
X0181217Y0046306D01*
X0181140Y0046382D01*
X0181066Y0046461D01*
X0180995Y0046543D01*
X0180927Y0046627D01*
X0180862Y0046714D01*
X0180800Y0046803D01*
X0180741Y0046895D01*
X0180686Y0046988D01*
X0180635Y0047083D01*
X0180586Y0047181D01*
X0180542Y0047280D01*
X0180501Y0047380D01*
X0180464Y0047482D01*
X0180431Y0047585D01*
X0180401Y0047690D01*
X0180375Y0047795D01*
X0180354Y0047902D01*
X0180336Y0048009D01*
X0180322Y0048116D01*
X0180312Y0048224D01*
X0180306Y0048333D01*
X0180304Y0048441D01*
X0160619Y0028756D02*
X0160621Y0028864D01*
X0160627Y0028973D01*
X0160637Y0029081D01*
X0160651Y0029188D01*
X0160669Y0029295D01*
X0160690Y0029402D01*
X0160716Y0029507D01*
X0160746Y0029612D01*
X0160779Y0029715D01*
X0160816Y0029817D01*
X0160857Y0029917D01*
X0160901Y0030016D01*
X0160950Y0030114D01*
X0161001Y0030209D01*
X0161056Y0030302D01*
X0161115Y0030394D01*
X0161177Y0030483D01*
X0161242Y0030570D01*
X0161310Y0030654D01*
X0161381Y0030736D01*
X0161455Y0030815D01*
X0161532Y0030891D01*
X0161612Y0030965D01*
X0161695Y0031035D01*
X0161780Y0031103D01*
X0161867Y0031167D01*
X0161957Y0031228D01*
X0162049Y0031286D01*
X0162143Y0031340D01*
X0162239Y0031391D01*
X0162336Y0031438D01*
X0162436Y0031482D01*
X0162537Y0031522D01*
X0162639Y0031558D01*
X0162742Y0031590D01*
X0162847Y0031619D01*
X0162953Y0031643D01*
X0163059Y0031664D01*
X0163166Y0031681D01*
X0163274Y0031694D01*
X0163382Y0031703D01*
X0163491Y0031708D01*
X0163599Y0031709D01*
X0163708Y0031706D01*
X0163816Y0031699D01*
X0163924Y0031688D01*
X0164031Y0031673D01*
X0164138Y0031654D01*
X0164244Y0031631D01*
X0164349Y0031605D01*
X0164454Y0031574D01*
X0164556Y0031540D01*
X0164658Y0031502D01*
X0164758Y0031460D01*
X0164857Y0031415D01*
X0164954Y0031366D01*
X0165048Y0031313D01*
X0165141Y0031257D01*
X0165232Y0031198D01*
X0165321Y0031135D01*
X0165407Y0031070D01*
X0165491Y0031001D01*
X0165572Y0030929D01*
X0165650Y0030854D01*
X0165726Y0030776D01*
X0165799Y0030695D01*
X0165869Y0030612D01*
X0165935Y0030527D01*
X0165999Y0030439D01*
X0166059Y0030348D01*
X0166116Y0030256D01*
X0166169Y0030161D01*
X0166219Y0030065D01*
X0166265Y0029967D01*
X0166308Y0029867D01*
X0166347Y0029766D01*
X0166382Y0029663D01*
X0166414Y0029560D01*
X0166441Y0029455D01*
X0166465Y0029349D01*
X0166485Y0029242D01*
X0166501Y0029135D01*
X0166513Y0029027D01*
X0166521Y0028919D01*
X0166525Y0028810D01*
X0166525Y0028702D01*
X0166521Y0028593D01*
X0166513Y0028485D01*
X0166501Y0028377D01*
X0166485Y0028270D01*
X0166465Y0028163D01*
X0166441Y0028057D01*
X0166414Y0027952D01*
X0166382Y0027849D01*
X0166347Y0027746D01*
X0166308Y0027645D01*
X0166265Y0027545D01*
X0166219Y0027447D01*
X0166169Y0027351D01*
X0166116Y0027256D01*
X0166059Y0027164D01*
X0165999Y0027073D01*
X0165935Y0026985D01*
X0165869Y0026900D01*
X0165799Y0026817D01*
X0165726Y0026736D01*
X0165650Y0026658D01*
X0165572Y0026583D01*
X0165491Y0026511D01*
X0165407Y0026442D01*
X0165321Y0026377D01*
X0165232Y0026314D01*
X0165141Y0026255D01*
X0165049Y0026199D01*
X0164954Y0026146D01*
X0164857Y0026097D01*
X0164758Y0026052D01*
X0164658Y0026010D01*
X0164556Y0025972D01*
X0164454Y0025938D01*
X0164349Y0025907D01*
X0164244Y0025881D01*
X0164138Y0025858D01*
X0164031Y0025839D01*
X0163924Y0025824D01*
X0163816Y0025813D01*
X0163708Y0025806D01*
X0163599Y0025803D01*
X0163491Y0025804D01*
X0163382Y0025809D01*
X0163274Y0025818D01*
X0163166Y0025831D01*
X0163059Y0025848D01*
X0162953Y0025869D01*
X0162847Y0025893D01*
X0162742Y0025922D01*
X0162639Y0025954D01*
X0162537Y0025990D01*
X0162436Y0026030D01*
X0162336Y0026074D01*
X0162239Y0026121D01*
X0162143Y0026172D01*
X0162049Y0026226D01*
X0161957Y0026284D01*
X0161867Y0026345D01*
X0161780Y0026409D01*
X0161695Y0026477D01*
X0161612Y0026547D01*
X0161532Y0026621D01*
X0161455Y0026697D01*
X0161381Y0026776D01*
X0161310Y0026858D01*
X0161242Y0026942D01*
X0161177Y0027029D01*
X0161115Y0027118D01*
X0161056Y0027210D01*
X0161001Y0027303D01*
X0160950Y0027398D01*
X0160901Y0027496D01*
X0160857Y0027595D01*
X0160816Y0027695D01*
X0160779Y0027797D01*
X0160746Y0027900D01*
X0160716Y0028005D01*
X0160690Y0028110D01*
X0160669Y0028217D01*
X0160651Y0028324D01*
X0160637Y0028431D01*
X0160627Y0028539D01*
X0160621Y0028648D01*
X0160619Y0028756D01*
X0199989Y0028756D02*
X0199991Y0028864D01*
X0199997Y0028973D01*
X0200007Y0029081D01*
X0200021Y0029188D01*
X0200039Y0029295D01*
X0200060Y0029402D01*
X0200086Y0029507D01*
X0200116Y0029612D01*
X0200149Y0029715D01*
X0200186Y0029817D01*
X0200227Y0029917D01*
X0200271Y0030016D01*
X0200320Y0030114D01*
X0200371Y0030209D01*
X0200426Y0030302D01*
X0200485Y0030394D01*
X0200547Y0030483D01*
X0200612Y0030570D01*
X0200680Y0030654D01*
X0200751Y0030736D01*
X0200825Y0030815D01*
X0200902Y0030891D01*
X0200982Y0030965D01*
X0201065Y0031035D01*
X0201150Y0031103D01*
X0201237Y0031167D01*
X0201327Y0031228D01*
X0201419Y0031286D01*
X0201513Y0031340D01*
X0201609Y0031391D01*
X0201706Y0031438D01*
X0201806Y0031482D01*
X0201907Y0031522D01*
X0202009Y0031558D01*
X0202112Y0031590D01*
X0202217Y0031619D01*
X0202323Y0031643D01*
X0202429Y0031664D01*
X0202536Y0031681D01*
X0202644Y0031694D01*
X0202752Y0031703D01*
X0202861Y0031708D01*
X0202969Y0031709D01*
X0203078Y0031706D01*
X0203186Y0031699D01*
X0203294Y0031688D01*
X0203401Y0031673D01*
X0203508Y0031654D01*
X0203614Y0031631D01*
X0203719Y0031605D01*
X0203824Y0031574D01*
X0203926Y0031540D01*
X0204028Y0031502D01*
X0204128Y0031460D01*
X0204227Y0031415D01*
X0204324Y0031366D01*
X0204418Y0031313D01*
X0204511Y0031257D01*
X0204602Y0031198D01*
X0204691Y0031135D01*
X0204777Y0031070D01*
X0204861Y0031001D01*
X0204942Y0030929D01*
X0205020Y0030854D01*
X0205096Y0030776D01*
X0205169Y0030695D01*
X0205239Y0030612D01*
X0205305Y0030527D01*
X0205369Y0030439D01*
X0205429Y0030348D01*
X0205486Y0030256D01*
X0205539Y0030161D01*
X0205589Y0030065D01*
X0205635Y0029967D01*
X0205678Y0029867D01*
X0205717Y0029766D01*
X0205752Y0029663D01*
X0205784Y0029560D01*
X0205811Y0029455D01*
X0205835Y0029349D01*
X0205855Y0029242D01*
X0205871Y0029135D01*
X0205883Y0029027D01*
X0205891Y0028919D01*
X0205895Y0028810D01*
X0205895Y0028702D01*
X0205891Y0028593D01*
X0205883Y0028485D01*
X0205871Y0028377D01*
X0205855Y0028270D01*
X0205835Y0028163D01*
X0205811Y0028057D01*
X0205784Y0027952D01*
X0205752Y0027849D01*
X0205717Y0027746D01*
X0205678Y0027645D01*
X0205635Y0027545D01*
X0205589Y0027447D01*
X0205539Y0027351D01*
X0205486Y0027256D01*
X0205429Y0027164D01*
X0205369Y0027073D01*
X0205305Y0026985D01*
X0205239Y0026900D01*
X0205169Y0026817D01*
X0205096Y0026736D01*
X0205020Y0026658D01*
X0204942Y0026583D01*
X0204861Y0026511D01*
X0204777Y0026442D01*
X0204691Y0026377D01*
X0204602Y0026314D01*
X0204511Y0026255D01*
X0204419Y0026199D01*
X0204324Y0026146D01*
X0204227Y0026097D01*
X0204128Y0026052D01*
X0204028Y0026010D01*
X0203926Y0025972D01*
X0203824Y0025938D01*
X0203719Y0025907D01*
X0203614Y0025881D01*
X0203508Y0025858D01*
X0203401Y0025839D01*
X0203294Y0025824D01*
X0203186Y0025813D01*
X0203078Y0025806D01*
X0202969Y0025803D01*
X0202861Y0025804D01*
X0202752Y0025809D01*
X0202644Y0025818D01*
X0202536Y0025831D01*
X0202429Y0025848D01*
X0202323Y0025869D01*
X0202217Y0025893D01*
X0202112Y0025922D01*
X0202009Y0025954D01*
X0201907Y0025990D01*
X0201806Y0026030D01*
X0201706Y0026074D01*
X0201609Y0026121D01*
X0201513Y0026172D01*
X0201419Y0026226D01*
X0201327Y0026284D01*
X0201237Y0026345D01*
X0201150Y0026409D01*
X0201065Y0026477D01*
X0200982Y0026547D01*
X0200902Y0026621D01*
X0200825Y0026697D01*
X0200751Y0026776D01*
X0200680Y0026858D01*
X0200612Y0026942D01*
X0200547Y0027029D01*
X0200485Y0027118D01*
X0200426Y0027210D01*
X0200371Y0027303D01*
X0200320Y0027398D01*
X0200271Y0027496D01*
X0200227Y0027595D01*
X0200186Y0027695D01*
X0200149Y0027797D01*
X0200116Y0027900D01*
X0200086Y0028005D01*
X0200060Y0028110D01*
X0200039Y0028217D01*
X0200021Y0028324D01*
X0200007Y0028431D01*
X0199997Y0028539D01*
X0199991Y0028648D01*
X0199989Y0028756D01*
X0261288Y0112457D02*
X0261290Y0112545D01*
X0261296Y0112633D01*
X0261306Y0112721D01*
X0261320Y0112809D01*
X0261337Y0112895D01*
X0261359Y0112981D01*
X0261384Y0113065D01*
X0261414Y0113149D01*
X0261446Y0113231D01*
X0261483Y0113311D01*
X0261523Y0113390D01*
X0261567Y0113467D01*
X0261614Y0113542D01*
X0261664Y0113614D01*
X0261718Y0113685D01*
X0261774Y0113752D01*
X0261834Y0113818D01*
X0261896Y0113880D01*
X0261962Y0113940D01*
X0262029Y0113996D01*
X0262100Y0114050D01*
X0262172Y0114100D01*
X0262247Y0114147D01*
X0262324Y0114191D01*
X0262403Y0114231D01*
X0262483Y0114268D01*
X0262565Y0114300D01*
X0262649Y0114330D01*
X0262733Y0114355D01*
X0262819Y0114377D01*
X0262905Y0114394D01*
X0262993Y0114408D01*
X0263081Y0114418D01*
X0263169Y0114424D01*
X0263257Y0114426D01*
X0263345Y0114424D01*
X0263433Y0114418D01*
X0263521Y0114408D01*
X0263609Y0114394D01*
X0263695Y0114377D01*
X0263781Y0114355D01*
X0263865Y0114330D01*
X0263949Y0114300D01*
X0264031Y0114268D01*
X0264111Y0114231D01*
X0264190Y0114191D01*
X0264267Y0114147D01*
X0264342Y0114100D01*
X0264414Y0114050D01*
X0264485Y0113996D01*
X0264552Y0113940D01*
X0264618Y0113880D01*
X0264680Y0113818D01*
X0264740Y0113752D01*
X0264796Y0113685D01*
X0264850Y0113614D01*
X0264900Y0113542D01*
X0264947Y0113467D01*
X0264991Y0113390D01*
X0265031Y0113311D01*
X0265068Y0113231D01*
X0265100Y0113149D01*
X0265130Y0113065D01*
X0265155Y0112981D01*
X0265177Y0112895D01*
X0265194Y0112809D01*
X0265208Y0112721D01*
X0265218Y0112633D01*
X0265224Y0112545D01*
X0265226Y0112457D01*
X0265224Y0112369D01*
X0265218Y0112281D01*
X0265208Y0112193D01*
X0265194Y0112105D01*
X0265177Y0112019D01*
X0265155Y0111933D01*
X0265130Y0111849D01*
X0265100Y0111765D01*
X0265068Y0111683D01*
X0265031Y0111603D01*
X0264991Y0111524D01*
X0264947Y0111447D01*
X0264900Y0111372D01*
X0264850Y0111300D01*
X0264796Y0111229D01*
X0264740Y0111162D01*
X0264680Y0111096D01*
X0264618Y0111034D01*
X0264552Y0110974D01*
X0264485Y0110918D01*
X0264414Y0110864D01*
X0264342Y0110814D01*
X0264267Y0110767D01*
X0264190Y0110723D01*
X0264111Y0110683D01*
X0264031Y0110646D01*
X0263949Y0110614D01*
X0263865Y0110584D01*
X0263781Y0110559D01*
X0263695Y0110537D01*
X0263609Y0110520D01*
X0263521Y0110506D01*
X0263433Y0110496D01*
X0263345Y0110490D01*
X0263257Y0110488D01*
X0263169Y0110490D01*
X0263081Y0110496D01*
X0262993Y0110506D01*
X0262905Y0110520D01*
X0262819Y0110537D01*
X0262733Y0110559D01*
X0262649Y0110584D01*
X0262565Y0110614D01*
X0262483Y0110646D01*
X0262403Y0110683D01*
X0262324Y0110723D01*
X0262247Y0110767D01*
X0262172Y0110814D01*
X0262100Y0110864D01*
X0262029Y0110918D01*
X0261962Y0110974D01*
X0261896Y0111034D01*
X0261834Y0111096D01*
X0261774Y0111162D01*
X0261718Y0111229D01*
X0261664Y0111300D01*
X0261614Y0111372D01*
X0261567Y0111447D01*
X0261523Y0111524D01*
X0261483Y0111603D01*
X0261446Y0111683D01*
X0261414Y0111765D01*
X0261384Y0111849D01*
X0261359Y0111933D01*
X0261337Y0112019D01*
X0261320Y0112105D01*
X0261306Y0112193D01*
X0261296Y0112281D01*
X0261290Y0112369D01*
X0261288Y0112457D01*
X0273296Y0169504D02*
X0273298Y0169592D01*
X0273304Y0169680D01*
X0273314Y0169768D01*
X0273328Y0169856D01*
X0273345Y0169942D01*
X0273367Y0170028D01*
X0273392Y0170112D01*
X0273422Y0170196D01*
X0273454Y0170278D01*
X0273491Y0170358D01*
X0273531Y0170437D01*
X0273575Y0170514D01*
X0273622Y0170589D01*
X0273672Y0170661D01*
X0273726Y0170732D01*
X0273782Y0170799D01*
X0273842Y0170865D01*
X0273904Y0170927D01*
X0273970Y0170987D01*
X0274037Y0171043D01*
X0274108Y0171097D01*
X0274180Y0171147D01*
X0274255Y0171194D01*
X0274332Y0171238D01*
X0274411Y0171278D01*
X0274491Y0171315D01*
X0274573Y0171347D01*
X0274657Y0171377D01*
X0274741Y0171402D01*
X0274827Y0171424D01*
X0274913Y0171441D01*
X0275001Y0171455D01*
X0275089Y0171465D01*
X0275177Y0171471D01*
X0275265Y0171473D01*
X0275353Y0171471D01*
X0275441Y0171465D01*
X0275529Y0171455D01*
X0275617Y0171441D01*
X0275703Y0171424D01*
X0275789Y0171402D01*
X0275873Y0171377D01*
X0275957Y0171347D01*
X0276039Y0171315D01*
X0276119Y0171278D01*
X0276198Y0171238D01*
X0276275Y0171194D01*
X0276350Y0171147D01*
X0276422Y0171097D01*
X0276493Y0171043D01*
X0276560Y0170987D01*
X0276626Y0170927D01*
X0276688Y0170865D01*
X0276748Y0170799D01*
X0276804Y0170732D01*
X0276858Y0170661D01*
X0276908Y0170589D01*
X0276955Y0170514D01*
X0276999Y0170437D01*
X0277039Y0170358D01*
X0277076Y0170278D01*
X0277108Y0170196D01*
X0277138Y0170112D01*
X0277163Y0170028D01*
X0277185Y0169942D01*
X0277202Y0169856D01*
X0277216Y0169768D01*
X0277226Y0169680D01*
X0277232Y0169592D01*
X0277234Y0169504D01*
X0277232Y0169416D01*
X0277226Y0169328D01*
X0277216Y0169240D01*
X0277202Y0169152D01*
X0277185Y0169066D01*
X0277163Y0168980D01*
X0277138Y0168896D01*
X0277108Y0168812D01*
X0277076Y0168730D01*
X0277039Y0168650D01*
X0276999Y0168571D01*
X0276955Y0168494D01*
X0276908Y0168419D01*
X0276858Y0168347D01*
X0276804Y0168276D01*
X0276748Y0168209D01*
X0276688Y0168143D01*
X0276626Y0168081D01*
X0276560Y0168021D01*
X0276493Y0167965D01*
X0276422Y0167911D01*
X0276350Y0167861D01*
X0276275Y0167814D01*
X0276198Y0167770D01*
X0276119Y0167730D01*
X0276039Y0167693D01*
X0275957Y0167661D01*
X0275873Y0167631D01*
X0275789Y0167606D01*
X0275703Y0167584D01*
X0275617Y0167567D01*
X0275529Y0167553D01*
X0275441Y0167543D01*
X0275353Y0167537D01*
X0275265Y0167535D01*
X0275177Y0167537D01*
X0275089Y0167543D01*
X0275001Y0167553D01*
X0274913Y0167567D01*
X0274827Y0167584D01*
X0274741Y0167606D01*
X0274657Y0167631D01*
X0274573Y0167661D01*
X0274491Y0167693D01*
X0274411Y0167730D01*
X0274332Y0167770D01*
X0274255Y0167814D01*
X0274180Y0167861D01*
X0274108Y0167911D01*
X0274037Y0167965D01*
X0273970Y0168021D01*
X0273904Y0168081D01*
X0273842Y0168143D01*
X0273782Y0168209D01*
X0273726Y0168276D01*
X0273672Y0168347D01*
X0273622Y0168419D01*
X0273575Y0168494D01*
X0273531Y0168571D01*
X0273491Y0168650D01*
X0273454Y0168730D01*
X0273422Y0168812D01*
X0273392Y0168896D01*
X0273367Y0168980D01*
X0273345Y0169066D01*
X0273328Y0169152D01*
X0273314Y0169240D01*
X0273304Y0169328D01*
X0273298Y0169416D01*
X0273296Y0169504D01*
X0229792Y0210882D02*
X0229794Y0210970D01*
X0229800Y0211058D01*
X0229810Y0211146D01*
X0229824Y0211234D01*
X0229841Y0211320D01*
X0229863Y0211406D01*
X0229888Y0211490D01*
X0229918Y0211574D01*
X0229950Y0211656D01*
X0229987Y0211736D01*
X0230027Y0211815D01*
X0230071Y0211892D01*
X0230118Y0211967D01*
X0230168Y0212039D01*
X0230222Y0212110D01*
X0230278Y0212177D01*
X0230338Y0212243D01*
X0230400Y0212305D01*
X0230466Y0212365D01*
X0230533Y0212421D01*
X0230604Y0212475D01*
X0230676Y0212525D01*
X0230751Y0212572D01*
X0230828Y0212616D01*
X0230907Y0212656D01*
X0230987Y0212693D01*
X0231069Y0212725D01*
X0231153Y0212755D01*
X0231237Y0212780D01*
X0231323Y0212802D01*
X0231409Y0212819D01*
X0231497Y0212833D01*
X0231585Y0212843D01*
X0231673Y0212849D01*
X0231761Y0212851D01*
X0231849Y0212849D01*
X0231937Y0212843D01*
X0232025Y0212833D01*
X0232113Y0212819D01*
X0232199Y0212802D01*
X0232285Y0212780D01*
X0232369Y0212755D01*
X0232453Y0212725D01*
X0232535Y0212693D01*
X0232615Y0212656D01*
X0232694Y0212616D01*
X0232771Y0212572D01*
X0232846Y0212525D01*
X0232918Y0212475D01*
X0232989Y0212421D01*
X0233056Y0212365D01*
X0233122Y0212305D01*
X0233184Y0212243D01*
X0233244Y0212177D01*
X0233300Y0212110D01*
X0233354Y0212039D01*
X0233404Y0211967D01*
X0233451Y0211892D01*
X0233495Y0211815D01*
X0233535Y0211736D01*
X0233572Y0211656D01*
X0233604Y0211574D01*
X0233634Y0211490D01*
X0233659Y0211406D01*
X0233681Y0211320D01*
X0233698Y0211234D01*
X0233712Y0211146D01*
X0233722Y0211058D01*
X0233728Y0210970D01*
X0233730Y0210882D01*
X0233728Y0210794D01*
X0233722Y0210706D01*
X0233712Y0210618D01*
X0233698Y0210530D01*
X0233681Y0210444D01*
X0233659Y0210358D01*
X0233634Y0210274D01*
X0233604Y0210190D01*
X0233572Y0210108D01*
X0233535Y0210028D01*
X0233495Y0209949D01*
X0233451Y0209872D01*
X0233404Y0209797D01*
X0233354Y0209725D01*
X0233300Y0209654D01*
X0233244Y0209587D01*
X0233184Y0209521D01*
X0233122Y0209459D01*
X0233056Y0209399D01*
X0232989Y0209343D01*
X0232918Y0209289D01*
X0232846Y0209239D01*
X0232771Y0209192D01*
X0232694Y0209148D01*
X0232615Y0209108D01*
X0232535Y0209071D01*
X0232453Y0209039D01*
X0232369Y0209009D01*
X0232285Y0208984D01*
X0232199Y0208962D01*
X0232113Y0208945D01*
X0232025Y0208931D01*
X0231937Y0208921D01*
X0231849Y0208915D01*
X0231761Y0208913D01*
X0231673Y0208915D01*
X0231585Y0208921D01*
X0231497Y0208931D01*
X0231409Y0208945D01*
X0231323Y0208962D01*
X0231237Y0208984D01*
X0231153Y0209009D01*
X0231069Y0209039D01*
X0230987Y0209071D01*
X0230907Y0209108D01*
X0230828Y0209148D01*
X0230751Y0209192D01*
X0230676Y0209239D01*
X0230604Y0209289D01*
X0230533Y0209343D01*
X0230466Y0209399D01*
X0230400Y0209459D01*
X0230338Y0209521D01*
X0230278Y0209587D01*
X0230222Y0209654D01*
X0230168Y0209725D01*
X0230118Y0209797D01*
X0230071Y0209872D01*
X0230027Y0209949D01*
X0229987Y0210028D01*
X0229950Y0210108D01*
X0229918Y0210190D01*
X0229888Y0210274D01*
X0229863Y0210358D01*
X0229841Y0210444D01*
X0229824Y0210530D01*
X0229810Y0210618D01*
X0229800Y0210706D01*
X0229794Y0210794D01*
X0229792Y0210882D01*
X0217981Y0151827D02*
X0217983Y0151915D01*
X0217989Y0152003D01*
X0217999Y0152091D01*
X0218013Y0152179D01*
X0218030Y0152265D01*
X0218052Y0152351D01*
X0218077Y0152435D01*
X0218107Y0152519D01*
X0218139Y0152601D01*
X0218176Y0152681D01*
X0218216Y0152760D01*
X0218260Y0152837D01*
X0218307Y0152912D01*
X0218357Y0152984D01*
X0218411Y0153055D01*
X0218467Y0153122D01*
X0218527Y0153188D01*
X0218589Y0153250D01*
X0218655Y0153310D01*
X0218722Y0153366D01*
X0218793Y0153420D01*
X0218865Y0153470D01*
X0218940Y0153517D01*
X0219017Y0153561D01*
X0219096Y0153601D01*
X0219176Y0153638D01*
X0219258Y0153670D01*
X0219342Y0153700D01*
X0219426Y0153725D01*
X0219512Y0153747D01*
X0219598Y0153764D01*
X0219686Y0153778D01*
X0219774Y0153788D01*
X0219862Y0153794D01*
X0219950Y0153796D01*
X0220038Y0153794D01*
X0220126Y0153788D01*
X0220214Y0153778D01*
X0220302Y0153764D01*
X0220388Y0153747D01*
X0220474Y0153725D01*
X0220558Y0153700D01*
X0220642Y0153670D01*
X0220724Y0153638D01*
X0220804Y0153601D01*
X0220883Y0153561D01*
X0220960Y0153517D01*
X0221035Y0153470D01*
X0221107Y0153420D01*
X0221178Y0153366D01*
X0221245Y0153310D01*
X0221311Y0153250D01*
X0221373Y0153188D01*
X0221433Y0153122D01*
X0221489Y0153055D01*
X0221543Y0152984D01*
X0221593Y0152912D01*
X0221640Y0152837D01*
X0221684Y0152760D01*
X0221724Y0152681D01*
X0221761Y0152601D01*
X0221793Y0152519D01*
X0221823Y0152435D01*
X0221848Y0152351D01*
X0221870Y0152265D01*
X0221887Y0152179D01*
X0221901Y0152091D01*
X0221911Y0152003D01*
X0221917Y0151915D01*
X0221919Y0151827D01*
X0221917Y0151739D01*
X0221911Y0151651D01*
X0221901Y0151563D01*
X0221887Y0151475D01*
X0221870Y0151389D01*
X0221848Y0151303D01*
X0221823Y0151219D01*
X0221793Y0151135D01*
X0221761Y0151053D01*
X0221724Y0150973D01*
X0221684Y0150894D01*
X0221640Y0150817D01*
X0221593Y0150742D01*
X0221543Y0150670D01*
X0221489Y0150599D01*
X0221433Y0150532D01*
X0221373Y0150466D01*
X0221311Y0150404D01*
X0221245Y0150344D01*
X0221178Y0150288D01*
X0221107Y0150234D01*
X0221035Y0150184D01*
X0220960Y0150137D01*
X0220883Y0150093D01*
X0220804Y0150053D01*
X0220724Y0150016D01*
X0220642Y0149984D01*
X0220558Y0149954D01*
X0220474Y0149929D01*
X0220388Y0149907D01*
X0220302Y0149890D01*
X0220214Y0149876D01*
X0220126Y0149866D01*
X0220038Y0149860D01*
X0219950Y0149858D01*
X0219862Y0149860D01*
X0219774Y0149866D01*
X0219686Y0149876D01*
X0219598Y0149890D01*
X0219512Y0149907D01*
X0219426Y0149929D01*
X0219342Y0149954D01*
X0219258Y0149984D01*
X0219176Y0150016D01*
X0219096Y0150053D01*
X0219017Y0150093D01*
X0218940Y0150137D01*
X0218865Y0150184D01*
X0218793Y0150234D01*
X0218722Y0150288D01*
X0218655Y0150344D01*
X0218589Y0150404D01*
X0218527Y0150466D01*
X0218467Y0150532D01*
X0218411Y0150599D01*
X0218357Y0150670D01*
X0218307Y0150742D01*
X0218260Y0150817D01*
X0218216Y0150894D01*
X0218176Y0150973D01*
X0218139Y0151053D01*
X0218107Y0151135D01*
X0218077Y0151219D01*
X0218052Y0151303D01*
X0218030Y0151389D01*
X0218013Y0151475D01*
X0217999Y0151563D01*
X0217989Y0151651D01*
X0217983Y0151739D01*
X0217981Y0151827D01*
X0174674Y0187260D02*
X0174676Y0187348D01*
X0174682Y0187436D01*
X0174692Y0187524D01*
X0174706Y0187612D01*
X0174723Y0187698D01*
X0174745Y0187784D01*
X0174770Y0187868D01*
X0174800Y0187952D01*
X0174832Y0188034D01*
X0174869Y0188114D01*
X0174909Y0188193D01*
X0174953Y0188270D01*
X0175000Y0188345D01*
X0175050Y0188417D01*
X0175104Y0188488D01*
X0175160Y0188555D01*
X0175220Y0188621D01*
X0175282Y0188683D01*
X0175348Y0188743D01*
X0175415Y0188799D01*
X0175486Y0188853D01*
X0175558Y0188903D01*
X0175633Y0188950D01*
X0175710Y0188994D01*
X0175789Y0189034D01*
X0175869Y0189071D01*
X0175951Y0189103D01*
X0176035Y0189133D01*
X0176119Y0189158D01*
X0176205Y0189180D01*
X0176291Y0189197D01*
X0176379Y0189211D01*
X0176467Y0189221D01*
X0176555Y0189227D01*
X0176643Y0189229D01*
X0176731Y0189227D01*
X0176819Y0189221D01*
X0176907Y0189211D01*
X0176995Y0189197D01*
X0177081Y0189180D01*
X0177167Y0189158D01*
X0177251Y0189133D01*
X0177335Y0189103D01*
X0177417Y0189071D01*
X0177497Y0189034D01*
X0177576Y0188994D01*
X0177653Y0188950D01*
X0177728Y0188903D01*
X0177800Y0188853D01*
X0177871Y0188799D01*
X0177938Y0188743D01*
X0178004Y0188683D01*
X0178066Y0188621D01*
X0178126Y0188555D01*
X0178182Y0188488D01*
X0178236Y0188417D01*
X0178286Y0188345D01*
X0178333Y0188270D01*
X0178377Y0188193D01*
X0178417Y0188114D01*
X0178454Y0188034D01*
X0178486Y0187952D01*
X0178516Y0187868D01*
X0178541Y0187784D01*
X0178563Y0187698D01*
X0178580Y0187612D01*
X0178594Y0187524D01*
X0178604Y0187436D01*
X0178610Y0187348D01*
X0178612Y0187260D01*
X0178610Y0187172D01*
X0178604Y0187084D01*
X0178594Y0186996D01*
X0178580Y0186908D01*
X0178563Y0186822D01*
X0178541Y0186736D01*
X0178516Y0186652D01*
X0178486Y0186568D01*
X0178454Y0186486D01*
X0178417Y0186406D01*
X0178377Y0186327D01*
X0178333Y0186250D01*
X0178286Y0186175D01*
X0178236Y0186103D01*
X0178182Y0186032D01*
X0178126Y0185965D01*
X0178066Y0185899D01*
X0178004Y0185837D01*
X0177938Y0185777D01*
X0177871Y0185721D01*
X0177800Y0185667D01*
X0177728Y0185617D01*
X0177653Y0185570D01*
X0177576Y0185526D01*
X0177497Y0185486D01*
X0177417Y0185449D01*
X0177335Y0185417D01*
X0177251Y0185387D01*
X0177167Y0185362D01*
X0177081Y0185340D01*
X0176995Y0185323D01*
X0176907Y0185309D01*
X0176819Y0185299D01*
X0176731Y0185293D01*
X0176643Y0185291D01*
X0176555Y0185293D01*
X0176467Y0185299D01*
X0176379Y0185309D01*
X0176291Y0185323D01*
X0176205Y0185340D01*
X0176119Y0185362D01*
X0176035Y0185387D01*
X0175951Y0185417D01*
X0175869Y0185449D01*
X0175789Y0185486D01*
X0175710Y0185526D01*
X0175633Y0185570D01*
X0175558Y0185617D01*
X0175486Y0185667D01*
X0175415Y0185721D01*
X0175348Y0185777D01*
X0175282Y0185837D01*
X0175220Y0185899D01*
X0175160Y0185965D01*
X0175104Y0186032D01*
X0175050Y0186103D01*
X0175000Y0186175D01*
X0174953Y0186250D01*
X0174909Y0186327D01*
X0174869Y0186406D01*
X0174832Y0186486D01*
X0174800Y0186568D01*
X0174770Y0186652D01*
X0174745Y0186736D01*
X0174723Y0186822D01*
X0174706Y0186908D01*
X0174692Y0186996D01*
X0174682Y0187084D01*
X0174676Y0187172D01*
X0174674Y0187260D01*
X0044183Y0363205D02*
X0044185Y0363286D01*
X0044191Y0363368D01*
X0044201Y0363449D01*
X0044215Y0363529D01*
X0044232Y0363608D01*
X0044254Y0363687D01*
X0044279Y0363764D01*
X0044308Y0363841D01*
X0044341Y0363915D01*
X0044378Y0363988D01*
X0044417Y0364059D01*
X0044461Y0364128D01*
X0044507Y0364195D01*
X0044557Y0364259D01*
X0044610Y0364321D01*
X0044666Y0364381D01*
X0044724Y0364437D01*
X0044786Y0364491D01*
X0044850Y0364542D01*
X0044916Y0364589D01*
X0044984Y0364633D01*
X0045055Y0364674D01*
X0045127Y0364711D01*
X0045202Y0364745D01*
X0045277Y0364775D01*
X0045355Y0364801D01*
X0045433Y0364824D01*
X0045512Y0364842D01*
X0045592Y0364857D01*
X0045673Y0364868D01*
X0045754Y0364875D01*
X0045836Y0364878D01*
X0045917Y0364877D01*
X0045998Y0364872D01*
X0046079Y0364863D01*
X0046160Y0364850D01*
X0046240Y0364833D01*
X0046318Y0364813D01*
X0046396Y0364788D01*
X0046473Y0364760D01*
X0046548Y0364728D01*
X0046621Y0364693D01*
X0046692Y0364654D01*
X0046762Y0364611D01*
X0046829Y0364566D01*
X0046895Y0364517D01*
X0046957Y0364465D01*
X0047017Y0364409D01*
X0047074Y0364351D01*
X0047129Y0364291D01*
X0047180Y0364227D01*
X0047228Y0364162D01*
X0047273Y0364094D01*
X0047315Y0364024D01*
X0047353Y0363952D01*
X0047388Y0363878D01*
X0047419Y0363803D01*
X0047446Y0363726D01*
X0047469Y0363648D01*
X0047489Y0363569D01*
X0047505Y0363489D01*
X0047517Y0363408D01*
X0047525Y0363327D01*
X0047529Y0363246D01*
X0047529Y0363164D01*
X0047525Y0363083D01*
X0047517Y0363002D01*
X0047505Y0362921D01*
X0047489Y0362841D01*
X0047469Y0362762D01*
X0047446Y0362684D01*
X0047419Y0362607D01*
X0047388Y0362532D01*
X0047353Y0362458D01*
X0047315Y0362386D01*
X0047273Y0362316D01*
X0047228Y0362248D01*
X0047180Y0362183D01*
X0047129Y0362119D01*
X0047074Y0362059D01*
X0047017Y0362001D01*
X0046957Y0361945D01*
X0046895Y0361893D01*
X0046829Y0361844D01*
X0046762Y0361799D01*
X0046693Y0361756D01*
X0046621Y0361717D01*
X0046548Y0361682D01*
X0046473Y0361650D01*
X0046396Y0361622D01*
X0046318Y0361597D01*
X0046240Y0361577D01*
X0046160Y0361560D01*
X0046079Y0361547D01*
X0045998Y0361538D01*
X0045917Y0361533D01*
X0045836Y0361532D01*
X0045754Y0361535D01*
X0045673Y0361542D01*
X0045592Y0361553D01*
X0045512Y0361568D01*
X0045433Y0361586D01*
X0045355Y0361609D01*
X0045277Y0361635D01*
X0045202Y0361665D01*
X0045127Y0361699D01*
X0045055Y0361736D01*
X0044984Y0361777D01*
X0044916Y0361821D01*
X0044850Y0361868D01*
X0044786Y0361919D01*
X0044724Y0361973D01*
X0044666Y0362029D01*
X0044610Y0362089D01*
X0044557Y0362151D01*
X0044507Y0362215D01*
X0044461Y0362282D01*
X0044417Y0362351D01*
X0044378Y0362422D01*
X0044341Y0362495D01*
X0044308Y0362569D01*
X0044279Y0362646D01*
X0044254Y0362723D01*
X0044232Y0362802D01*
X0044215Y0362881D01*
X0044201Y0362961D01*
X0044191Y0363042D01*
X0044185Y0363124D01*
X0044183Y0363205D01*
X0044183Y0378165D02*
X0044185Y0378246D01*
X0044191Y0378328D01*
X0044201Y0378409D01*
X0044215Y0378489D01*
X0044232Y0378568D01*
X0044254Y0378647D01*
X0044279Y0378724D01*
X0044308Y0378801D01*
X0044341Y0378875D01*
X0044378Y0378948D01*
X0044417Y0379019D01*
X0044461Y0379088D01*
X0044507Y0379155D01*
X0044557Y0379219D01*
X0044610Y0379281D01*
X0044666Y0379341D01*
X0044724Y0379397D01*
X0044786Y0379451D01*
X0044850Y0379502D01*
X0044916Y0379549D01*
X0044984Y0379593D01*
X0045055Y0379634D01*
X0045127Y0379671D01*
X0045202Y0379705D01*
X0045277Y0379735D01*
X0045355Y0379761D01*
X0045433Y0379784D01*
X0045512Y0379802D01*
X0045592Y0379817D01*
X0045673Y0379828D01*
X0045754Y0379835D01*
X0045836Y0379838D01*
X0045917Y0379837D01*
X0045998Y0379832D01*
X0046079Y0379823D01*
X0046160Y0379810D01*
X0046240Y0379793D01*
X0046318Y0379773D01*
X0046396Y0379748D01*
X0046473Y0379720D01*
X0046548Y0379688D01*
X0046621Y0379653D01*
X0046692Y0379614D01*
X0046762Y0379571D01*
X0046829Y0379526D01*
X0046895Y0379477D01*
X0046957Y0379425D01*
X0047017Y0379369D01*
X0047074Y0379311D01*
X0047129Y0379251D01*
X0047180Y0379187D01*
X0047228Y0379122D01*
X0047273Y0379054D01*
X0047315Y0378984D01*
X0047353Y0378912D01*
X0047388Y0378838D01*
X0047419Y0378763D01*
X0047446Y0378686D01*
X0047469Y0378608D01*
X0047489Y0378529D01*
X0047505Y0378449D01*
X0047517Y0378368D01*
X0047525Y0378287D01*
X0047529Y0378206D01*
X0047529Y0378124D01*
X0047525Y0378043D01*
X0047517Y0377962D01*
X0047505Y0377881D01*
X0047489Y0377801D01*
X0047469Y0377722D01*
X0047446Y0377644D01*
X0047419Y0377567D01*
X0047388Y0377492D01*
X0047353Y0377418D01*
X0047315Y0377346D01*
X0047273Y0377276D01*
X0047228Y0377208D01*
X0047180Y0377143D01*
X0047129Y0377079D01*
X0047074Y0377019D01*
X0047017Y0376961D01*
X0046957Y0376905D01*
X0046895Y0376853D01*
X0046829Y0376804D01*
X0046762Y0376759D01*
X0046693Y0376716D01*
X0046621Y0376677D01*
X0046548Y0376642D01*
X0046473Y0376610D01*
X0046396Y0376582D01*
X0046318Y0376557D01*
X0046240Y0376537D01*
X0046160Y0376520D01*
X0046079Y0376507D01*
X0045998Y0376498D01*
X0045917Y0376493D01*
X0045836Y0376492D01*
X0045754Y0376495D01*
X0045673Y0376502D01*
X0045592Y0376513D01*
X0045512Y0376528D01*
X0045433Y0376546D01*
X0045355Y0376569D01*
X0045277Y0376595D01*
X0045202Y0376625D01*
X0045127Y0376659D01*
X0045055Y0376696D01*
X0044984Y0376737D01*
X0044916Y0376781D01*
X0044850Y0376828D01*
X0044786Y0376879D01*
X0044724Y0376933D01*
X0044666Y0376989D01*
X0044610Y0377049D01*
X0044557Y0377111D01*
X0044507Y0377175D01*
X0044461Y0377242D01*
X0044417Y0377311D01*
X0044378Y0377382D01*
X0044341Y0377455D01*
X0044308Y0377529D01*
X0044279Y0377606D01*
X0044254Y0377683D01*
X0044232Y0377762D01*
X0044215Y0377841D01*
X0044201Y0377921D01*
X0044191Y0378002D01*
X0044185Y0378084D01*
X0044183Y0378165D01*
X0064950Y0469898D02*
X0064952Y0469982D01*
X0064958Y0470065D01*
X0064968Y0470148D01*
X0064982Y0470231D01*
X0064999Y0470313D01*
X0065021Y0470394D01*
X0065046Y0470473D01*
X0065075Y0470552D01*
X0065108Y0470629D01*
X0065144Y0470704D01*
X0065184Y0470778D01*
X0065227Y0470850D01*
X0065274Y0470919D01*
X0065324Y0470986D01*
X0065377Y0471051D01*
X0065433Y0471113D01*
X0065491Y0471173D01*
X0065553Y0471230D01*
X0065617Y0471283D01*
X0065684Y0471334D01*
X0065753Y0471381D01*
X0065824Y0471426D01*
X0065897Y0471466D01*
X0065972Y0471503D01*
X0066049Y0471537D01*
X0066127Y0471567D01*
X0066206Y0471593D01*
X0066287Y0471616D01*
X0066369Y0471634D01*
X0066451Y0471649D01*
X0066534Y0471660D01*
X0066617Y0471667D01*
X0066701Y0471670D01*
X0066785Y0471669D01*
X0066868Y0471664D01*
X0066952Y0471655D01*
X0067034Y0471642D01*
X0067116Y0471626D01*
X0067197Y0471605D01*
X0067278Y0471581D01*
X0067356Y0471553D01*
X0067434Y0471521D01*
X0067510Y0471485D01*
X0067584Y0471446D01*
X0067656Y0471404D01*
X0067726Y0471358D01*
X0067794Y0471309D01*
X0067859Y0471257D01*
X0067922Y0471202D01*
X0067982Y0471144D01*
X0068040Y0471083D01*
X0068094Y0471019D01*
X0068146Y0470953D01*
X0068194Y0470885D01*
X0068239Y0470814D01*
X0068280Y0470741D01*
X0068319Y0470667D01*
X0068353Y0470591D01*
X0068384Y0470513D01*
X0068411Y0470434D01*
X0068435Y0470353D01*
X0068454Y0470272D01*
X0068470Y0470190D01*
X0068482Y0470107D01*
X0068490Y0470023D01*
X0068494Y0469940D01*
X0068494Y0469856D01*
X0068490Y0469773D01*
X0068482Y0469689D01*
X0068470Y0469606D01*
X0068454Y0469524D01*
X0068435Y0469443D01*
X0068411Y0469362D01*
X0068384Y0469283D01*
X0068353Y0469205D01*
X0068319Y0469129D01*
X0068280Y0469055D01*
X0068239Y0468982D01*
X0068194Y0468911D01*
X0068146Y0468843D01*
X0068094Y0468777D01*
X0068040Y0468713D01*
X0067982Y0468652D01*
X0067922Y0468594D01*
X0067859Y0468539D01*
X0067794Y0468487D01*
X0067726Y0468438D01*
X0067656Y0468392D01*
X0067584Y0468350D01*
X0067510Y0468311D01*
X0067434Y0468275D01*
X0067356Y0468243D01*
X0067278Y0468215D01*
X0067197Y0468191D01*
X0067116Y0468170D01*
X0067034Y0468154D01*
X0066952Y0468141D01*
X0066868Y0468132D01*
X0066785Y0468127D01*
X0066701Y0468126D01*
X0066617Y0468129D01*
X0066534Y0468136D01*
X0066451Y0468147D01*
X0066369Y0468162D01*
X0066287Y0468180D01*
X0066206Y0468203D01*
X0066127Y0468229D01*
X0066049Y0468259D01*
X0065972Y0468293D01*
X0065897Y0468330D01*
X0065824Y0468370D01*
X0065753Y0468415D01*
X0065684Y0468462D01*
X0065617Y0468513D01*
X0065553Y0468566D01*
X0065491Y0468623D01*
X0065433Y0468683D01*
X0065377Y0468745D01*
X0065324Y0468810D01*
X0065274Y0468877D01*
X0065227Y0468946D01*
X0065184Y0469018D01*
X0065144Y0469092D01*
X0065108Y0469167D01*
X0065075Y0469244D01*
X0065046Y0469323D01*
X0065021Y0469402D01*
X0064999Y0469483D01*
X0064982Y0469565D01*
X0064968Y0469648D01*
X0064958Y0469731D01*
X0064952Y0469814D01*
X0064950Y0469898D01*
X0076761Y0469898D02*
X0076763Y0469982D01*
X0076769Y0470065D01*
X0076779Y0470148D01*
X0076793Y0470231D01*
X0076810Y0470313D01*
X0076832Y0470394D01*
X0076857Y0470473D01*
X0076886Y0470552D01*
X0076919Y0470629D01*
X0076955Y0470704D01*
X0076995Y0470778D01*
X0077038Y0470850D01*
X0077085Y0470919D01*
X0077135Y0470986D01*
X0077188Y0471051D01*
X0077244Y0471113D01*
X0077302Y0471173D01*
X0077364Y0471230D01*
X0077428Y0471283D01*
X0077495Y0471334D01*
X0077564Y0471381D01*
X0077635Y0471426D01*
X0077708Y0471466D01*
X0077783Y0471503D01*
X0077860Y0471537D01*
X0077938Y0471567D01*
X0078017Y0471593D01*
X0078098Y0471616D01*
X0078180Y0471634D01*
X0078262Y0471649D01*
X0078345Y0471660D01*
X0078428Y0471667D01*
X0078512Y0471670D01*
X0078596Y0471669D01*
X0078679Y0471664D01*
X0078763Y0471655D01*
X0078845Y0471642D01*
X0078927Y0471626D01*
X0079008Y0471605D01*
X0079089Y0471581D01*
X0079167Y0471553D01*
X0079245Y0471521D01*
X0079321Y0471485D01*
X0079395Y0471446D01*
X0079467Y0471404D01*
X0079537Y0471358D01*
X0079605Y0471309D01*
X0079670Y0471257D01*
X0079733Y0471202D01*
X0079793Y0471144D01*
X0079851Y0471083D01*
X0079905Y0471019D01*
X0079957Y0470953D01*
X0080005Y0470885D01*
X0080050Y0470814D01*
X0080091Y0470741D01*
X0080130Y0470667D01*
X0080164Y0470591D01*
X0080195Y0470513D01*
X0080222Y0470434D01*
X0080246Y0470353D01*
X0080265Y0470272D01*
X0080281Y0470190D01*
X0080293Y0470107D01*
X0080301Y0470023D01*
X0080305Y0469940D01*
X0080305Y0469856D01*
X0080301Y0469773D01*
X0080293Y0469689D01*
X0080281Y0469606D01*
X0080265Y0469524D01*
X0080246Y0469443D01*
X0080222Y0469362D01*
X0080195Y0469283D01*
X0080164Y0469205D01*
X0080130Y0469129D01*
X0080091Y0469055D01*
X0080050Y0468982D01*
X0080005Y0468911D01*
X0079957Y0468843D01*
X0079905Y0468777D01*
X0079851Y0468713D01*
X0079793Y0468652D01*
X0079733Y0468594D01*
X0079670Y0468539D01*
X0079605Y0468487D01*
X0079537Y0468438D01*
X0079467Y0468392D01*
X0079395Y0468350D01*
X0079321Y0468311D01*
X0079245Y0468275D01*
X0079167Y0468243D01*
X0079089Y0468215D01*
X0079008Y0468191D01*
X0078927Y0468170D01*
X0078845Y0468154D01*
X0078763Y0468141D01*
X0078679Y0468132D01*
X0078596Y0468127D01*
X0078512Y0468126D01*
X0078428Y0468129D01*
X0078345Y0468136D01*
X0078262Y0468147D01*
X0078180Y0468162D01*
X0078098Y0468180D01*
X0078017Y0468203D01*
X0077938Y0468229D01*
X0077860Y0468259D01*
X0077783Y0468293D01*
X0077708Y0468330D01*
X0077635Y0468370D01*
X0077564Y0468415D01*
X0077495Y0468462D01*
X0077428Y0468513D01*
X0077364Y0468566D01*
X0077302Y0468623D01*
X0077244Y0468683D01*
X0077188Y0468745D01*
X0077135Y0468810D01*
X0077085Y0468877D01*
X0077038Y0468946D01*
X0076995Y0469018D01*
X0076955Y0469092D01*
X0076919Y0469167D01*
X0076886Y0469244D01*
X0076857Y0469323D01*
X0076832Y0469402D01*
X0076810Y0469483D01*
X0076793Y0469565D01*
X0076779Y0469648D01*
X0076769Y0469731D01*
X0076763Y0469814D01*
X0076761Y0469898D01*
D11*
X0031683Y0441551D02*
X0031685Y0441694D01*
X0031691Y0441837D01*
X0031701Y0441979D01*
X0031715Y0442121D01*
X0031733Y0442263D01*
X0031755Y0442405D01*
X0031780Y0442545D01*
X0031810Y0442685D01*
X0031844Y0442824D01*
X0031881Y0442962D01*
X0031923Y0443099D01*
X0031968Y0443234D01*
X0032017Y0443368D01*
X0032069Y0443501D01*
X0032125Y0443633D01*
X0032185Y0443762D01*
X0032249Y0443890D01*
X0032316Y0444017D01*
X0032387Y0444141D01*
X0032461Y0444263D01*
X0032538Y0444383D01*
X0032619Y0444501D01*
X0032703Y0444617D01*
X0032790Y0444730D01*
X0032880Y0444841D01*
X0032974Y0444949D01*
X0033070Y0445055D01*
X0033169Y0445157D01*
X0033272Y0445257D01*
X0033376Y0445354D01*
X0033484Y0445449D01*
X0033594Y0445540D01*
X0033707Y0445628D01*
X0033822Y0445712D01*
X0033939Y0445794D01*
X0034059Y0445872D01*
X0034180Y0445947D01*
X0034304Y0446019D01*
X0034430Y0446087D01*
X0034557Y0446151D01*
X0034687Y0446212D01*
X0034818Y0446269D01*
X0034950Y0446323D01*
X0035084Y0446372D01*
X0035219Y0446419D01*
X0035356Y0446461D01*
X0035494Y0446499D01*
X0035632Y0446534D01*
X0035772Y0446564D01*
X0035912Y0446591D01*
X0036053Y0446614D01*
X0036195Y0446633D01*
X0036337Y0446648D01*
X0036480Y0446659D01*
X0036622Y0446666D01*
X0036765Y0446669D01*
X0036908Y0446668D01*
X0037051Y0446663D01*
X0037194Y0446654D01*
X0037336Y0446641D01*
X0037478Y0446624D01*
X0037619Y0446603D01*
X0037760Y0446578D01*
X0037900Y0446550D01*
X0038039Y0446517D01*
X0038177Y0446480D01*
X0038314Y0446440D01*
X0038450Y0446396D01*
X0038585Y0446348D01*
X0038718Y0446296D01*
X0038850Y0446241D01*
X0038980Y0446182D01*
X0039109Y0446119D01*
X0039235Y0446053D01*
X0039360Y0445983D01*
X0039483Y0445910D01*
X0039603Y0445834D01*
X0039722Y0445754D01*
X0039838Y0445670D01*
X0039952Y0445584D01*
X0040063Y0445494D01*
X0040172Y0445402D01*
X0040278Y0445306D01*
X0040382Y0445208D01*
X0040483Y0445106D01*
X0040580Y0445002D01*
X0040675Y0444895D01*
X0040767Y0444786D01*
X0040856Y0444674D01*
X0040942Y0444559D01*
X0041024Y0444443D01*
X0041103Y0444323D01*
X0041179Y0444202D01*
X0041251Y0444079D01*
X0041320Y0443954D01*
X0041385Y0443827D01*
X0041447Y0443698D01*
X0041505Y0443567D01*
X0041560Y0443435D01*
X0041610Y0443301D01*
X0041657Y0443166D01*
X0041701Y0443030D01*
X0041740Y0442893D01*
X0041775Y0442754D01*
X0041807Y0442615D01*
X0041835Y0442475D01*
X0041859Y0442334D01*
X0041879Y0442192D01*
X0041895Y0442050D01*
X0041907Y0441908D01*
X0041915Y0441765D01*
X0041919Y0441622D01*
X0041919Y0441480D01*
X0041915Y0441337D01*
X0041907Y0441194D01*
X0041895Y0441052D01*
X0041879Y0440910D01*
X0041859Y0440768D01*
X0041835Y0440627D01*
X0041807Y0440487D01*
X0041775Y0440348D01*
X0041740Y0440209D01*
X0041701Y0440072D01*
X0041657Y0439936D01*
X0041610Y0439801D01*
X0041560Y0439667D01*
X0041505Y0439535D01*
X0041447Y0439404D01*
X0041385Y0439275D01*
X0041320Y0439148D01*
X0041251Y0439023D01*
X0041179Y0438900D01*
X0041103Y0438779D01*
X0041024Y0438659D01*
X0040942Y0438543D01*
X0040856Y0438428D01*
X0040767Y0438316D01*
X0040675Y0438207D01*
X0040580Y0438100D01*
X0040483Y0437996D01*
X0040382Y0437894D01*
X0040278Y0437796D01*
X0040172Y0437700D01*
X0040063Y0437608D01*
X0039952Y0437518D01*
X0039838Y0437432D01*
X0039722Y0437348D01*
X0039603Y0437268D01*
X0039483Y0437192D01*
X0039360Y0437119D01*
X0039235Y0437049D01*
X0039109Y0436983D01*
X0038980Y0436920D01*
X0038850Y0436861D01*
X0038718Y0436806D01*
X0038585Y0436754D01*
X0038450Y0436706D01*
X0038314Y0436662D01*
X0038177Y0436622D01*
X0038039Y0436585D01*
X0037900Y0436552D01*
X0037760Y0436524D01*
X0037619Y0436499D01*
X0037478Y0436478D01*
X0037336Y0436461D01*
X0037194Y0436448D01*
X0037051Y0436439D01*
X0036908Y0436434D01*
X0036765Y0436433D01*
X0036622Y0436436D01*
X0036480Y0436443D01*
X0036337Y0436454D01*
X0036195Y0436469D01*
X0036053Y0436488D01*
X0035912Y0436511D01*
X0035772Y0436538D01*
X0035632Y0436568D01*
X0035494Y0436603D01*
X0035356Y0436641D01*
X0035219Y0436683D01*
X0035084Y0436730D01*
X0034950Y0436779D01*
X0034818Y0436833D01*
X0034687Y0436890D01*
X0034557Y0436951D01*
X0034430Y0437015D01*
X0034304Y0437083D01*
X0034180Y0437155D01*
X0034059Y0437230D01*
X0033939Y0437308D01*
X0033822Y0437390D01*
X0033707Y0437474D01*
X0033594Y0437562D01*
X0033484Y0437653D01*
X0033376Y0437748D01*
X0033272Y0437845D01*
X0033169Y0437945D01*
X0033070Y0438047D01*
X0032974Y0438153D01*
X0032880Y0438261D01*
X0032790Y0438372D01*
X0032703Y0438485D01*
X0032619Y0438601D01*
X0032538Y0438719D01*
X0032461Y0438839D01*
X0032387Y0438961D01*
X0032316Y0439085D01*
X0032249Y0439212D01*
X0032185Y0439340D01*
X0032125Y0439469D01*
X0032069Y0439601D01*
X0032017Y0439734D01*
X0031968Y0439868D01*
X0031923Y0440003D01*
X0031881Y0440140D01*
X0031844Y0440278D01*
X0031810Y0440417D01*
X0031780Y0440557D01*
X0031755Y0440697D01*
X0031733Y0440839D01*
X0031715Y0440981D01*
X0031701Y0441123D01*
X0031691Y0441265D01*
X0031685Y0441408D01*
X0031683Y0441551D01*
X0138769Y0149425D02*
X0138771Y0149568D01*
X0138777Y0149711D01*
X0138787Y0149853D01*
X0138801Y0149995D01*
X0138819Y0150137D01*
X0138841Y0150279D01*
X0138866Y0150419D01*
X0138896Y0150559D01*
X0138930Y0150698D01*
X0138967Y0150836D01*
X0139009Y0150973D01*
X0139054Y0151108D01*
X0139103Y0151242D01*
X0139155Y0151375D01*
X0139211Y0151507D01*
X0139271Y0151636D01*
X0139335Y0151764D01*
X0139402Y0151891D01*
X0139473Y0152015D01*
X0139547Y0152137D01*
X0139624Y0152257D01*
X0139705Y0152375D01*
X0139789Y0152491D01*
X0139876Y0152604D01*
X0139966Y0152715D01*
X0140060Y0152823D01*
X0140156Y0152929D01*
X0140255Y0153031D01*
X0140358Y0153131D01*
X0140462Y0153228D01*
X0140570Y0153323D01*
X0140680Y0153414D01*
X0140793Y0153502D01*
X0140908Y0153586D01*
X0141025Y0153668D01*
X0141145Y0153746D01*
X0141266Y0153821D01*
X0141390Y0153893D01*
X0141516Y0153961D01*
X0141643Y0154025D01*
X0141773Y0154086D01*
X0141904Y0154143D01*
X0142036Y0154197D01*
X0142170Y0154246D01*
X0142305Y0154293D01*
X0142442Y0154335D01*
X0142580Y0154373D01*
X0142718Y0154408D01*
X0142858Y0154438D01*
X0142998Y0154465D01*
X0143139Y0154488D01*
X0143281Y0154507D01*
X0143423Y0154522D01*
X0143566Y0154533D01*
X0143708Y0154540D01*
X0143851Y0154543D01*
X0143994Y0154542D01*
X0144137Y0154537D01*
X0144280Y0154528D01*
X0144422Y0154515D01*
X0144564Y0154498D01*
X0144705Y0154477D01*
X0144846Y0154452D01*
X0144986Y0154424D01*
X0145125Y0154391D01*
X0145263Y0154354D01*
X0145400Y0154314D01*
X0145536Y0154270D01*
X0145671Y0154222D01*
X0145804Y0154170D01*
X0145936Y0154115D01*
X0146066Y0154056D01*
X0146195Y0153993D01*
X0146321Y0153927D01*
X0146446Y0153857D01*
X0146569Y0153784D01*
X0146689Y0153708D01*
X0146808Y0153628D01*
X0146924Y0153544D01*
X0147038Y0153458D01*
X0147149Y0153368D01*
X0147258Y0153276D01*
X0147364Y0153180D01*
X0147468Y0153082D01*
X0147569Y0152980D01*
X0147666Y0152876D01*
X0147761Y0152769D01*
X0147853Y0152660D01*
X0147942Y0152548D01*
X0148028Y0152433D01*
X0148110Y0152317D01*
X0148189Y0152197D01*
X0148265Y0152076D01*
X0148337Y0151953D01*
X0148406Y0151828D01*
X0148471Y0151701D01*
X0148533Y0151572D01*
X0148591Y0151441D01*
X0148646Y0151309D01*
X0148696Y0151175D01*
X0148743Y0151040D01*
X0148787Y0150904D01*
X0148826Y0150767D01*
X0148861Y0150628D01*
X0148893Y0150489D01*
X0148921Y0150349D01*
X0148945Y0150208D01*
X0148965Y0150066D01*
X0148981Y0149924D01*
X0148993Y0149782D01*
X0149001Y0149639D01*
X0149005Y0149496D01*
X0149005Y0149354D01*
X0149001Y0149211D01*
X0148993Y0149068D01*
X0148981Y0148926D01*
X0148965Y0148784D01*
X0148945Y0148642D01*
X0148921Y0148501D01*
X0148893Y0148361D01*
X0148861Y0148222D01*
X0148826Y0148083D01*
X0148787Y0147946D01*
X0148743Y0147810D01*
X0148696Y0147675D01*
X0148646Y0147541D01*
X0148591Y0147409D01*
X0148533Y0147278D01*
X0148471Y0147149D01*
X0148406Y0147022D01*
X0148337Y0146897D01*
X0148265Y0146774D01*
X0148189Y0146653D01*
X0148110Y0146533D01*
X0148028Y0146417D01*
X0147942Y0146302D01*
X0147853Y0146190D01*
X0147761Y0146081D01*
X0147666Y0145974D01*
X0147569Y0145870D01*
X0147468Y0145768D01*
X0147364Y0145670D01*
X0147258Y0145574D01*
X0147149Y0145482D01*
X0147038Y0145392D01*
X0146924Y0145306D01*
X0146808Y0145222D01*
X0146689Y0145142D01*
X0146569Y0145066D01*
X0146446Y0144993D01*
X0146321Y0144923D01*
X0146195Y0144857D01*
X0146066Y0144794D01*
X0145936Y0144735D01*
X0145804Y0144680D01*
X0145671Y0144628D01*
X0145536Y0144580D01*
X0145400Y0144536D01*
X0145263Y0144496D01*
X0145125Y0144459D01*
X0144986Y0144426D01*
X0144846Y0144398D01*
X0144705Y0144373D01*
X0144564Y0144352D01*
X0144422Y0144335D01*
X0144280Y0144322D01*
X0144137Y0144313D01*
X0143994Y0144308D01*
X0143851Y0144307D01*
X0143708Y0144310D01*
X0143566Y0144317D01*
X0143423Y0144328D01*
X0143281Y0144343D01*
X0143139Y0144362D01*
X0142998Y0144385D01*
X0142858Y0144412D01*
X0142718Y0144442D01*
X0142580Y0144477D01*
X0142442Y0144515D01*
X0142305Y0144557D01*
X0142170Y0144604D01*
X0142036Y0144653D01*
X0141904Y0144707D01*
X0141773Y0144764D01*
X0141643Y0144825D01*
X0141516Y0144889D01*
X0141390Y0144957D01*
X0141266Y0145029D01*
X0141145Y0145104D01*
X0141025Y0145182D01*
X0140908Y0145264D01*
X0140793Y0145348D01*
X0140680Y0145436D01*
X0140570Y0145527D01*
X0140462Y0145622D01*
X0140358Y0145719D01*
X0140255Y0145819D01*
X0140156Y0145921D01*
X0140060Y0146027D01*
X0139966Y0146135D01*
X0139876Y0146246D01*
X0139789Y0146359D01*
X0139705Y0146475D01*
X0139624Y0146593D01*
X0139547Y0146713D01*
X0139473Y0146835D01*
X0139402Y0146959D01*
X0139335Y0147086D01*
X0139271Y0147214D01*
X0139211Y0147343D01*
X0139155Y0147475D01*
X0139103Y0147608D01*
X0139054Y0147742D01*
X0139009Y0147877D01*
X0138967Y0148014D01*
X0138930Y0148152D01*
X0138896Y0148291D01*
X0138866Y0148431D01*
X0138841Y0148571D01*
X0138819Y0148713D01*
X0138801Y0148855D01*
X0138787Y0148997D01*
X0138777Y0149139D01*
X0138771Y0149282D01*
X0138769Y0149425D01*
X0117509Y0124228D02*
X0117511Y0124371D01*
X0117517Y0124514D01*
X0117527Y0124656D01*
X0117541Y0124798D01*
X0117559Y0124940D01*
X0117581Y0125082D01*
X0117606Y0125222D01*
X0117636Y0125362D01*
X0117670Y0125501D01*
X0117707Y0125639D01*
X0117749Y0125776D01*
X0117794Y0125911D01*
X0117843Y0126045D01*
X0117895Y0126178D01*
X0117951Y0126310D01*
X0118011Y0126439D01*
X0118075Y0126567D01*
X0118142Y0126694D01*
X0118213Y0126818D01*
X0118287Y0126940D01*
X0118364Y0127060D01*
X0118445Y0127178D01*
X0118529Y0127294D01*
X0118616Y0127407D01*
X0118706Y0127518D01*
X0118800Y0127626D01*
X0118896Y0127732D01*
X0118995Y0127834D01*
X0119098Y0127934D01*
X0119202Y0128031D01*
X0119310Y0128126D01*
X0119420Y0128217D01*
X0119533Y0128305D01*
X0119648Y0128389D01*
X0119765Y0128471D01*
X0119885Y0128549D01*
X0120006Y0128624D01*
X0120130Y0128696D01*
X0120256Y0128764D01*
X0120383Y0128828D01*
X0120513Y0128889D01*
X0120644Y0128946D01*
X0120776Y0129000D01*
X0120910Y0129049D01*
X0121045Y0129096D01*
X0121182Y0129138D01*
X0121320Y0129176D01*
X0121458Y0129211D01*
X0121598Y0129241D01*
X0121738Y0129268D01*
X0121879Y0129291D01*
X0122021Y0129310D01*
X0122163Y0129325D01*
X0122306Y0129336D01*
X0122448Y0129343D01*
X0122591Y0129346D01*
X0122734Y0129345D01*
X0122877Y0129340D01*
X0123020Y0129331D01*
X0123162Y0129318D01*
X0123304Y0129301D01*
X0123445Y0129280D01*
X0123586Y0129255D01*
X0123726Y0129227D01*
X0123865Y0129194D01*
X0124003Y0129157D01*
X0124140Y0129117D01*
X0124276Y0129073D01*
X0124411Y0129025D01*
X0124544Y0128973D01*
X0124676Y0128918D01*
X0124806Y0128859D01*
X0124935Y0128796D01*
X0125061Y0128730D01*
X0125186Y0128660D01*
X0125309Y0128587D01*
X0125429Y0128511D01*
X0125548Y0128431D01*
X0125664Y0128347D01*
X0125778Y0128261D01*
X0125889Y0128171D01*
X0125998Y0128079D01*
X0126104Y0127983D01*
X0126208Y0127885D01*
X0126309Y0127783D01*
X0126406Y0127679D01*
X0126501Y0127572D01*
X0126593Y0127463D01*
X0126682Y0127351D01*
X0126768Y0127236D01*
X0126850Y0127120D01*
X0126929Y0127000D01*
X0127005Y0126879D01*
X0127077Y0126756D01*
X0127146Y0126631D01*
X0127211Y0126504D01*
X0127273Y0126375D01*
X0127331Y0126244D01*
X0127386Y0126112D01*
X0127436Y0125978D01*
X0127483Y0125843D01*
X0127527Y0125707D01*
X0127566Y0125570D01*
X0127601Y0125431D01*
X0127633Y0125292D01*
X0127661Y0125152D01*
X0127685Y0125011D01*
X0127705Y0124869D01*
X0127721Y0124727D01*
X0127733Y0124585D01*
X0127741Y0124442D01*
X0127745Y0124299D01*
X0127745Y0124157D01*
X0127741Y0124014D01*
X0127733Y0123871D01*
X0127721Y0123729D01*
X0127705Y0123587D01*
X0127685Y0123445D01*
X0127661Y0123304D01*
X0127633Y0123164D01*
X0127601Y0123025D01*
X0127566Y0122886D01*
X0127527Y0122749D01*
X0127483Y0122613D01*
X0127436Y0122478D01*
X0127386Y0122344D01*
X0127331Y0122212D01*
X0127273Y0122081D01*
X0127211Y0121952D01*
X0127146Y0121825D01*
X0127077Y0121700D01*
X0127005Y0121577D01*
X0126929Y0121456D01*
X0126850Y0121336D01*
X0126768Y0121220D01*
X0126682Y0121105D01*
X0126593Y0120993D01*
X0126501Y0120884D01*
X0126406Y0120777D01*
X0126309Y0120673D01*
X0126208Y0120571D01*
X0126104Y0120473D01*
X0125998Y0120377D01*
X0125889Y0120285D01*
X0125778Y0120195D01*
X0125664Y0120109D01*
X0125548Y0120025D01*
X0125429Y0119945D01*
X0125309Y0119869D01*
X0125186Y0119796D01*
X0125061Y0119726D01*
X0124935Y0119660D01*
X0124806Y0119597D01*
X0124676Y0119538D01*
X0124544Y0119483D01*
X0124411Y0119431D01*
X0124276Y0119383D01*
X0124140Y0119339D01*
X0124003Y0119299D01*
X0123865Y0119262D01*
X0123726Y0119229D01*
X0123586Y0119201D01*
X0123445Y0119176D01*
X0123304Y0119155D01*
X0123162Y0119138D01*
X0123020Y0119125D01*
X0122877Y0119116D01*
X0122734Y0119111D01*
X0122591Y0119110D01*
X0122448Y0119113D01*
X0122306Y0119120D01*
X0122163Y0119131D01*
X0122021Y0119146D01*
X0121879Y0119165D01*
X0121738Y0119188D01*
X0121598Y0119215D01*
X0121458Y0119245D01*
X0121320Y0119280D01*
X0121182Y0119318D01*
X0121045Y0119360D01*
X0120910Y0119407D01*
X0120776Y0119456D01*
X0120644Y0119510D01*
X0120513Y0119567D01*
X0120383Y0119628D01*
X0120256Y0119692D01*
X0120130Y0119760D01*
X0120006Y0119832D01*
X0119885Y0119907D01*
X0119765Y0119985D01*
X0119648Y0120067D01*
X0119533Y0120151D01*
X0119420Y0120239D01*
X0119310Y0120330D01*
X0119202Y0120425D01*
X0119098Y0120522D01*
X0118995Y0120622D01*
X0118896Y0120724D01*
X0118800Y0120830D01*
X0118706Y0120938D01*
X0118616Y0121049D01*
X0118529Y0121162D01*
X0118445Y0121278D01*
X0118364Y0121396D01*
X0118287Y0121516D01*
X0118213Y0121638D01*
X0118142Y0121762D01*
X0118075Y0121889D01*
X0118011Y0122017D01*
X0117951Y0122146D01*
X0117895Y0122278D01*
X0117843Y0122411D01*
X0117794Y0122545D01*
X0117749Y0122680D01*
X0117707Y0122817D01*
X0117670Y0122955D01*
X0117636Y0123094D01*
X0117606Y0123234D01*
X0117581Y0123374D01*
X0117559Y0123516D01*
X0117541Y0123658D01*
X0117527Y0123800D01*
X0117517Y0123942D01*
X0117511Y0124085D01*
X0117509Y0124228D01*
X0113572Y0105331D02*
X0113574Y0105474D01*
X0113580Y0105617D01*
X0113590Y0105759D01*
X0113604Y0105901D01*
X0113622Y0106043D01*
X0113644Y0106185D01*
X0113669Y0106325D01*
X0113699Y0106465D01*
X0113733Y0106604D01*
X0113770Y0106742D01*
X0113812Y0106879D01*
X0113857Y0107014D01*
X0113906Y0107148D01*
X0113958Y0107281D01*
X0114014Y0107413D01*
X0114074Y0107542D01*
X0114138Y0107670D01*
X0114205Y0107797D01*
X0114276Y0107921D01*
X0114350Y0108043D01*
X0114427Y0108163D01*
X0114508Y0108281D01*
X0114592Y0108397D01*
X0114679Y0108510D01*
X0114769Y0108621D01*
X0114863Y0108729D01*
X0114959Y0108835D01*
X0115058Y0108937D01*
X0115161Y0109037D01*
X0115265Y0109134D01*
X0115373Y0109229D01*
X0115483Y0109320D01*
X0115596Y0109408D01*
X0115711Y0109492D01*
X0115828Y0109574D01*
X0115948Y0109652D01*
X0116069Y0109727D01*
X0116193Y0109799D01*
X0116319Y0109867D01*
X0116446Y0109931D01*
X0116576Y0109992D01*
X0116707Y0110049D01*
X0116839Y0110103D01*
X0116973Y0110152D01*
X0117108Y0110199D01*
X0117245Y0110241D01*
X0117383Y0110279D01*
X0117521Y0110314D01*
X0117661Y0110344D01*
X0117801Y0110371D01*
X0117942Y0110394D01*
X0118084Y0110413D01*
X0118226Y0110428D01*
X0118369Y0110439D01*
X0118511Y0110446D01*
X0118654Y0110449D01*
X0118797Y0110448D01*
X0118940Y0110443D01*
X0119083Y0110434D01*
X0119225Y0110421D01*
X0119367Y0110404D01*
X0119508Y0110383D01*
X0119649Y0110358D01*
X0119789Y0110330D01*
X0119928Y0110297D01*
X0120066Y0110260D01*
X0120203Y0110220D01*
X0120339Y0110176D01*
X0120474Y0110128D01*
X0120607Y0110076D01*
X0120739Y0110021D01*
X0120869Y0109962D01*
X0120998Y0109899D01*
X0121124Y0109833D01*
X0121249Y0109763D01*
X0121372Y0109690D01*
X0121492Y0109614D01*
X0121611Y0109534D01*
X0121727Y0109450D01*
X0121841Y0109364D01*
X0121952Y0109274D01*
X0122061Y0109182D01*
X0122167Y0109086D01*
X0122271Y0108988D01*
X0122372Y0108886D01*
X0122469Y0108782D01*
X0122564Y0108675D01*
X0122656Y0108566D01*
X0122745Y0108454D01*
X0122831Y0108339D01*
X0122913Y0108223D01*
X0122992Y0108103D01*
X0123068Y0107982D01*
X0123140Y0107859D01*
X0123209Y0107734D01*
X0123274Y0107607D01*
X0123336Y0107478D01*
X0123394Y0107347D01*
X0123449Y0107215D01*
X0123499Y0107081D01*
X0123546Y0106946D01*
X0123590Y0106810D01*
X0123629Y0106673D01*
X0123664Y0106534D01*
X0123696Y0106395D01*
X0123724Y0106255D01*
X0123748Y0106114D01*
X0123768Y0105972D01*
X0123784Y0105830D01*
X0123796Y0105688D01*
X0123804Y0105545D01*
X0123808Y0105402D01*
X0123808Y0105260D01*
X0123804Y0105117D01*
X0123796Y0104974D01*
X0123784Y0104832D01*
X0123768Y0104690D01*
X0123748Y0104548D01*
X0123724Y0104407D01*
X0123696Y0104267D01*
X0123664Y0104128D01*
X0123629Y0103989D01*
X0123590Y0103852D01*
X0123546Y0103716D01*
X0123499Y0103581D01*
X0123449Y0103447D01*
X0123394Y0103315D01*
X0123336Y0103184D01*
X0123274Y0103055D01*
X0123209Y0102928D01*
X0123140Y0102803D01*
X0123068Y0102680D01*
X0122992Y0102559D01*
X0122913Y0102439D01*
X0122831Y0102323D01*
X0122745Y0102208D01*
X0122656Y0102096D01*
X0122564Y0101987D01*
X0122469Y0101880D01*
X0122372Y0101776D01*
X0122271Y0101674D01*
X0122167Y0101576D01*
X0122061Y0101480D01*
X0121952Y0101388D01*
X0121841Y0101298D01*
X0121727Y0101212D01*
X0121611Y0101128D01*
X0121492Y0101048D01*
X0121372Y0100972D01*
X0121249Y0100899D01*
X0121124Y0100829D01*
X0120998Y0100763D01*
X0120869Y0100700D01*
X0120739Y0100641D01*
X0120607Y0100586D01*
X0120474Y0100534D01*
X0120339Y0100486D01*
X0120203Y0100442D01*
X0120066Y0100402D01*
X0119928Y0100365D01*
X0119789Y0100332D01*
X0119649Y0100304D01*
X0119508Y0100279D01*
X0119367Y0100258D01*
X0119225Y0100241D01*
X0119083Y0100228D01*
X0118940Y0100219D01*
X0118797Y0100214D01*
X0118654Y0100213D01*
X0118511Y0100216D01*
X0118369Y0100223D01*
X0118226Y0100234D01*
X0118084Y0100249D01*
X0117942Y0100268D01*
X0117801Y0100291D01*
X0117661Y0100318D01*
X0117521Y0100348D01*
X0117383Y0100383D01*
X0117245Y0100421D01*
X0117108Y0100463D01*
X0116973Y0100510D01*
X0116839Y0100559D01*
X0116707Y0100613D01*
X0116576Y0100670D01*
X0116446Y0100731D01*
X0116319Y0100795D01*
X0116193Y0100863D01*
X0116069Y0100935D01*
X0115948Y0101010D01*
X0115828Y0101088D01*
X0115711Y0101170D01*
X0115596Y0101254D01*
X0115483Y0101342D01*
X0115373Y0101433D01*
X0115265Y0101528D01*
X0115161Y0101625D01*
X0115058Y0101725D01*
X0114959Y0101827D01*
X0114863Y0101933D01*
X0114769Y0102041D01*
X0114679Y0102152D01*
X0114592Y0102265D01*
X0114508Y0102381D01*
X0114427Y0102499D01*
X0114350Y0102619D01*
X0114276Y0102741D01*
X0114205Y0102865D01*
X0114138Y0102992D01*
X0114074Y0103120D01*
X0114014Y0103249D01*
X0113958Y0103381D01*
X0113906Y0103514D01*
X0113857Y0103648D01*
X0113812Y0103783D01*
X0113770Y0103920D01*
X0113733Y0104058D01*
X0113699Y0104197D01*
X0113669Y0104337D01*
X0113644Y0104477D01*
X0113622Y0104619D01*
X0113604Y0104761D01*
X0113590Y0104903D01*
X0113580Y0105045D01*
X0113574Y0105188D01*
X0113572Y0105331D01*
X0031289Y0109661D02*
X0031291Y0109804D01*
X0031297Y0109947D01*
X0031307Y0110089D01*
X0031321Y0110231D01*
X0031339Y0110373D01*
X0031361Y0110515D01*
X0031386Y0110655D01*
X0031416Y0110795D01*
X0031450Y0110934D01*
X0031487Y0111072D01*
X0031529Y0111209D01*
X0031574Y0111344D01*
X0031623Y0111478D01*
X0031675Y0111611D01*
X0031731Y0111743D01*
X0031791Y0111872D01*
X0031855Y0112000D01*
X0031922Y0112127D01*
X0031993Y0112251D01*
X0032067Y0112373D01*
X0032144Y0112493D01*
X0032225Y0112611D01*
X0032309Y0112727D01*
X0032396Y0112840D01*
X0032486Y0112951D01*
X0032580Y0113059D01*
X0032676Y0113165D01*
X0032775Y0113267D01*
X0032878Y0113367D01*
X0032982Y0113464D01*
X0033090Y0113559D01*
X0033200Y0113650D01*
X0033313Y0113738D01*
X0033428Y0113822D01*
X0033545Y0113904D01*
X0033665Y0113982D01*
X0033786Y0114057D01*
X0033910Y0114129D01*
X0034036Y0114197D01*
X0034163Y0114261D01*
X0034293Y0114322D01*
X0034424Y0114379D01*
X0034556Y0114433D01*
X0034690Y0114482D01*
X0034825Y0114529D01*
X0034962Y0114571D01*
X0035100Y0114609D01*
X0035238Y0114644D01*
X0035378Y0114674D01*
X0035518Y0114701D01*
X0035659Y0114724D01*
X0035801Y0114743D01*
X0035943Y0114758D01*
X0036086Y0114769D01*
X0036228Y0114776D01*
X0036371Y0114779D01*
X0036514Y0114778D01*
X0036657Y0114773D01*
X0036800Y0114764D01*
X0036942Y0114751D01*
X0037084Y0114734D01*
X0037225Y0114713D01*
X0037366Y0114688D01*
X0037506Y0114660D01*
X0037645Y0114627D01*
X0037783Y0114590D01*
X0037920Y0114550D01*
X0038056Y0114506D01*
X0038191Y0114458D01*
X0038324Y0114406D01*
X0038456Y0114351D01*
X0038586Y0114292D01*
X0038715Y0114229D01*
X0038841Y0114163D01*
X0038966Y0114093D01*
X0039089Y0114020D01*
X0039209Y0113944D01*
X0039328Y0113864D01*
X0039444Y0113780D01*
X0039558Y0113694D01*
X0039669Y0113604D01*
X0039778Y0113512D01*
X0039884Y0113416D01*
X0039988Y0113318D01*
X0040089Y0113216D01*
X0040186Y0113112D01*
X0040281Y0113005D01*
X0040373Y0112896D01*
X0040462Y0112784D01*
X0040548Y0112669D01*
X0040630Y0112553D01*
X0040709Y0112433D01*
X0040785Y0112312D01*
X0040857Y0112189D01*
X0040926Y0112064D01*
X0040991Y0111937D01*
X0041053Y0111808D01*
X0041111Y0111677D01*
X0041166Y0111545D01*
X0041216Y0111411D01*
X0041263Y0111276D01*
X0041307Y0111140D01*
X0041346Y0111003D01*
X0041381Y0110864D01*
X0041413Y0110725D01*
X0041441Y0110585D01*
X0041465Y0110444D01*
X0041485Y0110302D01*
X0041501Y0110160D01*
X0041513Y0110018D01*
X0041521Y0109875D01*
X0041525Y0109732D01*
X0041525Y0109590D01*
X0041521Y0109447D01*
X0041513Y0109304D01*
X0041501Y0109162D01*
X0041485Y0109020D01*
X0041465Y0108878D01*
X0041441Y0108737D01*
X0041413Y0108597D01*
X0041381Y0108458D01*
X0041346Y0108319D01*
X0041307Y0108182D01*
X0041263Y0108046D01*
X0041216Y0107911D01*
X0041166Y0107777D01*
X0041111Y0107645D01*
X0041053Y0107514D01*
X0040991Y0107385D01*
X0040926Y0107258D01*
X0040857Y0107133D01*
X0040785Y0107010D01*
X0040709Y0106889D01*
X0040630Y0106769D01*
X0040548Y0106653D01*
X0040462Y0106538D01*
X0040373Y0106426D01*
X0040281Y0106317D01*
X0040186Y0106210D01*
X0040089Y0106106D01*
X0039988Y0106004D01*
X0039884Y0105906D01*
X0039778Y0105810D01*
X0039669Y0105718D01*
X0039558Y0105628D01*
X0039444Y0105542D01*
X0039328Y0105458D01*
X0039209Y0105378D01*
X0039089Y0105302D01*
X0038966Y0105229D01*
X0038841Y0105159D01*
X0038715Y0105093D01*
X0038586Y0105030D01*
X0038456Y0104971D01*
X0038324Y0104916D01*
X0038191Y0104864D01*
X0038056Y0104816D01*
X0037920Y0104772D01*
X0037783Y0104732D01*
X0037645Y0104695D01*
X0037506Y0104662D01*
X0037366Y0104634D01*
X0037225Y0104609D01*
X0037084Y0104588D01*
X0036942Y0104571D01*
X0036800Y0104558D01*
X0036657Y0104549D01*
X0036514Y0104544D01*
X0036371Y0104543D01*
X0036228Y0104546D01*
X0036086Y0104553D01*
X0035943Y0104564D01*
X0035801Y0104579D01*
X0035659Y0104598D01*
X0035518Y0104621D01*
X0035378Y0104648D01*
X0035238Y0104678D01*
X0035100Y0104713D01*
X0034962Y0104751D01*
X0034825Y0104793D01*
X0034690Y0104840D01*
X0034556Y0104889D01*
X0034424Y0104943D01*
X0034293Y0105000D01*
X0034163Y0105061D01*
X0034036Y0105125D01*
X0033910Y0105193D01*
X0033786Y0105265D01*
X0033665Y0105340D01*
X0033545Y0105418D01*
X0033428Y0105500D01*
X0033313Y0105584D01*
X0033200Y0105672D01*
X0033090Y0105763D01*
X0032982Y0105858D01*
X0032878Y0105955D01*
X0032775Y0106055D01*
X0032676Y0106157D01*
X0032580Y0106263D01*
X0032486Y0106371D01*
X0032396Y0106482D01*
X0032309Y0106595D01*
X0032225Y0106711D01*
X0032144Y0106829D01*
X0032067Y0106949D01*
X0031993Y0107071D01*
X0031922Y0107195D01*
X0031855Y0107322D01*
X0031791Y0107450D01*
X0031731Y0107579D01*
X0031675Y0107711D01*
X0031623Y0107844D01*
X0031574Y0107978D01*
X0031529Y0108113D01*
X0031487Y0108250D01*
X0031450Y0108388D01*
X0031416Y0108527D01*
X0031386Y0108667D01*
X0031361Y0108807D01*
X0031339Y0108949D01*
X0031321Y0109091D01*
X0031307Y0109233D01*
X0031297Y0109375D01*
X0031291Y0109518D01*
X0031289Y0109661D01*
X0205895Y0105331D02*
X0205897Y0105500D01*
X0205903Y0105669D01*
X0205914Y0105838D01*
X0205928Y0106006D01*
X0205947Y0106174D01*
X0205970Y0106342D01*
X0205996Y0106509D01*
X0206027Y0106675D01*
X0206062Y0106841D01*
X0206101Y0107005D01*
X0206145Y0107169D01*
X0206192Y0107331D01*
X0206243Y0107492D01*
X0206298Y0107652D01*
X0206357Y0107811D01*
X0206419Y0107968D01*
X0206486Y0108123D01*
X0206557Y0108277D01*
X0206631Y0108429D01*
X0206709Y0108579D01*
X0206790Y0108727D01*
X0206875Y0108873D01*
X0206964Y0109017D01*
X0207056Y0109159D01*
X0207152Y0109298D01*
X0207251Y0109435D01*
X0207353Y0109570D01*
X0207459Y0109702D01*
X0207568Y0109831D01*
X0207680Y0109958D01*
X0207795Y0110082D01*
X0207913Y0110203D01*
X0208034Y0110321D01*
X0208158Y0110436D01*
X0208285Y0110548D01*
X0208414Y0110657D01*
X0208546Y0110763D01*
X0208681Y0110865D01*
X0208818Y0110964D01*
X0208957Y0111060D01*
X0209099Y0111152D01*
X0209243Y0111241D01*
X0209389Y0111326D01*
X0209537Y0111407D01*
X0209687Y0111485D01*
X0209839Y0111559D01*
X0209993Y0111630D01*
X0210148Y0111697D01*
X0210305Y0111759D01*
X0210464Y0111818D01*
X0210624Y0111873D01*
X0210785Y0111924D01*
X0210947Y0111971D01*
X0211111Y0112015D01*
X0211275Y0112054D01*
X0211441Y0112089D01*
X0211607Y0112120D01*
X0211774Y0112146D01*
X0211942Y0112169D01*
X0212110Y0112188D01*
X0212278Y0112202D01*
X0212447Y0112213D01*
X0212616Y0112219D01*
X0212785Y0112221D01*
X0212954Y0112219D01*
X0213123Y0112213D01*
X0213292Y0112202D01*
X0213460Y0112188D01*
X0213628Y0112169D01*
X0213796Y0112146D01*
X0213963Y0112120D01*
X0214129Y0112089D01*
X0214295Y0112054D01*
X0214459Y0112015D01*
X0214623Y0111971D01*
X0214785Y0111924D01*
X0214946Y0111873D01*
X0215106Y0111818D01*
X0215265Y0111759D01*
X0215422Y0111697D01*
X0215577Y0111630D01*
X0215731Y0111559D01*
X0215883Y0111485D01*
X0216033Y0111407D01*
X0216181Y0111326D01*
X0216327Y0111241D01*
X0216471Y0111152D01*
X0216613Y0111060D01*
X0216752Y0110964D01*
X0216889Y0110865D01*
X0217024Y0110763D01*
X0217156Y0110657D01*
X0217285Y0110548D01*
X0217412Y0110436D01*
X0217536Y0110321D01*
X0217657Y0110203D01*
X0217775Y0110082D01*
X0217890Y0109958D01*
X0218002Y0109831D01*
X0218111Y0109702D01*
X0218217Y0109570D01*
X0218319Y0109435D01*
X0218418Y0109298D01*
X0218514Y0109159D01*
X0218606Y0109017D01*
X0218695Y0108873D01*
X0218780Y0108727D01*
X0218861Y0108579D01*
X0218939Y0108429D01*
X0219013Y0108277D01*
X0219084Y0108123D01*
X0219151Y0107968D01*
X0219213Y0107811D01*
X0219272Y0107652D01*
X0219327Y0107492D01*
X0219378Y0107331D01*
X0219425Y0107169D01*
X0219469Y0107005D01*
X0219508Y0106841D01*
X0219543Y0106675D01*
X0219574Y0106509D01*
X0219600Y0106342D01*
X0219623Y0106174D01*
X0219642Y0106006D01*
X0219656Y0105838D01*
X0219667Y0105669D01*
X0219673Y0105500D01*
X0219675Y0105331D01*
X0219673Y0105162D01*
X0219667Y0104993D01*
X0219656Y0104824D01*
X0219642Y0104656D01*
X0219623Y0104488D01*
X0219600Y0104320D01*
X0219574Y0104153D01*
X0219543Y0103987D01*
X0219508Y0103821D01*
X0219469Y0103657D01*
X0219425Y0103493D01*
X0219378Y0103331D01*
X0219327Y0103170D01*
X0219272Y0103010D01*
X0219213Y0102851D01*
X0219151Y0102694D01*
X0219084Y0102539D01*
X0219013Y0102385D01*
X0218939Y0102233D01*
X0218861Y0102083D01*
X0218780Y0101935D01*
X0218695Y0101789D01*
X0218606Y0101645D01*
X0218514Y0101503D01*
X0218418Y0101364D01*
X0218319Y0101227D01*
X0218217Y0101092D01*
X0218111Y0100960D01*
X0218002Y0100831D01*
X0217890Y0100704D01*
X0217775Y0100580D01*
X0217657Y0100459D01*
X0217536Y0100341D01*
X0217412Y0100226D01*
X0217285Y0100114D01*
X0217156Y0100005D01*
X0217024Y0099899D01*
X0216889Y0099797D01*
X0216752Y0099698D01*
X0216613Y0099602D01*
X0216471Y0099510D01*
X0216327Y0099421D01*
X0216181Y0099336D01*
X0216033Y0099255D01*
X0215883Y0099177D01*
X0215731Y0099103D01*
X0215577Y0099032D01*
X0215422Y0098965D01*
X0215265Y0098903D01*
X0215106Y0098844D01*
X0214946Y0098789D01*
X0214785Y0098738D01*
X0214623Y0098691D01*
X0214459Y0098647D01*
X0214295Y0098608D01*
X0214129Y0098573D01*
X0213963Y0098542D01*
X0213796Y0098516D01*
X0213628Y0098493D01*
X0213460Y0098474D01*
X0213292Y0098460D01*
X0213123Y0098449D01*
X0212954Y0098443D01*
X0212785Y0098441D01*
X0212616Y0098443D01*
X0212447Y0098449D01*
X0212278Y0098460D01*
X0212110Y0098474D01*
X0211942Y0098493D01*
X0211774Y0098516D01*
X0211607Y0098542D01*
X0211441Y0098573D01*
X0211275Y0098608D01*
X0211111Y0098647D01*
X0210947Y0098691D01*
X0210785Y0098738D01*
X0210624Y0098789D01*
X0210464Y0098844D01*
X0210305Y0098903D01*
X0210148Y0098965D01*
X0209993Y0099032D01*
X0209839Y0099103D01*
X0209687Y0099177D01*
X0209537Y0099255D01*
X0209389Y0099336D01*
X0209243Y0099421D01*
X0209099Y0099510D01*
X0208957Y0099602D01*
X0208818Y0099698D01*
X0208681Y0099797D01*
X0208546Y0099899D01*
X0208414Y0100005D01*
X0208285Y0100114D01*
X0208158Y0100226D01*
X0208034Y0100341D01*
X0207913Y0100459D01*
X0207795Y0100580D01*
X0207680Y0100704D01*
X0207568Y0100831D01*
X0207459Y0100960D01*
X0207353Y0101092D01*
X0207251Y0101227D01*
X0207152Y0101364D01*
X0207056Y0101503D01*
X0206964Y0101645D01*
X0206875Y0101789D01*
X0206790Y0101935D01*
X0206709Y0102083D01*
X0206631Y0102233D01*
X0206557Y0102385D01*
X0206486Y0102539D01*
X0206419Y0102694D01*
X0206357Y0102851D01*
X0206298Y0103010D01*
X0206243Y0103170D01*
X0206192Y0103331D01*
X0206145Y0103493D01*
X0206101Y0103657D01*
X0206062Y0103821D01*
X0206027Y0103987D01*
X0205996Y0104153D01*
X0205970Y0104320D01*
X0205947Y0104488D01*
X0205928Y0104656D01*
X0205914Y0104824D01*
X0205903Y0104993D01*
X0205897Y0105162D01*
X0205895Y0105331D01*
X0244281Y0139583D02*
X0244283Y0139776D01*
X0244290Y0139969D01*
X0244302Y0140162D01*
X0244319Y0140355D01*
X0244340Y0140547D01*
X0244366Y0140738D01*
X0244397Y0140929D01*
X0244432Y0141119D01*
X0244472Y0141308D01*
X0244517Y0141496D01*
X0244566Y0141683D01*
X0244620Y0141869D01*
X0244678Y0142053D01*
X0244741Y0142236D01*
X0244809Y0142417D01*
X0244880Y0142596D01*
X0244957Y0142774D01*
X0245037Y0142950D01*
X0245122Y0143123D01*
X0245211Y0143295D01*
X0245304Y0143464D01*
X0245401Y0143631D01*
X0245503Y0143796D01*
X0245608Y0143958D01*
X0245717Y0144117D01*
X0245831Y0144274D01*
X0245948Y0144427D01*
X0246068Y0144578D01*
X0246193Y0144726D01*
X0246321Y0144871D01*
X0246452Y0145012D01*
X0246587Y0145151D01*
X0246726Y0145286D01*
X0246867Y0145417D01*
X0247012Y0145545D01*
X0247160Y0145670D01*
X0247311Y0145790D01*
X0247464Y0145907D01*
X0247621Y0146021D01*
X0247780Y0146130D01*
X0247942Y0146235D01*
X0248107Y0146337D01*
X0248274Y0146434D01*
X0248443Y0146527D01*
X0248615Y0146616D01*
X0248788Y0146701D01*
X0248964Y0146781D01*
X0249142Y0146858D01*
X0249321Y0146929D01*
X0249502Y0146997D01*
X0249685Y0147060D01*
X0249869Y0147118D01*
X0250055Y0147172D01*
X0250242Y0147221D01*
X0250430Y0147266D01*
X0250619Y0147306D01*
X0250809Y0147341D01*
X0251000Y0147372D01*
X0251191Y0147398D01*
X0251383Y0147419D01*
X0251576Y0147436D01*
X0251769Y0147448D01*
X0251962Y0147455D01*
X0252155Y0147457D01*
X0252348Y0147455D01*
X0252541Y0147448D01*
X0252734Y0147436D01*
X0252927Y0147419D01*
X0253119Y0147398D01*
X0253310Y0147372D01*
X0253501Y0147341D01*
X0253691Y0147306D01*
X0253880Y0147266D01*
X0254068Y0147221D01*
X0254255Y0147172D01*
X0254441Y0147118D01*
X0254625Y0147060D01*
X0254808Y0146997D01*
X0254989Y0146929D01*
X0255168Y0146858D01*
X0255346Y0146781D01*
X0255522Y0146701D01*
X0255695Y0146616D01*
X0255867Y0146527D01*
X0256036Y0146434D01*
X0256203Y0146337D01*
X0256368Y0146235D01*
X0256530Y0146130D01*
X0256689Y0146021D01*
X0256846Y0145907D01*
X0256999Y0145790D01*
X0257150Y0145670D01*
X0257298Y0145545D01*
X0257443Y0145417D01*
X0257584Y0145286D01*
X0257723Y0145151D01*
X0257858Y0145012D01*
X0257989Y0144871D01*
X0258117Y0144726D01*
X0258242Y0144578D01*
X0258362Y0144427D01*
X0258479Y0144274D01*
X0258593Y0144117D01*
X0258702Y0143958D01*
X0258807Y0143796D01*
X0258909Y0143631D01*
X0259006Y0143464D01*
X0259099Y0143295D01*
X0259188Y0143123D01*
X0259273Y0142950D01*
X0259353Y0142774D01*
X0259430Y0142596D01*
X0259501Y0142417D01*
X0259569Y0142236D01*
X0259632Y0142053D01*
X0259690Y0141869D01*
X0259744Y0141683D01*
X0259793Y0141496D01*
X0259838Y0141308D01*
X0259878Y0141119D01*
X0259913Y0140929D01*
X0259944Y0140738D01*
X0259970Y0140547D01*
X0259991Y0140355D01*
X0260008Y0140162D01*
X0260020Y0139969D01*
X0260027Y0139776D01*
X0260029Y0139583D01*
X0260027Y0139390D01*
X0260020Y0139197D01*
X0260008Y0139004D01*
X0259991Y0138811D01*
X0259970Y0138619D01*
X0259944Y0138428D01*
X0259913Y0138237D01*
X0259878Y0138047D01*
X0259838Y0137858D01*
X0259793Y0137670D01*
X0259744Y0137483D01*
X0259690Y0137297D01*
X0259632Y0137113D01*
X0259569Y0136930D01*
X0259501Y0136749D01*
X0259430Y0136570D01*
X0259353Y0136392D01*
X0259273Y0136216D01*
X0259188Y0136043D01*
X0259099Y0135871D01*
X0259006Y0135702D01*
X0258909Y0135535D01*
X0258807Y0135370D01*
X0258702Y0135208D01*
X0258593Y0135049D01*
X0258479Y0134892D01*
X0258362Y0134739D01*
X0258242Y0134588D01*
X0258117Y0134440D01*
X0257989Y0134295D01*
X0257858Y0134154D01*
X0257723Y0134015D01*
X0257584Y0133880D01*
X0257443Y0133749D01*
X0257298Y0133621D01*
X0257150Y0133496D01*
X0256999Y0133376D01*
X0256846Y0133259D01*
X0256689Y0133145D01*
X0256530Y0133036D01*
X0256368Y0132931D01*
X0256203Y0132829D01*
X0256036Y0132732D01*
X0255867Y0132639D01*
X0255695Y0132550D01*
X0255522Y0132465D01*
X0255346Y0132385D01*
X0255168Y0132308D01*
X0254989Y0132237D01*
X0254808Y0132169D01*
X0254625Y0132106D01*
X0254441Y0132048D01*
X0254255Y0131994D01*
X0254068Y0131945D01*
X0253880Y0131900D01*
X0253691Y0131860D01*
X0253501Y0131825D01*
X0253310Y0131794D01*
X0253119Y0131768D01*
X0252927Y0131747D01*
X0252734Y0131730D01*
X0252541Y0131718D01*
X0252348Y0131711D01*
X0252155Y0131709D01*
X0251962Y0131711D01*
X0251769Y0131718D01*
X0251576Y0131730D01*
X0251383Y0131747D01*
X0251191Y0131768D01*
X0251000Y0131794D01*
X0250809Y0131825D01*
X0250619Y0131860D01*
X0250430Y0131900D01*
X0250242Y0131945D01*
X0250055Y0131994D01*
X0249869Y0132048D01*
X0249685Y0132106D01*
X0249502Y0132169D01*
X0249321Y0132237D01*
X0249142Y0132308D01*
X0248964Y0132385D01*
X0248788Y0132465D01*
X0248615Y0132550D01*
X0248443Y0132639D01*
X0248274Y0132732D01*
X0248107Y0132829D01*
X0247942Y0132931D01*
X0247780Y0133036D01*
X0247621Y0133145D01*
X0247464Y0133259D01*
X0247311Y0133376D01*
X0247160Y0133496D01*
X0247012Y0133621D01*
X0246867Y0133749D01*
X0246726Y0133880D01*
X0246587Y0134015D01*
X0246452Y0134154D01*
X0246321Y0134295D01*
X0246193Y0134440D01*
X0246068Y0134588D01*
X0245948Y0134739D01*
X0245831Y0134892D01*
X0245717Y0135049D01*
X0245608Y0135208D01*
X0245503Y0135370D01*
X0245401Y0135535D01*
X0245304Y0135702D01*
X0245211Y0135871D01*
X0245122Y0136043D01*
X0245037Y0136216D01*
X0244957Y0136392D01*
X0244880Y0136570D01*
X0244809Y0136749D01*
X0244741Y0136930D01*
X0244678Y0137113D01*
X0244620Y0137297D01*
X0244566Y0137483D01*
X0244517Y0137670D01*
X0244472Y0137858D01*
X0244432Y0138047D01*
X0244397Y0138237D01*
X0244366Y0138428D01*
X0244340Y0138619D01*
X0244319Y0138811D01*
X0244302Y0139004D01*
X0244290Y0139197D01*
X0244283Y0139390D01*
X0244281Y0139583D01*
X0235620Y0178953D02*
X0235622Y0179090D01*
X0235628Y0179228D01*
X0235638Y0179365D01*
X0235652Y0179501D01*
X0235670Y0179638D01*
X0235692Y0179773D01*
X0235718Y0179908D01*
X0235747Y0180042D01*
X0235781Y0180176D01*
X0235818Y0180308D01*
X0235860Y0180439D01*
X0235905Y0180569D01*
X0235954Y0180697D01*
X0236006Y0180824D01*
X0236063Y0180949D01*
X0236122Y0181073D01*
X0236186Y0181195D01*
X0236253Y0181315D01*
X0236323Y0181433D01*
X0236397Y0181549D01*
X0236474Y0181663D01*
X0236555Y0181774D01*
X0236638Y0181883D01*
X0236725Y0181990D01*
X0236815Y0182093D01*
X0236908Y0182195D01*
X0237004Y0182293D01*
X0237102Y0182389D01*
X0237204Y0182482D01*
X0237307Y0182572D01*
X0237414Y0182659D01*
X0237523Y0182742D01*
X0237634Y0182823D01*
X0237748Y0182900D01*
X0237864Y0182974D01*
X0237982Y0183044D01*
X0238102Y0183111D01*
X0238224Y0183175D01*
X0238348Y0183234D01*
X0238473Y0183291D01*
X0238600Y0183343D01*
X0238728Y0183392D01*
X0238858Y0183437D01*
X0238989Y0183479D01*
X0239121Y0183516D01*
X0239255Y0183550D01*
X0239389Y0183579D01*
X0239524Y0183605D01*
X0239659Y0183627D01*
X0239796Y0183645D01*
X0239932Y0183659D01*
X0240069Y0183669D01*
X0240207Y0183675D01*
X0240344Y0183677D01*
X0240481Y0183675D01*
X0240619Y0183669D01*
X0240756Y0183659D01*
X0240892Y0183645D01*
X0241029Y0183627D01*
X0241164Y0183605D01*
X0241299Y0183579D01*
X0241433Y0183550D01*
X0241567Y0183516D01*
X0241699Y0183479D01*
X0241830Y0183437D01*
X0241960Y0183392D01*
X0242088Y0183343D01*
X0242215Y0183291D01*
X0242340Y0183234D01*
X0242464Y0183175D01*
X0242586Y0183111D01*
X0242706Y0183044D01*
X0242824Y0182974D01*
X0242940Y0182900D01*
X0243054Y0182823D01*
X0243165Y0182742D01*
X0243274Y0182659D01*
X0243381Y0182572D01*
X0243484Y0182482D01*
X0243586Y0182389D01*
X0243684Y0182293D01*
X0243780Y0182195D01*
X0243873Y0182093D01*
X0243963Y0181990D01*
X0244050Y0181883D01*
X0244133Y0181774D01*
X0244214Y0181663D01*
X0244291Y0181549D01*
X0244365Y0181433D01*
X0244435Y0181315D01*
X0244502Y0181195D01*
X0244566Y0181073D01*
X0244625Y0180949D01*
X0244682Y0180824D01*
X0244734Y0180697D01*
X0244783Y0180569D01*
X0244828Y0180439D01*
X0244870Y0180308D01*
X0244907Y0180176D01*
X0244941Y0180042D01*
X0244970Y0179908D01*
X0244996Y0179773D01*
X0245018Y0179638D01*
X0245036Y0179501D01*
X0245050Y0179365D01*
X0245060Y0179228D01*
X0245066Y0179090D01*
X0245068Y0178953D01*
X0245066Y0178816D01*
X0245060Y0178678D01*
X0245050Y0178541D01*
X0245036Y0178405D01*
X0245018Y0178268D01*
X0244996Y0178133D01*
X0244970Y0177998D01*
X0244941Y0177864D01*
X0244907Y0177730D01*
X0244870Y0177598D01*
X0244828Y0177467D01*
X0244783Y0177337D01*
X0244734Y0177209D01*
X0244682Y0177082D01*
X0244625Y0176957D01*
X0244566Y0176833D01*
X0244502Y0176711D01*
X0244435Y0176591D01*
X0244365Y0176473D01*
X0244291Y0176357D01*
X0244214Y0176243D01*
X0244133Y0176132D01*
X0244050Y0176023D01*
X0243963Y0175916D01*
X0243873Y0175813D01*
X0243780Y0175711D01*
X0243684Y0175613D01*
X0243586Y0175517D01*
X0243484Y0175424D01*
X0243381Y0175334D01*
X0243274Y0175247D01*
X0243165Y0175164D01*
X0243054Y0175083D01*
X0242940Y0175006D01*
X0242824Y0174932D01*
X0242706Y0174862D01*
X0242586Y0174795D01*
X0242464Y0174731D01*
X0242340Y0174672D01*
X0242215Y0174615D01*
X0242088Y0174563D01*
X0241960Y0174514D01*
X0241830Y0174469D01*
X0241699Y0174427D01*
X0241567Y0174390D01*
X0241433Y0174356D01*
X0241299Y0174327D01*
X0241164Y0174301D01*
X0241029Y0174279D01*
X0240892Y0174261D01*
X0240756Y0174247D01*
X0240619Y0174237D01*
X0240481Y0174231D01*
X0240344Y0174229D01*
X0240207Y0174231D01*
X0240069Y0174237D01*
X0239932Y0174247D01*
X0239796Y0174261D01*
X0239659Y0174279D01*
X0239524Y0174301D01*
X0239389Y0174327D01*
X0239255Y0174356D01*
X0239121Y0174390D01*
X0238989Y0174427D01*
X0238858Y0174469D01*
X0238728Y0174514D01*
X0238600Y0174563D01*
X0238473Y0174615D01*
X0238348Y0174672D01*
X0238224Y0174731D01*
X0238102Y0174795D01*
X0237982Y0174862D01*
X0237864Y0174932D01*
X0237748Y0175006D01*
X0237634Y0175083D01*
X0237523Y0175164D01*
X0237414Y0175247D01*
X0237307Y0175334D01*
X0237204Y0175424D01*
X0237102Y0175517D01*
X0237004Y0175613D01*
X0236908Y0175711D01*
X0236815Y0175813D01*
X0236725Y0175916D01*
X0236638Y0176023D01*
X0236555Y0176132D01*
X0236474Y0176243D01*
X0236397Y0176357D01*
X0236323Y0176473D01*
X0236253Y0176591D01*
X0236186Y0176711D01*
X0236122Y0176833D01*
X0236063Y0176957D01*
X0236006Y0177082D01*
X0235954Y0177209D01*
X0235905Y0177337D01*
X0235860Y0177467D01*
X0235818Y0177598D01*
X0235781Y0177730D01*
X0235747Y0177864D01*
X0235718Y0177998D01*
X0235692Y0178133D01*
X0235670Y0178268D01*
X0235652Y0178405D01*
X0235638Y0178541D01*
X0235628Y0178678D01*
X0235622Y0178816D01*
X0235620Y0178953D01*
X0288769Y0130921D02*
X0288771Y0131058D01*
X0288777Y0131196D01*
X0288787Y0131333D01*
X0288801Y0131469D01*
X0288819Y0131606D01*
X0288841Y0131741D01*
X0288867Y0131876D01*
X0288896Y0132010D01*
X0288930Y0132144D01*
X0288967Y0132276D01*
X0289009Y0132407D01*
X0289054Y0132537D01*
X0289103Y0132665D01*
X0289155Y0132792D01*
X0289212Y0132917D01*
X0289271Y0133041D01*
X0289335Y0133163D01*
X0289402Y0133283D01*
X0289472Y0133401D01*
X0289546Y0133517D01*
X0289623Y0133631D01*
X0289704Y0133742D01*
X0289787Y0133851D01*
X0289874Y0133958D01*
X0289964Y0134061D01*
X0290057Y0134163D01*
X0290153Y0134261D01*
X0290251Y0134357D01*
X0290353Y0134450D01*
X0290456Y0134540D01*
X0290563Y0134627D01*
X0290672Y0134710D01*
X0290783Y0134791D01*
X0290897Y0134868D01*
X0291013Y0134942D01*
X0291131Y0135012D01*
X0291251Y0135079D01*
X0291373Y0135143D01*
X0291497Y0135202D01*
X0291622Y0135259D01*
X0291749Y0135311D01*
X0291877Y0135360D01*
X0292007Y0135405D01*
X0292138Y0135447D01*
X0292270Y0135484D01*
X0292404Y0135518D01*
X0292538Y0135547D01*
X0292673Y0135573D01*
X0292808Y0135595D01*
X0292945Y0135613D01*
X0293081Y0135627D01*
X0293218Y0135637D01*
X0293356Y0135643D01*
X0293493Y0135645D01*
X0293630Y0135643D01*
X0293768Y0135637D01*
X0293905Y0135627D01*
X0294041Y0135613D01*
X0294178Y0135595D01*
X0294313Y0135573D01*
X0294448Y0135547D01*
X0294582Y0135518D01*
X0294716Y0135484D01*
X0294848Y0135447D01*
X0294979Y0135405D01*
X0295109Y0135360D01*
X0295237Y0135311D01*
X0295364Y0135259D01*
X0295489Y0135202D01*
X0295613Y0135143D01*
X0295735Y0135079D01*
X0295855Y0135012D01*
X0295973Y0134942D01*
X0296089Y0134868D01*
X0296203Y0134791D01*
X0296314Y0134710D01*
X0296423Y0134627D01*
X0296530Y0134540D01*
X0296633Y0134450D01*
X0296735Y0134357D01*
X0296833Y0134261D01*
X0296929Y0134163D01*
X0297022Y0134061D01*
X0297112Y0133958D01*
X0297199Y0133851D01*
X0297282Y0133742D01*
X0297363Y0133631D01*
X0297440Y0133517D01*
X0297514Y0133401D01*
X0297584Y0133283D01*
X0297651Y0133163D01*
X0297715Y0133041D01*
X0297774Y0132917D01*
X0297831Y0132792D01*
X0297883Y0132665D01*
X0297932Y0132537D01*
X0297977Y0132407D01*
X0298019Y0132276D01*
X0298056Y0132144D01*
X0298090Y0132010D01*
X0298119Y0131876D01*
X0298145Y0131741D01*
X0298167Y0131606D01*
X0298185Y0131469D01*
X0298199Y0131333D01*
X0298209Y0131196D01*
X0298215Y0131058D01*
X0298217Y0130921D01*
X0298215Y0130784D01*
X0298209Y0130646D01*
X0298199Y0130509D01*
X0298185Y0130373D01*
X0298167Y0130236D01*
X0298145Y0130101D01*
X0298119Y0129966D01*
X0298090Y0129832D01*
X0298056Y0129698D01*
X0298019Y0129566D01*
X0297977Y0129435D01*
X0297932Y0129305D01*
X0297883Y0129177D01*
X0297831Y0129050D01*
X0297774Y0128925D01*
X0297715Y0128801D01*
X0297651Y0128679D01*
X0297584Y0128559D01*
X0297514Y0128441D01*
X0297440Y0128325D01*
X0297363Y0128211D01*
X0297282Y0128100D01*
X0297199Y0127991D01*
X0297112Y0127884D01*
X0297022Y0127781D01*
X0296929Y0127679D01*
X0296833Y0127581D01*
X0296735Y0127485D01*
X0296633Y0127392D01*
X0296530Y0127302D01*
X0296423Y0127215D01*
X0296314Y0127132D01*
X0296203Y0127051D01*
X0296089Y0126974D01*
X0295973Y0126900D01*
X0295855Y0126830D01*
X0295735Y0126763D01*
X0295613Y0126699D01*
X0295489Y0126640D01*
X0295364Y0126583D01*
X0295237Y0126531D01*
X0295109Y0126482D01*
X0294979Y0126437D01*
X0294848Y0126395D01*
X0294716Y0126358D01*
X0294582Y0126324D01*
X0294448Y0126295D01*
X0294313Y0126269D01*
X0294178Y0126247D01*
X0294041Y0126229D01*
X0293905Y0126215D01*
X0293768Y0126205D01*
X0293630Y0126199D01*
X0293493Y0126197D01*
X0293356Y0126199D01*
X0293218Y0126205D01*
X0293081Y0126215D01*
X0292945Y0126229D01*
X0292808Y0126247D01*
X0292673Y0126269D01*
X0292538Y0126295D01*
X0292404Y0126324D01*
X0292270Y0126358D01*
X0292138Y0126395D01*
X0292007Y0126437D01*
X0291877Y0126482D01*
X0291749Y0126531D01*
X0291622Y0126583D01*
X0291497Y0126640D01*
X0291373Y0126699D01*
X0291251Y0126763D01*
X0291131Y0126830D01*
X0291013Y0126900D01*
X0290897Y0126974D01*
X0290783Y0127051D01*
X0290672Y0127132D01*
X0290563Y0127215D01*
X0290456Y0127302D01*
X0290353Y0127392D01*
X0290251Y0127485D01*
X0290153Y0127581D01*
X0290057Y0127679D01*
X0289964Y0127781D01*
X0289874Y0127884D01*
X0289787Y0127991D01*
X0289704Y0128100D01*
X0289623Y0128211D01*
X0289546Y0128325D01*
X0289472Y0128441D01*
X0289402Y0128559D01*
X0289335Y0128679D01*
X0289271Y0128801D01*
X0289212Y0128925D01*
X0289155Y0129050D01*
X0289103Y0129177D01*
X0289054Y0129305D01*
X0289009Y0129435D01*
X0288967Y0129566D01*
X0288930Y0129698D01*
X0288896Y0129832D01*
X0288867Y0129966D01*
X0288841Y0130101D01*
X0288819Y0130236D01*
X0288801Y0130373D01*
X0288787Y0130509D01*
X0288777Y0130646D01*
X0288771Y0130784D01*
X0288769Y0130921D01*
X0286407Y0441551D02*
X0286409Y0441694D01*
X0286415Y0441837D01*
X0286425Y0441979D01*
X0286439Y0442121D01*
X0286457Y0442263D01*
X0286479Y0442405D01*
X0286504Y0442545D01*
X0286534Y0442685D01*
X0286568Y0442824D01*
X0286605Y0442962D01*
X0286647Y0443099D01*
X0286692Y0443234D01*
X0286741Y0443368D01*
X0286793Y0443501D01*
X0286849Y0443633D01*
X0286909Y0443762D01*
X0286973Y0443890D01*
X0287040Y0444017D01*
X0287111Y0444141D01*
X0287185Y0444263D01*
X0287262Y0444383D01*
X0287343Y0444501D01*
X0287427Y0444617D01*
X0287514Y0444730D01*
X0287604Y0444841D01*
X0287698Y0444949D01*
X0287794Y0445055D01*
X0287893Y0445157D01*
X0287996Y0445257D01*
X0288100Y0445354D01*
X0288208Y0445449D01*
X0288318Y0445540D01*
X0288431Y0445628D01*
X0288546Y0445712D01*
X0288663Y0445794D01*
X0288783Y0445872D01*
X0288904Y0445947D01*
X0289028Y0446019D01*
X0289154Y0446087D01*
X0289281Y0446151D01*
X0289411Y0446212D01*
X0289542Y0446269D01*
X0289674Y0446323D01*
X0289808Y0446372D01*
X0289943Y0446419D01*
X0290080Y0446461D01*
X0290218Y0446499D01*
X0290356Y0446534D01*
X0290496Y0446564D01*
X0290636Y0446591D01*
X0290777Y0446614D01*
X0290919Y0446633D01*
X0291061Y0446648D01*
X0291204Y0446659D01*
X0291346Y0446666D01*
X0291489Y0446669D01*
X0291632Y0446668D01*
X0291775Y0446663D01*
X0291918Y0446654D01*
X0292060Y0446641D01*
X0292202Y0446624D01*
X0292343Y0446603D01*
X0292484Y0446578D01*
X0292624Y0446550D01*
X0292763Y0446517D01*
X0292901Y0446480D01*
X0293038Y0446440D01*
X0293174Y0446396D01*
X0293309Y0446348D01*
X0293442Y0446296D01*
X0293574Y0446241D01*
X0293704Y0446182D01*
X0293833Y0446119D01*
X0293959Y0446053D01*
X0294084Y0445983D01*
X0294207Y0445910D01*
X0294327Y0445834D01*
X0294446Y0445754D01*
X0294562Y0445670D01*
X0294676Y0445584D01*
X0294787Y0445494D01*
X0294896Y0445402D01*
X0295002Y0445306D01*
X0295106Y0445208D01*
X0295207Y0445106D01*
X0295304Y0445002D01*
X0295399Y0444895D01*
X0295491Y0444786D01*
X0295580Y0444674D01*
X0295666Y0444559D01*
X0295748Y0444443D01*
X0295827Y0444323D01*
X0295903Y0444202D01*
X0295975Y0444079D01*
X0296044Y0443954D01*
X0296109Y0443827D01*
X0296171Y0443698D01*
X0296229Y0443567D01*
X0296284Y0443435D01*
X0296334Y0443301D01*
X0296381Y0443166D01*
X0296425Y0443030D01*
X0296464Y0442893D01*
X0296499Y0442754D01*
X0296531Y0442615D01*
X0296559Y0442475D01*
X0296583Y0442334D01*
X0296603Y0442192D01*
X0296619Y0442050D01*
X0296631Y0441908D01*
X0296639Y0441765D01*
X0296643Y0441622D01*
X0296643Y0441480D01*
X0296639Y0441337D01*
X0296631Y0441194D01*
X0296619Y0441052D01*
X0296603Y0440910D01*
X0296583Y0440768D01*
X0296559Y0440627D01*
X0296531Y0440487D01*
X0296499Y0440348D01*
X0296464Y0440209D01*
X0296425Y0440072D01*
X0296381Y0439936D01*
X0296334Y0439801D01*
X0296284Y0439667D01*
X0296229Y0439535D01*
X0296171Y0439404D01*
X0296109Y0439275D01*
X0296044Y0439148D01*
X0295975Y0439023D01*
X0295903Y0438900D01*
X0295827Y0438779D01*
X0295748Y0438659D01*
X0295666Y0438543D01*
X0295580Y0438428D01*
X0295491Y0438316D01*
X0295399Y0438207D01*
X0295304Y0438100D01*
X0295207Y0437996D01*
X0295106Y0437894D01*
X0295002Y0437796D01*
X0294896Y0437700D01*
X0294787Y0437608D01*
X0294676Y0437518D01*
X0294562Y0437432D01*
X0294446Y0437348D01*
X0294327Y0437268D01*
X0294207Y0437192D01*
X0294084Y0437119D01*
X0293959Y0437049D01*
X0293833Y0436983D01*
X0293704Y0436920D01*
X0293574Y0436861D01*
X0293442Y0436806D01*
X0293309Y0436754D01*
X0293174Y0436706D01*
X0293038Y0436662D01*
X0292901Y0436622D01*
X0292763Y0436585D01*
X0292624Y0436552D01*
X0292484Y0436524D01*
X0292343Y0436499D01*
X0292202Y0436478D01*
X0292060Y0436461D01*
X0291918Y0436448D01*
X0291775Y0436439D01*
X0291632Y0436434D01*
X0291489Y0436433D01*
X0291346Y0436436D01*
X0291204Y0436443D01*
X0291061Y0436454D01*
X0290919Y0436469D01*
X0290777Y0436488D01*
X0290636Y0436511D01*
X0290496Y0436538D01*
X0290356Y0436568D01*
X0290218Y0436603D01*
X0290080Y0436641D01*
X0289943Y0436683D01*
X0289808Y0436730D01*
X0289674Y0436779D01*
X0289542Y0436833D01*
X0289411Y0436890D01*
X0289281Y0436951D01*
X0289154Y0437015D01*
X0289028Y0437083D01*
X0288904Y0437155D01*
X0288783Y0437230D01*
X0288663Y0437308D01*
X0288546Y0437390D01*
X0288431Y0437474D01*
X0288318Y0437562D01*
X0288208Y0437653D01*
X0288100Y0437748D01*
X0287996Y0437845D01*
X0287893Y0437945D01*
X0287794Y0438047D01*
X0287698Y0438153D01*
X0287604Y0438261D01*
X0287514Y0438372D01*
X0287427Y0438485D01*
X0287343Y0438601D01*
X0287262Y0438719D01*
X0287185Y0438839D01*
X0287111Y0438961D01*
X0287040Y0439085D01*
X0286973Y0439212D01*
X0286909Y0439340D01*
X0286849Y0439469D01*
X0286793Y0439601D01*
X0286741Y0439734D01*
X0286692Y0439868D01*
X0286647Y0440003D01*
X0286605Y0440140D01*
X0286568Y0440278D01*
X0286534Y0440417D01*
X0286504Y0440557D01*
X0286479Y0440697D01*
X0286457Y0440839D01*
X0286439Y0440981D01*
X0286425Y0441123D01*
X0286415Y0441265D01*
X0286409Y0441408D01*
X0286407Y0441551D01*
D12*
X0103656Y0111573D02*
X0104023Y0111206D01*
X0104023Y0109738D01*
X0103656Y0109371D01*
X0102922Y0109371D01*
X0102555Y0109738D01*
X0101813Y0109371D02*
X0100346Y0109371D01*
X0101080Y0109371D02*
X0101080Y0111573D01*
X0101813Y0110839D01*
X0102555Y0111206D02*
X0102922Y0111573D01*
X0103656Y0111573D01*
X0103656Y0107973D02*
X0104023Y0107606D01*
X0104023Y0106138D01*
X0103656Y0105771D01*
X0102922Y0105771D01*
X0102555Y0106138D01*
X0101813Y0105771D02*
X0100346Y0107239D01*
X0100346Y0107606D01*
X0100713Y0107973D01*
X0101446Y0107973D01*
X0101813Y0107606D01*
X0102555Y0107606D02*
X0102922Y0107973D01*
X0103656Y0107973D01*
X0101813Y0105771D02*
X0100346Y0105771D01*
X0101080Y0104373D02*
X0101080Y0102171D01*
X0101813Y0102171D02*
X0100346Y0102171D01*
X0099604Y0102538D02*
X0098136Y0104006D01*
X0098136Y0102538D01*
X0098503Y0102171D01*
X0099237Y0102171D01*
X0099604Y0102538D01*
X0099604Y0104006D01*
X0099237Y0104373D01*
X0098503Y0104373D01*
X0098136Y0104006D01*
X0101080Y0104373D02*
X0101813Y0103639D01*
X0102555Y0104006D02*
X0102922Y0104373D01*
X0103656Y0104373D01*
X0104023Y0104006D01*
X0104023Y0102538D01*
X0103656Y0102171D01*
X0102922Y0102171D01*
X0102555Y0102538D01*
X0102922Y0100773D02*
X0103656Y0100773D01*
X0104023Y0100406D01*
X0104023Y0098938D01*
X0103656Y0098571D01*
X0102922Y0098571D01*
X0102555Y0098938D01*
X0101813Y0098571D02*
X0100346Y0098571D01*
X0101080Y0098571D02*
X0101080Y0100773D01*
X0101813Y0100039D01*
X0102555Y0100406D02*
X0102922Y0100773D01*
X0099604Y0100406D02*
X0099237Y0100773D01*
X0098503Y0100773D01*
X0098136Y0100406D01*
X0098136Y0100039D01*
X0099604Y0098571D01*
X0098136Y0098571D01*
X0100346Y0096806D02*
X0100346Y0096439D01*
X0100713Y0096072D01*
X0100346Y0095705D01*
X0100346Y0095338D01*
X0100713Y0094971D01*
X0101446Y0094971D01*
X0101813Y0095338D01*
X0102555Y0094971D02*
X0103289Y0095705D01*
X0102922Y0095705D02*
X0104023Y0095705D01*
X0104023Y0094971D02*
X0104023Y0097173D01*
X0102922Y0097173D01*
X0102555Y0096806D01*
X0102555Y0096072D01*
X0102922Y0095705D01*
X0101813Y0096806D02*
X0101446Y0097173D01*
X0100713Y0097173D01*
X0100346Y0096806D01*
X0100713Y0096072D02*
X0101080Y0096072D01*
X0100713Y0093573D02*
X0101813Y0092472D01*
X0100346Y0092472D01*
X0100713Y0091371D02*
X0100713Y0093573D01*
X0102555Y0093206D02*
X0102555Y0092472D01*
X0102922Y0092105D01*
X0104023Y0092105D01*
X0103289Y0092105D02*
X0102555Y0091371D01*
X0102922Y0089973D02*
X0102555Y0089606D01*
X0102555Y0088872D01*
X0102922Y0088505D01*
X0104023Y0088505D01*
X0103289Y0088505D02*
X0102555Y0087771D01*
X0101813Y0088138D02*
X0101446Y0087771D01*
X0100713Y0087771D01*
X0100346Y0088138D01*
X0100346Y0088872D01*
X0100713Y0089239D01*
X0101080Y0089239D01*
X0101813Y0088872D01*
X0101813Y0089973D01*
X0100346Y0089973D01*
X0102922Y0089973D02*
X0104023Y0089973D01*
X0104023Y0087771D01*
X0104023Y0086373D02*
X0104023Y0084538D01*
X0103656Y0084171D01*
X0102922Y0084171D01*
X0102555Y0084538D01*
X0102555Y0086373D01*
X0101813Y0085639D02*
X0101080Y0086373D01*
X0101080Y0084171D01*
X0101813Y0084171D02*
X0100346Y0084171D01*
X0104023Y0091371D02*
X0104023Y0093573D01*
X0102922Y0093573D01*
X0102555Y0093206D01*
X0089724Y0092839D02*
X0088990Y0093573D01*
X0088990Y0091371D01*
X0089724Y0091371D02*
X0088256Y0091371D01*
X0087514Y0091738D02*
X0087147Y0091371D01*
X0086413Y0091371D01*
X0086046Y0091738D01*
X0086046Y0092472D01*
X0086413Y0092839D01*
X0086780Y0092839D01*
X0087514Y0092472D01*
X0087514Y0093573D01*
X0086046Y0093573D01*
X0085304Y0093206D02*
X0084937Y0093573D01*
X0084203Y0093573D01*
X0083836Y0093206D01*
X0085304Y0091738D01*
X0084937Y0091371D01*
X0084203Y0091371D01*
X0083836Y0091738D01*
X0083836Y0093206D01*
X0083094Y0093206D02*
X0083094Y0091738D01*
X0082727Y0091371D01*
X0081993Y0091371D01*
X0081626Y0091738D01*
X0081626Y0093206D01*
X0081993Y0093573D01*
X0082727Y0093573D01*
X0083094Y0093206D01*
X0082727Y0094971D02*
X0081993Y0094971D01*
X0081626Y0095338D01*
X0081626Y0096806D01*
X0081993Y0097173D01*
X0082727Y0097173D01*
X0083094Y0096806D01*
X0083094Y0095338D01*
X0082727Y0094971D01*
X0083836Y0094971D02*
X0084937Y0096072D01*
X0085304Y0095705D02*
X0083836Y0097173D01*
X0085304Y0097173D02*
X0085304Y0094971D01*
X0086046Y0094971D02*
X0087514Y0094971D01*
X0086780Y0094971D02*
X0086780Y0097173D01*
X0087514Y0096439D01*
X0085304Y0093206D02*
X0085304Y0091738D01*
X0085304Y0089973D02*
X0085304Y0087771D01*
X0085304Y0088505D02*
X0083836Y0089973D01*
X0083094Y0089606D02*
X0083094Y0088138D01*
X0082727Y0087771D01*
X0081993Y0087771D01*
X0081626Y0088138D01*
X0081626Y0089606D01*
X0081993Y0089973D01*
X0082727Y0089973D01*
X0083094Y0089606D01*
X0083836Y0087771D02*
X0084937Y0088872D01*
X0086046Y0087771D02*
X0087514Y0087771D01*
X0086780Y0087771D02*
X0086780Y0089973D01*
X0087514Y0089239D01*
X0087514Y0086373D02*
X0086780Y0085639D01*
X0086046Y0086373D01*
X0086046Y0084171D01*
X0085304Y0085272D02*
X0083836Y0085272D01*
X0083094Y0085639D02*
X0083094Y0086006D01*
X0082727Y0086373D01*
X0081993Y0086373D01*
X0081626Y0086006D01*
X0081626Y0085639D01*
X0081993Y0085272D01*
X0082727Y0085272D01*
X0083094Y0085639D01*
X0082727Y0085272D02*
X0083094Y0084905D01*
X0083094Y0084538D01*
X0082727Y0084171D01*
X0081993Y0084171D01*
X0081626Y0084538D01*
X0081626Y0084905D01*
X0081993Y0085272D01*
X0080884Y0084538D02*
X0080884Y0084171D01*
X0080884Y0084538D02*
X0079416Y0086006D01*
X0079416Y0086373D01*
X0080884Y0086373D01*
X0080884Y0087771D02*
X0080884Y0089973D01*
X0080517Y0089239D02*
X0079783Y0089239D01*
X0079416Y0088872D01*
X0079416Y0087771D01*
X0078674Y0087771D02*
X0078674Y0089239D01*
X0078307Y0089239D01*
X0077940Y0088872D01*
X0077573Y0089239D01*
X0077206Y0088872D01*
X0077206Y0087771D01*
X0077940Y0087771D02*
X0077940Y0088872D01*
X0077940Y0091371D02*
X0077940Y0092472D01*
X0077573Y0092839D01*
X0077206Y0092472D01*
X0077206Y0091371D01*
X0077940Y0092472D02*
X0078307Y0092839D01*
X0078674Y0092839D01*
X0078674Y0091371D01*
X0079416Y0091371D02*
X0079416Y0092472D01*
X0079783Y0092839D01*
X0080517Y0092839D01*
X0080884Y0092472D01*
X0080884Y0093573D02*
X0080884Y0091371D01*
X0080517Y0089239D02*
X0080884Y0088872D01*
X0078674Y0086373D02*
X0078674Y0085272D01*
X0077940Y0085639D01*
X0077573Y0085639D01*
X0077206Y0085272D01*
X0077206Y0084538D01*
X0077573Y0084171D01*
X0078307Y0084171D01*
X0078674Y0084538D01*
X0078674Y0086373D02*
X0077206Y0086373D01*
X0077206Y0094971D02*
X0077206Y0096072D01*
X0077573Y0096439D01*
X0077940Y0096072D01*
X0077940Y0094971D01*
X0078674Y0094971D02*
X0078674Y0096439D01*
X0078307Y0096439D01*
X0077940Y0096072D01*
X0079416Y0096072D02*
X0079416Y0094971D01*
X0079416Y0096072D02*
X0079783Y0096439D01*
X0080517Y0096439D01*
X0080884Y0096072D01*
X0080884Y0097173D02*
X0080884Y0094971D01*
X0080517Y0098571D02*
X0079416Y0098571D01*
X0079416Y0100039D01*
X0078674Y0099672D02*
X0077940Y0099672D01*
X0078674Y0100773D02*
X0077206Y0100773D01*
X0078674Y0100773D02*
X0078674Y0098571D01*
X0080517Y0098571D02*
X0080884Y0098938D01*
X0080884Y0100039D01*
X0081626Y0098571D02*
X0083094Y0098571D01*
X0082360Y0098571D02*
X0082360Y0100773D01*
X0083094Y0100039D01*
X0083094Y0102171D02*
X0081626Y0102171D01*
X0082360Y0102171D02*
X0082360Y0104373D01*
X0083094Y0103639D01*
X0082727Y0105771D02*
X0083094Y0106138D01*
X0081626Y0107606D01*
X0081626Y0106138D01*
X0081993Y0105771D01*
X0082727Y0105771D01*
X0083094Y0106138D02*
X0083094Y0107606D01*
X0082727Y0107973D01*
X0081993Y0107973D01*
X0081626Y0107606D01*
X0080884Y0107239D02*
X0079783Y0107239D01*
X0079416Y0106872D01*
X0079416Y0105771D01*
X0078674Y0105771D02*
X0078674Y0107973D01*
X0077206Y0107973D01*
X0077940Y0106872D02*
X0078674Y0106872D01*
X0080884Y0107239D02*
X0080884Y0105771D01*
X0080884Y0103639D02*
X0080884Y0102538D01*
X0080517Y0102171D01*
X0079416Y0102171D01*
X0079416Y0103639D01*
X0078674Y0103272D02*
X0077940Y0103272D01*
X0078674Y0104373D02*
X0077206Y0104373D01*
X0078674Y0104373D02*
X0078674Y0102171D01*
X0078674Y0109371D02*
X0078674Y0111573D01*
X0077206Y0111573D01*
X0077940Y0110472D02*
X0078674Y0110472D01*
X0079416Y0110839D02*
X0079416Y0109371D01*
X0080517Y0109371D01*
X0080884Y0109738D01*
X0080884Y0110839D01*
X0081626Y0111206D02*
X0083094Y0109738D01*
X0082727Y0109371D01*
X0081993Y0109371D01*
X0081626Y0109738D01*
X0081626Y0111206D01*
X0081993Y0111573D01*
X0082727Y0111573D01*
X0083094Y0111206D01*
X0083094Y0109738D01*
X0083836Y0109738D02*
X0083836Y0111206D01*
X0085304Y0109738D01*
X0084937Y0109371D01*
X0084203Y0109371D01*
X0083836Y0109738D01*
X0083836Y0111206D02*
X0084203Y0111573D01*
X0084937Y0111573D01*
X0085304Y0111206D01*
X0085304Y0109738D01*
X0086046Y0109371D02*
X0087514Y0109371D01*
X0086780Y0109371D02*
X0086780Y0111573D01*
X0087514Y0110839D01*
X0087147Y0107973D02*
X0086413Y0107973D01*
X0086046Y0107606D01*
X0086046Y0107239D01*
X0087514Y0105771D01*
X0086046Y0105771D01*
X0085304Y0105771D02*
X0083836Y0107239D01*
X0083836Y0107606D01*
X0084203Y0107973D01*
X0084937Y0107973D01*
X0085304Y0107606D01*
X0085304Y0105771D02*
X0083836Y0105771D01*
X0087147Y0107973D02*
X0087514Y0107606D01*
X0087514Y0086373D02*
X0087514Y0084171D01*
X0088256Y0084171D02*
X0089724Y0084171D01*
X0089724Y0086373D01*
X0085304Y0085272D02*
X0084203Y0086373D01*
X0084203Y0084171D01*
X0082611Y0074562D02*
X0081510Y0074562D01*
X0081143Y0074195D01*
X0081143Y0073461D01*
X0081510Y0073094D01*
X0082611Y0073094D01*
X0081877Y0073094D02*
X0081143Y0072360D01*
X0080401Y0072727D02*
X0080034Y0072360D01*
X0079300Y0072360D01*
X0078933Y0072727D01*
X0078933Y0073094D01*
X0079300Y0073461D01*
X0079667Y0073461D01*
X0079300Y0073461D02*
X0078933Y0073828D01*
X0078933Y0074195D01*
X0079300Y0074562D01*
X0080034Y0074562D01*
X0080401Y0074195D01*
X0082611Y0074562D02*
X0082611Y0072360D01*
X0074737Y0072360D02*
X0074737Y0074562D01*
X0073636Y0074562D01*
X0073269Y0074195D01*
X0073269Y0073461D01*
X0073636Y0073094D01*
X0074737Y0073094D01*
X0074003Y0073094D02*
X0073269Y0072360D01*
X0072527Y0072727D02*
X0072160Y0072360D01*
X0071426Y0072360D01*
X0071059Y0072727D01*
X0071059Y0073461D01*
X0071426Y0073828D01*
X0071793Y0073828D01*
X0072527Y0073461D01*
X0072527Y0074562D01*
X0071059Y0074562D01*
X0075730Y0028855D02*
X0075730Y0026653D01*
X0076464Y0026653D02*
X0074996Y0026653D01*
X0076464Y0028121D02*
X0075730Y0028855D01*
X0077206Y0028855D02*
X0077206Y0027020D01*
X0077573Y0026653D01*
X0078307Y0026653D01*
X0078674Y0027020D01*
X0078674Y0028855D01*
X0112639Y0036094D02*
X0113006Y0035727D01*
X0113740Y0035727D01*
X0114107Y0036094D01*
X0112639Y0037562D01*
X0112639Y0036094D01*
X0112639Y0037562D02*
X0113006Y0037929D01*
X0113740Y0037929D01*
X0114107Y0037562D01*
X0114107Y0036094D01*
X0114849Y0035727D02*
X0116317Y0035727D01*
X0115583Y0035727D02*
X0115583Y0037929D01*
X0116317Y0037195D01*
X0117059Y0037562D02*
X0117426Y0037929D01*
X0118160Y0037929D01*
X0118527Y0037562D01*
X0118527Y0036094D01*
X0118160Y0035727D01*
X0117426Y0035727D01*
X0117059Y0036094D01*
X0116317Y0049506D02*
X0116317Y0051708D01*
X0115216Y0051708D01*
X0114849Y0051341D01*
X0114849Y0050607D01*
X0115216Y0050240D01*
X0116317Y0050240D01*
X0115583Y0050240D02*
X0114849Y0049506D01*
X0114107Y0050607D02*
X0112639Y0050607D01*
X0113006Y0049506D02*
X0113006Y0051708D01*
X0114107Y0050607D01*
X0114107Y0059349D02*
X0112639Y0059349D01*
X0113373Y0059349D02*
X0113373Y0061551D01*
X0114107Y0060817D01*
X0114849Y0061184D02*
X0115216Y0061551D01*
X0115950Y0061551D01*
X0116317Y0061184D01*
X0116317Y0059716D01*
X0115950Y0059349D01*
X0115216Y0059349D01*
X0114849Y0059716D01*
X0041031Y0049373D02*
X0041031Y0047905D01*
X0040664Y0047538D01*
X0039930Y0047538D01*
X0039563Y0047905D01*
X0038821Y0047538D02*
X0037353Y0049006D01*
X0037353Y0049373D01*
X0037720Y0049740D01*
X0038454Y0049740D01*
X0038821Y0049373D01*
X0039563Y0049373D02*
X0039930Y0049740D01*
X0040664Y0049740D01*
X0041031Y0049373D01*
X0038821Y0047538D02*
X0037353Y0047538D01*
X0038087Y0037929D02*
X0038087Y0035727D01*
X0038821Y0035727D02*
X0037353Y0035727D01*
X0036611Y0035727D02*
X0035144Y0037195D01*
X0035144Y0037562D01*
X0035511Y0037929D01*
X0036244Y0037929D01*
X0036611Y0037562D01*
X0038087Y0037929D02*
X0038821Y0037195D01*
X0039563Y0037562D02*
X0039930Y0037929D01*
X0040664Y0037929D01*
X0041031Y0037562D01*
X0041031Y0036094D01*
X0040664Y0035727D01*
X0039930Y0035727D01*
X0039563Y0036094D01*
X0036611Y0035727D02*
X0035144Y0035727D01*
D13*
X0072292Y0036482D02*
X0072294Y0036566D01*
X0072300Y0036649D01*
X0072310Y0036732D01*
X0072324Y0036815D01*
X0072341Y0036897D01*
X0072363Y0036978D01*
X0072388Y0037057D01*
X0072417Y0037136D01*
X0072450Y0037213D01*
X0072486Y0037288D01*
X0072526Y0037362D01*
X0072569Y0037434D01*
X0072616Y0037503D01*
X0072666Y0037570D01*
X0072719Y0037635D01*
X0072775Y0037697D01*
X0072833Y0037757D01*
X0072895Y0037814D01*
X0072959Y0037867D01*
X0073026Y0037918D01*
X0073095Y0037965D01*
X0073166Y0038010D01*
X0073239Y0038050D01*
X0073314Y0038087D01*
X0073391Y0038121D01*
X0073469Y0038151D01*
X0073548Y0038177D01*
X0073629Y0038200D01*
X0073711Y0038218D01*
X0073793Y0038233D01*
X0073876Y0038244D01*
X0073959Y0038251D01*
X0074043Y0038254D01*
X0074127Y0038253D01*
X0074210Y0038248D01*
X0074294Y0038239D01*
X0074376Y0038226D01*
X0074458Y0038210D01*
X0074539Y0038189D01*
X0074620Y0038165D01*
X0074698Y0038137D01*
X0074776Y0038105D01*
X0074852Y0038069D01*
X0074926Y0038030D01*
X0074998Y0037988D01*
X0075068Y0037942D01*
X0075136Y0037893D01*
X0075201Y0037841D01*
X0075264Y0037786D01*
X0075324Y0037728D01*
X0075382Y0037667D01*
X0075436Y0037603D01*
X0075488Y0037537D01*
X0075536Y0037469D01*
X0075581Y0037398D01*
X0075622Y0037325D01*
X0075661Y0037251D01*
X0075695Y0037175D01*
X0075726Y0037097D01*
X0075753Y0037018D01*
X0075777Y0036937D01*
X0075796Y0036856D01*
X0075812Y0036774D01*
X0075824Y0036691D01*
X0075832Y0036607D01*
X0075836Y0036524D01*
X0075836Y0036440D01*
X0075832Y0036357D01*
X0075824Y0036273D01*
X0075812Y0036190D01*
X0075796Y0036108D01*
X0075777Y0036027D01*
X0075753Y0035946D01*
X0075726Y0035867D01*
X0075695Y0035789D01*
X0075661Y0035713D01*
X0075622Y0035639D01*
X0075581Y0035566D01*
X0075536Y0035495D01*
X0075488Y0035427D01*
X0075436Y0035361D01*
X0075382Y0035297D01*
X0075324Y0035236D01*
X0075264Y0035178D01*
X0075201Y0035123D01*
X0075136Y0035071D01*
X0075068Y0035022D01*
X0074998Y0034976D01*
X0074926Y0034934D01*
X0074852Y0034895D01*
X0074776Y0034859D01*
X0074698Y0034827D01*
X0074620Y0034799D01*
X0074539Y0034775D01*
X0074458Y0034754D01*
X0074376Y0034738D01*
X0074294Y0034725D01*
X0074210Y0034716D01*
X0074127Y0034711D01*
X0074043Y0034710D01*
X0073959Y0034713D01*
X0073876Y0034720D01*
X0073793Y0034731D01*
X0073711Y0034746D01*
X0073629Y0034764D01*
X0073548Y0034787D01*
X0073469Y0034813D01*
X0073391Y0034843D01*
X0073314Y0034877D01*
X0073239Y0034914D01*
X0073166Y0034954D01*
X0073095Y0034999D01*
X0073026Y0035046D01*
X0072959Y0035097D01*
X0072895Y0035150D01*
X0072833Y0035207D01*
X0072775Y0035267D01*
X0072719Y0035329D01*
X0072666Y0035394D01*
X0072616Y0035461D01*
X0072569Y0035530D01*
X0072526Y0035602D01*
X0072486Y0035676D01*
X0072450Y0035751D01*
X0072417Y0035828D01*
X0072388Y0035907D01*
X0072363Y0035986D01*
X0072341Y0036067D01*
X0072324Y0036149D01*
X0072310Y0036232D01*
X0072300Y0036315D01*
X0072294Y0036398D01*
X0072292Y0036482D01*
X0211631Y0043879D02*
X0211631Y0044196D01*
X0211948Y0044513D01*
X0213532Y0044513D01*
X0213532Y0044196D02*
X0213532Y0044830D01*
X0213216Y0045772D02*
X0213532Y0046089D01*
X0213532Y0046723D01*
X0213216Y0047040D01*
X0212899Y0047040D01*
X0211631Y0045772D01*
X0211631Y0047040D01*
X0211631Y0043879D02*
X0211948Y0043563D01*
X0066722Y0290961D02*
X0056879Y0290961D01*
X0056879Y0334268D01*
X0066722Y0334268D01*
X0066722Y0290961D01*
X0058848Y0304543D02*
X0075186Y0304543D01*
X0074202Y0302575D01*
X0105698Y0302575D01*
X0104714Y0304543D01*
X0124793Y0304543D01*
X0123808Y0302575D01*
X0155304Y0302575D01*
X0154320Y0304543D01*
X0246446Y0304543D01*
X0245462Y0302575D01*
X0276958Y0302575D01*
X0275974Y0304543D01*
X0291131Y0304543D01*
X0291416Y0304546D01*
X0291702Y0304557D01*
X0291987Y0304574D01*
X0292271Y0304598D01*
X0292555Y0304629D01*
X0292838Y0304667D01*
X0293119Y0304712D01*
X0293400Y0304763D01*
X0293680Y0304821D01*
X0293958Y0304886D01*
X0294234Y0304958D01*
X0294508Y0305036D01*
X0294781Y0305121D01*
X0295051Y0305213D01*
X0295319Y0305311D01*
X0295585Y0305415D01*
X0295848Y0305526D01*
X0296108Y0305643D01*
X0296366Y0305766D01*
X0296620Y0305896D01*
X0296871Y0306032D01*
X0297119Y0306173D01*
X0297363Y0306321D01*
X0297604Y0306474D01*
X0297840Y0306634D01*
X0298073Y0306799D01*
X0298302Y0306969D01*
X0298527Y0307145D01*
X0298747Y0307327D01*
X0298963Y0307513D01*
X0299174Y0307705D01*
X0299381Y0307902D01*
X0299583Y0308104D01*
X0299780Y0308311D01*
X0299972Y0308522D01*
X0300158Y0308738D01*
X0300340Y0308958D01*
X0300516Y0309183D01*
X0300686Y0309412D01*
X0300851Y0309645D01*
X0301011Y0309881D01*
X0301164Y0310122D01*
X0301312Y0310366D01*
X0301453Y0310614D01*
X0301589Y0310865D01*
X0301719Y0311119D01*
X0301842Y0311377D01*
X0301959Y0311637D01*
X0302070Y0311900D01*
X0302174Y0312166D01*
X0302272Y0312434D01*
X0302364Y0312704D01*
X0302449Y0312977D01*
X0302527Y0313251D01*
X0302599Y0313527D01*
X0302664Y0313805D01*
X0302722Y0314085D01*
X0302773Y0314366D01*
X0302818Y0314647D01*
X0302856Y0314930D01*
X0302887Y0315214D01*
X0302911Y0315498D01*
X0302928Y0315783D01*
X0302939Y0316069D01*
X0302942Y0316354D01*
X0302942Y0410843D01*
X0302939Y0411128D01*
X0302928Y0411414D01*
X0302911Y0411699D01*
X0302887Y0411983D01*
X0302856Y0412267D01*
X0302818Y0412550D01*
X0302773Y0412831D01*
X0302722Y0413112D01*
X0302664Y0413392D01*
X0302599Y0413670D01*
X0302527Y0413946D01*
X0302449Y0414220D01*
X0302364Y0414493D01*
X0302272Y0414763D01*
X0302174Y0415031D01*
X0302070Y0415297D01*
X0301959Y0415560D01*
X0301842Y0415820D01*
X0301719Y0416078D01*
X0301589Y0416332D01*
X0301453Y0416583D01*
X0301312Y0416831D01*
X0301164Y0417075D01*
X0301011Y0417316D01*
X0300851Y0417552D01*
X0300686Y0417785D01*
X0300516Y0418014D01*
X0300340Y0418239D01*
X0300158Y0418459D01*
X0299972Y0418675D01*
X0299780Y0418886D01*
X0299583Y0419093D01*
X0299381Y0419295D01*
X0299174Y0419492D01*
X0298963Y0419684D01*
X0298747Y0419870D01*
X0298527Y0420052D01*
X0298302Y0420228D01*
X0298073Y0420398D01*
X0297840Y0420563D01*
X0297604Y0420723D01*
X0297363Y0420876D01*
X0297119Y0421024D01*
X0296871Y0421165D01*
X0296620Y0421301D01*
X0296366Y0421431D01*
X0296108Y0421554D01*
X0295848Y0421671D01*
X0295585Y0421782D01*
X0295319Y0421886D01*
X0295051Y0421984D01*
X0294781Y0422076D01*
X0294508Y0422161D01*
X0294234Y0422239D01*
X0293958Y0422311D01*
X0293680Y0422376D01*
X0293400Y0422434D01*
X0293119Y0422485D01*
X0292838Y0422530D01*
X0292555Y0422568D01*
X0292271Y0422599D01*
X0291987Y0422623D01*
X0291702Y0422640D01*
X0291416Y0422651D01*
X0291131Y0422654D01*
X0058848Y0422654D01*
X0058563Y0422651D01*
X0058277Y0422640D01*
X0057992Y0422623D01*
X0057708Y0422599D01*
X0057424Y0422568D01*
X0057141Y0422530D01*
X0056860Y0422485D01*
X0056579Y0422434D01*
X0056299Y0422376D01*
X0056021Y0422311D01*
X0055745Y0422239D01*
X0055471Y0422161D01*
X0055198Y0422076D01*
X0054928Y0421984D01*
X0054660Y0421886D01*
X0054394Y0421782D01*
X0054131Y0421671D01*
X0053871Y0421554D01*
X0053613Y0421431D01*
X0053359Y0421301D01*
X0053108Y0421165D01*
X0052860Y0421024D01*
X0052616Y0420876D01*
X0052375Y0420723D01*
X0052139Y0420563D01*
X0051906Y0420398D01*
X0051677Y0420228D01*
X0051452Y0420052D01*
X0051232Y0419870D01*
X0051016Y0419684D01*
X0050805Y0419492D01*
X0050598Y0419295D01*
X0050396Y0419093D01*
X0050199Y0418886D01*
X0050007Y0418675D01*
X0049821Y0418459D01*
X0049639Y0418239D01*
X0049463Y0418014D01*
X0049293Y0417785D01*
X0049128Y0417552D01*
X0048968Y0417316D01*
X0048815Y0417075D01*
X0048667Y0416831D01*
X0048526Y0416583D01*
X0048390Y0416332D01*
X0048260Y0416078D01*
X0048137Y0415820D01*
X0048020Y0415560D01*
X0047909Y0415297D01*
X0047805Y0415031D01*
X0047707Y0414763D01*
X0047615Y0414493D01*
X0047530Y0414220D01*
X0047452Y0413946D01*
X0047380Y0413670D01*
X0047315Y0413392D01*
X0047257Y0413112D01*
X0047206Y0412831D01*
X0047161Y0412550D01*
X0047123Y0412267D01*
X0047092Y0411983D01*
X0047068Y0411699D01*
X0047051Y0411414D01*
X0047040Y0411128D01*
X0047037Y0410843D01*
X0047037Y0316354D01*
X0039162Y0312614D02*
X0039164Y0312702D01*
X0039170Y0312790D01*
X0039180Y0312878D01*
X0039194Y0312966D01*
X0039211Y0313052D01*
X0039233Y0313138D01*
X0039258Y0313222D01*
X0039288Y0313306D01*
X0039320Y0313388D01*
X0039357Y0313468D01*
X0039397Y0313547D01*
X0039441Y0313624D01*
X0039488Y0313699D01*
X0039538Y0313771D01*
X0039592Y0313842D01*
X0039648Y0313909D01*
X0039708Y0313975D01*
X0039770Y0314037D01*
X0039836Y0314097D01*
X0039903Y0314153D01*
X0039974Y0314207D01*
X0040046Y0314257D01*
X0040121Y0314304D01*
X0040198Y0314348D01*
X0040277Y0314388D01*
X0040357Y0314425D01*
X0040439Y0314457D01*
X0040523Y0314487D01*
X0040607Y0314512D01*
X0040693Y0314534D01*
X0040779Y0314551D01*
X0040867Y0314565D01*
X0040955Y0314575D01*
X0041043Y0314581D01*
X0041131Y0314583D01*
X0041219Y0314581D01*
X0041307Y0314575D01*
X0041395Y0314565D01*
X0041483Y0314551D01*
X0041569Y0314534D01*
X0041655Y0314512D01*
X0041739Y0314487D01*
X0041823Y0314457D01*
X0041905Y0314425D01*
X0041985Y0314388D01*
X0042064Y0314348D01*
X0042141Y0314304D01*
X0042216Y0314257D01*
X0042288Y0314207D01*
X0042359Y0314153D01*
X0042426Y0314097D01*
X0042492Y0314037D01*
X0042554Y0313975D01*
X0042614Y0313909D01*
X0042670Y0313842D01*
X0042724Y0313771D01*
X0042774Y0313699D01*
X0042821Y0313624D01*
X0042865Y0313547D01*
X0042905Y0313468D01*
X0042942Y0313388D01*
X0042974Y0313306D01*
X0043004Y0313222D01*
X0043029Y0313138D01*
X0043051Y0313052D01*
X0043068Y0312966D01*
X0043082Y0312878D01*
X0043092Y0312790D01*
X0043098Y0312702D01*
X0043100Y0312614D01*
X0043098Y0312526D01*
X0043092Y0312438D01*
X0043082Y0312350D01*
X0043068Y0312262D01*
X0043051Y0312176D01*
X0043029Y0312090D01*
X0043004Y0312006D01*
X0042974Y0311922D01*
X0042942Y0311840D01*
X0042905Y0311760D01*
X0042865Y0311681D01*
X0042821Y0311604D01*
X0042774Y0311529D01*
X0042724Y0311457D01*
X0042670Y0311386D01*
X0042614Y0311319D01*
X0042554Y0311253D01*
X0042492Y0311191D01*
X0042426Y0311131D01*
X0042359Y0311075D01*
X0042288Y0311021D01*
X0042216Y0310971D01*
X0042141Y0310924D01*
X0042064Y0310880D01*
X0041985Y0310840D01*
X0041905Y0310803D01*
X0041823Y0310771D01*
X0041739Y0310741D01*
X0041655Y0310716D01*
X0041569Y0310694D01*
X0041483Y0310677D01*
X0041395Y0310663D01*
X0041307Y0310653D01*
X0041219Y0310647D01*
X0041131Y0310645D01*
X0041043Y0310647D01*
X0040955Y0310653D01*
X0040867Y0310663D01*
X0040779Y0310677D01*
X0040693Y0310694D01*
X0040607Y0310716D01*
X0040523Y0310741D01*
X0040439Y0310771D01*
X0040357Y0310803D01*
X0040277Y0310840D01*
X0040198Y0310880D01*
X0040121Y0310924D01*
X0040046Y0310971D01*
X0039974Y0311021D01*
X0039903Y0311075D01*
X0039836Y0311131D01*
X0039770Y0311191D01*
X0039708Y0311253D01*
X0039648Y0311319D01*
X0039592Y0311386D01*
X0039538Y0311457D01*
X0039488Y0311529D01*
X0039441Y0311604D01*
X0039397Y0311681D01*
X0039357Y0311760D01*
X0039320Y0311840D01*
X0039288Y0311922D01*
X0039258Y0312006D01*
X0039233Y0312090D01*
X0039211Y0312176D01*
X0039194Y0312262D01*
X0039180Y0312350D01*
X0039170Y0312438D01*
X0039164Y0312526D01*
X0039162Y0312614D01*
X0013769Y0312614D02*
X0013777Y0313285D01*
X0013802Y0313957D01*
X0013843Y0314627D01*
X0013901Y0315296D01*
X0013975Y0315963D01*
X0014065Y0316629D01*
X0014172Y0317292D01*
X0014295Y0317952D01*
X0014434Y0318609D01*
X0014589Y0319262D01*
X0014760Y0319912D01*
X0014947Y0320557D01*
X0015150Y0321197D01*
X0015368Y0321832D01*
X0015602Y0322461D01*
X0015852Y0323085D01*
X0016116Y0323702D01*
X0016396Y0324313D01*
X0016691Y0324916D01*
X0017000Y0325512D01*
X0017324Y0326101D01*
X0017662Y0326681D01*
X0018014Y0327253D01*
X0018380Y0327816D01*
X0018760Y0328369D01*
X0019154Y0328914D01*
X0019560Y0329448D01*
X0019980Y0329972D01*
X0020412Y0330486D01*
X0020857Y0330989D01*
X0021314Y0331481D01*
X0021783Y0331962D01*
X0022264Y0332431D01*
X0022756Y0332888D01*
X0023259Y0333333D01*
X0023773Y0333765D01*
X0024297Y0334185D01*
X0024831Y0334591D01*
X0025376Y0334985D01*
X0025929Y0335365D01*
X0026492Y0335731D01*
X0027064Y0336083D01*
X0027644Y0336421D01*
X0028233Y0336745D01*
X0028829Y0337054D01*
X0029432Y0337349D01*
X0030043Y0337629D01*
X0030660Y0337893D01*
X0031284Y0338143D01*
X0031913Y0338377D01*
X0032548Y0338595D01*
X0033188Y0338798D01*
X0033833Y0338985D01*
X0034483Y0339156D01*
X0035136Y0339311D01*
X0035793Y0339450D01*
X0036453Y0339573D01*
X0037116Y0339680D01*
X0037782Y0339770D01*
X0038449Y0339844D01*
X0039118Y0339902D01*
X0039788Y0339943D01*
X0040460Y0339968D01*
X0041131Y0339976D01*
X0041802Y0339968D01*
X0042474Y0339943D01*
X0043144Y0339902D01*
X0043813Y0339844D01*
X0044480Y0339770D01*
X0045146Y0339680D01*
X0045809Y0339573D01*
X0046469Y0339450D01*
X0047126Y0339311D01*
X0047779Y0339156D01*
X0048429Y0338985D01*
X0049074Y0338798D01*
X0049714Y0338595D01*
X0050349Y0338377D01*
X0050978Y0338143D01*
X0051602Y0337893D01*
X0052219Y0337629D01*
X0052830Y0337349D01*
X0053433Y0337054D01*
X0054029Y0336745D01*
X0054618Y0336421D01*
X0055198Y0336083D01*
X0055770Y0335731D01*
X0056333Y0335365D01*
X0056886Y0334985D01*
X0057431Y0334591D01*
X0057965Y0334185D01*
X0058489Y0333765D01*
X0059003Y0333333D01*
X0059506Y0332888D01*
X0059998Y0332431D01*
X0060479Y0331962D01*
X0060948Y0331481D01*
X0061405Y0330989D01*
X0061850Y0330486D01*
X0062282Y0329972D01*
X0062702Y0329448D01*
X0063108Y0328914D01*
X0063502Y0328369D01*
X0063882Y0327816D01*
X0064248Y0327253D01*
X0064600Y0326681D01*
X0064938Y0326101D01*
X0065262Y0325512D01*
X0065571Y0324916D01*
X0065866Y0324313D01*
X0066146Y0323702D01*
X0066410Y0323085D01*
X0066660Y0322461D01*
X0066894Y0321832D01*
X0067112Y0321197D01*
X0067315Y0320557D01*
X0067502Y0319912D01*
X0067673Y0319262D01*
X0067828Y0318609D01*
X0067967Y0317952D01*
X0068090Y0317292D01*
X0068197Y0316629D01*
X0068287Y0315963D01*
X0068361Y0315296D01*
X0068419Y0314627D01*
X0068460Y0313957D01*
X0068485Y0313285D01*
X0068493Y0312614D01*
X0068485Y0311943D01*
X0068460Y0311271D01*
X0068419Y0310601D01*
X0068361Y0309932D01*
X0068287Y0309265D01*
X0068197Y0308599D01*
X0068090Y0307936D01*
X0067967Y0307276D01*
X0067828Y0306619D01*
X0067673Y0305966D01*
X0067502Y0305316D01*
X0067315Y0304671D01*
X0067112Y0304031D01*
X0066894Y0303396D01*
X0066660Y0302767D01*
X0066410Y0302143D01*
X0066146Y0301526D01*
X0065866Y0300915D01*
X0065571Y0300312D01*
X0065262Y0299716D01*
X0064938Y0299127D01*
X0064600Y0298547D01*
X0064248Y0297975D01*
X0063882Y0297412D01*
X0063502Y0296859D01*
X0063108Y0296314D01*
X0062702Y0295780D01*
X0062282Y0295256D01*
X0061850Y0294742D01*
X0061405Y0294239D01*
X0060948Y0293747D01*
X0060479Y0293266D01*
X0059998Y0292797D01*
X0059506Y0292340D01*
X0059003Y0291895D01*
X0058489Y0291463D01*
X0057965Y0291043D01*
X0057431Y0290637D01*
X0056886Y0290243D01*
X0056333Y0289863D01*
X0055770Y0289497D01*
X0055198Y0289145D01*
X0054618Y0288807D01*
X0054029Y0288483D01*
X0053433Y0288174D01*
X0052830Y0287879D01*
X0052219Y0287599D01*
X0051602Y0287335D01*
X0050978Y0287085D01*
X0050349Y0286851D01*
X0049714Y0286633D01*
X0049074Y0286430D01*
X0048429Y0286243D01*
X0047779Y0286072D01*
X0047126Y0285917D01*
X0046469Y0285778D01*
X0045809Y0285655D01*
X0045146Y0285548D01*
X0044480Y0285458D01*
X0043813Y0285384D01*
X0043144Y0285326D01*
X0042474Y0285285D01*
X0041802Y0285260D01*
X0041131Y0285252D01*
X0040460Y0285260D01*
X0039788Y0285285D01*
X0039118Y0285326D01*
X0038449Y0285384D01*
X0037782Y0285458D01*
X0037116Y0285548D01*
X0036453Y0285655D01*
X0035793Y0285778D01*
X0035136Y0285917D01*
X0034483Y0286072D01*
X0033833Y0286243D01*
X0033188Y0286430D01*
X0032548Y0286633D01*
X0031913Y0286851D01*
X0031284Y0287085D01*
X0030660Y0287335D01*
X0030043Y0287599D01*
X0029432Y0287879D01*
X0028829Y0288174D01*
X0028233Y0288483D01*
X0027644Y0288807D01*
X0027064Y0289145D01*
X0026492Y0289497D01*
X0025929Y0289863D01*
X0025376Y0290243D01*
X0024831Y0290637D01*
X0024297Y0291043D01*
X0023773Y0291463D01*
X0023259Y0291895D01*
X0022756Y0292340D01*
X0022264Y0292797D01*
X0021783Y0293266D01*
X0021314Y0293747D01*
X0020857Y0294239D01*
X0020412Y0294742D01*
X0019980Y0295256D01*
X0019560Y0295780D01*
X0019154Y0296314D01*
X0018760Y0296859D01*
X0018380Y0297412D01*
X0018014Y0297975D01*
X0017662Y0298547D01*
X0017324Y0299127D01*
X0017000Y0299716D01*
X0016691Y0300312D01*
X0016396Y0300915D01*
X0016116Y0301526D01*
X0015852Y0302143D01*
X0015602Y0302767D01*
X0015368Y0303396D01*
X0015150Y0304031D01*
X0014947Y0304671D01*
X0014760Y0305316D01*
X0014589Y0305966D01*
X0014434Y0306619D01*
X0014295Y0307276D01*
X0014172Y0307936D01*
X0014065Y0308599D01*
X0013975Y0309265D01*
X0013901Y0309932D01*
X0013843Y0310601D01*
X0013802Y0311271D01*
X0013777Y0311943D01*
X0013769Y0312614D01*
X0033203Y0350035D02*
X0033203Y0351937D01*
X0034154Y0350986D01*
X0032886Y0350986D01*
X0035096Y0351937D02*
X0035730Y0351937D01*
X0035413Y0351937D02*
X0035413Y0350352D01*
X0035730Y0350035D01*
X0036047Y0350035D01*
X0036364Y0350352D01*
X0047037Y0316354D02*
X0047040Y0316069D01*
X0047051Y0315783D01*
X0047068Y0315498D01*
X0047092Y0315214D01*
X0047123Y0314930D01*
X0047161Y0314647D01*
X0047206Y0314366D01*
X0047257Y0314085D01*
X0047315Y0313805D01*
X0047380Y0313527D01*
X0047452Y0313251D01*
X0047530Y0312977D01*
X0047615Y0312704D01*
X0047707Y0312434D01*
X0047805Y0312166D01*
X0047909Y0311900D01*
X0048020Y0311637D01*
X0048137Y0311377D01*
X0048260Y0311119D01*
X0048390Y0310865D01*
X0048526Y0310614D01*
X0048667Y0310366D01*
X0048815Y0310122D01*
X0048968Y0309881D01*
X0049128Y0309645D01*
X0049293Y0309412D01*
X0049463Y0309183D01*
X0049639Y0308958D01*
X0049821Y0308738D01*
X0050007Y0308522D01*
X0050199Y0308311D01*
X0050396Y0308104D01*
X0050598Y0307902D01*
X0050805Y0307705D01*
X0051016Y0307513D01*
X0051232Y0307327D01*
X0051452Y0307145D01*
X0051677Y0306969D01*
X0051906Y0306799D01*
X0052139Y0306634D01*
X0052375Y0306474D01*
X0052616Y0306321D01*
X0052860Y0306173D01*
X0053108Y0306032D01*
X0053359Y0305896D01*
X0053613Y0305766D01*
X0053871Y0305643D01*
X0054131Y0305526D01*
X0054394Y0305415D01*
X0054660Y0305311D01*
X0054928Y0305213D01*
X0055198Y0305121D01*
X0055471Y0305036D01*
X0055745Y0304958D01*
X0056021Y0304886D01*
X0056299Y0304821D01*
X0056579Y0304763D01*
X0056860Y0304712D01*
X0057141Y0304667D01*
X0057424Y0304629D01*
X0057708Y0304598D01*
X0057992Y0304574D01*
X0058277Y0304557D01*
X0058563Y0304546D01*
X0058848Y0304543D01*
X0074989Y0398874D02*
X0074989Y0418874D01*
X0274989Y0418874D01*
X0274989Y0408874D01*
X0264989Y0408874D01*
X0264989Y0398874D01*
X0074989Y0398874D01*
X0264989Y0398874D02*
X0268739Y0398874D01*
X0268739Y0397624D01*
X0271239Y0397624D01*
X0271239Y0398874D01*
X0268739Y0398874D01*
X0271239Y0398874D02*
X0274989Y0398874D01*
X0274989Y0408874D01*
D14*
X0269838Y0396427D02*
X0269838Y0392824D01*
X0271039Y0392824D02*
X0268637Y0392824D01*
X0271039Y0395226D02*
X0269838Y0396427D01*
X0095856Y0246241D02*
X0094322Y0244706D01*
X0095089Y0243172D02*
X0093554Y0243172D01*
X0092787Y0242404D01*
X0092787Y0240102D01*
X0091252Y0240102D02*
X0095856Y0240102D01*
X0095856Y0242404D01*
X0095089Y0243172D01*
X0092787Y0241637D02*
X0091252Y0243172D01*
X0091252Y0244706D02*
X0091252Y0247776D01*
X0091252Y0246241D02*
X0095856Y0246241D01*
X0095856Y0238568D02*
X0095856Y0235498D01*
X0091252Y0235498D01*
X0091252Y0238568D01*
X0093554Y0237033D02*
X0093554Y0235498D01*
X0091252Y0233964D02*
X0095856Y0233964D01*
X0095856Y0230894D02*
X0091252Y0230894D01*
X0092787Y0232429D01*
X0091252Y0233964D01*
X0092020Y0229360D02*
X0095089Y0229360D01*
X0095856Y0228593D01*
X0095856Y0227058D01*
X0095089Y0226291D01*
X0092020Y0226291D01*
X0091252Y0227058D01*
X0091252Y0228593D01*
X0092020Y0229360D01*
X0093554Y0224756D02*
X0092787Y0223989D01*
X0092787Y0221687D01*
X0091252Y0221687D02*
X0095856Y0221687D01*
X0095856Y0223989D01*
X0095089Y0224756D01*
X0093554Y0224756D01*
X0007471Y0279317D02*
X0007471Y0281619D01*
X0006703Y0282387D01*
X0005169Y0282387D01*
X0004401Y0281619D01*
X0004401Y0279317D01*
X0002867Y0279317D02*
X0007471Y0279317D01*
X0004401Y0280852D02*
X0002867Y0282387D01*
X0002867Y0283921D02*
X0002867Y0286991D01*
X0002867Y0285456D02*
X0007471Y0285456D01*
X0005936Y0283921D01*
X0006703Y0288525D02*
X0003634Y0288525D01*
X0006703Y0291594D01*
X0003634Y0291594D01*
X0002867Y0290827D01*
X0002867Y0289292D01*
X0003634Y0288525D01*
X0006703Y0288525D02*
X0007471Y0289292D01*
X0007471Y0290827D01*
X0006703Y0291594D01*
D15*
X0068690Y0269110D02*
X0068690Y0202181D01*
X0171052Y0202181D01*
X0171052Y0269110D01*
X0068690Y0269110D01*
D16*
X0090352Y0203221D02*
X0090352Y0200552D01*
X0094355Y0200552D01*
X0090352Y0198617D02*
X0090352Y0195948D01*
X0094355Y0195948D01*
X0094355Y0194213D02*
X0094355Y0192879D01*
X0094355Y0193546D02*
X0090352Y0193546D01*
X0090352Y0192879D02*
X0090352Y0194213D01*
X0090352Y0190944D02*
X0091686Y0189609D01*
X0091686Y0190277D02*
X0091686Y0188275D01*
X0090352Y0188275D02*
X0094355Y0188275D01*
X0094355Y0190277D01*
X0093688Y0190944D01*
X0092353Y0190944D01*
X0091686Y0190277D01*
X0091019Y0186340D02*
X0093688Y0186340D01*
X0094355Y0185673D01*
X0094355Y0183671D01*
X0090352Y0183671D01*
X0090352Y0185673D01*
X0091019Y0186340D01*
X0075383Y0193913D02*
X0075385Y0194001D01*
X0075391Y0194089D01*
X0075401Y0194177D01*
X0075415Y0194265D01*
X0075432Y0194351D01*
X0075454Y0194437D01*
X0075479Y0194521D01*
X0075509Y0194605D01*
X0075541Y0194687D01*
X0075578Y0194767D01*
X0075618Y0194846D01*
X0075662Y0194923D01*
X0075709Y0194998D01*
X0075759Y0195070D01*
X0075813Y0195141D01*
X0075869Y0195208D01*
X0075929Y0195274D01*
X0075991Y0195336D01*
X0076057Y0195396D01*
X0076124Y0195452D01*
X0076195Y0195506D01*
X0076267Y0195556D01*
X0076342Y0195603D01*
X0076419Y0195647D01*
X0076498Y0195687D01*
X0076578Y0195724D01*
X0076660Y0195756D01*
X0076744Y0195786D01*
X0076828Y0195811D01*
X0076914Y0195833D01*
X0077000Y0195850D01*
X0077088Y0195864D01*
X0077176Y0195874D01*
X0077264Y0195880D01*
X0077352Y0195882D01*
X0077440Y0195880D01*
X0077528Y0195874D01*
X0077616Y0195864D01*
X0077704Y0195850D01*
X0077790Y0195833D01*
X0077876Y0195811D01*
X0077960Y0195786D01*
X0078044Y0195756D01*
X0078126Y0195724D01*
X0078206Y0195687D01*
X0078285Y0195647D01*
X0078362Y0195603D01*
X0078437Y0195556D01*
X0078509Y0195506D01*
X0078580Y0195452D01*
X0078647Y0195396D01*
X0078713Y0195336D01*
X0078775Y0195274D01*
X0078835Y0195208D01*
X0078891Y0195141D01*
X0078945Y0195070D01*
X0078995Y0194998D01*
X0079042Y0194923D01*
X0079086Y0194846D01*
X0079126Y0194767D01*
X0079163Y0194687D01*
X0079195Y0194605D01*
X0079225Y0194521D01*
X0079250Y0194437D01*
X0079272Y0194351D01*
X0079289Y0194265D01*
X0079303Y0194177D01*
X0079313Y0194089D01*
X0079319Y0194001D01*
X0079321Y0193913D01*
X0079319Y0193825D01*
X0079313Y0193737D01*
X0079303Y0193649D01*
X0079289Y0193561D01*
X0079272Y0193475D01*
X0079250Y0193389D01*
X0079225Y0193305D01*
X0079195Y0193221D01*
X0079163Y0193139D01*
X0079126Y0193059D01*
X0079086Y0192980D01*
X0079042Y0192903D01*
X0078995Y0192828D01*
X0078945Y0192756D01*
X0078891Y0192685D01*
X0078835Y0192618D01*
X0078775Y0192552D01*
X0078713Y0192490D01*
X0078647Y0192430D01*
X0078580Y0192374D01*
X0078509Y0192320D01*
X0078437Y0192270D01*
X0078362Y0192223D01*
X0078285Y0192179D01*
X0078206Y0192139D01*
X0078126Y0192102D01*
X0078044Y0192070D01*
X0077960Y0192040D01*
X0077876Y0192015D01*
X0077790Y0191993D01*
X0077704Y0191976D01*
X0077616Y0191962D01*
X0077528Y0191952D01*
X0077440Y0191946D01*
X0077352Y0191944D01*
X0077264Y0191946D01*
X0077176Y0191952D01*
X0077088Y0191962D01*
X0077000Y0191976D01*
X0076914Y0191993D01*
X0076828Y0192015D01*
X0076744Y0192040D01*
X0076660Y0192070D01*
X0076578Y0192102D01*
X0076498Y0192139D01*
X0076419Y0192179D01*
X0076342Y0192223D01*
X0076267Y0192270D01*
X0076195Y0192320D01*
X0076124Y0192374D01*
X0076057Y0192430D01*
X0075991Y0192490D01*
X0075929Y0192552D01*
X0075869Y0192618D01*
X0075813Y0192685D01*
X0075759Y0192756D01*
X0075709Y0192828D01*
X0075662Y0192903D01*
X0075618Y0192980D01*
X0075578Y0193059D01*
X0075541Y0193139D01*
X0075509Y0193221D01*
X0075479Y0193305D01*
X0075454Y0193389D01*
X0075432Y0193475D01*
X0075415Y0193561D01*
X0075401Y0193649D01*
X0075391Y0193737D01*
X0075385Y0193825D01*
X0075383Y0193913D01*
X0058856Y0171725D02*
X0058856Y0169056D01*
X0062859Y0169056D01*
X0058856Y0167121D02*
X0058856Y0164452D01*
X0062859Y0164452D01*
X0062859Y0162717D02*
X0062859Y0161383D01*
X0062859Y0162050D02*
X0058856Y0162050D01*
X0058856Y0161383D02*
X0058856Y0162717D01*
X0058856Y0159448D02*
X0060190Y0158113D01*
X0060190Y0158780D02*
X0060190Y0156779D01*
X0058856Y0156779D02*
X0062859Y0156779D01*
X0062859Y0158780D01*
X0062192Y0159448D01*
X0060857Y0159448D01*
X0060190Y0158780D01*
X0059523Y0154844D02*
X0062192Y0154844D01*
X0062859Y0154177D01*
X0062859Y0152175D01*
X0058856Y0152175D01*
X0058856Y0154177D01*
X0059523Y0154844D01*
X0060352Y0140229D02*
X0060352Y0137560D01*
X0064355Y0137560D01*
X0064355Y0132956D02*
X0060352Y0132956D01*
X0060352Y0135625D01*
X0060352Y0131221D02*
X0060352Y0129887D01*
X0060352Y0130554D02*
X0064355Y0130554D01*
X0064355Y0129887D02*
X0064355Y0131221D01*
X0063688Y0127952D02*
X0062353Y0127952D01*
X0061686Y0127284D01*
X0061686Y0125283D01*
X0061686Y0126617D02*
X0060352Y0127952D01*
X0060352Y0125283D02*
X0064355Y0125283D01*
X0064355Y0127284D01*
X0063688Y0127952D01*
X0063688Y0123348D02*
X0064355Y0122680D01*
X0064355Y0120679D01*
X0060352Y0120679D01*
X0060352Y0122680D01*
X0061019Y0123348D01*
X0063688Y0123348D01*
X0075383Y0130921D02*
X0075385Y0131009D01*
X0075391Y0131097D01*
X0075401Y0131185D01*
X0075415Y0131273D01*
X0075432Y0131359D01*
X0075454Y0131445D01*
X0075479Y0131529D01*
X0075509Y0131613D01*
X0075541Y0131695D01*
X0075578Y0131775D01*
X0075618Y0131854D01*
X0075662Y0131931D01*
X0075709Y0132006D01*
X0075759Y0132078D01*
X0075813Y0132149D01*
X0075869Y0132216D01*
X0075929Y0132282D01*
X0075991Y0132344D01*
X0076057Y0132404D01*
X0076124Y0132460D01*
X0076195Y0132514D01*
X0076267Y0132564D01*
X0076342Y0132611D01*
X0076419Y0132655D01*
X0076498Y0132695D01*
X0076578Y0132732D01*
X0076660Y0132764D01*
X0076744Y0132794D01*
X0076828Y0132819D01*
X0076914Y0132841D01*
X0077000Y0132858D01*
X0077088Y0132872D01*
X0077176Y0132882D01*
X0077264Y0132888D01*
X0077352Y0132890D01*
X0077440Y0132888D01*
X0077528Y0132882D01*
X0077616Y0132872D01*
X0077704Y0132858D01*
X0077790Y0132841D01*
X0077876Y0132819D01*
X0077960Y0132794D01*
X0078044Y0132764D01*
X0078126Y0132732D01*
X0078206Y0132695D01*
X0078285Y0132655D01*
X0078362Y0132611D01*
X0078437Y0132564D01*
X0078509Y0132514D01*
X0078580Y0132460D01*
X0078647Y0132404D01*
X0078713Y0132344D01*
X0078775Y0132282D01*
X0078835Y0132216D01*
X0078891Y0132149D01*
X0078945Y0132078D01*
X0078995Y0132006D01*
X0079042Y0131931D01*
X0079086Y0131854D01*
X0079126Y0131775D01*
X0079163Y0131695D01*
X0079195Y0131613D01*
X0079225Y0131529D01*
X0079250Y0131445D01*
X0079272Y0131359D01*
X0079289Y0131273D01*
X0079303Y0131185D01*
X0079313Y0131097D01*
X0079319Y0131009D01*
X0079321Y0130921D01*
X0079319Y0130833D01*
X0079313Y0130745D01*
X0079303Y0130657D01*
X0079289Y0130569D01*
X0079272Y0130483D01*
X0079250Y0130397D01*
X0079225Y0130313D01*
X0079195Y0130229D01*
X0079163Y0130147D01*
X0079126Y0130067D01*
X0079086Y0129988D01*
X0079042Y0129911D01*
X0078995Y0129836D01*
X0078945Y0129764D01*
X0078891Y0129693D01*
X0078835Y0129626D01*
X0078775Y0129560D01*
X0078713Y0129498D01*
X0078647Y0129438D01*
X0078580Y0129382D01*
X0078509Y0129328D01*
X0078437Y0129278D01*
X0078362Y0129231D01*
X0078285Y0129187D01*
X0078206Y0129147D01*
X0078126Y0129110D01*
X0078044Y0129078D01*
X0077960Y0129048D01*
X0077876Y0129023D01*
X0077790Y0129001D01*
X0077704Y0128984D01*
X0077616Y0128970D01*
X0077528Y0128960D01*
X0077440Y0128954D01*
X0077352Y0128952D01*
X0077264Y0128954D01*
X0077176Y0128960D01*
X0077088Y0128970D01*
X0077000Y0128984D01*
X0076914Y0129001D01*
X0076828Y0129023D01*
X0076744Y0129048D01*
X0076660Y0129078D01*
X0076578Y0129110D01*
X0076498Y0129147D01*
X0076419Y0129187D01*
X0076342Y0129231D01*
X0076267Y0129278D01*
X0076195Y0129328D01*
X0076124Y0129382D01*
X0076057Y0129438D01*
X0075991Y0129498D01*
X0075929Y0129560D01*
X0075869Y0129626D01*
X0075813Y0129693D01*
X0075759Y0129764D01*
X0075709Y0129836D01*
X0075662Y0129911D01*
X0075618Y0129988D01*
X0075578Y0130067D01*
X0075541Y0130147D01*
X0075509Y0130229D01*
X0075479Y0130313D01*
X0075454Y0130397D01*
X0075432Y0130483D01*
X0075415Y0130569D01*
X0075401Y0130657D01*
X0075391Y0130745D01*
X0075385Y0130833D01*
X0075383Y0130921D01*
X0043887Y0162417D02*
X0043889Y0162505D01*
X0043895Y0162593D01*
X0043905Y0162681D01*
X0043919Y0162769D01*
X0043936Y0162855D01*
X0043958Y0162941D01*
X0043983Y0163025D01*
X0044013Y0163109D01*
X0044045Y0163191D01*
X0044082Y0163271D01*
X0044122Y0163350D01*
X0044166Y0163427D01*
X0044213Y0163502D01*
X0044263Y0163574D01*
X0044317Y0163645D01*
X0044373Y0163712D01*
X0044433Y0163778D01*
X0044495Y0163840D01*
X0044561Y0163900D01*
X0044628Y0163956D01*
X0044699Y0164010D01*
X0044771Y0164060D01*
X0044846Y0164107D01*
X0044923Y0164151D01*
X0045002Y0164191D01*
X0045082Y0164228D01*
X0045164Y0164260D01*
X0045248Y0164290D01*
X0045332Y0164315D01*
X0045418Y0164337D01*
X0045504Y0164354D01*
X0045592Y0164368D01*
X0045680Y0164378D01*
X0045768Y0164384D01*
X0045856Y0164386D01*
X0045944Y0164384D01*
X0046032Y0164378D01*
X0046120Y0164368D01*
X0046208Y0164354D01*
X0046294Y0164337D01*
X0046380Y0164315D01*
X0046464Y0164290D01*
X0046548Y0164260D01*
X0046630Y0164228D01*
X0046710Y0164191D01*
X0046789Y0164151D01*
X0046866Y0164107D01*
X0046941Y0164060D01*
X0047013Y0164010D01*
X0047084Y0163956D01*
X0047151Y0163900D01*
X0047217Y0163840D01*
X0047279Y0163778D01*
X0047339Y0163712D01*
X0047395Y0163645D01*
X0047449Y0163574D01*
X0047499Y0163502D01*
X0047546Y0163427D01*
X0047590Y0163350D01*
X0047630Y0163271D01*
X0047667Y0163191D01*
X0047699Y0163109D01*
X0047729Y0163025D01*
X0047754Y0162941D01*
X0047776Y0162855D01*
X0047793Y0162769D01*
X0047807Y0162681D01*
X0047817Y0162593D01*
X0047823Y0162505D01*
X0047825Y0162417D01*
X0047823Y0162329D01*
X0047817Y0162241D01*
X0047807Y0162153D01*
X0047793Y0162065D01*
X0047776Y0161979D01*
X0047754Y0161893D01*
X0047729Y0161809D01*
X0047699Y0161725D01*
X0047667Y0161643D01*
X0047630Y0161563D01*
X0047590Y0161484D01*
X0047546Y0161407D01*
X0047499Y0161332D01*
X0047449Y0161260D01*
X0047395Y0161189D01*
X0047339Y0161122D01*
X0047279Y0161056D01*
X0047217Y0160994D01*
X0047151Y0160934D01*
X0047084Y0160878D01*
X0047013Y0160824D01*
X0046941Y0160774D01*
X0046866Y0160727D01*
X0046789Y0160683D01*
X0046710Y0160643D01*
X0046630Y0160606D01*
X0046548Y0160574D01*
X0046464Y0160544D01*
X0046380Y0160519D01*
X0046294Y0160497D01*
X0046208Y0160480D01*
X0046120Y0160466D01*
X0046032Y0160456D01*
X0045944Y0160450D01*
X0045856Y0160448D01*
X0045768Y0160450D01*
X0045680Y0160456D01*
X0045592Y0160466D01*
X0045504Y0160480D01*
X0045418Y0160497D01*
X0045332Y0160519D01*
X0045248Y0160544D01*
X0045164Y0160574D01*
X0045082Y0160606D01*
X0045002Y0160643D01*
X0044923Y0160683D01*
X0044846Y0160727D01*
X0044771Y0160774D01*
X0044699Y0160824D01*
X0044628Y0160878D01*
X0044561Y0160934D01*
X0044495Y0160994D01*
X0044433Y0161056D01*
X0044373Y0161122D01*
X0044317Y0161189D01*
X0044263Y0161260D01*
X0044213Y0161332D01*
X0044166Y0161407D01*
X0044122Y0161484D01*
X0044082Y0161563D01*
X0044045Y0161643D01*
X0044013Y0161725D01*
X0043983Y0161809D01*
X0043958Y0161893D01*
X0043936Y0161979D01*
X0043919Y0162065D01*
X0043905Y0162153D01*
X0043895Y0162241D01*
X0043889Y0162329D01*
X0043887Y0162417D01*
X0106879Y0162417D02*
X0106881Y0162505D01*
X0106887Y0162593D01*
X0106897Y0162681D01*
X0106911Y0162769D01*
X0106928Y0162855D01*
X0106950Y0162941D01*
X0106975Y0163025D01*
X0107005Y0163109D01*
X0107037Y0163191D01*
X0107074Y0163271D01*
X0107114Y0163350D01*
X0107158Y0163427D01*
X0107205Y0163502D01*
X0107255Y0163574D01*
X0107309Y0163645D01*
X0107365Y0163712D01*
X0107425Y0163778D01*
X0107487Y0163840D01*
X0107553Y0163900D01*
X0107620Y0163956D01*
X0107691Y0164010D01*
X0107763Y0164060D01*
X0107838Y0164107D01*
X0107915Y0164151D01*
X0107994Y0164191D01*
X0108074Y0164228D01*
X0108156Y0164260D01*
X0108240Y0164290D01*
X0108324Y0164315D01*
X0108410Y0164337D01*
X0108496Y0164354D01*
X0108584Y0164368D01*
X0108672Y0164378D01*
X0108760Y0164384D01*
X0108848Y0164386D01*
X0108936Y0164384D01*
X0109024Y0164378D01*
X0109112Y0164368D01*
X0109200Y0164354D01*
X0109286Y0164337D01*
X0109372Y0164315D01*
X0109456Y0164290D01*
X0109540Y0164260D01*
X0109622Y0164228D01*
X0109702Y0164191D01*
X0109781Y0164151D01*
X0109858Y0164107D01*
X0109933Y0164060D01*
X0110005Y0164010D01*
X0110076Y0163956D01*
X0110143Y0163900D01*
X0110209Y0163840D01*
X0110271Y0163778D01*
X0110331Y0163712D01*
X0110387Y0163645D01*
X0110441Y0163574D01*
X0110491Y0163502D01*
X0110538Y0163427D01*
X0110582Y0163350D01*
X0110622Y0163271D01*
X0110659Y0163191D01*
X0110691Y0163109D01*
X0110721Y0163025D01*
X0110746Y0162941D01*
X0110768Y0162855D01*
X0110785Y0162769D01*
X0110799Y0162681D01*
X0110809Y0162593D01*
X0110815Y0162505D01*
X0110817Y0162417D01*
X0110815Y0162329D01*
X0110809Y0162241D01*
X0110799Y0162153D01*
X0110785Y0162065D01*
X0110768Y0161979D01*
X0110746Y0161893D01*
X0110721Y0161809D01*
X0110691Y0161725D01*
X0110659Y0161643D01*
X0110622Y0161563D01*
X0110582Y0161484D01*
X0110538Y0161407D01*
X0110491Y0161332D01*
X0110441Y0161260D01*
X0110387Y0161189D01*
X0110331Y0161122D01*
X0110271Y0161056D01*
X0110209Y0160994D01*
X0110143Y0160934D01*
X0110076Y0160878D01*
X0110005Y0160824D01*
X0109933Y0160774D01*
X0109858Y0160727D01*
X0109781Y0160683D01*
X0109702Y0160643D01*
X0109622Y0160606D01*
X0109540Y0160574D01*
X0109456Y0160544D01*
X0109372Y0160519D01*
X0109286Y0160497D01*
X0109200Y0160480D01*
X0109112Y0160466D01*
X0109024Y0160456D01*
X0108936Y0160450D01*
X0108848Y0160448D01*
X0108760Y0160450D01*
X0108672Y0160456D01*
X0108584Y0160466D01*
X0108496Y0160480D01*
X0108410Y0160497D01*
X0108324Y0160519D01*
X0108240Y0160544D01*
X0108156Y0160574D01*
X0108074Y0160606D01*
X0107994Y0160643D01*
X0107915Y0160683D01*
X0107838Y0160727D01*
X0107763Y0160774D01*
X0107691Y0160824D01*
X0107620Y0160878D01*
X0107553Y0160934D01*
X0107487Y0160994D01*
X0107425Y0161056D01*
X0107365Y0161122D01*
X0107309Y0161189D01*
X0107255Y0161260D01*
X0107205Y0161332D01*
X0107158Y0161407D01*
X0107114Y0161484D01*
X0107074Y0161563D01*
X0107037Y0161643D01*
X0107005Y0161725D01*
X0106975Y0161809D01*
X0106950Y0161893D01*
X0106928Y0161979D01*
X0106911Y0162065D01*
X0106897Y0162153D01*
X0106887Y0162241D01*
X0106881Y0162329D01*
X0106879Y0162417D01*
X0121848Y0162717D02*
X0121848Y0161383D01*
X0121848Y0162050D02*
X0125851Y0162050D01*
X0125851Y0161383D02*
X0125851Y0162717D01*
X0125851Y0164452D02*
X0121848Y0164452D01*
X0121848Y0167121D01*
X0121848Y0169056D02*
X0121848Y0171725D01*
X0121848Y0169056D02*
X0125851Y0169056D01*
X0125184Y0159448D02*
X0123849Y0159448D01*
X0123182Y0158780D01*
X0123182Y0156779D01*
X0123182Y0158113D02*
X0121848Y0159448D01*
X0121848Y0156779D02*
X0125851Y0156779D01*
X0125851Y0158780D01*
X0125184Y0159448D01*
X0125184Y0154844D02*
X0122515Y0154844D01*
X0121848Y0154177D01*
X0121848Y0152175D01*
X0125851Y0152175D01*
X0125851Y0154177D01*
X0125184Y0154844D01*
X0155525Y0111205D02*
X0158193Y0111205D01*
X0158193Y0115208D01*
X0160128Y0111205D02*
X0162797Y0111205D01*
X0162797Y0115208D01*
X0164532Y0115208D02*
X0165867Y0115208D01*
X0165199Y0115208D02*
X0165199Y0111205D01*
X0164532Y0111205D02*
X0165867Y0111205D01*
X0167802Y0111205D02*
X0169136Y0112539D01*
X0168469Y0112539D02*
X0170471Y0112539D01*
X0170471Y0111205D02*
X0170471Y0115208D01*
X0168469Y0115208D01*
X0167802Y0114541D01*
X0167802Y0113206D01*
X0168469Y0112539D01*
X0172406Y0111872D02*
X0172406Y0114541D01*
X0173073Y0115208D01*
X0175075Y0115208D01*
X0175075Y0111205D01*
X0173073Y0111205D01*
X0172406Y0111872D01*
X0162863Y0128205D02*
X0162865Y0128293D01*
X0162871Y0128381D01*
X0162881Y0128469D01*
X0162895Y0128557D01*
X0162912Y0128643D01*
X0162934Y0128729D01*
X0162959Y0128813D01*
X0162989Y0128897D01*
X0163021Y0128979D01*
X0163058Y0129059D01*
X0163098Y0129138D01*
X0163142Y0129215D01*
X0163189Y0129290D01*
X0163239Y0129362D01*
X0163293Y0129433D01*
X0163349Y0129500D01*
X0163409Y0129566D01*
X0163471Y0129628D01*
X0163537Y0129688D01*
X0163604Y0129744D01*
X0163675Y0129798D01*
X0163747Y0129848D01*
X0163822Y0129895D01*
X0163899Y0129939D01*
X0163978Y0129979D01*
X0164058Y0130016D01*
X0164140Y0130048D01*
X0164224Y0130078D01*
X0164308Y0130103D01*
X0164394Y0130125D01*
X0164480Y0130142D01*
X0164568Y0130156D01*
X0164656Y0130166D01*
X0164744Y0130172D01*
X0164832Y0130174D01*
X0164920Y0130172D01*
X0165008Y0130166D01*
X0165096Y0130156D01*
X0165184Y0130142D01*
X0165270Y0130125D01*
X0165356Y0130103D01*
X0165440Y0130078D01*
X0165524Y0130048D01*
X0165606Y0130016D01*
X0165686Y0129979D01*
X0165765Y0129939D01*
X0165842Y0129895D01*
X0165917Y0129848D01*
X0165989Y0129798D01*
X0166060Y0129744D01*
X0166127Y0129688D01*
X0166193Y0129628D01*
X0166255Y0129566D01*
X0166315Y0129500D01*
X0166371Y0129433D01*
X0166425Y0129362D01*
X0166475Y0129290D01*
X0166522Y0129215D01*
X0166566Y0129138D01*
X0166606Y0129059D01*
X0166643Y0128979D01*
X0166675Y0128897D01*
X0166705Y0128813D01*
X0166730Y0128729D01*
X0166752Y0128643D01*
X0166769Y0128557D01*
X0166783Y0128469D01*
X0166793Y0128381D01*
X0166799Y0128293D01*
X0166801Y0128205D01*
X0166799Y0128117D01*
X0166793Y0128029D01*
X0166783Y0127941D01*
X0166769Y0127853D01*
X0166752Y0127767D01*
X0166730Y0127681D01*
X0166705Y0127597D01*
X0166675Y0127513D01*
X0166643Y0127431D01*
X0166606Y0127351D01*
X0166566Y0127272D01*
X0166522Y0127195D01*
X0166475Y0127120D01*
X0166425Y0127048D01*
X0166371Y0126977D01*
X0166315Y0126910D01*
X0166255Y0126844D01*
X0166193Y0126782D01*
X0166127Y0126722D01*
X0166060Y0126666D01*
X0165989Y0126612D01*
X0165917Y0126562D01*
X0165842Y0126515D01*
X0165765Y0126471D01*
X0165686Y0126431D01*
X0165606Y0126394D01*
X0165524Y0126362D01*
X0165440Y0126332D01*
X0165356Y0126307D01*
X0165270Y0126285D01*
X0165184Y0126268D01*
X0165096Y0126254D01*
X0165008Y0126244D01*
X0164920Y0126238D01*
X0164832Y0126236D01*
X0164744Y0126238D01*
X0164656Y0126244D01*
X0164568Y0126254D01*
X0164480Y0126268D01*
X0164394Y0126285D01*
X0164308Y0126307D01*
X0164224Y0126332D01*
X0164140Y0126362D01*
X0164058Y0126394D01*
X0163978Y0126431D01*
X0163899Y0126471D01*
X0163822Y0126515D01*
X0163747Y0126562D01*
X0163675Y0126612D01*
X0163604Y0126666D01*
X0163537Y0126722D01*
X0163471Y0126782D01*
X0163409Y0126844D01*
X0163349Y0126910D01*
X0163293Y0126977D01*
X0163239Y0127048D01*
X0163189Y0127120D01*
X0163142Y0127195D01*
X0163098Y0127272D01*
X0163058Y0127351D01*
X0163021Y0127431D01*
X0162989Y0127513D01*
X0162959Y0127597D01*
X0162934Y0127681D01*
X0162912Y0127767D01*
X0162895Y0127853D01*
X0162881Y0127941D01*
X0162871Y0128029D01*
X0162865Y0128117D01*
X0162863Y0128205D01*
X0167336Y0170260D02*
X0170004Y0170260D01*
X0170004Y0174263D01*
X0171939Y0170260D02*
X0174608Y0170260D01*
X0174608Y0174263D01*
X0176343Y0174263D02*
X0177678Y0174263D01*
X0177010Y0174263D02*
X0177010Y0170260D01*
X0176343Y0170260D02*
X0177678Y0170260D01*
X0179613Y0170260D02*
X0180947Y0171594D01*
X0180280Y0171594D02*
X0182282Y0171594D01*
X0182282Y0170260D02*
X0182282Y0174263D01*
X0180280Y0174263D01*
X0179613Y0173596D01*
X0179613Y0172262D01*
X0180280Y0171594D01*
X0184217Y0170927D02*
X0184217Y0173596D01*
X0184884Y0174263D01*
X0186886Y0174263D01*
X0186886Y0170260D01*
X0184884Y0170260D01*
X0184217Y0170927D01*
X0174674Y0187260D02*
X0174676Y0187348D01*
X0174682Y0187436D01*
X0174692Y0187524D01*
X0174706Y0187612D01*
X0174723Y0187698D01*
X0174745Y0187784D01*
X0174770Y0187868D01*
X0174800Y0187952D01*
X0174832Y0188034D01*
X0174869Y0188114D01*
X0174909Y0188193D01*
X0174953Y0188270D01*
X0175000Y0188345D01*
X0175050Y0188417D01*
X0175104Y0188488D01*
X0175160Y0188555D01*
X0175220Y0188621D01*
X0175282Y0188683D01*
X0175348Y0188743D01*
X0175415Y0188799D01*
X0175486Y0188853D01*
X0175558Y0188903D01*
X0175633Y0188950D01*
X0175710Y0188994D01*
X0175789Y0189034D01*
X0175869Y0189071D01*
X0175951Y0189103D01*
X0176035Y0189133D01*
X0176119Y0189158D01*
X0176205Y0189180D01*
X0176291Y0189197D01*
X0176379Y0189211D01*
X0176467Y0189221D01*
X0176555Y0189227D01*
X0176643Y0189229D01*
X0176731Y0189227D01*
X0176819Y0189221D01*
X0176907Y0189211D01*
X0176995Y0189197D01*
X0177081Y0189180D01*
X0177167Y0189158D01*
X0177251Y0189133D01*
X0177335Y0189103D01*
X0177417Y0189071D01*
X0177497Y0189034D01*
X0177576Y0188994D01*
X0177653Y0188950D01*
X0177728Y0188903D01*
X0177800Y0188853D01*
X0177871Y0188799D01*
X0177938Y0188743D01*
X0178004Y0188683D01*
X0178066Y0188621D01*
X0178126Y0188555D01*
X0178182Y0188488D01*
X0178236Y0188417D01*
X0178286Y0188345D01*
X0178333Y0188270D01*
X0178377Y0188193D01*
X0178417Y0188114D01*
X0178454Y0188034D01*
X0178486Y0187952D01*
X0178516Y0187868D01*
X0178541Y0187784D01*
X0178563Y0187698D01*
X0178580Y0187612D01*
X0178594Y0187524D01*
X0178604Y0187436D01*
X0178610Y0187348D01*
X0178612Y0187260D01*
X0178610Y0187172D01*
X0178604Y0187084D01*
X0178594Y0186996D01*
X0178580Y0186908D01*
X0178563Y0186822D01*
X0178541Y0186736D01*
X0178516Y0186652D01*
X0178486Y0186568D01*
X0178454Y0186486D01*
X0178417Y0186406D01*
X0178377Y0186327D01*
X0178333Y0186250D01*
X0178286Y0186175D01*
X0178236Y0186103D01*
X0178182Y0186032D01*
X0178126Y0185965D01*
X0178066Y0185899D01*
X0178004Y0185837D01*
X0177938Y0185777D01*
X0177871Y0185721D01*
X0177800Y0185667D01*
X0177728Y0185617D01*
X0177653Y0185570D01*
X0177576Y0185526D01*
X0177497Y0185486D01*
X0177417Y0185449D01*
X0177335Y0185417D01*
X0177251Y0185387D01*
X0177167Y0185362D01*
X0177081Y0185340D01*
X0176995Y0185323D01*
X0176907Y0185309D01*
X0176819Y0185299D01*
X0176731Y0185293D01*
X0176643Y0185291D01*
X0176555Y0185293D01*
X0176467Y0185299D01*
X0176379Y0185309D01*
X0176291Y0185323D01*
X0176205Y0185340D01*
X0176119Y0185362D01*
X0176035Y0185387D01*
X0175951Y0185417D01*
X0175869Y0185449D01*
X0175789Y0185486D01*
X0175710Y0185526D01*
X0175633Y0185570D01*
X0175558Y0185617D01*
X0175486Y0185667D01*
X0175415Y0185721D01*
X0175348Y0185777D01*
X0175282Y0185837D01*
X0175220Y0185899D01*
X0175160Y0185965D01*
X0175104Y0186032D01*
X0175050Y0186103D01*
X0175000Y0186175D01*
X0174953Y0186250D01*
X0174909Y0186327D01*
X0174869Y0186406D01*
X0174832Y0186486D01*
X0174800Y0186568D01*
X0174770Y0186652D01*
X0174745Y0186736D01*
X0174723Y0186822D01*
X0174706Y0186908D01*
X0174692Y0186996D01*
X0174682Y0187084D01*
X0174676Y0187172D01*
X0174674Y0187260D01*
X0210643Y0134827D02*
X0213312Y0134827D01*
X0213312Y0138830D01*
X0215247Y0134827D02*
X0217916Y0134827D01*
X0217916Y0138830D01*
X0219650Y0138830D02*
X0220985Y0138830D01*
X0220318Y0138830D02*
X0220318Y0134827D01*
X0220985Y0134827D02*
X0219650Y0134827D01*
X0222920Y0134827D02*
X0224254Y0136161D01*
X0223587Y0136161D02*
X0225589Y0136161D01*
X0225589Y0134827D02*
X0225589Y0138830D01*
X0223587Y0138830D01*
X0222920Y0138163D01*
X0222920Y0136828D01*
X0223587Y0136161D01*
X0227524Y0135494D02*
X0228191Y0134827D01*
X0230193Y0134827D01*
X0230193Y0138830D01*
X0228191Y0138830D01*
X0227524Y0138163D01*
X0227524Y0135494D01*
X0217981Y0151827D02*
X0217983Y0151915D01*
X0217989Y0152003D01*
X0217999Y0152091D01*
X0218013Y0152179D01*
X0218030Y0152265D01*
X0218052Y0152351D01*
X0218077Y0152435D01*
X0218107Y0152519D01*
X0218139Y0152601D01*
X0218176Y0152681D01*
X0218216Y0152760D01*
X0218260Y0152837D01*
X0218307Y0152912D01*
X0218357Y0152984D01*
X0218411Y0153055D01*
X0218467Y0153122D01*
X0218527Y0153188D01*
X0218589Y0153250D01*
X0218655Y0153310D01*
X0218722Y0153366D01*
X0218793Y0153420D01*
X0218865Y0153470D01*
X0218940Y0153517D01*
X0219017Y0153561D01*
X0219096Y0153601D01*
X0219176Y0153638D01*
X0219258Y0153670D01*
X0219342Y0153700D01*
X0219426Y0153725D01*
X0219512Y0153747D01*
X0219598Y0153764D01*
X0219686Y0153778D01*
X0219774Y0153788D01*
X0219862Y0153794D01*
X0219950Y0153796D01*
X0220038Y0153794D01*
X0220126Y0153788D01*
X0220214Y0153778D01*
X0220302Y0153764D01*
X0220388Y0153747D01*
X0220474Y0153725D01*
X0220558Y0153700D01*
X0220642Y0153670D01*
X0220724Y0153638D01*
X0220804Y0153601D01*
X0220883Y0153561D01*
X0220960Y0153517D01*
X0221035Y0153470D01*
X0221107Y0153420D01*
X0221178Y0153366D01*
X0221245Y0153310D01*
X0221311Y0153250D01*
X0221373Y0153188D01*
X0221433Y0153122D01*
X0221489Y0153055D01*
X0221543Y0152984D01*
X0221593Y0152912D01*
X0221640Y0152837D01*
X0221684Y0152760D01*
X0221724Y0152681D01*
X0221761Y0152601D01*
X0221793Y0152519D01*
X0221823Y0152435D01*
X0221848Y0152351D01*
X0221870Y0152265D01*
X0221887Y0152179D01*
X0221901Y0152091D01*
X0221911Y0152003D01*
X0221917Y0151915D01*
X0221919Y0151827D01*
X0221917Y0151739D01*
X0221911Y0151651D01*
X0221901Y0151563D01*
X0221887Y0151475D01*
X0221870Y0151389D01*
X0221848Y0151303D01*
X0221823Y0151219D01*
X0221793Y0151135D01*
X0221761Y0151053D01*
X0221724Y0150973D01*
X0221684Y0150894D01*
X0221640Y0150817D01*
X0221593Y0150742D01*
X0221543Y0150670D01*
X0221489Y0150599D01*
X0221433Y0150532D01*
X0221373Y0150466D01*
X0221311Y0150404D01*
X0221245Y0150344D01*
X0221178Y0150288D01*
X0221107Y0150234D01*
X0221035Y0150184D01*
X0220960Y0150137D01*
X0220883Y0150093D01*
X0220804Y0150053D01*
X0220724Y0150016D01*
X0220642Y0149984D01*
X0220558Y0149954D01*
X0220474Y0149929D01*
X0220388Y0149907D01*
X0220302Y0149890D01*
X0220214Y0149876D01*
X0220126Y0149866D01*
X0220038Y0149860D01*
X0219950Y0149858D01*
X0219862Y0149860D01*
X0219774Y0149866D01*
X0219686Y0149876D01*
X0219598Y0149890D01*
X0219512Y0149907D01*
X0219426Y0149929D01*
X0219342Y0149954D01*
X0219258Y0149984D01*
X0219176Y0150016D01*
X0219096Y0150053D01*
X0219017Y0150093D01*
X0218940Y0150137D01*
X0218865Y0150184D01*
X0218793Y0150234D01*
X0218722Y0150288D01*
X0218655Y0150344D01*
X0218589Y0150404D01*
X0218527Y0150466D01*
X0218467Y0150532D01*
X0218411Y0150599D01*
X0218357Y0150670D01*
X0218307Y0150742D01*
X0218260Y0150817D01*
X0218216Y0150894D01*
X0218176Y0150973D01*
X0218139Y0151053D01*
X0218107Y0151135D01*
X0218077Y0151219D01*
X0218052Y0151303D01*
X0218030Y0151389D01*
X0218013Y0151475D01*
X0217999Y0151563D01*
X0217989Y0151651D01*
X0217983Y0151739D01*
X0217981Y0151827D01*
X0222454Y0193882D02*
X0225123Y0193882D01*
X0225123Y0197885D01*
X0227058Y0193882D02*
X0229727Y0193882D01*
X0229727Y0197885D01*
X0231461Y0197885D02*
X0232796Y0197885D01*
X0232129Y0197885D02*
X0232129Y0193882D01*
X0232796Y0193882D02*
X0231461Y0193882D01*
X0234731Y0193882D02*
X0236065Y0195216D01*
X0235398Y0195216D02*
X0237400Y0195216D01*
X0237400Y0193882D02*
X0237400Y0197885D01*
X0235398Y0197885D01*
X0234731Y0197218D01*
X0234731Y0195884D01*
X0235398Y0195216D01*
X0239335Y0194549D02*
X0239335Y0197218D01*
X0240002Y0197885D01*
X0242004Y0197885D01*
X0242004Y0193882D01*
X0240002Y0193882D01*
X0239335Y0194549D01*
X0229792Y0210882D02*
X0229794Y0210970D01*
X0229800Y0211058D01*
X0229810Y0211146D01*
X0229824Y0211234D01*
X0229841Y0211320D01*
X0229863Y0211406D01*
X0229888Y0211490D01*
X0229918Y0211574D01*
X0229950Y0211656D01*
X0229987Y0211736D01*
X0230027Y0211815D01*
X0230071Y0211892D01*
X0230118Y0211967D01*
X0230168Y0212039D01*
X0230222Y0212110D01*
X0230278Y0212177D01*
X0230338Y0212243D01*
X0230400Y0212305D01*
X0230466Y0212365D01*
X0230533Y0212421D01*
X0230604Y0212475D01*
X0230676Y0212525D01*
X0230751Y0212572D01*
X0230828Y0212616D01*
X0230907Y0212656D01*
X0230987Y0212693D01*
X0231069Y0212725D01*
X0231153Y0212755D01*
X0231237Y0212780D01*
X0231323Y0212802D01*
X0231409Y0212819D01*
X0231497Y0212833D01*
X0231585Y0212843D01*
X0231673Y0212849D01*
X0231761Y0212851D01*
X0231849Y0212849D01*
X0231937Y0212843D01*
X0232025Y0212833D01*
X0232113Y0212819D01*
X0232199Y0212802D01*
X0232285Y0212780D01*
X0232369Y0212755D01*
X0232453Y0212725D01*
X0232535Y0212693D01*
X0232615Y0212656D01*
X0232694Y0212616D01*
X0232771Y0212572D01*
X0232846Y0212525D01*
X0232918Y0212475D01*
X0232989Y0212421D01*
X0233056Y0212365D01*
X0233122Y0212305D01*
X0233184Y0212243D01*
X0233244Y0212177D01*
X0233300Y0212110D01*
X0233354Y0212039D01*
X0233404Y0211967D01*
X0233451Y0211892D01*
X0233495Y0211815D01*
X0233535Y0211736D01*
X0233572Y0211656D01*
X0233604Y0211574D01*
X0233634Y0211490D01*
X0233659Y0211406D01*
X0233681Y0211320D01*
X0233698Y0211234D01*
X0233712Y0211146D01*
X0233722Y0211058D01*
X0233728Y0210970D01*
X0233730Y0210882D01*
X0233728Y0210794D01*
X0233722Y0210706D01*
X0233712Y0210618D01*
X0233698Y0210530D01*
X0233681Y0210444D01*
X0233659Y0210358D01*
X0233634Y0210274D01*
X0233604Y0210190D01*
X0233572Y0210108D01*
X0233535Y0210028D01*
X0233495Y0209949D01*
X0233451Y0209872D01*
X0233404Y0209797D01*
X0233354Y0209725D01*
X0233300Y0209654D01*
X0233244Y0209587D01*
X0233184Y0209521D01*
X0233122Y0209459D01*
X0233056Y0209399D01*
X0232989Y0209343D01*
X0232918Y0209289D01*
X0232846Y0209239D01*
X0232771Y0209192D01*
X0232694Y0209148D01*
X0232615Y0209108D01*
X0232535Y0209071D01*
X0232453Y0209039D01*
X0232369Y0209009D01*
X0232285Y0208984D01*
X0232199Y0208962D01*
X0232113Y0208945D01*
X0232025Y0208931D01*
X0231937Y0208921D01*
X0231849Y0208915D01*
X0231761Y0208913D01*
X0231673Y0208915D01*
X0231585Y0208921D01*
X0231497Y0208931D01*
X0231409Y0208945D01*
X0231323Y0208962D01*
X0231237Y0208984D01*
X0231153Y0209009D01*
X0231069Y0209039D01*
X0230987Y0209071D01*
X0230907Y0209108D01*
X0230828Y0209148D01*
X0230751Y0209192D01*
X0230676Y0209239D01*
X0230604Y0209289D01*
X0230533Y0209343D01*
X0230466Y0209399D01*
X0230400Y0209459D01*
X0230338Y0209521D01*
X0230278Y0209587D01*
X0230222Y0209654D01*
X0230168Y0209725D01*
X0230118Y0209797D01*
X0230071Y0209872D01*
X0230027Y0209949D01*
X0229987Y0210028D01*
X0229950Y0210108D01*
X0229918Y0210190D01*
X0229888Y0210274D01*
X0229863Y0210358D01*
X0229841Y0210444D01*
X0229824Y0210530D01*
X0229810Y0210618D01*
X0229800Y0210706D01*
X0229794Y0210794D01*
X0229792Y0210882D01*
X0268627Y0156507D02*
X0268627Y0152504D01*
X0265958Y0152504D01*
X0270562Y0152504D02*
X0273230Y0152504D01*
X0273230Y0156507D01*
X0274965Y0156507D02*
X0276300Y0156507D01*
X0275633Y0156507D02*
X0275633Y0152504D01*
X0276300Y0152504D02*
X0274965Y0152504D01*
X0278235Y0152504D02*
X0279569Y0153838D01*
X0278902Y0153838D02*
X0280904Y0153838D01*
X0280904Y0152504D02*
X0280904Y0156507D01*
X0278902Y0156507D01*
X0278235Y0155840D01*
X0278235Y0154506D01*
X0278902Y0153838D01*
X0282839Y0153171D02*
X0282839Y0155840D01*
X0283506Y0156507D01*
X0285508Y0156507D01*
X0285508Y0152504D01*
X0283506Y0152504D01*
X0282839Y0153171D01*
X0273296Y0169504D02*
X0273298Y0169592D01*
X0273304Y0169680D01*
X0273314Y0169768D01*
X0273328Y0169856D01*
X0273345Y0169942D01*
X0273367Y0170028D01*
X0273392Y0170112D01*
X0273422Y0170196D01*
X0273454Y0170278D01*
X0273491Y0170358D01*
X0273531Y0170437D01*
X0273575Y0170514D01*
X0273622Y0170589D01*
X0273672Y0170661D01*
X0273726Y0170732D01*
X0273782Y0170799D01*
X0273842Y0170865D01*
X0273904Y0170927D01*
X0273970Y0170987D01*
X0274037Y0171043D01*
X0274108Y0171097D01*
X0274180Y0171147D01*
X0274255Y0171194D01*
X0274332Y0171238D01*
X0274411Y0171278D01*
X0274491Y0171315D01*
X0274573Y0171347D01*
X0274657Y0171377D01*
X0274741Y0171402D01*
X0274827Y0171424D01*
X0274913Y0171441D01*
X0275001Y0171455D01*
X0275089Y0171465D01*
X0275177Y0171471D01*
X0275265Y0171473D01*
X0275353Y0171471D01*
X0275441Y0171465D01*
X0275529Y0171455D01*
X0275617Y0171441D01*
X0275703Y0171424D01*
X0275789Y0171402D01*
X0275873Y0171377D01*
X0275957Y0171347D01*
X0276039Y0171315D01*
X0276119Y0171278D01*
X0276198Y0171238D01*
X0276275Y0171194D01*
X0276350Y0171147D01*
X0276422Y0171097D01*
X0276493Y0171043D01*
X0276560Y0170987D01*
X0276626Y0170927D01*
X0276688Y0170865D01*
X0276748Y0170799D01*
X0276804Y0170732D01*
X0276858Y0170661D01*
X0276908Y0170589D01*
X0276955Y0170514D01*
X0276999Y0170437D01*
X0277039Y0170358D01*
X0277076Y0170278D01*
X0277108Y0170196D01*
X0277138Y0170112D01*
X0277163Y0170028D01*
X0277185Y0169942D01*
X0277202Y0169856D01*
X0277216Y0169768D01*
X0277226Y0169680D01*
X0277232Y0169592D01*
X0277234Y0169504D01*
X0277232Y0169416D01*
X0277226Y0169328D01*
X0277216Y0169240D01*
X0277202Y0169152D01*
X0277185Y0169066D01*
X0277163Y0168980D01*
X0277138Y0168896D01*
X0277108Y0168812D01*
X0277076Y0168730D01*
X0277039Y0168650D01*
X0276999Y0168571D01*
X0276955Y0168494D01*
X0276908Y0168419D01*
X0276858Y0168347D01*
X0276804Y0168276D01*
X0276748Y0168209D01*
X0276688Y0168143D01*
X0276626Y0168081D01*
X0276560Y0168021D01*
X0276493Y0167965D01*
X0276422Y0167911D01*
X0276350Y0167861D01*
X0276275Y0167814D01*
X0276198Y0167770D01*
X0276119Y0167730D01*
X0276039Y0167693D01*
X0275957Y0167661D01*
X0275873Y0167631D01*
X0275789Y0167606D01*
X0275703Y0167584D01*
X0275617Y0167567D01*
X0275529Y0167553D01*
X0275441Y0167543D01*
X0275353Y0167537D01*
X0275265Y0167535D01*
X0275177Y0167537D01*
X0275089Y0167543D01*
X0275001Y0167553D01*
X0274913Y0167567D01*
X0274827Y0167584D01*
X0274741Y0167606D01*
X0274657Y0167631D01*
X0274573Y0167661D01*
X0274491Y0167693D01*
X0274411Y0167730D01*
X0274332Y0167770D01*
X0274255Y0167814D01*
X0274180Y0167861D01*
X0274108Y0167911D01*
X0274037Y0167965D01*
X0273970Y0168021D01*
X0273904Y0168081D01*
X0273842Y0168143D01*
X0273782Y0168209D01*
X0273726Y0168276D01*
X0273672Y0168347D01*
X0273622Y0168419D01*
X0273575Y0168494D01*
X0273531Y0168571D01*
X0273491Y0168650D01*
X0273454Y0168730D01*
X0273422Y0168812D01*
X0273392Y0168896D01*
X0273367Y0168980D01*
X0273345Y0169066D01*
X0273328Y0169152D01*
X0273314Y0169240D01*
X0273304Y0169328D01*
X0273298Y0169416D01*
X0273296Y0169504D01*
X0261288Y0112457D02*
X0261290Y0112545D01*
X0261296Y0112633D01*
X0261306Y0112721D01*
X0261320Y0112809D01*
X0261337Y0112895D01*
X0261359Y0112981D01*
X0261384Y0113065D01*
X0261414Y0113149D01*
X0261446Y0113231D01*
X0261483Y0113311D01*
X0261523Y0113390D01*
X0261567Y0113467D01*
X0261614Y0113542D01*
X0261664Y0113614D01*
X0261718Y0113685D01*
X0261774Y0113752D01*
X0261834Y0113818D01*
X0261896Y0113880D01*
X0261962Y0113940D01*
X0262029Y0113996D01*
X0262100Y0114050D01*
X0262172Y0114100D01*
X0262247Y0114147D01*
X0262324Y0114191D01*
X0262403Y0114231D01*
X0262483Y0114268D01*
X0262565Y0114300D01*
X0262649Y0114330D01*
X0262733Y0114355D01*
X0262819Y0114377D01*
X0262905Y0114394D01*
X0262993Y0114408D01*
X0263081Y0114418D01*
X0263169Y0114424D01*
X0263257Y0114426D01*
X0263345Y0114424D01*
X0263433Y0114418D01*
X0263521Y0114408D01*
X0263609Y0114394D01*
X0263695Y0114377D01*
X0263781Y0114355D01*
X0263865Y0114330D01*
X0263949Y0114300D01*
X0264031Y0114268D01*
X0264111Y0114231D01*
X0264190Y0114191D01*
X0264267Y0114147D01*
X0264342Y0114100D01*
X0264414Y0114050D01*
X0264485Y0113996D01*
X0264552Y0113940D01*
X0264618Y0113880D01*
X0264680Y0113818D01*
X0264740Y0113752D01*
X0264796Y0113685D01*
X0264850Y0113614D01*
X0264900Y0113542D01*
X0264947Y0113467D01*
X0264991Y0113390D01*
X0265031Y0113311D01*
X0265068Y0113231D01*
X0265100Y0113149D01*
X0265130Y0113065D01*
X0265155Y0112981D01*
X0265177Y0112895D01*
X0265194Y0112809D01*
X0265208Y0112721D01*
X0265218Y0112633D01*
X0265224Y0112545D01*
X0265226Y0112457D01*
X0265224Y0112369D01*
X0265218Y0112281D01*
X0265208Y0112193D01*
X0265194Y0112105D01*
X0265177Y0112019D01*
X0265155Y0111933D01*
X0265130Y0111849D01*
X0265100Y0111765D01*
X0265068Y0111683D01*
X0265031Y0111603D01*
X0264991Y0111524D01*
X0264947Y0111447D01*
X0264900Y0111372D01*
X0264850Y0111300D01*
X0264796Y0111229D01*
X0264740Y0111162D01*
X0264680Y0111096D01*
X0264618Y0111034D01*
X0264552Y0110974D01*
X0264485Y0110918D01*
X0264414Y0110864D01*
X0264342Y0110814D01*
X0264267Y0110767D01*
X0264190Y0110723D01*
X0264111Y0110683D01*
X0264031Y0110646D01*
X0263949Y0110614D01*
X0263865Y0110584D01*
X0263781Y0110559D01*
X0263695Y0110537D01*
X0263609Y0110520D01*
X0263521Y0110506D01*
X0263433Y0110496D01*
X0263345Y0110490D01*
X0263257Y0110488D01*
X0263169Y0110490D01*
X0263081Y0110496D01*
X0262993Y0110506D01*
X0262905Y0110520D01*
X0262819Y0110537D01*
X0262733Y0110559D01*
X0262649Y0110584D01*
X0262565Y0110614D01*
X0262483Y0110646D01*
X0262403Y0110683D01*
X0262324Y0110723D01*
X0262247Y0110767D01*
X0262172Y0110814D01*
X0262100Y0110864D01*
X0262029Y0110918D01*
X0261962Y0110974D01*
X0261896Y0111034D01*
X0261834Y0111096D01*
X0261774Y0111162D01*
X0261718Y0111229D01*
X0261664Y0111300D01*
X0261614Y0111372D01*
X0261567Y0111447D01*
X0261523Y0111524D01*
X0261483Y0111603D01*
X0261446Y0111683D01*
X0261414Y0111765D01*
X0261384Y0111849D01*
X0261359Y0111933D01*
X0261337Y0112019D01*
X0261320Y0112105D01*
X0261306Y0112193D01*
X0261296Y0112281D01*
X0261290Y0112369D01*
X0261288Y0112457D01*
X0261223Y0099460D02*
X0261223Y0095457D01*
X0258554Y0095457D01*
X0256619Y0095457D02*
X0253950Y0095457D01*
X0256619Y0095457D02*
X0256619Y0099460D01*
X0262957Y0099460D02*
X0264292Y0099460D01*
X0263625Y0099460D02*
X0263625Y0095457D01*
X0264292Y0095457D02*
X0262957Y0095457D01*
X0266227Y0095457D02*
X0267561Y0096791D01*
X0266894Y0096791D02*
X0268896Y0096791D01*
X0268896Y0095457D02*
X0268896Y0099460D01*
X0266894Y0099460D01*
X0266227Y0098793D01*
X0266227Y0097458D01*
X0266894Y0096791D01*
X0270831Y0096124D02*
X0270831Y0098793D01*
X0271498Y0099460D01*
X0273500Y0099460D01*
X0273500Y0095457D01*
X0271498Y0095457D01*
X0270831Y0096124D01*
X0199622Y0067177D02*
X0199622Y0063173D01*
X0197620Y0063173D01*
X0196953Y0063840D01*
X0196953Y0066509D01*
X0197620Y0067177D01*
X0199622Y0067177D01*
X0195018Y0067177D02*
X0195018Y0063173D01*
X0195018Y0064508D02*
X0193016Y0064508D01*
X0192349Y0065175D01*
X0192349Y0066509D01*
X0193016Y0067177D01*
X0195018Y0067177D01*
X0193683Y0064508D02*
X0192349Y0063173D01*
X0190414Y0063173D02*
X0189079Y0063173D01*
X0189747Y0063173D02*
X0189747Y0067177D01*
X0190414Y0067177D02*
X0189079Y0067177D01*
X0187345Y0067177D02*
X0187345Y0063173D01*
X0184676Y0063173D01*
X0182741Y0063173D02*
X0180072Y0063173D01*
X0182741Y0063173D02*
X0182741Y0067177D01*
X0187410Y0080173D02*
X0187412Y0080261D01*
X0187418Y0080349D01*
X0187428Y0080437D01*
X0187442Y0080525D01*
X0187459Y0080611D01*
X0187481Y0080697D01*
X0187506Y0080781D01*
X0187536Y0080865D01*
X0187568Y0080947D01*
X0187605Y0081027D01*
X0187645Y0081106D01*
X0187689Y0081183D01*
X0187736Y0081258D01*
X0187786Y0081330D01*
X0187840Y0081401D01*
X0187896Y0081468D01*
X0187956Y0081534D01*
X0188018Y0081596D01*
X0188084Y0081656D01*
X0188151Y0081712D01*
X0188222Y0081766D01*
X0188294Y0081816D01*
X0188369Y0081863D01*
X0188446Y0081907D01*
X0188525Y0081947D01*
X0188605Y0081984D01*
X0188687Y0082016D01*
X0188771Y0082046D01*
X0188855Y0082071D01*
X0188941Y0082093D01*
X0189027Y0082110D01*
X0189115Y0082124D01*
X0189203Y0082134D01*
X0189291Y0082140D01*
X0189379Y0082142D01*
X0189467Y0082140D01*
X0189555Y0082134D01*
X0189643Y0082124D01*
X0189731Y0082110D01*
X0189817Y0082093D01*
X0189903Y0082071D01*
X0189987Y0082046D01*
X0190071Y0082016D01*
X0190153Y0081984D01*
X0190233Y0081947D01*
X0190312Y0081907D01*
X0190389Y0081863D01*
X0190464Y0081816D01*
X0190536Y0081766D01*
X0190607Y0081712D01*
X0190674Y0081656D01*
X0190740Y0081596D01*
X0190802Y0081534D01*
X0190862Y0081468D01*
X0190918Y0081401D01*
X0190972Y0081330D01*
X0191022Y0081258D01*
X0191069Y0081183D01*
X0191113Y0081106D01*
X0191153Y0081027D01*
X0191190Y0080947D01*
X0191222Y0080865D01*
X0191252Y0080781D01*
X0191277Y0080697D01*
X0191299Y0080611D01*
X0191316Y0080525D01*
X0191330Y0080437D01*
X0191340Y0080349D01*
X0191346Y0080261D01*
X0191348Y0080173D01*
X0191346Y0080085D01*
X0191340Y0079997D01*
X0191330Y0079909D01*
X0191316Y0079821D01*
X0191299Y0079735D01*
X0191277Y0079649D01*
X0191252Y0079565D01*
X0191222Y0079481D01*
X0191190Y0079399D01*
X0191153Y0079319D01*
X0191113Y0079240D01*
X0191069Y0079163D01*
X0191022Y0079088D01*
X0190972Y0079016D01*
X0190918Y0078945D01*
X0190862Y0078878D01*
X0190802Y0078812D01*
X0190740Y0078750D01*
X0190674Y0078690D01*
X0190607Y0078634D01*
X0190536Y0078580D01*
X0190464Y0078530D01*
X0190389Y0078483D01*
X0190312Y0078439D01*
X0190233Y0078399D01*
X0190153Y0078362D01*
X0190071Y0078330D01*
X0189987Y0078300D01*
X0189903Y0078275D01*
X0189817Y0078253D01*
X0189731Y0078236D01*
X0189643Y0078222D01*
X0189555Y0078212D01*
X0189467Y0078206D01*
X0189379Y0078204D01*
X0189291Y0078206D01*
X0189203Y0078212D01*
X0189115Y0078222D01*
X0189027Y0078236D01*
X0188941Y0078253D01*
X0188855Y0078275D01*
X0188771Y0078300D01*
X0188687Y0078330D01*
X0188605Y0078362D01*
X0188525Y0078399D01*
X0188446Y0078439D01*
X0188369Y0078483D01*
X0188294Y0078530D01*
X0188222Y0078580D01*
X0188151Y0078634D01*
X0188084Y0078690D01*
X0188018Y0078750D01*
X0187956Y0078812D01*
X0187896Y0078878D01*
X0187840Y0078945D01*
X0187786Y0079016D01*
X0187736Y0079088D01*
X0187689Y0079163D01*
X0187645Y0079240D01*
X0187605Y0079319D01*
X0187568Y0079399D01*
X0187536Y0079481D01*
X0187506Y0079565D01*
X0187481Y0079649D01*
X0187459Y0079735D01*
X0187442Y0079821D01*
X0187428Y0079909D01*
X0187418Y0079997D01*
X0187412Y0080085D01*
X0187410Y0080173D01*
X0153952Y0067177D02*
X0153952Y0063173D01*
X0151951Y0063173D01*
X0151284Y0063840D01*
X0151284Y0066509D01*
X0151951Y0067177D01*
X0153952Y0067177D01*
X0149349Y0067177D02*
X0149349Y0063173D01*
X0149349Y0064508D02*
X0147347Y0064508D01*
X0146680Y0065175D01*
X0146680Y0066509D01*
X0147347Y0067177D01*
X0149349Y0067177D01*
X0148014Y0064508D02*
X0146680Y0063173D01*
X0144745Y0063173D02*
X0143410Y0063173D01*
X0144077Y0063173D02*
X0144077Y0067177D01*
X0143410Y0067177D02*
X0144745Y0067177D01*
X0141675Y0067177D02*
X0141675Y0063173D01*
X0139006Y0063173D01*
X0137071Y0063173D02*
X0137071Y0067177D01*
X0137071Y0063173D02*
X0134402Y0063173D01*
X0141741Y0080173D02*
X0141743Y0080261D01*
X0141749Y0080349D01*
X0141759Y0080437D01*
X0141773Y0080525D01*
X0141790Y0080611D01*
X0141812Y0080697D01*
X0141837Y0080781D01*
X0141867Y0080865D01*
X0141899Y0080947D01*
X0141936Y0081027D01*
X0141976Y0081106D01*
X0142020Y0081183D01*
X0142067Y0081258D01*
X0142117Y0081330D01*
X0142171Y0081401D01*
X0142227Y0081468D01*
X0142287Y0081534D01*
X0142349Y0081596D01*
X0142415Y0081656D01*
X0142482Y0081712D01*
X0142553Y0081766D01*
X0142625Y0081816D01*
X0142700Y0081863D01*
X0142777Y0081907D01*
X0142856Y0081947D01*
X0142936Y0081984D01*
X0143018Y0082016D01*
X0143102Y0082046D01*
X0143186Y0082071D01*
X0143272Y0082093D01*
X0143358Y0082110D01*
X0143446Y0082124D01*
X0143534Y0082134D01*
X0143622Y0082140D01*
X0143710Y0082142D01*
X0143798Y0082140D01*
X0143886Y0082134D01*
X0143974Y0082124D01*
X0144062Y0082110D01*
X0144148Y0082093D01*
X0144234Y0082071D01*
X0144318Y0082046D01*
X0144402Y0082016D01*
X0144484Y0081984D01*
X0144564Y0081947D01*
X0144643Y0081907D01*
X0144720Y0081863D01*
X0144795Y0081816D01*
X0144867Y0081766D01*
X0144938Y0081712D01*
X0145005Y0081656D01*
X0145071Y0081596D01*
X0145133Y0081534D01*
X0145193Y0081468D01*
X0145249Y0081401D01*
X0145303Y0081330D01*
X0145353Y0081258D01*
X0145400Y0081183D01*
X0145444Y0081106D01*
X0145484Y0081027D01*
X0145521Y0080947D01*
X0145553Y0080865D01*
X0145583Y0080781D01*
X0145608Y0080697D01*
X0145630Y0080611D01*
X0145647Y0080525D01*
X0145661Y0080437D01*
X0145671Y0080349D01*
X0145677Y0080261D01*
X0145679Y0080173D01*
X0145677Y0080085D01*
X0145671Y0079997D01*
X0145661Y0079909D01*
X0145647Y0079821D01*
X0145630Y0079735D01*
X0145608Y0079649D01*
X0145583Y0079565D01*
X0145553Y0079481D01*
X0145521Y0079399D01*
X0145484Y0079319D01*
X0145444Y0079240D01*
X0145400Y0079163D01*
X0145353Y0079088D01*
X0145303Y0079016D01*
X0145249Y0078945D01*
X0145193Y0078878D01*
X0145133Y0078812D01*
X0145071Y0078750D01*
X0145005Y0078690D01*
X0144938Y0078634D01*
X0144867Y0078580D01*
X0144795Y0078530D01*
X0144720Y0078483D01*
X0144643Y0078439D01*
X0144564Y0078399D01*
X0144484Y0078362D01*
X0144402Y0078330D01*
X0144318Y0078300D01*
X0144234Y0078275D01*
X0144148Y0078253D01*
X0144062Y0078236D01*
X0143974Y0078222D01*
X0143886Y0078212D01*
X0143798Y0078206D01*
X0143710Y0078204D01*
X0143622Y0078206D01*
X0143534Y0078212D01*
X0143446Y0078222D01*
X0143358Y0078236D01*
X0143272Y0078253D01*
X0143186Y0078275D01*
X0143102Y0078300D01*
X0143018Y0078330D01*
X0142936Y0078362D01*
X0142856Y0078399D01*
X0142777Y0078439D01*
X0142700Y0078483D01*
X0142625Y0078530D01*
X0142553Y0078580D01*
X0142482Y0078634D01*
X0142415Y0078690D01*
X0142349Y0078750D01*
X0142287Y0078812D01*
X0142227Y0078878D01*
X0142171Y0078945D01*
X0142117Y0079016D01*
X0142067Y0079088D01*
X0142020Y0079163D01*
X0141976Y0079240D01*
X0141936Y0079319D01*
X0141899Y0079399D01*
X0141867Y0079481D01*
X0141837Y0079565D01*
X0141812Y0079649D01*
X0141790Y0079735D01*
X0141773Y0079821D01*
X0141759Y0079909D01*
X0141749Y0079997D01*
X0141743Y0080085D01*
X0141741Y0080173D01*
D17*
X0143710Y0075173D02*
X0141210Y0072673D01*
X0143710Y0070173D02*
X0143710Y0075173D01*
X0146210Y0072673D01*
X0164832Y0118205D02*
X0164832Y0123205D01*
X0162332Y0120705D01*
X0164832Y0123205D02*
X0167332Y0120705D01*
X0189379Y0075173D02*
X0186879Y0072673D01*
X0189379Y0070173D02*
X0189379Y0075173D01*
X0191879Y0072673D01*
X0219950Y0141827D02*
X0219950Y0146827D01*
X0217450Y0144327D01*
X0219950Y0146827D02*
X0222450Y0144327D01*
X0260757Y0104957D02*
X0263257Y0107457D01*
X0265757Y0104957D01*
X0263257Y0102457D02*
X0263257Y0107457D01*
X0275265Y0159504D02*
X0275265Y0164504D01*
X0272765Y0162004D01*
X0275265Y0164504D02*
X0277765Y0162004D01*
X0234261Y0203382D02*
X0231761Y0205882D01*
X0229261Y0203382D01*
X0231761Y0200882D02*
X0231761Y0205882D01*
X0179143Y0179760D02*
X0176643Y0182260D01*
X0174143Y0179760D01*
X0176643Y0177260D02*
X0176643Y0182260D01*
X0118848Y0162417D02*
X0113848Y0162417D01*
X0116348Y0159917D01*
X0113848Y0162417D02*
X0116348Y0164917D01*
X0087352Y0193913D02*
X0082352Y0193913D01*
X0084852Y0191413D01*
X0082352Y0193913D02*
X0084852Y0196413D01*
X0055856Y0162417D02*
X0050856Y0162417D01*
X0053356Y0159917D01*
X0050856Y0162417D02*
X0053356Y0164917D01*
X0069852Y0133421D02*
X0072352Y0130921D01*
X0069852Y0128421D01*
X0067352Y0130921D02*
X0072352Y0130921D01*
D18*
X0071052Y0052181D02*
X0069084Y0052181D01*
X0069084Y0033283D01*
X0071052Y0033283D01*
X0084045Y0033283D01*
X0084045Y0052181D01*
X0071052Y0052181D01*
X0185816Y0229740D02*
X0201564Y0229740D01*
X0209438Y0245488D02*
X0209438Y0259268D01*
X0206289Y0259268D01*
X0206289Y0249425D01*
X0201564Y0249425D01*
X0185816Y0249425D02*
X0181092Y0249425D01*
X0181092Y0259268D01*
X0177942Y0259268D01*
X0177942Y0245488D01*
X0216781Y0047732D02*
X0214281Y0045232D01*
X0214281Y0040232D01*
X0216781Y0037732D01*
X0214281Y0035232D01*
X0214281Y0030232D01*
X0216781Y0027732D01*
X0221781Y0027732D01*
X0224281Y0030232D01*
X0224281Y0035232D01*
X0221781Y0037732D01*
X0224281Y0040232D01*
X0224281Y0045232D01*
X0221781Y0047732D01*
X0216781Y0047732D01*
D19*
X0080495Y0061506D03*
X0080495Y0067306D03*
X0072239Y0067265D03*
X0072239Y0061465D03*
D20*
X0189363Y0235001D02*
X0189863Y0235001D01*
X0190114Y0235251D01*
X0189613Y0235752D02*
X0189363Y0235752D01*
X0189113Y0235502D01*
X0189113Y0235251D01*
X0189363Y0235001D01*
X0189363Y0235752D02*
X0189113Y0236002D01*
X0189113Y0236252D01*
X0189363Y0236502D01*
X0189863Y0236502D01*
X0190114Y0236252D01*
X0190586Y0236502D02*
X0191086Y0236502D01*
X0190836Y0236502D02*
X0190836Y0235251D01*
X0191086Y0235001D01*
X0191337Y0235001D01*
X0191587Y0235251D01*
D21*
X0049005Y0354937D02*
X0049005Y0358874D01*
X0048934Y0354965D02*
X0045068Y0354965D01*
X0045068Y0354937D01*
X0033257Y0354937D02*
X0029320Y0354937D01*
X0049005Y0382496D02*
X0049005Y0386433D01*
X0045068Y0386433D01*
X0033257Y0386433D02*
X0029320Y0386433D01*
D22*
X0101203Y0050600D03*
X0107003Y0050600D03*
M02*
