%
M48
M72
T01C0.01378
T02C0.03346
T03C0.03543
T04C0.03937
T05C0.04000
T06C0.04724
T07C0.05118
T08C0.06299
%
T01
X155304Y60449
X167115Y64386
X218297Y89976
X193690Y137220
X245856Y160843
X279320Y139189
X291131Y194307
X247824Y233677
X204517Y196276
X159241Y99819
X80501Y60449
X56879Y60449
X92312Y217929
X119871Y217929
X60816Y312614
X56879Y359661
X56879Y371472
X45068Y399031
X60816Y450213
X81486Y450213
X89942Y375409
X99942Y375409
X110029Y375409
X119871Y375409
X147430Y383283
X169942Y351000
X164342Y344701
X159241Y338402
X174989Y335252
X179942Y347850
X190738Y357299
X194675Y341551
X184832Y383283
X269478Y357299
T02
X45856Y363205
X45856Y378165
T03
X66722Y469898
X78533Y469898
T04
X45856Y162417
X77352Y130921
X108848Y162417
X143710Y80173
X164832Y128205
X176643Y187260
X219950Y151827
X231761Y210882
X275265Y169504
X263257Y112457
X189379Y80173
X77352Y193913
T05
X215344Y34858
X215344Y24858
T06
X183257Y50606
X163572Y30921
X163572Y21079
X202942Y21079
X202942Y30921
T07
X163572Y50606
X173415Y50606
X193100Y50606
X202942Y50606
X183257Y30921
T08
X31289Y292929
X31289Y332299
M30
