G75*
%MOIN*%
%OFA0B0*%
%FSLAX25Y25*%
%IPPOS*%
%LPD*%
%AMOC8*
5,1,8,0,0,1.08239X$1,22.5*
%
%ADD10C,0.00000*%
%ADD11C,0.00800*%
%ADD12C,0.00800*%
%ADD13C,0.07400*%
%ADD14C,0.04000*%
%ADD15C,0.05543*%
%ADD16C,0.01602*%
%ADD17C,0.01606*%
%ADD18C,0.01000*%
%ADD19C,0.03569*%
D10*
X0010874Y0042870D02*
X0069929Y0042870D01*
X0069929Y0011374D01*
X0069931Y0011184D01*
X0069938Y0010994D01*
X0069950Y0010804D01*
X0069966Y0010614D01*
X0069986Y0010425D01*
X0070012Y0010236D01*
X0070041Y0010048D01*
X0070076Y0009861D01*
X0070115Y0009675D01*
X0070158Y0009490D01*
X0070206Y0009305D01*
X0070258Y0009122D01*
X0070314Y0008941D01*
X0070375Y0008761D01*
X0070441Y0008582D01*
X0070510Y0008405D01*
X0070584Y0008229D01*
X0070662Y0008056D01*
X0070745Y0007884D01*
X0070831Y0007715D01*
X0070921Y0007547D01*
X0071016Y0007382D01*
X0071114Y0007219D01*
X0071217Y0007059D01*
X0071323Y0006901D01*
X0071433Y0006746D01*
X0071546Y0006593D01*
X0071664Y0006443D01*
X0071785Y0006297D01*
X0071909Y0006153D01*
X0072037Y0006012D01*
X0072168Y0005874D01*
X0072303Y0005739D01*
X0072441Y0005608D01*
X0072582Y0005480D01*
X0072726Y0005356D01*
X0072872Y0005235D01*
X0073022Y0005117D01*
X0073175Y0005004D01*
X0073330Y0004894D01*
X0073488Y0004788D01*
X0073648Y0004685D01*
X0073811Y0004587D01*
X0073976Y0004492D01*
X0074144Y0004402D01*
X0074313Y0004316D01*
X0074485Y0004233D01*
X0074658Y0004155D01*
X0074834Y0004081D01*
X0075011Y0004012D01*
X0075190Y0003946D01*
X0075370Y0003885D01*
X0075551Y0003829D01*
X0075734Y0003777D01*
X0075919Y0003729D01*
X0076104Y0003686D01*
X0076290Y0003647D01*
X0076477Y0003612D01*
X0076665Y0003583D01*
X0076854Y0003557D01*
X0077043Y0003537D01*
X0077233Y0003521D01*
X0077423Y0003509D01*
X0077613Y0003502D01*
X0077803Y0003500D01*
X0191976Y0003500D01*
X0192166Y0003502D01*
X0192356Y0003509D01*
X0192546Y0003521D01*
X0192736Y0003537D01*
X0192925Y0003557D01*
X0193114Y0003583D01*
X0193302Y0003612D01*
X0193489Y0003647D01*
X0193675Y0003686D01*
X0193860Y0003729D01*
X0194045Y0003777D01*
X0194228Y0003829D01*
X0194409Y0003885D01*
X0194589Y0003946D01*
X0194768Y0004012D01*
X0194945Y0004081D01*
X0195121Y0004155D01*
X0195294Y0004233D01*
X0195466Y0004316D01*
X0195635Y0004402D01*
X0195803Y0004492D01*
X0195968Y0004587D01*
X0196131Y0004685D01*
X0196291Y0004788D01*
X0196449Y0004894D01*
X0196604Y0005004D01*
X0196757Y0005117D01*
X0196907Y0005235D01*
X0197053Y0005356D01*
X0197197Y0005480D01*
X0197338Y0005608D01*
X0197476Y0005739D01*
X0197611Y0005874D01*
X0197742Y0006012D01*
X0197870Y0006153D01*
X0197994Y0006297D01*
X0198115Y0006443D01*
X0198233Y0006593D01*
X0198346Y0006746D01*
X0198456Y0006901D01*
X0198562Y0007059D01*
X0198665Y0007219D01*
X0198763Y0007382D01*
X0198858Y0007547D01*
X0198948Y0007715D01*
X0199034Y0007884D01*
X0199117Y0008056D01*
X0199195Y0008229D01*
X0199269Y0008405D01*
X0199338Y0008582D01*
X0199404Y0008761D01*
X0199465Y0008941D01*
X0199521Y0009122D01*
X0199573Y0009305D01*
X0199621Y0009490D01*
X0199664Y0009675D01*
X0199703Y0009861D01*
X0199738Y0010048D01*
X0199767Y0010236D01*
X0199793Y0010425D01*
X0199813Y0010614D01*
X0199829Y0010804D01*
X0199841Y0010994D01*
X0199848Y0011184D01*
X0199850Y0011374D01*
X0199850Y0042870D01*
X0270717Y0042870D01*
X0270907Y0042872D01*
X0271097Y0042879D01*
X0271287Y0042891D01*
X0271477Y0042907D01*
X0271666Y0042927D01*
X0271855Y0042953D01*
X0272043Y0042982D01*
X0272230Y0043017D01*
X0272416Y0043056D01*
X0272601Y0043099D01*
X0272786Y0043147D01*
X0272969Y0043199D01*
X0273150Y0043255D01*
X0273330Y0043316D01*
X0273509Y0043382D01*
X0273686Y0043451D01*
X0273862Y0043525D01*
X0274035Y0043603D01*
X0274207Y0043686D01*
X0274376Y0043772D01*
X0274544Y0043862D01*
X0274709Y0043957D01*
X0274872Y0044055D01*
X0275032Y0044158D01*
X0275190Y0044264D01*
X0275345Y0044374D01*
X0275498Y0044487D01*
X0275648Y0044605D01*
X0275794Y0044726D01*
X0275938Y0044850D01*
X0276079Y0044978D01*
X0276217Y0045109D01*
X0276352Y0045244D01*
X0276483Y0045382D01*
X0276611Y0045523D01*
X0276735Y0045667D01*
X0276856Y0045813D01*
X0276974Y0045963D01*
X0277087Y0046116D01*
X0277197Y0046271D01*
X0277303Y0046429D01*
X0277406Y0046589D01*
X0277504Y0046752D01*
X0277599Y0046917D01*
X0277689Y0047085D01*
X0277775Y0047254D01*
X0277858Y0047426D01*
X0277936Y0047599D01*
X0278010Y0047775D01*
X0278079Y0047952D01*
X0278145Y0048131D01*
X0278206Y0048311D01*
X0278262Y0048492D01*
X0278314Y0048675D01*
X0278362Y0048860D01*
X0278405Y0049045D01*
X0278444Y0049231D01*
X0278479Y0049418D01*
X0278508Y0049606D01*
X0278534Y0049795D01*
X0278554Y0049984D01*
X0278570Y0050174D01*
X0278582Y0050364D01*
X0278589Y0050554D01*
X0278591Y0050744D01*
X0278591Y0222004D01*
X0278589Y0222194D01*
X0278582Y0222384D01*
X0278570Y0222574D01*
X0278554Y0222764D01*
X0278534Y0222953D01*
X0278508Y0223142D01*
X0278479Y0223330D01*
X0278444Y0223517D01*
X0278405Y0223703D01*
X0278362Y0223888D01*
X0278314Y0224073D01*
X0278262Y0224256D01*
X0278206Y0224437D01*
X0278145Y0224617D01*
X0278079Y0224796D01*
X0278010Y0224973D01*
X0277936Y0225149D01*
X0277858Y0225322D01*
X0277775Y0225494D01*
X0277689Y0225663D01*
X0277599Y0225831D01*
X0277504Y0225996D01*
X0277406Y0226159D01*
X0277303Y0226319D01*
X0277197Y0226477D01*
X0277087Y0226632D01*
X0276974Y0226785D01*
X0276856Y0226935D01*
X0276735Y0227081D01*
X0276611Y0227225D01*
X0276483Y0227366D01*
X0276352Y0227504D01*
X0276217Y0227639D01*
X0276079Y0227770D01*
X0275938Y0227898D01*
X0275794Y0228022D01*
X0275648Y0228143D01*
X0275498Y0228261D01*
X0275345Y0228374D01*
X0275190Y0228484D01*
X0275032Y0228590D01*
X0274872Y0228693D01*
X0274709Y0228791D01*
X0274544Y0228886D01*
X0274376Y0228976D01*
X0274207Y0229062D01*
X0274035Y0229145D01*
X0273862Y0229223D01*
X0273686Y0229297D01*
X0273509Y0229366D01*
X0273330Y0229432D01*
X0273150Y0229493D01*
X0272969Y0229549D01*
X0272786Y0229601D01*
X0272601Y0229649D01*
X0272416Y0229692D01*
X0272230Y0229731D01*
X0272043Y0229766D01*
X0271855Y0229795D01*
X0271666Y0229821D01*
X0271477Y0229841D01*
X0271287Y0229857D01*
X0271097Y0229869D01*
X0270907Y0229876D01*
X0270717Y0229878D01*
X0010874Y0229878D01*
X0010684Y0229876D01*
X0010494Y0229869D01*
X0010304Y0229857D01*
X0010114Y0229841D01*
X0009925Y0229821D01*
X0009736Y0229795D01*
X0009548Y0229766D01*
X0009361Y0229731D01*
X0009175Y0229692D01*
X0008990Y0229649D01*
X0008805Y0229601D01*
X0008622Y0229549D01*
X0008441Y0229493D01*
X0008261Y0229432D01*
X0008082Y0229366D01*
X0007905Y0229297D01*
X0007729Y0229223D01*
X0007556Y0229145D01*
X0007384Y0229062D01*
X0007215Y0228976D01*
X0007047Y0228886D01*
X0006882Y0228791D01*
X0006719Y0228693D01*
X0006559Y0228590D01*
X0006401Y0228484D01*
X0006246Y0228374D01*
X0006093Y0228261D01*
X0005943Y0228143D01*
X0005797Y0228022D01*
X0005653Y0227898D01*
X0005512Y0227770D01*
X0005374Y0227639D01*
X0005239Y0227504D01*
X0005108Y0227366D01*
X0004980Y0227225D01*
X0004856Y0227081D01*
X0004735Y0226935D01*
X0004617Y0226785D01*
X0004504Y0226632D01*
X0004394Y0226477D01*
X0004288Y0226319D01*
X0004185Y0226159D01*
X0004087Y0225996D01*
X0003992Y0225831D01*
X0003902Y0225663D01*
X0003816Y0225494D01*
X0003733Y0225322D01*
X0003655Y0225149D01*
X0003581Y0224973D01*
X0003512Y0224796D01*
X0003446Y0224617D01*
X0003385Y0224437D01*
X0003329Y0224256D01*
X0003277Y0224073D01*
X0003229Y0223888D01*
X0003186Y0223703D01*
X0003147Y0223517D01*
X0003112Y0223330D01*
X0003083Y0223142D01*
X0003057Y0222953D01*
X0003037Y0222764D01*
X0003021Y0222574D01*
X0003009Y0222384D01*
X0003002Y0222194D01*
X0003000Y0222004D01*
X0003000Y0050744D01*
X0003002Y0050554D01*
X0003009Y0050364D01*
X0003021Y0050174D01*
X0003037Y0049984D01*
X0003057Y0049795D01*
X0003083Y0049606D01*
X0003112Y0049418D01*
X0003147Y0049231D01*
X0003186Y0049045D01*
X0003229Y0048860D01*
X0003277Y0048675D01*
X0003329Y0048492D01*
X0003385Y0048311D01*
X0003446Y0048131D01*
X0003512Y0047952D01*
X0003581Y0047775D01*
X0003655Y0047599D01*
X0003733Y0047426D01*
X0003816Y0047254D01*
X0003902Y0047085D01*
X0003992Y0046917D01*
X0004087Y0046752D01*
X0004185Y0046589D01*
X0004288Y0046429D01*
X0004394Y0046271D01*
X0004504Y0046116D01*
X0004617Y0045963D01*
X0004735Y0045813D01*
X0004856Y0045667D01*
X0004980Y0045523D01*
X0005108Y0045382D01*
X0005239Y0045244D01*
X0005374Y0045109D01*
X0005512Y0044978D01*
X0005653Y0044850D01*
X0005797Y0044726D01*
X0005943Y0044605D01*
X0006093Y0044487D01*
X0006246Y0044374D01*
X0006401Y0044264D01*
X0006559Y0044158D01*
X0006719Y0044055D01*
X0006882Y0043957D01*
X0007047Y0043862D01*
X0007215Y0043772D01*
X0007384Y0043686D01*
X0007556Y0043603D01*
X0007729Y0043525D01*
X0007905Y0043451D01*
X0008082Y0043382D01*
X0008261Y0043316D01*
X0008441Y0043255D01*
X0008622Y0043199D01*
X0008805Y0043147D01*
X0008990Y0043099D01*
X0009175Y0043056D01*
X0009361Y0043017D01*
X0009548Y0042982D01*
X0009736Y0042953D01*
X0009925Y0042927D01*
X0010114Y0042907D01*
X0010304Y0042891D01*
X0010494Y0042879D01*
X0010684Y0042872D01*
X0010874Y0042870D01*
X0007720Y0058618D02*
X0007722Y0058779D01*
X0007728Y0058939D01*
X0007738Y0059100D01*
X0007752Y0059260D01*
X0007770Y0059420D01*
X0007791Y0059579D01*
X0007817Y0059738D01*
X0007847Y0059896D01*
X0007880Y0060053D01*
X0007918Y0060210D01*
X0007959Y0060365D01*
X0008004Y0060519D01*
X0008053Y0060672D01*
X0008106Y0060824D01*
X0008162Y0060975D01*
X0008223Y0061124D01*
X0008286Y0061272D01*
X0008354Y0061418D01*
X0008425Y0061562D01*
X0008499Y0061704D01*
X0008577Y0061845D01*
X0008659Y0061983D01*
X0008744Y0062120D01*
X0008832Y0062254D01*
X0008924Y0062386D01*
X0009019Y0062516D01*
X0009117Y0062644D01*
X0009218Y0062769D01*
X0009322Y0062891D01*
X0009429Y0063011D01*
X0009539Y0063128D01*
X0009652Y0063243D01*
X0009768Y0063354D01*
X0009887Y0063463D01*
X0010008Y0063568D01*
X0010132Y0063671D01*
X0010258Y0063771D01*
X0010386Y0063867D01*
X0010517Y0063960D01*
X0010651Y0064050D01*
X0010786Y0064137D01*
X0010924Y0064220D01*
X0011063Y0064300D01*
X0011205Y0064376D01*
X0011348Y0064449D01*
X0011493Y0064518D01*
X0011640Y0064584D01*
X0011788Y0064646D01*
X0011938Y0064704D01*
X0012089Y0064759D01*
X0012242Y0064810D01*
X0012396Y0064857D01*
X0012551Y0064900D01*
X0012707Y0064939D01*
X0012863Y0064975D01*
X0013021Y0065006D01*
X0013179Y0065034D01*
X0013338Y0065058D01*
X0013498Y0065078D01*
X0013658Y0065094D01*
X0013818Y0065106D01*
X0013979Y0065114D01*
X0014140Y0065118D01*
X0014300Y0065118D01*
X0014461Y0065114D01*
X0014622Y0065106D01*
X0014782Y0065094D01*
X0014942Y0065078D01*
X0015102Y0065058D01*
X0015261Y0065034D01*
X0015419Y0065006D01*
X0015577Y0064975D01*
X0015733Y0064939D01*
X0015889Y0064900D01*
X0016044Y0064857D01*
X0016198Y0064810D01*
X0016351Y0064759D01*
X0016502Y0064704D01*
X0016652Y0064646D01*
X0016800Y0064584D01*
X0016947Y0064518D01*
X0017092Y0064449D01*
X0017235Y0064376D01*
X0017377Y0064300D01*
X0017516Y0064220D01*
X0017654Y0064137D01*
X0017789Y0064050D01*
X0017923Y0063960D01*
X0018054Y0063867D01*
X0018182Y0063771D01*
X0018308Y0063671D01*
X0018432Y0063568D01*
X0018553Y0063463D01*
X0018672Y0063354D01*
X0018788Y0063243D01*
X0018901Y0063128D01*
X0019011Y0063011D01*
X0019118Y0062891D01*
X0019222Y0062769D01*
X0019323Y0062644D01*
X0019421Y0062516D01*
X0019516Y0062386D01*
X0019608Y0062254D01*
X0019696Y0062120D01*
X0019781Y0061983D01*
X0019863Y0061845D01*
X0019941Y0061704D01*
X0020015Y0061562D01*
X0020086Y0061418D01*
X0020154Y0061272D01*
X0020217Y0061124D01*
X0020278Y0060975D01*
X0020334Y0060824D01*
X0020387Y0060672D01*
X0020436Y0060519D01*
X0020481Y0060365D01*
X0020522Y0060210D01*
X0020560Y0060053D01*
X0020593Y0059896D01*
X0020623Y0059738D01*
X0020649Y0059579D01*
X0020670Y0059420D01*
X0020688Y0059260D01*
X0020702Y0059100D01*
X0020712Y0058939D01*
X0020718Y0058779D01*
X0020720Y0058618D01*
X0020718Y0058457D01*
X0020712Y0058297D01*
X0020702Y0058136D01*
X0020688Y0057976D01*
X0020670Y0057816D01*
X0020649Y0057657D01*
X0020623Y0057498D01*
X0020593Y0057340D01*
X0020560Y0057183D01*
X0020522Y0057026D01*
X0020481Y0056871D01*
X0020436Y0056717D01*
X0020387Y0056564D01*
X0020334Y0056412D01*
X0020278Y0056261D01*
X0020217Y0056112D01*
X0020154Y0055964D01*
X0020086Y0055818D01*
X0020015Y0055674D01*
X0019941Y0055532D01*
X0019863Y0055391D01*
X0019781Y0055253D01*
X0019696Y0055116D01*
X0019608Y0054982D01*
X0019516Y0054850D01*
X0019421Y0054720D01*
X0019323Y0054592D01*
X0019222Y0054467D01*
X0019118Y0054345D01*
X0019011Y0054225D01*
X0018901Y0054108D01*
X0018788Y0053993D01*
X0018672Y0053882D01*
X0018553Y0053773D01*
X0018432Y0053668D01*
X0018308Y0053565D01*
X0018182Y0053465D01*
X0018054Y0053369D01*
X0017923Y0053276D01*
X0017789Y0053186D01*
X0017654Y0053099D01*
X0017516Y0053016D01*
X0017377Y0052936D01*
X0017235Y0052860D01*
X0017092Y0052787D01*
X0016947Y0052718D01*
X0016800Y0052652D01*
X0016652Y0052590D01*
X0016502Y0052532D01*
X0016351Y0052477D01*
X0016198Y0052426D01*
X0016044Y0052379D01*
X0015889Y0052336D01*
X0015733Y0052297D01*
X0015577Y0052261D01*
X0015419Y0052230D01*
X0015261Y0052202D01*
X0015102Y0052178D01*
X0014942Y0052158D01*
X0014782Y0052142D01*
X0014622Y0052130D01*
X0014461Y0052122D01*
X0014300Y0052118D01*
X0014140Y0052118D01*
X0013979Y0052122D01*
X0013818Y0052130D01*
X0013658Y0052142D01*
X0013498Y0052158D01*
X0013338Y0052178D01*
X0013179Y0052202D01*
X0013021Y0052230D01*
X0012863Y0052261D01*
X0012707Y0052297D01*
X0012551Y0052336D01*
X0012396Y0052379D01*
X0012242Y0052426D01*
X0012089Y0052477D01*
X0011938Y0052532D01*
X0011788Y0052590D01*
X0011640Y0052652D01*
X0011493Y0052718D01*
X0011348Y0052787D01*
X0011205Y0052860D01*
X0011063Y0052936D01*
X0010924Y0053016D01*
X0010786Y0053099D01*
X0010651Y0053186D01*
X0010517Y0053276D01*
X0010386Y0053369D01*
X0010258Y0053465D01*
X0010132Y0053565D01*
X0010008Y0053668D01*
X0009887Y0053773D01*
X0009768Y0053882D01*
X0009652Y0053993D01*
X0009539Y0054108D01*
X0009429Y0054225D01*
X0009322Y0054345D01*
X0009218Y0054467D01*
X0009117Y0054592D01*
X0009019Y0054720D01*
X0008924Y0054850D01*
X0008832Y0054982D01*
X0008744Y0055116D01*
X0008659Y0055253D01*
X0008577Y0055391D01*
X0008499Y0055532D01*
X0008425Y0055674D01*
X0008354Y0055818D01*
X0008286Y0055964D01*
X0008223Y0056112D01*
X0008162Y0056261D01*
X0008106Y0056412D01*
X0008053Y0056564D01*
X0008004Y0056717D01*
X0007959Y0056871D01*
X0007918Y0057026D01*
X0007880Y0057183D01*
X0007847Y0057340D01*
X0007817Y0057498D01*
X0007791Y0057657D01*
X0007770Y0057816D01*
X0007752Y0057976D01*
X0007738Y0058136D01*
X0007728Y0058297D01*
X0007722Y0058457D01*
X0007720Y0058618D01*
X0082524Y0050744D02*
X0082526Y0050905D01*
X0082532Y0051065D01*
X0082542Y0051226D01*
X0082556Y0051386D01*
X0082574Y0051546D01*
X0082595Y0051705D01*
X0082621Y0051864D01*
X0082651Y0052022D01*
X0082684Y0052179D01*
X0082722Y0052336D01*
X0082763Y0052491D01*
X0082808Y0052645D01*
X0082857Y0052798D01*
X0082910Y0052950D01*
X0082966Y0053101D01*
X0083027Y0053250D01*
X0083090Y0053398D01*
X0083158Y0053544D01*
X0083229Y0053688D01*
X0083303Y0053830D01*
X0083381Y0053971D01*
X0083463Y0054109D01*
X0083548Y0054246D01*
X0083636Y0054380D01*
X0083728Y0054512D01*
X0083823Y0054642D01*
X0083921Y0054770D01*
X0084022Y0054895D01*
X0084126Y0055017D01*
X0084233Y0055137D01*
X0084343Y0055254D01*
X0084456Y0055369D01*
X0084572Y0055480D01*
X0084691Y0055589D01*
X0084812Y0055694D01*
X0084936Y0055797D01*
X0085062Y0055897D01*
X0085190Y0055993D01*
X0085321Y0056086D01*
X0085455Y0056176D01*
X0085590Y0056263D01*
X0085728Y0056346D01*
X0085867Y0056426D01*
X0086009Y0056502D01*
X0086152Y0056575D01*
X0086297Y0056644D01*
X0086444Y0056710D01*
X0086592Y0056772D01*
X0086742Y0056830D01*
X0086893Y0056885D01*
X0087046Y0056936D01*
X0087200Y0056983D01*
X0087355Y0057026D01*
X0087511Y0057065D01*
X0087667Y0057101D01*
X0087825Y0057132D01*
X0087983Y0057160D01*
X0088142Y0057184D01*
X0088302Y0057204D01*
X0088462Y0057220D01*
X0088622Y0057232D01*
X0088783Y0057240D01*
X0088944Y0057244D01*
X0089104Y0057244D01*
X0089265Y0057240D01*
X0089426Y0057232D01*
X0089586Y0057220D01*
X0089746Y0057204D01*
X0089906Y0057184D01*
X0090065Y0057160D01*
X0090223Y0057132D01*
X0090381Y0057101D01*
X0090537Y0057065D01*
X0090693Y0057026D01*
X0090848Y0056983D01*
X0091002Y0056936D01*
X0091155Y0056885D01*
X0091306Y0056830D01*
X0091456Y0056772D01*
X0091604Y0056710D01*
X0091751Y0056644D01*
X0091896Y0056575D01*
X0092039Y0056502D01*
X0092181Y0056426D01*
X0092320Y0056346D01*
X0092458Y0056263D01*
X0092593Y0056176D01*
X0092727Y0056086D01*
X0092858Y0055993D01*
X0092986Y0055897D01*
X0093112Y0055797D01*
X0093236Y0055694D01*
X0093357Y0055589D01*
X0093476Y0055480D01*
X0093592Y0055369D01*
X0093705Y0055254D01*
X0093815Y0055137D01*
X0093922Y0055017D01*
X0094026Y0054895D01*
X0094127Y0054770D01*
X0094225Y0054642D01*
X0094320Y0054512D01*
X0094412Y0054380D01*
X0094500Y0054246D01*
X0094585Y0054109D01*
X0094667Y0053971D01*
X0094745Y0053830D01*
X0094819Y0053688D01*
X0094890Y0053544D01*
X0094958Y0053398D01*
X0095021Y0053250D01*
X0095082Y0053101D01*
X0095138Y0052950D01*
X0095191Y0052798D01*
X0095240Y0052645D01*
X0095285Y0052491D01*
X0095326Y0052336D01*
X0095364Y0052179D01*
X0095397Y0052022D01*
X0095427Y0051864D01*
X0095453Y0051705D01*
X0095474Y0051546D01*
X0095492Y0051386D01*
X0095506Y0051226D01*
X0095516Y0051065D01*
X0095522Y0050905D01*
X0095524Y0050744D01*
X0095522Y0050583D01*
X0095516Y0050423D01*
X0095506Y0050262D01*
X0095492Y0050102D01*
X0095474Y0049942D01*
X0095453Y0049783D01*
X0095427Y0049624D01*
X0095397Y0049466D01*
X0095364Y0049309D01*
X0095326Y0049152D01*
X0095285Y0048997D01*
X0095240Y0048843D01*
X0095191Y0048690D01*
X0095138Y0048538D01*
X0095082Y0048387D01*
X0095021Y0048238D01*
X0094958Y0048090D01*
X0094890Y0047944D01*
X0094819Y0047800D01*
X0094745Y0047658D01*
X0094667Y0047517D01*
X0094585Y0047379D01*
X0094500Y0047242D01*
X0094412Y0047108D01*
X0094320Y0046976D01*
X0094225Y0046846D01*
X0094127Y0046718D01*
X0094026Y0046593D01*
X0093922Y0046471D01*
X0093815Y0046351D01*
X0093705Y0046234D01*
X0093592Y0046119D01*
X0093476Y0046008D01*
X0093357Y0045899D01*
X0093236Y0045794D01*
X0093112Y0045691D01*
X0092986Y0045591D01*
X0092858Y0045495D01*
X0092727Y0045402D01*
X0092593Y0045312D01*
X0092458Y0045225D01*
X0092320Y0045142D01*
X0092181Y0045062D01*
X0092039Y0044986D01*
X0091896Y0044913D01*
X0091751Y0044844D01*
X0091604Y0044778D01*
X0091456Y0044716D01*
X0091306Y0044658D01*
X0091155Y0044603D01*
X0091002Y0044552D01*
X0090848Y0044505D01*
X0090693Y0044462D01*
X0090537Y0044423D01*
X0090381Y0044387D01*
X0090223Y0044356D01*
X0090065Y0044328D01*
X0089906Y0044304D01*
X0089746Y0044284D01*
X0089586Y0044268D01*
X0089426Y0044256D01*
X0089265Y0044248D01*
X0089104Y0044244D01*
X0088944Y0044244D01*
X0088783Y0044248D01*
X0088622Y0044256D01*
X0088462Y0044268D01*
X0088302Y0044284D01*
X0088142Y0044304D01*
X0087983Y0044328D01*
X0087825Y0044356D01*
X0087667Y0044387D01*
X0087511Y0044423D01*
X0087355Y0044462D01*
X0087200Y0044505D01*
X0087046Y0044552D01*
X0086893Y0044603D01*
X0086742Y0044658D01*
X0086592Y0044716D01*
X0086444Y0044778D01*
X0086297Y0044844D01*
X0086152Y0044913D01*
X0086009Y0044986D01*
X0085867Y0045062D01*
X0085728Y0045142D01*
X0085590Y0045225D01*
X0085455Y0045312D01*
X0085321Y0045402D01*
X0085190Y0045495D01*
X0085062Y0045591D01*
X0084936Y0045691D01*
X0084812Y0045794D01*
X0084691Y0045899D01*
X0084572Y0046008D01*
X0084456Y0046119D01*
X0084343Y0046234D01*
X0084233Y0046351D01*
X0084126Y0046471D01*
X0084022Y0046593D01*
X0083921Y0046718D01*
X0083823Y0046846D01*
X0083728Y0046976D01*
X0083636Y0047108D01*
X0083548Y0047242D01*
X0083463Y0047379D01*
X0083381Y0047517D01*
X0083303Y0047658D01*
X0083229Y0047800D01*
X0083158Y0047944D01*
X0083090Y0048090D01*
X0083027Y0048238D01*
X0082966Y0048387D01*
X0082910Y0048538D01*
X0082857Y0048690D01*
X0082808Y0048843D01*
X0082763Y0048997D01*
X0082722Y0049152D01*
X0082684Y0049309D01*
X0082651Y0049466D01*
X0082621Y0049624D01*
X0082595Y0049783D01*
X0082574Y0049942D01*
X0082556Y0050102D01*
X0082542Y0050262D01*
X0082532Y0050423D01*
X0082526Y0050583D01*
X0082524Y0050744D01*
X0090398Y0070429D02*
X0090400Y0070590D01*
X0090406Y0070750D01*
X0090416Y0070911D01*
X0090430Y0071071D01*
X0090448Y0071231D01*
X0090469Y0071390D01*
X0090495Y0071549D01*
X0090525Y0071707D01*
X0090558Y0071864D01*
X0090596Y0072021D01*
X0090637Y0072176D01*
X0090682Y0072330D01*
X0090731Y0072483D01*
X0090784Y0072635D01*
X0090840Y0072786D01*
X0090901Y0072935D01*
X0090964Y0073083D01*
X0091032Y0073229D01*
X0091103Y0073373D01*
X0091177Y0073515D01*
X0091255Y0073656D01*
X0091337Y0073794D01*
X0091422Y0073931D01*
X0091510Y0074065D01*
X0091602Y0074197D01*
X0091697Y0074327D01*
X0091795Y0074455D01*
X0091896Y0074580D01*
X0092000Y0074702D01*
X0092107Y0074822D01*
X0092217Y0074939D01*
X0092330Y0075054D01*
X0092446Y0075165D01*
X0092565Y0075274D01*
X0092686Y0075379D01*
X0092810Y0075482D01*
X0092936Y0075582D01*
X0093064Y0075678D01*
X0093195Y0075771D01*
X0093329Y0075861D01*
X0093464Y0075948D01*
X0093602Y0076031D01*
X0093741Y0076111D01*
X0093883Y0076187D01*
X0094026Y0076260D01*
X0094171Y0076329D01*
X0094318Y0076395D01*
X0094466Y0076457D01*
X0094616Y0076515D01*
X0094767Y0076570D01*
X0094920Y0076621D01*
X0095074Y0076668D01*
X0095229Y0076711D01*
X0095385Y0076750D01*
X0095541Y0076786D01*
X0095699Y0076817D01*
X0095857Y0076845D01*
X0096016Y0076869D01*
X0096176Y0076889D01*
X0096336Y0076905D01*
X0096496Y0076917D01*
X0096657Y0076925D01*
X0096818Y0076929D01*
X0096978Y0076929D01*
X0097139Y0076925D01*
X0097300Y0076917D01*
X0097460Y0076905D01*
X0097620Y0076889D01*
X0097780Y0076869D01*
X0097939Y0076845D01*
X0098097Y0076817D01*
X0098255Y0076786D01*
X0098411Y0076750D01*
X0098567Y0076711D01*
X0098722Y0076668D01*
X0098876Y0076621D01*
X0099029Y0076570D01*
X0099180Y0076515D01*
X0099330Y0076457D01*
X0099478Y0076395D01*
X0099625Y0076329D01*
X0099770Y0076260D01*
X0099913Y0076187D01*
X0100055Y0076111D01*
X0100194Y0076031D01*
X0100332Y0075948D01*
X0100467Y0075861D01*
X0100601Y0075771D01*
X0100732Y0075678D01*
X0100860Y0075582D01*
X0100986Y0075482D01*
X0101110Y0075379D01*
X0101231Y0075274D01*
X0101350Y0075165D01*
X0101466Y0075054D01*
X0101579Y0074939D01*
X0101689Y0074822D01*
X0101796Y0074702D01*
X0101900Y0074580D01*
X0102001Y0074455D01*
X0102099Y0074327D01*
X0102194Y0074197D01*
X0102286Y0074065D01*
X0102374Y0073931D01*
X0102459Y0073794D01*
X0102541Y0073656D01*
X0102619Y0073515D01*
X0102693Y0073373D01*
X0102764Y0073229D01*
X0102832Y0073083D01*
X0102895Y0072935D01*
X0102956Y0072786D01*
X0103012Y0072635D01*
X0103065Y0072483D01*
X0103114Y0072330D01*
X0103159Y0072176D01*
X0103200Y0072021D01*
X0103238Y0071864D01*
X0103271Y0071707D01*
X0103301Y0071549D01*
X0103327Y0071390D01*
X0103348Y0071231D01*
X0103366Y0071071D01*
X0103380Y0070911D01*
X0103390Y0070750D01*
X0103396Y0070590D01*
X0103398Y0070429D01*
X0103396Y0070268D01*
X0103390Y0070108D01*
X0103380Y0069947D01*
X0103366Y0069787D01*
X0103348Y0069627D01*
X0103327Y0069468D01*
X0103301Y0069309D01*
X0103271Y0069151D01*
X0103238Y0068994D01*
X0103200Y0068837D01*
X0103159Y0068682D01*
X0103114Y0068528D01*
X0103065Y0068375D01*
X0103012Y0068223D01*
X0102956Y0068072D01*
X0102895Y0067923D01*
X0102832Y0067775D01*
X0102764Y0067629D01*
X0102693Y0067485D01*
X0102619Y0067343D01*
X0102541Y0067202D01*
X0102459Y0067064D01*
X0102374Y0066927D01*
X0102286Y0066793D01*
X0102194Y0066661D01*
X0102099Y0066531D01*
X0102001Y0066403D01*
X0101900Y0066278D01*
X0101796Y0066156D01*
X0101689Y0066036D01*
X0101579Y0065919D01*
X0101466Y0065804D01*
X0101350Y0065693D01*
X0101231Y0065584D01*
X0101110Y0065479D01*
X0100986Y0065376D01*
X0100860Y0065276D01*
X0100732Y0065180D01*
X0100601Y0065087D01*
X0100467Y0064997D01*
X0100332Y0064910D01*
X0100194Y0064827D01*
X0100055Y0064747D01*
X0099913Y0064671D01*
X0099770Y0064598D01*
X0099625Y0064529D01*
X0099478Y0064463D01*
X0099330Y0064401D01*
X0099180Y0064343D01*
X0099029Y0064288D01*
X0098876Y0064237D01*
X0098722Y0064190D01*
X0098567Y0064147D01*
X0098411Y0064108D01*
X0098255Y0064072D01*
X0098097Y0064041D01*
X0097939Y0064013D01*
X0097780Y0063989D01*
X0097620Y0063969D01*
X0097460Y0063953D01*
X0097300Y0063941D01*
X0097139Y0063933D01*
X0096978Y0063929D01*
X0096818Y0063929D01*
X0096657Y0063933D01*
X0096496Y0063941D01*
X0096336Y0063953D01*
X0096176Y0063969D01*
X0096016Y0063989D01*
X0095857Y0064013D01*
X0095699Y0064041D01*
X0095541Y0064072D01*
X0095385Y0064108D01*
X0095229Y0064147D01*
X0095074Y0064190D01*
X0094920Y0064237D01*
X0094767Y0064288D01*
X0094616Y0064343D01*
X0094466Y0064401D01*
X0094318Y0064463D01*
X0094171Y0064529D01*
X0094026Y0064598D01*
X0093883Y0064671D01*
X0093741Y0064747D01*
X0093602Y0064827D01*
X0093464Y0064910D01*
X0093329Y0064997D01*
X0093195Y0065087D01*
X0093064Y0065180D01*
X0092936Y0065276D01*
X0092810Y0065376D01*
X0092686Y0065479D01*
X0092565Y0065584D01*
X0092446Y0065693D01*
X0092330Y0065804D01*
X0092217Y0065919D01*
X0092107Y0066036D01*
X0092000Y0066156D01*
X0091896Y0066278D01*
X0091795Y0066403D01*
X0091697Y0066531D01*
X0091602Y0066661D01*
X0091510Y0066793D01*
X0091422Y0066927D01*
X0091337Y0067064D01*
X0091255Y0067202D01*
X0091177Y0067343D01*
X0091103Y0067485D01*
X0091032Y0067629D01*
X0090964Y0067775D01*
X0090901Y0067923D01*
X0090840Y0068072D01*
X0090784Y0068223D01*
X0090731Y0068375D01*
X0090682Y0068528D01*
X0090637Y0068682D01*
X0090596Y0068837D01*
X0090558Y0068994D01*
X0090525Y0069151D01*
X0090495Y0069309D01*
X0090469Y0069468D01*
X0090448Y0069627D01*
X0090430Y0069787D01*
X0090416Y0069947D01*
X0090406Y0070108D01*
X0090400Y0070268D01*
X0090398Y0070429D01*
X0110083Y0099957D02*
X0110085Y0100118D01*
X0110091Y0100278D01*
X0110101Y0100439D01*
X0110115Y0100599D01*
X0110133Y0100759D01*
X0110154Y0100918D01*
X0110180Y0101077D01*
X0110210Y0101235D01*
X0110243Y0101392D01*
X0110281Y0101549D01*
X0110322Y0101704D01*
X0110367Y0101858D01*
X0110416Y0102011D01*
X0110469Y0102163D01*
X0110525Y0102314D01*
X0110586Y0102463D01*
X0110649Y0102611D01*
X0110717Y0102757D01*
X0110788Y0102901D01*
X0110862Y0103043D01*
X0110940Y0103184D01*
X0111022Y0103322D01*
X0111107Y0103459D01*
X0111195Y0103593D01*
X0111287Y0103725D01*
X0111382Y0103855D01*
X0111480Y0103983D01*
X0111581Y0104108D01*
X0111685Y0104230D01*
X0111792Y0104350D01*
X0111902Y0104467D01*
X0112015Y0104582D01*
X0112131Y0104693D01*
X0112250Y0104802D01*
X0112371Y0104907D01*
X0112495Y0105010D01*
X0112621Y0105110D01*
X0112749Y0105206D01*
X0112880Y0105299D01*
X0113014Y0105389D01*
X0113149Y0105476D01*
X0113287Y0105559D01*
X0113426Y0105639D01*
X0113568Y0105715D01*
X0113711Y0105788D01*
X0113856Y0105857D01*
X0114003Y0105923D01*
X0114151Y0105985D01*
X0114301Y0106043D01*
X0114452Y0106098D01*
X0114605Y0106149D01*
X0114759Y0106196D01*
X0114914Y0106239D01*
X0115070Y0106278D01*
X0115226Y0106314D01*
X0115384Y0106345D01*
X0115542Y0106373D01*
X0115701Y0106397D01*
X0115861Y0106417D01*
X0116021Y0106433D01*
X0116181Y0106445D01*
X0116342Y0106453D01*
X0116503Y0106457D01*
X0116663Y0106457D01*
X0116824Y0106453D01*
X0116985Y0106445D01*
X0117145Y0106433D01*
X0117305Y0106417D01*
X0117465Y0106397D01*
X0117624Y0106373D01*
X0117782Y0106345D01*
X0117940Y0106314D01*
X0118096Y0106278D01*
X0118252Y0106239D01*
X0118407Y0106196D01*
X0118561Y0106149D01*
X0118714Y0106098D01*
X0118865Y0106043D01*
X0119015Y0105985D01*
X0119163Y0105923D01*
X0119310Y0105857D01*
X0119455Y0105788D01*
X0119598Y0105715D01*
X0119740Y0105639D01*
X0119879Y0105559D01*
X0120017Y0105476D01*
X0120152Y0105389D01*
X0120286Y0105299D01*
X0120417Y0105206D01*
X0120545Y0105110D01*
X0120671Y0105010D01*
X0120795Y0104907D01*
X0120916Y0104802D01*
X0121035Y0104693D01*
X0121151Y0104582D01*
X0121264Y0104467D01*
X0121374Y0104350D01*
X0121481Y0104230D01*
X0121585Y0104108D01*
X0121686Y0103983D01*
X0121784Y0103855D01*
X0121879Y0103725D01*
X0121971Y0103593D01*
X0122059Y0103459D01*
X0122144Y0103322D01*
X0122226Y0103184D01*
X0122304Y0103043D01*
X0122378Y0102901D01*
X0122449Y0102757D01*
X0122517Y0102611D01*
X0122580Y0102463D01*
X0122641Y0102314D01*
X0122697Y0102163D01*
X0122750Y0102011D01*
X0122799Y0101858D01*
X0122844Y0101704D01*
X0122885Y0101549D01*
X0122923Y0101392D01*
X0122956Y0101235D01*
X0122986Y0101077D01*
X0123012Y0100918D01*
X0123033Y0100759D01*
X0123051Y0100599D01*
X0123065Y0100439D01*
X0123075Y0100278D01*
X0123081Y0100118D01*
X0123083Y0099957D01*
X0123081Y0099796D01*
X0123075Y0099636D01*
X0123065Y0099475D01*
X0123051Y0099315D01*
X0123033Y0099155D01*
X0123012Y0098996D01*
X0122986Y0098837D01*
X0122956Y0098679D01*
X0122923Y0098522D01*
X0122885Y0098365D01*
X0122844Y0098210D01*
X0122799Y0098056D01*
X0122750Y0097903D01*
X0122697Y0097751D01*
X0122641Y0097600D01*
X0122580Y0097451D01*
X0122517Y0097303D01*
X0122449Y0097157D01*
X0122378Y0097013D01*
X0122304Y0096871D01*
X0122226Y0096730D01*
X0122144Y0096592D01*
X0122059Y0096455D01*
X0121971Y0096321D01*
X0121879Y0096189D01*
X0121784Y0096059D01*
X0121686Y0095931D01*
X0121585Y0095806D01*
X0121481Y0095684D01*
X0121374Y0095564D01*
X0121264Y0095447D01*
X0121151Y0095332D01*
X0121035Y0095221D01*
X0120916Y0095112D01*
X0120795Y0095007D01*
X0120671Y0094904D01*
X0120545Y0094804D01*
X0120417Y0094708D01*
X0120286Y0094615D01*
X0120152Y0094525D01*
X0120017Y0094438D01*
X0119879Y0094355D01*
X0119740Y0094275D01*
X0119598Y0094199D01*
X0119455Y0094126D01*
X0119310Y0094057D01*
X0119163Y0093991D01*
X0119015Y0093929D01*
X0118865Y0093871D01*
X0118714Y0093816D01*
X0118561Y0093765D01*
X0118407Y0093718D01*
X0118252Y0093675D01*
X0118096Y0093636D01*
X0117940Y0093600D01*
X0117782Y0093569D01*
X0117624Y0093541D01*
X0117465Y0093517D01*
X0117305Y0093497D01*
X0117145Y0093481D01*
X0116985Y0093469D01*
X0116824Y0093461D01*
X0116663Y0093457D01*
X0116503Y0093457D01*
X0116342Y0093461D01*
X0116181Y0093469D01*
X0116021Y0093481D01*
X0115861Y0093497D01*
X0115701Y0093517D01*
X0115542Y0093541D01*
X0115384Y0093569D01*
X0115226Y0093600D01*
X0115070Y0093636D01*
X0114914Y0093675D01*
X0114759Y0093718D01*
X0114605Y0093765D01*
X0114452Y0093816D01*
X0114301Y0093871D01*
X0114151Y0093929D01*
X0114003Y0093991D01*
X0113856Y0094057D01*
X0113711Y0094126D01*
X0113568Y0094199D01*
X0113426Y0094275D01*
X0113287Y0094355D01*
X0113149Y0094438D01*
X0113014Y0094525D01*
X0112880Y0094615D01*
X0112749Y0094708D01*
X0112621Y0094804D01*
X0112495Y0094904D01*
X0112371Y0095007D01*
X0112250Y0095112D01*
X0112131Y0095221D01*
X0112015Y0095332D01*
X0111902Y0095447D01*
X0111792Y0095564D01*
X0111685Y0095684D01*
X0111581Y0095806D01*
X0111480Y0095931D01*
X0111382Y0096059D01*
X0111287Y0096189D01*
X0111195Y0096321D01*
X0111107Y0096455D01*
X0111022Y0096592D01*
X0110940Y0096730D01*
X0110862Y0096871D01*
X0110788Y0097013D01*
X0110717Y0097157D01*
X0110649Y0097303D01*
X0110586Y0097451D01*
X0110525Y0097600D01*
X0110469Y0097751D01*
X0110416Y0097903D01*
X0110367Y0098056D01*
X0110322Y0098210D01*
X0110281Y0098365D01*
X0110243Y0098522D01*
X0110210Y0098679D01*
X0110180Y0098837D01*
X0110154Y0098996D01*
X0110133Y0099155D01*
X0110115Y0099315D01*
X0110101Y0099475D01*
X0110091Y0099636D01*
X0110085Y0099796D01*
X0110083Y0099957D01*
X0180949Y0052713D02*
X0180951Y0052874D01*
X0180957Y0053034D01*
X0180967Y0053195D01*
X0180981Y0053355D01*
X0180999Y0053515D01*
X0181020Y0053674D01*
X0181046Y0053833D01*
X0181076Y0053991D01*
X0181109Y0054148D01*
X0181147Y0054305D01*
X0181188Y0054460D01*
X0181233Y0054614D01*
X0181282Y0054767D01*
X0181335Y0054919D01*
X0181391Y0055070D01*
X0181452Y0055219D01*
X0181515Y0055367D01*
X0181583Y0055513D01*
X0181654Y0055657D01*
X0181728Y0055799D01*
X0181806Y0055940D01*
X0181888Y0056078D01*
X0181973Y0056215D01*
X0182061Y0056349D01*
X0182153Y0056481D01*
X0182248Y0056611D01*
X0182346Y0056739D01*
X0182447Y0056864D01*
X0182551Y0056986D01*
X0182658Y0057106D01*
X0182768Y0057223D01*
X0182881Y0057338D01*
X0182997Y0057449D01*
X0183116Y0057558D01*
X0183237Y0057663D01*
X0183361Y0057766D01*
X0183487Y0057866D01*
X0183615Y0057962D01*
X0183746Y0058055D01*
X0183880Y0058145D01*
X0184015Y0058232D01*
X0184153Y0058315D01*
X0184292Y0058395D01*
X0184434Y0058471D01*
X0184577Y0058544D01*
X0184722Y0058613D01*
X0184869Y0058679D01*
X0185017Y0058741D01*
X0185167Y0058799D01*
X0185318Y0058854D01*
X0185471Y0058905D01*
X0185625Y0058952D01*
X0185780Y0058995D01*
X0185936Y0059034D01*
X0186092Y0059070D01*
X0186250Y0059101D01*
X0186408Y0059129D01*
X0186567Y0059153D01*
X0186727Y0059173D01*
X0186887Y0059189D01*
X0187047Y0059201D01*
X0187208Y0059209D01*
X0187369Y0059213D01*
X0187529Y0059213D01*
X0187690Y0059209D01*
X0187851Y0059201D01*
X0188011Y0059189D01*
X0188171Y0059173D01*
X0188331Y0059153D01*
X0188490Y0059129D01*
X0188648Y0059101D01*
X0188806Y0059070D01*
X0188962Y0059034D01*
X0189118Y0058995D01*
X0189273Y0058952D01*
X0189427Y0058905D01*
X0189580Y0058854D01*
X0189731Y0058799D01*
X0189881Y0058741D01*
X0190029Y0058679D01*
X0190176Y0058613D01*
X0190321Y0058544D01*
X0190464Y0058471D01*
X0190606Y0058395D01*
X0190745Y0058315D01*
X0190883Y0058232D01*
X0191018Y0058145D01*
X0191152Y0058055D01*
X0191283Y0057962D01*
X0191411Y0057866D01*
X0191537Y0057766D01*
X0191661Y0057663D01*
X0191782Y0057558D01*
X0191901Y0057449D01*
X0192017Y0057338D01*
X0192130Y0057223D01*
X0192240Y0057106D01*
X0192347Y0056986D01*
X0192451Y0056864D01*
X0192552Y0056739D01*
X0192650Y0056611D01*
X0192745Y0056481D01*
X0192837Y0056349D01*
X0192925Y0056215D01*
X0193010Y0056078D01*
X0193092Y0055940D01*
X0193170Y0055799D01*
X0193244Y0055657D01*
X0193315Y0055513D01*
X0193383Y0055367D01*
X0193446Y0055219D01*
X0193507Y0055070D01*
X0193563Y0054919D01*
X0193616Y0054767D01*
X0193665Y0054614D01*
X0193710Y0054460D01*
X0193751Y0054305D01*
X0193789Y0054148D01*
X0193822Y0053991D01*
X0193852Y0053833D01*
X0193878Y0053674D01*
X0193899Y0053515D01*
X0193917Y0053355D01*
X0193931Y0053195D01*
X0193941Y0053034D01*
X0193947Y0052874D01*
X0193949Y0052713D01*
X0193947Y0052552D01*
X0193941Y0052392D01*
X0193931Y0052231D01*
X0193917Y0052071D01*
X0193899Y0051911D01*
X0193878Y0051752D01*
X0193852Y0051593D01*
X0193822Y0051435D01*
X0193789Y0051278D01*
X0193751Y0051121D01*
X0193710Y0050966D01*
X0193665Y0050812D01*
X0193616Y0050659D01*
X0193563Y0050507D01*
X0193507Y0050356D01*
X0193446Y0050207D01*
X0193383Y0050059D01*
X0193315Y0049913D01*
X0193244Y0049769D01*
X0193170Y0049627D01*
X0193092Y0049486D01*
X0193010Y0049348D01*
X0192925Y0049211D01*
X0192837Y0049077D01*
X0192745Y0048945D01*
X0192650Y0048815D01*
X0192552Y0048687D01*
X0192451Y0048562D01*
X0192347Y0048440D01*
X0192240Y0048320D01*
X0192130Y0048203D01*
X0192017Y0048088D01*
X0191901Y0047977D01*
X0191782Y0047868D01*
X0191661Y0047763D01*
X0191537Y0047660D01*
X0191411Y0047560D01*
X0191283Y0047464D01*
X0191152Y0047371D01*
X0191018Y0047281D01*
X0190883Y0047194D01*
X0190745Y0047111D01*
X0190606Y0047031D01*
X0190464Y0046955D01*
X0190321Y0046882D01*
X0190176Y0046813D01*
X0190029Y0046747D01*
X0189881Y0046685D01*
X0189731Y0046627D01*
X0189580Y0046572D01*
X0189427Y0046521D01*
X0189273Y0046474D01*
X0189118Y0046431D01*
X0188962Y0046392D01*
X0188806Y0046356D01*
X0188648Y0046325D01*
X0188490Y0046297D01*
X0188331Y0046273D01*
X0188171Y0046253D01*
X0188011Y0046237D01*
X0187851Y0046225D01*
X0187690Y0046217D01*
X0187529Y0046213D01*
X0187369Y0046213D01*
X0187208Y0046217D01*
X0187047Y0046225D01*
X0186887Y0046237D01*
X0186727Y0046253D01*
X0186567Y0046273D01*
X0186408Y0046297D01*
X0186250Y0046325D01*
X0186092Y0046356D01*
X0185936Y0046392D01*
X0185780Y0046431D01*
X0185625Y0046474D01*
X0185471Y0046521D01*
X0185318Y0046572D01*
X0185167Y0046627D01*
X0185017Y0046685D01*
X0184869Y0046747D01*
X0184722Y0046813D01*
X0184577Y0046882D01*
X0184434Y0046955D01*
X0184292Y0047031D01*
X0184153Y0047111D01*
X0184015Y0047194D01*
X0183880Y0047281D01*
X0183746Y0047371D01*
X0183615Y0047464D01*
X0183487Y0047560D01*
X0183361Y0047660D01*
X0183237Y0047763D01*
X0183116Y0047868D01*
X0182997Y0047977D01*
X0182881Y0048088D01*
X0182768Y0048203D01*
X0182658Y0048320D01*
X0182551Y0048440D01*
X0182447Y0048562D01*
X0182346Y0048687D01*
X0182248Y0048815D01*
X0182153Y0048945D01*
X0182061Y0049077D01*
X0181973Y0049211D01*
X0181888Y0049348D01*
X0181806Y0049486D01*
X0181728Y0049627D01*
X0181654Y0049769D01*
X0181583Y0049913D01*
X0181515Y0050059D01*
X0181452Y0050207D01*
X0181391Y0050356D01*
X0181335Y0050507D01*
X0181282Y0050659D01*
X0181233Y0050812D01*
X0181188Y0050966D01*
X0181147Y0051121D01*
X0181109Y0051278D01*
X0181076Y0051435D01*
X0181046Y0051593D01*
X0181020Y0051752D01*
X0180999Y0051911D01*
X0180981Y0052071D01*
X0180967Y0052231D01*
X0180957Y0052392D01*
X0180951Y0052552D01*
X0180949Y0052713D01*
X0220319Y0086177D02*
X0220321Y0086338D01*
X0220327Y0086498D01*
X0220337Y0086659D01*
X0220351Y0086819D01*
X0220369Y0086979D01*
X0220390Y0087138D01*
X0220416Y0087297D01*
X0220446Y0087455D01*
X0220479Y0087612D01*
X0220517Y0087769D01*
X0220558Y0087924D01*
X0220603Y0088078D01*
X0220652Y0088231D01*
X0220705Y0088383D01*
X0220761Y0088534D01*
X0220822Y0088683D01*
X0220885Y0088831D01*
X0220953Y0088977D01*
X0221024Y0089121D01*
X0221098Y0089263D01*
X0221176Y0089404D01*
X0221258Y0089542D01*
X0221343Y0089679D01*
X0221431Y0089813D01*
X0221523Y0089945D01*
X0221618Y0090075D01*
X0221716Y0090203D01*
X0221817Y0090328D01*
X0221921Y0090450D01*
X0222028Y0090570D01*
X0222138Y0090687D01*
X0222251Y0090802D01*
X0222367Y0090913D01*
X0222486Y0091022D01*
X0222607Y0091127D01*
X0222731Y0091230D01*
X0222857Y0091330D01*
X0222985Y0091426D01*
X0223116Y0091519D01*
X0223250Y0091609D01*
X0223385Y0091696D01*
X0223523Y0091779D01*
X0223662Y0091859D01*
X0223804Y0091935D01*
X0223947Y0092008D01*
X0224092Y0092077D01*
X0224239Y0092143D01*
X0224387Y0092205D01*
X0224537Y0092263D01*
X0224688Y0092318D01*
X0224841Y0092369D01*
X0224995Y0092416D01*
X0225150Y0092459D01*
X0225306Y0092498D01*
X0225462Y0092534D01*
X0225620Y0092565D01*
X0225778Y0092593D01*
X0225937Y0092617D01*
X0226097Y0092637D01*
X0226257Y0092653D01*
X0226417Y0092665D01*
X0226578Y0092673D01*
X0226739Y0092677D01*
X0226899Y0092677D01*
X0227060Y0092673D01*
X0227221Y0092665D01*
X0227381Y0092653D01*
X0227541Y0092637D01*
X0227701Y0092617D01*
X0227860Y0092593D01*
X0228018Y0092565D01*
X0228176Y0092534D01*
X0228332Y0092498D01*
X0228488Y0092459D01*
X0228643Y0092416D01*
X0228797Y0092369D01*
X0228950Y0092318D01*
X0229101Y0092263D01*
X0229251Y0092205D01*
X0229399Y0092143D01*
X0229546Y0092077D01*
X0229691Y0092008D01*
X0229834Y0091935D01*
X0229976Y0091859D01*
X0230115Y0091779D01*
X0230253Y0091696D01*
X0230388Y0091609D01*
X0230522Y0091519D01*
X0230653Y0091426D01*
X0230781Y0091330D01*
X0230907Y0091230D01*
X0231031Y0091127D01*
X0231152Y0091022D01*
X0231271Y0090913D01*
X0231387Y0090802D01*
X0231500Y0090687D01*
X0231610Y0090570D01*
X0231717Y0090450D01*
X0231821Y0090328D01*
X0231922Y0090203D01*
X0232020Y0090075D01*
X0232115Y0089945D01*
X0232207Y0089813D01*
X0232295Y0089679D01*
X0232380Y0089542D01*
X0232462Y0089404D01*
X0232540Y0089263D01*
X0232614Y0089121D01*
X0232685Y0088977D01*
X0232753Y0088831D01*
X0232816Y0088683D01*
X0232877Y0088534D01*
X0232933Y0088383D01*
X0232986Y0088231D01*
X0233035Y0088078D01*
X0233080Y0087924D01*
X0233121Y0087769D01*
X0233159Y0087612D01*
X0233192Y0087455D01*
X0233222Y0087297D01*
X0233248Y0087138D01*
X0233269Y0086979D01*
X0233287Y0086819D01*
X0233301Y0086659D01*
X0233311Y0086498D01*
X0233317Y0086338D01*
X0233319Y0086177D01*
X0233317Y0086016D01*
X0233311Y0085856D01*
X0233301Y0085695D01*
X0233287Y0085535D01*
X0233269Y0085375D01*
X0233248Y0085216D01*
X0233222Y0085057D01*
X0233192Y0084899D01*
X0233159Y0084742D01*
X0233121Y0084585D01*
X0233080Y0084430D01*
X0233035Y0084276D01*
X0232986Y0084123D01*
X0232933Y0083971D01*
X0232877Y0083820D01*
X0232816Y0083671D01*
X0232753Y0083523D01*
X0232685Y0083377D01*
X0232614Y0083233D01*
X0232540Y0083091D01*
X0232462Y0082950D01*
X0232380Y0082812D01*
X0232295Y0082675D01*
X0232207Y0082541D01*
X0232115Y0082409D01*
X0232020Y0082279D01*
X0231922Y0082151D01*
X0231821Y0082026D01*
X0231717Y0081904D01*
X0231610Y0081784D01*
X0231500Y0081667D01*
X0231387Y0081552D01*
X0231271Y0081441D01*
X0231152Y0081332D01*
X0231031Y0081227D01*
X0230907Y0081124D01*
X0230781Y0081024D01*
X0230653Y0080928D01*
X0230522Y0080835D01*
X0230388Y0080745D01*
X0230253Y0080658D01*
X0230115Y0080575D01*
X0229976Y0080495D01*
X0229834Y0080419D01*
X0229691Y0080346D01*
X0229546Y0080277D01*
X0229399Y0080211D01*
X0229251Y0080149D01*
X0229101Y0080091D01*
X0228950Y0080036D01*
X0228797Y0079985D01*
X0228643Y0079938D01*
X0228488Y0079895D01*
X0228332Y0079856D01*
X0228176Y0079820D01*
X0228018Y0079789D01*
X0227860Y0079761D01*
X0227701Y0079737D01*
X0227541Y0079717D01*
X0227381Y0079701D01*
X0227221Y0079689D01*
X0227060Y0079681D01*
X0226899Y0079677D01*
X0226739Y0079677D01*
X0226578Y0079681D01*
X0226417Y0079689D01*
X0226257Y0079701D01*
X0226097Y0079717D01*
X0225937Y0079737D01*
X0225778Y0079761D01*
X0225620Y0079789D01*
X0225462Y0079820D01*
X0225306Y0079856D01*
X0225150Y0079895D01*
X0224995Y0079938D01*
X0224841Y0079985D01*
X0224688Y0080036D01*
X0224537Y0080091D01*
X0224387Y0080149D01*
X0224239Y0080211D01*
X0224092Y0080277D01*
X0223947Y0080346D01*
X0223804Y0080419D01*
X0223662Y0080495D01*
X0223523Y0080575D01*
X0223385Y0080658D01*
X0223250Y0080745D01*
X0223116Y0080835D01*
X0222985Y0080928D01*
X0222857Y0081024D01*
X0222731Y0081124D01*
X0222607Y0081227D01*
X0222486Y0081332D01*
X0222367Y0081441D01*
X0222251Y0081552D01*
X0222138Y0081667D01*
X0222028Y0081784D01*
X0221921Y0081904D01*
X0221817Y0082026D01*
X0221716Y0082151D01*
X0221618Y0082279D01*
X0221523Y0082409D01*
X0221431Y0082541D01*
X0221343Y0082675D01*
X0221258Y0082812D01*
X0221176Y0082950D01*
X0221098Y0083091D01*
X0221024Y0083233D01*
X0220953Y0083377D01*
X0220885Y0083523D01*
X0220822Y0083671D01*
X0220761Y0083820D01*
X0220705Y0083971D01*
X0220652Y0084123D01*
X0220603Y0084276D01*
X0220558Y0084430D01*
X0220517Y0084585D01*
X0220479Y0084742D01*
X0220446Y0084899D01*
X0220416Y0085057D01*
X0220390Y0085216D01*
X0220369Y0085375D01*
X0220351Y0085535D01*
X0220337Y0085695D01*
X0220327Y0085856D01*
X0220321Y0086016D01*
X0220319Y0086177D01*
X0208508Y0125547D02*
X0208510Y0125708D01*
X0208516Y0125868D01*
X0208526Y0126029D01*
X0208540Y0126189D01*
X0208558Y0126349D01*
X0208579Y0126508D01*
X0208605Y0126667D01*
X0208635Y0126825D01*
X0208668Y0126982D01*
X0208706Y0127139D01*
X0208747Y0127294D01*
X0208792Y0127448D01*
X0208841Y0127601D01*
X0208894Y0127753D01*
X0208950Y0127904D01*
X0209011Y0128053D01*
X0209074Y0128201D01*
X0209142Y0128347D01*
X0209213Y0128491D01*
X0209287Y0128633D01*
X0209365Y0128774D01*
X0209447Y0128912D01*
X0209532Y0129049D01*
X0209620Y0129183D01*
X0209712Y0129315D01*
X0209807Y0129445D01*
X0209905Y0129573D01*
X0210006Y0129698D01*
X0210110Y0129820D01*
X0210217Y0129940D01*
X0210327Y0130057D01*
X0210440Y0130172D01*
X0210556Y0130283D01*
X0210675Y0130392D01*
X0210796Y0130497D01*
X0210920Y0130600D01*
X0211046Y0130700D01*
X0211174Y0130796D01*
X0211305Y0130889D01*
X0211439Y0130979D01*
X0211574Y0131066D01*
X0211712Y0131149D01*
X0211851Y0131229D01*
X0211993Y0131305D01*
X0212136Y0131378D01*
X0212281Y0131447D01*
X0212428Y0131513D01*
X0212576Y0131575D01*
X0212726Y0131633D01*
X0212877Y0131688D01*
X0213030Y0131739D01*
X0213184Y0131786D01*
X0213339Y0131829D01*
X0213495Y0131868D01*
X0213651Y0131904D01*
X0213809Y0131935D01*
X0213967Y0131963D01*
X0214126Y0131987D01*
X0214286Y0132007D01*
X0214446Y0132023D01*
X0214606Y0132035D01*
X0214767Y0132043D01*
X0214928Y0132047D01*
X0215088Y0132047D01*
X0215249Y0132043D01*
X0215410Y0132035D01*
X0215570Y0132023D01*
X0215730Y0132007D01*
X0215890Y0131987D01*
X0216049Y0131963D01*
X0216207Y0131935D01*
X0216365Y0131904D01*
X0216521Y0131868D01*
X0216677Y0131829D01*
X0216832Y0131786D01*
X0216986Y0131739D01*
X0217139Y0131688D01*
X0217290Y0131633D01*
X0217440Y0131575D01*
X0217588Y0131513D01*
X0217735Y0131447D01*
X0217880Y0131378D01*
X0218023Y0131305D01*
X0218165Y0131229D01*
X0218304Y0131149D01*
X0218442Y0131066D01*
X0218577Y0130979D01*
X0218711Y0130889D01*
X0218842Y0130796D01*
X0218970Y0130700D01*
X0219096Y0130600D01*
X0219220Y0130497D01*
X0219341Y0130392D01*
X0219460Y0130283D01*
X0219576Y0130172D01*
X0219689Y0130057D01*
X0219799Y0129940D01*
X0219906Y0129820D01*
X0220010Y0129698D01*
X0220111Y0129573D01*
X0220209Y0129445D01*
X0220304Y0129315D01*
X0220396Y0129183D01*
X0220484Y0129049D01*
X0220569Y0128912D01*
X0220651Y0128774D01*
X0220729Y0128633D01*
X0220803Y0128491D01*
X0220874Y0128347D01*
X0220942Y0128201D01*
X0221005Y0128053D01*
X0221066Y0127904D01*
X0221122Y0127753D01*
X0221175Y0127601D01*
X0221224Y0127448D01*
X0221269Y0127294D01*
X0221310Y0127139D01*
X0221348Y0126982D01*
X0221381Y0126825D01*
X0221411Y0126667D01*
X0221437Y0126508D01*
X0221458Y0126349D01*
X0221476Y0126189D01*
X0221490Y0126029D01*
X0221500Y0125868D01*
X0221506Y0125708D01*
X0221508Y0125547D01*
X0221506Y0125386D01*
X0221500Y0125226D01*
X0221490Y0125065D01*
X0221476Y0124905D01*
X0221458Y0124745D01*
X0221437Y0124586D01*
X0221411Y0124427D01*
X0221381Y0124269D01*
X0221348Y0124112D01*
X0221310Y0123955D01*
X0221269Y0123800D01*
X0221224Y0123646D01*
X0221175Y0123493D01*
X0221122Y0123341D01*
X0221066Y0123190D01*
X0221005Y0123041D01*
X0220942Y0122893D01*
X0220874Y0122747D01*
X0220803Y0122603D01*
X0220729Y0122461D01*
X0220651Y0122320D01*
X0220569Y0122182D01*
X0220484Y0122045D01*
X0220396Y0121911D01*
X0220304Y0121779D01*
X0220209Y0121649D01*
X0220111Y0121521D01*
X0220010Y0121396D01*
X0219906Y0121274D01*
X0219799Y0121154D01*
X0219689Y0121037D01*
X0219576Y0120922D01*
X0219460Y0120811D01*
X0219341Y0120702D01*
X0219220Y0120597D01*
X0219096Y0120494D01*
X0218970Y0120394D01*
X0218842Y0120298D01*
X0218711Y0120205D01*
X0218577Y0120115D01*
X0218442Y0120028D01*
X0218304Y0119945D01*
X0218165Y0119865D01*
X0218023Y0119789D01*
X0217880Y0119716D01*
X0217735Y0119647D01*
X0217588Y0119581D01*
X0217440Y0119519D01*
X0217290Y0119461D01*
X0217139Y0119406D01*
X0216986Y0119355D01*
X0216832Y0119308D01*
X0216677Y0119265D01*
X0216521Y0119226D01*
X0216365Y0119190D01*
X0216207Y0119159D01*
X0216049Y0119131D01*
X0215890Y0119107D01*
X0215730Y0119087D01*
X0215570Y0119071D01*
X0215410Y0119059D01*
X0215249Y0119051D01*
X0215088Y0119047D01*
X0214928Y0119047D01*
X0214767Y0119051D01*
X0214606Y0119059D01*
X0214446Y0119071D01*
X0214286Y0119087D01*
X0214126Y0119107D01*
X0213967Y0119131D01*
X0213809Y0119159D01*
X0213651Y0119190D01*
X0213495Y0119226D01*
X0213339Y0119265D01*
X0213184Y0119308D01*
X0213030Y0119355D01*
X0212877Y0119406D01*
X0212726Y0119461D01*
X0212576Y0119519D01*
X0212428Y0119581D01*
X0212281Y0119647D01*
X0212136Y0119716D01*
X0211993Y0119789D01*
X0211851Y0119865D01*
X0211712Y0119945D01*
X0211574Y0120028D01*
X0211439Y0120115D01*
X0211305Y0120205D01*
X0211174Y0120298D01*
X0211046Y0120394D01*
X0210920Y0120494D01*
X0210796Y0120597D01*
X0210675Y0120702D01*
X0210556Y0120811D01*
X0210440Y0120922D01*
X0210327Y0121037D01*
X0210217Y0121154D01*
X0210110Y0121274D01*
X0210006Y0121396D01*
X0209905Y0121521D01*
X0209807Y0121649D01*
X0209712Y0121779D01*
X0209620Y0121911D01*
X0209532Y0122045D01*
X0209447Y0122182D01*
X0209365Y0122320D01*
X0209287Y0122461D01*
X0209213Y0122603D01*
X0209142Y0122747D01*
X0209074Y0122893D01*
X0209011Y0123041D01*
X0208950Y0123190D01*
X0208894Y0123341D01*
X0208841Y0123493D01*
X0208792Y0123646D01*
X0208747Y0123800D01*
X0208706Y0123955D01*
X0208668Y0124112D01*
X0208635Y0124269D01*
X0208605Y0124427D01*
X0208579Y0124586D01*
X0208558Y0124745D01*
X0208540Y0124905D01*
X0208526Y0125065D01*
X0208516Y0125226D01*
X0208510Y0125386D01*
X0208508Y0125547D01*
X0259689Y0082240D02*
X0259691Y0082401D01*
X0259697Y0082561D01*
X0259707Y0082722D01*
X0259721Y0082882D01*
X0259739Y0083042D01*
X0259760Y0083201D01*
X0259786Y0083360D01*
X0259816Y0083518D01*
X0259849Y0083675D01*
X0259887Y0083832D01*
X0259928Y0083987D01*
X0259973Y0084141D01*
X0260022Y0084294D01*
X0260075Y0084446D01*
X0260131Y0084597D01*
X0260192Y0084746D01*
X0260255Y0084894D01*
X0260323Y0085040D01*
X0260394Y0085184D01*
X0260468Y0085326D01*
X0260546Y0085467D01*
X0260628Y0085605D01*
X0260713Y0085742D01*
X0260801Y0085876D01*
X0260893Y0086008D01*
X0260988Y0086138D01*
X0261086Y0086266D01*
X0261187Y0086391D01*
X0261291Y0086513D01*
X0261398Y0086633D01*
X0261508Y0086750D01*
X0261621Y0086865D01*
X0261737Y0086976D01*
X0261856Y0087085D01*
X0261977Y0087190D01*
X0262101Y0087293D01*
X0262227Y0087393D01*
X0262355Y0087489D01*
X0262486Y0087582D01*
X0262620Y0087672D01*
X0262755Y0087759D01*
X0262893Y0087842D01*
X0263032Y0087922D01*
X0263174Y0087998D01*
X0263317Y0088071D01*
X0263462Y0088140D01*
X0263609Y0088206D01*
X0263757Y0088268D01*
X0263907Y0088326D01*
X0264058Y0088381D01*
X0264211Y0088432D01*
X0264365Y0088479D01*
X0264520Y0088522D01*
X0264676Y0088561D01*
X0264832Y0088597D01*
X0264990Y0088628D01*
X0265148Y0088656D01*
X0265307Y0088680D01*
X0265467Y0088700D01*
X0265627Y0088716D01*
X0265787Y0088728D01*
X0265948Y0088736D01*
X0266109Y0088740D01*
X0266269Y0088740D01*
X0266430Y0088736D01*
X0266591Y0088728D01*
X0266751Y0088716D01*
X0266911Y0088700D01*
X0267071Y0088680D01*
X0267230Y0088656D01*
X0267388Y0088628D01*
X0267546Y0088597D01*
X0267702Y0088561D01*
X0267858Y0088522D01*
X0268013Y0088479D01*
X0268167Y0088432D01*
X0268320Y0088381D01*
X0268471Y0088326D01*
X0268621Y0088268D01*
X0268769Y0088206D01*
X0268916Y0088140D01*
X0269061Y0088071D01*
X0269204Y0087998D01*
X0269346Y0087922D01*
X0269485Y0087842D01*
X0269623Y0087759D01*
X0269758Y0087672D01*
X0269892Y0087582D01*
X0270023Y0087489D01*
X0270151Y0087393D01*
X0270277Y0087293D01*
X0270401Y0087190D01*
X0270522Y0087085D01*
X0270641Y0086976D01*
X0270757Y0086865D01*
X0270870Y0086750D01*
X0270980Y0086633D01*
X0271087Y0086513D01*
X0271191Y0086391D01*
X0271292Y0086266D01*
X0271390Y0086138D01*
X0271485Y0086008D01*
X0271577Y0085876D01*
X0271665Y0085742D01*
X0271750Y0085605D01*
X0271832Y0085467D01*
X0271910Y0085326D01*
X0271984Y0085184D01*
X0272055Y0085040D01*
X0272123Y0084894D01*
X0272186Y0084746D01*
X0272247Y0084597D01*
X0272303Y0084446D01*
X0272356Y0084294D01*
X0272405Y0084141D01*
X0272450Y0083987D01*
X0272491Y0083832D01*
X0272529Y0083675D01*
X0272562Y0083518D01*
X0272592Y0083360D01*
X0272618Y0083201D01*
X0272639Y0083042D01*
X0272657Y0082882D01*
X0272671Y0082722D01*
X0272681Y0082561D01*
X0272687Y0082401D01*
X0272689Y0082240D01*
X0272687Y0082079D01*
X0272681Y0081919D01*
X0272671Y0081758D01*
X0272657Y0081598D01*
X0272639Y0081438D01*
X0272618Y0081279D01*
X0272592Y0081120D01*
X0272562Y0080962D01*
X0272529Y0080805D01*
X0272491Y0080648D01*
X0272450Y0080493D01*
X0272405Y0080339D01*
X0272356Y0080186D01*
X0272303Y0080034D01*
X0272247Y0079883D01*
X0272186Y0079734D01*
X0272123Y0079586D01*
X0272055Y0079440D01*
X0271984Y0079296D01*
X0271910Y0079154D01*
X0271832Y0079013D01*
X0271750Y0078875D01*
X0271665Y0078738D01*
X0271577Y0078604D01*
X0271485Y0078472D01*
X0271390Y0078342D01*
X0271292Y0078214D01*
X0271191Y0078089D01*
X0271087Y0077967D01*
X0270980Y0077847D01*
X0270870Y0077730D01*
X0270757Y0077615D01*
X0270641Y0077504D01*
X0270522Y0077395D01*
X0270401Y0077290D01*
X0270277Y0077187D01*
X0270151Y0077087D01*
X0270023Y0076991D01*
X0269892Y0076898D01*
X0269758Y0076808D01*
X0269623Y0076721D01*
X0269485Y0076638D01*
X0269346Y0076558D01*
X0269204Y0076482D01*
X0269061Y0076409D01*
X0268916Y0076340D01*
X0268769Y0076274D01*
X0268621Y0076212D01*
X0268471Y0076154D01*
X0268320Y0076099D01*
X0268167Y0076048D01*
X0268013Y0076001D01*
X0267858Y0075958D01*
X0267702Y0075919D01*
X0267546Y0075883D01*
X0267388Y0075852D01*
X0267230Y0075824D01*
X0267071Y0075800D01*
X0266911Y0075780D01*
X0266751Y0075764D01*
X0266591Y0075752D01*
X0266430Y0075744D01*
X0266269Y0075740D01*
X0266109Y0075740D01*
X0265948Y0075744D01*
X0265787Y0075752D01*
X0265627Y0075764D01*
X0265467Y0075780D01*
X0265307Y0075800D01*
X0265148Y0075824D01*
X0264990Y0075852D01*
X0264832Y0075883D01*
X0264676Y0075919D01*
X0264520Y0075958D01*
X0264365Y0076001D01*
X0264211Y0076048D01*
X0264058Y0076099D01*
X0263907Y0076154D01*
X0263757Y0076212D01*
X0263609Y0076274D01*
X0263462Y0076340D01*
X0263317Y0076409D01*
X0263174Y0076482D01*
X0263032Y0076558D01*
X0262893Y0076638D01*
X0262755Y0076721D01*
X0262620Y0076808D01*
X0262486Y0076898D01*
X0262355Y0076991D01*
X0262227Y0077087D01*
X0262101Y0077187D01*
X0261977Y0077290D01*
X0261856Y0077395D01*
X0261737Y0077504D01*
X0261621Y0077615D01*
X0261508Y0077730D01*
X0261398Y0077847D01*
X0261291Y0077967D01*
X0261187Y0078089D01*
X0261086Y0078214D01*
X0260988Y0078342D01*
X0260893Y0078472D01*
X0260801Y0078604D01*
X0260713Y0078738D01*
X0260628Y0078875D01*
X0260546Y0079013D01*
X0260468Y0079154D01*
X0260394Y0079296D01*
X0260323Y0079440D01*
X0260255Y0079586D01*
X0260192Y0079734D01*
X0260131Y0079883D01*
X0260075Y0080034D01*
X0260022Y0080186D01*
X0259973Y0080339D01*
X0259928Y0080493D01*
X0259887Y0080648D01*
X0259849Y0080805D01*
X0259816Y0080962D01*
X0259786Y0081120D01*
X0259760Y0081279D01*
X0259739Y0081438D01*
X0259721Y0081598D01*
X0259707Y0081758D01*
X0259697Y0081919D01*
X0259691Y0082079D01*
X0259689Y0082240D01*
X0259689Y0216098D02*
X0259691Y0216259D01*
X0259697Y0216419D01*
X0259707Y0216580D01*
X0259721Y0216740D01*
X0259739Y0216900D01*
X0259760Y0217059D01*
X0259786Y0217218D01*
X0259816Y0217376D01*
X0259849Y0217533D01*
X0259887Y0217690D01*
X0259928Y0217845D01*
X0259973Y0217999D01*
X0260022Y0218152D01*
X0260075Y0218304D01*
X0260131Y0218455D01*
X0260192Y0218604D01*
X0260255Y0218752D01*
X0260323Y0218898D01*
X0260394Y0219042D01*
X0260468Y0219184D01*
X0260546Y0219325D01*
X0260628Y0219463D01*
X0260713Y0219600D01*
X0260801Y0219734D01*
X0260893Y0219866D01*
X0260988Y0219996D01*
X0261086Y0220124D01*
X0261187Y0220249D01*
X0261291Y0220371D01*
X0261398Y0220491D01*
X0261508Y0220608D01*
X0261621Y0220723D01*
X0261737Y0220834D01*
X0261856Y0220943D01*
X0261977Y0221048D01*
X0262101Y0221151D01*
X0262227Y0221251D01*
X0262355Y0221347D01*
X0262486Y0221440D01*
X0262620Y0221530D01*
X0262755Y0221617D01*
X0262893Y0221700D01*
X0263032Y0221780D01*
X0263174Y0221856D01*
X0263317Y0221929D01*
X0263462Y0221998D01*
X0263609Y0222064D01*
X0263757Y0222126D01*
X0263907Y0222184D01*
X0264058Y0222239D01*
X0264211Y0222290D01*
X0264365Y0222337D01*
X0264520Y0222380D01*
X0264676Y0222419D01*
X0264832Y0222455D01*
X0264990Y0222486D01*
X0265148Y0222514D01*
X0265307Y0222538D01*
X0265467Y0222558D01*
X0265627Y0222574D01*
X0265787Y0222586D01*
X0265948Y0222594D01*
X0266109Y0222598D01*
X0266269Y0222598D01*
X0266430Y0222594D01*
X0266591Y0222586D01*
X0266751Y0222574D01*
X0266911Y0222558D01*
X0267071Y0222538D01*
X0267230Y0222514D01*
X0267388Y0222486D01*
X0267546Y0222455D01*
X0267702Y0222419D01*
X0267858Y0222380D01*
X0268013Y0222337D01*
X0268167Y0222290D01*
X0268320Y0222239D01*
X0268471Y0222184D01*
X0268621Y0222126D01*
X0268769Y0222064D01*
X0268916Y0221998D01*
X0269061Y0221929D01*
X0269204Y0221856D01*
X0269346Y0221780D01*
X0269485Y0221700D01*
X0269623Y0221617D01*
X0269758Y0221530D01*
X0269892Y0221440D01*
X0270023Y0221347D01*
X0270151Y0221251D01*
X0270277Y0221151D01*
X0270401Y0221048D01*
X0270522Y0220943D01*
X0270641Y0220834D01*
X0270757Y0220723D01*
X0270870Y0220608D01*
X0270980Y0220491D01*
X0271087Y0220371D01*
X0271191Y0220249D01*
X0271292Y0220124D01*
X0271390Y0219996D01*
X0271485Y0219866D01*
X0271577Y0219734D01*
X0271665Y0219600D01*
X0271750Y0219463D01*
X0271832Y0219325D01*
X0271910Y0219184D01*
X0271984Y0219042D01*
X0272055Y0218898D01*
X0272123Y0218752D01*
X0272186Y0218604D01*
X0272247Y0218455D01*
X0272303Y0218304D01*
X0272356Y0218152D01*
X0272405Y0217999D01*
X0272450Y0217845D01*
X0272491Y0217690D01*
X0272529Y0217533D01*
X0272562Y0217376D01*
X0272592Y0217218D01*
X0272618Y0217059D01*
X0272639Y0216900D01*
X0272657Y0216740D01*
X0272671Y0216580D01*
X0272681Y0216419D01*
X0272687Y0216259D01*
X0272689Y0216098D01*
X0272687Y0215937D01*
X0272681Y0215777D01*
X0272671Y0215616D01*
X0272657Y0215456D01*
X0272639Y0215296D01*
X0272618Y0215137D01*
X0272592Y0214978D01*
X0272562Y0214820D01*
X0272529Y0214663D01*
X0272491Y0214506D01*
X0272450Y0214351D01*
X0272405Y0214197D01*
X0272356Y0214044D01*
X0272303Y0213892D01*
X0272247Y0213741D01*
X0272186Y0213592D01*
X0272123Y0213444D01*
X0272055Y0213298D01*
X0271984Y0213154D01*
X0271910Y0213012D01*
X0271832Y0212871D01*
X0271750Y0212733D01*
X0271665Y0212596D01*
X0271577Y0212462D01*
X0271485Y0212330D01*
X0271390Y0212200D01*
X0271292Y0212072D01*
X0271191Y0211947D01*
X0271087Y0211825D01*
X0270980Y0211705D01*
X0270870Y0211588D01*
X0270757Y0211473D01*
X0270641Y0211362D01*
X0270522Y0211253D01*
X0270401Y0211148D01*
X0270277Y0211045D01*
X0270151Y0210945D01*
X0270023Y0210849D01*
X0269892Y0210756D01*
X0269758Y0210666D01*
X0269623Y0210579D01*
X0269485Y0210496D01*
X0269346Y0210416D01*
X0269204Y0210340D01*
X0269061Y0210267D01*
X0268916Y0210198D01*
X0268769Y0210132D01*
X0268621Y0210070D01*
X0268471Y0210012D01*
X0268320Y0209957D01*
X0268167Y0209906D01*
X0268013Y0209859D01*
X0267858Y0209816D01*
X0267702Y0209777D01*
X0267546Y0209741D01*
X0267388Y0209710D01*
X0267230Y0209682D01*
X0267071Y0209658D01*
X0266911Y0209638D01*
X0266751Y0209622D01*
X0266591Y0209610D01*
X0266430Y0209602D01*
X0266269Y0209598D01*
X0266109Y0209598D01*
X0265948Y0209602D01*
X0265787Y0209610D01*
X0265627Y0209622D01*
X0265467Y0209638D01*
X0265307Y0209658D01*
X0265148Y0209682D01*
X0264990Y0209710D01*
X0264832Y0209741D01*
X0264676Y0209777D01*
X0264520Y0209816D01*
X0264365Y0209859D01*
X0264211Y0209906D01*
X0264058Y0209957D01*
X0263907Y0210012D01*
X0263757Y0210070D01*
X0263609Y0210132D01*
X0263462Y0210198D01*
X0263317Y0210267D01*
X0263174Y0210340D01*
X0263032Y0210416D01*
X0262893Y0210496D01*
X0262755Y0210579D01*
X0262620Y0210666D01*
X0262486Y0210756D01*
X0262355Y0210849D01*
X0262227Y0210945D01*
X0262101Y0211045D01*
X0261977Y0211148D01*
X0261856Y0211253D01*
X0261737Y0211362D01*
X0261621Y0211473D01*
X0261508Y0211588D01*
X0261398Y0211705D01*
X0261291Y0211825D01*
X0261187Y0211947D01*
X0261086Y0212072D01*
X0260988Y0212200D01*
X0260893Y0212330D01*
X0260801Y0212462D01*
X0260713Y0212596D01*
X0260628Y0212733D01*
X0260546Y0212871D01*
X0260468Y0213012D01*
X0260394Y0213154D01*
X0260323Y0213298D01*
X0260255Y0213444D01*
X0260192Y0213592D01*
X0260131Y0213741D01*
X0260075Y0213892D01*
X0260022Y0214044D01*
X0259973Y0214197D01*
X0259928Y0214351D01*
X0259887Y0214506D01*
X0259849Y0214663D01*
X0259816Y0214820D01*
X0259786Y0214978D01*
X0259760Y0215137D01*
X0259739Y0215296D01*
X0259721Y0215456D01*
X0259707Y0215616D01*
X0259697Y0215777D01*
X0259691Y0215937D01*
X0259689Y0216098D01*
X0007720Y0216098D02*
X0007722Y0216259D01*
X0007728Y0216419D01*
X0007738Y0216580D01*
X0007752Y0216740D01*
X0007770Y0216900D01*
X0007791Y0217059D01*
X0007817Y0217218D01*
X0007847Y0217376D01*
X0007880Y0217533D01*
X0007918Y0217690D01*
X0007959Y0217845D01*
X0008004Y0217999D01*
X0008053Y0218152D01*
X0008106Y0218304D01*
X0008162Y0218455D01*
X0008223Y0218604D01*
X0008286Y0218752D01*
X0008354Y0218898D01*
X0008425Y0219042D01*
X0008499Y0219184D01*
X0008577Y0219325D01*
X0008659Y0219463D01*
X0008744Y0219600D01*
X0008832Y0219734D01*
X0008924Y0219866D01*
X0009019Y0219996D01*
X0009117Y0220124D01*
X0009218Y0220249D01*
X0009322Y0220371D01*
X0009429Y0220491D01*
X0009539Y0220608D01*
X0009652Y0220723D01*
X0009768Y0220834D01*
X0009887Y0220943D01*
X0010008Y0221048D01*
X0010132Y0221151D01*
X0010258Y0221251D01*
X0010386Y0221347D01*
X0010517Y0221440D01*
X0010651Y0221530D01*
X0010786Y0221617D01*
X0010924Y0221700D01*
X0011063Y0221780D01*
X0011205Y0221856D01*
X0011348Y0221929D01*
X0011493Y0221998D01*
X0011640Y0222064D01*
X0011788Y0222126D01*
X0011938Y0222184D01*
X0012089Y0222239D01*
X0012242Y0222290D01*
X0012396Y0222337D01*
X0012551Y0222380D01*
X0012707Y0222419D01*
X0012863Y0222455D01*
X0013021Y0222486D01*
X0013179Y0222514D01*
X0013338Y0222538D01*
X0013498Y0222558D01*
X0013658Y0222574D01*
X0013818Y0222586D01*
X0013979Y0222594D01*
X0014140Y0222598D01*
X0014300Y0222598D01*
X0014461Y0222594D01*
X0014622Y0222586D01*
X0014782Y0222574D01*
X0014942Y0222558D01*
X0015102Y0222538D01*
X0015261Y0222514D01*
X0015419Y0222486D01*
X0015577Y0222455D01*
X0015733Y0222419D01*
X0015889Y0222380D01*
X0016044Y0222337D01*
X0016198Y0222290D01*
X0016351Y0222239D01*
X0016502Y0222184D01*
X0016652Y0222126D01*
X0016800Y0222064D01*
X0016947Y0221998D01*
X0017092Y0221929D01*
X0017235Y0221856D01*
X0017377Y0221780D01*
X0017516Y0221700D01*
X0017654Y0221617D01*
X0017789Y0221530D01*
X0017923Y0221440D01*
X0018054Y0221347D01*
X0018182Y0221251D01*
X0018308Y0221151D01*
X0018432Y0221048D01*
X0018553Y0220943D01*
X0018672Y0220834D01*
X0018788Y0220723D01*
X0018901Y0220608D01*
X0019011Y0220491D01*
X0019118Y0220371D01*
X0019222Y0220249D01*
X0019323Y0220124D01*
X0019421Y0219996D01*
X0019516Y0219866D01*
X0019608Y0219734D01*
X0019696Y0219600D01*
X0019781Y0219463D01*
X0019863Y0219325D01*
X0019941Y0219184D01*
X0020015Y0219042D01*
X0020086Y0218898D01*
X0020154Y0218752D01*
X0020217Y0218604D01*
X0020278Y0218455D01*
X0020334Y0218304D01*
X0020387Y0218152D01*
X0020436Y0217999D01*
X0020481Y0217845D01*
X0020522Y0217690D01*
X0020560Y0217533D01*
X0020593Y0217376D01*
X0020623Y0217218D01*
X0020649Y0217059D01*
X0020670Y0216900D01*
X0020688Y0216740D01*
X0020702Y0216580D01*
X0020712Y0216419D01*
X0020718Y0216259D01*
X0020720Y0216098D01*
X0020718Y0215937D01*
X0020712Y0215777D01*
X0020702Y0215616D01*
X0020688Y0215456D01*
X0020670Y0215296D01*
X0020649Y0215137D01*
X0020623Y0214978D01*
X0020593Y0214820D01*
X0020560Y0214663D01*
X0020522Y0214506D01*
X0020481Y0214351D01*
X0020436Y0214197D01*
X0020387Y0214044D01*
X0020334Y0213892D01*
X0020278Y0213741D01*
X0020217Y0213592D01*
X0020154Y0213444D01*
X0020086Y0213298D01*
X0020015Y0213154D01*
X0019941Y0213012D01*
X0019863Y0212871D01*
X0019781Y0212733D01*
X0019696Y0212596D01*
X0019608Y0212462D01*
X0019516Y0212330D01*
X0019421Y0212200D01*
X0019323Y0212072D01*
X0019222Y0211947D01*
X0019118Y0211825D01*
X0019011Y0211705D01*
X0018901Y0211588D01*
X0018788Y0211473D01*
X0018672Y0211362D01*
X0018553Y0211253D01*
X0018432Y0211148D01*
X0018308Y0211045D01*
X0018182Y0210945D01*
X0018054Y0210849D01*
X0017923Y0210756D01*
X0017789Y0210666D01*
X0017654Y0210579D01*
X0017516Y0210496D01*
X0017377Y0210416D01*
X0017235Y0210340D01*
X0017092Y0210267D01*
X0016947Y0210198D01*
X0016800Y0210132D01*
X0016652Y0210070D01*
X0016502Y0210012D01*
X0016351Y0209957D01*
X0016198Y0209906D01*
X0016044Y0209859D01*
X0015889Y0209816D01*
X0015733Y0209777D01*
X0015577Y0209741D01*
X0015419Y0209710D01*
X0015261Y0209682D01*
X0015102Y0209658D01*
X0014942Y0209638D01*
X0014782Y0209622D01*
X0014622Y0209610D01*
X0014461Y0209602D01*
X0014300Y0209598D01*
X0014140Y0209598D01*
X0013979Y0209602D01*
X0013818Y0209610D01*
X0013658Y0209622D01*
X0013498Y0209638D01*
X0013338Y0209658D01*
X0013179Y0209682D01*
X0013021Y0209710D01*
X0012863Y0209741D01*
X0012707Y0209777D01*
X0012551Y0209816D01*
X0012396Y0209859D01*
X0012242Y0209906D01*
X0012089Y0209957D01*
X0011938Y0210012D01*
X0011788Y0210070D01*
X0011640Y0210132D01*
X0011493Y0210198D01*
X0011348Y0210267D01*
X0011205Y0210340D01*
X0011063Y0210416D01*
X0010924Y0210496D01*
X0010786Y0210579D01*
X0010651Y0210666D01*
X0010517Y0210756D01*
X0010386Y0210849D01*
X0010258Y0210945D01*
X0010132Y0211045D01*
X0010008Y0211148D01*
X0009887Y0211253D01*
X0009768Y0211362D01*
X0009652Y0211473D01*
X0009539Y0211588D01*
X0009429Y0211705D01*
X0009322Y0211825D01*
X0009218Y0211947D01*
X0009117Y0212072D01*
X0009019Y0212200D01*
X0008924Y0212330D01*
X0008832Y0212462D01*
X0008744Y0212596D01*
X0008659Y0212733D01*
X0008577Y0212871D01*
X0008499Y0213012D01*
X0008425Y0213154D01*
X0008354Y0213298D01*
X0008286Y0213444D01*
X0008223Y0213592D01*
X0008162Y0213741D01*
X0008106Y0213892D01*
X0008053Y0214044D01*
X0008004Y0214197D01*
X0007959Y0214351D01*
X0007918Y0214506D01*
X0007880Y0214663D01*
X0007847Y0214820D01*
X0007817Y0214978D01*
X0007791Y0215137D01*
X0007770Y0215296D01*
X0007752Y0215456D01*
X0007738Y0215616D01*
X0007728Y0215777D01*
X0007722Y0215937D01*
X0007720Y0216098D01*
D11*
X0044654Y0151295D02*
X0059654Y0151295D01*
X0054654Y0151295D02*
X0054654Y0136295D01*
X0057154Y0131295D02*
X0057154Y0146295D01*
X0052154Y0148795D02*
X0052154Y0131295D01*
X0049654Y0133795D02*
X0049654Y0151295D01*
X0047154Y0148795D02*
X0047154Y0131295D01*
X0042154Y0131295D02*
X0059654Y0131295D01*
X0044654Y0136295D02*
X0044654Y0151295D01*
X0042154Y0146295D02*
X0042154Y0131295D01*
X0028157Y0119799D02*
X0013157Y0119799D01*
X0013157Y0104799D01*
X0010657Y0099799D02*
X0028157Y0099799D01*
X0025657Y0099799D02*
X0025657Y0114799D01*
X0020657Y0117299D02*
X0020657Y0099799D01*
X0018157Y0102299D02*
X0018157Y0119799D01*
X0015657Y0117299D02*
X0015657Y0099799D01*
X0010657Y0099799D02*
X0010657Y0114799D01*
X0023157Y0119799D02*
X0023157Y0104799D01*
X0044654Y0084366D02*
X0059654Y0084366D01*
X0054654Y0084366D02*
X0054654Y0069366D01*
X0057154Y0064366D02*
X0057154Y0079366D01*
X0052154Y0081866D02*
X0052154Y0064366D01*
X0049654Y0066866D02*
X0049654Y0084366D01*
X0047154Y0081866D02*
X0047154Y0064366D01*
X0042154Y0064366D02*
X0059654Y0064366D01*
X0044654Y0069366D02*
X0044654Y0084366D01*
X0042154Y0079366D02*
X0042154Y0064366D01*
X0073650Y0099799D02*
X0091150Y0099799D01*
X0088650Y0099799D02*
X0088650Y0114799D01*
X0091150Y0119799D02*
X0076150Y0119799D01*
X0076150Y0104799D01*
X0081150Y0102299D02*
X0081150Y0119799D01*
X0083650Y0117299D02*
X0083650Y0099799D01*
X0078650Y0099799D02*
X0078650Y0117299D01*
X0073650Y0114799D02*
X0073650Y0099799D01*
X0086150Y0104799D02*
X0086150Y0119799D01*
X0157508Y0139169D02*
X0175008Y0139169D01*
X0172508Y0139169D02*
X0172508Y0154169D01*
X0175008Y0159169D02*
X0160008Y0159169D01*
X0160008Y0144169D01*
X0165008Y0141669D02*
X0165008Y0159169D01*
X0167508Y0156669D02*
X0167508Y0139169D01*
X0162508Y0139169D02*
X0162508Y0156669D01*
X0157508Y0154169D02*
X0157508Y0139169D01*
X0170008Y0144169D02*
X0170008Y0159169D01*
X0211445Y0158854D02*
X0228945Y0158854D01*
X0226445Y0158854D02*
X0226445Y0173854D01*
X0221445Y0176354D02*
X0221445Y0158854D01*
X0218945Y0161354D02*
X0218945Y0178854D01*
X0216445Y0176354D02*
X0216445Y0158854D01*
X0211445Y0158854D02*
X0211445Y0173854D01*
X0213945Y0178854D02*
X0228945Y0178854D01*
X0223945Y0178854D02*
X0223945Y0163854D01*
X0213945Y0163854D02*
X0213945Y0178854D01*
X0245441Y0127673D02*
X0260441Y0127673D01*
X0255441Y0127673D02*
X0255441Y0112673D01*
X0257941Y0107673D02*
X0257941Y0122673D01*
X0252941Y0125173D02*
X0252941Y0107673D01*
X0250441Y0110173D02*
X0250441Y0127673D01*
X0247941Y0125173D02*
X0247941Y0107673D01*
X0242941Y0107673D02*
X0260441Y0107673D01*
X0245441Y0112673D02*
X0245441Y0127673D01*
X0242941Y0122673D02*
X0242941Y0107673D01*
X0204004Y0107988D02*
X0204004Y0092988D01*
X0199004Y0090488D02*
X0199004Y0107988D01*
X0196504Y0105488D02*
X0196504Y0087988D01*
X0194004Y0090488D02*
X0194004Y0107988D01*
X0189004Y0107988D02*
X0189004Y0092988D01*
X0191504Y0087988D02*
X0191504Y0102988D01*
X0186504Y0107988D02*
X0204004Y0107988D01*
X0201504Y0102988D02*
X0201504Y0087988D01*
X0186504Y0087988D01*
X0173827Y0037122D02*
X0158827Y0037122D01*
X0158827Y0022122D01*
X0163827Y0019622D02*
X0163827Y0037122D01*
X0166327Y0034622D02*
X0166327Y0017122D01*
X0171327Y0017122D02*
X0171327Y0032122D01*
X0168827Y0037122D02*
X0168827Y0022122D01*
X0173827Y0017122D02*
X0156327Y0017122D01*
X0156327Y0032122D01*
X0161327Y0034622D02*
X0161327Y0017122D01*
X0126583Y0017122D02*
X0109083Y0017122D01*
X0109083Y0032122D01*
X0114083Y0034622D02*
X0114083Y0017122D01*
X0116583Y0019622D02*
X0116583Y0037122D01*
X0119083Y0034622D02*
X0119083Y0017122D01*
X0124083Y0017122D02*
X0124083Y0032122D01*
X0126583Y0037122D02*
X0111583Y0037122D01*
X0111583Y0022122D01*
X0121583Y0022122D02*
X0121583Y0037122D01*
D12*
X0126583Y0037122D03*
X0126583Y0017122D03*
X0173827Y0017122D03*
X0173827Y0037122D03*
X0186504Y0087988D03*
X0186504Y0107988D03*
X0175008Y0139169D03*
X0175008Y0159169D03*
X0228945Y0158854D03*
X0228945Y0178854D03*
X0260441Y0127673D03*
X0260441Y0107673D03*
X0091150Y0099799D03*
X0091150Y0119799D03*
X0059654Y0131295D03*
X0059654Y0151295D03*
X0028157Y0119799D03*
X0028157Y0099799D03*
X0059654Y0084366D03*
X0059654Y0064366D03*
D13*
X0241031Y0216098D03*
X0251031Y0216098D03*
X0172291Y0222004D03*
X0162291Y0222004D03*
X0152291Y0222004D03*
X0142291Y0222004D03*
X0132291Y0222004D03*
X0122291Y0222004D03*
X0112291Y0222004D03*
X0249496Y0050744D03*
X0259496Y0050744D03*
D14*
X0193000Y0117594D03*
X0183000Y0117594D03*
X0173000Y0117594D03*
X0173000Y0127594D03*
X0183000Y0127594D03*
X0193000Y0127594D03*
D15*
X0255500Y0174839D03*
X0255500Y0192161D03*
D16*
X0225781Y0217293D02*
X0223053Y0217293D01*
X0223053Y0221203D01*
X0225781Y0221203D01*
X0225781Y0217293D01*
X0225781Y0218894D02*
X0223053Y0218894D01*
X0223053Y0220495D02*
X0225781Y0220495D01*
X0217907Y0217293D02*
X0215179Y0217293D01*
X0215179Y0221203D01*
X0217907Y0221203D01*
X0217907Y0217293D01*
X0217907Y0218894D02*
X0215179Y0218894D01*
X0215179Y0220495D02*
X0217907Y0220495D01*
D17*
X0214787Y0211122D02*
X0214787Y0208004D01*
X0214787Y0211122D02*
X0217905Y0211122D01*
X0217905Y0208004D01*
X0214787Y0208004D01*
X0214787Y0209609D02*
X0217905Y0209609D01*
X0223055Y0211122D02*
X0223055Y0208004D01*
X0223055Y0211122D02*
X0226173Y0211122D01*
X0226173Y0208004D01*
X0223055Y0208004D01*
X0223055Y0209609D02*
X0226173Y0209609D01*
D18*
X0225114Y0209193D02*
X0230331Y0209193D01*
X0230331Y0208195D02*
X0228476Y0208195D01*
X0228476Y0207777D02*
X0228476Y0209063D01*
X0225114Y0209063D01*
X0225114Y0210063D01*
X0224114Y0210063D01*
X0224114Y0209063D01*
X0220752Y0209063D01*
X0220752Y0207777D01*
X0220840Y0207332D01*
X0221014Y0206913D01*
X0221038Y0206878D01*
X0220037Y0206878D01*
X0220209Y0207050D01*
X0220209Y0212076D01*
X0218859Y0213425D01*
X0218543Y0213425D01*
X0218543Y0214992D01*
X0218861Y0214992D01*
X0220209Y0216340D01*
X0220209Y0222156D01*
X0218861Y0223504D01*
X0214226Y0223504D01*
X0212878Y0222156D01*
X0212878Y0216340D01*
X0214226Y0214992D01*
X0214543Y0214992D01*
X0214543Y0213425D01*
X0213833Y0213425D01*
X0212484Y0212076D01*
X0212484Y0207050D01*
X0212656Y0206878D01*
X0100133Y0206878D01*
X0099349Y0207662D01*
X0098141Y0208162D01*
X0096835Y0208162D01*
X0095628Y0207662D01*
X0094704Y0206738D01*
X0094204Y0205531D01*
X0094204Y0204225D01*
X0094704Y0203018D01*
X0095628Y0202094D01*
X0096835Y0201594D01*
X0098141Y0201594D01*
X0099349Y0202094D01*
X0100133Y0202878D01*
X0102447Y0202878D01*
X0102078Y0201988D01*
X0102078Y0200681D01*
X0102578Y0199474D01*
X0103502Y0198550D01*
X0103833Y0198413D01*
X0092259Y0198413D01*
X0091475Y0199198D01*
X0090267Y0199698D01*
X0088961Y0199698D01*
X0087754Y0199198D01*
X0086830Y0198274D01*
X0086330Y0197067D01*
X0086330Y0195760D01*
X0086830Y0194553D01*
X0086907Y0194476D01*
X0084385Y0194476D01*
X0083601Y0195261D01*
X0082393Y0195761D01*
X0081087Y0195761D01*
X0079880Y0195261D01*
X0078956Y0194337D01*
X0078456Y0193130D01*
X0078456Y0191823D01*
X0078956Y0190616D01*
X0079880Y0189692D01*
X0081087Y0189192D01*
X0082393Y0189192D01*
X0083601Y0189692D01*
X0084385Y0190476D01*
X0125016Y0190476D01*
X0125016Y0164089D01*
X0126187Y0162917D01*
X0132182Y0162917D01*
X0132106Y0162841D01*
X0131606Y0161634D01*
X0131606Y0160327D01*
X0132106Y0159120D01*
X0132890Y0158336D01*
X0132890Y0019122D01*
X0125983Y0019122D01*
X0125983Y0032909D01*
X0124870Y0034022D01*
X0123483Y0034022D01*
X0123483Y0037909D01*
X0122370Y0039022D01*
X0120796Y0039022D01*
X0119683Y0037909D01*
X0119683Y0036522D01*
X0118483Y0036522D01*
X0118483Y0037909D01*
X0117370Y0039022D01*
X0115796Y0039022D01*
X0114683Y0037909D01*
X0114683Y0036522D01*
X0113296Y0036522D01*
X0112183Y0035409D01*
X0112183Y0019022D01*
X0110983Y0019022D01*
X0110983Y0032909D01*
X0109870Y0034022D01*
X0108296Y0034022D01*
X0107183Y0032909D01*
X0107183Y0016335D01*
X0108296Y0015222D01*
X0125654Y0015222D01*
X0125754Y0015122D01*
X0135718Y0015122D01*
X0136890Y0016294D01*
X0136890Y0158336D01*
X0137674Y0159120D01*
X0138174Y0160327D01*
X0138174Y0161634D01*
X0137674Y0162841D01*
X0137597Y0162917D01*
X0140056Y0162917D01*
X0139980Y0162841D01*
X0139480Y0161634D01*
X0139480Y0160327D01*
X0139980Y0159120D01*
X0140764Y0158336D01*
X0140764Y0016294D01*
X0141935Y0015122D01*
X0157155Y0015122D01*
X0157255Y0015222D01*
X0174614Y0015222D01*
X0175727Y0016335D01*
X0175727Y0017909D01*
X0174614Y0019022D01*
X0173227Y0019022D01*
X0173227Y0032909D01*
X0172114Y0034022D01*
X0170727Y0034022D01*
X0170727Y0037909D01*
X0169614Y0039022D01*
X0168040Y0039022D01*
X0166927Y0037909D01*
X0166927Y0036522D01*
X0165727Y0036522D01*
X0165727Y0037909D01*
X0164614Y0039022D01*
X0163040Y0039022D01*
X0161927Y0037909D01*
X0161927Y0036522D01*
X0160540Y0036522D01*
X0159427Y0035409D01*
X0159427Y0019022D01*
X0158227Y0019022D01*
X0158227Y0032909D01*
X0157114Y0034022D01*
X0155540Y0034022D01*
X0154427Y0032909D01*
X0154427Y0019122D01*
X0144764Y0019122D01*
X0144764Y0158336D01*
X0145548Y0159120D01*
X0145602Y0159251D01*
X0145872Y0158980D01*
X0155508Y0158980D01*
X0155508Y0153341D01*
X0155608Y0153241D01*
X0155608Y0138382D01*
X0156721Y0137269D01*
X0175795Y0137269D01*
X0176908Y0138382D01*
X0176908Y0139956D01*
X0175795Y0141069D01*
X0174408Y0141069D01*
X0174408Y0154956D01*
X0173295Y0156069D01*
X0171908Y0156069D01*
X0171908Y0159956D01*
X0170795Y0161069D01*
X0169221Y0161069D01*
X0168108Y0159956D01*
X0168108Y0158569D01*
X0166908Y0158569D01*
X0166908Y0159956D01*
X0165795Y0161069D01*
X0164221Y0161069D01*
X0163108Y0159956D01*
X0163108Y0158569D01*
X0161721Y0158569D01*
X0160608Y0157456D01*
X0160608Y0141069D01*
X0159408Y0141069D01*
X0159408Y0153241D01*
X0159508Y0153341D01*
X0159508Y0161809D01*
X0159384Y0161933D01*
X0178165Y0161933D01*
X0178165Y0158046D01*
X0179337Y0156874D01*
X0190355Y0156874D01*
X0191140Y0156090D01*
X0192347Y0155590D01*
X0193653Y0155590D01*
X0194860Y0156090D01*
X0195784Y0157014D01*
X0196284Y0158221D01*
X0196284Y0159527D01*
X0195784Y0160734D01*
X0194860Y0161658D01*
X0193653Y0162158D01*
X0192347Y0162158D01*
X0191140Y0161658D01*
X0190355Y0160874D01*
X0182165Y0160874D01*
X0182165Y0164761D01*
X0180994Y0165933D01*
X0156104Y0165933D01*
X0156435Y0166070D01*
X0157359Y0166994D01*
X0157859Y0168201D01*
X0157859Y0169508D01*
X0157359Y0170715D01*
X0156575Y0171499D01*
X0156575Y0192445D01*
X0163741Y0192445D01*
X0164525Y0191661D01*
X0165733Y0191161D01*
X0167039Y0191161D01*
X0168246Y0191661D01*
X0169170Y0192584D01*
X0169670Y0193792D01*
X0169670Y0195098D01*
X0169170Y0196305D01*
X0169093Y0196382D01*
X0174228Y0196382D01*
X0174228Y0195585D01*
X0175400Y0194413D01*
X0205017Y0194413D01*
X0204940Y0194337D01*
X0204440Y0193130D01*
X0204440Y0191823D01*
X0204940Y0190616D01*
X0205724Y0189832D01*
X0205724Y0167562D01*
X0204940Y0166778D01*
X0204440Y0165571D01*
X0204440Y0164264D01*
X0204940Y0163057D01*
X0205864Y0162133D01*
X0207071Y0161633D01*
X0208378Y0161633D01*
X0209545Y0162117D01*
X0209545Y0158067D01*
X0210658Y0156954D01*
X0228016Y0156954D01*
X0228116Y0156854D01*
X0234143Y0156854D01*
X0235252Y0157963D01*
X0235252Y0109831D01*
X0204990Y0109831D01*
X0204832Y0109988D01*
X0203176Y0109988D01*
X0203076Y0109888D01*
X0185717Y0109888D01*
X0184604Y0108775D01*
X0184604Y0107201D01*
X0185717Y0106088D01*
X0187104Y0106088D01*
X0187104Y0092201D01*
X0188217Y0091088D01*
X0189604Y0091088D01*
X0189604Y0087201D01*
X0190717Y0086088D01*
X0192291Y0086088D01*
X0193404Y0087201D01*
X0193404Y0088588D01*
X0194604Y0088588D01*
X0194604Y0087201D01*
X0195717Y0086088D01*
X0197291Y0086088D01*
X0198404Y0087201D01*
X0198404Y0088588D01*
X0199791Y0088588D01*
X0200904Y0089701D01*
X0200904Y0106088D01*
X0202104Y0106088D01*
X0202104Y0092201D01*
X0203217Y0091088D01*
X0204791Y0091088D01*
X0205904Y0092201D01*
X0205904Y0105831D01*
X0238080Y0105831D01*
X0239252Y0107002D01*
X0239252Y0202163D01*
X0238537Y0202878D01*
X0264780Y0202878D01*
X0264780Y0109673D01*
X0259841Y0109673D01*
X0259841Y0123460D01*
X0258728Y0124573D01*
X0257341Y0124573D01*
X0257341Y0128460D01*
X0256228Y0129573D01*
X0254654Y0129573D01*
X0253541Y0128460D01*
X0253541Y0127073D01*
X0252341Y0127073D01*
X0252341Y0128460D01*
X0251228Y0129573D01*
X0249654Y0129573D01*
X0248541Y0128460D01*
X0248541Y0127073D01*
X0247154Y0127073D01*
X0246041Y0125960D01*
X0246041Y0109573D01*
X0244841Y0109573D01*
X0244841Y0123460D01*
X0243728Y0124573D01*
X0242154Y0124573D01*
X0241041Y0123460D01*
X0241041Y0106886D01*
X0242154Y0105773D01*
X0259513Y0105773D01*
X0259613Y0105673D01*
X0267608Y0105673D01*
X0268780Y0106845D01*
X0268780Y0205405D01*
X0270435Y0205848D01*
X0272943Y0207296D01*
X0274091Y0208444D01*
X0274091Y0089895D01*
X0272943Y0091042D01*
X0270435Y0092491D01*
X0267637Y0093240D01*
X0264741Y0093240D01*
X0261943Y0092491D01*
X0259435Y0091042D01*
X0257387Y0088994D01*
X0255939Y0086486D01*
X0255189Y0083688D01*
X0255189Y0080792D01*
X0255939Y0077994D01*
X0257387Y0075486D01*
X0259435Y0073438D01*
X0261943Y0071990D01*
X0264741Y0071240D01*
X0267637Y0071240D01*
X0270435Y0071990D01*
X0272943Y0073438D01*
X0274091Y0074585D01*
X0274091Y0050744D01*
X0274049Y0050216D01*
X0273723Y0049212D01*
X0273102Y0048358D01*
X0272248Y0047738D01*
X0271244Y0047412D01*
X0270717Y0047370D01*
X0263472Y0047370D01*
X0263943Y0048019D01*
X0264315Y0048748D01*
X0264568Y0049526D01*
X0264682Y0050244D01*
X0259996Y0050244D01*
X0259996Y0051244D01*
X0264682Y0051244D01*
X0264568Y0051962D01*
X0264315Y0052740D01*
X0263943Y0053469D01*
X0263462Y0054132D01*
X0262884Y0054710D01*
X0262221Y0055192D01*
X0261492Y0055563D01*
X0260714Y0055816D01*
X0259996Y0055930D01*
X0259996Y0051244D01*
X0258996Y0051244D01*
X0258996Y0055930D01*
X0258278Y0055816D01*
X0257500Y0055563D01*
X0256771Y0055192D01*
X0256108Y0054710D01*
X0255530Y0054132D01*
X0255049Y0053469D01*
X0254677Y0052740D01*
X0254510Y0052227D01*
X0253904Y0053690D01*
X0252442Y0055152D01*
X0250530Y0055944D01*
X0248462Y0055944D01*
X0246550Y0055152D01*
X0245088Y0053690D01*
X0244296Y0051778D01*
X0244296Y0049710D01*
X0245088Y0047799D01*
X0245516Y0047370D01*
X0198955Y0047370D01*
X0197301Y0046685D01*
X0196035Y0045419D01*
X0195350Y0043765D01*
X0195350Y0011374D01*
X0195309Y0010846D01*
X0194983Y0009842D01*
X0194362Y0008988D01*
X0193508Y0008368D01*
X0192504Y0008042D01*
X0191976Y0008000D01*
X0077803Y0008000D01*
X0077275Y0008042D01*
X0076271Y0008368D01*
X0075417Y0008988D01*
X0074797Y0009842D01*
X0074471Y0010846D01*
X0074429Y0011374D01*
X0074429Y0043765D01*
X0073744Y0045419D01*
X0072478Y0046685D01*
X0070824Y0047370D01*
X0010874Y0047370D01*
X0010346Y0047412D01*
X0009342Y0047738D01*
X0008488Y0048358D01*
X0007868Y0049212D01*
X0007719Y0049670D01*
X0009975Y0048368D01*
X0012772Y0047618D01*
X0015669Y0047618D01*
X0018466Y0048368D01*
X0020975Y0049816D01*
X0023023Y0051864D01*
X0024471Y0054372D01*
X0025220Y0057170D01*
X0025220Y0060066D01*
X0024471Y0062864D01*
X0023023Y0065372D01*
X0020975Y0067420D01*
X0018466Y0068868D01*
X0015669Y0069618D01*
X0012772Y0069618D01*
X0009975Y0068868D01*
X0007500Y0067440D01*
X0007500Y0207277D01*
X0009975Y0205848D01*
X0012772Y0205098D01*
X0015669Y0205098D01*
X0018466Y0205848D01*
X0020975Y0207296D01*
X0023023Y0209344D01*
X0024471Y0211853D01*
X0025220Y0214650D01*
X0025220Y0217547D01*
X0024471Y0220344D01*
X0023023Y0222853D01*
X0020975Y0224901D01*
X0020148Y0225378D01*
X0108311Y0225378D01*
X0107883Y0224949D01*
X0107091Y0223038D01*
X0107091Y0220970D01*
X0107883Y0219058D01*
X0109346Y0217596D01*
X0111257Y0216804D01*
X0113326Y0216804D01*
X0115237Y0217596D01*
X0116700Y0219058D01*
X0117291Y0220487D01*
X0117883Y0219058D01*
X0119346Y0217596D01*
X0121257Y0216804D01*
X0123326Y0216804D01*
X0125237Y0217596D01*
X0126700Y0219058D01*
X0127291Y0220487D01*
X0127883Y0219058D01*
X0129346Y0217596D01*
X0131257Y0216804D01*
X0133326Y0216804D01*
X0135237Y0217596D01*
X0136700Y0219058D01*
X0137291Y0220487D01*
X0137883Y0219058D01*
X0139346Y0217596D01*
X0141257Y0216804D01*
X0143326Y0216804D01*
X0145237Y0217596D01*
X0146700Y0219058D01*
X0147291Y0220487D01*
X0147883Y0219058D01*
X0149346Y0217596D01*
X0151257Y0216804D01*
X0153326Y0216804D01*
X0155194Y0217578D01*
X0154543Y0216927D01*
X0154543Y0214806D01*
X0153759Y0214022D01*
X0153259Y0212815D01*
X0153259Y0211508D01*
X0153759Y0210301D01*
X0154683Y0209377D01*
X0155890Y0208877D01*
X0157197Y0208877D01*
X0158404Y0209377D01*
X0159328Y0210301D01*
X0159828Y0211508D01*
X0159828Y0212815D01*
X0159328Y0214022D01*
X0159251Y0214098D01*
X0188828Y0214098D01*
X0190000Y0215270D01*
X0190000Y0217155D01*
X0190784Y0217939D01*
X0191284Y0219146D01*
X0191284Y0220452D01*
X0190784Y0221660D01*
X0189860Y0222583D01*
X0188653Y0223083D01*
X0187347Y0223083D01*
X0186140Y0222583D01*
X0185216Y0221660D01*
X0184716Y0220452D01*
X0184716Y0219146D01*
X0185150Y0218098D01*
X0175740Y0218098D01*
X0176700Y0219058D01*
X0177491Y0220970D01*
X0177491Y0223038D01*
X0176700Y0224949D01*
X0176271Y0225378D01*
X0260262Y0225378D01*
X0259435Y0224901D01*
X0257387Y0222853D01*
X0255939Y0220344D01*
X0255531Y0218824D01*
X0255440Y0219044D01*
X0253977Y0220507D01*
X0252066Y0221298D01*
X0249997Y0221298D01*
X0248086Y0220507D01*
X0246623Y0219044D01*
X0246017Y0217581D01*
X0245851Y0218095D01*
X0245479Y0218824D01*
X0244998Y0219486D01*
X0244419Y0220065D01*
X0243757Y0220546D01*
X0243028Y0220917D01*
X0242249Y0221170D01*
X0241531Y0221284D01*
X0241531Y0216598D01*
X0240531Y0216598D01*
X0240531Y0215598D01*
X0235846Y0215598D01*
X0235960Y0214881D01*
X0236212Y0214102D01*
X0236584Y0213373D01*
X0237065Y0212711D01*
X0237644Y0212132D01*
X0238306Y0211651D01*
X0239035Y0211279D01*
X0239814Y0211026D01*
X0240531Y0210913D01*
X0240531Y0215598D01*
X0241531Y0215598D01*
X0241531Y0210913D01*
X0242249Y0211026D01*
X0243028Y0211279D01*
X0243757Y0211651D01*
X0244419Y0212132D01*
X0244998Y0212711D01*
X0245479Y0213373D01*
X0245851Y0214102D01*
X0246017Y0214616D01*
X0246623Y0213153D01*
X0248086Y0211690D01*
X0249031Y0211298D01*
X0249031Y0210224D01*
X0234331Y0210224D01*
X0234331Y0220076D01*
X0233159Y0221248D01*
X0228083Y0221248D01*
X0228083Y0222156D01*
X0226735Y0223504D01*
X0222100Y0223504D01*
X0220752Y0222156D01*
X0220752Y0216340D01*
X0222100Y0214992D01*
X0226735Y0214992D01*
X0228083Y0216340D01*
X0228083Y0217248D01*
X0230331Y0217248D01*
X0230331Y0207396D01*
X0230849Y0206878D01*
X0228191Y0206878D01*
X0228214Y0206913D01*
X0228388Y0207332D01*
X0228476Y0207777D01*
X0228332Y0207196D02*
X0230530Y0207196D01*
X0232331Y0208224D02*
X0251031Y0208224D01*
X0251031Y0216098D01*
X0246758Y0219178D02*
X0245221Y0219178D01*
X0245807Y0218180D02*
X0246265Y0218180D01*
X0247756Y0220177D02*
X0244265Y0220177D01*
X0242217Y0221175D02*
X0249700Y0221175D01*
X0252363Y0221175D02*
X0256419Y0221175D01*
X0255894Y0220177D02*
X0254307Y0220177D01*
X0255305Y0219178D02*
X0255626Y0219178D01*
X0256995Y0222174D02*
X0228065Y0222174D01*
X0227066Y0223172D02*
X0257707Y0223172D01*
X0258705Y0224171D02*
X0177022Y0224171D01*
X0177436Y0223172D02*
X0213895Y0223172D01*
X0212896Y0222174D02*
X0190270Y0222174D01*
X0190985Y0221175D02*
X0212878Y0221175D01*
X0212878Y0220177D02*
X0191284Y0220177D01*
X0191284Y0219178D02*
X0212878Y0219178D01*
X0212878Y0218180D02*
X0190884Y0218180D01*
X0190027Y0217181D02*
X0212878Y0217181D01*
X0213035Y0216183D02*
X0190000Y0216183D01*
X0189914Y0215184D02*
X0214034Y0215184D01*
X0214543Y0214186D02*
X0188916Y0214186D01*
X0188000Y0216098D02*
X0156543Y0216098D01*
X0156543Y0212161D01*
X0153259Y0212189D02*
X0077150Y0212189D01*
X0077150Y0212815D02*
X0076650Y0214022D01*
X0075727Y0214946D01*
X0074519Y0215446D01*
X0073213Y0215446D01*
X0072006Y0214946D01*
X0071082Y0214022D01*
X0070582Y0212815D01*
X0070582Y0211508D01*
X0071082Y0210301D01*
X0071866Y0209517D01*
X0071866Y0140467D01*
X0073038Y0139295D01*
X0098781Y0139295D01*
X0099565Y0138511D01*
X0100772Y0138011D01*
X0102078Y0138011D01*
X0103286Y0138511D01*
X0104209Y0139435D01*
X0104709Y0140642D01*
X0104709Y0141949D01*
X0104209Y0143156D01*
X0103286Y0144080D01*
X0102078Y0144580D01*
X0100772Y0144580D01*
X0099565Y0144080D01*
X0098781Y0143295D01*
X0075866Y0143295D01*
X0075866Y0209517D01*
X0076650Y0210301D01*
X0077150Y0211508D01*
X0077150Y0212815D01*
X0076996Y0213187D02*
X0153413Y0213187D01*
X0153923Y0214186D02*
X0076486Y0214186D01*
X0075150Y0215184D02*
X0154543Y0215184D01*
X0154543Y0216183D02*
X0025220Y0216183D01*
X0025220Y0217181D02*
X0110346Y0217181D01*
X0108761Y0218180D02*
X0025051Y0218180D01*
X0024783Y0219178D02*
X0107833Y0219178D01*
X0107420Y0220177D02*
X0024516Y0220177D01*
X0023991Y0221175D02*
X0107091Y0221175D01*
X0107091Y0222174D02*
X0023414Y0222174D01*
X0022703Y0223172D02*
X0107147Y0223172D01*
X0107561Y0224171D02*
X0021704Y0224171D01*
X0020509Y0225170D02*
X0108103Y0225170D01*
X0117163Y0220177D02*
X0117420Y0220177D01*
X0117833Y0219178D02*
X0116749Y0219178D01*
X0115821Y0218180D02*
X0118761Y0218180D01*
X0120346Y0217181D02*
X0114237Y0217181D01*
X0124237Y0217181D02*
X0130346Y0217181D01*
X0128761Y0218180D02*
X0125821Y0218180D01*
X0126749Y0219178D02*
X0127833Y0219178D01*
X0127420Y0220177D02*
X0127163Y0220177D01*
X0134237Y0217181D02*
X0140346Y0217181D01*
X0138761Y0218180D02*
X0135821Y0218180D01*
X0136749Y0219178D02*
X0137833Y0219178D01*
X0137420Y0220177D02*
X0137163Y0220177D01*
X0144237Y0217181D02*
X0150346Y0217181D01*
X0148761Y0218180D02*
X0145821Y0218180D01*
X0146749Y0219178D02*
X0147833Y0219178D01*
X0147420Y0220177D02*
X0147163Y0220177D01*
X0154237Y0217181D02*
X0154798Y0217181D01*
X0153391Y0211190D02*
X0077019Y0211190D01*
X0076541Y0210192D02*
X0153868Y0210192D01*
X0155127Y0209193D02*
X0075866Y0209193D01*
X0075866Y0208195D02*
X0212484Y0208195D01*
X0212484Y0209193D02*
X0157960Y0209193D01*
X0159218Y0210192D02*
X0212484Y0210192D01*
X0212484Y0211190D02*
X0159696Y0211190D01*
X0159828Y0212189D02*
X0212597Y0212189D01*
X0213596Y0213187D02*
X0159673Y0213187D01*
X0175821Y0218180D02*
X0185116Y0218180D01*
X0184716Y0219178D02*
X0176749Y0219178D01*
X0177163Y0220177D02*
X0184716Y0220177D01*
X0185015Y0221175D02*
X0177491Y0221175D01*
X0177491Y0222174D02*
X0185730Y0222174D01*
X0188000Y0219799D02*
X0188000Y0216098D01*
X0176480Y0225170D02*
X0259901Y0225170D01*
X0246195Y0214186D02*
X0245878Y0214186D01*
X0245344Y0213187D02*
X0246609Y0213187D01*
X0247587Y0212189D02*
X0244476Y0212189D01*
X0242754Y0211190D02*
X0249031Y0211190D01*
X0241531Y0211190D02*
X0240531Y0211190D01*
X0240531Y0212189D02*
X0241531Y0212189D01*
X0241531Y0213187D02*
X0240531Y0213187D01*
X0240531Y0214186D02*
X0241531Y0214186D01*
X0241531Y0215184D02*
X0240531Y0215184D01*
X0240531Y0216183D02*
X0234331Y0216183D01*
X0234331Y0217181D02*
X0235938Y0217181D01*
X0235960Y0217316D02*
X0235846Y0216598D01*
X0240531Y0216598D01*
X0240531Y0221284D01*
X0239814Y0221170D01*
X0239035Y0220917D01*
X0238306Y0220546D01*
X0237644Y0220065D01*
X0237065Y0219486D01*
X0236584Y0218824D01*
X0236212Y0218095D01*
X0235960Y0217316D01*
X0236256Y0218180D02*
X0234331Y0218180D01*
X0234331Y0219178D02*
X0236842Y0219178D01*
X0237798Y0220177D02*
X0234230Y0220177D01*
X0233232Y0221175D02*
X0239846Y0221175D01*
X0240531Y0221175D02*
X0241531Y0221175D01*
X0241531Y0220177D02*
X0240531Y0220177D01*
X0240531Y0219178D02*
X0241531Y0219178D01*
X0241531Y0218180D02*
X0240531Y0218180D01*
X0240531Y0217181D02*
X0241531Y0217181D01*
X0235911Y0215184D02*
X0234331Y0215184D01*
X0234331Y0214186D02*
X0236185Y0214186D01*
X0236719Y0213187D02*
X0234331Y0213187D01*
X0234331Y0212189D02*
X0237587Y0212189D01*
X0239309Y0211190D02*
X0234331Y0211190D01*
X0230331Y0211190D02*
X0228476Y0211190D01*
X0228476Y0211349D02*
X0228388Y0211794D01*
X0228214Y0212213D01*
X0227962Y0212590D01*
X0227641Y0212911D01*
X0227264Y0213163D01*
X0226845Y0213337D01*
X0226400Y0213425D01*
X0225114Y0213425D01*
X0225114Y0210063D01*
X0228476Y0210063D01*
X0228476Y0211349D01*
X0228224Y0212189D02*
X0230331Y0212189D01*
X0230331Y0213187D02*
X0227205Y0213187D01*
X0226927Y0215184D02*
X0230331Y0215184D01*
X0230331Y0214186D02*
X0218543Y0214186D01*
X0219053Y0215184D02*
X0221908Y0215184D01*
X0220909Y0216183D02*
X0220051Y0216183D01*
X0220209Y0217181D02*
X0220752Y0217181D01*
X0220752Y0218180D02*
X0220209Y0218180D01*
X0220209Y0219178D02*
X0220752Y0219178D01*
X0220752Y0220177D02*
X0220209Y0220177D01*
X0220209Y0221175D02*
X0220752Y0221175D01*
X0220770Y0222174D02*
X0220191Y0222174D01*
X0219192Y0223172D02*
X0221769Y0223172D01*
X0224417Y0219799D02*
X0224417Y0219248D01*
X0232331Y0219248D01*
X0232331Y0208224D01*
X0230331Y0210192D02*
X0228476Y0210192D01*
X0225114Y0210192D02*
X0224114Y0210192D01*
X0224114Y0210063D02*
X0224114Y0213425D01*
X0222828Y0213425D01*
X0222383Y0213337D01*
X0221964Y0213163D01*
X0221587Y0212911D01*
X0221266Y0212590D01*
X0221014Y0212213D01*
X0220840Y0211794D01*
X0220752Y0211349D01*
X0220752Y0210063D01*
X0224114Y0210063D01*
X0224114Y0209193D02*
X0220209Y0209193D01*
X0220209Y0208195D02*
X0220752Y0208195D01*
X0220897Y0207196D02*
X0220209Y0207196D01*
X0220209Y0210192D02*
X0220752Y0210192D01*
X0220752Y0211190D02*
X0220209Y0211190D01*
X0220096Y0212189D02*
X0221004Y0212189D01*
X0222023Y0213187D02*
X0219097Y0213187D01*
X0216543Y0209563D02*
X0216346Y0209563D01*
X0216543Y0209563D02*
X0216543Y0219248D01*
X0224114Y0213187D02*
X0225114Y0213187D01*
X0225114Y0212189D02*
X0224114Y0212189D01*
X0224114Y0211190D02*
X0225114Y0211190D01*
X0227925Y0216183D02*
X0230331Y0216183D01*
X0230331Y0217181D02*
X0228083Y0217181D01*
X0237252Y0201335D02*
X0237252Y0107831D01*
X0204004Y0107831D01*
X0204004Y0107988D01*
X0205904Y0105348D02*
X0274091Y0105348D01*
X0274091Y0104350D02*
X0205904Y0104350D01*
X0205904Y0103351D02*
X0274091Y0103351D01*
X0274091Y0102353D02*
X0205904Y0102353D01*
X0205904Y0101354D02*
X0274091Y0101354D01*
X0274091Y0100356D02*
X0205904Y0100356D01*
X0205904Y0099357D02*
X0274091Y0099357D01*
X0274091Y0098359D02*
X0205904Y0098359D01*
X0205904Y0097360D02*
X0274091Y0097360D01*
X0274091Y0096362D02*
X0231179Y0096362D01*
X0231065Y0096428D02*
X0228267Y0097177D01*
X0225371Y0097177D01*
X0222573Y0096428D01*
X0220065Y0094979D01*
X0218017Y0092931D01*
X0216569Y0090423D01*
X0215819Y0087625D01*
X0215819Y0084729D01*
X0216569Y0081931D01*
X0218017Y0079423D01*
X0220065Y0077375D01*
X0222573Y0075927D01*
X0225371Y0075177D01*
X0228267Y0075177D01*
X0231065Y0075927D01*
X0233573Y0077375D01*
X0235621Y0079423D01*
X0237069Y0081931D01*
X0237819Y0084729D01*
X0237819Y0087625D01*
X0237069Y0090423D01*
X0235621Y0092931D01*
X0233573Y0094979D01*
X0231065Y0096428D01*
X0232908Y0095363D02*
X0274091Y0095363D01*
X0274091Y0094365D02*
X0234188Y0094365D01*
X0235186Y0093366D02*
X0274091Y0093366D01*
X0274091Y0092368D02*
X0270648Y0092368D01*
X0272377Y0091369D02*
X0274091Y0091369D01*
X0274091Y0090370D02*
X0273615Y0090370D01*
X0261730Y0092368D02*
X0235947Y0092368D01*
X0236523Y0091369D02*
X0260001Y0091369D01*
X0258763Y0090370D02*
X0237083Y0090370D01*
X0237351Y0089372D02*
X0257764Y0089372D01*
X0257028Y0088373D02*
X0237618Y0088373D01*
X0237819Y0087375D02*
X0256452Y0087375D01*
X0255909Y0086376D02*
X0237819Y0086376D01*
X0237819Y0085378D02*
X0255642Y0085378D01*
X0255374Y0084379D02*
X0237725Y0084379D01*
X0237458Y0083381D02*
X0255189Y0083381D01*
X0255189Y0082382D02*
X0237190Y0082382D01*
X0236753Y0081384D02*
X0255189Y0081384D01*
X0255298Y0080385D02*
X0236177Y0080385D01*
X0235585Y0079387D02*
X0255565Y0079387D01*
X0255833Y0078388D02*
X0234586Y0078388D01*
X0233588Y0077390D02*
X0256288Y0077390D01*
X0256864Y0076391D02*
X0231869Y0076391D01*
X0229072Y0075393D02*
X0257480Y0075393D01*
X0258478Y0074394D02*
X0144764Y0074394D01*
X0144764Y0073396D02*
X0259508Y0073396D01*
X0261237Y0072397D02*
X0144764Y0072397D01*
X0144764Y0071399D02*
X0264149Y0071399D01*
X0268229Y0071399D02*
X0274091Y0071399D01*
X0274091Y0072397D02*
X0271141Y0072397D01*
X0272870Y0073396D02*
X0274091Y0073396D01*
X0274091Y0074394D02*
X0273899Y0074394D01*
X0274091Y0070400D02*
X0144764Y0070400D01*
X0144764Y0069402D02*
X0274091Y0069402D01*
X0274091Y0068403D02*
X0144764Y0068403D01*
X0144764Y0067405D02*
X0274091Y0067405D01*
X0274091Y0066406D02*
X0144764Y0066406D01*
X0144764Y0065408D02*
X0274091Y0065408D01*
X0274091Y0064409D02*
X0144764Y0064409D01*
X0144764Y0063411D02*
X0184874Y0063411D01*
X0186001Y0063713D02*
X0183203Y0062963D01*
X0180695Y0061515D01*
X0178647Y0059467D01*
X0177198Y0056958D01*
X0176449Y0054161D01*
X0176449Y0051264D01*
X0177198Y0048467D01*
X0178647Y0045958D01*
X0180695Y0043910D01*
X0183203Y0042462D01*
X0186001Y0041713D01*
X0188897Y0041713D01*
X0191695Y0042462D01*
X0194203Y0043910D01*
X0196251Y0045958D01*
X0197699Y0048467D01*
X0198449Y0051264D01*
X0198449Y0054161D01*
X0197699Y0056958D01*
X0196251Y0059467D01*
X0194203Y0061515D01*
X0191695Y0062963D01*
X0188897Y0063713D01*
X0186001Y0063713D01*
X0182249Y0062412D02*
X0144764Y0062412D01*
X0144764Y0061414D02*
X0180594Y0061414D01*
X0179595Y0060415D02*
X0144764Y0060415D01*
X0144764Y0059417D02*
X0178618Y0059417D01*
X0178041Y0058418D02*
X0144764Y0058418D01*
X0144764Y0057420D02*
X0177465Y0057420D01*
X0177054Y0056421D02*
X0144764Y0056421D01*
X0144764Y0055423D02*
X0176787Y0055423D01*
X0176519Y0054424D02*
X0144764Y0054424D01*
X0144764Y0053426D02*
X0176449Y0053426D01*
X0176449Y0052427D02*
X0144764Y0052427D01*
X0144764Y0051429D02*
X0176449Y0051429D01*
X0176672Y0050430D02*
X0144764Y0050430D01*
X0144764Y0049432D02*
X0176940Y0049432D01*
X0177218Y0048433D02*
X0144764Y0048433D01*
X0144764Y0047434D02*
X0177794Y0047434D01*
X0178371Y0046436D02*
X0144764Y0046436D01*
X0144764Y0045437D02*
X0179168Y0045437D01*
X0180166Y0044439D02*
X0144764Y0044439D01*
X0144764Y0043440D02*
X0181509Y0043440D01*
X0183279Y0042442D02*
X0144764Y0042442D01*
X0144764Y0041443D02*
X0195350Y0041443D01*
X0195350Y0040445D02*
X0144764Y0040445D01*
X0144764Y0039446D02*
X0195350Y0039446D01*
X0195350Y0038448D02*
X0175188Y0038448D01*
X0175347Y0038289D02*
X0174993Y0038642D01*
X0174560Y0038893D01*
X0174077Y0039022D01*
X0173827Y0039022D01*
X0173827Y0037122D01*
X0173827Y0037122D01*
X0175727Y0037122D01*
X0175727Y0037372D01*
X0175597Y0037855D01*
X0175347Y0038289D01*
X0175706Y0037449D02*
X0195350Y0037449D01*
X0195350Y0036451D02*
X0175614Y0036451D01*
X0175597Y0036389D02*
X0175727Y0036872D01*
X0175727Y0037122D01*
X0173827Y0037122D01*
X0173827Y0035222D01*
X0174077Y0035222D01*
X0174560Y0035352D01*
X0174993Y0035602D01*
X0175347Y0035955D01*
X0175597Y0036389D01*
X0174735Y0035452D02*
X0195350Y0035452D01*
X0195350Y0034454D02*
X0170727Y0034454D01*
X0170727Y0035452D02*
X0172919Y0035452D01*
X0173093Y0035352D02*
X0173577Y0035222D01*
X0173827Y0035222D01*
X0173827Y0037122D01*
X0173827Y0037122D01*
X0173827Y0037122D01*
X0173827Y0039022D01*
X0173577Y0039022D01*
X0173093Y0038893D01*
X0172660Y0038642D01*
X0172306Y0038289D01*
X0172056Y0037855D01*
X0171927Y0037372D01*
X0171927Y0037122D01*
X0171927Y0036872D01*
X0172056Y0036389D01*
X0172306Y0035955D01*
X0172660Y0035602D01*
X0173093Y0035352D01*
X0173827Y0035452D02*
X0173827Y0035452D01*
X0173827Y0036451D02*
X0173827Y0036451D01*
X0173827Y0037122D02*
X0171927Y0037122D01*
X0173827Y0037122D01*
X0173827Y0037122D01*
X0173827Y0037449D02*
X0173827Y0037449D01*
X0173827Y0038448D02*
X0173827Y0038448D01*
X0172466Y0038448D02*
X0170188Y0038448D01*
X0170727Y0037449D02*
X0171947Y0037449D01*
X0172040Y0036451D02*
X0170727Y0036451D01*
X0172680Y0033455D02*
X0195350Y0033455D01*
X0195350Y0032457D02*
X0173227Y0032457D01*
X0173227Y0031458D02*
X0195350Y0031458D01*
X0195350Y0030460D02*
X0173227Y0030460D01*
X0173227Y0029461D02*
X0195350Y0029461D01*
X0195350Y0028463D02*
X0173227Y0028463D01*
X0173227Y0027464D02*
X0195350Y0027464D01*
X0195350Y0026466D02*
X0173227Y0026466D01*
X0173227Y0025467D02*
X0195350Y0025467D01*
X0195350Y0024469D02*
X0173227Y0024469D01*
X0173227Y0023470D02*
X0195350Y0023470D01*
X0195350Y0022472D02*
X0173227Y0022472D01*
X0173227Y0021473D02*
X0195350Y0021473D01*
X0195350Y0020475D02*
X0173227Y0020475D01*
X0173227Y0019476D02*
X0195350Y0019476D01*
X0195350Y0018478D02*
X0175158Y0018478D01*
X0175727Y0017479D02*
X0195350Y0017479D01*
X0195350Y0016481D02*
X0175727Y0016481D01*
X0174874Y0015482D02*
X0195350Y0015482D01*
X0195350Y0014484D02*
X0074429Y0014484D01*
X0074429Y0015482D02*
X0108036Y0015482D01*
X0107183Y0016481D02*
X0074429Y0016481D01*
X0074429Y0017479D02*
X0107183Y0017479D01*
X0107183Y0018478D02*
X0074429Y0018478D01*
X0074429Y0019476D02*
X0107183Y0019476D01*
X0107183Y0020475D02*
X0074429Y0020475D01*
X0074429Y0021473D02*
X0107183Y0021473D01*
X0107183Y0022472D02*
X0074429Y0022472D01*
X0074429Y0023470D02*
X0107183Y0023470D01*
X0107183Y0024469D02*
X0074429Y0024469D01*
X0074429Y0025467D02*
X0107183Y0025467D01*
X0107183Y0026466D02*
X0074429Y0026466D01*
X0074429Y0027464D02*
X0107183Y0027464D01*
X0107183Y0028463D02*
X0074429Y0028463D01*
X0074429Y0029461D02*
X0107183Y0029461D01*
X0107183Y0030460D02*
X0074429Y0030460D01*
X0074429Y0031458D02*
X0107183Y0031458D01*
X0107183Y0032457D02*
X0074429Y0032457D01*
X0074429Y0033455D02*
X0107729Y0033455D01*
X0110436Y0033455D02*
X0112183Y0033455D01*
X0112183Y0032457D02*
X0110983Y0032457D01*
X0110983Y0031458D02*
X0112183Y0031458D01*
X0112183Y0030460D02*
X0110983Y0030460D01*
X0110983Y0029461D02*
X0112183Y0029461D01*
X0112183Y0028463D02*
X0110983Y0028463D01*
X0110983Y0027464D02*
X0112183Y0027464D01*
X0112183Y0026466D02*
X0110983Y0026466D01*
X0110983Y0025467D02*
X0112183Y0025467D01*
X0112183Y0024469D02*
X0110983Y0024469D01*
X0110983Y0023470D02*
X0112183Y0023470D01*
X0112183Y0022472D02*
X0110983Y0022472D01*
X0110983Y0021473D02*
X0112183Y0021473D01*
X0112183Y0020475D02*
X0110983Y0020475D01*
X0110983Y0019476D02*
X0112183Y0019476D01*
X0125983Y0019476D02*
X0132890Y0019476D01*
X0132890Y0020475D02*
X0125983Y0020475D01*
X0125983Y0021473D02*
X0132890Y0021473D01*
X0132890Y0022472D02*
X0125983Y0022472D01*
X0125983Y0023470D02*
X0132890Y0023470D01*
X0132890Y0024469D02*
X0125983Y0024469D01*
X0125983Y0025467D02*
X0132890Y0025467D01*
X0132890Y0026466D02*
X0125983Y0026466D01*
X0125983Y0027464D02*
X0132890Y0027464D01*
X0132890Y0028463D02*
X0125983Y0028463D01*
X0125983Y0029461D02*
X0132890Y0029461D01*
X0132890Y0030460D02*
X0125983Y0030460D01*
X0125983Y0031458D02*
X0132890Y0031458D01*
X0132890Y0032457D02*
X0125983Y0032457D01*
X0125436Y0033455D02*
X0132890Y0033455D01*
X0132890Y0034454D02*
X0123483Y0034454D01*
X0123483Y0035452D02*
X0125675Y0035452D01*
X0125849Y0035352D02*
X0126333Y0035222D01*
X0126583Y0035222D01*
X0126833Y0035222D01*
X0127316Y0035352D01*
X0127749Y0035602D01*
X0128103Y0035955D01*
X0128353Y0036389D01*
X0128483Y0036872D01*
X0128483Y0037122D01*
X0128483Y0037372D01*
X0128353Y0037855D01*
X0128103Y0038289D01*
X0127749Y0038642D01*
X0127316Y0038893D01*
X0126833Y0039022D01*
X0126583Y0039022D01*
X0126583Y0037122D01*
X0126583Y0037122D01*
X0128483Y0037122D01*
X0126583Y0037122D01*
X0126583Y0035222D01*
X0126583Y0037122D01*
X0126583Y0037122D01*
X0126583Y0037122D01*
X0126583Y0039022D01*
X0126333Y0039022D01*
X0125849Y0038893D01*
X0125416Y0038642D01*
X0125062Y0038289D01*
X0124812Y0037855D01*
X0124683Y0037372D01*
X0124683Y0037122D01*
X0124683Y0036872D01*
X0124812Y0036389D01*
X0125062Y0035955D01*
X0125416Y0035602D01*
X0125849Y0035352D01*
X0126583Y0035452D02*
X0126583Y0035452D01*
X0127491Y0035452D02*
X0132890Y0035452D01*
X0132890Y0036451D02*
X0128370Y0036451D01*
X0128462Y0037449D02*
X0132890Y0037449D01*
X0132890Y0038448D02*
X0127944Y0038448D01*
X0126583Y0038448D02*
X0126583Y0038448D01*
X0126583Y0037449D02*
X0126583Y0037449D01*
X0126583Y0037122D02*
X0126583Y0037122D01*
X0124683Y0037122D01*
X0126583Y0037122D01*
X0126583Y0036451D02*
X0126583Y0036451D01*
X0124795Y0036451D02*
X0123483Y0036451D01*
X0123483Y0037449D02*
X0124703Y0037449D01*
X0125222Y0038448D02*
X0122944Y0038448D01*
X0120222Y0038448D02*
X0117944Y0038448D01*
X0118483Y0037449D02*
X0119683Y0037449D01*
X0115222Y0038448D02*
X0074429Y0038448D01*
X0074429Y0039446D02*
X0132890Y0039446D01*
X0132890Y0040445D02*
X0093087Y0040445D01*
X0093269Y0040494D02*
X0095778Y0041942D01*
X0097826Y0043990D01*
X0099274Y0046498D01*
X0100024Y0049296D01*
X0100024Y0052192D01*
X0099274Y0054990D01*
X0097826Y0057498D01*
X0095895Y0059429D01*
X0098346Y0059429D01*
X0101143Y0060179D01*
X0103652Y0061627D01*
X0105700Y0063675D01*
X0107148Y0066183D01*
X0107898Y0068981D01*
X0107898Y0071877D01*
X0107148Y0074675D01*
X0105700Y0077183D01*
X0103652Y0079231D01*
X0101143Y0080679D01*
X0098346Y0081429D01*
X0095449Y0081429D01*
X0092652Y0080679D01*
X0090143Y0079231D01*
X0088095Y0077183D01*
X0086647Y0074675D01*
X0085898Y0071877D01*
X0085898Y0068981D01*
X0086647Y0066183D01*
X0088095Y0063675D01*
X0090026Y0061744D01*
X0087575Y0061744D01*
X0084778Y0060994D01*
X0082269Y0059546D01*
X0080221Y0057498D01*
X0078773Y0054990D01*
X0078024Y0052192D01*
X0078024Y0049296D01*
X0078773Y0046498D01*
X0080221Y0043990D01*
X0082269Y0041942D01*
X0084778Y0040494D01*
X0087575Y0039744D01*
X0090472Y0039744D01*
X0093269Y0040494D01*
X0094914Y0041443D02*
X0132890Y0041443D01*
X0132890Y0042442D02*
X0096278Y0042442D01*
X0097276Y0043440D02*
X0132890Y0043440D01*
X0132890Y0044439D02*
X0098085Y0044439D01*
X0098662Y0045437D02*
X0132890Y0045437D01*
X0132890Y0046436D02*
X0099238Y0046436D01*
X0099525Y0047434D02*
X0132890Y0047434D01*
X0132890Y0048433D02*
X0099792Y0048433D01*
X0100024Y0049432D02*
X0132890Y0049432D01*
X0132890Y0050430D02*
X0100024Y0050430D01*
X0100024Y0051429D02*
X0132890Y0051429D01*
X0132890Y0052427D02*
X0099961Y0052427D01*
X0099693Y0053426D02*
X0132890Y0053426D01*
X0132890Y0054424D02*
X0099426Y0054424D01*
X0099024Y0055423D02*
X0132890Y0055423D01*
X0132890Y0056421D02*
X0098448Y0056421D01*
X0097871Y0057420D02*
X0132890Y0057420D01*
X0132890Y0058418D02*
X0096906Y0058418D01*
X0095907Y0059417D02*
X0132890Y0059417D01*
X0132890Y0060415D02*
X0101553Y0060415D01*
X0103282Y0061414D02*
X0132890Y0061414D01*
X0132890Y0062412D02*
X0104437Y0062412D01*
X0105436Y0063411D02*
X0132890Y0063411D01*
X0132890Y0064409D02*
X0106124Y0064409D01*
X0106700Y0065408D02*
X0132890Y0065408D01*
X0132890Y0066406D02*
X0107208Y0066406D01*
X0107475Y0067405D02*
X0132890Y0067405D01*
X0132890Y0068403D02*
X0107743Y0068403D01*
X0107898Y0069402D02*
X0132890Y0069402D01*
X0132890Y0070400D02*
X0107898Y0070400D01*
X0107898Y0071399D02*
X0132890Y0071399D01*
X0132890Y0072397D02*
X0107758Y0072397D01*
X0107491Y0073396D02*
X0132890Y0073396D01*
X0132890Y0074394D02*
X0107223Y0074394D01*
X0106734Y0075393D02*
X0132890Y0075393D01*
X0132890Y0076391D02*
X0106157Y0076391D01*
X0105493Y0077390D02*
X0132890Y0077390D01*
X0132890Y0078388D02*
X0104495Y0078388D01*
X0103382Y0079387D02*
X0132890Y0079387D01*
X0132890Y0080385D02*
X0101653Y0080385D01*
X0098515Y0081384D02*
X0132890Y0081384D01*
X0132890Y0082382D02*
X0056554Y0082382D01*
X0056554Y0081384D02*
X0095281Y0081384D01*
X0092142Y0080385D02*
X0058821Y0080385D01*
X0059054Y0080153D02*
X0057941Y0081266D01*
X0056554Y0081266D01*
X0056554Y0085153D01*
X0055441Y0086266D01*
X0053867Y0086266D01*
X0052754Y0085153D01*
X0052754Y0083766D01*
X0051554Y0083766D01*
X0051554Y0085153D01*
X0050441Y0086266D01*
X0048867Y0086266D01*
X0047754Y0085153D01*
X0047754Y0083766D01*
X0046367Y0083766D01*
X0045254Y0082653D01*
X0045254Y0066266D01*
X0044054Y0066266D01*
X0044054Y0078438D01*
X0044154Y0078538D01*
X0044154Y0087298D01*
X0044230Y0087330D01*
X0045154Y0088254D01*
X0045654Y0089461D01*
X0045654Y0090767D01*
X0045154Y0091975D01*
X0044230Y0092898D01*
X0043023Y0093398D01*
X0041717Y0093398D01*
X0040510Y0092898D01*
X0039586Y0091975D01*
X0039086Y0090767D01*
X0039086Y0089461D01*
X0039586Y0088254D01*
X0040154Y0087686D01*
X0040154Y0078538D01*
X0040254Y0078438D01*
X0040254Y0063579D01*
X0041367Y0062466D01*
X0060441Y0062466D01*
X0061554Y0063579D01*
X0061554Y0065153D01*
X0060441Y0066266D01*
X0059054Y0066266D01*
X0059054Y0080153D01*
X0059054Y0079387D02*
X0090413Y0079387D01*
X0089301Y0078388D02*
X0059054Y0078388D01*
X0059054Y0077390D02*
X0088302Y0077390D01*
X0087638Y0076391D02*
X0059054Y0076391D01*
X0059054Y0075393D02*
X0087062Y0075393D01*
X0086572Y0074394D02*
X0059054Y0074394D01*
X0059054Y0073396D02*
X0086305Y0073396D01*
X0086037Y0072397D02*
X0059054Y0072397D01*
X0059054Y0071399D02*
X0085898Y0071399D01*
X0085898Y0070400D02*
X0059054Y0070400D01*
X0059054Y0069402D02*
X0085898Y0069402D01*
X0086052Y0068403D02*
X0059054Y0068403D01*
X0059054Y0067405D02*
X0086320Y0067405D01*
X0086588Y0066406D02*
X0059054Y0066406D01*
X0061299Y0065408D02*
X0087095Y0065408D01*
X0087672Y0064409D02*
X0061554Y0064409D01*
X0061385Y0063411D02*
X0088360Y0063411D01*
X0089358Y0062412D02*
X0024592Y0062412D01*
X0024859Y0061414D02*
X0086342Y0061414D01*
X0083774Y0060415D02*
X0025127Y0060415D01*
X0025220Y0059417D02*
X0082140Y0059417D01*
X0081141Y0058418D02*
X0025220Y0058418D01*
X0025220Y0057420D02*
X0080176Y0057420D01*
X0079600Y0056421D02*
X0025020Y0056421D01*
X0024752Y0055423D02*
X0079023Y0055423D01*
X0078622Y0054424D02*
X0024485Y0054424D01*
X0023924Y0053426D02*
X0078354Y0053426D01*
X0078087Y0052427D02*
X0023348Y0052427D01*
X0022587Y0051429D02*
X0078024Y0051429D01*
X0078024Y0050430D02*
X0021589Y0050430D01*
X0020309Y0049432D02*
X0078024Y0049432D01*
X0078255Y0048433D02*
X0018579Y0048433D01*
X0010276Y0047434D02*
X0078522Y0047434D01*
X0078809Y0046436D02*
X0072727Y0046436D01*
X0073726Y0045437D02*
X0079386Y0045437D01*
X0079962Y0044439D02*
X0074150Y0044439D01*
X0074429Y0043440D02*
X0080771Y0043440D01*
X0081769Y0042442D02*
X0074429Y0042442D01*
X0074429Y0041443D02*
X0083133Y0041443D01*
X0084960Y0040445D02*
X0074429Y0040445D01*
X0074429Y0037449D02*
X0114683Y0037449D01*
X0113225Y0036451D02*
X0074429Y0036451D01*
X0074429Y0035452D02*
X0112226Y0035452D01*
X0112183Y0034454D02*
X0074429Y0034454D01*
X0074429Y0013485D02*
X0195350Y0013485D01*
X0195350Y0012487D02*
X0074429Y0012487D01*
X0074429Y0011488D02*
X0195350Y0011488D01*
X0195193Y0010490D02*
X0074587Y0010490D01*
X0075052Y0009491D02*
X0194728Y0009491D01*
X0193680Y0008493D02*
X0076100Y0008493D01*
X0126583Y0017122D02*
X0134890Y0017122D01*
X0134890Y0160980D01*
X0137913Y0162263D02*
X0139740Y0162263D01*
X0139480Y0161265D02*
X0138174Y0161265D01*
X0138149Y0160266D02*
X0139505Y0160266D01*
X0139918Y0159268D02*
X0137735Y0159268D01*
X0136890Y0158269D02*
X0140764Y0158269D01*
X0140764Y0157271D02*
X0136890Y0157271D01*
X0136890Y0156272D02*
X0140764Y0156272D01*
X0140764Y0155274D02*
X0136890Y0155274D01*
X0136890Y0154275D02*
X0140764Y0154275D01*
X0140764Y0153277D02*
X0136890Y0153277D01*
X0136890Y0152278D02*
X0140764Y0152278D01*
X0140764Y0151280D02*
X0136890Y0151280D01*
X0136890Y0150281D02*
X0140764Y0150281D01*
X0140764Y0149283D02*
X0136890Y0149283D01*
X0136890Y0148284D02*
X0140764Y0148284D01*
X0140764Y0147286D02*
X0136890Y0147286D01*
X0136890Y0146287D02*
X0140764Y0146287D01*
X0140764Y0145289D02*
X0136890Y0145289D01*
X0136890Y0144290D02*
X0140764Y0144290D01*
X0140764Y0143292D02*
X0136890Y0143292D01*
X0136890Y0142293D02*
X0140764Y0142293D01*
X0140764Y0141295D02*
X0136890Y0141295D01*
X0136890Y0140296D02*
X0140764Y0140296D01*
X0140764Y0139298D02*
X0136890Y0139298D01*
X0136890Y0138299D02*
X0140764Y0138299D01*
X0140764Y0137301D02*
X0136890Y0137301D01*
X0136890Y0136302D02*
X0140764Y0136302D01*
X0140764Y0135303D02*
X0136890Y0135303D01*
X0136890Y0134305D02*
X0140764Y0134305D01*
X0140764Y0133306D02*
X0136890Y0133306D01*
X0136890Y0132308D02*
X0140764Y0132308D01*
X0140764Y0131309D02*
X0136890Y0131309D01*
X0136890Y0130311D02*
X0140764Y0130311D01*
X0140764Y0129312D02*
X0136890Y0129312D01*
X0136890Y0128314D02*
X0140764Y0128314D01*
X0140764Y0127315D02*
X0136890Y0127315D01*
X0136890Y0126317D02*
X0140764Y0126317D01*
X0140764Y0125318D02*
X0136890Y0125318D01*
X0136890Y0124320D02*
X0140764Y0124320D01*
X0140764Y0123321D02*
X0136890Y0123321D01*
X0136890Y0122323D02*
X0140764Y0122323D01*
X0140764Y0121324D02*
X0136890Y0121324D01*
X0136890Y0120326D02*
X0140764Y0120326D01*
X0140764Y0119327D02*
X0136890Y0119327D01*
X0136890Y0118329D02*
X0140764Y0118329D01*
X0140764Y0117330D02*
X0136890Y0117330D01*
X0136890Y0116332D02*
X0140764Y0116332D01*
X0140764Y0115333D02*
X0136890Y0115333D01*
X0136890Y0114335D02*
X0140764Y0114335D01*
X0140764Y0113336D02*
X0136890Y0113336D01*
X0136890Y0112338D02*
X0140764Y0112338D01*
X0140764Y0111339D02*
X0136890Y0111339D01*
X0136890Y0110341D02*
X0140764Y0110341D01*
X0140764Y0109342D02*
X0136890Y0109342D01*
X0136890Y0108344D02*
X0140764Y0108344D01*
X0140764Y0107345D02*
X0136890Y0107345D01*
X0136890Y0106347D02*
X0140764Y0106347D01*
X0140764Y0105348D02*
X0136890Y0105348D01*
X0136890Y0104350D02*
X0140764Y0104350D01*
X0140764Y0103351D02*
X0136890Y0103351D01*
X0136890Y0102353D02*
X0140764Y0102353D01*
X0140764Y0101354D02*
X0136890Y0101354D01*
X0136890Y0100356D02*
X0140764Y0100356D01*
X0140764Y0099357D02*
X0136890Y0099357D01*
X0136890Y0098359D02*
X0140764Y0098359D01*
X0140764Y0097360D02*
X0136890Y0097360D01*
X0136890Y0096362D02*
X0140764Y0096362D01*
X0140764Y0095363D02*
X0136890Y0095363D01*
X0136890Y0094365D02*
X0140764Y0094365D01*
X0140764Y0093366D02*
X0136890Y0093366D01*
X0136890Y0092368D02*
X0140764Y0092368D01*
X0140764Y0091369D02*
X0136890Y0091369D01*
X0136890Y0090370D02*
X0140764Y0090370D01*
X0140764Y0089372D02*
X0136890Y0089372D01*
X0136890Y0088373D02*
X0140764Y0088373D01*
X0140764Y0087375D02*
X0136890Y0087375D01*
X0136890Y0086376D02*
X0140764Y0086376D01*
X0140764Y0085378D02*
X0136890Y0085378D01*
X0136890Y0084379D02*
X0140764Y0084379D01*
X0140764Y0083381D02*
X0136890Y0083381D01*
X0136890Y0082382D02*
X0140764Y0082382D01*
X0140764Y0081384D02*
X0136890Y0081384D01*
X0136890Y0080385D02*
X0140764Y0080385D01*
X0140764Y0079387D02*
X0136890Y0079387D01*
X0136890Y0078388D02*
X0140764Y0078388D01*
X0140764Y0077390D02*
X0136890Y0077390D01*
X0136890Y0076391D02*
X0140764Y0076391D01*
X0140764Y0075393D02*
X0136890Y0075393D01*
X0136890Y0074394D02*
X0140764Y0074394D01*
X0140764Y0073396D02*
X0136890Y0073396D01*
X0136890Y0072397D02*
X0140764Y0072397D01*
X0140764Y0071399D02*
X0136890Y0071399D01*
X0136890Y0070400D02*
X0140764Y0070400D01*
X0140764Y0069402D02*
X0136890Y0069402D01*
X0136890Y0068403D02*
X0140764Y0068403D01*
X0140764Y0067405D02*
X0136890Y0067405D01*
X0136890Y0066406D02*
X0140764Y0066406D01*
X0140764Y0065408D02*
X0136890Y0065408D01*
X0136890Y0064409D02*
X0140764Y0064409D01*
X0140764Y0063411D02*
X0136890Y0063411D01*
X0136890Y0062412D02*
X0140764Y0062412D01*
X0140764Y0061414D02*
X0136890Y0061414D01*
X0136890Y0060415D02*
X0140764Y0060415D01*
X0140764Y0059417D02*
X0136890Y0059417D01*
X0136890Y0058418D02*
X0140764Y0058418D01*
X0140764Y0057420D02*
X0136890Y0057420D01*
X0136890Y0056421D02*
X0140764Y0056421D01*
X0140764Y0055423D02*
X0136890Y0055423D01*
X0136890Y0054424D02*
X0140764Y0054424D01*
X0140764Y0053426D02*
X0136890Y0053426D01*
X0136890Y0052427D02*
X0140764Y0052427D01*
X0140764Y0051429D02*
X0136890Y0051429D01*
X0136890Y0050430D02*
X0140764Y0050430D01*
X0140764Y0049432D02*
X0136890Y0049432D01*
X0136890Y0048433D02*
X0140764Y0048433D01*
X0140764Y0047434D02*
X0136890Y0047434D01*
X0136890Y0046436D02*
X0140764Y0046436D01*
X0140764Y0045437D02*
X0136890Y0045437D01*
X0136890Y0044439D02*
X0140764Y0044439D01*
X0140764Y0043440D02*
X0136890Y0043440D01*
X0136890Y0042442D02*
X0140764Y0042442D01*
X0140764Y0041443D02*
X0136890Y0041443D01*
X0136890Y0040445D02*
X0140764Y0040445D01*
X0140764Y0039446D02*
X0136890Y0039446D01*
X0136890Y0038448D02*
X0140764Y0038448D01*
X0140764Y0037449D02*
X0136890Y0037449D01*
X0136890Y0036451D02*
X0140764Y0036451D01*
X0140764Y0035452D02*
X0136890Y0035452D01*
X0136890Y0034454D02*
X0140764Y0034454D01*
X0140764Y0033455D02*
X0136890Y0033455D01*
X0136890Y0032457D02*
X0140764Y0032457D01*
X0140764Y0031458D02*
X0136890Y0031458D01*
X0136890Y0030460D02*
X0140764Y0030460D01*
X0140764Y0029461D02*
X0136890Y0029461D01*
X0136890Y0028463D02*
X0140764Y0028463D01*
X0140764Y0027464D02*
X0136890Y0027464D01*
X0136890Y0026466D02*
X0140764Y0026466D01*
X0140764Y0025467D02*
X0136890Y0025467D01*
X0136890Y0024469D02*
X0140764Y0024469D01*
X0140764Y0023470D02*
X0136890Y0023470D01*
X0136890Y0022472D02*
X0140764Y0022472D01*
X0140764Y0021473D02*
X0136890Y0021473D01*
X0136890Y0020475D02*
X0140764Y0020475D01*
X0140764Y0019476D02*
X0136890Y0019476D01*
X0136890Y0018478D02*
X0140764Y0018478D01*
X0140764Y0017479D02*
X0136890Y0017479D01*
X0136890Y0016481D02*
X0140764Y0016481D01*
X0141575Y0015482D02*
X0136078Y0015482D01*
X0142764Y0017122D02*
X0156327Y0017122D01*
X0158227Y0019476D02*
X0159427Y0019476D01*
X0159427Y0020475D02*
X0158227Y0020475D01*
X0158227Y0021473D02*
X0159427Y0021473D01*
X0159427Y0022472D02*
X0158227Y0022472D01*
X0158227Y0023470D02*
X0159427Y0023470D01*
X0159427Y0024469D02*
X0158227Y0024469D01*
X0158227Y0025467D02*
X0159427Y0025467D01*
X0159427Y0026466D02*
X0158227Y0026466D01*
X0158227Y0027464D02*
X0159427Y0027464D01*
X0159427Y0028463D02*
X0158227Y0028463D01*
X0158227Y0029461D02*
X0159427Y0029461D01*
X0159427Y0030460D02*
X0158227Y0030460D01*
X0158227Y0031458D02*
X0159427Y0031458D01*
X0159427Y0032457D02*
X0158227Y0032457D01*
X0157680Y0033455D02*
X0159427Y0033455D01*
X0159427Y0034454D02*
X0144764Y0034454D01*
X0144764Y0035452D02*
X0159470Y0035452D01*
X0160469Y0036451D02*
X0144764Y0036451D01*
X0144764Y0037449D02*
X0161927Y0037449D01*
X0162466Y0038448D02*
X0144764Y0038448D01*
X0144764Y0033455D02*
X0154973Y0033455D01*
X0154427Y0032457D02*
X0144764Y0032457D01*
X0144764Y0031458D02*
X0154427Y0031458D01*
X0154427Y0030460D02*
X0144764Y0030460D01*
X0144764Y0029461D02*
X0154427Y0029461D01*
X0154427Y0028463D02*
X0144764Y0028463D01*
X0144764Y0027464D02*
X0154427Y0027464D01*
X0154427Y0026466D02*
X0144764Y0026466D01*
X0144764Y0025467D02*
X0154427Y0025467D01*
X0154427Y0024469D02*
X0144764Y0024469D01*
X0144764Y0023470D02*
X0154427Y0023470D01*
X0154427Y0022472D02*
X0144764Y0022472D01*
X0144764Y0021473D02*
X0154427Y0021473D01*
X0154427Y0020475D02*
X0144764Y0020475D01*
X0144764Y0019476D02*
X0154427Y0019476D01*
X0142764Y0017122D02*
X0142764Y0160980D01*
X0144764Y0158269D02*
X0155508Y0158269D01*
X0155508Y0157271D02*
X0144764Y0157271D01*
X0144764Y0156272D02*
X0155508Y0156272D01*
X0155508Y0155274D02*
X0144764Y0155274D01*
X0144764Y0154275D02*
X0155508Y0154275D01*
X0155572Y0153277D02*
X0144764Y0153277D01*
X0144764Y0152278D02*
X0155608Y0152278D01*
X0155608Y0151280D02*
X0144764Y0151280D01*
X0144764Y0150281D02*
X0155608Y0150281D01*
X0155608Y0149283D02*
X0144764Y0149283D01*
X0144764Y0148284D02*
X0155608Y0148284D01*
X0155608Y0147286D02*
X0144764Y0147286D01*
X0144764Y0146287D02*
X0155608Y0146287D01*
X0155608Y0145289D02*
X0144764Y0145289D01*
X0144764Y0144290D02*
X0155608Y0144290D01*
X0155608Y0143292D02*
X0144764Y0143292D01*
X0144764Y0142293D02*
X0155608Y0142293D01*
X0155608Y0141295D02*
X0144764Y0141295D01*
X0144764Y0140296D02*
X0155608Y0140296D01*
X0155608Y0139298D02*
X0144764Y0139298D01*
X0144764Y0138299D02*
X0155691Y0138299D01*
X0156690Y0137301D02*
X0144764Y0137301D01*
X0144764Y0136302D02*
X0212644Y0136302D01*
X0213560Y0136547D02*
X0210762Y0135798D01*
X0208254Y0134349D01*
X0206206Y0132301D01*
X0204758Y0129793D01*
X0204008Y0126995D01*
X0204008Y0124099D01*
X0204758Y0121301D01*
X0206206Y0118793D01*
X0208254Y0116745D01*
X0210762Y0115297D01*
X0213560Y0114547D01*
X0216456Y0114547D01*
X0219254Y0115297D01*
X0221762Y0116745D01*
X0223810Y0118793D01*
X0225258Y0121301D01*
X0226008Y0124099D01*
X0226008Y0126995D01*
X0225258Y0129793D01*
X0223810Y0132301D01*
X0221762Y0134349D01*
X0219254Y0135798D01*
X0216456Y0136547D01*
X0213560Y0136547D01*
X0217371Y0136302D02*
X0235252Y0136302D01*
X0235252Y0135303D02*
X0220110Y0135303D01*
X0221806Y0134305D02*
X0235252Y0134305D01*
X0235252Y0133306D02*
X0222805Y0133306D01*
X0223803Y0132308D02*
X0235252Y0132308D01*
X0235252Y0131309D02*
X0224383Y0131309D01*
X0224959Y0130311D02*
X0235252Y0130311D01*
X0235252Y0129312D02*
X0225387Y0129312D01*
X0225655Y0128314D02*
X0235252Y0128314D01*
X0235252Y0127315D02*
X0225922Y0127315D01*
X0226008Y0126317D02*
X0235252Y0126317D01*
X0235252Y0125318D02*
X0226008Y0125318D01*
X0226008Y0124320D02*
X0235252Y0124320D01*
X0235252Y0123321D02*
X0225799Y0123321D01*
X0225532Y0122323D02*
X0235252Y0122323D01*
X0235252Y0121324D02*
X0225264Y0121324D01*
X0224695Y0120326D02*
X0235252Y0120326D01*
X0235252Y0119327D02*
X0224118Y0119327D01*
X0223346Y0118329D02*
X0235252Y0118329D01*
X0235252Y0117330D02*
X0222347Y0117330D01*
X0221046Y0116332D02*
X0235252Y0116332D01*
X0235252Y0115333D02*
X0219317Y0115333D01*
X0210699Y0115333D02*
X0195689Y0115333D01*
X0195719Y0115363D02*
X0196102Y0115937D01*
X0196365Y0116574D01*
X0196500Y0117250D01*
X0196500Y0117594D01*
X0193000Y0117594D01*
X0193000Y0114094D01*
X0193000Y0117594D01*
X0193000Y0117594D01*
X0193000Y0117595D01*
X0193000Y0121094D01*
X0193345Y0121094D01*
X0194021Y0120960D01*
X0194658Y0120696D01*
X0195231Y0120313D01*
X0195719Y0119826D01*
X0196102Y0119252D01*
X0196365Y0118615D01*
X0196500Y0117939D01*
X0196500Y0117595D01*
X0193000Y0117595D01*
X0193000Y0117595D01*
X0193000Y0121094D01*
X0192655Y0121094D01*
X0191979Y0120960D01*
X0191342Y0120696D01*
X0190769Y0120313D01*
X0190281Y0119826D01*
X0189898Y0119252D01*
X0189634Y0118615D01*
X0189500Y0117939D01*
X0189500Y0117595D01*
X0193000Y0117595D01*
X0193000Y0117594D01*
X0189500Y0117594D01*
X0189500Y0117250D01*
X0189634Y0116574D01*
X0189898Y0115937D01*
X0190281Y0115363D01*
X0190769Y0114876D01*
X0191342Y0114493D01*
X0191979Y0114229D01*
X0192655Y0114094D01*
X0193000Y0114094D01*
X0193345Y0114094D01*
X0194021Y0114229D01*
X0194658Y0114493D01*
X0195231Y0114876D01*
X0195719Y0115363D01*
X0196265Y0116332D02*
X0208970Y0116332D01*
X0207668Y0117330D02*
X0196500Y0117330D01*
X0196423Y0118329D02*
X0206670Y0118329D01*
X0205897Y0119327D02*
X0196052Y0119327D01*
X0195212Y0120326D02*
X0205321Y0120326D01*
X0204751Y0121324D02*
X0144764Y0121324D01*
X0144764Y0120326D02*
X0170782Y0120326D01*
X0171017Y0120562D02*
X0170033Y0119577D01*
X0169500Y0118291D01*
X0169500Y0116898D01*
X0170033Y0115612D01*
X0171017Y0114627D01*
X0172304Y0114094D01*
X0173696Y0114094D01*
X0174983Y0114627D01*
X0175967Y0115612D01*
X0176500Y0116898D01*
X0176500Y0118291D01*
X0175967Y0119577D01*
X0174983Y0120562D01*
X0173696Y0121094D01*
X0172304Y0121094D01*
X0171017Y0120562D01*
X0169929Y0119327D02*
X0144764Y0119327D01*
X0144764Y0118329D02*
X0169516Y0118329D01*
X0169500Y0117330D02*
X0144764Y0117330D01*
X0144764Y0116332D02*
X0169735Y0116332D01*
X0170311Y0115333D02*
X0144764Y0115333D01*
X0144764Y0114335D02*
X0171724Y0114335D01*
X0174276Y0114335D02*
X0181724Y0114335D01*
X0182304Y0114094D02*
X0181017Y0114627D01*
X0180033Y0115612D01*
X0179500Y0116898D01*
X0179500Y0118291D01*
X0180033Y0119577D01*
X0181017Y0120562D01*
X0182304Y0121094D01*
X0183696Y0121094D01*
X0184983Y0120562D01*
X0185967Y0119577D01*
X0186500Y0118291D01*
X0186500Y0116898D01*
X0185967Y0115612D01*
X0184983Y0114627D01*
X0183696Y0114094D01*
X0182304Y0114094D01*
X0184276Y0114335D02*
X0191724Y0114335D01*
X0193000Y0114335D02*
X0193000Y0114335D01*
X0193000Y0115333D02*
X0193000Y0115333D01*
X0193000Y0116332D02*
X0193000Y0116332D01*
X0193000Y0117330D02*
X0193000Y0117330D01*
X0193000Y0118329D02*
X0193000Y0118329D01*
X0193000Y0119327D02*
X0193000Y0119327D01*
X0193000Y0120326D02*
X0193000Y0120326D01*
X0190788Y0120326D02*
X0185218Y0120326D01*
X0186071Y0119327D02*
X0189948Y0119327D01*
X0189577Y0118329D02*
X0186484Y0118329D01*
X0186500Y0117330D02*
X0189500Y0117330D01*
X0189735Y0116332D02*
X0186265Y0116332D01*
X0185689Y0115333D02*
X0190311Y0115333D01*
X0194276Y0114335D02*
X0235252Y0114335D01*
X0235252Y0113336D02*
X0144764Y0113336D01*
X0144764Y0112338D02*
X0235252Y0112338D01*
X0235252Y0111339D02*
X0144764Y0111339D01*
X0144764Y0110341D02*
X0235252Y0110341D01*
X0239252Y0110341D02*
X0241041Y0110341D01*
X0241041Y0111339D02*
X0239252Y0111339D01*
X0239252Y0112338D02*
X0241041Y0112338D01*
X0241041Y0113336D02*
X0239252Y0113336D01*
X0239252Y0114335D02*
X0241041Y0114335D01*
X0241041Y0115333D02*
X0239252Y0115333D01*
X0239252Y0116332D02*
X0241041Y0116332D01*
X0241041Y0117330D02*
X0239252Y0117330D01*
X0239252Y0118329D02*
X0241041Y0118329D01*
X0241041Y0119327D02*
X0239252Y0119327D01*
X0239252Y0120326D02*
X0241041Y0120326D01*
X0241041Y0121324D02*
X0239252Y0121324D01*
X0239252Y0122323D02*
X0241041Y0122323D01*
X0241041Y0123321D02*
X0239252Y0123321D01*
X0239252Y0124320D02*
X0241901Y0124320D01*
X0243981Y0124320D02*
X0246041Y0124320D01*
X0246041Y0125318D02*
X0239252Y0125318D01*
X0239252Y0126317D02*
X0246398Y0126317D01*
X0248541Y0127315D02*
X0239252Y0127315D01*
X0239252Y0128314D02*
X0248541Y0128314D01*
X0249393Y0129312D02*
X0239252Y0129312D01*
X0239252Y0130311D02*
X0264780Y0130311D01*
X0264780Y0131309D02*
X0239252Y0131309D01*
X0239252Y0132308D02*
X0264780Y0132308D01*
X0264780Y0133306D02*
X0239252Y0133306D01*
X0239252Y0134305D02*
X0264780Y0134305D01*
X0264780Y0135303D02*
X0239252Y0135303D01*
X0239252Y0136302D02*
X0264780Y0136302D01*
X0264780Y0137301D02*
X0239252Y0137301D01*
X0239252Y0138299D02*
X0264780Y0138299D01*
X0264780Y0139298D02*
X0239252Y0139298D01*
X0239252Y0140296D02*
X0264780Y0140296D01*
X0264780Y0141295D02*
X0239252Y0141295D01*
X0239252Y0142293D02*
X0264780Y0142293D01*
X0264780Y0143292D02*
X0239252Y0143292D01*
X0239252Y0144290D02*
X0264780Y0144290D01*
X0264780Y0145289D02*
X0239252Y0145289D01*
X0239252Y0146287D02*
X0264780Y0146287D01*
X0264780Y0147286D02*
X0239252Y0147286D01*
X0239252Y0148284D02*
X0264780Y0148284D01*
X0264780Y0149283D02*
X0239252Y0149283D01*
X0239252Y0150281D02*
X0264780Y0150281D01*
X0264780Y0151280D02*
X0239252Y0151280D01*
X0239252Y0152278D02*
X0264780Y0152278D01*
X0264780Y0153277D02*
X0239252Y0153277D01*
X0239252Y0154275D02*
X0264780Y0154275D01*
X0264780Y0155274D02*
X0239252Y0155274D01*
X0239252Y0156272D02*
X0264780Y0156272D01*
X0264780Y0157271D02*
X0239252Y0157271D01*
X0239252Y0158269D02*
X0264780Y0158269D01*
X0264780Y0159268D02*
X0239252Y0159268D01*
X0239252Y0160266D02*
X0264780Y0160266D01*
X0264780Y0161265D02*
X0239252Y0161265D01*
X0239252Y0162263D02*
X0264780Y0162263D01*
X0264780Y0163262D02*
X0239252Y0163262D01*
X0239252Y0164260D02*
X0264780Y0164260D01*
X0264780Y0165259D02*
X0239252Y0165259D01*
X0239252Y0166257D02*
X0264780Y0166257D01*
X0264780Y0167256D02*
X0239252Y0167256D01*
X0239252Y0168254D02*
X0264780Y0168254D01*
X0264780Y0169253D02*
X0239252Y0169253D01*
X0239252Y0170251D02*
X0264780Y0170251D01*
X0264780Y0171250D02*
X0257952Y0171250D01*
X0257920Y0171217D02*
X0259121Y0172419D01*
X0259772Y0173989D01*
X0259772Y0175688D01*
X0259121Y0177258D01*
X0257920Y0178460D01*
X0256350Y0179110D01*
X0254650Y0179110D01*
X0253080Y0178460D01*
X0251879Y0177258D01*
X0251228Y0175688D01*
X0251228Y0173989D01*
X0251879Y0172419D01*
X0253080Y0171217D01*
X0254650Y0170567D01*
X0256350Y0170567D01*
X0257920Y0171217D01*
X0258951Y0172248D02*
X0264780Y0172248D01*
X0264780Y0173247D02*
X0259464Y0173247D01*
X0259772Y0174245D02*
X0264780Y0174245D01*
X0264780Y0175244D02*
X0259772Y0175244D01*
X0259542Y0176242D02*
X0264780Y0176242D01*
X0264780Y0177241D02*
X0259128Y0177241D01*
X0258140Y0178239D02*
X0264780Y0178239D01*
X0264780Y0179238D02*
X0239252Y0179238D01*
X0239252Y0180237D02*
X0264780Y0180237D01*
X0264780Y0181235D02*
X0239252Y0181235D01*
X0239252Y0182234D02*
X0264780Y0182234D01*
X0264780Y0183232D02*
X0239252Y0183232D01*
X0239252Y0184231D02*
X0264780Y0184231D01*
X0264780Y0185229D02*
X0239252Y0185229D01*
X0239252Y0186228D02*
X0264780Y0186228D01*
X0264780Y0187226D02*
X0239252Y0187226D01*
X0239252Y0188225D02*
X0253842Y0188225D01*
X0253080Y0188540D02*
X0254650Y0187890D01*
X0256350Y0187890D01*
X0257920Y0188540D01*
X0259121Y0189742D01*
X0259772Y0191312D01*
X0259772Y0193011D01*
X0259121Y0194581D01*
X0257920Y0195783D01*
X0256350Y0196433D01*
X0254650Y0196433D01*
X0253080Y0195783D01*
X0251879Y0194581D01*
X0251228Y0193011D01*
X0251228Y0191312D01*
X0251879Y0189742D01*
X0253080Y0188540D01*
X0252397Y0189223D02*
X0239252Y0189223D01*
X0239252Y0190222D02*
X0251680Y0190222D01*
X0251266Y0191220D02*
X0239252Y0191220D01*
X0239252Y0192219D02*
X0251228Y0192219D01*
X0251314Y0193217D02*
X0239252Y0193217D01*
X0239252Y0194216D02*
X0251727Y0194216D01*
X0252512Y0195214D02*
X0239252Y0195214D01*
X0239252Y0196213D02*
X0254118Y0196213D01*
X0256882Y0196213D02*
X0264780Y0196213D01*
X0264780Y0197211D02*
X0239252Y0197211D01*
X0239252Y0198210D02*
X0264780Y0198210D01*
X0264780Y0199208D02*
X0239252Y0199208D01*
X0239252Y0200207D02*
X0264780Y0200207D01*
X0264780Y0201205D02*
X0239252Y0201205D01*
X0239211Y0202204D02*
X0264780Y0202204D01*
X0266780Y0204878D02*
X0266780Y0107673D01*
X0260441Y0107673D01*
X0259841Y0110341D02*
X0264780Y0110341D01*
X0264780Y0111339D02*
X0259841Y0111339D01*
X0259841Y0112338D02*
X0264780Y0112338D01*
X0264780Y0113336D02*
X0259841Y0113336D01*
X0259841Y0114335D02*
X0264780Y0114335D01*
X0264780Y0115333D02*
X0259841Y0115333D01*
X0259841Y0116332D02*
X0264780Y0116332D01*
X0264780Y0117330D02*
X0259841Y0117330D01*
X0259841Y0118329D02*
X0264780Y0118329D01*
X0264780Y0119327D02*
X0259841Y0119327D01*
X0259841Y0120326D02*
X0264780Y0120326D01*
X0264780Y0121324D02*
X0259841Y0121324D01*
X0259841Y0122323D02*
X0264780Y0122323D01*
X0264780Y0123321D02*
X0259841Y0123321D01*
X0258981Y0124320D02*
X0264780Y0124320D01*
X0264780Y0125318D02*
X0257341Y0125318D01*
X0257341Y0126317D02*
X0259110Y0126317D01*
X0259274Y0126153D02*
X0259708Y0125903D01*
X0260191Y0125773D01*
X0260441Y0125773D01*
X0260691Y0125773D01*
X0261174Y0125903D01*
X0261608Y0126153D01*
X0261961Y0126507D01*
X0262211Y0126940D01*
X0262341Y0127423D01*
X0262341Y0127673D01*
X0260441Y0127673D01*
X0260441Y0125773D01*
X0260441Y0127673D01*
X0260441Y0127673D01*
X0260441Y0127673D01*
X0258541Y0127673D01*
X0258541Y0127423D01*
X0258670Y0126940D01*
X0258921Y0126507D01*
X0259274Y0126153D01*
X0260441Y0126317D02*
X0260441Y0126317D01*
X0260441Y0127315D02*
X0260441Y0127315D01*
X0260441Y0127673D02*
X0260441Y0127673D01*
X0262341Y0127673D01*
X0262341Y0127923D01*
X0262211Y0128407D01*
X0261961Y0128840D01*
X0261608Y0129194D01*
X0261174Y0129444D01*
X0260691Y0129573D01*
X0260441Y0129573D01*
X0260441Y0127673D01*
X0258541Y0127673D01*
X0258541Y0127923D01*
X0258670Y0128407D01*
X0258921Y0128840D01*
X0259274Y0129194D01*
X0259708Y0129444D01*
X0260191Y0129573D01*
X0260441Y0129573D01*
X0260441Y0127673D01*
X0260441Y0127673D01*
X0260441Y0128314D02*
X0260441Y0128314D01*
X0260441Y0129312D02*
X0260441Y0129312D01*
X0261402Y0129312D02*
X0264780Y0129312D01*
X0264780Y0128314D02*
X0262236Y0128314D01*
X0262312Y0127315D02*
X0264780Y0127315D01*
X0264780Y0126317D02*
X0261772Y0126317D01*
X0258570Y0127315D02*
X0257341Y0127315D01*
X0257341Y0128314D02*
X0258646Y0128314D01*
X0259480Y0129312D02*
X0256489Y0129312D01*
X0254393Y0129312D02*
X0251489Y0129312D01*
X0252341Y0128314D02*
X0253541Y0128314D01*
X0253541Y0127315D02*
X0252341Y0127315D01*
X0246041Y0123321D02*
X0244841Y0123321D01*
X0244841Y0122323D02*
X0246041Y0122323D01*
X0246041Y0121324D02*
X0244841Y0121324D01*
X0244841Y0120326D02*
X0246041Y0120326D01*
X0246041Y0119327D02*
X0244841Y0119327D01*
X0244841Y0118329D02*
X0246041Y0118329D01*
X0246041Y0117330D02*
X0244841Y0117330D01*
X0244841Y0116332D02*
X0246041Y0116332D01*
X0246041Y0115333D02*
X0244841Y0115333D01*
X0244841Y0114335D02*
X0246041Y0114335D01*
X0246041Y0113336D02*
X0244841Y0113336D01*
X0244841Y0112338D02*
X0246041Y0112338D01*
X0246041Y0111339D02*
X0244841Y0111339D01*
X0244841Y0110341D02*
X0246041Y0110341D01*
X0241041Y0109342D02*
X0239252Y0109342D01*
X0239252Y0108344D02*
X0241041Y0108344D01*
X0241041Y0107345D02*
X0239252Y0107345D01*
X0238596Y0106347D02*
X0241580Y0106347D01*
X0222459Y0096362D02*
X0205904Y0096362D01*
X0205904Y0095363D02*
X0220729Y0095363D01*
X0219450Y0094365D02*
X0205904Y0094365D01*
X0205904Y0093366D02*
X0218451Y0093366D01*
X0217691Y0092368D02*
X0205904Y0092368D01*
X0205072Y0091369D02*
X0217115Y0091369D01*
X0216554Y0090370D02*
X0200904Y0090370D01*
X0200904Y0091369D02*
X0202936Y0091369D01*
X0202104Y0092368D02*
X0200904Y0092368D01*
X0200904Y0093366D02*
X0202104Y0093366D01*
X0202104Y0094365D02*
X0200904Y0094365D01*
X0200904Y0095363D02*
X0202104Y0095363D01*
X0202104Y0096362D02*
X0200904Y0096362D01*
X0200904Y0097360D02*
X0202104Y0097360D01*
X0202104Y0098359D02*
X0200904Y0098359D01*
X0200904Y0099357D02*
X0202104Y0099357D01*
X0202104Y0100356D02*
X0200904Y0100356D01*
X0200904Y0101354D02*
X0202104Y0101354D01*
X0202104Y0102353D02*
X0200904Y0102353D01*
X0200904Y0103351D02*
X0202104Y0103351D01*
X0202104Y0104350D02*
X0200904Y0104350D01*
X0200904Y0105348D02*
X0202104Y0105348D01*
X0187104Y0105348D02*
X0144764Y0105348D01*
X0144764Y0104350D02*
X0187104Y0104350D01*
X0187104Y0103351D02*
X0144764Y0103351D01*
X0144764Y0102353D02*
X0187104Y0102353D01*
X0187104Y0101354D02*
X0144764Y0101354D01*
X0144764Y0100356D02*
X0187104Y0100356D01*
X0187104Y0099357D02*
X0144764Y0099357D01*
X0144764Y0098359D02*
X0187104Y0098359D01*
X0187104Y0097360D02*
X0144764Y0097360D01*
X0144764Y0096362D02*
X0187104Y0096362D01*
X0187104Y0095363D02*
X0144764Y0095363D01*
X0144764Y0094365D02*
X0187104Y0094365D01*
X0187104Y0093366D02*
X0144764Y0093366D01*
X0144764Y0092368D02*
X0187104Y0092368D01*
X0187936Y0091369D02*
X0144764Y0091369D01*
X0144764Y0090370D02*
X0189604Y0090370D01*
X0189604Y0089372D02*
X0187807Y0089372D01*
X0187671Y0089509D02*
X0188024Y0089155D01*
X0188274Y0088722D01*
X0188404Y0088238D01*
X0188404Y0087988D01*
X0186504Y0087988D01*
X0186504Y0086088D01*
X0186754Y0086088D01*
X0187237Y0086218D01*
X0187671Y0086468D01*
X0188024Y0086822D01*
X0188274Y0087255D01*
X0188404Y0087738D01*
X0188404Y0087988D01*
X0186504Y0087988D01*
X0186504Y0087988D01*
X0186504Y0087988D01*
X0186504Y0086088D01*
X0186254Y0086088D01*
X0185771Y0086218D01*
X0185337Y0086468D01*
X0184984Y0086822D01*
X0184733Y0087255D01*
X0184604Y0087738D01*
X0184604Y0087988D01*
X0186504Y0087988D01*
X0186504Y0087988D01*
X0184604Y0087988D01*
X0184604Y0088238D01*
X0184733Y0088722D01*
X0184984Y0089155D01*
X0185337Y0089509D01*
X0185771Y0089759D01*
X0186254Y0089888D01*
X0186504Y0089888D01*
X0186504Y0087988D01*
X0186504Y0087988D01*
X0186504Y0089888D01*
X0186754Y0089888D01*
X0187237Y0089759D01*
X0187671Y0089509D01*
X0186504Y0089372D02*
X0186504Y0089372D01*
X0186504Y0088373D02*
X0186504Y0088373D01*
X0186504Y0087375D02*
X0186504Y0087375D01*
X0186504Y0086376D02*
X0186504Y0086376D01*
X0187512Y0086376D02*
X0190429Y0086376D01*
X0189604Y0087375D02*
X0188307Y0087375D01*
X0188368Y0088373D02*
X0189604Y0088373D01*
X0192579Y0086376D02*
X0195429Y0086376D01*
X0194604Y0087375D02*
X0193404Y0087375D01*
X0193404Y0088373D02*
X0194604Y0088373D01*
X0197579Y0086376D02*
X0215819Y0086376D01*
X0215819Y0085378D02*
X0144764Y0085378D01*
X0144764Y0086376D02*
X0185496Y0086376D01*
X0184701Y0087375D02*
X0144764Y0087375D01*
X0144764Y0088373D02*
X0184640Y0088373D01*
X0185201Y0089372D02*
X0144764Y0089372D01*
X0144764Y0084379D02*
X0215913Y0084379D01*
X0216180Y0083381D02*
X0144764Y0083381D01*
X0144764Y0082382D02*
X0216448Y0082382D01*
X0216885Y0081384D02*
X0144764Y0081384D01*
X0144764Y0080385D02*
X0217461Y0080385D01*
X0218053Y0079387D02*
X0144764Y0079387D01*
X0144764Y0078388D02*
X0219051Y0078388D01*
X0220050Y0077390D02*
X0144764Y0077390D01*
X0144764Y0076391D02*
X0221768Y0076391D01*
X0224566Y0075393D02*
X0144764Y0075393D01*
X0132890Y0083381D02*
X0061279Y0083381D01*
X0061174Y0083200D02*
X0061424Y0083633D01*
X0061554Y0084116D01*
X0061554Y0084366D01*
X0059654Y0084366D01*
X0059654Y0084366D01*
X0061554Y0084366D01*
X0061554Y0084616D01*
X0061424Y0085100D01*
X0061174Y0085533D01*
X0060820Y0085887D01*
X0060387Y0086137D01*
X0059904Y0086266D01*
X0059654Y0086266D01*
X0059654Y0084366D01*
X0059654Y0082466D01*
X0059904Y0082466D01*
X0060387Y0082596D01*
X0060820Y0082846D01*
X0061174Y0083200D01*
X0061554Y0084379D02*
X0132890Y0084379D01*
X0132890Y0085378D02*
X0061263Y0085378D01*
X0059654Y0085378D02*
X0059653Y0085378D01*
X0059653Y0086266D02*
X0059653Y0084366D01*
X0057754Y0084366D01*
X0057754Y0084116D01*
X0057883Y0083633D01*
X0058133Y0083200D01*
X0058487Y0082846D01*
X0058920Y0082596D01*
X0059403Y0082466D01*
X0059653Y0082466D01*
X0059653Y0084366D01*
X0059653Y0084366D01*
X0057754Y0084366D01*
X0057754Y0084616D01*
X0057883Y0085100D01*
X0058133Y0085533D01*
X0058487Y0085887D01*
X0058920Y0086137D01*
X0059403Y0086266D01*
X0059653Y0086266D01*
X0058044Y0085378D02*
X0056329Y0085378D01*
X0056554Y0084379D02*
X0057754Y0084379D01*
X0058028Y0083381D02*
X0056554Y0083381D01*
X0059653Y0083381D02*
X0059654Y0083381D01*
X0059653Y0084366D02*
X0059654Y0084366D01*
X0059653Y0084366D01*
X0059653Y0084379D02*
X0059654Y0084379D01*
X0052978Y0085378D02*
X0051329Y0085378D01*
X0051554Y0084379D02*
X0052754Y0084379D01*
X0047978Y0085378D02*
X0044154Y0085378D01*
X0044154Y0086376D02*
X0132890Y0086376D01*
X0132890Y0087375D02*
X0044275Y0087375D01*
X0045204Y0088373D02*
X0132890Y0088373D01*
X0132890Y0089372D02*
X0119581Y0089372D01*
X0120829Y0089706D02*
X0118031Y0088957D01*
X0115134Y0088957D01*
X0112337Y0089706D01*
X0109829Y0091155D01*
X0107780Y0093203D01*
X0106332Y0095711D01*
X0105583Y0098509D01*
X0105583Y0101405D01*
X0106332Y0104203D01*
X0107780Y0106711D01*
X0109829Y0108759D01*
X0112337Y0110207D01*
X0115134Y0110957D01*
X0118031Y0110957D01*
X0120829Y0110207D01*
X0123337Y0108759D01*
X0125385Y0106711D01*
X0126833Y0104203D01*
X0127583Y0101405D01*
X0127583Y0098509D01*
X0126833Y0095711D01*
X0125385Y0093203D01*
X0123337Y0091155D01*
X0120829Y0089706D01*
X0121979Y0090370D02*
X0132890Y0090370D01*
X0132890Y0091369D02*
X0123551Y0091369D01*
X0124550Y0092368D02*
X0132890Y0092368D01*
X0132890Y0093366D02*
X0125479Y0093366D01*
X0126056Y0094365D02*
X0132890Y0094365D01*
X0132890Y0095363D02*
X0126632Y0095363D01*
X0127007Y0096362D02*
X0132890Y0096362D01*
X0132890Y0097360D02*
X0127275Y0097360D01*
X0127542Y0098359D02*
X0132890Y0098359D01*
X0132890Y0099357D02*
X0127583Y0099357D01*
X0127583Y0100356D02*
X0132890Y0100356D01*
X0132890Y0101354D02*
X0127583Y0101354D01*
X0127329Y0102353D02*
X0132890Y0102353D01*
X0132890Y0103351D02*
X0127061Y0103351D01*
X0126748Y0104350D02*
X0132890Y0104350D01*
X0132890Y0105348D02*
X0126172Y0105348D01*
X0125595Y0106347D02*
X0132890Y0106347D01*
X0132890Y0107345D02*
X0124751Y0107345D01*
X0123752Y0108344D02*
X0132890Y0108344D01*
X0132890Y0109342D02*
X0122326Y0109342D01*
X0120330Y0110341D02*
X0132890Y0110341D01*
X0132890Y0111339D02*
X0090550Y0111339D01*
X0090550Y0110341D02*
X0112836Y0110341D01*
X0110839Y0109342D02*
X0090550Y0109342D01*
X0090550Y0108344D02*
X0109413Y0108344D01*
X0108415Y0107345D02*
X0090550Y0107345D01*
X0090550Y0106347D02*
X0107570Y0106347D01*
X0106994Y0105348D02*
X0090550Y0105348D01*
X0090550Y0104350D02*
X0106417Y0104350D01*
X0106104Y0103351D02*
X0090550Y0103351D01*
X0090550Y0102353D02*
X0105837Y0102353D01*
X0105583Y0101354D02*
X0092282Y0101354D01*
X0091937Y0101699D02*
X0090550Y0101699D01*
X0090550Y0115586D01*
X0089437Y0116699D01*
X0088050Y0116699D01*
X0088050Y0120586D01*
X0086937Y0121699D01*
X0085363Y0121699D01*
X0084250Y0120586D01*
X0084250Y0119199D01*
X0083050Y0119199D01*
X0083050Y0120586D01*
X0081937Y0121699D01*
X0080363Y0121699D01*
X0079250Y0120586D01*
X0079250Y0119199D01*
X0077863Y0119199D01*
X0076750Y0118086D01*
X0076750Y0101699D01*
X0075550Y0101699D01*
X0075550Y0113871D01*
X0075650Y0113971D01*
X0075650Y0122731D01*
X0075727Y0122763D01*
X0076650Y0123687D01*
X0077150Y0124894D01*
X0077150Y0126201D01*
X0076650Y0127408D01*
X0075727Y0128331D01*
X0074519Y0128831D01*
X0073213Y0128831D01*
X0072006Y0128331D01*
X0071082Y0127408D01*
X0070582Y0126201D01*
X0070582Y0124894D01*
X0071082Y0123687D01*
X0071650Y0123119D01*
X0071650Y0113971D01*
X0071750Y0113871D01*
X0071750Y0099012D01*
X0072863Y0097899D01*
X0091937Y0097899D01*
X0093050Y0099012D01*
X0093050Y0100586D01*
X0091937Y0101699D01*
X0093050Y0100356D02*
X0105583Y0100356D01*
X0105583Y0099357D02*
X0093050Y0099357D01*
X0092396Y0098359D02*
X0105623Y0098359D01*
X0105890Y0097360D02*
X0007500Y0097360D01*
X0007500Y0096362D02*
X0106158Y0096362D01*
X0106533Y0095363D02*
X0007500Y0095363D01*
X0007500Y0094365D02*
X0107110Y0094365D01*
X0107686Y0093366D02*
X0043102Y0093366D01*
X0041639Y0093366D02*
X0007500Y0093366D01*
X0007500Y0092368D02*
X0039979Y0092368D01*
X0039335Y0091369D02*
X0007500Y0091369D01*
X0007500Y0090370D02*
X0039086Y0090370D01*
X0039123Y0089372D02*
X0007500Y0089372D01*
X0007500Y0088373D02*
X0039536Y0088373D01*
X0040154Y0087375D02*
X0007500Y0087375D01*
X0007500Y0086376D02*
X0040154Y0086376D01*
X0040154Y0085378D02*
X0007500Y0085378D01*
X0007500Y0084379D02*
X0040154Y0084379D01*
X0040154Y0083381D02*
X0007500Y0083381D01*
X0007500Y0082382D02*
X0040154Y0082382D01*
X0040154Y0081384D02*
X0007500Y0081384D01*
X0007500Y0080385D02*
X0040154Y0080385D01*
X0040154Y0079387D02*
X0007500Y0079387D01*
X0007500Y0078388D02*
X0040254Y0078388D01*
X0040254Y0077390D02*
X0007500Y0077390D01*
X0007500Y0076391D02*
X0040254Y0076391D01*
X0040254Y0075393D02*
X0007500Y0075393D01*
X0007500Y0074394D02*
X0040254Y0074394D01*
X0040254Y0073396D02*
X0007500Y0073396D01*
X0007500Y0072397D02*
X0040254Y0072397D01*
X0040254Y0071399D02*
X0007500Y0071399D01*
X0007500Y0070400D02*
X0040254Y0070400D01*
X0040254Y0069402D02*
X0016476Y0069402D01*
X0019272Y0068403D02*
X0040254Y0068403D01*
X0040254Y0067405D02*
X0020990Y0067405D01*
X0021989Y0066406D02*
X0040254Y0066406D01*
X0040254Y0065408D02*
X0022987Y0065408D01*
X0023579Y0064409D02*
X0040254Y0064409D01*
X0040422Y0063411D02*
X0024155Y0063411D01*
X0011965Y0069402D02*
X0007500Y0069402D01*
X0007500Y0068403D02*
X0009169Y0068403D01*
X0008132Y0049432D02*
X0007797Y0049432D01*
X0008434Y0048433D02*
X0009862Y0048433D01*
X0044054Y0066406D02*
X0045254Y0066406D01*
X0045254Y0067405D02*
X0044054Y0067405D01*
X0044054Y0068403D02*
X0045254Y0068403D01*
X0045254Y0069402D02*
X0044054Y0069402D01*
X0044054Y0070400D02*
X0045254Y0070400D01*
X0045254Y0071399D02*
X0044054Y0071399D01*
X0044054Y0072397D02*
X0045254Y0072397D01*
X0045254Y0073396D02*
X0044054Y0073396D01*
X0044054Y0074394D02*
X0045254Y0074394D01*
X0045254Y0075393D02*
X0044054Y0075393D01*
X0044054Y0076391D02*
X0045254Y0076391D01*
X0045254Y0077390D02*
X0044054Y0077390D01*
X0044054Y0078388D02*
X0045254Y0078388D01*
X0045254Y0079387D02*
X0044154Y0079387D01*
X0044154Y0080385D02*
X0045254Y0080385D01*
X0045254Y0081384D02*
X0044154Y0081384D01*
X0044154Y0082382D02*
X0045254Y0082382D01*
X0045981Y0083381D02*
X0044154Y0083381D01*
X0044154Y0084379D02*
X0047754Y0084379D01*
X0045617Y0089372D02*
X0113585Y0089372D01*
X0111186Y0090370D02*
X0045654Y0090370D01*
X0045405Y0091369D02*
X0109614Y0091369D01*
X0108616Y0092368D02*
X0044761Y0092368D01*
X0042370Y0090114D02*
X0042154Y0090114D01*
X0042154Y0079366D01*
X0028944Y0097899D02*
X0030057Y0099012D01*
X0030057Y0100586D01*
X0028944Y0101699D01*
X0027557Y0101699D01*
X0027557Y0115586D01*
X0026444Y0116699D01*
X0025057Y0116699D01*
X0025057Y0120586D01*
X0023944Y0121699D01*
X0022370Y0121699D01*
X0021257Y0120586D01*
X0021257Y0119199D01*
X0020057Y0119199D01*
X0020057Y0120586D01*
X0018944Y0121699D01*
X0017370Y0121699D01*
X0016257Y0120586D01*
X0016257Y0119199D01*
X0014870Y0119199D01*
X0013757Y0118086D01*
X0013757Y0101699D01*
X0012557Y0101699D01*
X0012557Y0113871D01*
X0012657Y0113971D01*
X0012657Y0122731D01*
X0012734Y0122763D01*
X0013658Y0123687D01*
X0014158Y0124894D01*
X0014158Y0126201D01*
X0013658Y0127408D01*
X0012734Y0128331D01*
X0011527Y0128831D01*
X0010221Y0128831D01*
X0009014Y0128331D01*
X0008090Y0127408D01*
X0007590Y0126201D01*
X0007590Y0124894D01*
X0008090Y0123687D01*
X0008657Y0123119D01*
X0008657Y0113971D01*
X0008757Y0113871D01*
X0008757Y0099012D01*
X0009870Y0097899D01*
X0028944Y0097899D01*
X0029404Y0098359D02*
X0072403Y0098359D01*
X0071750Y0099357D02*
X0030057Y0099357D01*
X0030057Y0100356D02*
X0071750Y0100356D01*
X0071750Y0101354D02*
X0029290Y0101354D01*
X0027557Y0102353D02*
X0071750Y0102353D01*
X0071750Y0103351D02*
X0027557Y0103351D01*
X0027557Y0104350D02*
X0071750Y0104350D01*
X0071750Y0105348D02*
X0027557Y0105348D01*
X0027557Y0106347D02*
X0071750Y0106347D01*
X0071750Y0107345D02*
X0027557Y0107345D01*
X0027557Y0108344D02*
X0071750Y0108344D01*
X0071750Y0109342D02*
X0027557Y0109342D01*
X0027557Y0110341D02*
X0071750Y0110341D01*
X0071750Y0111339D02*
X0027557Y0111339D01*
X0027557Y0112338D02*
X0071750Y0112338D01*
X0071750Y0113336D02*
X0027557Y0113336D01*
X0027557Y0114335D02*
X0071650Y0114335D01*
X0071650Y0115333D02*
X0027557Y0115333D01*
X0026812Y0116332D02*
X0071650Y0116332D01*
X0071650Y0117330D02*
X0025057Y0117330D01*
X0025057Y0118329D02*
X0026941Y0118329D01*
X0026991Y0118279D02*
X0027424Y0118029D01*
X0027907Y0117899D01*
X0028157Y0117899D01*
X0028157Y0119799D01*
X0026257Y0119799D01*
X0026257Y0119549D01*
X0026387Y0119066D01*
X0026637Y0118633D01*
X0026991Y0118279D01*
X0028157Y0118329D02*
X0028158Y0118329D01*
X0028158Y0117899D02*
X0028158Y0119799D01*
X0028158Y0119799D01*
X0030057Y0119799D01*
X0030057Y0119549D01*
X0029928Y0119066D01*
X0029678Y0118633D01*
X0029324Y0118279D01*
X0028891Y0118029D01*
X0028408Y0117899D01*
X0028158Y0117899D01*
X0029374Y0118329D02*
X0071650Y0118329D01*
X0071650Y0119327D02*
X0029998Y0119327D01*
X0030057Y0119799D02*
X0030057Y0120049D01*
X0029928Y0120533D01*
X0029678Y0120966D01*
X0029324Y0121320D01*
X0028891Y0121570D01*
X0028408Y0121699D01*
X0028158Y0121699D01*
X0028158Y0119799D01*
X0030057Y0119799D01*
X0029983Y0120326D02*
X0071650Y0120326D01*
X0071650Y0121324D02*
X0029316Y0121324D01*
X0028158Y0121324D02*
X0028157Y0121324D01*
X0028157Y0121699D02*
X0027907Y0121699D01*
X0027424Y0121570D01*
X0026991Y0121320D01*
X0026637Y0120966D01*
X0026387Y0120533D01*
X0026257Y0120049D01*
X0026257Y0119799D01*
X0028157Y0119799D01*
X0028157Y0119799D01*
X0028158Y0119799D01*
X0028157Y0119799D01*
X0028157Y0121699D01*
X0026999Y0121324D02*
X0024319Y0121324D01*
X0025057Y0120326D02*
X0026332Y0120326D01*
X0026317Y0119327D02*
X0025057Y0119327D01*
X0021996Y0121324D02*
X0019319Y0121324D01*
X0020057Y0120326D02*
X0021257Y0120326D01*
X0021257Y0119327D02*
X0020057Y0119327D01*
X0016996Y0121324D02*
X0012657Y0121324D01*
X0012657Y0120326D02*
X0016257Y0120326D01*
X0016257Y0119327D02*
X0012657Y0119327D01*
X0012657Y0118329D02*
X0014000Y0118329D01*
X0013757Y0117330D02*
X0012657Y0117330D01*
X0012657Y0116332D02*
X0013757Y0116332D01*
X0013757Y0115333D02*
X0012657Y0115333D01*
X0012657Y0114335D02*
X0013757Y0114335D01*
X0013757Y0113336D02*
X0012557Y0113336D01*
X0012557Y0112338D02*
X0013757Y0112338D01*
X0013757Y0111339D02*
X0012557Y0111339D01*
X0012557Y0110341D02*
X0013757Y0110341D01*
X0013757Y0109342D02*
X0012557Y0109342D01*
X0012557Y0108344D02*
X0013757Y0108344D01*
X0013757Y0107345D02*
X0012557Y0107345D01*
X0012557Y0106347D02*
X0013757Y0106347D01*
X0013757Y0105348D02*
X0012557Y0105348D01*
X0012557Y0104350D02*
X0013757Y0104350D01*
X0013757Y0103351D02*
X0012557Y0103351D01*
X0012557Y0102353D02*
X0013757Y0102353D01*
X0008757Y0102353D02*
X0007500Y0102353D01*
X0007500Y0103351D02*
X0008757Y0103351D01*
X0008757Y0104350D02*
X0007500Y0104350D01*
X0007500Y0105348D02*
X0008757Y0105348D01*
X0008757Y0106347D02*
X0007500Y0106347D01*
X0007500Y0107345D02*
X0008757Y0107345D01*
X0008757Y0108344D02*
X0007500Y0108344D01*
X0007500Y0109342D02*
X0008757Y0109342D01*
X0008757Y0110341D02*
X0007500Y0110341D01*
X0007500Y0111339D02*
X0008757Y0111339D01*
X0008757Y0112338D02*
X0007500Y0112338D01*
X0007500Y0113336D02*
X0008757Y0113336D01*
X0008657Y0114335D02*
X0007500Y0114335D01*
X0007500Y0115333D02*
X0008657Y0115333D01*
X0008657Y0116332D02*
X0007500Y0116332D01*
X0007500Y0117330D02*
X0008657Y0117330D01*
X0008657Y0118329D02*
X0007500Y0118329D01*
X0007500Y0119327D02*
X0008657Y0119327D01*
X0008657Y0120326D02*
X0007500Y0120326D01*
X0007500Y0121324D02*
X0008657Y0121324D01*
X0008657Y0122323D02*
X0007500Y0122323D01*
X0007500Y0123321D02*
X0008455Y0123321D01*
X0007828Y0124320D02*
X0007500Y0124320D01*
X0007500Y0125318D02*
X0007590Y0125318D01*
X0007638Y0126317D02*
X0007500Y0126317D01*
X0007500Y0127315D02*
X0008052Y0127315D01*
X0007500Y0128314D02*
X0008996Y0128314D01*
X0007500Y0129312D02*
X0132890Y0129312D01*
X0132890Y0128314D02*
X0075744Y0128314D01*
X0076689Y0127315D02*
X0132890Y0127315D01*
X0132890Y0126317D02*
X0077102Y0126317D01*
X0077150Y0125318D02*
X0132890Y0125318D01*
X0132890Y0124320D02*
X0076913Y0124320D01*
X0076285Y0123321D02*
X0132890Y0123321D01*
X0132890Y0122323D02*
X0075650Y0122323D01*
X0075650Y0121324D02*
X0079988Y0121324D01*
X0079250Y0120326D02*
X0075650Y0120326D01*
X0075650Y0119327D02*
X0079250Y0119327D01*
X0076992Y0118329D02*
X0075650Y0118329D01*
X0075650Y0117330D02*
X0076750Y0117330D01*
X0076750Y0116332D02*
X0075650Y0116332D01*
X0075650Y0115333D02*
X0076750Y0115333D01*
X0076750Y0114335D02*
X0075650Y0114335D01*
X0075550Y0113336D02*
X0076750Y0113336D01*
X0076750Y0112338D02*
X0075550Y0112338D01*
X0075550Y0111339D02*
X0076750Y0111339D01*
X0076750Y0110341D02*
X0075550Y0110341D01*
X0075550Y0109342D02*
X0076750Y0109342D01*
X0076750Y0108344D02*
X0075550Y0108344D01*
X0075550Y0107345D02*
X0076750Y0107345D01*
X0076750Y0106347D02*
X0075550Y0106347D01*
X0075550Y0105348D02*
X0076750Y0105348D01*
X0076750Y0104350D02*
X0075550Y0104350D01*
X0075550Y0103351D02*
X0076750Y0103351D01*
X0076750Y0102353D02*
X0075550Y0102353D01*
X0073650Y0114799D02*
X0073650Y0125547D01*
X0073866Y0125547D01*
X0070820Y0124320D02*
X0013920Y0124320D01*
X0014158Y0125318D02*
X0070582Y0125318D01*
X0070630Y0126317D02*
X0014110Y0126317D01*
X0013696Y0127315D02*
X0071044Y0127315D01*
X0071988Y0128314D02*
X0012752Y0128314D01*
X0010874Y0125547D02*
X0010657Y0125547D01*
X0010657Y0114799D01*
X0012657Y0122323D02*
X0071650Y0122323D01*
X0071447Y0123321D02*
X0013293Y0123321D01*
X0007500Y0130311D02*
X0040451Y0130311D01*
X0040254Y0130508D02*
X0041367Y0129395D01*
X0060441Y0129395D01*
X0061554Y0130508D01*
X0061554Y0132082D01*
X0060441Y0133195D01*
X0059054Y0133195D01*
X0059054Y0147082D01*
X0057941Y0148195D01*
X0056554Y0148195D01*
X0056554Y0152082D01*
X0055441Y0153195D01*
X0053867Y0153195D01*
X0052754Y0152082D01*
X0052754Y0150695D01*
X0051554Y0150695D01*
X0051554Y0152082D01*
X0050441Y0153195D01*
X0048867Y0153195D01*
X0047754Y0152082D01*
X0047754Y0150695D01*
X0046367Y0150695D01*
X0045254Y0149582D01*
X0045254Y0133195D01*
X0044054Y0133195D01*
X0044054Y0145367D01*
X0044154Y0145467D01*
X0044154Y0154227D01*
X0044230Y0154259D01*
X0045154Y0155183D01*
X0045654Y0156390D01*
X0045654Y0157697D01*
X0045154Y0158904D01*
X0044230Y0159828D01*
X0043023Y0160328D01*
X0041717Y0160328D01*
X0040510Y0159828D01*
X0039586Y0158904D01*
X0039086Y0157697D01*
X0039086Y0156390D01*
X0039586Y0155183D01*
X0040154Y0154615D01*
X0040154Y0145467D01*
X0040254Y0145367D01*
X0040254Y0130508D01*
X0040254Y0131309D02*
X0007500Y0131309D01*
X0007500Y0132308D02*
X0040254Y0132308D01*
X0040254Y0133306D02*
X0007500Y0133306D01*
X0007500Y0134305D02*
X0040254Y0134305D01*
X0040254Y0135303D02*
X0007500Y0135303D01*
X0007500Y0136302D02*
X0040254Y0136302D01*
X0040254Y0137301D02*
X0007500Y0137301D01*
X0007500Y0138299D02*
X0040254Y0138299D01*
X0040254Y0139298D02*
X0007500Y0139298D01*
X0007500Y0140296D02*
X0040254Y0140296D01*
X0040254Y0141295D02*
X0007500Y0141295D01*
X0007500Y0142293D02*
X0040254Y0142293D01*
X0040254Y0143292D02*
X0007500Y0143292D01*
X0007500Y0144290D02*
X0040254Y0144290D01*
X0040254Y0145289D02*
X0007500Y0145289D01*
X0007500Y0146287D02*
X0040154Y0146287D01*
X0040154Y0147286D02*
X0007500Y0147286D01*
X0007500Y0148284D02*
X0040154Y0148284D01*
X0040154Y0149283D02*
X0007500Y0149283D01*
X0007500Y0150281D02*
X0040154Y0150281D01*
X0040154Y0151280D02*
X0007500Y0151280D01*
X0007500Y0152278D02*
X0040154Y0152278D01*
X0040154Y0153277D02*
X0007500Y0153277D01*
X0007500Y0154275D02*
X0040154Y0154275D01*
X0039548Y0155274D02*
X0007500Y0155274D01*
X0007500Y0156272D02*
X0039135Y0156272D01*
X0039086Y0157271D02*
X0007500Y0157271D01*
X0007500Y0158269D02*
X0039323Y0158269D01*
X0039950Y0159268D02*
X0007500Y0159268D01*
X0007500Y0160266D02*
X0041569Y0160266D01*
X0043171Y0160266D02*
X0071866Y0160266D01*
X0071866Y0159268D02*
X0044790Y0159268D01*
X0045417Y0158269D02*
X0071866Y0158269D01*
X0071866Y0157271D02*
X0045654Y0157271D01*
X0045606Y0156272D02*
X0071866Y0156272D01*
X0071866Y0155274D02*
X0045192Y0155274D01*
X0044247Y0154275D02*
X0071866Y0154275D01*
X0071866Y0153277D02*
X0044154Y0153277D01*
X0044154Y0152278D02*
X0047949Y0152278D01*
X0047754Y0151280D02*
X0044154Y0151280D01*
X0044154Y0150281D02*
X0045952Y0150281D01*
X0045254Y0149283D02*
X0044154Y0149283D01*
X0044154Y0148284D02*
X0045254Y0148284D01*
X0045254Y0147286D02*
X0044154Y0147286D01*
X0044154Y0146287D02*
X0045254Y0146287D01*
X0045254Y0145289D02*
X0044054Y0145289D01*
X0044054Y0144290D02*
X0045254Y0144290D01*
X0045254Y0143292D02*
X0044054Y0143292D01*
X0044054Y0142293D02*
X0045254Y0142293D01*
X0045254Y0141295D02*
X0044054Y0141295D01*
X0044054Y0140296D02*
X0045254Y0140296D01*
X0045254Y0139298D02*
X0044054Y0139298D01*
X0044054Y0138299D02*
X0045254Y0138299D01*
X0045254Y0137301D02*
X0044054Y0137301D01*
X0044054Y0136302D02*
X0045254Y0136302D01*
X0045254Y0135303D02*
X0044054Y0135303D01*
X0044054Y0134305D02*
X0045254Y0134305D01*
X0045254Y0133306D02*
X0044054Y0133306D01*
X0028158Y0120326D02*
X0028157Y0120326D01*
X0028157Y0119327D02*
X0028158Y0119327D01*
X0008757Y0101354D02*
X0007500Y0101354D01*
X0007500Y0100356D02*
X0008757Y0100356D01*
X0008757Y0099357D02*
X0007500Y0099357D01*
X0007500Y0098359D02*
X0009411Y0098359D01*
X0059054Y0133306D02*
X0132890Y0133306D01*
X0132890Y0132308D02*
X0061328Y0132308D01*
X0061554Y0131309D02*
X0132890Y0131309D01*
X0132890Y0130311D02*
X0061356Y0130311D01*
X0059054Y0134305D02*
X0132890Y0134305D01*
X0132890Y0135303D02*
X0059054Y0135303D01*
X0059054Y0136302D02*
X0132890Y0136302D01*
X0132890Y0137301D02*
X0059054Y0137301D01*
X0059054Y0138299D02*
X0100077Y0138299D01*
X0102774Y0138299D02*
X0132890Y0138299D01*
X0132890Y0139298D02*
X0104072Y0139298D01*
X0104566Y0140296D02*
X0132890Y0140296D01*
X0132890Y0141295D02*
X0104709Y0141295D01*
X0104567Y0142293D02*
X0132890Y0142293D01*
X0132890Y0143292D02*
X0104073Y0143292D01*
X0102777Y0144290D02*
X0132890Y0144290D01*
X0132890Y0145289D02*
X0075866Y0145289D01*
X0075866Y0146287D02*
X0132890Y0146287D01*
X0132890Y0147286D02*
X0075866Y0147286D01*
X0075866Y0148284D02*
X0132890Y0148284D01*
X0132890Y0149283D02*
X0075866Y0149283D01*
X0075866Y0150281D02*
X0132890Y0150281D01*
X0132890Y0151280D02*
X0075866Y0151280D01*
X0075866Y0152278D02*
X0132890Y0152278D01*
X0132890Y0153277D02*
X0075866Y0153277D01*
X0075866Y0154275D02*
X0132890Y0154275D01*
X0132890Y0155274D02*
X0075866Y0155274D01*
X0075866Y0156272D02*
X0132890Y0156272D01*
X0132890Y0157271D02*
X0075866Y0157271D01*
X0075866Y0158269D02*
X0132890Y0158269D01*
X0132044Y0159268D02*
X0075866Y0159268D01*
X0075866Y0160266D02*
X0131631Y0160266D01*
X0131606Y0161265D02*
X0075866Y0161265D01*
X0075866Y0162263D02*
X0131866Y0162263D01*
X0129016Y0166917D02*
X0129016Y0193305D01*
X0127844Y0194476D01*
X0118065Y0194476D01*
X0119173Y0195585D01*
X0119173Y0196382D01*
X0153683Y0196382D01*
X0152575Y0195273D01*
X0152575Y0175499D01*
X0152498Y0175576D01*
X0151291Y0176076D01*
X0149985Y0176076D01*
X0148777Y0175576D01*
X0147854Y0174652D01*
X0147354Y0173445D01*
X0147354Y0172138D01*
X0147854Y0170931D01*
X0148638Y0170147D01*
X0148638Y0165809D01*
X0147529Y0166917D01*
X0129016Y0166917D01*
X0129016Y0167256D02*
X0148638Y0167256D01*
X0148638Y0168254D02*
X0129016Y0168254D01*
X0129016Y0169253D02*
X0148638Y0169253D01*
X0148533Y0170251D02*
X0129016Y0170251D01*
X0129016Y0171250D02*
X0147721Y0171250D01*
X0147354Y0172248D02*
X0129016Y0172248D01*
X0129016Y0173247D02*
X0147354Y0173247D01*
X0147685Y0174245D02*
X0129016Y0174245D01*
X0129016Y0175244D02*
X0148446Y0175244D01*
X0150638Y0172791D02*
X0150638Y0163933D01*
X0180165Y0163933D01*
X0180165Y0158874D01*
X0193000Y0158874D01*
X0195254Y0161265D02*
X0209545Y0161265D01*
X0209545Y0160266D02*
X0195978Y0160266D01*
X0196284Y0159268D02*
X0209545Y0159268D01*
X0209545Y0158269D02*
X0196284Y0158269D01*
X0195891Y0157271D02*
X0210341Y0157271D01*
X0213345Y0160754D02*
X0213345Y0174641D01*
X0212232Y0175754D01*
X0210658Y0175754D01*
X0209724Y0174821D01*
X0209724Y0189832D01*
X0210509Y0190616D01*
X0211009Y0191823D01*
X0211009Y0193130D01*
X0210509Y0194337D01*
X0210432Y0194413D01*
X0231315Y0194413D01*
X0231315Y0160854D01*
X0228345Y0160854D01*
X0228345Y0174641D01*
X0227232Y0175754D01*
X0225845Y0175754D01*
X0225845Y0179641D01*
X0224732Y0180754D01*
X0223158Y0180754D01*
X0222045Y0179641D01*
X0222045Y0178254D01*
X0220845Y0178254D01*
X0220845Y0179641D01*
X0219732Y0180754D01*
X0218158Y0180754D01*
X0217045Y0179641D01*
X0217045Y0178254D01*
X0215658Y0178254D01*
X0214545Y0177141D01*
X0214545Y0160754D01*
X0213345Y0160754D01*
X0213345Y0161265D02*
X0214545Y0161265D01*
X0214545Y0162263D02*
X0213345Y0162263D01*
X0213345Y0163262D02*
X0214545Y0163262D01*
X0214545Y0164260D02*
X0213345Y0164260D01*
X0213345Y0165259D02*
X0214545Y0165259D01*
X0214545Y0166257D02*
X0213345Y0166257D01*
X0213345Y0167256D02*
X0214545Y0167256D01*
X0214545Y0168254D02*
X0213345Y0168254D01*
X0213345Y0169253D02*
X0214545Y0169253D01*
X0214545Y0170251D02*
X0213345Y0170251D01*
X0213345Y0171250D02*
X0214545Y0171250D01*
X0214545Y0172248D02*
X0213345Y0172248D01*
X0213345Y0173247D02*
X0214545Y0173247D01*
X0214545Y0174245D02*
X0213345Y0174245D01*
X0212742Y0175244D02*
X0214545Y0175244D01*
X0214545Y0176242D02*
X0209724Y0176242D01*
X0209724Y0175244D02*
X0210148Y0175244D01*
X0209724Y0177241D02*
X0214645Y0177241D01*
X0215643Y0178239D02*
X0209724Y0178239D01*
X0209724Y0179238D02*
X0217045Y0179238D01*
X0217640Y0180237D02*
X0209724Y0180237D01*
X0209724Y0181235D02*
X0231315Y0181235D01*
X0231315Y0180237D02*
X0230250Y0180237D01*
X0230112Y0180375D02*
X0229678Y0180625D01*
X0229195Y0180754D01*
X0228945Y0180754D01*
X0228945Y0178854D01*
X0228945Y0176954D01*
X0229195Y0176954D01*
X0229678Y0177084D01*
X0230112Y0177334D01*
X0230465Y0177688D01*
X0230715Y0178121D01*
X0230845Y0178604D01*
X0230845Y0178854D01*
X0228945Y0178854D01*
X0228945Y0178854D01*
X0228945Y0178854D01*
X0228945Y0176954D01*
X0228695Y0176954D01*
X0228212Y0177084D01*
X0227778Y0177334D01*
X0227424Y0177688D01*
X0227174Y0178121D01*
X0227045Y0178604D01*
X0227045Y0178854D01*
X0228945Y0178854D01*
X0228945Y0178854D01*
X0230845Y0178854D01*
X0230845Y0179104D01*
X0230715Y0179588D01*
X0230465Y0180021D01*
X0230112Y0180375D01*
X0228945Y0180237D02*
X0228945Y0180237D01*
X0228945Y0180754D02*
X0228945Y0178854D01*
X0227045Y0178854D01*
X0227045Y0179104D01*
X0227174Y0179588D01*
X0227424Y0180021D01*
X0227778Y0180375D01*
X0228212Y0180625D01*
X0228695Y0180754D01*
X0228945Y0180754D01*
X0227640Y0180237D02*
X0225250Y0180237D01*
X0225845Y0179238D02*
X0227081Y0179238D01*
X0227143Y0178239D02*
X0225845Y0178239D01*
X0225845Y0177241D02*
X0227939Y0177241D01*
X0228945Y0177241D02*
X0228945Y0177241D01*
X0228945Y0178239D02*
X0228945Y0178239D01*
X0228945Y0178854D02*
X0228945Y0178854D01*
X0228945Y0179238D02*
X0228945Y0179238D01*
X0230809Y0179238D02*
X0231315Y0179238D01*
X0231315Y0178239D02*
X0230747Y0178239D01*
X0231315Y0177241D02*
X0229950Y0177241D01*
X0231315Y0176242D02*
X0225845Y0176242D01*
X0227742Y0175244D02*
X0231315Y0175244D01*
X0231315Y0174245D02*
X0228345Y0174245D01*
X0228345Y0173247D02*
X0231315Y0173247D01*
X0231315Y0172248D02*
X0228345Y0172248D01*
X0228345Y0171250D02*
X0231315Y0171250D01*
X0231315Y0170251D02*
X0228345Y0170251D01*
X0228345Y0169253D02*
X0231315Y0169253D01*
X0231315Y0168254D02*
X0228345Y0168254D01*
X0228345Y0167256D02*
X0231315Y0167256D01*
X0231315Y0166257D02*
X0228345Y0166257D01*
X0228345Y0165259D02*
X0231315Y0165259D01*
X0231315Y0164260D02*
X0228345Y0164260D01*
X0228345Y0163262D02*
X0231315Y0163262D01*
X0231315Y0162263D02*
X0228345Y0162263D01*
X0228345Y0161265D02*
X0231315Y0161265D01*
X0233315Y0158854D02*
X0228945Y0158854D01*
X0233315Y0158854D02*
X0233315Y0196413D01*
X0176228Y0196413D01*
X0176228Y0198382D01*
X0117173Y0198382D01*
X0117173Y0196413D01*
X0089614Y0196413D01*
X0086556Y0195214D02*
X0083647Y0195214D01*
X0086330Y0196213D02*
X0075866Y0196213D01*
X0075866Y0197211D02*
X0086390Y0197211D01*
X0086803Y0198210D02*
X0075866Y0198210D01*
X0075866Y0199208D02*
X0087779Y0199208D01*
X0091449Y0199208D02*
X0102844Y0199208D01*
X0102275Y0200207D02*
X0075866Y0200207D01*
X0075866Y0201205D02*
X0102078Y0201205D01*
X0102167Y0202204D02*
X0099459Y0202204D01*
X0097488Y0204878D02*
X0266780Y0204878D01*
X0268780Y0205199D02*
X0274091Y0205199D01*
X0274091Y0204201D02*
X0268780Y0204201D01*
X0268780Y0203202D02*
X0274091Y0203202D01*
X0274091Y0202204D02*
X0268780Y0202204D01*
X0268780Y0201205D02*
X0274091Y0201205D01*
X0274091Y0200207D02*
X0268780Y0200207D01*
X0268780Y0199208D02*
X0274091Y0199208D01*
X0274091Y0198210D02*
X0268780Y0198210D01*
X0268780Y0197211D02*
X0274091Y0197211D01*
X0274091Y0196213D02*
X0268780Y0196213D01*
X0268780Y0195214D02*
X0274091Y0195214D01*
X0274091Y0194216D02*
X0268780Y0194216D01*
X0268780Y0193217D02*
X0274091Y0193217D01*
X0274091Y0192219D02*
X0268780Y0192219D01*
X0268780Y0191220D02*
X0274091Y0191220D01*
X0274091Y0190222D02*
X0268780Y0190222D01*
X0268780Y0189223D02*
X0274091Y0189223D01*
X0274091Y0188225D02*
X0268780Y0188225D01*
X0268780Y0187226D02*
X0274091Y0187226D01*
X0274091Y0186228D02*
X0268780Y0186228D01*
X0268780Y0185229D02*
X0274091Y0185229D01*
X0274091Y0184231D02*
X0268780Y0184231D01*
X0268780Y0183232D02*
X0274091Y0183232D01*
X0274091Y0182234D02*
X0268780Y0182234D01*
X0268780Y0181235D02*
X0274091Y0181235D01*
X0274091Y0180237D02*
X0268780Y0180237D01*
X0268780Y0179238D02*
X0274091Y0179238D01*
X0274091Y0178239D02*
X0268780Y0178239D01*
X0268780Y0177241D02*
X0274091Y0177241D01*
X0274091Y0176242D02*
X0268780Y0176242D01*
X0268780Y0175244D02*
X0274091Y0175244D01*
X0274091Y0174245D02*
X0268780Y0174245D01*
X0268780Y0173247D02*
X0274091Y0173247D01*
X0274091Y0172248D02*
X0268780Y0172248D01*
X0268780Y0171250D02*
X0274091Y0171250D01*
X0274091Y0170251D02*
X0268780Y0170251D01*
X0268780Y0169253D02*
X0274091Y0169253D01*
X0274091Y0168254D02*
X0268780Y0168254D01*
X0268780Y0167256D02*
X0274091Y0167256D01*
X0274091Y0166257D02*
X0268780Y0166257D01*
X0268780Y0165259D02*
X0274091Y0165259D01*
X0274091Y0164260D02*
X0268780Y0164260D01*
X0268780Y0163262D02*
X0274091Y0163262D01*
X0274091Y0162263D02*
X0268780Y0162263D01*
X0268780Y0161265D02*
X0274091Y0161265D01*
X0274091Y0160266D02*
X0268780Y0160266D01*
X0268780Y0159268D02*
X0274091Y0159268D01*
X0274091Y0158269D02*
X0268780Y0158269D01*
X0268780Y0157271D02*
X0274091Y0157271D01*
X0274091Y0156272D02*
X0268780Y0156272D01*
X0268780Y0155274D02*
X0274091Y0155274D01*
X0274091Y0154275D02*
X0268780Y0154275D01*
X0268780Y0153277D02*
X0274091Y0153277D01*
X0274091Y0152278D02*
X0268780Y0152278D01*
X0268780Y0151280D02*
X0274091Y0151280D01*
X0274091Y0150281D02*
X0268780Y0150281D01*
X0268780Y0149283D02*
X0274091Y0149283D01*
X0274091Y0148284D02*
X0268780Y0148284D01*
X0268780Y0147286D02*
X0274091Y0147286D01*
X0274091Y0146287D02*
X0268780Y0146287D01*
X0268780Y0145289D02*
X0274091Y0145289D01*
X0274091Y0144290D02*
X0268780Y0144290D01*
X0268780Y0143292D02*
X0274091Y0143292D01*
X0274091Y0142293D02*
X0268780Y0142293D01*
X0268780Y0141295D02*
X0274091Y0141295D01*
X0274091Y0140296D02*
X0268780Y0140296D01*
X0268780Y0139298D02*
X0274091Y0139298D01*
X0274091Y0138299D02*
X0268780Y0138299D01*
X0268780Y0137301D02*
X0274091Y0137301D01*
X0274091Y0136302D02*
X0268780Y0136302D01*
X0268780Y0135303D02*
X0274091Y0135303D01*
X0274091Y0134305D02*
X0268780Y0134305D01*
X0268780Y0133306D02*
X0274091Y0133306D01*
X0274091Y0132308D02*
X0268780Y0132308D01*
X0268780Y0131309D02*
X0274091Y0131309D01*
X0274091Y0130311D02*
X0268780Y0130311D01*
X0268780Y0129312D02*
X0274091Y0129312D01*
X0274091Y0128314D02*
X0268780Y0128314D01*
X0268780Y0127315D02*
X0274091Y0127315D01*
X0274091Y0126317D02*
X0268780Y0126317D01*
X0268780Y0125318D02*
X0274091Y0125318D01*
X0274091Y0124320D02*
X0268780Y0124320D01*
X0268780Y0123321D02*
X0274091Y0123321D01*
X0274091Y0122323D02*
X0268780Y0122323D01*
X0268780Y0121324D02*
X0274091Y0121324D01*
X0274091Y0120326D02*
X0268780Y0120326D01*
X0268780Y0119327D02*
X0274091Y0119327D01*
X0274091Y0118329D02*
X0268780Y0118329D01*
X0268780Y0117330D02*
X0274091Y0117330D01*
X0274091Y0116332D02*
X0268780Y0116332D01*
X0268780Y0115333D02*
X0274091Y0115333D01*
X0274091Y0114335D02*
X0268780Y0114335D01*
X0268780Y0113336D02*
X0274091Y0113336D01*
X0274091Y0112338D02*
X0268780Y0112338D01*
X0268780Y0111339D02*
X0274091Y0111339D01*
X0274091Y0110341D02*
X0268780Y0110341D01*
X0268780Y0109342D02*
X0274091Y0109342D01*
X0274091Y0108344D02*
X0268780Y0108344D01*
X0268780Y0107345D02*
X0274091Y0107345D01*
X0274091Y0106347D02*
X0268281Y0106347D01*
X0235252Y0137301D02*
X0175826Y0137301D01*
X0176825Y0138299D02*
X0235252Y0138299D01*
X0235252Y0139298D02*
X0176908Y0139298D01*
X0176568Y0140296D02*
X0235252Y0140296D01*
X0235252Y0141295D02*
X0174408Y0141295D01*
X0174408Y0142293D02*
X0235252Y0142293D01*
X0235252Y0143292D02*
X0174408Y0143292D01*
X0174408Y0144290D02*
X0235252Y0144290D01*
X0235252Y0145289D02*
X0174408Y0145289D01*
X0174408Y0146287D02*
X0235252Y0146287D01*
X0235252Y0147286D02*
X0174408Y0147286D01*
X0174408Y0148284D02*
X0235252Y0148284D01*
X0235252Y0149283D02*
X0174408Y0149283D01*
X0174408Y0150281D02*
X0235252Y0150281D01*
X0235252Y0151280D02*
X0174408Y0151280D01*
X0174408Y0152278D02*
X0235252Y0152278D01*
X0235252Y0153277D02*
X0174408Y0153277D01*
X0174408Y0154275D02*
X0235252Y0154275D01*
X0235252Y0155274D02*
X0174090Y0155274D01*
X0174752Y0157271D02*
X0171908Y0157271D01*
X0171908Y0158269D02*
X0173334Y0158269D01*
X0173237Y0158436D02*
X0173487Y0158003D01*
X0173841Y0157649D01*
X0174274Y0157399D01*
X0174758Y0157269D01*
X0175008Y0157269D01*
X0175258Y0157269D01*
X0175741Y0157399D01*
X0176174Y0157649D01*
X0176528Y0158003D01*
X0176778Y0158436D01*
X0176908Y0158919D01*
X0176908Y0159169D01*
X0175008Y0159169D01*
X0175008Y0157269D01*
X0175008Y0159169D01*
X0175008Y0159169D01*
X0175008Y0159169D01*
X0173108Y0159169D01*
X0173108Y0158919D01*
X0173237Y0158436D01*
X0173108Y0159169D02*
X0175008Y0159169D01*
X0175008Y0159169D01*
X0176908Y0159169D01*
X0176908Y0159419D01*
X0176778Y0159903D01*
X0176528Y0160336D01*
X0176174Y0160690D01*
X0175741Y0160940D01*
X0175258Y0161069D01*
X0175008Y0161069D01*
X0175008Y0159169D01*
X0175008Y0159169D01*
X0175008Y0161069D01*
X0174758Y0161069D01*
X0174274Y0160940D01*
X0173841Y0160690D01*
X0173487Y0160336D01*
X0173237Y0159903D01*
X0173108Y0159419D01*
X0173108Y0159169D01*
X0173108Y0159268D02*
X0171908Y0159268D01*
X0171598Y0160266D02*
X0173447Y0160266D01*
X0175008Y0160266D02*
X0175008Y0160266D01*
X0175008Y0159268D02*
X0175008Y0159268D01*
X0175008Y0158269D02*
X0175008Y0158269D01*
X0175008Y0157271D02*
X0175008Y0157271D01*
X0175263Y0157271D02*
X0178940Y0157271D01*
X0178165Y0158269D02*
X0176682Y0158269D01*
X0176908Y0159268D02*
X0178165Y0159268D01*
X0178165Y0160266D02*
X0176568Y0160266D01*
X0178165Y0161265D02*
X0159508Y0161265D01*
X0159508Y0160266D02*
X0163418Y0160266D01*
X0163108Y0159268D02*
X0159508Y0159268D01*
X0159508Y0158269D02*
X0161421Y0158269D01*
X0160608Y0157271D02*
X0159508Y0157271D01*
X0159508Y0156272D02*
X0160608Y0156272D01*
X0160608Y0155274D02*
X0159508Y0155274D01*
X0159508Y0154275D02*
X0160608Y0154275D01*
X0160608Y0153277D02*
X0159444Y0153277D01*
X0159408Y0152278D02*
X0160608Y0152278D01*
X0160608Y0151280D02*
X0159408Y0151280D01*
X0159408Y0150281D02*
X0160608Y0150281D01*
X0160608Y0149283D02*
X0159408Y0149283D01*
X0159408Y0148284D02*
X0160608Y0148284D01*
X0160608Y0147286D02*
X0159408Y0147286D01*
X0159408Y0146287D02*
X0160608Y0146287D01*
X0160608Y0145289D02*
X0159408Y0145289D01*
X0159408Y0144290D02*
X0160608Y0144290D01*
X0160608Y0143292D02*
X0159408Y0143292D01*
X0159408Y0142293D02*
X0160608Y0142293D01*
X0160608Y0141295D02*
X0159408Y0141295D01*
X0157508Y0154169D02*
X0157508Y0160980D01*
X0146701Y0160980D01*
X0146701Y0164917D01*
X0127016Y0164917D01*
X0127016Y0192476D01*
X0081740Y0192476D01*
X0078706Y0191220D02*
X0075866Y0191220D01*
X0075866Y0190222D02*
X0079350Y0190222D01*
X0081012Y0189223D02*
X0075866Y0189223D01*
X0075866Y0188225D02*
X0125016Y0188225D01*
X0125016Y0189223D02*
X0082468Y0189223D01*
X0084130Y0190222D02*
X0125016Y0190222D01*
X0128105Y0194216D02*
X0152575Y0194216D01*
X0152575Y0195214D02*
X0118802Y0195214D01*
X0119173Y0196213D02*
X0153514Y0196213D01*
X0154575Y0194445D02*
X0166386Y0194445D01*
X0169432Y0193217D02*
X0204476Y0193217D01*
X0204440Y0192219D02*
X0168804Y0192219D01*
X0167183Y0191220D02*
X0204690Y0191220D01*
X0205335Y0190222D02*
X0156575Y0190222D01*
X0156575Y0191220D02*
X0165589Y0191220D01*
X0163967Y0192219D02*
X0156575Y0192219D01*
X0154575Y0194445D02*
X0154575Y0168854D01*
X0157551Y0170251D02*
X0205724Y0170251D01*
X0205724Y0169253D02*
X0157859Y0169253D01*
X0157859Y0168254D02*
X0205724Y0168254D01*
X0205418Y0167256D02*
X0157468Y0167256D01*
X0156622Y0166257D02*
X0204725Y0166257D01*
X0204440Y0165259D02*
X0181668Y0165259D01*
X0182165Y0164260D02*
X0204442Y0164260D01*
X0204855Y0163262D02*
X0182165Y0163262D01*
X0182165Y0162263D02*
X0205734Y0162263D01*
X0207724Y0164917D02*
X0207724Y0192476D01*
X0210759Y0191220D02*
X0231315Y0191220D01*
X0231315Y0190222D02*
X0210114Y0190222D01*
X0209724Y0189223D02*
X0231315Y0189223D01*
X0231315Y0188225D02*
X0209724Y0188225D01*
X0209724Y0187226D02*
X0231315Y0187226D01*
X0231315Y0186228D02*
X0209724Y0186228D01*
X0209724Y0185229D02*
X0231315Y0185229D01*
X0231315Y0184231D02*
X0209724Y0184231D01*
X0209724Y0183232D02*
X0231315Y0183232D01*
X0231315Y0182234D02*
X0209724Y0182234D01*
X0205724Y0182234D02*
X0156575Y0182234D01*
X0156575Y0183232D02*
X0205724Y0183232D01*
X0205724Y0184231D02*
X0156575Y0184231D01*
X0156575Y0185229D02*
X0205724Y0185229D01*
X0205724Y0186228D02*
X0156575Y0186228D01*
X0156575Y0187226D02*
X0205724Y0187226D01*
X0205724Y0188225D02*
X0156575Y0188225D01*
X0156575Y0189223D02*
X0205724Y0189223D01*
X0204890Y0194216D02*
X0169670Y0194216D01*
X0169622Y0195214D02*
X0174599Y0195214D01*
X0174228Y0196213D02*
X0169208Y0196213D01*
X0152575Y0193217D02*
X0129016Y0193217D01*
X0129016Y0192219D02*
X0152575Y0192219D01*
X0152575Y0191220D02*
X0129016Y0191220D01*
X0129016Y0190222D02*
X0152575Y0190222D01*
X0152575Y0189223D02*
X0129016Y0189223D01*
X0129016Y0188225D02*
X0152575Y0188225D01*
X0152575Y0187226D02*
X0129016Y0187226D01*
X0129016Y0186228D02*
X0152575Y0186228D01*
X0152575Y0185229D02*
X0129016Y0185229D01*
X0129016Y0184231D02*
X0152575Y0184231D01*
X0152575Y0183232D02*
X0129016Y0183232D01*
X0129016Y0182234D02*
X0152575Y0182234D01*
X0152575Y0181235D02*
X0129016Y0181235D01*
X0129016Y0180237D02*
X0152575Y0180237D01*
X0152575Y0179238D02*
X0129016Y0179238D01*
X0129016Y0178239D02*
X0152575Y0178239D01*
X0152575Y0177241D02*
X0129016Y0177241D01*
X0129016Y0176242D02*
X0152575Y0176242D01*
X0156575Y0176242D02*
X0205724Y0176242D01*
X0205724Y0175244D02*
X0156575Y0175244D01*
X0156575Y0174245D02*
X0205724Y0174245D01*
X0205724Y0173247D02*
X0156575Y0173247D01*
X0156575Y0172248D02*
X0205724Y0172248D01*
X0205724Y0171250D02*
X0156824Y0171250D01*
X0156575Y0177241D02*
X0205724Y0177241D01*
X0205724Y0178239D02*
X0156575Y0178239D01*
X0156575Y0179238D02*
X0205724Y0179238D01*
X0205724Y0180237D02*
X0156575Y0180237D01*
X0156575Y0181235D02*
X0205724Y0181235D01*
X0211009Y0192219D02*
X0231315Y0192219D01*
X0231315Y0193217D02*
X0210972Y0193217D01*
X0210559Y0194216D02*
X0231315Y0194216D01*
X0237252Y0201335D02*
X0105362Y0201335D01*
X0099814Y0207196D02*
X0212484Y0207196D01*
X0220250Y0180237D02*
X0222640Y0180237D01*
X0222045Y0179238D02*
X0220845Y0179238D01*
X0239252Y0178239D02*
X0252860Y0178239D01*
X0251872Y0177241D02*
X0239252Y0177241D01*
X0239252Y0176242D02*
X0251458Y0176242D01*
X0251228Y0175244D02*
X0239252Y0175244D01*
X0239252Y0174245D02*
X0251228Y0174245D01*
X0251536Y0173247D02*
X0239252Y0173247D01*
X0239252Y0172248D02*
X0252049Y0172248D01*
X0253048Y0171250D02*
X0239252Y0171250D01*
X0235252Y0157271D02*
X0234560Y0157271D01*
X0235252Y0156272D02*
X0195043Y0156272D01*
X0190957Y0156272D02*
X0171908Y0156272D01*
X0168108Y0159268D02*
X0166908Y0159268D01*
X0166598Y0160266D02*
X0168418Y0160266D01*
X0182165Y0161265D02*
X0190746Y0161265D01*
X0208209Y0134305D02*
X0144764Y0134305D01*
X0144764Y0135303D02*
X0209906Y0135303D01*
X0207211Y0133306D02*
X0144764Y0133306D01*
X0144764Y0132308D02*
X0206212Y0132308D01*
X0205633Y0131309D02*
X0144764Y0131309D01*
X0144764Y0130311D02*
X0170767Y0130311D01*
X0171017Y0130562D02*
X0170033Y0129577D01*
X0169500Y0128291D01*
X0169500Y0126898D01*
X0170033Y0125612D01*
X0171017Y0124627D01*
X0172304Y0124094D01*
X0173696Y0124094D01*
X0174983Y0124627D01*
X0175967Y0125612D01*
X0176500Y0126898D01*
X0176500Y0128291D01*
X0175967Y0129577D01*
X0174983Y0130562D01*
X0173696Y0131094D01*
X0172304Y0131094D01*
X0171017Y0130562D01*
X0169923Y0129312D02*
X0144764Y0129312D01*
X0144764Y0128314D02*
X0169510Y0128314D01*
X0169500Y0127315D02*
X0144764Y0127315D01*
X0144764Y0126317D02*
X0169741Y0126317D01*
X0170326Y0125318D02*
X0144764Y0125318D01*
X0144764Y0124320D02*
X0171760Y0124320D01*
X0174240Y0124320D02*
X0181760Y0124320D01*
X0182304Y0124094D02*
X0181017Y0124627D01*
X0180033Y0125612D01*
X0179500Y0126898D01*
X0179500Y0128291D01*
X0180033Y0129577D01*
X0181017Y0130562D01*
X0182304Y0131094D01*
X0183696Y0131094D01*
X0184983Y0130562D01*
X0185967Y0129577D01*
X0186500Y0128291D01*
X0186500Y0126898D01*
X0185967Y0125612D01*
X0184983Y0124627D01*
X0183696Y0124094D01*
X0182304Y0124094D01*
X0184240Y0124320D02*
X0191760Y0124320D01*
X0192304Y0124094D02*
X0193696Y0124094D01*
X0194983Y0124627D01*
X0195967Y0125612D01*
X0196500Y0126898D01*
X0196500Y0128291D01*
X0195967Y0129577D01*
X0194983Y0130562D01*
X0193696Y0131094D01*
X0192304Y0131094D01*
X0191017Y0130562D01*
X0190033Y0129577D01*
X0189500Y0128291D01*
X0189500Y0126898D01*
X0190033Y0125612D01*
X0191017Y0124627D01*
X0192304Y0124094D01*
X0194240Y0124320D02*
X0204008Y0124320D01*
X0204008Y0125318D02*
X0195674Y0125318D01*
X0196259Y0126317D02*
X0204008Y0126317D01*
X0204094Y0127315D02*
X0196500Y0127315D01*
X0196490Y0128314D02*
X0204361Y0128314D01*
X0204629Y0129312D02*
X0196077Y0129312D01*
X0195233Y0130311D02*
X0205056Y0130311D01*
X0204216Y0123321D02*
X0144764Y0123321D01*
X0144764Y0122323D02*
X0204484Y0122323D01*
X0190767Y0130311D02*
X0185233Y0130311D01*
X0186077Y0129312D02*
X0189923Y0129312D01*
X0189510Y0128314D02*
X0186490Y0128314D01*
X0186500Y0127315D02*
X0189500Y0127315D01*
X0189741Y0126317D02*
X0186259Y0126317D01*
X0185674Y0125318D02*
X0190326Y0125318D01*
X0180326Y0125318D02*
X0175674Y0125318D01*
X0176259Y0126317D02*
X0179741Y0126317D01*
X0179500Y0127315D02*
X0176500Y0127315D01*
X0176490Y0128314D02*
X0179510Y0128314D01*
X0179923Y0129312D02*
X0176077Y0129312D01*
X0175233Y0130311D02*
X0180767Y0130311D01*
X0180782Y0120326D02*
X0175218Y0120326D01*
X0176071Y0119327D02*
X0179929Y0119327D01*
X0179516Y0118329D02*
X0176484Y0118329D01*
X0176500Y0117330D02*
X0179500Y0117330D01*
X0179735Y0116332D02*
X0176265Y0116332D01*
X0175689Y0115333D02*
X0180311Y0115333D01*
X0185171Y0109342D02*
X0144764Y0109342D01*
X0144764Y0108344D02*
X0184604Y0108344D01*
X0184604Y0107345D02*
X0144764Y0107345D01*
X0144764Y0106347D02*
X0185458Y0106347D01*
X0198404Y0088373D02*
X0216019Y0088373D01*
X0215819Y0087375D02*
X0198404Y0087375D01*
X0200575Y0089372D02*
X0216287Y0089372D01*
X0190024Y0063411D02*
X0274091Y0063411D01*
X0274091Y0062412D02*
X0192649Y0062412D01*
X0194304Y0061414D02*
X0274091Y0061414D01*
X0274091Y0060415D02*
X0195303Y0060415D01*
X0196280Y0059417D02*
X0274091Y0059417D01*
X0274091Y0058418D02*
X0196856Y0058418D01*
X0197433Y0057420D02*
X0274091Y0057420D01*
X0274091Y0056421D02*
X0197843Y0056421D01*
X0198111Y0055423D02*
X0247203Y0055423D01*
X0245822Y0054424D02*
X0198378Y0054424D01*
X0198449Y0053426D02*
X0244978Y0053426D01*
X0244565Y0052427D02*
X0198449Y0052427D01*
X0198449Y0051429D02*
X0244296Y0051429D01*
X0244296Y0050430D02*
X0198225Y0050430D01*
X0197958Y0049432D02*
X0244411Y0049432D01*
X0244825Y0048433D02*
X0197680Y0048433D01*
X0197103Y0047434D02*
X0245452Y0047434D01*
X0251789Y0055423D02*
X0257224Y0055423D01*
X0255822Y0054424D02*
X0253170Y0054424D01*
X0254014Y0053426D02*
X0255026Y0053426D01*
X0254575Y0052427D02*
X0254427Y0052427D01*
X0258996Y0052427D02*
X0259996Y0052427D01*
X0259996Y0051429D02*
X0258996Y0051429D01*
X0259996Y0050430D02*
X0274066Y0050430D01*
X0274091Y0051429D02*
X0264652Y0051429D01*
X0264417Y0052427D02*
X0274091Y0052427D01*
X0274091Y0053426D02*
X0263966Y0053426D01*
X0263170Y0054424D02*
X0274091Y0054424D01*
X0274091Y0055423D02*
X0261768Y0055423D01*
X0259996Y0055423D02*
X0258996Y0055423D01*
X0258996Y0054424D02*
X0259996Y0054424D01*
X0259996Y0053426D02*
X0258996Y0053426D01*
X0264537Y0049432D02*
X0273794Y0049432D01*
X0273157Y0048433D02*
X0264155Y0048433D01*
X0263519Y0047434D02*
X0271315Y0047434D01*
X0197052Y0046436D02*
X0196527Y0046436D01*
X0196054Y0045437D02*
X0195730Y0045437D01*
X0195629Y0044439D02*
X0194732Y0044439D01*
X0195350Y0043440D02*
X0193389Y0043440D01*
X0191619Y0042442D02*
X0195350Y0042442D01*
X0167466Y0038448D02*
X0165188Y0038448D01*
X0165727Y0037449D02*
X0166927Y0037449D01*
X0132890Y0112338D02*
X0090550Y0112338D01*
X0090550Y0113336D02*
X0132890Y0113336D01*
X0132890Y0114335D02*
X0090550Y0114335D01*
X0090550Y0115333D02*
X0132890Y0115333D01*
X0132890Y0116332D02*
X0089804Y0116332D01*
X0090416Y0118029D02*
X0090899Y0117899D01*
X0091150Y0117899D01*
X0091400Y0117899D01*
X0091883Y0118029D01*
X0092316Y0118279D01*
X0092670Y0118633D01*
X0092920Y0119066D01*
X0093050Y0119549D01*
X0093050Y0119799D01*
X0091150Y0119799D01*
X0091150Y0119799D01*
X0091150Y0117899D01*
X0091150Y0119799D01*
X0091150Y0119799D01*
X0093050Y0119799D01*
X0093050Y0120049D01*
X0092920Y0120533D01*
X0092670Y0120966D01*
X0092316Y0121320D01*
X0091883Y0121570D01*
X0091400Y0121699D01*
X0091150Y0121699D01*
X0091150Y0119799D01*
X0091150Y0119799D01*
X0091149Y0119799D02*
X0089250Y0119799D01*
X0089250Y0119549D01*
X0089379Y0119066D01*
X0089629Y0118633D01*
X0089983Y0118279D01*
X0090416Y0118029D01*
X0089933Y0118329D02*
X0088050Y0118329D01*
X0088050Y0119327D02*
X0089309Y0119327D01*
X0089250Y0119799D02*
X0091149Y0119799D01*
X0091149Y0119799D01*
X0091150Y0119799D02*
X0091150Y0121699D01*
X0090899Y0121699D01*
X0090416Y0121570D01*
X0089983Y0121320D01*
X0089629Y0120966D01*
X0089379Y0120533D01*
X0089250Y0120049D01*
X0089250Y0119799D01*
X0089324Y0120326D02*
X0088050Y0120326D01*
X0087311Y0121324D02*
X0089991Y0121324D01*
X0091150Y0121324D02*
X0091150Y0121324D01*
X0091150Y0120326D02*
X0091150Y0120326D01*
X0091150Y0119327D02*
X0091150Y0119327D01*
X0091150Y0118329D02*
X0091150Y0118329D01*
X0092366Y0118329D02*
X0132890Y0118329D01*
X0132890Y0119327D02*
X0092990Y0119327D01*
X0092976Y0120326D02*
X0132890Y0120326D01*
X0132890Y0121324D02*
X0092308Y0121324D01*
X0088050Y0117330D02*
X0132890Y0117330D01*
X0101425Y0141295D02*
X0073866Y0141295D01*
X0073866Y0212161D01*
X0070582Y0212189D02*
X0024561Y0212189D01*
X0024828Y0213187D02*
X0070736Y0213187D01*
X0071246Y0214186D02*
X0025096Y0214186D01*
X0025220Y0215184D02*
X0072582Y0215184D01*
X0070714Y0211190D02*
X0024088Y0211190D01*
X0023512Y0210192D02*
X0071191Y0210192D01*
X0071866Y0209193D02*
X0022872Y0209193D01*
X0021873Y0208195D02*
X0071866Y0208195D01*
X0071866Y0207196D02*
X0020802Y0207196D01*
X0019072Y0206198D02*
X0071866Y0206198D01*
X0071866Y0205199D02*
X0016045Y0205199D01*
X0012396Y0205199D02*
X0007500Y0205199D01*
X0007500Y0204201D02*
X0071866Y0204201D01*
X0071866Y0203202D02*
X0007500Y0203202D01*
X0007500Y0202204D02*
X0071866Y0202204D01*
X0071866Y0201205D02*
X0007500Y0201205D01*
X0007500Y0200207D02*
X0071866Y0200207D01*
X0071866Y0199208D02*
X0007500Y0199208D01*
X0007500Y0198210D02*
X0071866Y0198210D01*
X0071866Y0197211D02*
X0007500Y0197211D01*
X0007500Y0196213D02*
X0071866Y0196213D01*
X0071866Y0195214D02*
X0007500Y0195214D01*
X0007500Y0194216D02*
X0071866Y0194216D01*
X0071866Y0193217D02*
X0007500Y0193217D01*
X0007500Y0192219D02*
X0071866Y0192219D01*
X0071866Y0191220D02*
X0007500Y0191220D01*
X0007500Y0190222D02*
X0071866Y0190222D01*
X0071866Y0189223D02*
X0007500Y0189223D01*
X0007500Y0188225D02*
X0071866Y0188225D01*
X0071866Y0187226D02*
X0007500Y0187226D01*
X0007500Y0186228D02*
X0071866Y0186228D01*
X0071866Y0185229D02*
X0007500Y0185229D01*
X0007500Y0184231D02*
X0071866Y0184231D01*
X0071866Y0183232D02*
X0007500Y0183232D01*
X0007500Y0182234D02*
X0071866Y0182234D01*
X0071866Y0181235D02*
X0007500Y0181235D01*
X0007500Y0180237D02*
X0071866Y0180237D01*
X0071866Y0179238D02*
X0007500Y0179238D01*
X0007500Y0178239D02*
X0071866Y0178239D01*
X0071866Y0177241D02*
X0007500Y0177241D01*
X0007500Y0176242D02*
X0071866Y0176242D01*
X0071866Y0175244D02*
X0007500Y0175244D01*
X0007500Y0174245D02*
X0071866Y0174245D01*
X0071866Y0173247D02*
X0007500Y0173247D01*
X0007500Y0172248D02*
X0071866Y0172248D01*
X0071866Y0171250D02*
X0007500Y0171250D01*
X0007500Y0170251D02*
X0071866Y0170251D01*
X0071866Y0169253D02*
X0007500Y0169253D01*
X0007500Y0168254D02*
X0071866Y0168254D01*
X0071866Y0167256D02*
X0007500Y0167256D01*
X0007500Y0166257D02*
X0071866Y0166257D01*
X0071866Y0165259D02*
X0007500Y0165259D01*
X0007500Y0164260D02*
X0071866Y0164260D01*
X0071866Y0163262D02*
X0007500Y0163262D01*
X0007500Y0162263D02*
X0071866Y0162263D01*
X0071866Y0161265D02*
X0007500Y0161265D01*
X0042154Y0157043D02*
X0042154Y0146295D01*
X0051554Y0151280D02*
X0052754Y0151280D01*
X0052949Y0152278D02*
X0051358Y0152278D01*
X0056358Y0152278D02*
X0058027Y0152278D01*
X0058133Y0152462D02*
X0057883Y0152029D01*
X0057754Y0151545D01*
X0057754Y0151295D01*
X0057754Y0151045D01*
X0057883Y0150562D01*
X0058133Y0150129D01*
X0058487Y0149775D01*
X0058920Y0149525D01*
X0059403Y0149395D01*
X0059653Y0149395D01*
X0059653Y0151295D01*
X0057754Y0151295D01*
X0059653Y0151295D01*
X0059653Y0151295D01*
X0059654Y0151295D01*
X0059654Y0151295D01*
X0061554Y0151295D01*
X0061554Y0151045D01*
X0061424Y0150562D01*
X0061174Y0150129D01*
X0060820Y0149775D01*
X0060387Y0149525D01*
X0059904Y0149395D01*
X0059654Y0149395D01*
X0059654Y0151295D01*
X0061554Y0151295D01*
X0061554Y0151545D01*
X0061424Y0152029D01*
X0061174Y0152462D01*
X0060820Y0152816D01*
X0060387Y0153066D01*
X0059904Y0153195D01*
X0059654Y0153195D01*
X0059654Y0151295D01*
X0059653Y0151295D01*
X0059653Y0153195D01*
X0059403Y0153195D01*
X0058920Y0153066D01*
X0058487Y0152816D01*
X0058133Y0152462D01*
X0057754Y0151280D02*
X0056554Y0151280D01*
X0056554Y0150281D02*
X0058045Y0150281D01*
X0059653Y0150281D02*
X0059654Y0150281D01*
X0059653Y0151280D02*
X0059654Y0151280D01*
X0059653Y0152278D02*
X0059654Y0152278D01*
X0061280Y0152278D02*
X0071866Y0152278D01*
X0071866Y0151280D02*
X0061554Y0151280D01*
X0061262Y0150281D02*
X0071866Y0150281D01*
X0071866Y0149283D02*
X0056554Y0149283D01*
X0056554Y0148284D02*
X0071866Y0148284D01*
X0071866Y0147286D02*
X0058850Y0147286D01*
X0059054Y0146287D02*
X0071866Y0146287D01*
X0071866Y0145289D02*
X0059054Y0145289D01*
X0059054Y0144290D02*
X0071866Y0144290D01*
X0071866Y0143292D02*
X0059054Y0143292D01*
X0059054Y0142293D02*
X0071866Y0142293D01*
X0071866Y0141295D02*
X0059054Y0141295D01*
X0059054Y0140296D02*
X0072037Y0140296D01*
X0073035Y0139298D02*
X0059054Y0139298D01*
X0075866Y0144290D02*
X0100073Y0144290D01*
X0075866Y0163262D02*
X0125843Y0163262D01*
X0125016Y0164260D02*
X0075866Y0164260D01*
X0075866Y0165259D02*
X0125016Y0165259D01*
X0125016Y0166257D02*
X0075866Y0166257D01*
X0075866Y0167256D02*
X0125016Y0167256D01*
X0125016Y0168254D02*
X0075866Y0168254D01*
X0075866Y0169253D02*
X0125016Y0169253D01*
X0125016Y0170251D02*
X0075866Y0170251D01*
X0075866Y0171250D02*
X0125016Y0171250D01*
X0125016Y0172248D02*
X0075866Y0172248D01*
X0075866Y0173247D02*
X0125016Y0173247D01*
X0125016Y0174245D02*
X0075866Y0174245D01*
X0075866Y0175244D02*
X0125016Y0175244D01*
X0125016Y0176242D02*
X0075866Y0176242D01*
X0075866Y0177241D02*
X0125016Y0177241D01*
X0125016Y0178239D02*
X0075866Y0178239D01*
X0075866Y0179238D02*
X0125016Y0179238D01*
X0125016Y0180237D02*
X0075866Y0180237D01*
X0075866Y0181235D02*
X0125016Y0181235D01*
X0125016Y0182234D02*
X0075866Y0182234D01*
X0075866Y0183232D02*
X0125016Y0183232D01*
X0125016Y0184231D02*
X0075866Y0184231D01*
X0075866Y0185229D02*
X0125016Y0185229D01*
X0125016Y0186228D02*
X0075866Y0186228D01*
X0075866Y0187226D02*
X0125016Y0187226D01*
X0148189Y0166257D02*
X0148638Y0166257D01*
X0095518Y0202204D02*
X0075866Y0202204D01*
X0075866Y0203202D02*
X0094627Y0203202D01*
X0094214Y0204201D02*
X0075866Y0204201D01*
X0075866Y0205199D02*
X0094204Y0205199D01*
X0094480Y0206198D02*
X0075866Y0206198D01*
X0075866Y0207196D02*
X0095162Y0207196D01*
X0079833Y0195214D02*
X0075866Y0195214D01*
X0075866Y0194216D02*
X0078906Y0194216D01*
X0078492Y0193217D02*
X0075866Y0193217D01*
X0075866Y0192219D02*
X0078456Y0192219D01*
X0042370Y0157043D02*
X0042154Y0157043D01*
X0082311Y0121324D02*
X0084988Y0121324D01*
X0084250Y0120326D02*
X0083050Y0120326D01*
X0083050Y0119327D02*
X0084250Y0119327D01*
X0009369Y0206198D02*
X0007500Y0206198D01*
X0007500Y0207196D02*
X0007639Y0207196D01*
X0257158Y0188225D02*
X0264780Y0188225D01*
X0264780Y0189223D02*
X0258603Y0189223D01*
X0259320Y0190222D02*
X0264780Y0190222D01*
X0264780Y0191220D02*
X0259734Y0191220D01*
X0259772Y0192219D02*
X0264780Y0192219D01*
X0264780Y0193217D02*
X0259686Y0193217D01*
X0259273Y0194216D02*
X0264780Y0194216D01*
X0264780Y0195214D02*
X0258488Y0195214D01*
X0271041Y0206198D02*
X0274091Y0206198D01*
X0274091Y0207196D02*
X0272770Y0207196D01*
X0273842Y0208195D02*
X0274091Y0208195D01*
D19*
X0207724Y0192476D03*
X0188000Y0219799D03*
X0166386Y0194445D03*
X0156543Y0212161D03*
X0150638Y0172791D03*
X0154575Y0168854D03*
X0142764Y0160980D03*
X0134890Y0160980D03*
X0131189Y0173500D03*
X0105362Y0201335D03*
X0097488Y0204878D03*
X0089614Y0196413D03*
X0081740Y0192476D03*
X0073866Y0212161D03*
X0042370Y0157043D03*
X0010874Y0125547D03*
X0042370Y0090114D03*
X0073866Y0125547D03*
X0101425Y0141295D03*
X0193000Y0158874D03*
X0207724Y0164917D03*
M02*
