G75*
%MOIN*%
%OFA0B0*%
%FSLAX25Y25*%
%IPPOS*%
%LPD*%
%AMOC8*
5,1,8,0,0,1.08239X$1,22.5*
%
%ADD10C,0.00000*%
%ADD11R,0.05200X0.00200*%
%ADD12R,0.02400X0.00200*%
%ADD13R,0.00800X0.00200*%
%ADD14R,0.03000X0.00200*%
%ADD15R,0.02200X0.00200*%
%ADD16R,0.01400X0.00200*%
%ADD17R,0.01600X0.00200*%
%ADD18R,0.00200X0.00100*%
%ADD19R,0.00700X0.00100*%
%ADD20R,0.01200X0.00100*%
%ADD21R,0.01600X0.00100*%
%ADD22R,0.02000X0.00100*%
%ADD23R,0.02500X0.00100*%
%ADD24R,0.01100X0.00100*%
%ADD25R,0.02900X0.00100*%
%ADD26R,0.00800X0.00100*%
%ADD27R,0.01500X0.00100*%
%ADD28R,0.03200X0.00100*%
%ADD29R,0.02200X0.00100*%
%ADD30R,0.01900X0.00100*%
%ADD31R,0.03700X0.00100*%
%ADD32R,0.03300X0.00100*%
%ADD33R,0.02300X0.00100*%
%ADD34R,0.04100X0.00100*%
%ADD35R,0.04300X0.00100*%
%ADD36R,0.02700X0.00100*%
%ADD37R,0.04400X0.00100*%
%ADD38R,0.05200X0.00100*%
%ADD39R,0.03100X0.00100*%
%ADD40R,0.04700X0.00100*%
%ADD41R,0.05900X0.00100*%
%ADD42R,0.03600X0.00100*%
%ADD43R,0.06700X0.00100*%
%ADD44R,0.04000X0.00100*%
%ADD45R,0.07300X0.00100*%
%ADD46R,0.04900X0.00100*%
%ADD47R,0.07900X0.00100*%
%ADD48R,0.08500X0.00100*%
%ADD49R,0.05000X0.00100*%
%ADD50R,0.09200X0.00100*%
%ADD51R,0.05400X0.00100*%
%ADD52R,0.05100X0.00100*%
%ADD53R,0.09400X0.00100*%
%ADD54R,0.05700X0.00100*%
%ADD55R,0.09300X0.00100*%
%ADD56R,0.06100X0.00100*%
%ADD57R,0.06400X0.00100*%
%ADD58R,0.05300X0.00100*%
%ADD59R,0.06800X0.00100*%
%ADD60R,0.07100X0.00100*%
%ADD61R,0.07500X0.00100*%
%ADD62R,0.05500X0.00100*%
%ADD63R,0.07800X0.00100*%
%ADD64R,0.00400X0.00100*%
%ADD65R,0.08100X0.00100*%
%ADD66R,0.08400X0.00100*%
%ADD67R,0.01300X0.00100*%
%ADD68R,0.08700X0.00100*%
%ADD69R,0.09000X0.00100*%
%ADD70R,0.02100X0.00100*%
%ADD71R,0.09700X0.00100*%
%ADD72R,0.02800X0.00100*%
%ADD73R,0.06300X0.00100*%
%ADD74R,0.09600X0.00100*%
%ADD75R,0.04800X0.00100*%
%ADD76R,0.02400X0.00100*%
%ADD77R,0.06500X0.00100*%
%ADD78R,0.03000X0.00100*%
%ADD79R,0.05800X0.00100*%
%ADD80R,0.03500X0.00100*%
%ADD81R,0.04600X0.00100*%
%ADD82R,0.06900X0.00100*%
%ADD83R,0.07000X0.00100*%
%ADD84R,0.05600X0.00100*%
%ADD85R,0.09500X0.00100*%
%ADD86R,0.07200X0.00100*%
%ADD87R,0.06000X0.00100*%
%ADD88R,0.06600X0.00100*%
%ADD89R,0.07400X0.00100*%
%ADD90R,0.07600X0.00100*%
%ADD91R,0.07700X0.00100*%
%ADD92R,0.08000X0.00100*%
%ADD93R,0.08200X0.00100*%
%ADD94R,0.09100X0.00100*%
%ADD95R,0.08600X0.00100*%
%ADD96R,0.08900X0.00100*%
%ADD97R,0.08800X0.00100*%
%ADD98R,0.08300X0.00100*%
%ADD99R,0.03800X0.00100*%
%ADD100R,0.00300X0.00100*%
%ADD101R,0.00100X0.00100*%
%ADD102R,0.00900X0.00100*%
%ADD103R,0.00500X0.00100*%
%ADD104R,0.09800X0.00100*%
%ADD105R,0.01800X0.00100*%
%ADD106R,0.01000X0.00100*%
%ADD107R,0.01700X0.00100*%
%ADD108R,0.03400X0.00100*%
%ADD109R,0.01400X0.00100*%
%ADD110R,0.04200X0.00100*%
%ADD111R,0.09900X0.00100*%
%ADD112R,0.10000X0.00100*%
%ADD113R,0.10100X0.00100*%
%ADD114R,0.00600X0.00100*%
%ADD115R,0.02600X0.00100*%
%ADD116R,0.03900X0.00100*%
%ADD117R,0.10200X0.00100*%
%ADD118R,0.10300X0.00100*%
%ADD119R,0.10400X0.00100*%
%ADD120R,0.04500X0.00100*%
%ADD121R,0.10500X0.00100*%
%ADD122R,0.10800X0.00100*%
%ADD123R,0.10900X0.00100*%
%ADD124R,0.10700X0.00100*%
%ADD125R,0.06200X0.00100*%
%ADD126R,0.15200X0.00100*%
%ADD127R,0.14000X0.00100*%
%ADD128R,0.11700X0.00100*%
%ADD129R,0.14100X0.00100*%
%ADD130R,0.12900X0.00100*%
%ADD131R,0.16400X0.00100*%
%ADD132R,0.02559X0.05512*%
%ADD133R,0.00787X0.00787*%
%ADD134C,0.00500*%
D10*
X0005437Y0040870D02*
X0068429Y0040870D01*
X0068429Y0005437D01*
X0068431Y0005313D01*
X0068437Y0005190D01*
X0068446Y0005066D01*
X0068460Y0004944D01*
X0068477Y0004821D01*
X0068499Y0004699D01*
X0068524Y0004578D01*
X0068553Y0004458D01*
X0068585Y0004339D01*
X0068622Y0004220D01*
X0068662Y0004103D01*
X0068705Y0003988D01*
X0068753Y0003873D01*
X0068804Y0003761D01*
X0068858Y0003650D01*
X0068916Y0003540D01*
X0068977Y0003433D01*
X0069042Y0003327D01*
X0069110Y0003224D01*
X0069181Y0003123D01*
X0069255Y0003024D01*
X0069332Y0002927D01*
X0069413Y0002833D01*
X0069496Y0002742D01*
X0069582Y0002653D01*
X0069671Y0002567D01*
X0069762Y0002484D01*
X0069856Y0002403D01*
X0069953Y0002326D01*
X0070052Y0002252D01*
X0070153Y0002181D01*
X0070256Y0002113D01*
X0070362Y0002048D01*
X0070469Y0001987D01*
X0070579Y0001929D01*
X0070690Y0001875D01*
X0070802Y0001824D01*
X0070917Y0001776D01*
X0071032Y0001733D01*
X0071149Y0001693D01*
X0071268Y0001656D01*
X0071387Y0001624D01*
X0071507Y0001595D01*
X0071628Y0001570D01*
X0071750Y0001548D01*
X0071873Y0001531D01*
X0071995Y0001517D01*
X0072119Y0001508D01*
X0072242Y0001502D01*
X0072366Y0001500D01*
X0194413Y0001500D01*
X0194537Y0001502D01*
X0194660Y0001508D01*
X0194784Y0001517D01*
X0194906Y0001531D01*
X0195029Y0001548D01*
X0195151Y0001570D01*
X0195272Y0001595D01*
X0195392Y0001624D01*
X0195511Y0001656D01*
X0195630Y0001693D01*
X0195747Y0001733D01*
X0195862Y0001776D01*
X0195977Y0001824D01*
X0196089Y0001875D01*
X0196200Y0001929D01*
X0196310Y0001987D01*
X0196417Y0002048D01*
X0196523Y0002113D01*
X0196626Y0002181D01*
X0196727Y0002252D01*
X0196826Y0002326D01*
X0196923Y0002403D01*
X0197017Y0002484D01*
X0197108Y0002567D01*
X0197197Y0002653D01*
X0197283Y0002742D01*
X0197366Y0002833D01*
X0197447Y0002927D01*
X0197524Y0003024D01*
X0197598Y0003123D01*
X0197669Y0003224D01*
X0197737Y0003327D01*
X0197802Y0003433D01*
X0197863Y0003540D01*
X0197921Y0003650D01*
X0197975Y0003761D01*
X0198026Y0003873D01*
X0198074Y0003988D01*
X0198117Y0004103D01*
X0198157Y0004220D01*
X0198194Y0004339D01*
X0198226Y0004458D01*
X0198255Y0004578D01*
X0198280Y0004699D01*
X0198302Y0004821D01*
X0198319Y0004944D01*
X0198333Y0005066D01*
X0198342Y0005190D01*
X0198348Y0005313D01*
X0198350Y0005437D01*
X0198350Y0040870D01*
X0273154Y0040870D01*
X0273278Y0040872D01*
X0273401Y0040878D01*
X0273525Y0040887D01*
X0273647Y0040901D01*
X0273770Y0040918D01*
X0273892Y0040940D01*
X0274013Y0040965D01*
X0274133Y0040994D01*
X0274252Y0041026D01*
X0274371Y0041063D01*
X0274488Y0041103D01*
X0274603Y0041146D01*
X0274718Y0041194D01*
X0274830Y0041245D01*
X0274941Y0041299D01*
X0275051Y0041357D01*
X0275158Y0041418D01*
X0275264Y0041483D01*
X0275367Y0041551D01*
X0275468Y0041622D01*
X0275567Y0041696D01*
X0275664Y0041773D01*
X0275758Y0041854D01*
X0275849Y0041937D01*
X0275938Y0042023D01*
X0276024Y0042112D01*
X0276107Y0042203D01*
X0276188Y0042297D01*
X0276265Y0042394D01*
X0276339Y0042493D01*
X0276410Y0042594D01*
X0276478Y0042697D01*
X0276543Y0042803D01*
X0276604Y0042910D01*
X0276662Y0043020D01*
X0276716Y0043131D01*
X0276767Y0043243D01*
X0276815Y0043358D01*
X0276858Y0043473D01*
X0276898Y0043590D01*
X0276935Y0043709D01*
X0276967Y0043828D01*
X0276996Y0043948D01*
X0277021Y0044069D01*
X0277043Y0044191D01*
X0277060Y0044314D01*
X0277074Y0044436D01*
X0277083Y0044560D01*
X0277089Y0044683D01*
X0277091Y0044807D01*
X0277091Y0223941D01*
X0277089Y0224065D01*
X0277083Y0224188D01*
X0277074Y0224312D01*
X0277060Y0224434D01*
X0277043Y0224557D01*
X0277021Y0224679D01*
X0276996Y0224800D01*
X0276967Y0224920D01*
X0276935Y0225039D01*
X0276898Y0225158D01*
X0276858Y0225275D01*
X0276815Y0225390D01*
X0276767Y0225505D01*
X0276716Y0225617D01*
X0276662Y0225728D01*
X0276604Y0225838D01*
X0276543Y0225945D01*
X0276478Y0226051D01*
X0276410Y0226154D01*
X0276339Y0226255D01*
X0276265Y0226354D01*
X0276188Y0226451D01*
X0276107Y0226545D01*
X0276024Y0226636D01*
X0275938Y0226725D01*
X0275849Y0226811D01*
X0275758Y0226894D01*
X0275664Y0226975D01*
X0275567Y0227052D01*
X0275468Y0227126D01*
X0275367Y0227197D01*
X0275264Y0227265D01*
X0275158Y0227330D01*
X0275051Y0227391D01*
X0274941Y0227449D01*
X0274830Y0227503D01*
X0274718Y0227554D01*
X0274603Y0227602D01*
X0274488Y0227645D01*
X0274371Y0227685D01*
X0274252Y0227722D01*
X0274133Y0227754D01*
X0274013Y0227783D01*
X0273892Y0227808D01*
X0273770Y0227830D01*
X0273647Y0227847D01*
X0273525Y0227861D01*
X0273401Y0227870D01*
X0273278Y0227876D01*
X0273154Y0227878D01*
X0005437Y0227878D01*
X0005313Y0227876D01*
X0005190Y0227870D01*
X0005066Y0227861D01*
X0004944Y0227847D01*
X0004821Y0227830D01*
X0004699Y0227808D01*
X0004578Y0227783D01*
X0004458Y0227754D01*
X0004339Y0227722D01*
X0004220Y0227685D01*
X0004103Y0227645D01*
X0003988Y0227602D01*
X0003873Y0227554D01*
X0003761Y0227503D01*
X0003650Y0227449D01*
X0003540Y0227391D01*
X0003433Y0227330D01*
X0003327Y0227265D01*
X0003224Y0227197D01*
X0003123Y0227126D01*
X0003024Y0227052D01*
X0002927Y0226975D01*
X0002833Y0226894D01*
X0002742Y0226811D01*
X0002653Y0226725D01*
X0002567Y0226636D01*
X0002484Y0226545D01*
X0002403Y0226451D01*
X0002326Y0226354D01*
X0002252Y0226255D01*
X0002181Y0226154D01*
X0002113Y0226051D01*
X0002048Y0225945D01*
X0001987Y0225838D01*
X0001929Y0225728D01*
X0001875Y0225617D01*
X0001824Y0225505D01*
X0001776Y0225390D01*
X0001733Y0225275D01*
X0001693Y0225158D01*
X0001656Y0225039D01*
X0001624Y0224920D01*
X0001595Y0224800D01*
X0001570Y0224679D01*
X0001548Y0224557D01*
X0001531Y0224434D01*
X0001517Y0224312D01*
X0001508Y0224188D01*
X0001502Y0224065D01*
X0001500Y0223941D01*
X0001500Y0044807D01*
X0001502Y0044683D01*
X0001508Y0044560D01*
X0001517Y0044436D01*
X0001531Y0044314D01*
X0001548Y0044191D01*
X0001570Y0044069D01*
X0001595Y0043948D01*
X0001624Y0043828D01*
X0001656Y0043709D01*
X0001693Y0043590D01*
X0001733Y0043473D01*
X0001776Y0043358D01*
X0001824Y0043243D01*
X0001875Y0043131D01*
X0001929Y0043020D01*
X0001987Y0042910D01*
X0002048Y0042803D01*
X0002113Y0042697D01*
X0002181Y0042594D01*
X0002252Y0042493D01*
X0002326Y0042394D01*
X0002403Y0042297D01*
X0002484Y0042203D01*
X0002567Y0042112D01*
X0002653Y0042023D01*
X0002742Y0041937D01*
X0002833Y0041854D01*
X0002927Y0041773D01*
X0003024Y0041696D01*
X0003123Y0041622D01*
X0003224Y0041551D01*
X0003327Y0041483D01*
X0003433Y0041418D01*
X0003540Y0041357D01*
X0003650Y0041299D01*
X0003761Y0041245D01*
X0003873Y0041194D01*
X0003988Y0041146D01*
X0004103Y0041103D01*
X0004220Y0041063D01*
X0004339Y0041026D01*
X0004458Y0040994D01*
X0004578Y0040965D01*
X0004699Y0040940D01*
X0004821Y0040918D01*
X0004944Y0040901D01*
X0005066Y0040887D01*
X0005190Y0040878D01*
X0005313Y0040872D01*
X0005437Y0040870D01*
X0006220Y0056618D02*
X0006222Y0056779D01*
X0006228Y0056939D01*
X0006238Y0057100D01*
X0006252Y0057260D01*
X0006270Y0057420D01*
X0006291Y0057579D01*
X0006317Y0057738D01*
X0006347Y0057896D01*
X0006380Y0058053D01*
X0006418Y0058210D01*
X0006459Y0058365D01*
X0006504Y0058519D01*
X0006553Y0058672D01*
X0006606Y0058824D01*
X0006662Y0058975D01*
X0006723Y0059124D01*
X0006786Y0059272D01*
X0006854Y0059418D01*
X0006925Y0059562D01*
X0006999Y0059704D01*
X0007077Y0059845D01*
X0007159Y0059983D01*
X0007244Y0060120D01*
X0007332Y0060254D01*
X0007424Y0060386D01*
X0007519Y0060516D01*
X0007617Y0060644D01*
X0007718Y0060769D01*
X0007822Y0060891D01*
X0007929Y0061011D01*
X0008039Y0061128D01*
X0008152Y0061243D01*
X0008268Y0061354D01*
X0008387Y0061463D01*
X0008508Y0061568D01*
X0008632Y0061671D01*
X0008758Y0061771D01*
X0008886Y0061867D01*
X0009017Y0061960D01*
X0009151Y0062050D01*
X0009286Y0062137D01*
X0009424Y0062220D01*
X0009563Y0062300D01*
X0009705Y0062376D01*
X0009848Y0062449D01*
X0009993Y0062518D01*
X0010140Y0062584D01*
X0010288Y0062646D01*
X0010438Y0062704D01*
X0010589Y0062759D01*
X0010742Y0062810D01*
X0010896Y0062857D01*
X0011051Y0062900D01*
X0011207Y0062939D01*
X0011363Y0062975D01*
X0011521Y0063006D01*
X0011679Y0063034D01*
X0011838Y0063058D01*
X0011998Y0063078D01*
X0012158Y0063094D01*
X0012318Y0063106D01*
X0012479Y0063114D01*
X0012640Y0063118D01*
X0012800Y0063118D01*
X0012961Y0063114D01*
X0013122Y0063106D01*
X0013282Y0063094D01*
X0013442Y0063078D01*
X0013602Y0063058D01*
X0013761Y0063034D01*
X0013919Y0063006D01*
X0014077Y0062975D01*
X0014233Y0062939D01*
X0014389Y0062900D01*
X0014544Y0062857D01*
X0014698Y0062810D01*
X0014851Y0062759D01*
X0015002Y0062704D01*
X0015152Y0062646D01*
X0015300Y0062584D01*
X0015447Y0062518D01*
X0015592Y0062449D01*
X0015735Y0062376D01*
X0015877Y0062300D01*
X0016016Y0062220D01*
X0016154Y0062137D01*
X0016289Y0062050D01*
X0016423Y0061960D01*
X0016554Y0061867D01*
X0016682Y0061771D01*
X0016808Y0061671D01*
X0016932Y0061568D01*
X0017053Y0061463D01*
X0017172Y0061354D01*
X0017288Y0061243D01*
X0017401Y0061128D01*
X0017511Y0061011D01*
X0017618Y0060891D01*
X0017722Y0060769D01*
X0017823Y0060644D01*
X0017921Y0060516D01*
X0018016Y0060386D01*
X0018108Y0060254D01*
X0018196Y0060120D01*
X0018281Y0059983D01*
X0018363Y0059845D01*
X0018441Y0059704D01*
X0018515Y0059562D01*
X0018586Y0059418D01*
X0018654Y0059272D01*
X0018717Y0059124D01*
X0018778Y0058975D01*
X0018834Y0058824D01*
X0018887Y0058672D01*
X0018936Y0058519D01*
X0018981Y0058365D01*
X0019022Y0058210D01*
X0019060Y0058053D01*
X0019093Y0057896D01*
X0019123Y0057738D01*
X0019149Y0057579D01*
X0019170Y0057420D01*
X0019188Y0057260D01*
X0019202Y0057100D01*
X0019212Y0056939D01*
X0019218Y0056779D01*
X0019220Y0056618D01*
X0019218Y0056457D01*
X0019212Y0056297D01*
X0019202Y0056136D01*
X0019188Y0055976D01*
X0019170Y0055816D01*
X0019149Y0055657D01*
X0019123Y0055498D01*
X0019093Y0055340D01*
X0019060Y0055183D01*
X0019022Y0055026D01*
X0018981Y0054871D01*
X0018936Y0054717D01*
X0018887Y0054564D01*
X0018834Y0054412D01*
X0018778Y0054261D01*
X0018717Y0054112D01*
X0018654Y0053964D01*
X0018586Y0053818D01*
X0018515Y0053674D01*
X0018441Y0053532D01*
X0018363Y0053391D01*
X0018281Y0053253D01*
X0018196Y0053116D01*
X0018108Y0052982D01*
X0018016Y0052850D01*
X0017921Y0052720D01*
X0017823Y0052592D01*
X0017722Y0052467D01*
X0017618Y0052345D01*
X0017511Y0052225D01*
X0017401Y0052108D01*
X0017288Y0051993D01*
X0017172Y0051882D01*
X0017053Y0051773D01*
X0016932Y0051668D01*
X0016808Y0051565D01*
X0016682Y0051465D01*
X0016554Y0051369D01*
X0016423Y0051276D01*
X0016289Y0051186D01*
X0016154Y0051099D01*
X0016016Y0051016D01*
X0015877Y0050936D01*
X0015735Y0050860D01*
X0015592Y0050787D01*
X0015447Y0050718D01*
X0015300Y0050652D01*
X0015152Y0050590D01*
X0015002Y0050532D01*
X0014851Y0050477D01*
X0014698Y0050426D01*
X0014544Y0050379D01*
X0014389Y0050336D01*
X0014233Y0050297D01*
X0014077Y0050261D01*
X0013919Y0050230D01*
X0013761Y0050202D01*
X0013602Y0050178D01*
X0013442Y0050158D01*
X0013282Y0050142D01*
X0013122Y0050130D01*
X0012961Y0050122D01*
X0012800Y0050118D01*
X0012640Y0050118D01*
X0012479Y0050122D01*
X0012318Y0050130D01*
X0012158Y0050142D01*
X0011998Y0050158D01*
X0011838Y0050178D01*
X0011679Y0050202D01*
X0011521Y0050230D01*
X0011363Y0050261D01*
X0011207Y0050297D01*
X0011051Y0050336D01*
X0010896Y0050379D01*
X0010742Y0050426D01*
X0010589Y0050477D01*
X0010438Y0050532D01*
X0010288Y0050590D01*
X0010140Y0050652D01*
X0009993Y0050718D01*
X0009848Y0050787D01*
X0009705Y0050860D01*
X0009563Y0050936D01*
X0009424Y0051016D01*
X0009286Y0051099D01*
X0009151Y0051186D01*
X0009017Y0051276D01*
X0008886Y0051369D01*
X0008758Y0051465D01*
X0008632Y0051565D01*
X0008508Y0051668D01*
X0008387Y0051773D01*
X0008268Y0051882D01*
X0008152Y0051993D01*
X0008039Y0052108D01*
X0007929Y0052225D01*
X0007822Y0052345D01*
X0007718Y0052467D01*
X0007617Y0052592D01*
X0007519Y0052720D01*
X0007424Y0052850D01*
X0007332Y0052982D01*
X0007244Y0053116D01*
X0007159Y0053253D01*
X0007077Y0053391D01*
X0006999Y0053532D01*
X0006925Y0053674D01*
X0006854Y0053818D01*
X0006786Y0053964D01*
X0006723Y0054112D01*
X0006662Y0054261D01*
X0006606Y0054412D01*
X0006553Y0054564D01*
X0006504Y0054717D01*
X0006459Y0054871D01*
X0006418Y0055026D01*
X0006380Y0055183D01*
X0006347Y0055340D01*
X0006317Y0055498D01*
X0006291Y0055657D01*
X0006270Y0055816D01*
X0006252Y0055976D01*
X0006238Y0056136D01*
X0006228Y0056297D01*
X0006222Y0056457D01*
X0006220Y0056618D01*
X0081024Y0048744D02*
X0081026Y0048905D01*
X0081032Y0049065D01*
X0081042Y0049226D01*
X0081056Y0049386D01*
X0081074Y0049546D01*
X0081095Y0049705D01*
X0081121Y0049864D01*
X0081151Y0050022D01*
X0081184Y0050179D01*
X0081222Y0050336D01*
X0081263Y0050491D01*
X0081308Y0050645D01*
X0081357Y0050798D01*
X0081410Y0050950D01*
X0081466Y0051101D01*
X0081527Y0051250D01*
X0081590Y0051398D01*
X0081658Y0051544D01*
X0081729Y0051688D01*
X0081803Y0051830D01*
X0081881Y0051971D01*
X0081963Y0052109D01*
X0082048Y0052246D01*
X0082136Y0052380D01*
X0082228Y0052512D01*
X0082323Y0052642D01*
X0082421Y0052770D01*
X0082522Y0052895D01*
X0082626Y0053017D01*
X0082733Y0053137D01*
X0082843Y0053254D01*
X0082956Y0053369D01*
X0083072Y0053480D01*
X0083191Y0053589D01*
X0083312Y0053694D01*
X0083436Y0053797D01*
X0083562Y0053897D01*
X0083690Y0053993D01*
X0083821Y0054086D01*
X0083955Y0054176D01*
X0084090Y0054263D01*
X0084228Y0054346D01*
X0084367Y0054426D01*
X0084509Y0054502D01*
X0084652Y0054575D01*
X0084797Y0054644D01*
X0084944Y0054710D01*
X0085092Y0054772D01*
X0085242Y0054830D01*
X0085393Y0054885D01*
X0085546Y0054936D01*
X0085700Y0054983D01*
X0085855Y0055026D01*
X0086011Y0055065D01*
X0086167Y0055101D01*
X0086325Y0055132D01*
X0086483Y0055160D01*
X0086642Y0055184D01*
X0086802Y0055204D01*
X0086962Y0055220D01*
X0087122Y0055232D01*
X0087283Y0055240D01*
X0087444Y0055244D01*
X0087604Y0055244D01*
X0087765Y0055240D01*
X0087926Y0055232D01*
X0088086Y0055220D01*
X0088246Y0055204D01*
X0088406Y0055184D01*
X0088565Y0055160D01*
X0088723Y0055132D01*
X0088881Y0055101D01*
X0089037Y0055065D01*
X0089193Y0055026D01*
X0089348Y0054983D01*
X0089502Y0054936D01*
X0089655Y0054885D01*
X0089806Y0054830D01*
X0089956Y0054772D01*
X0090104Y0054710D01*
X0090251Y0054644D01*
X0090396Y0054575D01*
X0090539Y0054502D01*
X0090681Y0054426D01*
X0090820Y0054346D01*
X0090958Y0054263D01*
X0091093Y0054176D01*
X0091227Y0054086D01*
X0091358Y0053993D01*
X0091486Y0053897D01*
X0091612Y0053797D01*
X0091736Y0053694D01*
X0091857Y0053589D01*
X0091976Y0053480D01*
X0092092Y0053369D01*
X0092205Y0053254D01*
X0092315Y0053137D01*
X0092422Y0053017D01*
X0092526Y0052895D01*
X0092627Y0052770D01*
X0092725Y0052642D01*
X0092820Y0052512D01*
X0092912Y0052380D01*
X0093000Y0052246D01*
X0093085Y0052109D01*
X0093167Y0051971D01*
X0093245Y0051830D01*
X0093319Y0051688D01*
X0093390Y0051544D01*
X0093458Y0051398D01*
X0093521Y0051250D01*
X0093582Y0051101D01*
X0093638Y0050950D01*
X0093691Y0050798D01*
X0093740Y0050645D01*
X0093785Y0050491D01*
X0093826Y0050336D01*
X0093864Y0050179D01*
X0093897Y0050022D01*
X0093927Y0049864D01*
X0093953Y0049705D01*
X0093974Y0049546D01*
X0093992Y0049386D01*
X0094006Y0049226D01*
X0094016Y0049065D01*
X0094022Y0048905D01*
X0094024Y0048744D01*
X0094022Y0048583D01*
X0094016Y0048423D01*
X0094006Y0048262D01*
X0093992Y0048102D01*
X0093974Y0047942D01*
X0093953Y0047783D01*
X0093927Y0047624D01*
X0093897Y0047466D01*
X0093864Y0047309D01*
X0093826Y0047152D01*
X0093785Y0046997D01*
X0093740Y0046843D01*
X0093691Y0046690D01*
X0093638Y0046538D01*
X0093582Y0046387D01*
X0093521Y0046238D01*
X0093458Y0046090D01*
X0093390Y0045944D01*
X0093319Y0045800D01*
X0093245Y0045658D01*
X0093167Y0045517D01*
X0093085Y0045379D01*
X0093000Y0045242D01*
X0092912Y0045108D01*
X0092820Y0044976D01*
X0092725Y0044846D01*
X0092627Y0044718D01*
X0092526Y0044593D01*
X0092422Y0044471D01*
X0092315Y0044351D01*
X0092205Y0044234D01*
X0092092Y0044119D01*
X0091976Y0044008D01*
X0091857Y0043899D01*
X0091736Y0043794D01*
X0091612Y0043691D01*
X0091486Y0043591D01*
X0091358Y0043495D01*
X0091227Y0043402D01*
X0091093Y0043312D01*
X0090958Y0043225D01*
X0090820Y0043142D01*
X0090681Y0043062D01*
X0090539Y0042986D01*
X0090396Y0042913D01*
X0090251Y0042844D01*
X0090104Y0042778D01*
X0089956Y0042716D01*
X0089806Y0042658D01*
X0089655Y0042603D01*
X0089502Y0042552D01*
X0089348Y0042505D01*
X0089193Y0042462D01*
X0089037Y0042423D01*
X0088881Y0042387D01*
X0088723Y0042356D01*
X0088565Y0042328D01*
X0088406Y0042304D01*
X0088246Y0042284D01*
X0088086Y0042268D01*
X0087926Y0042256D01*
X0087765Y0042248D01*
X0087604Y0042244D01*
X0087444Y0042244D01*
X0087283Y0042248D01*
X0087122Y0042256D01*
X0086962Y0042268D01*
X0086802Y0042284D01*
X0086642Y0042304D01*
X0086483Y0042328D01*
X0086325Y0042356D01*
X0086167Y0042387D01*
X0086011Y0042423D01*
X0085855Y0042462D01*
X0085700Y0042505D01*
X0085546Y0042552D01*
X0085393Y0042603D01*
X0085242Y0042658D01*
X0085092Y0042716D01*
X0084944Y0042778D01*
X0084797Y0042844D01*
X0084652Y0042913D01*
X0084509Y0042986D01*
X0084367Y0043062D01*
X0084228Y0043142D01*
X0084090Y0043225D01*
X0083955Y0043312D01*
X0083821Y0043402D01*
X0083690Y0043495D01*
X0083562Y0043591D01*
X0083436Y0043691D01*
X0083312Y0043794D01*
X0083191Y0043899D01*
X0083072Y0044008D01*
X0082956Y0044119D01*
X0082843Y0044234D01*
X0082733Y0044351D01*
X0082626Y0044471D01*
X0082522Y0044593D01*
X0082421Y0044718D01*
X0082323Y0044846D01*
X0082228Y0044976D01*
X0082136Y0045108D01*
X0082048Y0045242D01*
X0081963Y0045379D01*
X0081881Y0045517D01*
X0081803Y0045658D01*
X0081729Y0045800D01*
X0081658Y0045944D01*
X0081590Y0046090D01*
X0081527Y0046238D01*
X0081466Y0046387D01*
X0081410Y0046538D01*
X0081357Y0046690D01*
X0081308Y0046843D01*
X0081263Y0046997D01*
X0081222Y0047152D01*
X0081184Y0047309D01*
X0081151Y0047466D01*
X0081121Y0047624D01*
X0081095Y0047783D01*
X0081074Y0047942D01*
X0081056Y0048102D01*
X0081042Y0048262D01*
X0081032Y0048423D01*
X0081026Y0048583D01*
X0081024Y0048744D01*
X0088898Y0068429D02*
X0088900Y0068590D01*
X0088906Y0068750D01*
X0088916Y0068911D01*
X0088930Y0069071D01*
X0088948Y0069231D01*
X0088969Y0069390D01*
X0088995Y0069549D01*
X0089025Y0069707D01*
X0089058Y0069864D01*
X0089096Y0070021D01*
X0089137Y0070176D01*
X0089182Y0070330D01*
X0089231Y0070483D01*
X0089284Y0070635D01*
X0089340Y0070786D01*
X0089401Y0070935D01*
X0089464Y0071083D01*
X0089532Y0071229D01*
X0089603Y0071373D01*
X0089677Y0071515D01*
X0089755Y0071656D01*
X0089837Y0071794D01*
X0089922Y0071931D01*
X0090010Y0072065D01*
X0090102Y0072197D01*
X0090197Y0072327D01*
X0090295Y0072455D01*
X0090396Y0072580D01*
X0090500Y0072702D01*
X0090607Y0072822D01*
X0090717Y0072939D01*
X0090830Y0073054D01*
X0090946Y0073165D01*
X0091065Y0073274D01*
X0091186Y0073379D01*
X0091310Y0073482D01*
X0091436Y0073582D01*
X0091564Y0073678D01*
X0091695Y0073771D01*
X0091829Y0073861D01*
X0091964Y0073948D01*
X0092102Y0074031D01*
X0092241Y0074111D01*
X0092383Y0074187D01*
X0092526Y0074260D01*
X0092671Y0074329D01*
X0092818Y0074395D01*
X0092966Y0074457D01*
X0093116Y0074515D01*
X0093267Y0074570D01*
X0093420Y0074621D01*
X0093574Y0074668D01*
X0093729Y0074711D01*
X0093885Y0074750D01*
X0094041Y0074786D01*
X0094199Y0074817D01*
X0094357Y0074845D01*
X0094516Y0074869D01*
X0094676Y0074889D01*
X0094836Y0074905D01*
X0094996Y0074917D01*
X0095157Y0074925D01*
X0095318Y0074929D01*
X0095478Y0074929D01*
X0095639Y0074925D01*
X0095800Y0074917D01*
X0095960Y0074905D01*
X0096120Y0074889D01*
X0096280Y0074869D01*
X0096439Y0074845D01*
X0096597Y0074817D01*
X0096755Y0074786D01*
X0096911Y0074750D01*
X0097067Y0074711D01*
X0097222Y0074668D01*
X0097376Y0074621D01*
X0097529Y0074570D01*
X0097680Y0074515D01*
X0097830Y0074457D01*
X0097978Y0074395D01*
X0098125Y0074329D01*
X0098270Y0074260D01*
X0098413Y0074187D01*
X0098555Y0074111D01*
X0098694Y0074031D01*
X0098832Y0073948D01*
X0098967Y0073861D01*
X0099101Y0073771D01*
X0099232Y0073678D01*
X0099360Y0073582D01*
X0099486Y0073482D01*
X0099610Y0073379D01*
X0099731Y0073274D01*
X0099850Y0073165D01*
X0099966Y0073054D01*
X0100079Y0072939D01*
X0100189Y0072822D01*
X0100296Y0072702D01*
X0100400Y0072580D01*
X0100501Y0072455D01*
X0100599Y0072327D01*
X0100694Y0072197D01*
X0100786Y0072065D01*
X0100874Y0071931D01*
X0100959Y0071794D01*
X0101041Y0071656D01*
X0101119Y0071515D01*
X0101193Y0071373D01*
X0101264Y0071229D01*
X0101332Y0071083D01*
X0101395Y0070935D01*
X0101456Y0070786D01*
X0101512Y0070635D01*
X0101565Y0070483D01*
X0101614Y0070330D01*
X0101659Y0070176D01*
X0101700Y0070021D01*
X0101738Y0069864D01*
X0101771Y0069707D01*
X0101801Y0069549D01*
X0101827Y0069390D01*
X0101848Y0069231D01*
X0101866Y0069071D01*
X0101880Y0068911D01*
X0101890Y0068750D01*
X0101896Y0068590D01*
X0101898Y0068429D01*
X0101896Y0068268D01*
X0101890Y0068108D01*
X0101880Y0067947D01*
X0101866Y0067787D01*
X0101848Y0067627D01*
X0101827Y0067468D01*
X0101801Y0067309D01*
X0101771Y0067151D01*
X0101738Y0066994D01*
X0101700Y0066837D01*
X0101659Y0066682D01*
X0101614Y0066528D01*
X0101565Y0066375D01*
X0101512Y0066223D01*
X0101456Y0066072D01*
X0101395Y0065923D01*
X0101332Y0065775D01*
X0101264Y0065629D01*
X0101193Y0065485D01*
X0101119Y0065343D01*
X0101041Y0065202D01*
X0100959Y0065064D01*
X0100874Y0064927D01*
X0100786Y0064793D01*
X0100694Y0064661D01*
X0100599Y0064531D01*
X0100501Y0064403D01*
X0100400Y0064278D01*
X0100296Y0064156D01*
X0100189Y0064036D01*
X0100079Y0063919D01*
X0099966Y0063804D01*
X0099850Y0063693D01*
X0099731Y0063584D01*
X0099610Y0063479D01*
X0099486Y0063376D01*
X0099360Y0063276D01*
X0099232Y0063180D01*
X0099101Y0063087D01*
X0098967Y0062997D01*
X0098832Y0062910D01*
X0098694Y0062827D01*
X0098555Y0062747D01*
X0098413Y0062671D01*
X0098270Y0062598D01*
X0098125Y0062529D01*
X0097978Y0062463D01*
X0097830Y0062401D01*
X0097680Y0062343D01*
X0097529Y0062288D01*
X0097376Y0062237D01*
X0097222Y0062190D01*
X0097067Y0062147D01*
X0096911Y0062108D01*
X0096755Y0062072D01*
X0096597Y0062041D01*
X0096439Y0062013D01*
X0096280Y0061989D01*
X0096120Y0061969D01*
X0095960Y0061953D01*
X0095800Y0061941D01*
X0095639Y0061933D01*
X0095478Y0061929D01*
X0095318Y0061929D01*
X0095157Y0061933D01*
X0094996Y0061941D01*
X0094836Y0061953D01*
X0094676Y0061969D01*
X0094516Y0061989D01*
X0094357Y0062013D01*
X0094199Y0062041D01*
X0094041Y0062072D01*
X0093885Y0062108D01*
X0093729Y0062147D01*
X0093574Y0062190D01*
X0093420Y0062237D01*
X0093267Y0062288D01*
X0093116Y0062343D01*
X0092966Y0062401D01*
X0092818Y0062463D01*
X0092671Y0062529D01*
X0092526Y0062598D01*
X0092383Y0062671D01*
X0092241Y0062747D01*
X0092102Y0062827D01*
X0091964Y0062910D01*
X0091829Y0062997D01*
X0091695Y0063087D01*
X0091564Y0063180D01*
X0091436Y0063276D01*
X0091310Y0063376D01*
X0091186Y0063479D01*
X0091065Y0063584D01*
X0090946Y0063693D01*
X0090830Y0063804D01*
X0090717Y0063919D01*
X0090607Y0064036D01*
X0090500Y0064156D01*
X0090396Y0064278D01*
X0090295Y0064403D01*
X0090197Y0064531D01*
X0090102Y0064661D01*
X0090010Y0064793D01*
X0089922Y0064927D01*
X0089837Y0065064D01*
X0089755Y0065202D01*
X0089677Y0065343D01*
X0089603Y0065485D01*
X0089532Y0065629D01*
X0089464Y0065775D01*
X0089401Y0065923D01*
X0089340Y0066072D01*
X0089284Y0066223D01*
X0089231Y0066375D01*
X0089182Y0066528D01*
X0089137Y0066682D01*
X0089096Y0066837D01*
X0089058Y0066994D01*
X0089025Y0067151D01*
X0088995Y0067309D01*
X0088969Y0067468D01*
X0088948Y0067627D01*
X0088930Y0067787D01*
X0088916Y0067947D01*
X0088906Y0068108D01*
X0088900Y0068268D01*
X0088898Y0068429D01*
X0108583Y0097957D02*
X0108585Y0098118D01*
X0108591Y0098278D01*
X0108601Y0098439D01*
X0108615Y0098599D01*
X0108633Y0098759D01*
X0108654Y0098918D01*
X0108680Y0099077D01*
X0108710Y0099235D01*
X0108743Y0099392D01*
X0108781Y0099549D01*
X0108822Y0099704D01*
X0108867Y0099858D01*
X0108916Y0100011D01*
X0108969Y0100163D01*
X0109025Y0100314D01*
X0109086Y0100463D01*
X0109149Y0100611D01*
X0109217Y0100757D01*
X0109288Y0100901D01*
X0109362Y0101043D01*
X0109440Y0101184D01*
X0109522Y0101322D01*
X0109607Y0101459D01*
X0109695Y0101593D01*
X0109787Y0101725D01*
X0109882Y0101855D01*
X0109980Y0101983D01*
X0110081Y0102108D01*
X0110185Y0102230D01*
X0110292Y0102350D01*
X0110402Y0102467D01*
X0110515Y0102582D01*
X0110631Y0102693D01*
X0110750Y0102802D01*
X0110871Y0102907D01*
X0110995Y0103010D01*
X0111121Y0103110D01*
X0111249Y0103206D01*
X0111380Y0103299D01*
X0111514Y0103389D01*
X0111649Y0103476D01*
X0111787Y0103559D01*
X0111926Y0103639D01*
X0112068Y0103715D01*
X0112211Y0103788D01*
X0112356Y0103857D01*
X0112503Y0103923D01*
X0112651Y0103985D01*
X0112801Y0104043D01*
X0112952Y0104098D01*
X0113105Y0104149D01*
X0113259Y0104196D01*
X0113414Y0104239D01*
X0113570Y0104278D01*
X0113726Y0104314D01*
X0113884Y0104345D01*
X0114042Y0104373D01*
X0114201Y0104397D01*
X0114361Y0104417D01*
X0114521Y0104433D01*
X0114681Y0104445D01*
X0114842Y0104453D01*
X0115003Y0104457D01*
X0115163Y0104457D01*
X0115324Y0104453D01*
X0115485Y0104445D01*
X0115645Y0104433D01*
X0115805Y0104417D01*
X0115965Y0104397D01*
X0116124Y0104373D01*
X0116282Y0104345D01*
X0116440Y0104314D01*
X0116596Y0104278D01*
X0116752Y0104239D01*
X0116907Y0104196D01*
X0117061Y0104149D01*
X0117214Y0104098D01*
X0117365Y0104043D01*
X0117515Y0103985D01*
X0117663Y0103923D01*
X0117810Y0103857D01*
X0117955Y0103788D01*
X0118098Y0103715D01*
X0118240Y0103639D01*
X0118379Y0103559D01*
X0118517Y0103476D01*
X0118652Y0103389D01*
X0118786Y0103299D01*
X0118917Y0103206D01*
X0119045Y0103110D01*
X0119171Y0103010D01*
X0119295Y0102907D01*
X0119416Y0102802D01*
X0119535Y0102693D01*
X0119651Y0102582D01*
X0119764Y0102467D01*
X0119874Y0102350D01*
X0119981Y0102230D01*
X0120085Y0102108D01*
X0120186Y0101983D01*
X0120284Y0101855D01*
X0120379Y0101725D01*
X0120471Y0101593D01*
X0120559Y0101459D01*
X0120644Y0101322D01*
X0120726Y0101184D01*
X0120804Y0101043D01*
X0120878Y0100901D01*
X0120949Y0100757D01*
X0121017Y0100611D01*
X0121080Y0100463D01*
X0121141Y0100314D01*
X0121197Y0100163D01*
X0121250Y0100011D01*
X0121299Y0099858D01*
X0121344Y0099704D01*
X0121385Y0099549D01*
X0121423Y0099392D01*
X0121456Y0099235D01*
X0121486Y0099077D01*
X0121512Y0098918D01*
X0121533Y0098759D01*
X0121551Y0098599D01*
X0121565Y0098439D01*
X0121575Y0098278D01*
X0121581Y0098118D01*
X0121583Y0097957D01*
X0121581Y0097796D01*
X0121575Y0097636D01*
X0121565Y0097475D01*
X0121551Y0097315D01*
X0121533Y0097155D01*
X0121512Y0096996D01*
X0121486Y0096837D01*
X0121456Y0096679D01*
X0121423Y0096522D01*
X0121385Y0096365D01*
X0121344Y0096210D01*
X0121299Y0096056D01*
X0121250Y0095903D01*
X0121197Y0095751D01*
X0121141Y0095600D01*
X0121080Y0095451D01*
X0121017Y0095303D01*
X0120949Y0095157D01*
X0120878Y0095013D01*
X0120804Y0094871D01*
X0120726Y0094730D01*
X0120644Y0094592D01*
X0120559Y0094455D01*
X0120471Y0094321D01*
X0120379Y0094189D01*
X0120284Y0094059D01*
X0120186Y0093931D01*
X0120085Y0093806D01*
X0119981Y0093684D01*
X0119874Y0093564D01*
X0119764Y0093447D01*
X0119651Y0093332D01*
X0119535Y0093221D01*
X0119416Y0093112D01*
X0119295Y0093007D01*
X0119171Y0092904D01*
X0119045Y0092804D01*
X0118917Y0092708D01*
X0118786Y0092615D01*
X0118652Y0092525D01*
X0118517Y0092438D01*
X0118379Y0092355D01*
X0118240Y0092275D01*
X0118098Y0092199D01*
X0117955Y0092126D01*
X0117810Y0092057D01*
X0117663Y0091991D01*
X0117515Y0091929D01*
X0117365Y0091871D01*
X0117214Y0091816D01*
X0117061Y0091765D01*
X0116907Y0091718D01*
X0116752Y0091675D01*
X0116596Y0091636D01*
X0116440Y0091600D01*
X0116282Y0091569D01*
X0116124Y0091541D01*
X0115965Y0091517D01*
X0115805Y0091497D01*
X0115645Y0091481D01*
X0115485Y0091469D01*
X0115324Y0091461D01*
X0115163Y0091457D01*
X0115003Y0091457D01*
X0114842Y0091461D01*
X0114681Y0091469D01*
X0114521Y0091481D01*
X0114361Y0091497D01*
X0114201Y0091517D01*
X0114042Y0091541D01*
X0113884Y0091569D01*
X0113726Y0091600D01*
X0113570Y0091636D01*
X0113414Y0091675D01*
X0113259Y0091718D01*
X0113105Y0091765D01*
X0112952Y0091816D01*
X0112801Y0091871D01*
X0112651Y0091929D01*
X0112503Y0091991D01*
X0112356Y0092057D01*
X0112211Y0092126D01*
X0112068Y0092199D01*
X0111926Y0092275D01*
X0111787Y0092355D01*
X0111649Y0092438D01*
X0111514Y0092525D01*
X0111380Y0092615D01*
X0111249Y0092708D01*
X0111121Y0092804D01*
X0110995Y0092904D01*
X0110871Y0093007D01*
X0110750Y0093112D01*
X0110631Y0093221D01*
X0110515Y0093332D01*
X0110402Y0093447D01*
X0110292Y0093564D01*
X0110185Y0093684D01*
X0110081Y0093806D01*
X0109980Y0093931D01*
X0109882Y0094059D01*
X0109787Y0094189D01*
X0109695Y0094321D01*
X0109607Y0094455D01*
X0109522Y0094592D01*
X0109440Y0094730D01*
X0109362Y0094871D01*
X0109288Y0095013D01*
X0109217Y0095157D01*
X0109149Y0095303D01*
X0109086Y0095451D01*
X0109025Y0095600D01*
X0108969Y0095751D01*
X0108916Y0095903D01*
X0108867Y0096056D01*
X0108822Y0096210D01*
X0108781Y0096365D01*
X0108743Y0096522D01*
X0108710Y0096679D01*
X0108680Y0096837D01*
X0108654Y0096996D01*
X0108633Y0097155D01*
X0108615Y0097315D01*
X0108601Y0097475D01*
X0108591Y0097636D01*
X0108585Y0097796D01*
X0108583Y0097957D01*
X0179449Y0050713D02*
X0179451Y0050874D01*
X0179457Y0051034D01*
X0179467Y0051195D01*
X0179481Y0051355D01*
X0179499Y0051515D01*
X0179520Y0051674D01*
X0179546Y0051833D01*
X0179576Y0051991D01*
X0179609Y0052148D01*
X0179647Y0052305D01*
X0179688Y0052460D01*
X0179733Y0052614D01*
X0179782Y0052767D01*
X0179835Y0052919D01*
X0179891Y0053070D01*
X0179952Y0053219D01*
X0180015Y0053367D01*
X0180083Y0053513D01*
X0180154Y0053657D01*
X0180228Y0053799D01*
X0180306Y0053940D01*
X0180388Y0054078D01*
X0180473Y0054215D01*
X0180561Y0054349D01*
X0180653Y0054481D01*
X0180748Y0054611D01*
X0180846Y0054739D01*
X0180947Y0054864D01*
X0181051Y0054986D01*
X0181158Y0055106D01*
X0181268Y0055223D01*
X0181381Y0055338D01*
X0181497Y0055449D01*
X0181616Y0055558D01*
X0181737Y0055663D01*
X0181861Y0055766D01*
X0181987Y0055866D01*
X0182115Y0055962D01*
X0182246Y0056055D01*
X0182380Y0056145D01*
X0182515Y0056232D01*
X0182653Y0056315D01*
X0182792Y0056395D01*
X0182934Y0056471D01*
X0183077Y0056544D01*
X0183222Y0056613D01*
X0183369Y0056679D01*
X0183517Y0056741D01*
X0183667Y0056799D01*
X0183818Y0056854D01*
X0183971Y0056905D01*
X0184125Y0056952D01*
X0184280Y0056995D01*
X0184436Y0057034D01*
X0184592Y0057070D01*
X0184750Y0057101D01*
X0184908Y0057129D01*
X0185067Y0057153D01*
X0185227Y0057173D01*
X0185387Y0057189D01*
X0185547Y0057201D01*
X0185708Y0057209D01*
X0185869Y0057213D01*
X0186029Y0057213D01*
X0186190Y0057209D01*
X0186351Y0057201D01*
X0186511Y0057189D01*
X0186671Y0057173D01*
X0186831Y0057153D01*
X0186990Y0057129D01*
X0187148Y0057101D01*
X0187306Y0057070D01*
X0187462Y0057034D01*
X0187618Y0056995D01*
X0187773Y0056952D01*
X0187927Y0056905D01*
X0188080Y0056854D01*
X0188231Y0056799D01*
X0188381Y0056741D01*
X0188529Y0056679D01*
X0188676Y0056613D01*
X0188821Y0056544D01*
X0188964Y0056471D01*
X0189106Y0056395D01*
X0189245Y0056315D01*
X0189383Y0056232D01*
X0189518Y0056145D01*
X0189652Y0056055D01*
X0189783Y0055962D01*
X0189911Y0055866D01*
X0190037Y0055766D01*
X0190161Y0055663D01*
X0190282Y0055558D01*
X0190401Y0055449D01*
X0190517Y0055338D01*
X0190630Y0055223D01*
X0190740Y0055106D01*
X0190847Y0054986D01*
X0190951Y0054864D01*
X0191052Y0054739D01*
X0191150Y0054611D01*
X0191245Y0054481D01*
X0191337Y0054349D01*
X0191425Y0054215D01*
X0191510Y0054078D01*
X0191592Y0053940D01*
X0191670Y0053799D01*
X0191744Y0053657D01*
X0191815Y0053513D01*
X0191883Y0053367D01*
X0191946Y0053219D01*
X0192007Y0053070D01*
X0192063Y0052919D01*
X0192116Y0052767D01*
X0192165Y0052614D01*
X0192210Y0052460D01*
X0192251Y0052305D01*
X0192289Y0052148D01*
X0192322Y0051991D01*
X0192352Y0051833D01*
X0192378Y0051674D01*
X0192399Y0051515D01*
X0192417Y0051355D01*
X0192431Y0051195D01*
X0192441Y0051034D01*
X0192447Y0050874D01*
X0192449Y0050713D01*
X0192447Y0050552D01*
X0192441Y0050392D01*
X0192431Y0050231D01*
X0192417Y0050071D01*
X0192399Y0049911D01*
X0192378Y0049752D01*
X0192352Y0049593D01*
X0192322Y0049435D01*
X0192289Y0049278D01*
X0192251Y0049121D01*
X0192210Y0048966D01*
X0192165Y0048812D01*
X0192116Y0048659D01*
X0192063Y0048507D01*
X0192007Y0048356D01*
X0191946Y0048207D01*
X0191883Y0048059D01*
X0191815Y0047913D01*
X0191744Y0047769D01*
X0191670Y0047627D01*
X0191592Y0047486D01*
X0191510Y0047348D01*
X0191425Y0047211D01*
X0191337Y0047077D01*
X0191245Y0046945D01*
X0191150Y0046815D01*
X0191052Y0046687D01*
X0190951Y0046562D01*
X0190847Y0046440D01*
X0190740Y0046320D01*
X0190630Y0046203D01*
X0190517Y0046088D01*
X0190401Y0045977D01*
X0190282Y0045868D01*
X0190161Y0045763D01*
X0190037Y0045660D01*
X0189911Y0045560D01*
X0189783Y0045464D01*
X0189652Y0045371D01*
X0189518Y0045281D01*
X0189383Y0045194D01*
X0189245Y0045111D01*
X0189106Y0045031D01*
X0188964Y0044955D01*
X0188821Y0044882D01*
X0188676Y0044813D01*
X0188529Y0044747D01*
X0188381Y0044685D01*
X0188231Y0044627D01*
X0188080Y0044572D01*
X0187927Y0044521D01*
X0187773Y0044474D01*
X0187618Y0044431D01*
X0187462Y0044392D01*
X0187306Y0044356D01*
X0187148Y0044325D01*
X0186990Y0044297D01*
X0186831Y0044273D01*
X0186671Y0044253D01*
X0186511Y0044237D01*
X0186351Y0044225D01*
X0186190Y0044217D01*
X0186029Y0044213D01*
X0185869Y0044213D01*
X0185708Y0044217D01*
X0185547Y0044225D01*
X0185387Y0044237D01*
X0185227Y0044253D01*
X0185067Y0044273D01*
X0184908Y0044297D01*
X0184750Y0044325D01*
X0184592Y0044356D01*
X0184436Y0044392D01*
X0184280Y0044431D01*
X0184125Y0044474D01*
X0183971Y0044521D01*
X0183818Y0044572D01*
X0183667Y0044627D01*
X0183517Y0044685D01*
X0183369Y0044747D01*
X0183222Y0044813D01*
X0183077Y0044882D01*
X0182934Y0044955D01*
X0182792Y0045031D01*
X0182653Y0045111D01*
X0182515Y0045194D01*
X0182380Y0045281D01*
X0182246Y0045371D01*
X0182115Y0045464D01*
X0181987Y0045560D01*
X0181861Y0045660D01*
X0181737Y0045763D01*
X0181616Y0045868D01*
X0181497Y0045977D01*
X0181381Y0046088D01*
X0181268Y0046203D01*
X0181158Y0046320D01*
X0181051Y0046440D01*
X0180947Y0046562D01*
X0180846Y0046687D01*
X0180748Y0046815D01*
X0180653Y0046945D01*
X0180561Y0047077D01*
X0180473Y0047211D01*
X0180388Y0047348D01*
X0180306Y0047486D01*
X0180228Y0047627D01*
X0180154Y0047769D01*
X0180083Y0047913D01*
X0180015Y0048059D01*
X0179952Y0048207D01*
X0179891Y0048356D01*
X0179835Y0048507D01*
X0179782Y0048659D01*
X0179733Y0048812D01*
X0179688Y0048966D01*
X0179647Y0049121D01*
X0179609Y0049278D01*
X0179576Y0049435D01*
X0179546Y0049593D01*
X0179520Y0049752D01*
X0179499Y0049911D01*
X0179481Y0050071D01*
X0179467Y0050231D01*
X0179457Y0050392D01*
X0179451Y0050552D01*
X0179449Y0050713D01*
X0218819Y0084177D02*
X0218821Y0084338D01*
X0218827Y0084498D01*
X0218837Y0084659D01*
X0218851Y0084819D01*
X0218869Y0084979D01*
X0218890Y0085138D01*
X0218916Y0085297D01*
X0218946Y0085455D01*
X0218979Y0085612D01*
X0219017Y0085769D01*
X0219058Y0085924D01*
X0219103Y0086078D01*
X0219152Y0086231D01*
X0219205Y0086383D01*
X0219261Y0086534D01*
X0219322Y0086683D01*
X0219385Y0086831D01*
X0219453Y0086977D01*
X0219524Y0087121D01*
X0219598Y0087263D01*
X0219676Y0087404D01*
X0219758Y0087542D01*
X0219843Y0087679D01*
X0219931Y0087813D01*
X0220023Y0087945D01*
X0220118Y0088075D01*
X0220216Y0088203D01*
X0220317Y0088328D01*
X0220421Y0088450D01*
X0220528Y0088570D01*
X0220638Y0088687D01*
X0220751Y0088802D01*
X0220867Y0088913D01*
X0220986Y0089022D01*
X0221107Y0089127D01*
X0221231Y0089230D01*
X0221357Y0089330D01*
X0221485Y0089426D01*
X0221616Y0089519D01*
X0221750Y0089609D01*
X0221885Y0089696D01*
X0222023Y0089779D01*
X0222162Y0089859D01*
X0222304Y0089935D01*
X0222447Y0090008D01*
X0222592Y0090077D01*
X0222739Y0090143D01*
X0222887Y0090205D01*
X0223037Y0090263D01*
X0223188Y0090318D01*
X0223341Y0090369D01*
X0223495Y0090416D01*
X0223650Y0090459D01*
X0223806Y0090498D01*
X0223962Y0090534D01*
X0224120Y0090565D01*
X0224278Y0090593D01*
X0224437Y0090617D01*
X0224597Y0090637D01*
X0224757Y0090653D01*
X0224917Y0090665D01*
X0225078Y0090673D01*
X0225239Y0090677D01*
X0225399Y0090677D01*
X0225560Y0090673D01*
X0225721Y0090665D01*
X0225881Y0090653D01*
X0226041Y0090637D01*
X0226201Y0090617D01*
X0226360Y0090593D01*
X0226518Y0090565D01*
X0226676Y0090534D01*
X0226832Y0090498D01*
X0226988Y0090459D01*
X0227143Y0090416D01*
X0227297Y0090369D01*
X0227450Y0090318D01*
X0227601Y0090263D01*
X0227751Y0090205D01*
X0227899Y0090143D01*
X0228046Y0090077D01*
X0228191Y0090008D01*
X0228334Y0089935D01*
X0228476Y0089859D01*
X0228615Y0089779D01*
X0228753Y0089696D01*
X0228888Y0089609D01*
X0229022Y0089519D01*
X0229153Y0089426D01*
X0229281Y0089330D01*
X0229407Y0089230D01*
X0229531Y0089127D01*
X0229652Y0089022D01*
X0229771Y0088913D01*
X0229887Y0088802D01*
X0230000Y0088687D01*
X0230110Y0088570D01*
X0230217Y0088450D01*
X0230321Y0088328D01*
X0230422Y0088203D01*
X0230520Y0088075D01*
X0230615Y0087945D01*
X0230707Y0087813D01*
X0230795Y0087679D01*
X0230880Y0087542D01*
X0230962Y0087404D01*
X0231040Y0087263D01*
X0231114Y0087121D01*
X0231185Y0086977D01*
X0231253Y0086831D01*
X0231316Y0086683D01*
X0231377Y0086534D01*
X0231433Y0086383D01*
X0231486Y0086231D01*
X0231535Y0086078D01*
X0231580Y0085924D01*
X0231621Y0085769D01*
X0231659Y0085612D01*
X0231692Y0085455D01*
X0231722Y0085297D01*
X0231748Y0085138D01*
X0231769Y0084979D01*
X0231787Y0084819D01*
X0231801Y0084659D01*
X0231811Y0084498D01*
X0231817Y0084338D01*
X0231819Y0084177D01*
X0231817Y0084016D01*
X0231811Y0083856D01*
X0231801Y0083695D01*
X0231787Y0083535D01*
X0231769Y0083375D01*
X0231748Y0083216D01*
X0231722Y0083057D01*
X0231692Y0082899D01*
X0231659Y0082742D01*
X0231621Y0082585D01*
X0231580Y0082430D01*
X0231535Y0082276D01*
X0231486Y0082123D01*
X0231433Y0081971D01*
X0231377Y0081820D01*
X0231316Y0081671D01*
X0231253Y0081523D01*
X0231185Y0081377D01*
X0231114Y0081233D01*
X0231040Y0081091D01*
X0230962Y0080950D01*
X0230880Y0080812D01*
X0230795Y0080675D01*
X0230707Y0080541D01*
X0230615Y0080409D01*
X0230520Y0080279D01*
X0230422Y0080151D01*
X0230321Y0080026D01*
X0230217Y0079904D01*
X0230110Y0079784D01*
X0230000Y0079667D01*
X0229887Y0079552D01*
X0229771Y0079441D01*
X0229652Y0079332D01*
X0229531Y0079227D01*
X0229407Y0079124D01*
X0229281Y0079024D01*
X0229153Y0078928D01*
X0229022Y0078835D01*
X0228888Y0078745D01*
X0228753Y0078658D01*
X0228615Y0078575D01*
X0228476Y0078495D01*
X0228334Y0078419D01*
X0228191Y0078346D01*
X0228046Y0078277D01*
X0227899Y0078211D01*
X0227751Y0078149D01*
X0227601Y0078091D01*
X0227450Y0078036D01*
X0227297Y0077985D01*
X0227143Y0077938D01*
X0226988Y0077895D01*
X0226832Y0077856D01*
X0226676Y0077820D01*
X0226518Y0077789D01*
X0226360Y0077761D01*
X0226201Y0077737D01*
X0226041Y0077717D01*
X0225881Y0077701D01*
X0225721Y0077689D01*
X0225560Y0077681D01*
X0225399Y0077677D01*
X0225239Y0077677D01*
X0225078Y0077681D01*
X0224917Y0077689D01*
X0224757Y0077701D01*
X0224597Y0077717D01*
X0224437Y0077737D01*
X0224278Y0077761D01*
X0224120Y0077789D01*
X0223962Y0077820D01*
X0223806Y0077856D01*
X0223650Y0077895D01*
X0223495Y0077938D01*
X0223341Y0077985D01*
X0223188Y0078036D01*
X0223037Y0078091D01*
X0222887Y0078149D01*
X0222739Y0078211D01*
X0222592Y0078277D01*
X0222447Y0078346D01*
X0222304Y0078419D01*
X0222162Y0078495D01*
X0222023Y0078575D01*
X0221885Y0078658D01*
X0221750Y0078745D01*
X0221616Y0078835D01*
X0221485Y0078928D01*
X0221357Y0079024D01*
X0221231Y0079124D01*
X0221107Y0079227D01*
X0220986Y0079332D01*
X0220867Y0079441D01*
X0220751Y0079552D01*
X0220638Y0079667D01*
X0220528Y0079784D01*
X0220421Y0079904D01*
X0220317Y0080026D01*
X0220216Y0080151D01*
X0220118Y0080279D01*
X0220023Y0080409D01*
X0219931Y0080541D01*
X0219843Y0080675D01*
X0219758Y0080812D01*
X0219676Y0080950D01*
X0219598Y0081091D01*
X0219524Y0081233D01*
X0219453Y0081377D01*
X0219385Y0081523D01*
X0219322Y0081671D01*
X0219261Y0081820D01*
X0219205Y0081971D01*
X0219152Y0082123D01*
X0219103Y0082276D01*
X0219058Y0082430D01*
X0219017Y0082585D01*
X0218979Y0082742D01*
X0218946Y0082899D01*
X0218916Y0083057D01*
X0218890Y0083216D01*
X0218869Y0083375D01*
X0218851Y0083535D01*
X0218837Y0083695D01*
X0218827Y0083856D01*
X0218821Y0084016D01*
X0218819Y0084177D01*
X0207008Y0123547D02*
X0207010Y0123708D01*
X0207016Y0123868D01*
X0207026Y0124029D01*
X0207040Y0124189D01*
X0207058Y0124349D01*
X0207079Y0124508D01*
X0207105Y0124667D01*
X0207135Y0124825D01*
X0207168Y0124982D01*
X0207206Y0125139D01*
X0207247Y0125294D01*
X0207292Y0125448D01*
X0207341Y0125601D01*
X0207394Y0125753D01*
X0207450Y0125904D01*
X0207511Y0126053D01*
X0207574Y0126201D01*
X0207642Y0126347D01*
X0207713Y0126491D01*
X0207787Y0126633D01*
X0207865Y0126774D01*
X0207947Y0126912D01*
X0208032Y0127049D01*
X0208120Y0127183D01*
X0208212Y0127315D01*
X0208307Y0127445D01*
X0208405Y0127573D01*
X0208506Y0127698D01*
X0208610Y0127820D01*
X0208717Y0127940D01*
X0208827Y0128057D01*
X0208940Y0128172D01*
X0209056Y0128283D01*
X0209175Y0128392D01*
X0209296Y0128497D01*
X0209420Y0128600D01*
X0209546Y0128700D01*
X0209674Y0128796D01*
X0209805Y0128889D01*
X0209939Y0128979D01*
X0210074Y0129066D01*
X0210212Y0129149D01*
X0210351Y0129229D01*
X0210493Y0129305D01*
X0210636Y0129378D01*
X0210781Y0129447D01*
X0210928Y0129513D01*
X0211076Y0129575D01*
X0211226Y0129633D01*
X0211377Y0129688D01*
X0211530Y0129739D01*
X0211684Y0129786D01*
X0211839Y0129829D01*
X0211995Y0129868D01*
X0212151Y0129904D01*
X0212309Y0129935D01*
X0212467Y0129963D01*
X0212626Y0129987D01*
X0212786Y0130007D01*
X0212946Y0130023D01*
X0213106Y0130035D01*
X0213267Y0130043D01*
X0213428Y0130047D01*
X0213588Y0130047D01*
X0213749Y0130043D01*
X0213910Y0130035D01*
X0214070Y0130023D01*
X0214230Y0130007D01*
X0214390Y0129987D01*
X0214549Y0129963D01*
X0214707Y0129935D01*
X0214865Y0129904D01*
X0215021Y0129868D01*
X0215177Y0129829D01*
X0215332Y0129786D01*
X0215486Y0129739D01*
X0215639Y0129688D01*
X0215790Y0129633D01*
X0215940Y0129575D01*
X0216088Y0129513D01*
X0216235Y0129447D01*
X0216380Y0129378D01*
X0216523Y0129305D01*
X0216665Y0129229D01*
X0216804Y0129149D01*
X0216942Y0129066D01*
X0217077Y0128979D01*
X0217211Y0128889D01*
X0217342Y0128796D01*
X0217470Y0128700D01*
X0217596Y0128600D01*
X0217720Y0128497D01*
X0217841Y0128392D01*
X0217960Y0128283D01*
X0218076Y0128172D01*
X0218189Y0128057D01*
X0218299Y0127940D01*
X0218406Y0127820D01*
X0218510Y0127698D01*
X0218611Y0127573D01*
X0218709Y0127445D01*
X0218804Y0127315D01*
X0218896Y0127183D01*
X0218984Y0127049D01*
X0219069Y0126912D01*
X0219151Y0126774D01*
X0219229Y0126633D01*
X0219303Y0126491D01*
X0219374Y0126347D01*
X0219442Y0126201D01*
X0219505Y0126053D01*
X0219566Y0125904D01*
X0219622Y0125753D01*
X0219675Y0125601D01*
X0219724Y0125448D01*
X0219769Y0125294D01*
X0219810Y0125139D01*
X0219848Y0124982D01*
X0219881Y0124825D01*
X0219911Y0124667D01*
X0219937Y0124508D01*
X0219958Y0124349D01*
X0219976Y0124189D01*
X0219990Y0124029D01*
X0220000Y0123868D01*
X0220006Y0123708D01*
X0220008Y0123547D01*
X0220006Y0123386D01*
X0220000Y0123226D01*
X0219990Y0123065D01*
X0219976Y0122905D01*
X0219958Y0122745D01*
X0219937Y0122586D01*
X0219911Y0122427D01*
X0219881Y0122269D01*
X0219848Y0122112D01*
X0219810Y0121955D01*
X0219769Y0121800D01*
X0219724Y0121646D01*
X0219675Y0121493D01*
X0219622Y0121341D01*
X0219566Y0121190D01*
X0219505Y0121041D01*
X0219442Y0120893D01*
X0219374Y0120747D01*
X0219303Y0120603D01*
X0219229Y0120461D01*
X0219151Y0120320D01*
X0219069Y0120182D01*
X0218984Y0120045D01*
X0218896Y0119911D01*
X0218804Y0119779D01*
X0218709Y0119649D01*
X0218611Y0119521D01*
X0218510Y0119396D01*
X0218406Y0119274D01*
X0218299Y0119154D01*
X0218189Y0119037D01*
X0218076Y0118922D01*
X0217960Y0118811D01*
X0217841Y0118702D01*
X0217720Y0118597D01*
X0217596Y0118494D01*
X0217470Y0118394D01*
X0217342Y0118298D01*
X0217211Y0118205D01*
X0217077Y0118115D01*
X0216942Y0118028D01*
X0216804Y0117945D01*
X0216665Y0117865D01*
X0216523Y0117789D01*
X0216380Y0117716D01*
X0216235Y0117647D01*
X0216088Y0117581D01*
X0215940Y0117519D01*
X0215790Y0117461D01*
X0215639Y0117406D01*
X0215486Y0117355D01*
X0215332Y0117308D01*
X0215177Y0117265D01*
X0215021Y0117226D01*
X0214865Y0117190D01*
X0214707Y0117159D01*
X0214549Y0117131D01*
X0214390Y0117107D01*
X0214230Y0117087D01*
X0214070Y0117071D01*
X0213910Y0117059D01*
X0213749Y0117051D01*
X0213588Y0117047D01*
X0213428Y0117047D01*
X0213267Y0117051D01*
X0213106Y0117059D01*
X0212946Y0117071D01*
X0212786Y0117087D01*
X0212626Y0117107D01*
X0212467Y0117131D01*
X0212309Y0117159D01*
X0212151Y0117190D01*
X0211995Y0117226D01*
X0211839Y0117265D01*
X0211684Y0117308D01*
X0211530Y0117355D01*
X0211377Y0117406D01*
X0211226Y0117461D01*
X0211076Y0117519D01*
X0210928Y0117581D01*
X0210781Y0117647D01*
X0210636Y0117716D01*
X0210493Y0117789D01*
X0210351Y0117865D01*
X0210212Y0117945D01*
X0210074Y0118028D01*
X0209939Y0118115D01*
X0209805Y0118205D01*
X0209674Y0118298D01*
X0209546Y0118394D01*
X0209420Y0118494D01*
X0209296Y0118597D01*
X0209175Y0118702D01*
X0209056Y0118811D01*
X0208940Y0118922D01*
X0208827Y0119037D01*
X0208717Y0119154D01*
X0208610Y0119274D01*
X0208506Y0119396D01*
X0208405Y0119521D01*
X0208307Y0119649D01*
X0208212Y0119779D01*
X0208120Y0119911D01*
X0208032Y0120045D01*
X0207947Y0120182D01*
X0207865Y0120320D01*
X0207787Y0120461D01*
X0207713Y0120603D01*
X0207642Y0120747D01*
X0207574Y0120893D01*
X0207511Y0121041D01*
X0207450Y0121190D01*
X0207394Y0121341D01*
X0207341Y0121493D01*
X0207292Y0121646D01*
X0207247Y0121800D01*
X0207206Y0121955D01*
X0207168Y0122112D01*
X0207135Y0122269D01*
X0207105Y0122427D01*
X0207079Y0122586D01*
X0207058Y0122745D01*
X0207040Y0122905D01*
X0207026Y0123065D01*
X0207016Y0123226D01*
X0207010Y0123386D01*
X0207008Y0123547D01*
X0258189Y0080240D02*
X0258191Y0080401D01*
X0258197Y0080561D01*
X0258207Y0080722D01*
X0258221Y0080882D01*
X0258239Y0081042D01*
X0258260Y0081201D01*
X0258286Y0081360D01*
X0258316Y0081518D01*
X0258349Y0081675D01*
X0258387Y0081832D01*
X0258428Y0081987D01*
X0258473Y0082141D01*
X0258522Y0082294D01*
X0258575Y0082446D01*
X0258631Y0082597D01*
X0258692Y0082746D01*
X0258755Y0082894D01*
X0258823Y0083040D01*
X0258894Y0083184D01*
X0258968Y0083326D01*
X0259046Y0083467D01*
X0259128Y0083605D01*
X0259213Y0083742D01*
X0259301Y0083876D01*
X0259393Y0084008D01*
X0259488Y0084138D01*
X0259586Y0084266D01*
X0259687Y0084391D01*
X0259791Y0084513D01*
X0259898Y0084633D01*
X0260008Y0084750D01*
X0260121Y0084865D01*
X0260237Y0084976D01*
X0260356Y0085085D01*
X0260477Y0085190D01*
X0260601Y0085293D01*
X0260727Y0085393D01*
X0260855Y0085489D01*
X0260986Y0085582D01*
X0261120Y0085672D01*
X0261255Y0085759D01*
X0261393Y0085842D01*
X0261532Y0085922D01*
X0261674Y0085998D01*
X0261817Y0086071D01*
X0261962Y0086140D01*
X0262109Y0086206D01*
X0262257Y0086268D01*
X0262407Y0086326D01*
X0262558Y0086381D01*
X0262711Y0086432D01*
X0262865Y0086479D01*
X0263020Y0086522D01*
X0263176Y0086561D01*
X0263332Y0086597D01*
X0263490Y0086628D01*
X0263648Y0086656D01*
X0263807Y0086680D01*
X0263967Y0086700D01*
X0264127Y0086716D01*
X0264287Y0086728D01*
X0264448Y0086736D01*
X0264609Y0086740D01*
X0264769Y0086740D01*
X0264930Y0086736D01*
X0265091Y0086728D01*
X0265251Y0086716D01*
X0265411Y0086700D01*
X0265571Y0086680D01*
X0265730Y0086656D01*
X0265888Y0086628D01*
X0266046Y0086597D01*
X0266202Y0086561D01*
X0266358Y0086522D01*
X0266513Y0086479D01*
X0266667Y0086432D01*
X0266820Y0086381D01*
X0266971Y0086326D01*
X0267121Y0086268D01*
X0267269Y0086206D01*
X0267416Y0086140D01*
X0267561Y0086071D01*
X0267704Y0085998D01*
X0267846Y0085922D01*
X0267985Y0085842D01*
X0268123Y0085759D01*
X0268258Y0085672D01*
X0268392Y0085582D01*
X0268523Y0085489D01*
X0268651Y0085393D01*
X0268777Y0085293D01*
X0268901Y0085190D01*
X0269022Y0085085D01*
X0269141Y0084976D01*
X0269257Y0084865D01*
X0269370Y0084750D01*
X0269480Y0084633D01*
X0269587Y0084513D01*
X0269691Y0084391D01*
X0269792Y0084266D01*
X0269890Y0084138D01*
X0269985Y0084008D01*
X0270077Y0083876D01*
X0270165Y0083742D01*
X0270250Y0083605D01*
X0270332Y0083467D01*
X0270410Y0083326D01*
X0270484Y0083184D01*
X0270555Y0083040D01*
X0270623Y0082894D01*
X0270686Y0082746D01*
X0270747Y0082597D01*
X0270803Y0082446D01*
X0270856Y0082294D01*
X0270905Y0082141D01*
X0270950Y0081987D01*
X0270991Y0081832D01*
X0271029Y0081675D01*
X0271062Y0081518D01*
X0271092Y0081360D01*
X0271118Y0081201D01*
X0271139Y0081042D01*
X0271157Y0080882D01*
X0271171Y0080722D01*
X0271181Y0080561D01*
X0271187Y0080401D01*
X0271189Y0080240D01*
X0271187Y0080079D01*
X0271181Y0079919D01*
X0271171Y0079758D01*
X0271157Y0079598D01*
X0271139Y0079438D01*
X0271118Y0079279D01*
X0271092Y0079120D01*
X0271062Y0078962D01*
X0271029Y0078805D01*
X0270991Y0078648D01*
X0270950Y0078493D01*
X0270905Y0078339D01*
X0270856Y0078186D01*
X0270803Y0078034D01*
X0270747Y0077883D01*
X0270686Y0077734D01*
X0270623Y0077586D01*
X0270555Y0077440D01*
X0270484Y0077296D01*
X0270410Y0077154D01*
X0270332Y0077013D01*
X0270250Y0076875D01*
X0270165Y0076738D01*
X0270077Y0076604D01*
X0269985Y0076472D01*
X0269890Y0076342D01*
X0269792Y0076214D01*
X0269691Y0076089D01*
X0269587Y0075967D01*
X0269480Y0075847D01*
X0269370Y0075730D01*
X0269257Y0075615D01*
X0269141Y0075504D01*
X0269022Y0075395D01*
X0268901Y0075290D01*
X0268777Y0075187D01*
X0268651Y0075087D01*
X0268523Y0074991D01*
X0268392Y0074898D01*
X0268258Y0074808D01*
X0268123Y0074721D01*
X0267985Y0074638D01*
X0267846Y0074558D01*
X0267704Y0074482D01*
X0267561Y0074409D01*
X0267416Y0074340D01*
X0267269Y0074274D01*
X0267121Y0074212D01*
X0266971Y0074154D01*
X0266820Y0074099D01*
X0266667Y0074048D01*
X0266513Y0074001D01*
X0266358Y0073958D01*
X0266202Y0073919D01*
X0266046Y0073883D01*
X0265888Y0073852D01*
X0265730Y0073824D01*
X0265571Y0073800D01*
X0265411Y0073780D01*
X0265251Y0073764D01*
X0265091Y0073752D01*
X0264930Y0073744D01*
X0264769Y0073740D01*
X0264609Y0073740D01*
X0264448Y0073744D01*
X0264287Y0073752D01*
X0264127Y0073764D01*
X0263967Y0073780D01*
X0263807Y0073800D01*
X0263648Y0073824D01*
X0263490Y0073852D01*
X0263332Y0073883D01*
X0263176Y0073919D01*
X0263020Y0073958D01*
X0262865Y0074001D01*
X0262711Y0074048D01*
X0262558Y0074099D01*
X0262407Y0074154D01*
X0262257Y0074212D01*
X0262109Y0074274D01*
X0261962Y0074340D01*
X0261817Y0074409D01*
X0261674Y0074482D01*
X0261532Y0074558D01*
X0261393Y0074638D01*
X0261255Y0074721D01*
X0261120Y0074808D01*
X0260986Y0074898D01*
X0260855Y0074991D01*
X0260727Y0075087D01*
X0260601Y0075187D01*
X0260477Y0075290D01*
X0260356Y0075395D01*
X0260237Y0075504D01*
X0260121Y0075615D01*
X0260008Y0075730D01*
X0259898Y0075847D01*
X0259791Y0075967D01*
X0259687Y0076089D01*
X0259586Y0076214D01*
X0259488Y0076342D01*
X0259393Y0076472D01*
X0259301Y0076604D01*
X0259213Y0076738D01*
X0259128Y0076875D01*
X0259046Y0077013D01*
X0258968Y0077154D01*
X0258894Y0077296D01*
X0258823Y0077440D01*
X0258755Y0077586D01*
X0258692Y0077734D01*
X0258631Y0077883D01*
X0258575Y0078034D01*
X0258522Y0078186D01*
X0258473Y0078339D01*
X0258428Y0078493D01*
X0258387Y0078648D01*
X0258349Y0078805D01*
X0258316Y0078962D01*
X0258286Y0079120D01*
X0258260Y0079279D01*
X0258239Y0079438D01*
X0258221Y0079598D01*
X0258207Y0079758D01*
X0258197Y0079919D01*
X0258191Y0080079D01*
X0258189Y0080240D01*
X0258189Y0214098D02*
X0258191Y0214259D01*
X0258197Y0214419D01*
X0258207Y0214580D01*
X0258221Y0214740D01*
X0258239Y0214900D01*
X0258260Y0215059D01*
X0258286Y0215218D01*
X0258316Y0215376D01*
X0258349Y0215533D01*
X0258387Y0215690D01*
X0258428Y0215845D01*
X0258473Y0215999D01*
X0258522Y0216152D01*
X0258575Y0216304D01*
X0258631Y0216455D01*
X0258692Y0216604D01*
X0258755Y0216752D01*
X0258823Y0216898D01*
X0258894Y0217042D01*
X0258968Y0217184D01*
X0259046Y0217325D01*
X0259128Y0217463D01*
X0259213Y0217600D01*
X0259301Y0217734D01*
X0259393Y0217866D01*
X0259488Y0217996D01*
X0259586Y0218124D01*
X0259687Y0218249D01*
X0259791Y0218371D01*
X0259898Y0218491D01*
X0260008Y0218608D01*
X0260121Y0218723D01*
X0260237Y0218834D01*
X0260356Y0218943D01*
X0260477Y0219048D01*
X0260601Y0219151D01*
X0260727Y0219251D01*
X0260855Y0219347D01*
X0260986Y0219440D01*
X0261120Y0219530D01*
X0261255Y0219617D01*
X0261393Y0219700D01*
X0261532Y0219780D01*
X0261674Y0219856D01*
X0261817Y0219929D01*
X0261962Y0219998D01*
X0262109Y0220064D01*
X0262257Y0220126D01*
X0262407Y0220184D01*
X0262558Y0220239D01*
X0262711Y0220290D01*
X0262865Y0220337D01*
X0263020Y0220380D01*
X0263176Y0220419D01*
X0263332Y0220455D01*
X0263490Y0220486D01*
X0263648Y0220514D01*
X0263807Y0220538D01*
X0263967Y0220558D01*
X0264127Y0220574D01*
X0264287Y0220586D01*
X0264448Y0220594D01*
X0264609Y0220598D01*
X0264769Y0220598D01*
X0264930Y0220594D01*
X0265091Y0220586D01*
X0265251Y0220574D01*
X0265411Y0220558D01*
X0265571Y0220538D01*
X0265730Y0220514D01*
X0265888Y0220486D01*
X0266046Y0220455D01*
X0266202Y0220419D01*
X0266358Y0220380D01*
X0266513Y0220337D01*
X0266667Y0220290D01*
X0266820Y0220239D01*
X0266971Y0220184D01*
X0267121Y0220126D01*
X0267269Y0220064D01*
X0267416Y0219998D01*
X0267561Y0219929D01*
X0267704Y0219856D01*
X0267846Y0219780D01*
X0267985Y0219700D01*
X0268123Y0219617D01*
X0268258Y0219530D01*
X0268392Y0219440D01*
X0268523Y0219347D01*
X0268651Y0219251D01*
X0268777Y0219151D01*
X0268901Y0219048D01*
X0269022Y0218943D01*
X0269141Y0218834D01*
X0269257Y0218723D01*
X0269370Y0218608D01*
X0269480Y0218491D01*
X0269587Y0218371D01*
X0269691Y0218249D01*
X0269792Y0218124D01*
X0269890Y0217996D01*
X0269985Y0217866D01*
X0270077Y0217734D01*
X0270165Y0217600D01*
X0270250Y0217463D01*
X0270332Y0217325D01*
X0270410Y0217184D01*
X0270484Y0217042D01*
X0270555Y0216898D01*
X0270623Y0216752D01*
X0270686Y0216604D01*
X0270747Y0216455D01*
X0270803Y0216304D01*
X0270856Y0216152D01*
X0270905Y0215999D01*
X0270950Y0215845D01*
X0270991Y0215690D01*
X0271029Y0215533D01*
X0271062Y0215376D01*
X0271092Y0215218D01*
X0271118Y0215059D01*
X0271139Y0214900D01*
X0271157Y0214740D01*
X0271171Y0214580D01*
X0271181Y0214419D01*
X0271187Y0214259D01*
X0271189Y0214098D01*
X0271187Y0213937D01*
X0271181Y0213777D01*
X0271171Y0213616D01*
X0271157Y0213456D01*
X0271139Y0213296D01*
X0271118Y0213137D01*
X0271092Y0212978D01*
X0271062Y0212820D01*
X0271029Y0212663D01*
X0270991Y0212506D01*
X0270950Y0212351D01*
X0270905Y0212197D01*
X0270856Y0212044D01*
X0270803Y0211892D01*
X0270747Y0211741D01*
X0270686Y0211592D01*
X0270623Y0211444D01*
X0270555Y0211298D01*
X0270484Y0211154D01*
X0270410Y0211012D01*
X0270332Y0210871D01*
X0270250Y0210733D01*
X0270165Y0210596D01*
X0270077Y0210462D01*
X0269985Y0210330D01*
X0269890Y0210200D01*
X0269792Y0210072D01*
X0269691Y0209947D01*
X0269587Y0209825D01*
X0269480Y0209705D01*
X0269370Y0209588D01*
X0269257Y0209473D01*
X0269141Y0209362D01*
X0269022Y0209253D01*
X0268901Y0209148D01*
X0268777Y0209045D01*
X0268651Y0208945D01*
X0268523Y0208849D01*
X0268392Y0208756D01*
X0268258Y0208666D01*
X0268123Y0208579D01*
X0267985Y0208496D01*
X0267846Y0208416D01*
X0267704Y0208340D01*
X0267561Y0208267D01*
X0267416Y0208198D01*
X0267269Y0208132D01*
X0267121Y0208070D01*
X0266971Y0208012D01*
X0266820Y0207957D01*
X0266667Y0207906D01*
X0266513Y0207859D01*
X0266358Y0207816D01*
X0266202Y0207777D01*
X0266046Y0207741D01*
X0265888Y0207710D01*
X0265730Y0207682D01*
X0265571Y0207658D01*
X0265411Y0207638D01*
X0265251Y0207622D01*
X0265091Y0207610D01*
X0264930Y0207602D01*
X0264769Y0207598D01*
X0264609Y0207598D01*
X0264448Y0207602D01*
X0264287Y0207610D01*
X0264127Y0207622D01*
X0263967Y0207638D01*
X0263807Y0207658D01*
X0263648Y0207682D01*
X0263490Y0207710D01*
X0263332Y0207741D01*
X0263176Y0207777D01*
X0263020Y0207816D01*
X0262865Y0207859D01*
X0262711Y0207906D01*
X0262558Y0207957D01*
X0262407Y0208012D01*
X0262257Y0208070D01*
X0262109Y0208132D01*
X0261962Y0208198D01*
X0261817Y0208267D01*
X0261674Y0208340D01*
X0261532Y0208416D01*
X0261393Y0208496D01*
X0261255Y0208579D01*
X0261120Y0208666D01*
X0260986Y0208756D01*
X0260855Y0208849D01*
X0260727Y0208945D01*
X0260601Y0209045D01*
X0260477Y0209148D01*
X0260356Y0209253D01*
X0260237Y0209362D01*
X0260121Y0209473D01*
X0260008Y0209588D01*
X0259898Y0209705D01*
X0259791Y0209825D01*
X0259687Y0209947D01*
X0259586Y0210072D01*
X0259488Y0210200D01*
X0259393Y0210330D01*
X0259301Y0210462D01*
X0259213Y0210596D01*
X0259128Y0210733D01*
X0259046Y0210871D01*
X0258968Y0211012D01*
X0258894Y0211154D01*
X0258823Y0211298D01*
X0258755Y0211444D01*
X0258692Y0211592D01*
X0258631Y0211741D01*
X0258575Y0211892D01*
X0258522Y0212044D01*
X0258473Y0212197D01*
X0258428Y0212351D01*
X0258387Y0212506D01*
X0258349Y0212663D01*
X0258316Y0212820D01*
X0258286Y0212978D01*
X0258260Y0213137D01*
X0258239Y0213296D01*
X0258221Y0213456D01*
X0258207Y0213616D01*
X0258197Y0213777D01*
X0258191Y0213937D01*
X0258189Y0214098D01*
X0006220Y0214098D02*
X0006222Y0214259D01*
X0006228Y0214419D01*
X0006238Y0214580D01*
X0006252Y0214740D01*
X0006270Y0214900D01*
X0006291Y0215059D01*
X0006317Y0215218D01*
X0006347Y0215376D01*
X0006380Y0215533D01*
X0006418Y0215690D01*
X0006459Y0215845D01*
X0006504Y0215999D01*
X0006553Y0216152D01*
X0006606Y0216304D01*
X0006662Y0216455D01*
X0006723Y0216604D01*
X0006786Y0216752D01*
X0006854Y0216898D01*
X0006925Y0217042D01*
X0006999Y0217184D01*
X0007077Y0217325D01*
X0007159Y0217463D01*
X0007244Y0217600D01*
X0007332Y0217734D01*
X0007424Y0217866D01*
X0007519Y0217996D01*
X0007617Y0218124D01*
X0007718Y0218249D01*
X0007822Y0218371D01*
X0007929Y0218491D01*
X0008039Y0218608D01*
X0008152Y0218723D01*
X0008268Y0218834D01*
X0008387Y0218943D01*
X0008508Y0219048D01*
X0008632Y0219151D01*
X0008758Y0219251D01*
X0008886Y0219347D01*
X0009017Y0219440D01*
X0009151Y0219530D01*
X0009286Y0219617D01*
X0009424Y0219700D01*
X0009563Y0219780D01*
X0009705Y0219856D01*
X0009848Y0219929D01*
X0009993Y0219998D01*
X0010140Y0220064D01*
X0010288Y0220126D01*
X0010438Y0220184D01*
X0010589Y0220239D01*
X0010742Y0220290D01*
X0010896Y0220337D01*
X0011051Y0220380D01*
X0011207Y0220419D01*
X0011363Y0220455D01*
X0011521Y0220486D01*
X0011679Y0220514D01*
X0011838Y0220538D01*
X0011998Y0220558D01*
X0012158Y0220574D01*
X0012318Y0220586D01*
X0012479Y0220594D01*
X0012640Y0220598D01*
X0012800Y0220598D01*
X0012961Y0220594D01*
X0013122Y0220586D01*
X0013282Y0220574D01*
X0013442Y0220558D01*
X0013602Y0220538D01*
X0013761Y0220514D01*
X0013919Y0220486D01*
X0014077Y0220455D01*
X0014233Y0220419D01*
X0014389Y0220380D01*
X0014544Y0220337D01*
X0014698Y0220290D01*
X0014851Y0220239D01*
X0015002Y0220184D01*
X0015152Y0220126D01*
X0015300Y0220064D01*
X0015447Y0219998D01*
X0015592Y0219929D01*
X0015735Y0219856D01*
X0015877Y0219780D01*
X0016016Y0219700D01*
X0016154Y0219617D01*
X0016289Y0219530D01*
X0016423Y0219440D01*
X0016554Y0219347D01*
X0016682Y0219251D01*
X0016808Y0219151D01*
X0016932Y0219048D01*
X0017053Y0218943D01*
X0017172Y0218834D01*
X0017288Y0218723D01*
X0017401Y0218608D01*
X0017511Y0218491D01*
X0017618Y0218371D01*
X0017722Y0218249D01*
X0017823Y0218124D01*
X0017921Y0217996D01*
X0018016Y0217866D01*
X0018108Y0217734D01*
X0018196Y0217600D01*
X0018281Y0217463D01*
X0018363Y0217325D01*
X0018441Y0217184D01*
X0018515Y0217042D01*
X0018586Y0216898D01*
X0018654Y0216752D01*
X0018717Y0216604D01*
X0018778Y0216455D01*
X0018834Y0216304D01*
X0018887Y0216152D01*
X0018936Y0215999D01*
X0018981Y0215845D01*
X0019022Y0215690D01*
X0019060Y0215533D01*
X0019093Y0215376D01*
X0019123Y0215218D01*
X0019149Y0215059D01*
X0019170Y0214900D01*
X0019188Y0214740D01*
X0019202Y0214580D01*
X0019212Y0214419D01*
X0019218Y0214259D01*
X0019220Y0214098D01*
X0019218Y0213937D01*
X0019212Y0213777D01*
X0019202Y0213616D01*
X0019188Y0213456D01*
X0019170Y0213296D01*
X0019149Y0213137D01*
X0019123Y0212978D01*
X0019093Y0212820D01*
X0019060Y0212663D01*
X0019022Y0212506D01*
X0018981Y0212351D01*
X0018936Y0212197D01*
X0018887Y0212044D01*
X0018834Y0211892D01*
X0018778Y0211741D01*
X0018717Y0211592D01*
X0018654Y0211444D01*
X0018586Y0211298D01*
X0018515Y0211154D01*
X0018441Y0211012D01*
X0018363Y0210871D01*
X0018281Y0210733D01*
X0018196Y0210596D01*
X0018108Y0210462D01*
X0018016Y0210330D01*
X0017921Y0210200D01*
X0017823Y0210072D01*
X0017722Y0209947D01*
X0017618Y0209825D01*
X0017511Y0209705D01*
X0017401Y0209588D01*
X0017288Y0209473D01*
X0017172Y0209362D01*
X0017053Y0209253D01*
X0016932Y0209148D01*
X0016808Y0209045D01*
X0016682Y0208945D01*
X0016554Y0208849D01*
X0016423Y0208756D01*
X0016289Y0208666D01*
X0016154Y0208579D01*
X0016016Y0208496D01*
X0015877Y0208416D01*
X0015735Y0208340D01*
X0015592Y0208267D01*
X0015447Y0208198D01*
X0015300Y0208132D01*
X0015152Y0208070D01*
X0015002Y0208012D01*
X0014851Y0207957D01*
X0014698Y0207906D01*
X0014544Y0207859D01*
X0014389Y0207816D01*
X0014233Y0207777D01*
X0014077Y0207741D01*
X0013919Y0207710D01*
X0013761Y0207682D01*
X0013602Y0207658D01*
X0013442Y0207638D01*
X0013282Y0207622D01*
X0013122Y0207610D01*
X0012961Y0207602D01*
X0012800Y0207598D01*
X0012640Y0207598D01*
X0012479Y0207602D01*
X0012318Y0207610D01*
X0012158Y0207622D01*
X0011998Y0207638D01*
X0011838Y0207658D01*
X0011679Y0207682D01*
X0011521Y0207710D01*
X0011363Y0207741D01*
X0011207Y0207777D01*
X0011051Y0207816D01*
X0010896Y0207859D01*
X0010742Y0207906D01*
X0010589Y0207957D01*
X0010438Y0208012D01*
X0010288Y0208070D01*
X0010140Y0208132D01*
X0009993Y0208198D01*
X0009848Y0208267D01*
X0009705Y0208340D01*
X0009563Y0208416D01*
X0009424Y0208496D01*
X0009286Y0208579D01*
X0009151Y0208666D01*
X0009017Y0208756D01*
X0008886Y0208849D01*
X0008758Y0208945D01*
X0008632Y0209045D01*
X0008508Y0209148D01*
X0008387Y0209253D01*
X0008268Y0209362D01*
X0008152Y0209473D01*
X0008039Y0209588D01*
X0007929Y0209705D01*
X0007822Y0209825D01*
X0007718Y0209947D01*
X0007617Y0210072D01*
X0007519Y0210200D01*
X0007424Y0210330D01*
X0007332Y0210462D01*
X0007244Y0210596D01*
X0007159Y0210733D01*
X0007077Y0210871D01*
X0006999Y0211012D01*
X0006925Y0211154D01*
X0006854Y0211298D01*
X0006786Y0211444D01*
X0006723Y0211592D01*
X0006662Y0211741D01*
X0006606Y0211892D01*
X0006553Y0212044D01*
X0006504Y0212197D01*
X0006459Y0212351D01*
X0006418Y0212506D01*
X0006380Y0212663D01*
X0006347Y0212820D01*
X0006317Y0212978D01*
X0006291Y0213137D01*
X0006270Y0213296D01*
X0006252Y0213456D01*
X0006238Y0213616D01*
X0006228Y0213777D01*
X0006222Y0213937D01*
X0006220Y0214098D01*
D11*
X0044984Y0126012D03*
X0044984Y0125812D03*
X0044984Y0125612D03*
X0044984Y0125412D03*
X0044984Y0121612D03*
X0044984Y0121412D03*
X0044984Y0121212D03*
X0044984Y0121012D03*
X0050984Y0125412D03*
X0050984Y0125612D03*
X0050984Y0125812D03*
X0050984Y0126012D03*
X0067425Y0094569D03*
X0067425Y0094369D03*
X0067425Y0094169D03*
X0067425Y0093969D03*
X0067425Y0090169D03*
X0067425Y0089969D03*
X0067425Y0089769D03*
X0067425Y0089569D03*
X0073425Y0089569D03*
X0073425Y0089769D03*
X0073425Y0089969D03*
X0073425Y0090169D03*
X0073425Y0093969D03*
X0073425Y0094169D03*
X0073425Y0094369D03*
X0073425Y0094569D03*
X0079425Y0094569D03*
X0079425Y0094369D03*
X0079425Y0094169D03*
X0079425Y0093969D03*
X0079425Y0090169D03*
X0079425Y0089969D03*
X0079425Y0089769D03*
X0079425Y0089569D03*
X0085425Y0089569D03*
X0085425Y0089769D03*
X0085425Y0089969D03*
X0085425Y0090169D03*
X0085425Y0093969D03*
X0085425Y0094169D03*
X0085425Y0094369D03*
X0085425Y0094569D03*
X0091425Y0094569D03*
X0091425Y0094369D03*
X0091425Y0094169D03*
X0091425Y0093969D03*
X0057079Y0058969D03*
X0057079Y0058769D03*
X0057079Y0058569D03*
X0057079Y0058369D03*
X0057079Y0054569D03*
X0057079Y0054369D03*
X0057079Y0054169D03*
X0057079Y0053969D03*
X0051079Y0053969D03*
X0051079Y0054169D03*
X0051079Y0054369D03*
X0051079Y0054569D03*
X0051079Y0058369D03*
X0051079Y0058569D03*
X0051079Y0058769D03*
X0051079Y0058969D03*
X0045079Y0058969D03*
X0045079Y0058769D03*
X0045079Y0058569D03*
X0045079Y0058369D03*
X0045079Y0054569D03*
X0045079Y0054369D03*
X0045079Y0054169D03*
X0045079Y0053969D03*
X0039079Y0053969D03*
X0039079Y0054169D03*
X0039079Y0054369D03*
X0039079Y0054569D03*
X0039079Y0058369D03*
X0039079Y0058569D03*
X0039079Y0058769D03*
X0039079Y0058969D03*
X0013189Y0089289D03*
X0013189Y0089489D03*
X0013189Y0089689D03*
X0013189Y0089889D03*
X0013189Y0093689D03*
X0013189Y0093889D03*
X0013189Y0094089D03*
X0013189Y0094289D03*
X0019189Y0094289D03*
X0019189Y0094089D03*
X0019189Y0093889D03*
X0019189Y0093689D03*
X0025189Y0093689D03*
X0025189Y0093889D03*
X0025189Y0094089D03*
X0025189Y0094289D03*
X0007189Y0089889D03*
X0007189Y0089689D03*
X0007189Y0089489D03*
X0007189Y0089289D03*
X0100890Y0011952D03*
X0100890Y0011752D03*
X0100890Y0011552D03*
X0100890Y0011352D03*
X0100890Y0007552D03*
X0100890Y0007352D03*
X0100890Y0007152D03*
X0100890Y0006952D03*
X0106890Y0006952D03*
X0106890Y0007152D03*
X0106890Y0007352D03*
X0106890Y0007552D03*
X0106890Y0011352D03*
X0106890Y0011552D03*
X0106890Y0011752D03*
X0106890Y0011952D03*
X0112890Y0007552D03*
X0112890Y0007352D03*
X0112890Y0007152D03*
X0112890Y0006952D03*
X0118890Y0006952D03*
X0118890Y0007152D03*
X0118890Y0007352D03*
X0118890Y0007552D03*
X0118890Y0011352D03*
X0118890Y0011552D03*
X0118890Y0011752D03*
X0118890Y0011952D03*
X0124890Y0011952D03*
X0124890Y0011752D03*
X0124890Y0011552D03*
X0124890Y0011352D03*
X0124890Y0007552D03*
X0124890Y0007352D03*
X0124890Y0007152D03*
X0124890Y0006952D03*
X0130890Y0011352D03*
X0130890Y0011552D03*
X0130890Y0011752D03*
X0130890Y0011952D03*
X0150890Y0011672D03*
X0150890Y0011472D03*
X0150890Y0011272D03*
X0150890Y0011072D03*
X0150890Y0007272D03*
X0150890Y0007072D03*
X0150890Y0006872D03*
X0150890Y0006672D03*
X0156890Y0011072D03*
X0156890Y0011272D03*
X0156890Y0011472D03*
X0156890Y0011672D03*
X0162890Y0011672D03*
X0162890Y0011472D03*
X0162890Y0011272D03*
X0162890Y0011072D03*
X0162890Y0007272D03*
X0162890Y0007072D03*
X0162890Y0006872D03*
X0162890Y0006672D03*
X0168890Y0006672D03*
X0168890Y0006872D03*
X0168890Y0007072D03*
X0168890Y0007272D03*
X0168890Y0011072D03*
X0168890Y0011272D03*
X0168890Y0011472D03*
X0168890Y0011672D03*
X0174890Y0011672D03*
X0174890Y0011472D03*
X0174890Y0011272D03*
X0174890Y0011072D03*
X0168113Y0046483D03*
X0168113Y0046683D03*
X0168113Y0046883D03*
X0168113Y0047083D03*
X0168113Y0050883D03*
X0168113Y0051083D03*
X0168113Y0051283D03*
X0168113Y0051483D03*
X0162113Y0051483D03*
X0162113Y0051283D03*
X0162113Y0051083D03*
X0162113Y0050883D03*
X0162113Y0047083D03*
X0162113Y0046883D03*
X0162113Y0046683D03*
X0162113Y0046483D03*
X0156113Y0046483D03*
X0156113Y0046683D03*
X0156113Y0046883D03*
X0156113Y0047083D03*
X0156113Y0050883D03*
X0156113Y0051083D03*
X0156113Y0051283D03*
X0156113Y0051483D03*
X0147913Y0051483D03*
X0147913Y0051283D03*
X0147913Y0051083D03*
X0147913Y0050883D03*
X0147913Y0047083D03*
X0147913Y0046883D03*
X0147913Y0046683D03*
X0147913Y0046483D03*
X0141913Y0050883D03*
X0141913Y0051083D03*
X0141913Y0051283D03*
X0141913Y0051483D03*
X0135913Y0051483D03*
X0135913Y0051283D03*
X0135913Y0051083D03*
X0135913Y0050883D03*
X0135913Y0047083D03*
X0135913Y0046883D03*
X0135913Y0046683D03*
X0135913Y0046483D03*
X0129913Y0046483D03*
X0129913Y0046683D03*
X0129913Y0046883D03*
X0129913Y0047083D03*
X0129913Y0050883D03*
X0129913Y0051083D03*
X0129913Y0051283D03*
X0129913Y0051483D03*
X0123913Y0051483D03*
X0123913Y0051283D03*
X0123913Y0051083D03*
X0123913Y0050883D03*
X0117913Y0050883D03*
X0117913Y0051083D03*
X0117913Y0051283D03*
X0117913Y0051483D03*
X0117913Y0047083D03*
X0117913Y0046883D03*
X0117913Y0046683D03*
X0117913Y0046483D03*
X0111913Y0046483D03*
X0111913Y0046683D03*
X0111913Y0046883D03*
X0111913Y0047083D03*
X0111913Y0050883D03*
X0111913Y0051083D03*
X0111913Y0051283D03*
X0111913Y0051483D03*
X0194591Y0077531D03*
X0194591Y0077731D03*
X0194591Y0077931D03*
X0194591Y0078131D03*
X0194591Y0081931D03*
X0194591Y0082131D03*
X0194591Y0082331D03*
X0194591Y0082531D03*
X0249315Y0097330D03*
X0249315Y0097530D03*
X0249315Y0097730D03*
X0249315Y0097930D03*
X0249315Y0101730D03*
X0249315Y0101930D03*
X0249315Y0102130D03*
X0249315Y0102330D03*
X0217031Y0149684D03*
X0217031Y0152684D03*
X0163488Y0132886D03*
D12*
X0163488Y0132686D03*
X0163488Y0132486D03*
X0163488Y0132286D03*
X0163488Y0129086D03*
X0163488Y0128886D03*
X0163488Y0128686D03*
X0163488Y0128486D03*
X0217031Y0149084D03*
X0217031Y0149284D03*
X0217031Y0149484D03*
X0217031Y0152084D03*
X0217031Y0152284D03*
X0217031Y0152484D03*
X0141913Y0047083D03*
X0141913Y0046883D03*
X0141913Y0046683D03*
X0141913Y0046483D03*
X0123913Y0046483D03*
X0123913Y0046683D03*
X0123913Y0046883D03*
X0123913Y0047083D03*
X0130890Y0007552D03*
X0130890Y0007352D03*
X0130890Y0007152D03*
X0130890Y0006952D03*
X0156890Y0006872D03*
X0156890Y0007072D03*
X0156890Y0007272D03*
X0156890Y0006672D03*
X0174890Y0006672D03*
X0174890Y0006872D03*
X0174890Y0007072D03*
X0174890Y0007272D03*
X0091425Y0089569D03*
X0091425Y0089769D03*
X0091425Y0089969D03*
X0091425Y0090169D03*
X0025189Y0089889D03*
X0025189Y0089689D03*
X0025189Y0089489D03*
X0025189Y0089289D03*
D13*
X0025989Y0090089D03*
X0025989Y0090289D03*
X0025989Y0090489D03*
X0025989Y0090689D03*
X0025989Y0090889D03*
X0025989Y0091089D03*
X0025989Y0091289D03*
X0025989Y0091489D03*
X0025989Y0091689D03*
X0025989Y0091889D03*
X0025989Y0092089D03*
X0024389Y0092089D03*
X0024389Y0091889D03*
X0024389Y0091689D03*
X0024389Y0091489D03*
X0024389Y0091289D03*
X0024389Y0091089D03*
X0024389Y0090889D03*
X0024389Y0090689D03*
X0024389Y0090489D03*
X0024389Y0090289D03*
X0024389Y0090089D03*
X0021389Y0091489D03*
X0021389Y0091689D03*
X0021389Y0091889D03*
X0021389Y0092089D03*
X0021389Y0093089D03*
X0021389Y0093289D03*
X0021389Y0093489D03*
X0022989Y0093489D03*
X0022989Y0093289D03*
X0022989Y0093089D03*
X0027389Y0093089D03*
X0027389Y0093289D03*
X0027389Y0093489D03*
X0019189Y0090489D03*
X0019189Y0090289D03*
X0019189Y0090089D03*
X0016989Y0090089D03*
X0016989Y0090289D03*
X0016989Y0090489D03*
X0016989Y0090689D03*
X0016989Y0090889D03*
X0016989Y0091089D03*
X0016989Y0091289D03*
X0016989Y0091489D03*
X0016989Y0091689D03*
X0016989Y0091889D03*
X0016989Y0092089D03*
X0016989Y0092289D03*
X0016989Y0092489D03*
X0016989Y0092689D03*
X0016989Y0092889D03*
X0016989Y0093089D03*
X0016989Y0093289D03*
X0016989Y0093489D03*
X0015389Y0093489D03*
X0015389Y0093289D03*
X0015389Y0093089D03*
X0015389Y0092089D03*
X0015389Y0091889D03*
X0015389Y0091689D03*
X0015389Y0091489D03*
X0015389Y0090489D03*
X0015389Y0090289D03*
X0015389Y0090089D03*
X0010989Y0090089D03*
X0010989Y0090289D03*
X0010989Y0090489D03*
X0010989Y0090689D03*
X0010989Y0090889D03*
X0010989Y0091089D03*
X0010989Y0091289D03*
X0010989Y0091489D03*
X0010989Y0091689D03*
X0010989Y0091889D03*
X0010989Y0092089D03*
X0010989Y0092289D03*
X0010989Y0092489D03*
X0010989Y0092689D03*
X0010989Y0092889D03*
X0010989Y0093089D03*
X0010989Y0093289D03*
X0010989Y0093489D03*
X0009389Y0091289D03*
X0009389Y0091089D03*
X0009389Y0090889D03*
X0009389Y0090689D03*
X0009389Y0090489D03*
X0009389Y0090289D03*
X0009389Y0090089D03*
X0007189Y0092289D03*
X0007189Y0092489D03*
X0007189Y0092689D03*
X0007189Y0092889D03*
X0007189Y0093089D03*
X0007189Y0093289D03*
X0007189Y0093489D03*
X0004989Y0093489D03*
X0004989Y0093289D03*
X0004989Y0093089D03*
X0004989Y0092889D03*
X0004989Y0092689D03*
X0004989Y0092489D03*
X0004989Y0092289D03*
X0004989Y0092089D03*
X0004989Y0091889D03*
X0004989Y0091689D03*
X0004989Y0091489D03*
X0004989Y0091289D03*
X0004989Y0091089D03*
X0004989Y0090889D03*
X0004989Y0090689D03*
X0004989Y0090489D03*
X0004989Y0090289D03*
X0004989Y0090089D03*
X0036879Y0058169D03*
X0036879Y0057969D03*
X0036879Y0057769D03*
X0036879Y0057569D03*
X0036879Y0057369D03*
X0036879Y0057169D03*
X0036879Y0056969D03*
X0036879Y0056769D03*
X0036879Y0056569D03*
X0036879Y0056369D03*
X0036879Y0056169D03*
X0036879Y0055969D03*
X0036879Y0055769D03*
X0036879Y0055569D03*
X0036879Y0055369D03*
X0036879Y0055169D03*
X0036879Y0054969D03*
X0036879Y0054769D03*
X0041279Y0054769D03*
X0041279Y0054969D03*
X0041279Y0055169D03*
X0041279Y0055369D03*
X0041279Y0055569D03*
X0041279Y0055769D03*
X0041279Y0055969D03*
X0041279Y0056169D03*
X0041279Y0056369D03*
X0041279Y0056569D03*
X0041279Y0056769D03*
X0041279Y0056969D03*
X0041279Y0057169D03*
X0041279Y0057369D03*
X0041279Y0057569D03*
X0041279Y0057769D03*
X0041279Y0057969D03*
X0041279Y0058169D03*
X0042879Y0058169D03*
X0042879Y0057969D03*
X0042879Y0057769D03*
X0042879Y0057569D03*
X0042879Y0057369D03*
X0042879Y0057169D03*
X0042879Y0056969D03*
X0042879Y0056769D03*
X0042879Y0056569D03*
X0042879Y0056369D03*
X0042879Y0056169D03*
X0042879Y0055969D03*
X0042879Y0055769D03*
X0042879Y0055569D03*
X0042879Y0055369D03*
X0042879Y0055169D03*
X0042879Y0054969D03*
X0042879Y0054769D03*
X0045079Y0056169D03*
X0045079Y0056369D03*
X0045079Y0056569D03*
X0045079Y0056769D03*
X0047279Y0056769D03*
X0047279Y0056569D03*
X0047279Y0056369D03*
X0047279Y0056169D03*
X0047279Y0055969D03*
X0047279Y0055769D03*
X0047279Y0055569D03*
X0047279Y0055369D03*
X0047279Y0055169D03*
X0047279Y0054969D03*
X0047279Y0054769D03*
X0048879Y0054769D03*
X0048879Y0054969D03*
X0048879Y0055169D03*
X0048879Y0055369D03*
X0048879Y0055569D03*
X0048879Y0055769D03*
X0048879Y0055969D03*
X0048879Y0056169D03*
X0048879Y0056369D03*
X0048879Y0056569D03*
X0048879Y0056769D03*
X0048879Y0056969D03*
X0048879Y0057169D03*
X0048879Y0057369D03*
X0048879Y0057569D03*
X0048879Y0057769D03*
X0048879Y0057969D03*
X0048879Y0058169D03*
X0050279Y0058169D03*
X0050279Y0057969D03*
X0050279Y0057769D03*
X0050279Y0057569D03*
X0050279Y0057369D03*
X0050279Y0057169D03*
X0050279Y0056969D03*
X0050279Y0056769D03*
X0050279Y0056569D03*
X0050279Y0056369D03*
X0050279Y0056169D03*
X0051879Y0056169D03*
X0051879Y0056369D03*
X0051879Y0056569D03*
X0051879Y0056769D03*
X0051879Y0056969D03*
X0051879Y0057169D03*
X0051879Y0057369D03*
X0051879Y0057569D03*
X0051879Y0057769D03*
X0051879Y0057969D03*
X0051879Y0058169D03*
X0053279Y0058169D03*
X0053279Y0057969D03*
X0053279Y0057769D03*
X0053279Y0057569D03*
X0053279Y0057369D03*
X0053279Y0057169D03*
X0053279Y0056969D03*
X0053279Y0056769D03*
X0053279Y0056569D03*
X0053279Y0056369D03*
X0053279Y0056169D03*
X0053279Y0055969D03*
X0053279Y0055769D03*
X0053279Y0055569D03*
X0053279Y0055369D03*
X0053279Y0055169D03*
X0053279Y0054969D03*
X0053279Y0054769D03*
X0054879Y0054769D03*
X0054879Y0054969D03*
X0054879Y0055169D03*
X0054879Y0055369D03*
X0054879Y0055569D03*
X0054879Y0055769D03*
X0054879Y0055969D03*
X0054879Y0056169D03*
X0054879Y0056369D03*
X0054879Y0056569D03*
X0054879Y0056769D03*
X0054879Y0056969D03*
X0054879Y0057169D03*
X0054879Y0057369D03*
X0054879Y0057569D03*
X0054879Y0057769D03*
X0054879Y0057969D03*
X0054879Y0058169D03*
X0057079Y0056769D03*
X0057079Y0056569D03*
X0057079Y0056369D03*
X0057079Y0056169D03*
X0057079Y0055969D03*
X0057079Y0055769D03*
X0057079Y0055569D03*
X0057079Y0055369D03*
X0057079Y0055169D03*
X0057079Y0054969D03*
X0057079Y0054769D03*
X0059279Y0054769D03*
X0059279Y0054969D03*
X0059279Y0055169D03*
X0059279Y0055369D03*
X0059279Y0055569D03*
X0059279Y0055769D03*
X0059279Y0055969D03*
X0059279Y0056169D03*
X0059279Y0056369D03*
X0059279Y0056569D03*
X0059279Y0056769D03*
X0059279Y0056969D03*
X0059279Y0057169D03*
X0059279Y0057369D03*
X0059279Y0057569D03*
X0059279Y0057769D03*
X0059279Y0057969D03*
X0059279Y0058169D03*
X0047279Y0058169D03*
X0047279Y0057969D03*
X0047279Y0057769D03*
X0047279Y0057569D03*
X0047279Y0057369D03*
X0047279Y0057169D03*
X0047279Y0056969D03*
X0065225Y0090369D03*
X0065225Y0090569D03*
X0065225Y0090769D03*
X0065225Y0090969D03*
X0065225Y0091169D03*
X0065225Y0091369D03*
X0065225Y0091569D03*
X0065225Y0091769D03*
X0065225Y0091969D03*
X0065225Y0092169D03*
X0065225Y0092369D03*
X0065225Y0092569D03*
X0065225Y0092769D03*
X0065225Y0092969D03*
X0065225Y0093169D03*
X0065225Y0093369D03*
X0065225Y0093569D03*
X0065225Y0093769D03*
X0067425Y0093169D03*
X0067425Y0092969D03*
X0067425Y0092769D03*
X0067425Y0092569D03*
X0067425Y0091569D03*
X0067425Y0091369D03*
X0067425Y0091169D03*
X0067425Y0090969D03*
X0067425Y0090769D03*
X0067425Y0090569D03*
X0067425Y0090369D03*
X0069625Y0090369D03*
X0069625Y0090569D03*
X0069625Y0090769D03*
X0069625Y0091769D03*
X0069625Y0091969D03*
X0069625Y0092169D03*
X0069625Y0092369D03*
X0069625Y0092569D03*
X0069625Y0092769D03*
X0069625Y0092969D03*
X0069625Y0093169D03*
X0069625Y0093369D03*
X0069625Y0093569D03*
X0069625Y0093769D03*
X0071225Y0093769D03*
X0071225Y0093569D03*
X0071225Y0093369D03*
X0072025Y0092369D03*
X0072025Y0092169D03*
X0072025Y0091969D03*
X0072025Y0091769D03*
X0071225Y0090769D03*
X0071225Y0090569D03*
X0071225Y0090369D03*
X0075025Y0091769D03*
X0075025Y0091969D03*
X0075025Y0092169D03*
X0075025Y0092369D03*
X0075625Y0093369D03*
X0075625Y0093569D03*
X0075625Y0093769D03*
X0077225Y0093769D03*
X0077225Y0093569D03*
X0077225Y0093369D03*
X0077225Y0093169D03*
X0077225Y0092969D03*
X0077225Y0092769D03*
X0077225Y0092569D03*
X0077225Y0092369D03*
X0077225Y0092169D03*
X0077225Y0091969D03*
X0077225Y0091769D03*
X0077225Y0091569D03*
X0077225Y0091369D03*
X0077225Y0091169D03*
X0077225Y0090969D03*
X0077225Y0090769D03*
X0077225Y0090569D03*
X0077225Y0090369D03*
X0075625Y0090369D03*
X0075625Y0090569D03*
X0075625Y0090769D03*
X0079425Y0091769D03*
X0079425Y0091969D03*
X0079425Y0092169D03*
X0079425Y0092369D03*
X0081625Y0092369D03*
X0081625Y0092169D03*
X0081625Y0091969D03*
X0081625Y0091769D03*
X0081625Y0091569D03*
X0081625Y0091369D03*
X0081625Y0091169D03*
X0081625Y0090969D03*
X0081625Y0090769D03*
X0081625Y0090569D03*
X0081625Y0090369D03*
X0083225Y0090369D03*
X0083225Y0090569D03*
X0083225Y0090769D03*
X0083225Y0090969D03*
X0083225Y0091169D03*
X0083225Y0091369D03*
X0083225Y0091569D03*
X0083225Y0091769D03*
X0083225Y0091969D03*
X0083225Y0092169D03*
X0083225Y0092369D03*
X0083225Y0092569D03*
X0083225Y0092769D03*
X0083225Y0092969D03*
X0083225Y0093169D03*
X0083225Y0093369D03*
X0083225Y0093569D03*
X0083225Y0093769D03*
X0081625Y0093769D03*
X0081625Y0093569D03*
X0081625Y0093369D03*
X0085425Y0093369D03*
X0085425Y0093169D03*
X0085425Y0092969D03*
X0085425Y0092769D03*
X0085425Y0092569D03*
X0085425Y0091569D03*
X0085425Y0091369D03*
X0085425Y0091169D03*
X0085425Y0090969D03*
X0085425Y0090769D03*
X0085425Y0090569D03*
X0085425Y0090369D03*
X0087625Y0090369D03*
X0087625Y0090569D03*
X0087625Y0090769D03*
X0087625Y0090969D03*
X0087625Y0091169D03*
X0087625Y0091369D03*
X0087625Y0091569D03*
X0087625Y0091769D03*
X0087625Y0091969D03*
X0087625Y0092169D03*
X0087625Y0092369D03*
X0087625Y0092569D03*
X0087625Y0092769D03*
X0087625Y0092969D03*
X0087625Y0093169D03*
X0087625Y0093369D03*
X0087625Y0093569D03*
X0087625Y0093769D03*
X0089225Y0093769D03*
X0089225Y0093569D03*
X0089225Y0093369D03*
X0090625Y0092369D03*
X0090625Y0092169D03*
X0090625Y0091969D03*
X0090625Y0091769D03*
X0090625Y0091569D03*
X0090625Y0091369D03*
X0090625Y0091169D03*
X0090625Y0090969D03*
X0090625Y0090769D03*
X0090625Y0090569D03*
X0090625Y0090369D03*
X0092225Y0090369D03*
X0092225Y0090569D03*
X0092225Y0090769D03*
X0092225Y0090969D03*
X0092225Y0091169D03*
X0092225Y0091369D03*
X0092225Y0091569D03*
X0092225Y0091769D03*
X0092225Y0091969D03*
X0092225Y0092169D03*
X0092225Y0092369D03*
X0093625Y0093369D03*
X0093625Y0093569D03*
X0093625Y0093769D03*
X0085425Y0093769D03*
X0085425Y0093569D03*
X0050984Y0121812D03*
X0050984Y0122012D03*
X0050984Y0122212D03*
X0050984Y0124012D03*
X0050984Y0124212D03*
X0050984Y0124412D03*
X0050984Y0124612D03*
X0048784Y0124612D03*
X0048784Y0124812D03*
X0048784Y0125012D03*
X0048784Y0125212D03*
X0048784Y0124412D03*
X0048784Y0124212D03*
X0048784Y0124012D03*
X0048784Y0123812D03*
X0048784Y0123612D03*
X0048784Y0123412D03*
X0048784Y0123212D03*
X0048784Y0123012D03*
X0048784Y0122812D03*
X0048784Y0122612D03*
X0048784Y0122412D03*
X0048784Y0122212D03*
X0048784Y0122012D03*
X0048784Y0121812D03*
X0047184Y0121812D03*
X0047184Y0122012D03*
X0047184Y0122212D03*
X0047184Y0122412D03*
X0047184Y0122612D03*
X0047184Y0122812D03*
X0047184Y0123012D03*
X0047184Y0123212D03*
X0047184Y0123412D03*
X0047184Y0123612D03*
X0047184Y0123812D03*
X0047184Y0124012D03*
X0047184Y0124212D03*
X0047184Y0124412D03*
X0047184Y0124612D03*
X0047184Y0124812D03*
X0047184Y0125012D03*
X0047184Y0125212D03*
X0044984Y0125212D03*
X0044984Y0125012D03*
X0044984Y0124812D03*
X0044984Y0124612D03*
X0044984Y0124412D03*
X0044984Y0124212D03*
X0044984Y0124012D03*
X0044984Y0123812D03*
X0044984Y0123612D03*
X0044984Y0123412D03*
X0044984Y0123212D03*
X0042784Y0123212D03*
X0042784Y0123412D03*
X0042784Y0123612D03*
X0042784Y0123812D03*
X0042784Y0124012D03*
X0042784Y0124212D03*
X0042784Y0124412D03*
X0042784Y0124612D03*
X0042784Y0124812D03*
X0042784Y0125012D03*
X0042784Y0125212D03*
X0042784Y0123012D03*
X0042784Y0122812D03*
X0042784Y0122612D03*
X0042784Y0122412D03*
X0042784Y0122212D03*
X0042784Y0122012D03*
X0042784Y0121812D03*
X0053184Y0123212D03*
X0053184Y0123412D03*
X0053184Y0123612D03*
X0053184Y0123812D03*
X0053184Y0124012D03*
X0053184Y0124212D03*
X0053184Y0124412D03*
X0053184Y0124612D03*
X0053184Y0124812D03*
X0053184Y0125012D03*
X0053184Y0125212D03*
X0109713Y0050683D03*
X0109713Y0050483D03*
X0109713Y0050283D03*
X0109713Y0049283D03*
X0109713Y0049083D03*
X0109713Y0048883D03*
X0109713Y0048683D03*
X0109713Y0047683D03*
X0109713Y0047483D03*
X0109713Y0047283D03*
X0114113Y0047283D03*
X0114113Y0047483D03*
X0114113Y0047683D03*
X0114113Y0047883D03*
X0114113Y0048083D03*
X0114113Y0048283D03*
X0114113Y0048483D03*
X0114113Y0048683D03*
X0114113Y0048883D03*
X0114113Y0049083D03*
X0114113Y0049283D03*
X0114113Y0049483D03*
X0114113Y0049683D03*
X0114113Y0049883D03*
X0114113Y0050083D03*
X0114113Y0050283D03*
X0114113Y0050483D03*
X0114113Y0050683D03*
X0115713Y0050683D03*
X0115713Y0050483D03*
X0115713Y0050283D03*
X0115713Y0049283D03*
X0115713Y0049083D03*
X0115713Y0048883D03*
X0115713Y0048683D03*
X0115713Y0048483D03*
X0115713Y0048283D03*
X0115713Y0048083D03*
X0115713Y0047883D03*
X0115713Y0047683D03*
X0115713Y0047483D03*
X0115713Y0047283D03*
X0120113Y0047283D03*
X0120113Y0047483D03*
X0120113Y0047683D03*
X0120113Y0048683D03*
X0120113Y0048883D03*
X0120113Y0049083D03*
X0120113Y0049283D03*
X0120113Y0049483D03*
X0120113Y0049683D03*
X0120113Y0049883D03*
X0120113Y0050083D03*
X0120113Y0050283D03*
X0120113Y0050483D03*
X0120113Y0050683D03*
X0121713Y0050683D03*
X0121713Y0050483D03*
X0121713Y0050283D03*
X0123113Y0049283D03*
X0123113Y0049083D03*
X0123113Y0048883D03*
X0123113Y0048683D03*
X0123113Y0048483D03*
X0123113Y0048283D03*
X0123113Y0048083D03*
X0123113Y0047883D03*
X0123113Y0047683D03*
X0123113Y0047483D03*
X0123113Y0047283D03*
X0124713Y0047283D03*
X0124713Y0047483D03*
X0124713Y0047683D03*
X0124713Y0047883D03*
X0124713Y0048083D03*
X0124713Y0048283D03*
X0124713Y0048483D03*
X0124713Y0048683D03*
X0124713Y0048883D03*
X0124713Y0049083D03*
X0124713Y0049283D03*
X0126113Y0050283D03*
X0126113Y0050483D03*
X0126113Y0050683D03*
X0127713Y0050683D03*
X0127713Y0050483D03*
X0127713Y0050283D03*
X0127713Y0050083D03*
X0127713Y0049883D03*
X0127713Y0049683D03*
X0127713Y0049483D03*
X0127713Y0049283D03*
X0127713Y0049083D03*
X0127713Y0048883D03*
X0127713Y0048683D03*
X0127713Y0048483D03*
X0127713Y0048283D03*
X0127713Y0048083D03*
X0127713Y0047883D03*
X0127713Y0047683D03*
X0127713Y0047483D03*
X0127713Y0047283D03*
X0132113Y0047283D03*
X0132113Y0047483D03*
X0132113Y0047683D03*
X0132113Y0048683D03*
X0132113Y0048883D03*
X0132113Y0049083D03*
X0132113Y0049283D03*
X0132113Y0050283D03*
X0132113Y0050483D03*
X0132113Y0050683D03*
X0133713Y0050683D03*
X0133713Y0050483D03*
X0133713Y0050283D03*
X0133713Y0050083D03*
X0133713Y0049883D03*
X0133713Y0049683D03*
X0133713Y0049483D03*
X0133713Y0049283D03*
X0133713Y0049083D03*
X0133713Y0048883D03*
X0133713Y0048683D03*
X0133713Y0048483D03*
X0133713Y0048283D03*
X0133713Y0048083D03*
X0133713Y0047883D03*
X0133713Y0047683D03*
X0133713Y0047483D03*
X0133713Y0047283D03*
X0138113Y0047283D03*
X0138113Y0047483D03*
X0138113Y0047683D03*
X0138113Y0048683D03*
X0138113Y0048883D03*
X0138113Y0049083D03*
X0138113Y0049283D03*
X0138113Y0050283D03*
X0138113Y0050483D03*
X0138113Y0050683D03*
X0139713Y0050683D03*
X0139713Y0050483D03*
X0139713Y0050283D03*
X0141113Y0049283D03*
X0141113Y0049083D03*
X0141113Y0048883D03*
X0141113Y0048683D03*
X0141113Y0048483D03*
X0141113Y0048283D03*
X0141113Y0048083D03*
X0141113Y0047883D03*
X0141113Y0047683D03*
X0141113Y0047483D03*
X0141113Y0047283D03*
X0142713Y0047283D03*
X0142713Y0047483D03*
X0142713Y0047683D03*
X0142713Y0047883D03*
X0142713Y0048083D03*
X0142713Y0048283D03*
X0142713Y0048483D03*
X0142713Y0048683D03*
X0142713Y0048883D03*
X0142713Y0049083D03*
X0142713Y0049283D03*
X0144113Y0050283D03*
X0144113Y0050483D03*
X0144113Y0050683D03*
X0145713Y0050683D03*
X0145713Y0050483D03*
X0145713Y0050283D03*
X0145713Y0050083D03*
X0145713Y0049883D03*
X0145713Y0049683D03*
X0145713Y0049483D03*
X0145713Y0049283D03*
X0145713Y0049083D03*
X0145713Y0048883D03*
X0145713Y0048683D03*
X0145713Y0048483D03*
X0145713Y0048283D03*
X0145713Y0048083D03*
X0145713Y0047883D03*
X0145713Y0047683D03*
X0145713Y0047483D03*
X0145713Y0047283D03*
X0147913Y0047283D03*
X0147913Y0047483D03*
X0147913Y0047683D03*
X0147913Y0047883D03*
X0147913Y0048083D03*
X0147913Y0048283D03*
X0147913Y0048483D03*
X0147913Y0049483D03*
X0147913Y0049683D03*
X0147913Y0049883D03*
X0147913Y0050083D03*
X0147913Y0050283D03*
X0147913Y0050483D03*
X0147913Y0050683D03*
X0150113Y0050683D03*
X0150113Y0050483D03*
X0150113Y0050283D03*
X0150113Y0050083D03*
X0150113Y0049883D03*
X0150113Y0049683D03*
X0150113Y0049483D03*
X0150113Y0049283D03*
X0150113Y0049083D03*
X0150113Y0048883D03*
X0150113Y0048683D03*
X0150113Y0048483D03*
X0150113Y0048283D03*
X0150113Y0048083D03*
X0150113Y0047883D03*
X0150113Y0047683D03*
X0150113Y0047483D03*
X0150113Y0047283D03*
X0153913Y0047283D03*
X0153913Y0047483D03*
X0153913Y0047683D03*
X0153913Y0047883D03*
X0153913Y0048083D03*
X0153913Y0048283D03*
X0153913Y0048483D03*
X0153913Y0048683D03*
X0153913Y0048883D03*
X0153913Y0049083D03*
X0153913Y0049283D03*
X0153913Y0049483D03*
X0153913Y0049683D03*
X0153913Y0049883D03*
X0153913Y0050083D03*
X0153913Y0050283D03*
X0153913Y0050483D03*
X0153913Y0050683D03*
X0156113Y0049283D03*
X0156113Y0049083D03*
X0156113Y0048883D03*
X0156113Y0048683D03*
X0158313Y0048683D03*
X0158313Y0048883D03*
X0158313Y0049083D03*
X0158313Y0049283D03*
X0158313Y0049483D03*
X0158313Y0049683D03*
X0158313Y0049883D03*
X0158313Y0050083D03*
X0158313Y0050283D03*
X0158313Y0050483D03*
X0158313Y0050683D03*
X0159913Y0050683D03*
X0159913Y0050483D03*
X0159913Y0050283D03*
X0159913Y0050083D03*
X0159913Y0049883D03*
X0159913Y0049683D03*
X0159913Y0049483D03*
X0159913Y0049283D03*
X0159913Y0049083D03*
X0159913Y0048883D03*
X0159913Y0048683D03*
X0159913Y0048483D03*
X0159913Y0048283D03*
X0159913Y0048083D03*
X0159913Y0047883D03*
X0159913Y0047683D03*
X0159913Y0047483D03*
X0159913Y0047283D03*
X0158313Y0047283D03*
X0158313Y0047483D03*
X0158313Y0047683D03*
X0158313Y0047883D03*
X0158313Y0048083D03*
X0158313Y0048283D03*
X0158313Y0048483D03*
X0162113Y0048483D03*
X0162113Y0048283D03*
X0162113Y0048083D03*
X0162113Y0047883D03*
X0162113Y0047683D03*
X0162113Y0047483D03*
X0162113Y0047283D03*
X0162113Y0049483D03*
X0162113Y0049683D03*
X0162113Y0049883D03*
X0162113Y0050083D03*
X0164313Y0050083D03*
X0164313Y0050283D03*
X0164313Y0050483D03*
X0164313Y0050683D03*
X0164313Y0049883D03*
X0164313Y0049683D03*
X0164313Y0049483D03*
X0164313Y0049283D03*
X0164313Y0049083D03*
X0164313Y0048883D03*
X0164313Y0048683D03*
X0164313Y0047683D03*
X0164313Y0047483D03*
X0164313Y0047283D03*
X0165913Y0047283D03*
X0165913Y0047483D03*
X0165913Y0047683D03*
X0165913Y0047883D03*
X0165913Y0048083D03*
X0165913Y0048283D03*
X0165913Y0048483D03*
X0165913Y0048683D03*
X0165913Y0048883D03*
X0165913Y0049083D03*
X0165913Y0049283D03*
X0165913Y0049483D03*
X0165913Y0049683D03*
X0165913Y0049883D03*
X0165913Y0050083D03*
X0165913Y0050283D03*
X0165913Y0050483D03*
X0165913Y0050683D03*
X0168113Y0049283D03*
X0168113Y0049083D03*
X0168113Y0048883D03*
X0168113Y0048683D03*
X0170313Y0048683D03*
X0170313Y0048883D03*
X0170313Y0049083D03*
X0170313Y0049283D03*
X0170313Y0048483D03*
X0170313Y0048283D03*
X0170313Y0048083D03*
X0170313Y0047883D03*
X0170313Y0047683D03*
X0170313Y0047483D03*
X0170313Y0047283D03*
X0170313Y0050283D03*
X0170313Y0050483D03*
X0170313Y0050683D03*
X0192391Y0078331D03*
X0192391Y0078531D03*
X0192391Y0078731D03*
X0192391Y0078931D03*
X0192391Y0079131D03*
X0192391Y0079331D03*
X0192391Y0079531D03*
X0192391Y0079731D03*
X0192391Y0079931D03*
X0192391Y0080131D03*
X0192391Y0080331D03*
X0192391Y0080531D03*
X0192391Y0080731D03*
X0192391Y0080931D03*
X0192391Y0081131D03*
X0192391Y0081331D03*
X0192391Y0081531D03*
X0192391Y0081731D03*
X0194591Y0081131D03*
X0194591Y0080931D03*
X0194591Y0080731D03*
X0194591Y0080531D03*
X0194591Y0079531D03*
X0194591Y0079331D03*
X0194591Y0079131D03*
X0194591Y0078931D03*
X0196791Y0078931D03*
X0196791Y0078731D03*
X0196791Y0078531D03*
X0196791Y0078331D03*
X0196791Y0079131D03*
X0196791Y0079331D03*
X0196791Y0079531D03*
X0196791Y0080531D03*
X0196791Y0080731D03*
X0196791Y0080931D03*
X0196791Y0081131D03*
X0196791Y0081331D03*
X0196791Y0081531D03*
X0196791Y0081731D03*
X0247115Y0098130D03*
X0247115Y0098330D03*
X0247115Y0098530D03*
X0247115Y0098730D03*
X0247115Y0098930D03*
X0247115Y0099130D03*
X0247115Y0099330D03*
X0247115Y0099530D03*
X0247115Y0099730D03*
X0247115Y0099930D03*
X0247115Y0100130D03*
X0247115Y0100330D03*
X0247115Y0100530D03*
X0247115Y0100730D03*
X0247115Y0100930D03*
X0247115Y0101130D03*
X0247115Y0101330D03*
X0247115Y0101530D03*
X0249315Y0100930D03*
X0249315Y0100730D03*
X0249315Y0100530D03*
X0249315Y0100330D03*
X0249315Y0099330D03*
X0249315Y0099130D03*
X0249315Y0098930D03*
X0249315Y0098730D03*
X0249315Y0098530D03*
X0249315Y0098330D03*
X0249315Y0098130D03*
X0251515Y0098130D03*
X0251515Y0098330D03*
X0251515Y0098530D03*
X0251515Y0098730D03*
X0251515Y0098930D03*
X0251515Y0099130D03*
X0251515Y0099330D03*
X0251515Y0099530D03*
X0251515Y0099730D03*
X0251515Y0099930D03*
X0251515Y0100130D03*
X0251515Y0100330D03*
X0251515Y0100530D03*
X0251515Y0100730D03*
X0251515Y0100930D03*
X0251515Y0101130D03*
X0251515Y0101330D03*
X0251515Y0101530D03*
X0219231Y0149084D03*
X0219231Y0149284D03*
X0219231Y0149484D03*
X0217031Y0149884D03*
X0217031Y0150084D03*
X0217031Y0150284D03*
X0217031Y0151284D03*
X0217031Y0151484D03*
X0217031Y0151684D03*
X0217031Y0151884D03*
X0214831Y0152084D03*
X0214831Y0152284D03*
X0214831Y0152484D03*
X0214831Y0149484D03*
X0214831Y0149284D03*
X0214831Y0149084D03*
X0219231Y0152084D03*
X0219231Y0152284D03*
X0219231Y0152484D03*
X0165688Y0132686D03*
X0165688Y0132486D03*
X0165688Y0132286D03*
X0163488Y0132086D03*
X0163488Y0131886D03*
X0163488Y0131686D03*
X0163488Y0131486D03*
X0162688Y0130486D03*
X0162688Y0130286D03*
X0162688Y0130086D03*
X0162688Y0129886D03*
X0162688Y0129686D03*
X0162688Y0129486D03*
X0162688Y0129286D03*
X0164288Y0129286D03*
X0164288Y0129486D03*
X0164288Y0129686D03*
X0164288Y0129886D03*
X0164288Y0130086D03*
X0164288Y0130286D03*
X0164288Y0130486D03*
X0161288Y0132286D03*
X0161288Y0132486D03*
X0161288Y0132686D03*
X0160690Y0010872D03*
X0160690Y0010672D03*
X0160690Y0010472D03*
X0160690Y0010272D03*
X0160690Y0010072D03*
X0160690Y0009872D03*
X0160690Y0009672D03*
X0160690Y0009472D03*
X0160690Y0009272D03*
X0160690Y0009072D03*
X0160690Y0008872D03*
X0160690Y0008672D03*
X0160690Y0008472D03*
X0160690Y0008272D03*
X0160690Y0008072D03*
X0160690Y0007872D03*
X0160690Y0007672D03*
X0160690Y0007472D03*
X0162890Y0007472D03*
X0162890Y0007672D03*
X0162890Y0007872D03*
X0162890Y0008072D03*
X0162890Y0008272D03*
X0162890Y0008472D03*
X0162890Y0008672D03*
X0162890Y0009672D03*
X0162890Y0009872D03*
X0162890Y0010072D03*
X0162890Y0010272D03*
X0165090Y0010272D03*
X0165090Y0010472D03*
X0165090Y0010672D03*
X0165090Y0010872D03*
X0165090Y0010072D03*
X0165090Y0009872D03*
X0165090Y0009672D03*
X0165090Y0009472D03*
X0165090Y0009272D03*
X0165090Y0009072D03*
X0165090Y0008872D03*
X0165090Y0008672D03*
X0165090Y0008472D03*
X0165090Y0008272D03*
X0165090Y0008072D03*
X0165090Y0007872D03*
X0165090Y0007672D03*
X0165090Y0007472D03*
X0166690Y0007472D03*
X0166690Y0007672D03*
X0166690Y0007872D03*
X0166690Y0008072D03*
X0166690Y0008272D03*
X0166690Y0008472D03*
X0166690Y0008672D03*
X0166690Y0008872D03*
X0166690Y0009072D03*
X0166690Y0009272D03*
X0166690Y0009472D03*
X0166690Y0009672D03*
X0166690Y0009872D03*
X0166690Y0010072D03*
X0166690Y0010272D03*
X0166690Y0010472D03*
X0166690Y0010672D03*
X0166690Y0010872D03*
X0168890Y0010272D03*
X0168890Y0010072D03*
X0168890Y0009872D03*
X0168890Y0009672D03*
X0168890Y0008672D03*
X0168890Y0008472D03*
X0168890Y0008272D03*
X0168890Y0008072D03*
X0168890Y0007872D03*
X0168890Y0007672D03*
X0168890Y0007472D03*
X0171090Y0007472D03*
X0171090Y0007672D03*
X0171090Y0007872D03*
X0171090Y0008872D03*
X0171090Y0009072D03*
X0171090Y0009272D03*
X0171090Y0009472D03*
X0171090Y0009672D03*
X0171090Y0009872D03*
X0171090Y0010072D03*
X0171090Y0010272D03*
X0171090Y0010472D03*
X0171090Y0010672D03*
X0171090Y0010872D03*
X0172690Y0010872D03*
X0172690Y0010672D03*
X0172690Y0010472D03*
X0174090Y0009472D03*
X0174090Y0009272D03*
X0174090Y0009072D03*
X0174090Y0008872D03*
X0174090Y0008672D03*
X0174090Y0008472D03*
X0174090Y0008272D03*
X0174090Y0008072D03*
X0174090Y0007872D03*
X0174090Y0007672D03*
X0174090Y0007472D03*
X0175690Y0007472D03*
X0175690Y0007672D03*
X0175690Y0007872D03*
X0175690Y0008072D03*
X0175690Y0008272D03*
X0175690Y0008472D03*
X0175690Y0008672D03*
X0175690Y0008872D03*
X0175690Y0009072D03*
X0175690Y0009272D03*
X0175690Y0009472D03*
X0177090Y0010472D03*
X0177090Y0010672D03*
X0177090Y0010872D03*
X0159090Y0010872D03*
X0159090Y0010672D03*
X0159090Y0010472D03*
X0157690Y0009472D03*
X0157690Y0009272D03*
X0157690Y0009072D03*
X0157690Y0008872D03*
X0157690Y0008672D03*
X0157690Y0008472D03*
X0157690Y0008272D03*
X0157690Y0008072D03*
X0157690Y0007872D03*
X0157690Y0007672D03*
X0157690Y0007472D03*
X0156090Y0007472D03*
X0156090Y0007672D03*
X0156090Y0007872D03*
X0156090Y0008072D03*
X0156090Y0008272D03*
X0156090Y0008472D03*
X0156090Y0008672D03*
X0156090Y0008872D03*
X0156090Y0009072D03*
X0156090Y0009272D03*
X0156090Y0009472D03*
X0154690Y0010472D03*
X0154690Y0010672D03*
X0154690Y0010872D03*
X0153090Y0010872D03*
X0153090Y0010672D03*
X0153090Y0010472D03*
X0153090Y0009472D03*
X0153090Y0009272D03*
X0153090Y0009072D03*
X0153090Y0008872D03*
X0153090Y0008672D03*
X0153090Y0008472D03*
X0153090Y0008272D03*
X0153090Y0008072D03*
X0153090Y0007872D03*
X0153090Y0007672D03*
X0153090Y0007472D03*
X0148690Y0007472D03*
X0148690Y0007672D03*
X0148690Y0007872D03*
X0148690Y0008872D03*
X0148690Y0009072D03*
X0148690Y0009272D03*
X0148690Y0009472D03*
X0148690Y0009672D03*
X0148690Y0009872D03*
X0148690Y0010072D03*
X0148690Y0010272D03*
X0148690Y0010472D03*
X0148690Y0010672D03*
X0148690Y0010872D03*
X0133090Y0010952D03*
X0133090Y0011152D03*
X0133090Y0010752D03*
X0131690Y0009752D03*
X0131690Y0009552D03*
X0131690Y0009352D03*
X0131690Y0009152D03*
X0131690Y0008952D03*
X0131690Y0008752D03*
X0131690Y0008552D03*
X0131690Y0008352D03*
X0131690Y0008152D03*
X0131690Y0007952D03*
X0131690Y0007752D03*
X0130090Y0007752D03*
X0130090Y0007952D03*
X0130090Y0008152D03*
X0130090Y0008352D03*
X0130090Y0008552D03*
X0130090Y0008752D03*
X0130090Y0008952D03*
X0130090Y0009152D03*
X0130090Y0009352D03*
X0130090Y0009552D03*
X0130090Y0009752D03*
X0128690Y0010752D03*
X0128690Y0010952D03*
X0128690Y0011152D03*
X0127090Y0011152D03*
X0127090Y0010952D03*
X0127090Y0010752D03*
X0127090Y0010552D03*
X0127090Y0010352D03*
X0127090Y0010152D03*
X0127090Y0009952D03*
X0127090Y0008952D03*
X0127090Y0008752D03*
X0127090Y0008552D03*
X0127090Y0008352D03*
X0127090Y0008152D03*
X0127090Y0007952D03*
X0127090Y0007752D03*
X0122690Y0007752D03*
X0122690Y0007952D03*
X0122690Y0008152D03*
X0122690Y0008352D03*
X0122690Y0008552D03*
X0122690Y0008752D03*
X0122690Y0008952D03*
X0122690Y0009152D03*
X0122690Y0009352D03*
X0122690Y0009552D03*
X0122690Y0009752D03*
X0122690Y0009952D03*
X0122690Y0010152D03*
X0122690Y0010352D03*
X0122690Y0010552D03*
X0122690Y0010752D03*
X0122690Y0010952D03*
X0122690Y0011152D03*
X0121090Y0011152D03*
X0121090Y0010952D03*
X0121090Y0010752D03*
X0121090Y0009752D03*
X0121090Y0009552D03*
X0121090Y0009352D03*
X0121090Y0009152D03*
X0121090Y0008152D03*
X0121090Y0007952D03*
X0121090Y0007752D03*
X0116690Y0007752D03*
X0116690Y0007952D03*
X0116690Y0008152D03*
X0116690Y0008352D03*
X0116690Y0008552D03*
X0116690Y0008752D03*
X0116690Y0008952D03*
X0116690Y0009152D03*
X0116690Y0009352D03*
X0116690Y0009552D03*
X0116690Y0009752D03*
X0116690Y0009952D03*
X0116690Y0010152D03*
X0116690Y0010352D03*
X0116690Y0010552D03*
X0116690Y0010752D03*
X0116690Y0010952D03*
X0116690Y0011152D03*
X0115090Y0008952D03*
X0115090Y0008752D03*
X0115090Y0008552D03*
X0115090Y0008352D03*
X0115090Y0008152D03*
X0115090Y0007952D03*
X0115090Y0007752D03*
X0112890Y0009952D03*
X0112890Y0010152D03*
X0112890Y0010352D03*
X0112890Y0010552D03*
X0112890Y0010752D03*
X0112890Y0010952D03*
X0112890Y0011152D03*
X0110690Y0011152D03*
X0110690Y0010952D03*
X0110690Y0010752D03*
X0110690Y0010552D03*
X0110690Y0010352D03*
X0110690Y0010152D03*
X0110690Y0009952D03*
X0110690Y0009752D03*
X0110690Y0009552D03*
X0110690Y0009352D03*
X0110690Y0009152D03*
X0110690Y0008952D03*
X0110690Y0008752D03*
X0110690Y0008552D03*
X0110690Y0008352D03*
X0110690Y0008152D03*
X0110690Y0007952D03*
X0110690Y0007752D03*
X0109090Y0007752D03*
X0109090Y0007952D03*
X0109090Y0008152D03*
X0109090Y0009152D03*
X0109090Y0009352D03*
X0109090Y0009552D03*
X0109090Y0009752D03*
X0109090Y0010752D03*
X0109090Y0010952D03*
X0109090Y0011152D03*
X0104690Y0011152D03*
X0104690Y0010952D03*
X0104690Y0010752D03*
X0104690Y0010552D03*
X0104690Y0010352D03*
X0104690Y0010152D03*
X0104690Y0009952D03*
X0104690Y0009752D03*
X0104690Y0009552D03*
X0104690Y0009352D03*
X0104690Y0009152D03*
X0104690Y0008952D03*
X0104690Y0008752D03*
X0104690Y0008552D03*
X0104690Y0008352D03*
X0104690Y0008152D03*
X0104690Y0007952D03*
X0104690Y0007752D03*
X0103090Y0007752D03*
X0103090Y0007952D03*
X0103090Y0008152D03*
X0103090Y0008352D03*
X0103090Y0008552D03*
X0103090Y0008752D03*
X0103090Y0008952D03*
X0103090Y0009152D03*
X0103090Y0009352D03*
X0103090Y0009552D03*
X0103090Y0009752D03*
X0103090Y0010752D03*
X0103090Y0010952D03*
X0103090Y0011152D03*
X0098690Y0011152D03*
X0098690Y0010952D03*
X0098690Y0010752D03*
X0098690Y0010552D03*
X0098690Y0010352D03*
X0098690Y0010152D03*
X0098690Y0009952D03*
X0098690Y0009752D03*
X0098690Y0009552D03*
X0098690Y0009352D03*
X0098690Y0009152D03*
X0098690Y0008152D03*
X0098690Y0007952D03*
X0098690Y0007752D03*
D14*
X0107990Y0008352D03*
X0107990Y0008552D03*
X0107990Y0008752D03*
X0107990Y0008952D03*
X0107990Y0009952D03*
X0107990Y0010152D03*
X0107990Y0010352D03*
X0107990Y0010552D03*
X0111790Y0011352D03*
X0111790Y0011552D03*
X0111790Y0011752D03*
X0111790Y0011952D03*
X0113990Y0009752D03*
X0113990Y0009552D03*
X0113990Y0009352D03*
X0113990Y0009152D03*
X0119990Y0008952D03*
X0119990Y0008752D03*
X0119990Y0008552D03*
X0119990Y0008352D03*
X0119990Y0009952D03*
X0119990Y0010152D03*
X0119990Y0010352D03*
X0119990Y0010552D03*
X0125990Y0009752D03*
X0125990Y0009552D03*
X0125990Y0009352D03*
X0125990Y0009152D03*
X0131013Y0047883D03*
X0131013Y0048083D03*
X0131013Y0048283D03*
X0131013Y0048483D03*
X0131013Y0049483D03*
X0131013Y0049683D03*
X0131013Y0049883D03*
X0131013Y0050083D03*
X0137013Y0050083D03*
X0137013Y0049883D03*
X0137013Y0049683D03*
X0137013Y0049483D03*
X0137013Y0048483D03*
X0137013Y0048283D03*
X0137013Y0048083D03*
X0137013Y0047883D03*
X0110813Y0047883D03*
X0110813Y0048083D03*
X0110813Y0048283D03*
X0110813Y0048483D03*
X0110813Y0049483D03*
X0110813Y0049683D03*
X0110813Y0049883D03*
X0110813Y0050083D03*
X0080525Y0092569D03*
X0080525Y0092769D03*
X0080525Y0092969D03*
X0080525Y0093169D03*
X0052084Y0122412D03*
X0052084Y0122612D03*
X0052084Y0122812D03*
X0052084Y0123012D03*
X0049884Y0121612D03*
X0049884Y0121412D03*
X0049884Y0121212D03*
X0049884Y0121012D03*
X0020289Y0092889D03*
X0020289Y0092689D03*
X0020289Y0092489D03*
X0020289Y0092289D03*
X0020289Y0091289D03*
X0020289Y0091089D03*
X0020289Y0090889D03*
X0020289Y0090689D03*
X0018089Y0089889D03*
X0018089Y0089689D03*
X0018089Y0089489D03*
X0018089Y0089289D03*
X0014289Y0090689D03*
X0014289Y0090889D03*
X0014289Y0091089D03*
X0014289Y0091289D03*
X0014289Y0092289D03*
X0014289Y0092489D03*
X0014289Y0092689D03*
X0014289Y0092889D03*
X0008289Y0092089D03*
X0008289Y0091889D03*
X0008289Y0091689D03*
X0008289Y0091489D03*
X0006089Y0093689D03*
X0006089Y0093889D03*
X0006089Y0094089D03*
X0006089Y0094289D03*
X0169213Y0050083D03*
X0169213Y0049883D03*
X0169213Y0049683D03*
X0169213Y0049483D03*
D15*
X0143413Y0049483D03*
X0143413Y0049683D03*
X0143413Y0049883D03*
X0143413Y0050083D03*
X0140413Y0050083D03*
X0140413Y0049883D03*
X0140413Y0049683D03*
X0140413Y0049483D03*
X0125413Y0049483D03*
X0125413Y0049683D03*
X0125413Y0049883D03*
X0125413Y0050083D03*
X0122413Y0050083D03*
X0122413Y0049883D03*
X0122413Y0049683D03*
X0122413Y0049483D03*
X0119413Y0048483D03*
X0119413Y0048283D03*
X0119413Y0048083D03*
X0119413Y0047883D03*
X0116413Y0049483D03*
X0116413Y0049683D03*
X0116413Y0049883D03*
X0116413Y0050083D03*
X0129390Y0010552D03*
X0129390Y0010352D03*
X0129390Y0010152D03*
X0129390Y0009952D03*
X0132390Y0009952D03*
X0132390Y0010152D03*
X0132390Y0010352D03*
X0132390Y0010552D03*
X0149390Y0008672D03*
X0149390Y0008472D03*
X0149390Y0008272D03*
X0149390Y0008072D03*
X0152390Y0009672D03*
X0152390Y0009872D03*
X0152390Y0010072D03*
X0152390Y0010272D03*
X0155390Y0010272D03*
X0155390Y0010072D03*
X0155390Y0009872D03*
X0155390Y0009672D03*
X0158390Y0009672D03*
X0158390Y0009872D03*
X0158390Y0010072D03*
X0158390Y0010272D03*
X0173390Y0010272D03*
X0173390Y0010072D03*
X0173390Y0009872D03*
X0173390Y0009672D03*
X0176390Y0009672D03*
X0176390Y0009872D03*
X0176390Y0010072D03*
X0176390Y0010272D03*
X0102390Y0010352D03*
X0102390Y0010552D03*
X0102390Y0010152D03*
X0102390Y0009952D03*
X0099390Y0008952D03*
X0099390Y0008752D03*
X0099390Y0008552D03*
X0099390Y0008352D03*
X0026689Y0092289D03*
X0026689Y0092489D03*
X0026689Y0092689D03*
X0026689Y0092889D03*
X0023689Y0092889D03*
X0023689Y0092689D03*
X0023689Y0092489D03*
X0023689Y0092289D03*
X0089925Y0092569D03*
X0089925Y0092769D03*
X0089925Y0092969D03*
X0089925Y0093169D03*
X0092925Y0093169D03*
X0092925Y0092969D03*
X0092925Y0092769D03*
X0092925Y0092569D03*
X0161988Y0133086D03*
X0161988Y0133286D03*
X0161988Y0133486D03*
X0164988Y0133486D03*
X0164988Y0133286D03*
X0164988Y0133086D03*
X0215531Y0148284D03*
X0215531Y0148484D03*
X0215531Y0148684D03*
X0215531Y0148884D03*
X0218531Y0148884D03*
X0218531Y0148684D03*
X0218531Y0148484D03*
X0218531Y0148284D03*
X0218531Y0152884D03*
X0218531Y0153084D03*
X0218531Y0153284D03*
X0215531Y0153284D03*
X0215531Y0153084D03*
X0215531Y0152884D03*
D16*
X0215931Y0151084D03*
X0215931Y0150884D03*
X0215931Y0150684D03*
X0215931Y0150484D03*
X0218931Y0150284D03*
X0218931Y0150084D03*
X0218931Y0149884D03*
X0218931Y0151284D03*
X0218931Y0151484D03*
X0218931Y0151684D03*
X0218931Y0151884D03*
X0165388Y0132086D03*
X0165388Y0131886D03*
X0165388Y0131686D03*
X0165388Y0131486D03*
X0162388Y0131286D03*
X0162388Y0131086D03*
X0162388Y0130886D03*
X0162388Y0130686D03*
X0196491Y0080331D03*
X0196491Y0080131D03*
X0196491Y0079931D03*
X0196491Y0079731D03*
X0164013Y0048483D03*
X0164013Y0048283D03*
X0164013Y0048083D03*
X0164013Y0047883D03*
X0170790Y0008672D03*
X0170790Y0008472D03*
X0170790Y0008272D03*
X0170790Y0008072D03*
X0075325Y0090969D03*
X0075325Y0091169D03*
X0075325Y0091369D03*
X0075325Y0091569D03*
X0075325Y0092569D03*
X0075325Y0092769D03*
X0075325Y0092969D03*
X0075325Y0093169D03*
X0069325Y0091569D03*
X0069325Y0091369D03*
X0069325Y0091169D03*
X0069325Y0090969D03*
D17*
X0071625Y0090969D03*
X0071625Y0091169D03*
X0071625Y0091369D03*
X0071625Y0091569D03*
X0071625Y0092569D03*
X0071625Y0092769D03*
X0071625Y0092969D03*
X0071625Y0093169D03*
X0079825Y0091569D03*
X0079825Y0091369D03*
X0079825Y0091169D03*
X0079825Y0090969D03*
X0039479Y0057569D03*
X0039479Y0057369D03*
X0039479Y0057169D03*
X0039479Y0056969D03*
X0039479Y0056769D03*
X0039479Y0056569D03*
X0039479Y0056369D03*
X0039479Y0056169D03*
X0039479Y0055969D03*
X0039479Y0055769D03*
X0039479Y0055569D03*
X0039479Y0055369D03*
X0161688Y0131486D03*
X0161688Y0131686D03*
X0161688Y0131886D03*
X0161688Y0132086D03*
X0164688Y0131286D03*
X0164688Y0131086D03*
X0164688Y0130886D03*
X0164688Y0130686D03*
X0215231Y0149884D03*
X0215231Y0150084D03*
X0215231Y0150284D03*
X0215231Y0151284D03*
X0215231Y0151484D03*
X0215231Y0151684D03*
X0215231Y0151884D03*
X0218231Y0151084D03*
X0218231Y0150884D03*
X0218231Y0150684D03*
X0218231Y0150484D03*
X0168513Y0048483D03*
X0168513Y0048283D03*
X0168513Y0048083D03*
X0168513Y0047883D03*
D18*
X0143611Y0060400D03*
X0134811Y0060800D03*
X0139411Y0073300D03*
X0147911Y0072700D03*
D19*
X0147961Y0073000D03*
X0139461Y0069400D03*
X0143361Y0060500D03*
X0134561Y0060900D03*
X0121661Y0063800D03*
X0173661Y0068300D03*
X0174161Y0074500D03*
D20*
X0167311Y0070700D03*
X0166411Y0077700D03*
X0148011Y0073400D03*
X0148011Y0073300D03*
X0139711Y0073800D03*
X0139411Y0069000D03*
X0139411Y0068900D03*
X0143211Y0060600D03*
X0116611Y0075200D03*
X0133211Y0090100D03*
X0133211Y0090200D03*
X0133211Y0090300D03*
X0133211Y0090400D03*
X0133211Y0090500D03*
X0133211Y0090600D03*
X0133211Y0090700D03*
X0133211Y0090800D03*
X0133211Y0090900D03*
X0133211Y0091000D03*
X0133211Y0091100D03*
X0133211Y0091200D03*
X0133211Y0091300D03*
X0133211Y0091400D03*
X0133211Y0091500D03*
X0133211Y0091600D03*
X0133211Y0091700D03*
X0133211Y0091800D03*
X0133211Y0091900D03*
X0133211Y0092000D03*
X0133211Y0092100D03*
X0133211Y0092200D03*
X0133211Y0092300D03*
X0133211Y0092400D03*
X0133211Y0092500D03*
X0133211Y0092600D03*
X0133211Y0092700D03*
X0133211Y0092800D03*
X0133211Y0092900D03*
X0133211Y0093000D03*
X0133211Y0093100D03*
X0133211Y0093200D03*
X0133211Y0093300D03*
X0133211Y0093400D03*
X0133211Y0093500D03*
X0135511Y0092300D03*
X0135511Y0092200D03*
X0135511Y0092100D03*
X0135511Y0092000D03*
X0135511Y0091900D03*
X0135511Y0091800D03*
X0135511Y0091700D03*
X0135511Y0091600D03*
X0135511Y0091500D03*
X0135511Y0091400D03*
X0135511Y0091300D03*
X0135511Y0091200D03*
X0135511Y0091100D03*
X0135511Y0091000D03*
X0135511Y0090900D03*
X0135511Y0090800D03*
X0135511Y0090700D03*
X0135511Y0090600D03*
X0135511Y0090500D03*
X0135511Y0090400D03*
X0135511Y0090300D03*
X0135511Y0090200D03*
X0135511Y0090100D03*
X0135511Y0098300D03*
X0135511Y0098400D03*
X0135511Y0098500D03*
X0135511Y0098600D03*
X0135511Y0098700D03*
X0135511Y0098800D03*
X0135511Y0098900D03*
X0135511Y0099000D03*
X0135511Y0099100D03*
X0135511Y0099200D03*
X0135511Y0099300D03*
X0144911Y0103000D03*
X0144911Y0103100D03*
X0144911Y0103200D03*
X0144911Y0103300D03*
X0144911Y0103400D03*
X0144911Y0103500D03*
X0144911Y0103600D03*
X0144911Y0103700D03*
X0144911Y0103800D03*
X0144911Y0103900D03*
X0144911Y0104000D03*
X0144911Y0104100D03*
X0144911Y0104200D03*
X0144911Y0104300D03*
X0144911Y0104400D03*
X0144911Y0104500D03*
X0144911Y0104600D03*
X0144911Y0104700D03*
X0144911Y0104800D03*
X0144911Y0104900D03*
X0144911Y0105000D03*
X0144911Y0105100D03*
X0144911Y0105200D03*
X0144911Y0105300D03*
X0144911Y0105400D03*
X0144911Y0105500D03*
X0144911Y0105600D03*
X0144911Y0105700D03*
X0144911Y0105800D03*
X0144911Y0105900D03*
X0144911Y0106000D03*
X0144911Y0106100D03*
X0144911Y0106200D03*
X0144911Y0106300D03*
X0144911Y0106400D03*
X0148411Y0106400D03*
X0148411Y0106300D03*
X0148411Y0106200D03*
X0148411Y0106100D03*
X0148411Y0106000D03*
X0148411Y0105900D03*
X0148411Y0105800D03*
X0148411Y0105700D03*
X0148411Y0105600D03*
X0148411Y0105500D03*
X0148411Y0105400D03*
X0148411Y0105300D03*
X0150811Y0105300D03*
X0150811Y0105400D03*
X0150811Y0105500D03*
X0150811Y0105600D03*
X0150811Y0105700D03*
X0150811Y0105800D03*
X0150811Y0105900D03*
X0150811Y0106000D03*
X0150811Y0106100D03*
X0150811Y0106200D03*
X0150811Y0106300D03*
X0150811Y0106400D03*
X0150811Y0106500D03*
X0150811Y0106600D03*
X0150811Y0106700D03*
X0150811Y0106800D03*
X0150811Y0106900D03*
X0150811Y0107000D03*
X0150811Y0107100D03*
X0150811Y0107200D03*
X0150811Y0107300D03*
X0150811Y0107400D03*
X0150811Y0107500D03*
X0150811Y0107600D03*
X0149611Y0110000D03*
X0149611Y0110100D03*
X0149611Y0110200D03*
X0149611Y0110300D03*
X0149611Y0110400D03*
X0149611Y0110500D03*
X0149611Y0110600D03*
X0149611Y0110700D03*
X0149611Y0110800D03*
X0149611Y0110900D03*
X0149611Y0111000D03*
X0149611Y0111100D03*
X0148411Y0109900D03*
X0148411Y0109800D03*
X0148411Y0109700D03*
X0148411Y0109600D03*
X0148411Y0109500D03*
X0148411Y0109400D03*
X0148411Y0109300D03*
X0148411Y0109200D03*
X0148411Y0109100D03*
X0148411Y0109000D03*
X0148411Y0108900D03*
X0148411Y0108800D03*
X0150811Y0104000D03*
X0150811Y0103900D03*
X0150811Y0103800D03*
X0150811Y0103700D03*
X0150811Y0103600D03*
X0150811Y0103500D03*
X0150811Y0103400D03*
X0150811Y0103300D03*
X0150811Y0103200D03*
X0150811Y0103100D03*
X0150811Y0103000D03*
D21*
X0173811Y0074400D03*
X0167511Y0070800D03*
X0160711Y0063100D03*
X0148011Y0073600D03*
X0139811Y0074000D03*
X0139411Y0068600D03*
X0143011Y0060700D03*
D22*
X0142811Y0060800D03*
X0139411Y0068200D03*
X0134911Y0069900D03*
X0148111Y0073900D03*
X0173911Y0068900D03*
X0114111Y0068300D03*
D23*
X0113961Y0068400D03*
X0129461Y0074000D03*
X0134661Y0069800D03*
X0139361Y0067800D03*
X0139361Y0067700D03*
X0140061Y0074400D03*
X0141361Y0077200D03*
X0142661Y0060900D03*
X0160961Y0063300D03*
D24*
X0173761Y0068500D03*
X0134361Y0061000D03*
X0134361Y0099500D03*
X0134361Y0099600D03*
X0134361Y0099700D03*
X0134361Y0099800D03*
X0134361Y0099900D03*
X0134361Y0100000D03*
X0134361Y0100100D03*
X0134361Y0100200D03*
X0134361Y0100300D03*
X0134361Y0100400D03*
X0134361Y0100500D03*
X0134361Y0100600D03*
X0134361Y0100700D03*
X0134361Y0100800D03*
X0134361Y0100900D03*
X0134361Y0101000D03*
X0134361Y0101100D03*
X0134361Y0101200D03*
X0134361Y0101300D03*
X0134361Y0101400D03*
X0134361Y0101500D03*
X0134361Y0101600D03*
X0134361Y0101700D03*
X0134361Y0103000D03*
X0134361Y0103100D03*
X0134361Y0103200D03*
X0134361Y0103300D03*
X0134361Y0103400D03*
X0134361Y0103500D03*
X0134361Y0103600D03*
X0134361Y0103700D03*
X0134361Y0103800D03*
X0134361Y0103900D03*
X0134361Y0104000D03*
X0134361Y0104100D03*
X0134361Y0104200D03*
X0134361Y0104300D03*
X0134361Y0104400D03*
X0134361Y0104500D03*
X0134361Y0104600D03*
X0134361Y0104700D03*
X0134361Y0104800D03*
X0134361Y0104900D03*
X0134361Y0105000D03*
X0134361Y0105100D03*
X0134361Y0105200D03*
X0139061Y0105200D03*
X0139061Y0105100D03*
X0139061Y0105000D03*
X0139061Y0104900D03*
X0139061Y0104800D03*
X0139061Y0104700D03*
X0139061Y0104600D03*
X0139061Y0104500D03*
X0139061Y0104400D03*
X0139061Y0104300D03*
X0139061Y0104200D03*
X0139061Y0104100D03*
X0139061Y0104000D03*
X0139061Y0103900D03*
X0139061Y0103800D03*
X0139061Y0103700D03*
X0139061Y0103600D03*
X0139061Y0103500D03*
X0139061Y0103400D03*
X0139061Y0103300D03*
X0139061Y0103200D03*
X0139061Y0103100D03*
X0139061Y0103000D03*
X0142561Y0103000D03*
X0142561Y0103100D03*
X0142561Y0103200D03*
X0142561Y0103300D03*
X0142561Y0103400D03*
X0142561Y0103500D03*
X0142561Y0103600D03*
X0142561Y0103700D03*
X0142561Y0103800D03*
X0142561Y0103900D03*
X0142561Y0104000D03*
X0142561Y0104100D03*
X0142561Y0104200D03*
X0142561Y0104300D03*
X0142561Y0104400D03*
X0142561Y0104500D03*
X0142561Y0104600D03*
X0142561Y0104700D03*
X0142561Y0104800D03*
X0142561Y0104900D03*
X0142561Y0105000D03*
X0142561Y0105100D03*
X0142561Y0105200D03*
X0147261Y0110000D03*
X0147261Y0110100D03*
X0147261Y0110200D03*
X0147261Y0110300D03*
X0147261Y0110400D03*
X0147261Y0110500D03*
X0147261Y0110600D03*
X0147261Y0110700D03*
X0147261Y0110800D03*
X0147261Y0110900D03*
X0147261Y0111000D03*
X0147261Y0111100D03*
D25*
X0143161Y0074200D03*
X0142961Y0073800D03*
X0142861Y0073700D03*
X0142461Y0061000D03*
X0125461Y0075000D03*
X0125561Y0075300D03*
X0125261Y0074500D03*
X0115861Y0072100D03*
X0115761Y0072000D03*
X0113761Y0068500D03*
X0166661Y0073900D03*
X0166661Y0074000D03*
X0166661Y0074100D03*
X0166761Y0074900D03*
D26*
X0160411Y0062900D03*
X0148811Y0061000D03*
X0139411Y0069300D03*
X0116511Y0075100D03*
D27*
X0114361Y0068200D03*
X0135161Y0070000D03*
X0139761Y0073900D03*
X0134161Y0061100D03*
X0173861Y0068700D03*
D28*
X0174111Y0069500D03*
X0161211Y0063500D03*
X0149411Y0077400D03*
X0143111Y0074400D03*
X0143511Y0069600D03*
X0142311Y0061100D03*
X0121111Y0074700D03*
X0121111Y0074800D03*
X0121211Y0074900D03*
X0121211Y0075000D03*
X0121311Y0075200D03*
X0121311Y0075300D03*
X0121411Y0075400D03*
X0121411Y0075500D03*
X0121011Y0074600D03*
X0120911Y0074400D03*
D29*
X0139411Y0068100D03*
X0148111Y0074000D03*
X0149511Y0061100D03*
D30*
X0154361Y0068900D03*
X0148061Y0073800D03*
X0139861Y0074100D03*
X0139361Y0068300D03*
X0133961Y0061200D03*
X0121661Y0064000D03*
D31*
X0118661Y0069600D03*
X0118761Y0069800D03*
X0118861Y0070000D03*
X0118861Y0070100D03*
X0118961Y0070200D03*
X0118961Y0070300D03*
X0119061Y0070400D03*
X0119061Y0070500D03*
X0119161Y0070600D03*
X0119161Y0070700D03*
X0119261Y0070800D03*
X0119261Y0070900D03*
X0124061Y0070200D03*
X0125261Y0075600D03*
X0110261Y0073800D03*
X0141561Y0076900D03*
X0142161Y0072500D03*
X0143261Y0069900D03*
X0143361Y0067800D03*
X0142161Y0061200D03*
X0152161Y0072500D03*
X0152061Y0072800D03*
X0151961Y0073000D03*
X0151961Y0073100D03*
X0151861Y0073300D03*
X0151861Y0073400D03*
X0149461Y0077200D03*
X0161361Y0063600D03*
X0167661Y0077500D03*
D32*
X0169961Y0074900D03*
X0170061Y0074800D03*
X0170161Y0074700D03*
X0170261Y0074600D03*
X0174161Y0069600D03*
X0150061Y0061200D03*
X0143561Y0068000D03*
X0142461Y0073200D03*
X0125461Y0075500D03*
X0120961Y0074500D03*
X0120861Y0074300D03*
X0115761Y0072300D03*
D33*
X0133761Y0061300D03*
X0139361Y0068000D03*
X0154161Y0068800D03*
X0173961Y0069100D03*
X0146661Y0090100D03*
X0146661Y0090200D03*
X0146661Y0090300D03*
X0146661Y0090400D03*
X0146661Y0090500D03*
X0146661Y0090600D03*
X0146661Y0090700D03*
X0146661Y0090800D03*
X0146661Y0090900D03*
X0146661Y0091000D03*
X0146661Y0091100D03*
X0146661Y0091200D03*
X0146661Y0091300D03*
X0146661Y0091400D03*
X0146661Y0091500D03*
X0146661Y0091600D03*
X0146661Y0091700D03*
X0146661Y0091800D03*
X0146661Y0091900D03*
X0146661Y0092000D03*
X0146661Y0092100D03*
X0146661Y0092200D03*
X0146661Y0092300D03*
X0134961Y0101800D03*
X0134961Y0101900D03*
X0134961Y0102000D03*
X0134961Y0102100D03*
X0134961Y0102200D03*
X0134961Y0102300D03*
X0134961Y0102400D03*
X0134961Y0102500D03*
X0134961Y0102600D03*
X0134961Y0102700D03*
X0134961Y0102800D03*
X0134961Y0102900D03*
D34*
X0141461Y0076700D03*
X0142261Y0072200D03*
X0150461Y0069100D03*
X0152161Y0072000D03*
X0157061Y0074700D03*
X0156961Y0075000D03*
X0156961Y0075100D03*
X0156861Y0075400D03*
X0156861Y0075500D03*
X0156861Y0075600D03*
X0156761Y0075700D03*
X0156761Y0075800D03*
X0156761Y0075900D03*
X0156761Y0076000D03*
X0156661Y0076200D03*
X0156661Y0076300D03*
X0156661Y0076400D03*
X0156561Y0076800D03*
X0156561Y0076900D03*
X0156461Y0077500D03*
X0163461Y0072200D03*
X0163561Y0072000D03*
X0163661Y0071800D03*
X0163661Y0071700D03*
X0167661Y0077000D03*
X0167661Y0077100D03*
X0141961Y0061300D03*
X0123761Y0068900D03*
X0123761Y0069000D03*
X0123761Y0069100D03*
X0123861Y0070600D03*
X0121561Y0064400D03*
X0109761Y0072200D03*
D35*
X0116361Y0074200D03*
X0116461Y0074400D03*
X0116561Y0077300D03*
X0123761Y0070700D03*
X0132861Y0061800D03*
X0143161Y0067500D03*
X0142961Y0070300D03*
X0142361Y0072000D03*
X0141461Y0076600D03*
X0149461Y0077000D03*
X0152161Y0071900D03*
X0152161Y0071800D03*
X0151961Y0071500D03*
X0151761Y0071200D03*
X0151661Y0071000D03*
X0151561Y0070900D03*
X0151461Y0070700D03*
X0151361Y0070600D03*
X0151261Y0070400D03*
X0151161Y0070300D03*
X0151061Y0070100D03*
X0150961Y0069900D03*
X0150761Y0069600D03*
X0157761Y0072200D03*
X0157661Y0072500D03*
X0157661Y0072600D03*
X0157561Y0072800D03*
X0157561Y0072900D03*
X0157561Y0073000D03*
X0157461Y0073100D03*
X0157461Y0073200D03*
X0157461Y0073300D03*
X0157361Y0073500D03*
X0157361Y0073600D03*
X0157261Y0073900D03*
X0157261Y0074000D03*
X0163661Y0071600D03*
X0163661Y0071500D03*
X0167761Y0076800D03*
X0150461Y0061300D03*
D36*
X0153961Y0068700D03*
X0143161Y0074100D03*
X0139361Y0067600D03*
X0139361Y0067500D03*
X0133561Y0061400D03*
X0174061Y0069300D03*
D37*
X0174311Y0070100D03*
X0168611Y0071400D03*
X0167711Y0076700D03*
X0157611Y0072700D03*
X0157711Y0072400D03*
X0157711Y0072300D03*
X0157811Y0072100D03*
X0157811Y0072000D03*
X0157811Y0071900D03*
X0157911Y0071800D03*
X0157911Y0071700D03*
X0157911Y0071600D03*
X0158011Y0071400D03*
X0158011Y0071300D03*
X0158111Y0071000D03*
X0152111Y0071700D03*
X0152011Y0071600D03*
X0151911Y0071400D03*
X0151811Y0071300D03*
X0151711Y0071100D03*
X0151511Y0070800D03*
X0142411Y0071900D03*
X0141811Y0061400D03*
X0161611Y0063800D03*
X0116411Y0074300D03*
X0116311Y0074100D03*
X0116211Y0074000D03*
D38*
X0130711Y0070600D03*
X0130811Y0070700D03*
X0130911Y0070800D03*
X0141211Y0076100D03*
X0150911Y0061400D03*
X0163611Y0070700D03*
X0168011Y0075900D03*
D39*
X0168061Y0071100D03*
X0143661Y0069200D03*
X0143661Y0069100D03*
X0143661Y0069000D03*
X0143661Y0068900D03*
X0143661Y0068800D03*
X0143661Y0068700D03*
X0143661Y0068600D03*
X0143661Y0068500D03*
X0143661Y0068400D03*
X0143661Y0068300D03*
X0143661Y0068200D03*
X0143661Y0068100D03*
X0142561Y0073300D03*
X0142661Y0073400D03*
X0134361Y0069700D03*
X0131061Y0077500D03*
X0121461Y0075600D03*
X0121261Y0075100D03*
X0133361Y0061500D03*
D40*
X0132661Y0061900D03*
X0141761Y0061700D03*
X0141761Y0061600D03*
X0141761Y0061500D03*
X0142761Y0070500D03*
X0142561Y0071600D03*
X0141361Y0076400D03*
X0133561Y0073900D03*
X0133461Y0073800D03*
X0133361Y0073700D03*
X0133261Y0073600D03*
X0133161Y0073500D03*
X0133061Y0073400D03*
X0132961Y0073200D03*
X0132861Y0073100D03*
X0132761Y0073000D03*
X0123661Y0071000D03*
X0115761Y0073400D03*
X0115661Y0073300D03*
X0115561Y0073200D03*
X0146661Y0084200D03*
X0146661Y0084300D03*
X0146661Y0084400D03*
X0146661Y0084500D03*
X0146661Y0084600D03*
X0146661Y0084700D03*
X0146661Y0084800D03*
X0146661Y0084900D03*
X0146661Y0085000D03*
X0146661Y0085100D03*
X0146661Y0085200D03*
X0146661Y0085300D03*
X0147861Y0098300D03*
X0147861Y0098400D03*
X0147861Y0098500D03*
X0147861Y0098600D03*
X0147861Y0098700D03*
X0147861Y0098800D03*
X0147861Y0098900D03*
X0147861Y0099000D03*
X0147861Y0099100D03*
X0147861Y0099200D03*
X0147861Y0099300D03*
X0147861Y0101800D03*
X0147861Y0101900D03*
X0147861Y0102000D03*
X0147861Y0102100D03*
X0147861Y0102200D03*
X0147861Y0102300D03*
X0147861Y0102400D03*
X0147861Y0102500D03*
X0147861Y0102600D03*
X0147861Y0102700D03*
X0147861Y0102800D03*
X0147861Y0102900D03*
X0149061Y0104100D03*
X0149061Y0104200D03*
X0149061Y0104300D03*
X0149061Y0104400D03*
X0149061Y0104500D03*
X0149061Y0104600D03*
X0149061Y0104700D03*
X0149061Y0104800D03*
X0149061Y0104900D03*
X0149061Y0105000D03*
X0149061Y0105100D03*
X0149061Y0105200D03*
X0144361Y0111200D03*
X0144361Y0111300D03*
X0144361Y0111400D03*
X0144361Y0111500D03*
X0144361Y0111600D03*
X0144361Y0111700D03*
X0144361Y0111800D03*
X0144361Y0111900D03*
X0144361Y0112000D03*
X0144361Y0112100D03*
X0144361Y0112200D03*
X0167861Y0076400D03*
X0163661Y0071200D03*
X0173561Y0071300D03*
X0173661Y0071200D03*
X0173761Y0071100D03*
X0173861Y0071000D03*
X0174361Y0070200D03*
D41*
X0171861Y0074200D03*
X0171761Y0074300D03*
X0168261Y0075300D03*
X0151261Y0061500D03*
X0141761Y0063200D03*
X0141761Y0063300D03*
X0141761Y0063400D03*
X0141761Y0074500D03*
X0141661Y0074600D03*
X0141661Y0074700D03*
X0141561Y0074800D03*
X0141561Y0074900D03*
X0141461Y0075000D03*
X0141461Y0075100D03*
X0141361Y0075200D03*
X0141361Y0075300D03*
X0141261Y0075500D03*
X0149461Y0076400D03*
X0147261Y0083000D03*
X0147261Y0083100D03*
X0147261Y0083200D03*
X0147261Y0083300D03*
X0147261Y0083400D03*
X0147261Y0083500D03*
X0147261Y0083600D03*
X0147261Y0083700D03*
X0147261Y0083800D03*
X0147261Y0083900D03*
X0147261Y0084000D03*
X0147261Y0084100D03*
X0146061Y0085400D03*
X0146061Y0085500D03*
X0146061Y0085600D03*
X0146061Y0085700D03*
X0146061Y0085800D03*
X0146061Y0085900D03*
X0146061Y0086000D03*
X0146061Y0086100D03*
X0146061Y0086200D03*
X0146061Y0086300D03*
X0146061Y0086400D03*
X0146061Y0086500D03*
X0147261Y0097100D03*
X0147261Y0097200D03*
X0147261Y0097300D03*
X0147261Y0097400D03*
X0147261Y0097500D03*
X0147261Y0097600D03*
X0147261Y0097700D03*
X0147261Y0097800D03*
X0147261Y0097900D03*
X0147261Y0098000D03*
X0147261Y0098100D03*
X0147261Y0098200D03*
X0116061Y0076700D03*
D42*
X0119311Y0071000D03*
X0124911Y0074300D03*
X0133211Y0061600D03*
X0142111Y0072600D03*
X0142111Y0072700D03*
X0174211Y0069700D03*
X0136711Y0110000D03*
X0136711Y0110100D03*
X0136711Y0110200D03*
X0136711Y0110300D03*
X0136711Y0110400D03*
X0136711Y0110500D03*
X0136711Y0110600D03*
X0136711Y0110700D03*
X0136711Y0110800D03*
X0136711Y0110900D03*
X0136711Y0111000D03*
X0136711Y0111100D03*
D43*
X0123561Y0076300D03*
X0141761Y0064500D03*
X0141761Y0064400D03*
X0151561Y0061600D03*
X0149761Y0074900D03*
X0149761Y0075000D03*
X0149661Y0075100D03*
X0149661Y0075200D03*
X0149561Y0075300D03*
X0149361Y0076000D03*
D44*
X0149411Y0077100D03*
X0151511Y0073900D03*
X0152211Y0072200D03*
X0152211Y0072100D03*
X0156711Y0076100D03*
X0156611Y0076500D03*
X0156611Y0076600D03*
X0156611Y0076700D03*
X0156511Y0077000D03*
X0156511Y0077100D03*
X0156511Y0077200D03*
X0156511Y0077300D03*
X0156511Y0077400D03*
X0162311Y0074500D03*
X0162411Y0074300D03*
X0162511Y0074100D03*
X0162611Y0073900D03*
X0162711Y0073700D03*
X0162811Y0073500D03*
X0162911Y0073300D03*
X0163011Y0073100D03*
X0163111Y0072900D03*
X0163211Y0072700D03*
X0163311Y0072600D03*
X0163311Y0072500D03*
X0163411Y0072400D03*
X0163411Y0072300D03*
X0163511Y0072100D03*
X0163611Y0071900D03*
X0168411Y0071300D03*
X0174311Y0069900D03*
X0161511Y0063700D03*
X0143211Y0067600D03*
X0143111Y0070100D03*
X0142211Y0072300D03*
X0133011Y0061700D03*
X0123811Y0069200D03*
X0123811Y0069300D03*
X0123911Y0070500D03*
X0116611Y0077400D03*
X0111011Y0074300D03*
X0110511Y0074000D03*
D45*
X0115461Y0076200D03*
X0122061Y0072800D03*
X0122061Y0072700D03*
X0121961Y0072600D03*
X0122161Y0072900D03*
X0121761Y0072200D03*
X0120661Y0065300D03*
X0132961Y0076700D03*
X0132961Y0076800D03*
X0132961Y0076900D03*
X0133061Y0077000D03*
X0133061Y0077100D03*
X0141761Y0065300D03*
X0141761Y0065200D03*
X0151761Y0068600D03*
X0151861Y0061700D03*
X0162261Y0065000D03*
D46*
X0163661Y0071000D03*
X0167861Y0076200D03*
X0173961Y0070900D03*
X0174061Y0070800D03*
X0174161Y0070700D03*
X0174261Y0070600D03*
X0142561Y0071000D03*
X0141761Y0062000D03*
X0141761Y0061900D03*
X0141761Y0061800D03*
X0131961Y0072100D03*
X0132061Y0072200D03*
X0132161Y0072300D03*
X0132261Y0072400D03*
X0115261Y0072800D03*
X0115161Y0072700D03*
X0115061Y0072500D03*
X0110161Y0072100D03*
D47*
X0121861Y0071800D03*
X0120461Y0065500D03*
X0132261Y0074300D03*
X0132361Y0074400D03*
X0132361Y0074500D03*
X0151661Y0067900D03*
X0151661Y0067800D03*
X0152161Y0061800D03*
X0162061Y0065700D03*
D48*
X0161861Y0066400D03*
X0151561Y0067200D03*
X0152461Y0061900D03*
X0121761Y0071100D03*
X0120261Y0065700D03*
X0111861Y0070100D03*
D49*
X0113011Y0069000D03*
X0115111Y0072600D03*
X0116311Y0077000D03*
X0121411Y0064600D03*
X0132511Y0062000D03*
X0131311Y0071300D03*
X0131411Y0071400D03*
X0131611Y0071700D03*
X0131711Y0071800D03*
X0131811Y0071900D03*
X0131911Y0072000D03*
X0141311Y0076200D03*
X0142611Y0070900D03*
X0142611Y0070800D03*
X0142611Y0070700D03*
X0163611Y0070900D03*
X0167911Y0076100D03*
X0174311Y0070500D03*
X0174411Y0070400D03*
D50*
X0170811Y0071700D03*
X0170711Y0071800D03*
X0161611Y0067300D03*
X0161611Y0067200D03*
X0151711Y0065700D03*
X0151611Y0066000D03*
X0151511Y0066300D03*
X0151511Y0066400D03*
X0152711Y0062000D03*
X0131011Y0067200D03*
X0131011Y0067300D03*
X0131011Y0067400D03*
X0131011Y0067500D03*
X0131111Y0067700D03*
X0131111Y0067800D03*
X0131111Y0067900D03*
X0130911Y0066800D03*
X0111911Y0070900D03*
X0111811Y0070700D03*
X0111811Y0070600D03*
D51*
X0116211Y0076900D03*
X0123311Y0077300D03*
X0130111Y0069800D03*
X0130011Y0069700D03*
X0121311Y0064700D03*
X0132311Y0062100D03*
X0141211Y0076000D03*
X0149411Y0076600D03*
X0163611Y0070500D03*
X0161911Y0064100D03*
D52*
X0161861Y0064000D03*
X0163661Y0070800D03*
X0167961Y0076000D03*
X0149461Y0076700D03*
X0131561Y0071600D03*
X0131461Y0071500D03*
X0131261Y0071200D03*
X0131161Y0071100D03*
X0131061Y0071000D03*
X0130961Y0070900D03*
X0141761Y0062300D03*
X0141761Y0062200D03*
X0141761Y0062100D03*
D53*
X0152111Y0064400D03*
X0152211Y0064100D03*
X0152311Y0063700D03*
X0152411Y0063400D03*
X0152511Y0063100D03*
X0152511Y0063000D03*
X0152611Y0062800D03*
X0152611Y0062700D03*
X0152711Y0062400D03*
X0152711Y0062300D03*
X0152811Y0062100D03*
X0161511Y0067500D03*
X0161511Y0067600D03*
X0170411Y0072600D03*
X0130811Y0066300D03*
X0130811Y0066200D03*
X0130811Y0066100D03*
X0130811Y0066000D03*
X0130711Y0065900D03*
X0130711Y0065800D03*
X0130711Y0065700D03*
X0130711Y0065600D03*
X0112111Y0071300D03*
X0112111Y0071400D03*
X0112011Y0071100D03*
D54*
X0112761Y0069200D03*
X0132161Y0062200D03*
X0141761Y0063000D03*
X0141761Y0063100D03*
X0141161Y0075800D03*
X0149461Y0076500D03*
X0163661Y0070200D03*
X0168161Y0075500D03*
D55*
X0170861Y0071600D03*
X0170961Y0071500D03*
X0161561Y0067400D03*
X0152061Y0064700D03*
X0152061Y0064600D03*
X0152061Y0064500D03*
X0152161Y0064300D03*
X0152161Y0064200D03*
X0152261Y0064000D03*
X0152261Y0063900D03*
X0152261Y0063800D03*
X0152361Y0063600D03*
X0152361Y0063500D03*
X0152461Y0063300D03*
X0152461Y0063200D03*
X0152561Y0062900D03*
X0152661Y0062600D03*
X0152661Y0062500D03*
X0152761Y0062200D03*
X0151961Y0064800D03*
X0151961Y0064900D03*
X0151961Y0065000D03*
X0151861Y0065100D03*
X0151861Y0065200D03*
X0151861Y0065300D03*
X0151761Y0065400D03*
X0151761Y0065500D03*
X0151761Y0065600D03*
X0151661Y0065800D03*
X0151661Y0065900D03*
X0151561Y0066100D03*
X0151561Y0066200D03*
X0130961Y0066900D03*
X0130961Y0067000D03*
X0130961Y0067100D03*
X0130861Y0066700D03*
X0130861Y0066600D03*
X0130861Y0066500D03*
X0130861Y0066400D03*
X0130461Y0063300D03*
X0119961Y0066000D03*
X0111861Y0070800D03*
X0111961Y0071000D03*
X0112061Y0071200D03*
D56*
X0131961Y0062300D03*
X0141761Y0063500D03*
X0141761Y0063600D03*
X0141761Y0063700D03*
X0162161Y0064300D03*
X0172061Y0074000D03*
X0168361Y0075100D03*
D57*
X0149411Y0076200D03*
X0131811Y0062400D03*
X0123511Y0076700D03*
X0115811Y0076500D03*
X0112511Y0069400D03*
D58*
X0112861Y0069100D03*
X0130161Y0069900D03*
X0130261Y0070000D03*
X0130361Y0070100D03*
X0130361Y0070200D03*
X0130461Y0070300D03*
X0130561Y0070400D03*
X0130661Y0070500D03*
X0141761Y0062600D03*
X0141761Y0062500D03*
X0141761Y0062400D03*
X0163661Y0070600D03*
X0168061Y0075800D03*
D59*
X0149511Y0075500D03*
X0149511Y0075400D03*
X0149411Y0075600D03*
X0149311Y0075900D03*
X0141711Y0064600D03*
X0131711Y0062500D03*
X0123511Y0076100D03*
X0123511Y0076200D03*
X0115711Y0076400D03*
D60*
X0115561Y0076300D03*
X0114561Y0075500D03*
X0131561Y0062600D03*
X0141761Y0065000D03*
X0141761Y0065100D03*
X0147861Y0080700D03*
X0147861Y0080800D03*
X0147861Y0080900D03*
X0147861Y0081000D03*
X0147861Y0081100D03*
X0147861Y0081200D03*
X0147861Y0081300D03*
X0147861Y0081400D03*
X0147861Y0081500D03*
X0147861Y0081600D03*
X0147861Y0081700D03*
X0147861Y0081800D03*
X0147861Y0081900D03*
X0147861Y0082000D03*
X0147861Y0082100D03*
X0147861Y0082200D03*
X0147861Y0082300D03*
X0147861Y0082400D03*
X0147861Y0082500D03*
X0147861Y0082600D03*
X0147861Y0082700D03*
X0147861Y0082800D03*
X0147861Y0082900D03*
X0146661Y0100600D03*
X0146661Y0100700D03*
X0146661Y0100800D03*
X0146661Y0100900D03*
X0146661Y0101000D03*
X0146661Y0101100D03*
X0146661Y0101200D03*
X0146661Y0101300D03*
X0146661Y0101400D03*
X0146661Y0101500D03*
X0146661Y0101600D03*
X0146661Y0101700D03*
X0162361Y0064700D03*
D61*
X0162161Y0065200D03*
X0141661Y0065700D03*
X0141561Y0066000D03*
X0141561Y0066100D03*
X0141561Y0067200D03*
X0141561Y0067300D03*
X0131361Y0062700D03*
X0120561Y0065400D03*
X0122461Y0073300D03*
X0122561Y0073400D03*
X0122661Y0073600D03*
X0122761Y0073800D03*
X0122761Y0073900D03*
X0122861Y0074000D03*
X0122861Y0074100D03*
X0115461Y0076100D03*
X0115161Y0075800D03*
X0132761Y0075900D03*
X0132761Y0076000D03*
X0132761Y0076100D03*
X0132861Y0076300D03*
D62*
X0141161Y0075900D03*
X0141761Y0062900D03*
X0141761Y0062800D03*
X0141761Y0062700D03*
X0163661Y0070400D03*
X0168061Y0075700D03*
D63*
X0162111Y0065600D03*
X0162111Y0065500D03*
X0151711Y0068000D03*
X0132411Y0074600D03*
X0132411Y0074700D03*
X0132411Y0074800D03*
X0132511Y0074900D03*
X0132511Y0075000D03*
X0132211Y0074200D03*
X0121811Y0071900D03*
X0131211Y0062800D03*
D64*
X0139411Y0073400D03*
X0147911Y0072800D03*
X0160311Y0062800D03*
X0173611Y0068100D03*
X0116411Y0075000D03*
D65*
X0121861Y0071600D03*
X0120361Y0065600D03*
X0131061Y0062900D03*
X0151661Y0067600D03*
X0151661Y0067700D03*
X0161961Y0066000D03*
D66*
X0161911Y0066300D03*
X0151611Y0067300D03*
X0130911Y0063000D03*
X0121811Y0071200D03*
X0121811Y0071300D03*
D67*
X0121661Y0063900D03*
X0160561Y0063000D03*
D68*
X0161761Y0066700D03*
X0170161Y0072400D03*
X0151561Y0067000D03*
X0151561Y0066900D03*
X0131561Y0069600D03*
X0130761Y0063100D03*
X0120161Y0065800D03*
D69*
X0120111Y0065900D03*
X0130611Y0063200D03*
X0131211Y0068300D03*
X0131211Y0068400D03*
X0131211Y0068500D03*
X0131311Y0068700D03*
X0131311Y0068800D03*
X0131311Y0068900D03*
X0131311Y0069000D03*
X0151511Y0066600D03*
X0161611Y0067100D03*
X0170511Y0072000D03*
X0170611Y0071900D03*
D70*
X0167661Y0070900D03*
X0173961Y0069000D03*
X0160861Y0063200D03*
X0139961Y0074200D03*
D71*
X0130461Y0064300D03*
X0130361Y0063800D03*
X0130361Y0063700D03*
X0130361Y0063600D03*
X0130361Y0063500D03*
X0130361Y0063400D03*
X0120861Y0068000D03*
X0120861Y0068100D03*
X0120761Y0067900D03*
X0161461Y0068100D03*
X0161461Y0068200D03*
D72*
X0161111Y0063400D03*
X0149411Y0077500D03*
X0143111Y0074000D03*
X0143011Y0073900D03*
X0115911Y0072200D03*
D73*
X0120961Y0065000D03*
X0123561Y0076800D03*
X0141761Y0064000D03*
X0141761Y0063900D03*
X0141761Y0063800D03*
X0172061Y0073900D03*
D74*
X0161411Y0068000D03*
X0161411Y0067900D03*
X0161411Y0067800D03*
X0130511Y0064700D03*
X0130511Y0064600D03*
X0130511Y0064500D03*
X0130511Y0064400D03*
X0130411Y0064200D03*
X0130411Y0064100D03*
X0130411Y0064000D03*
X0130411Y0063900D03*
X0120711Y0067700D03*
X0120711Y0067800D03*
X0120611Y0067600D03*
X0120611Y0067500D03*
X0120511Y0067400D03*
X0120511Y0067300D03*
X0120411Y0067200D03*
X0120411Y0067100D03*
X0120311Y0067000D03*
X0120311Y0066900D03*
X0120211Y0066700D03*
X0120111Y0066500D03*
X0120011Y0066300D03*
X0120911Y0068200D03*
X0120911Y0068300D03*
X0112311Y0071800D03*
D75*
X0115311Y0072900D03*
X0115411Y0073000D03*
X0115511Y0073100D03*
X0116411Y0077100D03*
X0132311Y0072500D03*
X0132411Y0072600D03*
X0132511Y0072700D03*
X0132611Y0072800D03*
X0132711Y0072900D03*
X0133011Y0073300D03*
X0141311Y0076300D03*
X0142611Y0071500D03*
X0142611Y0071400D03*
X0142611Y0071300D03*
X0142611Y0071200D03*
X0142611Y0071100D03*
X0142711Y0070600D03*
X0149411Y0076800D03*
X0163611Y0071100D03*
X0167811Y0076300D03*
X0174411Y0070300D03*
X0161711Y0063900D03*
D76*
X0139411Y0067900D03*
X0140011Y0074300D03*
X0121611Y0064100D03*
X0137311Y0097100D03*
X0137311Y0097200D03*
X0137311Y0097300D03*
X0137311Y0097400D03*
X0137311Y0097500D03*
X0137311Y0097600D03*
X0137311Y0097700D03*
X0137311Y0097800D03*
X0137311Y0097900D03*
X0137311Y0098000D03*
X0137311Y0098100D03*
X0137311Y0098200D03*
X0137311Y0100600D03*
X0137311Y0100700D03*
X0137311Y0100800D03*
X0137311Y0100900D03*
X0137311Y0101000D03*
X0137311Y0101100D03*
X0137311Y0101200D03*
X0137311Y0101300D03*
X0137311Y0101400D03*
X0137311Y0101500D03*
X0137311Y0101600D03*
X0137311Y0101700D03*
X0140811Y0110000D03*
X0140811Y0110100D03*
X0140811Y0110200D03*
X0140811Y0110300D03*
X0140811Y0110400D03*
X0140811Y0110500D03*
X0140811Y0110600D03*
X0140811Y0110700D03*
X0140811Y0110800D03*
X0140811Y0110900D03*
X0140811Y0111000D03*
X0140811Y0111100D03*
X0144311Y0111100D03*
X0144311Y0111000D03*
X0144311Y0110900D03*
X0144311Y0110800D03*
X0144311Y0110700D03*
X0144311Y0110600D03*
X0144311Y0110500D03*
X0144311Y0110400D03*
X0144311Y0110300D03*
X0144311Y0110200D03*
X0144311Y0110100D03*
X0144311Y0110000D03*
X0149011Y0111200D03*
X0149011Y0111300D03*
X0149011Y0111400D03*
X0149011Y0111500D03*
X0149011Y0111600D03*
X0149011Y0111700D03*
X0149011Y0111800D03*
X0149011Y0111900D03*
X0149011Y0112000D03*
X0149011Y0112100D03*
X0149011Y0112200D03*
D77*
X0123561Y0076600D03*
X0123561Y0076500D03*
X0141761Y0064300D03*
X0141761Y0064200D03*
X0141761Y0064100D03*
X0150161Y0074100D03*
X0150161Y0074200D03*
X0150061Y0074300D03*
X0150061Y0074400D03*
X0149361Y0076100D03*
X0162261Y0064400D03*
D78*
X0174111Y0069400D03*
X0166711Y0074200D03*
X0166711Y0074300D03*
X0166711Y0074400D03*
X0166711Y0074500D03*
X0166711Y0074600D03*
X0166711Y0074700D03*
X0166711Y0074800D03*
X0167311Y0077600D03*
X0143111Y0074300D03*
X0142811Y0073600D03*
X0142711Y0073500D03*
X0143611Y0069500D03*
X0143611Y0069400D03*
X0143611Y0069300D03*
X0125611Y0075400D03*
X0125511Y0075200D03*
X0125511Y0075100D03*
X0125411Y0074900D03*
X0125411Y0074800D03*
X0125311Y0074700D03*
X0125311Y0074600D03*
X0125211Y0074400D03*
X0122911Y0077500D03*
X0116511Y0077600D03*
X0121611Y0064200D03*
D79*
X0110511Y0072000D03*
X0132411Y0077300D03*
X0136711Y0083000D03*
X0136711Y0083100D03*
X0136711Y0083200D03*
X0136711Y0083300D03*
X0136711Y0083400D03*
X0136711Y0083500D03*
X0136711Y0083600D03*
X0136711Y0083700D03*
X0136711Y0083800D03*
X0136711Y0083900D03*
X0136711Y0084000D03*
X0136711Y0084100D03*
X0136711Y0084200D03*
X0136711Y0084300D03*
X0136711Y0084400D03*
X0136711Y0084500D03*
X0136711Y0084600D03*
X0136711Y0084700D03*
X0136711Y0084800D03*
X0136711Y0084900D03*
X0136711Y0085000D03*
X0136711Y0085100D03*
X0136711Y0085200D03*
X0136711Y0085300D03*
X0136711Y0085400D03*
X0136711Y0085500D03*
X0136711Y0085600D03*
X0136711Y0085700D03*
X0136711Y0085800D03*
X0136711Y0085900D03*
X0136711Y0086000D03*
X0136711Y0086100D03*
X0136711Y0086200D03*
X0136711Y0086300D03*
X0136711Y0086400D03*
X0136711Y0086500D03*
X0141111Y0075700D03*
X0141211Y0075600D03*
X0141311Y0075400D03*
X0163611Y0070100D03*
X0168211Y0075400D03*
X0162011Y0064200D03*
D80*
X0168261Y0071200D03*
X0170461Y0074400D03*
X0143361Y0069800D03*
X0143461Y0067900D03*
X0142161Y0072800D03*
X0142261Y0072900D03*
X0141561Y0077000D03*
X0121561Y0064300D03*
X0135561Y0105300D03*
X0135561Y0105400D03*
X0135561Y0105500D03*
X0135561Y0105600D03*
X0135561Y0105700D03*
X0135561Y0105800D03*
X0135561Y0105900D03*
X0135561Y0106000D03*
X0135561Y0106100D03*
X0135561Y0106200D03*
X0135561Y0106300D03*
X0135561Y0106400D03*
X0137861Y0111200D03*
X0137861Y0111300D03*
X0137861Y0111400D03*
X0137861Y0111500D03*
X0137861Y0111600D03*
X0137861Y0111700D03*
X0137861Y0111800D03*
X0137861Y0111900D03*
X0137861Y0112000D03*
X0137861Y0112100D03*
X0137861Y0112200D03*
X0148461Y0108700D03*
X0148461Y0108600D03*
X0148461Y0108500D03*
X0148461Y0108400D03*
X0148461Y0108300D03*
X0148461Y0108200D03*
X0148461Y0108100D03*
X0148461Y0108000D03*
X0148461Y0107900D03*
X0148461Y0107800D03*
X0148461Y0107700D03*
D81*
X0140811Y0112300D03*
X0140811Y0112400D03*
X0140811Y0112500D03*
X0140811Y0112600D03*
X0140811Y0112700D03*
X0140811Y0112800D03*
X0140811Y0112900D03*
X0140811Y0113000D03*
X0140811Y0113100D03*
X0140811Y0113200D03*
X0140811Y0113300D03*
X0140811Y0113400D03*
X0140811Y0092300D03*
X0140811Y0092200D03*
X0140811Y0092100D03*
X0140811Y0092000D03*
X0140811Y0091900D03*
X0140811Y0091800D03*
X0140811Y0091700D03*
X0140811Y0091600D03*
X0140811Y0091500D03*
X0140811Y0091400D03*
X0140811Y0091300D03*
X0140811Y0091200D03*
X0140811Y0091100D03*
X0140811Y0091000D03*
X0140811Y0090900D03*
X0140811Y0090800D03*
X0140811Y0090700D03*
X0140811Y0090600D03*
X0140811Y0090500D03*
X0140811Y0090400D03*
X0140811Y0090300D03*
X0140811Y0090200D03*
X0140811Y0090100D03*
X0133611Y0074000D03*
X0123711Y0070900D03*
X0123511Y0068800D03*
X0121511Y0064500D03*
X0113111Y0068900D03*
X0115811Y0073500D03*
X0115911Y0073600D03*
X0142511Y0071700D03*
X0158311Y0070300D03*
X0167811Y0076500D03*
X0173511Y0071400D03*
D82*
X0162361Y0064500D03*
X0149361Y0075700D03*
X0149361Y0075800D03*
X0141761Y0064800D03*
X0141761Y0064700D03*
X0123561Y0076000D03*
X0120761Y0065200D03*
D83*
X0112311Y0069600D03*
X0114311Y0075400D03*
X0123511Y0075800D03*
X0123511Y0075900D03*
X0136111Y0080700D03*
X0136111Y0080800D03*
X0136111Y0080900D03*
X0136111Y0081000D03*
X0136111Y0081100D03*
X0136111Y0081200D03*
X0136111Y0081300D03*
X0136111Y0081400D03*
X0136111Y0081500D03*
X0136111Y0081600D03*
X0136111Y0081700D03*
X0136111Y0081800D03*
X0136111Y0081900D03*
X0136111Y0082000D03*
X0136111Y0082100D03*
X0136111Y0082200D03*
X0136111Y0082300D03*
X0136111Y0082400D03*
X0136111Y0082500D03*
X0136111Y0082600D03*
X0136111Y0082700D03*
X0136111Y0082800D03*
X0136111Y0082900D03*
X0140811Y0098300D03*
X0140811Y0098400D03*
X0140811Y0098500D03*
X0140811Y0098600D03*
X0140811Y0098700D03*
X0140811Y0098800D03*
X0140811Y0098900D03*
X0140811Y0099000D03*
X0140811Y0099100D03*
X0140811Y0099200D03*
X0140811Y0099300D03*
X0141711Y0064900D03*
X0162411Y0064600D03*
D84*
X0163611Y0070300D03*
X0168111Y0075600D03*
X0121211Y0064800D03*
X0116111Y0076800D03*
D85*
X0112361Y0071900D03*
X0112261Y0071700D03*
X0112261Y0071600D03*
X0112161Y0071500D03*
X0120961Y0068500D03*
X0120961Y0068400D03*
X0121061Y0068600D03*
X0121061Y0068700D03*
X0120261Y0066800D03*
X0120161Y0066600D03*
X0120061Y0066400D03*
X0119961Y0066200D03*
X0119961Y0066100D03*
X0130561Y0065100D03*
X0130561Y0065000D03*
X0130561Y0064900D03*
X0130561Y0064800D03*
X0130661Y0065200D03*
X0130661Y0065300D03*
X0130661Y0065400D03*
X0130661Y0065500D03*
X0161461Y0067700D03*
D86*
X0162311Y0064900D03*
X0162311Y0064800D03*
X0133011Y0077200D03*
X0123511Y0075700D03*
X0121911Y0072500D03*
X0121811Y0072400D03*
X0121811Y0072300D03*
X0114711Y0075600D03*
D87*
X0112611Y0069300D03*
X0121111Y0064900D03*
X0123511Y0077200D03*
X0168311Y0075200D03*
X0172011Y0074100D03*
D88*
X0150011Y0074500D03*
X0149911Y0074600D03*
X0149911Y0074700D03*
X0149811Y0074800D03*
X0123511Y0076400D03*
X0112411Y0069500D03*
X0120911Y0065100D03*
D89*
X0121811Y0072100D03*
X0122211Y0073000D03*
X0122311Y0073100D03*
X0122411Y0073200D03*
X0122911Y0074200D03*
X0114911Y0075700D03*
X0112211Y0069700D03*
X0132811Y0076200D03*
X0132911Y0076400D03*
X0132911Y0076500D03*
X0132911Y0076600D03*
X0141611Y0067400D03*
X0141611Y0065900D03*
X0141611Y0065800D03*
X0141711Y0065600D03*
X0141711Y0065500D03*
X0141711Y0065400D03*
X0151711Y0068400D03*
X0151711Y0068500D03*
X0162211Y0065100D03*
D90*
X0162211Y0065300D03*
X0151711Y0068200D03*
X0151711Y0068300D03*
X0141511Y0067100D03*
X0141511Y0067000D03*
X0141511Y0066400D03*
X0141511Y0066300D03*
X0141511Y0066200D03*
X0132611Y0075400D03*
X0132611Y0075500D03*
X0132711Y0075600D03*
X0132711Y0075700D03*
X0132711Y0075800D03*
X0122711Y0073700D03*
X0122611Y0073500D03*
X0121811Y0072000D03*
X0115411Y0076000D03*
X0115311Y0075900D03*
X0112111Y0069800D03*
D91*
X0132161Y0074100D03*
X0132561Y0075100D03*
X0132561Y0075200D03*
X0132561Y0075300D03*
X0141461Y0066900D03*
X0141461Y0066800D03*
X0141461Y0066700D03*
X0141461Y0066600D03*
X0141461Y0066500D03*
X0151661Y0068100D03*
X0162161Y0065400D03*
D92*
X0162011Y0065800D03*
X0162011Y0065900D03*
X0121811Y0071700D03*
X0112011Y0069900D03*
D93*
X0111911Y0070000D03*
X0151611Y0067500D03*
X0161911Y0066200D03*
X0161911Y0066100D03*
D94*
X0170261Y0072500D03*
X0151561Y0066500D03*
X0131261Y0068600D03*
X0131161Y0068200D03*
X0131161Y0068100D03*
X0131161Y0068000D03*
X0131061Y0067600D03*
X0111761Y0070500D03*
X0111661Y0070400D03*
X0111661Y0070300D03*
D95*
X0151611Y0067100D03*
X0161811Y0066600D03*
X0161811Y0066500D03*
D96*
X0161661Y0067000D03*
X0170361Y0072200D03*
X0170461Y0072100D03*
X0151561Y0066800D03*
X0151561Y0066700D03*
X0131461Y0069400D03*
X0131361Y0069300D03*
X0131361Y0069200D03*
X0131361Y0069100D03*
D97*
X0131511Y0069500D03*
X0111711Y0070200D03*
X0161711Y0066900D03*
X0161711Y0066800D03*
X0170211Y0072300D03*
D98*
X0151661Y0067400D03*
X0121861Y0071400D03*
X0121861Y0071500D03*
D99*
X0124011Y0070300D03*
X0124011Y0070100D03*
X0124011Y0070000D03*
X0124011Y0069900D03*
X0118811Y0069900D03*
X0118711Y0069700D03*
X0118611Y0069500D03*
X0118611Y0069400D03*
X0118511Y0069300D03*
X0118511Y0069200D03*
X0118411Y0069100D03*
X0118411Y0069000D03*
X0118311Y0068900D03*
X0118311Y0068800D03*
X0113411Y0068700D03*
X0109911Y0072900D03*
X0110011Y0073100D03*
X0110011Y0073200D03*
X0110111Y0073400D03*
X0110111Y0073500D03*
X0110211Y0073600D03*
X0110211Y0073700D03*
X0111511Y0074600D03*
X0111711Y0074700D03*
X0111811Y0074800D03*
X0112011Y0074900D03*
X0112111Y0075000D03*
X0112311Y0075100D03*
X0116311Y0074500D03*
X0116711Y0077500D03*
X0142211Y0072400D03*
X0143211Y0070000D03*
X0143311Y0067700D03*
X0152211Y0072300D03*
X0152211Y0072400D03*
X0152111Y0072600D03*
X0152111Y0072700D03*
X0152011Y0072900D03*
X0151911Y0073200D03*
X0151811Y0073500D03*
X0151711Y0073600D03*
X0161311Y0076900D03*
X0161411Y0076600D03*
X0161811Y0075600D03*
X0167611Y0077400D03*
X0174211Y0069800D03*
D100*
X0139461Y0069800D03*
X0139461Y0069700D03*
X0129761Y0077700D03*
X0114861Y0074800D03*
X0114761Y0068000D03*
D101*
X0139461Y0069900D03*
X0147861Y0072600D03*
X0173561Y0068000D03*
D102*
X0147961Y0073100D03*
X0140761Y0077400D03*
X0139561Y0073600D03*
X0139461Y0069200D03*
X0135461Y0070100D03*
X0114561Y0068100D03*
D103*
X0139461Y0069500D03*
X0139461Y0069600D03*
X0147961Y0072900D03*
X0162961Y0077000D03*
X0173661Y0068200D03*
D104*
X0170511Y0072700D03*
X0161411Y0068600D03*
X0161411Y0068500D03*
X0161411Y0068400D03*
X0161411Y0068300D03*
D105*
X0139411Y0068400D03*
X0130411Y0077600D03*
X0122711Y0077600D03*
D106*
X0139611Y0073700D03*
X0139411Y0069100D03*
X0148011Y0073200D03*
X0148811Y0077700D03*
X0154711Y0069100D03*
X0173711Y0068400D03*
D107*
X0173861Y0068800D03*
X0148061Y0073700D03*
X0141061Y0077300D03*
X0139361Y0068500D03*
X0116661Y0075300D03*
D108*
X0113611Y0068600D03*
X0141611Y0077100D03*
X0142411Y0073100D03*
X0142311Y0073000D03*
X0143411Y0069700D03*
X0149411Y0077300D03*
X0170311Y0074500D03*
D109*
X0173811Y0068600D03*
X0154511Y0069000D03*
X0148011Y0073500D03*
X0139411Y0068800D03*
X0139411Y0068700D03*
X0115311Y0074700D03*
X0115911Y0077700D03*
D110*
X0115311Y0072400D03*
X0113311Y0068800D03*
X0123111Y0077400D03*
X0142311Y0072100D03*
X0143011Y0070200D03*
X0150211Y0068700D03*
X0150311Y0068800D03*
X0150311Y0068900D03*
X0150411Y0069000D03*
X0150511Y0069200D03*
X0150611Y0069300D03*
X0150611Y0069400D03*
X0150711Y0069500D03*
X0150811Y0069700D03*
X0150911Y0069800D03*
X0151011Y0070000D03*
X0151111Y0070200D03*
X0151311Y0070500D03*
X0151411Y0074000D03*
X0156911Y0075200D03*
X0156911Y0075300D03*
X0157011Y0074900D03*
X0157011Y0074800D03*
X0157111Y0074600D03*
X0157111Y0074500D03*
X0157111Y0074400D03*
X0157211Y0074300D03*
X0157211Y0074200D03*
X0157211Y0074100D03*
X0157311Y0073800D03*
X0157311Y0073700D03*
X0157411Y0073400D03*
X0167711Y0076900D03*
X0174311Y0070000D03*
D111*
X0161361Y0068800D03*
X0161361Y0068700D03*
D112*
X0161411Y0068900D03*
X0161411Y0069000D03*
D113*
X0161361Y0069100D03*
X0161361Y0069200D03*
X0161361Y0069300D03*
X0161361Y0069400D03*
X0170661Y0072800D03*
X0170261Y0073800D03*
D114*
X0167111Y0070600D03*
X0154911Y0069200D03*
X0139511Y0073500D03*
X0135711Y0070200D03*
X0122411Y0077700D03*
D115*
X0115811Y0074600D03*
X0149411Y0077600D03*
X0167911Y0071000D03*
X0174011Y0069200D03*
D116*
X0167661Y0077200D03*
X0167661Y0077300D03*
X0162261Y0074700D03*
X0162261Y0074600D03*
X0162361Y0074400D03*
X0162461Y0074200D03*
X0162561Y0074000D03*
X0162661Y0073800D03*
X0162761Y0073600D03*
X0162861Y0073400D03*
X0162961Y0073200D03*
X0163061Y0073000D03*
X0163161Y0072800D03*
X0162161Y0074800D03*
X0162161Y0074900D03*
X0162061Y0075000D03*
X0162061Y0075100D03*
X0161961Y0075200D03*
X0161961Y0075300D03*
X0161861Y0075400D03*
X0161861Y0075500D03*
X0161761Y0075700D03*
X0161761Y0075800D03*
X0161661Y0075900D03*
X0161661Y0076000D03*
X0161561Y0076100D03*
X0161561Y0076200D03*
X0161561Y0076300D03*
X0161461Y0076400D03*
X0161461Y0076500D03*
X0161361Y0076700D03*
X0161361Y0076800D03*
X0151661Y0073700D03*
X0151561Y0073800D03*
X0141461Y0076800D03*
X0123961Y0070400D03*
X0123961Y0069800D03*
X0123961Y0069700D03*
X0123861Y0069600D03*
X0123861Y0069500D03*
X0123861Y0069400D03*
X0112561Y0075200D03*
X0111361Y0074500D03*
X0111161Y0074400D03*
X0110861Y0074200D03*
X0110661Y0074100D03*
X0110361Y0073900D03*
X0110061Y0073300D03*
X0109961Y0073000D03*
X0109861Y0072800D03*
X0109861Y0072700D03*
X0109761Y0072600D03*
X0109761Y0072500D03*
X0109761Y0072400D03*
X0109661Y0072300D03*
D117*
X0161311Y0069600D03*
X0161311Y0069500D03*
D118*
X0161361Y0069700D03*
X0161361Y0069800D03*
X0170361Y0073700D03*
D119*
X0170411Y0073600D03*
X0161311Y0070000D03*
X0161311Y0069900D03*
D120*
X0163661Y0071300D03*
X0163661Y0071400D03*
X0158361Y0070200D03*
X0158361Y0070100D03*
X0158261Y0070400D03*
X0158261Y0070500D03*
X0158261Y0070600D03*
X0158161Y0070700D03*
X0158161Y0070800D03*
X0158161Y0070900D03*
X0158061Y0071100D03*
X0158061Y0071200D03*
X0157961Y0071500D03*
X0149461Y0076900D03*
X0142461Y0071800D03*
X0142861Y0070400D03*
X0141361Y0076500D03*
X0131761Y0077400D03*
X0123761Y0070800D03*
X0116161Y0073900D03*
X0116061Y0073800D03*
X0115961Y0073700D03*
X0112961Y0075300D03*
X0116461Y0077200D03*
X0167761Y0076600D03*
D121*
X0170461Y0073500D03*
X0170761Y0072900D03*
D122*
X0170811Y0073000D03*
X0170711Y0073200D03*
D123*
X0170861Y0073100D03*
D124*
X0170661Y0073300D03*
X0170561Y0073400D03*
D125*
X0168411Y0075000D03*
X0149511Y0076300D03*
X0123511Y0076900D03*
X0123511Y0077000D03*
X0123511Y0077100D03*
X0115911Y0076600D03*
D126*
X0141411Y0086600D03*
X0141411Y0086700D03*
X0141411Y0086800D03*
X0141411Y0086900D03*
X0141411Y0087000D03*
X0141411Y0087100D03*
X0141411Y0087200D03*
X0141411Y0087300D03*
X0141411Y0087400D03*
X0141411Y0087500D03*
X0141411Y0087600D03*
X0141411Y0087700D03*
X0141411Y0087800D03*
X0141411Y0087900D03*
X0141411Y0088000D03*
X0141411Y0088100D03*
X0141411Y0088200D03*
X0141411Y0088300D03*
X0141411Y0088400D03*
X0141411Y0088500D03*
X0141411Y0088600D03*
X0141411Y0088700D03*
X0141411Y0088800D03*
X0141411Y0093600D03*
X0141411Y0093700D03*
X0141411Y0093800D03*
X0141411Y0093900D03*
X0141411Y0094000D03*
X0141411Y0094100D03*
X0141411Y0094200D03*
X0141411Y0094300D03*
X0141411Y0094400D03*
X0141411Y0094500D03*
X0141411Y0094600D03*
X0141411Y0094700D03*
D127*
X0140811Y0090000D03*
X0140811Y0089900D03*
X0140811Y0089800D03*
X0140811Y0089700D03*
X0140811Y0089600D03*
X0140811Y0089500D03*
X0140811Y0089400D03*
X0140811Y0089300D03*
X0140811Y0089200D03*
X0140811Y0089100D03*
X0140811Y0089000D03*
X0140811Y0088900D03*
X0140811Y0106500D03*
X0140811Y0106600D03*
X0140811Y0106700D03*
X0140811Y0106800D03*
X0140811Y0106900D03*
X0140811Y0107000D03*
X0140811Y0107100D03*
X0140811Y0107200D03*
X0140811Y0107300D03*
X0140811Y0107400D03*
X0140811Y0107500D03*
X0140811Y0107600D03*
D128*
X0139661Y0107700D03*
X0139661Y0107800D03*
X0139661Y0107900D03*
X0139661Y0108000D03*
X0139661Y0108100D03*
X0139661Y0108200D03*
X0139661Y0108300D03*
X0139661Y0108400D03*
X0139661Y0108500D03*
X0139661Y0108600D03*
X0139661Y0108700D03*
X0139661Y0108800D03*
X0139661Y0108900D03*
X0139661Y0109000D03*
X0139661Y0109100D03*
X0139661Y0109200D03*
X0139661Y0109300D03*
X0139661Y0109400D03*
X0139661Y0109500D03*
X0139661Y0109600D03*
X0139661Y0109700D03*
X0139661Y0109800D03*
X0139661Y0109900D03*
X0141961Y0093500D03*
X0141961Y0093400D03*
X0141961Y0093300D03*
X0141961Y0093200D03*
X0141961Y0093100D03*
X0141961Y0093000D03*
X0141961Y0092900D03*
X0141961Y0092800D03*
X0141961Y0092700D03*
X0141961Y0092600D03*
X0141961Y0092500D03*
X0141961Y0092400D03*
D129*
X0141961Y0094800D03*
X0141961Y0094900D03*
X0141961Y0095000D03*
X0141961Y0095100D03*
X0141961Y0095200D03*
X0141961Y0095300D03*
X0141961Y0095400D03*
X0141961Y0095500D03*
X0141961Y0095600D03*
X0141961Y0095700D03*
X0141961Y0095800D03*
X0143161Y0099500D03*
X0143161Y0099600D03*
X0143161Y0099700D03*
X0143161Y0099800D03*
X0143161Y0099900D03*
X0143161Y0100000D03*
X0143161Y0100100D03*
X0143161Y0100200D03*
X0143161Y0100300D03*
X0143161Y0100400D03*
X0143161Y0100500D03*
D130*
X0142561Y0097000D03*
X0142561Y0096900D03*
X0142561Y0096800D03*
X0142561Y0096700D03*
X0142561Y0096600D03*
X0142561Y0096500D03*
X0142561Y0096400D03*
X0142561Y0096300D03*
X0142561Y0096200D03*
X0142561Y0096100D03*
X0142561Y0096000D03*
X0142561Y0095900D03*
D131*
X0142011Y0099400D03*
D132*
X0258463Y0190470D03*
X0264263Y0190470D03*
D133*
X0260949Y0182602D03*
D134*
X0201674Y0213939D02*
X0200406Y0212671D01*
X0200406Y0212354D01*
X0199147Y0212671D02*
X0199147Y0214256D01*
X0198830Y0214256D02*
X0199464Y0214256D01*
X0200406Y0214256D02*
X0201674Y0214256D01*
X0201674Y0213939D01*
X0199147Y0212671D02*
X0198830Y0212354D01*
X0198513Y0212354D01*
X0198196Y0212671D01*
X0141960Y0201748D02*
X0141643Y0202065D01*
X0141009Y0202065D01*
X0140692Y0201748D01*
X0139750Y0202065D02*
X0139116Y0202065D01*
X0139433Y0202065D02*
X0139433Y0200480D01*
X0139116Y0200163D01*
X0138799Y0200163D01*
X0138482Y0200480D01*
X0140692Y0200163D02*
X0141960Y0201431D01*
X0141960Y0201748D01*
X0141960Y0200163D02*
X0140692Y0200163D01*
X0078968Y0225754D02*
X0077700Y0225754D01*
X0078334Y0225754D02*
X0078334Y0227656D01*
X0077700Y0227022D01*
X0076758Y0227656D02*
X0076124Y0227656D01*
X0076441Y0227656D02*
X0076441Y0226071D01*
X0076124Y0225754D01*
X0075807Y0225754D01*
X0075490Y0226071D01*
X0049115Y0180791D02*
X0048481Y0180474D01*
X0047847Y0179840D01*
X0048798Y0179840D01*
X0049115Y0179523D01*
X0049115Y0179206D01*
X0048798Y0178889D01*
X0048164Y0178889D01*
X0047847Y0179206D01*
X0047847Y0179840D01*
X0046905Y0180791D02*
X0046271Y0180791D01*
X0046588Y0180791D02*
X0046588Y0179206D01*
X0046271Y0178889D01*
X0045954Y0178889D01*
X0045637Y0179206D01*
X0046271Y0168980D02*
X0046905Y0168980D01*
X0046588Y0168980D02*
X0046588Y0167395D01*
X0046271Y0167078D01*
X0045954Y0167078D01*
X0045637Y0167395D01*
X0047847Y0167395D02*
X0048164Y0167078D01*
X0048798Y0167078D01*
X0049115Y0167395D01*
X0049115Y0168029D01*
X0048798Y0168346D01*
X0048481Y0168346D01*
X0047847Y0168029D01*
X0047847Y0168980D01*
X0049115Y0168980D01*
X0126671Y0145362D02*
X0126988Y0145045D01*
X0127305Y0145045D01*
X0127622Y0145362D01*
X0127622Y0146947D01*
X0127305Y0146947D02*
X0127939Y0146947D01*
X0128881Y0145996D02*
X0130149Y0145996D01*
X0129832Y0145045D02*
X0129832Y0146947D01*
X0128881Y0145996D01*
M02*
