G75*
%MOIN*%
%OFA0B0*%
%FSLAX25Y25*%
%IPPOS*%
%LPD*%
%AMOC8*
5,1,8,0,0,1.08239X$1,22.5*
%
%ADD10C,0.00000*%
%ADD11C,0.01602*%
%ADD12C,0.04000*%
%ADD13C,0.01575*%
%ADD14C,0.01587*%
%ADD15C,0.01598*%
%ADD16C,0.01378*%
%ADD17C,0.01630*%
%ADD18C,0.01571*%
%ADD19C,0.01594*%
%ADD20C,0.01590*%
%ADD21C,0.07400*%
%ADD22C,0.01000*%
%ADD23C,0.03962*%
%ADD24C,0.03569*%
D10*
X0005437Y0040870D02*
X0068429Y0040870D01*
X0068429Y0005437D01*
X0068431Y0005313D01*
X0068437Y0005190D01*
X0068446Y0005066D01*
X0068460Y0004944D01*
X0068477Y0004821D01*
X0068499Y0004699D01*
X0068524Y0004578D01*
X0068553Y0004458D01*
X0068585Y0004339D01*
X0068622Y0004220D01*
X0068662Y0004103D01*
X0068705Y0003988D01*
X0068753Y0003873D01*
X0068804Y0003761D01*
X0068858Y0003650D01*
X0068916Y0003540D01*
X0068977Y0003433D01*
X0069042Y0003327D01*
X0069110Y0003224D01*
X0069181Y0003123D01*
X0069255Y0003024D01*
X0069332Y0002927D01*
X0069413Y0002833D01*
X0069496Y0002742D01*
X0069582Y0002653D01*
X0069671Y0002567D01*
X0069762Y0002484D01*
X0069856Y0002403D01*
X0069953Y0002326D01*
X0070052Y0002252D01*
X0070153Y0002181D01*
X0070256Y0002113D01*
X0070362Y0002048D01*
X0070469Y0001987D01*
X0070579Y0001929D01*
X0070690Y0001875D01*
X0070802Y0001824D01*
X0070917Y0001776D01*
X0071032Y0001733D01*
X0071149Y0001693D01*
X0071268Y0001656D01*
X0071387Y0001624D01*
X0071507Y0001595D01*
X0071628Y0001570D01*
X0071750Y0001548D01*
X0071873Y0001531D01*
X0071995Y0001517D01*
X0072119Y0001508D01*
X0072242Y0001502D01*
X0072366Y0001500D01*
X0194413Y0001500D01*
X0194537Y0001502D01*
X0194660Y0001508D01*
X0194784Y0001517D01*
X0194906Y0001531D01*
X0195029Y0001548D01*
X0195151Y0001570D01*
X0195272Y0001595D01*
X0195392Y0001624D01*
X0195511Y0001656D01*
X0195630Y0001693D01*
X0195747Y0001733D01*
X0195862Y0001776D01*
X0195977Y0001824D01*
X0196089Y0001875D01*
X0196200Y0001929D01*
X0196310Y0001987D01*
X0196417Y0002048D01*
X0196523Y0002113D01*
X0196626Y0002181D01*
X0196727Y0002252D01*
X0196826Y0002326D01*
X0196923Y0002403D01*
X0197017Y0002484D01*
X0197108Y0002567D01*
X0197197Y0002653D01*
X0197283Y0002742D01*
X0197366Y0002833D01*
X0197447Y0002927D01*
X0197524Y0003024D01*
X0197598Y0003123D01*
X0197669Y0003224D01*
X0197737Y0003327D01*
X0197802Y0003433D01*
X0197863Y0003540D01*
X0197921Y0003650D01*
X0197975Y0003761D01*
X0198026Y0003873D01*
X0198074Y0003988D01*
X0198117Y0004103D01*
X0198157Y0004220D01*
X0198194Y0004339D01*
X0198226Y0004458D01*
X0198255Y0004578D01*
X0198280Y0004699D01*
X0198302Y0004821D01*
X0198319Y0004944D01*
X0198333Y0005066D01*
X0198342Y0005190D01*
X0198348Y0005313D01*
X0198350Y0005437D01*
X0198350Y0040870D01*
X0273154Y0040870D01*
X0273278Y0040872D01*
X0273401Y0040878D01*
X0273525Y0040887D01*
X0273647Y0040901D01*
X0273770Y0040918D01*
X0273892Y0040940D01*
X0274013Y0040965D01*
X0274133Y0040994D01*
X0274252Y0041026D01*
X0274371Y0041063D01*
X0274488Y0041103D01*
X0274603Y0041146D01*
X0274718Y0041194D01*
X0274830Y0041245D01*
X0274941Y0041299D01*
X0275051Y0041357D01*
X0275158Y0041418D01*
X0275264Y0041483D01*
X0275367Y0041551D01*
X0275468Y0041622D01*
X0275567Y0041696D01*
X0275664Y0041773D01*
X0275758Y0041854D01*
X0275849Y0041937D01*
X0275938Y0042023D01*
X0276024Y0042112D01*
X0276107Y0042203D01*
X0276188Y0042297D01*
X0276265Y0042394D01*
X0276339Y0042493D01*
X0276410Y0042594D01*
X0276478Y0042697D01*
X0276543Y0042803D01*
X0276604Y0042910D01*
X0276662Y0043020D01*
X0276716Y0043131D01*
X0276767Y0043243D01*
X0276815Y0043358D01*
X0276858Y0043473D01*
X0276898Y0043590D01*
X0276935Y0043709D01*
X0276967Y0043828D01*
X0276996Y0043948D01*
X0277021Y0044069D01*
X0277043Y0044191D01*
X0277060Y0044314D01*
X0277074Y0044436D01*
X0277083Y0044560D01*
X0277089Y0044683D01*
X0277091Y0044807D01*
X0277091Y0223941D01*
X0277089Y0224065D01*
X0277083Y0224188D01*
X0277074Y0224312D01*
X0277060Y0224434D01*
X0277043Y0224557D01*
X0277021Y0224679D01*
X0276996Y0224800D01*
X0276967Y0224920D01*
X0276935Y0225039D01*
X0276898Y0225158D01*
X0276858Y0225275D01*
X0276815Y0225390D01*
X0276767Y0225505D01*
X0276716Y0225617D01*
X0276662Y0225728D01*
X0276604Y0225838D01*
X0276543Y0225945D01*
X0276478Y0226051D01*
X0276410Y0226154D01*
X0276339Y0226255D01*
X0276265Y0226354D01*
X0276188Y0226451D01*
X0276107Y0226545D01*
X0276024Y0226636D01*
X0275938Y0226725D01*
X0275849Y0226811D01*
X0275758Y0226894D01*
X0275664Y0226975D01*
X0275567Y0227052D01*
X0275468Y0227126D01*
X0275367Y0227197D01*
X0275264Y0227265D01*
X0275158Y0227330D01*
X0275051Y0227391D01*
X0274941Y0227449D01*
X0274830Y0227503D01*
X0274718Y0227554D01*
X0274603Y0227602D01*
X0274488Y0227645D01*
X0274371Y0227685D01*
X0274252Y0227722D01*
X0274133Y0227754D01*
X0274013Y0227783D01*
X0273892Y0227808D01*
X0273770Y0227830D01*
X0273647Y0227847D01*
X0273525Y0227861D01*
X0273401Y0227870D01*
X0273278Y0227876D01*
X0273154Y0227878D01*
X0005437Y0227878D01*
X0005313Y0227876D01*
X0005190Y0227870D01*
X0005066Y0227861D01*
X0004944Y0227847D01*
X0004821Y0227830D01*
X0004699Y0227808D01*
X0004578Y0227783D01*
X0004458Y0227754D01*
X0004339Y0227722D01*
X0004220Y0227685D01*
X0004103Y0227645D01*
X0003988Y0227602D01*
X0003873Y0227554D01*
X0003761Y0227503D01*
X0003650Y0227449D01*
X0003540Y0227391D01*
X0003433Y0227330D01*
X0003327Y0227265D01*
X0003224Y0227197D01*
X0003123Y0227126D01*
X0003024Y0227052D01*
X0002927Y0226975D01*
X0002833Y0226894D01*
X0002742Y0226811D01*
X0002653Y0226725D01*
X0002567Y0226636D01*
X0002484Y0226545D01*
X0002403Y0226451D01*
X0002326Y0226354D01*
X0002252Y0226255D01*
X0002181Y0226154D01*
X0002113Y0226051D01*
X0002048Y0225945D01*
X0001987Y0225838D01*
X0001929Y0225728D01*
X0001875Y0225617D01*
X0001824Y0225505D01*
X0001776Y0225390D01*
X0001733Y0225275D01*
X0001693Y0225158D01*
X0001656Y0225039D01*
X0001624Y0224920D01*
X0001595Y0224800D01*
X0001570Y0224679D01*
X0001548Y0224557D01*
X0001531Y0224434D01*
X0001517Y0224312D01*
X0001508Y0224188D01*
X0001502Y0224065D01*
X0001500Y0223941D01*
X0001500Y0044807D01*
X0001502Y0044683D01*
X0001508Y0044560D01*
X0001517Y0044436D01*
X0001531Y0044314D01*
X0001548Y0044191D01*
X0001570Y0044069D01*
X0001595Y0043948D01*
X0001624Y0043828D01*
X0001656Y0043709D01*
X0001693Y0043590D01*
X0001733Y0043473D01*
X0001776Y0043358D01*
X0001824Y0043243D01*
X0001875Y0043131D01*
X0001929Y0043020D01*
X0001987Y0042910D01*
X0002048Y0042803D01*
X0002113Y0042697D01*
X0002181Y0042594D01*
X0002252Y0042493D01*
X0002326Y0042394D01*
X0002403Y0042297D01*
X0002484Y0042203D01*
X0002567Y0042112D01*
X0002653Y0042023D01*
X0002742Y0041937D01*
X0002833Y0041854D01*
X0002927Y0041773D01*
X0003024Y0041696D01*
X0003123Y0041622D01*
X0003224Y0041551D01*
X0003327Y0041483D01*
X0003433Y0041418D01*
X0003540Y0041357D01*
X0003650Y0041299D01*
X0003761Y0041245D01*
X0003873Y0041194D01*
X0003988Y0041146D01*
X0004103Y0041103D01*
X0004220Y0041063D01*
X0004339Y0041026D01*
X0004458Y0040994D01*
X0004578Y0040965D01*
X0004699Y0040940D01*
X0004821Y0040918D01*
X0004944Y0040901D01*
X0005066Y0040887D01*
X0005190Y0040878D01*
X0005313Y0040872D01*
X0005437Y0040870D01*
X0006220Y0056618D02*
X0006222Y0056779D01*
X0006228Y0056939D01*
X0006238Y0057100D01*
X0006252Y0057260D01*
X0006270Y0057420D01*
X0006291Y0057579D01*
X0006317Y0057738D01*
X0006347Y0057896D01*
X0006380Y0058053D01*
X0006418Y0058210D01*
X0006459Y0058365D01*
X0006504Y0058519D01*
X0006553Y0058672D01*
X0006606Y0058824D01*
X0006662Y0058975D01*
X0006723Y0059124D01*
X0006786Y0059272D01*
X0006854Y0059418D01*
X0006925Y0059562D01*
X0006999Y0059704D01*
X0007077Y0059845D01*
X0007159Y0059983D01*
X0007244Y0060120D01*
X0007332Y0060254D01*
X0007424Y0060386D01*
X0007519Y0060516D01*
X0007617Y0060644D01*
X0007718Y0060769D01*
X0007822Y0060891D01*
X0007929Y0061011D01*
X0008039Y0061128D01*
X0008152Y0061243D01*
X0008268Y0061354D01*
X0008387Y0061463D01*
X0008508Y0061568D01*
X0008632Y0061671D01*
X0008758Y0061771D01*
X0008886Y0061867D01*
X0009017Y0061960D01*
X0009151Y0062050D01*
X0009286Y0062137D01*
X0009424Y0062220D01*
X0009563Y0062300D01*
X0009705Y0062376D01*
X0009848Y0062449D01*
X0009993Y0062518D01*
X0010140Y0062584D01*
X0010288Y0062646D01*
X0010438Y0062704D01*
X0010589Y0062759D01*
X0010742Y0062810D01*
X0010896Y0062857D01*
X0011051Y0062900D01*
X0011207Y0062939D01*
X0011363Y0062975D01*
X0011521Y0063006D01*
X0011679Y0063034D01*
X0011838Y0063058D01*
X0011998Y0063078D01*
X0012158Y0063094D01*
X0012318Y0063106D01*
X0012479Y0063114D01*
X0012640Y0063118D01*
X0012800Y0063118D01*
X0012961Y0063114D01*
X0013122Y0063106D01*
X0013282Y0063094D01*
X0013442Y0063078D01*
X0013602Y0063058D01*
X0013761Y0063034D01*
X0013919Y0063006D01*
X0014077Y0062975D01*
X0014233Y0062939D01*
X0014389Y0062900D01*
X0014544Y0062857D01*
X0014698Y0062810D01*
X0014851Y0062759D01*
X0015002Y0062704D01*
X0015152Y0062646D01*
X0015300Y0062584D01*
X0015447Y0062518D01*
X0015592Y0062449D01*
X0015735Y0062376D01*
X0015877Y0062300D01*
X0016016Y0062220D01*
X0016154Y0062137D01*
X0016289Y0062050D01*
X0016423Y0061960D01*
X0016554Y0061867D01*
X0016682Y0061771D01*
X0016808Y0061671D01*
X0016932Y0061568D01*
X0017053Y0061463D01*
X0017172Y0061354D01*
X0017288Y0061243D01*
X0017401Y0061128D01*
X0017511Y0061011D01*
X0017618Y0060891D01*
X0017722Y0060769D01*
X0017823Y0060644D01*
X0017921Y0060516D01*
X0018016Y0060386D01*
X0018108Y0060254D01*
X0018196Y0060120D01*
X0018281Y0059983D01*
X0018363Y0059845D01*
X0018441Y0059704D01*
X0018515Y0059562D01*
X0018586Y0059418D01*
X0018654Y0059272D01*
X0018717Y0059124D01*
X0018778Y0058975D01*
X0018834Y0058824D01*
X0018887Y0058672D01*
X0018936Y0058519D01*
X0018981Y0058365D01*
X0019022Y0058210D01*
X0019060Y0058053D01*
X0019093Y0057896D01*
X0019123Y0057738D01*
X0019149Y0057579D01*
X0019170Y0057420D01*
X0019188Y0057260D01*
X0019202Y0057100D01*
X0019212Y0056939D01*
X0019218Y0056779D01*
X0019220Y0056618D01*
X0019218Y0056457D01*
X0019212Y0056297D01*
X0019202Y0056136D01*
X0019188Y0055976D01*
X0019170Y0055816D01*
X0019149Y0055657D01*
X0019123Y0055498D01*
X0019093Y0055340D01*
X0019060Y0055183D01*
X0019022Y0055026D01*
X0018981Y0054871D01*
X0018936Y0054717D01*
X0018887Y0054564D01*
X0018834Y0054412D01*
X0018778Y0054261D01*
X0018717Y0054112D01*
X0018654Y0053964D01*
X0018586Y0053818D01*
X0018515Y0053674D01*
X0018441Y0053532D01*
X0018363Y0053391D01*
X0018281Y0053253D01*
X0018196Y0053116D01*
X0018108Y0052982D01*
X0018016Y0052850D01*
X0017921Y0052720D01*
X0017823Y0052592D01*
X0017722Y0052467D01*
X0017618Y0052345D01*
X0017511Y0052225D01*
X0017401Y0052108D01*
X0017288Y0051993D01*
X0017172Y0051882D01*
X0017053Y0051773D01*
X0016932Y0051668D01*
X0016808Y0051565D01*
X0016682Y0051465D01*
X0016554Y0051369D01*
X0016423Y0051276D01*
X0016289Y0051186D01*
X0016154Y0051099D01*
X0016016Y0051016D01*
X0015877Y0050936D01*
X0015735Y0050860D01*
X0015592Y0050787D01*
X0015447Y0050718D01*
X0015300Y0050652D01*
X0015152Y0050590D01*
X0015002Y0050532D01*
X0014851Y0050477D01*
X0014698Y0050426D01*
X0014544Y0050379D01*
X0014389Y0050336D01*
X0014233Y0050297D01*
X0014077Y0050261D01*
X0013919Y0050230D01*
X0013761Y0050202D01*
X0013602Y0050178D01*
X0013442Y0050158D01*
X0013282Y0050142D01*
X0013122Y0050130D01*
X0012961Y0050122D01*
X0012800Y0050118D01*
X0012640Y0050118D01*
X0012479Y0050122D01*
X0012318Y0050130D01*
X0012158Y0050142D01*
X0011998Y0050158D01*
X0011838Y0050178D01*
X0011679Y0050202D01*
X0011521Y0050230D01*
X0011363Y0050261D01*
X0011207Y0050297D01*
X0011051Y0050336D01*
X0010896Y0050379D01*
X0010742Y0050426D01*
X0010589Y0050477D01*
X0010438Y0050532D01*
X0010288Y0050590D01*
X0010140Y0050652D01*
X0009993Y0050718D01*
X0009848Y0050787D01*
X0009705Y0050860D01*
X0009563Y0050936D01*
X0009424Y0051016D01*
X0009286Y0051099D01*
X0009151Y0051186D01*
X0009017Y0051276D01*
X0008886Y0051369D01*
X0008758Y0051465D01*
X0008632Y0051565D01*
X0008508Y0051668D01*
X0008387Y0051773D01*
X0008268Y0051882D01*
X0008152Y0051993D01*
X0008039Y0052108D01*
X0007929Y0052225D01*
X0007822Y0052345D01*
X0007718Y0052467D01*
X0007617Y0052592D01*
X0007519Y0052720D01*
X0007424Y0052850D01*
X0007332Y0052982D01*
X0007244Y0053116D01*
X0007159Y0053253D01*
X0007077Y0053391D01*
X0006999Y0053532D01*
X0006925Y0053674D01*
X0006854Y0053818D01*
X0006786Y0053964D01*
X0006723Y0054112D01*
X0006662Y0054261D01*
X0006606Y0054412D01*
X0006553Y0054564D01*
X0006504Y0054717D01*
X0006459Y0054871D01*
X0006418Y0055026D01*
X0006380Y0055183D01*
X0006347Y0055340D01*
X0006317Y0055498D01*
X0006291Y0055657D01*
X0006270Y0055816D01*
X0006252Y0055976D01*
X0006238Y0056136D01*
X0006228Y0056297D01*
X0006222Y0056457D01*
X0006220Y0056618D01*
X0081024Y0048744D02*
X0081026Y0048905D01*
X0081032Y0049065D01*
X0081042Y0049226D01*
X0081056Y0049386D01*
X0081074Y0049546D01*
X0081095Y0049705D01*
X0081121Y0049864D01*
X0081151Y0050022D01*
X0081184Y0050179D01*
X0081222Y0050336D01*
X0081263Y0050491D01*
X0081308Y0050645D01*
X0081357Y0050798D01*
X0081410Y0050950D01*
X0081466Y0051101D01*
X0081527Y0051250D01*
X0081590Y0051398D01*
X0081658Y0051544D01*
X0081729Y0051688D01*
X0081803Y0051830D01*
X0081881Y0051971D01*
X0081963Y0052109D01*
X0082048Y0052246D01*
X0082136Y0052380D01*
X0082228Y0052512D01*
X0082323Y0052642D01*
X0082421Y0052770D01*
X0082522Y0052895D01*
X0082626Y0053017D01*
X0082733Y0053137D01*
X0082843Y0053254D01*
X0082956Y0053369D01*
X0083072Y0053480D01*
X0083191Y0053589D01*
X0083312Y0053694D01*
X0083436Y0053797D01*
X0083562Y0053897D01*
X0083690Y0053993D01*
X0083821Y0054086D01*
X0083955Y0054176D01*
X0084090Y0054263D01*
X0084228Y0054346D01*
X0084367Y0054426D01*
X0084509Y0054502D01*
X0084652Y0054575D01*
X0084797Y0054644D01*
X0084944Y0054710D01*
X0085092Y0054772D01*
X0085242Y0054830D01*
X0085393Y0054885D01*
X0085546Y0054936D01*
X0085700Y0054983D01*
X0085855Y0055026D01*
X0086011Y0055065D01*
X0086167Y0055101D01*
X0086325Y0055132D01*
X0086483Y0055160D01*
X0086642Y0055184D01*
X0086802Y0055204D01*
X0086962Y0055220D01*
X0087122Y0055232D01*
X0087283Y0055240D01*
X0087444Y0055244D01*
X0087604Y0055244D01*
X0087765Y0055240D01*
X0087926Y0055232D01*
X0088086Y0055220D01*
X0088246Y0055204D01*
X0088406Y0055184D01*
X0088565Y0055160D01*
X0088723Y0055132D01*
X0088881Y0055101D01*
X0089037Y0055065D01*
X0089193Y0055026D01*
X0089348Y0054983D01*
X0089502Y0054936D01*
X0089655Y0054885D01*
X0089806Y0054830D01*
X0089956Y0054772D01*
X0090104Y0054710D01*
X0090251Y0054644D01*
X0090396Y0054575D01*
X0090539Y0054502D01*
X0090681Y0054426D01*
X0090820Y0054346D01*
X0090958Y0054263D01*
X0091093Y0054176D01*
X0091227Y0054086D01*
X0091358Y0053993D01*
X0091486Y0053897D01*
X0091612Y0053797D01*
X0091736Y0053694D01*
X0091857Y0053589D01*
X0091976Y0053480D01*
X0092092Y0053369D01*
X0092205Y0053254D01*
X0092315Y0053137D01*
X0092422Y0053017D01*
X0092526Y0052895D01*
X0092627Y0052770D01*
X0092725Y0052642D01*
X0092820Y0052512D01*
X0092912Y0052380D01*
X0093000Y0052246D01*
X0093085Y0052109D01*
X0093167Y0051971D01*
X0093245Y0051830D01*
X0093319Y0051688D01*
X0093390Y0051544D01*
X0093458Y0051398D01*
X0093521Y0051250D01*
X0093582Y0051101D01*
X0093638Y0050950D01*
X0093691Y0050798D01*
X0093740Y0050645D01*
X0093785Y0050491D01*
X0093826Y0050336D01*
X0093864Y0050179D01*
X0093897Y0050022D01*
X0093927Y0049864D01*
X0093953Y0049705D01*
X0093974Y0049546D01*
X0093992Y0049386D01*
X0094006Y0049226D01*
X0094016Y0049065D01*
X0094022Y0048905D01*
X0094024Y0048744D01*
X0094022Y0048583D01*
X0094016Y0048423D01*
X0094006Y0048262D01*
X0093992Y0048102D01*
X0093974Y0047942D01*
X0093953Y0047783D01*
X0093927Y0047624D01*
X0093897Y0047466D01*
X0093864Y0047309D01*
X0093826Y0047152D01*
X0093785Y0046997D01*
X0093740Y0046843D01*
X0093691Y0046690D01*
X0093638Y0046538D01*
X0093582Y0046387D01*
X0093521Y0046238D01*
X0093458Y0046090D01*
X0093390Y0045944D01*
X0093319Y0045800D01*
X0093245Y0045658D01*
X0093167Y0045517D01*
X0093085Y0045379D01*
X0093000Y0045242D01*
X0092912Y0045108D01*
X0092820Y0044976D01*
X0092725Y0044846D01*
X0092627Y0044718D01*
X0092526Y0044593D01*
X0092422Y0044471D01*
X0092315Y0044351D01*
X0092205Y0044234D01*
X0092092Y0044119D01*
X0091976Y0044008D01*
X0091857Y0043899D01*
X0091736Y0043794D01*
X0091612Y0043691D01*
X0091486Y0043591D01*
X0091358Y0043495D01*
X0091227Y0043402D01*
X0091093Y0043312D01*
X0090958Y0043225D01*
X0090820Y0043142D01*
X0090681Y0043062D01*
X0090539Y0042986D01*
X0090396Y0042913D01*
X0090251Y0042844D01*
X0090104Y0042778D01*
X0089956Y0042716D01*
X0089806Y0042658D01*
X0089655Y0042603D01*
X0089502Y0042552D01*
X0089348Y0042505D01*
X0089193Y0042462D01*
X0089037Y0042423D01*
X0088881Y0042387D01*
X0088723Y0042356D01*
X0088565Y0042328D01*
X0088406Y0042304D01*
X0088246Y0042284D01*
X0088086Y0042268D01*
X0087926Y0042256D01*
X0087765Y0042248D01*
X0087604Y0042244D01*
X0087444Y0042244D01*
X0087283Y0042248D01*
X0087122Y0042256D01*
X0086962Y0042268D01*
X0086802Y0042284D01*
X0086642Y0042304D01*
X0086483Y0042328D01*
X0086325Y0042356D01*
X0086167Y0042387D01*
X0086011Y0042423D01*
X0085855Y0042462D01*
X0085700Y0042505D01*
X0085546Y0042552D01*
X0085393Y0042603D01*
X0085242Y0042658D01*
X0085092Y0042716D01*
X0084944Y0042778D01*
X0084797Y0042844D01*
X0084652Y0042913D01*
X0084509Y0042986D01*
X0084367Y0043062D01*
X0084228Y0043142D01*
X0084090Y0043225D01*
X0083955Y0043312D01*
X0083821Y0043402D01*
X0083690Y0043495D01*
X0083562Y0043591D01*
X0083436Y0043691D01*
X0083312Y0043794D01*
X0083191Y0043899D01*
X0083072Y0044008D01*
X0082956Y0044119D01*
X0082843Y0044234D01*
X0082733Y0044351D01*
X0082626Y0044471D01*
X0082522Y0044593D01*
X0082421Y0044718D01*
X0082323Y0044846D01*
X0082228Y0044976D01*
X0082136Y0045108D01*
X0082048Y0045242D01*
X0081963Y0045379D01*
X0081881Y0045517D01*
X0081803Y0045658D01*
X0081729Y0045800D01*
X0081658Y0045944D01*
X0081590Y0046090D01*
X0081527Y0046238D01*
X0081466Y0046387D01*
X0081410Y0046538D01*
X0081357Y0046690D01*
X0081308Y0046843D01*
X0081263Y0046997D01*
X0081222Y0047152D01*
X0081184Y0047309D01*
X0081151Y0047466D01*
X0081121Y0047624D01*
X0081095Y0047783D01*
X0081074Y0047942D01*
X0081056Y0048102D01*
X0081042Y0048262D01*
X0081032Y0048423D01*
X0081026Y0048583D01*
X0081024Y0048744D01*
X0088898Y0068429D02*
X0088900Y0068590D01*
X0088906Y0068750D01*
X0088916Y0068911D01*
X0088930Y0069071D01*
X0088948Y0069231D01*
X0088969Y0069390D01*
X0088995Y0069549D01*
X0089025Y0069707D01*
X0089058Y0069864D01*
X0089096Y0070021D01*
X0089137Y0070176D01*
X0089182Y0070330D01*
X0089231Y0070483D01*
X0089284Y0070635D01*
X0089340Y0070786D01*
X0089401Y0070935D01*
X0089464Y0071083D01*
X0089532Y0071229D01*
X0089603Y0071373D01*
X0089677Y0071515D01*
X0089755Y0071656D01*
X0089837Y0071794D01*
X0089922Y0071931D01*
X0090010Y0072065D01*
X0090102Y0072197D01*
X0090197Y0072327D01*
X0090295Y0072455D01*
X0090396Y0072580D01*
X0090500Y0072702D01*
X0090607Y0072822D01*
X0090717Y0072939D01*
X0090830Y0073054D01*
X0090946Y0073165D01*
X0091065Y0073274D01*
X0091186Y0073379D01*
X0091310Y0073482D01*
X0091436Y0073582D01*
X0091564Y0073678D01*
X0091695Y0073771D01*
X0091829Y0073861D01*
X0091964Y0073948D01*
X0092102Y0074031D01*
X0092241Y0074111D01*
X0092383Y0074187D01*
X0092526Y0074260D01*
X0092671Y0074329D01*
X0092818Y0074395D01*
X0092966Y0074457D01*
X0093116Y0074515D01*
X0093267Y0074570D01*
X0093420Y0074621D01*
X0093574Y0074668D01*
X0093729Y0074711D01*
X0093885Y0074750D01*
X0094041Y0074786D01*
X0094199Y0074817D01*
X0094357Y0074845D01*
X0094516Y0074869D01*
X0094676Y0074889D01*
X0094836Y0074905D01*
X0094996Y0074917D01*
X0095157Y0074925D01*
X0095318Y0074929D01*
X0095478Y0074929D01*
X0095639Y0074925D01*
X0095800Y0074917D01*
X0095960Y0074905D01*
X0096120Y0074889D01*
X0096280Y0074869D01*
X0096439Y0074845D01*
X0096597Y0074817D01*
X0096755Y0074786D01*
X0096911Y0074750D01*
X0097067Y0074711D01*
X0097222Y0074668D01*
X0097376Y0074621D01*
X0097529Y0074570D01*
X0097680Y0074515D01*
X0097830Y0074457D01*
X0097978Y0074395D01*
X0098125Y0074329D01*
X0098270Y0074260D01*
X0098413Y0074187D01*
X0098555Y0074111D01*
X0098694Y0074031D01*
X0098832Y0073948D01*
X0098967Y0073861D01*
X0099101Y0073771D01*
X0099232Y0073678D01*
X0099360Y0073582D01*
X0099486Y0073482D01*
X0099610Y0073379D01*
X0099731Y0073274D01*
X0099850Y0073165D01*
X0099966Y0073054D01*
X0100079Y0072939D01*
X0100189Y0072822D01*
X0100296Y0072702D01*
X0100400Y0072580D01*
X0100501Y0072455D01*
X0100599Y0072327D01*
X0100694Y0072197D01*
X0100786Y0072065D01*
X0100874Y0071931D01*
X0100959Y0071794D01*
X0101041Y0071656D01*
X0101119Y0071515D01*
X0101193Y0071373D01*
X0101264Y0071229D01*
X0101332Y0071083D01*
X0101395Y0070935D01*
X0101456Y0070786D01*
X0101512Y0070635D01*
X0101565Y0070483D01*
X0101614Y0070330D01*
X0101659Y0070176D01*
X0101700Y0070021D01*
X0101738Y0069864D01*
X0101771Y0069707D01*
X0101801Y0069549D01*
X0101827Y0069390D01*
X0101848Y0069231D01*
X0101866Y0069071D01*
X0101880Y0068911D01*
X0101890Y0068750D01*
X0101896Y0068590D01*
X0101898Y0068429D01*
X0101896Y0068268D01*
X0101890Y0068108D01*
X0101880Y0067947D01*
X0101866Y0067787D01*
X0101848Y0067627D01*
X0101827Y0067468D01*
X0101801Y0067309D01*
X0101771Y0067151D01*
X0101738Y0066994D01*
X0101700Y0066837D01*
X0101659Y0066682D01*
X0101614Y0066528D01*
X0101565Y0066375D01*
X0101512Y0066223D01*
X0101456Y0066072D01*
X0101395Y0065923D01*
X0101332Y0065775D01*
X0101264Y0065629D01*
X0101193Y0065485D01*
X0101119Y0065343D01*
X0101041Y0065202D01*
X0100959Y0065064D01*
X0100874Y0064927D01*
X0100786Y0064793D01*
X0100694Y0064661D01*
X0100599Y0064531D01*
X0100501Y0064403D01*
X0100400Y0064278D01*
X0100296Y0064156D01*
X0100189Y0064036D01*
X0100079Y0063919D01*
X0099966Y0063804D01*
X0099850Y0063693D01*
X0099731Y0063584D01*
X0099610Y0063479D01*
X0099486Y0063376D01*
X0099360Y0063276D01*
X0099232Y0063180D01*
X0099101Y0063087D01*
X0098967Y0062997D01*
X0098832Y0062910D01*
X0098694Y0062827D01*
X0098555Y0062747D01*
X0098413Y0062671D01*
X0098270Y0062598D01*
X0098125Y0062529D01*
X0097978Y0062463D01*
X0097830Y0062401D01*
X0097680Y0062343D01*
X0097529Y0062288D01*
X0097376Y0062237D01*
X0097222Y0062190D01*
X0097067Y0062147D01*
X0096911Y0062108D01*
X0096755Y0062072D01*
X0096597Y0062041D01*
X0096439Y0062013D01*
X0096280Y0061989D01*
X0096120Y0061969D01*
X0095960Y0061953D01*
X0095800Y0061941D01*
X0095639Y0061933D01*
X0095478Y0061929D01*
X0095318Y0061929D01*
X0095157Y0061933D01*
X0094996Y0061941D01*
X0094836Y0061953D01*
X0094676Y0061969D01*
X0094516Y0061989D01*
X0094357Y0062013D01*
X0094199Y0062041D01*
X0094041Y0062072D01*
X0093885Y0062108D01*
X0093729Y0062147D01*
X0093574Y0062190D01*
X0093420Y0062237D01*
X0093267Y0062288D01*
X0093116Y0062343D01*
X0092966Y0062401D01*
X0092818Y0062463D01*
X0092671Y0062529D01*
X0092526Y0062598D01*
X0092383Y0062671D01*
X0092241Y0062747D01*
X0092102Y0062827D01*
X0091964Y0062910D01*
X0091829Y0062997D01*
X0091695Y0063087D01*
X0091564Y0063180D01*
X0091436Y0063276D01*
X0091310Y0063376D01*
X0091186Y0063479D01*
X0091065Y0063584D01*
X0090946Y0063693D01*
X0090830Y0063804D01*
X0090717Y0063919D01*
X0090607Y0064036D01*
X0090500Y0064156D01*
X0090396Y0064278D01*
X0090295Y0064403D01*
X0090197Y0064531D01*
X0090102Y0064661D01*
X0090010Y0064793D01*
X0089922Y0064927D01*
X0089837Y0065064D01*
X0089755Y0065202D01*
X0089677Y0065343D01*
X0089603Y0065485D01*
X0089532Y0065629D01*
X0089464Y0065775D01*
X0089401Y0065923D01*
X0089340Y0066072D01*
X0089284Y0066223D01*
X0089231Y0066375D01*
X0089182Y0066528D01*
X0089137Y0066682D01*
X0089096Y0066837D01*
X0089058Y0066994D01*
X0089025Y0067151D01*
X0088995Y0067309D01*
X0088969Y0067468D01*
X0088948Y0067627D01*
X0088930Y0067787D01*
X0088916Y0067947D01*
X0088906Y0068108D01*
X0088900Y0068268D01*
X0088898Y0068429D01*
X0108583Y0097957D02*
X0108585Y0098118D01*
X0108591Y0098278D01*
X0108601Y0098439D01*
X0108615Y0098599D01*
X0108633Y0098759D01*
X0108654Y0098918D01*
X0108680Y0099077D01*
X0108710Y0099235D01*
X0108743Y0099392D01*
X0108781Y0099549D01*
X0108822Y0099704D01*
X0108867Y0099858D01*
X0108916Y0100011D01*
X0108969Y0100163D01*
X0109025Y0100314D01*
X0109086Y0100463D01*
X0109149Y0100611D01*
X0109217Y0100757D01*
X0109288Y0100901D01*
X0109362Y0101043D01*
X0109440Y0101184D01*
X0109522Y0101322D01*
X0109607Y0101459D01*
X0109695Y0101593D01*
X0109787Y0101725D01*
X0109882Y0101855D01*
X0109980Y0101983D01*
X0110081Y0102108D01*
X0110185Y0102230D01*
X0110292Y0102350D01*
X0110402Y0102467D01*
X0110515Y0102582D01*
X0110631Y0102693D01*
X0110750Y0102802D01*
X0110871Y0102907D01*
X0110995Y0103010D01*
X0111121Y0103110D01*
X0111249Y0103206D01*
X0111380Y0103299D01*
X0111514Y0103389D01*
X0111649Y0103476D01*
X0111787Y0103559D01*
X0111926Y0103639D01*
X0112068Y0103715D01*
X0112211Y0103788D01*
X0112356Y0103857D01*
X0112503Y0103923D01*
X0112651Y0103985D01*
X0112801Y0104043D01*
X0112952Y0104098D01*
X0113105Y0104149D01*
X0113259Y0104196D01*
X0113414Y0104239D01*
X0113570Y0104278D01*
X0113726Y0104314D01*
X0113884Y0104345D01*
X0114042Y0104373D01*
X0114201Y0104397D01*
X0114361Y0104417D01*
X0114521Y0104433D01*
X0114681Y0104445D01*
X0114842Y0104453D01*
X0115003Y0104457D01*
X0115163Y0104457D01*
X0115324Y0104453D01*
X0115485Y0104445D01*
X0115645Y0104433D01*
X0115805Y0104417D01*
X0115965Y0104397D01*
X0116124Y0104373D01*
X0116282Y0104345D01*
X0116440Y0104314D01*
X0116596Y0104278D01*
X0116752Y0104239D01*
X0116907Y0104196D01*
X0117061Y0104149D01*
X0117214Y0104098D01*
X0117365Y0104043D01*
X0117515Y0103985D01*
X0117663Y0103923D01*
X0117810Y0103857D01*
X0117955Y0103788D01*
X0118098Y0103715D01*
X0118240Y0103639D01*
X0118379Y0103559D01*
X0118517Y0103476D01*
X0118652Y0103389D01*
X0118786Y0103299D01*
X0118917Y0103206D01*
X0119045Y0103110D01*
X0119171Y0103010D01*
X0119295Y0102907D01*
X0119416Y0102802D01*
X0119535Y0102693D01*
X0119651Y0102582D01*
X0119764Y0102467D01*
X0119874Y0102350D01*
X0119981Y0102230D01*
X0120085Y0102108D01*
X0120186Y0101983D01*
X0120284Y0101855D01*
X0120379Y0101725D01*
X0120471Y0101593D01*
X0120559Y0101459D01*
X0120644Y0101322D01*
X0120726Y0101184D01*
X0120804Y0101043D01*
X0120878Y0100901D01*
X0120949Y0100757D01*
X0121017Y0100611D01*
X0121080Y0100463D01*
X0121141Y0100314D01*
X0121197Y0100163D01*
X0121250Y0100011D01*
X0121299Y0099858D01*
X0121344Y0099704D01*
X0121385Y0099549D01*
X0121423Y0099392D01*
X0121456Y0099235D01*
X0121486Y0099077D01*
X0121512Y0098918D01*
X0121533Y0098759D01*
X0121551Y0098599D01*
X0121565Y0098439D01*
X0121575Y0098278D01*
X0121581Y0098118D01*
X0121583Y0097957D01*
X0121581Y0097796D01*
X0121575Y0097636D01*
X0121565Y0097475D01*
X0121551Y0097315D01*
X0121533Y0097155D01*
X0121512Y0096996D01*
X0121486Y0096837D01*
X0121456Y0096679D01*
X0121423Y0096522D01*
X0121385Y0096365D01*
X0121344Y0096210D01*
X0121299Y0096056D01*
X0121250Y0095903D01*
X0121197Y0095751D01*
X0121141Y0095600D01*
X0121080Y0095451D01*
X0121017Y0095303D01*
X0120949Y0095157D01*
X0120878Y0095013D01*
X0120804Y0094871D01*
X0120726Y0094730D01*
X0120644Y0094592D01*
X0120559Y0094455D01*
X0120471Y0094321D01*
X0120379Y0094189D01*
X0120284Y0094059D01*
X0120186Y0093931D01*
X0120085Y0093806D01*
X0119981Y0093684D01*
X0119874Y0093564D01*
X0119764Y0093447D01*
X0119651Y0093332D01*
X0119535Y0093221D01*
X0119416Y0093112D01*
X0119295Y0093007D01*
X0119171Y0092904D01*
X0119045Y0092804D01*
X0118917Y0092708D01*
X0118786Y0092615D01*
X0118652Y0092525D01*
X0118517Y0092438D01*
X0118379Y0092355D01*
X0118240Y0092275D01*
X0118098Y0092199D01*
X0117955Y0092126D01*
X0117810Y0092057D01*
X0117663Y0091991D01*
X0117515Y0091929D01*
X0117365Y0091871D01*
X0117214Y0091816D01*
X0117061Y0091765D01*
X0116907Y0091718D01*
X0116752Y0091675D01*
X0116596Y0091636D01*
X0116440Y0091600D01*
X0116282Y0091569D01*
X0116124Y0091541D01*
X0115965Y0091517D01*
X0115805Y0091497D01*
X0115645Y0091481D01*
X0115485Y0091469D01*
X0115324Y0091461D01*
X0115163Y0091457D01*
X0115003Y0091457D01*
X0114842Y0091461D01*
X0114681Y0091469D01*
X0114521Y0091481D01*
X0114361Y0091497D01*
X0114201Y0091517D01*
X0114042Y0091541D01*
X0113884Y0091569D01*
X0113726Y0091600D01*
X0113570Y0091636D01*
X0113414Y0091675D01*
X0113259Y0091718D01*
X0113105Y0091765D01*
X0112952Y0091816D01*
X0112801Y0091871D01*
X0112651Y0091929D01*
X0112503Y0091991D01*
X0112356Y0092057D01*
X0112211Y0092126D01*
X0112068Y0092199D01*
X0111926Y0092275D01*
X0111787Y0092355D01*
X0111649Y0092438D01*
X0111514Y0092525D01*
X0111380Y0092615D01*
X0111249Y0092708D01*
X0111121Y0092804D01*
X0110995Y0092904D01*
X0110871Y0093007D01*
X0110750Y0093112D01*
X0110631Y0093221D01*
X0110515Y0093332D01*
X0110402Y0093447D01*
X0110292Y0093564D01*
X0110185Y0093684D01*
X0110081Y0093806D01*
X0109980Y0093931D01*
X0109882Y0094059D01*
X0109787Y0094189D01*
X0109695Y0094321D01*
X0109607Y0094455D01*
X0109522Y0094592D01*
X0109440Y0094730D01*
X0109362Y0094871D01*
X0109288Y0095013D01*
X0109217Y0095157D01*
X0109149Y0095303D01*
X0109086Y0095451D01*
X0109025Y0095600D01*
X0108969Y0095751D01*
X0108916Y0095903D01*
X0108867Y0096056D01*
X0108822Y0096210D01*
X0108781Y0096365D01*
X0108743Y0096522D01*
X0108710Y0096679D01*
X0108680Y0096837D01*
X0108654Y0096996D01*
X0108633Y0097155D01*
X0108615Y0097315D01*
X0108601Y0097475D01*
X0108591Y0097636D01*
X0108585Y0097796D01*
X0108583Y0097957D01*
X0179449Y0050713D02*
X0179451Y0050874D01*
X0179457Y0051034D01*
X0179467Y0051195D01*
X0179481Y0051355D01*
X0179499Y0051515D01*
X0179520Y0051674D01*
X0179546Y0051833D01*
X0179576Y0051991D01*
X0179609Y0052148D01*
X0179647Y0052305D01*
X0179688Y0052460D01*
X0179733Y0052614D01*
X0179782Y0052767D01*
X0179835Y0052919D01*
X0179891Y0053070D01*
X0179952Y0053219D01*
X0180015Y0053367D01*
X0180083Y0053513D01*
X0180154Y0053657D01*
X0180228Y0053799D01*
X0180306Y0053940D01*
X0180388Y0054078D01*
X0180473Y0054215D01*
X0180561Y0054349D01*
X0180653Y0054481D01*
X0180748Y0054611D01*
X0180846Y0054739D01*
X0180947Y0054864D01*
X0181051Y0054986D01*
X0181158Y0055106D01*
X0181268Y0055223D01*
X0181381Y0055338D01*
X0181497Y0055449D01*
X0181616Y0055558D01*
X0181737Y0055663D01*
X0181861Y0055766D01*
X0181987Y0055866D01*
X0182115Y0055962D01*
X0182246Y0056055D01*
X0182380Y0056145D01*
X0182515Y0056232D01*
X0182653Y0056315D01*
X0182792Y0056395D01*
X0182934Y0056471D01*
X0183077Y0056544D01*
X0183222Y0056613D01*
X0183369Y0056679D01*
X0183517Y0056741D01*
X0183667Y0056799D01*
X0183818Y0056854D01*
X0183971Y0056905D01*
X0184125Y0056952D01*
X0184280Y0056995D01*
X0184436Y0057034D01*
X0184592Y0057070D01*
X0184750Y0057101D01*
X0184908Y0057129D01*
X0185067Y0057153D01*
X0185227Y0057173D01*
X0185387Y0057189D01*
X0185547Y0057201D01*
X0185708Y0057209D01*
X0185869Y0057213D01*
X0186029Y0057213D01*
X0186190Y0057209D01*
X0186351Y0057201D01*
X0186511Y0057189D01*
X0186671Y0057173D01*
X0186831Y0057153D01*
X0186990Y0057129D01*
X0187148Y0057101D01*
X0187306Y0057070D01*
X0187462Y0057034D01*
X0187618Y0056995D01*
X0187773Y0056952D01*
X0187927Y0056905D01*
X0188080Y0056854D01*
X0188231Y0056799D01*
X0188381Y0056741D01*
X0188529Y0056679D01*
X0188676Y0056613D01*
X0188821Y0056544D01*
X0188964Y0056471D01*
X0189106Y0056395D01*
X0189245Y0056315D01*
X0189383Y0056232D01*
X0189518Y0056145D01*
X0189652Y0056055D01*
X0189783Y0055962D01*
X0189911Y0055866D01*
X0190037Y0055766D01*
X0190161Y0055663D01*
X0190282Y0055558D01*
X0190401Y0055449D01*
X0190517Y0055338D01*
X0190630Y0055223D01*
X0190740Y0055106D01*
X0190847Y0054986D01*
X0190951Y0054864D01*
X0191052Y0054739D01*
X0191150Y0054611D01*
X0191245Y0054481D01*
X0191337Y0054349D01*
X0191425Y0054215D01*
X0191510Y0054078D01*
X0191592Y0053940D01*
X0191670Y0053799D01*
X0191744Y0053657D01*
X0191815Y0053513D01*
X0191883Y0053367D01*
X0191946Y0053219D01*
X0192007Y0053070D01*
X0192063Y0052919D01*
X0192116Y0052767D01*
X0192165Y0052614D01*
X0192210Y0052460D01*
X0192251Y0052305D01*
X0192289Y0052148D01*
X0192322Y0051991D01*
X0192352Y0051833D01*
X0192378Y0051674D01*
X0192399Y0051515D01*
X0192417Y0051355D01*
X0192431Y0051195D01*
X0192441Y0051034D01*
X0192447Y0050874D01*
X0192449Y0050713D01*
X0192447Y0050552D01*
X0192441Y0050392D01*
X0192431Y0050231D01*
X0192417Y0050071D01*
X0192399Y0049911D01*
X0192378Y0049752D01*
X0192352Y0049593D01*
X0192322Y0049435D01*
X0192289Y0049278D01*
X0192251Y0049121D01*
X0192210Y0048966D01*
X0192165Y0048812D01*
X0192116Y0048659D01*
X0192063Y0048507D01*
X0192007Y0048356D01*
X0191946Y0048207D01*
X0191883Y0048059D01*
X0191815Y0047913D01*
X0191744Y0047769D01*
X0191670Y0047627D01*
X0191592Y0047486D01*
X0191510Y0047348D01*
X0191425Y0047211D01*
X0191337Y0047077D01*
X0191245Y0046945D01*
X0191150Y0046815D01*
X0191052Y0046687D01*
X0190951Y0046562D01*
X0190847Y0046440D01*
X0190740Y0046320D01*
X0190630Y0046203D01*
X0190517Y0046088D01*
X0190401Y0045977D01*
X0190282Y0045868D01*
X0190161Y0045763D01*
X0190037Y0045660D01*
X0189911Y0045560D01*
X0189783Y0045464D01*
X0189652Y0045371D01*
X0189518Y0045281D01*
X0189383Y0045194D01*
X0189245Y0045111D01*
X0189106Y0045031D01*
X0188964Y0044955D01*
X0188821Y0044882D01*
X0188676Y0044813D01*
X0188529Y0044747D01*
X0188381Y0044685D01*
X0188231Y0044627D01*
X0188080Y0044572D01*
X0187927Y0044521D01*
X0187773Y0044474D01*
X0187618Y0044431D01*
X0187462Y0044392D01*
X0187306Y0044356D01*
X0187148Y0044325D01*
X0186990Y0044297D01*
X0186831Y0044273D01*
X0186671Y0044253D01*
X0186511Y0044237D01*
X0186351Y0044225D01*
X0186190Y0044217D01*
X0186029Y0044213D01*
X0185869Y0044213D01*
X0185708Y0044217D01*
X0185547Y0044225D01*
X0185387Y0044237D01*
X0185227Y0044253D01*
X0185067Y0044273D01*
X0184908Y0044297D01*
X0184750Y0044325D01*
X0184592Y0044356D01*
X0184436Y0044392D01*
X0184280Y0044431D01*
X0184125Y0044474D01*
X0183971Y0044521D01*
X0183818Y0044572D01*
X0183667Y0044627D01*
X0183517Y0044685D01*
X0183369Y0044747D01*
X0183222Y0044813D01*
X0183077Y0044882D01*
X0182934Y0044955D01*
X0182792Y0045031D01*
X0182653Y0045111D01*
X0182515Y0045194D01*
X0182380Y0045281D01*
X0182246Y0045371D01*
X0182115Y0045464D01*
X0181987Y0045560D01*
X0181861Y0045660D01*
X0181737Y0045763D01*
X0181616Y0045868D01*
X0181497Y0045977D01*
X0181381Y0046088D01*
X0181268Y0046203D01*
X0181158Y0046320D01*
X0181051Y0046440D01*
X0180947Y0046562D01*
X0180846Y0046687D01*
X0180748Y0046815D01*
X0180653Y0046945D01*
X0180561Y0047077D01*
X0180473Y0047211D01*
X0180388Y0047348D01*
X0180306Y0047486D01*
X0180228Y0047627D01*
X0180154Y0047769D01*
X0180083Y0047913D01*
X0180015Y0048059D01*
X0179952Y0048207D01*
X0179891Y0048356D01*
X0179835Y0048507D01*
X0179782Y0048659D01*
X0179733Y0048812D01*
X0179688Y0048966D01*
X0179647Y0049121D01*
X0179609Y0049278D01*
X0179576Y0049435D01*
X0179546Y0049593D01*
X0179520Y0049752D01*
X0179499Y0049911D01*
X0179481Y0050071D01*
X0179467Y0050231D01*
X0179457Y0050392D01*
X0179451Y0050552D01*
X0179449Y0050713D01*
X0218819Y0084177D02*
X0218821Y0084338D01*
X0218827Y0084498D01*
X0218837Y0084659D01*
X0218851Y0084819D01*
X0218869Y0084979D01*
X0218890Y0085138D01*
X0218916Y0085297D01*
X0218946Y0085455D01*
X0218979Y0085612D01*
X0219017Y0085769D01*
X0219058Y0085924D01*
X0219103Y0086078D01*
X0219152Y0086231D01*
X0219205Y0086383D01*
X0219261Y0086534D01*
X0219322Y0086683D01*
X0219385Y0086831D01*
X0219453Y0086977D01*
X0219524Y0087121D01*
X0219598Y0087263D01*
X0219676Y0087404D01*
X0219758Y0087542D01*
X0219843Y0087679D01*
X0219931Y0087813D01*
X0220023Y0087945D01*
X0220118Y0088075D01*
X0220216Y0088203D01*
X0220317Y0088328D01*
X0220421Y0088450D01*
X0220528Y0088570D01*
X0220638Y0088687D01*
X0220751Y0088802D01*
X0220867Y0088913D01*
X0220986Y0089022D01*
X0221107Y0089127D01*
X0221231Y0089230D01*
X0221357Y0089330D01*
X0221485Y0089426D01*
X0221616Y0089519D01*
X0221750Y0089609D01*
X0221885Y0089696D01*
X0222023Y0089779D01*
X0222162Y0089859D01*
X0222304Y0089935D01*
X0222447Y0090008D01*
X0222592Y0090077D01*
X0222739Y0090143D01*
X0222887Y0090205D01*
X0223037Y0090263D01*
X0223188Y0090318D01*
X0223341Y0090369D01*
X0223495Y0090416D01*
X0223650Y0090459D01*
X0223806Y0090498D01*
X0223962Y0090534D01*
X0224120Y0090565D01*
X0224278Y0090593D01*
X0224437Y0090617D01*
X0224597Y0090637D01*
X0224757Y0090653D01*
X0224917Y0090665D01*
X0225078Y0090673D01*
X0225239Y0090677D01*
X0225399Y0090677D01*
X0225560Y0090673D01*
X0225721Y0090665D01*
X0225881Y0090653D01*
X0226041Y0090637D01*
X0226201Y0090617D01*
X0226360Y0090593D01*
X0226518Y0090565D01*
X0226676Y0090534D01*
X0226832Y0090498D01*
X0226988Y0090459D01*
X0227143Y0090416D01*
X0227297Y0090369D01*
X0227450Y0090318D01*
X0227601Y0090263D01*
X0227751Y0090205D01*
X0227899Y0090143D01*
X0228046Y0090077D01*
X0228191Y0090008D01*
X0228334Y0089935D01*
X0228476Y0089859D01*
X0228615Y0089779D01*
X0228753Y0089696D01*
X0228888Y0089609D01*
X0229022Y0089519D01*
X0229153Y0089426D01*
X0229281Y0089330D01*
X0229407Y0089230D01*
X0229531Y0089127D01*
X0229652Y0089022D01*
X0229771Y0088913D01*
X0229887Y0088802D01*
X0230000Y0088687D01*
X0230110Y0088570D01*
X0230217Y0088450D01*
X0230321Y0088328D01*
X0230422Y0088203D01*
X0230520Y0088075D01*
X0230615Y0087945D01*
X0230707Y0087813D01*
X0230795Y0087679D01*
X0230880Y0087542D01*
X0230962Y0087404D01*
X0231040Y0087263D01*
X0231114Y0087121D01*
X0231185Y0086977D01*
X0231253Y0086831D01*
X0231316Y0086683D01*
X0231377Y0086534D01*
X0231433Y0086383D01*
X0231486Y0086231D01*
X0231535Y0086078D01*
X0231580Y0085924D01*
X0231621Y0085769D01*
X0231659Y0085612D01*
X0231692Y0085455D01*
X0231722Y0085297D01*
X0231748Y0085138D01*
X0231769Y0084979D01*
X0231787Y0084819D01*
X0231801Y0084659D01*
X0231811Y0084498D01*
X0231817Y0084338D01*
X0231819Y0084177D01*
X0231817Y0084016D01*
X0231811Y0083856D01*
X0231801Y0083695D01*
X0231787Y0083535D01*
X0231769Y0083375D01*
X0231748Y0083216D01*
X0231722Y0083057D01*
X0231692Y0082899D01*
X0231659Y0082742D01*
X0231621Y0082585D01*
X0231580Y0082430D01*
X0231535Y0082276D01*
X0231486Y0082123D01*
X0231433Y0081971D01*
X0231377Y0081820D01*
X0231316Y0081671D01*
X0231253Y0081523D01*
X0231185Y0081377D01*
X0231114Y0081233D01*
X0231040Y0081091D01*
X0230962Y0080950D01*
X0230880Y0080812D01*
X0230795Y0080675D01*
X0230707Y0080541D01*
X0230615Y0080409D01*
X0230520Y0080279D01*
X0230422Y0080151D01*
X0230321Y0080026D01*
X0230217Y0079904D01*
X0230110Y0079784D01*
X0230000Y0079667D01*
X0229887Y0079552D01*
X0229771Y0079441D01*
X0229652Y0079332D01*
X0229531Y0079227D01*
X0229407Y0079124D01*
X0229281Y0079024D01*
X0229153Y0078928D01*
X0229022Y0078835D01*
X0228888Y0078745D01*
X0228753Y0078658D01*
X0228615Y0078575D01*
X0228476Y0078495D01*
X0228334Y0078419D01*
X0228191Y0078346D01*
X0228046Y0078277D01*
X0227899Y0078211D01*
X0227751Y0078149D01*
X0227601Y0078091D01*
X0227450Y0078036D01*
X0227297Y0077985D01*
X0227143Y0077938D01*
X0226988Y0077895D01*
X0226832Y0077856D01*
X0226676Y0077820D01*
X0226518Y0077789D01*
X0226360Y0077761D01*
X0226201Y0077737D01*
X0226041Y0077717D01*
X0225881Y0077701D01*
X0225721Y0077689D01*
X0225560Y0077681D01*
X0225399Y0077677D01*
X0225239Y0077677D01*
X0225078Y0077681D01*
X0224917Y0077689D01*
X0224757Y0077701D01*
X0224597Y0077717D01*
X0224437Y0077737D01*
X0224278Y0077761D01*
X0224120Y0077789D01*
X0223962Y0077820D01*
X0223806Y0077856D01*
X0223650Y0077895D01*
X0223495Y0077938D01*
X0223341Y0077985D01*
X0223188Y0078036D01*
X0223037Y0078091D01*
X0222887Y0078149D01*
X0222739Y0078211D01*
X0222592Y0078277D01*
X0222447Y0078346D01*
X0222304Y0078419D01*
X0222162Y0078495D01*
X0222023Y0078575D01*
X0221885Y0078658D01*
X0221750Y0078745D01*
X0221616Y0078835D01*
X0221485Y0078928D01*
X0221357Y0079024D01*
X0221231Y0079124D01*
X0221107Y0079227D01*
X0220986Y0079332D01*
X0220867Y0079441D01*
X0220751Y0079552D01*
X0220638Y0079667D01*
X0220528Y0079784D01*
X0220421Y0079904D01*
X0220317Y0080026D01*
X0220216Y0080151D01*
X0220118Y0080279D01*
X0220023Y0080409D01*
X0219931Y0080541D01*
X0219843Y0080675D01*
X0219758Y0080812D01*
X0219676Y0080950D01*
X0219598Y0081091D01*
X0219524Y0081233D01*
X0219453Y0081377D01*
X0219385Y0081523D01*
X0219322Y0081671D01*
X0219261Y0081820D01*
X0219205Y0081971D01*
X0219152Y0082123D01*
X0219103Y0082276D01*
X0219058Y0082430D01*
X0219017Y0082585D01*
X0218979Y0082742D01*
X0218946Y0082899D01*
X0218916Y0083057D01*
X0218890Y0083216D01*
X0218869Y0083375D01*
X0218851Y0083535D01*
X0218837Y0083695D01*
X0218827Y0083856D01*
X0218821Y0084016D01*
X0218819Y0084177D01*
X0207008Y0123547D02*
X0207010Y0123708D01*
X0207016Y0123868D01*
X0207026Y0124029D01*
X0207040Y0124189D01*
X0207058Y0124349D01*
X0207079Y0124508D01*
X0207105Y0124667D01*
X0207135Y0124825D01*
X0207168Y0124982D01*
X0207206Y0125139D01*
X0207247Y0125294D01*
X0207292Y0125448D01*
X0207341Y0125601D01*
X0207394Y0125753D01*
X0207450Y0125904D01*
X0207511Y0126053D01*
X0207574Y0126201D01*
X0207642Y0126347D01*
X0207713Y0126491D01*
X0207787Y0126633D01*
X0207865Y0126774D01*
X0207947Y0126912D01*
X0208032Y0127049D01*
X0208120Y0127183D01*
X0208212Y0127315D01*
X0208307Y0127445D01*
X0208405Y0127573D01*
X0208506Y0127698D01*
X0208610Y0127820D01*
X0208717Y0127940D01*
X0208827Y0128057D01*
X0208940Y0128172D01*
X0209056Y0128283D01*
X0209175Y0128392D01*
X0209296Y0128497D01*
X0209420Y0128600D01*
X0209546Y0128700D01*
X0209674Y0128796D01*
X0209805Y0128889D01*
X0209939Y0128979D01*
X0210074Y0129066D01*
X0210212Y0129149D01*
X0210351Y0129229D01*
X0210493Y0129305D01*
X0210636Y0129378D01*
X0210781Y0129447D01*
X0210928Y0129513D01*
X0211076Y0129575D01*
X0211226Y0129633D01*
X0211377Y0129688D01*
X0211530Y0129739D01*
X0211684Y0129786D01*
X0211839Y0129829D01*
X0211995Y0129868D01*
X0212151Y0129904D01*
X0212309Y0129935D01*
X0212467Y0129963D01*
X0212626Y0129987D01*
X0212786Y0130007D01*
X0212946Y0130023D01*
X0213106Y0130035D01*
X0213267Y0130043D01*
X0213428Y0130047D01*
X0213588Y0130047D01*
X0213749Y0130043D01*
X0213910Y0130035D01*
X0214070Y0130023D01*
X0214230Y0130007D01*
X0214390Y0129987D01*
X0214549Y0129963D01*
X0214707Y0129935D01*
X0214865Y0129904D01*
X0215021Y0129868D01*
X0215177Y0129829D01*
X0215332Y0129786D01*
X0215486Y0129739D01*
X0215639Y0129688D01*
X0215790Y0129633D01*
X0215940Y0129575D01*
X0216088Y0129513D01*
X0216235Y0129447D01*
X0216380Y0129378D01*
X0216523Y0129305D01*
X0216665Y0129229D01*
X0216804Y0129149D01*
X0216942Y0129066D01*
X0217077Y0128979D01*
X0217211Y0128889D01*
X0217342Y0128796D01*
X0217470Y0128700D01*
X0217596Y0128600D01*
X0217720Y0128497D01*
X0217841Y0128392D01*
X0217960Y0128283D01*
X0218076Y0128172D01*
X0218189Y0128057D01*
X0218299Y0127940D01*
X0218406Y0127820D01*
X0218510Y0127698D01*
X0218611Y0127573D01*
X0218709Y0127445D01*
X0218804Y0127315D01*
X0218896Y0127183D01*
X0218984Y0127049D01*
X0219069Y0126912D01*
X0219151Y0126774D01*
X0219229Y0126633D01*
X0219303Y0126491D01*
X0219374Y0126347D01*
X0219442Y0126201D01*
X0219505Y0126053D01*
X0219566Y0125904D01*
X0219622Y0125753D01*
X0219675Y0125601D01*
X0219724Y0125448D01*
X0219769Y0125294D01*
X0219810Y0125139D01*
X0219848Y0124982D01*
X0219881Y0124825D01*
X0219911Y0124667D01*
X0219937Y0124508D01*
X0219958Y0124349D01*
X0219976Y0124189D01*
X0219990Y0124029D01*
X0220000Y0123868D01*
X0220006Y0123708D01*
X0220008Y0123547D01*
X0220006Y0123386D01*
X0220000Y0123226D01*
X0219990Y0123065D01*
X0219976Y0122905D01*
X0219958Y0122745D01*
X0219937Y0122586D01*
X0219911Y0122427D01*
X0219881Y0122269D01*
X0219848Y0122112D01*
X0219810Y0121955D01*
X0219769Y0121800D01*
X0219724Y0121646D01*
X0219675Y0121493D01*
X0219622Y0121341D01*
X0219566Y0121190D01*
X0219505Y0121041D01*
X0219442Y0120893D01*
X0219374Y0120747D01*
X0219303Y0120603D01*
X0219229Y0120461D01*
X0219151Y0120320D01*
X0219069Y0120182D01*
X0218984Y0120045D01*
X0218896Y0119911D01*
X0218804Y0119779D01*
X0218709Y0119649D01*
X0218611Y0119521D01*
X0218510Y0119396D01*
X0218406Y0119274D01*
X0218299Y0119154D01*
X0218189Y0119037D01*
X0218076Y0118922D01*
X0217960Y0118811D01*
X0217841Y0118702D01*
X0217720Y0118597D01*
X0217596Y0118494D01*
X0217470Y0118394D01*
X0217342Y0118298D01*
X0217211Y0118205D01*
X0217077Y0118115D01*
X0216942Y0118028D01*
X0216804Y0117945D01*
X0216665Y0117865D01*
X0216523Y0117789D01*
X0216380Y0117716D01*
X0216235Y0117647D01*
X0216088Y0117581D01*
X0215940Y0117519D01*
X0215790Y0117461D01*
X0215639Y0117406D01*
X0215486Y0117355D01*
X0215332Y0117308D01*
X0215177Y0117265D01*
X0215021Y0117226D01*
X0214865Y0117190D01*
X0214707Y0117159D01*
X0214549Y0117131D01*
X0214390Y0117107D01*
X0214230Y0117087D01*
X0214070Y0117071D01*
X0213910Y0117059D01*
X0213749Y0117051D01*
X0213588Y0117047D01*
X0213428Y0117047D01*
X0213267Y0117051D01*
X0213106Y0117059D01*
X0212946Y0117071D01*
X0212786Y0117087D01*
X0212626Y0117107D01*
X0212467Y0117131D01*
X0212309Y0117159D01*
X0212151Y0117190D01*
X0211995Y0117226D01*
X0211839Y0117265D01*
X0211684Y0117308D01*
X0211530Y0117355D01*
X0211377Y0117406D01*
X0211226Y0117461D01*
X0211076Y0117519D01*
X0210928Y0117581D01*
X0210781Y0117647D01*
X0210636Y0117716D01*
X0210493Y0117789D01*
X0210351Y0117865D01*
X0210212Y0117945D01*
X0210074Y0118028D01*
X0209939Y0118115D01*
X0209805Y0118205D01*
X0209674Y0118298D01*
X0209546Y0118394D01*
X0209420Y0118494D01*
X0209296Y0118597D01*
X0209175Y0118702D01*
X0209056Y0118811D01*
X0208940Y0118922D01*
X0208827Y0119037D01*
X0208717Y0119154D01*
X0208610Y0119274D01*
X0208506Y0119396D01*
X0208405Y0119521D01*
X0208307Y0119649D01*
X0208212Y0119779D01*
X0208120Y0119911D01*
X0208032Y0120045D01*
X0207947Y0120182D01*
X0207865Y0120320D01*
X0207787Y0120461D01*
X0207713Y0120603D01*
X0207642Y0120747D01*
X0207574Y0120893D01*
X0207511Y0121041D01*
X0207450Y0121190D01*
X0207394Y0121341D01*
X0207341Y0121493D01*
X0207292Y0121646D01*
X0207247Y0121800D01*
X0207206Y0121955D01*
X0207168Y0122112D01*
X0207135Y0122269D01*
X0207105Y0122427D01*
X0207079Y0122586D01*
X0207058Y0122745D01*
X0207040Y0122905D01*
X0207026Y0123065D01*
X0207016Y0123226D01*
X0207010Y0123386D01*
X0207008Y0123547D01*
X0258189Y0080240D02*
X0258191Y0080401D01*
X0258197Y0080561D01*
X0258207Y0080722D01*
X0258221Y0080882D01*
X0258239Y0081042D01*
X0258260Y0081201D01*
X0258286Y0081360D01*
X0258316Y0081518D01*
X0258349Y0081675D01*
X0258387Y0081832D01*
X0258428Y0081987D01*
X0258473Y0082141D01*
X0258522Y0082294D01*
X0258575Y0082446D01*
X0258631Y0082597D01*
X0258692Y0082746D01*
X0258755Y0082894D01*
X0258823Y0083040D01*
X0258894Y0083184D01*
X0258968Y0083326D01*
X0259046Y0083467D01*
X0259128Y0083605D01*
X0259213Y0083742D01*
X0259301Y0083876D01*
X0259393Y0084008D01*
X0259488Y0084138D01*
X0259586Y0084266D01*
X0259687Y0084391D01*
X0259791Y0084513D01*
X0259898Y0084633D01*
X0260008Y0084750D01*
X0260121Y0084865D01*
X0260237Y0084976D01*
X0260356Y0085085D01*
X0260477Y0085190D01*
X0260601Y0085293D01*
X0260727Y0085393D01*
X0260855Y0085489D01*
X0260986Y0085582D01*
X0261120Y0085672D01*
X0261255Y0085759D01*
X0261393Y0085842D01*
X0261532Y0085922D01*
X0261674Y0085998D01*
X0261817Y0086071D01*
X0261962Y0086140D01*
X0262109Y0086206D01*
X0262257Y0086268D01*
X0262407Y0086326D01*
X0262558Y0086381D01*
X0262711Y0086432D01*
X0262865Y0086479D01*
X0263020Y0086522D01*
X0263176Y0086561D01*
X0263332Y0086597D01*
X0263490Y0086628D01*
X0263648Y0086656D01*
X0263807Y0086680D01*
X0263967Y0086700D01*
X0264127Y0086716D01*
X0264287Y0086728D01*
X0264448Y0086736D01*
X0264609Y0086740D01*
X0264769Y0086740D01*
X0264930Y0086736D01*
X0265091Y0086728D01*
X0265251Y0086716D01*
X0265411Y0086700D01*
X0265571Y0086680D01*
X0265730Y0086656D01*
X0265888Y0086628D01*
X0266046Y0086597D01*
X0266202Y0086561D01*
X0266358Y0086522D01*
X0266513Y0086479D01*
X0266667Y0086432D01*
X0266820Y0086381D01*
X0266971Y0086326D01*
X0267121Y0086268D01*
X0267269Y0086206D01*
X0267416Y0086140D01*
X0267561Y0086071D01*
X0267704Y0085998D01*
X0267846Y0085922D01*
X0267985Y0085842D01*
X0268123Y0085759D01*
X0268258Y0085672D01*
X0268392Y0085582D01*
X0268523Y0085489D01*
X0268651Y0085393D01*
X0268777Y0085293D01*
X0268901Y0085190D01*
X0269022Y0085085D01*
X0269141Y0084976D01*
X0269257Y0084865D01*
X0269370Y0084750D01*
X0269480Y0084633D01*
X0269587Y0084513D01*
X0269691Y0084391D01*
X0269792Y0084266D01*
X0269890Y0084138D01*
X0269985Y0084008D01*
X0270077Y0083876D01*
X0270165Y0083742D01*
X0270250Y0083605D01*
X0270332Y0083467D01*
X0270410Y0083326D01*
X0270484Y0083184D01*
X0270555Y0083040D01*
X0270623Y0082894D01*
X0270686Y0082746D01*
X0270747Y0082597D01*
X0270803Y0082446D01*
X0270856Y0082294D01*
X0270905Y0082141D01*
X0270950Y0081987D01*
X0270991Y0081832D01*
X0271029Y0081675D01*
X0271062Y0081518D01*
X0271092Y0081360D01*
X0271118Y0081201D01*
X0271139Y0081042D01*
X0271157Y0080882D01*
X0271171Y0080722D01*
X0271181Y0080561D01*
X0271187Y0080401D01*
X0271189Y0080240D01*
X0271187Y0080079D01*
X0271181Y0079919D01*
X0271171Y0079758D01*
X0271157Y0079598D01*
X0271139Y0079438D01*
X0271118Y0079279D01*
X0271092Y0079120D01*
X0271062Y0078962D01*
X0271029Y0078805D01*
X0270991Y0078648D01*
X0270950Y0078493D01*
X0270905Y0078339D01*
X0270856Y0078186D01*
X0270803Y0078034D01*
X0270747Y0077883D01*
X0270686Y0077734D01*
X0270623Y0077586D01*
X0270555Y0077440D01*
X0270484Y0077296D01*
X0270410Y0077154D01*
X0270332Y0077013D01*
X0270250Y0076875D01*
X0270165Y0076738D01*
X0270077Y0076604D01*
X0269985Y0076472D01*
X0269890Y0076342D01*
X0269792Y0076214D01*
X0269691Y0076089D01*
X0269587Y0075967D01*
X0269480Y0075847D01*
X0269370Y0075730D01*
X0269257Y0075615D01*
X0269141Y0075504D01*
X0269022Y0075395D01*
X0268901Y0075290D01*
X0268777Y0075187D01*
X0268651Y0075087D01*
X0268523Y0074991D01*
X0268392Y0074898D01*
X0268258Y0074808D01*
X0268123Y0074721D01*
X0267985Y0074638D01*
X0267846Y0074558D01*
X0267704Y0074482D01*
X0267561Y0074409D01*
X0267416Y0074340D01*
X0267269Y0074274D01*
X0267121Y0074212D01*
X0266971Y0074154D01*
X0266820Y0074099D01*
X0266667Y0074048D01*
X0266513Y0074001D01*
X0266358Y0073958D01*
X0266202Y0073919D01*
X0266046Y0073883D01*
X0265888Y0073852D01*
X0265730Y0073824D01*
X0265571Y0073800D01*
X0265411Y0073780D01*
X0265251Y0073764D01*
X0265091Y0073752D01*
X0264930Y0073744D01*
X0264769Y0073740D01*
X0264609Y0073740D01*
X0264448Y0073744D01*
X0264287Y0073752D01*
X0264127Y0073764D01*
X0263967Y0073780D01*
X0263807Y0073800D01*
X0263648Y0073824D01*
X0263490Y0073852D01*
X0263332Y0073883D01*
X0263176Y0073919D01*
X0263020Y0073958D01*
X0262865Y0074001D01*
X0262711Y0074048D01*
X0262558Y0074099D01*
X0262407Y0074154D01*
X0262257Y0074212D01*
X0262109Y0074274D01*
X0261962Y0074340D01*
X0261817Y0074409D01*
X0261674Y0074482D01*
X0261532Y0074558D01*
X0261393Y0074638D01*
X0261255Y0074721D01*
X0261120Y0074808D01*
X0260986Y0074898D01*
X0260855Y0074991D01*
X0260727Y0075087D01*
X0260601Y0075187D01*
X0260477Y0075290D01*
X0260356Y0075395D01*
X0260237Y0075504D01*
X0260121Y0075615D01*
X0260008Y0075730D01*
X0259898Y0075847D01*
X0259791Y0075967D01*
X0259687Y0076089D01*
X0259586Y0076214D01*
X0259488Y0076342D01*
X0259393Y0076472D01*
X0259301Y0076604D01*
X0259213Y0076738D01*
X0259128Y0076875D01*
X0259046Y0077013D01*
X0258968Y0077154D01*
X0258894Y0077296D01*
X0258823Y0077440D01*
X0258755Y0077586D01*
X0258692Y0077734D01*
X0258631Y0077883D01*
X0258575Y0078034D01*
X0258522Y0078186D01*
X0258473Y0078339D01*
X0258428Y0078493D01*
X0258387Y0078648D01*
X0258349Y0078805D01*
X0258316Y0078962D01*
X0258286Y0079120D01*
X0258260Y0079279D01*
X0258239Y0079438D01*
X0258221Y0079598D01*
X0258207Y0079758D01*
X0258197Y0079919D01*
X0258191Y0080079D01*
X0258189Y0080240D01*
X0258189Y0214098D02*
X0258191Y0214259D01*
X0258197Y0214419D01*
X0258207Y0214580D01*
X0258221Y0214740D01*
X0258239Y0214900D01*
X0258260Y0215059D01*
X0258286Y0215218D01*
X0258316Y0215376D01*
X0258349Y0215533D01*
X0258387Y0215690D01*
X0258428Y0215845D01*
X0258473Y0215999D01*
X0258522Y0216152D01*
X0258575Y0216304D01*
X0258631Y0216455D01*
X0258692Y0216604D01*
X0258755Y0216752D01*
X0258823Y0216898D01*
X0258894Y0217042D01*
X0258968Y0217184D01*
X0259046Y0217325D01*
X0259128Y0217463D01*
X0259213Y0217600D01*
X0259301Y0217734D01*
X0259393Y0217866D01*
X0259488Y0217996D01*
X0259586Y0218124D01*
X0259687Y0218249D01*
X0259791Y0218371D01*
X0259898Y0218491D01*
X0260008Y0218608D01*
X0260121Y0218723D01*
X0260237Y0218834D01*
X0260356Y0218943D01*
X0260477Y0219048D01*
X0260601Y0219151D01*
X0260727Y0219251D01*
X0260855Y0219347D01*
X0260986Y0219440D01*
X0261120Y0219530D01*
X0261255Y0219617D01*
X0261393Y0219700D01*
X0261532Y0219780D01*
X0261674Y0219856D01*
X0261817Y0219929D01*
X0261962Y0219998D01*
X0262109Y0220064D01*
X0262257Y0220126D01*
X0262407Y0220184D01*
X0262558Y0220239D01*
X0262711Y0220290D01*
X0262865Y0220337D01*
X0263020Y0220380D01*
X0263176Y0220419D01*
X0263332Y0220455D01*
X0263490Y0220486D01*
X0263648Y0220514D01*
X0263807Y0220538D01*
X0263967Y0220558D01*
X0264127Y0220574D01*
X0264287Y0220586D01*
X0264448Y0220594D01*
X0264609Y0220598D01*
X0264769Y0220598D01*
X0264930Y0220594D01*
X0265091Y0220586D01*
X0265251Y0220574D01*
X0265411Y0220558D01*
X0265571Y0220538D01*
X0265730Y0220514D01*
X0265888Y0220486D01*
X0266046Y0220455D01*
X0266202Y0220419D01*
X0266358Y0220380D01*
X0266513Y0220337D01*
X0266667Y0220290D01*
X0266820Y0220239D01*
X0266971Y0220184D01*
X0267121Y0220126D01*
X0267269Y0220064D01*
X0267416Y0219998D01*
X0267561Y0219929D01*
X0267704Y0219856D01*
X0267846Y0219780D01*
X0267985Y0219700D01*
X0268123Y0219617D01*
X0268258Y0219530D01*
X0268392Y0219440D01*
X0268523Y0219347D01*
X0268651Y0219251D01*
X0268777Y0219151D01*
X0268901Y0219048D01*
X0269022Y0218943D01*
X0269141Y0218834D01*
X0269257Y0218723D01*
X0269370Y0218608D01*
X0269480Y0218491D01*
X0269587Y0218371D01*
X0269691Y0218249D01*
X0269792Y0218124D01*
X0269890Y0217996D01*
X0269985Y0217866D01*
X0270077Y0217734D01*
X0270165Y0217600D01*
X0270250Y0217463D01*
X0270332Y0217325D01*
X0270410Y0217184D01*
X0270484Y0217042D01*
X0270555Y0216898D01*
X0270623Y0216752D01*
X0270686Y0216604D01*
X0270747Y0216455D01*
X0270803Y0216304D01*
X0270856Y0216152D01*
X0270905Y0215999D01*
X0270950Y0215845D01*
X0270991Y0215690D01*
X0271029Y0215533D01*
X0271062Y0215376D01*
X0271092Y0215218D01*
X0271118Y0215059D01*
X0271139Y0214900D01*
X0271157Y0214740D01*
X0271171Y0214580D01*
X0271181Y0214419D01*
X0271187Y0214259D01*
X0271189Y0214098D01*
X0271187Y0213937D01*
X0271181Y0213777D01*
X0271171Y0213616D01*
X0271157Y0213456D01*
X0271139Y0213296D01*
X0271118Y0213137D01*
X0271092Y0212978D01*
X0271062Y0212820D01*
X0271029Y0212663D01*
X0270991Y0212506D01*
X0270950Y0212351D01*
X0270905Y0212197D01*
X0270856Y0212044D01*
X0270803Y0211892D01*
X0270747Y0211741D01*
X0270686Y0211592D01*
X0270623Y0211444D01*
X0270555Y0211298D01*
X0270484Y0211154D01*
X0270410Y0211012D01*
X0270332Y0210871D01*
X0270250Y0210733D01*
X0270165Y0210596D01*
X0270077Y0210462D01*
X0269985Y0210330D01*
X0269890Y0210200D01*
X0269792Y0210072D01*
X0269691Y0209947D01*
X0269587Y0209825D01*
X0269480Y0209705D01*
X0269370Y0209588D01*
X0269257Y0209473D01*
X0269141Y0209362D01*
X0269022Y0209253D01*
X0268901Y0209148D01*
X0268777Y0209045D01*
X0268651Y0208945D01*
X0268523Y0208849D01*
X0268392Y0208756D01*
X0268258Y0208666D01*
X0268123Y0208579D01*
X0267985Y0208496D01*
X0267846Y0208416D01*
X0267704Y0208340D01*
X0267561Y0208267D01*
X0267416Y0208198D01*
X0267269Y0208132D01*
X0267121Y0208070D01*
X0266971Y0208012D01*
X0266820Y0207957D01*
X0266667Y0207906D01*
X0266513Y0207859D01*
X0266358Y0207816D01*
X0266202Y0207777D01*
X0266046Y0207741D01*
X0265888Y0207710D01*
X0265730Y0207682D01*
X0265571Y0207658D01*
X0265411Y0207638D01*
X0265251Y0207622D01*
X0265091Y0207610D01*
X0264930Y0207602D01*
X0264769Y0207598D01*
X0264609Y0207598D01*
X0264448Y0207602D01*
X0264287Y0207610D01*
X0264127Y0207622D01*
X0263967Y0207638D01*
X0263807Y0207658D01*
X0263648Y0207682D01*
X0263490Y0207710D01*
X0263332Y0207741D01*
X0263176Y0207777D01*
X0263020Y0207816D01*
X0262865Y0207859D01*
X0262711Y0207906D01*
X0262558Y0207957D01*
X0262407Y0208012D01*
X0262257Y0208070D01*
X0262109Y0208132D01*
X0261962Y0208198D01*
X0261817Y0208267D01*
X0261674Y0208340D01*
X0261532Y0208416D01*
X0261393Y0208496D01*
X0261255Y0208579D01*
X0261120Y0208666D01*
X0260986Y0208756D01*
X0260855Y0208849D01*
X0260727Y0208945D01*
X0260601Y0209045D01*
X0260477Y0209148D01*
X0260356Y0209253D01*
X0260237Y0209362D01*
X0260121Y0209473D01*
X0260008Y0209588D01*
X0259898Y0209705D01*
X0259791Y0209825D01*
X0259687Y0209947D01*
X0259586Y0210072D01*
X0259488Y0210200D01*
X0259393Y0210330D01*
X0259301Y0210462D01*
X0259213Y0210596D01*
X0259128Y0210733D01*
X0259046Y0210871D01*
X0258968Y0211012D01*
X0258894Y0211154D01*
X0258823Y0211298D01*
X0258755Y0211444D01*
X0258692Y0211592D01*
X0258631Y0211741D01*
X0258575Y0211892D01*
X0258522Y0212044D01*
X0258473Y0212197D01*
X0258428Y0212351D01*
X0258387Y0212506D01*
X0258349Y0212663D01*
X0258316Y0212820D01*
X0258286Y0212978D01*
X0258260Y0213137D01*
X0258239Y0213296D01*
X0258221Y0213456D01*
X0258207Y0213616D01*
X0258197Y0213777D01*
X0258191Y0213937D01*
X0258189Y0214098D01*
X0006220Y0214098D02*
X0006222Y0214259D01*
X0006228Y0214419D01*
X0006238Y0214580D01*
X0006252Y0214740D01*
X0006270Y0214900D01*
X0006291Y0215059D01*
X0006317Y0215218D01*
X0006347Y0215376D01*
X0006380Y0215533D01*
X0006418Y0215690D01*
X0006459Y0215845D01*
X0006504Y0215999D01*
X0006553Y0216152D01*
X0006606Y0216304D01*
X0006662Y0216455D01*
X0006723Y0216604D01*
X0006786Y0216752D01*
X0006854Y0216898D01*
X0006925Y0217042D01*
X0006999Y0217184D01*
X0007077Y0217325D01*
X0007159Y0217463D01*
X0007244Y0217600D01*
X0007332Y0217734D01*
X0007424Y0217866D01*
X0007519Y0217996D01*
X0007617Y0218124D01*
X0007718Y0218249D01*
X0007822Y0218371D01*
X0007929Y0218491D01*
X0008039Y0218608D01*
X0008152Y0218723D01*
X0008268Y0218834D01*
X0008387Y0218943D01*
X0008508Y0219048D01*
X0008632Y0219151D01*
X0008758Y0219251D01*
X0008886Y0219347D01*
X0009017Y0219440D01*
X0009151Y0219530D01*
X0009286Y0219617D01*
X0009424Y0219700D01*
X0009563Y0219780D01*
X0009705Y0219856D01*
X0009848Y0219929D01*
X0009993Y0219998D01*
X0010140Y0220064D01*
X0010288Y0220126D01*
X0010438Y0220184D01*
X0010589Y0220239D01*
X0010742Y0220290D01*
X0010896Y0220337D01*
X0011051Y0220380D01*
X0011207Y0220419D01*
X0011363Y0220455D01*
X0011521Y0220486D01*
X0011679Y0220514D01*
X0011838Y0220538D01*
X0011998Y0220558D01*
X0012158Y0220574D01*
X0012318Y0220586D01*
X0012479Y0220594D01*
X0012640Y0220598D01*
X0012800Y0220598D01*
X0012961Y0220594D01*
X0013122Y0220586D01*
X0013282Y0220574D01*
X0013442Y0220558D01*
X0013602Y0220538D01*
X0013761Y0220514D01*
X0013919Y0220486D01*
X0014077Y0220455D01*
X0014233Y0220419D01*
X0014389Y0220380D01*
X0014544Y0220337D01*
X0014698Y0220290D01*
X0014851Y0220239D01*
X0015002Y0220184D01*
X0015152Y0220126D01*
X0015300Y0220064D01*
X0015447Y0219998D01*
X0015592Y0219929D01*
X0015735Y0219856D01*
X0015877Y0219780D01*
X0016016Y0219700D01*
X0016154Y0219617D01*
X0016289Y0219530D01*
X0016423Y0219440D01*
X0016554Y0219347D01*
X0016682Y0219251D01*
X0016808Y0219151D01*
X0016932Y0219048D01*
X0017053Y0218943D01*
X0017172Y0218834D01*
X0017288Y0218723D01*
X0017401Y0218608D01*
X0017511Y0218491D01*
X0017618Y0218371D01*
X0017722Y0218249D01*
X0017823Y0218124D01*
X0017921Y0217996D01*
X0018016Y0217866D01*
X0018108Y0217734D01*
X0018196Y0217600D01*
X0018281Y0217463D01*
X0018363Y0217325D01*
X0018441Y0217184D01*
X0018515Y0217042D01*
X0018586Y0216898D01*
X0018654Y0216752D01*
X0018717Y0216604D01*
X0018778Y0216455D01*
X0018834Y0216304D01*
X0018887Y0216152D01*
X0018936Y0215999D01*
X0018981Y0215845D01*
X0019022Y0215690D01*
X0019060Y0215533D01*
X0019093Y0215376D01*
X0019123Y0215218D01*
X0019149Y0215059D01*
X0019170Y0214900D01*
X0019188Y0214740D01*
X0019202Y0214580D01*
X0019212Y0214419D01*
X0019218Y0214259D01*
X0019220Y0214098D01*
X0019218Y0213937D01*
X0019212Y0213777D01*
X0019202Y0213616D01*
X0019188Y0213456D01*
X0019170Y0213296D01*
X0019149Y0213137D01*
X0019123Y0212978D01*
X0019093Y0212820D01*
X0019060Y0212663D01*
X0019022Y0212506D01*
X0018981Y0212351D01*
X0018936Y0212197D01*
X0018887Y0212044D01*
X0018834Y0211892D01*
X0018778Y0211741D01*
X0018717Y0211592D01*
X0018654Y0211444D01*
X0018586Y0211298D01*
X0018515Y0211154D01*
X0018441Y0211012D01*
X0018363Y0210871D01*
X0018281Y0210733D01*
X0018196Y0210596D01*
X0018108Y0210462D01*
X0018016Y0210330D01*
X0017921Y0210200D01*
X0017823Y0210072D01*
X0017722Y0209947D01*
X0017618Y0209825D01*
X0017511Y0209705D01*
X0017401Y0209588D01*
X0017288Y0209473D01*
X0017172Y0209362D01*
X0017053Y0209253D01*
X0016932Y0209148D01*
X0016808Y0209045D01*
X0016682Y0208945D01*
X0016554Y0208849D01*
X0016423Y0208756D01*
X0016289Y0208666D01*
X0016154Y0208579D01*
X0016016Y0208496D01*
X0015877Y0208416D01*
X0015735Y0208340D01*
X0015592Y0208267D01*
X0015447Y0208198D01*
X0015300Y0208132D01*
X0015152Y0208070D01*
X0015002Y0208012D01*
X0014851Y0207957D01*
X0014698Y0207906D01*
X0014544Y0207859D01*
X0014389Y0207816D01*
X0014233Y0207777D01*
X0014077Y0207741D01*
X0013919Y0207710D01*
X0013761Y0207682D01*
X0013602Y0207658D01*
X0013442Y0207638D01*
X0013282Y0207622D01*
X0013122Y0207610D01*
X0012961Y0207602D01*
X0012800Y0207598D01*
X0012640Y0207598D01*
X0012479Y0207602D01*
X0012318Y0207610D01*
X0012158Y0207622D01*
X0011998Y0207638D01*
X0011838Y0207658D01*
X0011679Y0207682D01*
X0011521Y0207710D01*
X0011363Y0207741D01*
X0011207Y0207777D01*
X0011051Y0207816D01*
X0010896Y0207859D01*
X0010742Y0207906D01*
X0010589Y0207957D01*
X0010438Y0208012D01*
X0010288Y0208070D01*
X0010140Y0208132D01*
X0009993Y0208198D01*
X0009848Y0208267D01*
X0009705Y0208340D01*
X0009563Y0208416D01*
X0009424Y0208496D01*
X0009286Y0208579D01*
X0009151Y0208666D01*
X0009017Y0208756D01*
X0008886Y0208849D01*
X0008758Y0208945D01*
X0008632Y0209045D01*
X0008508Y0209148D01*
X0008387Y0209253D01*
X0008268Y0209362D01*
X0008152Y0209473D01*
X0008039Y0209588D01*
X0007929Y0209705D01*
X0007822Y0209825D01*
X0007718Y0209947D01*
X0007617Y0210072D01*
X0007519Y0210200D01*
X0007424Y0210330D01*
X0007332Y0210462D01*
X0007244Y0210596D01*
X0007159Y0210733D01*
X0007077Y0210871D01*
X0006999Y0211012D01*
X0006925Y0211154D01*
X0006854Y0211298D01*
X0006786Y0211444D01*
X0006723Y0211592D01*
X0006662Y0211741D01*
X0006606Y0211892D01*
X0006553Y0212044D01*
X0006504Y0212197D01*
X0006459Y0212351D01*
X0006418Y0212506D01*
X0006380Y0212663D01*
X0006347Y0212820D01*
X0006317Y0212978D01*
X0006291Y0213137D01*
X0006270Y0213296D01*
X0006252Y0213456D01*
X0006238Y0213616D01*
X0006228Y0213777D01*
X0006222Y0213937D01*
X0006220Y0214098D01*
D11*
X0181238Y0184557D02*
X0183966Y0184557D01*
X0183966Y0180647D01*
X0181238Y0180647D01*
X0181238Y0184557D01*
X0181238Y0182248D02*
X0183966Y0182248D01*
X0183966Y0183849D02*
X0181238Y0183849D01*
X0189112Y0184557D02*
X0191840Y0184557D01*
X0191840Y0180647D01*
X0189112Y0180647D01*
X0189112Y0184557D01*
X0189112Y0182248D02*
X0191840Y0182248D01*
X0191840Y0183849D02*
X0189112Y0183849D01*
X0189112Y0176683D02*
X0191840Y0176683D01*
X0191840Y0172773D01*
X0189112Y0172773D01*
X0189112Y0176683D01*
X0189112Y0174374D02*
X0191840Y0174374D01*
X0191840Y0175975D02*
X0189112Y0175975D01*
X0183966Y0176683D02*
X0181238Y0176683D01*
X0183966Y0176683D02*
X0183966Y0172773D01*
X0181238Y0172773D01*
X0181238Y0176683D01*
X0181238Y0174374D02*
X0183966Y0174374D01*
X0183966Y0175975D02*
X0181238Y0175975D01*
X0180647Y0168218D02*
X0180647Y0165490D01*
X0180647Y0168218D02*
X0184557Y0168218D01*
X0184557Y0165490D01*
X0180647Y0165490D01*
X0180647Y0167091D02*
X0184557Y0167091D01*
X0180647Y0160344D02*
X0180647Y0157616D01*
X0180647Y0160344D02*
X0184557Y0160344D01*
X0184557Y0157616D01*
X0180647Y0157616D01*
X0180647Y0159217D02*
X0184557Y0159217D01*
D12*
X0168980Y0128547D03*
X0158980Y0128547D03*
X0148980Y0128547D03*
X0148980Y0118547D03*
X0158980Y0118547D03*
X0168980Y0118547D03*
D13*
X0118823Y0111736D02*
X0112523Y0111736D01*
X0112523Y0119610D01*
X0118823Y0119610D01*
X0118823Y0111736D01*
X0118823Y0113310D02*
X0112523Y0113310D01*
X0112523Y0114884D02*
X0118823Y0114884D01*
X0118823Y0116458D02*
X0112523Y0116458D01*
X0112523Y0118032D02*
X0118823Y0118032D01*
X0118823Y0119606D02*
X0112523Y0119606D01*
X0103075Y0119610D02*
X0096775Y0119610D01*
X0103075Y0119610D02*
X0103075Y0111736D01*
X0096775Y0111736D01*
X0096775Y0119610D01*
X0096775Y0113310D02*
X0103075Y0113310D01*
X0103075Y0114884D02*
X0096775Y0114884D01*
X0096775Y0116458D02*
X0103075Y0116458D01*
X0103075Y0118032D02*
X0096775Y0118032D01*
X0096775Y0119606D02*
X0103075Y0119606D01*
X0237634Y0164695D02*
X0242358Y0164695D01*
X0242358Y0159171D01*
X0237634Y0159171D01*
X0237634Y0164695D01*
X0237634Y0160745D02*
X0242358Y0160745D01*
X0242358Y0162319D02*
X0237634Y0162319D01*
X0237634Y0163893D02*
X0242358Y0163893D01*
X0248831Y0164695D02*
X0253555Y0164695D01*
X0253555Y0159171D01*
X0248831Y0159171D01*
X0248831Y0164695D01*
X0248831Y0160745D02*
X0253555Y0160745D01*
X0253555Y0162319D02*
X0248831Y0162319D01*
X0248831Y0163893D02*
X0253555Y0163893D01*
D14*
X0250707Y0173936D02*
X0247175Y0173936D01*
X0250707Y0173936D02*
X0250707Y0169616D01*
X0247175Y0169616D01*
X0247175Y0173936D01*
X0247175Y0171202D02*
X0250707Y0171202D01*
X0250707Y0172788D02*
X0247175Y0172788D01*
X0244014Y0173936D02*
X0240482Y0173936D01*
X0244014Y0173936D02*
X0244014Y0169616D01*
X0240482Y0169616D01*
X0240482Y0173936D01*
X0240482Y0171202D02*
X0244014Y0171202D01*
X0244014Y0172788D02*
X0240482Y0172788D01*
X0240482Y0182794D02*
X0244014Y0182794D01*
X0244014Y0178474D01*
X0240482Y0178474D01*
X0240482Y0182794D01*
X0240482Y0180060D02*
X0244014Y0180060D01*
X0244014Y0181646D02*
X0240482Y0181646D01*
X0247175Y0182794D02*
X0250707Y0182794D01*
X0250707Y0178474D01*
X0247175Y0178474D01*
X0247175Y0182794D01*
X0247175Y0180060D02*
X0250707Y0180060D01*
X0250707Y0181646D02*
X0247175Y0181646D01*
X0247175Y0137135D02*
X0250707Y0137135D01*
X0247175Y0137135D02*
X0247175Y0141455D01*
X0250707Y0141455D01*
X0250707Y0137135D01*
X0250707Y0138721D02*
X0247175Y0138721D01*
X0247175Y0140307D02*
X0250707Y0140307D01*
X0244014Y0137135D02*
X0240482Y0137135D01*
X0240482Y0141455D01*
X0244014Y0141455D01*
X0244014Y0137135D01*
X0244014Y0138721D02*
X0240482Y0138721D01*
X0240482Y0140307D02*
X0244014Y0140307D01*
X0154053Y0169340D02*
X0150521Y0169340D01*
X0150521Y0173660D01*
X0154053Y0173660D01*
X0154053Y0169340D01*
X0154053Y0170926D02*
X0150521Y0170926D01*
X0150521Y0172512D02*
X0154053Y0172512D01*
X0147360Y0169340D02*
X0143828Y0169340D01*
X0143828Y0173660D01*
X0147360Y0173660D01*
X0147360Y0169340D01*
X0147360Y0170926D02*
X0143828Y0170926D01*
X0143828Y0172512D02*
X0147360Y0172512D01*
X0134565Y0113513D02*
X0131033Y0113513D01*
X0131033Y0117833D01*
X0134565Y0117833D01*
X0134565Y0113513D01*
X0134565Y0115099D02*
X0131033Y0115099D01*
X0131033Y0116685D02*
X0134565Y0116685D01*
X0127872Y0113513D02*
X0124340Y0113513D01*
X0124340Y0117833D01*
X0127872Y0117833D01*
X0127872Y0113513D01*
X0127872Y0115099D02*
X0124340Y0115099D01*
X0124340Y0116685D02*
X0127872Y0116685D01*
X0091258Y0117833D02*
X0087726Y0117833D01*
X0091258Y0117833D02*
X0091258Y0113513D01*
X0087726Y0113513D01*
X0087726Y0117833D01*
X0087726Y0115099D02*
X0091258Y0115099D01*
X0091258Y0116685D02*
X0087726Y0116685D01*
X0084565Y0117833D02*
X0081033Y0117833D01*
X0084565Y0117833D02*
X0084565Y0113513D01*
X0081033Y0113513D01*
X0081033Y0117833D01*
X0081033Y0115099D02*
X0084565Y0115099D01*
X0084565Y0116685D02*
X0081033Y0116685D01*
D15*
X0242040Y0147772D02*
X0242040Y0152472D01*
X0242040Y0147772D02*
X0238126Y0147772D01*
X0238126Y0152472D01*
X0242040Y0152472D01*
X0242040Y0149369D02*
X0238126Y0149369D01*
X0238126Y0150966D02*
X0242040Y0150966D01*
X0253063Y0152472D02*
X0253063Y0147772D01*
X0249149Y0147772D01*
X0249149Y0152472D01*
X0253063Y0152472D01*
X0253063Y0149369D02*
X0249149Y0149369D01*
X0249149Y0150966D02*
X0253063Y0150966D01*
D16*
X0235949Y0206520D02*
X0235949Y0210654D01*
X0233390Y0210654D02*
X0233390Y0206520D01*
X0230831Y0206520D02*
X0230831Y0210654D01*
X0228272Y0210654D02*
X0228272Y0206520D01*
X0225713Y0206520D02*
X0225713Y0210654D01*
D17*
X0217811Y0216095D02*
X0212355Y0216095D01*
X0212355Y0221945D01*
X0217811Y0221945D01*
X0217811Y0216095D01*
X0217811Y0217724D02*
X0212355Y0217724D01*
X0212355Y0219353D02*
X0217811Y0219353D01*
X0217811Y0220982D02*
X0212355Y0220982D01*
X0243851Y0216095D02*
X0249307Y0216095D01*
X0243851Y0216095D02*
X0243851Y0221945D01*
X0249307Y0221945D01*
X0249307Y0216095D01*
X0249307Y0217724D02*
X0243851Y0217724D01*
X0243851Y0219353D02*
X0249307Y0219353D01*
X0249307Y0220982D02*
X0243851Y0220982D01*
D18*
X0238786Y0216065D02*
X0232876Y0216065D01*
X0232876Y0221975D01*
X0238786Y0221975D01*
X0238786Y0216065D01*
X0238786Y0217635D02*
X0232876Y0217635D01*
X0232876Y0219205D02*
X0238786Y0219205D01*
X0238786Y0220775D02*
X0232876Y0220775D01*
X0228786Y0216065D02*
X0222876Y0216065D01*
X0222876Y0221975D01*
X0228786Y0221975D01*
X0228786Y0216065D01*
X0228786Y0217635D02*
X0222876Y0217635D01*
X0222876Y0219205D02*
X0228786Y0219205D01*
X0228786Y0220775D02*
X0222876Y0220775D01*
D19*
X0131058Y0187435D02*
X0126746Y0187435D01*
X0131058Y0187435D02*
X0131058Y0187061D01*
X0126746Y0187061D01*
X0126746Y0187435D01*
X0126746Y0184285D02*
X0131058Y0184285D01*
X0131058Y0183911D01*
X0126746Y0183911D01*
X0126746Y0184285D01*
X0126746Y0181136D02*
X0131058Y0181136D01*
X0131058Y0180762D01*
X0126746Y0180762D01*
X0126746Y0181136D01*
X0126746Y0177986D02*
X0131058Y0177986D01*
X0131058Y0177612D01*
X0126746Y0177612D01*
X0126746Y0177986D01*
X0126746Y0174837D02*
X0131058Y0174837D01*
X0131058Y0174463D01*
X0126746Y0174463D01*
X0126746Y0174837D01*
X0126746Y0171687D02*
X0131058Y0171687D01*
X0131058Y0171313D01*
X0126746Y0171313D01*
X0126746Y0171687D01*
X0126746Y0168537D02*
X0131058Y0168537D01*
X0131058Y0168163D01*
X0126746Y0168163D01*
X0126746Y0168537D01*
X0126746Y0165388D02*
X0131058Y0165388D01*
X0131058Y0165014D01*
X0126746Y0165014D01*
X0126746Y0165388D01*
X0126746Y0162238D02*
X0131058Y0162238D01*
X0131058Y0161864D01*
X0126746Y0161864D01*
X0126746Y0162238D01*
X0126746Y0159089D02*
X0131058Y0159089D01*
X0131058Y0158715D01*
X0126746Y0158715D01*
X0126746Y0159089D01*
X0126746Y0155939D02*
X0131058Y0155939D01*
X0131058Y0155565D01*
X0126746Y0155565D01*
X0126746Y0155939D01*
X0122002Y0150821D02*
X0121628Y0150821D01*
X0122002Y0150821D02*
X0122002Y0146509D01*
X0121628Y0146509D01*
X0121628Y0150821D01*
X0121628Y0148102D02*
X0122002Y0148102D01*
X0122002Y0149695D02*
X0121628Y0149695D01*
X0118852Y0150821D02*
X0118478Y0150821D01*
X0118852Y0150821D02*
X0118852Y0146509D01*
X0118478Y0146509D01*
X0118478Y0150821D01*
X0118478Y0148102D02*
X0118852Y0148102D01*
X0118852Y0149695D02*
X0118478Y0149695D01*
X0115703Y0150821D02*
X0115329Y0150821D01*
X0115703Y0150821D02*
X0115703Y0146509D01*
X0115329Y0146509D01*
X0115329Y0150821D01*
X0115329Y0148102D02*
X0115703Y0148102D01*
X0115703Y0149695D02*
X0115329Y0149695D01*
X0112553Y0150821D02*
X0112179Y0150821D01*
X0112553Y0150821D02*
X0112553Y0146509D01*
X0112179Y0146509D01*
X0112179Y0150821D01*
X0112179Y0148102D02*
X0112553Y0148102D01*
X0112553Y0149695D02*
X0112179Y0149695D01*
X0109404Y0150821D02*
X0109030Y0150821D01*
X0109404Y0150821D02*
X0109404Y0146509D01*
X0109030Y0146509D01*
X0109030Y0150821D01*
X0109030Y0148102D02*
X0109404Y0148102D01*
X0109404Y0149695D02*
X0109030Y0149695D01*
X0106254Y0150821D02*
X0105880Y0150821D01*
X0106254Y0150821D02*
X0106254Y0146509D01*
X0105880Y0146509D01*
X0105880Y0150821D01*
X0105880Y0148102D02*
X0106254Y0148102D01*
X0106254Y0149695D02*
X0105880Y0149695D01*
X0103104Y0150821D02*
X0102730Y0150821D01*
X0103104Y0150821D02*
X0103104Y0146509D01*
X0102730Y0146509D01*
X0102730Y0150821D01*
X0102730Y0148102D02*
X0103104Y0148102D01*
X0103104Y0149695D02*
X0102730Y0149695D01*
X0099955Y0150821D02*
X0099581Y0150821D01*
X0099955Y0150821D02*
X0099955Y0146509D01*
X0099581Y0146509D01*
X0099581Y0150821D01*
X0099581Y0148102D02*
X0099955Y0148102D01*
X0099955Y0149695D02*
X0099581Y0149695D01*
X0096805Y0150821D02*
X0096431Y0150821D01*
X0096805Y0150821D02*
X0096805Y0146509D01*
X0096431Y0146509D01*
X0096431Y0150821D01*
X0096431Y0148102D02*
X0096805Y0148102D01*
X0096805Y0149695D02*
X0096431Y0149695D01*
X0093656Y0150821D02*
X0093282Y0150821D01*
X0093656Y0150821D02*
X0093656Y0146509D01*
X0093282Y0146509D01*
X0093282Y0150821D01*
X0093282Y0148102D02*
X0093656Y0148102D01*
X0093656Y0149695D02*
X0093282Y0149695D01*
X0090506Y0150821D02*
X0090132Y0150821D01*
X0090506Y0150821D02*
X0090506Y0146509D01*
X0090132Y0146509D01*
X0090132Y0150821D01*
X0090132Y0148102D02*
X0090506Y0148102D01*
X0090506Y0149695D02*
X0090132Y0149695D01*
X0085388Y0155939D02*
X0081076Y0155939D01*
X0085388Y0155939D02*
X0085388Y0155565D01*
X0081076Y0155565D01*
X0081076Y0155939D01*
X0081076Y0159089D02*
X0085388Y0159089D01*
X0085388Y0158715D01*
X0081076Y0158715D01*
X0081076Y0159089D01*
X0081076Y0162238D02*
X0085388Y0162238D01*
X0085388Y0161864D01*
X0081076Y0161864D01*
X0081076Y0162238D01*
X0081076Y0165388D02*
X0085388Y0165388D01*
X0085388Y0165014D01*
X0081076Y0165014D01*
X0081076Y0165388D01*
X0081076Y0168537D02*
X0085388Y0168537D01*
X0085388Y0168163D01*
X0081076Y0168163D01*
X0081076Y0168537D01*
X0081076Y0171687D02*
X0085388Y0171687D01*
X0085388Y0171313D01*
X0081076Y0171313D01*
X0081076Y0171687D01*
X0081076Y0174837D02*
X0085388Y0174837D01*
X0085388Y0174463D01*
X0081076Y0174463D01*
X0081076Y0174837D01*
X0081076Y0177986D02*
X0085388Y0177986D01*
X0085388Y0177612D01*
X0081076Y0177612D01*
X0081076Y0177986D01*
X0081076Y0181136D02*
X0085388Y0181136D01*
X0085388Y0180762D01*
X0081076Y0180762D01*
X0081076Y0181136D01*
X0081076Y0184285D02*
X0085388Y0184285D01*
X0085388Y0183911D01*
X0081076Y0183911D01*
X0081076Y0184285D01*
X0081076Y0187435D02*
X0085388Y0187435D01*
X0085388Y0187061D01*
X0081076Y0187061D01*
X0081076Y0187435D01*
X0090132Y0196491D02*
X0090506Y0196491D01*
X0090506Y0192179D01*
X0090132Y0192179D01*
X0090132Y0196491D01*
X0090132Y0193772D02*
X0090506Y0193772D01*
X0090506Y0195365D02*
X0090132Y0195365D01*
X0093282Y0196491D02*
X0093656Y0196491D01*
X0093656Y0192179D01*
X0093282Y0192179D01*
X0093282Y0196491D01*
X0093282Y0193772D02*
X0093656Y0193772D01*
X0093656Y0195365D02*
X0093282Y0195365D01*
X0096431Y0196491D02*
X0096805Y0196491D01*
X0096805Y0192179D01*
X0096431Y0192179D01*
X0096431Y0196491D01*
X0096431Y0193772D02*
X0096805Y0193772D01*
X0096805Y0195365D02*
X0096431Y0195365D01*
X0099581Y0196491D02*
X0099955Y0196491D01*
X0099955Y0192179D01*
X0099581Y0192179D01*
X0099581Y0196491D01*
X0099581Y0193772D02*
X0099955Y0193772D01*
X0099955Y0195365D02*
X0099581Y0195365D01*
X0102730Y0196491D02*
X0103104Y0196491D01*
X0103104Y0192179D01*
X0102730Y0192179D01*
X0102730Y0196491D01*
X0102730Y0193772D02*
X0103104Y0193772D01*
X0103104Y0195365D02*
X0102730Y0195365D01*
X0105880Y0196491D02*
X0106254Y0196491D01*
X0106254Y0192179D01*
X0105880Y0192179D01*
X0105880Y0196491D01*
X0105880Y0193772D02*
X0106254Y0193772D01*
X0106254Y0195365D02*
X0105880Y0195365D01*
X0109030Y0196491D02*
X0109404Y0196491D01*
X0109404Y0192179D01*
X0109030Y0192179D01*
X0109030Y0196491D01*
X0109030Y0193772D02*
X0109404Y0193772D01*
X0109404Y0195365D02*
X0109030Y0195365D01*
X0112179Y0196491D02*
X0112553Y0196491D01*
X0112553Y0192179D01*
X0112179Y0192179D01*
X0112179Y0196491D01*
X0112179Y0193772D02*
X0112553Y0193772D01*
X0112553Y0195365D02*
X0112179Y0195365D01*
X0115329Y0196491D02*
X0115703Y0196491D01*
X0115703Y0192179D01*
X0115329Y0192179D01*
X0115329Y0196491D01*
X0115329Y0193772D02*
X0115703Y0193772D01*
X0115703Y0195365D02*
X0115329Y0195365D01*
X0118478Y0196491D02*
X0118852Y0196491D01*
X0118852Y0192179D01*
X0118478Y0192179D01*
X0118478Y0196491D01*
X0118478Y0193772D02*
X0118852Y0193772D01*
X0118852Y0195365D02*
X0118478Y0195365D01*
X0121628Y0196491D02*
X0122002Y0196491D01*
X0122002Y0192179D01*
X0121628Y0192179D01*
X0121628Y0196491D01*
X0121628Y0193772D02*
X0122002Y0193772D01*
X0122002Y0195365D02*
X0121628Y0195365D01*
D20*
X0180224Y0151437D02*
X0180224Y0150027D01*
X0180224Y0151437D02*
X0184634Y0151437D01*
X0184634Y0150027D01*
X0180224Y0150027D01*
X0180224Y0136437D02*
X0180224Y0135027D01*
X0180224Y0136437D02*
X0184634Y0136437D01*
X0184634Y0135027D01*
X0180224Y0135027D01*
X0202224Y0135027D02*
X0202224Y0136437D01*
X0206634Y0136437D01*
X0206634Y0135027D01*
X0202224Y0135027D01*
X0202224Y0150027D02*
X0202224Y0151437D01*
X0206634Y0151437D01*
X0206634Y0150027D01*
X0202224Y0150027D01*
D21*
X0153232Y0194413D03*
X0143232Y0194413D03*
X0130240Y0220004D03*
X0120240Y0220004D03*
X0110240Y0220004D03*
X0100240Y0220004D03*
X0090240Y0220004D03*
X0080240Y0220004D03*
X0044807Y0186539D03*
X0034807Y0186539D03*
X0034807Y0174728D03*
X0044807Y0174728D03*
X0131421Y0139295D03*
X0141421Y0139295D03*
X0167366Y0220004D03*
X0177366Y0220004D03*
X0187366Y0220004D03*
X0197366Y0220004D03*
D22*
X0192494Y0218177D02*
X0192238Y0218177D01*
X0192366Y0218487D02*
X0192958Y0217058D01*
X0194421Y0215596D01*
X0196332Y0214804D01*
X0198400Y0214804D01*
X0200312Y0215596D01*
X0201774Y0217058D01*
X0202566Y0218970D01*
X0202566Y0221038D01*
X0201774Y0222949D01*
X0201346Y0223378D01*
X0210528Y0223378D01*
X0210303Y0223041D01*
X0210128Y0222620D01*
X0210039Y0222173D01*
X0210039Y0219520D01*
X0214583Y0219520D01*
X0214583Y0218520D01*
X0215583Y0218520D01*
X0215583Y0219520D01*
X0220126Y0219520D01*
X0220126Y0222173D01*
X0220037Y0222620D01*
X0219862Y0223041D01*
X0219638Y0223378D01*
X0221047Y0223378D01*
X0220591Y0222921D01*
X0220591Y0215118D01*
X0221929Y0213780D01*
X0229732Y0213780D01*
X0230831Y0214878D01*
X0231929Y0213780D01*
X0239732Y0213780D01*
X0241071Y0215118D01*
X0241071Y0222921D01*
X0240614Y0223378D01*
X0242024Y0223378D01*
X0241799Y0223041D01*
X0241624Y0222620D01*
X0241535Y0222173D01*
X0241535Y0219520D01*
X0246079Y0219520D01*
X0246079Y0218520D01*
X0241535Y0218520D01*
X0241535Y0215866D01*
X0241624Y0215419D01*
X0241799Y0214998D01*
X0242052Y0214619D01*
X0242375Y0214296D01*
X0242754Y0214043D01*
X0243175Y0213868D01*
X0243622Y0213780D01*
X0246079Y0213780D01*
X0246079Y0218520D01*
X0247079Y0218520D01*
X0247079Y0219520D01*
X0251622Y0219520D01*
X0251622Y0222173D01*
X0251533Y0222620D01*
X0251359Y0223041D01*
X0251134Y0223378D01*
X0258762Y0223378D01*
X0257935Y0222901D01*
X0255887Y0220853D01*
X0254439Y0218344D01*
X0253689Y0215547D01*
X0253689Y0212650D01*
X0254439Y0209853D01*
X0255887Y0207344D01*
X0257935Y0205296D01*
X0260443Y0203848D01*
X0263241Y0203098D01*
X0266137Y0203098D01*
X0268935Y0203848D01*
X0271443Y0205296D01*
X0272591Y0206444D01*
X0272591Y0087895D01*
X0271443Y0089042D01*
X0268935Y0090491D01*
X0266137Y0091240D01*
X0263241Y0091240D01*
X0260443Y0090491D01*
X0257935Y0089042D01*
X0255887Y0086994D01*
X0254439Y0084486D01*
X0253689Y0081688D01*
X0253689Y0078792D01*
X0254439Y0075994D01*
X0255887Y0073486D01*
X0257935Y0071438D01*
X0260443Y0069990D01*
X0263241Y0069240D01*
X0266137Y0069240D01*
X0268935Y0069990D01*
X0271443Y0071438D01*
X0272591Y0072585D01*
X0272591Y0045370D01*
X0197455Y0045370D01*
X0195801Y0044685D01*
X0194535Y0043419D01*
X0193850Y0041765D01*
X0193850Y0006000D01*
X0072929Y0006000D01*
X0072929Y0041765D01*
X0072244Y0043419D01*
X0070978Y0044685D01*
X0069324Y0045370D01*
X0006000Y0045370D01*
X0006000Y0047796D01*
X0008475Y0046368D01*
X0011272Y0045618D01*
X0014169Y0045618D01*
X0016966Y0046368D01*
X0019475Y0047816D01*
X0021523Y0049864D01*
X0022971Y0052372D01*
X0023720Y0055170D01*
X0023720Y0058066D01*
X0022971Y0060864D01*
X0021523Y0063372D01*
X0019475Y0065420D01*
X0016966Y0066868D01*
X0014169Y0067618D01*
X0011272Y0067618D01*
X0008475Y0066868D01*
X0006000Y0065440D01*
X0006000Y0205277D01*
X0008475Y0203848D01*
X0011272Y0203098D01*
X0014169Y0203098D01*
X0016966Y0203848D01*
X0019475Y0205296D01*
X0021523Y0207344D01*
X0022971Y0209853D01*
X0023720Y0212650D01*
X0023720Y0215547D01*
X0022971Y0218344D01*
X0021523Y0220853D01*
X0019475Y0222901D01*
X0018648Y0223378D01*
X0076260Y0223378D01*
X0075832Y0222949D01*
X0075040Y0221038D01*
X0075040Y0218970D01*
X0075832Y0217058D01*
X0077295Y0215596D01*
X0078240Y0215204D01*
X0078240Y0213270D01*
X0092778Y0198732D01*
X0092611Y0198699D01*
X0092193Y0198526D01*
X0091909Y0198336D01*
X0091457Y0198787D01*
X0089180Y0198787D01*
X0087835Y0197442D01*
X0087835Y0191228D01*
X0088319Y0190743D01*
X0088319Y0160902D01*
X0087674Y0160902D01*
X0087685Y0160913D01*
X0087685Y0163190D01*
X0087249Y0163626D01*
X0087685Y0164062D01*
X0087685Y0166339D01*
X0087249Y0166776D01*
X0087685Y0167212D01*
X0087685Y0169489D01*
X0087249Y0169925D01*
X0087685Y0170361D01*
X0087685Y0172639D01*
X0087249Y0173075D01*
X0087685Y0173511D01*
X0087685Y0175788D01*
X0087249Y0176224D01*
X0087685Y0176661D01*
X0087685Y0178938D01*
X0087249Y0179374D01*
X0087685Y0179810D01*
X0087685Y0182087D01*
X0087249Y0182524D01*
X0087685Y0182960D01*
X0087685Y0185237D01*
X0087249Y0185673D01*
X0087685Y0186109D01*
X0087685Y0188387D01*
X0086339Y0189732D01*
X0080125Y0189732D01*
X0078780Y0188387D01*
X0078780Y0186109D01*
X0078791Y0186098D01*
X0078303Y0186098D01*
X0078303Y0199179D01*
X0077132Y0200350D01*
X0020357Y0200350D01*
X0019185Y0199179D01*
X0019185Y0081380D01*
X0020357Y0080209D01*
X0124840Y0080209D01*
X0125624Y0079424D01*
X0126831Y0078924D01*
X0128138Y0078924D01*
X0129345Y0079424D01*
X0130268Y0080348D01*
X0130768Y0081555D01*
X0130768Y0082862D01*
X0130268Y0084069D01*
X0130192Y0084146D01*
X0172084Y0084146D01*
X0172868Y0083361D01*
X0174075Y0082861D01*
X0175382Y0082861D01*
X0176589Y0083361D01*
X0177513Y0084285D01*
X0178013Y0085492D01*
X0178013Y0086799D01*
X0177513Y0088006D01*
X0176589Y0088930D01*
X0175382Y0089430D01*
X0174075Y0089430D01*
X0172868Y0088930D01*
X0172084Y0088146D01*
X0120089Y0088146D01*
X0121837Y0089155D01*
X0123885Y0091203D01*
X0125333Y0093711D01*
X0126083Y0096509D01*
X0126083Y0099405D01*
X0125333Y0102203D01*
X0123885Y0104711D01*
X0121837Y0106759D01*
X0119329Y0108207D01*
X0116531Y0108957D01*
X0113634Y0108957D01*
X0110837Y0108207D01*
X0108329Y0106759D01*
X0106280Y0104711D01*
X0104832Y0102203D01*
X0104083Y0099405D01*
X0104083Y0096509D01*
X0104832Y0093711D01*
X0106280Y0091203D01*
X0108329Y0089155D01*
X0110076Y0088146D01*
X0027122Y0088146D01*
X0027122Y0192413D01*
X0070366Y0192413D01*
X0070366Y0187431D01*
X0069258Y0188539D01*
X0049607Y0188539D01*
X0049215Y0189485D01*
X0047753Y0190948D01*
X0045841Y0191739D01*
X0043773Y0191739D01*
X0041862Y0190948D01*
X0040399Y0189485D01*
X0039793Y0188022D01*
X0039626Y0188535D01*
X0039255Y0189265D01*
X0038773Y0189927D01*
X0038195Y0190506D01*
X0037532Y0190987D01*
X0036803Y0191358D01*
X0036025Y0191611D01*
X0035307Y0191725D01*
X0035307Y0187039D01*
X0034307Y0187039D01*
X0034307Y0186039D01*
X0035307Y0186039D01*
X0035307Y0181354D01*
X0036025Y0181467D01*
X0036803Y0181720D01*
X0037532Y0182092D01*
X0038195Y0182573D01*
X0038773Y0183152D01*
X0039255Y0183814D01*
X0039626Y0184543D01*
X0039793Y0185057D01*
X0040399Y0183594D01*
X0041862Y0182131D01*
X0043773Y0181339D01*
X0045841Y0181339D01*
X0047753Y0182131D01*
X0049215Y0183594D01*
X0049607Y0184539D01*
X0066429Y0184539D01*
X0066429Y0176971D01*
X0066750Y0176650D01*
X0049640Y0176650D01*
X0049215Y0177674D01*
X0047753Y0179137D01*
X0045841Y0179928D01*
X0043773Y0179928D01*
X0041862Y0179137D01*
X0040399Y0177674D01*
X0039793Y0176211D01*
X0039626Y0176724D01*
X0039255Y0177454D01*
X0038773Y0178116D01*
X0038195Y0178695D01*
X0037532Y0179176D01*
X0036803Y0179547D01*
X0036025Y0179800D01*
X0035307Y0179914D01*
X0035307Y0175228D01*
X0034307Y0175228D01*
X0034307Y0174228D01*
X0035307Y0174228D01*
X0035307Y0169543D01*
X0036025Y0169656D01*
X0036803Y0169909D01*
X0037532Y0170281D01*
X0038195Y0170762D01*
X0038773Y0171341D01*
X0039255Y0172003D01*
X0039626Y0172732D01*
X0039793Y0173245D01*
X0040399Y0171783D01*
X0041862Y0170320D01*
X0043773Y0169528D01*
X0045841Y0169528D01*
X0047753Y0170320D01*
X0049215Y0171783D01*
X0049574Y0172650D01*
X0054939Y0172650D01*
X0054618Y0172328D01*
X0054618Y0169499D01*
X0053834Y0168715D01*
X0053334Y0167508D01*
X0053334Y0166201D01*
X0053834Y0164994D01*
X0054758Y0164070D01*
X0055965Y0163570D01*
X0057271Y0163570D01*
X0057271Y0162264D01*
X0057771Y0161057D01*
X0058695Y0160133D01*
X0059902Y0159633D01*
X0061208Y0159633D01*
X0061208Y0158327D01*
X0061708Y0157120D01*
X0062632Y0156196D01*
X0063839Y0155696D01*
X0065145Y0155696D01*
X0065145Y0154390D01*
X0065645Y0153183D01*
X0066569Y0152259D01*
X0067776Y0151759D01*
X0069082Y0151759D01*
X0070290Y0152259D01*
X0071213Y0153183D01*
X0071713Y0154390D01*
X0071713Y0155697D01*
X0071213Y0156904D01*
X0070429Y0157688D01*
X0070429Y0160051D01*
X0078791Y0160051D01*
X0078780Y0160040D01*
X0078780Y0157763D01*
X0079231Y0157312D01*
X0079041Y0157027D01*
X0078868Y0156609D01*
X0078780Y0156165D01*
X0078780Y0155752D01*
X0083232Y0155752D01*
X0083232Y0155752D01*
X0078780Y0155752D01*
X0078780Y0155339D01*
X0078868Y0154895D01*
X0079041Y0154477D01*
X0079292Y0154101D01*
X0079612Y0153781D01*
X0079989Y0153529D01*
X0080407Y0153356D01*
X0080851Y0153268D01*
X0083232Y0153268D01*
X0083232Y0155752D01*
X0083232Y0155752D01*
X0083232Y0153268D01*
X0085614Y0153268D01*
X0086058Y0153356D01*
X0086476Y0153529D01*
X0086852Y0153781D01*
X0087172Y0154101D01*
X0087424Y0154477D01*
X0087597Y0154895D01*
X0087685Y0155339D01*
X0087685Y0155752D01*
X0087685Y0156165D01*
X0087597Y0156609D01*
X0087476Y0156902D01*
X0091147Y0156902D01*
X0092319Y0158073D01*
X0092319Y0184539D01*
X0113516Y0184539D01*
X0113516Y0152909D01*
X0113223Y0153030D01*
X0112779Y0153118D01*
X0112366Y0153118D01*
X0111953Y0153118D01*
X0111509Y0153030D01*
X0111091Y0152857D01*
X0110807Y0152667D01*
X0110355Y0153118D01*
X0108078Y0153118D01*
X0107642Y0152682D01*
X0107205Y0153118D01*
X0104928Y0153118D01*
X0104492Y0152682D01*
X0104056Y0153118D01*
X0101779Y0153118D01*
X0101343Y0152682D01*
X0100906Y0153118D01*
X0098629Y0153118D01*
X0098193Y0152682D01*
X0097757Y0153118D01*
X0095480Y0153118D01*
X0095043Y0152682D01*
X0094607Y0153118D01*
X0092330Y0153118D01*
X0091894Y0152682D01*
X0091457Y0153118D01*
X0089180Y0153118D01*
X0087835Y0151772D01*
X0087835Y0145558D01*
X0089180Y0144213D01*
X0091457Y0144213D01*
X0091469Y0144224D01*
X0091469Y0137358D01*
X0067137Y0137358D01*
X0066352Y0138143D01*
X0065145Y0138643D01*
X0063839Y0138643D01*
X0062632Y0138143D01*
X0061708Y0137219D01*
X0061208Y0136012D01*
X0061208Y0134705D01*
X0061708Y0133498D01*
X0062632Y0132574D01*
X0063839Y0132074D01*
X0065145Y0132074D01*
X0065145Y0130768D01*
X0065645Y0129561D01*
X0065722Y0129484D01*
X0032168Y0129484D01*
X0030996Y0128313D01*
X0030996Y0102570D01*
X0030212Y0101786D01*
X0029712Y0100578D01*
X0029712Y0099272D01*
X0030212Y0098065D01*
X0031136Y0097141D01*
X0032343Y0096641D01*
X0033649Y0096641D01*
X0034856Y0097141D01*
X0035780Y0098065D01*
X0036280Y0099272D01*
X0036280Y0100578D01*
X0035780Y0101786D01*
X0034996Y0102570D01*
X0034996Y0125484D01*
X0069659Y0125484D01*
X0069582Y0125408D01*
X0069082Y0124201D01*
X0069082Y0122894D01*
X0069582Y0121687D01*
X0070506Y0120763D01*
X0071713Y0120263D01*
X0073019Y0120263D01*
X0074227Y0120763D01*
X0075011Y0121547D01*
X0095478Y0121547D01*
X0094488Y0120558D01*
X0094488Y0117673D01*
X0093551Y0117673D01*
X0093551Y0118783D01*
X0092208Y0120126D01*
X0086776Y0120126D01*
X0086146Y0119495D01*
X0086027Y0119614D01*
X0085651Y0119865D01*
X0085234Y0120038D01*
X0084791Y0120126D01*
X0083299Y0120126D01*
X0083299Y0116173D01*
X0082299Y0116173D01*
X0082299Y0115173D01*
X0083299Y0115173D01*
X0083299Y0111220D01*
X0084791Y0111220D01*
X0085234Y0111309D01*
X0085651Y0111481D01*
X0086027Y0111732D01*
X0086146Y0111851D01*
X0086776Y0111220D01*
X0092208Y0111220D01*
X0093551Y0112564D01*
X0093551Y0113673D01*
X0094488Y0113673D01*
X0094488Y0110789D01*
X0095828Y0109449D01*
X0104022Y0109449D01*
X0105362Y0110789D01*
X0105362Y0113673D01*
X0106895Y0113673D01*
X0107642Y0114420D01*
X0108388Y0113673D01*
X0110236Y0113673D01*
X0110236Y0110789D01*
X0111576Y0109449D01*
X0119770Y0109449D01*
X0121110Y0110789D01*
X0121110Y0113673D01*
X0122047Y0113673D01*
X0122047Y0112564D01*
X0123391Y0111220D01*
X0128822Y0111220D01*
X0129453Y0111851D01*
X0129572Y0111732D01*
X0129947Y0111481D01*
X0130365Y0111309D01*
X0130808Y0111220D01*
X0132299Y0111220D01*
X0132299Y0115173D01*
X0133299Y0115173D01*
X0133299Y0111220D01*
X0134791Y0111220D01*
X0135234Y0111309D01*
X0135651Y0111481D01*
X0136027Y0111732D01*
X0136346Y0112052D01*
X0136597Y0112427D01*
X0136770Y0112845D01*
X0136858Y0113288D01*
X0136858Y0115173D01*
X0133299Y0115173D01*
X0133299Y0116173D01*
X0136858Y0116173D01*
X0136858Y0118059D01*
X0136770Y0118502D01*
X0136597Y0118919D01*
X0136346Y0119295D01*
X0136027Y0119614D01*
X0135651Y0119865D01*
X0135234Y0120038D01*
X0134791Y0120126D01*
X0133299Y0120126D01*
X0133299Y0116173D01*
X0132299Y0116173D01*
X0132299Y0120126D01*
X0130808Y0120126D01*
X0130365Y0120038D01*
X0129947Y0119865D01*
X0129572Y0119614D01*
X0129453Y0119495D01*
X0128822Y0120126D01*
X0123391Y0120126D01*
X0122047Y0118783D01*
X0122047Y0117673D01*
X0121110Y0117673D01*
X0121110Y0120558D01*
X0119770Y0121898D01*
X0111576Y0121898D01*
X0111217Y0121538D01*
X0111217Y0144422D01*
X0111509Y0144301D01*
X0111953Y0144213D01*
X0112366Y0144213D01*
X0112366Y0148665D01*
X0112366Y0148665D01*
X0112366Y0144213D01*
X0112779Y0144213D01*
X0113223Y0144301D01*
X0113641Y0144474D01*
X0113926Y0144664D01*
X0114377Y0144213D01*
X0116654Y0144213D01*
X0116665Y0144224D01*
X0116665Y0139412D01*
X0145169Y0110908D01*
X0146341Y0109736D01*
X0164730Y0109736D01*
X0165902Y0110908D01*
X0165902Y0116855D01*
X0166262Y0116316D01*
X0166749Y0115829D01*
X0167322Y0115446D01*
X0167959Y0115182D01*
X0168636Y0115047D01*
X0168980Y0115047D01*
X0168980Y0118547D01*
X0168980Y0118547D01*
X0168980Y0115047D01*
X0169325Y0115047D01*
X0170001Y0115182D01*
X0170638Y0115446D01*
X0171211Y0115829D01*
X0171699Y0116316D01*
X0172082Y0116889D01*
X0172346Y0117526D01*
X0172480Y0118203D01*
X0172480Y0118547D01*
X0168980Y0118547D01*
X0168980Y0118547D01*
X0172480Y0118547D01*
X0172480Y0118892D01*
X0172346Y0119568D01*
X0172082Y0120205D01*
X0171699Y0120778D01*
X0171211Y0121266D01*
X0170638Y0121649D01*
X0170124Y0121862D01*
X0170980Y0122719D01*
X0170980Y0125597D01*
X0171947Y0126565D01*
X0172480Y0127851D01*
X0172480Y0129243D01*
X0171947Y0130530D01*
X0170980Y0131497D01*
X0170980Y0148732D01*
X0178273Y0148732D01*
X0179273Y0147732D01*
X0185585Y0147732D01*
X0186929Y0149077D01*
X0186929Y0152388D01*
X0185585Y0153732D01*
X0184429Y0153732D01*
X0184429Y0155315D01*
X0185510Y0155315D01*
X0186858Y0156663D01*
X0186858Y0161298D01*
X0185510Y0162646D01*
X0179694Y0162646D01*
X0178346Y0161298D01*
X0178346Y0156663D01*
X0179694Y0155315D01*
X0180429Y0155315D01*
X0180429Y0153732D01*
X0179273Y0153732D01*
X0178273Y0152732D01*
X0168152Y0152732D01*
X0166980Y0151561D01*
X0166980Y0131497D01*
X0166013Y0130530D01*
X0165480Y0129243D01*
X0165480Y0127851D01*
X0166013Y0126565D01*
X0166980Y0125597D01*
X0166980Y0125547D01*
X0163073Y0125547D01*
X0161902Y0124376D01*
X0161902Y0120576D01*
X0160963Y0121514D01*
X0159677Y0122047D01*
X0158284Y0122047D01*
X0156998Y0121514D01*
X0156059Y0120576D01*
X0156059Y0126519D01*
X0156998Y0125580D01*
X0158284Y0125047D01*
X0159677Y0125047D01*
X0160963Y0125580D01*
X0161947Y0126565D01*
X0162480Y0127851D01*
X0162480Y0129243D01*
X0161947Y0130530D01*
X0160980Y0131497D01*
X0160980Y0162880D01*
X0159809Y0164051D01*
X0133343Y0164051D01*
X0133354Y0164062D01*
X0133354Y0166339D01*
X0133343Y0166350D01*
X0137295Y0166350D01*
X0137295Y0166026D01*
X0138467Y0164854D01*
X0178346Y0164854D01*
X0178346Y0164537D01*
X0179694Y0163189D01*
X0185510Y0163189D01*
X0186858Y0164537D01*
X0186858Y0164854D01*
X0225081Y0164854D01*
X0230002Y0159933D01*
X0235346Y0159933D01*
X0235346Y0158224D01*
X0236686Y0156884D01*
X0238083Y0156884D01*
X0238083Y0154772D01*
X0237174Y0154772D01*
X0235827Y0153425D01*
X0235827Y0146819D01*
X0237174Y0145472D01*
X0238083Y0145472D01*
X0238083Y0138467D01*
X0238189Y0138361D01*
X0238189Y0136186D01*
X0239532Y0134843D01*
X0244964Y0134843D01*
X0245594Y0135473D01*
X0245713Y0135354D01*
X0246089Y0135104D01*
X0246506Y0134931D01*
X0246949Y0134843D01*
X0248441Y0134843D01*
X0248441Y0138795D01*
X0249441Y0138795D01*
X0249441Y0134843D01*
X0250933Y0134843D01*
X0251376Y0134931D01*
X0251793Y0135104D01*
X0252169Y0135354D01*
X0252488Y0135674D01*
X0252739Y0136050D01*
X0252912Y0136467D01*
X0253000Y0136910D01*
X0253000Y0138795D01*
X0249441Y0138795D01*
X0249441Y0139795D01*
X0253000Y0139795D01*
X0253000Y0141681D01*
X0252912Y0142124D01*
X0252739Y0142541D01*
X0252488Y0142917D01*
X0252169Y0143236D01*
X0251793Y0143487D01*
X0251376Y0143660D01*
X0250933Y0143748D01*
X0249441Y0143748D01*
X0249441Y0139795D01*
X0248441Y0139795D01*
X0248441Y0143748D01*
X0246949Y0143748D01*
X0246506Y0143660D01*
X0246089Y0143487D01*
X0245713Y0143236D01*
X0245594Y0143117D01*
X0244964Y0143748D01*
X0242083Y0143748D01*
X0242083Y0145472D01*
X0242992Y0145472D01*
X0244339Y0146819D01*
X0244339Y0153425D01*
X0242992Y0154772D01*
X0242083Y0154772D01*
X0242083Y0156884D01*
X0243306Y0156884D01*
X0244646Y0158224D01*
X0244646Y0165642D01*
X0243306Y0166982D01*
X0236686Y0166982D01*
X0235346Y0165642D01*
X0235346Y0163933D01*
X0231659Y0163933D01*
X0226738Y0168854D01*
X0186858Y0168854D01*
X0186858Y0169172D01*
X0185510Y0170520D01*
X0184967Y0170520D01*
X0186268Y0171820D01*
X0186268Y0177636D01*
X0185239Y0178665D01*
X0186268Y0179694D01*
X0186268Y0180872D01*
X0186538Y0180602D01*
X0186811Y0180602D01*
X0186811Y0179694D01*
X0187840Y0178665D01*
X0186811Y0177636D01*
X0186811Y0171820D01*
X0188159Y0170472D01*
X0192794Y0170472D01*
X0194142Y0171820D01*
X0194142Y0172728D01*
X0231659Y0172728D01*
X0232831Y0173900D01*
X0232831Y0192413D01*
X0235076Y0192413D01*
X0235860Y0191629D01*
X0237067Y0191129D01*
X0238374Y0191129D01*
X0239581Y0191629D01*
X0240505Y0192553D01*
X0241005Y0193760D01*
X0241005Y0195067D01*
X0240505Y0196274D01*
X0239581Y0197198D01*
X0238374Y0197698D01*
X0237067Y0197698D01*
X0235860Y0197198D01*
X0235076Y0196413D01*
X0232831Y0196413D01*
X0232831Y0204331D01*
X0234296Y0204331D01*
X0234687Y0204721D01*
X0235104Y0204480D01*
X0235661Y0204331D01*
X0235949Y0204331D01*
X0236237Y0204331D01*
X0236794Y0204480D01*
X0237293Y0204768D01*
X0237700Y0205176D01*
X0237989Y0205675D01*
X0238138Y0206231D01*
X0238138Y0208587D01*
X0238138Y0210942D01*
X0237989Y0211498D01*
X0237700Y0211998D01*
X0237293Y0212405D01*
X0236794Y0212693D01*
X0236237Y0212843D01*
X0235949Y0212843D01*
X0235949Y0208587D01*
X0235949Y0208587D01*
X0238138Y0208587D01*
X0235949Y0208587D01*
X0235949Y0208587D01*
X0235949Y0212843D01*
X0235661Y0212843D01*
X0235104Y0212693D01*
X0234687Y0212452D01*
X0234296Y0212843D01*
X0232483Y0212843D01*
X0232110Y0212470D01*
X0231737Y0212843D01*
X0229924Y0212843D01*
X0229551Y0212470D01*
X0229178Y0212843D01*
X0227365Y0212843D01*
X0226992Y0212470D01*
X0226619Y0212843D01*
X0224806Y0212843D01*
X0223524Y0211560D01*
X0223524Y0205613D01*
X0223713Y0205424D01*
X0223713Y0189524D01*
X0206195Y0189524D01*
X0205244Y0190475D01*
X0203964Y0191005D01*
X0202579Y0191005D01*
X0201300Y0190475D01*
X0200321Y0189495D01*
X0199791Y0188216D01*
X0199791Y0186831D01*
X0200321Y0185552D01*
X0201270Y0184602D01*
X0194142Y0184602D01*
X0194142Y0185510D01*
X0192794Y0186858D01*
X0189366Y0186858D01*
X0189366Y0215204D01*
X0190312Y0215596D01*
X0191774Y0217058D01*
X0192366Y0218487D01*
X0191824Y0217178D02*
X0192908Y0217178D01*
X0193836Y0216180D02*
X0190896Y0216180D01*
X0189366Y0215181D02*
X0195420Y0215181D01*
X0199312Y0215181D02*
X0210227Y0215181D01*
X0210303Y0214998D02*
X0210128Y0215419D01*
X0210039Y0215866D01*
X0210039Y0218520D01*
X0214583Y0218520D01*
X0214583Y0213780D01*
X0212126Y0213780D01*
X0211679Y0213868D01*
X0211258Y0214043D01*
X0210879Y0214296D01*
X0210556Y0214619D01*
X0210303Y0214998D01*
X0211048Y0214183D02*
X0189366Y0214183D01*
X0189366Y0213184D02*
X0253689Y0213184D01*
X0253689Y0214183D02*
X0250613Y0214183D01*
X0250783Y0214296D02*
X0250404Y0214043D01*
X0249982Y0213868D01*
X0249535Y0213780D01*
X0247079Y0213780D01*
X0247079Y0218520D01*
X0251622Y0218520D01*
X0251622Y0215866D01*
X0251533Y0215419D01*
X0251359Y0214998D01*
X0251105Y0214619D01*
X0250783Y0214296D01*
X0251435Y0215181D02*
X0253689Y0215181D01*
X0253859Y0216180D02*
X0251622Y0216180D01*
X0251622Y0217178D02*
X0254126Y0217178D01*
X0254394Y0218177D02*
X0251622Y0218177D01*
X0251622Y0220174D02*
X0255495Y0220174D01*
X0254919Y0219175D02*
X0247079Y0219175D01*
X0247079Y0218177D02*
X0246079Y0218177D01*
X0246079Y0219175D02*
X0241071Y0219175D01*
X0241071Y0218177D02*
X0241535Y0218177D01*
X0241535Y0217178D02*
X0241071Y0217178D01*
X0241071Y0216180D02*
X0241535Y0216180D01*
X0241723Y0215181D02*
X0241071Y0215181D01*
X0240135Y0214183D02*
X0242544Y0214183D01*
X0246079Y0214183D02*
X0247079Y0214183D01*
X0247079Y0215181D02*
X0246079Y0215181D01*
X0246079Y0216180D02*
X0247079Y0216180D01*
X0247079Y0217178D02*
X0246079Y0217178D01*
X0241535Y0220174D02*
X0241071Y0220174D01*
X0241071Y0221172D02*
X0241535Y0221172D01*
X0241535Y0222171D02*
X0241071Y0222171D01*
X0240822Y0223170D02*
X0241884Y0223170D01*
X0251273Y0223170D02*
X0258401Y0223170D01*
X0257205Y0222171D02*
X0251622Y0222171D01*
X0251622Y0221172D02*
X0256207Y0221172D01*
X0253813Y0212186D02*
X0237512Y0212186D01*
X0238072Y0211187D02*
X0254081Y0211187D01*
X0254348Y0210189D02*
X0238138Y0210189D01*
X0238138Y0209190D02*
X0254821Y0209190D01*
X0255397Y0208192D02*
X0238138Y0208192D01*
X0238138Y0207193D02*
X0256038Y0207193D01*
X0257036Y0206195D02*
X0238128Y0206195D01*
X0237712Y0205196D02*
X0258108Y0205196D01*
X0259837Y0204198D02*
X0232831Y0204198D01*
X0232831Y0203199D02*
X0262864Y0203199D01*
X0266514Y0203199D02*
X0272591Y0203199D01*
X0272591Y0202201D02*
X0232831Y0202201D01*
X0232831Y0201202D02*
X0272591Y0201202D01*
X0272591Y0200204D02*
X0232831Y0200204D01*
X0232831Y0199205D02*
X0272591Y0199205D01*
X0272591Y0198207D02*
X0232831Y0198207D01*
X0232831Y0197208D02*
X0235886Y0197208D01*
X0237720Y0194413D02*
X0230831Y0194413D01*
X0230831Y0174728D01*
X0225909Y0174728D01*
X0227012Y0174728D01*
X0225909Y0174728D02*
X0190476Y0174728D01*
X0186811Y0174242D02*
X0186268Y0174242D01*
X0186268Y0173244D02*
X0186811Y0173244D01*
X0186811Y0172245D02*
X0186268Y0172245D01*
X0185694Y0171247D02*
X0187385Y0171247D01*
X0185782Y0170248D02*
X0238189Y0170248D01*
X0238189Y0169390D02*
X0238277Y0168947D01*
X0238450Y0168530D01*
X0238701Y0168154D01*
X0239020Y0167835D01*
X0239396Y0167584D01*
X0239813Y0167411D01*
X0240256Y0167323D01*
X0241748Y0167323D01*
X0241748Y0171276D01*
X0238189Y0171276D01*
X0238189Y0169390D01*
X0238217Y0169250D02*
X0186780Y0169250D01*
X0182602Y0166854D02*
X0225909Y0166854D01*
X0230831Y0161933D01*
X0239996Y0161933D01*
X0240083Y0161933D01*
X0240083Y0150122D01*
X0240083Y0139295D01*
X0242248Y0139295D01*
X0238083Y0139295D02*
X0170980Y0139295D01*
X0170980Y0140293D02*
X0238083Y0140293D01*
X0238083Y0141292D02*
X0170980Y0141292D01*
X0170980Y0142290D02*
X0238083Y0142290D01*
X0238083Y0143289D02*
X0170980Y0143289D01*
X0170980Y0144287D02*
X0238083Y0144287D01*
X0238083Y0145286D02*
X0170980Y0145286D01*
X0170980Y0146284D02*
X0236362Y0146284D01*
X0235827Y0147283D02*
X0170980Y0147283D01*
X0170980Y0148281D02*
X0178725Y0148281D01*
X0182429Y0150732D02*
X0168980Y0150732D01*
X0168980Y0128547D01*
X0168980Y0123547D01*
X0163902Y0123547D01*
X0163902Y0111736D01*
X0147169Y0111736D01*
X0118665Y0140240D01*
X0118665Y0148665D01*
X0115516Y0148665D02*
X0115516Y0186539D01*
X0090319Y0186539D01*
X0090319Y0158902D01*
X0083232Y0158902D01*
X0083232Y0155752D02*
X0087685Y0155752D01*
X0083232Y0155752D01*
X0083232Y0155752D01*
X0083232Y0155271D02*
X0083232Y0155271D01*
X0083232Y0154272D02*
X0083232Y0154272D01*
X0083232Y0153274D02*
X0083232Y0153274D01*
X0080820Y0153274D02*
X0071251Y0153274D01*
X0071665Y0154272D02*
X0079178Y0154272D01*
X0078793Y0155271D02*
X0071713Y0155271D01*
X0071476Y0156269D02*
X0078800Y0156269D01*
X0079202Y0157268D02*
X0070849Y0157268D01*
X0070429Y0158266D02*
X0078780Y0158266D01*
X0078780Y0159265D02*
X0070429Y0159265D01*
X0068429Y0162051D02*
X0068429Y0155043D01*
X0065145Y0155271D02*
X0027122Y0155271D01*
X0027122Y0156269D02*
X0062559Y0156269D01*
X0061647Y0157268D02*
X0027122Y0157268D01*
X0027122Y0158266D02*
X0061233Y0158266D01*
X0061208Y0159265D02*
X0027122Y0159265D01*
X0027122Y0160263D02*
X0058565Y0160263D01*
X0057686Y0161262D02*
X0027122Y0161262D01*
X0027122Y0162260D02*
X0057272Y0162260D01*
X0057271Y0163259D02*
X0027122Y0163259D01*
X0027122Y0164257D02*
X0054570Y0164257D01*
X0053725Y0165256D02*
X0027122Y0165256D01*
X0027122Y0166254D02*
X0053334Y0166254D01*
X0053334Y0167253D02*
X0027122Y0167253D01*
X0027122Y0168251D02*
X0053642Y0168251D01*
X0054369Y0169250D02*
X0027122Y0169250D01*
X0027122Y0170248D02*
X0032145Y0170248D01*
X0032082Y0170281D02*
X0032811Y0169909D01*
X0033589Y0169656D01*
X0034307Y0169543D01*
X0034307Y0174228D01*
X0029621Y0174228D01*
X0029735Y0173511D01*
X0029988Y0172732D01*
X0030360Y0172003D01*
X0030841Y0171341D01*
X0031420Y0170762D01*
X0032082Y0170281D01*
X0030935Y0171247D02*
X0027122Y0171247D01*
X0027122Y0172245D02*
X0030236Y0172245D01*
X0029822Y0173244D02*
X0027122Y0173244D01*
X0027122Y0174242D02*
X0034307Y0174242D01*
X0034307Y0175228D02*
X0029621Y0175228D01*
X0029735Y0175946D01*
X0029988Y0176724D01*
X0030360Y0177454D01*
X0030841Y0178116D01*
X0031420Y0178695D01*
X0032082Y0179176D01*
X0032811Y0179547D01*
X0033589Y0179800D01*
X0034307Y0179914D01*
X0034307Y0175228D01*
X0034307Y0175241D02*
X0035307Y0175241D01*
X0035307Y0176239D02*
X0034307Y0176239D01*
X0034307Y0177238D02*
X0035307Y0177238D01*
X0035307Y0178237D02*
X0034307Y0178237D01*
X0034307Y0179235D02*
X0035307Y0179235D01*
X0037416Y0179235D02*
X0042099Y0179235D01*
X0040961Y0178237D02*
X0038653Y0178237D01*
X0039364Y0177238D02*
X0040218Y0177238D01*
X0039805Y0176239D02*
X0039784Y0176239D01*
X0039792Y0173244D02*
X0039793Y0173244D01*
X0039378Y0172245D02*
X0040207Y0172245D01*
X0040935Y0171247D02*
X0038680Y0171247D01*
X0037469Y0170248D02*
X0042034Y0170248D01*
X0044807Y0174650D02*
X0044807Y0174728D01*
X0044807Y0174650D02*
X0083232Y0174650D01*
X0083232Y0177799D02*
X0068429Y0177799D01*
X0068429Y0186539D01*
X0044807Y0186539D01*
X0049478Y0184228D02*
X0066429Y0184228D01*
X0066429Y0183229D02*
X0048851Y0183229D01*
X0047852Y0182231D02*
X0066429Y0182231D01*
X0066429Y0181232D02*
X0027122Y0181232D01*
X0027122Y0180234D02*
X0066429Y0180234D01*
X0066429Y0179235D02*
X0047515Y0179235D01*
X0048653Y0178237D02*
X0066429Y0178237D01*
X0066429Y0177238D02*
X0049396Y0177238D01*
X0049407Y0172245D02*
X0054618Y0172245D01*
X0054618Y0171247D02*
X0048680Y0171247D01*
X0047580Y0170248D02*
X0054618Y0170248D01*
X0056618Y0171500D02*
X0056618Y0166854D01*
X0060555Y0168350D02*
X0060555Y0162917D01*
X0064492Y0165201D02*
X0064492Y0158980D01*
X0065194Y0154272D02*
X0027122Y0154272D01*
X0027122Y0153274D02*
X0065607Y0153274D01*
X0066553Y0152275D02*
X0027122Y0152275D01*
X0027122Y0151277D02*
X0087835Y0151277D01*
X0087835Y0150278D02*
X0027122Y0150278D01*
X0027122Y0149280D02*
X0087835Y0149280D01*
X0087835Y0148281D02*
X0027122Y0148281D01*
X0027122Y0147283D02*
X0087835Y0147283D01*
X0087835Y0146284D02*
X0027122Y0146284D01*
X0027122Y0145286D02*
X0088107Y0145286D01*
X0089106Y0144287D02*
X0027122Y0144287D01*
X0027122Y0143289D02*
X0091469Y0143289D01*
X0091469Y0142290D02*
X0027122Y0142290D01*
X0027122Y0141292D02*
X0091469Y0141292D01*
X0091469Y0140293D02*
X0027122Y0140293D01*
X0027122Y0139295D02*
X0091469Y0139295D01*
X0091469Y0138296D02*
X0065982Y0138296D01*
X0063002Y0138296D02*
X0027122Y0138296D01*
X0027122Y0137298D02*
X0061787Y0137298D01*
X0061327Y0136299D02*
X0027122Y0136299D01*
X0027122Y0135301D02*
X0061208Y0135301D01*
X0061375Y0134302D02*
X0027122Y0134302D01*
X0027122Y0133303D02*
X0061902Y0133303D01*
X0063281Y0132305D02*
X0027122Y0132305D01*
X0027122Y0131306D02*
X0065145Y0131306D01*
X0065335Y0130308D02*
X0027122Y0130308D01*
X0027122Y0129309D02*
X0031993Y0129309D01*
X0030996Y0128311D02*
X0027122Y0128311D01*
X0027122Y0127312D02*
X0030996Y0127312D01*
X0030996Y0126314D02*
X0027122Y0126314D01*
X0027122Y0125315D02*
X0030996Y0125315D01*
X0030996Y0124317D02*
X0027122Y0124317D01*
X0027122Y0123318D02*
X0030996Y0123318D01*
X0030996Y0122320D02*
X0027122Y0122320D01*
X0027122Y0121321D02*
X0030996Y0121321D01*
X0030996Y0120323D02*
X0027122Y0120323D01*
X0027122Y0119324D02*
X0030996Y0119324D01*
X0030996Y0118326D02*
X0027122Y0118326D01*
X0027122Y0117327D02*
X0030996Y0117327D01*
X0030996Y0116329D02*
X0027122Y0116329D01*
X0027122Y0115330D02*
X0030996Y0115330D01*
X0030996Y0114332D02*
X0027122Y0114332D01*
X0027122Y0113333D02*
X0030996Y0113333D01*
X0030996Y0112335D02*
X0027122Y0112335D01*
X0027122Y0111336D02*
X0030996Y0111336D01*
X0030996Y0110338D02*
X0027122Y0110338D01*
X0027122Y0109339D02*
X0030996Y0109339D01*
X0030996Y0108341D02*
X0027122Y0108341D01*
X0027122Y0107342D02*
X0030996Y0107342D01*
X0030996Y0106344D02*
X0027122Y0106344D01*
X0027122Y0105345D02*
X0030996Y0105345D01*
X0030996Y0104347D02*
X0027122Y0104347D01*
X0027122Y0103348D02*
X0030996Y0103348D01*
X0030776Y0102350D02*
X0027122Y0102350D01*
X0027122Y0101351D02*
X0030032Y0101351D01*
X0029712Y0100353D02*
X0027122Y0100353D01*
X0027122Y0099354D02*
X0029712Y0099354D01*
X0030091Y0098356D02*
X0027122Y0098356D01*
X0027122Y0097357D02*
X0030920Y0097357D01*
X0032996Y0099925D02*
X0032996Y0127484D01*
X0099768Y0127484D01*
X0099768Y0148665D01*
X0102917Y0148665D02*
X0102917Y0123547D01*
X0072366Y0123547D01*
X0069320Y0122320D02*
X0034996Y0122320D01*
X0034996Y0123318D02*
X0069082Y0123318D01*
X0069130Y0124317D02*
X0034996Y0124317D01*
X0034996Y0125315D02*
X0069544Y0125315D01*
X0069947Y0121321D02*
X0034996Y0121321D01*
X0034996Y0120323D02*
X0071568Y0120323D01*
X0073164Y0120323D02*
X0094488Y0120323D01*
X0094488Y0119324D02*
X0093009Y0119324D01*
X0093551Y0118326D02*
X0094488Y0118326D01*
X0095252Y0121321D02*
X0074785Y0121321D01*
X0079001Y0118919D02*
X0078828Y0118502D01*
X0078740Y0118059D01*
X0078740Y0116173D01*
X0082299Y0116173D01*
X0082299Y0120126D01*
X0080808Y0120126D01*
X0080365Y0120038D01*
X0079947Y0119865D01*
X0079572Y0119614D01*
X0079252Y0119295D01*
X0079001Y0118919D01*
X0079282Y0119324D02*
X0034996Y0119324D01*
X0034996Y0118326D02*
X0078793Y0118326D01*
X0078740Y0117327D02*
X0034996Y0117327D01*
X0034996Y0116329D02*
X0078740Y0116329D01*
X0078740Y0115173D02*
X0078740Y0113288D01*
X0078828Y0112845D01*
X0079001Y0112427D01*
X0079252Y0112052D01*
X0079572Y0111732D01*
X0079947Y0111481D01*
X0080365Y0111309D01*
X0080808Y0111220D01*
X0082299Y0111220D01*
X0082299Y0115173D01*
X0078740Y0115173D01*
X0078740Y0114332D02*
X0034996Y0114332D01*
X0034996Y0115330D02*
X0082299Y0115330D01*
X0082299Y0114332D02*
X0083299Y0114332D01*
X0083299Y0113333D02*
X0082299Y0113333D01*
X0082299Y0112335D02*
X0083299Y0112335D01*
X0083299Y0111336D02*
X0082299Y0111336D01*
X0080298Y0111336D02*
X0034996Y0111336D01*
X0034996Y0110338D02*
X0094939Y0110338D01*
X0094488Y0111336D02*
X0092324Y0111336D01*
X0093322Y0112335D02*
X0094488Y0112335D01*
X0094488Y0113333D02*
X0093551Y0113333D01*
X0089492Y0115673D02*
X0099925Y0115673D01*
X0106067Y0115673D01*
X0106067Y0148665D01*
X0109217Y0148665D02*
X0109217Y0115673D01*
X0115673Y0115673D01*
X0126106Y0115673D01*
X0122589Y0119324D02*
X0121110Y0119324D01*
X0121110Y0118326D02*
X0122047Y0118326D01*
X0121110Y0120323D02*
X0135754Y0120323D01*
X0136317Y0119324D02*
X0136753Y0119324D01*
X0136805Y0118326D02*
X0137751Y0118326D01*
X0136858Y0117327D02*
X0138750Y0117327D01*
X0139748Y0116329D02*
X0136858Y0116329D01*
X0136858Y0114332D02*
X0141745Y0114332D01*
X0140747Y0115330D02*
X0133299Y0115330D01*
X0133299Y0114332D02*
X0132299Y0114332D01*
X0132299Y0113333D02*
X0133299Y0113333D01*
X0133299Y0112335D02*
X0132299Y0112335D01*
X0132299Y0111336D02*
X0133299Y0111336D01*
X0135301Y0111336D02*
X0144741Y0111336D01*
X0145739Y0110338D02*
X0120659Y0110338D01*
X0121110Y0111336D02*
X0123275Y0111336D01*
X0122276Y0112335D02*
X0121110Y0112335D01*
X0121110Y0113333D02*
X0122047Y0113333D01*
X0118830Y0108341D02*
X0272591Y0108341D01*
X0272591Y0109339D02*
X0034996Y0109339D01*
X0034996Y0108341D02*
X0111336Y0108341D01*
X0110687Y0110338D02*
X0104911Y0110338D01*
X0105362Y0111336D02*
X0110236Y0111336D01*
X0110236Y0112335D02*
X0105362Y0112335D01*
X0105362Y0113333D02*
X0110236Y0113333D01*
X0107730Y0114332D02*
X0107554Y0114332D01*
X0109339Y0107342D02*
X0034996Y0107342D01*
X0034996Y0106344D02*
X0107913Y0106344D01*
X0106915Y0105345D02*
X0034996Y0105345D01*
X0034996Y0104347D02*
X0106070Y0104347D01*
X0105494Y0103348D02*
X0034996Y0103348D01*
X0035216Y0102350D02*
X0104917Y0102350D01*
X0104604Y0101351D02*
X0035960Y0101351D01*
X0036280Y0100353D02*
X0104337Y0100353D01*
X0104083Y0099354D02*
X0036280Y0099354D01*
X0035901Y0098356D02*
X0104083Y0098356D01*
X0104083Y0097357D02*
X0035073Y0097357D01*
X0027122Y0096359D02*
X0104123Y0096359D01*
X0104390Y0095360D02*
X0027122Y0095360D01*
X0027122Y0094362D02*
X0104658Y0094362D01*
X0105033Y0093363D02*
X0027122Y0093363D01*
X0027122Y0092365D02*
X0105610Y0092365D01*
X0106186Y0091366D02*
X0027122Y0091366D01*
X0027122Y0090368D02*
X0107116Y0090368D01*
X0108114Y0089369D02*
X0027122Y0089369D01*
X0027122Y0088370D02*
X0109686Y0088370D01*
X0120479Y0088370D02*
X0172309Y0088370D01*
X0173928Y0089369D02*
X0122051Y0089369D01*
X0123050Y0090368D02*
X0216191Y0090368D01*
X0216517Y0090931D02*
X0215069Y0088423D01*
X0214319Y0085625D01*
X0214319Y0082729D01*
X0215069Y0079931D01*
X0216517Y0077423D01*
X0218565Y0075375D01*
X0221073Y0073927D01*
X0223871Y0073177D01*
X0226767Y0073177D01*
X0229565Y0073927D01*
X0232073Y0075375D01*
X0234121Y0077423D01*
X0235569Y0079931D01*
X0236319Y0082729D01*
X0236319Y0085625D01*
X0235569Y0088423D01*
X0234121Y0090931D01*
X0232073Y0092979D01*
X0229565Y0094428D01*
X0226767Y0095177D01*
X0223871Y0095177D01*
X0221073Y0094428D01*
X0218565Y0092979D01*
X0216517Y0090931D01*
X0216951Y0091366D02*
X0123979Y0091366D01*
X0124556Y0092365D02*
X0217950Y0092365D01*
X0219229Y0093363D02*
X0125132Y0093363D01*
X0125507Y0094362D02*
X0220959Y0094362D01*
X0215615Y0089369D02*
X0175529Y0089369D01*
X0177148Y0088370D02*
X0215054Y0088370D01*
X0214787Y0087372D02*
X0177775Y0087372D01*
X0178013Y0086373D02*
X0214519Y0086373D01*
X0214319Y0085375D02*
X0177964Y0085375D01*
X0177550Y0084376D02*
X0214319Y0084376D01*
X0214319Y0083378D02*
X0176605Y0083378D01*
X0174728Y0086146D02*
X0025122Y0086146D01*
X0025122Y0194413D01*
X0072366Y0194413D01*
X0072366Y0180949D01*
X0083232Y0180949D01*
X0083232Y0184098D02*
X0076303Y0184098D01*
X0076303Y0198350D01*
X0021185Y0198350D01*
X0021185Y0082209D01*
X0127484Y0082209D01*
X0130555Y0083378D02*
X0172851Y0083378D01*
X0181703Y0060963D02*
X0179195Y0059515D01*
X0177147Y0057467D01*
X0175698Y0054958D01*
X0174949Y0052161D01*
X0174949Y0049264D01*
X0175698Y0046467D01*
X0177147Y0043958D01*
X0179195Y0041910D01*
X0181703Y0040462D01*
X0184501Y0039713D01*
X0187397Y0039713D01*
X0190195Y0040462D01*
X0192703Y0041910D01*
X0194751Y0043958D01*
X0196199Y0046467D01*
X0196949Y0049264D01*
X0196949Y0052161D01*
X0196199Y0054958D01*
X0194751Y0057467D01*
X0192703Y0059515D01*
X0190195Y0060963D01*
X0187397Y0061713D01*
X0184501Y0061713D01*
X0181703Y0060963D01*
X0180749Y0060412D02*
X0102937Y0060412D01*
X0102152Y0059627D02*
X0099643Y0058179D01*
X0096846Y0057429D01*
X0094395Y0057429D01*
X0096326Y0055498D01*
X0097774Y0052990D01*
X0098524Y0050192D01*
X0098524Y0047296D01*
X0097774Y0044498D01*
X0096326Y0041990D01*
X0094278Y0039942D01*
X0091769Y0038494D01*
X0088972Y0037744D01*
X0086075Y0037744D01*
X0083278Y0038494D01*
X0080769Y0039942D01*
X0078721Y0041990D01*
X0077273Y0044498D01*
X0076524Y0047296D01*
X0076524Y0050192D01*
X0077273Y0052990D01*
X0078721Y0055498D01*
X0080769Y0057546D01*
X0083278Y0058994D01*
X0086075Y0059744D01*
X0088526Y0059744D01*
X0086595Y0061675D01*
X0085147Y0064183D01*
X0084398Y0066981D01*
X0084398Y0069877D01*
X0085147Y0072675D01*
X0086595Y0075183D01*
X0088643Y0077231D01*
X0091152Y0078679D01*
X0093949Y0079429D01*
X0096846Y0079429D01*
X0099643Y0078679D01*
X0102152Y0077231D01*
X0104200Y0075183D01*
X0105648Y0072675D01*
X0106398Y0069877D01*
X0106398Y0066981D01*
X0105648Y0064183D01*
X0104200Y0061675D01*
X0102152Y0059627D01*
X0101782Y0059414D02*
X0179094Y0059414D01*
X0178095Y0058415D02*
X0100053Y0058415D01*
X0095406Y0056418D02*
X0176541Y0056418D01*
X0175965Y0055420D02*
X0096371Y0055420D01*
X0096948Y0054421D02*
X0175554Y0054421D01*
X0175287Y0053423D02*
X0097524Y0053423D01*
X0097926Y0052424D02*
X0175019Y0052424D01*
X0174949Y0051426D02*
X0098193Y0051426D01*
X0098461Y0050427D02*
X0174949Y0050427D01*
X0174949Y0049429D02*
X0098524Y0049429D01*
X0098524Y0048430D02*
X0175172Y0048430D01*
X0175440Y0047432D02*
X0098524Y0047432D01*
X0098292Y0046433D02*
X0175718Y0046433D01*
X0176294Y0045434D02*
X0098025Y0045434D01*
X0097738Y0044436D02*
X0176871Y0044436D01*
X0177668Y0043437D02*
X0097162Y0043437D01*
X0096585Y0042439D02*
X0178666Y0042439D01*
X0180009Y0041440D02*
X0095776Y0041440D01*
X0094778Y0040442D02*
X0181779Y0040442D01*
X0190119Y0040442D02*
X0193850Y0040442D01*
X0193850Y0041440D02*
X0191889Y0041440D01*
X0193232Y0042439D02*
X0194129Y0042439D01*
X0194230Y0043437D02*
X0194554Y0043437D01*
X0195027Y0044436D02*
X0195552Y0044436D01*
X0195603Y0045434D02*
X0272591Y0045434D01*
X0272591Y0046433D02*
X0196180Y0046433D01*
X0196458Y0047432D02*
X0272591Y0047432D01*
X0272591Y0048430D02*
X0196725Y0048430D01*
X0196949Y0049429D02*
X0272591Y0049429D01*
X0272591Y0050427D02*
X0196949Y0050427D01*
X0196949Y0051426D02*
X0272591Y0051426D01*
X0272591Y0052424D02*
X0196878Y0052424D01*
X0196611Y0053423D02*
X0272591Y0053423D01*
X0272591Y0054421D02*
X0196343Y0054421D01*
X0195933Y0055420D02*
X0272591Y0055420D01*
X0272591Y0056418D02*
X0195356Y0056418D01*
X0194780Y0057417D02*
X0272591Y0057417D01*
X0272591Y0058415D02*
X0193803Y0058415D01*
X0192804Y0059414D02*
X0272591Y0059414D01*
X0272591Y0060412D02*
X0191149Y0060412D01*
X0188524Y0061411D02*
X0272591Y0061411D01*
X0272591Y0062409D02*
X0104624Y0062409D01*
X0105200Y0063408D02*
X0272591Y0063408D01*
X0272591Y0064406D02*
X0105708Y0064406D01*
X0105975Y0065405D02*
X0272591Y0065405D01*
X0272591Y0066403D02*
X0106243Y0066403D01*
X0106398Y0067402D02*
X0272591Y0067402D01*
X0272591Y0068400D02*
X0106398Y0068400D01*
X0106398Y0069399D02*
X0262649Y0069399D01*
X0259737Y0070397D02*
X0106258Y0070397D01*
X0105991Y0071396D02*
X0258008Y0071396D01*
X0256978Y0072394D02*
X0105723Y0072394D01*
X0105234Y0073393D02*
X0223066Y0073393D01*
X0220268Y0074391D02*
X0104657Y0074391D01*
X0103993Y0075390D02*
X0218550Y0075390D01*
X0217551Y0076388D02*
X0102995Y0076388D01*
X0101882Y0077387D02*
X0216553Y0077387D01*
X0215961Y0078385D02*
X0100153Y0078385D01*
X0097015Y0079384D02*
X0125722Y0079384D01*
X0129247Y0079384D02*
X0215385Y0079384D01*
X0214948Y0080382D02*
X0130283Y0080382D01*
X0130696Y0081381D02*
X0214680Y0081381D01*
X0214413Y0082379D02*
X0130768Y0082379D01*
X0125775Y0095360D02*
X0272591Y0095360D01*
X0272591Y0094362D02*
X0229679Y0094362D01*
X0231408Y0093363D02*
X0272591Y0093363D01*
X0272591Y0092365D02*
X0232688Y0092365D01*
X0233686Y0091366D02*
X0272591Y0091366D01*
X0272591Y0090368D02*
X0269148Y0090368D01*
X0270877Y0089369D02*
X0272591Y0089369D01*
X0272591Y0088370D02*
X0272115Y0088370D01*
X0272591Y0096359D02*
X0126042Y0096359D01*
X0126083Y0097357D02*
X0272591Y0097357D01*
X0272591Y0098356D02*
X0126083Y0098356D01*
X0126083Y0099354D02*
X0272591Y0099354D01*
X0272591Y0100353D02*
X0125829Y0100353D01*
X0125561Y0101351D02*
X0272591Y0101351D01*
X0272591Y0102350D02*
X0125248Y0102350D01*
X0124672Y0103348D02*
X0272591Y0103348D01*
X0272591Y0104347D02*
X0124095Y0104347D01*
X0123251Y0105345D02*
X0272591Y0105345D01*
X0272591Y0106344D02*
X0122252Y0106344D01*
X0120826Y0107342D02*
X0272591Y0107342D01*
X0272591Y0110338D02*
X0165332Y0110338D01*
X0165902Y0111336D02*
X0272591Y0111336D01*
X0272591Y0112335D02*
X0165902Y0112335D01*
X0165902Y0113333D02*
X0209199Y0113333D01*
X0209262Y0113297D02*
X0212060Y0112547D01*
X0214956Y0112547D01*
X0217754Y0113297D01*
X0220262Y0114745D01*
X0222310Y0116793D01*
X0223758Y0119301D01*
X0224508Y0122099D01*
X0224508Y0124995D01*
X0223758Y0127793D01*
X0222310Y0130301D01*
X0220262Y0132349D01*
X0217754Y0133798D01*
X0214956Y0134547D01*
X0212060Y0134547D01*
X0209262Y0133798D01*
X0207814Y0132962D01*
X0208929Y0134077D01*
X0208929Y0137388D01*
X0207585Y0138732D01*
X0201273Y0138732D01*
X0199929Y0137388D01*
X0199929Y0134077D01*
X0201273Y0132732D01*
X0207417Y0132732D01*
X0206754Y0132349D01*
X0204706Y0130301D01*
X0203258Y0127793D01*
X0202508Y0124995D01*
X0202508Y0122099D01*
X0203258Y0119301D01*
X0204706Y0116793D01*
X0206754Y0114745D01*
X0209262Y0113297D01*
X0207470Y0114332D02*
X0165902Y0114332D01*
X0165902Y0115330D02*
X0167601Y0115330D01*
X0168980Y0115330D02*
X0168980Y0115330D01*
X0168980Y0116329D02*
X0168980Y0116329D01*
X0168980Y0117327D02*
X0168980Y0117327D01*
X0168980Y0118326D02*
X0168980Y0118326D01*
X0166253Y0116329D02*
X0165902Y0116329D01*
X0161902Y0116329D02*
X0161712Y0116329D01*
X0161902Y0116519D02*
X0161902Y0113736D01*
X0147998Y0113736D01*
X0120665Y0141069D01*
X0120665Y0144224D01*
X0120676Y0144213D01*
X0122954Y0144213D01*
X0124299Y0145558D01*
X0124299Y0146665D01*
X0129421Y0146665D01*
X0129421Y0144095D01*
X0128476Y0143704D01*
X0127013Y0142241D01*
X0126221Y0140330D01*
X0126221Y0138261D01*
X0127013Y0136350D01*
X0128476Y0134887D01*
X0130387Y0134095D01*
X0132456Y0134095D01*
X0134367Y0134887D01*
X0135830Y0136350D01*
X0136435Y0137812D01*
X0136602Y0137299D01*
X0136974Y0136570D01*
X0137455Y0135908D01*
X0138034Y0135329D01*
X0138696Y0134848D01*
X0139425Y0134476D01*
X0140204Y0134223D01*
X0140921Y0134110D01*
X0140921Y0138795D01*
X0141921Y0138795D01*
X0141921Y0134110D01*
X0142639Y0134223D01*
X0143417Y0134476D01*
X0144147Y0134848D01*
X0144809Y0135329D01*
X0145388Y0135908D01*
X0145869Y0136570D01*
X0146240Y0137299D01*
X0146493Y0138078D01*
X0146607Y0138795D01*
X0141921Y0138795D01*
X0141921Y0139795D01*
X0140921Y0139795D01*
X0140921Y0144481D01*
X0140204Y0144367D01*
X0139425Y0144114D01*
X0138696Y0143743D01*
X0138034Y0143262D01*
X0137455Y0142683D01*
X0136974Y0142021D01*
X0136602Y0141291D01*
X0136435Y0140778D01*
X0135830Y0142241D01*
X0134367Y0143704D01*
X0133421Y0144095D01*
X0133421Y0149494D01*
X0132250Y0150665D01*
X0124299Y0150665D01*
X0124299Y0151772D01*
X0122954Y0153118D01*
X0120676Y0153118D01*
X0120240Y0152682D01*
X0119804Y0153118D01*
X0117527Y0153118D01*
X0117516Y0153107D01*
X0117516Y0184539D01*
X0117610Y0184539D01*
X0117610Y0167522D01*
X0118782Y0166350D01*
X0124460Y0166350D01*
X0124449Y0166339D01*
X0124449Y0164062D01*
X0124885Y0163626D01*
X0124449Y0163190D01*
X0124449Y0160913D01*
X0124885Y0160476D01*
X0124449Y0160040D01*
X0124449Y0157763D01*
X0124885Y0157327D01*
X0124449Y0156891D01*
X0124449Y0154613D01*
X0125795Y0153268D01*
X0132009Y0153268D01*
X0132493Y0153752D01*
X0146980Y0153752D01*
X0146980Y0131497D01*
X0146013Y0130530D01*
X0145480Y0129243D01*
X0145480Y0127851D01*
X0146013Y0126565D01*
X0146998Y0125580D01*
X0148284Y0125047D01*
X0149677Y0125047D01*
X0150963Y0125580D01*
X0151947Y0126565D01*
X0152059Y0126834D01*
X0152059Y0120260D01*
X0151947Y0120530D01*
X0150963Y0121514D01*
X0149677Y0122047D01*
X0148284Y0122047D01*
X0146998Y0121514D01*
X0146013Y0120530D01*
X0145480Y0119243D01*
X0145480Y0117851D01*
X0146013Y0116565D01*
X0146998Y0115580D01*
X0148284Y0115047D01*
X0149677Y0115047D01*
X0150963Y0115580D01*
X0151947Y0116565D01*
X0152318Y0117460D01*
X0153231Y0116547D01*
X0156031Y0116547D01*
X0156998Y0115580D01*
X0158284Y0115047D01*
X0159677Y0115047D01*
X0160963Y0115580D01*
X0161902Y0116519D01*
X0161902Y0115330D02*
X0160360Y0115330D01*
X0161902Y0114332D02*
X0147402Y0114332D01*
X0147601Y0115330D02*
X0146404Y0115330D01*
X0146249Y0116329D02*
X0145405Y0116329D01*
X0145697Y0117327D02*
X0144407Y0117327D01*
X0143408Y0118326D02*
X0145480Y0118326D01*
X0145514Y0119324D02*
X0142410Y0119324D01*
X0141411Y0120323D02*
X0145927Y0120323D01*
X0146805Y0121321D02*
X0140413Y0121321D01*
X0139414Y0122320D02*
X0152059Y0122320D01*
X0152059Y0123318D02*
X0138416Y0123318D01*
X0137417Y0124317D02*
X0152059Y0124317D01*
X0152059Y0125315D02*
X0150324Y0125315D01*
X0151697Y0126314D02*
X0152059Y0126314D01*
X0148980Y0128547D02*
X0148980Y0155752D01*
X0128902Y0155752D01*
X0128902Y0158902D02*
X0154059Y0158902D01*
X0154059Y0118547D01*
X0158980Y0118547D01*
X0156249Y0116329D02*
X0151712Y0116329D01*
X0152263Y0117327D02*
X0152451Y0117327D01*
X0150360Y0115330D02*
X0157601Y0115330D01*
X0156805Y0121321D02*
X0156059Y0121321D01*
X0156059Y0122320D02*
X0161902Y0122320D01*
X0161902Y0123318D02*
X0156059Y0123318D01*
X0156059Y0124317D02*
X0161902Y0124317D01*
X0162841Y0125315D02*
X0160324Y0125315D01*
X0161697Y0126314D02*
X0166264Y0126314D01*
X0165703Y0127312D02*
X0162257Y0127312D01*
X0162480Y0128311D02*
X0165480Y0128311D01*
X0165508Y0129309D02*
X0162453Y0129309D01*
X0162039Y0130308D02*
X0165921Y0130308D01*
X0166790Y0131306D02*
X0161171Y0131306D01*
X0160980Y0132305D02*
X0166980Y0132305D01*
X0166980Y0133303D02*
X0160980Y0133303D01*
X0160980Y0134302D02*
X0166980Y0134302D01*
X0166980Y0135301D02*
X0160980Y0135301D01*
X0160980Y0136299D02*
X0166980Y0136299D01*
X0166980Y0137298D02*
X0160980Y0137298D01*
X0160980Y0138296D02*
X0166980Y0138296D01*
X0166980Y0139295D02*
X0160980Y0139295D01*
X0160980Y0140293D02*
X0166980Y0140293D01*
X0166980Y0141292D02*
X0160980Y0141292D01*
X0160980Y0142290D02*
X0166980Y0142290D01*
X0166980Y0143289D02*
X0160980Y0143289D01*
X0160980Y0144287D02*
X0166980Y0144287D01*
X0166980Y0145286D02*
X0160980Y0145286D01*
X0160980Y0146284D02*
X0166980Y0146284D01*
X0166980Y0147283D02*
X0160980Y0147283D01*
X0160980Y0148281D02*
X0166980Y0148281D01*
X0166980Y0149280D02*
X0160980Y0149280D01*
X0160980Y0150278D02*
X0166980Y0150278D01*
X0166980Y0151277D02*
X0160980Y0151277D01*
X0160980Y0152275D02*
X0167695Y0152275D01*
X0160980Y0153274D02*
X0178815Y0153274D01*
X0180429Y0154272D02*
X0160980Y0154272D01*
X0160980Y0155271D02*
X0180429Y0155271D01*
X0178740Y0156269D02*
X0160980Y0156269D01*
X0160980Y0157268D02*
X0178346Y0157268D01*
X0178346Y0158266D02*
X0160980Y0158266D01*
X0160980Y0159265D02*
X0178346Y0159265D01*
X0178346Y0160263D02*
X0160980Y0160263D01*
X0160980Y0161262D02*
X0178346Y0161262D01*
X0179309Y0162260D02*
X0160980Y0162260D01*
X0160601Y0163259D02*
X0179625Y0163259D01*
X0178626Y0164257D02*
X0133354Y0164257D01*
X0133354Y0165256D02*
X0138065Y0165256D01*
X0137295Y0166254D02*
X0133354Y0166254D01*
X0128902Y0168350D02*
X0139295Y0168350D01*
X0139295Y0166854D01*
X0182602Y0166854D01*
X0180238Y0170520D02*
X0179694Y0170520D01*
X0178346Y0169172D01*
X0178346Y0168854D01*
X0156295Y0168854D01*
X0156346Y0169115D01*
X0156346Y0171000D01*
X0152787Y0171000D01*
X0152787Y0172000D01*
X0156346Y0172000D01*
X0156346Y0173885D01*
X0156258Y0174328D01*
X0156085Y0174746D01*
X0155834Y0175121D01*
X0155515Y0175441D01*
X0155139Y0175692D01*
X0154880Y0175799D01*
X0178937Y0175799D01*
X0178937Y0171820D01*
X0180238Y0170520D01*
X0179423Y0170248D02*
X0156346Y0170248D01*
X0156346Y0169250D02*
X0178425Y0169250D01*
X0179511Y0171247D02*
X0152787Y0171247D01*
X0155715Y0175241D02*
X0178937Y0175241D01*
X0178937Y0174242D02*
X0156275Y0174242D01*
X0156346Y0173244D02*
X0178937Y0173244D01*
X0178937Y0172245D02*
X0156346Y0172245D01*
X0158980Y0162051D02*
X0158980Y0128547D01*
X0157637Y0125315D02*
X0156059Y0125315D01*
X0156059Y0126314D02*
X0156264Y0126314D01*
X0152059Y0121321D02*
X0151156Y0121321D01*
X0152033Y0120323D02*
X0152059Y0120323D01*
X0147637Y0125315D02*
X0136419Y0125315D01*
X0135420Y0126314D02*
X0146264Y0126314D01*
X0145703Y0127312D02*
X0134421Y0127312D01*
X0133423Y0128311D02*
X0145480Y0128311D01*
X0145508Y0129309D02*
X0132424Y0129309D01*
X0131426Y0130308D02*
X0145921Y0130308D01*
X0146790Y0131306D02*
X0130427Y0131306D01*
X0129429Y0132305D02*
X0146980Y0132305D01*
X0146980Y0133303D02*
X0128430Y0133303D01*
X0127432Y0134302D02*
X0129888Y0134302D01*
X0128062Y0135301D02*
X0126433Y0135301D01*
X0127064Y0136299D02*
X0125435Y0136299D01*
X0124436Y0137298D02*
X0126620Y0137298D01*
X0126221Y0138296D02*
X0123438Y0138296D01*
X0122439Y0139295D02*
X0126221Y0139295D01*
X0126221Y0140293D02*
X0121441Y0140293D01*
X0120665Y0141292D02*
X0126620Y0141292D01*
X0127062Y0142290D02*
X0120665Y0142290D01*
X0120665Y0143289D02*
X0128061Y0143289D01*
X0129421Y0144287D02*
X0123028Y0144287D01*
X0124027Y0145286D02*
X0129421Y0145286D01*
X0129421Y0146284D02*
X0124299Y0146284D01*
X0121815Y0148665D02*
X0131421Y0148665D01*
X0131421Y0139295D01*
X0136222Y0137298D02*
X0136603Y0137298D01*
X0137171Y0136299D02*
X0135779Y0136299D01*
X0134780Y0135301D02*
X0138073Y0135301D01*
X0139961Y0134302D02*
X0132955Y0134302D01*
X0125769Y0130308D02*
X0111217Y0130308D01*
X0111217Y0131306D02*
X0124771Y0131306D01*
X0123772Y0132305D02*
X0111217Y0132305D01*
X0111217Y0133303D02*
X0122774Y0133303D01*
X0121775Y0134302D02*
X0111217Y0134302D01*
X0111217Y0135301D02*
X0120777Y0135301D01*
X0119778Y0136299D02*
X0111217Y0136299D01*
X0111217Y0137298D02*
X0118780Y0137298D01*
X0117781Y0138296D02*
X0111217Y0138296D01*
X0111217Y0139295D02*
X0116783Y0139295D01*
X0116665Y0140293D02*
X0111217Y0140293D01*
X0111217Y0141292D02*
X0116665Y0141292D01*
X0116665Y0142290D02*
X0111217Y0142290D01*
X0111217Y0143289D02*
X0116665Y0143289D01*
X0114303Y0144287D02*
X0113154Y0144287D01*
X0112366Y0144287D02*
X0112366Y0144287D01*
X0111578Y0144287D02*
X0111217Y0144287D01*
X0112366Y0145286D02*
X0112366Y0145286D01*
X0112366Y0146284D02*
X0112366Y0146284D01*
X0112366Y0147283D02*
X0112366Y0147283D01*
X0112366Y0148281D02*
X0112366Y0148281D01*
X0112366Y0148665D02*
X0112366Y0153118D01*
X0112366Y0148665D01*
X0112366Y0148665D01*
X0112366Y0149280D02*
X0112366Y0149280D01*
X0112366Y0150278D02*
X0112366Y0150278D01*
X0112366Y0151277D02*
X0112366Y0151277D01*
X0112366Y0152275D02*
X0112366Y0152275D01*
X0113516Y0153274D02*
X0085644Y0153274D01*
X0087287Y0154272D02*
X0113516Y0154272D01*
X0113516Y0155271D02*
X0087672Y0155271D01*
X0087664Y0156269D02*
X0113516Y0156269D01*
X0113516Y0157268D02*
X0091514Y0157268D01*
X0092319Y0158266D02*
X0113516Y0158266D01*
X0113516Y0159265D02*
X0092319Y0159265D01*
X0092319Y0160263D02*
X0113516Y0160263D01*
X0113516Y0161262D02*
X0092319Y0161262D01*
X0092319Y0162260D02*
X0113516Y0162260D01*
X0113516Y0163259D02*
X0092319Y0163259D01*
X0092319Y0164257D02*
X0113516Y0164257D01*
X0113516Y0165256D02*
X0092319Y0165256D01*
X0092319Y0166254D02*
X0113516Y0166254D01*
X0113516Y0167253D02*
X0092319Y0167253D01*
X0092319Y0168251D02*
X0113516Y0168251D01*
X0113516Y0169250D02*
X0092319Y0169250D01*
X0092319Y0170248D02*
X0113516Y0170248D01*
X0113516Y0171247D02*
X0092319Y0171247D01*
X0092319Y0172245D02*
X0113516Y0172245D01*
X0113516Y0173244D02*
X0092319Y0173244D01*
X0092319Y0174242D02*
X0113516Y0174242D01*
X0113516Y0175241D02*
X0092319Y0175241D01*
X0092319Y0176239D02*
X0113516Y0176239D01*
X0113516Y0177238D02*
X0092319Y0177238D01*
X0092319Y0178237D02*
X0113516Y0178237D01*
X0113516Y0179235D02*
X0092319Y0179235D01*
X0092319Y0180234D02*
X0113516Y0180234D01*
X0113516Y0181232D02*
X0092319Y0181232D01*
X0092319Y0182231D02*
X0113516Y0182231D01*
X0113516Y0183229D02*
X0092319Y0183229D01*
X0092319Y0184228D02*
X0113516Y0184228D01*
X0115516Y0186539D02*
X0121815Y0186539D01*
X0121815Y0194335D01*
X0121815Y0200555D01*
X0127484Y0206224D01*
X0177366Y0206224D01*
X0177366Y0220004D01*
X0175366Y0215204D02*
X0175366Y0208224D01*
X0126656Y0208224D01*
X0125484Y0207053D01*
X0119815Y0201384D01*
X0119815Y0198578D01*
X0119522Y0198699D01*
X0119079Y0198787D01*
X0118665Y0198787D01*
X0118252Y0198787D01*
X0117808Y0198699D01*
X0117390Y0198526D01*
X0117106Y0198336D01*
X0116654Y0198787D01*
X0115002Y0198787D01*
X0131018Y0214804D01*
X0131274Y0214804D01*
X0133186Y0215596D01*
X0134648Y0217058D01*
X0135440Y0218970D01*
X0135440Y0221038D01*
X0134648Y0222949D01*
X0134220Y0223378D01*
X0163390Y0223378D01*
X0162919Y0222729D01*
X0162547Y0222000D01*
X0162294Y0221222D01*
X0162181Y0220504D01*
X0166866Y0220504D01*
X0166866Y0219504D01*
X0162181Y0219504D01*
X0162294Y0218786D01*
X0162547Y0218008D01*
X0162919Y0217279D01*
X0163400Y0216616D01*
X0163979Y0216038D01*
X0164641Y0215556D01*
X0165370Y0215185D01*
X0166148Y0214932D01*
X0166866Y0214818D01*
X0166866Y0219504D01*
X0167866Y0219504D01*
X0167866Y0214818D01*
X0168584Y0214932D01*
X0169362Y0215185D01*
X0170092Y0215556D01*
X0170754Y0216038D01*
X0171332Y0216616D01*
X0171814Y0217279D01*
X0172185Y0218008D01*
X0172352Y0218521D01*
X0172958Y0217058D01*
X0174421Y0215596D01*
X0175366Y0215204D01*
X0175366Y0215181D02*
X0169352Y0215181D01*
X0167866Y0215181D02*
X0166866Y0215181D01*
X0166866Y0216180D02*
X0167866Y0216180D01*
X0167866Y0217178D02*
X0166866Y0217178D01*
X0166866Y0218177D02*
X0167866Y0218177D01*
X0167866Y0219175D02*
X0166866Y0219175D01*
X0166866Y0220174D02*
X0135440Y0220174D01*
X0135440Y0219175D02*
X0162233Y0219175D01*
X0162492Y0218177D02*
X0135112Y0218177D01*
X0134698Y0217178D02*
X0162991Y0217178D01*
X0163836Y0216180D02*
X0133770Y0216180D01*
X0132186Y0215181D02*
X0165381Y0215181D01*
X0170896Y0216180D02*
X0173836Y0216180D01*
X0172908Y0217178D02*
X0171741Y0217178D01*
X0172240Y0218177D02*
X0172494Y0218177D01*
X0175366Y0214183D02*
X0130397Y0214183D01*
X0129399Y0213184D02*
X0175366Y0213184D01*
X0175366Y0212186D02*
X0128400Y0212186D01*
X0127402Y0211187D02*
X0175366Y0211187D01*
X0175366Y0210189D02*
X0126403Y0210189D01*
X0125405Y0209190D02*
X0175366Y0209190D01*
X0179366Y0209190D02*
X0185366Y0209190D01*
X0185366Y0208192D02*
X0179366Y0208192D01*
X0179366Y0207193D02*
X0185366Y0207193D01*
X0185366Y0206195D02*
X0179366Y0206195D01*
X0179366Y0205396D02*
X0178195Y0204224D01*
X0128313Y0204224D01*
X0123815Y0199727D01*
X0123815Y0197926D01*
X0124299Y0197442D01*
X0124299Y0191228D01*
X0123815Y0190743D01*
X0123815Y0186098D01*
X0124460Y0186098D01*
X0124449Y0186109D01*
X0124449Y0188387D01*
X0125795Y0189732D01*
X0132009Y0189732D01*
X0132493Y0189248D01*
X0141232Y0189248D01*
X0141232Y0189613D01*
X0140287Y0190005D01*
X0138824Y0191468D01*
X0138032Y0193379D01*
X0138032Y0195448D01*
X0138824Y0197359D01*
X0140287Y0198822D01*
X0142198Y0199613D01*
X0144267Y0199613D01*
X0146178Y0198822D01*
X0147641Y0197359D01*
X0148246Y0195896D01*
X0148413Y0196409D01*
X0148785Y0197139D01*
X0149266Y0197801D01*
X0149845Y0198380D01*
X0150507Y0198861D01*
X0151236Y0199232D01*
X0152015Y0199485D01*
X0152732Y0199599D01*
X0152732Y0194913D01*
X0153732Y0194913D01*
X0158418Y0194913D01*
X0158304Y0195631D01*
X0158051Y0196409D01*
X0157680Y0197139D01*
X0157199Y0197801D01*
X0156620Y0198380D01*
X0155958Y0198861D01*
X0155228Y0199232D01*
X0154450Y0199485D01*
X0153732Y0199599D01*
X0153732Y0194913D01*
X0153732Y0193913D01*
X0153732Y0189228D01*
X0154450Y0189341D01*
X0155228Y0189594D01*
X0155958Y0189966D01*
X0156620Y0190447D01*
X0157199Y0191026D01*
X0157680Y0191688D01*
X0158051Y0192417D01*
X0158304Y0193196D01*
X0158418Y0193913D01*
X0153732Y0193913D01*
X0152732Y0193913D01*
X0152732Y0189228D01*
X0152015Y0189341D01*
X0151236Y0189594D01*
X0150507Y0189966D01*
X0149845Y0190447D01*
X0149266Y0191026D01*
X0148785Y0191688D01*
X0148413Y0192417D01*
X0148246Y0192931D01*
X0147641Y0191468D01*
X0146178Y0190005D01*
X0145232Y0189613D01*
X0145232Y0186420D01*
X0144061Y0185248D01*
X0133343Y0185248D01*
X0133354Y0185237D01*
X0133354Y0182960D01*
X0133343Y0182949D01*
X0178937Y0182949D01*
X0178937Y0185510D01*
X0180285Y0186858D01*
X0184920Y0186858D01*
X0185366Y0186412D01*
X0185366Y0215204D01*
X0184421Y0215596D01*
X0182958Y0217058D01*
X0182366Y0218487D01*
X0181774Y0217058D01*
X0180312Y0215596D01*
X0179366Y0215204D01*
X0179366Y0205396D01*
X0179166Y0205196D02*
X0185366Y0205196D01*
X0185366Y0204198D02*
X0128286Y0204198D01*
X0127288Y0203199D02*
X0185366Y0203199D01*
X0185366Y0202201D02*
X0126289Y0202201D01*
X0125291Y0201202D02*
X0185366Y0201202D01*
X0185366Y0200204D02*
X0124292Y0200204D01*
X0123815Y0199205D02*
X0141213Y0199205D01*
X0139672Y0198207D02*
X0123815Y0198207D01*
X0124299Y0197208D02*
X0138762Y0197208D01*
X0138348Y0196210D02*
X0124299Y0196210D01*
X0124299Y0195211D02*
X0138032Y0195211D01*
X0138032Y0194213D02*
X0124299Y0194213D01*
X0124299Y0193214D02*
X0138101Y0193214D01*
X0138514Y0192216D02*
X0124299Y0192216D01*
X0124289Y0191217D02*
X0139075Y0191217D01*
X0140073Y0190219D02*
X0123815Y0190219D01*
X0123815Y0189220D02*
X0125282Y0189220D01*
X0124449Y0188222D02*
X0123815Y0188222D01*
X0123815Y0187223D02*
X0124449Y0187223D01*
X0124449Y0186225D02*
X0123815Y0186225D01*
X0119815Y0188539D02*
X0092319Y0188539D01*
X0092319Y0190091D01*
X0092611Y0189970D01*
X0093055Y0189882D01*
X0093468Y0189882D01*
X0093468Y0194335D01*
X0093469Y0194335D01*
X0093469Y0189882D01*
X0093882Y0189882D01*
X0094326Y0189970D01*
X0094744Y0190143D01*
X0095028Y0190333D01*
X0095480Y0189882D01*
X0097757Y0189882D01*
X0098193Y0190318D01*
X0098629Y0189882D01*
X0100906Y0189882D01*
X0101343Y0190318D01*
X0101779Y0189882D01*
X0104056Y0189882D01*
X0104492Y0190318D01*
X0104928Y0189882D01*
X0107205Y0189882D01*
X0107642Y0190318D01*
X0108078Y0189882D01*
X0110355Y0189882D01*
X0110791Y0190318D01*
X0111228Y0189882D01*
X0113505Y0189882D01*
X0113941Y0190318D01*
X0114377Y0189882D01*
X0116654Y0189882D01*
X0117106Y0190333D01*
X0117390Y0190143D01*
X0117808Y0189970D01*
X0118252Y0189882D01*
X0118665Y0189882D01*
X0118665Y0194335D01*
X0118665Y0198787D01*
X0118665Y0194335D01*
X0118665Y0194335D01*
X0118665Y0194335D01*
X0118665Y0189882D01*
X0119079Y0189882D01*
X0119522Y0189970D01*
X0119815Y0190091D01*
X0119815Y0188539D01*
X0119815Y0189220D02*
X0092319Y0189220D01*
X0093468Y0190219D02*
X0093469Y0190219D01*
X0093468Y0191217D02*
X0093469Y0191217D01*
X0093468Y0192216D02*
X0093469Y0192216D01*
X0093468Y0193214D02*
X0093469Y0193214D01*
X0093468Y0194213D02*
X0093469Y0194213D01*
X0096618Y0194335D02*
X0096618Y0197720D01*
X0080240Y0214098D01*
X0080240Y0220004D01*
X0075368Y0218177D02*
X0023016Y0218177D01*
X0023283Y0217178D02*
X0075782Y0217178D01*
X0076710Y0216180D02*
X0023551Y0216180D01*
X0023720Y0215181D02*
X0078240Y0215181D01*
X0078240Y0214183D02*
X0023720Y0214183D01*
X0023720Y0213184D02*
X0078326Y0213184D01*
X0079324Y0212186D02*
X0023596Y0212186D01*
X0023328Y0211187D02*
X0080323Y0211187D01*
X0081321Y0210189D02*
X0023061Y0210189D01*
X0022588Y0209190D02*
X0082320Y0209190D01*
X0083318Y0208192D02*
X0022012Y0208192D01*
X0021372Y0207193D02*
X0084317Y0207193D01*
X0085315Y0206195D02*
X0020373Y0206195D01*
X0019302Y0205196D02*
X0086314Y0205196D01*
X0087312Y0204198D02*
X0017572Y0204198D01*
X0014545Y0203199D02*
X0088311Y0203199D01*
X0089309Y0202201D02*
X0006000Y0202201D01*
X0006000Y0203199D02*
X0010896Y0203199D01*
X0007869Y0204198D02*
X0006000Y0204198D01*
X0006000Y0205196D02*
X0006139Y0205196D01*
X0006000Y0201202D02*
X0090308Y0201202D01*
X0091306Y0200204D02*
X0077278Y0200204D01*
X0078277Y0199205D02*
X0092305Y0199205D01*
X0088600Y0198207D02*
X0078303Y0198207D01*
X0078303Y0197208D02*
X0087835Y0197208D01*
X0087835Y0196210D02*
X0078303Y0196210D01*
X0078303Y0195211D02*
X0087835Y0195211D01*
X0087835Y0194213D02*
X0078303Y0194213D01*
X0078303Y0193214D02*
X0087835Y0193214D01*
X0087835Y0192216D02*
X0078303Y0192216D01*
X0078303Y0191217D02*
X0087845Y0191217D01*
X0088319Y0190219D02*
X0078303Y0190219D01*
X0078303Y0189220D02*
X0079613Y0189220D01*
X0078780Y0188222D02*
X0078303Y0188222D01*
X0078303Y0187223D02*
X0078780Y0187223D01*
X0078780Y0186225D02*
X0078303Y0186225D01*
X0070366Y0188222D02*
X0069575Y0188222D01*
X0070366Y0189220D02*
X0049325Y0189220D01*
X0048482Y0190219D02*
X0070366Y0190219D01*
X0070366Y0191217D02*
X0047102Y0191217D01*
X0042512Y0191217D02*
X0037080Y0191217D01*
X0038482Y0190219D02*
X0041132Y0190219D01*
X0040289Y0189220D02*
X0039277Y0189220D01*
X0039728Y0188222D02*
X0039875Y0188222D01*
X0040136Y0184228D02*
X0039465Y0184228D01*
X0038830Y0183229D02*
X0040763Y0183229D01*
X0041762Y0182231D02*
X0037723Y0182231D01*
X0035307Y0182231D02*
X0034307Y0182231D01*
X0034307Y0181354D02*
X0034307Y0186039D01*
X0029621Y0186039D01*
X0029735Y0185322D01*
X0029988Y0184543D01*
X0030360Y0183814D01*
X0030841Y0183152D01*
X0031420Y0182573D01*
X0032082Y0182092D01*
X0032811Y0181720D01*
X0033589Y0181467D01*
X0034307Y0181354D01*
X0034307Y0183229D02*
X0035307Y0183229D01*
X0035307Y0184228D02*
X0034307Y0184228D01*
X0034307Y0185226D02*
X0035307Y0185226D01*
X0034307Y0186225D02*
X0027122Y0186225D01*
X0027122Y0187223D02*
X0029651Y0187223D01*
X0029621Y0187039D02*
X0034307Y0187039D01*
X0034307Y0191725D01*
X0033589Y0191611D01*
X0032811Y0191358D01*
X0032082Y0190987D01*
X0031420Y0190506D01*
X0030841Y0189927D01*
X0030360Y0189265D01*
X0029988Y0188535D01*
X0029735Y0187757D01*
X0029621Y0187039D01*
X0029886Y0188222D02*
X0027122Y0188222D01*
X0027122Y0189220D02*
X0030337Y0189220D01*
X0031132Y0190219D02*
X0027122Y0190219D01*
X0027122Y0191217D02*
X0032534Y0191217D01*
X0034307Y0191217D02*
X0035307Y0191217D01*
X0035307Y0190219D02*
X0034307Y0190219D01*
X0034307Y0189220D02*
X0035307Y0189220D01*
X0035307Y0188222D02*
X0034307Y0188222D01*
X0034307Y0187223D02*
X0035307Y0187223D01*
X0030785Y0183229D02*
X0027122Y0183229D01*
X0027122Y0182231D02*
X0031891Y0182231D01*
X0030149Y0184228D02*
X0027122Y0184228D01*
X0027122Y0185226D02*
X0029766Y0185226D01*
X0032198Y0179235D02*
X0027122Y0179235D01*
X0027122Y0178237D02*
X0030961Y0178237D01*
X0030250Y0177238D02*
X0027122Y0177238D01*
X0027122Y0176239D02*
X0029830Y0176239D01*
X0029623Y0175241D02*
X0027122Y0175241D01*
X0034307Y0173244D02*
X0035307Y0173244D01*
X0035307Y0172245D02*
X0034307Y0172245D01*
X0034307Y0171247D02*
X0035307Y0171247D01*
X0035307Y0170248D02*
X0034307Y0170248D01*
X0019185Y0170248D02*
X0006000Y0170248D01*
X0006000Y0169250D02*
X0019185Y0169250D01*
X0019185Y0168251D02*
X0006000Y0168251D01*
X0006000Y0167253D02*
X0019185Y0167253D01*
X0019185Y0166254D02*
X0006000Y0166254D01*
X0006000Y0165256D02*
X0019185Y0165256D01*
X0019185Y0164257D02*
X0006000Y0164257D01*
X0006000Y0163259D02*
X0019185Y0163259D01*
X0019185Y0162260D02*
X0006000Y0162260D01*
X0006000Y0161262D02*
X0019185Y0161262D01*
X0019185Y0160263D02*
X0006000Y0160263D01*
X0006000Y0159265D02*
X0019185Y0159265D01*
X0019185Y0158266D02*
X0006000Y0158266D01*
X0006000Y0157268D02*
X0019185Y0157268D01*
X0019185Y0156269D02*
X0006000Y0156269D01*
X0006000Y0155271D02*
X0019185Y0155271D01*
X0019185Y0154272D02*
X0006000Y0154272D01*
X0006000Y0153274D02*
X0019185Y0153274D01*
X0019185Y0152275D02*
X0006000Y0152275D01*
X0006000Y0151277D02*
X0019185Y0151277D01*
X0019185Y0150278D02*
X0006000Y0150278D01*
X0006000Y0149280D02*
X0019185Y0149280D01*
X0019185Y0148281D02*
X0006000Y0148281D01*
X0006000Y0147283D02*
X0019185Y0147283D01*
X0019185Y0146284D02*
X0006000Y0146284D01*
X0006000Y0145286D02*
X0019185Y0145286D01*
X0019185Y0144287D02*
X0006000Y0144287D01*
X0006000Y0143289D02*
X0019185Y0143289D01*
X0019185Y0142290D02*
X0006000Y0142290D01*
X0006000Y0141292D02*
X0019185Y0141292D01*
X0019185Y0140293D02*
X0006000Y0140293D01*
X0006000Y0139295D02*
X0019185Y0139295D01*
X0019185Y0138296D02*
X0006000Y0138296D01*
X0006000Y0137298D02*
X0019185Y0137298D01*
X0019185Y0136299D02*
X0006000Y0136299D01*
X0006000Y0135301D02*
X0019185Y0135301D01*
X0019185Y0134302D02*
X0006000Y0134302D01*
X0006000Y0133303D02*
X0019185Y0133303D01*
X0019185Y0132305D02*
X0006000Y0132305D01*
X0006000Y0131306D02*
X0019185Y0131306D01*
X0019185Y0130308D02*
X0006000Y0130308D01*
X0006000Y0129309D02*
X0019185Y0129309D01*
X0019185Y0128311D02*
X0006000Y0128311D01*
X0006000Y0127312D02*
X0019185Y0127312D01*
X0019185Y0126314D02*
X0006000Y0126314D01*
X0006000Y0125315D02*
X0019185Y0125315D01*
X0019185Y0124317D02*
X0006000Y0124317D01*
X0006000Y0123318D02*
X0019185Y0123318D01*
X0019185Y0122320D02*
X0006000Y0122320D01*
X0006000Y0121321D02*
X0019185Y0121321D01*
X0019185Y0120323D02*
X0006000Y0120323D01*
X0006000Y0119324D02*
X0019185Y0119324D01*
X0019185Y0118326D02*
X0006000Y0118326D01*
X0006000Y0117327D02*
X0019185Y0117327D01*
X0019185Y0116329D02*
X0006000Y0116329D01*
X0006000Y0115330D02*
X0019185Y0115330D01*
X0019185Y0114332D02*
X0006000Y0114332D01*
X0006000Y0113333D02*
X0019185Y0113333D01*
X0019185Y0112335D02*
X0006000Y0112335D01*
X0006000Y0111336D02*
X0019185Y0111336D01*
X0019185Y0110338D02*
X0006000Y0110338D01*
X0006000Y0109339D02*
X0019185Y0109339D01*
X0019185Y0108341D02*
X0006000Y0108341D01*
X0006000Y0107342D02*
X0019185Y0107342D01*
X0019185Y0106344D02*
X0006000Y0106344D01*
X0006000Y0105345D02*
X0019185Y0105345D01*
X0019185Y0104347D02*
X0006000Y0104347D01*
X0006000Y0103348D02*
X0019185Y0103348D01*
X0019185Y0102350D02*
X0006000Y0102350D01*
X0006000Y0101351D02*
X0019185Y0101351D01*
X0019185Y0100353D02*
X0006000Y0100353D01*
X0006000Y0099354D02*
X0019185Y0099354D01*
X0019185Y0098356D02*
X0006000Y0098356D01*
X0006000Y0097357D02*
X0019185Y0097357D01*
X0019185Y0096359D02*
X0006000Y0096359D01*
X0006000Y0095360D02*
X0019185Y0095360D01*
X0019185Y0094362D02*
X0006000Y0094362D01*
X0006000Y0093363D02*
X0019185Y0093363D01*
X0019185Y0092365D02*
X0006000Y0092365D01*
X0006000Y0091366D02*
X0019185Y0091366D01*
X0019185Y0090368D02*
X0006000Y0090368D01*
X0006000Y0089369D02*
X0019185Y0089369D01*
X0019185Y0088370D02*
X0006000Y0088370D01*
X0006000Y0087372D02*
X0019185Y0087372D01*
X0019185Y0086373D02*
X0006000Y0086373D01*
X0006000Y0085375D02*
X0019185Y0085375D01*
X0019185Y0084376D02*
X0006000Y0084376D01*
X0006000Y0083378D02*
X0019185Y0083378D01*
X0019185Y0082379D02*
X0006000Y0082379D01*
X0006000Y0081381D02*
X0019185Y0081381D01*
X0020183Y0080382D02*
X0006000Y0080382D01*
X0006000Y0079384D02*
X0093781Y0079384D01*
X0090642Y0078385D02*
X0006000Y0078385D01*
X0006000Y0077387D02*
X0088913Y0077387D01*
X0087801Y0076388D02*
X0006000Y0076388D01*
X0006000Y0075390D02*
X0086802Y0075390D01*
X0086138Y0074391D02*
X0006000Y0074391D01*
X0006000Y0073393D02*
X0085562Y0073393D01*
X0085072Y0072394D02*
X0006000Y0072394D01*
X0006000Y0071396D02*
X0084805Y0071396D01*
X0084537Y0070397D02*
X0006000Y0070397D01*
X0006000Y0069399D02*
X0084398Y0069399D01*
X0084398Y0068400D02*
X0006000Y0068400D01*
X0006000Y0067402D02*
X0010465Y0067402D01*
X0007669Y0066403D02*
X0006000Y0066403D01*
X0014976Y0067402D02*
X0084398Y0067402D01*
X0084552Y0066403D02*
X0017772Y0066403D01*
X0019490Y0065405D02*
X0084820Y0065405D01*
X0085088Y0064406D02*
X0020489Y0064406D01*
X0021487Y0063408D02*
X0085595Y0063408D01*
X0086172Y0062409D02*
X0022079Y0062409D01*
X0022655Y0061411D02*
X0086860Y0061411D01*
X0087858Y0060412D02*
X0023092Y0060412D01*
X0023359Y0059414D02*
X0084842Y0059414D01*
X0082274Y0058415D02*
X0023627Y0058415D01*
X0023720Y0057417D02*
X0080640Y0057417D01*
X0079641Y0056418D02*
X0023720Y0056418D01*
X0023720Y0055420D02*
X0078676Y0055420D01*
X0078100Y0054421D02*
X0023520Y0054421D01*
X0023252Y0053423D02*
X0077523Y0053423D01*
X0077122Y0052424D02*
X0022985Y0052424D01*
X0022424Y0051426D02*
X0076854Y0051426D01*
X0076587Y0050427D02*
X0021848Y0050427D01*
X0021087Y0049429D02*
X0076524Y0049429D01*
X0076524Y0048430D02*
X0020089Y0048430D01*
X0018809Y0047432D02*
X0076524Y0047432D01*
X0076755Y0046433D02*
X0017079Y0046433D01*
X0008362Y0046433D02*
X0006000Y0046433D01*
X0006000Y0045434D02*
X0077022Y0045434D01*
X0077309Y0044436D02*
X0071227Y0044436D01*
X0072226Y0043437D02*
X0077886Y0043437D01*
X0078462Y0042439D02*
X0072650Y0042439D01*
X0072929Y0041440D02*
X0079271Y0041440D01*
X0080269Y0040442D02*
X0072929Y0040442D01*
X0072929Y0039443D02*
X0081633Y0039443D01*
X0083460Y0038445D02*
X0072929Y0038445D01*
X0072929Y0037446D02*
X0193850Y0037446D01*
X0193850Y0036448D02*
X0072929Y0036448D01*
X0072929Y0035449D02*
X0193850Y0035449D01*
X0193850Y0034451D02*
X0072929Y0034451D01*
X0072929Y0033452D02*
X0193850Y0033452D01*
X0193850Y0032454D02*
X0072929Y0032454D01*
X0072929Y0031455D02*
X0193850Y0031455D01*
X0193850Y0030457D02*
X0072929Y0030457D01*
X0072929Y0029458D02*
X0193850Y0029458D01*
X0193850Y0028460D02*
X0072929Y0028460D01*
X0072929Y0027461D02*
X0193850Y0027461D01*
X0193850Y0026463D02*
X0072929Y0026463D01*
X0072929Y0025464D02*
X0193850Y0025464D01*
X0193850Y0024466D02*
X0072929Y0024466D01*
X0072929Y0023467D02*
X0193850Y0023467D01*
X0193850Y0022469D02*
X0072929Y0022469D01*
X0072929Y0021470D02*
X0193850Y0021470D01*
X0193850Y0020472D02*
X0072929Y0020472D01*
X0072929Y0019473D02*
X0193850Y0019473D01*
X0193850Y0018475D02*
X0072929Y0018475D01*
X0072929Y0017476D02*
X0193850Y0017476D01*
X0193850Y0016478D02*
X0072929Y0016478D01*
X0072929Y0015479D02*
X0193850Y0015479D01*
X0193850Y0014481D02*
X0072929Y0014481D01*
X0072929Y0013482D02*
X0193850Y0013482D01*
X0193850Y0012484D02*
X0072929Y0012484D01*
X0072929Y0011485D02*
X0193850Y0011485D01*
X0193850Y0010487D02*
X0072929Y0010487D01*
X0072929Y0009488D02*
X0193850Y0009488D01*
X0193850Y0008490D02*
X0072929Y0008490D01*
X0072929Y0007491D02*
X0193850Y0007491D01*
X0193850Y0006493D02*
X0072929Y0006493D01*
X0091587Y0038445D02*
X0193850Y0038445D01*
X0193850Y0039443D02*
X0093414Y0039443D01*
X0094407Y0057417D02*
X0177118Y0057417D01*
X0183374Y0061411D02*
X0103936Y0061411D01*
X0086661Y0111336D02*
X0085301Y0111336D01*
X0083299Y0116329D02*
X0082299Y0116329D01*
X0082299Y0117327D02*
X0083299Y0117327D01*
X0083299Y0118326D02*
X0082299Y0118326D01*
X0082299Y0119324D02*
X0083299Y0119324D01*
X0078740Y0113333D02*
X0034996Y0113333D01*
X0034996Y0112335D02*
X0079063Y0112335D01*
X0068429Y0131421D02*
X0096618Y0131421D01*
X0096618Y0148665D01*
X0093469Y0148665D02*
X0093469Y0135358D01*
X0064492Y0135358D01*
X0070306Y0152275D02*
X0088337Y0152275D01*
X0088319Y0161262D02*
X0087685Y0161262D01*
X0087685Y0162260D02*
X0088319Y0162260D01*
X0088319Y0163259D02*
X0087616Y0163259D01*
X0087685Y0164257D02*
X0088319Y0164257D01*
X0088319Y0165256D02*
X0087685Y0165256D01*
X0087685Y0166254D02*
X0088319Y0166254D01*
X0088319Y0167253D02*
X0087685Y0167253D01*
X0087685Y0168251D02*
X0088319Y0168251D01*
X0088319Y0169250D02*
X0087685Y0169250D01*
X0087572Y0170248D02*
X0088319Y0170248D01*
X0088319Y0171247D02*
X0087685Y0171247D01*
X0087685Y0172245D02*
X0088319Y0172245D01*
X0088319Y0173244D02*
X0087418Y0173244D01*
X0087685Y0174242D02*
X0088319Y0174242D01*
X0088319Y0175241D02*
X0087685Y0175241D01*
X0087264Y0176239D02*
X0088319Y0176239D01*
X0088319Y0177238D02*
X0087685Y0177238D01*
X0087685Y0178237D02*
X0088319Y0178237D01*
X0088319Y0179235D02*
X0087388Y0179235D01*
X0087685Y0180234D02*
X0088319Y0180234D01*
X0088319Y0181232D02*
X0087685Y0181232D01*
X0087542Y0182231D02*
X0088319Y0182231D01*
X0088319Y0183229D02*
X0087685Y0183229D01*
X0087685Y0184228D02*
X0088319Y0184228D01*
X0088319Y0185226D02*
X0087685Y0185226D01*
X0087685Y0186225D02*
X0088319Y0186225D01*
X0088319Y0187223D02*
X0087685Y0187223D01*
X0087685Y0188222D02*
X0088319Y0188222D01*
X0088319Y0189220D02*
X0086851Y0189220D01*
X0090319Y0186539D02*
X0090319Y0194335D01*
X0094856Y0190219D02*
X0095143Y0190219D01*
X0098093Y0190219D02*
X0098292Y0190219D01*
X0101243Y0190219D02*
X0101442Y0190219D01*
X0104393Y0190219D02*
X0104592Y0190219D01*
X0107542Y0190219D02*
X0107741Y0190219D01*
X0110692Y0190219D02*
X0110891Y0190219D01*
X0113841Y0190219D02*
X0114040Y0190219D01*
X0116991Y0190219D02*
X0117277Y0190219D01*
X0118665Y0190219D02*
X0118665Y0190219D01*
X0118665Y0191217D02*
X0118665Y0191217D01*
X0118665Y0192216D02*
X0118665Y0192216D01*
X0118665Y0193214D02*
X0118665Y0193214D01*
X0118665Y0194213D02*
X0118665Y0194213D01*
X0118665Y0195211D02*
X0118665Y0195211D01*
X0118665Y0196210D02*
X0118665Y0196210D01*
X0118665Y0197208D02*
X0118665Y0197208D01*
X0118665Y0198207D02*
X0118665Y0198207D01*
X0119815Y0199205D02*
X0115419Y0199205D01*
X0116418Y0200204D02*
X0119815Y0200204D01*
X0119815Y0201202D02*
X0117416Y0201202D01*
X0118415Y0202201D02*
X0120632Y0202201D01*
X0121631Y0203199D02*
X0119414Y0203199D01*
X0120412Y0204198D02*
X0122629Y0204198D01*
X0123628Y0205196D02*
X0121411Y0205196D01*
X0122409Y0206195D02*
X0124626Y0206195D01*
X0125625Y0207193D02*
X0123408Y0207193D01*
X0124406Y0208192D02*
X0126623Y0208192D01*
X0120240Y0210791D02*
X0109217Y0199768D01*
X0109217Y0194335D01*
X0112366Y0194335D02*
X0112366Y0198980D01*
X0130240Y0216854D01*
X0130240Y0220004D01*
X0134971Y0222171D02*
X0162634Y0222171D01*
X0162286Y0221172D02*
X0135385Y0221172D01*
X0134428Y0223170D02*
X0163239Y0223170D01*
X0179366Y0215181D02*
X0185366Y0215181D01*
X0185366Y0214183D02*
X0179366Y0214183D01*
X0179366Y0213184D02*
X0185366Y0213184D01*
X0185366Y0212186D02*
X0179366Y0212186D01*
X0179366Y0211187D02*
X0185366Y0211187D01*
X0185366Y0210189D02*
X0179366Y0210189D01*
X0180896Y0216180D02*
X0183836Y0216180D01*
X0182908Y0217178D02*
X0181824Y0217178D01*
X0182238Y0218177D02*
X0182494Y0218177D01*
X0187366Y0220004D02*
X0187366Y0182602D01*
X0190476Y0182602D01*
X0228272Y0182602D01*
X0228272Y0208587D01*
X0230831Y0208587D02*
X0230831Y0194413D01*
X0232831Y0192216D02*
X0235274Y0192216D01*
X0236855Y0191217D02*
X0232831Y0191217D01*
X0232831Y0190219D02*
X0246713Y0190219D01*
X0246969Y0190475D02*
X0245990Y0189495D01*
X0245460Y0188216D01*
X0245460Y0186831D01*
X0245990Y0185552D01*
X0246455Y0185087D01*
X0246225Y0185087D01*
X0245594Y0184456D01*
X0245476Y0184575D01*
X0245100Y0184826D01*
X0244683Y0184998D01*
X0244240Y0185087D01*
X0242748Y0185087D01*
X0242748Y0181134D01*
X0241748Y0181134D01*
X0241748Y0185087D01*
X0240256Y0185087D01*
X0239813Y0184998D01*
X0239396Y0184826D01*
X0239020Y0184575D01*
X0238701Y0184255D01*
X0238450Y0183880D01*
X0238277Y0183462D01*
X0238189Y0183019D01*
X0238189Y0181134D01*
X0241748Y0181134D01*
X0241748Y0180134D01*
X0238189Y0180134D01*
X0238189Y0178249D01*
X0238277Y0177805D01*
X0238450Y0177388D01*
X0238701Y0177013D01*
X0239020Y0176693D01*
X0239396Y0176442D01*
X0239813Y0176269D01*
X0240138Y0176205D01*
X0239813Y0176140D01*
X0239396Y0175967D01*
X0239020Y0175716D01*
X0238701Y0175397D01*
X0238450Y0175021D01*
X0238277Y0174604D01*
X0238189Y0174161D01*
X0238189Y0172276D01*
X0241748Y0172276D01*
X0241748Y0180134D01*
X0242748Y0180134D01*
X0242748Y0176181D01*
X0242748Y0172276D01*
X0241748Y0172276D01*
X0241748Y0171276D01*
X0242748Y0171276D01*
X0242748Y0167323D01*
X0244240Y0167323D01*
X0244683Y0167411D01*
X0245100Y0167584D01*
X0245476Y0167835D01*
X0245594Y0167954D01*
X0246225Y0167323D01*
X0249193Y0167323D01*
X0249193Y0166982D01*
X0247883Y0166982D01*
X0246543Y0165642D01*
X0246543Y0158224D01*
X0247883Y0156884D01*
X0254503Y0156884D01*
X0255843Y0158224D01*
X0255843Y0165642D01*
X0254503Y0166982D01*
X0253193Y0166982D01*
X0253193Y0172604D01*
X0253000Y0172797D01*
X0253000Y0174885D01*
X0251680Y0176205D01*
X0253000Y0177524D01*
X0253000Y0183743D01*
X0251657Y0185087D01*
X0251427Y0185087D01*
X0251892Y0185552D01*
X0252422Y0186831D01*
X0252422Y0188216D01*
X0251892Y0189495D01*
X0250913Y0190475D01*
X0249633Y0191005D01*
X0248248Y0191005D01*
X0246969Y0190475D01*
X0245876Y0189220D02*
X0232831Y0189220D01*
X0232831Y0188222D02*
X0245462Y0188222D01*
X0245460Y0187223D02*
X0232831Y0187223D01*
X0232831Y0186225D02*
X0245711Y0186225D01*
X0246315Y0185226D02*
X0232831Y0185226D01*
X0232831Y0184228D02*
X0238682Y0184228D01*
X0238231Y0183229D02*
X0232831Y0183229D01*
X0232831Y0182231D02*
X0238189Y0182231D01*
X0238189Y0181232D02*
X0232831Y0181232D01*
X0232831Y0180234D02*
X0241748Y0180234D01*
X0241748Y0181232D02*
X0242748Y0181232D01*
X0242748Y0182231D02*
X0241748Y0182231D01*
X0241748Y0183229D02*
X0242748Y0183229D01*
X0242748Y0184228D02*
X0241748Y0184228D01*
X0241748Y0179235D02*
X0242748Y0179235D01*
X0242748Y0178237D02*
X0241748Y0178237D01*
X0241748Y0177238D02*
X0242748Y0177238D01*
X0242748Y0176239D02*
X0241748Y0176239D01*
X0241748Y0175241D02*
X0242748Y0175241D01*
X0242748Y0174242D02*
X0241748Y0174242D01*
X0241748Y0173244D02*
X0242748Y0173244D01*
X0241748Y0172245D02*
X0194142Y0172245D01*
X0193568Y0171247D02*
X0238189Y0171247D01*
X0238189Y0173244D02*
X0232175Y0173244D01*
X0232831Y0174242D02*
X0238205Y0174242D01*
X0238597Y0175241D02*
X0232831Y0175241D01*
X0232831Y0176239D02*
X0239963Y0176239D01*
X0238550Y0177238D02*
X0232831Y0177238D01*
X0232831Y0178237D02*
X0238191Y0178237D01*
X0238189Y0179235D02*
X0232831Y0179235D01*
X0241748Y0171247D02*
X0242748Y0171247D01*
X0242748Y0170248D02*
X0241748Y0170248D01*
X0241748Y0169250D02*
X0242748Y0169250D01*
X0242748Y0168251D02*
X0241748Y0168251D01*
X0244034Y0166254D02*
X0247155Y0166254D01*
X0246543Y0165256D02*
X0244646Y0165256D01*
X0244646Y0164257D02*
X0246543Y0164257D01*
X0246543Y0163259D02*
X0244646Y0163259D01*
X0244646Y0162260D02*
X0246543Y0162260D01*
X0246543Y0161262D02*
X0244646Y0161262D01*
X0244646Y0160263D02*
X0246543Y0160263D01*
X0246543Y0159265D02*
X0244646Y0159265D01*
X0244646Y0158266D02*
X0246543Y0158266D01*
X0247499Y0157268D02*
X0243690Y0157268D01*
X0242083Y0156269D02*
X0272591Y0156269D01*
X0272591Y0155271D02*
X0242083Y0155271D01*
X0243491Y0154272D02*
X0247705Y0154272D01*
X0247684Y0154258D02*
X0247364Y0153938D01*
X0247112Y0153562D01*
X0246939Y0153143D01*
X0246850Y0152699D01*
X0246850Y0150622D01*
X0250606Y0150622D01*
X0250606Y0149622D01*
X0246850Y0149622D01*
X0246850Y0147545D01*
X0246939Y0147101D01*
X0247112Y0146683D01*
X0247364Y0146306D01*
X0247684Y0145986D01*
X0248061Y0145734D01*
X0248479Y0145561D01*
X0248923Y0145472D01*
X0250606Y0145472D01*
X0250606Y0149622D01*
X0251606Y0149622D01*
X0251606Y0145472D01*
X0253289Y0145472D01*
X0253734Y0145561D01*
X0254152Y0145734D01*
X0254529Y0145986D01*
X0254849Y0146306D01*
X0255101Y0146683D01*
X0255274Y0147101D01*
X0255362Y0147545D01*
X0255362Y0149622D01*
X0251606Y0149622D01*
X0251606Y0150622D01*
X0250606Y0150622D01*
X0250606Y0154772D01*
X0248923Y0154772D01*
X0248479Y0154683D01*
X0248061Y0154510D01*
X0247684Y0154258D01*
X0246993Y0153274D02*
X0244339Y0153274D01*
X0244339Y0152275D02*
X0246850Y0152275D01*
X0246850Y0151277D02*
X0244339Y0151277D01*
X0244339Y0150278D02*
X0250606Y0150278D01*
X0250606Y0149280D02*
X0251606Y0149280D01*
X0251606Y0150278D02*
X0272591Y0150278D01*
X0272591Y0149280D02*
X0255362Y0149280D01*
X0255362Y0148281D02*
X0272591Y0148281D01*
X0272591Y0147283D02*
X0255310Y0147283D01*
X0254827Y0146284D02*
X0272591Y0146284D01*
X0272591Y0145286D02*
X0242083Y0145286D01*
X0242083Y0144287D02*
X0272591Y0144287D01*
X0272591Y0143289D02*
X0252090Y0143289D01*
X0252843Y0142290D02*
X0272591Y0142290D01*
X0272591Y0141292D02*
X0253000Y0141292D01*
X0253000Y0140293D02*
X0272591Y0140293D01*
X0272591Y0139295D02*
X0249441Y0139295D01*
X0249441Y0140293D02*
X0248441Y0140293D01*
X0248441Y0141292D02*
X0249441Y0141292D01*
X0249441Y0142290D02*
X0248441Y0142290D01*
X0248441Y0143289D02*
X0249441Y0143289D01*
X0245792Y0143289D02*
X0245423Y0143289D01*
X0243803Y0146284D02*
X0247386Y0146284D01*
X0246903Y0147283D02*
X0244339Y0147283D01*
X0244339Y0148281D02*
X0246850Y0148281D01*
X0246850Y0149280D02*
X0244339Y0149280D01*
X0250606Y0148281D02*
X0251606Y0148281D01*
X0251606Y0147283D02*
X0250606Y0147283D01*
X0250606Y0146284D02*
X0251606Y0146284D01*
X0251606Y0150622D02*
X0255362Y0150622D01*
X0255362Y0152699D01*
X0255274Y0153143D01*
X0255101Y0153562D01*
X0254849Y0153938D01*
X0254529Y0154258D01*
X0254152Y0154510D01*
X0253734Y0154683D01*
X0253289Y0154772D01*
X0251606Y0154772D01*
X0251606Y0150622D01*
X0251606Y0151277D02*
X0250606Y0151277D01*
X0250606Y0152275D02*
X0251606Y0152275D01*
X0251606Y0153274D02*
X0250606Y0153274D01*
X0250606Y0154272D02*
X0251606Y0154272D01*
X0254508Y0154272D02*
X0272591Y0154272D01*
X0272591Y0153274D02*
X0255220Y0153274D01*
X0255362Y0152275D02*
X0272591Y0152275D01*
X0272591Y0151277D02*
X0255362Y0151277D01*
X0254886Y0157268D02*
X0272591Y0157268D01*
X0272591Y0158266D02*
X0255843Y0158266D01*
X0255843Y0159265D02*
X0272591Y0159265D01*
X0272591Y0160263D02*
X0255843Y0160263D01*
X0255843Y0161262D02*
X0272591Y0161262D01*
X0272591Y0162260D02*
X0255843Y0162260D01*
X0255843Y0163259D02*
X0272591Y0163259D01*
X0272591Y0164257D02*
X0255843Y0164257D01*
X0255843Y0165256D02*
X0272591Y0165256D01*
X0272591Y0166254D02*
X0255230Y0166254D01*
X0253193Y0167253D02*
X0272591Y0167253D01*
X0272591Y0168251D02*
X0253193Y0168251D01*
X0253193Y0169250D02*
X0272591Y0169250D01*
X0272591Y0170248D02*
X0253193Y0170248D01*
X0253193Y0171247D02*
X0272591Y0171247D01*
X0272591Y0172245D02*
X0253193Y0172245D01*
X0253000Y0173244D02*
X0272591Y0173244D01*
X0272591Y0174242D02*
X0253000Y0174242D01*
X0252644Y0175241D02*
X0272591Y0175241D01*
X0272591Y0176239D02*
X0251715Y0176239D01*
X0252713Y0177238D02*
X0272591Y0177238D01*
X0272591Y0178237D02*
X0253000Y0178237D01*
X0253000Y0179235D02*
X0272591Y0179235D01*
X0272591Y0180234D02*
X0253000Y0180234D01*
X0253000Y0181232D02*
X0272591Y0181232D01*
X0272591Y0182231D02*
X0253000Y0182231D01*
X0253000Y0183229D02*
X0272591Y0183229D01*
X0272591Y0184228D02*
X0252516Y0184228D01*
X0251566Y0185226D02*
X0272591Y0185226D01*
X0272591Y0186225D02*
X0252171Y0186225D01*
X0252422Y0187223D02*
X0272591Y0187223D01*
X0272591Y0188222D02*
X0252420Y0188222D01*
X0252006Y0189220D02*
X0272591Y0189220D01*
X0272591Y0190219D02*
X0251169Y0190219D01*
X0248941Y0187524D02*
X0248941Y0180634D01*
X0248941Y0171776D01*
X0251193Y0171776D01*
X0251193Y0161933D01*
X0249193Y0167253D02*
X0228339Y0167253D01*
X0227341Y0168251D02*
X0238636Y0168251D01*
X0235958Y0166254D02*
X0229338Y0166254D01*
X0230336Y0165256D02*
X0235346Y0165256D01*
X0235346Y0164257D02*
X0231335Y0164257D01*
X0228674Y0161262D02*
X0186858Y0161262D01*
X0186858Y0160263D02*
X0229672Y0160263D01*
X0227675Y0162260D02*
X0185896Y0162260D01*
X0185580Y0163259D02*
X0226677Y0163259D01*
X0225678Y0164257D02*
X0186579Y0164257D01*
X0186858Y0159265D02*
X0235346Y0159265D01*
X0235346Y0158266D02*
X0186858Y0158266D01*
X0186858Y0157268D02*
X0236302Y0157268D01*
X0238083Y0156269D02*
X0186465Y0156269D01*
X0184429Y0155271D02*
X0238083Y0155271D01*
X0236674Y0154272D02*
X0184429Y0154272D01*
X0186043Y0153274D02*
X0200815Y0153274D01*
X0201273Y0153732D02*
X0199929Y0152388D01*
X0199929Y0149077D01*
X0201273Y0147732D01*
X0207585Y0147732D01*
X0208929Y0149077D01*
X0208929Y0152388D01*
X0207585Y0153732D01*
X0201273Y0153732D01*
X0199929Y0152275D02*
X0186929Y0152275D01*
X0186929Y0151277D02*
X0199929Y0151277D01*
X0199929Y0150278D02*
X0186929Y0150278D01*
X0186929Y0149280D02*
X0199929Y0149280D01*
X0200725Y0148281D02*
X0186134Y0148281D01*
X0182429Y0150732D02*
X0182429Y0158980D01*
X0182602Y0158980D01*
X0182602Y0174728D02*
X0182602Y0177799D01*
X0128902Y0177799D01*
X0128902Y0174650D02*
X0133354Y0174650D01*
X0133354Y0175063D01*
X0133266Y0175507D01*
X0133145Y0175799D01*
X0142725Y0175799D01*
X0141535Y0174609D01*
X0141535Y0173500D01*
X0133145Y0173500D01*
X0133266Y0173793D01*
X0133354Y0174236D01*
X0133354Y0174650D01*
X0128902Y0174650D01*
X0128902Y0174650D01*
X0128901Y0174650D02*
X0128901Y0174650D01*
X0124449Y0174650D01*
X0124449Y0175063D01*
X0124537Y0175507D01*
X0124710Y0175925D01*
X0124900Y0176209D01*
X0124449Y0176661D01*
X0124449Y0178938D01*
X0124885Y0179374D01*
X0124449Y0179810D01*
X0124449Y0182087D01*
X0124460Y0182098D01*
X0121610Y0182098D01*
X0121610Y0170350D01*
X0124460Y0170350D01*
X0124449Y0170361D01*
X0124449Y0172639D01*
X0124900Y0173090D01*
X0124710Y0173374D01*
X0124537Y0173793D01*
X0124449Y0174236D01*
X0124449Y0174650D01*
X0128901Y0174650D01*
X0128902Y0171500D02*
X0145594Y0171500D01*
X0142167Y0175241D02*
X0133319Y0175241D01*
X0133354Y0174242D02*
X0141535Y0174242D01*
X0133354Y0183229D02*
X0178937Y0183229D01*
X0178937Y0184228D02*
X0133354Y0184228D01*
X0133354Y0185226D02*
X0178937Y0185226D01*
X0179651Y0186225D02*
X0145037Y0186225D01*
X0145232Y0187223D02*
X0185366Y0187223D01*
X0185366Y0188222D02*
X0145232Y0188222D01*
X0145232Y0189220D02*
X0185366Y0189220D01*
X0185366Y0190219D02*
X0156305Y0190219D01*
X0157338Y0191217D02*
X0185366Y0191217D01*
X0185366Y0192216D02*
X0157949Y0192216D01*
X0158307Y0193214D02*
X0185366Y0193214D01*
X0185366Y0194213D02*
X0153732Y0194213D01*
X0153732Y0195211D02*
X0152732Y0195211D01*
X0152732Y0196210D02*
X0153732Y0196210D01*
X0153732Y0197208D02*
X0152732Y0197208D01*
X0152732Y0198207D02*
X0153732Y0198207D01*
X0153732Y0199205D02*
X0152732Y0199205D01*
X0151183Y0199205D02*
X0145252Y0199205D01*
X0146793Y0198207D02*
X0149672Y0198207D01*
X0148835Y0197208D02*
X0147703Y0197208D01*
X0148117Y0196210D02*
X0148348Y0196210D01*
X0148516Y0192216D02*
X0147950Y0192216D01*
X0147390Y0191217D02*
X0149127Y0191217D01*
X0150159Y0190219D02*
X0146391Y0190219D01*
X0143232Y0187248D02*
X0143232Y0194413D01*
X0152732Y0193214D02*
X0153732Y0193214D01*
X0153732Y0192216D02*
X0152732Y0192216D01*
X0152732Y0191217D02*
X0153732Y0191217D01*
X0153732Y0190219D02*
X0152732Y0190219D01*
X0158371Y0195211D02*
X0185366Y0195211D01*
X0185366Y0196210D02*
X0158116Y0196210D01*
X0157629Y0197208D02*
X0185366Y0197208D01*
X0185366Y0198207D02*
X0156793Y0198207D01*
X0155282Y0199205D02*
X0185366Y0199205D01*
X0189366Y0199205D02*
X0223713Y0199205D01*
X0223713Y0198207D02*
X0189366Y0198207D01*
X0189366Y0197208D02*
X0223713Y0197208D01*
X0223713Y0196210D02*
X0189366Y0196210D01*
X0189366Y0195211D02*
X0223713Y0195211D01*
X0223713Y0194213D02*
X0189366Y0194213D01*
X0189366Y0193214D02*
X0223713Y0193214D01*
X0223713Y0192216D02*
X0189366Y0192216D01*
X0189366Y0191217D02*
X0223713Y0191217D01*
X0223713Y0190219D02*
X0205500Y0190219D01*
X0203272Y0187524D02*
X0225713Y0187524D01*
X0225713Y0208587D01*
X0223524Y0208192D02*
X0189366Y0208192D01*
X0189366Y0209190D02*
X0223524Y0209190D01*
X0223524Y0210189D02*
X0189366Y0210189D01*
X0189366Y0211187D02*
X0223524Y0211187D01*
X0224149Y0212186D02*
X0189366Y0212186D01*
X0189366Y0207193D02*
X0223524Y0207193D01*
X0223524Y0206195D02*
X0189366Y0206195D01*
X0189366Y0205196D02*
X0223713Y0205196D01*
X0223713Y0204198D02*
X0189366Y0204198D01*
X0189366Y0203199D02*
X0223713Y0203199D01*
X0223713Y0202201D02*
X0189366Y0202201D01*
X0189366Y0201202D02*
X0223713Y0201202D01*
X0223713Y0200204D02*
X0189366Y0200204D01*
X0189366Y0190219D02*
X0201044Y0190219D01*
X0200206Y0189220D02*
X0189366Y0189220D01*
X0189366Y0188222D02*
X0199793Y0188222D01*
X0199791Y0187223D02*
X0189366Y0187223D01*
X0193427Y0186225D02*
X0200042Y0186225D01*
X0200646Y0185226D02*
X0194142Y0185226D01*
X0186811Y0180234D02*
X0186268Y0180234D01*
X0185808Y0179235D02*
X0187270Y0179235D01*
X0187411Y0178237D02*
X0185667Y0178237D01*
X0186268Y0177238D02*
X0186811Y0177238D01*
X0186811Y0176239D02*
X0186268Y0176239D01*
X0186268Y0175241D02*
X0186811Y0175241D01*
X0182602Y0180949D02*
X0128902Y0180949D01*
X0128902Y0184098D02*
X0119610Y0184098D01*
X0119610Y0168350D01*
X0128902Y0168350D01*
X0124449Y0166254D02*
X0117516Y0166254D01*
X0117516Y0165256D02*
X0124449Y0165256D01*
X0124449Y0164257D02*
X0117516Y0164257D01*
X0117516Y0163259D02*
X0124518Y0163259D01*
X0124449Y0162260D02*
X0117516Y0162260D01*
X0117516Y0161262D02*
X0124449Y0161262D01*
X0124672Y0160263D02*
X0117516Y0160263D01*
X0117516Y0159265D02*
X0124449Y0159265D01*
X0124449Y0158266D02*
X0117516Y0158266D01*
X0117516Y0157268D02*
X0124826Y0157268D01*
X0124449Y0156269D02*
X0117516Y0156269D01*
X0117516Y0155271D02*
X0124449Y0155271D01*
X0124790Y0154272D02*
X0117516Y0154272D01*
X0117516Y0153274D02*
X0125788Y0153274D01*
X0123796Y0152275D02*
X0146980Y0152275D01*
X0146980Y0151277D02*
X0124299Y0151277D01*
X0132015Y0153274D02*
X0146980Y0153274D01*
X0146980Y0150278D02*
X0132637Y0150278D01*
X0133421Y0149280D02*
X0146980Y0149280D01*
X0146980Y0148281D02*
X0133421Y0148281D01*
X0133421Y0147283D02*
X0146980Y0147283D01*
X0146980Y0146284D02*
X0133421Y0146284D01*
X0133421Y0145286D02*
X0146980Y0145286D01*
X0146980Y0144287D02*
X0142885Y0144287D01*
X0142639Y0144367D02*
X0141921Y0144481D01*
X0141921Y0139795D01*
X0146607Y0139795D01*
X0146493Y0140513D01*
X0146240Y0141291D01*
X0145869Y0142021D01*
X0145388Y0142683D01*
X0144809Y0143262D01*
X0144147Y0143743D01*
X0143417Y0144114D01*
X0142639Y0144367D01*
X0141921Y0144287D02*
X0140921Y0144287D01*
X0139957Y0144287D02*
X0133421Y0144287D01*
X0134782Y0143289D02*
X0138071Y0143289D01*
X0137170Y0142290D02*
X0135780Y0142290D01*
X0136223Y0141292D02*
X0136602Y0141292D01*
X0140921Y0141292D02*
X0141921Y0141292D01*
X0141921Y0142290D02*
X0140921Y0142290D01*
X0140921Y0143289D02*
X0141921Y0143289D01*
X0144772Y0143289D02*
X0146980Y0143289D01*
X0146980Y0142290D02*
X0145673Y0142290D01*
X0146240Y0141292D02*
X0146980Y0141292D01*
X0146980Y0140293D02*
X0146528Y0140293D01*
X0146980Y0139295D02*
X0141921Y0139295D01*
X0141921Y0140293D02*
X0140921Y0140293D01*
X0140921Y0138296D02*
X0141921Y0138296D01*
X0141921Y0137298D02*
X0140921Y0137298D01*
X0140921Y0136299D02*
X0141921Y0136299D01*
X0141921Y0135301D02*
X0140921Y0135301D01*
X0140921Y0134302D02*
X0141921Y0134302D01*
X0142881Y0134302D02*
X0146980Y0134302D01*
X0146980Y0135301D02*
X0144770Y0135301D01*
X0145672Y0136299D02*
X0146980Y0136299D01*
X0146980Y0137298D02*
X0146239Y0137298D01*
X0146528Y0138296D02*
X0146980Y0138296D01*
X0132759Y0123318D02*
X0111217Y0123318D01*
X0111217Y0122320D02*
X0133757Y0122320D01*
X0134756Y0121321D02*
X0120347Y0121321D01*
X0111217Y0125315D02*
X0130762Y0125315D01*
X0131760Y0124317D02*
X0111217Y0124317D01*
X0111217Y0126314D02*
X0129763Y0126314D01*
X0128765Y0127312D02*
X0111217Y0127312D01*
X0111217Y0128311D02*
X0127766Y0128311D01*
X0126768Y0129309D02*
X0111217Y0129309D01*
X0128938Y0111336D02*
X0130298Y0111336D01*
X0132299Y0116329D02*
X0133299Y0116329D01*
X0133299Y0117327D02*
X0132299Y0117327D01*
X0132299Y0118326D02*
X0133299Y0118326D01*
X0133299Y0119324D02*
X0132299Y0119324D01*
X0136858Y0113333D02*
X0142744Y0113333D01*
X0143742Y0112335D02*
X0136535Y0112335D01*
X0161156Y0121321D02*
X0161902Y0121321D01*
X0170581Y0122320D02*
X0202508Y0122320D01*
X0202508Y0123318D02*
X0170980Y0123318D01*
X0170980Y0124317D02*
X0202508Y0124317D01*
X0202594Y0125315D02*
X0170980Y0125315D01*
X0171697Y0126314D02*
X0202861Y0126314D01*
X0203129Y0127312D02*
X0172257Y0127312D01*
X0172480Y0128311D02*
X0203556Y0128311D01*
X0204133Y0129309D02*
X0172453Y0129309D01*
X0172039Y0130308D02*
X0204712Y0130308D01*
X0205711Y0131306D02*
X0171171Y0131306D01*
X0170980Y0132305D02*
X0206709Y0132305D01*
X0208156Y0133303D02*
X0208406Y0133303D01*
X0208929Y0134302D02*
X0211144Y0134302D01*
X0208929Y0135301D02*
X0239074Y0135301D01*
X0238189Y0136299D02*
X0208929Y0136299D01*
X0208929Y0137298D02*
X0238189Y0137298D01*
X0238189Y0138296D02*
X0208021Y0138296D01*
X0200837Y0138296D02*
X0185983Y0138296D01*
X0186097Y0138220D02*
X0185721Y0138471D01*
X0185304Y0138644D01*
X0184860Y0138732D01*
X0182679Y0138732D01*
X0182679Y0135982D01*
X0186929Y0135982D01*
X0186929Y0136663D01*
X0186841Y0137107D01*
X0186668Y0137524D01*
X0186417Y0137900D01*
X0186097Y0138220D01*
X0186762Y0137298D02*
X0199929Y0137298D01*
X0199929Y0136299D02*
X0186929Y0136299D01*
X0186929Y0135482D02*
X0186929Y0134801D01*
X0186841Y0134358D01*
X0186668Y0133940D01*
X0186417Y0133564D01*
X0186097Y0133245D01*
X0185721Y0132993D01*
X0185304Y0132820D01*
X0184860Y0132732D01*
X0182679Y0132732D01*
X0182679Y0135482D01*
X0182179Y0135482D01*
X0182179Y0132732D01*
X0179998Y0132732D01*
X0179555Y0132820D01*
X0179137Y0132993D01*
X0178761Y0133245D01*
X0178441Y0133564D01*
X0178190Y0133940D01*
X0178017Y0134358D01*
X0177929Y0134801D01*
X0177929Y0135482D01*
X0182179Y0135482D01*
X0182179Y0135982D01*
X0177929Y0135982D01*
X0177929Y0136663D01*
X0178017Y0137107D01*
X0178190Y0137524D01*
X0178441Y0137900D01*
X0178761Y0138220D01*
X0179137Y0138471D01*
X0179555Y0138644D01*
X0179998Y0138732D01*
X0182179Y0138732D01*
X0182179Y0135982D01*
X0182679Y0135982D01*
X0182679Y0135482D01*
X0186929Y0135482D01*
X0186929Y0135301D02*
X0199929Y0135301D01*
X0199929Y0134302D02*
X0186818Y0134302D01*
X0186156Y0133303D02*
X0200702Y0133303D01*
X0202716Y0121321D02*
X0171128Y0121321D01*
X0172003Y0120323D02*
X0202984Y0120323D01*
X0203251Y0119324D02*
X0172394Y0119324D01*
X0172480Y0118326D02*
X0203821Y0118326D01*
X0204397Y0117327D02*
X0172263Y0117327D01*
X0171707Y0116329D02*
X0205170Y0116329D01*
X0206168Y0115330D02*
X0170360Y0115330D01*
X0170980Y0133303D02*
X0178702Y0133303D01*
X0178040Y0134302D02*
X0170980Y0134302D01*
X0170980Y0135301D02*
X0177929Y0135301D01*
X0177929Y0136299D02*
X0170980Y0136299D01*
X0170980Y0137298D02*
X0178096Y0137298D01*
X0178875Y0138296D02*
X0170980Y0138296D01*
X0182179Y0138296D02*
X0182679Y0138296D01*
X0182679Y0137298D02*
X0182179Y0137298D01*
X0182179Y0136299D02*
X0182679Y0136299D01*
X0182679Y0135301D02*
X0182179Y0135301D01*
X0182179Y0134302D02*
X0182679Y0134302D01*
X0182679Y0133303D02*
X0182179Y0133303D01*
X0208134Y0148281D02*
X0235827Y0148281D01*
X0235827Y0149280D02*
X0208929Y0149280D01*
X0208929Y0150278D02*
X0235827Y0150278D01*
X0235827Y0151277D02*
X0208929Y0151277D01*
X0208929Y0152275D02*
X0235827Y0152275D01*
X0235827Y0153274D02*
X0208043Y0153274D01*
X0215871Y0134302D02*
X0272591Y0134302D01*
X0272591Y0135301D02*
X0252088Y0135301D01*
X0252842Y0136299D02*
X0272591Y0136299D01*
X0272591Y0137298D02*
X0253000Y0137298D01*
X0253000Y0138296D02*
X0272591Y0138296D01*
X0272591Y0133303D02*
X0218610Y0133303D01*
X0220306Y0132305D02*
X0272591Y0132305D01*
X0272591Y0131306D02*
X0221305Y0131306D01*
X0222303Y0130308D02*
X0272591Y0130308D01*
X0272591Y0129309D02*
X0222883Y0129309D01*
X0223459Y0128311D02*
X0272591Y0128311D01*
X0272591Y0127312D02*
X0223887Y0127312D01*
X0224155Y0126314D02*
X0272591Y0126314D01*
X0272591Y0125315D02*
X0224422Y0125315D01*
X0224508Y0124317D02*
X0272591Y0124317D01*
X0272591Y0123318D02*
X0224508Y0123318D01*
X0224508Y0122320D02*
X0272591Y0122320D01*
X0272591Y0121321D02*
X0224299Y0121321D01*
X0224032Y0120323D02*
X0272591Y0120323D01*
X0272591Y0119324D02*
X0223764Y0119324D01*
X0223195Y0118326D02*
X0272591Y0118326D01*
X0272591Y0117327D02*
X0222618Y0117327D01*
X0221846Y0116329D02*
X0272591Y0116329D01*
X0272591Y0115330D02*
X0220847Y0115330D01*
X0219546Y0114332D02*
X0272591Y0114332D01*
X0272591Y0113333D02*
X0217817Y0113333D01*
X0234447Y0090368D02*
X0260230Y0090368D01*
X0258501Y0089369D02*
X0235023Y0089369D01*
X0235583Y0088370D02*
X0257263Y0088370D01*
X0256264Y0087372D02*
X0235851Y0087372D01*
X0236118Y0086373D02*
X0255528Y0086373D01*
X0254952Y0085375D02*
X0236319Y0085375D01*
X0236319Y0084376D02*
X0254409Y0084376D01*
X0254142Y0083378D02*
X0236319Y0083378D01*
X0236225Y0082379D02*
X0253874Y0082379D01*
X0253689Y0081381D02*
X0235958Y0081381D01*
X0235690Y0080382D02*
X0253689Y0080382D01*
X0253689Y0079384D02*
X0235253Y0079384D01*
X0234677Y0078385D02*
X0253798Y0078385D01*
X0254065Y0077387D02*
X0234085Y0077387D01*
X0233086Y0076388D02*
X0254333Y0076388D01*
X0254788Y0075390D02*
X0232088Y0075390D01*
X0230369Y0074391D02*
X0255364Y0074391D01*
X0255980Y0073393D02*
X0227572Y0073393D01*
X0266729Y0069399D02*
X0272591Y0069399D01*
X0272591Y0070397D02*
X0269641Y0070397D01*
X0271370Y0071396D02*
X0272591Y0071396D01*
X0272591Y0072394D02*
X0272399Y0072394D01*
X0249441Y0135301D02*
X0248441Y0135301D01*
X0248441Y0136299D02*
X0249441Y0136299D01*
X0249441Y0137298D02*
X0248441Y0137298D01*
X0248441Y0138296D02*
X0249441Y0138296D01*
X0245794Y0135301D02*
X0245422Y0135301D01*
X0182602Y0180949D02*
X0182602Y0182602D01*
X0158980Y0162051D02*
X0128902Y0162051D01*
X0124449Y0171247D02*
X0121610Y0171247D01*
X0121610Y0172245D02*
X0124449Y0172245D01*
X0124797Y0173244D02*
X0121610Y0173244D01*
X0121610Y0174242D02*
X0124449Y0174242D01*
X0124484Y0175241D02*
X0121610Y0175241D01*
X0121610Y0176239D02*
X0124870Y0176239D01*
X0124449Y0177238D02*
X0121610Y0177238D01*
X0121610Y0178237D02*
X0124449Y0178237D01*
X0124746Y0179235D02*
X0121610Y0179235D01*
X0121610Y0180234D02*
X0124449Y0180234D01*
X0124449Y0181232D02*
X0121610Y0181232D01*
X0117610Y0181232D02*
X0117516Y0181232D01*
X0117516Y0180234D02*
X0117610Y0180234D01*
X0117610Y0179235D02*
X0117516Y0179235D01*
X0117516Y0178237D02*
X0117610Y0178237D01*
X0117610Y0177238D02*
X0117516Y0177238D01*
X0117516Y0176239D02*
X0117610Y0176239D01*
X0117610Y0175241D02*
X0117516Y0175241D01*
X0117516Y0174242D02*
X0117610Y0174242D01*
X0117610Y0173244D02*
X0117516Y0173244D01*
X0117516Y0172245D02*
X0117610Y0172245D01*
X0117610Y0171247D02*
X0117516Y0171247D01*
X0117516Y0170248D02*
X0117610Y0170248D01*
X0117610Y0169250D02*
X0117516Y0169250D01*
X0117516Y0168251D02*
X0117610Y0168251D01*
X0117516Y0167253D02*
X0117879Y0167253D01*
X0117610Y0182231D02*
X0117516Y0182231D01*
X0117516Y0183229D02*
X0117610Y0183229D01*
X0117610Y0184228D02*
X0117516Y0184228D01*
X0128902Y0187248D02*
X0143232Y0187248D01*
X0120240Y0210791D02*
X0120240Y0220004D01*
X0110240Y0220004D02*
X0110240Y0204728D01*
X0106067Y0200555D01*
X0106067Y0194335D01*
X0102917Y0194335D02*
X0102917Y0200280D01*
X0100240Y0202957D01*
X0100240Y0220004D01*
X0090240Y0220004D02*
X0090240Y0208035D01*
X0099768Y0198508D01*
X0099768Y0194335D01*
X0083232Y0171500D02*
X0056618Y0171500D01*
X0060555Y0168350D02*
X0083232Y0168350D01*
X0083232Y0165201D02*
X0064492Y0165201D01*
X0068429Y0162051D02*
X0083232Y0162051D01*
X0070366Y0192216D02*
X0027122Y0192216D01*
X0019185Y0192216D02*
X0006000Y0192216D01*
X0006000Y0193214D02*
X0019185Y0193214D01*
X0019185Y0194213D02*
X0006000Y0194213D01*
X0006000Y0195211D02*
X0019185Y0195211D01*
X0019185Y0196210D02*
X0006000Y0196210D01*
X0006000Y0197208D02*
X0019185Y0197208D01*
X0019185Y0198207D02*
X0006000Y0198207D01*
X0006000Y0199205D02*
X0019211Y0199205D01*
X0020210Y0200204D02*
X0006000Y0200204D01*
X0006000Y0191217D02*
X0019185Y0191217D01*
X0019185Y0190219D02*
X0006000Y0190219D01*
X0006000Y0189220D02*
X0019185Y0189220D01*
X0019185Y0188222D02*
X0006000Y0188222D01*
X0006000Y0187223D02*
X0019185Y0187223D01*
X0019185Y0186225D02*
X0006000Y0186225D01*
X0006000Y0185226D02*
X0019185Y0185226D01*
X0019185Y0184228D02*
X0006000Y0184228D01*
X0006000Y0183229D02*
X0019185Y0183229D01*
X0019185Y0182231D02*
X0006000Y0182231D01*
X0006000Y0181232D02*
X0019185Y0181232D01*
X0019185Y0180234D02*
X0006000Y0180234D01*
X0006000Y0179235D02*
X0019185Y0179235D01*
X0019185Y0178237D02*
X0006000Y0178237D01*
X0006000Y0177238D02*
X0019185Y0177238D01*
X0019185Y0176239D02*
X0006000Y0176239D01*
X0006000Y0175241D02*
X0019185Y0175241D01*
X0019185Y0174242D02*
X0006000Y0174242D01*
X0006000Y0173244D02*
X0019185Y0173244D01*
X0019185Y0172245D02*
X0006000Y0172245D01*
X0006000Y0171247D02*
X0019185Y0171247D01*
X0022491Y0219175D02*
X0075040Y0219175D01*
X0075040Y0220174D02*
X0021914Y0220174D01*
X0021203Y0221172D02*
X0075096Y0221172D01*
X0075509Y0222171D02*
X0020204Y0222171D01*
X0019009Y0223170D02*
X0076052Y0223170D01*
X0200896Y0216180D02*
X0210039Y0216180D01*
X0210039Y0217178D02*
X0201824Y0217178D01*
X0202238Y0218177D02*
X0210039Y0218177D01*
X0210039Y0220174D02*
X0202566Y0220174D01*
X0202566Y0219175D02*
X0214583Y0219175D01*
X0214583Y0218177D02*
X0215583Y0218177D01*
X0215583Y0218520D02*
X0215583Y0213780D01*
X0218039Y0213780D01*
X0218486Y0213868D01*
X0218908Y0214043D01*
X0219287Y0214296D01*
X0219609Y0214619D01*
X0219862Y0214998D01*
X0220037Y0215419D01*
X0220126Y0215866D01*
X0220126Y0218520D01*
X0215583Y0218520D01*
X0215583Y0219175D02*
X0220591Y0219175D01*
X0220591Y0218177D02*
X0220126Y0218177D01*
X0220126Y0217178D02*
X0220591Y0217178D01*
X0220591Y0216180D02*
X0220126Y0216180D01*
X0219938Y0215181D02*
X0220591Y0215181D01*
X0221526Y0214183D02*
X0219117Y0214183D01*
X0215583Y0214183D02*
X0214583Y0214183D01*
X0214583Y0215181D02*
X0215583Y0215181D01*
X0215583Y0216180D02*
X0214583Y0216180D01*
X0214583Y0217178D02*
X0215583Y0217178D01*
X0220126Y0220174D02*
X0220591Y0220174D01*
X0220591Y0221172D02*
X0220126Y0221172D01*
X0220126Y0222171D02*
X0220591Y0222171D01*
X0220839Y0223170D02*
X0219777Y0223170D01*
X0210388Y0223170D02*
X0201554Y0223170D01*
X0202097Y0222171D02*
X0210039Y0222171D01*
X0210039Y0221172D02*
X0202511Y0221172D01*
X0230135Y0214183D02*
X0231526Y0214183D01*
X0235949Y0212186D02*
X0235949Y0212186D01*
X0235949Y0211187D02*
X0235949Y0211187D01*
X0235949Y0210189D02*
X0235949Y0210189D01*
X0235949Y0209190D02*
X0235949Y0209190D01*
X0235949Y0208586D02*
X0235949Y0204331D01*
X0235949Y0208586D01*
X0235949Y0208586D01*
X0235949Y0208192D02*
X0235949Y0208192D01*
X0235949Y0207193D02*
X0235949Y0207193D01*
X0235949Y0206195D02*
X0235949Y0206195D01*
X0235949Y0205196D02*
X0235949Y0205196D01*
X0239555Y0197208D02*
X0272591Y0197208D01*
X0272591Y0196210D02*
X0240531Y0196210D01*
X0240945Y0195211D02*
X0272591Y0195211D01*
X0272591Y0194213D02*
X0241005Y0194213D01*
X0240779Y0193214D02*
X0272591Y0193214D01*
X0272591Y0192216D02*
X0240167Y0192216D01*
X0238586Y0191217D02*
X0272591Y0191217D01*
X0272591Y0204198D02*
X0269541Y0204198D01*
X0271270Y0205196D02*
X0272591Y0205196D01*
X0272591Y0206195D02*
X0272342Y0206195D01*
X0006632Y0047432D02*
X0006000Y0047432D01*
D23*
X0203272Y0187524D03*
X0248941Y0187524D03*
D24*
X0237720Y0194413D03*
X0174728Y0086146D03*
X0127484Y0082209D03*
X0072366Y0123547D03*
X0068429Y0131421D03*
X0064492Y0135358D03*
X0068429Y0155043D03*
X0064492Y0158980D03*
X0060555Y0162917D03*
X0056618Y0166854D03*
X0032996Y0099925D03*
M02*
