G75*
%MOIN*%
%OFA0B0*%
%FSLAX25Y25*%
%IPPOS*%
%LPD*%
%AMOC8*
5,1,8,0,0,1.08239X$1,22.5*
%
%ADD10C,0.00000*%
%ADD11C,0.01602*%
%ADD12C,0.04000*%
%ADD13C,0.01575*%
%ADD14C,0.01587*%
%ADD15C,0.01598*%
%ADD16C,0.01378*%
%ADD17C,0.01630*%
%ADD18C,0.01571*%
%ADD19C,0.01594*%
%ADD20C,0.01590*%
%ADD21C,0.07400*%
%ADD22C,0.01000*%
%ADD23C,0.03962*%
%ADD24C,0.03569*%
D10*
X0006937Y0042870D02*
X0069929Y0042870D01*
X0069929Y0007437D01*
X0069931Y0007313D01*
X0069937Y0007190D01*
X0069946Y0007066D01*
X0069960Y0006944D01*
X0069977Y0006821D01*
X0069999Y0006699D01*
X0070024Y0006578D01*
X0070053Y0006458D01*
X0070085Y0006339D01*
X0070122Y0006220D01*
X0070162Y0006103D01*
X0070205Y0005988D01*
X0070253Y0005873D01*
X0070304Y0005761D01*
X0070358Y0005650D01*
X0070416Y0005540D01*
X0070477Y0005433D01*
X0070542Y0005327D01*
X0070610Y0005224D01*
X0070681Y0005123D01*
X0070755Y0005024D01*
X0070832Y0004927D01*
X0070913Y0004833D01*
X0070996Y0004742D01*
X0071082Y0004653D01*
X0071171Y0004567D01*
X0071262Y0004484D01*
X0071356Y0004403D01*
X0071453Y0004326D01*
X0071552Y0004252D01*
X0071653Y0004181D01*
X0071756Y0004113D01*
X0071862Y0004048D01*
X0071969Y0003987D01*
X0072079Y0003929D01*
X0072190Y0003875D01*
X0072302Y0003824D01*
X0072417Y0003776D01*
X0072532Y0003733D01*
X0072649Y0003693D01*
X0072768Y0003656D01*
X0072887Y0003624D01*
X0073007Y0003595D01*
X0073128Y0003570D01*
X0073250Y0003548D01*
X0073373Y0003531D01*
X0073495Y0003517D01*
X0073619Y0003508D01*
X0073742Y0003502D01*
X0073866Y0003500D01*
X0195913Y0003500D01*
X0196037Y0003502D01*
X0196160Y0003508D01*
X0196284Y0003517D01*
X0196406Y0003531D01*
X0196529Y0003548D01*
X0196651Y0003570D01*
X0196772Y0003595D01*
X0196892Y0003624D01*
X0197011Y0003656D01*
X0197130Y0003693D01*
X0197247Y0003733D01*
X0197362Y0003776D01*
X0197477Y0003824D01*
X0197589Y0003875D01*
X0197700Y0003929D01*
X0197810Y0003987D01*
X0197917Y0004048D01*
X0198023Y0004113D01*
X0198126Y0004181D01*
X0198227Y0004252D01*
X0198326Y0004326D01*
X0198423Y0004403D01*
X0198517Y0004484D01*
X0198608Y0004567D01*
X0198697Y0004653D01*
X0198783Y0004742D01*
X0198866Y0004833D01*
X0198947Y0004927D01*
X0199024Y0005024D01*
X0199098Y0005123D01*
X0199169Y0005224D01*
X0199237Y0005327D01*
X0199302Y0005433D01*
X0199363Y0005540D01*
X0199421Y0005650D01*
X0199475Y0005761D01*
X0199526Y0005873D01*
X0199574Y0005988D01*
X0199617Y0006103D01*
X0199657Y0006220D01*
X0199694Y0006339D01*
X0199726Y0006458D01*
X0199755Y0006578D01*
X0199780Y0006699D01*
X0199802Y0006821D01*
X0199819Y0006944D01*
X0199833Y0007066D01*
X0199842Y0007190D01*
X0199848Y0007313D01*
X0199850Y0007437D01*
X0199850Y0042870D01*
X0274654Y0042870D01*
X0274778Y0042872D01*
X0274901Y0042878D01*
X0275025Y0042887D01*
X0275147Y0042901D01*
X0275270Y0042918D01*
X0275392Y0042940D01*
X0275513Y0042965D01*
X0275633Y0042994D01*
X0275752Y0043026D01*
X0275871Y0043063D01*
X0275988Y0043103D01*
X0276103Y0043146D01*
X0276218Y0043194D01*
X0276330Y0043245D01*
X0276441Y0043299D01*
X0276551Y0043357D01*
X0276658Y0043418D01*
X0276764Y0043483D01*
X0276867Y0043551D01*
X0276968Y0043622D01*
X0277067Y0043696D01*
X0277164Y0043773D01*
X0277258Y0043854D01*
X0277349Y0043937D01*
X0277438Y0044023D01*
X0277524Y0044112D01*
X0277607Y0044203D01*
X0277688Y0044297D01*
X0277765Y0044394D01*
X0277839Y0044493D01*
X0277910Y0044594D01*
X0277978Y0044697D01*
X0278043Y0044803D01*
X0278104Y0044910D01*
X0278162Y0045020D01*
X0278216Y0045131D01*
X0278267Y0045243D01*
X0278315Y0045358D01*
X0278358Y0045473D01*
X0278398Y0045590D01*
X0278435Y0045709D01*
X0278467Y0045828D01*
X0278496Y0045948D01*
X0278521Y0046069D01*
X0278543Y0046191D01*
X0278560Y0046314D01*
X0278574Y0046436D01*
X0278583Y0046560D01*
X0278589Y0046683D01*
X0278591Y0046807D01*
X0278591Y0225941D01*
X0278589Y0226065D01*
X0278583Y0226188D01*
X0278574Y0226312D01*
X0278560Y0226434D01*
X0278543Y0226557D01*
X0278521Y0226679D01*
X0278496Y0226800D01*
X0278467Y0226920D01*
X0278435Y0227039D01*
X0278398Y0227158D01*
X0278358Y0227275D01*
X0278315Y0227390D01*
X0278267Y0227505D01*
X0278216Y0227617D01*
X0278162Y0227728D01*
X0278104Y0227838D01*
X0278043Y0227945D01*
X0277978Y0228051D01*
X0277910Y0228154D01*
X0277839Y0228255D01*
X0277765Y0228354D01*
X0277688Y0228451D01*
X0277607Y0228545D01*
X0277524Y0228636D01*
X0277438Y0228725D01*
X0277349Y0228811D01*
X0277258Y0228894D01*
X0277164Y0228975D01*
X0277067Y0229052D01*
X0276968Y0229126D01*
X0276867Y0229197D01*
X0276764Y0229265D01*
X0276658Y0229330D01*
X0276551Y0229391D01*
X0276441Y0229449D01*
X0276330Y0229503D01*
X0276218Y0229554D01*
X0276103Y0229602D01*
X0275988Y0229645D01*
X0275871Y0229685D01*
X0275752Y0229722D01*
X0275633Y0229754D01*
X0275513Y0229783D01*
X0275392Y0229808D01*
X0275270Y0229830D01*
X0275147Y0229847D01*
X0275025Y0229861D01*
X0274901Y0229870D01*
X0274778Y0229876D01*
X0274654Y0229878D01*
X0006937Y0229878D01*
X0006813Y0229876D01*
X0006690Y0229870D01*
X0006566Y0229861D01*
X0006444Y0229847D01*
X0006321Y0229830D01*
X0006199Y0229808D01*
X0006078Y0229783D01*
X0005958Y0229754D01*
X0005839Y0229722D01*
X0005720Y0229685D01*
X0005603Y0229645D01*
X0005488Y0229602D01*
X0005373Y0229554D01*
X0005261Y0229503D01*
X0005150Y0229449D01*
X0005040Y0229391D01*
X0004933Y0229330D01*
X0004827Y0229265D01*
X0004724Y0229197D01*
X0004623Y0229126D01*
X0004524Y0229052D01*
X0004427Y0228975D01*
X0004333Y0228894D01*
X0004242Y0228811D01*
X0004153Y0228725D01*
X0004067Y0228636D01*
X0003984Y0228545D01*
X0003903Y0228451D01*
X0003826Y0228354D01*
X0003752Y0228255D01*
X0003681Y0228154D01*
X0003613Y0228051D01*
X0003548Y0227945D01*
X0003487Y0227838D01*
X0003429Y0227728D01*
X0003375Y0227617D01*
X0003324Y0227505D01*
X0003276Y0227390D01*
X0003233Y0227275D01*
X0003193Y0227158D01*
X0003156Y0227039D01*
X0003124Y0226920D01*
X0003095Y0226800D01*
X0003070Y0226679D01*
X0003048Y0226557D01*
X0003031Y0226434D01*
X0003017Y0226312D01*
X0003008Y0226188D01*
X0003002Y0226065D01*
X0003000Y0225941D01*
X0003000Y0046807D01*
X0003002Y0046683D01*
X0003008Y0046560D01*
X0003017Y0046436D01*
X0003031Y0046314D01*
X0003048Y0046191D01*
X0003070Y0046069D01*
X0003095Y0045948D01*
X0003124Y0045828D01*
X0003156Y0045709D01*
X0003193Y0045590D01*
X0003233Y0045473D01*
X0003276Y0045358D01*
X0003324Y0045243D01*
X0003375Y0045131D01*
X0003429Y0045020D01*
X0003487Y0044910D01*
X0003548Y0044803D01*
X0003613Y0044697D01*
X0003681Y0044594D01*
X0003752Y0044493D01*
X0003826Y0044394D01*
X0003903Y0044297D01*
X0003984Y0044203D01*
X0004067Y0044112D01*
X0004153Y0044023D01*
X0004242Y0043937D01*
X0004333Y0043854D01*
X0004427Y0043773D01*
X0004524Y0043696D01*
X0004623Y0043622D01*
X0004724Y0043551D01*
X0004827Y0043483D01*
X0004933Y0043418D01*
X0005040Y0043357D01*
X0005150Y0043299D01*
X0005261Y0043245D01*
X0005373Y0043194D01*
X0005488Y0043146D01*
X0005603Y0043103D01*
X0005720Y0043063D01*
X0005839Y0043026D01*
X0005958Y0042994D01*
X0006078Y0042965D01*
X0006199Y0042940D01*
X0006321Y0042918D01*
X0006444Y0042901D01*
X0006566Y0042887D01*
X0006690Y0042878D01*
X0006813Y0042872D01*
X0006937Y0042870D01*
X0007720Y0058618D02*
X0007722Y0058779D01*
X0007728Y0058939D01*
X0007738Y0059100D01*
X0007752Y0059260D01*
X0007770Y0059420D01*
X0007791Y0059579D01*
X0007817Y0059738D01*
X0007847Y0059896D01*
X0007880Y0060053D01*
X0007918Y0060210D01*
X0007959Y0060365D01*
X0008004Y0060519D01*
X0008053Y0060672D01*
X0008106Y0060824D01*
X0008162Y0060975D01*
X0008223Y0061124D01*
X0008286Y0061272D01*
X0008354Y0061418D01*
X0008425Y0061562D01*
X0008499Y0061704D01*
X0008577Y0061845D01*
X0008659Y0061983D01*
X0008744Y0062120D01*
X0008832Y0062254D01*
X0008924Y0062386D01*
X0009019Y0062516D01*
X0009117Y0062644D01*
X0009218Y0062769D01*
X0009322Y0062891D01*
X0009429Y0063011D01*
X0009539Y0063128D01*
X0009652Y0063243D01*
X0009768Y0063354D01*
X0009887Y0063463D01*
X0010008Y0063568D01*
X0010132Y0063671D01*
X0010258Y0063771D01*
X0010386Y0063867D01*
X0010517Y0063960D01*
X0010651Y0064050D01*
X0010786Y0064137D01*
X0010924Y0064220D01*
X0011063Y0064300D01*
X0011205Y0064376D01*
X0011348Y0064449D01*
X0011493Y0064518D01*
X0011640Y0064584D01*
X0011788Y0064646D01*
X0011938Y0064704D01*
X0012089Y0064759D01*
X0012242Y0064810D01*
X0012396Y0064857D01*
X0012551Y0064900D01*
X0012707Y0064939D01*
X0012863Y0064975D01*
X0013021Y0065006D01*
X0013179Y0065034D01*
X0013338Y0065058D01*
X0013498Y0065078D01*
X0013658Y0065094D01*
X0013818Y0065106D01*
X0013979Y0065114D01*
X0014140Y0065118D01*
X0014300Y0065118D01*
X0014461Y0065114D01*
X0014622Y0065106D01*
X0014782Y0065094D01*
X0014942Y0065078D01*
X0015102Y0065058D01*
X0015261Y0065034D01*
X0015419Y0065006D01*
X0015577Y0064975D01*
X0015733Y0064939D01*
X0015889Y0064900D01*
X0016044Y0064857D01*
X0016198Y0064810D01*
X0016351Y0064759D01*
X0016502Y0064704D01*
X0016652Y0064646D01*
X0016800Y0064584D01*
X0016947Y0064518D01*
X0017092Y0064449D01*
X0017235Y0064376D01*
X0017377Y0064300D01*
X0017516Y0064220D01*
X0017654Y0064137D01*
X0017789Y0064050D01*
X0017923Y0063960D01*
X0018054Y0063867D01*
X0018182Y0063771D01*
X0018308Y0063671D01*
X0018432Y0063568D01*
X0018553Y0063463D01*
X0018672Y0063354D01*
X0018788Y0063243D01*
X0018901Y0063128D01*
X0019011Y0063011D01*
X0019118Y0062891D01*
X0019222Y0062769D01*
X0019323Y0062644D01*
X0019421Y0062516D01*
X0019516Y0062386D01*
X0019608Y0062254D01*
X0019696Y0062120D01*
X0019781Y0061983D01*
X0019863Y0061845D01*
X0019941Y0061704D01*
X0020015Y0061562D01*
X0020086Y0061418D01*
X0020154Y0061272D01*
X0020217Y0061124D01*
X0020278Y0060975D01*
X0020334Y0060824D01*
X0020387Y0060672D01*
X0020436Y0060519D01*
X0020481Y0060365D01*
X0020522Y0060210D01*
X0020560Y0060053D01*
X0020593Y0059896D01*
X0020623Y0059738D01*
X0020649Y0059579D01*
X0020670Y0059420D01*
X0020688Y0059260D01*
X0020702Y0059100D01*
X0020712Y0058939D01*
X0020718Y0058779D01*
X0020720Y0058618D01*
X0020718Y0058457D01*
X0020712Y0058297D01*
X0020702Y0058136D01*
X0020688Y0057976D01*
X0020670Y0057816D01*
X0020649Y0057657D01*
X0020623Y0057498D01*
X0020593Y0057340D01*
X0020560Y0057183D01*
X0020522Y0057026D01*
X0020481Y0056871D01*
X0020436Y0056717D01*
X0020387Y0056564D01*
X0020334Y0056412D01*
X0020278Y0056261D01*
X0020217Y0056112D01*
X0020154Y0055964D01*
X0020086Y0055818D01*
X0020015Y0055674D01*
X0019941Y0055532D01*
X0019863Y0055391D01*
X0019781Y0055253D01*
X0019696Y0055116D01*
X0019608Y0054982D01*
X0019516Y0054850D01*
X0019421Y0054720D01*
X0019323Y0054592D01*
X0019222Y0054467D01*
X0019118Y0054345D01*
X0019011Y0054225D01*
X0018901Y0054108D01*
X0018788Y0053993D01*
X0018672Y0053882D01*
X0018553Y0053773D01*
X0018432Y0053668D01*
X0018308Y0053565D01*
X0018182Y0053465D01*
X0018054Y0053369D01*
X0017923Y0053276D01*
X0017789Y0053186D01*
X0017654Y0053099D01*
X0017516Y0053016D01*
X0017377Y0052936D01*
X0017235Y0052860D01*
X0017092Y0052787D01*
X0016947Y0052718D01*
X0016800Y0052652D01*
X0016652Y0052590D01*
X0016502Y0052532D01*
X0016351Y0052477D01*
X0016198Y0052426D01*
X0016044Y0052379D01*
X0015889Y0052336D01*
X0015733Y0052297D01*
X0015577Y0052261D01*
X0015419Y0052230D01*
X0015261Y0052202D01*
X0015102Y0052178D01*
X0014942Y0052158D01*
X0014782Y0052142D01*
X0014622Y0052130D01*
X0014461Y0052122D01*
X0014300Y0052118D01*
X0014140Y0052118D01*
X0013979Y0052122D01*
X0013818Y0052130D01*
X0013658Y0052142D01*
X0013498Y0052158D01*
X0013338Y0052178D01*
X0013179Y0052202D01*
X0013021Y0052230D01*
X0012863Y0052261D01*
X0012707Y0052297D01*
X0012551Y0052336D01*
X0012396Y0052379D01*
X0012242Y0052426D01*
X0012089Y0052477D01*
X0011938Y0052532D01*
X0011788Y0052590D01*
X0011640Y0052652D01*
X0011493Y0052718D01*
X0011348Y0052787D01*
X0011205Y0052860D01*
X0011063Y0052936D01*
X0010924Y0053016D01*
X0010786Y0053099D01*
X0010651Y0053186D01*
X0010517Y0053276D01*
X0010386Y0053369D01*
X0010258Y0053465D01*
X0010132Y0053565D01*
X0010008Y0053668D01*
X0009887Y0053773D01*
X0009768Y0053882D01*
X0009652Y0053993D01*
X0009539Y0054108D01*
X0009429Y0054225D01*
X0009322Y0054345D01*
X0009218Y0054467D01*
X0009117Y0054592D01*
X0009019Y0054720D01*
X0008924Y0054850D01*
X0008832Y0054982D01*
X0008744Y0055116D01*
X0008659Y0055253D01*
X0008577Y0055391D01*
X0008499Y0055532D01*
X0008425Y0055674D01*
X0008354Y0055818D01*
X0008286Y0055964D01*
X0008223Y0056112D01*
X0008162Y0056261D01*
X0008106Y0056412D01*
X0008053Y0056564D01*
X0008004Y0056717D01*
X0007959Y0056871D01*
X0007918Y0057026D01*
X0007880Y0057183D01*
X0007847Y0057340D01*
X0007817Y0057498D01*
X0007791Y0057657D01*
X0007770Y0057816D01*
X0007752Y0057976D01*
X0007738Y0058136D01*
X0007728Y0058297D01*
X0007722Y0058457D01*
X0007720Y0058618D01*
X0082524Y0050744D02*
X0082526Y0050905D01*
X0082532Y0051065D01*
X0082542Y0051226D01*
X0082556Y0051386D01*
X0082574Y0051546D01*
X0082595Y0051705D01*
X0082621Y0051864D01*
X0082651Y0052022D01*
X0082684Y0052179D01*
X0082722Y0052336D01*
X0082763Y0052491D01*
X0082808Y0052645D01*
X0082857Y0052798D01*
X0082910Y0052950D01*
X0082966Y0053101D01*
X0083027Y0053250D01*
X0083090Y0053398D01*
X0083158Y0053544D01*
X0083229Y0053688D01*
X0083303Y0053830D01*
X0083381Y0053971D01*
X0083463Y0054109D01*
X0083548Y0054246D01*
X0083636Y0054380D01*
X0083728Y0054512D01*
X0083823Y0054642D01*
X0083921Y0054770D01*
X0084022Y0054895D01*
X0084126Y0055017D01*
X0084233Y0055137D01*
X0084343Y0055254D01*
X0084456Y0055369D01*
X0084572Y0055480D01*
X0084691Y0055589D01*
X0084812Y0055694D01*
X0084936Y0055797D01*
X0085062Y0055897D01*
X0085190Y0055993D01*
X0085321Y0056086D01*
X0085455Y0056176D01*
X0085590Y0056263D01*
X0085728Y0056346D01*
X0085867Y0056426D01*
X0086009Y0056502D01*
X0086152Y0056575D01*
X0086297Y0056644D01*
X0086444Y0056710D01*
X0086592Y0056772D01*
X0086742Y0056830D01*
X0086893Y0056885D01*
X0087046Y0056936D01*
X0087200Y0056983D01*
X0087355Y0057026D01*
X0087511Y0057065D01*
X0087667Y0057101D01*
X0087825Y0057132D01*
X0087983Y0057160D01*
X0088142Y0057184D01*
X0088302Y0057204D01*
X0088462Y0057220D01*
X0088622Y0057232D01*
X0088783Y0057240D01*
X0088944Y0057244D01*
X0089104Y0057244D01*
X0089265Y0057240D01*
X0089426Y0057232D01*
X0089586Y0057220D01*
X0089746Y0057204D01*
X0089906Y0057184D01*
X0090065Y0057160D01*
X0090223Y0057132D01*
X0090381Y0057101D01*
X0090537Y0057065D01*
X0090693Y0057026D01*
X0090848Y0056983D01*
X0091002Y0056936D01*
X0091155Y0056885D01*
X0091306Y0056830D01*
X0091456Y0056772D01*
X0091604Y0056710D01*
X0091751Y0056644D01*
X0091896Y0056575D01*
X0092039Y0056502D01*
X0092181Y0056426D01*
X0092320Y0056346D01*
X0092458Y0056263D01*
X0092593Y0056176D01*
X0092727Y0056086D01*
X0092858Y0055993D01*
X0092986Y0055897D01*
X0093112Y0055797D01*
X0093236Y0055694D01*
X0093357Y0055589D01*
X0093476Y0055480D01*
X0093592Y0055369D01*
X0093705Y0055254D01*
X0093815Y0055137D01*
X0093922Y0055017D01*
X0094026Y0054895D01*
X0094127Y0054770D01*
X0094225Y0054642D01*
X0094320Y0054512D01*
X0094412Y0054380D01*
X0094500Y0054246D01*
X0094585Y0054109D01*
X0094667Y0053971D01*
X0094745Y0053830D01*
X0094819Y0053688D01*
X0094890Y0053544D01*
X0094958Y0053398D01*
X0095021Y0053250D01*
X0095082Y0053101D01*
X0095138Y0052950D01*
X0095191Y0052798D01*
X0095240Y0052645D01*
X0095285Y0052491D01*
X0095326Y0052336D01*
X0095364Y0052179D01*
X0095397Y0052022D01*
X0095427Y0051864D01*
X0095453Y0051705D01*
X0095474Y0051546D01*
X0095492Y0051386D01*
X0095506Y0051226D01*
X0095516Y0051065D01*
X0095522Y0050905D01*
X0095524Y0050744D01*
X0095522Y0050583D01*
X0095516Y0050423D01*
X0095506Y0050262D01*
X0095492Y0050102D01*
X0095474Y0049942D01*
X0095453Y0049783D01*
X0095427Y0049624D01*
X0095397Y0049466D01*
X0095364Y0049309D01*
X0095326Y0049152D01*
X0095285Y0048997D01*
X0095240Y0048843D01*
X0095191Y0048690D01*
X0095138Y0048538D01*
X0095082Y0048387D01*
X0095021Y0048238D01*
X0094958Y0048090D01*
X0094890Y0047944D01*
X0094819Y0047800D01*
X0094745Y0047658D01*
X0094667Y0047517D01*
X0094585Y0047379D01*
X0094500Y0047242D01*
X0094412Y0047108D01*
X0094320Y0046976D01*
X0094225Y0046846D01*
X0094127Y0046718D01*
X0094026Y0046593D01*
X0093922Y0046471D01*
X0093815Y0046351D01*
X0093705Y0046234D01*
X0093592Y0046119D01*
X0093476Y0046008D01*
X0093357Y0045899D01*
X0093236Y0045794D01*
X0093112Y0045691D01*
X0092986Y0045591D01*
X0092858Y0045495D01*
X0092727Y0045402D01*
X0092593Y0045312D01*
X0092458Y0045225D01*
X0092320Y0045142D01*
X0092181Y0045062D01*
X0092039Y0044986D01*
X0091896Y0044913D01*
X0091751Y0044844D01*
X0091604Y0044778D01*
X0091456Y0044716D01*
X0091306Y0044658D01*
X0091155Y0044603D01*
X0091002Y0044552D01*
X0090848Y0044505D01*
X0090693Y0044462D01*
X0090537Y0044423D01*
X0090381Y0044387D01*
X0090223Y0044356D01*
X0090065Y0044328D01*
X0089906Y0044304D01*
X0089746Y0044284D01*
X0089586Y0044268D01*
X0089426Y0044256D01*
X0089265Y0044248D01*
X0089104Y0044244D01*
X0088944Y0044244D01*
X0088783Y0044248D01*
X0088622Y0044256D01*
X0088462Y0044268D01*
X0088302Y0044284D01*
X0088142Y0044304D01*
X0087983Y0044328D01*
X0087825Y0044356D01*
X0087667Y0044387D01*
X0087511Y0044423D01*
X0087355Y0044462D01*
X0087200Y0044505D01*
X0087046Y0044552D01*
X0086893Y0044603D01*
X0086742Y0044658D01*
X0086592Y0044716D01*
X0086444Y0044778D01*
X0086297Y0044844D01*
X0086152Y0044913D01*
X0086009Y0044986D01*
X0085867Y0045062D01*
X0085728Y0045142D01*
X0085590Y0045225D01*
X0085455Y0045312D01*
X0085321Y0045402D01*
X0085190Y0045495D01*
X0085062Y0045591D01*
X0084936Y0045691D01*
X0084812Y0045794D01*
X0084691Y0045899D01*
X0084572Y0046008D01*
X0084456Y0046119D01*
X0084343Y0046234D01*
X0084233Y0046351D01*
X0084126Y0046471D01*
X0084022Y0046593D01*
X0083921Y0046718D01*
X0083823Y0046846D01*
X0083728Y0046976D01*
X0083636Y0047108D01*
X0083548Y0047242D01*
X0083463Y0047379D01*
X0083381Y0047517D01*
X0083303Y0047658D01*
X0083229Y0047800D01*
X0083158Y0047944D01*
X0083090Y0048090D01*
X0083027Y0048238D01*
X0082966Y0048387D01*
X0082910Y0048538D01*
X0082857Y0048690D01*
X0082808Y0048843D01*
X0082763Y0048997D01*
X0082722Y0049152D01*
X0082684Y0049309D01*
X0082651Y0049466D01*
X0082621Y0049624D01*
X0082595Y0049783D01*
X0082574Y0049942D01*
X0082556Y0050102D01*
X0082542Y0050262D01*
X0082532Y0050423D01*
X0082526Y0050583D01*
X0082524Y0050744D01*
X0090398Y0070429D02*
X0090400Y0070590D01*
X0090406Y0070750D01*
X0090416Y0070911D01*
X0090430Y0071071D01*
X0090448Y0071231D01*
X0090469Y0071390D01*
X0090495Y0071549D01*
X0090525Y0071707D01*
X0090558Y0071864D01*
X0090596Y0072021D01*
X0090637Y0072176D01*
X0090682Y0072330D01*
X0090731Y0072483D01*
X0090784Y0072635D01*
X0090840Y0072786D01*
X0090901Y0072935D01*
X0090964Y0073083D01*
X0091032Y0073229D01*
X0091103Y0073373D01*
X0091177Y0073515D01*
X0091255Y0073656D01*
X0091337Y0073794D01*
X0091422Y0073931D01*
X0091510Y0074065D01*
X0091602Y0074197D01*
X0091697Y0074327D01*
X0091795Y0074455D01*
X0091896Y0074580D01*
X0092000Y0074702D01*
X0092107Y0074822D01*
X0092217Y0074939D01*
X0092330Y0075054D01*
X0092446Y0075165D01*
X0092565Y0075274D01*
X0092686Y0075379D01*
X0092810Y0075482D01*
X0092936Y0075582D01*
X0093064Y0075678D01*
X0093195Y0075771D01*
X0093329Y0075861D01*
X0093464Y0075948D01*
X0093602Y0076031D01*
X0093741Y0076111D01*
X0093883Y0076187D01*
X0094026Y0076260D01*
X0094171Y0076329D01*
X0094318Y0076395D01*
X0094466Y0076457D01*
X0094616Y0076515D01*
X0094767Y0076570D01*
X0094920Y0076621D01*
X0095074Y0076668D01*
X0095229Y0076711D01*
X0095385Y0076750D01*
X0095541Y0076786D01*
X0095699Y0076817D01*
X0095857Y0076845D01*
X0096016Y0076869D01*
X0096176Y0076889D01*
X0096336Y0076905D01*
X0096496Y0076917D01*
X0096657Y0076925D01*
X0096818Y0076929D01*
X0096978Y0076929D01*
X0097139Y0076925D01*
X0097300Y0076917D01*
X0097460Y0076905D01*
X0097620Y0076889D01*
X0097780Y0076869D01*
X0097939Y0076845D01*
X0098097Y0076817D01*
X0098255Y0076786D01*
X0098411Y0076750D01*
X0098567Y0076711D01*
X0098722Y0076668D01*
X0098876Y0076621D01*
X0099029Y0076570D01*
X0099180Y0076515D01*
X0099330Y0076457D01*
X0099478Y0076395D01*
X0099625Y0076329D01*
X0099770Y0076260D01*
X0099913Y0076187D01*
X0100055Y0076111D01*
X0100194Y0076031D01*
X0100332Y0075948D01*
X0100467Y0075861D01*
X0100601Y0075771D01*
X0100732Y0075678D01*
X0100860Y0075582D01*
X0100986Y0075482D01*
X0101110Y0075379D01*
X0101231Y0075274D01*
X0101350Y0075165D01*
X0101466Y0075054D01*
X0101579Y0074939D01*
X0101689Y0074822D01*
X0101796Y0074702D01*
X0101900Y0074580D01*
X0102001Y0074455D01*
X0102099Y0074327D01*
X0102194Y0074197D01*
X0102286Y0074065D01*
X0102374Y0073931D01*
X0102459Y0073794D01*
X0102541Y0073656D01*
X0102619Y0073515D01*
X0102693Y0073373D01*
X0102764Y0073229D01*
X0102832Y0073083D01*
X0102895Y0072935D01*
X0102956Y0072786D01*
X0103012Y0072635D01*
X0103065Y0072483D01*
X0103114Y0072330D01*
X0103159Y0072176D01*
X0103200Y0072021D01*
X0103238Y0071864D01*
X0103271Y0071707D01*
X0103301Y0071549D01*
X0103327Y0071390D01*
X0103348Y0071231D01*
X0103366Y0071071D01*
X0103380Y0070911D01*
X0103390Y0070750D01*
X0103396Y0070590D01*
X0103398Y0070429D01*
X0103396Y0070268D01*
X0103390Y0070108D01*
X0103380Y0069947D01*
X0103366Y0069787D01*
X0103348Y0069627D01*
X0103327Y0069468D01*
X0103301Y0069309D01*
X0103271Y0069151D01*
X0103238Y0068994D01*
X0103200Y0068837D01*
X0103159Y0068682D01*
X0103114Y0068528D01*
X0103065Y0068375D01*
X0103012Y0068223D01*
X0102956Y0068072D01*
X0102895Y0067923D01*
X0102832Y0067775D01*
X0102764Y0067629D01*
X0102693Y0067485D01*
X0102619Y0067343D01*
X0102541Y0067202D01*
X0102459Y0067064D01*
X0102374Y0066927D01*
X0102286Y0066793D01*
X0102194Y0066661D01*
X0102099Y0066531D01*
X0102001Y0066403D01*
X0101900Y0066278D01*
X0101796Y0066156D01*
X0101689Y0066036D01*
X0101579Y0065919D01*
X0101466Y0065804D01*
X0101350Y0065693D01*
X0101231Y0065584D01*
X0101110Y0065479D01*
X0100986Y0065376D01*
X0100860Y0065276D01*
X0100732Y0065180D01*
X0100601Y0065087D01*
X0100467Y0064997D01*
X0100332Y0064910D01*
X0100194Y0064827D01*
X0100055Y0064747D01*
X0099913Y0064671D01*
X0099770Y0064598D01*
X0099625Y0064529D01*
X0099478Y0064463D01*
X0099330Y0064401D01*
X0099180Y0064343D01*
X0099029Y0064288D01*
X0098876Y0064237D01*
X0098722Y0064190D01*
X0098567Y0064147D01*
X0098411Y0064108D01*
X0098255Y0064072D01*
X0098097Y0064041D01*
X0097939Y0064013D01*
X0097780Y0063989D01*
X0097620Y0063969D01*
X0097460Y0063953D01*
X0097300Y0063941D01*
X0097139Y0063933D01*
X0096978Y0063929D01*
X0096818Y0063929D01*
X0096657Y0063933D01*
X0096496Y0063941D01*
X0096336Y0063953D01*
X0096176Y0063969D01*
X0096016Y0063989D01*
X0095857Y0064013D01*
X0095699Y0064041D01*
X0095541Y0064072D01*
X0095385Y0064108D01*
X0095229Y0064147D01*
X0095074Y0064190D01*
X0094920Y0064237D01*
X0094767Y0064288D01*
X0094616Y0064343D01*
X0094466Y0064401D01*
X0094318Y0064463D01*
X0094171Y0064529D01*
X0094026Y0064598D01*
X0093883Y0064671D01*
X0093741Y0064747D01*
X0093602Y0064827D01*
X0093464Y0064910D01*
X0093329Y0064997D01*
X0093195Y0065087D01*
X0093064Y0065180D01*
X0092936Y0065276D01*
X0092810Y0065376D01*
X0092686Y0065479D01*
X0092565Y0065584D01*
X0092446Y0065693D01*
X0092330Y0065804D01*
X0092217Y0065919D01*
X0092107Y0066036D01*
X0092000Y0066156D01*
X0091896Y0066278D01*
X0091795Y0066403D01*
X0091697Y0066531D01*
X0091602Y0066661D01*
X0091510Y0066793D01*
X0091422Y0066927D01*
X0091337Y0067064D01*
X0091255Y0067202D01*
X0091177Y0067343D01*
X0091103Y0067485D01*
X0091032Y0067629D01*
X0090964Y0067775D01*
X0090901Y0067923D01*
X0090840Y0068072D01*
X0090784Y0068223D01*
X0090731Y0068375D01*
X0090682Y0068528D01*
X0090637Y0068682D01*
X0090596Y0068837D01*
X0090558Y0068994D01*
X0090525Y0069151D01*
X0090495Y0069309D01*
X0090469Y0069468D01*
X0090448Y0069627D01*
X0090430Y0069787D01*
X0090416Y0069947D01*
X0090406Y0070108D01*
X0090400Y0070268D01*
X0090398Y0070429D01*
X0110083Y0099957D02*
X0110085Y0100118D01*
X0110091Y0100278D01*
X0110101Y0100439D01*
X0110115Y0100599D01*
X0110133Y0100759D01*
X0110154Y0100918D01*
X0110180Y0101077D01*
X0110210Y0101235D01*
X0110243Y0101392D01*
X0110281Y0101549D01*
X0110322Y0101704D01*
X0110367Y0101858D01*
X0110416Y0102011D01*
X0110469Y0102163D01*
X0110525Y0102314D01*
X0110586Y0102463D01*
X0110649Y0102611D01*
X0110717Y0102757D01*
X0110788Y0102901D01*
X0110862Y0103043D01*
X0110940Y0103184D01*
X0111022Y0103322D01*
X0111107Y0103459D01*
X0111195Y0103593D01*
X0111287Y0103725D01*
X0111382Y0103855D01*
X0111480Y0103983D01*
X0111581Y0104108D01*
X0111685Y0104230D01*
X0111792Y0104350D01*
X0111902Y0104467D01*
X0112015Y0104582D01*
X0112131Y0104693D01*
X0112250Y0104802D01*
X0112371Y0104907D01*
X0112495Y0105010D01*
X0112621Y0105110D01*
X0112749Y0105206D01*
X0112880Y0105299D01*
X0113014Y0105389D01*
X0113149Y0105476D01*
X0113287Y0105559D01*
X0113426Y0105639D01*
X0113568Y0105715D01*
X0113711Y0105788D01*
X0113856Y0105857D01*
X0114003Y0105923D01*
X0114151Y0105985D01*
X0114301Y0106043D01*
X0114452Y0106098D01*
X0114605Y0106149D01*
X0114759Y0106196D01*
X0114914Y0106239D01*
X0115070Y0106278D01*
X0115226Y0106314D01*
X0115384Y0106345D01*
X0115542Y0106373D01*
X0115701Y0106397D01*
X0115861Y0106417D01*
X0116021Y0106433D01*
X0116181Y0106445D01*
X0116342Y0106453D01*
X0116503Y0106457D01*
X0116663Y0106457D01*
X0116824Y0106453D01*
X0116985Y0106445D01*
X0117145Y0106433D01*
X0117305Y0106417D01*
X0117465Y0106397D01*
X0117624Y0106373D01*
X0117782Y0106345D01*
X0117940Y0106314D01*
X0118096Y0106278D01*
X0118252Y0106239D01*
X0118407Y0106196D01*
X0118561Y0106149D01*
X0118714Y0106098D01*
X0118865Y0106043D01*
X0119015Y0105985D01*
X0119163Y0105923D01*
X0119310Y0105857D01*
X0119455Y0105788D01*
X0119598Y0105715D01*
X0119740Y0105639D01*
X0119879Y0105559D01*
X0120017Y0105476D01*
X0120152Y0105389D01*
X0120286Y0105299D01*
X0120417Y0105206D01*
X0120545Y0105110D01*
X0120671Y0105010D01*
X0120795Y0104907D01*
X0120916Y0104802D01*
X0121035Y0104693D01*
X0121151Y0104582D01*
X0121264Y0104467D01*
X0121374Y0104350D01*
X0121481Y0104230D01*
X0121585Y0104108D01*
X0121686Y0103983D01*
X0121784Y0103855D01*
X0121879Y0103725D01*
X0121971Y0103593D01*
X0122059Y0103459D01*
X0122144Y0103322D01*
X0122226Y0103184D01*
X0122304Y0103043D01*
X0122378Y0102901D01*
X0122449Y0102757D01*
X0122517Y0102611D01*
X0122580Y0102463D01*
X0122641Y0102314D01*
X0122697Y0102163D01*
X0122750Y0102011D01*
X0122799Y0101858D01*
X0122844Y0101704D01*
X0122885Y0101549D01*
X0122923Y0101392D01*
X0122956Y0101235D01*
X0122986Y0101077D01*
X0123012Y0100918D01*
X0123033Y0100759D01*
X0123051Y0100599D01*
X0123065Y0100439D01*
X0123075Y0100278D01*
X0123081Y0100118D01*
X0123083Y0099957D01*
X0123081Y0099796D01*
X0123075Y0099636D01*
X0123065Y0099475D01*
X0123051Y0099315D01*
X0123033Y0099155D01*
X0123012Y0098996D01*
X0122986Y0098837D01*
X0122956Y0098679D01*
X0122923Y0098522D01*
X0122885Y0098365D01*
X0122844Y0098210D01*
X0122799Y0098056D01*
X0122750Y0097903D01*
X0122697Y0097751D01*
X0122641Y0097600D01*
X0122580Y0097451D01*
X0122517Y0097303D01*
X0122449Y0097157D01*
X0122378Y0097013D01*
X0122304Y0096871D01*
X0122226Y0096730D01*
X0122144Y0096592D01*
X0122059Y0096455D01*
X0121971Y0096321D01*
X0121879Y0096189D01*
X0121784Y0096059D01*
X0121686Y0095931D01*
X0121585Y0095806D01*
X0121481Y0095684D01*
X0121374Y0095564D01*
X0121264Y0095447D01*
X0121151Y0095332D01*
X0121035Y0095221D01*
X0120916Y0095112D01*
X0120795Y0095007D01*
X0120671Y0094904D01*
X0120545Y0094804D01*
X0120417Y0094708D01*
X0120286Y0094615D01*
X0120152Y0094525D01*
X0120017Y0094438D01*
X0119879Y0094355D01*
X0119740Y0094275D01*
X0119598Y0094199D01*
X0119455Y0094126D01*
X0119310Y0094057D01*
X0119163Y0093991D01*
X0119015Y0093929D01*
X0118865Y0093871D01*
X0118714Y0093816D01*
X0118561Y0093765D01*
X0118407Y0093718D01*
X0118252Y0093675D01*
X0118096Y0093636D01*
X0117940Y0093600D01*
X0117782Y0093569D01*
X0117624Y0093541D01*
X0117465Y0093517D01*
X0117305Y0093497D01*
X0117145Y0093481D01*
X0116985Y0093469D01*
X0116824Y0093461D01*
X0116663Y0093457D01*
X0116503Y0093457D01*
X0116342Y0093461D01*
X0116181Y0093469D01*
X0116021Y0093481D01*
X0115861Y0093497D01*
X0115701Y0093517D01*
X0115542Y0093541D01*
X0115384Y0093569D01*
X0115226Y0093600D01*
X0115070Y0093636D01*
X0114914Y0093675D01*
X0114759Y0093718D01*
X0114605Y0093765D01*
X0114452Y0093816D01*
X0114301Y0093871D01*
X0114151Y0093929D01*
X0114003Y0093991D01*
X0113856Y0094057D01*
X0113711Y0094126D01*
X0113568Y0094199D01*
X0113426Y0094275D01*
X0113287Y0094355D01*
X0113149Y0094438D01*
X0113014Y0094525D01*
X0112880Y0094615D01*
X0112749Y0094708D01*
X0112621Y0094804D01*
X0112495Y0094904D01*
X0112371Y0095007D01*
X0112250Y0095112D01*
X0112131Y0095221D01*
X0112015Y0095332D01*
X0111902Y0095447D01*
X0111792Y0095564D01*
X0111685Y0095684D01*
X0111581Y0095806D01*
X0111480Y0095931D01*
X0111382Y0096059D01*
X0111287Y0096189D01*
X0111195Y0096321D01*
X0111107Y0096455D01*
X0111022Y0096592D01*
X0110940Y0096730D01*
X0110862Y0096871D01*
X0110788Y0097013D01*
X0110717Y0097157D01*
X0110649Y0097303D01*
X0110586Y0097451D01*
X0110525Y0097600D01*
X0110469Y0097751D01*
X0110416Y0097903D01*
X0110367Y0098056D01*
X0110322Y0098210D01*
X0110281Y0098365D01*
X0110243Y0098522D01*
X0110210Y0098679D01*
X0110180Y0098837D01*
X0110154Y0098996D01*
X0110133Y0099155D01*
X0110115Y0099315D01*
X0110101Y0099475D01*
X0110091Y0099636D01*
X0110085Y0099796D01*
X0110083Y0099957D01*
X0180949Y0052713D02*
X0180951Y0052874D01*
X0180957Y0053034D01*
X0180967Y0053195D01*
X0180981Y0053355D01*
X0180999Y0053515D01*
X0181020Y0053674D01*
X0181046Y0053833D01*
X0181076Y0053991D01*
X0181109Y0054148D01*
X0181147Y0054305D01*
X0181188Y0054460D01*
X0181233Y0054614D01*
X0181282Y0054767D01*
X0181335Y0054919D01*
X0181391Y0055070D01*
X0181452Y0055219D01*
X0181515Y0055367D01*
X0181583Y0055513D01*
X0181654Y0055657D01*
X0181728Y0055799D01*
X0181806Y0055940D01*
X0181888Y0056078D01*
X0181973Y0056215D01*
X0182061Y0056349D01*
X0182153Y0056481D01*
X0182248Y0056611D01*
X0182346Y0056739D01*
X0182447Y0056864D01*
X0182551Y0056986D01*
X0182658Y0057106D01*
X0182768Y0057223D01*
X0182881Y0057338D01*
X0182997Y0057449D01*
X0183116Y0057558D01*
X0183237Y0057663D01*
X0183361Y0057766D01*
X0183487Y0057866D01*
X0183615Y0057962D01*
X0183746Y0058055D01*
X0183880Y0058145D01*
X0184015Y0058232D01*
X0184153Y0058315D01*
X0184292Y0058395D01*
X0184434Y0058471D01*
X0184577Y0058544D01*
X0184722Y0058613D01*
X0184869Y0058679D01*
X0185017Y0058741D01*
X0185167Y0058799D01*
X0185318Y0058854D01*
X0185471Y0058905D01*
X0185625Y0058952D01*
X0185780Y0058995D01*
X0185936Y0059034D01*
X0186092Y0059070D01*
X0186250Y0059101D01*
X0186408Y0059129D01*
X0186567Y0059153D01*
X0186727Y0059173D01*
X0186887Y0059189D01*
X0187047Y0059201D01*
X0187208Y0059209D01*
X0187369Y0059213D01*
X0187529Y0059213D01*
X0187690Y0059209D01*
X0187851Y0059201D01*
X0188011Y0059189D01*
X0188171Y0059173D01*
X0188331Y0059153D01*
X0188490Y0059129D01*
X0188648Y0059101D01*
X0188806Y0059070D01*
X0188962Y0059034D01*
X0189118Y0058995D01*
X0189273Y0058952D01*
X0189427Y0058905D01*
X0189580Y0058854D01*
X0189731Y0058799D01*
X0189881Y0058741D01*
X0190029Y0058679D01*
X0190176Y0058613D01*
X0190321Y0058544D01*
X0190464Y0058471D01*
X0190606Y0058395D01*
X0190745Y0058315D01*
X0190883Y0058232D01*
X0191018Y0058145D01*
X0191152Y0058055D01*
X0191283Y0057962D01*
X0191411Y0057866D01*
X0191537Y0057766D01*
X0191661Y0057663D01*
X0191782Y0057558D01*
X0191901Y0057449D01*
X0192017Y0057338D01*
X0192130Y0057223D01*
X0192240Y0057106D01*
X0192347Y0056986D01*
X0192451Y0056864D01*
X0192552Y0056739D01*
X0192650Y0056611D01*
X0192745Y0056481D01*
X0192837Y0056349D01*
X0192925Y0056215D01*
X0193010Y0056078D01*
X0193092Y0055940D01*
X0193170Y0055799D01*
X0193244Y0055657D01*
X0193315Y0055513D01*
X0193383Y0055367D01*
X0193446Y0055219D01*
X0193507Y0055070D01*
X0193563Y0054919D01*
X0193616Y0054767D01*
X0193665Y0054614D01*
X0193710Y0054460D01*
X0193751Y0054305D01*
X0193789Y0054148D01*
X0193822Y0053991D01*
X0193852Y0053833D01*
X0193878Y0053674D01*
X0193899Y0053515D01*
X0193917Y0053355D01*
X0193931Y0053195D01*
X0193941Y0053034D01*
X0193947Y0052874D01*
X0193949Y0052713D01*
X0193947Y0052552D01*
X0193941Y0052392D01*
X0193931Y0052231D01*
X0193917Y0052071D01*
X0193899Y0051911D01*
X0193878Y0051752D01*
X0193852Y0051593D01*
X0193822Y0051435D01*
X0193789Y0051278D01*
X0193751Y0051121D01*
X0193710Y0050966D01*
X0193665Y0050812D01*
X0193616Y0050659D01*
X0193563Y0050507D01*
X0193507Y0050356D01*
X0193446Y0050207D01*
X0193383Y0050059D01*
X0193315Y0049913D01*
X0193244Y0049769D01*
X0193170Y0049627D01*
X0193092Y0049486D01*
X0193010Y0049348D01*
X0192925Y0049211D01*
X0192837Y0049077D01*
X0192745Y0048945D01*
X0192650Y0048815D01*
X0192552Y0048687D01*
X0192451Y0048562D01*
X0192347Y0048440D01*
X0192240Y0048320D01*
X0192130Y0048203D01*
X0192017Y0048088D01*
X0191901Y0047977D01*
X0191782Y0047868D01*
X0191661Y0047763D01*
X0191537Y0047660D01*
X0191411Y0047560D01*
X0191283Y0047464D01*
X0191152Y0047371D01*
X0191018Y0047281D01*
X0190883Y0047194D01*
X0190745Y0047111D01*
X0190606Y0047031D01*
X0190464Y0046955D01*
X0190321Y0046882D01*
X0190176Y0046813D01*
X0190029Y0046747D01*
X0189881Y0046685D01*
X0189731Y0046627D01*
X0189580Y0046572D01*
X0189427Y0046521D01*
X0189273Y0046474D01*
X0189118Y0046431D01*
X0188962Y0046392D01*
X0188806Y0046356D01*
X0188648Y0046325D01*
X0188490Y0046297D01*
X0188331Y0046273D01*
X0188171Y0046253D01*
X0188011Y0046237D01*
X0187851Y0046225D01*
X0187690Y0046217D01*
X0187529Y0046213D01*
X0187369Y0046213D01*
X0187208Y0046217D01*
X0187047Y0046225D01*
X0186887Y0046237D01*
X0186727Y0046253D01*
X0186567Y0046273D01*
X0186408Y0046297D01*
X0186250Y0046325D01*
X0186092Y0046356D01*
X0185936Y0046392D01*
X0185780Y0046431D01*
X0185625Y0046474D01*
X0185471Y0046521D01*
X0185318Y0046572D01*
X0185167Y0046627D01*
X0185017Y0046685D01*
X0184869Y0046747D01*
X0184722Y0046813D01*
X0184577Y0046882D01*
X0184434Y0046955D01*
X0184292Y0047031D01*
X0184153Y0047111D01*
X0184015Y0047194D01*
X0183880Y0047281D01*
X0183746Y0047371D01*
X0183615Y0047464D01*
X0183487Y0047560D01*
X0183361Y0047660D01*
X0183237Y0047763D01*
X0183116Y0047868D01*
X0182997Y0047977D01*
X0182881Y0048088D01*
X0182768Y0048203D01*
X0182658Y0048320D01*
X0182551Y0048440D01*
X0182447Y0048562D01*
X0182346Y0048687D01*
X0182248Y0048815D01*
X0182153Y0048945D01*
X0182061Y0049077D01*
X0181973Y0049211D01*
X0181888Y0049348D01*
X0181806Y0049486D01*
X0181728Y0049627D01*
X0181654Y0049769D01*
X0181583Y0049913D01*
X0181515Y0050059D01*
X0181452Y0050207D01*
X0181391Y0050356D01*
X0181335Y0050507D01*
X0181282Y0050659D01*
X0181233Y0050812D01*
X0181188Y0050966D01*
X0181147Y0051121D01*
X0181109Y0051278D01*
X0181076Y0051435D01*
X0181046Y0051593D01*
X0181020Y0051752D01*
X0180999Y0051911D01*
X0180981Y0052071D01*
X0180967Y0052231D01*
X0180957Y0052392D01*
X0180951Y0052552D01*
X0180949Y0052713D01*
X0220319Y0086177D02*
X0220321Y0086338D01*
X0220327Y0086498D01*
X0220337Y0086659D01*
X0220351Y0086819D01*
X0220369Y0086979D01*
X0220390Y0087138D01*
X0220416Y0087297D01*
X0220446Y0087455D01*
X0220479Y0087612D01*
X0220517Y0087769D01*
X0220558Y0087924D01*
X0220603Y0088078D01*
X0220652Y0088231D01*
X0220705Y0088383D01*
X0220761Y0088534D01*
X0220822Y0088683D01*
X0220885Y0088831D01*
X0220953Y0088977D01*
X0221024Y0089121D01*
X0221098Y0089263D01*
X0221176Y0089404D01*
X0221258Y0089542D01*
X0221343Y0089679D01*
X0221431Y0089813D01*
X0221523Y0089945D01*
X0221618Y0090075D01*
X0221716Y0090203D01*
X0221817Y0090328D01*
X0221921Y0090450D01*
X0222028Y0090570D01*
X0222138Y0090687D01*
X0222251Y0090802D01*
X0222367Y0090913D01*
X0222486Y0091022D01*
X0222607Y0091127D01*
X0222731Y0091230D01*
X0222857Y0091330D01*
X0222985Y0091426D01*
X0223116Y0091519D01*
X0223250Y0091609D01*
X0223385Y0091696D01*
X0223523Y0091779D01*
X0223662Y0091859D01*
X0223804Y0091935D01*
X0223947Y0092008D01*
X0224092Y0092077D01*
X0224239Y0092143D01*
X0224387Y0092205D01*
X0224537Y0092263D01*
X0224688Y0092318D01*
X0224841Y0092369D01*
X0224995Y0092416D01*
X0225150Y0092459D01*
X0225306Y0092498D01*
X0225462Y0092534D01*
X0225620Y0092565D01*
X0225778Y0092593D01*
X0225937Y0092617D01*
X0226097Y0092637D01*
X0226257Y0092653D01*
X0226417Y0092665D01*
X0226578Y0092673D01*
X0226739Y0092677D01*
X0226899Y0092677D01*
X0227060Y0092673D01*
X0227221Y0092665D01*
X0227381Y0092653D01*
X0227541Y0092637D01*
X0227701Y0092617D01*
X0227860Y0092593D01*
X0228018Y0092565D01*
X0228176Y0092534D01*
X0228332Y0092498D01*
X0228488Y0092459D01*
X0228643Y0092416D01*
X0228797Y0092369D01*
X0228950Y0092318D01*
X0229101Y0092263D01*
X0229251Y0092205D01*
X0229399Y0092143D01*
X0229546Y0092077D01*
X0229691Y0092008D01*
X0229834Y0091935D01*
X0229976Y0091859D01*
X0230115Y0091779D01*
X0230253Y0091696D01*
X0230388Y0091609D01*
X0230522Y0091519D01*
X0230653Y0091426D01*
X0230781Y0091330D01*
X0230907Y0091230D01*
X0231031Y0091127D01*
X0231152Y0091022D01*
X0231271Y0090913D01*
X0231387Y0090802D01*
X0231500Y0090687D01*
X0231610Y0090570D01*
X0231717Y0090450D01*
X0231821Y0090328D01*
X0231922Y0090203D01*
X0232020Y0090075D01*
X0232115Y0089945D01*
X0232207Y0089813D01*
X0232295Y0089679D01*
X0232380Y0089542D01*
X0232462Y0089404D01*
X0232540Y0089263D01*
X0232614Y0089121D01*
X0232685Y0088977D01*
X0232753Y0088831D01*
X0232816Y0088683D01*
X0232877Y0088534D01*
X0232933Y0088383D01*
X0232986Y0088231D01*
X0233035Y0088078D01*
X0233080Y0087924D01*
X0233121Y0087769D01*
X0233159Y0087612D01*
X0233192Y0087455D01*
X0233222Y0087297D01*
X0233248Y0087138D01*
X0233269Y0086979D01*
X0233287Y0086819D01*
X0233301Y0086659D01*
X0233311Y0086498D01*
X0233317Y0086338D01*
X0233319Y0086177D01*
X0233317Y0086016D01*
X0233311Y0085856D01*
X0233301Y0085695D01*
X0233287Y0085535D01*
X0233269Y0085375D01*
X0233248Y0085216D01*
X0233222Y0085057D01*
X0233192Y0084899D01*
X0233159Y0084742D01*
X0233121Y0084585D01*
X0233080Y0084430D01*
X0233035Y0084276D01*
X0232986Y0084123D01*
X0232933Y0083971D01*
X0232877Y0083820D01*
X0232816Y0083671D01*
X0232753Y0083523D01*
X0232685Y0083377D01*
X0232614Y0083233D01*
X0232540Y0083091D01*
X0232462Y0082950D01*
X0232380Y0082812D01*
X0232295Y0082675D01*
X0232207Y0082541D01*
X0232115Y0082409D01*
X0232020Y0082279D01*
X0231922Y0082151D01*
X0231821Y0082026D01*
X0231717Y0081904D01*
X0231610Y0081784D01*
X0231500Y0081667D01*
X0231387Y0081552D01*
X0231271Y0081441D01*
X0231152Y0081332D01*
X0231031Y0081227D01*
X0230907Y0081124D01*
X0230781Y0081024D01*
X0230653Y0080928D01*
X0230522Y0080835D01*
X0230388Y0080745D01*
X0230253Y0080658D01*
X0230115Y0080575D01*
X0229976Y0080495D01*
X0229834Y0080419D01*
X0229691Y0080346D01*
X0229546Y0080277D01*
X0229399Y0080211D01*
X0229251Y0080149D01*
X0229101Y0080091D01*
X0228950Y0080036D01*
X0228797Y0079985D01*
X0228643Y0079938D01*
X0228488Y0079895D01*
X0228332Y0079856D01*
X0228176Y0079820D01*
X0228018Y0079789D01*
X0227860Y0079761D01*
X0227701Y0079737D01*
X0227541Y0079717D01*
X0227381Y0079701D01*
X0227221Y0079689D01*
X0227060Y0079681D01*
X0226899Y0079677D01*
X0226739Y0079677D01*
X0226578Y0079681D01*
X0226417Y0079689D01*
X0226257Y0079701D01*
X0226097Y0079717D01*
X0225937Y0079737D01*
X0225778Y0079761D01*
X0225620Y0079789D01*
X0225462Y0079820D01*
X0225306Y0079856D01*
X0225150Y0079895D01*
X0224995Y0079938D01*
X0224841Y0079985D01*
X0224688Y0080036D01*
X0224537Y0080091D01*
X0224387Y0080149D01*
X0224239Y0080211D01*
X0224092Y0080277D01*
X0223947Y0080346D01*
X0223804Y0080419D01*
X0223662Y0080495D01*
X0223523Y0080575D01*
X0223385Y0080658D01*
X0223250Y0080745D01*
X0223116Y0080835D01*
X0222985Y0080928D01*
X0222857Y0081024D01*
X0222731Y0081124D01*
X0222607Y0081227D01*
X0222486Y0081332D01*
X0222367Y0081441D01*
X0222251Y0081552D01*
X0222138Y0081667D01*
X0222028Y0081784D01*
X0221921Y0081904D01*
X0221817Y0082026D01*
X0221716Y0082151D01*
X0221618Y0082279D01*
X0221523Y0082409D01*
X0221431Y0082541D01*
X0221343Y0082675D01*
X0221258Y0082812D01*
X0221176Y0082950D01*
X0221098Y0083091D01*
X0221024Y0083233D01*
X0220953Y0083377D01*
X0220885Y0083523D01*
X0220822Y0083671D01*
X0220761Y0083820D01*
X0220705Y0083971D01*
X0220652Y0084123D01*
X0220603Y0084276D01*
X0220558Y0084430D01*
X0220517Y0084585D01*
X0220479Y0084742D01*
X0220446Y0084899D01*
X0220416Y0085057D01*
X0220390Y0085216D01*
X0220369Y0085375D01*
X0220351Y0085535D01*
X0220337Y0085695D01*
X0220327Y0085856D01*
X0220321Y0086016D01*
X0220319Y0086177D01*
X0208508Y0125547D02*
X0208510Y0125708D01*
X0208516Y0125868D01*
X0208526Y0126029D01*
X0208540Y0126189D01*
X0208558Y0126349D01*
X0208579Y0126508D01*
X0208605Y0126667D01*
X0208635Y0126825D01*
X0208668Y0126982D01*
X0208706Y0127139D01*
X0208747Y0127294D01*
X0208792Y0127448D01*
X0208841Y0127601D01*
X0208894Y0127753D01*
X0208950Y0127904D01*
X0209011Y0128053D01*
X0209074Y0128201D01*
X0209142Y0128347D01*
X0209213Y0128491D01*
X0209287Y0128633D01*
X0209365Y0128774D01*
X0209447Y0128912D01*
X0209532Y0129049D01*
X0209620Y0129183D01*
X0209712Y0129315D01*
X0209807Y0129445D01*
X0209905Y0129573D01*
X0210006Y0129698D01*
X0210110Y0129820D01*
X0210217Y0129940D01*
X0210327Y0130057D01*
X0210440Y0130172D01*
X0210556Y0130283D01*
X0210675Y0130392D01*
X0210796Y0130497D01*
X0210920Y0130600D01*
X0211046Y0130700D01*
X0211174Y0130796D01*
X0211305Y0130889D01*
X0211439Y0130979D01*
X0211574Y0131066D01*
X0211712Y0131149D01*
X0211851Y0131229D01*
X0211993Y0131305D01*
X0212136Y0131378D01*
X0212281Y0131447D01*
X0212428Y0131513D01*
X0212576Y0131575D01*
X0212726Y0131633D01*
X0212877Y0131688D01*
X0213030Y0131739D01*
X0213184Y0131786D01*
X0213339Y0131829D01*
X0213495Y0131868D01*
X0213651Y0131904D01*
X0213809Y0131935D01*
X0213967Y0131963D01*
X0214126Y0131987D01*
X0214286Y0132007D01*
X0214446Y0132023D01*
X0214606Y0132035D01*
X0214767Y0132043D01*
X0214928Y0132047D01*
X0215088Y0132047D01*
X0215249Y0132043D01*
X0215410Y0132035D01*
X0215570Y0132023D01*
X0215730Y0132007D01*
X0215890Y0131987D01*
X0216049Y0131963D01*
X0216207Y0131935D01*
X0216365Y0131904D01*
X0216521Y0131868D01*
X0216677Y0131829D01*
X0216832Y0131786D01*
X0216986Y0131739D01*
X0217139Y0131688D01*
X0217290Y0131633D01*
X0217440Y0131575D01*
X0217588Y0131513D01*
X0217735Y0131447D01*
X0217880Y0131378D01*
X0218023Y0131305D01*
X0218165Y0131229D01*
X0218304Y0131149D01*
X0218442Y0131066D01*
X0218577Y0130979D01*
X0218711Y0130889D01*
X0218842Y0130796D01*
X0218970Y0130700D01*
X0219096Y0130600D01*
X0219220Y0130497D01*
X0219341Y0130392D01*
X0219460Y0130283D01*
X0219576Y0130172D01*
X0219689Y0130057D01*
X0219799Y0129940D01*
X0219906Y0129820D01*
X0220010Y0129698D01*
X0220111Y0129573D01*
X0220209Y0129445D01*
X0220304Y0129315D01*
X0220396Y0129183D01*
X0220484Y0129049D01*
X0220569Y0128912D01*
X0220651Y0128774D01*
X0220729Y0128633D01*
X0220803Y0128491D01*
X0220874Y0128347D01*
X0220942Y0128201D01*
X0221005Y0128053D01*
X0221066Y0127904D01*
X0221122Y0127753D01*
X0221175Y0127601D01*
X0221224Y0127448D01*
X0221269Y0127294D01*
X0221310Y0127139D01*
X0221348Y0126982D01*
X0221381Y0126825D01*
X0221411Y0126667D01*
X0221437Y0126508D01*
X0221458Y0126349D01*
X0221476Y0126189D01*
X0221490Y0126029D01*
X0221500Y0125868D01*
X0221506Y0125708D01*
X0221508Y0125547D01*
X0221506Y0125386D01*
X0221500Y0125226D01*
X0221490Y0125065D01*
X0221476Y0124905D01*
X0221458Y0124745D01*
X0221437Y0124586D01*
X0221411Y0124427D01*
X0221381Y0124269D01*
X0221348Y0124112D01*
X0221310Y0123955D01*
X0221269Y0123800D01*
X0221224Y0123646D01*
X0221175Y0123493D01*
X0221122Y0123341D01*
X0221066Y0123190D01*
X0221005Y0123041D01*
X0220942Y0122893D01*
X0220874Y0122747D01*
X0220803Y0122603D01*
X0220729Y0122461D01*
X0220651Y0122320D01*
X0220569Y0122182D01*
X0220484Y0122045D01*
X0220396Y0121911D01*
X0220304Y0121779D01*
X0220209Y0121649D01*
X0220111Y0121521D01*
X0220010Y0121396D01*
X0219906Y0121274D01*
X0219799Y0121154D01*
X0219689Y0121037D01*
X0219576Y0120922D01*
X0219460Y0120811D01*
X0219341Y0120702D01*
X0219220Y0120597D01*
X0219096Y0120494D01*
X0218970Y0120394D01*
X0218842Y0120298D01*
X0218711Y0120205D01*
X0218577Y0120115D01*
X0218442Y0120028D01*
X0218304Y0119945D01*
X0218165Y0119865D01*
X0218023Y0119789D01*
X0217880Y0119716D01*
X0217735Y0119647D01*
X0217588Y0119581D01*
X0217440Y0119519D01*
X0217290Y0119461D01*
X0217139Y0119406D01*
X0216986Y0119355D01*
X0216832Y0119308D01*
X0216677Y0119265D01*
X0216521Y0119226D01*
X0216365Y0119190D01*
X0216207Y0119159D01*
X0216049Y0119131D01*
X0215890Y0119107D01*
X0215730Y0119087D01*
X0215570Y0119071D01*
X0215410Y0119059D01*
X0215249Y0119051D01*
X0215088Y0119047D01*
X0214928Y0119047D01*
X0214767Y0119051D01*
X0214606Y0119059D01*
X0214446Y0119071D01*
X0214286Y0119087D01*
X0214126Y0119107D01*
X0213967Y0119131D01*
X0213809Y0119159D01*
X0213651Y0119190D01*
X0213495Y0119226D01*
X0213339Y0119265D01*
X0213184Y0119308D01*
X0213030Y0119355D01*
X0212877Y0119406D01*
X0212726Y0119461D01*
X0212576Y0119519D01*
X0212428Y0119581D01*
X0212281Y0119647D01*
X0212136Y0119716D01*
X0211993Y0119789D01*
X0211851Y0119865D01*
X0211712Y0119945D01*
X0211574Y0120028D01*
X0211439Y0120115D01*
X0211305Y0120205D01*
X0211174Y0120298D01*
X0211046Y0120394D01*
X0210920Y0120494D01*
X0210796Y0120597D01*
X0210675Y0120702D01*
X0210556Y0120811D01*
X0210440Y0120922D01*
X0210327Y0121037D01*
X0210217Y0121154D01*
X0210110Y0121274D01*
X0210006Y0121396D01*
X0209905Y0121521D01*
X0209807Y0121649D01*
X0209712Y0121779D01*
X0209620Y0121911D01*
X0209532Y0122045D01*
X0209447Y0122182D01*
X0209365Y0122320D01*
X0209287Y0122461D01*
X0209213Y0122603D01*
X0209142Y0122747D01*
X0209074Y0122893D01*
X0209011Y0123041D01*
X0208950Y0123190D01*
X0208894Y0123341D01*
X0208841Y0123493D01*
X0208792Y0123646D01*
X0208747Y0123800D01*
X0208706Y0123955D01*
X0208668Y0124112D01*
X0208635Y0124269D01*
X0208605Y0124427D01*
X0208579Y0124586D01*
X0208558Y0124745D01*
X0208540Y0124905D01*
X0208526Y0125065D01*
X0208516Y0125226D01*
X0208510Y0125386D01*
X0208508Y0125547D01*
X0259689Y0082240D02*
X0259691Y0082401D01*
X0259697Y0082561D01*
X0259707Y0082722D01*
X0259721Y0082882D01*
X0259739Y0083042D01*
X0259760Y0083201D01*
X0259786Y0083360D01*
X0259816Y0083518D01*
X0259849Y0083675D01*
X0259887Y0083832D01*
X0259928Y0083987D01*
X0259973Y0084141D01*
X0260022Y0084294D01*
X0260075Y0084446D01*
X0260131Y0084597D01*
X0260192Y0084746D01*
X0260255Y0084894D01*
X0260323Y0085040D01*
X0260394Y0085184D01*
X0260468Y0085326D01*
X0260546Y0085467D01*
X0260628Y0085605D01*
X0260713Y0085742D01*
X0260801Y0085876D01*
X0260893Y0086008D01*
X0260988Y0086138D01*
X0261086Y0086266D01*
X0261187Y0086391D01*
X0261291Y0086513D01*
X0261398Y0086633D01*
X0261508Y0086750D01*
X0261621Y0086865D01*
X0261737Y0086976D01*
X0261856Y0087085D01*
X0261977Y0087190D01*
X0262101Y0087293D01*
X0262227Y0087393D01*
X0262355Y0087489D01*
X0262486Y0087582D01*
X0262620Y0087672D01*
X0262755Y0087759D01*
X0262893Y0087842D01*
X0263032Y0087922D01*
X0263174Y0087998D01*
X0263317Y0088071D01*
X0263462Y0088140D01*
X0263609Y0088206D01*
X0263757Y0088268D01*
X0263907Y0088326D01*
X0264058Y0088381D01*
X0264211Y0088432D01*
X0264365Y0088479D01*
X0264520Y0088522D01*
X0264676Y0088561D01*
X0264832Y0088597D01*
X0264990Y0088628D01*
X0265148Y0088656D01*
X0265307Y0088680D01*
X0265467Y0088700D01*
X0265627Y0088716D01*
X0265787Y0088728D01*
X0265948Y0088736D01*
X0266109Y0088740D01*
X0266269Y0088740D01*
X0266430Y0088736D01*
X0266591Y0088728D01*
X0266751Y0088716D01*
X0266911Y0088700D01*
X0267071Y0088680D01*
X0267230Y0088656D01*
X0267388Y0088628D01*
X0267546Y0088597D01*
X0267702Y0088561D01*
X0267858Y0088522D01*
X0268013Y0088479D01*
X0268167Y0088432D01*
X0268320Y0088381D01*
X0268471Y0088326D01*
X0268621Y0088268D01*
X0268769Y0088206D01*
X0268916Y0088140D01*
X0269061Y0088071D01*
X0269204Y0087998D01*
X0269346Y0087922D01*
X0269485Y0087842D01*
X0269623Y0087759D01*
X0269758Y0087672D01*
X0269892Y0087582D01*
X0270023Y0087489D01*
X0270151Y0087393D01*
X0270277Y0087293D01*
X0270401Y0087190D01*
X0270522Y0087085D01*
X0270641Y0086976D01*
X0270757Y0086865D01*
X0270870Y0086750D01*
X0270980Y0086633D01*
X0271087Y0086513D01*
X0271191Y0086391D01*
X0271292Y0086266D01*
X0271390Y0086138D01*
X0271485Y0086008D01*
X0271577Y0085876D01*
X0271665Y0085742D01*
X0271750Y0085605D01*
X0271832Y0085467D01*
X0271910Y0085326D01*
X0271984Y0085184D01*
X0272055Y0085040D01*
X0272123Y0084894D01*
X0272186Y0084746D01*
X0272247Y0084597D01*
X0272303Y0084446D01*
X0272356Y0084294D01*
X0272405Y0084141D01*
X0272450Y0083987D01*
X0272491Y0083832D01*
X0272529Y0083675D01*
X0272562Y0083518D01*
X0272592Y0083360D01*
X0272618Y0083201D01*
X0272639Y0083042D01*
X0272657Y0082882D01*
X0272671Y0082722D01*
X0272681Y0082561D01*
X0272687Y0082401D01*
X0272689Y0082240D01*
X0272687Y0082079D01*
X0272681Y0081919D01*
X0272671Y0081758D01*
X0272657Y0081598D01*
X0272639Y0081438D01*
X0272618Y0081279D01*
X0272592Y0081120D01*
X0272562Y0080962D01*
X0272529Y0080805D01*
X0272491Y0080648D01*
X0272450Y0080493D01*
X0272405Y0080339D01*
X0272356Y0080186D01*
X0272303Y0080034D01*
X0272247Y0079883D01*
X0272186Y0079734D01*
X0272123Y0079586D01*
X0272055Y0079440D01*
X0271984Y0079296D01*
X0271910Y0079154D01*
X0271832Y0079013D01*
X0271750Y0078875D01*
X0271665Y0078738D01*
X0271577Y0078604D01*
X0271485Y0078472D01*
X0271390Y0078342D01*
X0271292Y0078214D01*
X0271191Y0078089D01*
X0271087Y0077967D01*
X0270980Y0077847D01*
X0270870Y0077730D01*
X0270757Y0077615D01*
X0270641Y0077504D01*
X0270522Y0077395D01*
X0270401Y0077290D01*
X0270277Y0077187D01*
X0270151Y0077087D01*
X0270023Y0076991D01*
X0269892Y0076898D01*
X0269758Y0076808D01*
X0269623Y0076721D01*
X0269485Y0076638D01*
X0269346Y0076558D01*
X0269204Y0076482D01*
X0269061Y0076409D01*
X0268916Y0076340D01*
X0268769Y0076274D01*
X0268621Y0076212D01*
X0268471Y0076154D01*
X0268320Y0076099D01*
X0268167Y0076048D01*
X0268013Y0076001D01*
X0267858Y0075958D01*
X0267702Y0075919D01*
X0267546Y0075883D01*
X0267388Y0075852D01*
X0267230Y0075824D01*
X0267071Y0075800D01*
X0266911Y0075780D01*
X0266751Y0075764D01*
X0266591Y0075752D01*
X0266430Y0075744D01*
X0266269Y0075740D01*
X0266109Y0075740D01*
X0265948Y0075744D01*
X0265787Y0075752D01*
X0265627Y0075764D01*
X0265467Y0075780D01*
X0265307Y0075800D01*
X0265148Y0075824D01*
X0264990Y0075852D01*
X0264832Y0075883D01*
X0264676Y0075919D01*
X0264520Y0075958D01*
X0264365Y0076001D01*
X0264211Y0076048D01*
X0264058Y0076099D01*
X0263907Y0076154D01*
X0263757Y0076212D01*
X0263609Y0076274D01*
X0263462Y0076340D01*
X0263317Y0076409D01*
X0263174Y0076482D01*
X0263032Y0076558D01*
X0262893Y0076638D01*
X0262755Y0076721D01*
X0262620Y0076808D01*
X0262486Y0076898D01*
X0262355Y0076991D01*
X0262227Y0077087D01*
X0262101Y0077187D01*
X0261977Y0077290D01*
X0261856Y0077395D01*
X0261737Y0077504D01*
X0261621Y0077615D01*
X0261508Y0077730D01*
X0261398Y0077847D01*
X0261291Y0077967D01*
X0261187Y0078089D01*
X0261086Y0078214D01*
X0260988Y0078342D01*
X0260893Y0078472D01*
X0260801Y0078604D01*
X0260713Y0078738D01*
X0260628Y0078875D01*
X0260546Y0079013D01*
X0260468Y0079154D01*
X0260394Y0079296D01*
X0260323Y0079440D01*
X0260255Y0079586D01*
X0260192Y0079734D01*
X0260131Y0079883D01*
X0260075Y0080034D01*
X0260022Y0080186D01*
X0259973Y0080339D01*
X0259928Y0080493D01*
X0259887Y0080648D01*
X0259849Y0080805D01*
X0259816Y0080962D01*
X0259786Y0081120D01*
X0259760Y0081279D01*
X0259739Y0081438D01*
X0259721Y0081598D01*
X0259707Y0081758D01*
X0259697Y0081919D01*
X0259691Y0082079D01*
X0259689Y0082240D01*
X0259689Y0216098D02*
X0259691Y0216259D01*
X0259697Y0216419D01*
X0259707Y0216580D01*
X0259721Y0216740D01*
X0259739Y0216900D01*
X0259760Y0217059D01*
X0259786Y0217218D01*
X0259816Y0217376D01*
X0259849Y0217533D01*
X0259887Y0217690D01*
X0259928Y0217845D01*
X0259973Y0217999D01*
X0260022Y0218152D01*
X0260075Y0218304D01*
X0260131Y0218455D01*
X0260192Y0218604D01*
X0260255Y0218752D01*
X0260323Y0218898D01*
X0260394Y0219042D01*
X0260468Y0219184D01*
X0260546Y0219325D01*
X0260628Y0219463D01*
X0260713Y0219600D01*
X0260801Y0219734D01*
X0260893Y0219866D01*
X0260988Y0219996D01*
X0261086Y0220124D01*
X0261187Y0220249D01*
X0261291Y0220371D01*
X0261398Y0220491D01*
X0261508Y0220608D01*
X0261621Y0220723D01*
X0261737Y0220834D01*
X0261856Y0220943D01*
X0261977Y0221048D01*
X0262101Y0221151D01*
X0262227Y0221251D01*
X0262355Y0221347D01*
X0262486Y0221440D01*
X0262620Y0221530D01*
X0262755Y0221617D01*
X0262893Y0221700D01*
X0263032Y0221780D01*
X0263174Y0221856D01*
X0263317Y0221929D01*
X0263462Y0221998D01*
X0263609Y0222064D01*
X0263757Y0222126D01*
X0263907Y0222184D01*
X0264058Y0222239D01*
X0264211Y0222290D01*
X0264365Y0222337D01*
X0264520Y0222380D01*
X0264676Y0222419D01*
X0264832Y0222455D01*
X0264990Y0222486D01*
X0265148Y0222514D01*
X0265307Y0222538D01*
X0265467Y0222558D01*
X0265627Y0222574D01*
X0265787Y0222586D01*
X0265948Y0222594D01*
X0266109Y0222598D01*
X0266269Y0222598D01*
X0266430Y0222594D01*
X0266591Y0222586D01*
X0266751Y0222574D01*
X0266911Y0222558D01*
X0267071Y0222538D01*
X0267230Y0222514D01*
X0267388Y0222486D01*
X0267546Y0222455D01*
X0267702Y0222419D01*
X0267858Y0222380D01*
X0268013Y0222337D01*
X0268167Y0222290D01*
X0268320Y0222239D01*
X0268471Y0222184D01*
X0268621Y0222126D01*
X0268769Y0222064D01*
X0268916Y0221998D01*
X0269061Y0221929D01*
X0269204Y0221856D01*
X0269346Y0221780D01*
X0269485Y0221700D01*
X0269623Y0221617D01*
X0269758Y0221530D01*
X0269892Y0221440D01*
X0270023Y0221347D01*
X0270151Y0221251D01*
X0270277Y0221151D01*
X0270401Y0221048D01*
X0270522Y0220943D01*
X0270641Y0220834D01*
X0270757Y0220723D01*
X0270870Y0220608D01*
X0270980Y0220491D01*
X0271087Y0220371D01*
X0271191Y0220249D01*
X0271292Y0220124D01*
X0271390Y0219996D01*
X0271485Y0219866D01*
X0271577Y0219734D01*
X0271665Y0219600D01*
X0271750Y0219463D01*
X0271832Y0219325D01*
X0271910Y0219184D01*
X0271984Y0219042D01*
X0272055Y0218898D01*
X0272123Y0218752D01*
X0272186Y0218604D01*
X0272247Y0218455D01*
X0272303Y0218304D01*
X0272356Y0218152D01*
X0272405Y0217999D01*
X0272450Y0217845D01*
X0272491Y0217690D01*
X0272529Y0217533D01*
X0272562Y0217376D01*
X0272592Y0217218D01*
X0272618Y0217059D01*
X0272639Y0216900D01*
X0272657Y0216740D01*
X0272671Y0216580D01*
X0272681Y0216419D01*
X0272687Y0216259D01*
X0272689Y0216098D01*
X0272687Y0215937D01*
X0272681Y0215777D01*
X0272671Y0215616D01*
X0272657Y0215456D01*
X0272639Y0215296D01*
X0272618Y0215137D01*
X0272592Y0214978D01*
X0272562Y0214820D01*
X0272529Y0214663D01*
X0272491Y0214506D01*
X0272450Y0214351D01*
X0272405Y0214197D01*
X0272356Y0214044D01*
X0272303Y0213892D01*
X0272247Y0213741D01*
X0272186Y0213592D01*
X0272123Y0213444D01*
X0272055Y0213298D01*
X0271984Y0213154D01*
X0271910Y0213012D01*
X0271832Y0212871D01*
X0271750Y0212733D01*
X0271665Y0212596D01*
X0271577Y0212462D01*
X0271485Y0212330D01*
X0271390Y0212200D01*
X0271292Y0212072D01*
X0271191Y0211947D01*
X0271087Y0211825D01*
X0270980Y0211705D01*
X0270870Y0211588D01*
X0270757Y0211473D01*
X0270641Y0211362D01*
X0270522Y0211253D01*
X0270401Y0211148D01*
X0270277Y0211045D01*
X0270151Y0210945D01*
X0270023Y0210849D01*
X0269892Y0210756D01*
X0269758Y0210666D01*
X0269623Y0210579D01*
X0269485Y0210496D01*
X0269346Y0210416D01*
X0269204Y0210340D01*
X0269061Y0210267D01*
X0268916Y0210198D01*
X0268769Y0210132D01*
X0268621Y0210070D01*
X0268471Y0210012D01*
X0268320Y0209957D01*
X0268167Y0209906D01*
X0268013Y0209859D01*
X0267858Y0209816D01*
X0267702Y0209777D01*
X0267546Y0209741D01*
X0267388Y0209710D01*
X0267230Y0209682D01*
X0267071Y0209658D01*
X0266911Y0209638D01*
X0266751Y0209622D01*
X0266591Y0209610D01*
X0266430Y0209602D01*
X0266269Y0209598D01*
X0266109Y0209598D01*
X0265948Y0209602D01*
X0265787Y0209610D01*
X0265627Y0209622D01*
X0265467Y0209638D01*
X0265307Y0209658D01*
X0265148Y0209682D01*
X0264990Y0209710D01*
X0264832Y0209741D01*
X0264676Y0209777D01*
X0264520Y0209816D01*
X0264365Y0209859D01*
X0264211Y0209906D01*
X0264058Y0209957D01*
X0263907Y0210012D01*
X0263757Y0210070D01*
X0263609Y0210132D01*
X0263462Y0210198D01*
X0263317Y0210267D01*
X0263174Y0210340D01*
X0263032Y0210416D01*
X0262893Y0210496D01*
X0262755Y0210579D01*
X0262620Y0210666D01*
X0262486Y0210756D01*
X0262355Y0210849D01*
X0262227Y0210945D01*
X0262101Y0211045D01*
X0261977Y0211148D01*
X0261856Y0211253D01*
X0261737Y0211362D01*
X0261621Y0211473D01*
X0261508Y0211588D01*
X0261398Y0211705D01*
X0261291Y0211825D01*
X0261187Y0211947D01*
X0261086Y0212072D01*
X0260988Y0212200D01*
X0260893Y0212330D01*
X0260801Y0212462D01*
X0260713Y0212596D01*
X0260628Y0212733D01*
X0260546Y0212871D01*
X0260468Y0213012D01*
X0260394Y0213154D01*
X0260323Y0213298D01*
X0260255Y0213444D01*
X0260192Y0213592D01*
X0260131Y0213741D01*
X0260075Y0213892D01*
X0260022Y0214044D01*
X0259973Y0214197D01*
X0259928Y0214351D01*
X0259887Y0214506D01*
X0259849Y0214663D01*
X0259816Y0214820D01*
X0259786Y0214978D01*
X0259760Y0215137D01*
X0259739Y0215296D01*
X0259721Y0215456D01*
X0259707Y0215616D01*
X0259697Y0215777D01*
X0259691Y0215937D01*
X0259689Y0216098D01*
X0007720Y0216098D02*
X0007722Y0216259D01*
X0007728Y0216419D01*
X0007738Y0216580D01*
X0007752Y0216740D01*
X0007770Y0216900D01*
X0007791Y0217059D01*
X0007817Y0217218D01*
X0007847Y0217376D01*
X0007880Y0217533D01*
X0007918Y0217690D01*
X0007959Y0217845D01*
X0008004Y0217999D01*
X0008053Y0218152D01*
X0008106Y0218304D01*
X0008162Y0218455D01*
X0008223Y0218604D01*
X0008286Y0218752D01*
X0008354Y0218898D01*
X0008425Y0219042D01*
X0008499Y0219184D01*
X0008577Y0219325D01*
X0008659Y0219463D01*
X0008744Y0219600D01*
X0008832Y0219734D01*
X0008924Y0219866D01*
X0009019Y0219996D01*
X0009117Y0220124D01*
X0009218Y0220249D01*
X0009322Y0220371D01*
X0009429Y0220491D01*
X0009539Y0220608D01*
X0009652Y0220723D01*
X0009768Y0220834D01*
X0009887Y0220943D01*
X0010008Y0221048D01*
X0010132Y0221151D01*
X0010258Y0221251D01*
X0010386Y0221347D01*
X0010517Y0221440D01*
X0010651Y0221530D01*
X0010786Y0221617D01*
X0010924Y0221700D01*
X0011063Y0221780D01*
X0011205Y0221856D01*
X0011348Y0221929D01*
X0011493Y0221998D01*
X0011640Y0222064D01*
X0011788Y0222126D01*
X0011938Y0222184D01*
X0012089Y0222239D01*
X0012242Y0222290D01*
X0012396Y0222337D01*
X0012551Y0222380D01*
X0012707Y0222419D01*
X0012863Y0222455D01*
X0013021Y0222486D01*
X0013179Y0222514D01*
X0013338Y0222538D01*
X0013498Y0222558D01*
X0013658Y0222574D01*
X0013818Y0222586D01*
X0013979Y0222594D01*
X0014140Y0222598D01*
X0014300Y0222598D01*
X0014461Y0222594D01*
X0014622Y0222586D01*
X0014782Y0222574D01*
X0014942Y0222558D01*
X0015102Y0222538D01*
X0015261Y0222514D01*
X0015419Y0222486D01*
X0015577Y0222455D01*
X0015733Y0222419D01*
X0015889Y0222380D01*
X0016044Y0222337D01*
X0016198Y0222290D01*
X0016351Y0222239D01*
X0016502Y0222184D01*
X0016652Y0222126D01*
X0016800Y0222064D01*
X0016947Y0221998D01*
X0017092Y0221929D01*
X0017235Y0221856D01*
X0017377Y0221780D01*
X0017516Y0221700D01*
X0017654Y0221617D01*
X0017789Y0221530D01*
X0017923Y0221440D01*
X0018054Y0221347D01*
X0018182Y0221251D01*
X0018308Y0221151D01*
X0018432Y0221048D01*
X0018553Y0220943D01*
X0018672Y0220834D01*
X0018788Y0220723D01*
X0018901Y0220608D01*
X0019011Y0220491D01*
X0019118Y0220371D01*
X0019222Y0220249D01*
X0019323Y0220124D01*
X0019421Y0219996D01*
X0019516Y0219866D01*
X0019608Y0219734D01*
X0019696Y0219600D01*
X0019781Y0219463D01*
X0019863Y0219325D01*
X0019941Y0219184D01*
X0020015Y0219042D01*
X0020086Y0218898D01*
X0020154Y0218752D01*
X0020217Y0218604D01*
X0020278Y0218455D01*
X0020334Y0218304D01*
X0020387Y0218152D01*
X0020436Y0217999D01*
X0020481Y0217845D01*
X0020522Y0217690D01*
X0020560Y0217533D01*
X0020593Y0217376D01*
X0020623Y0217218D01*
X0020649Y0217059D01*
X0020670Y0216900D01*
X0020688Y0216740D01*
X0020702Y0216580D01*
X0020712Y0216419D01*
X0020718Y0216259D01*
X0020720Y0216098D01*
X0020718Y0215937D01*
X0020712Y0215777D01*
X0020702Y0215616D01*
X0020688Y0215456D01*
X0020670Y0215296D01*
X0020649Y0215137D01*
X0020623Y0214978D01*
X0020593Y0214820D01*
X0020560Y0214663D01*
X0020522Y0214506D01*
X0020481Y0214351D01*
X0020436Y0214197D01*
X0020387Y0214044D01*
X0020334Y0213892D01*
X0020278Y0213741D01*
X0020217Y0213592D01*
X0020154Y0213444D01*
X0020086Y0213298D01*
X0020015Y0213154D01*
X0019941Y0213012D01*
X0019863Y0212871D01*
X0019781Y0212733D01*
X0019696Y0212596D01*
X0019608Y0212462D01*
X0019516Y0212330D01*
X0019421Y0212200D01*
X0019323Y0212072D01*
X0019222Y0211947D01*
X0019118Y0211825D01*
X0019011Y0211705D01*
X0018901Y0211588D01*
X0018788Y0211473D01*
X0018672Y0211362D01*
X0018553Y0211253D01*
X0018432Y0211148D01*
X0018308Y0211045D01*
X0018182Y0210945D01*
X0018054Y0210849D01*
X0017923Y0210756D01*
X0017789Y0210666D01*
X0017654Y0210579D01*
X0017516Y0210496D01*
X0017377Y0210416D01*
X0017235Y0210340D01*
X0017092Y0210267D01*
X0016947Y0210198D01*
X0016800Y0210132D01*
X0016652Y0210070D01*
X0016502Y0210012D01*
X0016351Y0209957D01*
X0016198Y0209906D01*
X0016044Y0209859D01*
X0015889Y0209816D01*
X0015733Y0209777D01*
X0015577Y0209741D01*
X0015419Y0209710D01*
X0015261Y0209682D01*
X0015102Y0209658D01*
X0014942Y0209638D01*
X0014782Y0209622D01*
X0014622Y0209610D01*
X0014461Y0209602D01*
X0014300Y0209598D01*
X0014140Y0209598D01*
X0013979Y0209602D01*
X0013818Y0209610D01*
X0013658Y0209622D01*
X0013498Y0209638D01*
X0013338Y0209658D01*
X0013179Y0209682D01*
X0013021Y0209710D01*
X0012863Y0209741D01*
X0012707Y0209777D01*
X0012551Y0209816D01*
X0012396Y0209859D01*
X0012242Y0209906D01*
X0012089Y0209957D01*
X0011938Y0210012D01*
X0011788Y0210070D01*
X0011640Y0210132D01*
X0011493Y0210198D01*
X0011348Y0210267D01*
X0011205Y0210340D01*
X0011063Y0210416D01*
X0010924Y0210496D01*
X0010786Y0210579D01*
X0010651Y0210666D01*
X0010517Y0210756D01*
X0010386Y0210849D01*
X0010258Y0210945D01*
X0010132Y0211045D01*
X0010008Y0211148D01*
X0009887Y0211253D01*
X0009768Y0211362D01*
X0009652Y0211473D01*
X0009539Y0211588D01*
X0009429Y0211705D01*
X0009322Y0211825D01*
X0009218Y0211947D01*
X0009117Y0212072D01*
X0009019Y0212200D01*
X0008924Y0212330D01*
X0008832Y0212462D01*
X0008744Y0212596D01*
X0008659Y0212733D01*
X0008577Y0212871D01*
X0008499Y0213012D01*
X0008425Y0213154D01*
X0008354Y0213298D01*
X0008286Y0213444D01*
X0008223Y0213592D01*
X0008162Y0213741D01*
X0008106Y0213892D01*
X0008053Y0214044D01*
X0008004Y0214197D01*
X0007959Y0214351D01*
X0007918Y0214506D01*
X0007880Y0214663D01*
X0007847Y0214820D01*
X0007817Y0214978D01*
X0007791Y0215137D01*
X0007770Y0215296D01*
X0007752Y0215456D01*
X0007738Y0215616D01*
X0007728Y0215777D01*
X0007722Y0215937D01*
X0007720Y0216098D01*
D11*
X0182738Y0186557D02*
X0185466Y0186557D01*
X0185466Y0182647D01*
X0182738Y0182647D01*
X0182738Y0186557D01*
X0182738Y0184248D02*
X0185466Y0184248D01*
X0185466Y0185849D02*
X0182738Y0185849D01*
X0190612Y0186557D02*
X0193340Y0186557D01*
X0193340Y0182647D01*
X0190612Y0182647D01*
X0190612Y0186557D01*
X0190612Y0184248D02*
X0193340Y0184248D01*
X0193340Y0185849D02*
X0190612Y0185849D01*
X0190612Y0178683D02*
X0193340Y0178683D01*
X0193340Y0174773D01*
X0190612Y0174773D01*
X0190612Y0178683D01*
X0190612Y0176374D02*
X0193340Y0176374D01*
X0193340Y0177975D02*
X0190612Y0177975D01*
X0185466Y0178683D02*
X0182738Y0178683D01*
X0185466Y0178683D02*
X0185466Y0174773D01*
X0182738Y0174773D01*
X0182738Y0178683D01*
X0182738Y0176374D02*
X0185466Y0176374D01*
X0185466Y0177975D02*
X0182738Y0177975D01*
X0182147Y0170218D02*
X0182147Y0167490D01*
X0182147Y0170218D02*
X0186057Y0170218D01*
X0186057Y0167490D01*
X0182147Y0167490D01*
X0182147Y0169091D02*
X0186057Y0169091D01*
X0182147Y0162344D02*
X0182147Y0159616D01*
X0182147Y0162344D02*
X0186057Y0162344D01*
X0186057Y0159616D01*
X0182147Y0159616D01*
X0182147Y0161217D02*
X0186057Y0161217D01*
D12*
X0170480Y0130547D03*
X0160480Y0130547D03*
X0150480Y0130547D03*
X0150480Y0120547D03*
X0160480Y0120547D03*
X0170480Y0120547D03*
D13*
X0120323Y0113736D02*
X0114023Y0113736D01*
X0114023Y0121610D01*
X0120323Y0121610D01*
X0120323Y0113736D01*
X0120323Y0115310D02*
X0114023Y0115310D01*
X0114023Y0116884D02*
X0120323Y0116884D01*
X0120323Y0118458D02*
X0114023Y0118458D01*
X0114023Y0120032D02*
X0120323Y0120032D01*
X0120323Y0121606D02*
X0114023Y0121606D01*
X0104575Y0121610D02*
X0098275Y0121610D01*
X0104575Y0121610D02*
X0104575Y0113736D01*
X0098275Y0113736D01*
X0098275Y0121610D01*
X0098275Y0115310D02*
X0104575Y0115310D01*
X0104575Y0116884D02*
X0098275Y0116884D01*
X0098275Y0118458D02*
X0104575Y0118458D01*
X0104575Y0120032D02*
X0098275Y0120032D01*
X0098275Y0121606D02*
X0104575Y0121606D01*
X0239134Y0166695D02*
X0243858Y0166695D01*
X0243858Y0161171D01*
X0239134Y0161171D01*
X0239134Y0166695D01*
X0239134Y0162745D02*
X0243858Y0162745D01*
X0243858Y0164319D02*
X0239134Y0164319D01*
X0239134Y0165893D02*
X0243858Y0165893D01*
X0250331Y0166695D02*
X0255055Y0166695D01*
X0255055Y0161171D01*
X0250331Y0161171D01*
X0250331Y0166695D01*
X0250331Y0162745D02*
X0255055Y0162745D01*
X0255055Y0164319D02*
X0250331Y0164319D01*
X0250331Y0165893D02*
X0255055Y0165893D01*
D14*
X0252207Y0175936D02*
X0248675Y0175936D01*
X0252207Y0175936D02*
X0252207Y0171616D01*
X0248675Y0171616D01*
X0248675Y0175936D01*
X0248675Y0173202D02*
X0252207Y0173202D01*
X0252207Y0174788D02*
X0248675Y0174788D01*
X0245514Y0175936D02*
X0241982Y0175936D01*
X0245514Y0175936D02*
X0245514Y0171616D01*
X0241982Y0171616D01*
X0241982Y0175936D01*
X0241982Y0173202D02*
X0245514Y0173202D01*
X0245514Y0174788D02*
X0241982Y0174788D01*
X0241982Y0184794D02*
X0245514Y0184794D01*
X0245514Y0180474D01*
X0241982Y0180474D01*
X0241982Y0184794D01*
X0241982Y0182060D02*
X0245514Y0182060D01*
X0245514Y0183646D02*
X0241982Y0183646D01*
X0248675Y0184794D02*
X0252207Y0184794D01*
X0252207Y0180474D01*
X0248675Y0180474D01*
X0248675Y0184794D01*
X0248675Y0182060D02*
X0252207Y0182060D01*
X0252207Y0183646D02*
X0248675Y0183646D01*
X0248675Y0139135D02*
X0252207Y0139135D01*
X0248675Y0139135D02*
X0248675Y0143455D01*
X0252207Y0143455D01*
X0252207Y0139135D01*
X0252207Y0140721D02*
X0248675Y0140721D01*
X0248675Y0142307D02*
X0252207Y0142307D01*
X0245514Y0139135D02*
X0241982Y0139135D01*
X0241982Y0143455D01*
X0245514Y0143455D01*
X0245514Y0139135D01*
X0245514Y0140721D02*
X0241982Y0140721D01*
X0241982Y0142307D02*
X0245514Y0142307D01*
X0155553Y0171340D02*
X0152021Y0171340D01*
X0152021Y0175660D01*
X0155553Y0175660D01*
X0155553Y0171340D01*
X0155553Y0172926D02*
X0152021Y0172926D01*
X0152021Y0174512D02*
X0155553Y0174512D01*
X0148860Y0171340D02*
X0145328Y0171340D01*
X0145328Y0175660D01*
X0148860Y0175660D01*
X0148860Y0171340D01*
X0148860Y0172926D02*
X0145328Y0172926D01*
X0145328Y0174512D02*
X0148860Y0174512D01*
X0136065Y0115513D02*
X0132533Y0115513D01*
X0132533Y0119833D01*
X0136065Y0119833D01*
X0136065Y0115513D01*
X0136065Y0117099D02*
X0132533Y0117099D01*
X0132533Y0118685D02*
X0136065Y0118685D01*
X0129372Y0115513D02*
X0125840Y0115513D01*
X0125840Y0119833D01*
X0129372Y0119833D01*
X0129372Y0115513D01*
X0129372Y0117099D02*
X0125840Y0117099D01*
X0125840Y0118685D02*
X0129372Y0118685D01*
X0092758Y0119833D02*
X0089226Y0119833D01*
X0092758Y0119833D02*
X0092758Y0115513D01*
X0089226Y0115513D01*
X0089226Y0119833D01*
X0089226Y0117099D02*
X0092758Y0117099D01*
X0092758Y0118685D02*
X0089226Y0118685D01*
X0086065Y0119833D02*
X0082533Y0119833D01*
X0086065Y0119833D02*
X0086065Y0115513D01*
X0082533Y0115513D01*
X0082533Y0119833D01*
X0082533Y0117099D02*
X0086065Y0117099D01*
X0086065Y0118685D02*
X0082533Y0118685D01*
D15*
X0243540Y0149772D02*
X0243540Y0154472D01*
X0243540Y0149772D02*
X0239626Y0149772D01*
X0239626Y0154472D01*
X0243540Y0154472D01*
X0243540Y0151369D02*
X0239626Y0151369D01*
X0239626Y0152966D02*
X0243540Y0152966D01*
X0254563Y0154472D02*
X0254563Y0149772D01*
X0250649Y0149772D01*
X0250649Y0154472D01*
X0254563Y0154472D01*
X0254563Y0151369D02*
X0250649Y0151369D01*
X0250649Y0152966D02*
X0254563Y0152966D01*
D16*
X0237449Y0208520D02*
X0237449Y0212654D01*
X0234890Y0212654D02*
X0234890Y0208520D01*
X0232331Y0208520D02*
X0232331Y0212654D01*
X0229772Y0212654D02*
X0229772Y0208520D01*
X0227213Y0208520D02*
X0227213Y0212654D01*
D17*
X0219311Y0218095D02*
X0213855Y0218095D01*
X0213855Y0223945D01*
X0219311Y0223945D01*
X0219311Y0218095D01*
X0219311Y0219724D02*
X0213855Y0219724D01*
X0213855Y0221353D02*
X0219311Y0221353D01*
X0219311Y0222982D02*
X0213855Y0222982D01*
X0245351Y0218095D02*
X0250807Y0218095D01*
X0245351Y0218095D02*
X0245351Y0223945D01*
X0250807Y0223945D01*
X0250807Y0218095D01*
X0250807Y0219724D02*
X0245351Y0219724D01*
X0245351Y0221353D02*
X0250807Y0221353D01*
X0250807Y0222982D02*
X0245351Y0222982D01*
D18*
X0240286Y0218065D02*
X0234376Y0218065D01*
X0234376Y0223975D01*
X0240286Y0223975D01*
X0240286Y0218065D01*
X0240286Y0219635D02*
X0234376Y0219635D01*
X0234376Y0221205D02*
X0240286Y0221205D01*
X0240286Y0222775D02*
X0234376Y0222775D01*
X0230286Y0218065D02*
X0224376Y0218065D01*
X0224376Y0223975D01*
X0230286Y0223975D01*
X0230286Y0218065D01*
X0230286Y0219635D02*
X0224376Y0219635D01*
X0224376Y0221205D02*
X0230286Y0221205D01*
X0230286Y0222775D02*
X0224376Y0222775D01*
D19*
X0132558Y0189435D02*
X0128246Y0189435D01*
X0132558Y0189435D02*
X0132558Y0189061D01*
X0128246Y0189061D01*
X0128246Y0189435D01*
X0128246Y0186285D02*
X0132558Y0186285D01*
X0132558Y0185911D01*
X0128246Y0185911D01*
X0128246Y0186285D01*
X0128246Y0183136D02*
X0132558Y0183136D01*
X0132558Y0182762D01*
X0128246Y0182762D01*
X0128246Y0183136D01*
X0128246Y0179986D02*
X0132558Y0179986D01*
X0132558Y0179612D01*
X0128246Y0179612D01*
X0128246Y0179986D01*
X0128246Y0176837D02*
X0132558Y0176837D01*
X0132558Y0176463D01*
X0128246Y0176463D01*
X0128246Y0176837D01*
X0128246Y0173687D02*
X0132558Y0173687D01*
X0132558Y0173313D01*
X0128246Y0173313D01*
X0128246Y0173687D01*
X0128246Y0170537D02*
X0132558Y0170537D01*
X0132558Y0170163D01*
X0128246Y0170163D01*
X0128246Y0170537D01*
X0128246Y0167388D02*
X0132558Y0167388D01*
X0132558Y0167014D01*
X0128246Y0167014D01*
X0128246Y0167388D01*
X0128246Y0164238D02*
X0132558Y0164238D01*
X0132558Y0163864D01*
X0128246Y0163864D01*
X0128246Y0164238D01*
X0128246Y0161089D02*
X0132558Y0161089D01*
X0132558Y0160715D01*
X0128246Y0160715D01*
X0128246Y0161089D01*
X0128246Y0157939D02*
X0132558Y0157939D01*
X0132558Y0157565D01*
X0128246Y0157565D01*
X0128246Y0157939D01*
X0123502Y0152821D02*
X0123128Y0152821D01*
X0123502Y0152821D02*
X0123502Y0148509D01*
X0123128Y0148509D01*
X0123128Y0152821D01*
X0123128Y0150102D02*
X0123502Y0150102D01*
X0123502Y0151695D02*
X0123128Y0151695D01*
X0120352Y0152821D02*
X0119978Y0152821D01*
X0120352Y0152821D02*
X0120352Y0148509D01*
X0119978Y0148509D01*
X0119978Y0152821D01*
X0119978Y0150102D02*
X0120352Y0150102D01*
X0120352Y0151695D02*
X0119978Y0151695D01*
X0117203Y0152821D02*
X0116829Y0152821D01*
X0117203Y0152821D02*
X0117203Y0148509D01*
X0116829Y0148509D01*
X0116829Y0152821D01*
X0116829Y0150102D02*
X0117203Y0150102D01*
X0117203Y0151695D02*
X0116829Y0151695D01*
X0114053Y0152821D02*
X0113679Y0152821D01*
X0114053Y0152821D02*
X0114053Y0148509D01*
X0113679Y0148509D01*
X0113679Y0152821D01*
X0113679Y0150102D02*
X0114053Y0150102D01*
X0114053Y0151695D02*
X0113679Y0151695D01*
X0110904Y0152821D02*
X0110530Y0152821D01*
X0110904Y0152821D02*
X0110904Y0148509D01*
X0110530Y0148509D01*
X0110530Y0152821D01*
X0110530Y0150102D02*
X0110904Y0150102D01*
X0110904Y0151695D02*
X0110530Y0151695D01*
X0107754Y0152821D02*
X0107380Y0152821D01*
X0107754Y0152821D02*
X0107754Y0148509D01*
X0107380Y0148509D01*
X0107380Y0152821D01*
X0107380Y0150102D02*
X0107754Y0150102D01*
X0107754Y0151695D02*
X0107380Y0151695D01*
X0104604Y0152821D02*
X0104230Y0152821D01*
X0104604Y0152821D02*
X0104604Y0148509D01*
X0104230Y0148509D01*
X0104230Y0152821D01*
X0104230Y0150102D02*
X0104604Y0150102D01*
X0104604Y0151695D02*
X0104230Y0151695D01*
X0101455Y0152821D02*
X0101081Y0152821D01*
X0101455Y0152821D02*
X0101455Y0148509D01*
X0101081Y0148509D01*
X0101081Y0152821D01*
X0101081Y0150102D02*
X0101455Y0150102D01*
X0101455Y0151695D02*
X0101081Y0151695D01*
X0098305Y0152821D02*
X0097931Y0152821D01*
X0098305Y0152821D02*
X0098305Y0148509D01*
X0097931Y0148509D01*
X0097931Y0152821D01*
X0097931Y0150102D02*
X0098305Y0150102D01*
X0098305Y0151695D02*
X0097931Y0151695D01*
X0095156Y0152821D02*
X0094782Y0152821D01*
X0095156Y0152821D02*
X0095156Y0148509D01*
X0094782Y0148509D01*
X0094782Y0152821D01*
X0094782Y0150102D02*
X0095156Y0150102D01*
X0095156Y0151695D02*
X0094782Y0151695D01*
X0092006Y0152821D02*
X0091632Y0152821D01*
X0092006Y0152821D02*
X0092006Y0148509D01*
X0091632Y0148509D01*
X0091632Y0152821D01*
X0091632Y0150102D02*
X0092006Y0150102D01*
X0092006Y0151695D02*
X0091632Y0151695D01*
X0086888Y0157939D02*
X0082576Y0157939D01*
X0086888Y0157939D02*
X0086888Y0157565D01*
X0082576Y0157565D01*
X0082576Y0157939D01*
X0082576Y0161089D02*
X0086888Y0161089D01*
X0086888Y0160715D01*
X0082576Y0160715D01*
X0082576Y0161089D01*
X0082576Y0164238D02*
X0086888Y0164238D01*
X0086888Y0163864D01*
X0082576Y0163864D01*
X0082576Y0164238D01*
X0082576Y0167388D02*
X0086888Y0167388D01*
X0086888Y0167014D01*
X0082576Y0167014D01*
X0082576Y0167388D01*
X0082576Y0170537D02*
X0086888Y0170537D01*
X0086888Y0170163D01*
X0082576Y0170163D01*
X0082576Y0170537D01*
X0082576Y0173687D02*
X0086888Y0173687D01*
X0086888Y0173313D01*
X0082576Y0173313D01*
X0082576Y0173687D01*
X0082576Y0176837D02*
X0086888Y0176837D01*
X0086888Y0176463D01*
X0082576Y0176463D01*
X0082576Y0176837D01*
X0082576Y0179986D02*
X0086888Y0179986D01*
X0086888Y0179612D01*
X0082576Y0179612D01*
X0082576Y0179986D01*
X0082576Y0183136D02*
X0086888Y0183136D01*
X0086888Y0182762D01*
X0082576Y0182762D01*
X0082576Y0183136D01*
X0082576Y0186285D02*
X0086888Y0186285D01*
X0086888Y0185911D01*
X0082576Y0185911D01*
X0082576Y0186285D01*
X0082576Y0189435D02*
X0086888Y0189435D01*
X0086888Y0189061D01*
X0082576Y0189061D01*
X0082576Y0189435D01*
X0091632Y0198491D02*
X0092006Y0198491D01*
X0092006Y0194179D01*
X0091632Y0194179D01*
X0091632Y0198491D01*
X0091632Y0195772D02*
X0092006Y0195772D01*
X0092006Y0197365D02*
X0091632Y0197365D01*
X0094782Y0198491D02*
X0095156Y0198491D01*
X0095156Y0194179D01*
X0094782Y0194179D01*
X0094782Y0198491D01*
X0094782Y0195772D02*
X0095156Y0195772D01*
X0095156Y0197365D02*
X0094782Y0197365D01*
X0097931Y0198491D02*
X0098305Y0198491D01*
X0098305Y0194179D01*
X0097931Y0194179D01*
X0097931Y0198491D01*
X0097931Y0195772D02*
X0098305Y0195772D01*
X0098305Y0197365D02*
X0097931Y0197365D01*
X0101081Y0198491D02*
X0101455Y0198491D01*
X0101455Y0194179D01*
X0101081Y0194179D01*
X0101081Y0198491D01*
X0101081Y0195772D02*
X0101455Y0195772D01*
X0101455Y0197365D02*
X0101081Y0197365D01*
X0104230Y0198491D02*
X0104604Y0198491D01*
X0104604Y0194179D01*
X0104230Y0194179D01*
X0104230Y0198491D01*
X0104230Y0195772D02*
X0104604Y0195772D01*
X0104604Y0197365D02*
X0104230Y0197365D01*
X0107380Y0198491D02*
X0107754Y0198491D01*
X0107754Y0194179D01*
X0107380Y0194179D01*
X0107380Y0198491D01*
X0107380Y0195772D02*
X0107754Y0195772D01*
X0107754Y0197365D02*
X0107380Y0197365D01*
X0110530Y0198491D02*
X0110904Y0198491D01*
X0110904Y0194179D01*
X0110530Y0194179D01*
X0110530Y0198491D01*
X0110530Y0195772D02*
X0110904Y0195772D01*
X0110904Y0197365D02*
X0110530Y0197365D01*
X0113679Y0198491D02*
X0114053Y0198491D01*
X0114053Y0194179D01*
X0113679Y0194179D01*
X0113679Y0198491D01*
X0113679Y0195772D02*
X0114053Y0195772D01*
X0114053Y0197365D02*
X0113679Y0197365D01*
X0116829Y0198491D02*
X0117203Y0198491D01*
X0117203Y0194179D01*
X0116829Y0194179D01*
X0116829Y0198491D01*
X0116829Y0195772D02*
X0117203Y0195772D01*
X0117203Y0197365D02*
X0116829Y0197365D01*
X0119978Y0198491D02*
X0120352Y0198491D01*
X0120352Y0194179D01*
X0119978Y0194179D01*
X0119978Y0198491D01*
X0119978Y0195772D02*
X0120352Y0195772D01*
X0120352Y0197365D02*
X0119978Y0197365D01*
X0123128Y0198491D02*
X0123502Y0198491D01*
X0123502Y0194179D01*
X0123128Y0194179D01*
X0123128Y0198491D01*
X0123128Y0195772D02*
X0123502Y0195772D01*
X0123502Y0197365D02*
X0123128Y0197365D01*
D20*
X0181724Y0153437D02*
X0181724Y0152027D01*
X0181724Y0153437D02*
X0186134Y0153437D01*
X0186134Y0152027D01*
X0181724Y0152027D01*
X0181724Y0138437D02*
X0181724Y0137027D01*
X0181724Y0138437D02*
X0186134Y0138437D01*
X0186134Y0137027D01*
X0181724Y0137027D01*
X0203724Y0137027D02*
X0203724Y0138437D01*
X0208134Y0138437D01*
X0208134Y0137027D01*
X0203724Y0137027D01*
X0203724Y0152027D02*
X0203724Y0153437D01*
X0208134Y0153437D01*
X0208134Y0152027D01*
X0203724Y0152027D01*
D21*
X0154732Y0196413D03*
X0144732Y0196413D03*
X0131740Y0222004D03*
X0121740Y0222004D03*
X0111740Y0222004D03*
X0101740Y0222004D03*
X0091740Y0222004D03*
X0081740Y0222004D03*
X0046307Y0188539D03*
X0036307Y0188539D03*
X0036307Y0176728D03*
X0046307Y0176728D03*
X0132921Y0141295D03*
X0142921Y0141295D03*
X0168866Y0222004D03*
X0178866Y0222004D03*
X0188866Y0222004D03*
X0198866Y0222004D03*
D22*
X0204066Y0222174D02*
X0211539Y0222174D01*
X0211539Y0221520D02*
X0216083Y0221520D01*
X0216083Y0220520D01*
X0217083Y0220520D01*
X0217083Y0221520D01*
X0221626Y0221520D01*
X0221626Y0224173D01*
X0221537Y0224620D01*
X0221362Y0225041D01*
X0221138Y0225378D01*
X0222547Y0225378D01*
X0222091Y0224921D01*
X0222091Y0217118D01*
X0223429Y0215780D01*
X0231232Y0215780D01*
X0232331Y0216878D01*
X0233429Y0215780D01*
X0241232Y0215780D01*
X0242571Y0217118D01*
X0242571Y0224921D01*
X0242114Y0225378D01*
X0243524Y0225378D01*
X0243299Y0225041D01*
X0243124Y0224620D01*
X0243035Y0224173D01*
X0243035Y0221520D01*
X0247579Y0221520D01*
X0247579Y0220520D01*
X0243035Y0220520D01*
X0243035Y0217866D01*
X0243124Y0217419D01*
X0243299Y0216998D01*
X0243552Y0216619D01*
X0243875Y0216296D01*
X0244254Y0216043D01*
X0244675Y0215868D01*
X0245122Y0215780D01*
X0247579Y0215780D01*
X0247579Y0220520D01*
X0248579Y0220520D01*
X0248579Y0221520D01*
X0253122Y0221520D01*
X0253122Y0224173D01*
X0253033Y0224620D01*
X0252859Y0225041D01*
X0252634Y0225378D01*
X0260262Y0225378D01*
X0259435Y0224901D01*
X0257387Y0222853D01*
X0255939Y0220344D01*
X0255189Y0217547D01*
X0255189Y0214650D01*
X0255939Y0211853D01*
X0257387Y0209344D01*
X0259435Y0207296D01*
X0261943Y0205848D01*
X0264741Y0205098D01*
X0267637Y0205098D01*
X0270435Y0205848D01*
X0272943Y0207296D01*
X0274091Y0208444D01*
X0274091Y0089895D01*
X0272943Y0091042D01*
X0270435Y0092491D01*
X0267637Y0093240D01*
X0264741Y0093240D01*
X0261943Y0092491D01*
X0259435Y0091042D01*
X0257387Y0088994D01*
X0255939Y0086486D01*
X0255189Y0083688D01*
X0255189Y0080792D01*
X0255939Y0077994D01*
X0257387Y0075486D01*
X0259435Y0073438D01*
X0261943Y0071990D01*
X0264741Y0071240D01*
X0267637Y0071240D01*
X0270435Y0071990D01*
X0272943Y0073438D01*
X0274091Y0074585D01*
X0274091Y0047370D01*
X0198955Y0047370D01*
X0197301Y0046685D01*
X0196035Y0045419D01*
X0195350Y0043765D01*
X0195350Y0008000D01*
X0074429Y0008000D01*
X0074429Y0043765D01*
X0073744Y0045419D01*
X0072478Y0046685D01*
X0070824Y0047370D01*
X0007500Y0047370D01*
X0007500Y0049796D01*
X0009975Y0048368D01*
X0012772Y0047618D01*
X0015669Y0047618D01*
X0018466Y0048368D01*
X0020975Y0049816D01*
X0023023Y0051864D01*
X0024471Y0054372D01*
X0025220Y0057170D01*
X0025220Y0060066D01*
X0024471Y0062864D01*
X0023023Y0065372D01*
X0020975Y0067420D01*
X0018466Y0068868D01*
X0015669Y0069618D01*
X0012772Y0069618D01*
X0009975Y0068868D01*
X0007500Y0067440D01*
X0007500Y0207277D01*
X0009975Y0205848D01*
X0012772Y0205098D01*
X0015669Y0205098D01*
X0018466Y0205848D01*
X0020975Y0207296D01*
X0023023Y0209344D01*
X0024471Y0211853D01*
X0025220Y0214650D01*
X0025220Y0217547D01*
X0024471Y0220344D01*
X0023023Y0222853D01*
X0020975Y0224901D01*
X0020148Y0225378D01*
X0077760Y0225378D01*
X0077332Y0224949D01*
X0076540Y0223038D01*
X0076540Y0220970D01*
X0077332Y0219058D01*
X0078795Y0217596D01*
X0079740Y0217204D01*
X0079740Y0215270D01*
X0094278Y0200732D01*
X0094111Y0200699D01*
X0093693Y0200526D01*
X0093409Y0200336D01*
X0092957Y0200787D01*
X0090680Y0200787D01*
X0089335Y0199442D01*
X0089335Y0193228D01*
X0089819Y0192743D01*
X0089819Y0162902D01*
X0089174Y0162902D01*
X0089185Y0162913D01*
X0089185Y0165190D01*
X0088749Y0165626D01*
X0089185Y0166062D01*
X0089185Y0168339D01*
X0088749Y0168776D01*
X0089185Y0169212D01*
X0089185Y0171489D01*
X0088749Y0171925D01*
X0089185Y0172361D01*
X0089185Y0174639D01*
X0088749Y0175075D01*
X0089185Y0175511D01*
X0089185Y0177788D01*
X0088749Y0178224D01*
X0089185Y0178661D01*
X0089185Y0180938D01*
X0088749Y0181374D01*
X0089185Y0181810D01*
X0089185Y0184087D01*
X0088749Y0184524D01*
X0089185Y0184960D01*
X0089185Y0187237D01*
X0088749Y0187673D01*
X0089185Y0188109D01*
X0089185Y0190387D01*
X0087839Y0191732D01*
X0081625Y0191732D01*
X0080280Y0190387D01*
X0080280Y0188109D01*
X0080291Y0188098D01*
X0079803Y0188098D01*
X0079803Y0201179D01*
X0078632Y0202350D01*
X0021857Y0202350D01*
X0020685Y0201179D01*
X0020685Y0083380D01*
X0021857Y0082209D01*
X0126340Y0082209D01*
X0127124Y0081424D01*
X0128331Y0080924D01*
X0129638Y0080924D01*
X0130845Y0081424D01*
X0131768Y0082348D01*
X0132268Y0083555D01*
X0132268Y0084862D01*
X0131768Y0086069D01*
X0131692Y0086146D01*
X0173584Y0086146D01*
X0174368Y0085361D01*
X0175575Y0084861D01*
X0176882Y0084861D01*
X0178089Y0085361D01*
X0179013Y0086285D01*
X0179513Y0087492D01*
X0179513Y0088799D01*
X0179013Y0090006D01*
X0178089Y0090930D01*
X0176882Y0091430D01*
X0175575Y0091430D01*
X0174368Y0090930D01*
X0173584Y0090146D01*
X0121589Y0090146D01*
X0123337Y0091155D01*
X0125385Y0093203D01*
X0126833Y0095711D01*
X0127583Y0098509D01*
X0127583Y0101405D01*
X0126833Y0104203D01*
X0125385Y0106711D01*
X0123337Y0108759D01*
X0120829Y0110207D01*
X0118031Y0110957D01*
X0115134Y0110957D01*
X0112337Y0110207D01*
X0109829Y0108759D01*
X0107780Y0106711D01*
X0106332Y0104203D01*
X0105583Y0101405D01*
X0105583Y0098509D01*
X0106332Y0095711D01*
X0107780Y0093203D01*
X0109829Y0091155D01*
X0111576Y0090146D01*
X0028622Y0090146D01*
X0028622Y0194413D01*
X0071866Y0194413D01*
X0071866Y0189431D01*
X0070758Y0190539D01*
X0051107Y0190539D01*
X0050715Y0191485D01*
X0049253Y0192948D01*
X0047341Y0193739D01*
X0045273Y0193739D01*
X0043362Y0192948D01*
X0041899Y0191485D01*
X0041293Y0190022D01*
X0041126Y0190535D01*
X0040755Y0191265D01*
X0040273Y0191927D01*
X0039695Y0192506D01*
X0039032Y0192987D01*
X0038303Y0193358D01*
X0037525Y0193611D01*
X0036807Y0193725D01*
X0036807Y0189039D01*
X0035807Y0189039D01*
X0035807Y0188039D01*
X0036807Y0188039D01*
X0036807Y0183354D01*
X0037525Y0183467D01*
X0038303Y0183720D01*
X0039032Y0184092D01*
X0039695Y0184573D01*
X0040273Y0185152D01*
X0040755Y0185814D01*
X0041126Y0186543D01*
X0041293Y0187057D01*
X0041899Y0185594D01*
X0043362Y0184131D01*
X0045273Y0183339D01*
X0047341Y0183339D01*
X0049253Y0184131D01*
X0050715Y0185594D01*
X0051107Y0186539D01*
X0067929Y0186539D01*
X0067929Y0178971D01*
X0068250Y0178650D01*
X0051140Y0178650D01*
X0050715Y0179674D01*
X0049253Y0181137D01*
X0047341Y0181928D01*
X0045273Y0181928D01*
X0043362Y0181137D01*
X0041899Y0179674D01*
X0041293Y0178211D01*
X0041126Y0178724D01*
X0040755Y0179454D01*
X0040273Y0180116D01*
X0039695Y0180695D01*
X0039032Y0181176D01*
X0038303Y0181547D01*
X0037525Y0181800D01*
X0036807Y0181914D01*
X0036807Y0177228D01*
X0035807Y0177228D01*
X0035807Y0176228D01*
X0036807Y0176228D01*
X0036807Y0171543D01*
X0037525Y0171656D01*
X0038303Y0171909D01*
X0039032Y0172281D01*
X0039695Y0172762D01*
X0040273Y0173341D01*
X0040755Y0174003D01*
X0041126Y0174732D01*
X0041293Y0175245D01*
X0041899Y0173783D01*
X0043362Y0172320D01*
X0045273Y0171528D01*
X0047341Y0171528D01*
X0049253Y0172320D01*
X0050715Y0173783D01*
X0051074Y0174650D01*
X0056439Y0174650D01*
X0056118Y0174328D01*
X0056118Y0171499D01*
X0055334Y0170715D01*
X0054834Y0169508D01*
X0054834Y0168201D01*
X0055334Y0166994D01*
X0056258Y0166070D01*
X0057465Y0165570D01*
X0058771Y0165570D01*
X0058771Y0164264D01*
X0059271Y0163057D01*
X0060195Y0162133D01*
X0061402Y0161633D01*
X0062708Y0161633D01*
X0062708Y0160327D01*
X0063208Y0159120D01*
X0064132Y0158196D01*
X0065339Y0157696D01*
X0066645Y0157696D01*
X0066645Y0156390D01*
X0067145Y0155183D01*
X0068069Y0154259D01*
X0069276Y0153759D01*
X0070582Y0153759D01*
X0071790Y0154259D01*
X0072713Y0155183D01*
X0073213Y0156390D01*
X0073213Y0157697D01*
X0072713Y0158904D01*
X0071929Y0159688D01*
X0071929Y0162051D01*
X0080291Y0162051D01*
X0080280Y0162040D01*
X0080280Y0159763D01*
X0080731Y0159312D01*
X0080541Y0159027D01*
X0080368Y0158609D01*
X0080280Y0158165D01*
X0080280Y0157752D01*
X0084732Y0157752D01*
X0084732Y0157752D01*
X0080280Y0157752D01*
X0080280Y0157339D01*
X0080368Y0156895D01*
X0080541Y0156477D01*
X0080792Y0156101D01*
X0081112Y0155781D01*
X0081489Y0155529D01*
X0081907Y0155356D01*
X0082351Y0155268D01*
X0084732Y0155268D01*
X0084732Y0157752D01*
X0084732Y0157752D01*
X0084732Y0155268D01*
X0087114Y0155268D01*
X0087558Y0155356D01*
X0087976Y0155529D01*
X0088352Y0155781D01*
X0088672Y0156101D01*
X0088924Y0156477D01*
X0089097Y0156895D01*
X0089185Y0157339D01*
X0089185Y0157752D01*
X0089185Y0158165D01*
X0089097Y0158609D01*
X0088976Y0158902D01*
X0092647Y0158902D01*
X0093819Y0160073D01*
X0093819Y0186539D01*
X0115016Y0186539D01*
X0115016Y0154909D01*
X0114723Y0155030D01*
X0114279Y0155118D01*
X0113866Y0155118D01*
X0113453Y0155118D01*
X0113009Y0155030D01*
X0112591Y0154857D01*
X0112307Y0154667D01*
X0111855Y0155118D01*
X0109578Y0155118D01*
X0109142Y0154682D01*
X0108705Y0155118D01*
X0106428Y0155118D01*
X0105992Y0154682D01*
X0105556Y0155118D01*
X0103279Y0155118D01*
X0102843Y0154682D01*
X0102406Y0155118D01*
X0100129Y0155118D01*
X0099693Y0154682D01*
X0099257Y0155118D01*
X0096980Y0155118D01*
X0096543Y0154682D01*
X0096107Y0155118D01*
X0093830Y0155118D01*
X0093394Y0154682D01*
X0092957Y0155118D01*
X0090680Y0155118D01*
X0089335Y0153772D01*
X0089335Y0147558D01*
X0090680Y0146213D01*
X0092957Y0146213D01*
X0092969Y0146224D01*
X0092969Y0139358D01*
X0068637Y0139358D01*
X0067852Y0140143D01*
X0066645Y0140643D01*
X0065339Y0140643D01*
X0064132Y0140143D01*
X0063208Y0139219D01*
X0062708Y0138012D01*
X0062708Y0136705D01*
X0063208Y0135498D01*
X0064132Y0134574D01*
X0065339Y0134074D01*
X0066645Y0134074D01*
X0066645Y0132768D01*
X0067145Y0131561D01*
X0067222Y0131484D01*
X0033668Y0131484D01*
X0032496Y0130313D01*
X0032496Y0104570D01*
X0031712Y0103786D01*
X0031212Y0102578D01*
X0031212Y0101272D01*
X0031712Y0100065D01*
X0032636Y0099141D01*
X0033843Y0098641D01*
X0035149Y0098641D01*
X0036356Y0099141D01*
X0037280Y0100065D01*
X0037780Y0101272D01*
X0037780Y0102578D01*
X0037280Y0103786D01*
X0036496Y0104570D01*
X0036496Y0127484D01*
X0071159Y0127484D01*
X0071082Y0127408D01*
X0070582Y0126201D01*
X0070582Y0124894D01*
X0071082Y0123687D01*
X0072006Y0122763D01*
X0073213Y0122263D01*
X0074519Y0122263D01*
X0075727Y0122763D01*
X0076511Y0123547D01*
X0096978Y0123547D01*
X0095988Y0122558D01*
X0095988Y0119673D01*
X0095051Y0119673D01*
X0095051Y0120783D01*
X0093708Y0122126D01*
X0088276Y0122126D01*
X0087646Y0121495D01*
X0087527Y0121614D01*
X0087151Y0121865D01*
X0086734Y0122038D01*
X0086291Y0122126D01*
X0084799Y0122126D01*
X0084799Y0118173D01*
X0083799Y0118173D01*
X0083799Y0117173D01*
X0084799Y0117173D01*
X0084799Y0113220D01*
X0086291Y0113220D01*
X0086734Y0113309D01*
X0087151Y0113481D01*
X0087527Y0113732D01*
X0087646Y0113851D01*
X0088276Y0113220D01*
X0093708Y0113220D01*
X0095051Y0114564D01*
X0095051Y0115673D01*
X0095988Y0115673D01*
X0095988Y0112789D01*
X0097328Y0111449D01*
X0105522Y0111449D01*
X0106862Y0112789D01*
X0106862Y0115673D01*
X0108395Y0115673D01*
X0109142Y0116420D01*
X0109888Y0115673D01*
X0111736Y0115673D01*
X0111736Y0112789D01*
X0113076Y0111449D01*
X0121270Y0111449D01*
X0122610Y0112789D01*
X0122610Y0115673D01*
X0123547Y0115673D01*
X0123547Y0114564D01*
X0124891Y0113220D01*
X0130322Y0113220D01*
X0130953Y0113851D01*
X0131072Y0113732D01*
X0131447Y0113481D01*
X0131865Y0113309D01*
X0132308Y0113220D01*
X0133799Y0113220D01*
X0133799Y0117173D01*
X0134799Y0117173D01*
X0134799Y0113220D01*
X0136291Y0113220D01*
X0136734Y0113309D01*
X0137151Y0113481D01*
X0137527Y0113732D01*
X0137846Y0114052D01*
X0138097Y0114427D01*
X0138270Y0114845D01*
X0138358Y0115288D01*
X0138358Y0117173D01*
X0134799Y0117173D01*
X0134799Y0118173D01*
X0138358Y0118173D01*
X0138358Y0120059D01*
X0138270Y0120502D01*
X0138097Y0120919D01*
X0137846Y0121295D01*
X0137527Y0121614D01*
X0137151Y0121865D01*
X0136734Y0122038D01*
X0136291Y0122126D01*
X0134799Y0122126D01*
X0134799Y0118173D01*
X0133799Y0118173D01*
X0133799Y0122126D01*
X0132308Y0122126D01*
X0131865Y0122038D01*
X0131447Y0121865D01*
X0131072Y0121614D01*
X0130953Y0121495D01*
X0130322Y0122126D01*
X0124891Y0122126D01*
X0123547Y0120783D01*
X0123547Y0119673D01*
X0122610Y0119673D01*
X0122610Y0122558D01*
X0121270Y0123898D01*
X0113076Y0123898D01*
X0112717Y0123538D01*
X0112717Y0146422D01*
X0113009Y0146301D01*
X0113453Y0146213D01*
X0113866Y0146213D01*
X0113866Y0150665D01*
X0113866Y0150665D01*
X0113866Y0146213D01*
X0114279Y0146213D01*
X0114723Y0146301D01*
X0115141Y0146474D01*
X0115426Y0146664D01*
X0115877Y0146213D01*
X0118154Y0146213D01*
X0118165Y0146224D01*
X0118165Y0141412D01*
X0146669Y0112908D01*
X0147841Y0111736D01*
X0166230Y0111736D01*
X0167402Y0112908D01*
X0167402Y0118855D01*
X0167762Y0118316D01*
X0168249Y0117829D01*
X0168822Y0117446D01*
X0169459Y0117182D01*
X0170136Y0117047D01*
X0170480Y0117047D01*
X0170480Y0120547D01*
X0170480Y0120547D01*
X0170480Y0117047D01*
X0170825Y0117047D01*
X0171501Y0117182D01*
X0172138Y0117446D01*
X0172711Y0117829D01*
X0173199Y0118316D01*
X0173582Y0118889D01*
X0173846Y0119526D01*
X0173980Y0120203D01*
X0173980Y0120547D01*
X0170480Y0120547D01*
X0170480Y0120547D01*
X0173980Y0120547D01*
X0173980Y0120892D01*
X0173846Y0121568D01*
X0173582Y0122205D01*
X0173199Y0122778D01*
X0172711Y0123266D01*
X0172138Y0123649D01*
X0171624Y0123862D01*
X0172480Y0124719D01*
X0172480Y0127597D01*
X0173447Y0128565D01*
X0173980Y0129851D01*
X0173980Y0131243D01*
X0173447Y0132530D01*
X0172480Y0133497D01*
X0172480Y0150732D01*
X0179773Y0150732D01*
X0180773Y0149732D01*
X0187085Y0149732D01*
X0188429Y0151077D01*
X0188429Y0154388D01*
X0187085Y0155732D01*
X0185929Y0155732D01*
X0185929Y0157315D01*
X0187010Y0157315D01*
X0188358Y0158663D01*
X0188358Y0163298D01*
X0187010Y0164646D01*
X0181194Y0164646D01*
X0179846Y0163298D01*
X0179846Y0158663D01*
X0181194Y0157315D01*
X0181929Y0157315D01*
X0181929Y0155732D01*
X0180773Y0155732D01*
X0179773Y0154732D01*
X0169652Y0154732D01*
X0168480Y0153561D01*
X0168480Y0133497D01*
X0167513Y0132530D01*
X0166980Y0131243D01*
X0166980Y0129851D01*
X0167513Y0128565D01*
X0168480Y0127597D01*
X0168480Y0127547D01*
X0164573Y0127547D01*
X0163402Y0126376D01*
X0163402Y0122576D01*
X0162463Y0123514D01*
X0161177Y0124047D01*
X0159784Y0124047D01*
X0158498Y0123514D01*
X0157559Y0122576D01*
X0157559Y0128519D01*
X0158498Y0127580D01*
X0159784Y0127047D01*
X0161177Y0127047D01*
X0162463Y0127580D01*
X0163447Y0128565D01*
X0163980Y0129851D01*
X0163980Y0131243D01*
X0163447Y0132530D01*
X0162480Y0133497D01*
X0162480Y0164880D01*
X0161309Y0166051D01*
X0134843Y0166051D01*
X0134854Y0166062D01*
X0134854Y0168339D01*
X0134843Y0168350D01*
X0138795Y0168350D01*
X0138795Y0168026D01*
X0139967Y0166854D01*
X0179846Y0166854D01*
X0179846Y0166537D01*
X0181194Y0165189D01*
X0187010Y0165189D01*
X0188358Y0166537D01*
X0188358Y0166854D01*
X0226581Y0166854D01*
X0231502Y0161933D01*
X0236846Y0161933D01*
X0236846Y0160224D01*
X0238186Y0158884D01*
X0239583Y0158884D01*
X0239583Y0156772D01*
X0238674Y0156772D01*
X0237327Y0155425D01*
X0237327Y0148819D01*
X0238674Y0147472D01*
X0239583Y0147472D01*
X0239583Y0140467D01*
X0239689Y0140361D01*
X0239689Y0138186D01*
X0241032Y0136843D01*
X0246464Y0136843D01*
X0247094Y0137473D01*
X0247213Y0137354D01*
X0247589Y0137104D01*
X0248006Y0136931D01*
X0248449Y0136843D01*
X0249941Y0136843D01*
X0249941Y0140795D01*
X0250941Y0140795D01*
X0250941Y0136843D01*
X0252433Y0136843D01*
X0252876Y0136931D01*
X0253293Y0137104D01*
X0253669Y0137354D01*
X0253988Y0137674D01*
X0254239Y0138050D01*
X0254412Y0138467D01*
X0254500Y0138910D01*
X0254500Y0140795D01*
X0250941Y0140795D01*
X0250941Y0141795D01*
X0254500Y0141795D01*
X0254500Y0143681D01*
X0254412Y0144124D01*
X0254239Y0144541D01*
X0253988Y0144917D01*
X0253669Y0145236D01*
X0253293Y0145487D01*
X0252876Y0145660D01*
X0252433Y0145748D01*
X0250941Y0145748D01*
X0250941Y0141795D01*
X0249941Y0141795D01*
X0249941Y0145748D01*
X0248449Y0145748D01*
X0248006Y0145660D01*
X0247589Y0145487D01*
X0247213Y0145236D01*
X0247094Y0145117D01*
X0246464Y0145748D01*
X0243583Y0145748D01*
X0243583Y0147472D01*
X0244492Y0147472D01*
X0245839Y0148819D01*
X0245839Y0155425D01*
X0244492Y0156772D01*
X0243583Y0156772D01*
X0243583Y0158884D01*
X0244806Y0158884D01*
X0246146Y0160224D01*
X0246146Y0167642D01*
X0244806Y0168982D01*
X0238186Y0168982D01*
X0236846Y0167642D01*
X0236846Y0165933D01*
X0233159Y0165933D01*
X0228238Y0170854D01*
X0188358Y0170854D01*
X0188358Y0171172D01*
X0187010Y0172520D01*
X0186467Y0172520D01*
X0187768Y0173820D01*
X0187768Y0179636D01*
X0186739Y0180665D01*
X0187768Y0181694D01*
X0187768Y0182872D01*
X0188038Y0182602D01*
X0188311Y0182602D01*
X0188311Y0181694D01*
X0189340Y0180665D01*
X0188311Y0179636D01*
X0188311Y0173820D01*
X0189659Y0172472D01*
X0194294Y0172472D01*
X0195642Y0173820D01*
X0195642Y0174728D01*
X0233159Y0174728D01*
X0234331Y0175900D01*
X0234331Y0194413D01*
X0236576Y0194413D01*
X0237360Y0193629D01*
X0238567Y0193129D01*
X0239874Y0193129D01*
X0241081Y0193629D01*
X0242005Y0194553D01*
X0242505Y0195760D01*
X0242505Y0197067D01*
X0242005Y0198274D01*
X0241081Y0199198D01*
X0239874Y0199698D01*
X0238567Y0199698D01*
X0237360Y0199198D01*
X0236576Y0198413D01*
X0234331Y0198413D01*
X0234331Y0206331D01*
X0235796Y0206331D01*
X0236187Y0206721D01*
X0236604Y0206480D01*
X0237161Y0206331D01*
X0237449Y0206331D01*
X0237737Y0206331D01*
X0238294Y0206480D01*
X0238793Y0206768D01*
X0239200Y0207176D01*
X0239489Y0207675D01*
X0239638Y0208231D01*
X0239638Y0210587D01*
X0239638Y0212942D01*
X0239489Y0213498D01*
X0239200Y0213998D01*
X0238793Y0214405D01*
X0238294Y0214693D01*
X0237737Y0214843D01*
X0237449Y0214843D01*
X0237449Y0210587D01*
X0237449Y0210587D01*
X0239638Y0210587D01*
X0237449Y0210587D01*
X0237449Y0210587D01*
X0237449Y0214843D01*
X0237161Y0214843D01*
X0236604Y0214693D01*
X0236187Y0214452D01*
X0235796Y0214843D01*
X0233983Y0214843D01*
X0233610Y0214470D01*
X0233237Y0214843D01*
X0231424Y0214843D01*
X0231051Y0214470D01*
X0230678Y0214843D01*
X0228865Y0214843D01*
X0228492Y0214470D01*
X0228119Y0214843D01*
X0226306Y0214843D01*
X0225024Y0213560D01*
X0225024Y0207613D01*
X0225213Y0207424D01*
X0225213Y0191524D01*
X0207695Y0191524D01*
X0206744Y0192475D01*
X0205464Y0193005D01*
X0204079Y0193005D01*
X0202800Y0192475D01*
X0201821Y0191495D01*
X0201291Y0190216D01*
X0201291Y0188831D01*
X0201821Y0187552D01*
X0202770Y0186602D01*
X0195642Y0186602D01*
X0195642Y0187510D01*
X0194294Y0188858D01*
X0190866Y0188858D01*
X0190866Y0217204D01*
X0191812Y0217596D01*
X0193274Y0219058D01*
X0193866Y0220487D01*
X0194458Y0219058D01*
X0195921Y0217596D01*
X0197832Y0216804D01*
X0199900Y0216804D01*
X0201812Y0217596D01*
X0203274Y0219058D01*
X0204066Y0220970D01*
X0204066Y0223038D01*
X0203274Y0224949D01*
X0202846Y0225378D01*
X0212028Y0225378D01*
X0211803Y0225041D01*
X0211628Y0224620D01*
X0211539Y0224173D01*
X0211539Y0221520D01*
X0211539Y0220520D02*
X0211539Y0217866D01*
X0211628Y0217419D01*
X0211803Y0216998D01*
X0212056Y0216619D01*
X0212379Y0216296D01*
X0212758Y0216043D01*
X0213179Y0215868D01*
X0213626Y0215780D01*
X0216083Y0215780D01*
X0216083Y0220520D01*
X0211539Y0220520D01*
X0211539Y0220177D02*
X0203738Y0220177D01*
X0204066Y0221175D02*
X0216083Y0221175D01*
X0216083Y0220177D02*
X0217083Y0220177D01*
X0217083Y0220520D02*
X0217083Y0215780D01*
X0219539Y0215780D01*
X0219986Y0215868D01*
X0220408Y0216043D01*
X0220787Y0216296D01*
X0221109Y0216619D01*
X0221362Y0216998D01*
X0221537Y0217419D01*
X0221626Y0217866D01*
X0221626Y0220520D01*
X0217083Y0220520D01*
X0217083Y0221175D02*
X0222091Y0221175D01*
X0222091Y0220177D02*
X0221626Y0220177D01*
X0221626Y0219178D02*
X0222091Y0219178D01*
X0222091Y0218180D02*
X0221626Y0218180D01*
X0221438Y0217181D02*
X0222091Y0217181D01*
X0223026Y0216183D02*
X0220617Y0216183D01*
X0217083Y0216183D02*
X0216083Y0216183D01*
X0216083Y0217181D02*
X0217083Y0217181D01*
X0217083Y0218180D02*
X0216083Y0218180D01*
X0216083Y0219178D02*
X0217083Y0219178D01*
X0212548Y0216183D02*
X0190866Y0216183D01*
X0190866Y0217181D02*
X0196920Y0217181D01*
X0195336Y0218180D02*
X0192396Y0218180D01*
X0193324Y0219178D02*
X0194408Y0219178D01*
X0193994Y0220177D02*
X0193738Y0220177D01*
X0188866Y0222004D02*
X0188866Y0184602D01*
X0191976Y0184602D01*
X0229772Y0184602D01*
X0229772Y0210587D01*
X0232331Y0210587D02*
X0232331Y0196413D01*
X0239220Y0196413D01*
X0242279Y0195214D02*
X0274091Y0195214D01*
X0274091Y0194216D02*
X0241667Y0194216D01*
X0240086Y0193217D02*
X0274091Y0193217D01*
X0274091Y0192219D02*
X0252669Y0192219D01*
X0252413Y0192475D02*
X0251133Y0193005D01*
X0249748Y0193005D01*
X0248469Y0192475D01*
X0247490Y0191495D01*
X0246960Y0190216D01*
X0246960Y0188831D01*
X0247490Y0187552D01*
X0247955Y0187087D01*
X0247725Y0187087D01*
X0247094Y0186456D01*
X0246976Y0186575D01*
X0246600Y0186826D01*
X0246183Y0186998D01*
X0245740Y0187087D01*
X0244248Y0187087D01*
X0244248Y0183134D01*
X0243248Y0183134D01*
X0243248Y0187087D01*
X0241756Y0187087D01*
X0241313Y0186998D01*
X0240896Y0186826D01*
X0240520Y0186575D01*
X0240201Y0186255D01*
X0239950Y0185880D01*
X0239777Y0185462D01*
X0239689Y0185019D01*
X0239689Y0183134D01*
X0243248Y0183134D01*
X0243248Y0182134D01*
X0239689Y0182134D01*
X0239689Y0180249D01*
X0239777Y0179805D01*
X0239950Y0179388D01*
X0240201Y0179013D01*
X0240520Y0178693D01*
X0240896Y0178442D01*
X0241313Y0178269D01*
X0241638Y0178205D01*
X0241313Y0178140D01*
X0240896Y0177967D01*
X0240520Y0177716D01*
X0240201Y0177397D01*
X0239950Y0177021D01*
X0239777Y0176604D01*
X0239689Y0176161D01*
X0239689Y0174276D01*
X0243248Y0174276D01*
X0243248Y0182134D01*
X0244248Y0182134D01*
X0244248Y0178181D01*
X0244248Y0174276D01*
X0243248Y0174276D01*
X0243248Y0173276D01*
X0239689Y0173276D01*
X0239689Y0171390D01*
X0239777Y0170947D01*
X0239950Y0170530D01*
X0240201Y0170154D01*
X0240520Y0169835D01*
X0240896Y0169584D01*
X0241313Y0169411D01*
X0241756Y0169323D01*
X0243248Y0169323D01*
X0243248Y0173276D01*
X0244248Y0173276D01*
X0244248Y0169323D01*
X0245740Y0169323D01*
X0246183Y0169411D01*
X0246600Y0169584D01*
X0246976Y0169835D01*
X0247094Y0169954D01*
X0247725Y0169323D01*
X0250693Y0169323D01*
X0250693Y0168982D01*
X0249383Y0168982D01*
X0248043Y0167642D01*
X0248043Y0160224D01*
X0249383Y0158884D01*
X0256003Y0158884D01*
X0257343Y0160224D01*
X0257343Y0167642D01*
X0256003Y0168982D01*
X0254693Y0168982D01*
X0254693Y0174604D01*
X0254500Y0174797D01*
X0254500Y0176885D01*
X0253180Y0178205D01*
X0254500Y0179524D01*
X0254500Y0185743D01*
X0253157Y0187087D01*
X0252927Y0187087D01*
X0253392Y0187552D01*
X0253922Y0188831D01*
X0253922Y0190216D01*
X0253392Y0191495D01*
X0252413Y0192475D01*
X0253506Y0191220D02*
X0274091Y0191220D01*
X0274091Y0190222D02*
X0253920Y0190222D01*
X0253922Y0189223D02*
X0274091Y0189223D01*
X0274091Y0188225D02*
X0253671Y0188225D01*
X0253066Y0187226D02*
X0274091Y0187226D01*
X0274091Y0186228D02*
X0254016Y0186228D01*
X0254500Y0185229D02*
X0274091Y0185229D01*
X0274091Y0184231D02*
X0254500Y0184231D01*
X0254500Y0183232D02*
X0274091Y0183232D01*
X0274091Y0182234D02*
X0254500Y0182234D01*
X0254500Y0181235D02*
X0274091Y0181235D01*
X0274091Y0180237D02*
X0254500Y0180237D01*
X0254213Y0179238D02*
X0274091Y0179238D01*
X0274091Y0178239D02*
X0253215Y0178239D01*
X0254144Y0177241D02*
X0274091Y0177241D01*
X0274091Y0176242D02*
X0254500Y0176242D01*
X0254500Y0175244D02*
X0274091Y0175244D01*
X0274091Y0174245D02*
X0254693Y0174245D01*
X0254693Y0173247D02*
X0274091Y0173247D01*
X0274091Y0172248D02*
X0254693Y0172248D01*
X0254693Y0171250D02*
X0274091Y0171250D01*
X0274091Y0170251D02*
X0254693Y0170251D01*
X0254693Y0169253D02*
X0274091Y0169253D01*
X0274091Y0168254D02*
X0256730Y0168254D01*
X0257343Y0167256D02*
X0274091Y0167256D01*
X0274091Y0166257D02*
X0257343Y0166257D01*
X0257343Y0165259D02*
X0274091Y0165259D01*
X0274091Y0164260D02*
X0257343Y0164260D01*
X0257343Y0163262D02*
X0274091Y0163262D01*
X0274091Y0162263D02*
X0257343Y0162263D01*
X0257343Y0161265D02*
X0274091Y0161265D01*
X0274091Y0160266D02*
X0257343Y0160266D01*
X0256386Y0159268D02*
X0274091Y0159268D01*
X0274091Y0158269D02*
X0243583Y0158269D01*
X0243583Y0157271D02*
X0274091Y0157271D01*
X0274091Y0156272D02*
X0256008Y0156272D01*
X0256029Y0156258D02*
X0255652Y0156510D01*
X0255234Y0156683D01*
X0254789Y0156772D01*
X0253106Y0156772D01*
X0253106Y0152622D01*
X0252106Y0152622D01*
X0252106Y0151622D01*
X0248350Y0151622D01*
X0248350Y0149545D01*
X0248439Y0149101D01*
X0248612Y0148683D01*
X0248864Y0148306D01*
X0249184Y0147986D01*
X0249561Y0147734D01*
X0249979Y0147561D01*
X0250423Y0147472D01*
X0252106Y0147472D01*
X0252106Y0151622D01*
X0253106Y0151622D01*
X0253106Y0147472D01*
X0254789Y0147472D01*
X0255234Y0147561D01*
X0255652Y0147734D01*
X0256029Y0147986D01*
X0256349Y0148306D01*
X0256601Y0148683D01*
X0256774Y0149101D01*
X0256862Y0149545D01*
X0256862Y0151622D01*
X0253106Y0151622D01*
X0253106Y0152622D01*
X0256862Y0152622D01*
X0256862Y0154699D01*
X0256774Y0155143D01*
X0256601Y0155562D01*
X0256349Y0155938D01*
X0256029Y0156258D01*
X0256720Y0155274D02*
X0274091Y0155274D01*
X0274091Y0154275D02*
X0256862Y0154275D01*
X0256862Y0153277D02*
X0274091Y0153277D01*
X0274091Y0152278D02*
X0253106Y0152278D01*
X0253106Y0151280D02*
X0252106Y0151280D01*
X0252106Y0152278D02*
X0245839Y0152278D01*
X0245839Y0151280D02*
X0248350Y0151280D01*
X0248350Y0150281D02*
X0245839Y0150281D01*
X0245839Y0149283D02*
X0248403Y0149283D01*
X0248886Y0148284D02*
X0245303Y0148284D01*
X0243583Y0147286D02*
X0274091Y0147286D01*
X0274091Y0148284D02*
X0256327Y0148284D01*
X0256810Y0149283D02*
X0274091Y0149283D01*
X0274091Y0150281D02*
X0256862Y0150281D01*
X0256862Y0151280D02*
X0274091Y0151280D01*
X0274091Y0146287D02*
X0243583Y0146287D01*
X0239583Y0146287D02*
X0172480Y0146287D01*
X0172480Y0145289D02*
X0239583Y0145289D01*
X0239583Y0144290D02*
X0172480Y0144290D01*
X0172480Y0143292D02*
X0239583Y0143292D01*
X0239583Y0142293D02*
X0172480Y0142293D01*
X0172480Y0141295D02*
X0239583Y0141295D01*
X0239689Y0140296D02*
X0209521Y0140296D01*
X0209085Y0140732D02*
X0202773Y0140732D01*
X0201429Y0139388D01*
X0201429Y0136077D01*
X0202773Y0134732D01*
X0208917Y0134732D01*
X0208254Y0134349D01*
X0206206Y0132301D01*
X0204758Y0129793D01*
X0204008Y0126995D01*
X0204008Y0124099D01*
X0204758Y0121301D01*
X0206206Y0118793D01*
X0208254Y0116745D01*
X0210762Y0115297D01*
X0213560Y0114547D01*
X0216456Y0114547D01*
X0219254Y0115297D01*
X0221762Y0116745D01*
X0223810Y0118793D01*
X0225258Y0121301D01*
X0226008Y0124099D01*
X0226008Y0126995D01*
X0225258Y0129793D01*
X0223810Y0132301D01*
X0221762Y0134349D01*
X0219254Y0135798D01*
X0216456Y0136547D01*
X0213560Y0136547D01*
X0210762Y0135798D01*
X0209314Y0134962D01*
X0210429Y0136077D01*
X0210429Y0139388D01*
X0209085Y0140732D01*
X0210429Y0139298D02*
X0239689Y0139298D01*
X0239689Y0138299D02*
X0210429Y0138299D01*
X0210429Y0137301D02*
X0240574Y0137301D01*
X0241583Y0141295D02*
X0243748Y0141295D01*
X0241583Y0141295D02*
X0241583Y0152122D01*
X0241583Y0163933D01*
X0241496Y0163933D01*
X0232331Y0163933D01*
X0227409Y0168854D01*
X0184102Y0168854D01*
X0140795Y0168854D01*
X0140795Y0170350D01*
X0130402Y0170350D01*
X0121110Y0170350D01*
X0121110Y0186098D01*
X0130402Y0186098D01*
X0130402Y0182949D02*
X0184102Y0182949D01*
X0184102Y0184602D01*
X0180437Y0184949D02*
X0180437Y0187510D01*
X0181785Y0188858D01*
X0186420Y0188858D01*
X0186866Y0188412D01*
X0186866Y0217204D01*
X0185921Y0217596D01*
X0184458Y0219058D01*
X0183866Y0220487D01*
X0183274Y0219058D01*
X0181812Y0217596D01*
X0180866Y0217204D01*
X0180866Y0207396D01*
X0179695Y0206224D01*
X0129813Y0206224D01*
X0125315Y0201727D01*
X0125315Y0199926D01*
X0125799Y0199442D01*
X0125799Y0193228D01*
X0125315Y0192743D01*
X0125315Y0188098D01*
X0125960Y0188098D01*
X0125949Y0188109D01*
X0125949Y0190387D01*
X0127295Y0191732D01*
X0133509Y0191732D01*
X0133993Y0191248D01*
X0142732Y0191248D01*
X0142732Y0191613D01*
X0141787Y0192005D01*
X0140324Y0193468D01*
X0139532Y0195379D01*
X0139532Y0197448D01*
X0140324Y0199359D01*
X0141787Y0200822D01*
X0143698Y0201613D01*
X0145767Y0201613D01*
X0147678Y0200822D01*
X0149141Y0199359D01*
X0149746Y0197896D01*
X0149913Y0198409D01*
X0150285Y0199139D01*
X0150766Y0199801D01*
X0151345Y0200380D01*
X0152007Y0200861D01*
X0152736Y0201232D01*
X0153515Y0201485D01*
X0154232Y0201599D01*
X0154232Y0196913D01*
X0155232Y0196913D01*
X0159918Y0196913D01*
X0159804Y0197631D01*
X0159551Y0198409D01*
X0159180Y0199139D01*
X0158699Y0199801D01*
X0158120Y0200380D01*
X0157458Y0200861D01*
X0156728Y0201232D01*
X0155950Y0201485D01*
X0155232Y0201599D01*
X0155232Y0196913D01*
X0155232Y0195913D01*
X0155232Y0191228D01*
X0155950Y0191341D01*
X0156728Y0191594D01*
X0157458Y0191966D01*
X0158120Y0192447D01*
X0158699Y0193026D01*
X0159180Y0193688D01*
X0159551Y0194417D01*
X0159804Y0195196D01*
X0159918Y0195913D01*
X0155232Y0195913D01*
X0154232Y0195913D01*
X0154232Y0191228D01*
X0153515Y0191341D01*
X0152736Y0191594D01*
X0152007Y0191966D01*
X0151345Y0192447D01*
X0150766Y0193026D01*
X0150285Y0193688D01*
X0149913Y0194417D01*
X0149746Y0194931D01*
X0149141Y0193468D01*
X0147678Y0192005D01*
X0146732Y0191613D01*
X0146732Y0188420D01*
X0145561Y0187248D01*
X0134843Y0187248D01*
X0134854Y0187237D01*
X0134854Y0184960D01*
X0134843Y0184949D01*
X0180437Y0184949D01*
X0180437Y0185229D02*
X0134854Y0185229D01*
X0134854Y0186228D02*
X0180437Y0186228D01*
X0180437Y0187226D02*
X0134854Y0187226D01*
X0130402Y0189248D02*
X0144732Y0189248D01*
X0144732Y0196413D01*
X0141172Y0200207D02*
X0125315Y0200207D01*
X0125315Y0201205D02*
X0142713Y0201205D01*
X0140262Y0199208D02*
X0125799Y0199208D01*
X0125799Y0198210D02*
X0139848Y0198210D01*
X0139532Y0197211D02*
X0125799Y0197211D01*
X0125799Y0196213D02*
X0139532Y0196213D01*
X0139601Y0195214D02*
X0125799Y0195214D01*
X0125799Y0194216D02*
X0140014Y0194216D01*
X0140575Y0193217D02*
X0125789Y0193217D01*
X0125315Y0192219D02*
X0141573Y0192219D01*
X0146732Y0191220D02*
X0186866Y0191220D01*
X0186866Y0190222D02*
X0146732Y0190222D01*
X0146732Y0189223D02*
X0186866Y0189223D01*
X0186866Y0192219D02*
X0157805Y0192219D01*
X0158838Y0193217D02*
X0186866Y0193217D01*
X0186866Y0194216D02*
X0159449Y0194216D01*
X0159807Y0195214D02*
X0186866Y0195214D01*
X0186866Y0196213D02*
X0155232Y0196213D01*
X0155232Y0197211D02*
X0154232Y0197211D01*
X0154232Y0198210D02*
X0155232Y0198210D01*
X0155232Y0199208D02*
X0154232Y0199208D01*
X0154232Y0200207D02*
X0155232Y0200207D01*
X0155232Y0201205D02*
X0154232Y0201205D01*
X0152683Y0201205D02*
X0146752Y0201205D01*
X0148293Y0200207D02*
X0151172Y0200207D01*
X0150335Y0199208D02*
X0149203Y0199208D01*
X0149617Y0198210D02*
X0149848Y0198210D01*
X0150016Y0194216D02*
X0149450Y0194216D01*
X0148890Y0193217D02*
X0150627Y0193217D01*
X0151659Y0192219D02*
X0147891Y0192219D01*
X0146537Y0188225D02*
X0181151Y0188225D01*
X0187768Y0182234D02*
X0188311Y0182234D01*
X0188770Y0181235D02*
X0187308Y0181235D01*
X0187167Y0180237D02*
X0188911Y0180237D01*
X0188311Y0179238D02*
X0187768Y0179238D01*
X0187768Y0178239D02*
X0188311Y0178239D01*
X0188311Y0177241D02*
X0187768Y0177241D01*
X0187768Y0176242D02*
X0188311Y0176242D01*
X0188311Y0175244D02*
X0187768Y0175244D01*
X0187768Y0174245D02*
X0188311Y0174245D01*
X0188885Y0173247D02*
X0187194Y0173247D01*
X0187282Y0172248D02*
X0239689Y0172248D01*
X0239717Y0171250D02*
X0188280Y0171250D01*
X0188079Y0166257D02*
X0227178Y0166257D01*
X0228177Y0165259D02*
X0187080Y0165259D01*
X0187396Y0164260D02*
X0229175Y0164260D01*
X0230174Y0163262D02*
X0188358Y0163262D01*
X0188358Y0162263D02*
X0231172Y0162263D01*
X0232835Y0166257D02*
X0236846Y0166257D01*
X0236846Y0167256D02*
X0231836Y0167256D01*
X0230838Y0168254D02*
X0237458Y0168254D01*
X0240136Y0170251D02*
X0228841Y0170251D01*
X0229839Y0169253D02*
X0250693Y0169253D01*
X0248655Y0168254D02*
X0245534Y0168254D01*
X0246146Y0167256D02*
X0248043Y0167256D01*
X0248043Y0166257D02*
X0246146Y0166257D01*
X0246146Y0165259D02*
X0248043Y0165259D01*
X0248043Y0164260D02*
X0246146Y0164260D01*
X0246146Y0163262D02*
X0248043Y0163262D01*
X0248043Y0162263D02*
X0246146Y0162263D01*
X0246146Y0161265D02*
X0248043Y0161265D01*
X0248043Y0160266D02*
X0246146Y0160266D01*
X0245190Y0159268D02*
X0248999Y0159268D01*
X0249979Y0156683D02*
X0249561Y0156510D01*
X0249184Y0156258D01*
X0248864Y0155938D01*
X0248612Y0155562D01*
X0248439Y0155143D01*
X0248350Y0154699D01*
X0248350Y0152622D01*
X0252106Y0152622D01*
X0252106Y0156772D01*
X0250423Y0156772D01*
X0249979Y0156683D01*
X0249205Y0156272D02*
X0244991Y0156272D01*
X0245839Y0155274D02*
X0248493Y0155274D01*
X0248350Y0154275D02*
X0245839Y0154275D01*
X0245839Y0153277D02*
X0248350Y0153277D01*
X0252106Y0153277D02*
X0253106Y0153277D01*
X0253106Y0154275D02*
X0252106Y0154275D01*
X0252106Y0155274D02*
X0253106Y0155274D01*
X0253106Y0156272D02*
X0252106Y0156272D01*
X0252106Y0150281D02*
X0253106Y0150281D01*
X0253106Y0149283D02*
X0252106Y0149283D01*
X0252106Y0148284D02*
X0253106Y0148284D01*
X0253590Y0145289D02*
X0274091Y0145289D01*
X0274091Y0144290D02*
X0254343Y0144290D01*
X0254500Y0143292D02*
X0274091Y0143292D01*
X0274091Y0142293D02*
X0254500Y0142293D01*
X0254500Y0140296D02*
X0274091Y0140296D01*
X0274091Y0139298D02*
X0254500Y0139298D01*
X0254342Y0138299D02*
X0274091Y0138299D01*
X0274091Y0137301D02*
X0253588Y0137301D01*
X0250941Y0137301D02*
X0249941Y0137301D01*
X0249941Y0138299D02*
X0250941Y0138299D01*
X0250941Y0139298D02*
X0249941Y0139298D01*
X0249941Y0140296D02*
X0250941Y0140296D01*
X0250941Y0141295D02*
X0274091Y0141295D01*
X0274091Y0136302D02*
X0217371Y0136302D01*
X0220110Y0135303D02*
X0274091Y0135303D01*
X0274091Y0134305D02*
X0221806Y0134305D01*
X0222805Y0133306D02*
X0274091Y0133306D01*
X0274091Y0132308D02*
X0223803Y0132308D01*
X0224383Y0131309D02*
X0274091Y0131309D01*
X0274091Y0130311D02*
X0224959Y0130311D01*
X0225387Y0129312D02*
X0274091Y0129312D01*
X0274091Y0128314D02*
X0225655Y0128314D01*
X0225922Y0127315D02*
X0274091Y0127315D01*
X0274091Y0126317D02*
X0226008Y0126317D01*
X0226008Y0125318D02*
X0274091Y0125318D01*
X0274091Y0124320D02*
X0226008Y0124320D01*
X0225799Y0123321D02*
X0274091Y0123321D01*
X0274091Y0122323D02*
X0225532Y0122323D01*
X0225264Y0121324D02*
X0274091Y0121324D01*
X0274091Y0120326D02*
X0224695Y0120326D01*
X0224118Y0119327D02*
X0274091Y0119327D01*
X0274091Y0118329D02*
X0223346Y0118329D01*
X0222347Y0117330D02*
X0274091Y0117330D01*
X0274091Y0116332D02*
X0221046Y0116332D01*
X0219317Y0115333D02*
X0274091Y0115333D01*
X0274091Y0114335D02*
X0167402Y0114335D01*
X0167402Y0115333D02*
X0210699Y0115333D01*
X0208970Y0116332D02*
X0167402Y0116332D01*
X0167402Y0117330D02*
X0169101Y0117330D01*
X0170480Y0117330D02*
X0170480Y0117330D01*
X0170480Y0118329D02*
X0170480Y0118329D01*
X0170480Y0119327D02*
X0170480Y0119327D01*
X0170480Y0120326D02*
X0170480Y0120326D01*
X0171860Y0117330D02*
X0207668Y0117330D01*
X0206670Y0118329D02*
X0173207Y0118329D01*
X0173763Y0119327D02*
X0205897Y0119327D01*
X0205321Y0120326D02*
X0173980Y0120326D01*
X0173894Y0121324D02*
X0204751Y0121324D01*
X0204484Y0122323D02*
X0173503Y0122323D01*
X0172628Y0123321D02*
X0204216Y0123321D01*
X0204008Y0124320D02*
X0172081Y0124320D01*
X0172480Y0125318D02*
X0204008Y0125318D01*
X0204008Y0126317D02*
X0172480Y0126317D01*
X0172480Y0127315D02*
X0204094Y0127315D01*
X0204361Y0128314D02*
X0173197Y0128314D01*
X0173757Y0129312D02*
X0204629Y0129312D01*
X0205056Y0130311D02*
X0173980Y0130311D01*
X0173953Y0131309D02*
X0205633Y0131309D01*
X0206212Y0132308D02*
X0173539Y0132308D01*
X0172671Y0133306D02*
X0207211Y0133306D01*
X0208209Y0134305D02*
X0172480Y0134305D01*
X0172480Y0135303D02*
X0180202Y0135303D01*
X0180261Y0135245D02*
X0180637Y0134993D01*
X0181055Y0134820D01*
X0181498Y0134732D01*
X0183679Y0134732D01*
X0183679Y0137482D01*
X0184179Y0137482D01*
X0184179Y0134732D01*
X0186360Y0134732D01*
X0186804Y0134820D01*
X0187221Y0134993D01*
X0187597Y0135245D01*
X0187917Y0135564D01*
X0188168Y0135940D01*
X0188341Y0136358D01*
X0188429Y0136801D01*
X0188429Y0137482D01*
X0184179Y0137482D01*
X0184179Y0137982D01*
X0188429Y0137982D01*
X0188429Y0138663D01*
X0188341Y0139107D01*
X0188168Y0139524D01*
X0187917Y0139900D01*
X0187597Y0140220D01*
X0187221Y0140471D01*
X0186804Y0140644D01*
X0186360Y0140732D01*
X0184179Y0140732D01*
X0184179Y0137982D01*
X0183679Y0137982D01*
X0183679Y0137482D01*
X0179429Y0137482D01*
X0179429Y0136801D01*
X0179517Y0136358D01*
X0179690Y0135940D01*
X0179941Y0135564D01*
X0180261Y0135245D01*
X0179540Y0136302D02*
X0172480Y0136302D01*
X0172480Y0137301D02*
X0179429Y0137301D01*
X0179429Y0137982D02*
X0183679Y0137982D01*
X0183679Y0140732D01*
X0181498Y0140732D01*
X0181055Y0140644D01*
X0180637Y0140471D01*
X0180261Y0140220D01*
X0179941Y0139900D01*
X0179690Y0139524D01*
X0179517Y0139107D01*
X0179429Y0138663D01*
X0179429Y0137982D01*
X0179429Y0138299D02*
X0172480Y0138299D01*
X0172480Y0139298D02*
X0179596Y0139298D01*
X0180375Y0140296D02*
X0172480Y0140296D01*
X0168480Y0140296D02*
X0162480Y0140296D01*
X0162480Y0139298D02*
X0168480Y0139298D01*
X0168480Y0138299D02*
X0162480Y0138299D01*
X0162480Y0137301D02*
X0168480Y0137301D01*
X0168480Y0136302D02*
X0162480Y0136302D01*
X0162480Y0135303D02*
X0168480Y0135303D01*
X0168480Y0134305D02*
X0162480Y0134305D01*
X0162671Y0133306D02*
X0168290Y0133306D01*
X0167421Y0132308D02*
X0163539Y0132308D01*
X0163953Y0131309D02*
X0167008Y0131309D01*
X0166980Y0130311D02*
X0163980Y0130311D01*
X0163757Y0129312D02*
X0167203Y0129312D01*
X0167764Y0128314D02*
X0163197Y0128314D01*
X0164341Y0127315D02*
X0161824Y0127315D01*
X0163402Y0126317D02*
X0157559Y0126317D01*
X0157559Y0127315D02*
X0159137Y0127315D01*
X0157764Y0128314D02*
X0157559Y0128314D01*
X0160480Y0130547D02*
X0160480Y0164051D01*
X0130402Y0164051D01*
X0126385Y0162476D02*
X0125949Y0162040D01*
X0125949Y0159763D01*
X0126385Y0159327D01*
X0125949Y0158891D01*
X0125949Y0156613D01*
X0127295Y0155268D01*
X0133509Y0155268D01*
X0133993Y0155752D01*
X0148480Y0155752D01*
X0148480Y0133497D01*
X0147513Y0132530D01*
X0146980Y0131243D01*
X0146980Y0129851D01*
X0147513Y0128565D01*
X0148498Y0127580D01*
X0149784Y0127047D01*
X0151177Y0127047D01*
X0152463Y0127580D01*
X0153447Y0128565D01*
X0153559Y0128834D01*
X0153559Y0122260D01*
X0153447Y0122530D01*
X0152463Y0123514D01*
X0151177Y0124047D01*
X0149784Y0124047D01*
X0148498Y0123514D01*
X0147513Y0122530D01*
X0146980Y0121243D01*
X0146980Y0119851D01*
X0147513Y0118565D01*
X0148498Y0117580D01*
X0149784Y0117047D01*
X0151177Y0117047D01*
X0152463Y0117580D01*
X0153447Y0118565D01*
X0153818Y0119460D01*
X0154731Y0118547D01*
X0157531Y0118547D01*
X0158498Y0117580D01*
X0159784Y0117047D01*
X0161177Y0117047D01*
X0162463Y0117580D01*
X0163402Y0118519D01*
X0163402Y0115736D01*
X0149498Y0115736D01*
X0122165Y0143069D01*
X0122165Y0146224D01*
X0122176Y0146213D01*
X0124454Y0146213D01*
X0125799Y0147558D01*
X0125799Y0148665D01*
X0130921Y0148665D01*
X0130921Y0146095D01*
X0129976Y0145704D01*
X0128513Y0144241D01*
X0127721Y0142330D01*
X0127721Y0140261D01*
X0128513Y0138350D01*
X0129976Y0136887D01*
X0131887Y0136095D01*
X0133956Y0136095D01*
X0135867Y0136887D01*
X0137330Y0138350D01*
X0137935Y0139812D01*
X0138102Y0139299D01*
X0138474Y0138570D01*
X0138955Y0137908D01*
X0139534Y0137329D01*
X0140196Y0136848D01*
X0140925Y0136476D01*
X0141704Y0136223D01*
X0142421Y0136110D01*
X0142421Y0140795D01*
X0143421Y0140795D01*
X0143421Y0136110D01*
X0144139Y0136223D01*
X0144917Y0136476D01*
X0145647Y0136848D01*
X0146309Y0137329D01*
X0146888Y0137908D01*
X0147369Y0138570D01*
X0147740Y0139299D01*
X0147993Y0140078D01*
X0148107Y0140795D01*
X0143421Y0140795D01*
X0143421Y0141795D01*
X0142421Y0141795D01*
X0142421Y0146481D01*
X0141704Y0146367D01*
X0140925Y0146114D01*
X0140196Y0145743D01*
X0139534Y0145262D01*
X0138955Y0144683D01*
X0138474Y0144021D01*
X0138102Y0143291D01*
X0137935Y0142778D01*
X0137330Y0144241D01*
X0135867Y0145704D01*
X0134921Y0146095D01*
X0134921Y0151494D01*
X0133750Y0152665D01*
X0125799Y0152665D01*
X0125799Y0153772D01*
X0124454Y0155118D01*
X0122176Y0155118D01*
X0121740Y0154682D01*
X0121304Y0155118D01*
X0119027Y0155118D01*
X0119016Y0155107D01*
X0119016Y0186539D01*
X0119110Y0186539D01*
X0119110Y0169522D01*
X0120282Y0168350D01*
X0125960Y0168350D01*
X0125949Y0168339D01*
X0125949Y0166062D01*
X0126385Y0165626D01*
X0125949Y0165190D01*
X0125949Y0162913D01*
X0126385Y0162476D01*
X0126172Y0162263D02*
X0119016Y0162263D01*
X0119016Y0161265D02*
X0125949Y0161265D01*
X0125949Y0160266D02*
X0119016Y0160266D01*
X0119016Y0159268D02*
X0126326Y0159268D01*
X0125949Y0158269D02*
X0119016Y0158269D01*
X0119016Y0157271D02*
X0125949Y0157271D01*
X0126290Y0156272D02*
X0119016Y0156272D01*
X0119016Y0155274D02*
X0127288Y0155274D01*
X0125296Y0154275D02*
X0148480Y0154275D01*
X0148480Y0153277D02*
X0125799Y0153277D01*
X0123315Y0150665D02*
X0132921Y0150665D01*
X0132921Y0141295D01*
X0128120Y0139298D02*
X0125936Y0139298D01*
X0124938Y0140296D02*
X0127721Y0140296D01*
X0127721Y0141295D02*
X0123939Y0141295D01*
X0122941Y0142293D02*
X0127721Y0142293D01*
X0128120Y0143292D02*
X0122165Y0143292D01*
X0122165Y0144290D02*
X0128562Y0144290D01*
X0129561Y0145289D02*
X0122165Y0145289D01*
X0124528Y0146287D02*
X0130921Y0146287D01*
X0130921Y0147286D02*
X0125527Y0147286D01*
X0125799Y0148284D02*
X0130921Y0148284D01*
X0134921Y0148284D02*
X0148480Y0148284D01*
X0148480Y0147286D02*
X0134921Y0147286D01*
X0134921Y0146287D02*
X0141457Y0146287D01*
X0142421Y0146287D02*
X0143421Y0146287D01*
X0143421Y0146481D02*
X0143421Y0141795D01*
X0148107Y0141795D01*
X0147993Y0142513D01*
X0147740Y0143291D01*
X0147369Y0144021D01*
X0146888Y0144683D01*
X0146309Y0145262D01*
X0145647Y0145743D01*
X0144917Y0146114D01*
X0144139Y0146367D01*
X0143421Y0146481D01*
X0144385Y0146287D02*
X0148480Y0146287D01*
X0148480Y0145289D02*
X0146272Y0145289D01*
X0147173Y0144290D02*
X0148480Y0144290D01*
X0148480Y0143292D02*
X0147740Y0143292D01*
X0148028Y0142293D02*
X0148480Y0142293D01*
X0148480Y0141295D02*
X0143421Y0141295D01*
X0143421Y0142293D02*
X0142421Y0142293D01*
X0142421Y0143292D02*
X0143421Y0143292D01*
X0143421Y0144290D02*
X0142421Y0144290D01*
X0142421Y0145289D02*
X0143421Y0145289D01*
X0139571Y0145289D02*
X0136282Y0145289D01*
X0137280Y0144290D02*
X0138670Y0144290D01*
X0138102Y0143292D02*
X0137723Y0143292D01*
X0142421Y0140296D02*
X0143421Y0140296D01*
X0143421Y0139298D02*
X0142421Y0139298D01*
X0142421Y0138299D02*
X0143421Y0138299D01*
X0143421Y0137301D02*
X0142421Y0137301D01*
X0142421Y0136302D02*
X0143421Y0136302D01*
X0144381Y0136302D02*
X0148480Y0136302D01*
X0148480Y0137301D02*
X0146270Y0137301D01*
X0147172Y0138299D02*
X0148480Y0138299D01*
X0148480Y0139298D02*
X0147739Y0139298D01*
X0148028Y0140296D02*
X0148480Y0140296D01*
X0148480Y0135303D02*
X0129930Y0135303D01*
X0130929Y0134305D02*
X0148480Y0134305D01*
X0148290Y0133306D02*
X0131927Y0133306D01*
X0132926Y0132308D02*
X0147421Y0132308D01*
X0147008Y0131309D02*
X0133924Y0131309D01*
X0134923Y0130311D02*
X0146980Y0130311D01*
X0147203Y0129312D02*
X0135921Y0129312D01*
X0136920Y0128314D02*
X0147764Y0128314D01*
X0149137Y0127315D02*
X0137919Y0127315D01*
X0138917Y0126317D02*
X0153559Y0126317D01*
X0153559Y0127315D02*
X0151824Y0127315D01*
X0153197Y0128314D02*
X0153559Y0128314D01*
X0150480Y0130547D02*
X0150480Y0157752D01*
X0130402Y0157752D01*
X0130402Y0160902D02*
X0155559Y0160902D01*
X0155559Y0120547D01*
X0160480Y0120547D01*
X0159101Y0117330D02*
X0151860Y0117330D01*
X0153212Y0118329D02*
X0157749Y0118329D01*
X0161860Y0117330D02*
X0163402Y0117330D01*
X0163402Y0116332D02*
X0148902Y0116332D01*
X0149101Y0117330D02*
X0147904Y0117330D01*
X0147749Y0118329D02*
X0146905Y0118329D01*
X0147197Y0119327D02*
X0145907Y0119327D01*
X0144908Y0120326D02*
X0146980Y0120326D01*
X0147014Y0121324D02*
X0143910Y0121324D01*
X0142911Y0122323D02*
X0147427Y0122323D01*
X0148305Y0123321D02*
X0141913Y0123321D01*
X0140914Y0124320D02*
X0153559Y0124320D01*
X0153559Y0125318D02*
X0139916Y0125318D01*
X0137254Y0122323D02*
X0122610Y0122323D01*
X0122610Y0121324D02*
X0124089Y0121324D01*
X0123547Y0120326D02*
X0122610Y0120326D01*
X0121847Y0123321D02*
X0136256Y0123321D01*
X0135257Y0124320D02*
X0112717Y0124320D01*
X0112717Y0125318D02*
X0134259Y0125318D01*
X0133260Y0126317D02*
X0112717Y0126317D01*
X0112717Y0127315D02*
X0132262Y0127315D01*
X0131263Y0128314D02*
X0112717Y0128314D01*
X0112717Y0129312D02*
X0130265Y0129312D01*
X0129266Y0130311D02*
X0112717Y0130311D01*
X0112717Y0131309D02*
X0128268Y0131309D01*
X0127269Y0132308D02*
X0112717Y0132308D01*
X0112717Y0133306D02*
X0126271Y0133306D01*
X0125272Y0134305D02*
X0112717Y0134305D01*
X0112717Y0135303D02*
X0124274Y0135303D01*
X0123275Y0136302D02*
X0112717Y0136302D01*
X0112717Y0137301D02*
X0122277Y0137301D01*
X0121278Y0138299D02*
X0112717Y0138299D01*
X0112717Y0139298D02*
X0120280Y0139298D01*
X0119281Y0140296D02*
X0112717Y0140296D01*
X0112717Y0141295D02*
X0118283Y0141295D01*
X0118165Y0142293D02*
X0112717Y0142293D01*
X0112717Y0143292D02*
X0118165Y0143292D01*
X0118165Y0144290D02*
X0112717Y0144290D01*
X0112717Y0145289D02*
X0118165Y0145289D01*
X0115803Y0146287D02*
X0114654Y0146287D01*
X0113866Y0146287D02*
X0113866Y0146287D01*
X0113078Y0146287D02*
X0112717Y0146287D01*
X0113866Y0147286D02*
X0113866Y0147286D01*
X0113866Y0148284D02*
X0113866Y0148284D01*
X0113866Y0149283D02*
X0113866Y0149283D01*
X0113866Y0150281D02*
X0113866Y0150281D01*
X0113866Y0150665D02*
X0113866Y0155118D01*
X0113866Y0150665D01*
X0113866Y0150665D01*
X0113866Y0151280D02*
X0113866Y0151280D01*
X0113866Y0152278D02*
X0113866Y0152278D01*
X0113866Y0153277D02*
X0113866Y0153277D01*
X0113866Y0154275D02*
X0113866Y0154275D01*
X0115016Y0155274D02*
X0087144Y0155274D01*
X0088787Y0156272D02*
X0115016Y0156272D01*
X0115016Y0157271D02*
X0089172Y0157271D01*
X0089185Y0157752D02*
X0084732Y0157752D01*
X0089185Y0157752D01*
X0089164Y0158269D02*
X0115016Y0158269D01*
X0115016Y0159268D02*
X0093014Y0159268D01*
X0093819Y0160266D02*
X0115016Y0160266D01*
X0115016Y0161265D02*
X0093819Y0161265D01*
X0093819Y0162263D02*
X0115016Y0162263D01*
X0115016Y0163262D02*
X0093819Y0163262D01*
X0093819Y0164260D02*
X0115016Y0164260D01*
X0115016Y0165259D02*
X0093819Y0165259D01*
X0093819Y0166257D02*
X0115016Y0166257D01*
X0115016Y0167256D02*
X0093819Y0167256D01*
X0093819Y0168254D02*
X0115016Y0168254D01*
X0115016Y0169253D02*
X0093819Y0169253D01*
X0093819Y0170251D02*
X0115016Y0170251D01*
X0115016Y0171250D02*
X0093819Y0171250D01*
X0093819Y0172248D02*
X0115016Y0172248D01*
X0115016Y0173247D02*
X0093819Y0173247D01*
X0093819Y0174245D02*
X0115016Y0174245D01*
X0115016Y0175244D02*
X0093819Y0175244D01*
X0093819Y0176242D02*
X0115016Y0176242D01*
X0115016Y0177241D02*
X0093819Y0177241D01*
X0093819Y0178239D02*
X0115016Y0178239D01*
X0115016Y0179238D02*
X0093819Y0179238D01*
X0093819Y0180237D02*
X0115016Y0180237D01*
X0115016Y0181235D02*
X0093819Y0181235D01*
X0093819Y0182234D02*
X0115016Y0182234D01*
X0115016Y0183232D02*
X0093819Y0183232D01*
X0093819Y0184231D02*
X0115016Y0184231D01*
X0115016Y0185229D02*
X0093819Y0185229D01*
X0093819Y0186228D02*
X0115016Y0186228D01*
X0117016Y0188539D02*
X0117016Y0150665D01*
X0120165Y0150665D02*
X0120165Y0142240D01*
X0148669Y0113736D01*
X0165402Y0113736D01*
X0165402Y0125547D01*
X0170480Y0125547D01*
X0170480Y0130547D01*
X0170480Y0152732D01*
X0183929Y0152732D01*
X0183929Y0160980D01*
X0184102Y0160980D01*
X0179846Y0161265D02*
X0162480Y0161265D01*
X0162480Y0162263D02*
X0179846Y0162263D01*
X0179846Y0163262D02*
X0162480Y0163262D01*
X0162480Y0164260D02*
X0180809Y0164260D01*
X0181125Y0165259D02*
X0162101Y0165259D01*
X0162480Y0160266D02*
X0179846Y0160266D01*
X0179846Y0159268D02*
X0162480Y0159268D01*
X0162480Y0158269D02*
X0180240Y0158269D01*
X0181929Y0157271D02*
X0162480Y0157271D01*
X0162480Y0156272D02*
X0181929Y0156272D01*
X0180315Y0155274D02*
X0162480Y0155274D01*
X0162480Y0154275D02*
X0169195Y0154275D01*
X0168480Y0153277D02*
X0162480Y0153277D01*
X0162480Y0152278D02*
X0168480Y0152278D01*
X0168480Y0151280D02*
X0162480Y0151280D01*
X0162480Y0150281D02*
X0168480Y0150281D01*
X0168480Y0149283D02*
X0162480Y0149283D01*
X0162480Y0148284D02*
X0168480Y0148284D01*
X0168480Y0147286D02*
X0162480Y0147286D01*
X0162480Y0146287D02*
X0168480Y0146287D01*
X0168480Y0145289D02*
X0162480Y0145289D01*
X0162480Y0144290D02*
X0168480Y0144290D01*
X0168480Y0143292D02*
X0162480Y0143292D01*
X0162480Y0142293D02*
X0168480Y0142293D01*
X0168480Y0141295D02*
X0162480Y0141295D01*
X0172480Y0147286D02*
X0239583Y0147286D01*
X0237862Y0148284D02*
X0172480Y0148284D01*
X0172480Y0149283D02*
X0237327Y0149283D01*
X0237327Y0150281D02*
X0209634Y0150281D01*
X0209085Y0149732D02*
X0210429Y0151077D01*
X0210429Y0154388D01*
X0209085Y0155732D01*
X0202773Y0155732D01*
X0201429Y0154388D01*
X0201429Y0151077D01*
X0202773Y0149732D01*
X0209085Y0149732D01*
X0210429Y0151280D02*
X0237327Y0151280D01*
X0237327Y0152278D02*
X0210429Y0152278D01*
X0210429Y0153277D02*
X0237327Y0153277D01*
X0237327Y0154275D02*
X0210429Y0154275D01*
X0209543Y0155274D02*
X0237327Y0155274D01*
X0238174Y0156272D02*
X0185929Y0156272D01*
X0185929Y0157271D02*
X0239583Y0157271D01*
X0239583Y0158269D02*
X0187965Y0158269D01*
X0188358Y0159268D02*
X0237802Y0159268D01*
X0236846Y0160266D02*
X0188358Y0160266D01*
X0188358Y0161265D02*
X0236846Y0161265D01*
X0243248Y0170251D02*
X0244248Y0170251D01*
X0244248Y0171250D02*
X0243248Y0171250D01*
X0243248Y0172248D02*
X0244248Y0172248D01*
X0244248Y0173247D02*
X0243248Y0173247D01*
X0243248Y0174245D02*
X0195642Y0174245D01*
X0195068Y0173247D02*
X0239689Y0173247D01*
X0239689Y0175244D02*
X0233675Y0175244D01*
X0234331Y0176242D02*
X0239705Y0176242D01*
X0240097Y0177241D02*
X0234331Y0177241D01*
X0234331Y0178239D02*
X0241463Y0178239D01*
X0240050Y0179238D02*
X0234331Y0179238D01*
X0234331Y0180237D02*
X0239691Y0180237D01*
X0239689Y0181235D02*
X0234331Y0181235D01*
X0234331Y0182234D02*
X0243248Y0182234D01*
X0243248Y0183232D02*
X0244248Y0183232D01*
X0244248Y0184231D02*
X0243248Y0184231D01*
X0243248Y0185229D02*
X0244248Y0185229D01*
X0244248Y0186228D02*
X0243248Y0186228D01*
X0240182Y0186228D02*
X0234331Y0186228D01*
X0234331Y0187226D02*
X0247815Y0187226D01*
X0247211Y0188225D02*
X0234331Y0188225D01*
X0234331Y0189223D02*
X0246960Y0189223D01*
X0246962Y0190222D02*
X0234331Y0190222D01*
X0234331Y0191220D02*
X0247376Y0191220D01*
X0248213Y0192219D02*
X0234331Y0192219D01*
X0234331Y0193217D02*
X0238355Y0193217D01*
X0236774Y0194216D02*
X0234331Y0194216D01*
X0232331Y0196413D02*
X0232331Y0176728D01*
X0227409Y0176728D01*
X0228512Y0176728D01*
X0227409Y0176728D02*
X0191976Y0176728D01*
X0184102Y0176728D02*
X0184102Y0179799D01*
X0130402Y0179799D01*
X0126400Y0178209D02*
X0126210Y0177925D01*
X0126037Y0177507D01*
X0125949Y0177063D01*
X0125949Y0176650D01*
X0130401Y0176650D01*
X0130401Y0176650D01*
X0125949Y0176650D01*
X0125949Y0176236D01*
X0126037Y0175793D01*
X0126210Y0175374D01*
X0126400Y0175090D01*
X0125949Y0174639D01*
X0125949Y0172361D01*
X0125960Y0172350D01*
X0123110Y0172350D01*
X0123110Y0184098D01*
X0125960Y0184098D01*
X0125949Y0184087D01*
X0125949Y0181810D01*
X0126385Y0181374D01*
X0125949Y0180938D01*
X0125949Y0178661D01*
X0126400Y0178209D01*
X0126370Y0178239D02*
X0123110Y0178239D01*
X0123110Y0177241D02*
X0125984Y0177241D01*
X0125949Y0176242D02*
X0123110Y0176242D01*
X0123110Y0175244D02*
X0126297Y0175244D01*
X0125949Y0174245D02*
X0123110Y0174245D01*
X0123110Y0173247D02*
X0125949Y0173247D01*
X0130402Y0173500D02*
X0147094Y0173500D01*
X0143035Y0175500D02*
X0134645Y0175500D01*
X0134766Y0175793D01*
X0134854Y0176236D01*
X0134854Y0176650D01*
X0134854Y0177063D01*
X0134766Y0177507D01*
X0134645Y0177799D01*
X0144225Y0177799D01*
X0143035Y0176609D01*
X0143035Y0175500D01*
X0143035Y0176242D02*
X0134854Y0176242D01*
X0134854Y0176650D02*
X0130402Y0176650D01*
X0134854Y0176650D01*
X0134819Y0177241D02*
X0143667Y0177241D01*
X0138795Y0168254D02*
X0134854Y0168254D01*
X0134854Y0167256D02*
X0139565Y0167256D01*
X0134854Y0166257D02*
X0180126Y0166257D01*
X0179846Y0170854D02*
X0157795Y0170854D01*
X0157846Y0171115D01*
X0157846Y0173000D01*
X0154287Y0173000D01*
X0154287Y0174000D01*
X0157846Y0174000D01*
X0157846Y0175885D01*
X0157758Y0176328D01*
X0157585Y0176746D01*
X0157334Y0177121D01*
X0157015Y0177441D01*
X0156639Y0177692D01*
X0156380Y0177799D01*
X0180437Y0177799D01*
X0180437Y0173820D01*
X0181738Y0172520D01*
X0181194Y0172520D01*
X0179846Y0171172D01*
X0179846Y0170854D01*
X0179925Y0171250D02*
X0157846Y0171250D01*
X0157846Y0172248D02*
X0180923Y0172248D01*
X0181011Y0173247D02*
X0154287Y0173247D01*
X0157846Y0174245D02*
X0180437Y0174245D01*
X0180437Y0175244D02*
X0157846Y0175244D01*
X0157775Y0176242D02*
X0180437Y0176242D01*
X0180437Y0177241D02*
X0157215Y0177241D01*
X0155232Y0192219D02*
X0154232Y0192219D01*
X0154232Y0193217D02*
X0155232Y0193217D01*
X0155232Y0194216D02*
X0154232Y0194216D01*
X0154232Y0195214D02*
X0155232Y0195214D01*
X0159616Y0198210D02*
X0186866Y0198210D01*
X0186866Y0199208D02*
X0159129Y0199208D01*
X0158293Y0200207D02*
X0186866Y0200207D01*
X0186866Y0201205D02*
X0156782Y0201205D01*
X0159871Y0197211D02*
X0186866Y0197211D01*
X0190866Y0197211D02*
X0225213Y0197211D01*
X0225213Y0196213D02*
X0190866Y0196213D01*
X0190866Y0195214D02*
X0225213Y0195214D01*
X0225213Y0194216D02*
X0190866Y0194216D01*
X0190866Y0193217D02*
X0225213Y0193217D01*
X0225213Y0192219D02*
X0207000Y0192219D01*
X0204772Y0189524D02*
X0227213Y0189524D01*
X0227213Y0210587D01*
X0225024Y0210192D02*
X0190866Y0210192D01*
X0190866Y0211190D02*
X0225024Y0211190D01*
X0225024Y0212189D02*
X0190866Y0212189D01*
X0190866Y0213187D02*
X0225024Y0213187D01*
X0225649Y0214186D02*
X0190866Y0214186D01*
X0190866Y0215184D02*
X0255189Y0215184D01*
X0255189Y0216183D02*
X0252113Y0216183D01*
X0252283Y0216296D02*
X0252605Y0216619D01*
X0252859Y0216998D01*
X0253033Y0217419D01*
X0253122Y0217866D01*
X0253122Y0220520D01*
X0248579Y0220520D01*
X0248579Y0215780D01*
X0251035Y0215780D01*
X0251482Y0215868D01*
X0251904Y0216043D01*
X0252283Y0216296D01*
X0252935Y0217181D02*
X0255189Y0217181D01*
X0255359Y0218180D02*
X0253122Y0218180D01*
X0253122Y0219178D02*
X0255626Y0219178D01*
X0255894Y0220177D02*
X0253122Y0220177D01*
X0253122Y0222174D02*
X0256995Y0222174D01*
X0256419Y0221175D02*
X0248579Y0221175D01*
X0248579Y0220177D02*
X0247579Y0220177D01*
X0247579Y0221175D02*
X0242571Y0221175D01*
X0242571Y0220177D02*
X0243035Y0220177D01*
X0243035Y0219178D02*
X0242571Y0219178D01*
X0242571Y0218180D02*
X0243035Y0218180D01*
X0243223Y0217181D02*
X0242571Y0217181D01*
X0241635Y0216183D02*
X0244044Y0216183D01*
X0247579Y0216183D02*
X0248579Y0216183D01*
X0248579Y0217181D02*
X0247579Y0217181D01*
X0247579Y0218180D02*
X0248579Y0218180D01*
X0248579Y0219178D02*
X0247579Y0219178D01*
X0243035Y0222174D02*
X0242571Y0222174D01*
X0242571Y0223172D02*
X0243035Y0223172D01*
X0243035Y0224171D02*
X0242571Y0224171D01*
X0242322Y0225170D02*
X0243384Y0225170D01*
X0252773Y0225170D02*
X0259901Y0225170D01*
X0258705Y0224171D02*
X0253122Y0224171D01*
X0253122Y0223172D02*
X0257707Y0223172D01*
X0255313Y0214186D02*
X0239012Y0214186D01*
X0239572Y0213187D02*
X0255581Y0213187D01*
X0255848Y0212189D02*
X0239638Y0212189D01*
X0239638Y0211190D02*
X0256321Y0211190D01*
X0256897Y0210192D02*
X0239638Y0210192D01*
X0239638Y0209193D02*
X0257538Y0209193D01*
X0258536Y0208195D02*
X0239628Y0208195D01*
X0239212Y0207196D02*
X0259608Y0207196D01*
X0261337Y0206198D02*
X0234331Y0206198D01*
X0234331Y0205199D02*
X0264364Y0205199D01*
X0268014Y0205199D02*
X0274091Y0205199D01*
X0274091Y0204201D02*
X0234331Y0204201D01*
X0234331Y0203202D02*
X0274091Y0203202D01*
X0274091Y0202204D02*
X0234331Y0202204D01*
X0234331Y0201205D02*
X0274091Y0201205D01*
X0274091Y0200207D02*
X0234331Y0200207D01*
X0234331Y0199208D02*
X0237386Y0199208D01*
X0241055Y0199208D02*
X0274091Y0199208D01*
X0274091Y0198210D02*
X0242031Y0198210D01*
X0242445Y0197211D02*
X0274091Y0197211D01*
X0274091Y0196213D02*
X0242505Y0196213D01*
X0250441Y0189524D02*
X0250441Y0182634D01*
X0250441Y0173776D01*
X0252693Y0173776D01*
X0252693Y0163933D01*
X0244248Y0175244D02*
X0243248Y0175244D01*
X0243248Y0176242D02*
X0244248Y0176242D01*
X0244248Y0177241D02*
X0243248Y0177241D01*
X0243248Y0178239D02*
X0244248Y0178239D01*
X0244248Y0179238D02*
X0243248Y0179238D01*
X0243248Y0180237D02*
X0244248Y0180237D01*
X0244248Y0181235D02*
X0243248Y0181235D01*
X0239689Y0183232D02*
X0234331Y0183232D01*
X0234331Y0184231D02*
X0239689Y0184231D01*
X0239731Y0185229D02*
X0234331Y0185229D01*
X0225213Y0198210D02*
X0190866Y0198210D01*
X0190866Y0199208D02*
X0225213Y0199208D01*
X0225213Y0200207D02*
X0190866Y0200207D01*
X0190866Y0201205D02*
X0225213Y0201205D01*
X0225213Y0202204D02*
X0190866Y0202204D01*
X0190866Y0203202D02*
X0225213Y0203202D01*
X0225213Y0204201D02*
X0190866Y0204201D01*
X0190866Y0205199D02*
X0225213Y0205199D01*
X0225213Y0206198D02*
X0190866Y0206198D01*
X0190866Y0207196D02*
X0225213Y0207196D01*
X0225024Y0208195D02*
X0190866Y0208195D01*
X0190866Y0209193D02*
X0225024Y0209193D01*
X0231635Y0216183D02*
X0233026Y0216183D01*
X0237449Y0214186D02*
X0237449Y0214186D01*
X0237449Y0213187D02*
X0237449Y0213187D01*
X0237449Y0212189D02*
X0237449Y0212189D01*
X0237449Y0211190D02*
X0237449Y0211190D01*
X0237449Y0210586D02*
X0237449Y0206331D01*
X0237449Y0210586D01*
X0237449Y0210586D01*
X0237449Y0210192D02*
X0237449Y0210192D01*
X0237449Y0209193D02*
X0237449Y0209193D01*
X0237449Y0208195D02*
X0237449Y0208195D01*
X0237449Y0207196D02*
X0237449Y0207196D01*
X0222091Y0222174D02*
X0221626Y0222174D01*
X0221626Y0223172D02*
X0222091Y0223172D01*
X0222091Y0224171D02*
X0221626Y0224171D01*
X0221277Y0225170D02*
X0222339Y0225170D01*
X0211888Y0225170D02*
X0203054Y0225170D01*
X0203597Y0224171D02*
X0211539Y0224171D01*
X0211539Y0223172D02*
X0204011Y0223172D01*
X0203324Y0219178D02*
X0211539Y0219178D01*
X0211539Y0218180D02*
X0202396Y0218180D01*
X0200812Y0217181D02*
X0211727Y0217181D01*
X0186866Y0217181D02*
X0180866Y0217181D01*
X0180866Y0216183D02*
X0186866Y0216183D01*
X0186866Y0215184D02*
X0180866Y0215184D01*
X0180866Y0214186D02*
X0186866Y0214186D01*
X0186866Y0213187D02*
X0180866Y0213187D01*
X0180866Y0212189D02*
X0186866Y0212189D01*
X0186866Y0211190D02*
X0180866Y0211190D01*
X0180866Y0210192D02*
X0186866Y0210192D01*
X0186866Y0209193D02*
X0180866Y0209193D01*
X0180866Y0208195D02*
X0186866Y0208195D01*
X0186866Y0207196D02*
X0180666Y0207196D01*
X0178866Y0208224D02*
X0178866Y0222004D01*
X0173994Y0220177D02*
X0173740Y0220177D01*
X0173685Y0220008D02*
X0173852Y0220521D01*
X0174458Y0219058D01*
X0175921Y0217596D01*
X0176866Y0217204D01*
X0176866Y0210224D01*
X0128156Y0210224D01*
X0126984Y0209053D01*
X0121315Y0203384D01*
X0121315Y0200578D01*
X0121022Y0200699D01*
X0120579Y0200787D01*
X0120165Y0200787D01*
X0119752Y0200787D01*
X0119308Y0200699D01*
X0118890Y0200526D01*
X0118606Y0200336D01*
X0118154Y0200787D01*
X0116502Y0200787D01*
X0132518Y0216804D01*
X0132774Y0216804D01*
X0134686Y0217596D01*
X0136148Y0219058D01*
X0136940Y0220970D01*
X0136940Y0223038D01*
X0136148Y0224949D01*
X0135720Y0225378D01*
X0164890Y0225378D01*
X0164419Y0224729D01*
X0164047Y0224000D01*
X0163794Y0223222D01*
X0163681Y0222504D01*
X0168366Y0222504D01*
X0168366Y0221504D01*
X0163681Y0221504D01*
X0163794Y0220786D01*
X0164047Y0220008D01*
X0164419Y0219279D01*
X0164900Y0218616D01*
X0165479Y0218038D01*
X0166141Y0217556D01*
X0166870Y0217185D01*
X0167648Y0216932D01*
X0168366Y0216818D01*
X0168366Y0221504D01*
X0169366Y0221504D01*
X0169366Y0216818D01*
X0170084Y0216932D01*
X0170862Y0217185D01*
X0171592Y0217556D01*
X0172254Y0218038D01*
X0172832Y0218616D01*
X0173314Y0219279D01*
X0173685Y0220008D01*
X0173241Y0219178D02*
X0174408Y0219178D01*
X0175336Y0218180D02*
X0172396Y0218180D01*
X0170852Y0217181D02*
X0176866Y0217181D01*
X0176866Y0216183D02*
X0131897Y0216183D01*
X0130899Y0215184D02*
X0176866Y0215184D01*
X0176866Y0214186D02*
X0129900Y0214186D01*
X0128902Y0213187D02*
X0176866Y0213187D01*
X0176866Y0212189D02*
X0127903Y0212189D01*
X0126905Y0211190D02*
X0176866Y0211190D01*
X0178866Y0208224D02*
X0128984Y0208224D01*
X0123315Y0202555D01*
X0123315Y0196335D01*
X0123315Y0188539D01*
X0117016Y0188539D01*
X0091819Y0188539D01*
X0091819Y0160902D01*
X0084732Y0160902D01*
X0084732Y0157752D02*
X0084732Y0157752D01*
X0084732Y0157271D02*
X0084732Y0157271D01*
X0084732Y0156272D02*
X0084732Y0156272D01*
X0084732Y0155274D02*
X0084732Y0155274D01*
X0082320Y0155274D02*
X0072751Y0155274D01*
X0073165Y0156272D02*
X0080678Y0156272D01*
X0080293Y0157271D02*
X0073213Y0157271D01*
X0072976Y0158269D02*
X0080300Y0158269D01*
X0080702Y0159268D02*
X0072349Y0159268D01*
X0071929Y0160266D02*
X0080280Y0160266D01*
X0080280Y0161265D02*
X0071929Y0161265D01*
X0069929Y0164051D02*
X0069929Y0157043D01*
X0066645Y0157271D02*
X0028622Y0157271D01*
X0028622Y0158269D02*
X0064059Y0158269D01*
X0063147Y0159268D02*
X0028622Y0159268D01*
X0028622Y0160266D02*
X0062733Y0160266D01*
X0062708Y0161265D02*
X0028622Y0161265D01*
X0028622Y0162263D02*
X0060065Y0162263D01*
X0059186Y0163262D02*
X0028622Y0163262D01*
X0028622Y0164260D02*
X0058772Y0164260D01*
X0058771Y0165259D02*
X0028622Y0165259D01*
X0028622Y0166257D02*
X0056070Y0166257D01*
X0055225Y0167256D02*
X0028622Y0167256D01*
X0028622Y0168254D02*
X0054834Y0168254D01*
X0054834Y0169253D02*
X0028622Y0169253D01*
X0028622Y0170251D02*
X0055142Y0170251D01*
X0055869Y0171250D02*
X0028622Y0171250D01*
X0028622Y0172248D02*
X0033645Y0172248D01*
X0033582Y0172281D02*
X0034311Y0171909D01*
X0035089Y0171656D01*
X0035807Y0171543D01*
X0035807Y0176228D01*
X0031121Y0176228D01*
X0031235Y0175511D01*
X0031488Y0174732D01*
X0031860Y0174003D01*
X0032341Y0173341D01*
X0032920Y0172762D01*
X0033582Y0172281D01*
X0032435Y0173247D02*
X0028622Y0173247D01*
X0028622Y0174245D02*
X0031736Y0174245D01*
X0031322Y0175244D02*
X0028622Y0175244D01*
X0028622Y0176242D02*
X0035807Y0176242D01*
X0035807Y0177228D02*
X0031121Y0177228D01*
X0031235Y0177946D01*
X0031488Y0178724D01*
X0031860Y0179454D01*
X0032341Y0180116D01*
X0032920Y0180695D01*
X0033582Y0181176D01*
X0034311Y0181547D01*
X0035089Y0181800D01*
X0035807Y0181914D01*
X0035807Y0177228D01*
X0035807Y0177241D02*
X0036807Y0177241D01*
X0036807Y0178239D02*
X0035807Y0178239D01*
X0035807Y0179238D02*
X0036807Y0179238D01*
X0036807Y0180237D02*
X0035807Y0180237D01*
X0035807Y0181235D02*
X0036807Y0181235D01*
X0038916Y0181235D02*
X0043599Y0181235D01*
X0042461Y0180237D02*
X0040153Y0180237D01*
X0040864Y0179238D02*
X0041718Y0179238D01*
X0041305Y0178239D02*
X0041284Y0178239D01*
X0041292Y0175244D02*
X0041293Y0175244D01*
X0040878Y0174245D02*
X0041707Y0174245D01*
X0042435Y0173247D02*
X0040180Y0173247D01*
X0038969Y0172248D02*
X0043534Y0172248D01*
X0046307Y0176650D02*
X0046307Y0176728D01*
X0046307Y0176650D02*
X0084732Y0176650D01*
X0084732Y0173500D02*
X0058118Y0173500D01*
X0058118Y0168854D01*
X0056118Y0172248D02*
X0049080Y0172248D01*
X0050180Y0173247D02*
X0056118Y0173247D01*
X0056118Y0174245D02*
X0050907Y0174245D01*
X0050896Y0179238D02*
X0067929Y0179238D01*
X0067929Y0180237D02*
X0050153Y0180237D01*
X0049015Y0181235D02*
X0067929Y0181235D01*
X0067929Y0182234D02*
X0028622Y0182234D01*
X0028622Y0183232D02*
X0067929Y0183232D01*
X0067929Y0184231D02*
X0049352Y0184231D01*
X0050351Y0185229D02*
X0067929Y0185229D01*
X0067929Y0186228D02*
X0050978Y0186228D01*
X0050825Y0191220D02*
X0071866Y0191220D01*
X0071866Y0190222D02*
X0071075Y0190222D01*
X0069929Y0188539D02*
X0046307Y0188539D01*
X0042263Y0185229D02*
X0040330Y0185229D01*
X0040965Y0186228D02*
X0041636Y0186228D01*
X0043262Y0184231D02*
X0039223Y0184231D01*
X0036807Y0184231D02*
X0035807Y0184231D01*
X0035807Y0183354D02*
X0035807Y0188039D01*
X0031121Y0188039D01*
X0031235Y0187322D01*
X0031488Y0186543D01*
X0031860Y0185814D01*
X0032341Y0185152D01*
X0032920Y0184573D01*
X0033582Y0184092D01*
X0034311Y0183720D01*
X0035089Y0183467D01*
X0035807Y0183354D01*
X0035807Y0185229D02*
X0036807Y0185229D01*
X0036807Y0186228D02*
X0035807Y0186228D01*
X0035807Y0187226D02*
X0036807Y0187226D01*
X0035807Y0188225D02*
X0028622Y0188225D01*
X0028622Y0189223D02*
X0031151Y0189223D01*
X0031121Y0189039D02*
X0035807Y0189039D01*
X0035807Y0193725D01*
X0035089Y0193611D01*
X0034311Y0193358D01*
X0033582Y0192987D01*
X0032920Y0192506D01*
X0032341Y0191927D01*
X0031860Y0191265D01*
X0031488Y0190535D01*
X0031235Y0189757D01*
X0031121Y0189039D01*
X0031386Y0190222D02*
X0028622Y0190222D01*
X0028622Y0191220D02*
X0031837Y0191220D01*
X0032632Y0192219D02*
X0028622Y0192219D01*
X0028622Y0193217D02*
X0034034Y0193217D01*
X0035807Y0193217D02*
X0036807Y0193217D01*
X0036807Y0192219D02*
X0035807Y0192219D01*
X0035807Y0191220D02*
X0036807Y0191220D01*
X0036807Y0190222D02*
X0035807Y0190222D01*
X0035807Y0189223D02*
X0036807Y0189223D01*
X0039982Y0192219D02*
X0042632Y0192219D01*
X0041789Y0191220D02*
X0040777Y0191220D01*
X0041228Y0190222D02*
X0041375Y0190222D01*
X0044012Y0193217D02*
X0038580Y0193217D01*
X0031266Y0187226D02*
X0028622Y0187226D01*
X0028622Y0186228D02*
X0031649Y0186228D01*
X0032285Y0185229D02*
X0028622Y0185229D01*
X0028622Y0184231D02*
X0033391Y0184231D01*
X0033698Y0181235D02*
X0028622Y0181235D01*
X0028622Y0180237D02*
X0032461Y0180237D01*
X0031750Y0179238D02*
X0028622Y0179238D01*
X0028622Y0178239D02*
X0031330Y0178239D01*
X0031123Y0177241D02*
X0028622Y0177241D01*
X0035807Y0175244D02*
X0036807Y0175244D01*
X0036807Y0174245D02*
X0035807Y0174245D01*
X0035807Y0173247D02*
X0036807Y0173247D01*
X0036807Y0172248D02*
X0035807Y0172248D01*
X0020685Y0172248D02*
X0007500Y0172248D01*
X0007500Y0171250D02*
X0020685Y0171250D01*
X0020685Y0170251D02*
X0007500Y0170251D01*
X0007500Y0169253D02*
X0020685Y0169253D01*
X0020685Y0168254D02*
X0007500Y0168254D01*
X0007500Y0167256D02*
X0020685Y0167256D01*
X0020685Y0166257D02*
X0007500Y0166257D01*
X0007500Y0165259D02*
X0020685Y0165259D01*
X0020685Y0164260D02*
X0007500Y0164260D01*
X0007500Y0163262D02*
X0020685Y0163262D01*
X0020685Y0162263D02*
X0007500Y0162263D01*
X0007500Y0161265D02*
X0020685Y0161265D01*
X0020685Y0160266D02*
X0007500Y0160266D01*
X0007500Y0159268D02*
X0020685Y0159268D01*
X0020685Y0158269D02*
X0007500Y0158269D01*
X0007500Y0157271D02*
X0020685Y0157271D01*
X0020685Y0156272D02*
X0007500Y0156272D01*
X0007500Y0155274D02*
X0020685Y0155274D01*
X0020685Y0154275D02*
X0007500Y0154275D01*
X0007500Y0153277D02*
X0020685Y0153277D01*
X0020685Y0152278D02*
X0007500Y0152278D01*
X0007500Y0151280D02*
X0020685Y0151280D01*
X0020685Y0150281D02*
X0007500Y0150281D01*
X0007500Y0149283D02*
X0020685Y0149283D01*
X0020685Y0148284D02*
X0007500Y0148284D01*
X0007500Y0147286D02*
X0020685Y0147286D01*
X0020685Y0146287D02*
X0007500Y0146287D01*
X0007500Y0145289D02*
X0020685Y0145289D01*
X0020685Y0144290D02*
X0007500Y0144290D01*
X0007500Y0143292D02*
X0020685Y0143292D01*
X0020685Y0142293D02*
X0007500Y0142293D01*
X0007500Y0141295D02*
X0020685Y0141295D01*
X0020685Y0140296D02*
X0007500Y0140296D01*
X0007500Y0139298D02*
X0020685Y0139298D01*
X0020685Y0138299D02*
X0007500Y0138299D01*
X0007500Y0137301D02*
X0020685Y0137301D01*
X0020685Y0136302D02*
X0007500Y0136302D01*
X0007500Y0135303D02*
X0020685Y0135303D01*
X0020685Y0134305D02*
X0007500Y0134305D01*
X0007500Y0133306D02*
X0020685Y0133306D01*
X0020685Y0132308D02*
X0007500Y0132308D01*
X0007500Y0131309D02*
X0020685Y0131309D01*
X0020685Y0130311D02*
X0007500Y0130311D01*
X0007500Y0129312D02*
X0020685Y0129312D01*
X0020685Y0128314D02*
X0007500Y0128314D01*
X0007500Y0127315D02*
X0020685Y0127315D01*
X0020685Y0126317D02*
X0007500Y0126317D01*
X0007500Y0125318D02*
X0020685Y0125318D01*
X0020685Y0124320D02*
X0007500Y0124320D01*
X0007500Y0123321D02*
X0020685Y0123321D01*
X0020685Y0122323D02*
X0007500Y0122323D01*
X0007500Y0121324D02*
X0020685Y0121324D01*
X0020685Y0120326D02*
X0007500Y0120326D01*
X0007500Y0119327D02*
X0020685Y0119327D01*
X0020685Y0118329D02*
X0007500Y0118329D01*
X0007500Y0117330D02*
X0020685Y0117330D01*
X0020685Y0116332D02*
X0007500Y0116332D01*
X0007500Y0115333D02*
X0020685Y0115333D01*
X0020685Y0114335D02*
X0007500Y0114335D01*
X0007500Y0113336D02*
X0020685Y0113336D01*
X0020685Y0112338D02*
X0007500Y0112338D01*
X0007500Y0111339D02*
X0020685Y0111339D01*
X0020685Y0110341D02*
X0007500Y0110341D01*
X0007500Y0109342D02*
X0020685Y0109342D01*
X0020685Y0108344D02*
X0007500Y0108344D01*
X0007500Y0107345D02*
X0020685Y0107345D01*
X0020685Y0106347D02*
X0007500Y0106347D01*
X0007500Y0105348D02*
X0020685Y0105348D01*
X0020685Y0104350D02*
X0007500Y0104350D01*
X0007500Y0103351D02*
X0020685Y0103351D01*
X0020685Y0102353D02*
X0007500Y0102353D01*
X0007500Y0101354D02*
X0020685Y0101354D01*
X0020685Y0100356D02*
X0007500Y0100356D01*
X0007500Y0099357D02*
X0020685Y0099357D01*
X0020685Y0098359D02*
X0007500Y0098359D01*
X0007500Y0097360D02*
X0020685Y0097360D01*
X0020685Y0096362D02*
X0007500Y0096362D01*
X0007500Y0095363D02*
X0020685Y0095363D01*
X0020685Y0094365D02*
X0007500Y0094365D01*
X0007500Y0093366D02*
X0020685Y0093366D01*
X0020685Y0092368D02*
X0007500Y0092368D01*
X0007500Y0091369D02*
X0020685Y0091369D01*
X0020685Y0090370D02*
X0007500Y0090370D01*
X0007500Y0089372D02*
X0020685Y0089372D01*
X0020685Y0088373D02*
X0007500Y0088373D01*
X0007500Y0087375D02*
X0020685Y0087375D01*
X0020685Y0086376D02*
X0007500Y0086376D01*
X0007500Y0085378D02*
X0020685Y0085378D01*
X0020685Y0084379D02*
X0007500Y0084379D01*
X0007500Y0083381D02*
X0020685Y0083381D01*
X0021683Y0082382D02*
X0007500Y0082382D01*
X0007500Y0081384D02*
X0095281Y0081384D01*
X0095449Y0081429D02*
X0092652Y0080679D01*
X0090143Y0079231D01*
X0088095Y0077183D01*
X0086647Y0074675D01*
X0085898Y0071877D01*
X0085898Y0068981D01*
X0086647Y0066183D01*
X0088095Y0063675D01*
X0090026Y0061744D01*
X0087575Y0061744D01*
X0084778Y0060994D01*
X0082269Y0059546D01*
X0080221Y0057498D01*
X0078773Y0054990D01*
X0078024Y0052192D01*
X0078024Y0049296D01*
X0078773Y0046498D01*
X0080221Y0043990D01*
X0082269Y0041942D01*
X0084778Y0040494D01*
X0087575Y0039744D01*
X0090472Y0039744D01*
X0093269Y0040494D01*
X0095778Y0041942D01*
X0097826Y0043990D01*
X0099274Y0046498D01*
X0100024Y0049296D01*
X0100024Y0052192D01*
X0099274Y0054990D01*
X0097826Y0057498D01*
X0095895Y0059429D01*
X0098346Y0059429D01*
X0101143Y0060179D01*
X0103652Y0061627D01*
X0105700Y0063675D01*
X0107148Y0066183D01*
X0107898Y0068981D01*
X0107898Y0071877D01*
X0107148Y0074675D01*
X0105700Y0077183D01*
X0103652Y0079231D01*
X0101143Y0080679D01*
X0098346Y0081429D01*
X0095449Y0081429D01*
X0098515Y0081384D02*
X0127222Y0081384D01*
X0130747Y0081384D02*
X0216885Y0081384D01*
X0216569Y0081931D02*
X0218017Y0079423D01*
X0220065Y0077375D01*
X0222573Y0075927D01*
X0225371Y0075177D01*
X0228267Y0075177D01*
X0231065Y0075927D01*
X0233573Y0077375D01*
X0235621Y0079423D01*
X0237069Y0081931D01*
X0237819Y0084729D01*
X0237819Y0087625D01*
X0237069Y0090423D01*
X0235621Y0092931D01*
X0233573Y0094979D01*
X0231065Y0096428D01*
X0228267Y0097177D01*
X0225371Y0097177D01*
X0222573Y0096428D01*
X0220065Y0094979D01*
X0218017Y0092931D01*
X0216569Y0090423D01*
X0215819Y0087625D01*
X0215819Y0084729D01*
X0216569Y0081931D01*
X0216448Y0082382D02*
X0131783Y0082382D01*
X0132196Y0083381D02*
X0216180Y0083381D01*
X0215913Y0084379D02*
X0132268Y0084379D01*
X0132055Y0085378D02*
X0174351Y0085378D01*
X0176228Y0088146D02*
X0026622Y0088146D01*
X0026622Y0196413D01*
X0073866Y0196413D01*
X0073866Y0182949D01*
X0084732Y0182949D01*
X0084732Y0186098D02*
X0077803Y0186098D01*
X0077803Y0200350D01*
X0022685Y0200350D01*
X0022685Y0084209D01*
X0128984Y0084209D01*
X0123551Y0091369D02*
X0175428Y0091369D01*
X0177029Y0091369D02*
X0217115Y0091369D01*
X0216554Y0090370D02*
X0178648Y0090370D01*
X0179275Y0089372D02*
X0216287Y0089372D01*
X0216019Y0088373D02*
X0179513Y0088373D01*
X0179464Y0087375D02*
X0215819Y0087375D01*
X0215819Y0086376D02*
X0179050Y0086376D01*
X0178105Y0085378D02*
X0215819Y0085378D01*
X0217461Y0080385D02*
X0101653Y0080385D01*
X0103382Y0079387D02*
X0218053Y0079387D01*
X0219051Y0078388D02*
X0104495Y0078388D01*
X0105493Y0077390D02*
X0220050Y0077390D01*
X0221768Y0076391D02*
X0106157Y0076391D01*
X0106734Y0075393D02*
X0224566Y0075393D01*
X0229072Y0075393D02*
X0257480Y0075393D01*
X0256864Y0076391D02*
X0231869Y0076391D01*
X0233588Y0077390D02*
X0256288Y0077390D01*
X0255833Y0078388D02*
X0234586Y0078388D01*
X0235585Y0079387D02*
X0255565Y0079387D01*
X0255298Y0080385D02*
X0236177Y0080385D01*
X0236753Y0081384D02*
X0255189Y0081384D01*
X0255189Y0082382D02*
X0237190Y0082382D01*
X0237458Y0083381D02*
X0255189Y0083381D01*
X0255374Y0084379D02*
X0237725Y0084379D01*
X0237819Y0085378D02*
X0255642Y0085378D01*
X0255909Y0086376D02*
X0237819Y0086376D01*
X0237819Y0087375D02*
X0256452Y0087375D01*
X0257028Y0088373D02*
X0237618Y0088373D01*
X0237351Y0089372D02*
X0257764Y0089372D01*
X0258763Y0090370D02*
X0237083Y0090370D01*
X0236523Y0091369D02*
X0260001Y0091369D01*
X0261730Y0092368D02*
X0235947Y0092368D01*
X0235186Y0093366D02*
X0274091Y0093366D01*
X0274091Y0092368D02*
X0270648Y0092368D01*
X0272377Y0091369D02*
X0274091Y0091369D01*
X0274091Y0090370D02*
X0273615Y0090370D01*
X0274091Y0094365D02*
X0234188Y0094365D01*
X0232908Y0095363D02*
X0274091Y0095363D01*
X0274091Y0096362D02*
X0231179Y0096362D01*
X0222459Y0096362D02*
X0127007Y0096362D01*
X0127275Y0097360D02*
X0274091Y0097360D01*
X0274091Y0098359D02*
X0127542Y0098359D01*
X0127583Y0099357D02*
X0274091Y0099357D01*
X0274091Y0100356D02*
X0127583Y0100356D01*
X0127583Y0101354D02*
X0274091Y0101354D01*
X0274091Y0102353D02*
X0127329Y0102353D01*
X0127061Y0103351D02*
X0274091Y0103351D01*
X0274091Y0104350D02*
X0126748Y0104350D01*
X0126172Y0105348D02*
X0274091Y0105348D01*
X0274091Y0106347D02*
X0125595Y0106347D01*
X0124751Y0107345D02*
X0274091Y0107345D01*
X0274091Y0108344D02*
X0123752Y0108344D01*
X0122326Y0109342D02*
X0274091Y0109342D01*
X0274091Y0110341D02*
X0120330Y0110341D01*
X0122159Y0112338D02*
X0147239Y0112338D01*
X0146241Y0113336D02*
X0136801Y0113336D01*
X0138035Y0114335D02*
X0145242Y0114335D01*
X0144244Y0115333D02*
X0138358Y0115333D01*
X0138358Y0116332D02*
X0143245Y0116332D01*
X0142247Y0117330D02*
X0134799Y0117330D01*
X0134799Y0116332D02*
X0133799Y0116332D01*
X0133799Y0115333D02*
X0134799Y0115333D01*
X0134799Y0114335D02*
X0133799Y0114335D01*
X0133799Y0113336D02*
X0134799Y0113336D01*
X0131798Y0113336D02*
X0130438Y0113336D01*
X0127606Y0117673D02*
X0117173Y0117673D01*
X0110717Y0117673D01*
X0110717Y0150665D01*
X0107567Y0150665D02*
X0107567Y0117673D01*
X0101425Y0117673D01*
X0090992Y0117673D01*
X0095051Y0115333D02*
X0095988Y0115333D01*
X0095988Y0114335D02*
X0094822Y0114335D01*
X0093824Y0113336D02*
X0095988Y0113336D01*
X0096439Y0112338D02*
X0036496Y0112338D01*
X0036496Y0113336D02*
X0081798Y0113336D01*
X0081865Y0113309D02*
X0082308Y0113220D01*
X0083799Y0113220D01*
X0083799Y0117173D01*
X0080240Y0117173D01*
X0080240Y0115288D01*
X0080328Y0114845D01*
X0080501Y0114427D01*
X0080752Y0114052D01*
X0081072Y0113732D01*
X0081447Y0113481D01*
X0081865Y0113309D01*
X0080563Y0114335D02*
X0036496Y0114335D01*
X0036496Y0115333D02*
X0080240Y0115333D01*
X0080240Y0116332D02*
X0036496Y0116332D01*
X0036496Y0117330D02*
X0083799Y0117330D01*
X0083799Y0118173D02*
X0080240Y0118173D01*
X0080240Y0120059D01*
X0080328Y0120502D01*
X0080501Y0120919D01*
X0080752Y0121295D01*
X0081072Y0121614D01*
X0081447Y0121865D01*
X0081865Y0122038D01*
X0082308Y0122126D01*
X0083799Y0122126D01*
X0083799Y0118173D01*
X0083799Y0118329D02*
X0084799Y0118329D01*
X0084799Y0119327D02*
X0083799Y0119327D01*
X0083799Y0120326D02*
X0084799Y0120326D01*
X0084799Y0121324D02*
X0083799Y0121324D01*
X0080782Y0121324D02*
X0036496Y0121324D01*
X0036496Y0120326D02*
X0080293Y0120326D01*
X0080240Y0119327D02*
X0036496Y0119327D01*
X0036496Y0118329D02*
X0080240Y0118329D01*
X0083799Y0116332D02*
X0084799Y0116332D01*
X0084799Y0115333D02*
X0083799Y0115333D01*
X0083799Y0114335D02*
X0084799Y0114335D01*
X0084799Y0113336D02*
X0083799Y0113336D01*
X0086801Y0113336D02*
X0088161Y0113336D01*
X0095051Y0120326D02*
X0095988Y0120326D01*
X0095988Y0121324D02*
X0094509Y0121324D01*
X0095988Y0122323D02*
X0074664Y0122323D01*
X0073068Y0122323D02*
X0036496Y0122323D01*
X0036496Y0123321D02*
X0071447Y0123321D01*
X0070820Y0124320D02*
X0036496Y0124320D01*
X0036496Y0125318D02*
X0070582Y0125318D01*
X0070630Y0126317D02*
X0036496Y0126317D01*
X0036496Y0127315D02*
X0071044Y0127315D01*
X0073866Y0125547D02*
X0104417Y0125547D01*
X0104417Y0150665D01*
X0101268Y0150665D02*
X0101268Y0129484D01*
X0034496Y0129484D01*
X0034496Y0101925D01*
X0032276Y0104350D02*
X0028622Y0104350D01*
X0028622Y0105348D02*
X0032496Y0105348D01*
X0032496Y0106347D02*
X0028622Y0106347D01*
X0028622Y0107345D02*
X0032496Y0107345D01*
X0032496Y0108344D02*
X0028622Y0108344D01*
X0028622Y0109342D02*
X0032496Y0109342D01*
X0032496Y0110341D02*
X0028622Y0110341D01*
X0028622Y0111339D02*
X0032496Y0111339D01*
X0032496Y0112338D02*
X0028622Y0112338D01*
X0028622Y0113336D02*
X0032496Y0113336D01*
X0032496Y0114335D02*
X0028622Y0114335D01*
X0028622Y0115333D02*
X0032496Y0115333D01*
X0032496Y0116332D02*
X0028622Y0116332D01*
X0028622Y0117330D02*
X0032496Y0117330D01*
X0032496Y0118329D02*
X0028622Y0118329D01*
X0028622Y0119327D02*
X0032496Y0119327D01*
X0032496Y0120326D02*
X0028622Y0120326D01*
X0028622Y0121324D02*
X0032496Y0121324D01*
X0032496Y0122323D02*
X0028622Y0122323D01*
X0028622Y0123321D02*
X0032496Y0123321D01*
X0032496Y0124320D02*
X0028622Y0124320D01*
X0028622Y0125318D02*
X0032496Y0125318D01*
X0032496Y0126317D02*
X0028622Y0126317D01*
X0028622Y0127315D02*
X0032496Y0127315D01*
X0032496Y0128314D02*
X0028622Y0128314D01*
X0028622Y0129312D02*
X0032496Y0129312D01*
X0032496Y0130311D02*
X0028622Y0130311D01*
X0028622Y0131309D02*
X0033493Y0131309D01*
X0028622Y0132308D02*
X0066835Y0132308D01*
X0066645Y0133306D02*
X0028622Y0133306D01*
X0028622Y0134305D02*
X0064781Y0134305D01*
X0063402Y0135303D02*
X0028622Y0135303D01*
X0028622Y0136302D02*
X0062875Y0136302D01*
X0062708Y0137301D02*
X0028622Y0137301D01*
X0028622Y0138299D02*
X0062827Y0138299D01*
X0063287Y0139298D02*
X0028622Y0139298D01*
X0028622Y0140296D02*
X0064502Y0140296D01*
X0067482Y0140296D02*
X0092969Y0140296D01*
X0092969Y0141295D02*
X0028622Y0141295D01*
X0028622Y0142293D02*
X0092969Y0142293D01*
X0092969Y0143292D02*
X0028622Y0143292D01*
X0028622Y0144290D02*
X0092969Y0144290D01*
X0092969Y0145289D02*
X0028622Y0145289D01*
X0028622Y0146287D02*
X0090606Y0146287D01*
X0089607Y0147286D02*
X0028622Y0147286D01*
X0028622Y0148284D02*
X0089335Y0148284D01*
X0089335Y0149283D02*
X0028622Y0149283D01*
X0028622Y0150281D02*
X0089335Y0150281D01*
X0089335Y0151280D02*
X0028622Y0151280D01*
X0028622Y0152278D02*
X0089335Y0152278D01*
X0089335Y0153277D02*
X0028622Y0153277D01*
X0028622Y0154275D02*
X0068053Y0154275D01*
X0067107Y0155274D02*
X0028622Y0155274D01*
X0028622Y0156272D02*
X0066694Y0156272D01*
X0071806Y0154275D02*
X0089837Y0154275D01*
X0094969Y0150665D02*
X0094969Y0137358D01*
X0065992Y0137358D01*
X0069929Y0133421D02*
X0098118Y0133421D01*
X0098118Y0150665D01*
X0089819Y0163262D02*
X0089185Y0163262D01*
X0089185Y0164260D02*
X0089819Y0164260D01*
X0089819Y0165259D02*
X0089116Y0165259D01*
X0089185Y0166257D02*
X0089819Y0166257D01*
X0089819Y0167256D02*
X0089185Y0167256D01*
X0089185Y0168254D02*
X0089819Y0168254D01*
X0089819Y0169253D02*
X0089185Y0169253D01*
X0089185Y0170251D02*
X0089819Y0170251D01*
X0089819Y0171250D02*
X0089185Y0171250D01*
X0089072Y0172248D02*
X0089819Y0172248D01*
X0089819Y0173247D02*
X0089185Y0173247D01*
X0089185Y0174245D02*
X0089819Y0174245D01*
X0089819Y0175244D02*
X0088918Y0175244D01*
X0089185Y0176242D02*
X0089819Y0176242D01*
X0089819Y0177241D02*
X0089185Y0177241D01*
X0088764Y0178239D02*
X0089819Y0178239D01*
X0089819Y0179238D02*
X0089185Y0179238D01*
X0089185Y0180237D02*
X0089819Y0180237D01*
X0089819Y0181235D02*
X0088888Y0181235D01*
X0089185Y0182234D02*
X0089819Y0182234D01*
X0089819Y0183232D02*
X0089185Y0183232D01*
X0089042Y0184231D02*
X0089819Y0184231D01*
X0089819Y0185229D02*
X0089185Y0185229D01*
X0089185Y0186228D02*
X0089819Y0186228D01*
X0089819Y0187226D02*
X0089185Y0187226D01*
X0089185Y0188225D02*
X0089819Y0188225D01*
X0089819Y0189223D02*
X0089185Y0189223D01*
X0089185Y0190222D02*
X0089819Y0190222D01*
X0089819Y0191220D02*
X0088351Y0191220D01*
X0089819Y0192219D02*
X0079803Y0192219D01*
X0079803Y0193217D02*
X0089345Y0193217D01*
X0089335Y0194216D02*
X0079803Y0194216D01*
X0079803Y0195214D02*
X0089335Y0195214D01*
X0089335Y0196213D02*
X0079803Y0196213D01*
X0079803Y0197211D02*
X0089335Y0197211D01*
X0089335Y0198210D02*
X0079803Y0198210D01*
X0079803Y0199208D02*
X0089335Y0199208D01*
X0090100Y0200207D02*
X0079803Y0200207D01*
X0079777Y0201205D02*
X0093805Y0201205D01*
X0092806Y0202204D02*
X0078778Y0202204D01*
X0085817Y0209193D02*
X0022872Y0209193D01*
X0023512Y0210192D02*
X0084818Y0210192D01*
X0083820Y0211190D02*
X0024088Y0211190D01*
X0024561Y0212189D02*
X0082821Y0212189D01*
X0081823Y0213187D02*
X0024828Y0213187D01*
X0025096Y0214186D02*
X0080824Y0214186D01*
X0079826Y0215184D02*
X0025220Y0215184D01*
X0025220Y0216183D02*
X0079740Y0216183D01*
X0079740Y0217181D02*
X0025220Y0217181D01*
X0025051Y0218180D02*
X0078210Y0218180D01*
X0077282Y0219178D02*
X0024783Y0219178D01*
X0024516Y0220177D02*
X0076868Y0220177D01*
X0076540Y0221175D02*
X0023991Y0221175D01*
X0023414Y0222174D02*
X0076540Y0222174D01*
X0076596Y0223172D02*
X0022703Y0223172D01*
X0021704Y0224171D02*
X0077009Y0224171D01*
X0077552Y0225170D02*
X0020509Y0225170D01*
X0021873Y0208195D02*
X0086815Y0208195D01*
X0087814Y0207196D02*
X0020802Y0207196D01*
X0019072Y0206198D02*
X0088812Y0206198D01*
X0089811Y0205199D02*
X0016045Y0205199D01*
X0012396Y0205199D02*
X0007500Y0205199D01*
X0007500Y0204201D02*
X0090809Y0204201D01*
X0091808Y0203202D02*
X0007500Y0203202D01*
X0007500Y0202204D02*
X0021710Y0202204D01*
X0020711Y0201205D02*
X0007500Y0201205D01*
X0007500Y0200207D02*
X0020685Y0200207D01*
X0020685Y0199208D02*
X0007500Y0199208D01*
X0007500Y0198210D02*
X0020685Y0198210D01*
X0020685Y0197211D02*
X0007500Y0197211D01*
X0007500Y0196213D02*
X0020685Y0196213D01*
X0020685Y0195214D02*
X0007500Y0195214D01*
X0007500Y0194216D02*
X0020685Y0194216D01*
X0020685Y0193217D02*
X0007500Y0193217D01*
X0007500Y0192219D02*
X0020685Y0192219D01*
X0020685Y0191220D02*
X0007500Y0191220D01*
X0007500Y0190222D02*
X0020685Y0190222D01*
X0020685Y0189223D02*
X0007500Y0189223D01*
X0007500Y0188225D02*
X0020685Y0188225D01*
X0020685Y0187226D02*
X0007500Y0187226D01*
X0007500Y0186228D02*
X0020685Y0186228D01*
X0020685Y0185229D02*
X0007500Y0185229D01*
X0007500Y0184231D02*
X0020685Y0184231D01*
X0020685Y0183232D02*
X0007500Y0183232D01*
X0007500Y0182234D02*
X0020685Y0182234D01*
X0020685Y0181235D02*
X0007500Y0181235D01*
X0007500Y0180237D02*
X0020685Y0180237D01*
X0020685Y0179238D02*
X0007500Y0179238D01*
X0007500Y0178239D02*
X0020685Y0178239D01*
X0020685Y0177241D02*
X0007500Y0177241D01*
X0007500Y0176242D02*
X0020685Y0176242D01*
X0020685Y0175244D02*
X0007500Y0175244D01*
X0007500Y0174245D02*
X0020685Y0174245D01*
X0020685Y0173247D02*
X0007500Y0173247D01*
X0028622Y0194216D02*
X0071866Y0194216D01*
X0071866Y0193217D02*
X0048602Y0193217D01*
X0049982Y0192219D02*
X0071866Y0192219D01*
X0069929Y0188539D02*
X0069929Y0179799D01*
X0084732Y0179799D01*
X0080280Y0188225D02*
X0079803Y0188225D01*
X0079803Y0189223D02*
X0080280Y0189223D01*
X0080280Y0190222D02*
X0079803Y0190222D01*
X0079803Y0191220D02*
X0081113Y0191220D01*
X0091819Y0188539D02*
X0091819Y0196335D01*
X0094968Y0196335D02*
X0094969Y0196335D01*
X0094969Y0191882D01*
X0095382Y0191882D01*
X0095826Y0191970D01*
X0096244Y0192143D01*
X0096528Y0192333D01*
X0096980Y0191882D01*
X0099257Y0191882D01*
X0099693Y0192318D01*
X0100129Y0191882D01*
X0102406Y0191882D01*
X0102843Y0192318D01*
X0103279Y0191882D01*
X0105556Y0191882D01*
X0105992Y0192318D01*
X0106428Y0191882D01*
X0108705Y0191882D01*
X0109142Y0192318D01*
X0109578Y0191882D01*
X0111855Y0191882D01*
X0112291Y0192318D01*
X0112728Y0191882D01*
X0115005Y0191882D01*
X0115441Y0192318D01*
X0115877Y0191882D01*
X0118154Y0191882D01*
X0118606Y0192333D01*
X0118890Y0192143D01*
X0119308Y0191970D01*
X0119752Y0191882D01*
X0120165Y0191882D01*
X0120165Y0196335D01*
X0120165Y0200787D01*
X0120165Y0196335D01*
X0120165Y0196335D01*
X0120165Y0196335D01*
X0120165Y0191882D01*
X0120579Y0191882D01*
X0121022Y0191970D01*
X0121315Y0192091D01*
X0121315Y0190539D01*
X0093819Y0190539D01*
X0093819Y0192091D01*
X0094111Y0191970D01*
X0094555Y0191882D01*
X0094968Y0191882D01*
X0094968Y0196335D01*
X0094968Y0196213D02*
X0094969Y0196213D01*
X0094968Y0195214D02*
X0094969Y0195214D01*
X0094968Y0194216D02*
X0094969Y0194216D01*
X0094968Y0193217D02*
X0094969Y0193217D01*
X0094968Y0192219D02*
X0094969Y0192219D01*
X0096356Y0192219D02*
X0096643Y0192219D01*
X0099593Y0192219D02*
X0099792Y0192219D01*
X0102743Y0192219D02*
X0102942Y0192219D01*
X0105893Y0192219D02*
X0106092Y0192219D01*
X0109042Y0192219D02*
X0109241Y0192219D01*
X0112192Y0192219D02*
X0112391Y0192219D01*
X0115341Y0192219D02*
X0115540Y0192219D01*
X0118491Y0192219D02*
X0118777Y0192219D01*
X0120165Y0192219D02*
X0120165Y0192219D01*
X0120165Y0193217D02*
X0120165Y0193217D01*
X0120165Y0194216D02*
X0120165Y0194216D01*
X0120165Y0195214D02*
X0120165Y0195214D01*
X0120165Y0196213D02*
X0120165Y0196213D01*
X0120165Y0197211D02*
X0120165Y0197211D01*
X0120165Y0198210D02*
X0120165Y0198210D01*
X0120165Y0199208D02*
X0120165Y0199208D01*
X0120165Y0200207D02*
X0120165Y0200207D01*
X0121315Y0201205D02*
X0116919Y0201205D01*
X0117918Y0202204D02*
X0121315Y0202204D01*
X0121315Y0203202D02*
X0118916Y0203202D01*
X0119915Y0204201D02*
X0122132Y0204201D01*
X0123131Y0205199D02*
X0120914Y0205199D01*
X0121912Y0206198D02*
X0124129Y0206198D01*
X0125128Y0207196D02*
X0122911Y0207196D01*
X0123909Y0208195D02*
X0126126Y0208195D01*
X0127125Y0209193D02*
X0124908Y0209193D01*
X0125906Y0210192D02*
X0128123Y0210192D01*
X0129786Y0206198D02*
X0186866Y0206198D01*
X0186866Y0205199D02*
X0128788Y0205199D01*
X0127789Y0204201D02*
X0186866Y0204201D01*
X0186866Y0203202D02*
X0126791Y0203202D01*
X0125792Y0202204D02*
X0186866Y0202204D01*
X0190866Y0192219D02*
X0202544Y0192219D01*
X0201706Y0191220D02*
X0190866Y0191220D01*
X0190866Y0190222D02*
X0201293Y0190222D01*
X0201291Y0189223D02*
X0190866Y0189223D01*
X0194927Y0188225D02*
X0201542Y0188225D01*
X0202146Y0187226D02*
X0195642Y0187226D01*
X0185336Y0218180D02*
X0182396Y0218180D01*
X0183324Y0219178D02*
X0184408Y0219178D01*
X0183994Y0220177D02*
X0183738Y0220177D01*
X0169366Y0220177D02*
X0168366Y0220177D01*
X0168366Y0221175D02*
X0169366Y0221175D01*
X0168366Y0222174D02*
X0136940Y0222174D01*
X0136940Y0221175D02*
X0163733Y0221175D01*
X0163992Y0220177D02*
X0136612Y0220177D01*
X0136198Y0219178D02*
X0164491Y0219178D01*
X0165336Y0218180D02*
X0135270Y0218180D01*
X0133686Y0217181D02*
X0166881Y0217181D01*
X0168366Y0217181D02*
X0169366Y0217181D01*
X0169366Y0218180D02*
X0168366Y0218180D01*
X0168366Y0219178D02*
X0169366Y0219178D01*
X0163786Y0223172D02*
X0136885Y0223172D01*
X0136471Y0224171D02*
X0164134Y0224171D01*
X0164739Y0225170D02*
X0135928Y0225170D01*
X0131740Y0222004D02*
X0131740Y0218854D01*
X0113866Y0200980D01*
X0113866Y0196335D01*
X0110717Y0196335D02*
X0110717Y0201768D01*
X0121740Y0212791D01*
X0121740Y0222004D01*
X0111740Y0222004D02*
X0111740Y0206728D01*
X0107567Y0202555D01*
X0107567Y0196335D01*
X0104417Y0196335D02*
X0104417Y0202280D01*
X0101740Y0204957D01*
X0101740Y0222004D01*
X0091740Y0222004D02*
X0091740Y0210035D01*
X0101268Y0200508D01*
X0101268Y0196335D01*
X0098118Y0196335D02*
X0098118Y0199720D01*
X0081740Y0216098D01*
X0081740Y0222004D01*
X0093819Y0191220D02*
X0121315Y0191220D01*
X0125315Y0191220D02*
X0126782Y0191220D01*
X0125949Y0190222D02*
X0125315Y0190222D01*
X0125315Y0189223D02*
X0125949Y0189223D01*
X0125949Y0188225D02*
X0125315Y0188225D01*
X0125949Y0183232D02*
X0123110Y0183232D01*
X0123110Y0182234D02*
X0125949Y0182234D01*
X0126246Y0181235D02*
X0123110Y0181235D01*
X0123110Y0180237D02*
X0125949Y0180237D01*
X0125949Y0179238D02*
X0123110Y0179238D01*
X0119110Y0179238D02*
X0119016Y0179238D01*
X0119016Y0180237D02*
X0119110Y0180237D01*
X0119110Y0181235D02*
X0119016Y0181235D01*
X0119016Y0182234D02*
X0119110Y0182234D01*
X0119110Y0183232D02*
X0119016Y0183232D01*
X0119016Y0184231D02*
X0119110Y0184231D01*
X0119110Y0185229D02*
X0119016Y0185229D01*
X0119016Y0186228D02*
X0119110Y0186228D01*
X0119016Y0178239D02*
X0119110Y0178239D01*
X0119110Y0177241D02*
X0119016Y0177241D01*
X0119016Y0176242D02*
X0119110Y0176242D01*
X0119110Y0175244D02*
X0119016Y0175244D01*
X0119016Y0174245D02*
X0119110Y0174245D01*
X0119110Y0173247D02*
X0119016Y0173247D01*
X0119016Y0172248D02*
X0119110Y0172248D01*
X0119110Y0171250D02*
X0119016Y0171250D01*
X0119016Y0170251D02*
X0119110Y0170251D01*
X0119016Y0169253D02*
X0119379Y0169253D01*
X0119016Y0168254D02*
X0125949Y0168254D01*
X0125949Y0167256D02*
X0119016Y0167256D01*
X0119016Y0166257D02*
X0125949Y0166257D01*
X0126018Y0165259D02*
X0119016Y0165259D01*
X0119016Y0164260D02*
X0125949Y0164260D01*
X0125949Y0163262D02*
X0119016Y0163262D01*
X0133515Y0155274D02*
X0148480Y0155274D01*
X0148480Y0152278D02*
X0134137Y0152278D01*
X0134921Y0151280D02*
X0148480Y0151280D01*
X0148480Y0150281D02*
X0134921Y0150281D01*
X0134921Y0149283D02*
X0148480Y0149283D01*
X0138103Y0139298D02*
X0137722Y0139298D01*
X0137279Y0138299D02*
X0138671Y0138299D01*
X0139573Y0137301D02*
X0136280Y0137301D01*
X0134455Y0136302D02*
X0141461Y0136302D01*
X0131388Y0136302D02*
X0128932Y0136302D01*
X0129562Y0137301D02*
X0127933Y0137301D01*
X0128564Y0138299D02*
X0126935Y0138299D01*
X0133799Y0121324D02*
X0134799Y0121324D01*
X0134799Y0120326D02*
X0133799Y0120326D01*
X0133799Y0119327D02*
X0134799Y0119327D01*
X0134799Y0118329D02*
X0133799Y0118329D01*
X0138358Y0118329D02*
X0141248Y0118329D01*
X0140250Y0119327D02*
X0138358Y0119327D01*
X0138305Y0120326D02*
X0139251Y0120326D01*
X0138253Y0121324D02*
X0137817Y0121324D01*
X0152656Y0123321D02*
X0153559Y0123321D01*
X0153533Y0122323D02*
X0153559Y0122323D01*
X0153763Y0119327D02*
X0153951Y0119327D01*
X0157559Y0123321D02*
X0158305Y0123321D01*
X0157559Y0124320D02*
X0163402Y0124320D01*
X0163402Y0125318D02*
X0157559Y0125318D01*
X0162656Y0123321D02*
X0163402Y0123321D01*
X0163402Y0118329D02*
X0163212Y0118329D01*
X0167402Y0118329D02*
X0167753Y0118329D01*
X0167402Y0113336D02*
X0274091Y0113336D01*
X0274091Y0112338D02*
X0166832Y0112338D01*
X0183679Y0135303D02*
X0184179Y0135303D01*
X0184179Y0136302D02*
X0183679Y0136302D01*
X0183679Y0137301D02*
X0184179Y0137301D01*
X0184179Y0138299D02*
X0183679Y0138299D01*
X0183679Y0139298D02*
X0184179Y0139298D01*
X0184179Y0140296D02*
X0183679Y0140296D01*
X0187483Y0140296D02*
X0202337Y0140296D01*
X0201429Y0139298D02*
X0188262Y0139298D01*
X0188429Y0138299D02*
X0201429Y0138299D01*
X0201429Y0137301D02*
X0188429Y0137301D01*
X0188318Y0136302D02*
X0201429Y0136302D01*
X0202202Y0135303D02*
X0187656Y0135303D01*
X0187634Y0150281D02*
X0202225Y0150281D01*
X0201429Y0151280D02*
X0188429Y0151280D01*
X0188429Y0152278D02*
X0201429Y0152278D01*
X0201429Y0153277D02*
X0188429Y0153277D01*
X0188429Y0154275D02*
X0201429Y0154275D01*
X0202315Y0155274D02*
X0187543Y0155274D01*
X0180225Y0150281D02*
X0172480Y0150281D01*
X0209656Y0135303D02*
X0209906Y0135303D01*
X0210429Y0136302D02*
X0212644Y0136302D01*
X0246922Y0137301D02*
X0247294Y0137301D01*
X0249941Y0142293D02*
X0250941Y0142293D01*
X0250941Y0143292D02*
X0249941Y0143292D01*
X0249941Y0144290D02*
X0250941Y0144290D01*
X0250941Y0145289D02*
X0249941Y0145289D01*
X0247292Y0145289D02*
X0246923Y0145289D01*
X0274091Y0111339D02*
X0036496Y0111339D01*
X0036496Y0110341D02*
X0112836Y0110341D01*
X0112187Y0112338D02*
X0106411Y0112338D01*
X0106862Y0113336D02*
X0111736Y0113336D01*
X0111736Y0114335D02*
X0106862Y0114335D01*
X0106862Y0115333D02*
X0111736Y0115333D01*
X0109230Y0116332D02*
X0109054Y0116332D01*
X0110839Y0109342D02*
X0036496Y0109342D01*
X0036496Y0108344D02*
X0109413Y0108344D01*
X0108415Y0107345D02*
X0036496Y0107345D01*
X0036496Y0106347D02*
X0107570Y0106347D01*
X0106994Y0105348D02*
X0036496Y0105348D01*
X0036716Y0104350D02*
X0106417Y0104350D01*
X0106104Y0103351D02*
X0037460Y0103351D01*
X0037780Y0102353D02*
X0105837Y0102353D01*
X0105583Y0101354D02*
X0037780Y0101354D01*
X0037401Y0100356D02*
X0105583Y0100356D01*
X0105583Y0099357D02*
X0036573Y0099357D01*
X0032420Y0099357D02*
X0028622Y0099357D01*
X0028622Y0098359D02*
X0105623Y0098359D01*
X0105890Y0097360D02*
X0028622Y0097360D01*
X0028622Y0096362D02*
X0106158Y0096362D01*
X0106533Y0095363D02*
X0028622Y0095363D01*
X0028622Y0094365D02*
X0107110Y0094365D01*
X0107686Y0093366D02*
X0028622Y0093366D01*
X0028622Y0092368D02*
X0108616Y0092368D01*
X0109614Y0091369D02*
X0028622Y0091369D01*
X0028622Y0090370D02*
X0111186Y0090370D01*
X0121979Y0090370D02*
X0173809Y0090370D01*
X0183203Y0062963D02*
X0186001Y0063713D01*
X0188897Y0063713D01*
X0191695Y0062963D01*
X0194203Y0061515D01*
X0196251Y0059467D01*
X0197699Y0056958D01*
X0198449Y0054161D01*
X0198449Y0051264D01*
X0197699Y0048467D01*
X0196251Y0045958D01*
X0194203Y0043910D01*
X0191695Y0042462D01*
X0188897Y0041713D01*
X0186001Y0041713D01*
X0183203Y0042462D01*
X0180695Y0043910D01*
X0178647Y0045958D01*
X0177198Y0048467D01*
X0176449Y0051264D01*
X0176449Y0054161D01*
X0177198Y0056958D01*
X0178647Y0059467D01*
X0180695Y0061515D01*
X0183203Y0062963D01*
X0182249Y0062412D02*
X0104437Y0062412D01*
X0105436Y0063411D02*
X0184874Y0063411D01*
X0190024Y0063411D02*
X0274091Y0063411D01*
X0274091Y0064409D02*
X0106124Y0064409D01*
X0106700Y0065408D02*
X0274091Y0065408D01*
X0274091Y0066406D02*
X0107208Y0066406D01*
X0107475Y0067405D02*
X0274091Y0067405D01*
X0274091Y0068403D02*
X0107743Y0068403D01*
X0107898Y0069402D02*
X0274091Y0069402D01*
X0274091Y0070400D02*
X0107898Y0070400D01*
X0107898Y0071399D02*
X0264149Y0071399D01*
X0261237Y0072397D02*
X0107758Y0072397D01*
X0107491Y0073396D02*
X0259508Y0073396D01*
X0258478Y0074394D02*
X0107223Y0074394D01*
X0103282Y0061414D02*
X0180594Y0061414D01*
X0179595Y0060415D02*
X0101553Y0060415D01*
X0098448Y0056421D02*
X0177054Y0056421D01*
X0176787Y0055423D02*
X0099024Y0055423D01*
X0099426Y0054424D02*
X0176519Y0054424D01*
X0176449Y0053426D02*
X0099693Y0053426D01*
X0099961Y0052427D02*
X0176449Y0052427D01*
X0176449Y0051429D02*
X0100024Y0051429D01*
X0100024Y0050430D02*
X0176672Y0050430D01*
X0176940Y0049432D02*
X0100024Y0049432D01*
X0099792Y0048433D02*
X0177218Y0048433D01*
X0177794Y0047434D02*
X0099525Y0047434D01*
X0099238Y0046436D02*
X0178371Y0046436D01*
X0179168Y0045437D02*
X0098662Y0045437D01*
X0098085Y0044439D02*
X0180166Y0044439D01*
X0181509Y0043440D02*
X0097276Y0043440D01*
X0096278Y0042442D02*
X0183279Y0042442D01*
X0191619Y0042442D02*
X0195350Y0042442D01*
X0195350Y0043440D02*
X0193389Y0043440D01*
X0194732Y0044439D02*
X0195629Y0044439D01*
X0195730Y0045437D02*
X0196054Y0045437D01*
X0196527Y0046436D02*
X0197052Y0046436D01*
X0197103Y0047434D02*
X0274091Y0047434D01*
X0274091Y0048433D02*
X0197680Y0048433D01*
X0197958Y0049432D02*
X0274091Y0049432D01*
X0274091Y0050430D02*
X0198225Y0050430D01*
X0198449Y0051429D02*
X0274091Y0051429D01*
X0274091Y0052427D02*
X0198449Y0052427D01*
X0198449Y0053426D02*
X0274091Y0053426D01*
X0274091Y0054424D02*
X0198378Y0054424D01*
X0198111Y0055423D02*
X0274091Y0055423D01*
X0274091Y0056421D02*
X0197843Y0056421D01*
X0197433Y0057420D02*
X0274091Y0057420D01*
X0274091Y0058418D02*
X0196856Y0058418D01*
X0196280Y0059417D02*
X0274091Y0059417D01*
X0274091Y0060415D02*
X0195303Y0060415D01*
X0194304Y0061414D02*
X0274091Y0061414D01*
X0274091Y0062412D02*
X0192649Y0062412D01*
X0178618Y0059417D02*
X0095907Y0059417D01*
X0096906Y0058418D02*
X0178041Y0058418D01*
X0177465Y0057420D02*
X0097871Y0057420D01*
X0089358Y0062412D02*
X0024592Y0062412D01*
X0024859Y0061414D02*
X0086342Y0061414D01*
X0083774Y0060415D02*
X0025127Y0060415D01*
X0025220Y0059417D02*
X0082140Y0059417D01*
X0081141Y0058418D02*
X0025220Y0058418D01*
X0025220Y0057420D02*
X0080176Y0057420D01*
X0079600Y0056421D02*
X0025020Y0056421D01*
X0024752Y0055423D02*
X0079023Y0055423D01*
X0078622Y0054424D02*
X0024485Y0054424D01*
X0023924Y0053426D02*
X0078354Y0053426D01*
X0078087Y0052427D02*
X0023348Y0052427D01*
X0022587Y0051429D02*
X0078024Y0051429D01*
X0078024Y0050430D02*
X0021589Y0050430D01*
X0020309Y0049432D02*
X0078024Y0049432D01*
X0078255Y0048433D02*
X0018579Y0048433D01*
X0009862Y0048433D02*
X0007500Y0048433D01*
X0007500Y0047434D02*
X0078522Y0047434D01*
X0078809Y0046436D02*
X0072727Y0046436D01*
X0073726Y0045437D02*
X0079386Y0045437D01*
X0079962Y0044439D02*
X0074150Y0044439D01*
X0074429Y0043440D02*
X0080771Y0043440D01*
X0081769Y0042442D02*
X0074429Y0042442D01*
X0074429Y0041443D02*
X0083133Y0041443D01*
X0084960Y0040445D02*
X0074429Y0040445D01*
X0074429Y0039446D02*
X0195350Y0039446D01*
X0195350Y0038448D02*
X0074429Y0038448D01*
X0074429Y0037449D02*
X0195350Y0037449D01*
X0195350Y0036451D02*
X0074429Y0036451D01*
X0074429Y0035452D02*
X0195350Y0035452D01*
X0195350Y0034454D02*
X0074429Y0034454D01*
X0074429Y0033455D02*
X0195350Y0033455D01*
X0195350Y0032457D02*
X0074429Y0032457D01*
X0074429Y0031458D02*
X0195350Y0031458D01*
X0195350Y0030460D02*
X0074429Y0030460D01*
X0074429Y0029461D02*
X0195350Y0029461D01*
X0195350Y0028463D02*
X0074429Y0028463D01*
X0074429Y0027464D02*
X0195350Y0027464D01*
X0195350Y0026466D02*
X0074429Y0026466D01*
X0074429Y0025467D02*
X0195350Y0025467D01*
X0195350Y0024469D02*
X0074429Y0024469D01*
X0074429Y0023470D02*
X0195350Y0023470D01*
X0195350Y0022472D02*
X0074429Y0022472D01*
X0074429Y0021473D02*
X0195350Y0021473D01*
X0195350Y0020475D02*
X0074429Y0020475D01*
X0074429Y0019476D02*
X0195350Y0019476D01*
X0195350Y0018478D02*
X0074429Y0018478D01*
X0074429Y0017479D02*
X0195350Y0017479D01*
X0195350Y0016481D02*
X0074429Y0016481D01*
X0074429Y0015482D02*
X0195350Y0015482D01*
X0195350Y0014484D02*
X0074429Y0014484D01*
X0074429Y0013485D02*
X0195350Y0013485D01*
X0195350Y0012487D02*
X0074429Y0012487D01*
X0074429Y0011488D02*
X0195350Y0011488D01*
X0195350Y0010490D02*
X0074429Y0010490D01*
X0074429Y0009491D02*
X0195350Y0009491D01*
X0195350Y0008493D02*
X0074429Y0008493D01*
X0093087Y0040445D02*
X0195350Y0040445D01*
X0195350Y0041443D02*
X0094914Y0041443D01*
X0088360Y0063411D02*
X0024155Y0063411D01*
X0023579Y0064409D02*
X0087672Y0064409D01*
X0087095Y0065408D02*
X0022987Y0065408D01*
X0021989Y0066406D02*
X0086588Y0066406D01*
X0086320Y0067405D02*
X0020990Y0067405D01*
X0019272Y0068403D02*
X0086052Y0068403D01*
X0085898Y0069402D02*
X0016476Y0069402D01*
X0011965Y0069402D02*
X0007500Y0069402D01*
X0007500Y0070400D02*
X0085898Y0070400D01*
X0085898Y0071399D02*
X0007500Y0071399D01*
X0007500Y0072397D02*
X0086037Y0072397D01*
X0086305Y0073396D02*
X0007500Y0073396D01*
X0007500Y0074394D02*
X0086572Y0074394D01*
X0087062Y0075393D02*
X0007500Y0075393D01*
X0007500Y0076391D02*
X0087638Y0076391D01*
X0088302Y0077390D02*
X0007500Y0077390D01*
X0007500Y0078388D02*
X0089301Y0078388D01*
X0090413Y0079387D02*
X0007500Y0079387D01*
X0007500Y0080385D02*
X0092142Y0080385D01*
X0124550Y0092368D02*
X0217691Y0092368D01*
X0218451Y0093366D02*
X0125479Y0093366D01*
X0126056Y0094365D02*
X0219450Y0094365D01*
X0220729Y0095363D02*
X0126632Y0095363D01*
X0124775Y0113336D02*
X0122610Y0113336D01*
X0122610Y0114335D02*
X0123776Y0114335D01*
X0123547Y0115333D02*
X0122610Y0115333D01*
X0096752Y0123321D02*
X0076285Y0123321D01*
X0031532Y0103351D02*
X0028622Y0103351D01*
X0028622Y0102353D02*
X0031212Y0102353D01*
X0031212Y0101354D02*
X0028622Y0101354D01*
X0028622Y0100356D02*
X0031591Y0100356D01*
X0009169Y0068403D02*
X0007500Y0068403D01*
X0007500Y0049432D02*
X0008132Y0049432D01*
X0065992Y0160980D02*
X0065992Y0167201D01*
X0084732Y0167201D01*
X0084732Y0164051D02*
X0069929Y0164051D01*
X0062055Y0164917D02*
X0062055Y0170350D01*
X0084732Y0170350D01*
X0130402Y0176650D02*
X0130402Y0176650D01*
X0009369Y0206198D02*
X0007500Y0206198D01*
X0007500Y0207196D02*
X0007639Y0207196D01*
X0268229Y0071399D02*
X0274091Y0071399D01*
X0274091Y0072397D02*
X0271141Y0072397D01*
X0272870Y0073396D02*
X0274091Y0073396D01*
X0274091Y0074394D02*
X0273899Y0074394D01*
X0274091Y0206198D02*
X0271041Y0206198D01*
X0272770Y0207196D02*
X0274091Y0207196D01*
X0274091Y0208195D02*
X0273842Y0208195D01*
D23*
X0250441Y0189524D03*
X0204772Y0189524D03*
D24*
X0239220Y0196413D03*
X0176228Y0088146D03*
X0128984Y0084209D03*
X0073866Y0125547D03*
X0069929Y0133421D03*
X0065992Y0137358D03*
X0069929Y0157043D03*
X0065992Y0160980D03*
X0062055Y0164917D03*
X0058118Y0168854D03*
X0034496Y0101925D03*
M02*
