%
M48
M72
T01C0.01969
T02C0.02000
T03C0.02362
T04C0.04000
T05C0.13000
%
T01
X128984Y84209
X176228Y88146
X239220Y196413
X73866Y125547
X69929Y133421
X65992Y137358
X69929Y157043
X65992Y160980
X62055Y164917
X58118Y168854
X34496Y101925
T02
X150480Y120547
X150480Y130547
X160480Y130547
X170480Y130547
X170480Y120547
X160480Y120547
T03
X250441Y189524
X204772Y189524
T04
X132921Y141295
X142921Y141295
X144732Y196413
X154732Y196413
X168866Y222004
X178866Y222004
X188866Y222004
X198866Y222004
X131740Y222004
X121740Y222004
X111740Y222004
X101740Y222004
X91740Y222004
X81740Y222004
X46307Y188539
X36307Y188539
X36307Y176728
X46307Y176728
T05
X89024Y50744
X96898Y70429
X116583Y99957
X187449Y52713
X226819Y86177
X215008Y125547
X266189Y82240
X266189Y216098
X14220Y216098
X14220Y58618
M30
