%
M48
M72
T01C0.01378
T02C0.01969
T03C0.03543
T04C0.07874
%
T01
X154937Y383283
X165173Y399031
X175016Y391157
X145094Y402969
X140142Y387220
X135252Y395094
T02
X48638Y249425
X103756Y233677
X111630Y241551
X115567Y237614
X107693Y245488
X110055Y332496
X60449Y383283
X50142Y391157
X185252Y339976
X195094Y339976
X200142Y339976
X205331Y339976
X215173Y339976
X220142Y339976
X225409Y339976
X230142Y339976
X240142Y339976
X221866Y418717
X265173Y446276
X205331Y245488
X253362Y210055
X162811Y99819
X64386Y95882
T03
X66748Y456118
X54937Y456118
T04
X171079Y62417
X171079Y34858
M30
