%
M48
M72
T01C0.01969
T02C0.02000
T03C0.03543
T04C0.04000
T05C0.13000
%
T01
X73866Y125547
X101425Y141295
X134890Y160980
X142764Y160980
X154575Y168854
X150638Y172791
X131189Y173500
X105362Y201335
X97488Y204878
X89614Y196413
X81740Y192476
X73866Y212161
X42370Y157043
X10874Y125547
X42370Y90114
X166386Y194445
X156543Y212161
X188000Y219799
X207724Y192476
X207724Y164917
X193000Y158874
T02
X173000Y117594
X183000Y117594
X193000Y117594
X193000Y127594
X183000Y127594
X173000Y127594
T03
X255500Y174839
X255500Y192161
T04
X249496Y50744
X259496Y50744
X241031Y216098
X251031Y216098
X172291Y222004
X162291Y222004
X152291Y222004
X142291Y222004
X132291Y222004
X122291Y222004
X112291Y222004
T05
X14220Y58618
X89024Y50744
X96898Y70429
X116583Y99957
X187449Y52713
X226819Y86177
X215008Y125547
X266189Y82240
X266189Y216098
X14220Y216098
M30
