G75*
%MOIN*%
%OFA0B0*%
%FSLAX25Y25*%
%IPPOS*%
%LPD*%
%AMOC8*
5,1,8,0,0,1.08239X$1,22.5*
%
%ADD10C,0.00000*%
%ADD11C,0.00039*%
%ADD12R,0.04331X0.05512*%
%ADD13R,0.15748X0.01575*%
%ADD14C,0.00400*%
%ADD15R,0.06102X0.05118*%
%ADD16R,0.09055X0.06299*%
%ADD17R,0.04724X0.04724*%
%ADD18R,0.05118X0.06102*%
%ADD19C,0.01000*%
D10*
X0017142Y0017142D02*
X0017142Y0201000D01*
X0017142Y0210449D01*
X0017142Y0466945D01*
X0290764Y0466945D01*
X0290764Y0083874D01*
X0215173Y0083874D01*
X0215173Y0017142D01*
X0017142Y0017142D01*
X0017142Y0201000D02*
X0017278Y0201002D01*
X0017414Y0201008D01*
X0017550Y0201018D01*
X0017685Y0201031D01*
X0017820Y0201049D01*
X0017955Y0201070D01*
X0018089Y0201096D01*
X0018222Y0201125D01*
X0018354Y0201158D01*
X0018485Y0201195D01*
X0018615Y0201235D01*
X0018743Y0201280D01*
X0018871Y0201328D01*
X0018997Y0201379D01*
X0019121Y0201435D01*
X0019244Y0201493D01*
X0019365Y0201556D01*
X0019484Y0201622D01*
X0019602Y0201691D01*
X0019717Y0201763D01*
X0019830Y0201839D01*
X0019941Y0201918D01*
X0020049Y0202001D01*
X0020155Y0202086D01*
X0020259Y0202174D01*
X0020360Y0202265D01*
X0020458Y0202360D01*
X0020554Y0202457D01*
X0020647Y0202556D01*
X0020736Y0202659D01*
X0020823Y0202763D01*
X0020907Y0202871D01*
X0020988Y0202980D01*
X0021065Y0203092D01*
X0021139Y0203207D01*
X0021210Y0203323D01*
X0021278Y0203441D01*
X0021342Y0203561D01*
X0021402Y0203683D01*
X0021459Y0203807D01*
X0021513Y0203932D01*
X0021563Y0204059D01*
X0021609Y0204187D01*
X0021651Y0204316D01*
X0021690Y0204447D01*
X0021725Y0204578D01*
X0021756Y0204711D01*
X0021783Y0204844D01*
X0021807Y0204978D01*
X0021826Y0205113D01*
X0021842Y0205248D01*
X0021854Y0205384D01*
X0021862Y0205520D01*
X0021866Y0205656D01*
X0021866Y0205792D01*
X0021862Y0205928D01*
X0021854Y0206064D01*
X0021842Y0206200D01*
X0021826Y0206335D01*
X0021807Y0206470D01*
X0021783Y0206604D01*
X0021756Y0206737D01*
X0021725Y0206870D01*
X0021690Y0207001D01*
X0021651Y0207132D01*
X0021609Y0207261D01*
X0021563Y0207389D01*
X0021513Y0207516D01*
X0021459Y0207641D01*
X0021402Y0207765D01*
X0021342Y0207887D01*
X0021278Y0208007D01*
X0021210Y0208125D01*
X0021139Y0208241D01*
X0021065Y0208356D01*
X0020988Y0208468D01*
X0020907Y0208577D01*
X0020823Y0208685D01*
X0020736Y0208789D01*
X0020647Y0208892D01*
X0020554Y0208991D01*
X0020458Y0209088D01*
X0020360Y0209183D01*
X0020259Y0209274D01*
X0020155Y0209362D01*
X0020049Y0209447D01*
X0019941Y0209530D01*
X0019830Y0209609D01*
X0019717Y0209685D01*
X0019602Y0209757D01*
X0019484Y0209826D01*
X0019365Y0209892D01*
X0019244Y0209955D01*
X0019121Y0210013D01*
X0018997Y0210069D01*
X0018871Y0210120D01*
X0018743Y0210168D01*
X0018615Y0210213D01*
X0018485Y0210253D01*
X0018354Y0210290D01*
X0018222Y0210323D01*
X0018089Y0210352D01*
X0017955Y0210378D01*
X0017820Y0210399D01*
X0017685Y0210417D01*
X0017550Y0210430D01*
X0017414Y0210440D01*
X0017278Y0210446D01*
X0017142Y0210448D01*
X0053165Y0456118D02*
X0053167Y0456202D01*
X0053173Y0456285D01*
X0053183Y0456368D01*
X0053197Y0456451D01*
X0053214Y0456533D01*
X0053236Y0456614D01*
X0053261Y0456693D01*
X0053290Y0456772D01*
X0053323Y0456849D01*
X0053359Y0456924D01*
X0053399Y0456998D01*
X0053442Y0457070D01*
X0053489Y0457139D01*
X0053539Y0457206D01*
X0053592Y0457271D01*
X0053648Y0457333D01*
X0053706Y0457393D01*
X0053768Y0457450D01*
X0053832Y0457503D01*
X0053899Y0457554D01*
X0053968Y0457601D01*
X0054039Y0457646D01*
X0054112Y0457686D01*
X0054187Y0457723D01*
X0054264Y0457757D01*
X0054342Y0457787D01*
X0054421Y0457813D01*
X0054502Y0457836D01*
X0054584Y0457854D01*
X0054666Y0457869D01*
X0054749Y0457880D01*
X0054832Y0457887D01*
X0054916Y0457890D01*
X0055000Y0457889D01*
X0055083Y0457884D01*
X0055167Y0457875D01*
X0055249Y0457862D01*
X0055331Y0457846D01*
X0055412Y0457825D01*
X0055493Y0457801D01*
X0055571Y0457773D01*
X0055649Y0457741D01*
X0055725Y0457705D01*
X0055799Y0457666D01*
X0055871Y0457624D01*
X0055941Y0457578D01*
X0056009Y0457529D01*
X0056074Y0457477D01*
X0056137Y0457422D01*
X0056197Y0457364D01*
X0056255Y0457303D01*
X0056309Y0457239D01*
X0056361Y0457173D01*
X0056409Y0457105D01*
X0056454Y0457034D01*
X0056495Y0456961D01*
X0056534Y0456887D01*
X0056568Y0456811D01*
X0056599Y0456733D01*
X0056626Y0456654D01*
X0056650Y0456573D01*
X0056669Y0456492D01*
X0056685Y0456410D01*
X0056697Y0456327D01*
X0056705Y0456243D01*
X0056709Y0456160D01*
X0056709Y0456076D01*
X0056705Y0455993D01*
X0056697Y0455909D01*
X0056685Y0455826D01*
X0056669Y0455744D01*
X0056650Y0455663D01*
X0056626Y0455582D01*
X0056599Y0455503D01*
X0056568Y0455425D01*
X0056534Y0455349D01*
X0056495Y0455275D01*
X0056454Y0455202D01*
X0056409Y0455131D01*
X0056361Y0455063D01*
X0056309Y0454997D01*
X0056255Y0454933D01*
X0056197Y0454872D01*
X0056137Y0454814D01*
X0056074Y0454759D01*
X0056009Y0454707D01*
X0055941Y0454658D01*
X0055871Y0454612D01*
X0055799Y0454570D01*
X0055725Y0454531D01*
X0055649Y0454495D01*
X0055571Y0454463D01*
X0055493Y0454435D01*
X0055412Y0454411D01*
X0055331Y0454390D01*
X0055249Y0454374D01*
X0055167Y0454361D01*
X0055083Y0454352D01*
X0055000Y0454347D01*
X0054916Y0454346D01*
X0054832Y0454349D01*
X0054749Y0454356D01*
X0054666Y0454367D01*
X0054584Y0454382D01*
X0054502Y0454400D01*
X0054421Y0454423D01*
X0054342Y0454449D01*
X0054264Y0454479D01*
X0054187Y0454513D01*
X0054112Y0454550D01*
X0054039Y0454590D01*
X0053968Y0454635D01*
X0053899Y0454682D01*
X0053832Y0454733D01*
X0053768Y0454786D01*
X0053706Y0454843D01*
X0053648Y0454903D01*
X0053592Y0454965D01*
X0053539Y0455030D01*
X0053489Y0455097D01*
X0053442Y0455166D01*
X0053399Y0455238D01*
X0053359Y0455312D01*
X0053323Y0455387D01*
X0053290Y0455464D01*
X0053261Y0455543D01*
X0053236Y0455622D01*
X0053214Y0455703D01*
X0053197Y0455785D01*
X0053183Y0455868D01*
X0053173Y0455951D01*
X0053167Y0456034D01*
X0053165Y0456118D01*
X0064976Y0456118D02*
X0064978Y0456202D01*
X0064984Y0456285D01*
X0064994Y0456368D01*
X0065008Y0456451D01*
X0065025Y0456533D01*
X0065047Y0456614D01*
X0065072Y0456693D01*
X0065101Y0456772D01*
X0065134Y0456849D01*
X0065170Y0456924D01*
X0065210Y0456998D01*
X0065253Y0457070D01*
X0065300Y0457139D01*
X0065350Y0457206D01*
X0065403Y0457271D01*
X0065459Y0457333D01*
X0065517Y0457393D01*
X0065579Y0457450D01*
X0065643Y0457503D01*
X0065710Y0457554D01*
X0065779Y0457601D01*
X0065850Y0457646D01*
X0065923Y0457686D01*
X0065998Y0457723D01*
X0066075Y0457757D01*
X0066153Y0457787D01*
X0066232Y0457813D01*
X0066313Y0457836D01*
X0066395Y0457854D01*
X0066477Y0457869D01*
X0066560Y0457880D01*
X0066643Y0457887D01*
X0066727Y0457890D01*
X0066811Y0457889D01*
X0066894Y0457884D01*
X0066978Y0457875D01*
X0067060Y0457862D01*
X0067142Y0457846D01*
X0067223Y0457825D01*
X0067304Y0457801D01*
X0067382Y0457773D01*
X0067460Y0457741D01*
X0067536Y0457705D01*
X0067610Y0457666D01*
X0067682Y0457624D01*
X0067752Y0457578D01*
X0067820Y0457529D01*
X0067885Y0457477D01*
X0067948Y0457422D01*
X0068008Y0457364D01*
X0068066Y0457303D01*
X0068120Y0457239D01*
X0068172Y0457173D01*
X0068220Y0457105D01*
X0068265Y0457034D01*
X0068306Y0456961D01*
X0068345Y0456887D01*
X0068379Y0456811D01*
X0068410Y0456733D01*
X0068437Y0456654D01*
X0068461Y0456573D01*
X0068480Y0456492D01*
X0068496Y0456410D01*
X0068508Y0456327D01*
X0068516Y0456243D01*
X0068520Y0456160D01*
X0068520Y0456076D01*
X0068516Y0455993D01*
X0068508Y0455909D01*
X0068496Y0455826D01*
X0068480Y0455744D01*
X0068461Y0455663D01*
X0068437Y0455582D01*
X0068410Y0455503D01*
X0068379Y0455425D01*
X0068345Y0455349D01*
X0068306Y0455275D01*
X0068265Y0455202D01*
X0068220Y0455131D01*
X0068172Y0455063D01*
X0068120Y0454997D01*
X0068066Y0454933D01*
X0068008Y0454872D01*
X0067948Y0454814D01*
X0067885Y0454759D01*
X0067820Y0454707D01*
X0067752Y0454658D01*
X0067682Y0454612D01*
X0067610Y0454570D01*
X0067536Y0454531D01*
X0067460Y0454495D01*
X0067382Y0454463D01*
X0067304Y0454435D01*
X0067223Y0454411D01*
X0067142Y0454390D01*
X0067060Y0454374D01*
X0066978Y0454361D01*
X0066894Y0454352D01*
X0066811Y0454347D01*
X0066727Y0454346D01*
X0066643Y0454349D01*
X0066560Y0454356D01*
X0066477Y0454367D01*
X0066395Y0454382D01*
X0066313Y0454400D01*
X0066232Y0454423D01*
X0066153Y0454449D01*
X0066075Y0454479D01*
X0065998Y0454513D01*
X0065923Y0454550D01*
X0065850Y0454590D01*
X0065779Y0454635D01*
X0065710Y0454682D01*
X0065643Y0454733D01*
X0065579Y0454786D01*
X0065517Y0454843D01*
X0065459Y0454903D01*
X0065403Y0454965D01*
X0065350Y0455030D01*
X0065300Y0455097D01*
X0065253Y0455166D01*
X0065210Y0455238D01*
X0065170Y0455312D01*
X0065134Y0455387D01*
X0065101Y0455464D01*
X0065072Y0455543D01*
X0065047Y0455622D01*
X0065025Y0455703D01*
X0065008Y0455785D01*
X0064994Y0455868D01*
X0064984Y0455951D01*
X0064978Y0456034D01*
X0064976Y0456118D01*
X0167142Y0062417D02*
X0167144Y0062542D01*
X0167150Y0062667D01*
X0167160Y0062791D01*
X0167174Y0062915D01*
X0167191Y0063039D01*
X0167213Y0063162D01*
X0167239Y0063284D01*
X0167268Y0063406D01*
X0167301Y0063526D01*
X0167339Y0063645D01*
X0167379Y0063764D01*
X0167424Y0063880D01*
X0167472Y0063995D01*
X0167524Y0064109D01*
X0167580Y0064221D01*
X0167639Y0064331D01*
X0167701Y0064439D01*
X0167767Y0064546D01*
X0167836Y0064650D01*
X0167909Y0064751D01*
X0167984Y0064851D01*
X0168063Y0064948D01*
X0168145Y0065042D01*
X0168230Y0065134D01*
X0168317Y0065223D01*
X0168408Y0065309D01*
X0168501Y0065392D01*
X0168597Y0065473D01*
X0168695Y0065550D01*
X0168795Y0065624D01*
X0168898Y0065695D01*
X0169003Y0065762D01*
X0169111Y0065827D01*
X0169220Y0065887D01*
X0169331Y0065945D01*
X0169444Y0065998D01*
X0169558Y0066048D01*
X0169674Y0066095D01*
X0169791Y0066137D01*
X0169910Y0066176D01*
X0170030Y0066212D01*
X0170151Y0066243D01*
X0170273Y0066271D01*
X0170395Y0066294D01*
X0170519Y0066314D01*
X0170643Y0066330D01*
X0170767Y0066342D01*
X0170892Y0066350D01*
X0171017Y0066354D01*
X0171141Y0066354D01*
X0171266Y0066350D01*
X0171391Y0066342D01*
X0171515Y0066330D01*
X0171639Y0066314D01*
X0171763Y0066294D01*
X0171885Y0066271D01*
X0172007Y0066243D01*
X0172128Y0066212D01*
X0172248Y0066176D01*
X0172367Y0066137D01*
X0172484Y0066095D01*
X0172600Y0066048D01*
X0172714Y0065998D01*
X0172827Y0065945D01*
X0172938Y0065887D01*
X0173048Y0065827D01*
X0173155Y0065762D01*
X0173260Y0065695D01*
X0173363Y0065624D01*
X0173463Y0065550D01*
X0173561Y0065473D01*
X0173657Y0065392D01*
X0173750Y0065309D01*
X0173841Y0065223D01*
X0173928Y0065134D01*
X0174013Y0065042D01*
X0174095Y0064948D01*
X0174174Y0064851D01*
X0174249Y0064751D01*
X0174322Y0064650D01*
X0174391Y0064546D01*
X0174457Y0064439D01*
X0174519Y0064331D01*
X0174578Y0064221D01*
X0174634Y0064109D01*
X0174686Y0063995D01*
X0174734Y0063880D01*
X0174779Y0063764D01*
X0174819Y0063645D01*
X0174857Y0063526D01*
X0174890Y0063406D01*
X0174919Y0063284D01*
X0174945Y0063162D01*
X0174967Y0063039D01*
X0174984Y0062915D01*
X0174998Y0062791D01*
X0175008Y0062667D01*
X0175014Y0062542D01*
X0175016Y0062417D01*
X0175014Y0062292D01*
X0175008Y0062167D01*
X0174998Y0062043D01*
X0174984Y0061919D01*
X0174967Y0061795D01*
X0174945Y0061672D01*
X0174919Y0061550D01*
X0174890Y0061428D01*
X0174857Y0061308D01*
X0174819Y0061189D01*
X0174779Y0061070D01*
X0174734Y0060954D01*
X0174686Y0060839D01*
X0174634Y0060725D01*
X0174578Y0060613D01*
X0174519Y0060503D01*
X0174457Y0060395D01*
X0174391Y0060288D01*
X0174322Y0060184D01*
X0174249Y0060083D01*
X0174174Y0059983D01*
X0174095Y0059886D01*
X0174013Y0059792D01*
X0173928Y0059700D01*
X0173841Y0059611D01*
X0173750Y0059525D01*
X0173657Y0059442D01*
X0173561Y0059361D01*
X0173463Y0059284D01*
X0173363Y0059210D01*
X0173260Y0059139D01*
X0173155Y0059072D01*
X0173047Y0059007D01*
X0172938Y0058947D01*
X0172827Y0058889D01*
X0172714Y0058836D01*
X0172600Y0058786D01*
X0172484Y0058739D01*
X0172367Y0058697D01*
X0172248Y0058658D01*
X0172128Y0058622D01*
X0172007Y0058591D01*
X0171885Y0058563D01*
X0171763Y0058540D01*
X0171639Y0058520D01*
X0171515Y0058504D01*
X0171391Y0058492D01*
X0171266Y0058484D01*
X0171141Y0058480D01*
X0171017Y0058480D01*
X0170892Y0058484D01*
X0170767Y0058492D01*
X0170643Y0058504D01*
X0170519Y0058520D01*
X0170395Y0058540D01*
X0170273Y0058563D01*
X0170151Y0058591D01*
X0170030Y0058622D01*
X0169910Y0058658D01*
X0169791Y0058697D01*
X0169674Y0058739D01*
X0169558Y0058786D01*
X0169444Y0058836D01*
X0169331Y0058889D01*
X0169220Y0058947D01*
X0169110Y0059007D01*
X0169003Y0059072D01*
X0168898Y0059139D01*
X0168795Y0059210D01*
X0168695Y0059284D01*
X0168597Y0059361D01*
X0168501Y0059442D01*
X0168408Y0059525D01*
X0168317Y0059611D01*
X0168230Y0059700D01*
X0168145Y0059792D01*
X0168063Y0059886D01*
X0167984Y0059983D01*
X0167909Y0060083D01*
X0167836Y0060184D01*
X0167767Y0060288D01*
X0167701Y0060395D01*
X0167639Y0060503D01*
X0167580Y0060613D01*
X0167524Y0060725D01*
X0167472Y0060839D01*
X0167424Y0060954D01*
X0167379Y0061070D01*
X0167339Y0061189D01*
X0167301Y0061308D01*
X0167268Y0061428D01*
X0167239Y0061550D01*
X0167213Y0061672D01*
X0167191Y0061795D01*
X0167174Y0061919D01*
X0167160Y0062043D01*
X0167150Y0062167D01*
X0167144Y0062292D01*
X0167142Y0062417D01*
X0167142Y0034858D02*
X0167144Y0034983D01*
X0167150Y0035108D01*
X0167160Y0035232D01*
X0167174Y0035356D01*
X0167191Y0035480D01*
X0167213Y0035603D01*
X0167239Y0035725D01*
X0167268Y0035847D01*
X0167301Y0035967D01*
X0167339Y0036086D01*
X0167379Y0036205D01*
X0167424Y0036321D01*
X0167472Y0036436D01*
X0167524Y0036550D01*
X0167580Y0036662D01*
X0167639Y0036772D01*
X0167701Y0036880D01*
X0167767Y0036987D01*
X0167836Y0037091D01*
X0167909Y0037192D01*
X0167984Y0037292D01*
X0168063Y0037389D01*
X0168145Y0037483D01*
X0168230Y0037575D01*
X0168317Y0037664D01*
X0168408Y0037750D01*
X0168501Y0037833D01*
X0168597Y0037914D01*
X0168695Y0037991D01*
X0168795Y0038065D01*
X0168898Y0038136D01*
X0169003Y0038203D01*
X0169111Y0038268D01*
X0169220Y0038328D01*
X0169331Y0038386D01*
X0169444Y0038439D01*
X0169558Y0038489D01*
X0169674Y0038536D01*
X0169791Y0038578D01*
X0169910Y0038617D01*
X0170030Y0038653D01*
X0170151Y0038684D01*
X0170273Y0038712D01*
X0170395Y0038735D01*
X0170519Y0038755D01*
X0170643Y0038771D01*
X0170767Y0038783D01*
X0170892Y0038791D01*
X0171017Y0038795D01*
X0171141Y0038795D01*
X0171266Y0038791D01*
X0171391Y0038783D01*
X0171515Y0038771D01*
X0171639Y0038755D01*
X0171763Y0038735D01*
X0171885Y0038712D01*
X0172007Y0038684D01*
X0172128Y0038653D01*
X0172248Y0038617D01*
X0172367Y0038578D01*
X0172484Y0038536D01*
X0172600Y0038489D01*
X0172714Y0038439D01*
X0172827Y0038386D01*
X0172938Y0038328D01*
X0173048Y0038268D01*
X0173155Y0038203D01*
X0173260Y0038136D01*
X0173363Y0038065D01*
X0173463Y0037991D01*
X0173561Y0037914D01*
X0173657Y0037833D01*
X0173750Y0037750D01*
X0173841Y0037664D01*
X0173928Y0037575D01*
X0174013Y0037483D01*
X0174095Y0037389D01*
X0174174Y0037292D01*
X0174249Y0037192D01*
X0174322Y0037091D01*
X0174391Y0036987D01*
X0174457Y0036880D01*
X0174519Y0036772D01*
X0174578Y0036662D01*
X0174634Y0036550D01*
X0174686Y0036436D01*
X0174734Y0036321D01*
X0174779Y0036205D01*
X0174819Y0036086D01*
X0174857Y0035967D01*
X0174890Y0035847D01*
X0174919Y0035725D01*
X0174945Y0035603D01*
X0174967Y0035480D01*
X0174984Y0035356D01*
X0174998Y0035232D01*
X0175008Y0035108D01*
X0175014Y0034983D01*
X0175016Y0034858D01*
X0175014Y0034733D01*
X0175008Y0034608D01*
X0174998Y0034484D01*
X0174984Y0034360D01*
X0174967Y0034236D01*
X0174945Y0034113D01*
X0174919Y0033991D01*
X0174890Y0033869D01*
X0174857Y0033749D01*
X0174819Y0033630D01*
X0174779Y0033511D01*
X0174734Y0033395D01*
X0174686Y0033280D01*
X0174634Y0033166D01*
X0174578Y0033054D01*
X0174519Y0032944D01*
X0174457Y0032836D01*
X0174391Y0032729D01*
X0174322Y0032625D01*
X0174249Y0032524D01*
X0174174Y0032424D01*
X0174095Y0032327D01*
X0174013Y0032233D01*
X0173928Y0032141D01*
X0173841Y0032052D01*
X0173750Y0031966D01*
X0173657Y0031883D01*
X0173561Y0031802D01*
X0173463Y0031725D01*
X0173363Y0031651D01*
X0173260Y0031580D01*
X0173155Y0031513D01*
X0173047Y0031448D01*
X0172938Y0031388D01*
X0172827Y0031330D01*
X0172714Y0031277D01*
X0172600Y0031227D01*
X0172484Y0031180D01*
X0172367Y0031138D01*
X0172248Y0031099D01*
X0172128Y0031063D01*
X0172007Y0031032D01*
X0171885Y0031004D01*
X0171763Y0030981D01*
X0171639Y0030961D01*
X0171515Y0030945D01*
X0171391Y0030933D01*
X0171266Y0030925D01*
X0171141Y0030921D01*
X0171017Y0030921D01*
X0170892Y0030925D01*
X0170767Y0030933D01*
X0170643Y0030945D01*
X0170519Y0030961D01*
X0170395Y0030981D01*
X0170273Y0031004D01*
X0170151Y0031032D01*
X0170030Y0031063D01*
X0169910Y0031099D01*
X0169791Y0031138D01*
X0169674Y0031180D01*
X0169558Y0031227D01*
X0169444Y0031277D01*
X0169331Y0031330D01*
X0169220Y0031388D01*
X0169110Y0031448D01*
X0169003Y0031513D01*
X0168898Y0031580D01*
X0168795Y0031651D01*
X0168695Y0031725D01*
X0168597Y0031802D01*
X0168501Y0031883D01*
X0168408Y0031966D01*
X0168317Y0032052D01*
X0168230Y0032141D01*
X0168145Y0032233D01*
X0168063Y0032327D01*
X0167984Y0032424D01*
X0167909Y0032524D01*
X0167836Y0032625D01*
X0167767Y0032729D01*
X0167701Y0032836D01*
X0167639Y0032944D01*
X0167580Y0033054D01*
X0167524Y0033166D01*
X0167472Y0033280D01*
X0167424Y0033395D01*
X0167379Y0033511D01*
X0167339Y0033630D01*
X0167301Y0033749D01*
X0167268Y0033869D01*
X0167239Y0033991D01*
X0167213Y0034113D01*
X0167191Y0034236D01*
X0167174Y0034360D01*
X0167160Y0034484D01*
X0167150Y0034608D01*
X0167144Y0034733D01*
X0167142Y0034858D01*
D11*
X0188008Y0105331D02*
X0188010Y0105468D01*
X0188016Y0105606D01*
X0188026Y0105743D01*
X0188040Y0105879D01*
X0188058Y0106016D01*
X0188080Y0106151D01*
X0188106Y0106286D01*
X0188135Y0106420D01*
X0188169Y0106554D01*
X0188206Y0106686D01*
X0188248Y0106817D01*
X0188293Y0106947D01*
X0188342Y0107075D01*
X0188394Y0107202D01*
X0188451Y0107327D01*
X0188510Y0107451D01*
X0188574Y0107573D01*
X0188641Y0107693D01*
X0188711Y0107811D01*
X0188785Y0107927D01*
X0188862Y0108041D01*
X0188943Y0108152D01*
X0189026Y0108261D01*
X0189113Y0108368D01*
X0189203Y0108471D01*
X0189296Y0108573D01*
X0189392Y0108671D01*
X0189490Y0108767D01*
X0189592Y0108860D01*
X0189695Y0108950D01*
X0189802Y0109037D01*
X0189911Y0109120D01*
X0190022Y0109201D01*
X0190136Y0109278D01*
X0190252Y0109352D01*
X0190370Y0109422D01*
X0190490Y0109489D01*
X0190612Y0109553D01*
X0190736Y0109612D01*
X0190861Y0109669D01*
X0190988Y0109721D01*
X0191116Y0109770D01*
X0191246Y0109815D01*
X0191377Y0109857D01*
X0191509Y0109894D01*
X0191643Y0109928D01*
X0191777Y0109957D01*
X0191912Y0109983D01*
X0192047Y0110005D01*
X0192184Y0110023D01*
X0192320Y0110037D01*
X0192457Y0110047D01*
X0192595Y0110053D01*
X0192732Y0110055D01*
X0192869Y0110053D01*
X0193007Y0110047D01*
X0193144Y0110037D01*
X0193280Y0110023D01*
X0193417Y0110005D01*
X0193552Y0109983D01*
X0193687Y0109957D01*
X0193821Y0109928D01*
X0193955Y0109894D01*
X0194087Y0109857D01*
X0194218Y0109815D01*
X0194348Y0109770D01*
X0194476Y0109721D01*
X0194603Y0109669D01*
X0194728Y0109612D01*
X0194852Y0109553D01*
X0194974Y0109489D01*
X0195094Y0109422D01*
X0195212Y0109352D01*
X0195328Y0109278D01*
X0195442Y0109201D01*
X0195553Y0109120D01*
X0195662Y0109037D01*
X0195769Y0108950D01*
X0195872Y0108860D01*
X0195974Y0108767D01*
X0196072Y0108671D01*
X0196168Y0108573D01*
X0196261Y0108471D01*
X0196351Y0108368D01*
X0196438Y0108261D01*
X0196521Y0108152D01*
X0196602Y0108041D01*
X0196679Y0107927D01*
X0196753Y0107811D01*
X0196823Y0107693D01*
X0196890Y0107573D01*
X0196954Y0107451D01*
X0197013Y0107327D01*
X0197070Y0107202D01*
X0197122Y0107075D01*
X0197171Y0106947D01*
X0197216Y0106817D01*
X0197258Y0106686D01*
X0197295Y0106554D01*
X0197329Y0106420D01*
X0197358Y0106286D01*
X0197384Y0106151D01*
X0197406Y0106016D01*
X0197424Y0105879D01*
X0197438Y0105743D01*
X0197448Y0105606D01*
X0197454Y0105468D01*
X0197456Y0105331D01*
X0197454Y0105194D01*
X0197448Y0105056D01*
X0197438Y0104919D01*
X0197424Y0104783D01*
X0197406Y0104646D01*
X0197384Y0104511D01*
X0197358Y0104376D01*
X0197329Y0104242D01*
X0197295Y0104108D01*
X0197258Y0103976D01*
X0197216Y0103845D01*
X0197171Y0103715D01*
X0197122Y0103587D01*
X0197070Y0103460D01*
X0197013Y0103335D01*
X0196954Y0103211D01*
X0196890Y0103089D01*
X0196823Y0102969D01*
X0196753Y0102851D01*
X0196679Y0102735D01*
X0196602Y0102621D01*
X0196521Y0102510D01*
X0196438Y0102401D01*
X0196351Y0102294D01*
X0196261Y0102191D01*
X0196168Y0102089D01*
X0196072Y0101991D01*
X0195974Y0101895D01*
X0195872Y0101802D01*
X0195769Y0101712D01*
X0195662Y0101625D01*
X0195553Y0101542D01*
X0195442Y0101461D01*
X0195328Y0101384D01*
X0195212Y0101310D01*
X0195094Y0101240D01*
X0194974Y0101173D01*
X0194852Y0101109D01*
X0194728Y0101050D01*
X0194603Y0100993D01*
X0194476Y0100941D01*
X0194348Y0100892D01*
X0194218Y0100847D01*
X0194087Y0100805D01*
X0193955Y0100768D01*
X0193821Y0100734D01*
X0193687Y0100705D01*
X0193552Y0100679D01*
X0193417Y0100657D01*
X0193280Y0100639D01*
X0193144Y0100625D01*
X0193007Y0100615D01*
X0192869Y0100609D01*
X0192732Y0100607D01*
X0192595Y0100609D01*
X0192457Y0100615D01*
X0192320Y0100625D01*
X0192184Y0100639D01*
X0192047Y0100657D01*
X0191912Y0100679D01*
X0191777Y0100705D01*
X0191643Y0100734D01*
X0191509Y0100768D01*
X0191377Y0100805D01*
X0191246Y0100847D01*
X0191116Y0100892D01*
X0190988Y0100941D01*
X0190861Y0100993D01*
X0190736Y0101050D01*
X0190612Y0101109D01*
X0190490Y0101173D01*
X0190370Y0101240D01*
X0190252Y0101310D01*
X0190136Y0101384D01*
X0190022Y0101461D01*
X0189911Y0101542D01*
X0189802Y0101625D01*
X0189695Y0101712D01*
X0189592Y0101802D01*
X0189490Y0101895D01*
X0189392Y0101991D01*
X0189296Y0102089D01*
X0189203Y0102191D01*
X0189113Y0102294D01*
X0189026Y0102401D01*
X0188943Y0102510D01*
X0188862Y0102621D01*
X0188785Y0102735D01*
X0188711Y0102851D01*
X0188641Y0102969D01*
X0188574Y0103089D01*
X0188510Y0103211D01*
X0188451Y0103335D01*
X0188394Y0103460D01*
X0188342Y0103587D01*
X0188293Y0103715D01*
X0188248Y0103845D01*
X0188206Y0103976D01*
X0188169Y0104108D01*
X0188135Y0104242D01*
X0188106Y0104376D01*
X0188080Y0104511D01*
X0188058Y0104646D01*
X0188040Y0104783D01*
X0188026Y0104919D01*
X0188016Y0105056D01*
X0188010Y0105194D01*
X0188008Y0105331D01*
X0223441Y0178953D02*
X0223443Y0179090D01*
X0223449Y0179228D01*
X0223459Y0179365D01*
X0223473Y0179501D01*
X0223491Y0179638D01*
X0223513Y0179773D01*
X0223539Y0179908D01*
X0223568Y0180042D01*
X0223602Y0180176D01*
X0223639Y0180308D01*
X0223681Y0180439D01*
X0223726Y0180569D01*
X0223775Y0180697D01*
X0223827Y0180824D01*
X0223884Y0180949D01*
X0223943Y0181073D01*
X0224007Y0181195D01*
X0224074Y0181315D01*
X0224144Y0181433D01*
X0224218Y0181549D01*
X0224295Y0181663D01*
X0224376Y0181774D01*
X0224459Y0181883D01*
X0224546Y0181990D01*
X0224636Y0182093D01*
X0224729Y0182195D01*
X0224825Y0182293D01*
X0224923Y0182389D01*
X0225025Y0182482D01*
X0225128Y0182572D01*
X0225235Y0182659D01*
X0225344Y0182742D01*
X0225455Y0182823D01*
X0225569Y0182900D01*
X0225685Y0182974D01*
X0225803Y0183044D01*
X0225923Y0183111D01*
X0226045Y0183175D01*
X0226169Y0183234D01*
X0226294Y0183291D01*
X0226421Y0183343D01*
X0226549Y0183392D01*
X0226679Y0183437D01*
X0226810Y0183479D01*
X0226942Y0183516D01*
X0227076Y0183550D01*
X0227210Y0183579D01*
X0227345Y0183605D01*
X0227480Y0183627D01*
X0227617Y0183645D01*
X0227753Y0183659D01*
X0227890Y0183669D01*
X0228028Y0183675D01*
X0228165Y0183677D01*
X0228302Y0183675D01*
X0228440Y0183669D01*
X0228577Y0183659D01*
X0228713Y0183645D01*
X0228850Y0183627D01*
X0228985Y0183605D01*
X0229120Y0183579D01*
X0229254Y0183550D01*
X0229388Y0183516D01*
X0229520Y0183479D01*
X0229651Y0183437D01*
X0229781Y0183392D01*
X0229909Y0183343D01*
X0230036Y0183291D01*
X0230161Y0183234D01*
X0230285Y0183175D01*
X0230407Y0183111D01*
X0230527Y0183044D01*
X0230645Y0182974D01*
X0230761Y0182900D01*
X0230875Y0182823D01*
X0230986Y0182742D01*
X0231095Y0182659D01*
X0231202Y0182572D01*
X0231305Y0182482D01*
X0231407Y0182389D01*
X0231505Y0182293D01*
X0231601Y0182195D01*
X0231694Y0182093D01*
X0231784Y0181990D01*
X0231871Y0181883D01*
X0231954Y0181774D01*
X0232035Y0181663D01*
X0232112Y0181549D01*
X0232186Y0181433D01*
X0232256Y0181315D01*
X0232323Y0181195D01*
X0232387Y0181073D01*
X0232446Y0180949D01*
X0232503Y0180824D01*
X0232555Y0180697D01*
X0232604Y0180569D01*
X0232649Y0180439D01*
X0232691Y0180308D01*
X0232728Y0180176D01*
X0232762Y0180042D01*
X0232791Y0179908D01*
X0232817Y0179773D01*
X0232839Y0179638D01*
X0232857Y0179501D01*
X0232871Y0179365D01*
X0232881Y0179228D01*
X0232887Y0179090D01*
X0232889Y0178953D01*
X0232887Y0178816D01*
X0232881Y0178678D01*
X0232871Y0178541D01*
X0232857Y0178405D01*
X0232839Y0178268D01*
X0232817Y0178133D01*
X0232791Y0177998D01*
X0232762Y0177864D01*
X0232728Y0177730D01*
X0232691Y0177598D01*
X0232649Y0177467D01*
X0232604Y0177337D01*
X0232555Y0177209D01*
X0232503Y0177082D01*
X0232446Y0176957D01*
X0232387Y0176833D01*
X0232323Y0176711D01*
X0232256Y0176591D01*
X0232186Y0176473D01*
X0232112Y0176357D01*
X0232035Y0176243D01*
X0231954Y0176132D01*
X0231871Y0176023D01*
X0231784Y0175916D01*
X0231694Y0175813D01*
X0231601Y0175711D01*
X0231505Y0175613D01*
X0231407Y0175517D01*
X0231305Y0175424D01*
X0231202Y0175334D01*
X0231095Y0175247D01*
X0230986Y0175164D01*
X0230875Y0175083D01*
X0230761Y0175006D01*
X0230645Y0174932D01*
X0230527Y0174862D01*
X0230407Y0174795D01*
X0230285Y0174731D01*
X0230161Y0174672D01*
X0230036Y0174615D01*
X0229909Y0174563D01*
X0229781Y0174514D01*
X0229651Y0174469D01*
X0229520Y0174427D01*
X0229388Y0174390D01*
X0229254Y0174356D01*
X0229120Y0174327D01*
X0228985Y0174301D01*
X0228850Y0174279D01*
X0228713Y0174261D01*
X0228577Y0174247D01*
X0228440Y0174237D01*
X0228302Y0174231D01*
X0228165Y0174229D01*
X0228028Y0174231D01*
X0227890Y0174237D01*
X0227753Y0174247D01*
X0227617Y0174261D01*
X0227480Y0174279D01*
X0227345Y0174301D01*
X0227210Y0174327D01*
X0227076Y0174356D01*
X0226942Y0174390D01*
X0226810Y0174427D01*
X0226679Y0174469D01*
X0226549Y0174514D01*
X0226421Y0174563D01*
X0226294Y0174615D01*
X0226169Y0174672D01*
X0226045Y0174731D01*
X0225923Y0174795D01*
X0225803Y0174862D01*
X0225685Y0174932D01*
X0225569Y0175006D01*
X0225455Y0175083D01*
X0225344Y0175164D01*
X0225235Y0175247D01*
X0225128Y0175334D01*
X0225025Y0175424D01*
X0224923Y0175517D01*
X0224825Y0175613D01*
X0224729Y0175711D01*
X0224636Y0175813D01*
X0224546Y0175916D01*
X0224459Y0176023D01*
X0224376Y0176132D01*
X0224295Y0176243D01*
X0224218Y0176357D01*
X0224144Y0176473D01*
X0224074Y0176591D01*
X0224007Y0176711D01*
X0223943Y0176833D01*
X0223884Y0176957D01*
X0223827Y0177082D01*
X0223775Y0177209D01*
X0223726Y0177337D01*
X0223681Y0177467D01*
X0223639Y0177598D01*
X0223602Y0177730D01*
X0223568Y0177864D01*
X0223539Y0177998D01*
X0223513Y0178133D01*
X0223491Y0178268D01*
X0223473Y0178405D01*
X0223459Y0178541D01*
X0223449Y0178678D01*
X0223443Y0178816D01*
X0223441Y0178953D01*
X0235252Y0139583D02*
X0235254Y0139720D01*
X0235260Y0139858D01*
X0235270Y0139995D01*
X0235284Y0140131D01*
X0235302Y0140268D01*
X0235324Y0140403D01*
X0235350Y0140538D01*
X0235379Y0140672D01*
X0235413Y0140806D01*
X0235450Y0140938D01*
X0235492Y0141069D01*
X0235537Y0141199D01*
X0235586Y0141327D01*
X0235638Y0141454D01*
X0235695Y0141579D01*
X0235754Y0141703D01*
X0235818Y0141825D01*
X0235885Y0141945D01*
X0235955Y0142063D01*
X0236029Y0142179D01*
X0236106Y0142293D01*
X0236187Y0142404D01*
X0236270Y0142513D01*
X0236357Y0142620D01*
X0236447Y0142723D01*
X0236540Y0142825D01*
X0236636Y0142923D01*
X0236734Y0143019D01*
X0236836Y0143112D01*
X0236939Y0143202D01*
X0237046Y0143289D01*
X0237155Y0143372D01*
X0237266Y0143453D01*
X0237380Y0143530D01*
X0237496Y0143604D01*
X0237614Y0143674D01*
X0237734Y0143741D01*
X0237856Y0143805D01*
X0237980Y0143864D01*
X0238105Y0143921D01*
X0238232Y0143973D01*
X0238360Y0144022D01*
X0238490Y0144067D01*
X0238621Y0144109D01*
X0238753Y0144146D01*
X0238887Y0144180D01*
X0239021Y0144209D01*
X0239156Y0144235D01*
X0239291Y0144257D01*
X0239428Y0144275D01*
X0239564Y0144289D01*
X0239701Y0144299D01*
X0239839Y0144305D01*
X0239976Y0144307D01*
X0240113Y0144305D01*
X0240251Y0144299D01*
X0240388Y0144289D01*
X0240524Y0144275D01*
X0240661Y0144257D01*
X0240796Y0144235D01*
X0240931Y0144209D01*
X0241065Y0144180D01*
X0241199Y0144146D01*
X0241331Y0144109D01*
X0241462Y0144067D01*
X0241592Y0144022D01*
X0241720Y0143973D01*
X0241847Y0143921D01*
X0241972Y0143864D01*
X0242096Y0143805D01*
X0242218Y0143741D01*
X0242338Y0143674D01*
X0242456Y0143604D01*
X0242572Y0143530D01*
X0242686Y0143453D01*
X0242797Y0143372D01*
X0242906Y0143289D01*
X0243013Y0143202D01*
X0243116Y0143112D01*
X0243218Y0143019D01*
X0243316Y0142923D01*
X0243412Y0142825D01*
X0243505Y0142723D01*
X0243595Y0142620D01*
X0243682Y0142513D01*
X0243765Y0142404D01*
X0243846Y0142293D01*
X0243923Y0142179D01*
X0243997Y0142063D01*
X0244067Y0141945D01*
X0244134Y0141825D01*
X0244198Y0141703D01*
X0244257Y0141579D01*
X0244314Y0141454D01*
X0244366Y0141327D01*
X0244415Y0141199D01*
X0244460Y0141069D01*
X0244502Y0140938D01*
X0244539Y0140806D01*
X0244573Y0140672D01*
X0244602Y0140538D01*
X0244628Y0140403D01*
X0244650Y0140268D01*
X0244668Y0140131D01*
X0244682Y0139995D01*
X0244692Y0139858D01*
X0244698Y0139720D01*
X0244700Y0139583D01*
X0244698Y0139446D01*
X0244692Y0139308D01*
X0244682Y0139171D01*
X0244668Y0139035D01*
X0244650Y0138898D01*
X0244628Y0138763D01*
X0244602Y0138628D01*
X0244573Y0138494D01*
X0244539Y0138360D01*
X0244502Y0138228D01*
X0244460Y0138097D01*
X0244415Y0137967D01*
X0244366Y0137839D01*
X0244314Y0137712D01*
X0244257Y0137587D01*
X0244198Y0137463D01*
X0244134Y0137341D01*
X0244067Y0137221D01*
X0243997Y0137103D01*
X0243923Y0136987D01*
X0243846Y0136873D01*
X0243765Y0136762D01*
X0243682Y0136653D01*
X0243595Y0136546D01*
X0243505Y0136443D01*
X0243412Y0136341D01*
X0243316Y0136243D01*
X0243218Y0136147D01*
X0243116Y0136054D01*
X0243013Y0135964D01*
X0242906Y0135877D01*
X0242797Y0135794D01*
X0242686Y0135713D01*
X0242572Y0135636D01*
X0242456Y0135562D01*
X0242338Y0135492D01*
X0242218Y0135425D01*
X0242096Y0135361D01*
X0241972Y0135302D01*
X0241847Y0135245D01*
X0241720Y0135193D01*
X0241592Y0135144D01*
X0241462Y0135099D01*
X0241331Y0135057D01*
X0241199Y0135020D01*
X0241065Y0134986D01*
X0240931Y0134957D01*
X0240796Y0134931D01*
X0240661Y0134909D01*
X0240524Y0134891D01*
X0240388Y0134877D01*
X0240251Y0134867D01*
X0240113Y0134861D01*
X0239976Y0134859D01*
X0239839Y0134861D01*
X0239701Y0134867D01*
X0239564Y0134877D01*
X0239428Y0134891D01*
X0239291Y0134909D01*
X0239156Y0134931D01*
X0239021Y0134957D01*
X0238887Y0134986D01*
X0238753Y0135020D01*
X0238621Y0135057D01*
X0238490Y0135099D01*
X0238360Y0135144D01*
X0238232Y0135193D01*
X0238105Y0135245D01*
X0237980Y0135302D01*
X0237856Y0135361D01*
X0237734Y0135425D01*
X0237614Y0135492D01*
X0237496Y0135562D01*
X0237380Y0135636D01*
X0237266Y0135713D01*
X0237155Y0135794D01*
X0237046Y0135877D01*
X0236939Y0135964D01*
X0236836Y0136054D01*
X0236734Y0136147D01*
X0236636Y0136243D01*
X0236540Y0136341D01*
X0236447Y0136443D01*
X0236357Y0136546D01*
X0236270Y0136653D01*
X0236187Y0136762D01*
X0236106Y0136873D01*
X0236029Y0136987D01*
X0235955Y0137103D01*
X0235885Y0137221D01*
X0235818Y0137341D01*
X0235754Y0137463D01*
X0235695Y0137587D01*
X0235638Y0137712D01*
X0235586Y0137839D01*
X0235537Y0137967D01*
X0235492Y0138097D01*
X0235450Y0138228D01*
X0235413Y0138360D01*
X0235379Y0138494D01*
X0235350Y0138628D01*
X0235324Y0138763D01*
X0235302Y0138898D01*
X0235284Y0139035D01*
X0235270Y0139171D01*
X0235260Y0139308D01*
X0235254Y0139446D01*
X0235252Y0139583D01*
X0276591Y0130921D02*
X0276593Y0131058D01*
X0276599Y0131196D01*
X0276609Y0131333D01*
X0276623Y0131469D01*
X0276641Y0131606D01*
X0276663Y0131741D01*
X0276689Y0131876D01*
X0276718Y0132010D01*
X0276752Y0132144D01*
X0276789Y0132276D01*
X0276831Y0132407D01*
X0276876Y0132537D01*
X0276925Y0132665D01*
X0276977Y0132792D01*
X0277034Y0132917D01*
X0277093Y0133041D01*
X0277157Y0133163D01*
X0277224Y0133283D01*
X0277294Y0133401D01*
X0277368Y0133517D01*
X0277445Y0133631D01*
X0277526Y0133742D01*
X0277609Y0133851D01*
X0277696Y0133958D01*
X0277786Y0134061D01*
X0277879Y0134163D01*
X0277975Y0134261D01*
X0278073Y0134357D01*
X0278175Y0134450D01*
X0278278Y0134540D01*
X0278385Y0134627D01*
X0278494Y0134710D01*
X0278605Y0134791D01*
X0278719Y0134868D01*
X0278835Y0134942D01*
X0278953Y0135012D01*
X0279073Y0135079D01*
X0279195Y0135143D01*
X0279319Y0135202D01*
X0279444Y0135259D01*
X0279571Y0135311D01*
X0279699Y0135360D01*
X0279829Y0135405D01*
X0279960Y0135447D01*
X0280092Y0135484D01*
X0280226Y0135518D01*
X0280360Y0135547D01*
X0280495Y0135573D01*
X0280630Y0135595D01*
X0280767Y0135613D01*
X0280903Y0135627D01*
X0281040Y0135637D01*
X0281178Y0135643D01*
X0281315Y0135645D01*
X0281452Y0135643D01*
X0281590Y0135637D01*
X0281727Y0135627D01*
X0281863Y0135613D01*
X0282000Y0135595D01*
X0282135Y0135573D01*
X0282270Y0135547D01*
X0282404Y0135518D01*
X0282538Y0135484D01*
X0282670Y0135447D01*
X0282801Y0135405D01*
X0282931Y0135360D01*
X0283059Y0135311D01*
X0283186Y0135259D01*
X0283311Y0135202D01*
X0283435Y0135143D01*
X0283557Y0135079D01*
X0283677Y0135012D01*
X0283795Y0134942D01*
X0283911Y0134868D01*
X0284025Y0134791D01*
X0284136Y0134710D01*
X0284245Y0134627D01*
X0284352Y0134540D01*
X0284455Y0134450D01*
X0284557Y0134357D01*
X0284655Y0134261D01*
X0284751Y0134163D01*
X0284844Y0134061D01*
X0284934Y0133958D01*
X0285021Y0133851D01*
X0285104Y0133742D01*
X0285185Y0133631D01*
X0285262Y0133517D01*
X0285336Y0133401D01*
X0285406Y0133283D01*
X0285473Y0133163D01*
X0285537Y0133041D01*
X0285596Y0132917D01*
X0285653Y0132792D01*
X0285705Y0132665D01*
X0285754Y0132537D01*
X0285799Y0132407D01*
X0285841Y0132276D01*
X0285878Y0132144D01*
X0285912Y0132010D01*
X0285941Y0131876D01*
X0285967Y0131741D01*
X0285989Y0131606D01*
X0286007Y0131469D01*
X0286021Y0131333D01*
X0286031Y0131196D01*
X0286037Y0131058D01*
X0286039Y0130921D01*
X0286037Y0130784D01*
X0286031Y0130646D01*
X0286021Y0130509D01*
X0286007Y0130373D01*
X0285989Y0130236D01*
X0285967Y0130101D01*
X0285941Y0129966D01*
X0285912Y0129832D01*
X0285878Y0129698D01*
X0285841Y0129566D01*
X0285799Y0129435D01*
X0285754Y0129305D01*
X0285705Y0129177D01*
X0285653Y0129050D01*
X0285596Y0128925D01*
X0285537Y0128801D01*
X0285473Y0128679D01*
X0285406Y0128559D01*
X0285336Y0128441D01*
X0285262Y0128325D01*
X0285185Y0128211D01*
X0285104Y0128100D01*
X0285021Y0127991D01*
X0284934Y0127884D01*
X0284844Y0127781D01*
X0284751Y0127679D01*
X0284655Y0127581D01*
X0284557Y0127485D01*
X0284455Y0127392D01*
X0284352Y0127302D01*
X0284245Y0127215D01*
X0284136Y0127132D01*
X0284025Y0127051D01*
X0283911Y0126974D01*
X0283795Y0126900D01*
X0283677Y0126830D01*
X0283557Y0126763D01*
X0283435Y0126699D01*
X0283311Y0126640D01*
X0283186Y0126583D01*
X0283059Y0126531D01*
X0282931Y0126482D01*
X0282801Y0126437D01*
X0282670Y0126395D01*
X0282538Y0126358D01*
X0282404Y0126324D01*
X0282270Y0126295D01*
X0282135Y0126269D01*
X0282000Y0126247D01*
X0281863Y0126229D01*
X0281727Y0126215D01*
X0281590Y0126205D01*
X0281452Y0126199D01*
X0281315Y0126197D01*
X0281178Y0126199D01*
X0281040Y0126205D01*
X0280903Y0126215D01*
X0280767Y0126229D01*
X0280630Y0126247D01*
X0280495Y0126269D01*
X0280360Y0126295D01*
X0280226Y0126324D01*
X0280092Y0126358D01*
X0279960Y0126395D01*
X0279829Y0126437D01*
X0279699Y0126482D01*
X0279571Y0126531D01*
X0279444Y0126583D01*
X0279319Y0126640D01*
X0279195Y0126699D01*
X0279073Y0126763D01*
X0278953Y0126830D01*
X0278835Y0126900D01*
X0278719Y0126974D01*
X0278605Y0127051D01*
X0278494Y0127132D01*
X0278385Y0127215D01*
X0278278Y0127302D01*
X0278175Y0127392D01*
X0278073Y0127485D01*
X0277975Y0127581D01*
X0277879Y0127679D01*
X0277786Y0127781D01*
X0277696Y0127884D01*
X0277609Y0127991D01*
X0277526Y0128100D01*
X0277445Y0128211D01*
X0277368Y0128325D01*
X0277294Y0128441D01*
X0277224Y0128559D01*
X0277157Y0128679D01*
X0277093Y0128801D01*
X0277034Y0128925D01*
X0276977Y0129050D01*
X0276925Y0129177D01*
X0276876Y0129305D01*
X0276831Y0129435D01*
X0276789Y0129566D01*
X0276752Y0129698D01*
X0276718Y0129832D01*
X0276689Y0129966D01*
X0276663Y0130101D01*
X0276641Y0130236D01*
X0276623Y0130373D01*
X0276609Y0130509D01*
X0276599Y0130646D01*
X0276593Y0130784D01*
X0276591Y0130921D01*
X0126985Y0149425D02*
X0126987Y0149562D01*
X0126993Y0149700D01*
X0127003Y0149837D01*
X0127017Y0149973D01*
X0127035Y0150110D01*
X0127057Y0150245D01*
X0127083Y0150380D01*
X0127112Y0150514D01*
X0127146Y0150648D01*
X0127183Y0150780D01*
X0127225Y0150911D01*
X0127270Y0151041D01*
X0127319Y0151169D01*
X0127371Y0151296D01*
X0127428Y0151421D01*
X0127487Y0151545D01*
X0127551Y0151667D01*
X0127618Y0151787D01*
X0127688Y0151905D01*
X0127762Y0152021D01*
X0127839Y0152135D01*
X0127920Y0152246D01*
X0128003Y0152355D01*
X0128090Y0152462D01*
X0128180Y0152565D01*
X0128273Y0152667D01*
X0128369Y0152765D01*
X0128467Y0152861D01*
X0128569Y0152954D01*
X0128672Y0153044D01*
X0128779Y0153131D01*
X0128888Y0153214D01*
X0128999Y0153295D01*
X0129113Y0153372D01*
X0129229Y0153446D01*
X0129347Y0153516D01*
X0129467Y0153583D01*
X0129589Y0153647D01*
X0129713Y0153706D01*
X0129838Y0153763D01*
X0129965Y0153815D01*
X0130093Y0153864D01*
X0130223Y0153909D01*
X0130354Y0153951D01*
X0130486Y0153988D01*
X0130620Y0154022D01*
X0130754Y0154051D01*
X0130889Y0154077D01*
X0131024Y0154099D01*
X0131161Y0154117D01*
X0131297Y0154131D01*
X0131434Y0154141D01*
X0131572Y0154147D01*
X0131709Y0154149D01*
X0131846Y0154147D01*
X0131984Y0154141D01*
X0132121Y0154131D01*
X0132257Y0154117D01*
X0132394Y0154099D01*
X0132529Y0154077D01*
X0132664Y0154051D01*
X0132798Y0154022D01*
X0132932Y0153988D01*
X0133064Y0153951D01*
X0133195Y0153909D01*
X0133325Y0153864D01*
X0133453Y0153815D01*
X0133580Y0153763D01*
X0133705Y0153706D01*
X0133829Y0153647D01*
X0133951Y0153583D01*
X0134071Y0153516D01*
X0134189Y0153446D01*
X0134305Y0153372D01*
X0134419Y0153295D01*
X0134530Y0153214D01*
X0134639Y0153131D01*
X0134746Y0153044D01*
X0134849Y0152954D01*
X0134951Y0152861D01*
X0135049Y0152765D01*
X0135145Y0152667D01*
X0135238Y0152565D01*
X0135328Y0152462D01*
X0135415Y0152355D01*
X0135498Y0152246D01*
X0135579Y0152135D01*
X0135656Y0152021D01*
X0135730Y0151905D01*
X0135800Y0151787D01*
X0135867Y0151667D01*
X0135931Y0151545D01*
X0135990Y0151421D01*
X0136047Y0151296D01*
X0136099Y0151169D01*
X0136148Y0151041D01*
X0136193Y0150911D01*
X0136235Y0150780D01*
X0136272Y0150648D01*
X0136306Y0150514D01*
X0136335Y0150380D01*
X0136361Y0150245D01*
X0136383Y0150110D01*
X0136401Y0149973D01*
X0136415Y0149837D01*
X0136425Y0149700D01*
X0136431Y0149562D01*
X0136433Y0149425D01*
X0136431Y0149288D01*
X0136425Y0149150D01*
X0136415Y0149013D01*
X0136401Y0148877D01*
X0136383Y0148740D01*
X0136361Y0148605D01*
X0136335Y0148470D01*
X0136306Y0148336D01*
X0136272Y0148202D01*
X0136235Y0148070D01*
X0136193Y0147939D01*
X0136148Y0147809D01*
X0136099Y0147681D01*
X0136047Y0147554D01*
X0135990Y0147429D01*
X0135931Y0147305D01*
X0135867Y0147183D01*
X0135800Y0147063D01*
X0135730Y0146945D01*
X0135656Y0146829D01*
X0135579Y0146715D01*
X0135498Y0146604D01*
X0135415Y0146495D01*
X0135328Y0146388D01*
X0135238Y0146285D01*
X0135145Y0146183D01*
X0135049Y0146085D01*
X0134951Y0145989D01*
X0134849Y0145896D01*
X0134746Y0145806D01*
X0134639Y0145719D01*
X0134530Y0145636D01*
X0134419Y0145555D01*
X0134305Y0145478D01*
X0134189Y0145404D01*
X0134071Y0145334D01*
X0133951Y0145267D01*
X0133829Y0145203D01*
X0133705Y0145144D01*
X0133580Y0145087D01*
X0133453Y0145035D01*
X0133325Y0144986D01*
X0133195Y0144941D01*
X0133064Y0144899D01*
X0132932Y0144862D01*
X0132798Y0144828D01*
X0132664Y0144799D01*
X0132529Y0144773D01*
X0132394Y0144751D01*
X0132257Y0144733D01*
X0132121Y0144719D01*
X0131984Y0144709D01*
X0131846Y0144703D01*
X0131709Y0144701D01*
X0131572Y0144703D01*
X0131434Y0144709D01*
X0131297Y0144719D01*
X0131161Y0144733D01*
X0131024Y0144751D01*
X0130889Y0144773D01*
X0130754Y0144799D01*
X0130620Y0144828D01*
X0130486Y0144862D01*
X0130354Y0144899D01*
X0130223Y0144941D01*
X0130093Y0144986D01*
X0129965Y0145035D01*
X0129838Y0145087D01*
X0129713Y0145144D01*
X0129589Y0145203D01*
X0129467Y0145267D01*
X0129347Y0145334D01*
X0129229Y0145404D01*
X0129113Y0145478D01*
X0128999Y0145555D01*
X0128888Y0145636D01*
X0128779Y0145719D01*
X0128672Y0145806D01*
X0128569Y0145896D01*
X0128467Y0145989D01*
X0128369Y0146085D01*
X0128273Y0146183D01*
X0128180Y0146285D01*
X0128090Y0146388D01*
X0128003Y0146495D01*
X0127920Y0146604D01*
X0127839Y0146715D01*
X0127762Y0146829D01*
X0127688Y0146945D01*
X0127618Y0147063D01*
X0127551Y0147183D01*
X0127487Y0147305D01*
X0127428Y0147429D01*
X0127371Y0147554D01*
X0127319Y0147681D01*
X0127270Y0147809D01*
X0127225Y0147939D01*
X0127183Y0148070D01*
X0127146Y0148202D01*
X0127112Y0148336D01*
X0127083Y0148470D01*
X0127057Y0148605D01*
X0127035Y0148740D01*
X0127017Y0148877D01*
X0127003Y0149013D01*
X0126993Y0149150D01*
X0126987Y0149288D01*
X0126985Y0149425D01*
X0105725Y0124228D02*
X0105727Y0124365D01*
X0105733Y0124503D01*
X0105743Y0124640D01*
X0105757Y0124776D01*
X0105775Y0124913D01*
X0105797Y0125048D01*
X0105823Y0125183D01*
X0105852Y0125317D01*
X0105886Y0125451D01*
X0105923Y0125583D01*
X0105965Y0125714D01*
X0106010Y0125844D01*
X0106059Y0125972D01*
X0106111Y0126099D01*
X0106168Y0126224D01*
X0106227Y0126348D01*
X0106291Y0126470D01*
X0106358Y0126590D01*
X0106428Y0126708D01*
X0106502Y0126824D01*
X0106579Y0126938D01*
X0106660Y0127049D01*
X0106743Y0127158D01*
X0106830Y0127265D01*
X0106920Y0127368D01*
X0107013Y0127470D01*
X0107109Y0127568D01*
X0107207Y0127664D01*
X0107309Y0127757D01*
X0107412Y0127847D01*
X0107519Y0127934D01*
X0107628Y0128017D01*
X0107739Y0128098D01*
X0107853Y0128175D01*
X0107969Y0128249D01*
X0108087Y0128319D01*
X0108207Y0128386D01*
X0108329Y0128450D01*
X0108453Y0128509D01*
X0108578Y0128566D01*
X0108705Y0128618D01*
X0108833Y0128667D01*
X0108963Y0128712D01*
X0109094Y0128754D01*
X0109226Y0128791D01*
X0109360Y0128825D01*
X0109494Y0128854D01*
X0109629Y0128880D01*
X0109764Y0128902D01*
X0109901Y0128920D01*
X0110037Y0128934D01*
X0110174Y0128944D01*
X0110312Y0128950D01*
X0110449Y0128952D01*
X0110586Y0128950D01*
X0110724Y0128944D01*
X0110861Y0128934D01*
X0110997Y0128920D01*
X0111134Y0128902D01*
X0111269Y0128880D01*
X0111404Y0128854D01*
X0111538Y0128825D01*
X0111672Y0128791D01*
X0111804Y0128754D01*
X0111935Y0128712D01*
X0112065Y0128667D01*
X0112193Y0128618D01*
X0112320Y0128566D01*
X0112445Y0128509D01*
X0112569Y0128450D01*
X0112691Y0128386D01*
X0112811Y0128319D01*
X0112929Y0128249D01*
X0113045Y0128175D01*
X0113159Y0128098D01*
X0113270Y0128017D01*
X0113379Y0127934D01*
X0113486Y0127847D01*
X0113589Y0127757D01*
X0113691Y0127664D01*
X0113789Y0127568D01*
X0113885Y0127470D01*
X0113978Y0127368D01*
X0114068Y0127265D01*
X0114155Y0127158D01*
X0114238Y0127049D01*
X0114319Y0126938D01*
X0114396Y0126824D01*
X0114470Y0126708D01*
X0114540Y0126590D01*
X0114607Y0126470D01*
X0114671Y0126348D01*
X0114730Y0126224D01*
X0114787Y0126099D01*
X0114839Y0125972D01*
X0114888Y0125844D01*
X0114933Y0125714D01*
X0114975Y0125583D01*
X0115012Y0125451D01*
X0115046Y0125317D01*
X0115075Y0125183D01*
X0115101Y0125048D01*
X0115123Y0124913D01*
X0115141Y0124776D01*
X0115155Y0124640D01*
X0115165Y0124503D01*
X0115171Y0124365D01*
X0115173Y0124228D01*
X0115171Y0124091D01*
X0115165Y0123953D01*
X0115155Y0123816D01*
X0115141Y0123680D01*
X0115123Y0123543D01*
X0115101Y0123408D01*
X0115075Y0123273D01*
X0115046Y0123139D01*
X0115012Y0123005D01*
X0114975Y0122873D01*
X0114933Y0122742D01*
X0114888Y0122612D01*
X0114839Y0122484D01*
X0114787Y0122357D01*
X0114730Y0122232D01*
X0114671Y0122108D01*
X0114607Y0121986D01*
X0114540Y0121866D01*
X0114470Y0121748D01*
X0114396Y0121632D01*
X0114319Y0121518D01*
X0114238Y0121407D01*
X0114155Y0121298D01*
X0114068Y0121191D01*
X0113978Y0121088D01*
X0113885Y0120986D01*
X0113789Y0120888D01*
X0113691Y0120792D01*
X0113589Y0120699D01*
X0113486Y0120609D01*
X0113379Y0120522D01*
X0113270Y0120439D01*
X0113159Y0120358D01*
X0113045Y0120281D01*
X0112929Y0120207D01*
X0112811Y0120137D01*
X0112691Y0120070D01*
X0112569Y0120006D01*
X0112445Y0119947D01*
X0112320Y0119890D01*
X0112193Y0119838D01*
X0112065Y0119789D01*
X0111935Y0119744D01*
X0111804Y0119702D01*
X0111672Y0119665D01*
X0111538Y0119631D01*
X0111404Y0119602D01*
X0111269Y0119576D01*
X0111134Y0119554D01*
X0110997Y0119536D01*
X0110861Y0119522D01*
X0110724Y0119512D01*
X0110586Y0119506D01*
X0110449Y0119504D01*
X0110312Y0119506D01*
X0110174Y0119512D01*
X0110037Y0119522D01*
X0109901Y0119536D01*
X0109764Y0119554D01*
X0109629Y0119576D01*
X0109494Y0119602D01*
X0109360Y0119631D01*
X0109226Y0119665D01*
X0109094Y0119702D01*
X0108963Y0119744D01*
X0108833Y0119789D01*
X0108705Y0119838D01*
X0108578Y0119890D01*
X0108453Y0119947D01*
X0108329Y0120006D01*
X0108207Y0120070D01*
X0108087Y0120137D01*
X0107969Y0120207D01*
X0107853Y0120281D01*
X0107739Y0120358D01*
X0107628Y0120439D01*
X0107519Y0120522D01*
X0107412Y0120609D01*
X0107309Y0120699D01*
X0107207Y0120792D01*
X0107109Y0120888D01*
X0107013Y0120986D01*
X0106920Y0121088D01*
X0106830Y0121191D01*
X0106743Y0121298D01*
X0106660Y0121407D01*
X0106579Y0121518D01*
X0106502Y0121632D01*
X0106428Y0121748D01*
X0106358Y0121866D01*
X0106291Y0121986D01*
X0106227Y0122108D01*
X0106168Y0122232D01*
X0106111Y0122357D01*
X0106059Y0122484D01*
X0106010Y0122612D01*
X0105965Y0122742D01*
X0105923Y0122873D01*
X0105886Y0123005D01*
X0105852Y0123139D01*
X0105823Y0123273D01*
X0105797Y0123408D01*
X0105775Y0123543D01*
X0105757Y0123680D01*
X0105743Y0123816D01*
X0105733Y0123953D01*
X0105727Y0124091D01*
X0105725Y0124228D01*
X0101788Y0105331D02*
X0101790Y0105468D01*
X0101796Y0105606D01*
X0101806Y0105743D01*
X0101820Y0105879D01*
X0101838Y0106016D01*
X0101860Y0106151D01*
X0101886Y0106286D01*
X0101915Y0106420D01*
X0101949Y0106554D01*
X0101986Y0106686D01*
X0102028Y0106817D01*
X0102073Y0106947D01*
X0102122Y0107075D01*
X0102174Y0107202D01*
X0102231Y0107327D01*
X0102290Y0107451D01*
X0102354Y0107573D01*
X0102421Y0107693D01*
X0102491Y0107811D01*
X0102565Y0107927D01*
X0102642Y0108041D01*
X0102723Y0108152D01*
X0102806Y0108261D01*
X0102893Y0108368D01*
X0102983Y0108471D01*
X0103076Y0108573D01*
X0103172Y0108671D01*
X0103270Y0108767D01*
X0103372Y0108860D01*
X0103475Y0108950D01*
X0103582Y0109037D01*
X0103691Y0109120D01*
X0103802Y0109201D01*
X0103916Y0109278D01*
X0104032Y0109352D01*
X0104150Y0109422D01*
X0104270Y0109489D01*
X0104392Y0109553D01*
X0104516Y0109612D01*
X0104641Y0109669D01*
X0104768Y0109721D01*
X0104896Y0109770D01*
X0105026Y0109815D01*
X0105157Y0109857D01*
X0105289Y0109894D01*
X0105423Y0109928D01*
X0105557Y0109957D01*
X0105692Y0109983D01*
X0105827Y0110005D01*
X0105964Y0110023D01*
X0106100Y0110037D01*
X0106237Y0110047D01*
X0106375Y0110053D01*
X0106512Y0110055D01*
X0106649Y0110053D01*
X0106787Y0110047D01*
X0106924Y0110037D01*
X0107060Y0110023D01*
X0107197Y0110005D01*
X0107332Y0109983D01*
X0107467Y0109957D01*
X0107601Y0109928D01*
X0107735Y0109894D01*
X0107867Y0109857D01*
X0107998Y0109815D01*
X0108128Y0109770D01*
X0108256Y0109721D01*
X0108383Y0109669D01*
X0108508Y0109612D01*
X0108632Y0109553D01*
X0108754Y0109489D01*
X0108874Y0109422D01*
X0108992Y0109352D01*
X0109108Y0109278D01*
X0109222Y0109201D01*
X0109333Y0109120D01*
X0109442Y0109037D01*
X0109549Y0108950D01*
X0109652Y0108860D01*
X0109754Y0108767D01*
X0109852Y0108671D01*
X0109948Y0108573D01*
X0110041Y0108471D01*
X0110131Y0108368D01*
X0110218Y0108261D01*
X0110301Y0108152D01*
X0110382Y0108041D01*
X0110459Y0107927D01*
X0110533Y0107811D01*
X0110603Y0107693D01*
X0110670Y0107573D01*
X0110734Y0107451D01*
X0110793Y0107327D01*
X0110850Y0107202D01*
X0110902Y0107075D01*
X0110951Y0106947D01*
X0110996Y0106817D01*
X0111038Y0106686D01*
X0111075Y0106554D01*
X0111109Y0106420D01*
X0111138Y0106286D01*
X0111164Y0106151D01*
X0111186Y0106016D01*
X0111204Y0105879D01*
X0111218Y0105743D01*
X0111228Y0105606D01*
X0111234Y0105468D01*
X0111236Y0105331D01*
X0111234Y0105194D01*
X0111228Y0105056D01*
X0111218Y0104919D01*
X0111204Y0104783D01*
X0111186Y0104646D01*
X0111164Y0104511D01*
X0111138Y0104376D01*
X0111109Y0104242D01*
X0111075Y0104108D01*
X0111038Y0103976D01*
X0110996Y0103845D01*
X0110951Y0103715D01*
X0110902Y0103587D01*
X0110850Y0103460D01*
X0110793Y0103335D01*
X0110734Y0103211D01*
X0110670Y0103089D01*
X0110603Y0102969D01*
X0110533Y0102851D01*
X0110459Y0102735D01*
X0110382Y0102621D01*
X0110301Y0102510D01*
X0110218Y0102401D01*
X0110131Y0102294D01*
X0110041Y0102191D01*
X0109948Y0102089D01*
X0109852Y0101991D01*
X0109754Y0101895D01*
X0109652Y0101802D01*
X0109549Y0101712D01*
X0109442Y0101625D01*
X0109333Y0101542D01*
X0109222Y0101461D01*
X0109108Y0101384D01*
X0108992Y0101310D01*
X0108874Y0101240D01*
X0108754Y0101173D01*
X0108632Y0101109D01*
X0108508Y0101050D01*
X0108383Y0100993D01*
X0108256Y0100941D01*
X0108128Y0100892D01*
X0107998Y0100847D01*
X0107867Y0100805D01*
X0107735Y0100768D01*
X0107601Y0100734D01*
X0107467Y0100705D01*
X0107332Y0100679D01*
X0107197Y0100657D01*
X0107060Y0100639D01*
X0106924Y0100625D01*
X0106787Y0100615D01*
X0106649Y0100609D01*
X0106512Y0100607D01*
X0106375Y0100609D01*
X0106237Y0100615D01*
X0106100Y0100625D01*
X0105964Y0100639D01*
X0105827Y0100657D01*
X0105692Y0100679D01*
X0105557Y0100705D01*
X0105423Y0100734D01*
X0105289Y0100768D01*
X0105157Y0100805D01*
X0105026Y0100847D01*
X0104896Y0100892D01*
X0104768Y0100941D01*
X0104641Y0100993D01*
X0104516Y0101050D01*
X0104392Y0101109D01*
X0104270Y0101173D01*
X0104150Y0101240D01*
X0104032Y0101310D01*
X0103916Y0101384D01*
X0103802Y0101461D01*
X0103691Y0101542D01*
X0103582Y0101625D01*
X0103475Y0101712D01*
X0103372Y0101802D01*
X0103270Y0101895D01*
X0103172Y0101991D01*
X0103076Y0102089D01*
X0102983Y0102191D01*
X0102893Y0102294D01*
X0102806Y0102401D01*
X0102723Y0102510D01*
X0102642Y0102621D01*
X0102565Y0102735D01*
X0102491Y0102851D01*
X0102421Y0102969D01*
X0102354Y0103089D01*
X0102290Y0103211D01*
X0102231Y0103335D01*
X0102174Y0103460D01*
X0102122Y0103587D01*
X0102073Y0103715D01*
X0102028Y0103845D01*
X0101986Y0103976D01*
X0101949Y0104108D01*
X0101915Y0104242D01*
X0101886Y0104376D01*
X0101860Y0104511D01*
X0101838Y0104646D01*
X0101820Y0104783D01*
X0101806Y0104919D01*
X0101796Y0105056D01*
X0101790Y0105194D01*
X0101788Y0105331D01*
X0021079Y0109661D02*
X0021081Y0109798D01*
X0021087Y0109936D01*
X0021097Y0110073D01*
X0021111Y0110209D01*
X0021129Y0110346D01*
X0021151Y0110481D01*
X0021177Y0110616D01*
X0021206Y0110750D01*
X0021240Y0110884D01*
X0021277Y0111016D01*
X0021319Y0111147D01*
X0021364Y0111277D01*
X0021413Y0111405D01*
X0021465Y0111532D01*
X0021522Y0111657D01*
X0021581Y0111781D01*
X0021645Y0111903D01*
X0021712Y0112023D01*
X0021782Y0112141D01*
X0021856Y0112257D01*
X0021933Y0112371D01*
X0022014Y0112482D01*
X0022097Y0112591D01*
X0022184Y0112698D01*
X0022274Y0112801D01*
X0022367Y0112903D01*
X0022463Y0113001D01*
X0022561Y0113097D01*
X0022663Y0113190D01*
X0022766Y0113280D01*
X0022873Y0113367D01*
X0022982Y0113450D01*
X0023093Y0113531D01*
X0023207Y0113608D01*
X0023323Y0113682D01*
X0023441Y0113752D01*
X0023561Y0113819D01*
X0023683Y0113883D01*
X0023807Y0113942D01*
X0023932Y0113999D01*
X0024059Y0114051D01*
X0024187Y0114100D01*
X0024317Y0114145D01*
X0024448Y0114187D01*
X0024580Y0114224D01*
X0024714Y0114258D01*
X0024848Y0114287D01*
X0024983Y0114313D01*
X0025118Y0114335D01*
X0025255Y0114353D01*
X0025391Y0114367D01*
X0025528Y0114377D01*
X0025666Y0114383D01*
X0025803Y0114385D01*
X0025940Y0114383D01*
X0026078Y0114377D01*
X0026215Y0114367D01*
X0026351Y0114353D01*
X0026488Y0114335D01*
X0026623Y0114313D01*
X0026758Y0114287D01*
X0026892Y0114258D01*
X0027026Y0114224D01*
X0027158Y0114187D01*
X0027289Y0114145D01*
X0027419Y0114100D01*
X0027547Y0114051D01*
X0027674Y0113999D01*
X0027799Y0113942D01*
X0027923Y0113883D01*
X0028045Y0113819D01*
X0028165Y0113752D01*
X0028283Y0113682D01*
X0028399Y0113608D01*
X0028513Y0113531D01*
X0028624Y0113450D01*
X0028733Y0113367D01*
X0028840Y0113280D01*
X0028943Y0113190D01*
X0029045Y0113097D01*
X0029143Y0113001D01*
X0029239Y0112903D01*
X0029332Y0112801D01*
X0029422Y0112698D01*
X0029509Y0112591D01*
X0029592Y0112482D01*
X0029673Y0112371D01*
X0029750Y0112257D01*
X0029824Y0112141D01*
X0029894Y0112023D01*
X0029961Y0111903D01*
X0030025Y0111781D01*
X0030084Y0111657D01*
X0030141Y0111532D01*
X0030193Y0111405D01*
X0030242Y0111277D01*
X0030287Y0111147D01*
X0030329Y0111016D01*
X0030366Y0110884D01*
X0030400Y0110750D01*
X0030429Y0110616D01*
X0030455Y0110481D01*
X0030477Y0110346D01*
X0030495Y0110209D01*
X0030509Y0110073D01*
X0030519Y0109936D01*
X0030525Y0109798D01*
X0030527Y0109661D01*
X0030525Y0109524D01*
X0030519Y0109386D01*
X0030509Y0109249D01*
X0030495Y0109113D01*
X0030477Y0108976D01*
X0030455Y0108841D01*
X0030429Y0108706D01*
X0030400Y0108572D01*
X0030366Y0108438D01*
X0030329Y0108306D01*
X0030287Y0108175D01*
X0030242Y0108045D01*
X0030193Y0107917D01*
X0030141Y0107790D01*
X0030084Y0107665D01*
X0030025Y0107541D01*
X0029961Y0107419D01*
X0029894Y0107299D01*
X0029824Y0107181D01*
X0029750Y0107065D01*
X0029673Y0106951D01*
X0029592Y0106840D01*
X0029509Y0106731D01*
X0029422Y0106624D01*
X0029332Y0106521D01*
X0029239Y0106419D01*
X0029143Y0106321D01*
X0029045Y0106225D01*
X0028943Y0106132D01*
X0028840Y0106042D01*
X0028733Y0105955D01*
X0028624Y0105872D01*
X0028513Y0105791D01*
X0028399Y0105714D01*
X0028283Y0105640D01*
X0028165Y0105570D01*
X0028045Y0105503D01*
X0027923Y0105439D01*
X0027799Y0105380D01*
X0027674Y0105323D01*
X0027547Y0105271D01*
X0027419Y0105222D01*
X0027289Y0105177D01*
X0027158Y0105135D01*
X0027026Y0105098D01*
X0026892Y0105064D01*
X0026758Y0105035D01*
X0026623Y0105009D01*
X0026488Y0104987D01*
X0026351Y0104969D01*
X0026215Y0104955D01*
X0026078Y0104945D01*
X0025940Y0104939D01*
X0025803Y0104937D01*
X0025666Y0104939D01*
X0025528Y0104945D01*
X0025391Y0104955D01*
X0025255Y0104969D01*
X0025118Y0104987D01*
X0024983Y0105009D01*
X0024848Y0105035D01*
X0024714Y0105064D01*
X0024580Y0105098D01*
X0024448Y0105135D01*
X0024317Y0105177D01*
X0024187Y0105222D01*
X0024059Y0105271D01*
X0023932Y0105323D01*
X0023807Y0105380D01*
X0023683Y0105439D01*
X0023561Y0105503D01*
X0023441Y0105570D01*
X0023323Y0105640D01*
X0023207Y0105714D01*
X0023093Y0105791D01*
X0022982Y0105872D01*
X0022873Y0105955D01*
X0022766Y0106042D01*
X0022663Y0106132D01*
X0022561Y0106225D01*
X0022463Y0106321D01*
X0022367Y0106419D01*
X0022274Y0106521D01*
X0022184Y0106624D01*
X0022097Y0106731D01*
X0022014Y0106840D01*
X0021933Y0106951D01*
X0021856Y0107065D01*
X0021782Y0107181D01*
X0021712Y0107299D01*
X0021645Y0107419D01*
X0021581Y0107541D01*
X0021522Y0107665D01*
X0021465Y0107790D01*
X0021413Y0107917D01*
X0021364Y0108045D01*
X0021319Y0108175D01*
X0021277Y0108306D01*
X0021240Y0108438D01*
X0021206Y0108572D01*
X0021177Y0108706D01*
X0021151Y0108841D01*
X0021129Y0108976D01*
X0021111Y0109113D01*
X0021097Y0109249D01*
X0021087Y0109386D01*
X0021081Y0109524D01*
X0021079Y0109661D01*
D12*
X0040764Y0233677D03*
X0048638Y0233677D03*
X0056512Y0233677D03*
X0064386Y0233677D03*
D13*
X0083087Y0328953D03*
X0083087Y0332102D03*
X0083087Y0335252D03*
X0083087Y0338402D03*
X0083087Y0341551D03*
X0083087Y0344701D03*
X0083087Y0347850D03*
X0083087Y0351000D03*
X0083087Y0354150D03*
X0083087Y0357299D03*
X0083087Y0360449D03*
X0083087Y0363598D03*
X0083087Y0366748D03*
X0083087Y0369898D03*
X0083087Y0373047D03*
X0083087Y0376197D03*
X0083087Y0379346D03*
X0083087Y0382496D03*
D14*
X0083287Y0392932D02*
X0086356Y0392932D01*
X0084821Y0392932D02*
X0084821Y0397536D01*
X0083287Y0396002D01*
X0084821Y0321158D02*
X0084821Y0316554D01*
X0083287Y0316554D02*
X0086356Y0316554D01*
X0087891Y0317322D02*
X0087891Y0318089D01*
X0088658Y0318856D01*
X0090192Y0318856D01*
X0090960Y0318089D01*
X0090960Y0317322D01*
X0090192Y0316554D01*
X0088658Y0316554D01*
X0087891Y0317322D01*
X0088658Y0318856D02*
X0087891Y0319624D01*
X0087891Y0320391D01*
X0088658Y0321158D01*
X0090192Y0321158D01*
X0090960Y0320391D01*
X0090960Y0319624D01*
X0090192Y0318856D01*
X0084821Y0321158D02*
X0083287Y0319624D01*
D15*
X0148815Y0196118D03*
X0148815Y0178402D03*
X0137004Y0137063D03*
X0137004Y0119346D03*
X0168303Y0119346D03*
X0168303Y0137063D03*
X0192122Y0142969D03*
X0192122Y0160685D03*
X0180114Y0178402D03*
X0180114Y0196118D03*
X0203933Y0202024D03*
X0203933Y0219740D03*
X0235232Y0219740D03*
X0235232Y0202024D03*
X0247437Y0178362D03*
X0247437Y0160646D03*
X0223421Y0160685D03*
X0223421Y0142969D03*
X0235429Y0121315D03*
X0235429Y0103598D03*
X0266728Y0103598D03*
X0266728Y0121315D03*
X0278736Y0160646D03*
X0278736Y0178362D03*
D16*
X0189602Y0080173D03*
X0164799Y0080173D03*
X0143933Y0080173D03*
X0119130Y0080173D03*
D17*
X0033087Y0233677D03*
X0024819Y0233677D03*
D18*
X0056315Y0209563D03*
X0074031Y0209563D03*
X0074031Y0178264D03*
X0087811Y0178067D03*
X0105528Y0178067D03*
X0105528Y0146768D03*
X0087811Y0146768D03*
X0074031Y0146571D03*
X0056315Y0146571D03*
X0042535Y0146768D03*
X0024819Y0146768D03*
X0024819Y0178067D03*
X0042535Y0178067D03*
X0056315Y0178264D03*
X0056315Y0115272D03*
X0074031Y0115272D03*
D19*
X0077891Y0114996D02*
X0110391Y0114996D01*
X0110449Y0114984D02*
X0110449Y0114984D01*
X0113986Y0115688D01*
X0113986Y0115688D01*
X0116985Y0117692D01*
X0118989Y0120691D01*
X0119693Y0124228D01*
X0118989Y0127766D01*
X0116985Y0130765D01*
X0113986Y0132769D01*
X0110449Y0133472D01*
X0106911Y0132769D01*
X0103912Y0130765D01*
X0101908Y0127766D01*
X0101205Y0124228D01*
X0101908Y0120691D01*
X0103912Y0117692D01*
X0103912Y0117692D01*
X0103912Y0117692D01*
X0106911Y0115688D01*
X0106911Y0115688D01*
X0110449Y0114984D01*
X0110507Y0114996D02*
X0286264Y0114996D01*
X0286264Y0115994D02*
X0172400Y0115994D01*
X0172654Y0116249D02*
X0171893Y0115487D01*
X0164713Y0115487D01*
X0163952Y0116249D01*
X0163952Y0122444D01*
X0164713Y0123205D01*
X0171893Y0123205D01*
X0172654Y0122444D01*
X0172654Y0116249D01*
X0172654Y0116993D02*
X0286264Y0116993D01*
X0286264Y0117991D02*
X0270853Y0117991D01*
X0271080Y0118217D02*
X0270318Y0117456D01*
X0263139Y0117456D01*
X0262377Y0118217D01*
X0262377Y0124412D01*
X0263139Y0125174D01*
X0270318Y0125174D01*
X0271080Y0124412D01*
X0271080Y0118217D01*
X0271080Y0118990D02*
X0286264Y0118990D01*
X0286264Y0119988D02*
X0271080Y0119988D01*
X0271080Y0120987D02*
X0286264Y0120987D01*
X0286264Y0121985D02*
X0282865Y0121985D01*
X0281315Y0121677D02*
X0284853Y0122381D01*
X0286264Y0123324D01*
X0286264Y0088374D01*
X0214278Y0088374D01*
X0212624Y0087689D01*
X0211358Y0086423D01*
X0210673Y0084769D01*
X0210673Y0021642D01*
X0021642Y0021642D01*
X0021642Y0101538D01*
X0022266Y0101121D01*
X0025803Y0100417D01*
X0029341Y0101121D01*
X0032340Y0103125D01*
X0034344Y0106124D01*
X0035047Y0109661D01*
X0034344Y0113199D01*
X0032340Y0116198D01*
X0032340Y0116198D01*
X0032340Y0116198D01*
X0029341Y0118202D01*
X0029341Y0118202D01*
X0025803Y0118905D01*
X0022266Y0118202D01*
X0022266Y0118202D01*
X0021642Y0117785D01*
X0021642Y0142496D01*
X0021721Y0142417D01*
X0027916Y0142417D01*
X0028678Y0143178D01*
X0028678Y0150357D01*
X0027916Y0151119D01*
X0021721Y0151119D01*
X0021642Y0151039D01*
X0021642Y0173795D01*
X0021721Y0173716D01*
X0027916Y0173716D01*
X0028678Y0174477D01*
X0028678Y0181657D01*
X0027916Y0182418D01*
X0021721Y0182418D01*
X0021642Y0182338D01*
X0021642Y0197546D01*
X0021825Y0197613D01*
X0024317Y0199704D01*
X0025944Y0202521D01*
X0026508Y0205724D01*
X0026508Y0205724D01*
X0025944Y0208928D01*
X0024317Y0211745D01*
X0024317Y0211745D01*
X0021825Y0213836D01*
X0021642Y0213903D01*
X0021642Y0230053D01*
X0021878Y0229917D01*
X0022259Y0229815D01*
X0024319Y0229815D01*
X0024319Y0233177D01*
X0025319Y0233177D01*
X0025319Y0229815D01*
X0027379Y0229815D01*
X0027760Y0229917D01*
X0028102Y0230115D01*
X0028381Y0230394D01*
X0028579Y0230736D01*
X0028681Y0231117D01*
X0028681Y0233177D01*
X0025319Y0233177D01*
X0025319Y0234177D01*
X0028681Y0234177D01*
X0028681Y0236237D01*
X0028579Y0236618D01*
X0028381Y0236960D01*
X0028102Y0237240D01*
X0027760Y0237437D01*
X0027379Y0237539D01*
X0025319Y0237539D01*
X0025319Y0234177D01*
X0024319Y0234177D01*
X0024319Y0237539D01*
X0022259Y0237539D01*
X0021878Y0237437D01*
X0021642Y0237301D01*
X0021642Y0462445D01*
X0286264Y0462445D01*
X0286264Y0138519D01*
X0284853Y0139462D01*
X0281315Y0140165D01*
X0277777Y0139462D01*
X0274778Y0137458D01*
X0272775Y0134459D01*
X0272775Y0134459D01*
X0272071Y0130921D01*
X0272775Y0127384D01*
X0272775Y0127384D01*
X0274778Y0124385D01*
X0274778Y0124385D01*
X0274778Y0124385D01*
X0277777Y0122381D01*
X0281315Y0121677D01*
X0281315Y0121677D01*
X0279765Y0121985D02*
X0271080Y0121985D01*
X0271080Y0122984D02*
X0276875Y0122984D01*
X0277777Y0122381D02*
X0277777Y0122381D01*
X0275380Y0123982D02*
X0271080Y0123982D01*
X0270511Y0124981D02*
X0274380Y0124981D01*
X0273713Y0125979D02*
X0119345Y0125979D01*
X0119543Y0124981D02*
X0231364Y0124981D01*
X0231457Y0125074D02*
X0231178Y0124795D01*
X0230980Y0124453D01*
X0230878Y0124071D01*
X0230878Y0121815D01*
X0234929Y0121815D01*
X0234929Y0120815D01*
X0230878Y0120815D01*
X0230878Y0118558D01*
X0230980Y0118177D01*
X0231178Y0117835D01*
X0231457Y0117556D01*
X0231799Y0117358D01*
X0232180Y0117256D01*
X0234929Y0117256D01*
X0234929Y0120815D01*
X0235929Y0120815D01*
X0235929Y0117256D01*
X0238678Y0117256D01*
X0239059Y0117358D01*
X0239401Y0117556D01*
X0239681Y0117835D01*
X0239878Y0118177D01*
X0239980Y0118558D01*
X0239980Y0120815D01*
X0235929Y0120815D01*
X0235929Y0121815D01*
X0234929Y0121815D01*
X0234929Y0125374D01*
X0232180Y0125374D01*
X0231799Y0125272D01*
X0231457Y0125074D01*
X0230878Y0123982D02*
X0119644Y0123982D01*
X0119445Y0122984D02*
X0133193Y0122984D01*
X0133414Y0123205D02*
X0132653Y0122444D01*
X0132653Y0116249D01*
X0133414Y0115487D01*
X0140594Y0115487D01*
X0141355Y0116249D01*
X0141355Y0122444D01*
X0140594Y0123205D01*
X0133414Y0123205D01*
X0132653Y0121985D02*
X0119247Y0121985D01*
X0119048Y0120987D02*
X0132653Y0120987D01*
X0132653Y0119988D02*
X0118520Y0119988D01*
X0118989Y0120691D02*
X0118989Y0120691D01*
X0117853Y0118990D02*
X0132653Y0118990D01*
X0132653Y0117991D02*
X0117186Y0117991D01*
X0116985Y0117692D02*
X0116985Y0117692D01*
X0116985Y0117692D01*
X0115939Y0116993D02*
X0132653Y0116993D01*
X0132907Y0115994D02*
X0114445Y0115994D01*
X0112849Y0112000D02*
X0186395Y0112000D01*
X0186196Y0111867D02*
X0186196Y0111867D01*
X0184192Y0108868D01*
X0183488Y0105331D01*
X0183488Y0105331D01*
X0184192Y0101793D01*
X0186196Y0098794D01*
X0189195Y0096790D01*
X0192732Y0096087D01*
X0196270Y0096790D01*
X0199269Y0098794D01*
X0199269Y0098794D01*
X0199269Y0098794D01*
X0201273Y0101793D01*
X0201976Y0105331D01*
X0201273Y0108868D01*
X0201273Y0108868D01*
X0199269Y0111867D01*
X0199269Y0111867D01*
X0199269Y0111867D01*
X0196270Y0113871D01*
X0196270Y0113871D01*
X0192732Y0114575D01*
X0189195Y0113871D01*
X0189195Y0113871D01*
X0186196Y0111867D01*
X0186196Y0111867D01*
X0185617Y0111002D02*
X0113627Y0111002D01*
X0113048Y0111867D02*
X0113048Y0111867D01*
X0110049Y0113871D01*
X0106512Y0114575D01*
X0106512Y0114575D01*
X0102974Y0113871D01*
X0099975Y0111867D01*
X0097971Y0108868D01*
X0097268Y0105331D01*
X0097971Y0101793D01*
X0099975Y0098794D01*
X0099975Y0098794D01*
X0102974Y0096790D01*
X0106512Y0096087D01*
X0110049Y0096790D01*
X0113048Y0098794D01*
X0113048Y0098794D01*
X0115052Y0101793D01*
X0115756Y0105331D01*
X0115052Y0108868D01*
X0115052Y0108868D01*
X0113048Y0111867D01*
X0113048Y0111867D01*
X0111355Y0112999D02*
X0187889Y0112999D01*
X0189829Y0113997D02*
X0109415Y0113997D01*
X0110049Y0113871D02*
X0110049Y0113871D01*
X0106453Y0115994D02*
X0077891Y0115994D01*
X0077891Y0116993D02*
X0104958Y0116993D01*
X0103712Y0117991D02*
X0077891Y0117991D01*
X0077891Y0118861D02*
X0077129Y0119623D01*
X0070934Y0119623D01*
X0070172Y0118861D01*
X0070172Y0111682D01*
X0070934Y0110920D01*
X0077129Y0110920D01*
X0077891Y0111682D01*
X0077891Y0118861D01*
X0077762Y0118990D02*
X0103045Y0118990D01*
X0102378Y0119988D02*
X0021642Y0119988D01*
X0021642Y0118990D02*
X0052584Y0118990D01*
X0052456Y0118861D02*
X0053217Y0119623D01*
X0059412Y0119623D01*
X0060174Y0118861D01*
X0060174Y0111682D01*
X0059412Y0110920D01*
X0053217Y0110920D01*
X0052456Y0111682D01*
X0052456Y0118861D01*
X0052456Y0117991D02*
X0029656Y0117991D01*
X0031150Y0116993D02*
X0052456Y0116993D01*
X0052456Y0115994D02*
X0032476Y0115994D01*
X0033143Y0114996D02*
X0052456Y0114996D01*
X0052456Y0113997D02*
X0033810Y0113997D01*
X0034344Y0113199D02*
X0034344Y0113199D01*
X0034383Y0112999D02*
X0052456Y0112999D01*
X0052456Y0112000D02*
X0034582Y0112000D01*
X0034781Y0111002D02*
X0053136Y0111002D01*
X0059494Y0111002D02*
X0070853Y0111002D01*
X0070172Y0112000D02*
X0060174Y0112000D01*
X0060174Y0112999D02*
X0070172Y0112999D01*
X0070172Y0113997D02*
X0060174Y0113997D01*
X0060174Y0114996D02*
X0070172Y0114996D01*
X0070172Y0115994D02*
X0060174Y0115994D01*
X0060174Y0116993D02*
X0070172Y0116993D01*
X0070172Y0117991D02*
X0060174Y0117991D01*
X0060045Y0118990D02*
X0070301Y0118990D01*
X0077891Y0113997D02*
X0103609Y0113997D01*
X0102974Y0113871D02*
X0102974Y0113871D01*
X0101669Y0112999D02*
X0077891Y0112999D01*
X0077891Y0112000D02*
X0100174Y0112000D01*
X0099975Y0111867D02*
X0099975Y0111867D01*
X0099397Y0111002D02*
X0077210Y0111002D01*
X0097601Y0107008D02*
X0034519Y0107008D01*
X0034344Y0106124D02*
X0034344Y0106124D01*
X0034267Y0106009D02*
X0097403Y0106009D01*
X0097268Y0105331D02*
X0097268Y0105331D01*
X0097331Y0105011D02*
X0033600Y0105011D01*
X0032933Y0104012D02*
X0097530Y0104012D01*
X0097729Y0103014D02*
X0032173Y0103014D01*
X0032340Y0103125D02*
X0032340Y0103125D01*
X0032340Y0103125D01*
X0030679Y0102015D02*
X0097927Y0102015D01*
X0098490Y0101017D02*
X0028816Y0101017D01*
X0029341Y0101121D02*
X0029341Y0101121D01*
X0025803Y0100417D02*
X0025803Y0100417D01*
X0022790Y0101017D02*
X0021642Y0101017D01*
X0022266Y0101121D02*
X0022266Y0101121D01*
X0021642Y0100018D02*
X0099157Y0100018D01*
X0099825Y0099020D02*
X0021642Y0099020D01*
X0021642Y0098021D02*
X0101132Y0098021D01*
X0102627Y0097023D02*
X0021642Y0097023D01*
X0021642Y0096024D02*
X0286264Y0096024D01*
X0286264Y0095026D02*
X0021642Y0095026D01*
X0021642Y0094027D02*
X0286264Y0094027D01*
X0286264Y0093029D02*
X0021642Y0093029D01*
X0021642Y0092030D02*
X0286264Y0092030D01*
X0286264Y0091032D02*
X0021642Y0091032D01*
X0021642Y0090033D02*
X0286264Y0090033D01*
X0286264Y0089035D02*
X0021642Y0089035D01*
X0021642Y0088036D02*
X0213462Y0088036D01*
X0211973Y0087038D02*
X0021642Y0087038D01*
X0021642Y0086039D02*
X0211199Y0086039D01*
X0210786Y0085041D02*
X0021642Y0085041D01*
X0021642Y0084042D02*
X0113286Y0084042D01*
X0113205Y0083902D02*
X0113102Y0083520D01*
X0113102Y0080673D01*
X0118630Y0080673D01*
X0118630Y0079673D01*
X0119630Y0079673D01*
X0119630Y0075524D01*
X0123855Y0075524D01*
X0124236Y0075626D01*
X0124578Y0075823D01*
X0124858Y0076103D01*
X0125055Y0076445D01*
X0125157Y0076826D01*
X0125157Y0079673D01*
X0119630Y0079673D01*
X0119630Y0080673D01*
X0125157Y0080673D01*
X0125157Y0083520D01*
X0125055Y0083902D01*
X0124858Y0084244D01*
X0124578Y0084523D01*
X0124236Y0084721D01*
X0123855Y0084823D01*
X0119630Y0084823D01*
X0119630Y0080673D01*
X0118630Y0080673D01*
X0118630Y0084823D01*
X0114405Y0084823D01*
X0114023Y0084721D01*
X0113681Y0084523D01*
X0113402Y0084244D01*
X0113205Y0083902D01*
X0113102Y0083043D02*
X0021642Y0083043D01*
X0021642Y0082045D02*
X0113102Y0082045D01*
X0113102Y0081046D02*
X0021642Y0081046D01*
X0021642Y0080048D02*
X0118630Y0080048D01*
X0118630Y0079673D02*
X0113102Y0079673D01*
X0113102Y0076826D01*
X0113205Y0076445D01*
X0113402Y0076103D01*
X0113681Y0075823D01*
X0114023Y0075626D01*
X0114405Y0075524D01*
X0118630Y0075524D01*
X0118630Y0079673D01*
X0118630Y0079049D02*
X0119630Y0079049D01*
X0119630Y0078051D02*
X0118630Y0078051D01*
X0118630Y0077052D02*
X0119630Y0077052D01*
X0119630Y0076054D02*
X0118630Y0076054D01*
X0119630Y0080048D02*
X0138106Y0080048D01*
X0138106Y0081046D02*
X0125157Y0081046D01*
X0125157Y0082045D02*
X0138106Y0082045D01*
X0138106Y0083043D02*
X0125157Y0083043D01*
X0124974Y0084042D02*
X0138286Y0084042D01*
X0138106Y0083861D02*
X0138867Y0084623D01*
X0148999Y0084623D01*
X0149761Y0083861D01*
X0149761Y0076485D01*
X0148999Y0075724D01*
X0138867Y0075724D01*
X0138106Y0076485D01*
X0138106Y0083861D01*
X0138106Y0079049D02*
X0125157Y0079049D01*
X0125157Y0078051D02*
X0138106Y0078051D01*
X0138106Y0077052D02*
X0125157Y0077052D01*
X0124809Y0076054D02*
X0138537Y0076054D01*
X0149329Y0076054D02*
X0159120Y0076054D01*
X0159071Y0076103D02*
X0159351Y0075823D01*
X0159693Y0075626D01*
X0160074Y0075524D01*
X0164299Y0075524D01*
X0164299Y0079673D01*
X0158772Y0079673D01*
X0158772Y0076826D01*
X0158874Y0076445D01*
X0159071Y0076103D01*
X0158772Y0077052D02*
X0149761Y0077052D01*
X0149761Y0078051D02*
X0158772Y0078051D01*
X0158772Y0079049D02*
X0149761Y0079049D01*
X0149761Y0080048D02*
X0164299Y0080048D01*
X0164299Y0079673D02*
X0164299Y0080673D01*
X0158772Y0080673D01*
X0158772Y0083520D01*
X0158874Y0083902D01*
X0159071Y0084244D01*
X0159351Y0084523D01*
X0159693Y0084721D01*
X0160074Y0084823D01*
X0164299Y0084823D01*
X0164299Y0080673D01*
X0165299Y0080673D01*
X0170827Y0080673D01*
X0170827Y0083520D01*
X0170725Y0083902D01*
X0170527Y0084244D01*
X0170248Y0084523D01*
X0169906Y0084721D01*
X0169524Y0084823D01*
X0165299Y0084823D01*
X0165299Y0080673D01*
X0165299Y0079673D01*
X0165299Y0075524D01*
X0169524Y0075524D01*
X0169906Y0075626D01*
X0170248Y0075823D01*
X0170527Y0076103D01*
X0170725Y0076445D01*
X0170827Y0076826D01*
X0170827Y0079673D01*
X0165299Y0079673D01*
X0164299Y0079673D01*
X0164299Y0079049D02*
X0165299Y0079049D01*
X0165299Y0078051D02*
X0164299Y0078051D01*
X0164299Y0077052D02*
X0165299Y0077052D01*
X0165299Y0076054D02*
X0164299Y0076054D01*
X0165299Y0080048D02*
X0183775Y0080048D01*
X0183775Y0081046D02*
X0170827Y0081046D01*
X0170827Y0082045D02*
X0183775Y0082045D01*
X0183775Y0083043D02*
X0170827Y0083043D01*
X0170644Y0084042D02*
X0183955Y0084042D01*
X0183775Y0083861D02*
X0184536Y0084623D01*
X0194668Y0084623D01*
X0195430Y0083861D01*
X0195430Y0076485D01*
X0194668Y0075724D01*
X0184536Y0075724D01*
X0183775Y0076485D01*
X0183775Y0083861D01*
X0183775Y0079049D02*
X0170827Y0079049D01*
X0170827Y0078051D02*
X0183775Y0078051D01*
X0183775Y0077052D02*
X0170827Y0077052D01*
X0170478Y0076054D02*
X0184206Y0076054D01*
X0176363Y0069064D02*
X0210673Y0069064D01*
X0210673Y0068066D02*
X0177362Y0068066D01*
X0178231Y0067196D02*
X0175858Y0069570D01*
X0172757Y0070854D01*
X0169401Y0070854D01*
X0166300Y0069570D01*
X0163926Y0067196D01*
X0162642Y0064096D01*
X0162642Y0060739D01*
X0163926Y0057638D01*
X0166300Y0055265D01*
X0169401Y0053980D01*
X0172757Y0053980D01*
X0175858Y0055265D01*
X0178231Y0057638D01*
X0179516Y0060739D01*
X0179516Y0064096D01*
X0178231Y0067196D01*
X0178285Y0067067D02*
X0210673Y0067067D01*
X0210673Y0066069D02*
X0178698Y0066069D01*
X0179112Y0065070D02*
X0210673Y0065070D01*
X0210673Y0064072D02*
X0179516Y0064072D01*
X0179516Y0063073D02*
X0210673Y0063073D01*
X0210673Y0062075D02*
X0179516Y0062075D01*
X0179516Y0061076D02*
X0210673Y0061076D01*
X0210673Y0060078D02*
X0179242Y0060078D01*
X0178828Y0059079D02*
X0210673Y0059079D01*
X0210673Y0058081D02*
X0178415Y0058081D01*
X0177675Y0057082D02*
X0210673Y0057082D01*
X0210673Y0056084D02*
X0176677Y0056084D01*
X0175424Y0055085D02*
X0210673Y0055085D01*
X0210673Y0054087D02*
X0173014Y0054087D01*
X0169144Y0054087D02*
X0021642Y0054087D01*
X0021642Y0055085D02*
X0166733Y0055085D01*
X0165481Y0056084D02*
X0021642Y0056084D01*
X0021642Y0057082D02*
X0164482Y0057082D01*
X0163743Y0058081D02*
X0021642Y0058081D01*
X0021642Y0059079D02*
X0163329Y0059079D01*
X0162916Y0060078D02*
X0021642Y0060078D01*
X0021642Y0061076D02*
X0162642Y0061076D01*
X0162642Y0062075D02*
X0021642Y0062075D01*
X0021642Y0063073D02*
X0162642Y0063073D01*
X0162642Y0064072D02*
X0021642Y0064072D01*
X0021642Y0065070D02*
X0163045Y0065070D01*
X0163459Y0066069D02*
X0021642Y0066069D01*
X0021642Y0067067D02*
X0163873Y0067067D01*
X0164796Y0068066D02*
X0021642Y0068066D01*
X0021642Y0069064D02*
X0165794Y0069064D01*
X0167490Y0070063D02*
X0021642Y0070063D01*
X0021642Y0071061D02*
X0210673Y0071061D01*
X0210673Y0070063D02*
X0174668Y0070063D01*
X0165299Y0081046D02*
X0164299Y0081046D01*
X0164299Y0082045D02*
X0165299Y0082045D01*
X0165299Y0083043D02*
X0164299Y0083043D01*
X0164299Y0084042D02*
X0165299Y0084042D01*
X0158955Y0084042D02*
X0149580Y0084042D01*
X0149761Y0083043D02*
X0158772Y0083043D01*
X0158772Y0082045D02*
X0149761Y0082045D01*
X0149761Y0081046D02*
X0158772Y0081046D01*
X0164207Y0115994D02*
X0141101Y0115994D01*
X0141355Y0116993D02*
X0163952Y0116993D01*
X0163952Y0117991D02*
X0141355Y0117991D01*
X0141355Y0118990D02*
X0163952Y0118990D01*
X0163952Y0119988D02*
X0141355Y0119988D01*
X0141355Y0120987D02*
X0163952Y0120987D01*
X0163952Y0121985D02*
X0141355Y0121985D01*
X0140815Y0122984D02*
X0164492Y0122984D01*
X0172114Y0122984D02*
X0230878Y0122984D01*
X0230878Y0121985D02*
X0172654Y0121985D01*
X0172654Y0120987D02*
X0234929Y0120987D01*
X0234929Y0121985D02*
X0235929Y0121985D01*
X0235929Y0121815D02*
X0235929Y0125374D01*
X0238678Y0125374D01*
X0239059Y0125272D01*
X0239401Y0125074D01*
X0239681Y0124795D01*
X0239878Y0124453D01*
X0239980Y0124071D01*
X0239980Y0121815D01*
X0235929Y0121815D01*
X0235929Y0120987D02*
X0262377Y0120987D01*
X0262377Y0121985D02*
X0239980Y0121985D01*
X0239980Y0122984D02*
X0262377Y0122984D01*
X0262377Y0123982D02*
X0239980Y0123982D01*
X0239495Y0124981D02*
X0262946Y0124981D01*
X0262377Y0119988D02*
X0239980Y0119988D01*
X0239980Y0118990D02*
X0262377Y0118990D01*
X0262603Y0117991D02*
X0239771Y0117991D01*
X0235929Y0117991D02*
X0234929Y0117991D01*
X0234929Y0118990D02*
X0235929Y0118990D01*
X0235929Y0119988D02*
X0234929Y0119988D01*
X0234929Y0122984D02*
X0235929Y0122984D01*
X0235929Y0123982D02*
X0234929Y0123982D01*
X0234929Y0124981D02*
X0235929Y0124981D01*
X0231087Y0117991D02*
X0172654Y0117991D01*
X0172654Y0118990D02*
X0230878Y0118990D01*
X0230878Y0119988D02*
X0172654Y0119988D01*
X0171893Y0133204D02*
X0164713Y0133204D01*
X0163952Y0133965D01*
X0163952Y0140161D01*
X0164713Y0140922D01*
X0171893Y0140922D01*
X0172654Y0140161D01*
X0172654Y0133965D01*
X0171893Y0133204D01*
X0172654Y0133968D02*
X0232824Y0133968D01*
X0233440Y0133046D02*
X0233440Y0133046D01*
X0236439Y0131042D01*
X0239976Y0130339D01*
X0239976Y0130339D01*
X0243514Y0131042D01*
X0246513Y0133046D01*
X0246513Y0133046D01*
X0248517Y0136045D01*
X0248517Y0136045D01*
X0249220Y0139583D01*
X0248517Y0143120D01*
X0248517Y0143120D01*
X0246513Y0146119D01*
X0246513Y0146119D01*
X0246513Y0146119D01*
X0243514Y0148123D01*
X0243514Y0148123D01*
X0239976Y0148827D01*
X0236439Y0148123D01*
X0233440Y0146119D01*
X0231436Y0143120D01*
X0230732Y0139583D01*
X0230732Y0139583D01*
X0231436Y0136045D01*
X0233440Y0133046D01*
X0233440Y0133046D01*
X0233555Y0132969D02*
X0112979Y0132969D01*
X0113986Y0132769D02*
X0113986Y0132769D01*
X0115181Y0131971D02*
X0235050Y0131971D01*
X0236439Y0131042D02*
X0236439Y0131042D01*
X0236792Y0130972D02*
X0116675Y0130972D01*
X0116985Y0130765D02*
X0116985Y0130765D01*
X0116985Y0130765D01*
X0117514Y0129974D02*
X0272259Y0129974D01*
X0272071Y0130921D02*
X0272071Y0130921D01*
X0272081Y0130972D02*
X0243161Y0130972D01*
X0243514Y0131042D02*
X0243514Y0131042D01*
X0244903Y0131971D02*
X0272280Y0131971D01*
X0272478Y0132969D02*
X0246398Y0132969D01*
X0247129Y0133968D02*
X0272677Y0133968D01*
X0273113Y0134966D02*
X0247796Y0134966D01*
X0248463Y0135965D02*
X0273781Y0135965D01*
X0274448Y0136963D02*
X0248699Y0136963D01*
X0248898Y0137962D02*
X0275532Y0137962D01*
X0274778Y0137458D02*
X0274778Y0137458D01*
X0274778Y0137458D01*
X0277027Y0138960D02*
X0249097Y0138960D01*
X0249146Y0139959D02*
X0280276Y0139959D01*
X0281315Y0140165D02*
X0281315Y0140165D01*
X0282354Y0139959D02*
X0286264Y0139959D01*
X0286264Y0140957D02*
X0248947Y0140957D01*
X0248748Y0141956D02*
X0286264Y0141956D01*
X0286264Y0142954D02*
X0248550Y0142954D01*
X0247961Y0143953D02*
X0286264Y0143953D01*
X0286264Y0144951D02*
X0247293Y0144951D01*
X0246626Y0145950D02*
X0286264Y0145950D01*
X0286264Y0146948D02*
X0245272Y0146948D01*
X0243778Y0147947D02*
X0286264Y0147947D01*
X0286264Y0148945D02*
X0140857Y0148945D01*
X0140953Y0149425D02*
X0140249Y0152963D01*
X0138245Y0155962D01*
X0135246Y0157966D01*
X0131709Y0158669D01*
X0131709Y0158669D01*
X0128171Y0157966D01*
X0125172Y0155962D01*
X0125172Y0155962D01*
X0125172Y0155962D01*
X0123168Y0152963D01*
X0123168Y0152963D01*
X0122465Y0149425D01*
X0123168Y0145888D01*
X0123168Y0145888D01*
X0125172Y0142889D01*
X0128171Y0140885D01*
X0131709Y0140181D01*
X0132652Y0140369D01*
X0132555Y0140201D01*
X0132453Y0139820D01*
X0132453Y0137563D01*
X0136504Y0137563D01*
X0136504Y0141122D01*
X0135601Y0141122D01*
X0138245Y0142889D01*
X0140249Y0145888D01*
X0140953Y0149425D01*
X0140850Y0149944D02*
X0286264Y0149944D01*
X0286264Y0150942D02*
X0140651Y0150942D01*
X0140452Y0151941D02*
X0286264Y0151941D01*
X0286264Y0152939D02*
X0140254Y0152939D01*
X0140249Y0152963D02*
X0140249Y0152963D01*
X0139598Y0153938D02*
X0286264Y0153938D01*
X0286264Y0154936D02*
X0138930Y0154936D01*
X0138263Y0155935D02*
X0286264Y0155935D01*
X0286264Y0156933D02*
X0282473Y0156933D01*
X0282326Y0156787D02*
X0283087Y0157548D01*
X0283087Y0163743D01*
X0282326Y0164505D01*
X0275147Y0164505D01*
X0274385Y0163743D01*
X0274385Y0157548D01*
X0275147Y0156787D01*
X0282326Y0156787D01*
X0283087Y0157932D02*
X0286264Y0157932D01*
X0286264Y0158930D02*
X0283087Y0158930D01*
X0283087Y0159929D02*
X0286264Y0159929D01*
X0286264Y0160927D02*
X0283087Y0160927D01*
X0283087Y0161926D02*
X0286264Y0161926D01*
X0286264Y0162924D02*
X0283087Y0162924D01*
X0282908Y0163923D02*
X0286264Y0163923D01*
X0286264Y0164921D02*
X0021642Y0164921D01*
X0021642Y0163923D02*
X0187731Y0163923D01*
X0187673Y0163823D02*
X0187571Y0163442D01*
X0187571Y0161185D01*
X0191622Y0161185D01*
X0191622Y0160185D01*
X0187571Y0160185D01*
X0187571Y0157928D01*
X0187673Y0157547D01*
X0187871Y0157205D01*
X0188150Y0156926D01*
X0188492Y0156728D01*
X0188873Y0156626D01*
X0191622Y0156626D01*
X0191622Y0160185D01*
X0192622Y0160185D01*
X0192622Y0156626D01*
X0195371Y0156626D01*
X0195752Y0156728D01*
X0196094Y0156926D01*
X0196374Y0157205D01*
X0196571Y0157547D01*
X0196673Y0157928D01*
X0196673Y0160185D01*
X0192622Y0160185D01*
X0192622Y0161185D01*
X0191622Y0161185D01*
X0191622Y0164744D01*
X0188873Y0164744D01*
X0188492Y0164642D01*
X0188150Y0164444D01*
X0187871Y0164165D01*
X0187673Y0163823D01*
X0187571Y0162924D02*
X0021642Y0162924D01*
X0021642Y0161926D02*
X0187571Y0161926D01*
X0187571Y0159929D02*
X0021642Y0159929D01*
X0021642Y0160927D02*
X0191622Y0160927D01*
X0191622Y0159929D02*
X0192622Y0159929D01*
X0192622Y0160927D02*
X0219070Y0160927D01*
X0219070Y0159929D02*
X0196673Y0159929D01*
X0196673Y0158930D02*
X0219070Y0158930D01*
X0219070Y0157932D02*
X0196673Y0157932D01*
X0196102Y0156933D02*
X0219724Y0156933D01*
X0219832Y0156826D02*
X0219070Y0157588D01*
X0219070Y0163783D01*
X0219832Y0164544D01*
X0227011Y0164544D01*
X0227772Y0163783D01*
X0227772Y0157588D01*
X0227011Y0156826D01*
X0219832Y0156826D01*
X0219070Y0161926D02*
X0196673Y0161926D01*
X0196673Y0161185D02*
X0196673Y0163442D01*
X0196571Y0163823D01*
X0196374Y0164165D01*
X0196094Y0164444D01*
X0195752Y0164642D01*
X0195371Y0164744D01*
X0192622Y0164744D01*
X0192622Y0161185D01*
X0196673Y0161185D01*
X0196673Y0162924D02*
X0219070Y0162924D01*
X0219210Y0163923D02*
X0196513Y0163923D01*
X0192622Y0163923D02*
X0191622Y0163923D01*
X0191622Y0162924D02*
X0192622Y0162924D01*
X0192622Y0161926D02*
X0191622Y0161926D01*
X0191622Y0158930D02*
X0192622Y0158930D01*
X0192622Y0157932D02*
X0191622Y0157932D01*
X0191622Y0156933D02*
X0192622Y0156933D01*
X0188142Y0156933D02*
X0136791Y0156933D01*
X0138245Y0155962D02*
X0138245Y0155962D01*
X0138245Y0155962D01*
X0135297Y0157932D02*
X0187571Y0157932D01*
X0187571Y0158930D02*
X0021642Y0158930D01*
X0021642Y0157932D02*
X0128121Y0157932D01*
X0128171Y0157966D02*
X0128171Y0157966D01*
X0126626Y0156933D02*
X0021642Y0156933D01*
X0021642Y0155935D02*
X0125154Y0155935D01*
X0124487Y0154936D02*
X0021642Y0154936D01*
X0021642Y0153938D02*
X0123820Y0153938D01*
X0123164Y0152939D02*
X0021642Y0152939D01*
X0021642Y0151941D02*
X0122965Y0151941D01*
X0122766Y0150942D02*
X0108802Y0150942D01*
X0108625Y0151119D02*
X0102430Y0151119D01*
X0101669Y0150357D01*
X0101669Y0143178D01*
X0102430Y0142417D01*
X0108625Y0142417D01*
X0109387Y0143178D01*
X0109387Y0150357D01*
X0108625Y0151119D01*
X0109387Y0149944D02*
X0122568Y0149944D01*
X0122465Y0149425D02*
X0122465Y0149425D01*
X0122560Y0148945D02*
X0109387Y0148945D01*
X0109387Y0147947D02*
X0122759Y0147947D01*
X0122957Y0146948D02*
X0109387Y0146948D01*
X0109387Y0145950D02*
X0123156Y0145950D01*
X0123794Y0144951D02*
X0109387Y0144951D01*
X0109387Y0143953D02*
X0124461Y0143953D01*
X0125128Y0142954D02*
X0109163Y0142954D01*
X0101892Y0142954D02*
X0091446Y0142954D01*
X0091670Y0143178D02*
X0091670Y0150357D01*
X0090909Y0151119D01*
X0084713Y0151119D01*
X0083952Y0150357D01*
X0083952Y0143178D01*
X0084713Y0142417D01*
X0090909Y0142417D01*
X0091670Y0143178D01*
X0091670Y0143953D02*
X0101669Y0143953D01*
X0101669Y0144951D02*
X0091670Y0144951D01*
X0091670Y0145950D02*
X0101669Y0145950D01*
X0101669Y0146948D02*
X0091670Y0146948D01*
X0091670Y0147947D02*
X0101669Y0147947D01*
X0101669Y0148945D02*
X0091670Y0148945D01*
X0091670Y0149944D02*
X0101669Y0149944D01*
X0102253Y0150942D02*
X0091085Y0150942D01*
X0084537Y0150942D02*
X0077304Y0150942D01*
X0077170Y0151020D02*
X0076788Y0151122D01*
X0074531Y0151122D01*
X0074531Y0147071D01*
X0073532Y0147071D01*
X0073532Y0151122D01*
X0071275Y0151122D01*
X0070893Y0151020D01*
X0070551Y0150822D01*
X0070272Y0150543D01*
X0070075Y0150201D01*
X0069972Y0149820D01*
X0069972Y0147071D01*
X0073531Y0147071D01*
X0073531Y0146071D01*
X0069972Y0146071D01*
X0069972Y0143322D01*
X0070075Y0142941D01*
X0070272Y0142599D01*
X0070551Y0142319D01*
X0070893Y0142122D01*
X0071275Y0142020D01*
X0073532Y0142020D01*
X0073532Y0146071D01*
X0074531Y0146071D01*
X0074531Y0142020D01*
X0076788Y0142020D01*
X0077170Y0142122D01*
X0077512Y0142319D01*
X0077791Y0142599D01*
X0077988Y0142941D01*
X0078091Y0143322D01*
X0078091Y0146071D01*
X0074532Y0146071D01*
X0074532Y0147071D01*
X0078091Y0147071D01*
X0078091Y0149820D01*
X0077988Y0150201D01*
X0077791Y0150543D01*
X0077512Y0150822D01*
X0077170Y0151020D01*
X0078057Y0149944D02*
X0083952Y0149944D01*
X0083952Y0148945D02*
X0078091Y0148945D01*
X0078091Y0147947D02*
X0083952Y0147947D01*
X0083952Y0146948D02*
X0074532Y0146948D01*
X0074531Y0145950D02*
X0073532Y0145950D01*
X0073531Y0146948D02*
X0060174Y0146948D01*
X0060174Y0145950D02*
X0069972Y0145950D01*
X0069972Y0144951D02*
X0060174Y0144951D01*
X0060174Y0143953D02*
X0069972Y0143953D01*
X0070071Y0142954D02*
X0060147Y0142954D01*
X0060174Y0142981D02*
X0060174Y0150161D01*
X0059412Y0150922D01*
X0053217Y0150922D01*
X0052456Y0150161D01*
X0052456Y0142981D01*
X0053217Y0142220D01*
X0059412Y0142220D01*
X0060174Y0142981D01*
X0060174Y0147947D02*
X0069972Y0147947D01*
X0069972Y0148945D02*
X0060174Y0148945D01*
X0060174Y0149944D02*
X0070006Y0149944D01*
X0070759Y0150942D02*
X0045810Y0150942D01*
X0045633Y0151119D02*
X0039438Y0151119D01*
X0038676Y0150357D01*
X0038676Y0143178D01*
X0039438Y0142417D01*
X0045633Y0142417D01*
X0046394Y0143178D01*
X0046394Y0150357D01*
X0045633Y0151119D01*
X0046394Y0149944D02*
X0052456Y0149944D01*
X0052456Y0148945D02*
X0046394Y0148945D01*
X0046394Y0147947D02*
X0052456Y0147947D01*
X0052456Y0146948D02*
X0046394Y0146948D01*
X0046394Y0145950D02*
X0052456Y0145950D01*
X0052456Y0144951D02*
X0046394Y0144951D01*
X0046394Y0143953D02*
X0052456Y0143953D01*
X0052483Y0142954D02*
X0046171Y0142954D01*
X0038900Y0142954D02*
X0028454Y0142954D01*
X0028678Y0143953D02*
X0038676Y0143953D01*
X0038676Y0144951D02*
X0028678Y0144951D01*
X0028678Y0145950D02*
X0038676Y0145950D01*
X0038676Y0146948D02*
X0028678Y0146948D01*
X0028678Y0147947D02*
X0038676Y0147947D01*
X0038676Y0148945D02*
X0028678Y0148945D01*
X0028678Y0149944D02*
X0038676Y0149944D01*
X0039261Y0150942D02*
X0028093Y0150942D01*
X0021642Y0141956D02*
X0126568Y0141956D01*
X0125172Y0142889D02*
X0125172Y0142889D01*
X0128063Y0140957D02*
X0021642Y0140957D01*
X0021642Y0139959D02*
X0132490Y0139959D01*
X0131709Y0140181D02*
X0131709Y0140181D01*
X0132453Y0138960D02*
X0021642Y0138960D01*
X0021642Y0137962D02*
X0132453Y0137962D01*
X0132453Y0136563D02*
X0132453Y0134306D01*
X0132555Y0133925D01*
X0132752Y0133583D01*
X0133032Y0133304D01*
X0133374Y0133106D01*
X0133755Y0133004D01*
X0136504Y0133004D01*
X0136504Y0136563D01*
X0137504Y0136563D01*
X0137504Y0137563D01*
X0141555Y0137563D01*
X0141555Y0139820D01*
X0141453Y0140201D01*
X0141255Y0140543D01*
X0140976Y0140822D01*
X0140634Y0141020D01*
X0140253Y0141122D01*
X0137504Y0141122D01*
X0137504Y0137563D01*
X0136504Y0137563D01*
X0136504Y0136563D01*
X0132453Y0136563D01*
X0132453Y0135965D02*
X0021642Y0135965D01*
X0021642Y0136963D02*
X0136504Y0136963D01*
X0136504Y0135965D02*
X0137504Y0135965D01*
X0137504Y0136563D02*
X0137504Y0133004D01*
X0140253Y0133004D01*
X0140634Y0133106D01*
X0140976Y0133304D01*
X0141255Y0133583D01*
X0141453Y0133925D01*
X0141555Y0134306D01*
X0141555Y0136563D01*
X0137504Y0136563D01*
X0137504Y0136963D02*
X0163952Y0136963D01*
X0163952Y0135965D02*
X0141555Y0135965D01*
X0141555Y0134966D02*
X0163952Y0134966D01*
X0163952Y0133968D02*
X0141464Y0133968D01*
X0137504Y0133968D02*
X0136504Y0133968D01*
X0136504Y0134966D02*
X0137504Y0134966D01*
X0137504Y0137962D02*
X0136504Y0137962D01*
X0136504Y0138960D02*
X0137504Y0138960D01*
X0137504Y0139959D02*
X0136504Y0139959D01*
X0136504Y0140957D02*
X0137504Y0140957D01*
X0136849Y0141956D02*
X0187771Y0141956D01*
X0187771Y0142954D02*
X0138289Y0142954D01*
X0138245Y0142889D02*
X0138245Y0142889D01*
X0138956Y0143953D02*
X0187771Y0143953D01*
X0187771Y0144951D02*
X0139623Y0144951D01*
X0140249Y0145888D02*
X0140249Y0145888D01*
X0140261Y0145950D02*
X0187771Y0145950D01*
X0187771Y0146066D02*
X0187771Y0139871D01*
X0188532Y0139109D01*
X0195712Y0139109D01*
X0196473Y0139871D01*
X0196473Y0146066D01*
X0195712Y0146828D01*
X0188532Y0146828D01*
X0187771Y0146066D01*
X0187771Y0140957D02*
X0140743Y0140957D01*
X0141518Y0139959D02*
X0163952Y0139959D01*
X0163952Y0138960D02*
X0141555Y0138960D01*
X0141555Y0137962D02*
X0163952Y0137962D01*
X0172654Y0137962D02*
X0231055Y0137962D01*
X0230856Y0138960D02*
X0172654Y0138960D01*
X0172654Y0139959D02*
X0187771Y0139959D01*
X0196473Y0139959D02*
X0219070Y0139959D01*
X0219070Y0139871D02*
X0219832Y0139109D01*
X0227011Y0139109D01*
X0227772Y0139871D01*
X0227772Y0146066D01*
X0227011Y0146828D01*
X0219832Y0146828D01*
X0219070Y0146066D01*
X0219070Y0139871D01*
X0219070Y0140957D02*
X0196473Y0140957D01*
X0196473Y0141956D02*
X0219070Y0141956D01*
X0219070Y0142954D02*
X0196473Y0142954D01*
X0196473Y0143953D02*
X0219070Y0143953D01*
X0219070Y0144951D02*
X0196473Y0144951D01*
X0196473Y0145950D02*
X0219070Y0145950D01*
X0227772Y0145950D02*
X0233327Y0145950D01*
X0233440Y0146119D02*
X0233440Y0146119D01*
X0233440Y0146119D01*
X0232659Y0144951D02*
X0227772Y0144951D01*
X0227772Y0143953D02*
X0231992Y0143953D01*
X0231436Y0143120D02*
X0231436Y0143120D01*
X0231403Y0142954D02*
X0227772Y0142954D01*
X0227772Y0141956D02*
X0231204Y0141956D01*
X0231006Y0140957D02*
X0227772Y0140957D01*
X0227772Y0139959D02*
X0230807Y0139959D01*
X0231253Y0136963D02*
X0172654Y0136963D01*
X0172654Y0135965D02*
X0231490Y0135965D01*
X0231436Y0136045D02*
X0231436Y0136045D01*
X0232157Y0134966D02*
X0172654Y0134966D01*
X0184950Y0110003D02*
X0114294Y0110003D01*
X0114961Y0109005D02*
X0184283Y0109005D01*
X0184192Y0108868D02*
X0184192Y0108868D01*
X0184020Y0108006D02*
X0115224Y0108006D01*
X0115422Y0107008D02*
X0183822Y0107008D01*
X0183623Y0106009D02*
X0115621Y0106009D01*
X0115692Y0105011D02*
X0183552Y0105011D01*
X0183750Y0104012D02*
X0115494Y0104012D01*
X0115295Y0103014D02*
X0183949Y0103014D01*
X0184148Y0102015D02*
X0115096Y0102015D01*
X0115052Y0101793D02*
X0115052Y0101793D01*
X0114533Y0101017D02*
X0184711Y0101017D01*
X0184192Y0101793D02*
X0184192Y0101793D01*
X0185378Y0100018D02*
X0113866Y0100018D01*
X0113199Y0099020D02*
X0186045Y0099020D01*
X0186196Y0098794D02*
X0186196Y0098794D01*
X0186196Y0098794D01*
X0187353Y0098021D02*
X0111891Y0098021D01*
X0113048Y0098794D02*
X0113048Y0098794D01*
X0110397Y0097023D02*
X0188847Y0097023D01*
X0189195Y0096790D02*
X0189195Y0096790D01*
X0192732Y0096087D02*
X0192732Y0096087D01*
X0196270Y0096790D02*
X0196270Y0096790D01*
X0196618Y0097023D02*
X0286264Y0097023D01*
X0286264Y0098021D02*
X0198112Y0098021D01*
X0199420Y0099020D02*
X0286264Y0099020D01*
X0286264Y0100018D02*
X0270597Y0100018D01*
X0270318Y0099739D02*
X0271080Y0100501D01*
X0271080Y0106696D01*
X0270318Y0107457D01*
X0263139Y0107457D01*
X0262377Y0106696D01*
X0262377Y0100501D01*
X0263139Y0099739D01*
X0270318Y0099739D01*
X0271080Y0101017D02*
X0286264Y0101017D01*
X0286264Y0102015D02*
X0271080Y0102015D01*
X0271080Y0103014D02*
X0286264Y0103014D01*
X0286264Y0104012D02*
X0271080Y0104012D01*
X0271080Y0105011D02*
X0286264Y0105011D01*
X0286264Y0106009D02*
X0271080Y0106009D01*
X0270768Y0107008D02*
X0286264Y0107008D01*
X0286264Y0108006D02*
X0201444Y0108006D01*
X0201643Y0107008D02*
X0231390Y0107008D01*
X0231078Y0106696D02*
X0231078Y0100501D01*
X0231839Y0099739D01*
X0239019Y0099739D01*
X0239780Y0100501D01*
X0239780Y0106696D01*
X0239019Y0107457D01*
X0231839Y0107457D01*
X0231078Y0106696D01*
X0231078Y0106009D02*
X0201841Y0106009D01*
X0201913Y0105011D02*
X0231078Y0105011D01*
X0231078Y0104012D02*
X0201714Y0104012D01*
X0201515Y0103014D02*
X0231078Y0103014D01*
X0231078Y0102015D02*
X0201317Y0102015D01*
X0201273Y0101793D02*
X0201273Y0101793D01*
X0200754Y0101017D02*
X0231078Y0101017D01*
X0231561Y0100018D02*
X0200087Y0100018D01*
X0201181Y0109005D02*
X0286264Y0109005D01*
X0286264Y0110003D02*
X0200514Y0110003D01*
X0199847Y0111002D02*
X0286264Y0111002D01*
X0286264Y0112000D02*
X0199070Y0112000D01*
X0197575Y0112999D02*
X0286264Y0112999D01*
X0286264Y0113997D02*
X0195635Y0113997D01*
X0192732Y0114575D02*
X0192732Y0114575D01*
X0195249Y0084042D02*
X0210673Y0084042D01*
X0210673Y0083043D02*
X0195430Y0083043D01*
X0195430Y0082045D02*
X0210673Y0082045D01*
X0210673Y0081046D02*
X0195430Y0081046D01*
X0195430Y0080048D02*
X0210673Y0080048D01*
X0210673Y0079049D02*
X0195430Y0079049D01*
X0195430Y0078051D02*
X0210673Y0078051D01*
X0210673Y0077052D02*
X0195430Y0077052D01*
X0194999Y0076054D02*
X0210673Y0076054D01*
X0210673Y0075055D02*
X0021642Y0075055D01*
X0021642Y0074057D02*
X0210673Y0074057D01*
X0210673Y0073058D02*
X0021642Y0073058D01*
X0021642Y0072060D02*
X0210673Y0072060D01*
X0210673Y0053088D02*
X0021642Y0053088D01*
X0021642Y0052090D02*
X0210673Y0052090D01*
X0210673Y0051091D02*
X0021642Y0051091D01*
X0021642Y0050093D02*
X0210673Y0050093D01*
X0210673Y0049094D02*
X0021642Y0049094D01*
X0021642Y0048096D02*
X0210673Y0048096D01*
X0210673Y0047097D02*
X0021642Y0047097D01*
X0021642Y0046099D02*
X0210673Y0046099D01*
X0210673Y0045100D02*
X0021642Y0045100D01*
X0021642Y0044102D02*
X0210673Y0044102D01*
X0210673Y0043103D02*
X0173221Y0043103D01*
X0172757Y0043295D02*
X0169401Y0043295D01*
X0166300Y0042011D01*
X0163926Y0039637D01*
X0162642Y0036536D01*
X0162642Y0033180D01*
X0163926Y0030079D01*
X0166300Y0027706D01*
X0169401Y0026421D01*
X0172757Y0026421D01*
X0175858Y0027706D01*
X0178231Y0030079D01*
X0179516Y0033180D01*
X0179516Y0036536D01*
X0178231Y0039637D01*
X0175858Y0042011D01*
X0172757Y0043295D01*
X0175632Y0042105D02*
X0210673Y0042105D01*
X0210673Y0041106D02*
X0176763Y0041106D01*
X0177761Y0040107D02*
X0210673Y0040107D01*
X0210673Y0039109D02*
X0178450Y0039109D01*
X0178864Y0038110D02*
X0210673Y0038110D01*
X0210673Y0037112D02*
X0179277Y0037112D01*
X0179516Y0036113D02*
X0210673Y0036113D01*
X0210673Y0035115D02*
X0179516Y0035115D01*
X0179516Y0034116D02*
X0210673Y0034116D01*
X0210673Y0033118D02*
X0179490Y0033118D01*
X0179076Y0032119D02*
X0210673Y0032119D01*
X0210673Y0031121D02*
X0178663Y0031121D01*
X0178249Y0030122D02*
X0210673Y0030122D01*
X0210673Y0029124D02*
X0177276Y0029124D01*
X0176278Y0028125D02*
X0210673Y0028125D01*
X0210673Y0027127D02*
X0174460Y0027127D01*
X0167697Y0027127D02*
X0021642Y0027127D01*
X0021642Y0028125D02*
X0165880Y0028125D01*
X0164881Y0029124D02*
X0021642Y0029124D01*
X0021642Y0030122D02*
X0163908Y0030122D01*
X0163495Y0031121D02*
X0021642Y0031121D01*
X0021642Y0032119D02*
X0163081Y0032119D01*
X0162667Y0033118D02*
X0021642Y0033118D01*
X0021642Y0034116D02*
X0162642Y0034116D01*
X0162642Y0035115D02*
X0021642Y0035115D01*
X0021642Y0036113D02*
X0162642Y0036113D01*
X0162880Y0037112D02*
X0021642Y0037112D01*
X0021642Y0038110D02*
X0163294Y0038110D01*
X0163707Y0039109D02*
X0021642Y0039109D01*
X0021642Y0040107D02*
X0164396Y0040107D01*
X0165395Y0041106D02*
X0021642Y0041106D01*
X0021642Y0042105D02*
X0166526Y0042105D01*
X0168936Y0043103D02*
X0021642Y0043103D01*
X0021642Y0026128D02*
X0210673Y0026128D01*
X0210673Y0025130D02*
X0021642Y0025130D01*
X0021642Y0024131D02*
X0210673Y0024131D01*
X0210673Y0023133D02*
X0021642Y0023133D01*
X0021642Y0022134D02*
X0210673Y0022134D01*
X0239298Y0100018D02*
X0262860Y0100018D01*
X0262377Y0101017D02*
X0239780Y0101017D01*
X0239780Y0102015D02*
X0262377Y0102015D01*
X0262377Y0103014D02*
X0239780Y0103014D01*
X0239780Y0104012D02*
X0262377Y0104012D01*
X0262377Y0105011D02*
X0239780Y0105011D01*
X0239780Y0106009D02*
X0262377Y0106009D01*
X0262689Y0107008D02*
X0239469Y0107008D01*
X0234680Y0146948D02*
X0140460Y0146948D01*
X0140659Y0147947D02*
X0236175Y0147947D01*
X0236439Y0148123D02*
X0236439Y0148123D01*
X0239976Y0148827D02*
X0239976Y0148827D01*
X0243847Y0156787D02*
X0243086Y0157548D01*
X0243086Y0163743D01*
X0243847Y0164505D01*
X0251027Y0164505D01*
X0251788Y0163743D01*
X0251788Y0157548D01*
X0251027Y0156787D01*
X0243847Y0156787D01*
X0243701Y0156933D02*
X0227118Y0156933D01*
X0227772Y0157932D02*
X0243086Y0157932D01*
X0243086Y0158930D02*
X0227772Y0158930D01*
X0227772Y0159929D02*
X0243086Y0159929D01*
X0243086Y0160927D02*
X0227772Y0160927D01*
X0227772Y0161926D02*
X0243086Y0161926D01*
X0243086Y0162924D02*
X0227772Y0162924D01*
X0227632Y0163923D02*
X0243266Y0163923D01*
X0251608Y0163923D02*
X0274565Y0163923D01*
X0274385Y0162924D02*
X0251788Y0162924D01*
X0251788Y0161926D02*
X0274385Y0161926D01*
X0274385Y0160927D02*
X0251788Y0160927D01*
X0251788Y0159929D02*
X0274385Y0159929D01*
X0274385Y0158930D02*
X0251788Y0158930D01*
X0251788Y0157932D02*
X0274385Y0157932D01*
X0275000Y0156933D02*
X0251173Y0156933D01*
X0250686Y0174303D02*
X0247937Y0174303D01*
X0247937Y0177862D01*
X0246937Y0177862D01*
X0246937Y0174303D01*
X0244188Y0174303D01*
X0243807Y0174405D01*
X0243465Y0174603D01*
X0243186Y0174882D01*
X0242988Y0175224D01*
X0242886Y0175606D01*
X0242886Y0177862D01*
X0246937Y0177862D01*
X0246937Y0178862D01*
X0242886Y0178862D01*
X0242886Y0181119D01*
X0242988Y0181500D01*
X0243186Y0181842D01*
X0243465Y0182122D01*
X0243807Y0182319D01*
X0244188Y0182421D01*
X0246937Y0182421D01*
X0246937Y0178862D01*
X0247937Y0178862D01*
X0251988Y0178862D01*
X0251988Y0181119D01*
X0251886Y0181500D01*
X0251688Y0181842D01*
X0251409Y0182122D01*
X0251067Y0182319D01*
X0250686Y0182421D01*
X0247937Y0182421D01*
X0247937Y0178862D01*
X0247937Y0177862D01*
X0251988Y0177862D01*
X0251988Y0175606D01*
X0251886Y0175224D01*
X0251688Y0174882D01*
X0251409Y0174603D01*
X0251067Y0174405D01*
X0250686Y0174303D01*
X0251703Y0174907D02*
X0274743Y0174907D01*
X0274385Y0175265D02*
X0275147Y0174503D01*
X0282326Y0174503D01*
X0283087Y0175265D01*
X0283087Y0181460D01*
X0282326Y0182221D01*
X0275147Y0182221D01*
X0274385Y0181460D01*
X0274385Y0175265D01*
X0274385Y0175905D02*
X0251988Y0175905D01*
X0251988Y0176904D02*
X0274385Y0176904D01*
X0274385Y0177902D02*
X0247937Y0177902D01*
X0247937Y0176904D02*
X0246937Y0176904D01*
X0246937Y0177902D02*
X0237200Y0177902D01*
X0237002Y0176904D02*
X0242886Y0176904D01*
X0242886Y0175905D02*
X0236803Y0175905D01*
X0236706Y0175415D02*
X0237409Y0178953D01*
X0236706Y0182490D01*
X0236706Y0182490D01*
X0234702Y0185489D01*
X0234702Y0185489D01*
X0231703Y0187493D01*
X0231703Y0187493D01*
X0228165Y0188197D01*
X0224628Y0187493D01*
X0221629Y0185489D01*
X0219625Y0182490D01*
X0218921Y0178953D01*
X0219625Y0175415D01*
X0221629Y0172416D01*
X0224628Y0170412D01*
X0228165Y0169709D01*
X0228165Y0169709D01*
X0231703Y0170412D01*
X0234702Y0172416D01*
X0234702Y0172416D01*
X0234702Y0172416D01*
X0236706Y0175415D01*
X0236706Y0175415D01*
X0236366Y0174907D02*
X0243171Y0174907D01*
X0242886Y0178901D02*
X0237399Y0178901D01*
X0237221Y0179899D02*
X0242886Y0179899D01*
X0242886Y0180898D02*
X0237023Y0180898D01*
X0236824Y0181896D02*
X0243239Y0181896D01*
X0246937Y0181896D02*
X0247937Y0181896D01*
X0247937Y0180898D02*
X0246937Y0180898D01*
X0246937Y0179899D02*
X0247937Y0179899D01*
X0247937Y0178901D02*
X0246937Y0178901D01*
X0246937Y0175905D02*
X0247937Y0175905D01*
X0247937Y0174907D02*
X0246937Y0174907D01*
X0251988Y0178901D02*
X0274385Y0178901D01*
X0274385Y0179899D02*
X0251988Y0179899D01*
X0251988Y0180898D02*
X0274385Y0180898D01*
X0274821Y0181896D02*
X0251635Y0181896D01*
X0238822Y0198165D02*
X0239583Y0198926D01*
X0239583Y0205121D01*
X0238822Y0205883D01*
X0231643Y0205883D01*
X0230881Y0205121D01*
X0230881Y0198926D01*
X0231643Y0198165D01*
X0238822Y0198165D01*
X0239528Y0198871D02*
X0286264Y0198871D01*
X0286264Y0199869D02*
X0239583Y0199869D01*
X0239583Y0200868D02*
X0286264Y0200868D01*
X0286264Y0201866D02*
X0239583Y0201866D01*
X0239583Y0202865D02*
X0286264Y0202865D01*
X0286264Y0203863D02*
X0239583Y0203863D01*
X0239583Y0204862D02*
X0286264Y0204862D01*
X0286264Y0205860D02*
X0238844Y0205860D01*
X0231620Y0205860D02*
X0207545Y0205860D01*
X0207523Y0205883D02*
X0200343Y0205883D01*
X0199582Y0205121D01*
X0199582Y0198926D01*
X0200343Y0198165D01*
X0207523Y0198165D01*
X0208284Y0198926D01*
X0208284Y0205121D01*
X0207523Y0205883D01*
X0208284Y0204862D02*
X0230881Y0204862D01*
X0230881Y0203863D02*
X0208284Y0203863D01*
X0208284Y0202865D02*
X0230881Y0202865D01*
X0230881Y0201866D02*
X0208284Y0201866D01*
X0208284Y0200868D02*
X0230881Y0200868D01*
X0230881Y0199869D02*
X0208284Y0199869D01*
X0208229Y0198871D02*
X0230936Y0198871D01*
X0228165Y0188197D02*
X0228165Y0188197D01*
X0226609Y0187887D02*
X0021642Y0187887D01*
X0021642Y0186889D02*
X0223723Y0186889D01*
X0224628Y0187493D02*
X0224628Y0187493D01*
X0222229Y0185890D02*
X0021642Y0185890D01*
X0021642Y0184892D02*
X0221229Y0184892D01*
X0221629Y0185489D02*
X0221629Y0185489D01*
X0221629Y0185489D01*
X0220562Y0183893D02*
X0021642Y0183893D01*
X0021642Y0182895D02*
X0219895Y0182895D01*
X0219625Y0182490D02*
X0219625Y0182490D01*
X0219507Y0181896D02*
X0184068Y0181896D01*
X0183704Y0182261D02*
X0176525Y0182261D01*
X0175763Y0181499D01*
X0175763Y0175304D01*
X0176525Y0174543D01*
X0183704Y0174543D01*
X0184465Y0175304D01*
X0184465Y0181499D01*
X0183704Y0182261D01*
X0184465Y0180898D02*
X0219308Y0180898D01*
X0219109Y0179899D02*
X0184465Y0179899D01*
X0184465Y0178901D02*
X0218932Y0178901D01*
X0218921Y0178953D02*
X0218921Y0178953D01*
X0219130Y0177902D02*
X0184465Y0177902D01*
X0184465Y0176904D02*
X0219329Y0176904D01*
X0219527Y0175905D02*
X0184465Y0175905D01*
X0184068Y0174907D02*
X0219965Y0174907D01*
X0219625Y0175415D02*
X0219625Y0175415D01*
X0220632Y0173908D02*
X0109100Y0173908D01*
X0109008Y0173815D02*
X0109287Y0174095D01*
X0109484Y0174437D01*
X0109587Y0174818D01*
X0109587Y0177567D01*
X0106028Y0177567D01*
X0106028Y0178567D01*
X0109587Y0178567D01*
X0109587Y0181316D01*
X0109484Y0181697D01*
X0109287Y0182039D01*
X0109008Y0182318D01*
X0108666Y0182516D01*
X0108284Y0182618D01*
X0106028Y0182618D01*
X0106028Y0178567D01*
X0105028Y0178567D01*
X0105028Y0182618D01*
X0102771Y0182618D01*
X0102390Y0182516D01*
X0102047Y0182318D01*
X0101768Y0182039D01*
X0101571Y0181697D01*
X0101469Y0181316D01*
X0101469Y0178567D01*
X0105028Y0178567D01*
X0105028Y0177567D01*
X0106028Y0177567D01*
X0106028Y0173516D01*
X0108284Y0173516D01*
X0108666Y0173618D01*
X0109008Y0173815D01*
X0109587Y0174907D02*
X0144861Y0174907D01*
X0145225Y0174543D02*
X0144464Y0175304D01*
X0144464Y0181499D01*
X0145225Y0182261D01*
X0152405Y0182261D01*
X0153166Y0181499D01*
X0153166Y0175304D01*
X0152405Y0174543D01*
X0145225Y0174543D01*
X0144464Y0175905D02*
X0109587Y0175905D01*
X0109587Y0176904D02*
X0144464Y0176904D01*
X0144464Y0177902D02*
X0106028Y0177902D01*
X0106028Y0176904D02*
X0105028Y0176904D01*
X0105028Y0177567D02*
X0105028Y0173516D01*
X0102771Y0173516D01*
X0102390Y0173618D01*
X0102047Y0173815D01*
X0101768Y0174095D01*
X0101571Y0174437D01*
X0101469Y0174818D01*
X0101469Y0177567D01*
X0105028Y0177567D01*
X0105028Y0177902D02*
X0091670Y0177902D01*
X0091670Y0176904D02*
X0101469Y0176904D01*
X0101469Y0175905D02*
X0091670Y0175905D01*
X0091670Y0174907D02*
X0101469Y0174907D01*
X0101955Y0173908D02*
X0091101Y0173908D01*
X0090909Y0173716D02*
X0091670Y0174477D01*
X0091670Y0181657D01*
X0090909Y0182418D01*
X0084713Y0182418D01*
X0083952Y0181657D01*
X0083952Y0174477D01*
X0084713Y0173716D01*
X0090909Y0173716D01*
X0091670Y0178901D02*
X0101469Y0178901D01*
X0101469Y0179899D02*
X0091670Y0179899D01*
X0091670Y0180898D02*
X0101469Y0180898D01*
X0101686Y0181896D02*
X0091431Y0181896D01*
X0084191Y0181896D02*
X0077848Y0181896D01*
X0077891Y0181853D02*
X0077129Y0182615D01*
X0070934Y0182615D01*
X0070172Y0181853D01*
X0070172Y0174674D01*
X0070934Y0173913D01*
X0077129Y0173913D01*
X0077891Y0174674D01*
X0077891Y0181853D01*
X0077891Y0180898D02*
X0083952Y0180898D01*
X0083952Y0179899D02*
X0077891Y0179899D01*
X0077891Y0178901D02*
X0083952Y0178901D01*
X0083952Y0177902D02*
X0077891Y0177902D01*
X0077891Y0176904D02*
X0083952Y0176904D01*
X0083952Y0175905D02*
X0077891Y0175905D01*
X0077891Y0174907D02*
X0083952Y0174907D01*
X0084521Y0173908D02*
X0046108Y0173908D01*
X0046016Y0173815D02*
X0046295Y0174095D01*
X0046492Y0174437D01*
X0046594Y0174818D01*
X0046594Y0177567D01*
X0043035Y0177567D01*
X0043035Y0173516D01*
X0045292Y0173516D01*
X0045673Y0173618D01*
X0046016Y0173815D01*
X0046594Y0174907D02*
X0052456Y0174907D01*
X0052456Y0174674D02*
X0053217Y0173913D01*
X0059412Y0173913D01*
X0060174Y0174674D01*
X0060174Y0181853D01*
X0059412Y0182615D01*
X0053217Y0182615D01*
X0052456Y0181853D01*
X0052456Y0174674D01*
X0052456Y0175905D02*
X0046594Y0175905D01*
X0046594Y0176904D02*
X0052456Y0176904D01*
X0052456Y0177902D02*
X0043035Y0177902D01*
X0043035Y0177567D02*
X0043035Y0178567D01*
X0042035Y0178567D01*
X0042035Y0177567D01*
X0038476Y0177567D01*
X0038476Y0174818D01*
X0038579Y0174437D01*
X0038776Y0174095D01*
X0039055Y0173815D01*
X0039397Y0173618D01*
X0039779Y0173516D01*
X0042035Y0173516D01*
X0042035Y0177567D01*
X0043035Y0177567D01*
X0043035Y0176904D02*
X0042035Y0176904D01*
X0042035Y0177902D02*
X0028678Y0177902D01*
X0028678Y0176904D02*
X0038476Y0176904D01*
X0038476Y0175905D02*
X0028678Y0175905D01*
X0028678Y0174907D02*
X0038476Y0174907D01*
X0038963Y0173908D02*
X0028109Y0173908D01*
X0028678Y0178901D02*
X0038476Y0178901D01*
X0038476Y0178567D02*
X0042035Y0178567D01*
X0042035Y0182618D01*
X0039779Y0182618D01*
X0039397Y0182516D01*
X0039055Y0182318D01*
X0038776Y0182039D01*
X0038579Y0181697D01*
X0038476Y0181316D01*
X0038476Y0178567D01*
X0038476Y0179899D02*
X0028678Y0179899D01*
X0028678Y0180898D02*
X0038476Y0180898D01*
X0038694Y0181896D02*
X0028438Y0181896D01*
X0021642Y0188886D02*
X0286264Y0188886D01*
X0286264Y0189884D02*
X0021642Y0189884D01*
X0021642Y0190883D02*
X0286264Y0190883D01*
X0286264Y0191881D02*
X0021642Y0191881D01*
X0021642Y0192880D02*
X0144424Y0192880D01*
X0144366Y0192980D02*
X0144563Y0192638D01*
X0144843Y0192359D01*
X0145185Y0192161D01*
X0145566Y0192059D01*
X0148315Y0192059D01*
X0148315Y0195618D01*
X0149315Y0195618D01*
X0149315Y0192059D01*
X0152064Y0192059D01*
X0152445Y0192161D01*
X0152787Y0192359D01*
X0153066Y0192638D01*
X0153264Y0192980D01*
X0153366Y0193362D01*
X0153366Y0195618D01*
X0149315Y0195618D01*
X0149315Y0196618D01*
X0153366Y0196618D01*
X0153366Y0198875D01*
X0153264Y0199256D01*
X0153066Y0199598D01*
X0152787Y0199877D01*
X0152445Y0200075D01*
X0152064Y0200177D01*
X0149315Y0200177D01*
X0149315Y0196618D01*
X0148315Y0196618D01*
X0148315Y0195618D01*
X0144264Y0195618D01*
X0144264Y0193362D01*
X0144366Y0192980D01*
X0144264Y0193878D02*
X0021642Y0193878D01*
X0021642Y0194877D02*
X0144264Y0194877D01*
X0144264Y0196618D02*
X0148315Y0196618D01*
X0148315Y0200177D01*
X0145566Y0200177D01*
X0145185Y0200075D01*
X0144843Y0199877D01*
X0144563Y0199598D01*
X0144366Y0199256D01*
X0144264Y0198875D01*
X0144264Y0196618D01*
X0144264Y0196874D02*
X0021642Y0196874D01*
X0021825Y0197613D02*
X0021825Y0197613D01*
X0022135Y0197872D02*
X0144264Y0197872D01*
X0144264Y0198871D02*
X0023325Y0198871D01*
X0024317Y0199704D02*
X0024317Y0199704D01*
X0024317Y0199704D01*
X0024413Y0199869D02*
X0144835Y0199869D01*
X0148315Y0199869D02*
X0149315Y0199869D01*
X0149315Y0198871D02*
X0148315Y0198871D01*
X0148315Y0197872D02*
X0149315Y0197872D01*
X0149315Y0196874D02*
X0148315Y0196874D01*
X0148315Y0195875D02*
X0021642Y0195875D01*
X0024989Y0200868D02*
X0199582Y0200868D01*
X0199582Y0201866D02*
X0025566Y0201866D01*
X0025944Y0202521D02*
X0025944Y0202521D01*
X0026004Y0202865D02*
X0199582Y0202865D01*
X0199582Y0203863D02*
X0026180Y0203863D01*
X0026356Y0204862D02*
X0199582Y0204862D01*
X0200321Y0205860D02*
X0077946Y0205860D01*
X0077988Y0205933D02*
X0078091Y0206314D01*
X0078091Y0209063D01*
X0074532Y0209063D01*
X0074532Y0210063D01*
X0078091Y0210063D01*
X0078091Y0212812D01*
X0077988Y0213193D01*
X0077791Y0213535D01*
X0077512Y0213814D01*
X0077170Y0214012D01*
X0076788Y0214114D01*
X0074531Y0214114D01*
X0074531Y0210063D01*
X0073532Y0210063D01*
X0073532Y0214114D01*
X0071275Y0214114D01*
X0070893Y0214012D01*
X0070551Y0213814D01*
X0070272Y0213535D01*
X0070075Y0213193D01*
X0069972Y0212812D01*
X0069972Y0210063D01*
X0073531Y0210063D01*
X0073531Y0209063D01*
X0069972Y0209063D01*
X0069972Y0206314D01*
X0070075Y0205933D01*
X0070272Y0205591D01*
X0070551Y0205312D01*
X0070893Y0205114D01*
X0071275Y0205012D01*
X0073532Y0205012D01*
X0073532Y0209063D01*
X0074531Y0209063D01*
X0074531Y0205012D01*
X0076788Y0205012D01*
X0077170Y0205114D01*
X0077512Y0205312D01*
X0077791Y0205591D01*
X0077988Y0205933D01*
X0078091Y0206859D02*
X0286264Y0206859D01*
X0286264Y0207857D02*
X0078091Y0207857D01*
X0078091Y0208856D02*
X0286264Y0208856D01*
X0286264Y0209854D02*
X0074532Y0209854D01*
X0074531Y0208856D02*
X0073532Y0208856D01*
X0073531Y0209854D02*
X0060174Y0209854D01*
X0060174Y0208856D02*
X0069972Y0208856D01*
X0069972Y0207857D02*
X0060174Y0207857D01*
X0060174Y0206859D02*
X0069972Y0206859D01*
X0070116Y0205860D02*
X0060061Y0205860D01*
X0060174Y0205973D02*
X0060174Y0213153D01*
X0059412Y0213914D01*
X0053217Y0213914D01*
X0052456Y0213153D01*
X0052456Y0205973D01*
X0053217Y0205212D01*
X0059412Y0205212D01*
X0060174Y0205973D01*
X0060174Y0210853D02*
X0069972Y0210853D01*
X0069972Y0211851D02*
X0060174Y0211851D01*
X0060174Y0212850D02*
X0069983Y0212850D01*
X0070610Y0213848D02*
X0059478Y0213848D01*
X0053152Y0213848D02*
X0021791Y0213848D01*
X0021642Y0214847D02*
X0286264Y0214847D01*
X0286264Y0215845D02*
X0207671Y0215845D01*
X0207563Y0215783D02*
X0207905Y0215981D01*
X0208185Y0216260D01*
X0208382Y0216602D01*
X0208484Y0216984D01*
X0208484Y0219240D01*
X0204433Y0219240D01*
X0204433Y0215681D01*
X0207182Y0215681D01*
X0207563Y0215783D01*
X0208447Y0216844D02*
X0230881Y0216844D01*
X0230881Y0216643D02*
X0231643Y0215881D01*
X0238822Y0215881D01*
X0239583Y0216643D01*
X0239583Y0222838D01*
X0238822Y0223599D01*
X0231643Y0223599D01*
X0230881Y0222838D01*
X0230881Y0216643D01*
X0230881Y0217843D02*
X0208484Y0217843D01*
X0208484Y0218841D02*
X0230881Y0218841D01*
X0230881Y0219840D02*
X0204433Y0219840D01*
X0204433Y0220240D02*
X0208484Y0220240D01*
X0208484Y0222497D01*
X0208382Y0222878D01*
X0208185Y0223220D01*
X0207905Y0223499D01*
X0207563Y0223697D01*
X0207182Y0223799D01*
X0204433Y0223799D01*
X0204433Y0220240D01*
X0204433Y0219240D01*
X0203433Y0219240D01*
X0203433Y0215681D01*
X0200684Y0215681D01*
X0200303Y0215783D01*
X0199961Y0215981D01*
X0199682Y0216260D01*
X0199484Y0216602D01*
X0199382Y0216984D01*
X0199382Y0219240D01*
X0203433Y0219240D01*
X0203433Y0220240D01*
X0199382Y0220240D01*
X0199382Y0222497D01*
X0199484Y0222878D01*
X0199682Y0223220D01*
X0199961Y0223499D01*
X0200303Y0223697D01*
X0200684Y0223799D01*
X0203433Y0223799D01*
X0203433Y0220240D01*
X0204433Y0220240D01*
X0204433Y0220838D02*
X0203433Y0220838D01*
X0203433Y0219840D02*
X0021642Y0219840D01*
X0021642Y0220838D02*
X0199382Y0220838D01*
X0199382Y0221837D02*
X0021642Y0221837D01*
X0021642Y0222835D02*
X0199473Y0222835D01*
X0199382Y0218841D02*
X0021642Y0218841D01*
X0021642Y0217843D02*
X0199382Y0217843D01*
X0199419Y0216844D02*
X0021642Y0216844D01*
X0021642Y0215845D02*
X0200195Y0215845D01*
X0203433Y0215845D02*
X0204433Y0215845D01*
X0204433Y0216844D02*
X0203433Y0216844D01*
X0203433Y0217843D02*
X0204433Y0217843D01*
X0204433Y0218841D02*
X0203433Y0218841D01*
X0203433Y0221837D02*
X0204433Y0221837D01*
X0204433Y0222835D02*
X0203433Y0222835D01*
X0208394Y0222835D02*
X0230881Y0222835D01*
X0230881Y0221837D02*
X0208484Y0221837D01*
X0208484Y0220838D02*
X0230881Y0220838D01*
X0239583Y0220838D02*
X0286264Y0220838D01*
X0286264Y0219840D02*
X0239583Y0219840D01*
X0239583Y0218841D02*
X0286264Y0218841D01*
X0286264Y0217843D02*
X0239583Y0217843D01*
X0239583Y0216844D02*
X0286264Y0216844D01*
X0286264Y0213848D02*
X0077453Y0213848D01*
X0078080Y0212850D02*
X0286264Y0212850D01*
X0286264Y0211851D02*
X0078091Y0211851D01*
X0078091Y0210853D02*
X0286264Y0210853D01*
X0286264Y0221837D02*
X0239583Y0221837D01*
X0239583Y0222835D02*
X0286264Y0222835D01*
X0286264Y0223834D02*
X0021642Y0223834D01*
X0021642Y0224832D02*
X0286264Y0224832D01*
X0286264Y0225831D02*
X0021642Y0225831D01*
X0021642Y0226829D02*
X0286264Y0226829D01*
X0286264Y0227828D02*
X0021642Y0227828D01*
X0021642Y0228826D02*
X0286264Y0228826D01*
X0286264Y0229825D02*
X0067293Y0229825D01*
X0067090Y0229621D02*
X0067851Y0230383D01*
X0067851Y0236972D01*
X0067090Y0237733D01*
X0061682Y0237733D01*
X0060920Y0236972D01*
X0060920Y0230383D01*
X0061682Y0229621D01*
X0067090Y0229621D01*
X0067851Y0230823D02*
X0286264Y0230823D01*
X0286264Y0231822D02*
X0067851Y0231822D01*
X0067851Y0232820D02*
X0286264Y0232820D01*
X0286264Y0233819D02*
X0067851Y0233819D01*
X0067851Y0234817D02*
X0286264Y0234817D01*
X0286264Y0235816D02*
X0067851Y0235816D01*
X0067851Y0236814D02*
X0286264Y0236814D01*
X0286264Y0237813D02*
X0021642Y0237813D01*
X0021642Y0238811D02*
X0286264Y0238811D01*
X0286264Y0239810D02*
X0021642Y0239810D01*
X0021642Y0240808D02*
X0286264Y0240808D01*
X0286264Y0241807D02*
X0021642Y0241807D01*
X0021642Y0242805D02*
X0286264Y0242805D01*
X0286264Y0243804D02*
X0021642Y0243804D01*
X0021642Y0244802D02*
X0286264Y0244802D01*
X0286264Y0245801D02*
X0021642Y0245801D01*
X0021642Y0246799D02*
X0286264Y0246799D01*
X0286264Y0247798D02*
X0021642Y0247798D01*
X0021642Y0248796D02*
X0286264Y0248796D01*
X0286264Y0249795D02*
X0021642Y0249795D01*
X0021642Y0250793D02*
X0286264Y0250793D01*
X0286264Y0251792D02*
X0021642Y0251792D01*
X0021642Y0252790D02*
X0286264Y0252790D01*
X0286264Y0253789D02*
X0021642Y0253789D01*
X0021642Y0254787D02*
X0286264Y0254787D01*
X0286264Y0255786D02*
X0021642Y0255786D01*
X0021642Y0256784D02*
X0286264Y0256784D01*
X0286264Y0257783D02*
X0021642Y0257783D01*
X0021642Y0258781D02*
X0286264Y0258781D01*
X0286264Y0259780D02*
X0021642Y0259780D01*
X0021642Y0260778D02*
X0286264Y0260778D01*
X0286264Y0261777D02*
X0021642Y0261777D01*
X0021642Y0262776D02*
X0286264Y0262776D01*
X0286264Y0263774D02*
X0021642Y0263774D01*
X0021642Y0264773D02*
X0286264Y0264773D01*
X0286264Y0265771D02*
X0021642Y0265771D01*
X0021642Y0266770D02*
X0286264Y0266770D01*
X0286264Y0267768D02*
X0021642Y0267768D01*
X0021642Y0268767D02*
X0286264Y0268767D01*
X0286264Y0269765D02*
X0021642Y0269765D01*
X0021642Y0270764D02*
X0286264Y0270764D01*
X0286264Y0271762D02*
X0021642Y0271762D01*
X0021642Y0272761D02*
X0286264Y0272761D01*
X0286264Y0273759D02*
X0021642Y0273759D01*
X0021642Y0274758D02*
X0286264Y0274758D01*
X0286264Y0275756D02*
X0021642Y0275756D01*
X0021642Y0276755D02*
X0286264Y0276755D01*
X0286264Y0277753D02*
X0021642Y0277753D01*
X0021642Y0278752D02*
X0286264Y0278752D01*
X0286264Y0279750D02*
X0021642Y0279750D01*
X0021642Y0280749D02*
X0286264Y0280749D01*
X0286264Y0281747D02*
X0021642Y0281747D01*
X0021642Y0282746D02*
X0286264Y0282746D01*
X0286264Y0283744D02*
X0021642Y0283744D01*
X0021642Y0284743D02*
X0286264Y0284743D01*
X0286264Y0285741D02*
X0021642Y0285741D01*
X0021642Y0286740D02*
X0286264Y0286740D01*
X0286264Y0287738D02*
X0021642Y0287738D01*
X0021642Y0288737D02*
X0286264Y0288737D01*
X0286264Y0289735D02*
X0021642Y0289735D01*
X0021642Y0290734D02*
X0286264Y0290734D01*
X0286264Y0291732D02*
X0021642Y0291732D01*
X0021642Y0292731D02*
X0286264Y0292731D01*
X0286264Y0293729D02*
X0021642Y0293729D01*
X0021642Y0294728D02*
X0286264Y0294728D01*
X0286264Y0295726D02*
X0021642Y0295726D01*
X0021642Y0296725D02*
X0286264Y0296725D01*
X0286264Y0297723D02*
X0021642Y0297723D01*
X0021642Y0298722D02*
X0286264Y0298722D01*
X0286264Y0299720D02*
X0021642Y0299720D01*
X0021642Y0300719D02*
X0286264Y0300719D01*
X0286264Y0301717D02*
X0021642Y0301717D01*
X0021642Y0302716D02*
X0286264Y0302716D01*
X0286264Y0303714D02*
X0021642Y0303714D01*
X0021642Y0304713D02*
X0286264Y0304713D01*
X0286264Y0305712D02*
X0021642Y0305712D01*
X0021642Y0306710D02*
X0286264Y0306710D01*
X0286264Y0307709D02*
X0021642Y0307709D01*
X0021642Y0308707D02*
X0286264Y0308707D01*
X0286264Y0309706D02*
X0021642Y0309706D01*
X0021642Y0310704D02*
X0286264Y0310704D01*
X0286264Y0311703D02*
X0021642Y0311703D01*
X0021642Y0312701D02*
X0080493Y0312701D01*
X0080624Y0312570D02*
X0082352Y0311854D01*
X0087291Y0311854D01*
X0087507Y0311944D01*
X0087723Y0311854D01*
X0090203Y0311854D01*
X0091127Y0311854D01*
X0091127Y0311854D01*
X0091127Y0311854D01*
X0092522Y0312432D01*
X0092855Y0312570D01*
X0093562Y0313277D01*
X0093622Y0313337D01*
X0093622Y0313337D01*
X0094237Y0313952D01*
X0094944Y0314659D01*
X0094944Y0314659D01*
X0094944Y0314659D01*
X0095478Y0315947D01*
X0095660Y0316387D01*
X0095660Y0317311D01*
X0095660Y0318256D01*
X0095660Y0318257D01*
X0095660Y0321326D01*
X0094944Y0323053D01*
X0093622Y0324375D01*
X0092855Y0325143D01*
X0091127Y0325858D01*
X0089593Y0325858D01*
X0089593Y0325858D01*
X0088668Y0325858D01*
X0087723Y0325858D01*
X0087723Y0325858D01*
X0087723Y0325858D01*
X0087324Y0325693D01*
X0086740Y0325451D01*
X0085756Y0325858D01*
X0083886Y0325858D01*
X0083191Y0325570D01*
X0082159Y0325143D01*
X0080837Y0323821D01*
X0080837Y0323821D01*
X0079302Y0322286D01*
X0078587Y0320558D01*
X0078587Y0318689D01*
X0078835Y0318089D01*
X0078587Y0317489D01*
X0078587Y0315619D01*
X0079302Y0313892D01*
X0080624Y0312570D01*
X0079495Y0313700D02*
X0021642Y0313700D01*
X0021642Y0314698D02*
X0078968Y0314698D01*
X0078587Y0315697D02*
X0021642Y0315697D01*
X0021642Y0316695D02*
X0078587Y0316695D01*
X0078671Y0317694D02*
X0021642Y0317694D01*
X0021642Y0318692D02*
X0078587Y0318692D01*
X0078587Y0319691D02*
X0021642Y0319691D01*
X0021642Y0320689D02*
X0078641Y0320689D01*
X0079054Y0321688D02*
X0021642Y0321688D01*
X0021642Y0322686D02*
X0079702Y0322686D01*
X0080701Y0323685D02*
X0021642Y0323685D01*
X0021642Y0324683D02*
X0081699Y0324683D01*
X0083460Y0325682D02*
X0021642Y0325682D01*
X0021642Y0326680D02*
X0286264Y0326680D01*
X0286264Y0325682D02*
X0091554Y0325682D01*
X0091499Y0326865D02*
X0092261Y0327627D01*
X0092261Y0330279D01*
X0092012Y0330528D01*
X0092261Y0330776D01*
X0092261Y0333428D01*
X0092012Y0333677D01*
X0092261Y0333926D01*
X0092261Y0336578D01*
X0092012Y0336827D01*
X0092261Y0337076D01*
X0092261Y0339727D01*
X0092153Y0339835D01*
X0092161Y0339843D01*
X0092358Y0340185D01*
X0092461Y0340566D01*
X0092461Y0341551D01*
X0083087Y0341551D01*
X0083087Y0341551D01*
X0092461Y0341551D01*
X0092461Y0342536D01*
X0092358Y0342918D01*
X0092238Y0343126D01*
X0092358Y0343334D01*
X0092461Y0343716D01*
X0092461Y0344701D01*
X0092461Y0345686D01*
X0092358Y0346067D01*
X0092238Y0346276D01*
X0092358Y0346484D01*
X0092461Y0346866D01*
X0092461Y0347850D01*
X0083087Y0347850D01*
X0083087Y0347850D01*
X0083087Y0344701D01*
X0092461Y0344701D01*
X0083087Y0344701D01*
X0083087Y0344701D01*
X0083087Y0344701D01*
X0083087Y0346988D01*
X0083087Y0347850D01*
X0083087Y0347850D01*
X0092461Y0347850D01*
X0092461Y0348835D01*
X0092358Y0349217D01*
X0092238Y0349425D01*
X0092358Y0349634D01*
X0092461Y0350015D01*
X0092461Y0351000D01*
X0092461Y0351985D01*
X0092358Y0352366D01*
X0092161Y0352708D01*
X0092153Y0352716D01*
X0092261Y0352824D01*
X0092261Y0355475D01*
X0092012Y0355724D01*
X0092261Y0355973D01*
X0092261Y0358625D01*
X0092153Y0358733D01*
X0092161Y0358740D01*
X0092358Y0359082D01*
X0092461Y0359464D01*
X0092461Y0360449D01*
X0092461Y0361434D01*
X0092358Y0361815D01*
X0092161Y0362157D01*
X0092153Y0362165D01*
X0092261Y0362273D01*
X0092261Y0364924D01*
X0092012Y0365173D01*
X0092261Y0365422D01*
X0092261Y0368074D01*
X0092012Y0368323D01*
X0092261Y0368572D01*
X0092261Y0371224D01*
X0092012Y0371472D01*
X0092261Y0371721D01*
X0092261Y0374373D01*
X0092012Y0374622D01*
X0092261Y0374871D01*
X0092261Y0377523D01*
X0092012Y0377772D01*
X0092261Y0378021D01*
X0092261Y0380672D01*
X0092153Y0380780D01*
X0092161Y0380788D01*
X0092358Y0381130D01*
X0092461Y0381511D01*
X0092461Y0382496D01*
X0083087Y0382496D01*
X0083087Y0382496D01*
X0092461Y0382496D01*
X0092461Y0383481D01*
X0092358Y0383862D01*
X0092161Y0384204D01*
X0091882Y0384484D01*
X0091540Y0384681D01*
X0091158Y0384783D01*
X0083087Y0384783D01*
X0083087Y0382496D01*
X0083087Y0382496D01*
X0083087Y0384783D01*
X0075015Y0384783D01*
X0074634Y0384681D01*
X0074292Y0384484D01*
X0074012Y0384204D01*
X0073815Y0383862D01*
X0073713Y0383481D01*
X0073713Y0382496D01*
X0073713Y0381511D01*
X0073815Y0381130D01*
X0074012Y0380788D01*
X0074020Y0380780D01*
X0073913Y0380672D01*
X0073913Y0378021D01*
X0074162Y0377772D01*
X0073913Y0377523D01*
X0073913Y0374871D01*
X0074162Y0374622D01*
X0073913Y0374373D01*
X0073913Y0371721D01*
X0074162Y0371472D01*
X0073913Y0371224D01*
X0073913Y0368572D01*
X0074162Y0368323D01*
X0073913Y0368074D01*
X0073913Y0365422D01*
X0074162Y0365173D01*
X0073913Y0364924D01*
X0073913Y0362273D01*
X0074020Y0362165D01*
X0074012Y0362157D01*
X0073815Y0361815D01*
X0073713Y0361434D01*
X0073713Y0360449D01*
X0083086Y0360449D01*
X0083086Y0360449D01*
X0073713Y0360449D01*
X0073713Y0359464D01*
X0073815Y0359082D01*
X0074012Y0358740D01*
X0074020Y0358733D01*
X0073913Y0358625D01*
X0073913Y0355973D01*
X0074162Y0355724D01*
X0073913Y0355475D01*
X0073913Y0352824D01*
X0074020Y0352716D01*
X0074012Y0352708D01*
X0073815Y0352366D01*
X0073713Y0351985D01*
X0073713Y0351000D01*
X0083086Y0351000D01*
X0073713Y0351000D01*
X0073713Y0350015D01*
X0073815Y0349634D01*
X0073935Y0349425D01*
X0073815Y0349217D01*
X0073713Y0348835D01*
X0073713Y0347850D01*
X0073713Y0346866D01*
X0073815Y0346484D01*
X0073935Y0346276D01*
X0073815Y0346067D01*
X0073713Y0345686D01*
X0073713Y0344701D01*
X0083086Y0344701D01*
X0083086Y0344701D01*
X0073713Y0344701D01*
X0073713Y0343716D01*
X0073815Y0343334D01*
X0073935Y0343126D01*
X0073815Y0342918D01*
X0073713Y0342536D01*
X0073713Y0341551D01*
X0073713Y0340566D01*
X0073815Y0340185D01*
X0074012Y0339843D01*
X0074020Y0339835D01*
X0073913Y0339727D01*
X0073913Y0337076D01*
X0074162Y0336827D01*
X0073913Y0336578D01*
X0073913Y0333926D01*
X0074162Y0333677D01*
X0073913Y0333428D01*
X0073913Y0330776D01*
X0074162Y0330528D01*
X0073913Y0330279D01*
X0073913Y0327627D01*
X0074674Y0326865D01*
X0091499Y0326865D01*
X0092261Y0327679D02*
X0286264Y0327679D01*
X0286264Y0328677D02*
X0092261Y0328677D01*
X0092261Y0329676D02*
X0286264Y0329676D01*
X0286264Y0330674D02*
X0092158Y0330674D01*
X0092261Y0331673D02*
X0286264Y0331673D01*
X0286264Y0332671D02*
X0092261Y0332671D01*
X0092019Y0333670D02*
X0286264Y0333670D01*
X0286264Y0334668D02*
X0092261Y0334668D01*
X0092261Y0335667D02*
X0286264Y0335667D01*
X0286264Y0336665D02*
X0092173Y0336665D01*
X0092261Y0337664D02*
X0286264Y0337664D01*
X0286264Y0338662D02*
X0092261Y0338662D01*
X0092261Y0339661D02*
X0286264Y0339661D01*
X0286264Y0340659D02*
X0092461Y0340659D01*
X0092461Y0341658D02*
X0286264Y0341658D01*
X0286264Y0342656D02*
X0092428Y0342656D01*
X0092444Y0343655D02*
X0286264Y0343655D01*
X0286264Y0344653D02*
X0092461Y0344653D01*
X0092461Y0345652D02*
X0286264Y0345652D01*
X0286264Y0346650D02*
X0092403Y0346650D01*
X0092461Y0347649D02*
X0286264Y0347649D01*
X0286264Y0348647D02*
X0092461Y0348647D01*
X0092362Y0349646D02*
X0286264Y0349646D01*
X0286264Y0350645D02*
X0092461Y0350645D01*
X0092461Y0351000D02*
X0083087Y0351000D01*
X0092461Y0351000D01*
X0092461Y0351643D02*
X0286264Y0351643D01*
X0286264Y0352642D02*
X0092200Y0352642D01*
X0092261Y0353640D02*
X0286264Y0353640D01*
X0286264Y0354639D02*
X0092261Y0354639D01*
X0092099Y0355637D02*
X0286264Y0355637D01*
X0286264Y0356636D02*
X0092261Y0356636D01*
X0092261Y0357634D02*
X0286264Y0357634D01*
X0286264Y0358633D02*
X0092253Y0358633D01*
X0092461Y0359631D02*
X0286264Y0359631D01*
X0286264Y0360630D02*
X0092461Y0360630D01*
X0092461Y0360449D02*
X0083087Y0360449D01*
X0083087Y0360449D01*
X0092461Y0360449D01*
X0092409Y0361628D02*
X0286264Y0361628D01*
X0286264Y0362627D02*
X0092261Y0362627D01*
X0092261Y0363625D02*
X0286264Y0363625D01*
X0286264Y0364624D02*
X0092261Y0364624D01*
X0092261Y0365622D02*
X0286264Y0365622D01*
X0286264Y0366621D02*
X0092261Y0366621D01*
X0092261Y0367619D02*
X0286264Y0367619D01*
X0286264Y0368618D02*
X0092261Y0368618D01*
X0092261Y0369616D02*
X0286264Y0369616D01*
X0286264Y0370615D02*
X0092261Y0370615D01*
X0092153Y0371613D02*
X0286264Y0371613D01*
X0286264Y0372612D02*
X0092261Y0372612D01*
X0092261Y0373610D02*
X0286264Y0373610D01*
X0286264Y0374609D02*
X0092025Y0374609D01*
X0092261Y0375607D02*
X0286264Y0375607D01*
X0286264Y0376606D02*
X0092261Y0376606D01*
X0092179Y0377604D02*
X0286264Y0377604D01*
X0286264Y0378603D02*
X0092261Y0378603D01*
X0092261Y0379601D02*
X0286264Y0379601D01*
X0286264Y0380600D02*
X0092261Y0380600D01*
X0092461Y0381598D02*
X0286264Y0381598D01*
X0286264Y0382597D02*
X0092461Y0382597D01*
X0092430Y0383595D02*
X0286264Y0383595D01*
X0286264Y0384594D02*
X0091691Y0384594D01*
X0089018Y0388948D02*
X0090340Y0390270D01*
X0091056Y0391997D01*
X0091056Y0393867D01*
X0090340Y0395595D01*
X0089521Y0396414D01*
X0089521Y0398471D01*
X0089233Y0399166D01*
X0088806Y0400199D01*
X0087484Y0401521D01*
X0086782Y0401811D01*
X0085756Y0402236D01*
X0083886Y0402236D01*
X0083191Y0401948D01*
X0082159Y0401521D01*
X0080837Y0400199D01*
X0079302Y0398664D01*
X0078587Y0396936D01*
X0078587Y0395067D01*
X0078835Y0394467D01*
X0078587Y0393867D01*
X0078587Y0391997D01*
X0079302Y0390270D01*
X0080624Y0388948D01*
X0082352Y0388232D01*
X0087291Y0388232D01*
X0089018Y0388948D01*
X0089657Y0389586D02*
X0286264Y0389586D01*
X0286264Y0388588D02*
X0088149Y0388588D01*
X0090471Y0390585D02*
X0286264Y0390585D01*
X0286264Y0391583D02*
X0090884Y0391583D01*
X0091056Y0392582D02*
X0286264Y0392582D01*
X0286264Y0393580D02*
X0091056Y0393580D01*
X0090761Y0394579D02*
X0286264Y0394579D01*
X0286264Y0395578D02*
X0090347Y0395578D01*
X0089521Y0396576D02*
X0286264Y0396576D01*
X0286264Y0397575D02*
X0089521Y0397575D01*
X0089479Y0398573D02*
X0286264Y0398573D01*
X0286264Y0399572D02*
X0089065Y0399572D01*
X0088434Y0400570D02*
X0286264Y0400570D01*
X0286264Y0401569D02*
X0087368Y0401569D01*
X0087484Y0401521D02*
X0087484Y0401521D01*
X0082275Y0401569D02*
X0021642Y0401569D01*
X0021642Y0402567D02*
X0286264Y0402567D01*
X0286264Y0403566D02*
X0021642Y0403566D01*
X0021642Y0404564D02*
X0286264Y0404564D01*
X0286264Y0405563D02*
X0021642Y0405563D01*
X0021642Y0406561D02*
X0286264Y0406561D01*
X0286264Y0407560D02*
X0021642Y0407560D01*
X0021642Y0408558D02*
X0286264Y0408558D01*
X0286264Y0409557D02*
X0021642Y0409557D01*
X0021642Y0410555D02*
X0286264Y0410555D01*
X0286264Y0411554D02*
X0021642Y0411554D01*
X0021642Y0412552D02*
X0286264Y0412552D01*
X0286264Y0413551D02*
X0021642Y0413551D01*
X0021642Y0414549D02*
X0286264Y0414549D01*
X0286264Y0415548D02*
X0021642Y0415548D01*
X0021642Y0416546D02*
X0286264Y0416546D01*
X0286264Y0417545D02*
X0021642Y0417545D01*
X0021642Y0418543D02*
X0286264Y0418543D01*
X0286264Y0419542D02*
X0021642Y0419542D01*
X0021642Y0420540D02*
X0286264Y0420540D01*
X0286264Y0421539D02*
X0021642Y0421539D01*
X0021642Y0422537D02*
X0286264Y0422537D01*
X0286264Y0423536D02*
X0021642Y0423536D01*
X0021642Y0424534D02*
X0286264Y0424534D01*
X0286264Y0425533D02*
X0021642Y0425533D01*
X0021642Y0426531D02*
X0286264Y0426531D01*
X0286264Y0427530D02*
X0021642Y0427530D01*
X0021642Y0428528D02*
X0286264Y0428528D01*
X0286264Y0429527D02*
X0021642Y0429527D01*
X0021642Y0430525D02*
X0286264Y0430525D01*
X0286264Y0431524D02*
X0021642Y0431524D01*
X0021642Y0432522D02*
X0286264Y0432522D01*
X0286264Y0433521D02*
X0021642Y0433521D01*
X0021642Y0434519D02*
X0286264Y0434519D01*
X0286264Y0435518D02*
X0021642Y0435518D01*
X0021642Y0436516D02*
X0286264Y0436516D01*
X0286264Y0437515D02*
X0021642Y0437515D01*
X0021642Y0438514D02*
X0286264Y0438514D01*
X0286264Y0439512D02*
X0021642Y0439512D01*
X0021642Y0440511D02*
X0286264Y0440511D01*
X0286264Y0441509D02*
X0021642Y0441509D01*
X0021642Y0442508D02*
X0286264Y0442508D01*
X0286264Y0443506D02*
X0021642Y0443506D01*
X0021642Y0444505D02*
X0286264Y0444505D01*
X0286264Y0445503D02*
X0021642Y0445503D01*
X0021642Y0446502D02*
X0286264Y0446502D01*
X0286264Y0447500D02*
X0021642Y0447500D01*
X0021642Y0448499D02*
X0286264Y0448499D01*
X0286264Y0449497D02*
X0021642Y0449497D01*
X0021642Y0450496D02*
X0052122Y0450496D01*
X0051384Y0450801D02*
X0053689Y0449846D01*
X0056185Y0449846D01*
X0058490Y0450801D01*
X0060254Y0452566D01*
X0060843Y0453987D01*
X0061431Y0452566D01*
X0063195Y0450801D01*
X0065501Y0449846D01*
X0067996Y0449846D01*
X0070301Y0450801D01*
X0072065Y0452566D01*
X0073020Y0454871D01*
X0073020Y0457366D01*
X0072065Y0459671D01*
X0070301Y0461435D01*
X0067996Y0462390D01*
X0065501Y0462390D01*
X0063195Y0461435D01*
X0061431Y0459671D01*
X0060843Y0458250D01*
X0060254Y0459671D01*
X0058490Y0461435D01*
X0056185Y0462390D01*
X0053689Y0462390D01*
X0051384Y0461435D01*
X0049620Y0459671D01*
X0048665Y0457366D01*
X0048665Y0454871D01*
X0049620Y0452566D01*
X0051384Y0450801D01*
X0050691Y0451494D02*
X0021642Y0451494D01*
X0021642Y0452493D02*
X0049693Y0452493D01*
X0049237Y0453491D02*
X0021642Y0453491D01*
X0021642Y0454490D02*
X0048823Y0454490D01*
X0048665Y0455488D02*
X0021642Y0455488D01*
X0021642Y0456487D02*
X0048665Y0456487D01*
X0048715Y0457485D02*
X0021642Y0457485D01*
X0021642Y0458484D02*
X0049129Y0458484D01*
X0049542Y0459482D02*
X0021642Y0459482D01*
X0021642Y0460481D02*
X0050430Y0460481D01*
X0051491Y0461479D02*
X0021642Y0461479D01*
X0058383Y0461479D02*
X0063302Y0461479D01*
X0062241Y0460481D02*
X0059444Y0460481D01*
X0060332Y0459482D02*
X0061353Y0459482D01*
X0060940Y0458484D02*
X0060746Y0458484D01*
X0060637Y0453491D02*
X0061048Y0453491D01*
X0061504Y0452493D02*
X0060181Y0452493D01*
X0059183Y0451494D02*
X0062503Y0451494D01*
X0063933Y0450496D02*
X0057752Y0450496D01*
X0069563Y0450496D02*
X0286264Y0450496D01*
X0286264Y0451494D02*
X0070994Y0451494D01*
X0071992Y0452493D02*
X0286264Y0452493D01*
X0286264Y0453491D02*
X0072448Y0453491D01*
X0072862Y0454490D02*
X0286264Y0454490D01*
X0286264Y0455488D02*
X0073020Y0455488D01*
X0073020Y0456487D02*
X0286264Y0456487D01*
X0286264Y0457485D02*
X0072970Y0457485D01*
X0072557Y0458484D02*
X0286264Y0458484D01*
X0286264Y0459482D02*
X0072143Y0459482D01*
X0071255Y0460481D02*
X0286264Y0460481D01*
X0286264Y0461479D02*
X0070194Y0461479D01*
X0081208Y0400570D02*
X0021642Y0400570D01*
X0021642Y0399572D02*
X0080210Y0399572D01*
X0080837Y0400199D02*
X0080837Y0400199D01*
X0079265Y0398573D02*
X0021642Y0398573D01*
X0021642Y0397575D02*
X0078851Y0397575D01*
X0078587Y0396576D02*
X0021642Y0396576D01*
X0021642Y0395578D02*
X0078587Y0395578D01*
X0078789Y0394579D02*
X0021642Y0394579D01*
X0021642Y0393580D02*
X0078587Y0393580D01*
X0078587Y0392582D02*
X0021642Y0392582D01*
X0021642Y0391583D02*
X0078758Y0391583D01*
X0079172Y0390585D02*
X0021642Y0390585D01*
X0021642Y0389586D02*
X0079986Y0389586D01*
X0081493Y0388588D02*
X0021642Y0388588D01*
X0021642Y0387589D02*
X0286264Y0387589D01*
X0286264Y0386591D02*
X0021642Y0386591D01*
X0021642Y0385592D02*
X0286264Y0385592D01*
X0286264Y0324683D02*
X0093314Y0324683D01*
X0094313Y0323685D02*
X0286264Y0323685D01*
X0286264Y0322686D02*
X0095096Y0322686D01*
X0095510Y0321688D02*
X0286264Y0321688D01*
X0286264Y0320689D02*
X0095660Y0320689D01*
X0095660Y0319691D02*
X0286264Y0319691D01*
X0286264Y0318692D02*
X0095660Y0318692D01*
X0095660Y0317694D02*
X0286264Y0317694D01*
X0286264Y0316695D02*
X0095660Y0316695D01*
X0095660Y0316387D02*
X0095660Y0316387D01*
X0095660Y0316387D01*
X0095374Y0315697D02*
X0286264Y0315697D01*
X0286264Y0314698D02*
X0094960Y0314698D01*
X0093985Y0313700D02*
X0286264Y0313700D01*
X0286264Y0312701D02*
X0092986Y0312701D01*
X0092855Y0312570D02*
X0092855Y0312570D01*
X0092855Y0312570D01*
X0087297Y0325682D02*
X0086182Y0325682D01*
X0073913Y0327679D02*
X0021642Y0327679D01*
X0021642Y0328677D02*
X0073913Y0328677D01*
X0073913Y0329676D02*
X0021642Y0329676D01*
X0021642Y0330674D02*
X0074015Y0330674D01*
X0073913Y0331673D02*
X0021642Y0331673D01*
X0021642Y0332671D02*
X0073913Y0332671D01*
X0074154Y0333670D02*
X0021642Y0333670D01*
X0021642Y0334668D02*
X0073913Y0334668D01*
X0073913Y0335667D02*
X0021642Y0335667D01*
X0021642Y0336665D02*
X0074000Y0336665D01*
X0073913Y0337664D02*
X0021642Y0337664D01*
X0021642Y0338662D02*
X0073913Y0338662D01*
X0073913Y0339661D02*
X0021642Y0339661D01*
X0021642Y0340659D02*
X0073713Y0340659D01*
X0073713Y0341551D02*
X0083086Y0341551D01*
X0083086Y0341551D01*
X0073713Y0341551D01*
X0073713Y0341658D02*
X0021642Y0341658D01*
X0021642Y0342656D02*
X0073745Y0342656D01*
X0073729Y0343655D02*
X0021642Y0343655D01*
X0021642Y0344653D02*
X0073713Y0344653D01*
X0073713Y0345652D02*
X0021642Y0345652D01*
X0021642Y0346650D02*
X0073770Y0346650D01*
X0073713Y0347649D02*
X0021642Y0347649D01*
X0021642Y0348647D02*
X0073713Y0348647D01*
X0073713Y0347850D02*
X0083086Y0347850D01*
X0073713Y0347850D01*
X0073812Y0349646D02*
X0021642Y0349646D01*
X0021642Y0350645D02*
X0073713Y0350645D01*
X0073713Y0351643D02*
X0021642Y0351643D01*
X0021642Y0352642D02*
X0073974Y0352642D01*
X0073913Y0353640D02*
X0021642Y0353640D01*
X0021642Y0354639D02*
X0073913Y0354639D01*
X0074074Y0355637D02*
X0021642Y0355637D01*
X0021642Y0356636D02*
X0073913Y0356636D01*
X0073913Y0357634D02*
X0021642Y0357634D01*
X0021642Y0358633D02*
X0073920Y0358633D01*
X0073713Y0359631D02*
X0021642Y0359631D01*
X0021642Y0360630D02*
X0073713Y0360630D01*
X0073765Y0361628D02*
X0021642Y0361628D01*
X0021642Y0362627D02*
X0073913Y0362627D01*
X0073913Y0363625D02*
X0021642Y0363625D01*
X0021642Y0364624D02*
X0073913Y0364624D01*
X0073913Y0365622D02*
X0021642Y0365622D01*
X0021642Y0366621D02*
X0073913Y0366621D01*
X0073913Y0367619D02*
X0021642Y0367619D01*
X0021642Y0368618D02*
X0073913Y0368618D01*
X0073913Y0369616D02*
X0021642Y0369616D01*
X0021642Y0370615D02*
X0073913Y0370615D01*
X0074021Y0371613D02*
X0021642Y0371613D01*
X0021642Y0372612D02*
X0073913Y0372612D01*
X0073913Y0373610D02*
X0021642Y0373610D01*
X0021642Y0374609D02*
X0074148Y0374609D01*
X0073913Y0375607D02*
X0021642Y0375607D01*
X0021642Y0376606D02*
X0073913Y0376606D01*
X0073994Y0377604D02*
X0021642Y0377604D01*
X0021642Y0378603D02*
X0073913Y0378603D01*
X0073913Y0379601D02*
X0021642Y0379601D01*
X0021642Y0380600D02*
X0073913Y0380600D01*
X0073713Y0381598D02*
X0021642Y0381598D01*
X0021642Y0382597D02*
X0073713Y0382597D01*
X0073713Y0382496D02*
X0083086Y0382496D01*
X0073713Y0382496D01*
X0073743Y0383595D02*
X0021642Y0383595D01*
X0021642Y0384594D02*
X0074482Y0384594D01*
X0083087Y0384594D02*
X0083087Y0384594D01*
X0083087Y0383595D02*
X0083087Y0383595D01*
X0083087Y0382597D02*
X0083087Y0382597D01*
X0083086Y0382496D02*
X0083086Y0382496D01*
X0083087Y0351000D02*
X0083087Y0351000D01*
X0083087Y0347851D01*
X0083087Y0347851D01*
X0083087Y0350138D01*
X0083087Y0351000D01*
X0083087Y0351000D01*
X0083086Y0351000D02*
X0083086Y0351000D01*
X0083087Y0350645D02*
X0083087Y0350645D01*
X0083087Y0349646D02*
X0083087Y0349646D01*
X0083087Y0348647D02*
X0083087Y0348647D01*
X0083086Y0347850D02*
X0083086Y0347850D01*
X0083087Y0347649D02*
X0083087Y0347649D01*
X0083087Y0346650D02*
X0083087Y0346650D01*
X0083087Y0345652D02*
X0083087Y0345652D01*
X0083087Y0344701D02*
X0083087Y0341551D01*
X0083087Y0341551D01*
X0083087Y0343839D01*
X0083087Y0344701D01*
X0083087Y0344701D01*
X0083087Y0344653D02*
X0083087Y0344653D01*
X0083087Y0343655D02*
X0083087Y0343655D01*
X0083087Y0342656D02*
X0083087Y0342656D01*
X0083087Y0341658D02*
X0083087Y0341658D01*
X0059216Y0237733D02*
X0053808Y0237733D01*
X0053046Y0236972D01*
X0053046Y0230383D01*
X0053808Y0229621D01*
X0059216Y0229621D01*
X0059977Y0230383D01*
X0059977Y0236972D01*
X0059216Y0237733D01*
X0059977Y0236814D02*
X0060920Y0236814D01*
X0060920Y0235816D02*
X0059977Y0235816D01*
X0059977Y0234817D02*
X0060920Y0234817D01*
X0060920Y0233819D02*
X0059977Y0233819D01*
X0059977Y0232820D02*
X0060920Y0232820D01*
X0060920Y0231822D02*
X0059977Y0231822D01*
X0059977Y0230823D02*
X0060920Y0230823D01*
X0061479Y0229825D02*
X0059419Y0229825D01*
X0053605Y0229825D02*
X0051545Y0229825D01*
X0051342Y0229621D02*
X0052103Y0230383D01*
X0052103Y0236972D01*
X0051342Y0237733D01*
X0045934Y0237733D01*
X0045172Y0236972D01*
X0045172Y0230383D01*
X0045934Y0229621D01*
X0051342Y0229621D01*
X0052103Y0230823D02*
X0053046Y0230823D01*
X0053046Y0231822D02*
X0052103Y0231822D01*
X0052103Y0232820D02*
X0053046Y0232820D01*
X0053046Y0233819D02*
X0052103Y0233819D01*
X0052103Y0234817D02*
X0053046Y0234817D01*
X0053046Y0235816D02*
X0052103Y0235816D01*
X0052103Y0236814D02*
X0053046Y0236814D01*
X0045172Y0236814D02*
X0044229Y0236814D01*
X0044229Y0236972D02*
X0043468Y0237733D01*
X0038060Y0237733D01*
X0037298Y0236972D01*
X0037298Y0230383D01*
X0038060Y0229621D01*
X0043468Y0229621D01*
X0044229Y0230383D01*
X0044229Y0236972D01*
X0044229Y0235816D02*
X0045172Y0235816D01*
X0045172Y0234817D02*
X0044229Y0234817D01*
X0044229Y0233819D02*
X0045172Y0233819D01*
X0045172Y0232820D02*
X0044229Y0232820D01*
X0044229Y0231822D02*
X0045172Y0231822D01*
X0045172Y0230823D02*
X0044229Y0230823D01*
X0043671Y0229825D02*
X0045731Y0229825D01*
X0037857Y0229825D02*
X0027415Y0229825D01*
X0028602Y0230823D02*
X0029424Y0230823D01*
X0029424Y0230776D02*
X0030186Y0230015D01*
X0035987Y0230015D01*
X0036749Y0230776D01*
X0036749Y0236578D01*
X0035987Y0237339D01*
X0030186Y0237339D01*
X0029424Y0236578D01*
X0029424Y0230776D01*
X0029424Y0231822D02*
X0028681Y0231822D01*
X0028681Y0232820D02*
X0029424Y0232820D01*
X0029424Y0233819D02*
X0025319Y0233819D01*
X0025319Y0234817D02*
X0024319Y0234817D01*
X0024319Y0235816D02*
X0025319Y0235816D01*
X0025319Y0236814D02*
X0024319Y0236814D01*
X0024319Y0232820D02*
X0025319Y0232820D01*
X0025319Y0231822D02*
X0024319Y0231822D01*
X0024319Y0230823D02*
X0025319Y0230823D01*
X0025319Y0229825D02*
X0024319Y0229825D01*
X0022223Y0229825D02*
X0021642Y0229825D01*
X0028681Y0234817D02*
X0029424Y0234817D01*
X0029424Y0235816D02*
X0028681Y0235816D01*
X0028466Y0236814D02*
X0029661Y0236814D01*
X0036512Y0236814D02*
X0037298Y0236814D01*
X0037298Y0235816D02*
X0036749Y0235816D01*
X0036749Y0234817D02*
X0037298Y0234817D01*
X0037298Y0233819D02*
X0036749Y0233819D01*
X0036749Y0232820D02*
X0037298Y0232820D01*
X0037298Y0231822D02*
X0036749Y0231822D01*
X0036749Y0230823D02*
X0037298Y0230823D01*
X0024832Y0210853D02*
X0052456Y0210853D01*
X0052456Y0211851D02*
X0024190Y0211851D01*
X0023000Y0212850D02*
X0052456Y0212850D01*
X0052456Y0209854D02*
X0025409Y0209854D01*
X0025944Y0208928D02*
X0025944Y0208928D01*
X0025956Y0208856D02*
X0052456Y0208856D01*
X0052456Y0207857D02*
X0026132Y0207857D01*
X0026308Y0206859D02*
X0052456Y0206859D01*
X0052569Y0205860D02*
X0026484Y0205860D01*
X0043035Y0182618D02*
X0043035Y0178567D01*
X0046594Y0178567D01*
X0046594Y0181316D01*
X0046492Y0181697D01*
X0046295Y0182039D01*
X0046016Y0182318D01*
X0045673Y0182516D01*
X0045292Y0182618D01*
X0043035Y0182618D01*
X0043035Y0181896D02*
X0042035Y0181896D01*
X0042035Y0180898D02*
X0043035Y0180898D01*
X0043035Y0179899D02*
X0042035Y0179899D01*
X0042035Y0178901D02*
X0043035Y0178901D01*
X0043035Y0175905D02*
X0042035Y0175905D01*
X0042035Y0174907D02*
X0043035Y0174907D01*
X0043035Y0173908D02*
X0042035Y0173908D01*
X0046594Y0178901D02*
X0052456Y0178901D01*
X0052456Y0179899D02*
X0046594Y0179899D01*
X0046594Y0180898D02*
X0052456Y0180898D01*
X0052499Y0181896D02*
X0046377Y0181896D01*
X0060131Y0181896D02*
X0070215Y0181896D01*
X0070172Y0180898D02*
X0060174Y0180898D01*
X0060174Y0179899D02*
X0070172Y0179899D01*
X0070172Y0178901D02*
X0060174Y0178901D01*
X0060174Y0177902D02*
X0070172Y0177902D01*
X0070172Y0176904D02*
X0060174Y0176904D01*
X0060174Y0175905D02*
X0070172Y0175905D01*
X0070172Y0174907D02*
X0060174Y0174907D01*
X0073532Y0150942D02*
X0074531Y0150942D01*
X0074531Y0149944D02*
X0073532Y0149944D01*
X0073532Y0148945D02*
X0074531Y0148945D01*
X0074531Y0147947D02*
X0073532Y0147947D01*
X0073532Y0144951D02*
X0074531Y0144951D01*
X0074531Y0143953D02*
X0073532Y0143953D01*
X0073532Y0142954D02*
X0074531Y0142954D01*
X0077992Y0142954D02*
X0084176Y0142954D01*
X0083952Y0143953D02*
X0078091Y0143953D01*
X0078091Y0144951D02*
X0083952Y0144951D01*
X0083952Y0145950D02*
X0078091Y0145950D01*
X0101553Y0125979D02*
X0021642Y0125979D01*
X0021642Y0124981D02*
X0101354Y0124981D01*
X0101205Y0124228D02*
X0101205Y0124228D01*
X0101254Y0123982D02*
X0021642Y0123982D01*
X0021642Y0122984D02*
X0101452Y0122984D01*
X0101651Y0121985D02*
X0021642Y0121985D01*
X0021642Y0120987D02*
X0101849Y0120987D01*
X0101908Y0120691D02*
X0101908Y0120691D01*
X0101752Y0126978D02*
X0021642Y0126978D01*
X0021642Y0127976D02*
X0102049Y0127976D01*
X0101908Y0127766D02*
X0101908Y0127766D01*
X0102716Y0128975D02*
X0021642Y0128975D01*
X0021642Y0129974D02*
X0103383Y0129974D01*
X0103912Y0130765D02*
X0103912Y0130765D01*
X0103912Y0130765D01*
X0104222Y0130972D02*
X0021642Y0130972D01*
X0021642Y0131971D02*
X0105717Y0131971D01*
X0106911Y0132769D02*
X0106911Y0132769D01*
X0107918Y0132969D02*
X0021642Y0132969D01*
X0021642Y0133968D02*
X0132544Y0133968D01*
X0132453Y0134966D02*
X0021642Y0134966D01*
X0025803Y0118905D02*
X0025803Y0118905D01*
X0021951Y0117991D02*
X0021642Y0117991D01*
X0034979Y0110003D02*
X0098730Y0110003D01*
X0098063Y0109005D02*
X0034917Y0109005D01*
X0034718Y0108006D02*
X0097800Y0108006D01*
X0097971Y0108868D02*
X0097971Y0108868D01*
X0102974Y0096790D02*
X0102974Y0096790D01*
X0106512Y0096087D02*
X0106512Y0096087D01*
X0110049Y0096790D02*
X0110049Y0096790D01*
X0118630Y0084042D02*
X0119630Y0084042D01*
X0119630Y0083043D02*
X0118630Y0083043D01*
X0118630Y0082045D02*
X0119630Y0082045D01*
X0119630Y0081046D02*
X0118630Y0081046D01*
X0113102Y0079049D02*
X0021642Y0079049D01*
X0021642Y0078051D02*
X0113102Y0078051D01*
X0113102Y0077052D02*
X0021642Y0077052D01*
X0021642Y0076054D02*
X0113451Y0076054D01*
X0119146Y0126978D02*
X0273046Y0126978D01*
X0272657Y0127976D02*
X0118849Y0127976D01*
X0118989Y0127766D02*
X0118989Y0127766D01*
X0118181Y0128975D02*
X0272458Y0128975D01*
X0277777Y0139462D02*
X0277777Y0139462D01*
X0284853Y0139462D02*
X0284853Y0139462D01*
X0285603Y0138960D02*
X0286264Y0138960D01*
X0286264Y0122984D02*
X0285755Y0122984D01*
X0284853Y0122381D02*
X0284853Y0122381D01*
X0286264Y0165920D02*
X0021642Y0165920D01*
X0021642Y0166918D02*
X0286264Y0166918D01*
X0286264Y0167917D02*
X0021642Y0167917D01*
X0021642Y0168915D02*
X0286264Y0168915D01*
X0286264Y0169914D02*
X0229197Y0169914D01*
X0227133Y0169914D02*
X0021642Y0169914D01*
X0021642Y0170912D02*
X0223879Y0170912D01*
X0224628Y0170412D02*
X0224628Y0170412D01*
X0222385Y0171911D02*
X0021642Y0171911D01*
X0021642Y0172909D02*
X0221299Y0172909D01*
X0221629Y0172416D02*
X0221629Y0172416D01*
X0221629Y0172416D01*
X0229722Y0187887D02*
X0286264Y0187887D01*
X0286264Y0186889D02*
X0232608Y0186889D01*
X0234102Y0185890D02*
X0286264Y0185890D01*
X0286264Y0184892D02*
X0235101Y0184892D01*
X0234702Y0185489D02*
X0234702Y0185489D01*
X0235768Y0183893D02*
X0286264Y0183893D01*
X0286264Y0182895D02*
X0236436Y0182895D01*
X0235699Y0173908D02*
X0286264Y0173908D01*
X0286264Y0172909D02*
X0235032Y0172909D01*
X0233946Y0171911D02*
X0286264Y0171911D01*
X0286264Y0170912D02*
X0232451Y0170912D01*
X0231703Y0170412D02*
X0231703Y0170412D01*
X0199637Y0198871D02*
X0184465Y0198871D01*
X0184465Y0199216D02*
X0183704Y0199977D01*
X0176525Y0199977D01*
X0175763Y0199216D01*
X0175763Y0193021D01*
X0176525Y0192259D01*
X0183704Y0192259D01*
X0184465Y0193021D01*
X0184465Y0199216D01*
X0183812Y0199869D02*
X0199582Y0199869D01*
X0184465Y0197872D02*
X0286264Y0197872D01*
X0286264Y0196874D02*
X0184465Y0196874D01*
X0184465Y0195875D02*
X0286264Y0195875D01*
X0286264Y0194877D02*
X0184465Y0194877D01*
X0184465Y0193878D02*
X0286264Y0193878D01*
X0286264Y0192880D02*
X0184324Y0192880D01*
X0175904Y0192880D02*
X0153206Y0192880D01*
X0153366Y0193878D02*
X0175763Y0193878D01*
X0175763Y0194877D02*
X0153366Y0194877D01*
X0153366Y0196874D02*
X0175763Y0196874D01*
X0175763Y0197872D02*
X0153366Y0197872D01*
X0153366Y0198871D02*
X0175763Y0198871D01*
X0176417Y0199869D02*
X0152795Y0199869D01*
X0149315Y0195875D02*
X0175763Y0195875D01*
X0176160Y0181896D02*
X0152769Y0181896D01*
X0153166Y0180898D02*
X0175763Y0180898D01*
X0175763Y0179899D02*
X0153166Y0179899D01*
X0153166Y0178901D02*
X0175763Y0178901D01*
X0175763Y0177902D02*
X0153166Y0177902D01*
X0153166Y0176904D02*
X0175763Y0176904D01*
X0175763Y0175905D02*
X0153166Y0175905D01*
X0152769Y0174907D02*
X0176161Y0174907D01*
X0149315Y0192880D02*
X0148315Y0192880D01*
X0148315Y0193878D02*
X0149315Y0193878D01*
X0149315Y0194877D02*
X0148315Y0194877D01*
X0144861Y0181896D02*
X0109369Y0181896D01*
X0109587Y0180898D02*
X0144464Y0180898D01*
X0144464Y0179899D02*
X0109587Y0179899D01*
X0109587Y0178901D02*
X0144464Y0178901D01*
X0135246Y0157966D02*
X0135246Y0157966D01*
X0128171Y0140885D02*
X0128171Y0140885D01*
X0110449Y0133472D02*
X0110449Y0133472D01*
X0106028Y0173908D02*
X0105028Y0173908D01*
X0105028Y0174907D02*
X0106028Y0174907D01*
X0106028Y0175905D02*
X0105028Y0175905D01*
X0105028Y0178901D02*
X0106028Y0178901D01*
X0106028Y0179899D02*
X0105028Y0179899D01*
X0105028Y0180898D02*
X0106028Y0180898D01*
X0106028Y0181896D02*
X0105028Y0181896D01*
X0074531Y0205860D02*
X0073532Y0205860D01*
X0073532Y0206859D02*
X0074531Y0206859D01*
X0074531Y0207857D02*
X0073532Y0207857D01*
X0073532Y0210853D02*
X0074531Y0210853D01*
X0074531Y0211851D02*
X0073532Y0211851D01*
X0073532Y0212850D02*
X0074531Y0212850D01*
X0074531Y0213848D02*
X0073532Y0213848D01*
X0282651Y0181896D02*
X0286264Y0181896D01*
X0286264Y0180898D02*
X0283087Y0180898D01*
X0283087Y0179899D02*
X0286264Y0179899D01*
X0286264Y0178901D02*
X0283087Y0178901D01*
X0283087Y0177902D02*
X0286264Y0177902D01*
X0286264Y0176904D02*
X0283087Y0176904D01*
X0283087Y0175905D02*
X0286264Y0175905D01*
X0286264Y0174907D02*
X0282729Y0174907D01*
M02*
