G75*
%MOIN*%
%OFA0B0*%
%FSLAX25Y25*%
%IPPOS*%
%LPD*%
%AMOC8*
5,1,8,0,0,1.08239X$1,22.5*
%
%ADD10C,0.00000*%
%ADD11C,0.01602*%
%ADD12C,0.01606*%
D10*
X0010874Y0042870D02*
X0069929Y0042870D01*
X0069929Y0011374D01*
X0069931Y0011184D01*
X0069938Y0010994D01*
X0069950Y0010804D01*
X0069966Y0010614D01*
X0069986Y0010425D01*
X0070012Y0010236D01*
X0070041Y0010048D01*
X0070076Y0009861D01*
X0070115Y0009675D01*
X0070158Y0009490D01*
X0070206Y0009305D01*
X0070258Y0009122D01*
X0070314Y0008941D01*
X0070375Y0008761D01*
X0070441Y0008582D01*
X0070510Y0008405D01*
X0070584Y0008229D01*
X0070662Y0008056D01*
X0070745Y0007884D01*
X0070831Y0007715D01*
X0070921Y0007547D01*
X0071016Y0007382D01*
X0071114Y0007219D01*
X0071217Y0007059D01*
X0071323Y0006901D01*
X0071433Y0006746D01*
X0071546Y0006593D01*
X0071664Y0006443D01*
X0071785Y0006297D01*
X0071909Y0006153D01*
X0072037Y0006012D01*
X0072168Y0005874D01*
X0072303Y0005739D01*
X0072441Y0005608D01*
X0072582Y0005480D01*
X0072726Y0005356D01*
X0072872Y0005235D01*
X0073022Y0005117D01*
X0073175Y0005004D01*
X0073330Y0004894D01*
X0073488Y0004788D01*
X0073648Y0004685D01*
X0073811Y0004587D01*
X0073976Y0004492D01*
X0074144Y0004402D01*
X0074313Y0004316D01*
X0074485Y0004233D01*
X0074658Y0004155D01*
X0074834Y0004081D01*
X0075011Y0004012D01*
X0075190Y0003946D01*
X0075370Y0003885D01*
X0075551Y0003829D01*
X0075734Y0003777D01*
X0075919Y0003729D01*
X0076104Y0003686D01*
X0076290Y0003647D01*
X0076477Y0003612D01*
X0076665Y0003583D01*
X0076854Y0003557D01*
X0077043Y0003537D01*
X0077233Y0003521D01*
X0077423Y0003509D01*
X0077613Y0003502D01*
X0077803Y0003500D01*
X0191976Y0003500D01*
X0192166Y0003502D01*
X0192356Y0003509D01*
X0192546Y0003521D01*
X0192736Y0003537D01*
X0192925Y0003557D01*
X0193114Y0003583D01*
X0193302Y0003612D01*
X0193489Y0003647D01*
X0193675Y0003686D01*
X0193860Y0003729D01*
X0194045Y0003777D01*
X0194228Y0003829D01*
X0194409Y0003885D01*
X0194589Y0003946D01*
X0194768Y0004012D01*
X0194945Y0004081D01*
X0195121Y0004155D01*
X0195294Y0004233D01*
X0195466Y0004316D01*
X0195635Y0004402D01*
X0195803Y0004492D01*
X0195968Y0004587D01*
X0196131Y0004685D01*
X0196291Y0004788D01*
X0196449Y0004894D01*
X0196604Y0005004D01*
X0196757Y0005117D01*
X0196907Y0005235D01*
X0197053Y0005356D01*
X0197197Y0005480D01*
X0197338Y0005608D01*
X0197476Y0005739D01*
X0197611Y0005874D01*
X0197742Y0006012D01*
X0197870Y0006153D01*
X0197994Y0006297D01*
X0198115Y0006443D01*
X0198233Y0006593D01*
X0198346Y0006746D01*
X0198456Y0006901D01*
X0198562Y0007059D01*
X0198665Y0007219D01*
X0198763Y0007382D01*
X0198858Y0007547D01*
X0198948Y0007715D01*
X0199034Y0007884D01*
X0199117Y0008056D01*
X0199195Y0008229D01*
X0199269Y0008405D01*
X0199338Y0008582D01*
X0199404Y0008761D01*
X0199465Y0008941D01*
X0199521Y0009122D01*
X0199573Y0009305D01*
X0199621Y0009490D01*
X0199664Y0009675D01*
X0199703Y0009861D01*
X0199738Y0010048D01*
X0199767Y0010236D01*
X0199793Y0010425D01*
X0199813Y0010614D01*
X0199829Y0010804D01*
X0199841Y0010994D01*
X0199848Y0011184D01*
X0199850Y0011374D01*
X0199850Y0042870D01*
X0270717Y0042870D01*
X0270907Y0042872D01*
X0271097Y0042879D01*
X0271287Y0042891D01*
X0271477Y0042907D01*
X0271666Y0042927D01*
X0271855Y0042953D01*
X0272043Y0042982D01*
X0272230Y0043017D01*
X0272416Y0043056D01*
X0272601Y0043099D01*
X0272786Y0043147D01*
X0272969Y0043199D01*
X0273150Y0043255D01*
X0273330Y0043316D01*
X0273509Y0043382D01*
X0273686Y0043451D01*
X0273862Y0043525D01*
X0274035Y0043603D01*
X0274207Y0043686D01*
X0274376Y0043772D01*
X0274544Y0043862D01*
X0274709Y0043957D01*
X0274872Y0044055D01*
X0275032Y0044158D01*
X0275190Y0044264D01*
X0275345Y0044374D01*
X0275498Y0044487D01*
X0275648Y0044605D01*
X0275794Y0044726D01*
X0275938Y0044850D01*
X0276079Y0044978D01*
X0276217Y0045109D01*
X0276352Y0045244D01*
X0276483Y0045382D01*
X0276611Y0045523D01*
X0276735Y0045667D01*
X0276856Y0045813D01*
X0276974Y0045963D01*
X0277087Y0046116D01*
X0277197Y0046271D01*
X0277303Y0046429D01*
X0277406Y0046589D01*
X0277504Y0046752D01*
X0277599Y0046917D01*
X0277689Y0047085D01*
X0277775Y0047254D01*
X0277858Y0047426D01*
X0277936Y0047599D01*
X0278010Y0047775D01*
X0278079Y0047952D01*
X0278145Y0048131D01*
X0278206Y0048311D01*
X0278262Y0048492D01*
X0278314Y0048675D01*
X0278362Y0048860D01*
X0278405Y0049045D01*
X0278444Y0049231D01*
X0278479Y0049418D01*
X0278508Y0049606D01*
X0278534Y0049795D01*
X0278554Y0049984D01*
X0278570Y0050174D01*
X0278582Y0050364D01*
X0278589Y0050554D01*
X0278591Y0050744D01*
X0278591Y0222004D01*
X0278589Y0222194D01*
X0278582Y0222384D01*
X0278570Y0222574D01*
X0278554Y0222764D01*
X0278534Y0222953D01*
X0278508Y0223142D01*
X0278479Y0223330D01*
X0278444Y0223517D01*
X0278405Y0223703D01*
X0278362Y0223888D01*
X0278314Y0224073D01*
X0278262Y0224256D01*
X0278206Y0224437D01*
X0278145Y0224617D01*
X0278079Y0224796D01*
X0278010Y0224973D01*
X0277936Y0225149D01*
X0277858Y0225322D01*
X0277775Y0225494D01*
X0277689Y0225663D01*
X0277599Y0225831D01*
X0277504Y0225996D01*
X0277406Y0226159D01*
X0277303Y0226319D01*
X0277197Y0226477D01*
X0277087Y0226632D01*
X0276974Y0226785D01*
X0276856Y0226935D01*
X0276735Y0227081D01*
X0276611Y0227225D01*
X0276483Y0227366D01*
X0276352Y0227504D01*
X0276217Y0227639D01*
X0276079Y0227770D01*
X0275938Y0227898D01*
X0275794Y0228022D01*
X0275648Y0228143D01*
X0275498Y0228261D01*
X0275345Y0228374D01*
X0275190Y0228484D01*
X0275032Y0228590D01*
X0274872Y0228693D01*
X0274709Y0228791D01*
X0274544Y0228886D01*
X0274376Y0228976D01*
X0274207Y0229062D01*
X0274035Y0229145D01*
X0273862Y0229223D01*
X0273686Y0229297D01*
X0273509Y0229366D01*
X0273330Y0229432D01*
X0273150Y0229493D01*
X0272969Y0229549D01*
X0272786Y0229601D01*
X0272601Y0229649D01*
X0272416Y0229692D01*
X0272230Y0229731D01*
X0272043Y0229766D01*
X0271855Y0229795D01*
X0271666Y0229821D01*
X0271477Y0229841D01*
X0271287Y0229857D01*
X0271097Y0229869D01*
X0270907Y0229876D01*
X0270717Y0229878D01*
X0010874Y0229878D01*
X0010684Y0229876D01*
X0010494Y0229869D01*
X0010304Y0229857D01*
X0010114Y0229841D01*
X0009925Y0229821D01*
X0009736Y0229795D01*
X0009548Y0229766D01*
X0009361Y0229731D01*
X0009175Y0229692D01*
X0008990Y0229649D01*
X0008805Y0229601D01*
X0008622Y0229549D01*
X0008441Y0229493D01*
X0008261Y0229432D01*
X0008082Y0229366D01*
X0007905Y0229297D01*
X0007729Y0229223D01*
X0007556Y0229145D01*
X0007384Y0229062D01*
X0007215Y0228976D01*
X0007047Y0228886D01*
X0006882Y0228791D01*
X0006719Y0228693D01*
X0006559Y0228590D01*
X0006401Y0228484D01*
X0006246Y0228374D01*
X0006093Y0228261D01*
X0005943Y0228143D01*
X0005797Y0228022D01*
X0005653Y0227898D01*
X0005512Y0227770D01*
X0005374Y0227639D01*
X0005239Y0227504D01*
X0005108Y0227366D01*
X0004980Y0227225D01*
X0004856Y0227081D01*
X0004735Y0226935D01*
X0004617Y0226785D01*
X0004504Y0226632D01*
X0004394Y0226477D01*
X0004288Y0226319D01*
X0004185Y0226159D01*
X0004087Y0225996D01*
X0003992Y0225831D01*
X0003902Y0225663D01*
X0003816Y0225494D01*
X0003733Y0225322D01*
X0003655Y0225149D01*
X0003581Y0224973D01*
X0003512Y0224796D01*
X0003446Y0224617D01*
X0003385Y0224437D01*
X0003329Y0224256D01*
X0003277Y0224073D01*
X0003229Y0223888D01*
X0003186Y0223703D01*
X0003147Y0223517D01*
X0003112Y0223330D01*
X0003083Y0223142D01*
X0003057Y0222953D01*
X0003037Y0222764D01*
X0003021Y0222574D01*
X0003009Y0222384D01*
X0003002Y0222194D01*
X0003000Y0222004D01*
X0003000Y0050744D01*
X0003002Y0050554D01*
X0003009Y0050364D01*
X0003021Y0050174D01*
X0003037Y0049984D01*
X0003057Y0049795D01*
X0003083Y0049606D01*
X0003112Y0049418D01*
X0003147Y0049231D01*
X0003186Y0049045D01*
X0003229Y0048860D01*
X0003277Y0048675D01*
X0003329Y0048492D01*
X0003385Y0048311D01*
X0003446Y0048131D01*
X0003512Y0047952D01*
X0003581Y0047775D01*
X0003655Y0047599D01*
X0003733Y0047426D01*
X0003816Y0047254D01*
X0003902Y0047085D01*
X0003992Y0046917D01*
X0004087Y0046752D01*
X0004185Y0046589D01*
X0004288Y0046429D01*
X0004394Y0046271D01*
X0004504Y0046116D01*
X0004617Y0045963D01*
X0004735Y0045813D01*
X0004856Y0045667D01*
X0004980Y0045523D01*
X0005108Y0045382D01*
X0005239Y0045244D01*
X0005374Y0045109D01*
X0005512Y0044978D01*
X0005653Y0044850D01*
X0005797Y0044726D01*
X0005943Y0044605D01*
X0006093Y0044487D01*
X0006246Y0044374D01*
X0006401Y0044264D01*
X0006559Y0044158D01*
X0006719Y0044055D01*
X0006882Y0043957D01*
X0007047Y0043862D01*
X0007215Y0043772D01*
X0007384Y0043686D01*
X0007556Y0043603D01*
X0007729Y0043525D01*
X0007905Y0043451D01*
X0008082Y0043382D01*
X0008261Y0043316D01*
X0008441Y0043255D01*
X0008622Y0043199D01*
X0008805Y0043147D01*
X0008990Y0043099D01*
X0009175Y0043056D01*
X0009361Y0043017D01*
X0009548Y0042982D01*
X0009736Y0042953D01*
X0009925Y0042927D01*
X0010114Y0042907D01*
X0010304Y0042891D01*
X0010494Y0042879D01*
X0010684Y0042872D01*
X0010874Y0042870D01*
X0007720Y0058618D02*
X0007722Y0058779D01*
X0007728Y0058939D01*
X0007738Y0059100D01*
X0007752Y0059260D01*
X0007770Y0059420D01*
X0007791Y0059579D01*
X0007817Y0059738D01*
X0007847Y0059896D01*
X0007880Y0060053D01*
X0007918Y0060210D01*
X0007959Y0060365D01*
X0008004Y0060519D01*
X0008053Y0060672D01*
X0008106Y0060824D01*
X0008162Y0060975D01*
X0008223Y0061124D01*
X0008286Y0061272D01*
X0008354Y0061418D01*
X0008425Y0061562D01*
X0008499Y0061704D01*
X0008577Y0061845D01*
X0008659Y0061983D01*
X0008744Y0062120D01*
X0008832Y0062254D01*
X0008924Y0062386D01*
X0009019Y0062516D01*
X0009117Y0062644D01*
X0009218Y0062769D01*
X0009322Y0062891D01*
X0009429Y0063011D01*
X0009539Y0063128D01*
X0009652Y0063243D01*
X0009768Y0063354D01*
X0009887Y0063463D01*
X0010008Y0063568D01*
X0010132Y0063671D01*
X0010258Y0063771D01*
X0010386Y0063867D01*
X0010517Y0063960D01*
X0010651Y0064050D01*
X0010786Y0064137D01*
X0010924Y0064220D01*
X0011063Y0064300D01*
X0011205Y0064376D01*
X0011348Y0064449D01*
X0011493Y0064518D01*
X0011640Y0064584D01*
X0011788Y0064646D01*
X0011938Y0064704D01*
X0012089Y0064759D01*
X0012242Y0064810D01*
X0012396Y0064857D01*
X0012551Y0064900D01*
X0012707Y0064939D01*
X0012863Y0064975D01*
X0013021Y0065006D01*
X0013179Y0065034D01*
X0013338Y0065058D01*
X0013498Y0065078D01*
X0013658Y0065094D01*
X0013818Y0065106D01*
X0013979Y0065114D01*
X0014140Y0065118D01*
X0014300Y0065118D01*
X0014461Y0065114D01*
X0014622Y0065106D01*
X0014782Y0065094D01*
X0014942Y0065078D01*
X0015102Y0065058D01*
X0015261Y0065034D01*
X0015419Y0065006D01*
X0015577Y0064975D01*
X0015733Y0064939D01*
X0015889Y0064900D01*
X0016044Y0064857D01*
X0016198Y0064810D01*
X0016351Y0064759D01*
X0016502Y0064704D01*
X0016652Y0064646D01*
X0016800Y0064584D01*
X0016947Y0064518D01*
X0017092Y0064449D01*
X0017235Y0064376D01*
X0017377Y0064300D01*
X0017516Y0064220D01*
X0017654Y0064137D01*
X0017789Y0064050D01*
X0017923Y0063960D01*
X0018054Y0063867D01*
X0018182Y0063771D01*
X0018308Y0063671D01*
X0018432Y0063568D01*
X0018553Y0063463D01*
X0018672Y0063354D01*
X0018788Y0063243D01*
X0018901Y0063128D01*
X0019011Y0063011D01*
X0019118Y0062891D01*
X0019222Y0062769D01*
X0019323Y0062644D01*
X0019421Y0062516D01*
X0019516Y0062386D01*
X0019608Y0062254D01*
X0019696Y0062120D01*
X0019781Y0061983D01*
X0019863Y0061845D01*
X0019941Y0061704D01*
X0020015Y0061562D01*
X0020086Y0061418D01*
X0020154Y0061272D01*
X0020217Y0061124D01*
X0020278Y0060975D01*
X0020334Y0060824D01*
X0020387Y0060672D01*
X0020436Y0060519D01*
X0020481Y0060365D01*
X0020522Y0060210D01*
X0020560Y0060053D01*
X0020593Y0059896D01*
X0020623Y0059738D01*
X0020649Y0059579D01*
X0020670Y0059420D01*
X0020688Y0059260D01*
X0020702Y0059100D01*
X0020712Y0058939D01*
X0020718Y0058779D01*
X0020720Y0058618D01*
X0020718Y0058457D01*
X0020712Y0058297D01*
X0020702Y0058136D01*
X0020688Y0057976D01*
X0020670Y0057816D01*
X0020649Y0057657D01*
X0020623Y0057498D01*
X0020593Y0057340D01*
X0020560Y0057183D01*
X0020522Y0057026D01*
X0020481Y0056871D01*
X0020436Y0056717D01*
X0020387Y0056564D01*
X0020334Y0056412D01*
X0020278Y0056261D01*
X0020217Y0056112D01*
X0020154Y0055964D01*
X0020086Y0055818D01*
X0020015Y0055674D01*
X0019941Y0055532D01*
X0019863Y0055391D01*
X0019781Y0055253D01*
X0019696Y0055116D01*
X0019608Y0054982D01*
X0019516Y0054850D01*
X0019421Y0054720D01*
X0019323Y0054592D01*
X0019222Y0054467D01*
X0019118Y0054345D01*
X0019011Y0054225D01*
X0018901Y0054108D01*
X0018788Y0053993D01*
X0018672Y0053882D01*
X0018553Y0053773D01*
X0018432Y0053668D01*
X0018308Y0053565D01*
X0018182Y0053465D01*
X0018054Y0053369D01*
X0017923Y0053276D01*
X0017789Y0053186D01*
X0017654Y0053099D01*
X0017516Y0053016D01*
X0017377Y0052936D01*
X0017235Y0052860D01*
X0017092Y0052787D01*
X0016947Y0052718D01*
X0016800Y0052652D01*
X0016652Y0052590D01*
X0016502Y0052532D01*
X0016351Y0052477D01*
X0016198Y0052426D01*
X0016044Y0052379D01*
X0015889Y0052336D01*
X0015733Y0052297D01*
X0015577Y0052261D01*
X0015419Y0052230D01*
X0015261Y0052202D01*
X0015102Y0052178D01*
X0014942Y0052158D01*
X0014782Y0052142D01*
X0014622Y0052130D01*
X0014461Y0052122D01*
X0014300Y0052118D01*
X0014140Y0052118D01*
X0013979Y0052122D01*
X0013818Y0052130D01*
X0013658Y0052142D01*
X0013498Y0052158D01*
X0013338Y0052178D01*
X0013179Y0052202D01*
X0013021Y0052230D01*
X0012863Y0052261D01*
X0012707Y0052297D01*
X0012551Y0052336D01*
X0012396Y0052379D01*
X0012242Y0052426D01*
X0012089Y0052477D01*
X0011938Y0052532D01*
X0011788Y0052590D01*
X0011640Y0052652D01*
X0011493Y0052718D01*
X0011348Y0052787D01*
X0011205Y0052860D01*
X0011063Y0052936D01*
X0010924Y0053016D01*
X0010786Y0053099D01*
X0010651Y0053186D01*
X0010517Y0053276D01*
X0010386Y0053369D01*
X0010258Y0053465D01*
X0010132Y0053565D01*
X0010008Y0053668D01*
X0009887Y0053773D01*
X0009768Y0053882D01*
X0009652Y0053993D01*
X0009539Y0054108D01*
X0009429Y0054225D01*
X0009322Y0054345D01*
X0009218Y0054467D01*
X0009117Y0054592D01*
X0009019Y0054720D01*
X0008924Y0054850D01*
X0008832Y0054982D01*
X0008744Y0055116D01*
X0008659Y0055253D01*
X0008577Y0055391D01*
X0008499Y0055532D01*
X0008425Y0055674D01*
X0008354Y0055818D01*
X0008286Y0055964D01*
X0008223Y0056112D01*
X0008162Y0056261D01*
X0008106Y0056412D01*
X0008053Y0056564D01*
X0008004Y0056717D01*
X0007959Y0056871D01*
X0007918Y0057026D01*
X0007880Y0057183D01*
X0007847Y0057340D01*
X0007817Y0057498D01*
X0007791Y0057657D01*
X0007770Y0057816D01*
X0007752Y0057976D01*
X0007738Y0058136D01*
X0007728Y0058297D01*
X0007722Y0058457D01*
X0007720Y0058618D01*
X0082524Y0050744D02*
X0082526Y0050905D01*
X0082532Y0051065D01*
X0082542Y0051226D01*
X0082556Y0051386D01*
X0082574Y0051546D01*
X0082595Y0051705D01*
X0082621Y0051864D01*
X0082651Y0052022D01*
X0082684Y0052179D01*
X0082722Y0052336D01*
X0082763Y0052491D01*
X0082808Y0052645D01*
X0082857Y0052798D01*
X0082910Y0052950D01*
X0082966Y0053101D01*
X0083027Y0053250D01*
X0083090Y0053398D01*
X0083158Y0053544D01*
X0083229Y0053688D01*
X0083303Y0053830D01*
X0083381Y0053971D01*
X0083463Y0054109D01*
X0083548Y0054246D01*
X0083636Y0054380D01*
X0083728Y0054512D01*
X0083823Y0054642D01*
X0083921Y0054770D01*
X0084022Y0054895D01*
X0084126Y0055017D01*
X0084233Y0055137D01*
X0084343Y0055254D01*
X0084456Y0055369D01*
X0084572Y0055480D01*
X0084691Y0055589D01*
X0084812Y0055694D01*
X0084936Y0055797D01*
X0085062Y0055897D01*
X0085190Y0055993D01*
X0085321Y0056086D01*
X0085455Y0056176D01*
X0085590Y0056263D01*
X0085728Y0056346D01*
X0085867Y0056426D01*
X0086009Y0056502D01*
X0086152Y0056575D01*
X0086297Y0056644D01*
X0086444Y0056710D01*
X0086592Y0056772D01*
X0086742Y0056830D01*
X0086893Y0056885D01*
X0087046Y0056936D01*
X0087200Y0056983D01*
X0087355Y0057026D01*
X0087511Y0057065D01*
X0087667Y0057101D01*
X0087825Y0057132D01*
X0087983Y0057160D01*
X0088142Y0057184D01*
X0088302Y0057204D01*
X0088462Y0057220D01*
X0088622Y0057232D01*
X0088783Y0057240D01*
X0088944Y0057244D01*
X0089104Y0057244D01*
X0089265Y0057240D01*
X0089426Y0057232D01*
X0089586Y0057220D01*
X0089746Y0057204D01*
X0089906Y0057184D01*
X0090065Y0057160D01*
X0090223Y0057132D01*
X0090381Y0057101D01*
X0090537Y0057065D01*
X0090693Y0057026D01*
X0090848Y0056983D01*
X0091002Y0056936D01*
X0091155Y0056885D01*
X0091306Y0056830D01*
X0091456Y0056772D01*
X0091604Y0056710D01*
X0091751Y0056644D01*
X0091896Y0056575D01*
X0092039Y0056502D01*
X0092181Y0056426D01*
X0092320Y0056346D01*
X0092458Y0056263D01*
X0092593Y0056176D01*
X0092727Y0056086D01*
X0092858Y0055993D01*
X0092986Y0055897D01*
X0093112Y0055797D01*
X0093236Y0055694D01*
X0093357Y0055589D01*
X0093476Y0055480D01*
X0093592Y0055369D01*
X0093705Y0055254D01*
X0093815Y0055137D01*
X0093922Y0055017D01*
X0094026Y0054895D01*
X0094127Y0054770D01*
X0094225Y0054642D01*
X0094320Y0054512D01*
X0094412Y0054380D01*
X0094500Y0054246D01*
X0094585Y0054109D01*
X0094667Y0053971D01*
X0094745Y0053830D01*
X0094819Y0053688D01*
X0094890Y0053544D01*
X0094958Y0053398D01*
X0095021Y0053250D01*
X0095082Y0053101D01*
X0095138Y0052950D01*
X0095191Y0052798D01*
X0095240Y0052645D01*
X0095285Y0052491D01*
X0095326Y0052336D01*
X0095364Y0052179D01*
X0095397Y0052022D01*
X0095427Y0051864D01*
X0095453Y0051705D01*
X0095474Y0051546D01*
X0095492Y0051386D01*
X0095506Y0051226D01*
X0095516Y0051065D01*
X0095522Y0050905D01*
X0095524Y0050744D01*
X0095522Y0050583D01*
X0095516Y0050423D01*
X0095506Y0050262D01*
X0095492Y0050102D01*
X0095474Y0049942D01*
X0095453Y0049783D01*
X0095427Y0049624D01*
X0095397Y0049466D01*
X0095364Y0049309D01*
X0095326Y0049152D01*
X0095285Y0048997D01*
X0095240Y0048843D01*
X0095191Y0048690D01*
X0095138Y0048538D01*
X0095082Y0048387D01*
X0095021Y0048238D01*
X0094958Y0048090D01*
X0094890Y0047944D01*
X0094819Y0047800D01*
X0094745Y0047658D01*
X0094667Y0047517D01*
X0094585Y0047379D01*
X0094500Y0047242D01*
X0094412Y0047108D01*
X0094320Y0046976D01*
X0094225Y0046846D01*
X0094127Y0046718D01*
X0094026Y0046593D01*
X0093922Y0046471D01*
X0093815Y0046351D01*
X0093705Y0046234D01*
X0093592Y0046119D01*
X0093476Y0046008D01*
X0093357Y0045899D01*
X0093236Y0045794D01*
X0093112Y0045691D01*
X0092986Y0045591D01*
X0092858Y0045495D01*
X0092727Y0045402D01*
X0092593Y0045312D01*
X0092458Y0045225D01*
X0092320Y0045142D01*
X0092181Y0045062D01*
X0092039Y0044986D01*
X0091896Y0044913D01*
X0091751Y0044844D01*
X0091604Y0044778D01*
X0091456Y0044716D01*
X0091306Y0044658D01*
X0091155Y0044603D01*
X0091002Y0044552D01*
X0090848Y0044505D01*
X0090693Y0044462D01*
X0090537Y0044423D01*
X0090381Y0044387D01*
X0090223Y0044356D01*
X0090065Y0044328D01*
X0089906Y0044304D01*
X0089746Y0044284D01*
X0089586Y0044268D01*
X0089426Y0044256D01*
X0089265Y0044248D01*
X0089104Y0044244D01*
X0088944Y0044244D01*
X0088783Y0044248D01*
X0088622Y0044256D01*
X0088462Y0044268D01*
X0088302Y0044284D01*
X0088142Y0044304D01*
X0087983Y0044328D01*
X0087825Y0044356D01*
X0087667Y0044387D01*
X0087511Y0044423D01*
X0087355Y0044462D01*
X0087200Y0044505D01*
X0087046Y0044552D01*
X0086893Y0044603D01*
X0086742Y0044658D01*
X0086592Y0044716D01*
X0086444Y0044778D01*
X0086297Y0044844D01*
X0086152Y0044913D01*
X0086009Y0044986D01*
X0085867Y0045062D01*
X0085728Y0045142D01*
X0085590Y0045225D01*
X0085455Y0045312D01*
X0085321Y0045402D01*
X0085190Y0045495D01*
X0085062Y0045591D01*
X0084936Y0045691D01*
X0084812Y0045794D01*
X0084691Y0045899D01*
X0084572Y0046008D01*
X0084456Y0046119D01*
X0084343Y0046234D01*
X0084233Y0046351D01*
X0084126Y0046471D01*
X0084022Y0046593D01*
X0083921Y0046718D01*
X0083823Y0046846D01*
X0083728Y0046976D01*
X0083636Y0047108D01*
X0083548Y0047242D01*
X0083463Y0047379D01*
X0083381Y0047517D01*
X0083303Y0047658D01*
X0083229Y0047800D01*
X0083158Y0047944D01*
X0083090Y0048090D01*
X0083027Y0048238D01*
X0082966Y0048387D01*
X0082910Y0048538D01*
X0082857Y0048690D01*
X0082808Y0048843D01*
X0082763Y0048997D01*
X0082722Y0049152D01*
X0082684Y0049309D01*
X0082651Y0049466D01*
X0082621Y0049624D01*
X0082595Y0049783D01*
X0082574Y0049942D01*
X0082556Y0050102D01*
X0082542Y0050262D01*
X0082532Y0050423D01*
X0082526Y0050583D01*
X0082524Y0050744D01*
X0090398Y0070429D02*
X0090400Y0070590D01*
X0090406Y0070750D01*
X0090416Y0070911D01*
X0090430Y0071071D01*
X0090448Y0071231D01*
X0090469Y0071390D01*
X0090495Y0071549D01*
X0090525Y0071707D01*
X0090558Y0071864D01*
X0090596Y0072021D01*
X0090637Y0072176D01*
X0090682Y0072330D01*
X0090731Y0072483D01*
X0090784Y0072635D01*
X0090840Y0072786D01*
X0090901Y0072935D01*
X0090964Y0073083D01*
X0091032Y0073229D01*
X0091103Y0073373D01*
X0091177Y0073515D01*
X0091255Y0073656D01*
X0091337Y0073794D01*
X0091422Y0073931D01*
X0091510Y0074065D01*
X0091602Y0074197D01*
X0091697Y0074327D01*
X0091795Y0074455D01*
X0091896Y0074580D01*
X0092000Y0074702D01*
X0092107Y0074822D01*
X0092217Y0074939D01*
X0092330Y0075054D01*
X0092446Y0075165D01*
X0092565Y0075274D01*
X0092686Y0075379D01*
X0092810Y0075482D01*
X0092936Y0075582D01*
X0093064Y0075678D01*
X0093195Y0075771D01*
X0093329Y0075861D01*
X0093464Y0075948D01*
X0093602Y0076031D01*
X0093741Y0076111D01*
X0093883Y0076187D01*
X0094026Y0076260D01*
X0094171Y0076329D01*
X0094318Y0076395D01*
X0094466Y0076457D01*
X0094616Y0076515D01*
X0094767Y0076570D01*
X0094920Y0076621D01*
X0095074Y0076668D01*
X0095229Y0076711D01*
X0095385Y0076750D01*
X0095541Y0076786D01*
X0095699Y0076817D01*
X0095857Y0076845D01*
X0096016Y0076869D01*
X0096176Y0076889D01*
X0096336Y0076905D01*
X0096496Y0076917D01*
X0096657Y0076925D01*
X0096818Y0076929D01*
X0096978Y0076929D01*
X0097139Y0076925D01*
X0097300Y0076917D01*
X0097460Y0076905D01*
X0097620Y0076889D01*
X0097780Y0076869D01*
X0097939Y0076845D01*
X0098097Y0076817D01*
X0098255Y0076786D01*
X0098411Y0076750D01*
X0098567Y0076711D01*
X0098722Y0076668D01*
X0098876Y0076621D01*
X0099029Y0076570D01*
X0099180Y0076515D01*
X0099330Y0076457D01*
X0099478Y0076395D01*
X0099625Y0076329D01*
X0099770Y0076260D01*
X0099913Y0076187D01*
X0100055Y0076111D01*
X0100194Y0076031D01*
X0100332Y0075948D01*
X0100467Y0075861D01*
X0100601Y0075771D01*
X0100732Y0075678D01*
X0100860Y0075582D01*
X0100986Y0075482D01*
X0101110Y0075379D01*
X0101231Y0075274D01*
X0101350Y0075165D01*
X0101466Y0075054D01*
X0101579Y0074939D01*
X0101689Y0074822D01*
X0101796Y0074702D01*
X0101900Y0074580D01*
X0102001Y0074455D01*
X0102099Y0074327D01*
X0102194Y0074197D01*
X0102286Y0074065D01*
X0102374Y0073931D01*
X0102459Y0073794D01*
X0102541Y0073656D01*
X0102619Y0073515D01*
X0102693Y0073373D01*
X0102764Y0073229D01*
X0102832Y0073083D01*
X0102895Y0072935D01*
X0102956Y0072786D01*
X0103012Y0072635D01*
X0103065Y0072483D01*
X0103114Y0072330D01*
X0103159Y0072176D01*
X0103200Y0072021D01*
X0103238Y0071864D01*
X0103271Y0071707D01*
X0103301Y0071549D01*
X0103327Y0071390D01*
X0103348Y0071231D01*
X0103366Y0071071D01*
X0103380Y0070911D01*
X0103390Y0070750D01*
X0103396Y0070590D01*
X0103398Y0070429D01*
X0103396Y0070268D01*
X0103390Y0070108D01*
X0103380Y0069947D01*
X0103366Y0069787D01*
X0103348Y0069627D01*
X0103327Y0069468D01*
X0103301Y0069309D01*
X0103271Y0069151D01*
X0103238Y0068994D01*
X0103200Y0068837D01*
X0103159Y0068682D01*
X0103114Y0068528D01*
X0103065Y0068375D01*
X0103012Y0068223D01*
X0102956Y0068072D01*
X0102895Y0067923D01*
X0102832Y0067775D01*
X0102764Y0067629D01*
X0102693Y0067485D01*
X0102619Y0067343D01*
X0102541Y0067202D01*
X0102459Y0067064D01*
X0102374Y0066927D01*
X0102286Y0066793D01*
X0102194Y0066661D01*
X0102099Y0066531D01*
X0102001Y0066403D01*
X0101900Y0066278D01*
X0101796Y0066156D01*
X0101689Y0066036D01*
X0101579Y0065919D01*
X0101466Y0065804D01*
X0101350Y0065693D01*
X0101231Y0065584D01*
X0101110Y0065479D01*
X0100986Y0065376D01*
X0100860Y0065276D01*
X0100732Y0065180D01*
X0100601Y0065087D01*
X0100467Y0064997D01*
X0100332Y0064910D01*
X0100194Y0064827D01*
X0100055Y0064747D01*
X0099913Y0064671D01*
X0099770Y0064598D01*
X0099625Y0064529D01*
X0099478Y0064463D01*
X0099330Y0064401D01*
X0099180Y0064343D01*
X0099029Y0064288D01*
X0098876Y0064237D01*
X0098722Y0064190D01*
X0098567Y0064147D01*
X0098411Y0064108D01*
X0098255Y0064072D01*
X0098097Y0064041D01*
X0097939Y0064013D01*
X0097780Y0063989D01*
X0097620Y0063969D01*
X0097460Y0063953D01*
X0097300Y0063941D01*
X0097139Y0063933D01*
X0096978Y0063929D01*
X0096818Y0063929D01*
X0096657Y0063933D01*
X0096496Y0063941D01*
X0096336Y0063953D01*
X0096176Y0063969D01*
X0096016Y0063989D01*
X0095857Y0064013D01*
X0095699Y0064041D01*
X0095541Y0064072D01*
X0095385Y0064108D01*
X0095229Y0064147D01*
X0095074Y0064190D01*
X0094920Y0064237D01*
X0094767Y0064288D01*
X0094616Y0064343D01*
X0094466Y0064401D01*
X0094318Y0064463D01*
X0094171Y0064529D01*
X0094026Y0064598D01*
X0093883Y0064671D01*
X0093741Y0064747D01*
X0093602Y0064827D01*
X0093464Y0064910D01*
X0093329Y0064997D01*
X0093195Y0065087D01*
X0093064Y0065180D01*
X0092936Y0065276D01*
X0092810Y0065376D01*
X0092686Y0065479D01*
X0092565Y0065584D01*
X0092446Y0065693D01*
X0092330Y0065804D01*
X0092217Y0065919D01*
X0092107Y0066036D01*
X0092000Y0066156D01*
X0091896Y0066278D01*
X0091795Y0066403D01*
X0091697Y0066531D01*
X0091602Y0066661D01*
X0091510Y0066793D01*
X0091422Y0066927D01*
X0091337Y0067064D01*
X0091255Y0067202D01*
X0091177Y0067343D01*
X0091103Y0067485D01*
X0091032Y0067629D01*
X0090964Y0067775D01*
X0090901Y0067923D01*
X0090840Y0068072D01*
X0090784Y0068223D01*
X0090731Y0068375D01*
X0090682Y0068528D01*
X0090637Y0068682D01*
X0090596Y0068837D01*
X0090558Y0068994D01*
X0090525Y0069151D01*
X0090495Y0069309D01*
X0090469Y0069468D01*
X0090448Y0069627D01*
X0090430Y0069787D01*
X0090416Y0069947D01*
X0090406Y0070108D01*
X0090400Y0070268D01*
X0090398Y0070429D01*
X0110083Y0099957D02*
X0110085Y0100118D01*
X0110091Y0100278D01*
X0110101Y0100439D01*
X0110115Y0100599D01*
X0110133Y0100759D01*
X0110154Y0100918D01*
X0110180Y0101077D01*
X0110210Y0101235D01*
X0110243Y0101392D01*
X0110281Y0101549D01*
X0110322Y0101704D01*
X0110367Y0101858D01*
X0110416Y0102011D01*
X0110469Y0102163D01*
X0110525Y0102314D01*
X0110586Y0102463D01*
X0110649Y0102611D01*
X0110717Y0102757D01*
X0110788Y0102901D01*
X0110862Y0103043D01*
X0110940Y0103184D01*
X0111022Y0103322D01*
X0111107Y0103459D01*
X0111195Y0103593D01*
X0111287Y0103725D01*
X0111382Y0103855D01*
X0111480Y0103983D01*
X0111581Y0104108D01*
X0111685Y0104230D01*
X0111792Y0104350D01*
X0111902Y0104467D01*
X0112015Y0104582D01*
X0112131Y0104693D01*
X0112250Y0104802D01*
X0112371Y0104907D01*
X0112495Y0105010D01*
X0112621Y0105110D01*
X0112749Y0105206D01*
X0112880Y0105299D01*
X0113014Y0105389D01*
X0113149Y0105476D01*
X0113287Y0105559D01*
X0113426Y0105639D01*
X0113568Y0105715D01*
X0113711Y0105788D01*
X0113856Y0105857D01*
X0114003Y0105923D01*
X0114151Y0105985D01*
X0114301Y0106043D01*
X0114452Y0106098D01*
X0114605Y0106149D01*
X0114759Y0106196D01*
X0114914Y0106239D01*
X0115070Y0106278D01*
X0115226Y0106314D01*
X0115384Y0106345D01*
X0115542Y0106373D01*
X0115701Y0106397D01*
X0115861Y0106417D01*
X0116021Y0106433D01*
X0116181Y0106445D01*
X0116342Y0106453D01*
X0116503Y0106457D01*
X0116663Y0106457D01*
X0116824Y0106453D01*
X0116985Y0106445D01*
X0117145Y0106433D01*
X0117305Y0106417D01*
X0117465Y0106397D01*
X0117624Y0106373D01*
X0117782Y0106345D01*
X0117940Y0106314D01*
X0118096Y0106278D01*
X0118252Y0106239D01*
X0118407Y0106196D01*
X0118561Y0106149D01*
X0118714Y0106098D01*
X0118865Y0106043D01*
X0119015Y0105985D01*
X0119163Y0105923D01*
X0119310Y0105857D01*
X0119455Y0105788D01*
X0119598Y0105715D01*
X0119740Y0105639D01*
X0119879Y0105559D01*
X0120017Y0105476D01*
X0120152Y0105389D01*
X0120286Y0105299D01*
X0120417Y0105206D01*
X0120545Y0105110D01*
X0120671Y0105010D01*
X0120795Y0104907D01*
X0120916Y0104802D01*
X0121035Y0104693D01*
X0121151Y0104582D01*
X0121264Y0104467D01*
X0121374Y0104350D01*
X0121481Y0104230D01*
X0121585Y0104108D01*
X0121686Y0103983D01*
X0121784Y0103855D01*
X0121879Y0103725D01*
X0121971Y0103593D01*
X0122059Y0103459D01*
X0122144Y0103322D01*
X0122226Y0103184D01*
X0122304Y0103043D01*
X0122378Y0102901D01*
X0122449Y0102757D01*
X0122517Y0102611D01*
X0122580Y0102463D01*
X0122641Y0102314D01*
X0122697Y0102163D01*
X0122750Y0102011D01*
X0122799Y0101858D01*
X0122844Y0101704D01*
X0122885Y0101549D01*
X0122923Y0101392D01*
X0122956Y0101235D01*
X0122986Y0101077D01*
X0123012Y0100918D01*
X0123033Y0100759D01*
X0123051Y0100599D01*
X0123065Y0100439D01*
X0123075Y0100278D01*
X0123081Y0100118D01*
X0123083Y0099957D01*
X0123081Y0099796D01*
X0123075Y0099636D01*
X0123065Y0099475D01*
X0123051Y0099315D01*
X0123033Y0099155D01*
X0123012Y0098996D01*
X0122986Y0098837D01*
X0122956Y0098679D01*
X0122923Y0098522D01*
X0122885Y0098365D01*
X0122844Y0098210D01*
X0122799Y0098056D01*
X0122750Y0097903D01*
X0122697Y0097751D01*
X0122641Y0097600D01*
X0122580Y0097451D01*
X0122517Y0097303D01*
X0122449Y0097157D01*
X0122378Y0097013D01*
X0122304Y0096871D01*
X0122226Y0096730D01*
X0122144Y0096592D01*
X0122059Y0096455D01*
X0121971Y0096321D01*
X0121879Y0096189D01*
X0121784Y0096059D01*
X0121686Y0095931D01*
X0121585Y0095806D01*
X0121481Y0095684D01*
X0121374Y0095564D01*
X0121264Y0095447D01*
X0121151Y0095332D01*
X0121035Y0095221D01*
X0120916Y0095112D01*
X0120795Y0095007D01*
X0120671Y0094904D01*
X0120545Y0094804D01*
X0120417Y0094708D01*
X0120286Y0094615D01*
X0120152Y0094525D01*
X0120017Y0094438D01*
X0119879Y0094355D01*
X0119740Y0094275D01*
X0119598Y0094199D01*
X0119455Y0094126D01*
X0119310Y0094057D01*
X0119163Y0093991D01*
X0119015Y0093929D01*
X0118865Y0093871D01*
X0118714Y0093816D01*
X0118561Y0093765D01*
X0118407Y0093718D01*
X0118252Y0093675D01*
X0118096Y0093636D01*
X0117940Y0093600D01*
X0117782Y0093569D01*
X0117624Y0093541D01*
X0117465Y0093517D01*
X0117305Y0093497D01*
X0117145Y0093481D01*
X0116985Y0093469D01*
X0116824Y0093461D01*
X0116663Y0093457D01*
X0116503Y0093457D01*
X0116342Y0093461D01*
X0116181Y0093469D01*
X0116021Y0093481D01*
X0115861Y0093497D01*
X0115701Y0093517D01*
X0115542Y0093541D01*
X0115384Y0093569D01*
X0115226Y0093600D01*
X0115070Y0093636D01*
X0114914Y0093675D01*
X0114759Y0093718D01*
X0114605Y0093765D01*
X0114452Y0093816D01*
X0114301Y0093871D01*
X0114151Y0093929D01*
X0114003Y0093991D01*
X0113856Y0094057D01*
X0113711Y0094126D01*
X0113568Y0094199D01*
X0113426Y0094275D01*
X0113287Y0094355D01*
X0113149Y0094438D01*
X0113014Y0094525D01*
X0112880Y0094615D01*
X0112749Y0094708D01*
X0112621Y0094804D01*
X0112495Y0094904D01*
X0112371Y0095007D01*
X0112250Y0095112D01*
X0112131Y0095221D01*
X0112015Y0095332D01*
X0111902Y0095447D01*
X0111792Y0095564D01*
X0111685Y0095684D01*
X0111581Y0095806D01*
X0111480Y0095931D01*
X0111382Y0096059D01*
X0111287Y0096189D01*
X0111195Y0096321D01*
X0111107Y0096455D01*
X0111022Y0096592D01*
X0110940Y0096730D01*
X0110862Y0096871D01*
X0110788Y0097013D01*
X0110717Y0097157D01*
X0110649Y0097303D01*
X0110586Y0097451D01*
X0110525Y0097600D01*
X0110469Y0097751D01*
X0110416Y0097903D01*
X0110367Y0098056D01*
X0110322Y0098210D01*
X0110281Y0098365D01*
X0110243Y0098522D01*
X0110210Y0098679D01*
X0110180Y0098837D01*
X0110154Y0098996D01*
X0110133Y0099155D01*
X0110115Y0099315D01*
X0110101Y0099475D01*
X0110091Y0099636D01*
X0110085Y0099796D01*
X0110083Y0099957D01*
X0180949Y0052713D02*
X0180951Y0052874D01*
X0180957Y0053034D01*
X0180967Y0053195D01*
X0180981Y0053355D01*
X0180999Y0053515D01*
X0181020Y0053674D01*
X0181046Y0053833D01*
X0181076Y0053991D01*
X0181109Y0054148D01*
X0181147Y0054305D01*
X0181188Y0054460D01*
X0181233Y0054614D01*
X0181282Y0054767D01*
X0181335Y0054919D01*
X0181391Y0055070D01*
X0181452Y0055219D01*
X0181515Y0055367D01*
X0181583Y0055513D01*
X0181654Y0055657D01*
X0181728Y0055799D01*
X0181806Y0055940D01*
X0181888Y0056078D01*
X0181973Y0056215D01*
X0182061Y0056349D01*
X0182153Y0056481D01*
X0182248Y0056611D01*
X0182346Y0056739D01*
X0182447Y0056864D01*
X0182551Y0056986D01*
X0182658Y0057106D01*
X0182768Y0057223D01*
X0182881Y0057338D01*
X0182997Y0057449D01*
X0183116Y0057558D01*
X0183237Y0057663D01*
X0183361Y0057766D01*
X0183487Y0057866D01*
X0183615Y0057962D01*
X0183746Y0058055D01*
X0183880Y0058145D01*
X0184015Y0058232D01*
X0184153Y0058315D01*
X0184292Y0058395D01*
X0184434Y0058471D01*
X0184577Y0058544D01*
X0184722Y0058613D01*
X0184869Y0058679D01*
X0185017Y0058741D01*
X0185167Y0058799D01*
X0185318Y0058854D01*
X0185471Y0058905D01*
X0185625Y0058952D01*
X0185780Y0058995D01*
X0185936Y0059034D01*
X0186092Y0059070D01*
X0186250Y0059101D01*
X0186408Y0059129D01*
X0186567Y0059153D01*
X0186727Y0059173D01*
X0186887Y0059189D01*
X0187047Y0059201D01*
X0187208Y0059209D01*
X0187369Y0059213D01*
X0187529Y0059213D01*
X0187690Y0059209D01*
X0187851Y0059201D01*
X0188011Y0059189D01*
X0188171Y0059173D01*
X0188331Y0059153D01*
X0188490Y0059129D01*
X0188648Y0059101D01*
X0188806Y0059070D01*
X0188962Y0059034D01*
X0189118Y0058995D01*
X0189273Y0058952D01*
X0189427Y0058905D01*
X0189580Y0058854D01*
X0189731Y0058799D01*
X0189881Y0058741D01*
X0190029Y0058679D01*
X0190176Y0058613D01*
X0190321Y0058544D01*
X0190464Y0058471D01*
X0190606Y0058395D01*
X0190745Y0058315D01*
X0190883Y0058232D01*
X0191018Y0058145D01*
X0191152Y0058055D01*
X0191283Y0057962D01*
X0191411Y0057866D01*
X0191537Y0057766D01*
X0191661Y0057663D01*
X0191782Y0057558D01*
X0191901Y0057449D01*
X0192017Y0057338D01*
X0192130Y0057223D01*
X0192240Y0057106D01*
X0192347Y0056986D01*
X0192451Y0056864D01*
X0192552Y0056739D01*
X0192650Y0056611D01*
X0192745Y0056481D01*
X0192837Y0056349D01*
X0192925Y0056215D01*
X0193010Y0056078D01*
X0193092Y0055940D01*
X0193170Y0055799D01*
X0193244Y0055657D01*
X0193315Y0055513D01*
X0193383Y0055367D01*
X0193446Y0055219D01*
X0193507Y0055070D01*
X0193563Y0054919D01*
X0193616Y0054767D01*
X0193665Y0054614D01*
X0193710Y0054460D01*
X0193751Y0054305D01*
X0193789Y0054148D01*
X0193822Y0053991D01*
X0193852Y0053833D01*
X0193878Y0053674D01*
X0193899Y0053515D01*
X0193917Y0053355D01*
X0193931Y0053195D01*
X0193941Y0053034D01*
X0193947Y0052874D01*
X0193949Y0052713D01*
X0193947Y0052552D01*
X0193941Y0052392D01*
X0193931Y0052231D01*
X0193917Y0052071D01*
X0193899Y0051911D01*
X0193878Y0051752D01*
X0193852Y0051593D01*
X0193822Y0051435D01*
X0193789Y0051278D01*
X0193751Y0051121D01*
X0193710Y0050966D01*
X0193665Y0050812D01*
X0193616Y0050659D01*
X0193563Y0050507D01*
X0193507Y0050356D01*
X0193446Y0050207D01*
X0193383Y0050059D01*
X0193315Y0049913D01*
X0193244Y0049769D01*
X0193170Y0049627D01*
X0193092Y0049486D01*
X0193010Y0049348D01*
X0192925Y0049211D01*
X0192837Y0049077D01*
X0192745Y0048945D01*
X0192650Y0048815D01*
X0192552Y0048687D01*
X0192451Y0048562D01*
X0192347Y0048440D01*
X0192240Y0048320D01*
X0192130Y0048203D01*
X0192017Y0048088D01*
X0191901Y0047977D01*
X0191782Y0047868D01*
X0191661Y0047763D01*
X0191537Y0047660D01*
X0191411Y0047560D01*
X0191283Y0047464D01*
X0191152Y0047371D01*
X0191018Y0047281D01*
X0190883Y0047194D01*
X0190745Y0047111D01*
X0190606Y0047031D01*
X0190464Y0046955D01*
X0190321Y0046882D01*
X0190176Y0046813D01*
X0190029Y0046747D01*
X0189881Y0046685D01*
X0189731Y0046627D01*
X0189580Y0046572D01*
X0189427Y0046521D01*
X0189273Y0046474D01*
X0189118Y0046431D01*
X0188962Y0046392D01*
X0188806Y0046356D01*
X0188648Y0046325D01*
X0188490Y0046297D01*
X0188331Y0046273D01*
X0188171Y0046253D01*
X0188011Y0046237D01*
X0187851Y0046225D01*
X0187690Y0046217D01*
X0187529Y0046213D01*
X0187369Y0046213D01*
X0187208Y0046217D01*
X0187047Y0046225D01*
X0186887Y0046237D01*
X0186727Y0046253D01*
X0186567Y0046273D01*
X0186408Y0046297D01*
X0186250Y0046325D01*
X0186092Y0046356D01*
X0185936Y0046392D01*
X0185780Y0046431D01*
X0185625Y0046474D01*
X0185471Y0046521D01*
X0185318Y0046572D01*
X0185167Y0046627D01*
X0185017Y0046685D01*
X0184869Y0046747D01*
X0184722Y0046813D01*
X0184577Y0046882D01*
X0184434Y0046955D01*
X0184292Y0047031D01*
X0184153Y0047111D01*
X0184015Y0047194D01*
X0183880Y0047281D01*
X0183746Y0047371D01*
X0183615Y0047464D01*
X0183487Y0047560D01*
X0183361Y0047660D01*
X0183237Y0047763D01*
X0183116Y0047868D01*
X0182997Y0047977D01*
X0182881Y0048088D01*
X0182768Y0048203D01*
X0182658Y0048320D01*
X0182551Y0048440D01*
X0182447Y0048562D01*
X0182346Y0048687D01*
X0182248Y0048815D01*
X0182153Y0048945D01*
X0182061Y0049077D01*
X0181973Y0049211D01*
X0181888Y0049348D01*
X0181806Y0049486D01*
X0181728Y0049627D01*
X0181654Y0049769D01*
X0181583Y0049913D01*
X0181515Y0050059D01*
X0181452Y0050207D01*
X0181391Y0050356D01*
X0181335Y0050507D01*
X0181282Y0050659D01*
X0181233Y0050812D01*
X0181188Y0050966D01*
X0181147Y0051121D01*
X0181109Y0051278D01*
X0181076Y0051435D01*
X0181046Y0051593D01*
X0181020Y0051752D01*
X0180999Y0051911D01*
X0180981Y0052071D01*
X0180967Y0052231D01*
X0180957Y0052392D01*
X0180951Y0052552D01*
X0180949Y0052713D01*
X0220319Y0086177D02*
X0220321Y0086338D01*
X0220327Y0086498D01*
X0220337Y0086659D01*
X0220351Y0086819D01*
X0220369Y0086979D01*
X0220390Y0087138D01*
X0220416Y0087297D01*
X0220446Y0087455D01*
X0220479Y0087612D01*
X0220517Y0087769D01*
X0220558Y0087924D01*
X0220603Y0088078D01*
X0220652Y0088231D01*
X0220705Y0088383D01*
X0220761Y0088534D01*
X0220822Y0088683D01*
X0220885Y0088831D01*
X0220953Y0088977D01*
X0221024Y0089121D01*
X0221098Y0089263D01*
X0221176Y0089404D01*
X0221258Y0089542D01*
X0221343Y0089679D01*
X0221431Y0089813D01*
X0221523Y0089945D01*
X0221618Y0090075D01*
X0221716Y0090203D01*
X0221817Y0090328D01*
X0221921Y0090450D01*
X0222028Y0090570D01*
X0222138Y0090687D01*
X0222251Y0090802D01*
X0222367Y0090913D01*
X0222486Y0091022D01*
X0222607Y0091127D01*
X0222731Y0091230D01*
X0222857Y0091330D01*
X0222985Y0091426D01*
X0223116Y0091519D01*
X0223250Y0091609D01*
X0223385Y0091696D01*
X0223523Y0091779D01*
X0223662Y0091859D01*
X0223804Y0091935D01*
X0223947Y0092008D01*
X0224092Y0092077D01*
X0224239Y0092143D01*
X0224387Y0092205D01*
X0224537Y0092263D01*
X0224688Y0092318D01*
X0224841Y0092369D01*
X0224995Y0092416D01*
X0225150Y0092459D01*
X0225306Y0092498D01*
X0225462Y0092534D01*
X0225620Y0092565D01*
X0225778Y0092593D01*
X0225937Y0092617D01*
X0226097Y0092637D01*
X0226257Y0092653D01*
X0226417Y0092665D01*
X0226578Y0092673D01*
X0226739Y0092677D01*
X0226899Y0092677D01*
X0227060Y0092673D01*
X0227221Y0092665D01*
X0227381Y0092653D01*
X0227541Y0092637D01*
X0227701Y0092617D01*
X0227860Y0092593D01*
X0228018Y0092565D01*
X0228176Y0092534D01*
X0228332Y0092498D01*
X0228488Y0092459D01*
X0228643Y0092416D01*
X0228797Y0092369D01*
X0228950Y0092318D01*
X0229101Y0092263D01*
X0229251Y0092205D01*
X0229399Y0092143D01*
X0229546Y0092077D01*
X0229691Y0092008D01*
X0229834Y0091935D01*
X0229976Y0091859D01*
X0230115Y0091779D01*
X0230253Y0091696D01*
X0230388Y0091609D01*
X0230522Y0091519D01*
X0230653Y0091426D01*
X0230781Y0091330D01*
X0230907Y0091230D01*
X0231031Y0091127D01*
X0231152Y0091022D01*
X0231271Y0090913D01*
X0231387Y0090802D01*
X0231500Y0090687D01*
X0231610Y0090570D01*
X0231717Y0090450D01*
X0231821Y0090328D01*
X0231922Y0090203D01*
X0232020Y0090075D01*
X0232115Y0089945D01*
X0232207Y0089813D01*
X0232295Y0089679D01*
X0232380Y0089542D01*
X0232462Y0089404D01*
X0232540Y0089263D01*
X0232614Y0089121D01*
X0232685Y0088977D01*
X0232753Y0088831D01*
X0232816Y0088683D01*
X0232877Y0088534D01*
X0232933Y0088383D01*
X0232986Y0088231D01*
X0233035Y0088078D01*
X0233080Y0087924D01*
X0233121Y0087769D01*
X0233159Y0087612D01*
X0233192Y0087455D01*
X0233222Y0087297D01*
X0233248Y0087138D01*
X0233269Y0086979D01*
X0233287Y0086819D01*
X0233301Y0086659D01*
X0233311Y0086498D01*
X0233317Y0086338D01*
X0233319Y0086177D01*
X0233317Y0086016D01*
X0233311Y0085856D01*
X0233301Y0085695D01*
X0233287Y0085535D01*
X0233269Y0085375D01*
X0233248Y0085216D01*
X0233222Y0085057D01*
X0233192Y0084899D01*
X0233159Y0084742D01*
X0233121Y0084585D01*
X0233080Y0084430D01*
X0233035Y0084276D01*
X0232986Y0084123D01*
X0232933Y0083971D01*
X0232877Y0083820D01*
X0232816Y0083671D01*
X0232753Y0083523D01*
X0232685Y0083377D01*
X0232614Y0083233D01*
X0232540Y0083091D01*
X0232462Y0082950D01*
X0232380Y0082812D01*
X0232295Y0082675D01*
X0232207Y0082541D01*
X0232115Y0082409D01*
X0232020Y0082279D01*
X0231922Y0082151D01*
X0231821Y0082026D01*
X0231717Y0081904D01*
X0231610Y0081784D01*
X0231500Y0081667D01*
X0231387Y0081552D01*
X0231271Y0081441D01*
X0231152Y0081332D01*
X0231031Y0081227D01*
X0230907Y0081124D01*
X0230781Y0081024D01*
X0230653Y0080928D01*
X0230522Y0080835D01*
X0230388Y0080745D01*
X0230253Y0080658D01*
X0230115Y0080575D01*
X0229976Y0080495D01*
X0229834Y0080419D01*
X0229691Y0080346D01*
X0229546Y0080277D01*
X0229399Y0080211D01*
X0229251Y0080149D01*
X0229101Y0080091D01*
X0228950Y0080036D01*
X0228797Y0079985D01*
X0228643Y0079938D01*
X0228488Y0079895D01*
X0228332Y0079856D01*
X0228176Y0079820D01*
X0228018Y0079789D01*
X0227860Y0079761D01*
X0227701Y0079737D01*
X0227541Y0079717D01*
X0227381Y0079701D01*
X0227221Y0079689D01*
X0227060Y0079681D01*
X0226899Y0079677D01*
X0226739Y0079677D01*
X0226578Y0079681D01*
X0226417Y0079689D01*
X0226257Y0079701D01*
X0226097Y0079717D01*
X0225937Y0079737D01*
X0225778Y0079761D01*
X0225620Y0079789D01*
X0225462Y0079820D01*
X0225306Y0079856D01*
X0225150Y0079895D01*
X0224995Y0079938D01*
X0224841Y0079985D01*
X0224688Y0080036D01*
X0224537Y0080091D01*
X0224387Y0080149D01*
X0224239Y0080211D01*
X0224092Y0080277D01*
X0223947Y0080346D01*
X0223804Y0080419D01*
X0223662Y0080495D01*
X0223523Y0080575D01*
X0223385Y0080658D01*
X0223250Y0080745D01*
X0223116Y0080835D01*
X0222985Y0080928D01*
X0222857Y0081024D01*
X0222731Y0081124D01*
X0222607Y0081227D01*
X0222486Y0081332D01*
X0222367Y0081441D01*
X0222251Y0081552D01*
X0222138Y0081667D01*
X0222028Y0081784D01*
X0221921Y0081904D01*
X0221817Y0082026D01*
X0221716Y0082151D01*
X0221618Y0082279D01*
X0221523Y0082409D01*
X0221431Y0082541D01*
X0221343Y0082675D01*
X0221258Y0082812D01*
X0221176Y0082950D01*
X0221098Y0083091D01*
X0221024Y0083233D01*
X0220953Y0083377D01*
X0220885Y0083523D01*
X0220822Y0083671D01*
X0220761Y0083820D01*
X0220705Y0083971D01*
X0220652Y0084123D01*
X0220603Y0084276D01*
X0220558Y0084430D01*
X0220517Y0084585D01*
X0220479Y0084742D01*
X0220446Y0084899D01*
X0220416Y0085057D01*
X0220390Y0085216D01*
X0220369Y0085375D01*
X0220351Y0085535D01*
X0220337Y0085695D01*
X0220327Y0085856D01*
X0220321Y0086016D01*
X0220319Y0086177D01*
X0208508Y0125547D02*
X0208510Y0125708D01*
X0208516Y0125868D01*
X0208526Y0126029D01*
X0208540Y0126189D01*
X0208558Y0126349D01*
X0208579Y0126508D01*
X0208605Y0126667D01*
X0208635Y0126825D01*
X0208668Y0126982D01*
X0208706Y0127139D01*
X0208747Y0127294D01*
X0208792Y0127448D01*
X0208841Y0127601D01*
X0208894Y0127753D01*
X0208950Y0127904D01*
X0209011Y0128053D01*
X0209074Y0128201D01*
X0209142Y0128347D01*
X0209213Y0128491D01*
X0209287Y0128633D01*
X0209365Y0128774D01*
X0209447Y0128912D01*
X0209532Y0129049D01*
X0209620Y0129183D01*
X0209712Y0129315D01*
X0209807Y0129445D01*
X0209905Y0129573D01*
X0210006Y0129698D01*
X0210110Y0129820D01*
X0210217Y0129940D01*
X0210327Y0130057D01*
X0210440Y0130172D01*
X0210556Y0130283D01*
X0210675Y0130392D01*
X0210796Y0130497D01*
X0210920Y0130600D01*
X0211046Y0130700D01*
X0211174Y0130796D01*
X0211305Y0130889D01*
X0211439Y0130979D01*
X0211574Y0131066D01*
X0211712Y0131149D01*
X0211851Y0131229D01*
X0211993Y0131305D01*
X0212136Y0131378D01*
X0212281Y0131447D01*
X0212428Y0131513D01*
X0212576Y0131575D01*
X0212726Y0131633D01*
X0212877Y0131688D01*
X0213030Y0131739D01*
X0213184Y0131786D01*
X0213339Y0131829D01*
X0213495Y0131868D01*
X0213651Y0131904D01*
X0213809Y0131935D01*
X0213967Y0131963D01*
X0214126Y0131987D01*
X0214286Y0132007D01*
X0214446Y0132023D01*
X0214606Y0132035D01*
X0214767Y0132043D01*
X0214928Y0132047D01*
X0215088Y0132047D01*
X0215249Y0132043D01*
X0215410Y0132035D01*
X0215570Y0132023D01*
X0215730Y0132007D01*
X0215890Y0131987D01*
X0216049Y0131963D01*
X0216207Y0131935D01*
X0216365Y0131904D01*
X0216521Y0131868D01*
X0216677Y0131829D01*
X0216832Y0131786D01*
X0216986Y0131739D01*
X0217139Y0131688D01*
X0217290Y0131633D01*
X0217440Y0131575D01*
X0217588Y0131513D01*
X0217735Y0131447D01*
X0217880Y0131378D01*
X0218023Y0131305D01*
X0218165Y0131229D01*
X0218304Y0131149D01*
X0218442Y0131066D01*
X0218577Y0130979D01*
X0218711Y0130889D01*
X0218842Y0130796D01*
X0218970Y0130700D01*
X0219096Y0130600D01*
X0219220Y0130497D01*
X0219341Y0130392D01*
X0219460Y0130283D01*
X0219576Y0130172D01*
X0219689Y0130057D01*
X0219799Y0129940D01*
X0219906Y0129820D01*
X0220010Y0129698D01*
X0220111Y0129573D01*
X0220209Y0129445D01*
X0220304Y0129315D01*
X0220396Y0129183D01*
X0220484Y0129049D01*
X0220569Y0128912D01*
X0220651Y0128774D01*
X0220729Y0128633D01*
X0220803Y0128491D01*
X0220874Y0128347D01*
X0220942Y0128201D01*
X0221005Y0128053D01*
X0221066Y0127904D01*
X0221122Y0127753D01*
X0221175Y0127601D01*
X0221224Y0127448D01*
X0221269Y0127294D01*
X0221310Y0127139D01*
X0221348Y0126982D01*
X0221381Y0126825D01*
X0221411Y0126667D01*
X0221437Y0126508D01*
X0221458Y0126349D01*
X0221476Y0126189D01*
X0221490Y0126029D01*
X0221500Y0125868D01*
X0221506Y0125708D01*
X0221508Y0125547D01*
X0221506Y0125386D01*
X0221500Y0125226D01*
X0221490Y0125065D01*
X0221476Y0124905D01*
X0221458Y0124745D01*
X0221437Y0124586D01*
X0221411Y0124427D01*
X0221381Y0124269D01*
X0221348Y0124112D01*
X0221310Y0123955D01*
X0221269Y0123800D01*
X0221224Y0123646D01*
X0221175Y0123493D01*
X0221122Y0123341D01*
X0221066Y0123190D01*
X0221005Y0123041D01*
X0220942Y0122893D01*
X0220874Y0122747D01*
X0220803Y0122603D01*
X0220729Y0122461D01*
X0220651Y0122320D01*
X0220569Y0122182D01*
X0220484Y0122045D01*
X0220396Y0121911D01*
X0220304Y0121779D01*
X0220209Y0121649D01*
X0220111Y0121521D01*
X0220010Y0121396D01*
X0219906Y0121274D01*
X0219799Y0121154D01*
X0219689Y0121037D01*
X0219576Y0120922D01*
X0219460Y0120811D01*
X0219341Y0120702D01*
X0219220Y0120597D01*
X0219096Y0120494D01*
X0218970Y0120394D01*
X0218842Y0120298D01*
X0218711Y0120205D01*
X0218577Y0120115D01*
X0218442Y0120028D01*
X0218304Y0119945D01*
X0218165Y0119865D01*
X0218023Y0119789D01*
X0217880Y0119716D01*
X0217735Y0119647D01*
X0217588Y0119581D01*
X0217440Y0119519D01*
X0217290Y0119461D01*
X0217139Y0119406D01*
X0216986Y0119355D01*
X0216832Y0119308D01*
X0216677Y0119265D01*
X0216521Y0119226D01*
X0216365Y0119190D01*
X0216207Y0119159D01*
X0216049Y0119131D01*
X0215890Y0119107D01*
X0215730Y0119087D01*
X0215570Y0119071D01*
X0215410Y0119059D01*
X0215249Y0119051D01*
X0215088Y0119047D01*
X0214928Y0119047D01*
X0214767Y0119051D01*
X0214606Y0119059D01*
X0214446Y0119071D01*
X0214286Y0119087D01*
X0214126Y0119107D01*
X0213967Y0119131D01*
X0213809Y0119159D01*
X0213651Y0119190D01*
X0213495Y0119226D01*
X0213339Y0119265D01*
X0213184Y0119308D01*
X0213030Y0119355D01*
X0212877Y0119406D01*
X0212726Y0119461D01*
X0212576Y0119519D01*
X0212428Y0119581D01*
X0212281Y0119647D01*
X0212136Y0119716D01*
X0211993Y0119789D01*
X0211851Y0119865D01*
X0211712Y0119945D01*
X0211574Y0120028D01*
X0211439Y0120115D01*
X0211305Y0120205D01*
X0211174Y0120298D01*
X0211046Y0120394D01*
X0210920Y0120494D01*
X0210796Y0120597D01*
X0210675Y0120702D01*
X0210556Y0120811D01*
X0210440Y0120922D01*
X0210327Y0121037D01*
X0210217Y0121154D01*
X0210110Y0121274D01*
X0210006Y0121396D01*
X0209905Y0121521D01*
X0209807Y0121649D01*
X0209712Y0121779D01*
X0209620Y0121911D01*
X0209532Y0122045D01*
X0209447Y0122182D01*
X0209365Y0122320D01*
X0209287Y0122461D01*
X0209213Y0122603D01*
X0209142Y0122747D01*
X0209074Y0122893D01*
X0209011Y0123041D01*
X0208950Y0123190D01*
X0208894Y0123341D01*
X0208841Y0123493D01*
X0208792Y0123646D01*
X0208747Y0123800D01*
X0208706Y0123955D01*
X0208668Y0124112D01*
X0208635Y0124269D01*
X0208605Y0124427D01*
X0208579Y0124586D01*
X0208558Y0124745D01*
X0208540Y0124905D01*
X0208526Y0125065D01*
X0208516Y0125226D01*
X0208510Y0125386D01*
X0208508Y0125547D01*
X0259689Y0082240D02*
X0259691Y0082401D01*
X0259697Y0082561D01*
X0259707Y0082722D01*
X0259721Y0082882D01*
X0259739Y0083042D01*
X0259760Y0083201D01*
X0259786Y0083360D01*
X0259816Y0083518D01*
X0259849Y0083675D01*
X0259887Y0083832D01*
X0259928Y0083987D01*
X0259973Y0084141D01*
X0260022Y0084294D01*
X0260075Y0084446D01*
X0260131Y0084597D01*
X0260192Y0084746D01*
X0260255Y0084894D01*
X0260323Y0085040D01*
X0260394Y0085184D01*
X0260468Y0085326D01*
X0260546Y0085467D01*
X0260628Y0085605D01*
X0260713Y0085742D01*
X0260801Y0085876D01*
X0260893Y0086008D01*
X0260988Y0086138D01*
X0261086Y0086266D01*
X0261187Y0086391D01*
X0261291Y0086513D01*
X0261398Y0086633D01*
X0261508Y0086750D01*
X0261621Y0086865D01*
X0261737Y0086976D01*
X0261856Y0087085D01*
X0261977Y0087190D01*
X0262101Y0087293D01*
X0262227Y0087393D01*
X0262355Y0087489D01*
X0262486Y0087582D01*
X0262620Y0087672D01*
X0262755Y0087759D01*
X0262893Y0087842D01*
X0263032Y0087922D01*
X0263174Y0087998D01*
X0263317Y0088071D01*
X0263462Y0088140D01*
X0263609Y0088206D01*
X0263757Y0088268D01*
X0263907Y0088326D01*
X0264058Y0088381D01*
X0264211Y0088432D01*
X0264365Y0088479D01*
X0264520Y0088522D01*
X0264676Y0088561D01*
X0264832Y0088597D01*
X0264990Y0088628D01*
X0265148Y0088656D01*
X0265307Y0088680D01*
X0265467Y0088700D01*
X0265627Y0088716D01*
X0265787Y0088728D01*
X0265948Y0088736D01*
X0266109Y0088740D01*
X0266269Y0088740D01*
X0266430Y0088736D01*
X0266591Y0088728D01*
X0266751Y0088716D01*
X0266911Y0088700D01*
X0267071Y0088680D01*
X0267230Y0088656D01*
X0267388Y0088628D01*
X0267546Y0088597D01*
X0267702Y0088561D01*
X0267858Y0088522D01*
X0268013Y0088479D01*
X0268167Y0088432D01*
X0268320Y0088381D01*
X0268471Y0088326D01*
X0268621Y0088268D01*
X0268769Y0088206D01*
X0268916Y0088140D01*
X0269061Y0088071D01*
X0269204Y0087998D01*
X0269346Y0087922D01*
X0269485Y0087842D01*
X0269623Y0087759D01*
X0269758Y0087672D01*
X0269892Y0087582D01*
X0270023Y0087489D01*
X0270151Y0087393D01*
X0270277Y0087293D01*
X0270401Y0087190D01*
X0270522Y0087085D01*
X0270641Y0086976D01*
X0270757Y0086865D01*
X0270870Y0086750D01*
X0270980Y0086633D01*
X0271087Y0086513D01*
X0271191Y0086391D01*
X0271292Y0086266D01*
X0271390Y0086138D01*
X0271485Y0086008D01*
X0271577Y0085876D01*
X0271665Y0085742D01*
X0271750Y0085605D01*
X0271832Y0085467D01*
X0271910Y0085326D01*
X0271984Y0085184D01*
X0272055Y0085040D01*
X0272123Y0084894D01*
X0272186Y0084746D01*
X0272247Y0084597D01*
X0272303Y0084446D01*
X0272356Y0084294D01*
X0272405Y0084141D01*
X0272450Y0083987D01*
X0272491Y0083832D01*
X0272529Y0083675D01*
X0272562Y0083518D01*
X0272592Y0083360D01*
X0272618Y0083201D01*
X0272639Y0083042D01*
X0272657Y0082882D01*
X0272671Y0082722D01*
X0272681Y0082561D01*
X0272687Y0082401D01*
X0272689Y0082240D01*
X0272687Y0082079D01*
X0272681Y0081919D01*
X0272671Y0081758D01*
X0272657Y0081598D01*
X0272639Y0081438D01*
X0272618Y0081279D01*
X0272592Y0081120D01*
X0272562Y0080962D01*
X0272529Y0080805D01*
X0272491Y0080648D01*
X0272450Y0080493D01*
X0272405Y0080339D01*
X0272356Y0080186D01*
X0272303Y0080034D01*
X0272247Y0079883D01*
X0272186Y0079734D01*
X0272123Y0079586D01*
X0272055Y0079440D01*
X0271984Y0079296D01*
X0271910Y0079154D01*
X0271832Y0079013D01*
X0271750Y0078875D01*
X0271665Y0078738D01*
X0271577Y0078604D01*
X0271485Y0078472D01*
X0271390Y0078342D01*
X0271292Y0078214D01*
X0271191Y0078089D01*
X0271087Y0077967D01*
X0270980Y0077847D01*
X0270870Y0077730D01*
X0270757Y0077615D01*
X0270641Y0077504D01*
X0270522Y0077395D01*
X0270401Y0077290D01*
X0270277Y0077187D01*
X0270151Y0077087D01*
X0270023Y0076991D01*
X0269892Y0076898D01*
X0269758Y0076808D01*
X0269623Y0076721D01*
X0269485Y0076638D01*
X0269346Y0076558D01*
X0269204Y0076482D01*
X0269061Y0076409D01*
X0268916Y0076340D01*
X0268769Y0076274D01*
X0268621Y0076212D01*
X0268471Y0076154D01*
X0268320Y0076099D01*
X0268167Y0076048D01*
X0268013Y0076001D01*
X0267858Y0075958D01*
X0267702Y0075919D01*
X0267546Y0075883D01*
X0267388Y0075852D01*
X0267230Y0075824D01*
X0267071Y0075800D01*
X0266911Y0075780D01*
X0266751Y0075764D01*
X0266591Y0075752D01*
X0266430Y0075744D01*
X0266269Y0075740D01*
X0266109Y0075740D01*
X0265948Y0075744D01*
X0265787Y0075752D01*
X0265627Y0075764D01*
X0265467Y0075780D01*
X0265307Y0075800D01*
X0265148Y0075824D01*
X0264990Y0075852D01*
X0264832Y0075883D01*
X0264676Y0075919D01*
X0264520Y0075958D01*
X0264365Y0076001D01*
X0264211Y0076048D01*
X0264058Y0076099D01*
X0263907Y0076154D01*
X0263757Y0076212D01*
X0263609Y0076274D01*
X0263462Y0076340D01*
X0263317Y0076409D01*
X0263174Y0076482D01*
X0263032Y0076558D01*
X0262893Y0076638D01*
X0262755Y0076721D01*
X0262620Y0076808D01*
X0262486Y0076898D01*
X0262355Y0076991D01*
X0262227Y0077087D01*
X0262101Y0077187D01*
X0261977Y0077290D01*
X0261856Y0077395D01*
X0261737Y0077504D01*
X0261621Y0077615D01*
X0261508Y0077730D01*
X0261398Y0077847D01*
X0261291Y0077967D01*
X0261187Y0078089D01*
X0261086Y0078214D01*
X0260988Y0078342D01*
X0260893Y0078472D01*
X0260801Y0078604D01*
X0260713Y0078738D01*
X0260628Y0078875D01*
X0260546Y0079013D01*
X0260468Y0079154D01*
X0260394Y0079296D01*
X0260323Y0079440D01*
X0260255Y0079586D01*
X0260192Y0079734D01*
X0260131Y0079883D01*
X0260075Y0080034D01*
X0260022Y0080186D01*
X0259973Y0080339D01*
X0259928Y0080493D01*
X0259887Y0080648D01*
X0259849Y0080805D01*
X0259816Y0080962D01*
X0259786Y0081120D01*
X0259760Y0081279D01*
X0259739Y0081438D01*
X0259721Y0081598D01*
X0259707Y0081758D01*
X0259697Y0081919D01*
X0259691Y0082079D01*
X0259689Y0082240D01*
X0259689Y0216098D02*
X0259691Y0216259D01*
X0259697Y0216419D01*
X0259707Y0216580D01*
X0259721Y0216740D01*
X0259739Y0216900D01*
X0259760Y0217059D01*
X0259786Y0217218D01*
X0259816Y0217376D01*
X0259849Y0217533D01*
X0259887Y0217690D01*
X0259928Y0217845D01*
X0259973Y0217999D01*
X0260022Y0218152D01*
X0260075Y0218304D01*
X0260131Y0218455D01*
X0260192Y0218604D01*
X0260255Y0218752D01*
X0260323Y0218898D01*
X0260394Y0219042D01*
X0260468Y0219184D01*
X0260546Y0219325D01*
X0260628Y0219463D01*
X0260713Y0219600D01*
X0260801Y0219734D01*
X0260893Y0219866D01*
X0260988Y0219996D01*
X0261086Y0220124D01*
X0261187Y0220249D01*
X0261291Y0220371D01*
X0261398Y0220491D01*
X0261508Y0220608D01*
X0261621Y0220723D01*
X0261737Y0220834D01*
X0261856Y0220943D01*
X0261977Y0221048D01*
X0262101Y0221151D01*
X0262227Y0221251D01*
X0262355Y0221347D01*
X0262486Y0221440D01*
X0262620Y0221530D01*
X0262755Y0221617D01*
X0262893Y0221700D01*
X0263032Y0221780D01*
X0263174Y0221856D01*
X0263317Y0221929D01*
X0263462Y0221998D01*
X0263609Y0222064D01*
X0263757Y0222126D01*
X0263907Y0222184D01*
X0264058Y0222239D01*
X0264211Y0222290D01*
X0264365Y0222337D01*
X0264520Y0222380D01*
X0264676Y0222419D01*
X0264832Y0222455D01*
X0264990Y0222486D01*
X0265148Y0222514D01*
X0265307Y0222538D01*
X0265467Y0222558D01*
X0265627Y0222574D01*
X0265787Y0222586D01*
X0265948Y0222594D01*
X0266109Y0222598D01*
X0266269Y0222598D01*
X0266430Y0222594D01*
X0266591Y0222586D01*
X0266751Y0222574D01*
X0266911Y0222558D01*
X0267071Y0222538D01*
X0267230Y0222514D01*
X0267388Y0222486D01*
X0267546Y0222455D01*
X0267702Y0222419D01*
X0267858Y0222380D01*
X0268013Y0222337D01*
X0268167Y0222290D01*
X0268320Y0222239D01*
X0268471Y0222184D01*
X0268621Y0222126D01*
X0268769Y0222064D01*
X0268916Y0221998D01*
X0269061Y0221929D01*
X0269204Y0221856D01*
X0269346Y0221780D01*
X0269485Y0221700D01*
X0269623Y0221617D01*
X0269758Y0221530D01*
X0269892Y0221440D01*
X0270023Y0221347D01*
X0270151Y0221251D01*
X0270277Y0221151D01*
X0270401Y0221048D01*
X0270522Y0220943D01*
X0270641Y0220834D01*
X0270757Y0220723D01*
X0270870Y0220608D01*
X0270980Y0220491D01*
X0271087Y0220371D01*
X0271191Y0220249D01*
X0271292Y0220124D01*
X0271390Y0219996D01*
X0271485Y0219866D01*
X0271577Y0219734D01*
X0271665Y0219600D01*
X0271750Y0219463D01*
X0271832Y0219325D01*
X0271910Y0219184D01*
X0271984Y0219042D01*
X0272055Y0218898D01*
X0272123Y0218752D01*
X0272186Y0218604D01*
X0272247Y0218455D01*
X0272303Y0218304D01*
X0272356Y0218152D01*
X0272405Y0217999D01*
X0272450Y0217845D01*
X0272491Y0217690D01*
X0272529Y0217533D01*
X0272562Y0217376D01*
X0272592Y0217218D01*
X0272618Y0217059D01*
X0272639Y0216900D01*
X0272657Y0216740D01*
X0272671Y0216580D01*
X0272681Y0216419D01*
X0272687Y0216259D01*
X0272689Y0216098D01*
X0272687Y0215937D01*
X0272681Y0215777D01*
X0272671Y0215616D01*
X0272657Y0215456D01*
X0272639Y0215296D01*
X0272618Y0215137D01*
X0272592Y0214978D01*
X0272562Y0214820D01*
X0272529Y0214663D01*
X0272491Y0214506D01*
X0272450Y0214351D01*
X0272405Y0214197D01*
X0272356Y0214044D01*
X0272303Y0213892D01*
X0272247Y0213741D01*
X0272186Y0213592D01*
X0272123Y0213444D01*
X0272055Y0213298D01*
X0271984Y0213154D01*
X0271910Y0213012D01*
X0271832Y0212871D01*
X0271750Y0212733D01*
X0271665Y0212596D01*
X0271577Y0212462D01*
X0271485Y0212330D01*
X0271390Y0212200D01*
X0271292Y0212072D01*
X0271191Y0211947D01*
X0271087Y0211825D01*
X0270980Y0211705D01*
X0270870Y0211588D01*
X0270757Y0211473D01*
X0270641Y0211362D01*
X0270522Y0211253D01*
X0270401Y0211148D01*
X0270277Y0211045D01*
X0270151Y0210945D01*
X0270023Y0210849D01*
X0269892Y0210756D01*
X0269758Y0210666D01*
X0269623Y0210579D01*
X0269485Y0210496D01*
X0269346Y0210416D01*
X0269204Y0210340D01*
X0269061Y0210267D01*
X0268916Y0210198D01*
X0268769Y0210132D01*
X0268621Y0210070D01*
X0268471Y0210012D01*
X0268320Y0209957D01*
X0268167Y0209906D01*
X0268013Y0209859D01*
X0267858Y0209816D01*
X0267702Y0209777D01*
X0267546Y0209741D01*
X0267388Y0209710D01*
X0267230Y0209682D01*
X0267071Y0209658D01*
X0266911Y0209638D01*
X0266751Y0209622D01*
X0266591Y0209610D01*
X0266430Y0209602D01*
X0266269Y0209598D01*
X0266109Y0209598D01*
X0265948Y0209602D01*
X0265787Y0209610D01*
X0265627Y0209622D01*
X0265467Y0209638D01*
X0265307Y0209658D01*
X0265148Y0209682D01*
X0264990Y0209710D01*
X0264832Y0209741D01*
X0264676Y0209777D01*
X0264520Y0209816D01*
X0264365Y0209859D01*
X0264211Y0209906D01*
X0264058Y0209957D01*
X0263907Y0210012D01*
X0263757Y0210070D01*
X0263609Y0210132D01*
X0263462Y0210198D01*
X0263317Y0210267D01*
X0263174Y0210340D01*
X0263032Y0210416D01*
X0262893Y0210496D01*
X0262755Y0210579D01*
X0262620Y0210666D01*
X0262486Y0210756D01*
X0262355Y0210849D01*
X0262227Y0210945D01*
X0262101Y0211045D01*
X0261977Y0211148D01*
X0261856Y0211253D01*
X0261737Y0211362D01*
X0261621Y0211473D01*
X0261508Y0211588D01*
X0261398Y0211705D01*
X0261291Y0211825D01*
X0261187Y0211947D01*
X0261086Y0212072D01*
X0260988Y0212200D01*
X0260893Y0212330D01*
X0260801Y0212462D01*
X0260713Y0212596D01*
X0260628Y0212733D01*
X0260546Y0212871D01*
X0260468Y0213012D01*
X0260394Y0213154D01*
X0260323Y0213298D01*
X0260255Y0213444D01*
X0260192Y0213592D01*
X0260131Y0213741D01*
X0260075Y0213892D01*
X0260022Y0214044D01*
X0259973Y0214197D01*
X0259928Y0214351D01*
X0259887Y0214506D01*
X0259849Y0214663D01*
X0259816Y0214820D01*
X0259786Y0214978D01*
X0259760Y0215137D01*
X0259739Y0215296D01*
X0259721Y0215456D01*
X0259707Y0215616D01*
X0259697Y0215777D01*
X0259691Y0215937D01*
X0259689Y0216098D01*
X0007720Y0216098D02*
X0007722Y0216259D01*
X0007728Y0216419D01*
X0007738Y0216580D01*
X0007752Y0216740D01*
X0007770Y0216900D01*
X0007791Y0217059D01*
X0007817Y0217218D01*
X0007847Y0217376D01*
X0007880Y0217533D01*
X0007918Y0217690D01*
X0007959Y0217845D01*
X0008004Y0217999D01*
X0008053Y0218152D01*
X0008106Y0218304D01*
X0008162Y0218455D01*
X0008223Y0218604D01*
X0008286Y0218752D01*
X0008354Y0218898D01*
X0008425Y0219042D01*
X0008499Y0219184D01*
X0008577Y0219325D01*
X0008659Y0219463D01*
X0008744Y0219600D01*
X0008832Y0219734D01*
X0008924Y0219866D01*
X0009019Y0219996D01*
X0009117Y0220124D01*
X0009218Y0220249D01*
X0009322Y0220371D01*
X0009429Y0220491D01*
X0009539Y0220608D01*
X0009652Y0220723D01*
X0009768Y0220834D01*
X0009887Y0220943D01*
X0010008Y0221048D01*
X0010132Y0221151D01*
X0010258Y0221251D01*
X0010386Y0221347D01*
X0010517Y0221440D01*
X0010651Y0221530D01*
X0010786Y0221617D01*
X0010924Y0221700D01*
X0011063Y0221780D01*
X0011205Y0221856D01*
X0011348Y0221929D01*
X0011493Y0221998D01*
X0011640Y0222064D01*
X0011788Y0222126D01*
X0011938Y0222184D01*
X0012089Y0222239D01*
X0012242Y0222290D01*
X0012396Y0222337D01*
X0012551Y0222380D01*
X0012707Y0222419D01*
X0012863Y0222455D01*
X0013021Y0222486D01*
X0013179Y0222514D01*
X0013338Y0222538D01*
X0013498Y0222558D01*
X0013658Y0222574D01*
X0013818Y0222586D01*
X0013979Y0222594D01*
X0014140Y0222598D01*
X0014300Y0222598D01*
X0014461Y0222594D01*
X0014622Y0222586D01*
X0014782Y0222574D01*
X0014942Y0222558D01*
X0015102Y0222538D01*
X0015261Y0222514D01*
X0015419Y0222486D01*
X0015577Y0222455D01*
X0015733Y0222419D01*
X0015889Y0222380D01*
X0016044Y0222337D01*
X0016198Y0222290D01*
X0016351Y0222239D01*
X0016502Y0222184D01*
X0016652Y0222126D01*
X0016800Y0222064D01*
X0016947Y0221998D01*
X0017092Y0221929D01*
X0017235Y0221856D01*
X0017377Y0221780D01*
X0017516Y0221700D01*
X0017654Y0221617D01*
X0017789Y0221530D01*
X0017923Y0221440D01*
X0018054Y0221347D01*
X0018182Y0221251D01*
X0018308Y0221151D01*
X0018432Y0221048D01*
X0018553Y0220943D01*
X0018672Y0220834D01*
X0018788Y0220723D01*
X0018901Y0220608D01*
X0019011Y0220491D01*
X0019118Y0220371D01*
X0019222Y0220249D01*
X0019323Y0220124D01*
X0019421Y0219996D01*
X0019516Y0219866D01*
X0019608Y0219734D01*
X0019696Y0219600D01*
X0019781Y0219463D01*
X0019863Y0219325D01*
X0019941Y0219184D01*
X0020015Y0219042D01*
X0020086Y0218898D01*
X0020154Y0218752D01*
X0020217Y0218604D01*
X0020278Y0218455D01*
X0020334Y0218304D01*
X0020387Y0218152D01*
X0020436Y0217999D01*
X0020481Y0217845D01*
X0020522Y0217690D01*
X0020560Y0217533D01*
X0020593Y0217376D01*
X0020623Y0217218D01*
X0020649Y0217059D01*
X0020670Y0216900D01*
X0020688Y0216740D01*
X0020702Y0216580D01*
X0020712Y0216419D01*
X0020718Y0216259D01*
X0020720Y0216098D01*
X0020718Y0215937D01*
X0020712Y0215777D01*
X0020702Y0215616D01*
X0020688Y0215456D01*
X0020670Y0215296D01*
X0020649Y0215137D01*
X0020623Y0214978D01*
X0020593Y0214820D01*
X0020560Y0214663D01*
X0020522Y0214506D01*
X0020481Y0214351D01*
X0020436Y0214197D01*
X0020387Y0214044D01*
X0020334Y0213892D01*
X0020278Y0213741D01*
X0020217Y0213592D01*
X0020154Y0213444D01*
X0020086Y0213298D01*
X0020015Y0213154D01*
X0019941Y0213012D01*
X0019863Y0212871D01*
X0019781Y0212733D01*
X0019696Y0212596D01*
X0019608Y0212462D01*
X0019516Y0212330D01*
X0019421Y0212200D01*
X0019323Y0212072D01*
X0019222Y0211947D01*
X0019118Y0211825D01*
X0019011Y0211705D01*
X0018901Y0211588D01*
X0018788Y0211473D01*
X0018672Y0211362D01*
X0018553Y0211253D01*
X0018432Y0211148D01*
X0018308Y0211045D01*
X0018182Y0210945D01*
X0018054Y0210849D01*
X0017923Y0210756D01*
X0017789Y0210666D01*
X0017654Y0210579D01*
X0017516Y0210496D01*
X0017377Y0210416D01*
X0017235Y0210340D01*
X0017092Y0210267D01*
X0016947Y0210198D01*
X0016800Y0210132D01*
X0016652Y0210070D01*
X0016502Y0210012D01*
X0016351Y0209957D01*
X0016198Y0209906D01*
X0016044Y0209859D01*
X0015889Y0209816D01*
X0015733Y0209777D01*
X0015577Y0209741D01*
X0015419Y0209710D01*
X0015261Y0209682D01*
X0015102Y0209658D01*
X0014942Y0209638D01*
X0014782Y0209622D01*
X0014622Y0209610D01*
X0014461Y0209602D01*
X0014300Y0209598D01*
X0014140Y0209598D01*
X0013979Y0209602D01*
X0013818Y0209610D01*
X0013658Y0209622D01*
X0013498Y0209638D01*
X0013338Y0209658D01*
X0013179Y0209682D01*
X0013021Y0209710D01*
X0012863Y0209741D01*
X0012707Y0209777D01*
X0012551Y0209816D01*
X0012396Y0209859D01*
X0012242Y0209906D01*
X0012089Y0209957D01*
X0011938Y0210012D01*
X0011788Y0210070D01*
X0011640Y0210132D01*
X0011493Y0210198D01*
X0011348Y0210267D01*
X0011205Y0210340D01*
X0011063Y0210416D01*
X0010924Y0210496D01*
X0010786Y0210579D01*
X0010651Y0210666D01*
X0010517Y0210756D01*
X0010386Y0210849D01*
X0010258Y0210945D01*
X0010132Y0211045D01*
X0010008Y0211148D01*
X0009887Y0211253D01*
X0009768Y0211362D01*
X0009652Y0211473D01*
X0009539Y0211588D01*
X0009429Y0211705D01*
X0009322Y0211825D01*
X0009218Y0211947D01*
X0009117Y0212072D01*
X0009019Y0212200D01*
X0008924Y0212330D01*
X0008832Y0212462D01*
X0008744Y0212596D01*
X0008659Y0212733D01*
X0008577Y0212871D01*
X0008499Y0213012D01*
X0008425Y0213154D01*
X0008354Y0213298D01*
X0008286Y0213444D01*
X0008223Y0213592D01*
X0008162Y0213741D01*
X0008106Y0213892D01*
X0008053Y0214044D01*
X0008004Y0214197D01*
X0007959Y0214351D01*
X0007918Y0214506D01*
X0007880Y0214663D01*
X0007847Y0214820D01*
X0007817Y0214978D01*
X0007791Y0215137D01*
X0007770Y0215296D01*
X0007752Y0215456D01*
X0007738Y0215616D01*
X0007728Y0215777D01*
X0007722Y0215937D01*
X0007720Y0216098D01*
D11*
X0215179Y0217293D02*
X0217907Y0217293D01*
X0215179Y0217293D02*
X0215179Y0221203D01*
X0217907Y0221203D01*
X0217907Y0217293D01*
X0217907Y0218894D02*
X0215179Y0218894D01*
X0215179Y0220495D02*
X0217907Y0220495D01*
X0223053Y0217293D02*
X0225781Y0217293D01*
X0223053Y0217293D02*
X0223053Y0221203D01*
X0225781Y0221203D01*
X0225781Y0217293D01*
X0225781Y0218894D02*
X0223053Y0218894D01*
X0223053Y0220495D02*
X0225781Y0220495D01*
D12*
X0223055Y0211122D02*
X0223055Y0208004D01*
X0223055Y0211122D02*
X0226173Y0211122D01*
X0226173Y0208004D01*
X0223055Y0208004D01*
X0223055Y0209609D02*
X0226173Y0209609D01*
X0214787Y0211122D02*
X0214787Y0208004D01*
X0214787Y0211122D02*
X0217905Y0211122D01*
X0217905Y0208004D01*
X0214787Y0208004D01*
X0214787Y0209609D02*
X0217905Y0209609D01*
M02*
