G75*
%MOIN*%
%OFA0B0*%
%FSLAX25Y25*%
%IPPOS*%
%LPD*%
%AMOC8*
5,1,8,0,0,1.08239X$1,22.5*
%
%ADD10C,0.00000*%
%ADD11C,0.00039*%
%ADD12C,0.00400*%
%ADD13R,0.02559X0.05512*%
%ADD14C,0.00500*%
%ADD15C,0.00800*%
%ADD16R,0.00787X0.00787*%
D10*
X0017142Y0026984D02*
X0017142Y0201000D01*
X0017142Y0210449D01*
X0017142Y0457102D01*
X0017141Y0457102D02*
X0017144Y0457340D01*
X0017152Y0457578D01*
X0017167Y0457815D01*
X0017187Y0458052D01*
X0017213Y0458288D01*
X0017244Y0458524D01*
X0017281Y0458759D01*
X0017324Y0458993D01*
X0017373Y0459226D01*
X0017427Y0459458D01*
X0017487Y0459688D01*
X0017552Y0459917D01*
X0017623Y0460144D01*
X0017699Y0460369D01*
X0017781Y0460592D01*
X0017868Y0460814D01*
X0017960Y0461033D01*
X0018058Y0461250D01*
X0018160Y0461464D01*
X0018268Y0461676D01*
X0018382Y0461886D01*
X0018500Y0462092D01*
X0018623Y0462296D01*
X0018751Y0462496D01*
X0018883Y0462693D01*
X0019021Y0462888D01*
X0019163Y0463078D01*
X0019310Y0463266D01*
X0019461Y0463449D01*
X0019616Y0463629D01*
X0019776Y0463805D01*
X0019940Y0463977D01*
X0020109Y0464146D01*
X0020281Y0464310D01*
X0020457Y0464470D01*
X0020637Y0464625D01*
X0020820Y0464776D01*
X0021008Y0464923D01*
X0021198Y0465065D01*
X0021393Y0465203D01*
X0021590Y0465335D01*
X0021790Y0465463D01*
X0021994Y0465586D01*
X0022200Y0465704D01*
X0022410Y0465818D01*
X0022622Y0465926D01*
X0022836Y0466028D01*
X0023053Y0466126D01*
X0023272Y0466218D01*
X0023494Y0466305D01*
X0023717Y0466387D01*
X0023942Y0466463D01*
X0024169Y0466534D01*
X0024398Y0466599D01*
X0024628Y0466659D01*
X0024860Y0466713D01*
X0025093Y0466762D01*
X0025327Y0466805D01*
X0025562Y0466842D01*
X0025798Y0466873D01*
X0026034Y0466899D01*
X0026271Y0466919D01*
X0026508Y0466934D01*
X0026746Y0466942D01*
X0026984Y0466945D01*
X0280921Y0466945D01*
X0281159Y0466942D01*
X0281397Y0466934D01*
X0281634Y0466919D01*
X0281871Y0466899D01*
X0282107Y0466873D01*
X0282343Y0466842D01*
X0282578Y0466805D01*
X0282812Y0466762D01*
X0283045Y0466713D01*
X0283277Y0466659D01*
X0283507Y0466599D01*
X0283736Y0466534D01*
X0283963Y0466463D01*
X0284188Y0466387D01*
X0284411Y0466305D01*
X0284633Y0466218D01*
X0284852Y0466126D01*
X0285069Y0466028D01*
X0285283Y0465926D01*
X0285495Y0465818D01*
X0285705Y0465704D01*
X0285911Y0465586D01*
X0286115Y0465463D01*
X0286315Y0465335D01*
X0286512Y0465203D01*
X0286707Y0465065D01*
X0286897Y0464923D01*
X0287085Y0464776D01*
X0287268Y0464625D01*
X0287448Y0464470D01*
X0287624Y0464310D01*
X0287796Y0464146D01*
X0287965Y0463977D01*
X0288129Y0463805D01*
X0288289Y0463629D01*
X0288444Y0463449D01*
X0288595Y0463266D01*
X0288742Y0463078D01*
X0288884Y0462888D01*
X0289022Y0462693D01*
X0289154Y0462496D01*
X0289282Y0462296D01*
X0289405Y0462092D01*
X0289523Y0461886D01*
X0289637Y0461676D01*
X0289745Y0461464D01*
X0289847Y0461250D01*
X0289945Y0461033D01*
X0290037Y0460814D01*
X0290124Y0460592D01*
X0290206Y0460369D01*
X0290282Y0460144D01*
X0290353Y0459917D01*
X0290418Y0459688D01*
X0290478Y0459458D01*
X0290532Y0459226D01*
X0290581Y0458993D01*
X0290624Y0458759D01*
X0290661Y0458524D01*
X0290692Y0458288D01*
X0290718Y0458052D01*
X0290738Y0457815D01*
X0290753Y0457578D01*
X0290761Y0457340D01*
X0290764Y0457102D01*
X0290764Y0093717D01*
X0290761Y0093479D01*
X0290753Y0093241D01*
X0290738Y0093004D01*
X0290718Y0092767D01*
X0290692Y0092531D01*
X0290661Y0092295D01*
X0290624Y0092060D01*
X0290581Y0091826D01*
X0290532Y0091593D01*
X0290478Y0091361D01*
X0290418Y0091131D01*
X0290353Y0090902D01*
X0290282Y0090675D01*
X0290206Y0090450D01*
X0290124Y0090227D01*
X0290037Y0090005D01*
X0289945Y0089786D01*
X0289847Y0089569D01*
X0289745Y0089355D01*
X0289637Y0089143D01*
X0289523Y0088933D01*
X0289405Y0088727D01*
X0289282Y0088523D01*
X0289154Y0088323D01*
X0289022Y0088126D01*
X0288884Y0087931D01*
X0288742Y0087741D01*
X0288595Y0087553D01*
X0288444Y0087370D01*
X0288289Y0087190D01*
X0288129Y0087014D01*
X0287965Y0086842D01*
X0287796Y0086673D01*
X0287624Y0086509D01*
X0287448Y0086349D01*
X0287268Y0086194D01*
X0287085Y0086043D01*
X0286897Y0085896D01*
X0286707Y0085754D01*
X0286512Y0085616D01*
X0286315Y0085484D01*
X0286115Y0085356D01*
X0285911Y0085233D01*
X0285705Y0085115D01*
X0285495Y0085001D01*
X0285283Y0084893D01*
X0285069Y0084791D01*
X0284852Y0084693D01*
X0284633Y0084601D01*
X0284411Y0084514D01*
X0284188Y0084432D01*
X0283963Y0084356D01*
X0283736Y0084285D01*
X0283507Y0084220D01*
X0283277Y0084160D01*
X0283045Y0084106D01*
X0282812Y0084057D01*
X0282578Y0084014D01*
X0282343Y0083977D01*
X0282107Y0083946D01*
X0281871Y0083920D01*
X0281634Y0083900D01*
X0281397Y0083885D01*
X0281159Y0083877D01*
X0280921Y0083874D01*
X0215173Y0083874D01*
X0215173Y0026984D01*
X0215174Y0026984D02*
X0215171Y0026746D01*
X0215163Y0026508D01*
X0215148Y0026271D01*
X0215128Y0026034D01*
X0215102Y0025798D01*
X0215071Y0025562D01*
X0215034Y0025327D01*
X0214991Y0025093D01*
X0214942Y0024860D01*
X0214888Y0024628D01*
X0214828Y0024398D01*
X0214763Y0024169D01*
X0214692Y0023942D01*
X0214616Y0023717D01*
X0214534Y0023494D01*
X0214447Y0023272D01*
X0214355Y0023053D01*
X0214257Y0022836D01*
X0214155Y0022622D01*
X0214047Y0022410D01*
X0213933Y0022200D01*
X0213815Y0021994D01*
X0213692Y0021790D01*
X0213564Y0021590D01*
X0213432Y0021393D01*
X0213294Y0021198D01*
X0213152Y0021008D01*
X0213005Y0020820D01*
X0212854Y0020637D01*
X0212699Y0020457D01*
X0212539Y0020281D01*
X0212375Y0020109D01*
X0212206Y0019940D01*
X0212034Y0019776D01*
X0211858Y0019616D01*
X0211678Y0019461D01*
X0211495Y0019310D01*
X0211307Y0019163D01*
X0211117Y0019021D01*
X0210922Y0018883D01*
X0210725Y0018751D01*
X0210525Y0018623D01*
X0210321Y0018500D01*
X0210115Y0018382D01*
X0209905Y0018268D01*
X0209693Y0018160D01*
X0209479Y0018058D01*
X0209262Y0017960D01*
X0209043Y0017868D01*
X0208821Y0017781D01*
X0208598Y0017699D01*
X0208373Y0017623D01*
X0208146Y0017552D01*
X0207917Y0017487D01*
X0207687Y0017427D01*
X0207455Y0017373D01*
X0207222Y0017324D01*
X0206988Y0017281D01*
X0206753Y0017244D01*
X0206517Y0017213D01*
X0206281Y0017187D01*
X0206044Y0017167D01*
X0205807Y0017152D01*
X0205569Y0017144D01*
X0205331Y0017141D01*
X0205331Y0017142D02*
X0026984Y0017142D01*
X0026984Y0017141D02*
X0026746Y0017144D01*
X0026508Y0017152D01*
X0026271Y0017167D01*
X0026034Y0017187D01*
X0025798Y0017213D01*
X0025562Y0017244D01*
X0025327Y0017281D01*
X0025093Y0017324D01*
X0024860Y0017373D01*
X0024628Y0017427D01*
X0024398Y0017487D01*
X0024169Y0017552D01*
X0023942Y0017623D01*
X0023717Y0017699D01*
X0023494Y0017781D01*
X0023272Y0017868D01*
X0023053Y0017960D01*
X0022836Y0018058D01*
X0022622Y0018160D01*
X0022410Y0018268D01*
X0022200Y0018382D01*
X0021994Y0018500D01*
X0021790Y0018623D01*
X0021590Y0018751D01*
X0021393Y0018883D01*
X0021198Y0019021D01*
X0021008Y0019163D01*
X0020820Y0019310D01*
X0020637Y0019461D01*
X0020457Y0019616D01*
X0020281Y0019776D01*
X0020109Y0019940D01*
X0019940Y0020109D01*
X0019776Y0020281D01*
X0019616Y0020457D01*
X0019461Y0020637D01*
X0019310Y0020820D01*
X0019163Y0021008D01*
X0019021Y0021198D01*
X0018883Y0021393D01*
X0018751Y0021590D01*
X0018623Y0021790D01*
X0018500Y0021994D01*
X0018382Y0022200D01*
X0018268Y0022410D01*
X0018160Y0022622D01*
X0018058Y0022836D01*
X0017960Y0023053D01*
X0017868Y0023272D01*
X0017781Y0023494D01*
X0017699Y0023717D01*
X0017623Y0023942D01*
X0017552Y0024169D01*
X0017487Y0024398D01*
X0017427Y0024628D01*
X0017373Y0024860D01*
X0017324Y0025093D01*
X0017281Y0025327D01*
X0017244Y0025562D01*
X0017213Y0025798D01*
X0017187Y0026034D01*
X0017167Y0026271D01*
X0017152Y0026508D01*
X0017144Y0026746D01*
X0017141Y0026984D01*
X0017142Y0201000D02*
X0017278Y0201002D01*
X0017414Y0201008D01*
X0017550Y0201018D01*
X0017685Y0201031D01*
X0017820Y0201049D01*
X0017955Y0201070D01*
X0018089Y0201096D01*
X0018222Y0201125D01*
X0018354Y0201158D01*
X0018485Y0201195D01*
X0018615Y0201235D01*
X0018743Y0201280D01*
X0018871Y0201328D01*
X0018997Y0201379D01*
X0019121Y0201435D01*
X0019244Y0201493D01*
X0019365Y0201556D01*
X0019484Y0201622D01*
X0019602Y0201691D01*
X0019717Y0201763D01*
X0019830Y0201839D01*
X0019941Y0201918D01*
X0020049Y0202001D01*
X0020155Y0202086D01*
X0020259Y0202174D01*
X0020360Y0202265D01*
X0020458Y0202360D01*
X0020554Y0202457D01*
X0020647Y0202556D01*
X0020736Y0202659D01*
X0020823Y0202763D01*
X0020907Y0202871D01*
X0020988Y0202980D01*
X0021065Y0203092D01*
X0021139Y0203207D01*
X0021210Y0203323D01*
X0021278Y0203441D01*
X0021342Y0203561D01*
X0021402Y0203683D01*
X0021459Y0203807D01*
X0021513Y0203932D01*
X0021563Y0204059D01*
X0021609Y0204187D01*
X0021651Y0204316D01*
X0021690Y0204447D01*
X0021725Y0204578D01*
X0021756Y0204711D01*
X0021783Y0204844D01*
X0021807Y0204978D01*
X0021826Y0205113D01*
X0021842Y0205248D01*
X0021854Y0205384D01*
X0021862Y0205520D01*
X0021866Y0205656D01*
X0021866Y0205792D01*
X0021862Y0205928D01*
X0021854Y0206064D01*
X0021842Y0206200D01*
X0021826Y0206335D01*
X0021807Y0206470D01*
X0021783Y0206604D01*
X0021756Y0206737D01*
X0021725Y0206870D01*
X0021690Y0207001D01*
X0021651Y0207132D01*
X0021609Y0207261D01*
X0021563Y0207389D01*
X0021513Y0207516D01*
X0021459Y0207641D01*
X0021402Y0207765D01*
X0021342Y0207887D01*
X0021278Y0208007D01*
X0021210Y0208125D01*
X0021139Y0208241D01*
X0021065Y0208356D01*
X0020988Y0208468D01*
X0020907Y0208577D01*
X0020823Y0208685D01*
X0020736Y0208789D01*
X0020647Y0208892D01*
X0020554Y0208991D01*
X0020458Y0209088D01*
X0020360Y0209183D01*
X0020259Y0209274D01*
X0020155Y0209362D01*
X0020049Y0209447D01*
X0019941Y0209530D01*
X0019830Y0209609D01*
X0019717Y0209685D01*
X0019602Y0209757D01*
X0019484Y0209826D01*
X0019365Y0209892D01*
X0019244Y0209955D01*
X0019121Y0210013D01*
X0018997Y0210069D01*
X0018871Y0210120D01*
X0018743Y0210168D01*
X0018615Y0210213D01*
X0018485Y0210253D01*
X0018354Y0210290D01*
X0018222Y0210323D01*
X0018089Y0210352D01*
X0017955Y0210378D01*
X0017820Y0210399D01*
X0017685Y0210417D01*
X0017550Y0210430D01*
X0017414Y0210440D01*
X0017278Y0210446D01*
X0017142Y0210448D01*
X0053165Y0456118D02*
X0053167Y0456202D01*
X0053173Y0456285D01*
X0053183Y0456368D01*
X0053197Y0456451D01*
X0053214Y0456533D01*
X0053236Y0456614D01*
X0053261Y0456693D01*
X0053290Y0456772D01*
X0053323Y0456849D01*
X0053359Y0456924D01*
X0053399Y0456998D01*
X0053442Y0457070D01*
X0053489Y0457139D01*
X0053539Y0457206D01*
X0053592Y0457271D01*
X0053648Y0457333D01*
X0053706Y0457393D01*
X0053768Y0457450D01*
X0053832Y0457503D01*
X0053899Y0457554D01*
X0053968Y0457601D01*
X0054039Y0457646D01*
X0054112Y0457686D01*
X0054187Y0457723D01*
X0054264Y0457757D01*
X0054342Y0457787D01*
X0054421Y0457813D01*
X0054502Y0457836D01*
X0054584Y0457854D01*
X0054666Y0457869D01*
X0054749Y0457880D01*
X0054832Y0457887D01*
X0054916Y0457890D01*
X0055000Y0457889D01*
X0055083Y0457884D01*
X0055167Y0457875D01*
X0055249Y0457862D01*
X0055331Y0457846D01*
X0055412Y0457825D01*
X0055493Y0457801D01*
X0055571Y0457773D01*
X0055649Y0457741D01*
X0055725Y0457705D01*
X0055799Y0457666D01*
X0055871Y0457624D01*
X0055941Y0457578D01*
X0056009Y0457529D01*
X0056074Y0457477D01*
X0056137Y0457422D01*
X0056197Y0457364D01*
X0056255Y0457303D01*
X0056309Y0457239D01*
X0056361Y0457173D01*
X0056409Y0457105D01*
X0056454Y0457034D01*
X0056495Y0456961D01*
X0056534Y0456887D01*
X0056568Y0456811D01*
X0056599Y0456733D01*
X0056626Y0456654D01*
X0056650Y0456573D01*
X0056669Y0456492D01*
X0056685Y0456410D01*
X0056697Y0456327D01*
X0056705Y0456243D01*
X0056709Y0456160D01*
X0056709Y0456076D01*
X0056705Y0455993D01*
X0056697Y0455909D01*
X0056685Y0455826D01*
X0056669Y0455744D01*
X0056650Y0455663D01*
X0056626Y0455582D01*
X0056599Y0455503D01*
X0056568Y0455425D01*
X0056534Y0455349D01*
X0056495Y0455275D01*
X0056454Y0455202D01*
X0056409Y0455131D01*
X0056361Y0455063D01*
X0056309Y0454997D01*
X0056255Y0454933D01*
X0056197Y0454872D01*
X0056137Y0454814D01*
X0056074Y0454759D01*
X0056009Y0454707D01*
X0055941Y0454658D01*
X0055871Y0454612D01*
X0055799Y0454570D01*
X0055725Y0454531D01*
X0055649Y0454495D01*
X0055571Y0454463D01*
X0055493Y0454435D01*
X0055412Y0454411D01*
X0055331Y0454390D01*
X0055249Y0454374D01*
X0055167Y0454361D01*
X0055083Y0454352D01*
X0055000Y0454347D01*
X0054916Y0454346D01*
X0054832Y0454349D01*
X0054749Y0454356D01*
X0054666Y0454367D01*
X0054584Y0454382D01*
X0054502Y0454400D01*
X0054421Y0454423D01*
X0054342Y0454449D01*
X0054264Y0454479D01*
X0054187Y0454513D01*
X0054112Y0454550D01*
X0054039Y0454590D01*
X0053968Y0454635D01*
X0053899Y0454682D01*
X0053832Y0454733D01*
X0053768Y0454786D01*
X0053706Y0454843D01*
X0053648Y0454903D01*
X0053592Y0454965D01*
X0053539Y0455030D01*
X0053489Y0455097D01*
X0053442Y0455166D01*
X0053399Y0455238D01*
X0053359Y0455312D01*
X0053323Y0455387D01*
X0053290Y0455464D01*
X0053261Y0455543D01*
X0053236Y0455622D01*
X0053214Y0455703D01*
X0053197Y0455785D01*
X0053183Y0455868D01*
X0053173Y0455951D01*
X0053167Y0456034D01*
X0053165Y0456118D01*
X0064976Y0456118D02*
X0064978Y0456202D01*
X0064984Y0456285D01*
X0064994Y0456368D01*
X0065008Y0456451D01*
X0065025Y0456533D01*
X0065047Y0456614D01*
X0065072Y0456693D01*
X0065101Y0456772D01*
X0065134Y0456849D01*
X0065170Y0456924D01*
X0065210Y0456998D01*
X0065253Y0457070D01*
X0065300Y0457139D01*
X0065350Y0457206D01*
X0065403Y0457271D01*
X0065459Y0457333D01*
X0065517Y0457393D01*
X0065579Y0457450D01*
X0065643Y0457503D01*
X0065710Y0457554D01*
X0065779Y0457601D01*
X0065850Y0457646D01*
X0065923Y0457686D01*
X0065998Y0457723D01*
X0066075Y0457757D01*
X0066153Y0457787D01*
X0066232Y0457813D01*
X0066313Y0457836D01*
X0066395Y0457854D01*
X0066477Y0457869D01*
X0066560Y0457880D01*
X0066643Y0457887D01*
X0066727Y0457890D01*
X0066811Y0457889D01*
X0066894Y0457884D01*
X0066978Y0457875D01*
X0067060Y0457862D01*
X0067142Y0457846D01*
X0067223Y0457825D01*
X0067304Y0457801D01*
X0067382Y0457773D01*
X0067460Y0457741D01*
X0067536Y0457705D01*
X0067610Y0457666D01*
X0067682Y0457624D01*
X0067752Y0457578D01*
X0067820Y0457529D01*
X0067885Y0457477D01*
X0067948Y0457422D01*
X0068008Y0457364D01*
X0068066Y0457303D01*
X0068120Y0457239D01*
X0068172Y0457173D01*
X0068220Y0457105D01*
X0068265Y0457034D01*
X0068306Y0456961D01*
X0068345Y0456887D01*
X0068379Y0456811D01*
X0068410Y0456733D01*
X0068437Y0456654D01*
X0068461Y0456573D01*
X0068480Y0456492D01*
X0068496Y0456410D01*
X0068508Y0456327D01*
X0068516Y0456243D01*
X0068520Y0456160D01*
X0068520Y0456076D01*
X0068516Y0455993D01*
X0068508Y0455909D01*
X0068496Y0455826D01*
X0068480Y0455744D01*
X0068461Y0455663D01*
X0068437Y0455582D01*
X0068410Y0455503D01*
X0068379Y0455425D01*
X0068345Y0455349D01*
X0068306Y0455275D01*
X0068265Y0455202D01*
X0068220Y0455131D01*
X0068172Y0455063D01*
X0068120Y0454997D01*
X0068066Y0454933D01*
X0068008Y0454872D01*
X0067948Y0454814D01*
X0067885Y0454759D01*
X0067820Y0454707D01*
X0067752Y0454658D01*
X0067682Y0454612D01*
X0067610Y0454570D01*
X0067536Y0454531D01*
X0067460Y0454495D01*
X0067382Y0454463D01*
X0067304Y0454435D01*
X0067223Y0454411D01*
X0067142Y0454390D01*
X0067060Y0454374D01*
X0066978Y0454361D01*
X0066894Y0454352D01*
X0066811Y0454347D01*
X0066727Y0454346D01*
X0066643Y0454349D01*
X0066560Y0454356D01*
X0066477Y0454367D01*
X0066395Y0454382D01*
X0066313Y0454400D01*
X0066232Y0454423D01*
X0066153Y0454449D01*
X0066075Y0454479D01*
X0065998Y0454513D01*
X0065923Y0454550D01*
X0065850Y0454590D01*
X0065779Y0454635D01*
X0065710Y0454682D01*
X0065643Y0454733D01*
X0065579Y0454786D01*
X0065517Y0454843D01*
X0065459Y0454903D01*
X0065403Y0454965D01*
X0065350Y0455030D01*
X0065300Y0455097D01*
X0065253Y0455166D01*
X0065210Y0455238D01*
X0065170Y0455312D01*
X0065134Y0455387D01*
X0065101Y0455464D01*
X0065072Y0455543D01*
X0065047Y0455622D01*
X0065025Y0455703D01*
X0065008Y0455785D01*
X0064994Y0455868D01*
X0064984Y0455951D01*
X0064978Y0456034D01*
X0064976Y0456118D01*
X0167142Y0062417D02*
X0167144Y0062542D01*
X0167150Y0062667D01*
X0167160Y0062791D01*
X0167174Y0062915D01*
X0167191Y0063039D01*
X0167213Y0063162D01*
X0167239Y0063284D01*
X0167268Y0063406D01*
X0167301Y0063526D01*
X0167339Y0063645D01*
X0167379Y0063764D01*
X0167424Y0063880D01*
X0167472Y0063995D01*
X0167524Y0064109D01*
X0167580Y0064221D01*
X0167639Y0064331D01*
X0167701Y0064439D01*
X0167767Y0064546D01*
X0167836Y0064650D01*
X0167909Y0064751D01*
X0167984Y0064851D01*
X0168063Y0064948D01*
X0168145Y0065042D01*
X0168230Y0065134D01*
X0168317Y0065223D01*
X0168408Y0065309D01*
X0168501Y0065392D01*
X0168597Y0065473D01*
X0168695Y0065550D01*
X0168795Y0065624D01*
X0168898Y0065695D01*
X0169003Y0065762D01*
X0169111Y0065827D01*
X0169220Y0065887D01*
X0169331Y0065945D01*
X0169444Y0065998D01*
X0169558Y0066048D01*
X0169674Y0066095D01*
X0169791Y0066137D01*
X0169910Y0066176D01*
X0170030Y0066212D01*
X0170151Y0066243D01*
X0170273Y0066271D01*
X0170395Y0066294D01*
X0170519Y0066314D01*
X0170643Y0066330D01*
X0170767Y0066342D01*
X0170892Y0066350D01*
X0171017Y0066354D01*
X0171141Y0066354D01*
X0171266Y0066350D01*
X0171391Y0066342D01*
X0171515Y0066330D01*
X0171639Y0066314D01*
X0171763Y0066294D01*
X0171885Y0066271D01*
X0172007Y0066243D01*
X0172128Y0066212D01*
X0172248Y0066176D01*
X0172367Y0066137D01*
X0172484Y0066095D01*
X0172600Y0066048D01*
X0172714Y0065998D01*
X0172827Y0065945D01*
X0172938Y0065887D01*
X0173048Y0065827D01*
X0173155Y0065762D01*
X0173260Y0065695D01*
X0173363Y0065624D01*
X0173463Y0065550D01*
X0173561Y0065473D01*
X0173657Y0065392D01*
X0173750Y0065309D01*
X0173841Y0065223D01*
X0173928Y0065134D01*
X0174013Y0065042D01*
X0174095Y0064948D01*
X0174174Y0064851D01*
X0174249Y0064751D01*
X0174322Y0064650D01*
X0174391Y0064546D01*
X0174457Y0064439D01*
X0174519Y0064331D01*
X0174578Y0064221D01*
X0174634Y0064109D01*
X0174686Y0063995D01*
X0174734Y0063880D01*
X0174779Y0063764D01*
X0174819Y0063645D01*
X0174857Y0063526D01*
X0174890Y0063406D01*
X0174919Y0063284D01*
X0174945Y0063162D01*
X0174967Y0063039D01*
X0174984Y0062915D01*
X0174998Y0062791D01*
X0175008Y0062667D01*
X0175014Y0062542D01*
X0175016Y0062417D01*
X0175014Y0062292D01*
X0175008Y0062167D01*
X0174998Y0062043D01*
X0174984Y0061919D01*
X0174967Y0061795D01*
X0174945Y0061672D01*
X0174919Y0061550D01*
X0174890Y0061428D01*
X0174857Y0061308D01*
X0174819Y0061189D01*
X0174779Y0061070D01*
X0174734Y0060954D01*
X0174686Y0060839D01*
X0174634Y0060725D01*
X0174578Y0060613D01*
X0174519Y0060503D01*
X0174457Y0060395D01*
X0174391Y0060288D01*
X0174322Y0060184D01*
X0174249Y0060083D01*
X0174174Y0059983D01*
X0174095Y0059886D01*
X0174013Y0059792D01*
X0173928Y0059700D01*
X0173841Y0059611D01*
X0173750Y0059525D01*
X0173657Y0059442D01*
X0173561Y0059361D01*
X0173463Y0059284D01*
X0173363Y0059210D01*
X0173260Y0059139D01*
X0173155Y0059072D01*
X0173047Y0059007D01*
X0172938Y0058947D01*
X0172827Y0058889D01*
X0172714Y0058836D01*
X0172600Y0058786D01*
X0172484Y0058739D01*
X0172367Y0058697D01*
X0172248Y0058658D01*
X0172128Y0058622D01*
X0172007Y0058591D01*
X0171885Y0058563D01*
X0171763Y0058540D01*
X0171639Y0058520D01*
X0171515Y0058504D01*
X0171391Y0058492D01*
X0171266Y0058484D01*
X0171141Y0058480D01*
X0171017Y0058480D01*
X0170892Y0058484D01*
X0170767Y0058492D01*
X0170643Y0058504D01*
X0170519Y0058520D01*
X0170395Y0058540D01*
X0170273Y0058563D01*
X0170151Y0058591D01*
X0170030Y0058622D01*
X0169910Y0058658D01*
X0169791Y0058697D01*
X0169674Y0058739D01*
X0169558Y0058786D01*
X0169444Y0058836D01*
X0169331Y0058889D01*
X0169220Y0058947D01*
X0169110Y0059007D01*
X0169003Y0059072D01*
X0168898Y0059139D01*
X0168795Y0059210D01*
X0168695Y0059284D01*
X0168597Y0059361D01*
X0168501Y0059442D01*
X0168408Y0059525D01*
X0168317Y0059611D01*
X0168230Y0059700D01*
X0168145Y0059792D01*
X0168063Y0059886D01*
X0167984Y0059983D01*
X0167909Y0060083D01*
X0167836Y0060184D01*
X0167767Y0060288D01*
X0167701Y0060395D01*
X0167639Y0060503D01*
X0167580Y0060613D01*
X0167524Y0060725D01*
X0167472Y0060839D01*
X0167424Y0060954D01*
X0167379Y0061070D01*
X0167339Y0061189D01*
X0167301Y0061308D01*
X0167268Y0061428D01*
X0167239Y0061550D01*
X0167213Y0061672D01*
X0167191Y0061795D01*
X0167174Y0061919D01*
X0167160Y0062043D01*
X0167150Y0062167D01*
X0167144Y0062292D01*
X0167142Y0062417D01*
X0167142Y0034858D02*
X0167144Y0034983D01*
X0167150Y0035108D01*
X0167160Y0035232D01*
X0167174Y0035356D01*
X0167191Y0035480D01*
X0167213Y0035603D01*
X0167239Y0035725D01*
X0167268Y0035847D01*
X0167301Y0035967D01*
X0167339Y0036086D01*
X0167379Y0036205D01*
X0167424Y0036321D01*
X0167472Y0036436D01*
X0167524Y0036550D01*
X0167580Y0036662D01*
X0167639Y0036772D01*
X0167701Y0036880D01*
X0167767Y0036987D01*
X0167836Y0037091D01*
X0167909Y0037192D01*
X0167984Y0037292D01*
X0168063Y0037389D01*
X0168145Y0037483D01*
X0168230Y0037575D01*
X0168317Y0037664D01*
X0168408Y0037750D01*
X0168501Y0037833D01*
X0168597Y0037914D01*
X0168695Y0037991D01*
X0168795Y0038065D01*
X0168898Y0038136D01*
X0169003Y0038203D01*
X0169111Y0038268D01*
X0169220Y0038328D01*
X0169331Y0038386D01*
X0169444Y0038439D01*
X0169558Y0038489D01*
X0169674Y0038536D01*
X0169791Y0038578D01*
X0169910Y0038617D01*
X0170030Y0038653D01*
X0170151Y0038684D01*
X0170273Y0038712D01*
X0170395Y0038735D01*
X0170519Y0038755D01*
X0170643Y0038771D01*
X0170767Y0038783D01*
X0170892Y0038791D01*
X0171017Y0038795D01*
X0171141Y0038795D01*
X0171266Y0038791D01*
X0171391Y0038783D01*
X0171515Y0038771D01*
X0171639Y0038755D01*
X0171763Y0038735D01*
X0171885Y0038712D01*
X0172007Y0038684D01*
X0172128Y0038653D01*
X0172248Y0038617D01*
X0172367Y0038578D01*
X0172484Y0038536D01*
X0172600Y0038489D01*
X0172714Y0038439D01*
X0172827Y0038386D01*
X0172938Y0038328D01*
X0173048Y0038268D01*
X0173155Y0038203D01*
X0173260Y0038136D01*
X0173363Y0038065D01*
X0173463Y0037991D01*
X0173561Y0037914D01*
X0173657Y0037833D01*
X0173750Y0037750D01*
X0173841Y0037664D01*
X0173928Y0037575D01*
X0174013Y0037483D01*
X0174095Y0037389D01*
X0174174Y0037292D01*
X0174249Y0037192D01*
X0174322Y0037091D01*
X0174391Y0036987D01*
X0174457Y0036880D01*
X0174519Y0036772D01*
X0174578Y0036662D01*
X0174634Y0036550D01*
X0174686Y0036436D01*
X0174734Y0036321D01*
X0174779Y0036205D01*
X0174819Y0036086D01*
X0174857Y0035967D01*
X0174890Y0035847D01*
X0174919Y0035725D01*
X0174945Y0035603D01*
X0174967Y0035480D01*
X0174984Y0035356D01*
X0174998Y0035232D01*
X0175008Y0035108D01*
X0175014Y0034983D01*
X0175016Y0034858D01*
X0175014Y0034733D01*
X0175008Y0034608D01*
X0174998Y0034484D01*
X0174984Y0034360D01*
X0174967Y0034236D01*
X0174945Y0034113D01*
X0174919Y0033991D01*
X0174890Y0033869D01*
X0174857Y0033749D01*
X0174819Y0033630D01*
X0174779Y0033511D01*
X0174734Y0033395D01*
X0174686Y0033280D01*
X0174634Y0033166D01*
X0174578Y0033054D01*
X0174519Y0032944D01*
X0174457Y0032836D01*
X0174391Y0032729D01*
X0174322Y0032625D01*
X0174249Y0032524D01*
X0174174Y0032424D01*
X0174095Y0032327D01*
X0174013Y0032233D01*
X0173928Y0032141D01*
X0173841Y0032052D01*
X0173750Y0031966D01*
X0173657Y0031883D01*
X0173561Y0031802D01*
X0173463Y0031725D01*
X0173363Y0031651D01*
X0173260Y0031580D01*
X0173155Y0031513D01*
X0173047Y0031448D01*
X0172938Y0031388D01*
X0172827Y0031330D01*
X0172714Y0031277D01*
X0172600Y0031227D01*
X0172484Y0031180D01*
X0172367Y0031138D01*
X0172248Y0031099D01*
X0172128Y0031063D01*
X0172007Y0031032D01*
X0171885Y0031004D01*
X0171763Y0030981D01*
X0171639Y0030961D01*
X0171515Y0030945D01*
X0171391Y0030933D01*
X0171266Y0030925D01*
X0171141Y0030921D01*
X0171017Y0030921D01*
X0170892Y0030925D01*
X0170767Y0030933D01*
X0170643Y0030945D01*
X0170519Y0030961D01*
X0170395Y0030981D01*
X0170273Y0031004D01*
X0170151Y0031032D01*
X0170030Y0031063D01*
X0169910Y0031099D01*
X0169791Y0031138D01*
X0169674Y0031180D01*
X0169558Y0031227D01*
X0169444Y0031277D01*
X0169331Y0031330D01*
X0169220Y0031388D01*
X0169110Y0031448D01*
X0169003Y0031513D01*
X0168898Y0031580D01*
X0168795Y0031651D01*
X0168695Y0031725D01*
X0168597Y0031802D01*
X0168501Y0031883D01*
X0168408Y0031966D01*
X0168317Y0032052D01*
X0168230Y0032141D01*
X0168145Y0032233D01*
X0168063Y0032327D01*
X0167984Y0032424D01*
X0167909Y0032524D01*
X0167836Y0032625D01*
X0167767Y0032729D01*
X0167701Y0032836D01*
X0167639Y0032944D01*
X0167580Y0033054D01*
X0167524Y0033166D01*
X0167472Y0033280D01*
X0167424Y0033395D01*
X0167379Y0033511D01*
X0167339Y0033630D01*
X0167301Y0033749D01*
X0167268Y0033869D01*
X0167239Y0033991D01*
X0167213Y0034113D01*
X0167191Y0034236D01*
X0167174Y0034360D01*
X0167160Y0034484D01*
X0167150Y0034608D01*
X0167144Y0034733D01*
X0167142Y0034858D01*
D11*
X0194307Y0105331D02*
X0194309Y0105489D01*
X0194315Y0105647D01*
X0194325Y0105805D01*
X0194339Y0105963D01*
X0194357Y0106120D01*
X0194378Y0106277D01*
X0194404Y0106433D01*
X0194434Y0106589D01*
X0194467Y0106744D01*
X0194505Y0106897D01*
X0194546Y0107050D01*
X0194591Y0107202D01*
X0194640Y0107353D01*
X0194693Y0107502D01*
X0194749Y0107650D01*
X0194809Y0107796D01*
X0194873Y0107941D01*
X0194941Y0108084D01*
X0195012Y0108226D01*
X0195086Y0108366D01*
X0195164Y0108503D01*
X0195246Y0108639D01*
X0195330Y0108773D01*
X0195419Y0108904D01*
X0195510Y0109033D01*
X0195605Y0109160D01*
X0195702Y0109285D01*
X0195803Y0109407D01*
X0195907Y0109526D01*
X0196014Y0109643D01*
X0196124Y0109757D01*
X0196237Y0109868D01*
X0196352Y0109977D01*
X0196470Y0110082D01*
X0196591Y0110184D01*
X0196714Y0110284D01*
X0196840Y0110380D01*
X0196968Y0110473D01*
X0197098Y0110563D01*
X0197231Y0110649D01*
X0197366Y0110733D01*
X0197502Y0110812D01*
X0197641Y0110889D01*
X0197782Y0110961D01*
X0197924Y0111031D01*
X0198068Y0111096D01*
X0198214Y0111158D01*
X0198361Y0111216D01*
X0198510Y0111271D01*
X0198660Y0111322D01*
X0198811Y0111369D01*
X0198963Y0111412D01*
X0199116Y0111451D01*
X0199271Y0111487D01*
X0199426Y0111518D01*
X0199582Y0111546D01*
X0199738Y0111570D01*
X0199895Y0111590D01*
X0200053Y0111606D01*
X0200210Y0111618D01*
X0200369Y0111626D01*
X0200527Y0111630D01*
X0200685Y0111630D01*
X0200843Y0111626D01*
X0201002Y0111618D01*
X0201159Y0111606D01*
X0201317Y0111590D01*
X0201474Y0111570D01*
X0201630Y0111546D01*
X0201786Y0111518D01*
X0201941Y0111487D01*
X0202096Y0111451D01*
X0202249Y0111412D01*
X0202401Y0111369D01*
X0202552Y0111322D01*
X0202702Y0111271D01*
X0202851Y0111216D01*
X0202998Y0111158D01*
X0203144Y0111096D01*
X0203288Y0111031D01*
X0203430Y0110961D01*
X0203571Y0110889D01*
X0203710Y0110812D01*
X0203846Y0110733D01*
X0203981Y0110649D01*
X0204114Y0110563D01*
X0204244Y0110473D01*
X0204372Y0110380D01*
X0204498Y0110284D01*
X0204621Y0110184D01*
X0204742Y0110082D01*
X0204860Y0109977D01*
X0204975Y0109868D01*
X0205088Y0109757D01*
X0205198Y0109643D01*
X0205305Y0109526D01*
X0205409Y0109407D01*
X0205510Y0109285D01*
X0205607Y0109160D01*
X0205702Y0109033D01*
X0205793Y0108904D01*
X0205882Y0108773D01*
X0205966Y0108639D01*
X0206048Y0108503D01*
X0206126Y0108366D01*
X0206200Y0108226D01*
X0206271Y0108084D01*
X0206339Y0107941D01*
X0206403Y0107796D01*
X0206463Y0107650D01*
X0206519Y0107502D01*
X0206572Y0107353D01*
X0206621Y0107202D01*
X0206666Y0107050D01*
X0206707Y0106897D01*
X0206745Y0106744D01*
X0206778Y0106589D01*
X0206808Y0106433D01*
X0206834Y0106277D01*
X0206855Y0106120D01*
X0206873Y0105963D01*
X0206887Y0105805D01*
X0206897Y0105647D01*
X0206903Y0105489D01*
X0206905Y0105331D01*
X0206903Y0105173D01*
X0206897Y0105015D01*
X0206887Y0104857D01*
X0206873Y0104699D01*
X0206855Y0104542D01*
X0206834Y0104385D01*
X0206808Y0104229D01*
X0206778Y0104073D01*
X0206745Y0103918D01*
X0206707Y0103765D01*
X0206666Y0103612D01*
X0206621Y0103460D01*
X0206572Y0103309D01*
X0206519Y0103160D01*
X0206463Y0103012D01*
X0206403Y0102866D01*
X0206339Y0102721D01*
X0206271Y0102578D01*
X0206200Y0102436D01*
X0206126Y0102296D01*
X0206048Y0102159D01*
X0205966Y0102023D01*
X0205882Y0101889D01*
X0205793Y0101758D01*
X0205702Y0101629D01*
X0205607Y0101502D01*
X0205510Y0101377D01*
X0205409Y0101255D01*
X0205305Y0101136D01*
X0205198Y0101019D01*
X0205088Y0100905D01*
X0204975Y0100794D01*
X0204860Y0100685D01*
X0204742Y0100580D01*
X0204621Y0100478D01*
X0204498Y0100378D01*
X0204372Y0100282D01*
X0204244Y0100189D01*
X0204114Y0100099D01*
X0203981Y0100013D01*
X0203846Y0099929D01*
X0203710Y0099850D01*
X0203571Y0099773D01*
X0203430Y0099701D01*
X0203288Y0099631D01*
X0203144Y0099566D01*
X0202998Y0099504D01*
X0202851Y0099446D01*
X0202702Y0099391D01*
X0202552Y0099340D01*
X0202401Y0099293D01*
X0202249Y0099250D01*
X0202096Y0099211D01*
X0201941Y0099175D01*
X0201786Y0099144D01*
X0201630Y0099116D01*
X0201474Y0099092D01*
X0201317Y0099072D01*
X0201159Y0099056D01*
X0201002Y0099044D01*
X0200843Y0099036D01*
X0200685Y0099032D01*
X0200527Y0099032D01*
X0200369Y0099036D01*
X0200210Y0099044D01*
X0200053Y0099056D01*
X0199895Y0099072D01*
X0199738Y0099092D01*
X0199582Y0099116D01*
X0199426Y0099144D01*
X0199271Y0099175D01*
X0199116Y0099211D01*
X0198963Y0099250D01*
X0198811Y0099293D01*
X0198660Y0099340D01*
X0198510Y0099391D01*
X0198361Y0099446D01*
X0198214Y0099504D01*
X0198068Y0099566D01*
X0197924Y0099631D01*
X0197782Y0099701D01*
X0197641Y0099773D01*
X0197502Y0099850D01*
X0197366Y0099929D01*
X0197231Y0100013D01*
X0197098Y0100099D01*
X0196968Y0100189D01*
X0196840Y0100282D01*
X0196714Y0100378D01*
X0196591Y0100478D01*
X0196470Y0100580D01*
X0196352Y0100685D01*
X0196237Y0100794D01*
X0196124Y0100905D01*
X0196014Y0101019D01*
X0195907Y0101136D01*
X0195803Y0101255D01*
X0195702Y0101377D01*
X0195605Y0101502D01*
X0195510Y0101629D01*
X0195419Y0101758D01*
X0195330Y0101889D01*
X0195246Y0102023D01*
X0195164Y0102159D01*
X0195086Y0102296D01*
X0195012Y0102436D01*
X0194941Y0102578D01*
X0194873Y0102721D01*
X0194809Y0102866D01*
X0194749Y0103012D01*
X0194693Y0103160D01*
X0194640Y0103309D01*
X0194591Y0103460D01*
X0194546Y0103612D01*
X0194505Y0103765D01*
X0194467Y0103918D01*
X0194434Y0104073D01*
X0194404Y0104229D01*
X0194378Y0104385D01*
X0194357Y0104542D01*
X0194339Y0104699D01*
X0194325Y0104857D01*
X0194315Y0105015D01*
X0194309Y0105173D01*
X0194307Y0105331D01*
X0149701Y0128205D02*
X0149703Y0128313D01*
X0149709Y0128422D01*
X0149719Y0128530D01*
X0149733Y0128637D01*
X0149751Y0128744D01*
X0149772Y0128851D01*
X0149798Y0128956D01*
X0149828Y0129061D01*
X0149861Y0129164D01*
X0149898Y0129266D01*
X0149939Y0129366D01*
X0149983Y0129465D01*
X0150032Y0129563D01*
X0150083Y0129658D01*
X0150138Y0129751D01*
X0150197Y0129843D01*
X0150259Y0129932D01*
X0150324Y0130019D01*
X0150392Y0130103D01*
X0150463Y0130185D01*
X0150537Y0130264D01*
X0150614Y0130340D01*
X0150694Y0130414D01*
X0150777Y0130484D01*
X0150862Y0130552D01*
X0150949Y0130616D01*
X0151039Y0130677D01*
X0151131Y0130735D01*
X0151225Y0130789D01*
X0151321Y0130840D01*
X0151418Y0130887D01*
X0151518Y0130931D01*
X0151619Y0130971D01*
X0151721Y0131007D01*
X0151824Y0131039D01*
X0151929Y0131068D01*
X0152035Y0131092D01*
X0152141Y0131113D01*
X0152248Y0131130D01*
X0152356Y0131143D01*
X0152464Y0131152D01*
X0152573Y0131157D01*
X0152681Y0131158D01*
X0152790Y0131155D01*
X0152898Y0131148D01*
X0153006Y0131137D01*
X0153113Y0131122D01*
X0153220Y0131103D01*
X0153326Y0131080D01*
X0153431Y0131054D01*
X0153536Y0131023D01*
X0153638Y0130989D01*
X0153740Y0130951D01*
X0153840Y0130909D01*
X0153939Y0130864D01*
X0154036Y0130815D01*
X0154130Y0130762D01*
X0154223Y0130706D01*
X0154314Y0130647D01*
X0154403Y0130584D01*
X0154489Y0130519D01*
X0154573Y0130450D01*
X0154654Y0130378D01*
X0154732Y0130303D01*
X0154808Y0130225D01*
X0154881Y0130144D01*
X0154951Y0130061D01*
X0155017Y0129976D01*
X0155081Y0129888D01*
X0155141Y0129797D01*
X0155198Y0129705D01*
X0155251Y0129610D01*
X0155301Y0129514D01*
X0155347Y0129416D01*
X0155390Y0129316D01*
X0155429Y0129215D01*
X0155464Y0129112D01*
X0155496Y0129009D01*
X0155523Y0128904D01*
X0155547Y0128798D01*
X0155567Y0128691D01*
X0155583Y0128584D01*
X0155595Y0128476D01*
X0155603Y0128368D01*
X0155607Y0128259D01*
X0155607Y0128151D01*
X0155603Y0128042D01*
X0155595Y0127934D01*
X0155583Y0127826D01*
X0155567Y0127719D01*
X0155547Y0127612D01*
X0155523Y0127506D01*
X0155496Y0127401D01*
X0155464Y0127298D01*
X0155429Y0127195D01*
X0155390Y0127094D01*
X0155347Y0126994D01*
X0155301Y0126896D01*
X0155251Y0126800D01*
X0155198Y0126705D01*
X0155141Y0126613D01*
X0155081Y0126522D01*
X0155017Y0126434D01*
X0154951Y0126349D01*
X0154881Y0126266D01*
X0154808Y0126185D01*
X0154732Y0126107D01*
X0154654Y0126032D01*
X0154573Y0125960D01*
X0154489Y0125891D01*
X0154403Y0125826D01*
X0154314Y0125763D01*
X0154223Y0125704D01*
X0154131Y0125648D01*
X0154036Y0125595D01*
X0153939Y0125546D01*
X0153840Y0125501D01*
X0153740Y0125459D01*
X0153638Y0125421D01*
X0153536Y0125387D01*
X0153431Y0125356D01*
X0153326Y0125330D01*
X0153220Y0125307D01*
X0153113Y0125288D01*
X0153006Y0125273D01*
X0152898Y0125262D01*
X0152790Y0125255D01*
X0152681Y0125252D01*
X0152573Y0125253D01*
X0152464Y0125258D01*
X0152356Y0125267D01*
X0152248Y0125280D01*
X0152141Y0125297D01*
X0152035Y0125318D01*
X0151929Y0125342D01*
X0151824Y0125371D01*
X0151721Y0125403D01*
X0151619Y0125439D01*
X0151518Y0125479D01*
X0151418Y0125523D01*
X0151321Y0125570D01*
X0151225Y0125621D01*
X0151131Y0125675D01*
X0151039Y0125733D01*
X0150949Y0125794D01*
X0150862Y0125858D01*
X0150777Y0125926D01*
X0150694Y0125996D01*
X0150614Y0126070D01*
X0150537Y0126146D01*
X0150463Y0126225D01*
X0150392Y0126307D01*
X0150324Y0126391D01*
X0150259Y0126478D01*
X0150197Y0126567D01*
X0150138Y0126659D01*
X0150083Y0126752D01*
X0150032Y0126847D01*
X0149983Y0126945D01*
X0149939Y0127044D01*
X0149898Y0127144D01*
X0149861Y0127246D01*
X0149828Y0127349D01*
X0149798Y0127454D01*
X0149772Y0127559D01*
X0149751Y0127666D01*
X0149733Y0127773D01*
X0149719Y0127880D01*
X0149709Y0127988D01*
X0149703Y0128097D01*
X0149701Y0128205D01*
X0126985Y0149425D02*
X0126987Y0149562D01*
X0126993Y0149700D01*
X0127003Y0149837D01*
X0127017Y0149973D01*
X0127035Y0150110D01*
X0127057Y0150245D01*
X0127083Y0150380D01*
X0127112Y0150514D01*
X0127146Y0150648D01*
X0127183Y0150780D01*
X0127225Y0150911D01*
X0127270Y0151041D01*
X0127319Y0151169D01*
X0127371Y0151296D01*
X0127428Y0151421D01*
X0127487Y0151545D01*
X0127551Y0151667D01*
X0127618Y0151787D01*
X0127688Y0151905D01*
X0127762Y0152021D01*
X0127839Y0152135D01*
X0127920Y0152246D01*
X0128003Y0152355D01*
X0128090Y0152462D01*
X0128180Y0152565D01*
X0128273Y0152667D01*
X0128369Y0152765D01*
X0128467Y0152861D01*
X0128569Y0152954D01*
X0128672Y0153044D01*
X0128779Y0153131D01*
X0128888Y0153214D01*
X0128999Y0153295D01*
X0129113Y0153372D01*
X0129229Y0153446D01*
X0129347Y0153516D01*
X0129467Y0153583D01*
X0129589Y0153647D01*
X0129713Y0153706D01*
X0129838Y0153763D01*
X0129965Y0153815D01*
X0130093Y0153864D01*
X0130223Y0153909D01*
X0130354Y0153951D01*
X0130486Y0153988D01*
X0130620Y0154022D01*
X0130754Y0154051D01*
X0130889Y0154077D01*
X0131024Y0154099D01*
X0131161Y0154117D01*
X0131297Y0154131D01*
X0131434Y0154141D01*
X0131572Y0154147D01*
X0131709Y0154149D01*
X0131846Y0154147D01*
X0131984Y0154141D01*
X0132121Y0154131D01*
X0132257Y0154117D01*
X0132394Y0154099D01*
X0132529Y0154077D01*
X0132664Y0154051D01*
X0132798Y0154022D01*
X0132932Y0153988D01*
X0133064Y0153951D01*
X0133195Y0153909D01*
X0133325Y0153864D01*
X0133453Y0153815D01*
X0133580Y0153763D01*
X0133705Y0153706D01*
X0133829Y0153647D01*
X0133951Y0153583D01*
X0134071Y0153516D01*
X0134189Y0153446D01*
X0134305Y0153372D01*
X0134419Y0153295D01*
X0134530Y0153214D01*
X0134639Y0153131D01*
X0134746Y0153044D01*
X0134849Y0152954D01*
X0134951Y0152861D01*
X0135049Y0152765D01*
X0135145Y0152667D01*
X0135238Y0152565D01*
X0135328Y0152462D01*
X0135415Y0152355D01*
X0135498Y0152246D01*
X0135579Y0152135D01*
X0135656Y0152021D01*
X0135730Y0151905D01*
X0135800Y0151787D01*
X0135867Y0151667D01*
X0135931Y0151545D01*
X0135990Y0151421D01*
X0136047Y0151296D01*
X0136099Y0151169D01*
X0136148Y0151041D01*
X0136193Y0150911D01*
X0136235Y0150780D01*
X0136272Y0150648D01*
X0136306Y0150514D01*
X0136335Y0150380D01*
X0136361Y0150245D01*
X0136383Y0150110D01*
X0136401Y0149973D01*
X0136415Y0149837D01*
X0136425Y0149700D01*
X0136431Y0149562D01*
X0136433Y0149425D01*
X0136431Y0149288D01*
X0136425Y0149150D01*
X0136415Y0149013D01*
X0136401Y0148877D01*
X0136383Y0148740D01*
X0136361Y0148605D01*
X0136335Y0148470D01*
X0136306Y0148336D01*
X0136272Y0148202D01*
X0136235Y0148070D01*
X0136193Y0147939D01*
X0136148Y0147809D01*
X0136099Y0147681D01*
X0136047Y0147554D01*
X0135990Y0147429D01*
X0135931Y0147305D01*
X0135867Y0147183D01*
X0135800Y0147063D01*
X0135730Y0146945D01*
X0135656Y0146829D01*
X0135579Y0146715D01*
X0135498Y0146604D01*
X0135415Y0146495D01*
X0135328Y0146388D01*
X0135238Y0146285D01*
X0135145Y0146183D01*
X0135049Y0146085D01*
X0134951Y0145989D01*
X0134849Y0145896D01*
X0134746Y0145806D01*
X0134639Y0145719D01*
X0134530Y0145636D01*
X0134419Y0145555D01*
X0134305Y0145478D01*
X0134189Y0145404D01*
X0134071Y0145334D01*
X0133951Y0145267D01*
X0133829Y0145203D01*
X0133705Y0145144D01*
X0133580Y0145087D01*
X0133453Y0145035D01*
X0133325Y0144986D01*
X0133195Y0144941D01*
X0133064Y0144899D01*
X0132932Y0144862D01*
X0132798Y0144828D01*
X0132664Y0144799D01*
X0132529Y0144773D01*
X0132394Y0144751D01*
X0132257Y0144733D01*
X0132121Y0144719D01*
X0131984Y0144709D01*
X0131846Y0144703D01*
X0131709Y0144701D01*
X0131572Y0144703D01*
X0131434Y0144709D01*
X0131297Y0144719D01*
X0131161Y0144733D01*
X0131024Y0144751D01*
X0130889Y0144773D01*
X0130754Y0144799D01*
X0130620Y0144828D01*
X0130486Y0144862D01*
X0130354Y0144899D01*
X0130223Y0144941D01*
X0130093Y0144986D01*
X0129965Y0145035D01*
X0129838Y0145087D01*
X0129713Y0145144D01*
X0129589Y0145203D01*
X0129467Y0145267D01*
X0129347Y0145334D01*
X0129229Y0145404D01*
X0129113Y0145478D01*
X0128999Y0145555D01*
X0128888Y0145636D01*
X0128779Y0145719D01*
X0128672Y0145806D01*
X0128569Y0145896D01*
X0128467Y0145989D01*
X0128369Y0146085D01*
X0128273Y0146183D01*
X0128180Y0146285D01*
X0128090Y0146388D01*
X0128003Y0146495D01*
X0127920Y0146604D01*
X0127839Y0146715D01*
X0127762Y0146829D01*
X0127688Y0146945D01*
X0127618Y0147063D01*
X0127551Y0147183D01*
X0127487Y0147305D01*
X0127428Y0147429D01*
X0127371Y0147554D01*
X0127319Y0147681D01*
X0127270Y0147809D01*
X0127225Y0147939D01*
X0127183Y0148070D01*
X0127146Y0148202D01*
X0127112Y0148336D01*
X0127083Y0148470D01*
X0127057Y0148605D01*
X0127035Y0148740D01*
X0127017Y0148877D01*
X0127003Y0149013D01*
X0126993Y0149150D01*
X0126987Y0149288D01*
X0126985Y0149425D01*
X0105725Y0124228D02*
X0105727Y0124365D01*
X0105733Y0124503D01*
X0105743Y0124640D01*
X0105757Y0124776D01*
X0105775Y0124913D01*
X0105797Y0125048D01*
X0105823Y0125183D01*
X0105852Y0125317D01*
X0105886Y0125451D01*
X0105923Y0125583D01*
X0105965Y0125714D01*
X0106010Y0125844D01*
X0106059Y0125972D01*
X0106111Y0126099D01*
X0106168Y0126224D01*
X0106227Y0126348D01*
X0106291Y0126470D01*
X0106358Y0126590D01*
X0106428Y0126708D01*
X0106502Y0126824D01*
X0106579Y0126938D01*
X0106660Y0127049D01*
X0106743Y0127158D01*
X0106830Y0127265D01*
X0106920Y0127368D01*
X0107013Y0127470D01*
X0107109Y0127568D01*
X0107207Y0127664D01*
X0107309Y0127757D01*
X0107412Y0127847D01*
X0107519Y0127934D01*
X0107628Y0128017D01*
X0107739Y0128098D01*
X0107853Y0128175D01*
X0107969Y0128249D01*
X0108087Y0128319D01*
X0108207Y0128386D01*
X0108329Y0128450D01*
X0108453Y0128509D01*
X0108578Y0128566D01*
X0108705Y0128618D01*
X0108833Y0128667D01*
X0108963Y0128712D01*
X0109094Y0128754D01*
X0109226Y0128791D01*
X0109360Y0128825D01*
X0109494Y0128854D01*
X0109629Y0128880D01*
X0109764Y0128902D01*
X0109901Y0128920D01*
X0110037Y0128934D01*
X0110174Y0128944D01*
X0110312Y0128950D01*
X0110449Y0128952D01*
X0110586Y0128950D01*
X0110724Y0128944D01*
X0110861Y0128934D01*
X0110997Y0128920D01*
X0111134Y0128902D01*
X0111269Y0128880D01*
X0111404Y0128854D01*
X0111538Y0128825D01*
X0111672Y0128791D01*
X0111804Y0128754D01*
X0111935Y0128712D01*
X0112065Y0128667D01*
X0112193Y0128618D01*
X0112320Y0128566D01*
X0112445Y0128509D01*
X0112569Y0128450D01*
X0112691Y0128386D01*
X0112811Y0128319D01*
X0112929Y0128249D01*
X0113045Y0128175D01*
X0113159Y0128098D01*
X0113270Y0128017D01*
X0113379Y0127934D01*
X0113486Y0127847D01*
X0113589Y0127757D01*
X0113691Y0127664D01*
X0113789Y0127568D01*
X0113885Y0127470D01*
X0113978Y0127368D01*
X0114068Y0127265D01*
X0114155Y0127158D01*
X0114238Y0127049D01*
X0114319Y0126938D01*
X0114396Y0126824D01*
X0114470Y0126708D01*
X0114540Y0126590D01*
X0114607Y0126470D01*
X0114671Y0126348D01*
X0114730Y0126224D01*
X0114787Y0126099D01*
X0114839Y0125972D01*
X0114888Y0125844D01*
X0114933Y0125714D01*
X0114975Y0125583D01*
X0115012Y0125451D01*
X0115046Y0125317D01*
X0115075Y0125183D01*
X0115101Y0125048D01*
X0115123Y0124913D01*
X0115141Y0124776D01*
X0115155Y0124640D01*
X0115165Y0124503D01*
X0115171Y0124365D01*
X0115173Y0124228D01*
X0115171Y0124091D01*
X0115165Y0123953D01*
X0115155Y0123816D01*
X0115141Y0123680D01*
X0115123Y0123543D01*
X0115101Y0123408D01*
X0115075Y0123273D01*
X0115046Y0123139D01*
X0115012Y0123005D01*
X0114975Y0122873D01*
X0114933Y0122742D01*
X0114888Y0122612D01*
X0114839Y0122484D01*
X0114787Y0122357D01*
X0114730Y0122232D01*
X0114671Y0122108D01*
X0114607Y0121986D01*
X0114540Y0121866D01*
X0114470Y0121748D01*
X0114396Y0121632D01*
X0114319Y0121518D01*
X0114238Y0121407D01*
X0114155Y0121298D01*
X0114068Y0121191D01*
X0113978Y0121088D01*
X0113885Y0120986D01*
X0113789Y0120888D01*
X0113691Y0120792D01*
X0113589Y0120699D01*
X0113486Y0120609D01*
X0113379Y0120522D01*
X0113270Y0120439D01*
X0113159Y0120358D01*
X0113045Y0120281D01*
X0112929Y0120207D01*
X0112811Y0120137D01*
X0112691Y0120070D01*
X0112569Y0120006D01*
X0112445Y0119947D01*
X0112320Y0119890D01*
X0112193Y0119838D01*
X0112065Y0119789D01*
X0111935Y0119744D01*
X0111804Y0119702D01*
X0111672Y0119665D01*
X0111538Y0119631D01*
X0111404Y0119602D01*
X0111269Y0119576D01*
X0111134Y0119554D01*
X0110997Y0119536D01*
X0110861Y0119522D01*
X0110724Y0119512D01*
X0110586Y0119506D01*
X0110449Y0119504D01*
X0110312Y0119506D01*
X0110174Y0119512D01*
X0110037Y0119522D01*
X0109901Y0119536D01*
X0109764Y0119554D01*
X0109629Y0119576D01*
X0109494Y0119602D01*
X0109360Y0119631D01*
X0109226Y0119665D01*
X0109094Y0119702D01*
X0108963Y0119744D01*
X0108833Y0119789D01*
X0108705Y0119838D01*
X0108578Y0119890D01*
X0108453Y0119947D01*
X0108329Y0120006D01*
X0108207Y0120070D01*
X0108087Y0120137D01*
X0107969Y0120207D01*
X0107853Y0120281D01*
X0107739Y0120358D01*
X0107628Y0120439D01*
X0107519Y0120522D01*
X0107412Y0120609D01*
X0107309Y0120699D01*
X0107207Y0120792D01*
X0107109Y0120888D01*
X0107013Y0120986D01*
X0106920Y0121088D01*
X0106830Y0121191D01*
X0106743Y0121298D01*
X0106660Y0121407D01*
X0106579Y0121518D01*
X0106502Y0121632D01*
X0106428Y0121748D01*
X0106358Y0121866D01*
X0106291Y0121986D01*
X0106227Y0122108D01*
X0106168Y0122232D01*
X0106111Y0122357D01*
X0106059Y0122484D01*
X0106010Y0122612D01*
X0105965Y0122742D01*
X0105923Y0122873D01*
X0105886Y0123005D01*
X0105852Y0123139D01*
X0105823Y0123273D01*
X0105797Y0123408D01*
X0105775Y0123543D01*
X0105757Y0123680D01*
X0105743Y0123816D01*
X0105733Y0123953D01*
X0105727Y0124091D01*
X0105725Y0124228D01*
X0101788Y0105331D02*
X0101790Y0105468D01*
X0101796Y0105606D01*
X0101806Y0105743D01*
X0101820Y0105879D01*
X0101838Y0106016D01*
X0101860Y0106151D01*
X0101886Y0106286D01*
X0101915Y0106420D01*
X0101949Y0106554D01*
X0101986Y0106686D01*
X0102028Y0106817D01*
X0102073Y0106947D01*
X0102122Y0107075D01*
X0102174Y0107202D01*
X0102231Y0107327D01*
X0102290Y0107451D01*
X0102354Y0107573D01*
X0102421Y0107693D01*
X0102491Y0107811D01*
X0102565Y0107927D01*
X0102642Y0108041D01*
X0102723Y0108152D01*
X0102806Y0108261D01*
X0102893Y0108368D01*
X0102983Y0108471D01*
X0103076Y0108573D01*
X0103172Y0108671D01*
X0103270Y0108767D01*
X0103372Y0108860D01*
X0103475Y0108950D01*
X0103582Y0109037D01*
X0103691Y0109120D01*
X0103802Y0109201D01*
X0103916Y0109278D01*
X0104032Y0109352D01*
X0104150Y0109422D01*
X0104270Y0109489D01*
X0104392Y0109553D01*
X0104516Y0109612D01*
X0104641Y0109669D01*
X0104768Y0109721D01*
X0104896Y0109770D01*
X0105026Y0109815D01*
X0105157Y0109857D01*
X0105289Y0109894D01*
X0105423Y0109928D01*
X0105557Y0109957D01*
X0105692Y0109983D01*
X0105827Y0110005D01*
X0105964Y0110023D01*
X0106100Y0110037D01*
X0106237Y0110047D01*
X0106375Y0110053D01*
X0106512Y0110055D01*
X0106649Y0110053D01*
X0106787Y0110047D01*
X0106924Y0110037D01*
X0107060Y0110023D01*
X0107197Y0110005D01*
X0107332Y0109983D01*
X0107467Y0109957D01*
X0107601Y0109928D01*
X0107735Y0109894D01*
X0107867Y0109857D01*
X0107998Y0109815D01*
X0108128Y0109770D01*
X0108256Y0109721D01*
X0108383Y0109669D01*
X0108508Y0109612D01*
X0108632Y0109553D01*
X0108754Y0109489D01*
X0108874Y0109422D01*
X0108992Y0109352D01*
X0109108Y0109278D01*
X0109222Y0109201D01*
X0109333Y0109120D01*
X0109442Y0109037D01*
X0109549Y0108950D01*
X0109652Y0108860D01*
X0109754Y0108767D01*
X0109852Y0108671D01*
X0109948Y0108573D01*
X0110041Y0108471D01*
X0110131Y0108368D01*
X0110218Y0108261D01*
X0110301Y0108152D01*
X0110382Y0108041D01*
X0110459Y0107927D01*
X0110533Y0107811D01*
X0110603Y0107693D01*
X0110670Y0107573D01*
X0110734Y0107451D01*
X0110793Y0107327D01*
X0110850Y0107202D01*
X0110902Y0107075D01*
X0110951Y0106947D01*
X0110996Y0106817D01*
X0111038Y0106686D01*
X0111075Y0106554D01*
X0111109Y0106420D01*
X0111138Y0106286D01*
X0111164Y0106151D01*
X0111186Y0106016D01*
X0111204Y0105879D01*
X0111218Y0105743D01*
X0111228Y0105606D01*
X0111234Y0105468D01*
X0111236Y0105331D01*
X0111234Y0105194D01*
X0111228Y0105056D01*
X0111218Y0104919D01*
X0111204Y0104783D01*
X0111186Y0104646D01*
X0111164Y0104511D01*
X0111138Y0104376D01*
X0111109Y0104242D01*
X0111075Y0104108D01*
X0111038Y0103976D01*
X0110996Y0103845D01*
X0110951Y0103715D01*
X0110902Y0103587D01*
X0110850Y0103460D01*
X0110793Y0103335D01*
X0110734Y0103211D01*
X0110670Y0103089D01*
X0110603Y0102969D01*
X0110533Y0102851D01*
X0110459Y0102735D01*
X0110382Y0102621D01*
X0110301Y0102510D01*
X0110218Y0102401D01*
X0110131Y0102294D01*
X0110041Y0102191D01*
X0109948Y0102089D01*
X0109852Y0101991D01*
X0109754Y0101895D01*
X0109652Y0101802D01*
X0109549Y0101712D01*
X0109442Y0101625D01*
X0109333Y0101542D01*
X0109222Y0101461D01*
X0109108Y0101384D01*
X0108992Y0101310D01*
X0108874Y0101240D01*
X0108754Y0101173D01*
X0108632Y0101109D01*
X0108508Y0101050D01*
X0108383Y0100993D01*
X0108256Y0100941D01*
X0108128Y0100892D01*
X0107998Y0100847D01*
X0107867Y0100805D01*
X0107735Y0100768D01*
X0107601Y0100734D01*
X0107467Y0100705D01*
X0107332Y0100679D01*
X0107197Y0100657D01*
X0107060Y0100639D01*
X0106924Y0100625D01*
X0106787Y0100615D01*
X0106649Y0100609D01*
X0106512Y0100607D01*
X0106375Y0100609D01*
X0106237Y0100615D01*
X0106100Y0100625D01*
X0105964Y0100639D01*
X0105827Y0100657D01*
X0105692Y0100679D01*
X0105557Y0100705D01*
X0105423Y0100734D01*
X0105289Y0100768D01*
X0105157Y0100805D01*
X0105026Y0100847D01*
X0104896Y0100892D01*
X0104768Y0100941D01*
X0104641Y0100993D01*
X0104516Y0101050D01*
X0104392Y0101109D01*
X0104270Y0101173D01*
X0104150Y0101240D01*
X0104032Y0101310D01*
X0103916Y0101384D01*
X0103802Y0101461D01*
X0103691Y0101542D01*
X0103582Y0101625D01*
X0103475Y0101712D01*
X0103372Y0101802D01*
X0103270Y0101895D01*
X0103172Y0101991D01*
X0103076Y0102089D01*
X0102983Y0102191D01*
X0102893Y0102294D01*
X0102806Y0102401D01*
X0102723Y0102510D01*
X0102642Y0102621D01*
X0102565Y0102735D01*
X0102491Y0102851D01*
X0102421Y0102969D01*
X0102354Y0103089D01*
X0102290Y0103211D01*
X0102231Y0103335D01*
X0102174Y0103460D01*
X0102122Y0103587D01*
X0102073Y0103715D01*
X0102028Y0103845D01*
X0101986Y0103976D01*
X0101949Y0104108D01*
X0101915Y0104242D01*
X0101886Y0104376D01*
X0101860Y0104511D01*
X0101838Y0104646D01*
X0101820Y0104783D01*
X0101806Y0104919D01*
X0101796Y0105056D01*
X0101790Y0105194D01*
X0101788Y0105331D01*
X0161512Y0187260D02*
X0161514Y0187368D01*
X0161520Y0187477D01*
X0161530Y0187585D01*
X0161544Y0187692D01*
X0161562Y0187799D01*
X0161583Y0187906D01*
X0161609Y0188011D01*
X0161639Y0188116D01*
X0161672Y0188219D01*
X0161709Y0188321D01*
X0161750Y0188421D01*
X0161794Y0188520D01*
X0161843Y0188618D01*
X0161894Y0188713D01*
X0161949Y0188806D01*
X0162008Y0188898D01*
X0162070Y0188987D01*
X0162135Y0189074D01*
X0162203Y0189158D01*
X0162274Y0189240D01*
X0162348Y0189319D01*
X0162425Y0189395D01*
X0162505Y0189469D01*
X0162588Y0189539D01*
X0162673Y0189607D01*
X0162760Y0189671D01*
X0162850Y0189732D01*
X0162942Y0189790D01*
X0163036Y0189844D01*
X0163132Y0189895D01*
X0163229Y0189942D01*
X0163329Y0189986D01*
X0163430Y0190026D01*
X0163532Y0190062D01*
X0163635Y0190094D01*
X0163740Y0190123D01*
X0163846Y0190147D01*
X0163952Y0190168D01*
X0164059Y0190185D01*
X0164167Y0190198D01*
X0164275Y0190207D01*
X0164384Y0190212D01*
X0164492Y0190213D01*
X0164601Y0190210D01*
X0164709Y0190203D01*
X0164817Y0190192D01*
X0164924Y0190177D01*
X0165031Y0190158D01*
X0165137Y0190135D01*
X0165242Y0190109D01*
X0165347Y0190078D01*
X0165449Y0190044D01*
X0165551Y0190006D01*
X0165651Y0189964D01*
X0165750Y0189919D01*
X0165847Y0189870D01*
X0165941Y0189817D01*
X0166034Y0189761D01*
X0166125Y0189702D01*
X0166214Y0189639D01*
X0166300Y0189574D01*
X0166384Y0189505D01*
X0166465Y0189433D01*
X0166543Y0189358D01*
X0166619Y0189280D01*
X0166692Y0189199D01*
X0166762Y0189116D01*
X0166828Y0189031D01*
X0166892Y0188943D01*
X0166952Y0188852D01*
X0167009Y0188760D01*
X0167062Y0188665D01*
X0167112Y0188569D01*
X0167158Y0188471D01*
X0167201Y0188371D01*
X0167240Y0188270D01*
X0167275Y0188167D01*
X0167307Y0188064D01*
X0167334Y0187959D01*
X0167358Y0187853D01*
X0167378Y0187746D01*
X0167394Y0187639D01*
X0167406Y0187531D01*
X0167414Y0187423D01*
X0167418Y0187314D01*
X0167418Y0187206D01*
X0167414Y0187097D01*
X0167406Y0186989D01*
X0167394Y0186881D01*
X0167378Y0186774D01*
X0167358Y0186667D01*
X0167334Y0186561D01*
X0167307Y0186456D01*
X0167275Y0186353D01*
X0167240Y0186250D01*
X0167201Y0186149D01*
X0167158Y0186049D01*
X0167112Y0185951D01*
X0167062Y0185855D01*
X0167009Y0185760D01*
X0166952Y0185668D01*
X0166892Y0185577D01*
X0166828Y0185489D01*
X0166762Y0185404D01*
X0166692Y0185321D01*
X0166619Y0185240D01*
X0166543Y0185162D01*
X0166465Y0185087D01*
X0166384Y0185015D01*
X0166300Y0184946D01*
X0166214Y0184881D01*
X0166125Y0184818D01*
X0166034Y0184759D01*
X0165942Y0184703D01*
X0165847Y0184650D01*
X0165750Y0184601D01*
X0165651Y0184556D01*
X0165551Y0184514D01*
X0165449Y0184476D01*
X0165347Y0184442D01*
X0165242Y0184411D01*
X0165137Y0184385D01*
X0165031Y0184362D01*
X0164924Y0184343D01*
X0164817Y0184328D01*
X0164709Y0184317D01*
X0164601Y0184310D01*
X0164492Y0184307D01*
X0164384Y0184308D01*
X0164275Y0184313D01*
X0164167Y0184322D01*
X0164059Y0184335D01*
X0163952Y0184352D01*
X0163846Y0184373D01*
X0163740Y0184397D01*
X0163635Y0184426D01*
X0163532Y0184458D01*
X0163430Y0184494D01*
X0163329Y0184534D01*
X0163229Y0184578D01*
X0163132Y0184625D01*
X0163036Y0184676D01*
X0162942Y0184730D01*
X0162850Y0184788D01*
X0162760Y0184849D01*
X0162673Y0184913D01*
X0162588Y0184981D01*
X0162505Y0185051D01*
X0162425Y0185125D01*
X0162348Y0185201D01*
X0162274Y0185280D01*
X0162203Y0185362D01*
X0162135Y0185446D01*
X0162070Y0185533D01*
X0162008Y0185622D01*
X0161949Y0185714D01*
X0161894Y0185807D01*
X0161843Y0185902D01*
X0161794Y0186000D01*
X0161750Y0186099D01*
X0161709Y0186199D01*
X0161672Y0186301D01*
X0161639Y0186404D01*
X0161609Y0186509D01*
X0161583Y0186614D01*
X0161562Y0186721D01*
X0161544Y0186828D01*
X0161530Y0186935D01*
X0161520Y0187043D01*
X0161514Y0187152D01*
X0161512Y0187260D01*
X0216630Y0210882D02*
X0216632Y0210990D01*
X0216638Y0211099D01*
X0216648Y0211207D01*
X0216662Y0211314D01*
X0216680Y0211421D01*
X0216701Y0211528D01*
X0216727Y0211633D01*
X0216757Y0211738D01*
X0216790Y0211841D01*
X0216827Y0211943D01*
X0216868Y0212043D01*
X0216912Y0212142D01*
X0216961Y0212240D01*
X0217012Y0212335D01*
X0217067Y0212428D01*
X0217126Y0212520D01*
X0217188Y0212609D01*
X0217253Y0212696D01*
X0217321Y0212780D01*
X0217392Y0212862D01*
X0217466Y0212941D01*
X0217543Y0213017D01*
X0217623Y0213091D01*
X0217706Y0213161D01*
X0217791Y0213229D01*
X0217878Y0213293D01*
X0217968Y0213354D01*
X0218060Y0213412D01*
X0218154Y0213466D01*
X0218250Y0213517D01*
X0218347Y0213564D01*
X0218447Y0213608D01*
X0218548Y0213648D01*
X0218650Y0213684D01*
X0218753Y0213716D01*
X0218858Y0213745D01*
X0218964Y0213769D01*
X0219070Y0213790D01*
X0219177Y0213807D01*
X0219285Y0213820D01*
X0219393Y0213829D01*
X0219502Y0213834D01*
X0219610Y0213835D01*
X0219719Y0213832D01*
X0219827Y0213825D01*
X0219935Y0213814D01*
X0220042Y0213799D01*
X0220149Y0213780D01*
X0220255Y0213757D01*
X0220360Y0213731D01*
X0220465Y0213700D01*
X0220567Y0213666D01*
X0220669Y0213628D01*
X0220769Y0213586D01*
X0220868Y0213541D01*
X0220965Y0213492D01*
X0221059Y0213439D01*
X0221152Y0213383D01*
X0221243Y0213324D01*
X0221332Y0213261D01*
X0221418Y0213196D01*
X0221502Y0213127D01*
X0221583Y0213055D01*
X0221661Y0212980D01*
X0221737Y0212902D01*
X0221810Y0212821D01*
X0221880Y0212738D01*
X0221946Y0212653D01*
X0222010Y0212565D01*
X0222070Y0212474D01*
X0222127Y0212382D01*
X0222180Y0212287D01*
X0222230Y0212191D01*
X0222276Y0212093D01*
X0222319Y0211993D01*
X0222358Y0211892D01*
X0222393Y0211789D01*
X0222425Y0211686D01*
X0222452Y0211581D01*
X0222476Y0211475D01*
X0222496Y0211368D01*
X0222512Y0211261D01*
X0222524Y0211153D01*
X0222532Y0211045D01*
X0222536Y0210936D01*
X0222536Y0210828D01*
X0222532Y0210719D01*
X0222524Y0210611D01*
X0222512Y0210503D01*
X0222496Y0210396D01*
X0222476Y0210289D01*
X0222452Y0210183D01*
X0222425Y0210078D01*
X0222393Y0209975D01*
X0222358Y0209872D01*
X0222319Y0209771D01*
X0222276Y0209671D01*
X0222230Y0209573D01*
X0222180Y0209477D01*
X0222127Y0209382D01*
X0222070Y0209290D01*
X0222010Y0209199D01*
X0221946Y0209111D01*
X0221880Y0209026D01*
X0221810Y0208943D01*
X0221737Y0208862D01*
X0221661Y0208784D01*
X0221583Y0208709D01*
X0221502Y0208637D01*
X0221418Y0208568D01*
X0221332Y0208503D01*
X0221243Y0208440D01*
X0221152Y0208381D01*
X0221060Y0208325D01*
X0220965Y0208272D01*
X0220868Y0208223D01*
X0220769Y0208178D01*
X0220669Y0208136D01*
X0220567Y0208098D01*
X0220465Y0208064D01*
X0220360Y0208033D01*
X0220255Y0208007D01*
X0220149Y0207984D01*
X0220042Y0207965D01*
X0219935Y0207950D01*
X0219827Y0207939D01*
X0219719Y0207932D01*
X0219610Y0207929D01*
X0219502Y0207930D01*
X0219393Y0207935D01*
X0219285Y0207944D01*
X0219177Y0207957D01*
X0219070Y0207974D01*
X0218964Y0207995D01*
X0218858Y0208019D01*
X0218753Y0208048D01*
X0218650Y0208080D01*
X0218548Y0208116D01*
X0218447Y0208156D01*
X0218347Y0208200D01*
X0218250Y0208247D01*
X0218154Y0208298D01*
X0218060Y0208352D01*
X0217968Y0208410D01*
X0217878Y0208471D01*
X0217791Y0208535D01*
X0217706Y0208603D01*
X0217623Y0208673D01*
X0217543Y0208747D01*
X0217466Y0208823D01*
X0217392Y0208902D01*
X0217321Y0208984D01*
X0217253Y0209068D01*
X0217188Y0209155D01*
X0217126Y0209244D01*
X0217067Y0209336D01*
X0217012Y0209429D01*
X0216961Y0209524D01*
X0216912Y0209622D01*
X0216868Y0209721D01*
X0216827Y0209821D01*
X0216790Y0209923D01*
X0216757Y0210026D01*
X0216727Y0210131D01*
X0216701Y0210236D01*
X0216680Y0210343D01*
X0216662Y0210450D01*
X0216648Y0210557D01*
X0216638Y0210665D01*
X0216632Y0210774D01*
X0216630Y0210882D01*
X0223441Y0178953D02*
X0223443Y0179090D01*
X0223449Y0179228D01*
X0223459Y0179365D01*
X0223473Y0179501D01*
X0223491Y0179638D01*
X0223513Y0179773D01*
X0223539Y0179908D01*
X0223568Y0180042D01*
X0223602Y0180176D01*
X0223639Y0180308D01*
X0223681Y0180439D01*
X0223726Y0180569D01*
X0223775Y0180697D01*
X0223827Y0180824D01*
X0223884Y0180949D01*
X0223943Y0181073D01*
X0224007Y0181195D01*
X0224074Y0181315D01*
X0224144Y0181433D01*
X0224218Y0181549D01*
X0224295Y0181663D01*
X0224376Y0181774D01*
X0224459Y0181883D01*
X0224546Y0181990D01*
X0224636Y0182093D01*
X0224729Y0182195D01*
X0224825Y0182293D01*
X0224923Y0182389D01*
X0225025Y0182482D01*
X0225128Y0182572D01*
X0225235Y0182659D01*
X0225344Y0182742D01*
X0225455Y0182823D01*
X0225569Y0182900D01*
X0225685Y0182974D01*
X0225803Y0183044D01*
X0225923Y0183111D01*
X0226045Y0183175D01*
X0226169Y0183234D01*
X0226294Y0183291D01*
X0226421Y0183343D01*
X0226549Y0183392D01*
X0226679Y0183437D01*
X0226810Y0183479D01*
X0226942Y0183516D01*
X0227076Y0183550D01*
X0227210Y0183579D01*
X0227345Y0183605D01*
X0227480Y0183627D01*
X0227617Y0183645D01*
X0227753Y0183659D01*
X0227890Y0183669D01*
X0228028Y0183675D01*
X0228165Y0183677D01*
X0228302Y0183675D01*
X0228440Y0183669D01*
X0228577Y0183659D01*
X0228713Y0183645D01*
X0228850Y0183627D01*
X0228985Y0183605D01*
X0229120Y0183579D01*
X0229254Y0183550D01*
X0229388Y0183516D01*
X0229520Y0183479D01*
X0229651Y0183437D01*
X0229781Y0183392D01*
X0229909Y0183343D01*
X0230036Y0183291D01*
X0230161Y0183234D01*
X0230285Y0183175D01*
X0230407Y0183111D01*
X0230527Y0183044D01*
X0230645Y0182974D01*
X0230761Y0182900D01*
X0230875Y0182823D01*
X0230986Y0182742D01*
X0231095Y0182659D01*
X0231202Y0182572D01*
X0231305Y0182482D01*
X0231407Y0182389D01*
X0231505Y0182293D01*
X0231601Y0182195D01*
X0231694Y0182093D01*
X0231784Y0181990D01*
X0231871Y0181883D01*
X0231954Y0181774D01*
X0232035Y0181663D01*
X0232112Y0181549D01*
X0232186Y0181433D01*
X0232256Y0181315D01*
X0232323Y0181195D01*
X0232387Y0181073D01*
X0232446Y0180949D01*
X0232503Y0180824D01*
X0232555Y0180697D01*
X0232604Y0180569D01*
X0232649Y0180439D01*
X0232691Y0180308D01*
X0232728Y0180176D01*
X0232762Y0180042D01*
X0232791Y0179908D01*
X0232817Y0179773D01*
X0232839Y0179638D01*
X0232857Y0179501D01*
X0232871Y0179365D01*
X0232881Y0179228D01*
X0232887Y0179090D01*
X0232889Y0178953D01*
X0232887Y0178816D01*
X0232881Y0178678D01*
X0232871Y0178541D01*
X0232857Y0178405D01*
X0232839Y0178268D01*
X0232817Y0178133D01*
X0232791Y0177998D01*
X0232762Y0177864D01*
X0232728Y0177730D01*
X0232691Y0177598D01*
X0232649Y0177467D01*
X0232604Y0177337D01*
X0232555Y0177209D01*
X0232503Y0177082D01*
X0232446Y0176957D01*
X0232387Y0176833D01*
X0232323Y0176711D01*
X0232256Y0176591D01*
X0232186Y0176473D01*
X0232112Y0176357D01*
X0232035Y0176243D01*
X0231954Y0176132D01*
X0231871Y0176023D01*
X0231784Y0175916D01*
X0231694Y0175813D01*
X0231601Y0175711D01*
X0231505Y0175613D01*
X0231407Y0175517D01*
X0231305Y0175424D01*
X0231202Y0175334D01*
X0231095Y0175247D01*
X0230986Y0175164D01*
X0230875Y0175083D01*
X0230761Y0175006D01*
X0230645Y0174932D01*
X0230527Y0174862D01*
X0230407Y0174795D01*
X0230285Y0174731D01*
X0230161Y0174672D01*
X0230036Y0174615D01*
X0229909Y0174563D01*
X0229781Y0174514D01*
X0229651Y0174469D01*
X0229520Y0174427D01*
X0229388Y0174390D01*
X0229254Y0174356D01*
X0229120Y0174327D01*
X0228985Y0174301D01*
X0228850Y0174279D01*
X0228713Y0174261D01*
X0228577Y0174247D01*
X0228440Y0174237D01*
X0228302Y0174231D01*
X0228165Y0174229D01*
X0228028Y0174231D01*
X0227890Y0174237D01*
X0227753Y0174247D01*
X0227617Y0174261D01*
X0227480Y0174279D01*
X0227345Y0174301D01*
X0227210Y0174327D01*
X0227076Y0174356D01*
X0226942Y0174390D01*
X0226810Y0174427D01*
X0226679Y0174469D01*
X0226549Y0174514D01*
X0226421Y0174563D01*
X0226294Y0174615D01*
X0226169Y0174672D01*
X0226045Y0174731D01*
X0225923Y0174795D01*
X0225803Y0174862D01*
X0225685Y0174932D01*
X0225569Y0175006D01*
X0225455Y0175083D01*
X0225344Y0175164D01*
X0225235Y0175247D01*
X0225128Y0175334D01*
X0225025Y0175424D01*
X0224923Y0175517D01*
X0224825Y0175613D01*
X0224729Y0175711D01*
X0224636Y0175813D01*
X0224546Y0175916D01*
X0224459Y0176023D01*
X0224376Y0176132D01*
X0224295Y0176243D01*
X0224218Y0176357D01*
X0224144Y0176473D01*
X0224074Y0176591D01*
X0224007Y0176711D01*
X0223943Y0176833D01*
X0223884Y0176957D01*
X0223827Y0177082D01*
X0223775Y0177209D01*
X0223726Y0177337D01*
X0223681Y0177467D01*
X0223639Y0177598D01*
X0223602Y0177730D01*
X0223568Y0177864D01*
X0223539Y0177998D01*
X0223513Y0178133D01*
X0223491Y0178268D01*
X0223473Y0178405D01*
X0223459Y0178541D01*
X0223449Y0178678D01*
X0223443Y0178816D01*
X0223441Y0178953D01*
X0233677Y0139583D02*
X0233679Y0139741D01*
X0233685Y0139899D01*
X0233695Y0140057D01*
X0233709Y0140215D01*
X0233727Y0140372D01*
X0233748Y0140529D01*
X0233774Y0140685D01*
X0233804Y0140841D01*
X0233837Y0140996D01*
X0233875Y0141149D01*
X0233916Y0141302D01*
X0233961Y0141454D01*
X0234010Y0141605D01*
X0234063Y0141754D01*
X0234119Y0141902D01*
X0234179Y0142048D01*
X0234243Y0142193D01*
X0234311Y0142336D01*
X0234382Y0142478D01*
X0234456Y0142618D01*
X0234534Y0142755D01*
X0234616Y0142891D01*
X0234700Y0143025D01*
X0234789Y0143156D01*
X0234880Y0143285D01*
X0234975Y0143412D01*
X0235072Y0143537D01*
X0235173Y0143659D01*
X0235277Y0143778D01*
X0235384Y0143895D01*
X0235494Y0144009D01*
X0235607Y0144120D01*
X0235722Y0144229D01*
X0235840Y0144334D01*
X0235961Y0144436D01*
X0236084Y0144536D01*
X0236210Y0144632D01*
X0236338Y0144725D01*
X0236468Y0144815D01*
X0236601Y0144901D01*
X0236736Y0144985D01*
X0236872Y0145064D01*
X0237011Y0145141D01*
X0237152Y0145213D01*
X0237294Y0145283D01*
X0237438Y0145348D01*
X0237584Y0145410D01*
X0237731Y0145468D01*
X0237880Y0145523D01*
X0238030Y0145574D01*
X0238181Y0145621D01*
X0238333Y0145664D01*
X0238486Y0145703D01*
X0238641Y0145739D01*
X0238796Y0145770D01*
X0238952Y0145798D01*
X0239108Y0145822D01*
X0239265Y0145842D01*
X0239423Y0145858D01*
X0239580Y0145870D01*
X0239739Y0145878D01*
X0239897Y0145882D01*
X0240055Y0145882D01*
X0240213Y0145878D01*
X0240372Y0145870D01*
X0240529Y0145858D01*
X0240687Y0145842D01*
X0240844Y0145822D01*
X0241000Y0145798D01*
X0241156Y0145770D01*
X0241311Y0145739D01*
X0241466Y0145703D01*
X0241619Y0145664D01*
X0241771Y0145621D01*
X0241922Y0145574D01*
X0242072Y0145523D01*
X0242221Y0145468D01*
X0242368Y0145410D01*
X0242514Y0145348D01*
X0242658Y0145283D01*
X0242800Y0145213D01*
X0242941Y0145141D01*
X0243080Y0145064D01*
X0243216Y0144985D01*
X0243351Y0144901D01*
X0243484Y0144815D01*
X0243614Y0144725D01*
X0243742Y0144632D01*
X0243868Y0144536D01*
X0243991Y0144436D01*
X0244112Y0144334D01*
X0244230Y0144229D01*
X0244345Y0144120D01*
X0244458Y0144009D01*
X0244568Y0143895D01*
X0244675Y0143778D01*
X0244779Y0143659D01*
X0244880Y0143537D01*
X0244977Y0143412D01*
X0245072Y0143285D01*
X0245163Y0143156D01*
X0245252Y0143025D01*
X0245336Y0142891D01*
X0245418Y0142755D01*
X0245496Y0142618D01*
X0245570Y0142478D01*
X0245641Y0142336D01*
X0245709Y0142193D01*
X0245773Y0142048D01*
X0245833Y0141902D01*
X0245889Y0141754D01*
X0245942Y0141605D01*
X0245991Y0141454D01*
X0246036Y0141302D01*
X0246077Y0141149D01*
X0246115Y0140996D01*
X0246148Y0140841D01*
X0246178Y0140685D01*
X0246204Y0140529D01*
X0246225Y0140372D01*
X0246243Y0140215D01*
X0246257Y0140057D01*
X0246267Y0139899D01*
X0246273Y0139741D01*
X0246275Y0139583D01*
X0246273Y0139425D01*
X0246267Y0139267D01*
X0246257Y0139109D01*
X0246243Y0138951D01*
X0246225Y0138794D01*
X0246204Y0138637D01*
X0246178Y0138481D01*
X0246148Y0138325D01*
X0246115Y0138170D01*
X0246077Y0138017D01*
X0246036Y0137864D01*
X0245991Y0137712D01*
X0245942Y0137561D01*
X0245889Y0137412D01*
X0245833Y0137264D01*
X0245773Y0137118D01*
X0245709Y0136973D01*
X0245641Y0136830D01*
X0245570Y0136688D01*
X0245496Y0136548D01*
X0245418Y0136411D01*
X0245336Y0136275D01*
X0245252Y0136141D01*
X0245163Y0136010D01*
X0245072Y0135881D01*
X0244977Y0135754D01*
X0244880Y0135629D01*
X0244779Y0135507D01*
X0244675Y0135388D01*
X0244568Y0135271D01*
X0244458Y0135157D01*
X0244345Y0135046D01*
X0244230Y0134937D01*
X0244112Y0134832D01*
X0243991Y0134730D01*
X0243868Y0134630D01*
X0243742Y0134534D01*
X0243614Y0134441D01*
X0243484Y0134351D01*
X0243351Y0134265D01*
X0243216Y0134181D01*
X0243080Y0134102D01*
X0242941Y0134025D01*
X0242800Y0133953D01*
X0242658Y0133883D01*
X0242514Y0133818D01*
X0242368Y0133756D01*
X0242221Y0133698D01*
X0242072Y0133643D01*
X0241922Y0133592D01*
X0241771Y0133545D01*
X0241619Y0133502D01*
X0241466Y0133463D01*
X0241311Y0133427D01*
X0241156Y0133396D01*
X0241000Y0133368D01*
X0240844Y0133344D01*
X0240687Y0133324D01*
X0240529Y0133308D01*
X0240372Y0133296D01*
X0240213Y0133288D01*
X0240055Y0133284D01*
X0239897Y0133284D01*
X0239739Y0133288D01*
X0239580Y0133296D01*
X0239423Y0133308D01*
X0239265Y0133324D01*
X0239108Y0133344D01*
X0238952Y0133368D01*
X0238796Y0133396D01*
X0238641Y0133427D01*
X0238486Y0133463D01*
X0238333Y0133502D01*
X0238181Y0133545D01*
X0238030Y0133592D01*
X0237880Y0133643D01*
X0237731Y0133698D01*
X0237584Y0133756D01*
X0237438Y0133818D01*
X0237294Y0133883D01*
X0237152Y0133953D01*
X0237011Y0134025D01*
X0236872Y0134102D01*
X0236736Y0134181D01*
X0236601Y0134265D01*
X0236468Y0134351D01*
X0236338Y0134441D01*
X0236210Y0134534D01*
X0236084Y0134630D01*
X0235961Y0134730D01*
X0235840Y0134832D01*
X0235722Y0134937D01*
X0235607Y0135046D01*
X0235494Y0135157D01*
X0235384Y0135271D01*
X0235277Y0135388D01*
X0235173Y0135507D01*
X0235072Y0135629D01*
X0234975Y0135754D01*
X0234880Y0135881D01*
X0234789Y0136010D01*
X0234700Y0136141D01*
X0234616Y0136275D01*
X0234534Y0136411D01*
X0234456Y0136548D01*
X0234382Y0136688D01*
X0234311Y0136830D01*
X0234243Y0136973D01*
X0234179Y0137118D01*
X0234119Y0137264D01*
X0234063Y0137412D01*
X0234010Y0137561D01*
X0233961Y0137712D01*
X0233916Y0137864D01*
X0233875Y0138017D01*
X0233837Y0138170D01*
X0233804Y0138325D01*
X0233774Y0138481D01*
X0233748Y0138637D01*
X0233727Y0138794D01*
X0233709Y0138951D01*
X0233695Y0139109D01*
X0233685Y0139267D01*
X0233679Y0139425D01*
X0233677Y0139583D01*
X0248126Y0112457D02*
X0248128Y0112565D01*
X0248134Y0112674D01*
X0248144Y0112782D01*
X0248158Y0112889D01*
X0248176Y0112996D01*
X0248197Y0113103D01*
X0248223Y0113208D01*
X0248253Y0113313D01*
X0248286Y0113416D01*
X0248323Y0113518D01*
X0248364Y0113618D01*
X0248408Y0113717D01*
X0248457Y0113815D01*
X0248508Y0113910D01*
X0248563Y0114003D01*
X0248622Y0114095D01*
X0248684Y0114184D01*
X0248749Y0114271D01*
X0248817Y0114355D01*
X0248888Y0114437D01*
X0248962Y0114516D01*
X0249039Y0114592D01*
X0249119Y0114666D01*
X0249202Y0114736D01*
X0249287Y0114804D01*
X0249374Y0114868D01*
X0249464Y0114929D01*
X0249556Y0114987D01*
X0249650Y0115041D01*
X0249746Y0115092D01*
X0249843Y0115139D01*
X0249943Y0115183D01*
X0250044Y0115223D01*
X0250146Y0115259D01*
X0250249Y0115291D01*
X0250354Y0115320D01*
X0250460Y0115344D01*
X0250566Y0115365D01*
X0250673Y0115382D01*
X0250781Y0115395D01*
X0250889Y0115404D01*
X0250998Y0115409D01*
X0251106Y0115410D01*
X0251215Y0115407D01*
X0251323Y0115400D01*
X0251431Y0115389D01*
X0251538Y0115374D01*
X0251645Y0115355D01*
X0251751Y0115332D01*
X0251856Y0115306D01*
X0251961Y0115275D01*
X0252063Y0115241D01*
X0252165Y0115203D01*
X0252265Y0115161D01*
X0252364Y0115116D01*
X0252461Y0115067D01*
X0252555Y0115014D01*
X0252648Y0114958D01*
X0252739Y0114899D01*
X0252828Y0114836D01*
X0252914Y0114771D01*
X0252998Y0114702D01*
X0253079Y0114630D01*
X0253157Y0114555D01*
X0253233Y0114477D01*
X0253306Y0114396D01*
X0253376Y0114313D01*
X0253442Y0114228D01*
X0253506Y0114140D01*
X0253566Y0114049D01*
X0253623Y0113957D01*
X0253676Y0113862D01*
X0253726Y0113766D01*
X0253772Y0113668D01*
X0253815Y0113568D01*
X0253854Y0113467D01*
X0253889Y0113364D01*
X0253921Y0113261D01*
X0253948Y0113156D01*
X0253972Y0113050D01*
X0253992Y0112943D01*
X0254008Y0112836D01*
X0254020Y0112728D01*
X0254028Y0112620D01*
X0254032Y0112511D01*
X0254032Y0112403D01*
X0254028Y0112294D01*
X0254020Y0112186D01*
X0254008Y0112078D01*
X0253992Y0111971D01*
X0253972Y0111864D01*
X0253948Y0111758D01*
X0253921Y0111653D01*
X0253889Y0111550D01*
X0253854Y0111447D01*
X0253815Y0111346D01*
X0253772Y0111246D01*
X0253726Y0111148D01*
X0253676Y0111052D01*
X0253623Y0110957D01*
X0253566Y0110865D01*
X0253506Y0110774D01*
X0253442Y0110686D01*
X0253376Y0110601D01*
X0253306Y0110518D01*
X0253233Y0110437D01*
X0253157Y0110359D01*
X0253079Y0110284D01*
X0252998Y0110212D01*
X0252914Y0110143D01*
X0252828Y0110078D01*
X0252739Y0110015D01*
X0252648Y0109956D01*
X0252556Y0109900D01*
X0252461Y0109847D01*
X0252364Y0109798D01*
X0252265Y0109753D01*
X0252165Y0109711D01*
X0252063Y0109673D01*
X0251961Y0109639D01*
X0251856Y0109608D01*
X0251751Y0109582D01*
X0251645Y0109559D01*
X0251538Y0109540D01*
X0251431Y0109525D01*
X0251323Y0109514D01*
X0251215Y0109507D01*
X0251106Y0109504D01*
X0250998Y0109505D01*
X0250889Y0109510D01*
X0250781Y0109519D01*
X0250673Y0109532D01*
X0250566Y0109549D01*
X0250460Y0109570D01*
X0250354Y0109594D01*
X0250249Y0109623D01*
X0250146Y0109655D01*
X0250044Y0109691D01*
X0249943Y0109731D01*
X0249843Y0109775D01*
X0249746Y0109822D01*
X0249650Y0109873D01*
X0249556Y0109927D01*
X0249464Y0109985D01*
X0249374Y0110046D01*
X0249287Y0110110D01*
X0249202Y0110178D01*
X0249119Y0110248D01*
X0249039Y0110322D01*
X0248962Y0110398D01*
X0248888Y0110477D01*
X0248817Y0110559D01*
X0248749Y0110643D01*
X0248684Y0110730D01*
X0248622Y0110819D01*
X0248563Y0110911D01*
X0248508Y0111004D01*
X0248457Y0111099D01*
X0248408Y0111197D01*
X0248364Y0111296D01*
X0248323Y0111396D01*
X0248286Y0111498D01*
X0248253Y0111601D01*
X0248223Y0111706D01*
X0248197Y0111811D01*
X0248176Y0111918D01*
X0248158Y0112025D01*
X0248144Y0112132D01*
X0248134Y0112240D01*
X0248128Y0112349D01*
X0248126Y0112457D01*
X0276591Y0130921D02*
X0276593Y0131058D01*
X0276599Y0131196D01*
X0276609Y0131333D01*
X0276623Y0131469D01*
X0276641Y0131606D01*
X0276663Y0131741D01*
X0276689Y0131876D01*
X0276718Y0132010D01*
X0276752Y0132144D01*
X0276789Y0132276D01*
X0276831Y0132407D01*
X0276876Y0132537D01*
X0276925Y0132665D01*
X0276977Y0132792D01*
X0277034Y0132917D01*
X0277093Y0133041D01*
X0277157Y0133163D01*
X0277224Y0133283D01*
X0277294Y0133401D01*
X0277368Y0133517D01*
X0277445Y0133631D01*
X0277526Y0133742D01*
X0277609Y0133851D01*
X0277696Y0133958D01*
X0277786Y0134061D01*
X0277879Y0134163D01*
X0277975Y0134261D01*
X0278073Y0134357D01*
X0278175Y0134450D01*
X0278278Y0134540D01*
X0278385Y0134627D01*
X0278494Y0134710D01*
X0278605Y0134791D01*
X0278719Y0134868D01*
X0278835Y0134942D01*
X0278953Y0135012D01*
X0279073Y0135079D01*
X0279195Y0135143D01*
X0279319Y0135202D01*
X0279444Y0135259D01*
X0279571Y0135311D01*
X0279699Y0135360D01*
X0279829Y0135405D01*
X0279960Y0135447D01*
X0280092Y0135484D01*
X0280226Y0135518D01*
X0280360Y0135547D01*
X0280495Y0135573D01*
X0280630Y0135595D01*
X0280767Y0135613D01*
X0280903Y0135627D01*
X0281040Y0135637D01*
X0281178Y0135643D01*
X0281315Y0135645D01*
X0281452Y0135643D01*
X0281590Y0135637D01*
X0281727Y0135627D01*
X0281863Y0135613D01*
X0282000Y0135595D01*
X0282135Y0135573D01*
X0282270Y0135547D01*
X0282404Y0135518D01*
X0282538Y0135484D01*
X0282670Y0135447D01*
X0282801Y0135405D01*
X0282931Y0135360D01*
X0283059Y0135311D01*
X0283186Y0135259D01*
X0283311Y0135202D01*
X0283435Y0135143D01*
X0283557Y0135079D01*
X0283677Y0135012D01*
X0283795Y0134942D01*
X0283911Y0134868D01*
X0284025Y0134791D01*
X0284136Y0134710D01*
X0284245Y0134627D01*
X0284352Y0134540D01*
X0284455Y0134450D01*
X0284557Y0134357D01*
X0284655Y0134261D01*
X0284751Y0134163D01*
X0284844Y0134061D01*
X0284934Y0133958D01*
X0285021Y0133851D01*
X0285104Y0133742D01*
X0285185Y0133631D01*
X0285262Y0133517D01*
X0285336Y0133401D01*
X0285406Y0133283D01*
X0285473Y0133163D01*
X0285537Y0133041D01*
X0285596Y0132917D01*
X0285653Y0132792D01*
X0285705Y0132665D01*
X0285754Y0132537D01*
X0285799Y0132407D01*
X0285841Y0132276D01*
X0285878Y0132144D01*
X0285912Y0132010D01*
X0285941Y0131876D01*
X0285967Y0131741D01*
X0285989Y0131606D01*
X0286007Y0131469D01*
X0286021Y0131333D01*
X0286031Y0131196D01*
X0286037Y0131058D01*
X0286039Y0130921D01*
X0286037Y0130784D01*
X0286031Y0130646D01*
X0286021Y0130509D01*
X0286007Y0130373D01*
X0285989Y0130236D01*
X0285967Y0130101D01*
X0285941Y0129966D01*
X0285912Y0129832D01*
X0285878Y0129698D01*
X0285841Y0129566D01*
X0285799Y0129435D01*
X0285754Y0129305D01*
X0285705Y0129177D01*
X0285653Y0129050D01*
X0285596Y0128925D01*
X0285537Y0128801D01*
X0285473Y0128679D01*
X0285406Y0128559D01*
X0285336Y0128441D01*
X0285262Y0128325D01*
X0285185Y0128211D01*
X0285104Y0128100D01*
X0285021Y0127991D01*
X0284934Y0127884D01*
X0284844Y0127781D01*
X0284751Y0127679D01*
X0284655Y0127581D01*
X0284557Y0127485D01*
X0284455Y0127392D01*
X0284352Y0127302D01*
X0284245Y0127215D01*
X0284136Y0127132D01*
X0284025Y0127051D01*
X0283911Y0126974D01*
X0283795Y0126900D01*
X0283677Y0126830D01*
X0283557Y0126763D01*
X0283435Y0126699D01*
X0283311Y0126640D01*
X0283186Y0126583D01*
X0283059Y0126531D01*
X0282931Y0126482D01*
X0282801Y0126437D01*
X0282670Y0126395D01*
X0282538Y0126358D01*
X0282404Y0126324D01*
X0282270Y0126295D01*
X0282135Y0126269D01*
X0282000Y0126247D01*
X0281863Y0126229D01*
X0281727Y0126215D01*
X0281590Y0126205D01*
X0281452Y0126199D01*
X0281315Y0126197D01*
X0281178Y0126199D01*
X0281040Y0126205D01*
X0280903Y0126215D01*
X0280767Y0126229D01*
X0280630Y0126247D01*
X0280495Y0126269D01*
X0280360Y0126295D01*
X0280226Y0126324D01*
X0280092Y0126358D01*
X0279960Y0126395D01*
X0279829Y0126437D01*
X0279699Y0126482D01*
X0279571Y0126531D01*
X0279444Y0126583D01*
X0279319Y0126640D01*
X0279195Y0126699D01*
X0279073Y0126763D01*
X0278953Y0126830D01*
X0278835Y0126900D01*
X0278719Y0126974D01*
X0278605Y0127051D01*
X0278494Y0127132D01*
X0278385Y0127215D01*
X0278278Y0127302D01*
X0278175Y0127392D01*
X0278073Y0127485D01*
X0277975Y0127581D01*
X0277879Y0127679D01*
X0277786Y0127781D01*
X0277696Y0127884D01*
X0277609Y0127991D01*
X0277526Y0128100D01*
X0277445Y0128211D01*
X0277368Y0128325D01*
X0277294Y0128441D01*
X0277224Y0128559D01*
X0277157Y0128679D01*
X0277093Y0128801D01*
X0277034Y0128925D01*
X0276977Y0129050D01*
X0276925Y0129177D01*
X0276876Y0129305D01*
X0276831Y0129435D01*
X0276789Y0129566D01*
X0276752Y0129698D01*
X0276718Y0129832D01*
X0276689Y0129966D01*
X0276663Y0130101D01*
X0276641Y0130236D01*
X0276623Y0130373D01*
X0276609Y0130509D01*
X0276599Y0130646D01*
X0276593Y0130784D01*
X0276591Y0130921D01*
X0019504Y0109661D02*
X0019506Y0109798D01*
X0019512Y0109936D01*
X0019522Y0110073D01*
X0019536Y0110209D01*
X0019554Y0110346D01*
X0019576Y0110481D01*
X0019602Y0110616D01*
X0019631Y0110750D01*
X0019665Y0110884D01*
X0019702Y0111016D01*
X0019744Y0111147D01*
X0019789Y0111277D01*
X0019838Y0111405D01*
X0019890Y0111532D01*
X0019947Y0111657D01*
X0020006Y0111781D01*
X0020070Y0111903D01*
X0020137Y0112023D01*
X0020207Y0112141D01*
X0020281Y0112257D01*
X0020358Y0112371D01*
X0020439Y0112482D01*
X0020522Y0112591D01*
X0020609Y0112698D01*
X0020699Y0112801D01*
X0020792Y0112903D01*
X0020888Y0113001D01*
X0020986Y0113097D01*
X0021088Y0113190D01*
X0021191Y0113280D01*
X0021298Y0113367D01*
X0021407Y0113450D01*
X0021518Y0113531D01*
X0021632Y0113608D01*
X0021748Y0113682D01*
X0021866Y0113752D01*
X0021986Y0113819D01*
X0022108Y0113883D01*
X0022232Y0113942D01*
X0022357Y0113999D01*
X0022484Y0114051D01*
X0022612Y0114100D01*
X0022742Y0114145D01*
X0022873Y0114187D01*
X0023005Y0114224D01*
X0023139Y0114258D01*
X0023273Y0114287D01*
X0023408Y0114313D01*
X0023543Y0114335D01*
X0023680Y0114353D01*
X0023816Y0114367D01*
X0023953Y0114377D01*
X0024091Y0114383D01*
X0024228Y0114385D01*
X0024365Y0114383D01*
X0024503Y0114377D01*
X0024640Y0114367D01*
X0024776Y0114353D01*
X0024913Y0114335D01*
X0025048Y0114313D01*
X0025183Y0114287D01*
X0025317Y0114258D01*
X0025451Y0114224D01*
X0025583Y0114187D01*
X0025714Y0114145D01*
X0025844Y0114100D01*
X0025972Y0114051D01*
X0026099Y0113999D01*
X0026224Y0113942D01*
X0026348Y0113883D01*
X0026470Y0113819D01*
X0026590Y0113752D01*
X0026708Y0113682D01*
X0026824Y0113608D01*
X0026938Y0113531D01*
X0027049Y0113450D01*
X0027158Y0113367D01*
X0027265Y0113280D01*
X0027368Y0113190D01*
X0027470Y0113097D01*
X0027568Y0113001D01*
X0027664Y0112903D01*
X0027757Y0112801D01*
X0027847Y0112698D01*
X0027934Y0112591D01*
X0028017Y0112482D01*
X0028098Y0112371D01*
X0028175Y0112257D01*
X0028249Y0112141D01*
X0028319Y0112023D01*
X0028386Y0111903D01*
X0028450Y0111781D01*
X0028509Y0111657D01*
X0028566Y0111532D01*
X0028618Y0111405D01*
X0028667Y0111277D01*
X0028712Y0111147D01*
X0028754Y0111016D01*
X0028791Y0110884D01*
X0028825Y0110750D01*
X0028854Y0110616D01*
X0028880Y0110481D01*
X0028902Y0110346D01*
X0028920Y0110209D01*
X0028934Y0110073D01*
X0028944Y0109936D01*
X0028950Y0109798D01*
X0028952Y0109661D01*
X0028950Y0109524D01*
X0028944Y0109386D01*
X0028934Y0109249D01*
X0028920Y0109113D01*
X0028902Y0108976D01*
X0028880Y0108841D01*
X0028854Y0108706D01*
X0028825Y0108572D01*
X0028791Y0108438D01*
X0028754Y0108306D01*
X0028712Y0108175D01*
X0028667Y0108045D01*
X0028618Y0107917D01*
X0028566Y0107790D01*
X0028509Y0107665D01*
X0028450Y0107541D01*
X0028386Y0107419D01*
X0028319Y0107299D01*
X0028249Y0107181D01*
X0028175Y0107065D01*
X0028098Y0106951D01*
X0028017Y0106840D01*
X0027934Y0106731D01*
X0027847Y0106624D01*
X0027757Y0106521D01*
X0027664Y0106419D01*
X0027568Y0106321D01*
X0027470Y0106225D01*
X0027368Y0106132D01*
X0027265Y0106042D01*
X0027158Y0105955D01*
X0027049Y0105872D01*
X0026938Y0105791D01*
X0026824Y0105714D01*
X0026708Y0105640D01*
X0026590Y0105570D01*
X0026470Y0105503D01*
X0026348Y0105439D01*
X0026224Y0105380D01*
X0026099Y0105323D01*
X0025972Y0105271D01*
X0025844Y0105222D01*
X0025714Y0105177D01*
X0025583Y0105135D01*
X0025451Y0105098D01*
X0025317Y0105064D01*
X0025183Y0105035D01*
X0025048Y0105009D01*
X0024913Y0104987D01*
X0024776Y0104969D01*
X0024640Y0104955D01*
X0024503Y0104945D01*
X0024365Y0104939D01*
X0024228Y0104937D01*
X0024091Y0104939D01*
X0023953Y0104945D01*
X0023816Y0104955D01*
X0023680Y0104969D01*
X0023543Y0104987D01*
X0023408Y0105009D01*
X0023273Y0105035D01*
X0023139Y0105064D01*
X0023005Y0105098D01*
X0022873Y0105135D01*
X0022742Y0105177D01*
X0022612Y0105222D01*
X0022484Y0105271D01*
X0022357Y0105323D01*
X0022232Y0105380D01*
X0022108Y0105439D01*
X0021986Y0105503D01*
X0021866Y0105570D01*
X0021748Y0105640D01*
X0021632Y0105714D01*
X0021518Y0105791D01*
X0021407Y0105872D01*
X0021298Y0105955D01*
X0021191Y0106042D01*
X0021088Y0106132D01*
X0020986Y0106225D01*
X0020888Y0106321D01*
X0020792Y0106419D01*
X0020699Y0106521D01*
X0020609Y0106624D01*
X0020522Y0106731D01*
X0020439Y0106840D01*
X0020358Y0106951D01*
X0020281Y0107065D01*
X0020207Y0107181D01*
X0020137Y0107299D01*
X0020070Y0107419D01*
X0020006Y0107541D01*
X0019947Y0107665D01*
X0019890Y0107790D01*
X0019838Y0107917D01*
X0019789Y0108045D01*
X0019744Y0108175D01*
X0019702Y0108306D01*
X0019665Y0108438D01*
X0019631Y0108572D01*
X0019602Y0108706D01*
X0019576Y0108841D01*
X0019554Y0108976D01*
X0019536Y0109113D01*
X0019522Y0109249D01*
X0019512Y0109386D01*
X0019506Y0109524D01*
X0019504Y0109661D01*
D12*
X0018806Y0223877D02*
X0015737Y0223877D01*
X0015737Y0228481D01*
X0020341Y0228481D02*
X0020341Y0223877D01*
X0023410Y0223877D01*
X0024945Y0223877D02*
X0024945Y0228481D01*
X0027247Y0228481D01*
X0028014Y0227714D01*
X0028014Y0224644D01*
X0027247Y0223877D01*
X0024945Y0223877D01*
X0021876Y0226179D02*
X0020341Y0226179D01*
X0020341Y0228481D02*
X0023410Y0228481D01*
X0029549Y0226946D02*
X0031083Y0228481D01*
X0031083Y0223877D01*
X0029549Y0223877D02*
X0032618Y0223877D01*
X0041901Y0237877D02*
X0041901Y0242481D01*
X0044203Y0242481D01*
X0044970Y0241714D01*
X0044970Y0240179D01*
X0044203Y0239412D01*
X0041901Y0239412D01*
X0043435Y0239412D02*
X0044970Y0237877D01*
X0046505Y0237877D02*
X0049574Y0240946D01*
X0049574Y0241714D01*
X0048807Y0242481D01*
X0047272Y0242481D01*
X0046505Y0241714D01*
X0046505Y0237877D02*
X0049574Y0237877D01*
X0054441Y0229481D02*
X0056743Y0229481D01*
X0057510Y0228714D01*
X0057510Y0227179D01*
X0056743Y0226412D01*
X0054441Y0226412D01*
X0055976Y0226412D02*
X0057510Y0224877D01*
X0059045Y0224877D02*
X0062114Y0224877D01*
X0060580Y0224877D02*
X0060580Y0229481D01*
X0059045Y0227946D01*
X0054441Y0229481D02*
X0054441Y0224877D01*
X0082420Y0317455D02*
X0081653Y0318222D01*
X0081653Y0319757D01*
X0082420Y0320524D01*
X0083187Y0320524D01*
X0083955Y0319757D01*
X0083955Y0318222D01*
X0083187Y0317455D01*
X0082420Y0317455D01*
X0083955Y0318222D02*
X0084722Y0317455D01*
X0085489Y0317455D01*
X0086257Y0318222D01*
X0086257Y0319757D01*
X0085489Y0320524D01*
X0084722Y0320524D01*
X0083955Y0319757D01*
X0081653Y0322059D02*
X0081653Y0325128D01*
X0081653Y0323594D02*
X0086257Y0323594D01*
X0084722Y0325128D01*
X0081653Y0389757D02*
X0081653Y0392826D01*
X0081653Y0391292D02*
X0086257Y0391292D01*
X0084722Y0392826D01*
X0138039Y0362261D02*
X0138039Y0361494D01*
X0138806Y0360726D01*
X0140341Y0360726D01*
X0141108Y0359959D01*
X0141108Y0359192D01*
X0140341Y0358424D01*
X0138806Y0358424D01*
X0138039Y0359192D01*
X0138039Y0362261D02*
X0138806Y0363028D01*
X0140341Y0363028D01*
X0141108Y0362261D01*
X0142643Y0362261D02*
X0142643Y0359192D01*
X0143410Y0358424D01*
X0144945Y0358424D01*
X0145712Y0359192D01*
X0147247Y0359959D02*
X0149549Y0359959D01*
X0150316Y0360726D01*
X0150316Y0362261D01*
X0149549Y0363028D01*
X0147247Y0363028D01*
X0147247Y0358424D01*
X0148781Y0359959D02*
X0150316Y0358424D01*
X0151851Y0358424D02*
X0151851Y0363028D01*
X0154920Y0363028D01*
X0156455Y0363028D02*
X0156455Y0358424D01*
X0159524Y0358424D01*
X0161059Y0358424D02*
X0161059Y0363028D01*
X0164128Y0358424D01*
X0164128Y0363028D01*
X0165663Y0361494D02*
X0167197Y0363028D01*
X0167197Y0358424D01*
X0165663Y0358424D02*
X0168732Y0358424D01*
X0159524Y0363028D02*
X0156455Y0363028D01*
X0156455Y0360726D02*
X0157989Y0360726D01*
X0154920Y0358424D02*
X0151851Y0358424D01*
X0151851Y0360726D02*
X0153385Y0360726D01*
X0145712Y0362261D02*
X0144945Y0363028D01*
X0143410Y0363028D01*
X0142643Y0362261D01*
D13*
X0063369Y0233671D03*
X0057569Y0233671D03*
X0047580Y0233683D03*
X0041780Y0233683D03*
D14*
X0017732Y0257299D02*
X0017732Y0454150D01*
X0290173Y0454150D01*
X0290173Y0257299D01*
X0017732Y0257299D01*
X0019026Y0170565D02*
X0019026Y0169297D01*
X0019026Y0169931D02*
X0020927Y0169931D01*
X0019976Y0167721D02*
X0019976Y0167087D01*
X0019026Y0167087D02*
X0019026Y0168355D01*
X0019026Y0167087D02*
X0020927Y0167087D01*
X0020927Y0166145D02*
X0020927Y0164877D01*
X0019026Y0164877D01*
X0019026Y0166145D01*
X0019976Y0165511D02*
X0019976Y0164877D01*
X0020927Y0163935D02*
X0020927Y0162667D01*
X0019026Y0162667D01*
X0021244Y0161725D02*
X0021244Y0160457D01*
X0020927Y0159515D02*
X0019026Y0159515D01*
X0019026Y0158248D02*
X0020927Y0159515D01*
X0020927Y0158248D02*
X0019026Y0158248D01*
X0019026Y0157305D02*
X0019026Y0156038D01*
X0019026Y0156672D02*
X0020927Y0156672D01*
X0020610Y0155096D02*
X0020927Y0154779D01*
X0020927Y0153828D01*
X0019026Y0153828D01*
X0019026Y0154779D01*
X0019342Y0155096D01*
X0019659Y0155096D01*
X0019976Y0154779D01*
X0019976Y0153828D01*
X0019976Y0154779D02*
X0020293Y0155096D01*
X0020610Y0155096D01*
X0077922Y0139069D02*
X0079823Y0139069D01*
X0077922Y0137801D01*
X0079823Y0137801D01*
X0079823Y0136859D02*
X0077922Y0136859D01*
X0077922Y0135591D02*
X0079823Y0135591D01*
X0079189Y0136225D01*
X0079823Y0136859D01*
X0079506Y0134649D02*
X0078239Y0134649D01*
X0077922Y0134332D01*
X0077922Y0133698D01*
X0078239Y0133381D01*
X0079506Y0133381D01*
X0079823Y0133698D01*
X0079823Y0134332D01*
X0079506Y0134649D01*
X0079506Y0132439D02*
X0078239Y0132439D01*
X0077922Y0132122D01*
X0077922Y0131171D01*
X0079823Y0131171D01*
X0079823Y0132122D01*
X0079506Y0132439D01*
X0080140Y0130229D02*
X0080140Y0128961D01*
X0079823Y0128019D02*
X0077922Y0128019D01*
X0077922Y0126751D02*
X0079823Y0128019D01*
X0079823Y0126751D02*
X0077922Y0126751D01*
X0077922Y0125809D02*
X0077922Y0124542D01*
X0077922Y0125175D02*
X0079823Y0125175D01*
X0079506Y0123599D02*
X0079823Y0123283D01*
X0079823Y0122332D01*
X0077922Y0122332D01*
X0077922Y0123283D01*
X0078239Y0123599D01*
X0078555Y0123599D01*
X0078872Y0123283D01*
X0078872Y0122332D01*
X0078872Y0123283D02*
X0079189Y0123599D01*
X0079506Y0123599D01*
X0109418Y0153091D02*
X0109418Y0154042D01*
X0109735Y0154359D01*
X0110052Y0154359D01*
X0110368Y0154042D01*
X0110368Y0153091D01*
X0109418Y0153091D02*
X0111319Y0153091D01*
X0111319Y0154042D01*
X0111002Y0154359D01*
X0110685Y0154359D01*
X0110368Y0154042D01*
X0109418Y0155301D02*
X0109418Y0156569D01*
X0109418Y0155935D02*
X0111319Y0155935D01*
X0111319Y0157511D02*
X0109418Y0157511D01*
X0111319Y0158779D01*
X0109418Y0158779D01*
X0111636Y0159721D02*
X0111636Y0160989D01*
X0111319Y0161931D02*
X0109418Y0161931D01*
X0109418Y0162881D01*
X0109735Y0163198D01*
X0110368Y0163198D01*
X0110685Y0162881D01*
X0110685Y0161931D01*
X0110685Y0162565D02*
X0111319Y0163198D01*
X0111319Y0164141D02*
X0111319Y0164774D01*
X0111319Y0164457D02*
X0109418Y0164457D01*
X0109418Y0164141D02*
X0109418Y0164774D01*
X0109735Y0165614D02*
X0111002Y0165614D01*
X0111319Y0165931D01*
X0111319Y0166565D01*
X0111002Y0166882D01*
X0110368Y0166882D01*
X0110368Y0166248D01*
X0109735Y0166882D02*
X0109418Y0166565D01*
X0109418Y0165931D01*
X0109735Y0165614D01*
X0109418Y0167824D02*
X0111319Y0167824D01*
X0110368Y0167824D02*
X0110368Y0169091D01*
X0109418Y0169091D02*
X0111319Y0169091D01*
X0111319Y0170667D02*
X0109418Y0170667D01*
X0109418Y0170034D02*
X0109418Y0171301D01*
X0080140Y0194163D02*
X0080140Y0195431D01*
X0079506Y0196373D02*
X0079823Y0196690D01*
X0079823Y0197324D01*
X0079506Y0197641D01*
X0077922Y0197641D01*
X0077922Y0198583D02*
X0077922Y0199534D01*
X0078239Y0199851D01*
X0078872Y0199851D01*
X0079189Y0199534D01*
X0079189Y0198583D01*
X0079823Y0198583D02*
X0077922Y0198583D01*
X0077922Y0196373D02*
X0079506Y0196373D01*
X0079823Y0193221D02*
X0077922Y0193221D01*
X0077922Y0191953D02*
X0079823Y0193221D01*
X0079823Y0191953D02*
X0077922Y0191953D01*
X0077922Y0191011D02*
X0077922Y0189744D01*
X0077922Y0190377D02*
X0079823Y0190377D01*
X0079506Y0188801D02*
X0079823Y0188485D01*
X0079823Y0187534D01*
X0077922Y0187534D01*
X0077922Y0188485D01*
X0078239Y0188801D01*
X0078555Y0188801D01*
X0078872Y0188485D01*
X0078872Y0187534D01*
X0078872Y0188485D02*
X0079189Y0188801D01*
X0079506Y0188801D01*
X0120732Y0089825D02*
X0121683Y0089825D01*
X0122000Y0089508D01*
X0122000Y0089191D01*
X0121683Y0088874D01*
X0120732Y0088874D01*
X0120732Y0087923D02*
X0121683Y0087923D01*
X0122000Y0088240D01*
X0122000Y0088557D01*
X0121683Y0088874D01*
X0120732Y0087923D02*
X0120732Y0089825D01*
X0122942Y0089825D02*
X0124210Y0089825D01*
X0123576Y0089825D02*
X0123576Y0087923D01*
X0125152Y0087923D02*
X0125152Y0089825D01*
X0126420Y0087923D01*
X0126420Y0089825D01*
X0127362Y0087606D02*
X0128629Y0087606D01*
X0129572Y0088240D02*
X0129889Y0087923D01*
X0130522Y0087923D01*
X0130839Y0088240D01*
X0130839Y0088557D01*
X0130522Y0088874D01*
X0129889Y0088874D01*
X0129572Y0089191D01*
X0129572Y0089508D01*
X0129889Y0089825D01*
X0130522Y0089825D01*
X0130839Y0089508D01*
X0131781Y0089825D02*
X0131781Y0087923D01*
X0133049Y0087923D01*
X0133991Y0087923D02*
X0135259Y0087923D01*
X0136201Y0087923D02*
X0137469Y0087923D01*
X0138411Y0088240D02*
X0138728Y0087923D01*
X0139362Y0087923D01*
X0139679Y0088240D01*
X0138411Y0088240D02*
X0138411Y0089508D01*
X0138728Y0089825D01*
X0139362Y0089825D01*
X0139679Y0089508D01*
X0140621Y0089825D02*
X0141889Y0089825D01*
X0141255Y0089825D02*
X0141255Y0087923D01*
X0137469Y0089825D02*
X0136201Y0089825D01*
X0136201Y0087923D01*
X0136201Y0088874D02*
X0136835Y0088874D01*
X0133991Y0089825D02*
X0133991Y0087923D01*
X0132415Y0088874D02*
X0131781Y0088874D01*
X0131781Y0089825D02*
X0133049Y0089825D01*
X0167506Y0089825D02*
X0168457Y0089825D01*
X0168774Y0089508D01*
X0168774Y0089191D01*
X0168457Y0088874D01*
X0167506Y0088874D01*
X0167506Y0087923D02*
X0168457Y0087923D01*
X0168774Y0088240D01*
X0168774Y0088557D01*
X0168457Y0088874D01*
X0167506Y0087923D02*
X0167506Y0089825D01*
X0169716Y0089825D02*
X0170984Y0089825D01*
X0170350Y0089825D02*
X0170350Y0087923D01*
X0171926Y0087923D02*
X0171926Y0089825D01*
X0173194Y0087923D01*
X0173194Y0089825D01*
X0174136Y0087606D02*
X0175404Y0087606D01*
X0176346Y0088240D02*
X0176663Y0087923D01*
X0177297Y0087923D01*
X0177614Y0088240D01*
X0177614Y0088557D01*
X0177297Y0088874D01*
X0176663Y0088874D01*
X0176346Y0089191D01*
X0176346Y0089508D01*
X0176663Y0089825D01*
X0177297Y0089825D01*
X0177614Y0089508D01*
X0178556Y0089825D02*
X0179823Y0089825D01*
X0179190Y0089825D02*
X0179190Y0087923D01*
X0180766Y0087923D02*
X0180766Y0089191D01*
X0181399Y0089825D01*
X0182033Y0089191D01*
X0182033Y0087923D01*
X0182975Y0087923D02*
X0182975Y0089825D01*
X0183926Y0089825D01*
X0184243Y0089508D01*
X0184243Y0088874D01*
X0183926Y0088557D01*
X0182975Y0088557D01*
X0183609Y0088557D02*
X0184243Y0087923D01*
X0185819Y0087923D02*
X0185819Y0089825D01*
X0185185Y0089825D02*
X0186453Y0089825D01*
X0182033Y0088874D02*
X0180766Y0088874D01*
X0157169Y0140955D02*
X0156218Y0140955D01*
X0156218Y0142856D01*
X0157169Y0142856D01*
X0157486Y0142539D01*
X0157486Y0142222D01*
X0157169Y0141906D01*
X0156218Y0141906D01*
X0157169Y0141906D02*
X0157486Y0141589D01*
X0157486Y0141272D01*
X0157169Y0140955D01*
X0155276Y0140638D02*
X0154008Y0140638D01*
X0153066Y0140955D02*
X0153066Y0142856D01*
X0151799Y0142856D02*
X0153066Y0140955D01*
X0151799Y0140955D02*
X0151799Y0142856D01*
X0150856Y0142856D02*
X0149589Y0142856D01*
X0150223Y0142856D02*
X0150223Y0140955D01*
X0148647Y0141272D02*
X0148330Y0140955D01*
X0147379Y0140955D01*
X0147379Y0142856D01*
X0148330Y0142856D01*
X0148647Y0142539D01*
X0148647Y0142222D01*
X0148330Y0141906D01*
X0147379Y0141906D01*
X0148330Y0141906D02*
X0148647Y0141589D01*
X0148647Y0141272D01*
X0159190Y0200010D02*
X0160141Y0200010D01*
X0160458Y0200327D01*
X0160458Y0200644D01*
X0160141Y0200961D01*
X0159190Y0200961D01*
X0159190Y0201911D02*
X0160141Y0201911D01*
X0160458Y0201595D01*
X0160458Y0201278D01*
X0160141Y0200961D01*
X0159190Y0200010D02*
X0159190Y0201911D01*
X0161400Y0201911D02*
X0162667Y0201911D01*
X0162034Y0201911D02*
X0162034Y0200010D01*
X0163610Y0200010D02*
X0163610Y0201911D01*
X0164877Y0200010D01*
X0164877Y0201911D01*
X0165819Y0199693D02*
X0167087Y0199693D01*
X0168663Y0200010D02*
X0168663Y0200961D01*
X0169297Y0201595D01*
X0169297Y0201911D01*
X0168663Y0200961D02*
X0168029Y0201595D01*
X0168029Y0201911D01*
X0202497Y0166478D02*
X0202497Y0164577D01*
X0203448Y0164577D01*
X0203765Y0164894D01*
X0203765Y0165211D01*
X0203448Y0165528D01*
X0202497Y0165528D01*
X0202497Y0166478D02*
X0203448Y0166478D01*
X0203765Y0166161D01*
X0203765Y0165845D01*
X0203448Y0165528D01*
X0204707Y0166478D02*
X0205975Y0166478D01*
X0205341Y0166478D02*
X0205341Y0164577D01*
X0206917Y0164577D02*
X0206917Y0166478D01*
X0208184Y0164577D01*
X0208184Y0166478D01*
X0209127Y0164260D02*
X0210394Y0164260D01*
X0211336Y0164577D02*
X0211336Y0165845D01*
X0211970Y0166478D01*
X0212604Y0165845D01*
X0212604Y0164577D01*
X0212604Y0165528D02*
X0211336Y0165528D01*
X0244699Y0127108D02*
X0245650Y0127108D01*
X0245967Y0126791D01*
X0245967Y0126474D01*
X0245650Y0126158D01*
X0244699Y0126158D01*
X0244699Y0127108D02*
X0244699Y0125207D01*
X0245650Y0125207D01*
X0245967Y0125524D01*
X0245967Y0125841D01*
X0245650Y0126158D01*
X0246909Y0127108D02*
X0248177Y0127108D01*
X0247543Y0127108D02*
X0247543Y0125207D01*
X0249119Y0125207D02*
X0249119Y0127108D01*
X0250387Y0125207D01*
X0250387Y0127108D01*
X0251329Y0124890D02*
X0252596Y0124890D01*
X0253539Y0125207D02*
X0253539Y0127108D01*
X0254489Y0127108D01*
X0254806Y0126791D01*
X0254806Y0126158D01*
X0254489Y0125841D01*
X0253539Y0125841D01*
X0254172Y0125841D02*
X0254806Y0125207D01*
X0255748Y0125207D02*
X0257016Y0125207D01*
X0256382Y0125207D02*
X0256382Y0127108D01*
X0255748Y0126474D01*
X0256707Y0182254D02*
X0257658Y0182254D01*
X0257975Y0182571D01*
X0257975Y0182888D01*
X0257658Y0183205D01*
X0256707Y0183205D01*
X0256707Y0184156D02*
X0257658Y0184156D01*
X0257975Y0183839D01*
X0257975Y0183522D01*
X0257658Y0183205D01*
X0256707Y0182254D02*
X0256707Y0184156D01*
X0258917Y0184156D02*
X0260185Y0184156D01*
X0259551Y0184156D02*
X0259551Y0182254D01*
X0261127Y0182254D02*
X0261127Y0184156D01*
X0262394Y0182254D01*
X0262394Y0184156D01*
X0263337Y0181937D02*
X0264604Y0181937D01*
X0265546Y0182254D02*
X0266814Y0182254D01*
X0267756Y0182254D02*
X0269024Y0182254D01*
X0268390Y0182254D02*
X0268390Y0184156D01*
X0267756Y0183522D01*
X0265546Y0184156D02*
X0265546Y0182254D01*
X0224415Y0223632D02*
X0223147Y0225534D01*
X0224415Y0225534D02*
X0223147Y0223632D01*
X0222205Y0223315D02*
X0220938Y0223315D01*
X0219995Y0223632D02*
X0219995Y0225534D01*
X0218728Y0225534D02*
X0219995Y0223632D01*
X0218728Y0223632D02*
X0218728Y0225534D01*
X0217786Y0225534D02*
X0216518Y0225534D01*
X0217152Y0225534D02*
X0217152Y0223632D01*
X0215576Y0223949D02*
X0215259Y0223632D01*
X0214308Y0223632D01*
X0214308Y0225534D01*
X0215259Y0225534D01*
X0215576Y0225217D01*
X0215576Y0224900D01*
X0215259Y0224583D01*
X0214308Y0224583D01*
X0215259Y0224583D02*
X0215576Y0224266D01*
X0215576Y0223949D01*
D15*
X0212693Y0210882D02*
X0212695Y0211051D01*
X0212701Y0211220D01*
X0212712Y0211389D01*
X0212726Y0211557D01*
X0212745Y0211725D01*
X0212768Y0211893D01*
X0212794Y0212060D01*
X0212825Y0212226D01*
X0212860Y0212392D01*
X0212899Y0212556D01*
X0212943Y0212720D01*
X0212990Y0212882D01*
X0213041Y0213043D01*
X0213096Y0213203D01*
X0213155Y0213362D01*
X0213217Y0213519D01*
X0213284Y0213674D01*
X0213355Y0213828D01*
X0213429Y0213980D01*
X0213507Y0214130D01*
X0213588Y0214278D01*
X0213673Y0214424D01*
X0213762Y0214568D01*
X0213854Y0214710D01*
X0213950Y0214849D01*
X0214049Y0214986D01*
X0214151Y0215121D01*
X0214257Y0215253D01*
X0214366Y0215382D01*
X0214478Y0215509D01*
X0214593Y0215633D01*
X0214711Y0215754D01*
X0214832Y0215872D01*
X0214956Y0215987D01*
X0215083Y0216099D01*
X0215212Y0216208D01*
X0215344Y0216314D01*
X0215479Y0216416D01*
X0215616Y0216515D01*
X0215755Y0216611D01*
X0215897Y0216703D01*
X0216041Y0216792D01*
X0216187Y0216877D01*
X0216335Y0216958D01*
X0216485Y0217036D01*
X0216637Y0217110D01*
X0216791Y0217181D01*
X0216946Y0217248D01*
X0217103Y0217310D01*
X0217262Y0217369D01*
X0217422Y0217424D01*
X0217583Y0217475D01*
X0217745Y0217522D01*
X0217909Y0217566D01*
X0218073Y0217605D01*
X0218239Y0217640D01*
X0218405Y0217671D01*
X0218572Y0217697D01*
X0218740Y0217720D01*
X0218908Y0217739D01*
X0219076Y0217753D01*
X0219245Y0217764D01*
X0219414Y0217770D01*
X0219583Y0217772D01*
X0219752Y0217770D01*
X0219921Y0217764D01*
X0220090Y0217753D01*
X0220258Y0217739D01*
X0220426Y0217720D01*
X0220594Y0217697D01*
X0220761Y0217671D01*
X0220927Y0217640D01*
X0221093Y0217605D01*
X0221257Y0217566D01*
X0221421Y0217522D01*
X0221583Y0217475D01*
X0221744Y0217424D01*
X0221904Y0217369D01*
X0222063Y0217310D01*
X0222220Y0217248D01*
X0222375Y0217181D01*
X0222529Y0217110D01*
X0222681Y0217036D01*
X0222831Y0216958D01*
X0222979Y0216877D01*
X0223125Y0216792D01*
X0223269Y0216703D01*
X0223411Y0216611D01*
X0223550Y0216515D01*
X0223687Y0216416D01*
X0223822Y0216314D01*
X0223954Y0216208D01*
X0224083Y0216099D01*
X0224210Y0215987D01*
X0224334Y0215872D01*
X0224455Y0215754D01*
X0224573Y0215633D01*
X0224688Y0215509D01*
X0224800Y0215382D01*
X0224909Y0215253D01*
X0225015Y0215121D01*
X0225117Y0214986D01*
X0225216Y0214849D01*
X0225312Y0214710D01*
X0225404Y0214568D01*
X0225493Y0214424D01*
X0225578Y0214278D01*
X0225659Y0214130D01*
X0225737Y0213980D01*
X0225811Y0213828D01*
X0225882Y0213674D01*
X0225949Y0213519D01*
X0226011Y0213362D01*
X0226070Y0213203D01*
X0226125Y0213043D01*
X0226176Y0212882D01*
X0226223Y0212720D01*
X0226267Y0212556D01*
X0226306Y0212392D01*
X0226341Y0212226D01*
X0226372Y0212060D01*
X0226398Y0211893D01*
X0226421Y0211725D01*
X0226440Y0211557D01*
X0226454Y0211389D01*
X0226465Y0211220D01*
X0226471Y0211051D01*
X0226473Y0210882D01*
X0226471Y0210713D01*
X0226465Y0210544D01*
X0226454Y0210375D01*
X0226440Y0210207D01*
X0226421Y0210039D01*
X0226398Y0209871D01*
X0226372Y0209704D01*
X0226341Y0209538D01*
X0226306Y0209372D01*
X0226267Y0209208D01*
X0226223Y0209044D01*
X0226176Y0208882D01*
X0226125Y0208721D01*
X0226070Y0208561D01*
X0226011Y0208402D01*
X0225949Y0208245D01*
X0225882Y0208090D01*
X0225811Y0207936D01*
X0225737Y0207784D01*
X0225659Y0207634D01*
X0225578Y0207486D01*
X0225493Y0207340D01*
X0225404Y0207196D01*
X0225312Y0207054D01*
X0225216Y0206915D01*
X0225117Y0206778D01*
X0225015Y0206643D01*
X0224909Y0206511D01*
X0224800Y0206382D01*
X0224688Y0206255D01*
X0224573Y0206131D01*
X0224455Y0206010D01*
X0224334Y0205892D01*
X0224210Y0205777D01*
X0224083Y0205665D01*
X0223954Y0205556D01*
X0223822Y0205450D01*
X0223687Y0205348D01*
X0223550Y0205249D01*
X0223411Y0205153D01*
X0223269Y0205061D01*
X0223125Y0204972D01*
X0222979Y0204887D01*
X0222831Y0204806D01*
X0222681Y0204728D01*
X0222529Y0204654D01*
X0222375Y0204583D01*
X0222220Y0204516D01*
X0222063Y0204454D01*
X0221904Y0204395D01*
X0221744Y0204340D01*
X0221583Y0204289D01*
X0221421Y0204242D01*
X0221257Y0204198D01*
X0221093Y0204159D01*
X0220927Y0204124D01*
X0220761Y0204093D01*
X0220594Y0204067D01*
X0220426Y0204044D01*
X0220258Y0204025D01*
X0220090Y0204011D01*
X0219921Y0204000D01*
X0219752Y0203994D01*
X0219583Y0203992D01*
X0219414Y0203994D01*
X0219245Y0204000D01*
X0219076Y0204011D01*
X0218908Y0204025D01*
X0218740Y0204044D01*
X0218572Y0204067D01*
X0218405Y0204093D01*
X0218239Y0204124D01*
X0218073Y0204159D01*
X0217909Y0204198D01*
X0217745Y0204242D01*
X0217583Y0204289D01*
X0217422Y0204340D01*
X0217262Y0204395D01*
X0217103Y0204454D01*
X0216946Y0204516D01*
X0216791Y0204583D01*
X0216637Y0204654D01*
X0216485Y0204728D01*
X0216335Y0204806D01*
X0216187Y0204887D01*
X0216041Y0204972D01*
X0215897Y0205061D01*
X0215755Y0205153D01*
X0215616Y0205249D01*
X0215479Y0205348D01*
X0215344Y0205450D01*
X0215212Y0205556D01*
X0215083Y0205665D01*
X0214956Y0205777D01*
X0214832Y0205892D01*
X0214711Y0206010D01*
X0214593Y0206131D01*
X0214478Y0206255D01*
X0214366Y0206382D01*
X0214257Y0206511D01*
X0214151Y0206643D01*
X0214049Y0206778D01*
X0213950Y0206915D01*
X0213854Y0207054D01*
X0213762Y0207196D01*
X0213673Y0207340D01*
X0213588Y0207486D01*
X0213507Y0207634D01*
X0213429Y0207784D01*
X0213355Y0207936D01*
X0213284Y0208090D01*
X0213217Y0208245D01*
X0213155Y0208402D01*
X0213096Y0208561D01*
X0213041Y0208721D01*
X0212990Y0208882D01*
X0212943Y0209044D01*
X0212899Y0209208D01*
X0212860Y0209372D01*
X0212825Y0209538D01*
X0212794Y0209704D01*
X0212768Y0209871D01*
X0212745Y0210039D01*
X0212726Y0210207D01*
X0212712Y0210375D01*
X0212701Y0210544D01*
X0212695Y0210713D01*
X0212693Y0210882D01*
X0207772Y0222693D02*
X0207772Y0199071D01*
X0231394Y0199071D01*
X0231394Y0222693D01*
X0207772Y0222693D01*
X0176276Y0199071D02*
X0176276Y0175449D01*
X0152654Y0175449D01*
X0152654Y0199071D01*
X0176276Y0199071D01*
X0157575Y0187260D02*
X0157577Y0187429D01*
X0157583Y0187598D01*
X0157594Y0187767D01*
X0157608Y0187935D01*
X0157627Y0188103D01*
X0157650Y0188271D01*
X0157676Y0188438D01*
X0157707Y0188604D01*
X0157742Y0188770D01*
X0157781Y0188934D01*
X0157825Y0189098D01*
X0157872Y0189260D01*
X0157923Y0189421D01*
X0157978Y0189581D01*
X0158037Y0189740D01*
X0158099Y0189897D01*
X0158166Y0190052D01*
X0158237Y0190206D01*
X0158311Y0190358D01*
X0158389Y0190508D01*
X0158470Y0190656D01*
X0158555Y0190802D01*
X0158644Y0190946D01*
X0158736Y0191088D01*
X0158832Y0191227D01*
X0158931Y0191364D01*
X0159033Y0191499D01*
X0159139Y0191631D01*
X0159248Y0191760D01*
X0159360Y0191887D01*
X0159475Y0192011D01*
X0159593Y0192132D01*
X0159714Y0192250D01*
X0159838Y0192365D01*
X0159965Y0192477D01*
X0160094Y0192586D01*
X0160226Y0192692D01*
X0160361Y0192794D01*
X0160498Y0192893D01*
X0160637Y0192989D01*
X0160779Y0193081D01*
X0160923Y0193170D01*
X0161069Y0193255D01*
X0161217Y0193336D01*
X0161367Y0193414D01*
X0161519Y0193488D01*
X0161673Y0193559D01*
X0161828Y0193626D01*
X0161985Y0193688D01*
X0162144Y0193747D01*
X0162304Y0193802D01*
X0162465Y0193853D01*
X0162627Y0193900D01*
X0162791Y0193944D01*
X0162955Y0193983D01*
X0163121Y0194018D01*
X0163287Y0194049D01*
X0163454Y0194075D01*
X0163622Y0194098D01*
X0163790Y0194117D01*
X0163958Y0194131D01*
X0164127Y0194142D01*
X0164296Y0194148D01*
X0164465Y0194150D01*
X0164634Y0194148D01*
X0164803Y0194142D01*
X0164972Y0194131D01*
X0165140Y0194117D01*
X0165308Y0194098D01*
X0165476Y0194075D01*
X0165643Y0194049D01*
X0165809Y0194018D01*
X0165975Y0193983D01*
X0166139Y0193944D01*
X0166303Y0193900D01*
X0166465Y0193853D01*
X0166626Y0193802D01*
X0166786Y0193747D01*
X0166945Y0193688D01*
X0167102Y0193626D01*
X0167257Y0193559D01*
X0167411Y0193488D01*
X0167563Y0193414D01*
X0167713Y0193336D01*
X0167861Y0193255D01*
X0168007Y0193170D01*
X0168151Y0193081D01*
X0168293Y0192989D01*
X0168432Y0192893D01*
X0168569Y0192794D01*
X0168704Y0192692D01*
X0168836Y0192586D01*
X0168965Y0192477D01*
X0169092Y0192365D01*
X0169216Y0192250D01*
X0169337Y0192132D01*
X0169455Y0192011D01*
X0169570Y0191887D01*
X0169682Y0191760D01*
X0169791Y0191631D01*
X0169897Y0191499D01*
X0169999Y0191364D01*
X0170098Y0191227D01*
X0170194Y0191088D01*
X0170286Y0190946D01*
X0170375Y0190802D01*
X0170460Y0190656D01*
X0170541Y0190508D01*
X0170619Y0190358D01*
X0170693Y0190206D01*
X0170764Y0190052D01*
X0170831Y0189897D01*
X0170893Y0189740D01*
X0170952Y0189581D01*
X0171007Y0189421D01*
X0171058Y0189260D01*
X0171105Y0189098D01*
X0171149Y0188934D01*
X0171188Y0188770D01*
X0171223Y0188604D01*
X0171254Y0188438D01*
X0171280Y0188271D01*
X0171303Y0188103D01*
X0171322Y0187935D01*
X0171336Y0187767D01*
X0171347Y0187598D01*
X0171353Y0187429D01*
X0171355Y0187260D01*
X0171353Y0187091D01*
X0171347Y0186922D01*
X0171336Y0186753D01*
X0171322Y0186585D01*
X0171303Y0186417D01*
X0171280Y0186249D01*
X0171254Y0186082D01*
X0171223Y0185916D01*
X0171188Y0185750D01*
X0171149Y0185586D01*
X0171105Y0185422D01*
X0171058Y0185260D01*
X0171007Y0185099D01*
X0170952Y0184939D01*
X0170893Y0184780D01*
X0170831Y0184623D01*
X0170764Y0184468D01*
X0170693Y0184314D01*
X0170619Y0184162D01*
X0170541Y0184012D01*
X0170460Y0183864D01*
X0170375Y0183718D01*
X0170286Y0183574D01*
X0170194Y0183432D01*
X0170098Y0183293D01*
X0169999Y0183156D01*
X0169897Y0183021D01*
X0169791Y0182889D01*
X0169682Y0182760D01*
X0169570Y0182633D01*
X0169455Y0182509D01*
X0169337Y0182388D01*
X0169216Y0182270D01*
X0169092Y0182155D01*
X0168965Y0182043D01*
X0168836Y0181934D01*
X0168704Y0181828D01*
X0168569Y0181726D01*
X0168432Y0181627D01*
X0168293Y0181531D01*
X0168151Y0181439D01*
X0168007Y0181350D01*
X0167861Y0181265D01*
X0167713Y0181184D01*
X0167563Y0181106D01*
X0167411Y0181032D01*
X0167257Y0180961D01*
X0167102Y0180894D01*
X0166945Y0180832D01*
X0166786Y0180773D01*
X0166626Y0180718D01*
X0166465Y0180667D01*
X0166303Y0180620D01*
X0166139Y0180576D01*
X0165975Y0180537D01*
X0165809Y0180502D01*
X0165643Y0180471D01*
X0165476Y0180445D01*
X0165308Y0180422D01*
X0165140Y0180403D01*
X0164972Y0180389D01*
X0164803Y0180378D01*
X0164634Y0180372D01*
X0164465Y0180370D01*
X0164296Y0180372D01*
X0164127Y0180378D01*
X0163958Y0180389D01*
X0163790Y0180403D01*
X0163622Y0180422D01*
X0163454Y0180445D01*
X0163287Y0180471D01*
X0163121Y0180502D01*
X0162955Y0180537D01*
X0162791Y0180576D01*
X0162627Y0180620D01*
X0162465Y0180667D01*
X0162304Y0180718D01*
X0162144Y0180773D01*
X0161985Y0180832D01*
X0161828Y0180894D01*
X0161673Y0180961D01*
X0161519Y0181032D01*
X0161367Y0181106D01*
X0161217Y0181184D01*
X0161069Y0181265D01*
X0160923Y0181350D01*
X0160779Y0181439D01*
X0160637Y0181531D01*
X0160498Y0181627D01*
X0160361Y0181726D01*
X0160226Y0181828D01*
X0160094Y0181934D01*
X0159965Y0182043D01*
X0159838Y0182155D01*
X0159714Y0182270D01*
X0159593Y0182388D01*
X0159475Y0182509D01*
X0159360Y0182633D01*
X0159248Y0182760D01*
X0159139Y0182889D01*
X0159033Y0183021D01*
X0158931Y0183156D01*
X0158832Y0183293D01*
X0158736Y0183432D01*
X0158644Y0183574D01*
X0158555Y0183718D01*
X0158470Y0183864D01*
X0158389Y0184012D01*
X0158311Y0184162D01*
X0158237Y0184314D01*
X0158166Y0184468D01*
X0158099Y0184623D01*
X0158037Y0184780D01*
X0157978Y0184939D01*
X0157923Y0185099D01*
X0157872Y0185260D01*
X0157825Y0185422D01*
X0157781Y0185586D01*
X0157742Y0185750D01*
X0157707Y0185916D01*
X0157676Y0186082D01*
X0157650Y0186249D01*
X0157627Y0186417D01*
X0157608Y0186585D01*
X0157594Y0186753D01*
X0157583Y0186922D01*
X0157577Y0187091D01*
X0157575Y0187260D01*
X0164465Y0140016D02*
X0140843Y0140016D01*
X0140843Y0116394D01*
X0164465Y0116394D01*
X0164465Y0140016D01*
X0145764Y0128205D02*
X0145766Y0128374D01*
X0145772Y0128543D01*
X0145783Y0128712D01*
X0145797Y0128880D01*
X0145816Y0129048D01*
X0145839Y0129216D01*
X0145865Y0129383D01*
X0145896Y0129549D01*
X0145931Y0129715D01*
X0145970Y0129879D01*
X0146014Y0130043D01*
X0146061Y0130205D01*
X0146112Y0130366D01*
X0146167Y0130526D01*
X0146226Y0130685D01*
X0146288Y0130842D01*
X0146355Y0130997D01*
X0146426Y0131151D01*
X0146500Y0131303D01*
X0146578Y0131453D01*
X0146659Y0131601D01*
X0146744Y0131747D01*
X0146833Y0131891D01*
X0146925Y0132033D01*
X0147021Y0132172D01*
X0147120Y0132309D01*
X0147222Y0132444D01*
X0147328Y0132576D01*
X0147437Y0132705D01*
X0147549Y0132832D01*
X0147664Y0132956D01*
X0147782Y0133077D01*
X0147903Y0133195D01*
X0148027Y0133310D01*
X0148154Y0133422D01*
X0148283Y0133531D01*
X0148415Y0133637D01*
X0148550Y0133739D01*
X0148687Y0133838D01*
X0148826Y0133934D01*
X0148968Y0134026D01*
X0149112Y0134115D01*
X0149258Y0134200D01*
X0149406Y0134281D01*
X0149556Y0134359D01*
X0149708Y0134433D01*
X0149862Y0134504D01*
X0150017Y0134571D01*
X0150174Y0134633D01*
X0150333Y0134692D01*
X0150493Y0134747D01*
X0150654Y0134798D01*
X0150816Y0134845D01*
X0150980Y0134889D01*
X0151144Y0134928D01*
X0151310Y0134963D01*
X0151476Y0134994D01*
X0151643Y0135020D01*
X0151811Y0135043D01*
X0151979Y0135062D01*
X0152147Y0135076D01*
X0152316Y0135087D01*
X0152485Y0135093D01*
X0152654Y0135095D01*
X0152823Y0135093D01*
X0152992Y0135087D01*
X0153161Y0135076D01*
X0153329Y0135062D01*
X0153497Y0135043D01*
X0153665Y0135020D01*
X0153832Y0134994D01*
X0153998Y0134963D01*
X0154164Y0134928D01*
X0154328Y0134889D01*
X0154492Y0134845D01*
X0154654Y0134798D01*
X0154815Y0134747D01*
X0154975Y0134692D01*
X0155134Y0134633D01*
X0155291Y0134571D01*
X0155446Y0134504D01*
X0155600Y0134433D01*
X0155752Y0134359D01*
X0155902Y0134281D01*
X0156050Y0134200D01*
X0156196Y0134115D01*
X0156340Y0134026D01*
X0156482Y0133934D01*
X0156621Y0133838D01*
X0156758Y0133739D01*
X0156893Y0133637D01*
X0157025Y0133531D01*
X0157154Y0133422D01*
X0157281Y0133310D01*
X0157405Y0133195D01*
X0157526Y0133077D01*
X0157644Y0132956D01*
X0157759Y0132832D01*
X0157871Y0132705D01*
X0157980Y0132576D01*
X0158086Y0132444D01*
X0158188Y0132309D01*
X0158287Y0132172D01*
X0158383Y0132033D01*
X0158475Y0131891D01*
X0158564Y0131747D01*
X0158649Y0131601D01*
X0158730Y0131453D01*
X0158808Y0131303D01*
X0158882Y0131151D01*
X0158953Y0130997D01*
X0159020Y0130842D01*
X0159082Y0130685D01*
X0159141Y0130526D01*
X0159196Y0130366D01*
X0159247Y0130205D01*
X0159294Y0130043D01*
X0159338Y0129879D01*
X0159377Y0129715D01*
X0159412Y0129549D01*
X0159443Y0129383D01*
X0159469Y0129216D01*
X0159492Y0129048D01*
X0159511Y0128880D01*
X0159525Y0128712D01*
X0159536Y0128543D01*
X0159542Y0128374D01*
X0159544Y0128205D01*
X0159542Y0128036D01*
X0159536Y0127867D01*
X0159525Y0127698D01*
X0159511Y0127530D01*
X0159492Y0127362D01*
X0159469Y0127194D01*
X0159443Y0127027D01*
X0159412Y0126861D01*
X0159377Y0126695D01*
X0159338Y0126531D01*
X0159294Y0126367D01*
X0159247Y0126205D01*
X0159196Y0126044D01*
X0159141Y0125884D01*
X0159082Y0125725D01*
X0159020Y0125568D01*
X0158953Y0125413D01*
X0158882Y0125259D01*
X0158808Y0125107D01*
X0158730Y0124957D01*
X0158649Y0124809D01*
X0158564Y0124663D01*
X0158475Y0124519D01*
X0158383Y0124377D01*
X0158287Y0124238D01*
X0158188Y0124101D01*
X0158086Y0123966D01*
X0157980Y0123834D01*
X0157871Y0123705D01*
X0157759Y0123578D01*
X0157644Y0123454D01*
X0157526Y0123333D01*
X0157405Y0123215D01*
X0157281Y0123100D01*
X0157154Y0122988D01*
X0157025Y0122879D01*
X0156893Y0122773D01*
X0156758Y0122671D01*
X0156621Y0122572D01*
X0156482Y0122476D01*
X0156340Y0122384D01*
X0156196Y0122295D01*
X0156050Y0122210D01*
X0155902Y0122129D01*
X0155752Y0122051D01*
X0155600Y0121977D01*
X0155446Y0121906D01*
X0155291Y0121839D01*
X0155134Y0121777D01*
X0154975Y0121718D01*
X0154815Y0121663D01*
X0154654Y0121612D01*
X0154492Y0121565D01*
X0154328Y0121521D01*
X0154164Y0121482D01*
X0153998Y0121447D01*
X0153832Y0121416D01*
X0153665Y0121390D01*
X0153497Y0121367D01*
X0153329Y0121348D01*
X0153161Y0121334D01*
X0152992Y0121323D01*
X0152823Y0121317D01*
X0152654Y0121315D01*
X0152485Y0121317D01*
X0152316Y0121323D01*
X0152147Y0121334D01*
X0151979Y0121348D01*
X0151811Y0121367D01*
X0151643Y0121390D01*
X0151476Y0121416D01*
X0151310Y0121447D01*
X0151144Y0121482D01*
X0150980Y0121521D01*
X0150816Y0121565D01*
X0150654Y0121612D01*
X0150493Y0121663D01*
X0150333Y0121718D01*
X0150174Y0121777D01*
X0150017Y0121839D01*
X0149862Y0121906D01*
X0149708Y0121977D01*
X0149556Y0122051D01*
X0149406Y0122129D01*
X0149258Y0122210D01*
X0149112Y0122295D01*
X0148968Y0122384D01*
X0148826Y0122476D01*
X0148687Y0122572D01*
X0148550Y0122671D01*
X0148415Y0122773D01*
X0148283Y0122879D01*
X0148154Y0122988D01*
X0148027Y0123100D01*
X0147903Y0123215D01*
X0147782Y0123333D01*
X0147664Y0123454D01*
X0147549Y0123578D01*
X0147437Y0123705D01*
X0147328Y0123834D01*
X0147222Y0123966D01*
X0147120Y0124101D01*
X0147021Y0124238D01*
X0146925Y0124377D01*
X0146833Y0124519D01*
X0146744Y0124663D01*
X0146659Y0124809D01*
X0146578Y0124957D01*
X0146500Y0125107D01*
X0146426Y0125259D01*
X0146355Y0125413D01*
X0146288Y0125568D01*
X0146226Y0125725D01*
X0146167Y0125884D01*
X0146112Y0126044D01*
X0146061Y0126205D01*
X0146014Y0126367D01*
X0145970Y0126531D01*
X0145931Y0126695D01*
X0145896Y0126861D01*
X0145865Y0127027D01*
X0145839Y0127194D01*
X0145816Y0127362D01*
X0145797Y0127530D01*
X0145783Y0127698D01*
X0145772Y0127867D01*
X0145766Y0128036D01*
X0145764Y0128205D01*
X0142358Y0087063D02*
X0120705Y0087063D01*
X0120643Y0087061D01*
X0120582Y0087055D01*
X0120521Y0087046D01*
X0120460Y0087032D01*
X0120401Y0087015D01*
X0120343Y0086994D01*
X0120286Y0086969D01*
X0120231Y0086941D01*
X0120178Y0086910D01*
X0120127Y0086875D01*
X0120078Y0086837D01*
X0120031Y0086796D01*
X0119988Y0086753D01*
X0119947Y0086706D01*
X0119909Y0086657D01*
X0119874Y0086606D01*
X0119843Y0086553D01*
X0119815Y0086498D01*
X0119790Y0086441D01*
X0119769Y0086383D01*
X0119752Y0086324D01*
X0119738Y0086263D01*
X0119729Y0086202D01*
X0119723Y0086141D01*
X0119721Y0086079D01*
X0119720Y0086079D02*
X0119720Y0084504D01*
X0119720Y0075843D02*
X0119720Y0074268D01*
X0119721Y0074268D02*
X0119723Y0074206D01*
X0119729Y0074145D01*
X0119738Y0074084D01*
X0119752Y0074023D01*
X0119769Y0073964D01*
X0119790Y0073906D01*
X0119815Y0073849D01*
X0119843Y0073794D01*
X0119874Y0073741D01*
X0119909Y0073690D01*
X0119947Y0073641D01*
X0119988Y0073594D01*
X0120031Y0073551D01*
X0120078Y0073510D01*
X0120127Y0073472D01*
X0120178Y0073437D01*
X0120231Y0073406D01*
X0120286Y0073378D01*
X0120343Y0073353D01*
X0120401Y0073332D01*
X0120460Y0073315D01*
X0120521Y0073301D01*
X0120582Y0073292D01*
X0120643Y0073286D01*
X0120705Y0073284D01*
X0120705Y0073283D02*
X0142358Y0073283D01*
X0142358Y0073284D02*
X0142420Y0073286D01*
X0142481Y0073292D01*
X0142542Y0073301D01*
X0142603Y0073315D01*
X0142662Y0073332D01*
X0142720Y0073353D01*
X0142777Y0073378D01*
X0142832Y0073406D01*
X0142885Y0073437D01*
X0142936Y0073472D01*
X0142985Y0073510D01*
X0143032Y0073551D01*
X0143075Y0073594D01*
X0143116Y0073641D01*
X0143154Y0073690D01*
X0143189Y0073741D01*
X0143220Y0073794D01*
X0143248Y0073849D01*
X0143273Y0073906D01*
X0143294Y0073964D01*
X0143311Y0074023D01*
X0143325Y0074084D01*
X0143334Y0074145D01*
X0143340Y0074206D01*
X0143342Y0074268D01*
X0143343Y0074268D02*
X0143343Y0075843D01*
X0143343Y0084504D02*
X0143343Y0086079D01*
X0143342Y0086079D02*
X0143340Y0086141D01*
X0143334Y0086202D01*
X0143325Y0086263D01*
X0143311Y0086324D01*
X0143294Y0086383D01*
X0143273Y0086441D01*
X0143248Y0086498D01*
X0143220Y0086553D01*
X0143189Y0086606D01*
X0143154Y0086657D01*
X0143116Y0086706D01*
X0143075Y0086753D01*
X0143032Y0086796D01*
X0142985Y0086837D01*
X0142936Y0086875D01*
X0142885Y0086910D01*
X0142832Y0086941D01*
X0142777Y0086969D01*
X0142720Y0086994D01*
X0142662Y0087015D01*
X0142603Y0087032D01*
X0142542Y0087046D01*
X0142481Y0087055D01*
X0142420Y0087061D01*
X0142358Y0087063D01*
X0137437Y0083126D02*
X0137437Y0077220D01*
X0125626Y0077220D01*
X0125626Y0083126D01*
X0137437Y0083126D01*
X0165390Y0084504D02*
X0165390Y0086079D01*
X0165392Y0086141D01*
X0165398Y0086202D01*
X0165407Y0086263D01*
X0165421Y0086324D01*
X0165438Y0086383D01*
X0165459Y0086441D01*
X0165484Y0086498D01*
X0165512Y0086553D01*
X0165543Y0086606D01*
X0165578Y0086657D01*
X0165616Y0086706D01*
X0165657Y0086753D01*
X0165700Y0086796D01*
X0165747Y0086837D01*
X0165796Y0086875D01*
X0165847Y0086910D01*
X0165900Y0086941D01*
X0165955Y0086969D01*
X0166012Y0086994D01*
X0166070Y0087015D01*
X0166129Y0087032D01*
X0166190Y0087046D01*
X0166251Y0087055D01*
X0166312Y0087061D01*
X0166374Y0087063D01*
X0188028Y0087063D01*
X0188090Y0087061D01*
X0188151Y0087055D01*
X0188212Y0087046D01*
X0188273Y0087032D01*
X0188332Y0087015D01*
X0188390Y0086994D01*
X0188447Y0086969D01*
X0188502Y0086941D01*
X0188555Y0086910D01*
X0188606Y0086875D01*
X0188655Y0086837D01*
X0188702Y0086796D01*
X0188745Y0086753D01*
X0188786Y0086706D01*
X0188824Y0086657D01*
X0188859Y0086606D01*
X0188890Y0086553D01*
X0188918Y0086498D01*
X0188943Y0086441D01*
X0188964Y0086383D01*
X0188981Y0086324D01*
X0188995Y0086263D01*
X0189004Y0086202D01*
X0189010Y0086141D01*
X0189012Y0086079D01*
X0189012Y0084504D01*
X0189012Y0075843D02*
X0189012Y0074268D01*
X0189010Y0074206D01*
X0189004Y0074145D01*
X0188995Y0074084D01*
X0188981Y0074023D01*
X0188964Y0073964D01*
X0188943Y0073906D01*
X0188918Y0073849D01*
X0188890Y0073794D01*
X0188859Y0073741D01*
X0188824Y0073690D01*
X0188786Y0073641D01*
X0188745Y0073594D01*
X0188702Y0073551D01*
X0188655Y0073510D01*
X0188606Y0073472D01*
X0188555Y0073437D01*
X0188502Y0073406D01*
X0188447Y0073378D01*
X0188390Y0073353D01*
X0188332Y0073332D01*
X0188273Y0073315D01*
X0188212Y0073301D01*
X0188151Y0073292D01*
X0188090Y0073286D01*
X0188028Y0073284D01*
X0188028Y0073283D02*
X0166374Y0073283D01*
X0166374Y0073284D02*
X0166312Y0073286D01*
X0166251Y0073292D01*
X0166190Y0073301D01*
X0166129Y0073315D01*
X0166070Y0073332D01*
X0166012Y0073353D01*
X0165955Y0073378D01*
X0165900Y0073406D01*
X0165847Y0073437D01*
X0165796Y0073472D01*
X0165747Y0073510D01*
X0165700Y0073551D01*
X0165657Y0073594D01*
X0165616Y0073641D01*
X0165578Y0073690D01*
X0165543Y0073741D01*
X0165512Y0073794D01*
X0165484Y0073849D01*
X0165459Y0073906D01*
X0165438Y0073964D01*
X0165421Y0074023D01*
X0165407Y0074084D01*
X0165398Y0074145D01*
X0165392Y0074206D01*
X0165390Y0074268D01*
X0165390Y0075843D01*
X0171295Y0077220D02*
X0171295Y0083126D01*
X0183106Y0083126D01*
X0183106Y0077220D01*
X0171295Y0077220D01*
X0195961Y0140016D02*
X0195961Y0163638D01*
X0219583Y0163638D01*
X0219583Y0140016D01*
X0195961Y0140016D01*
X0200882Y0151827D02*
X0200884Y0151996D01*
X0200890Y0152165D01*
X0200901Y0152334D01*
X0200915Y0152502D01*
X0200934Y0152670D01*
X0200957Y0152838D01*
X0200983Y0153005D01*
X0201014Y0153171D01*
X0201049Y0153337D01*
X0201088Y0153501D01*
X0201132Y0153665D01*
X0201179Y0153827D01*
X0201230Y0153988D01*
X0201285Y0154148D01*
X0201344Y0154307D01*
X0201406Y0154464D01*
X0201473Y0154619D01*
X0201544Y0154773D01*
X0201618Y0154925D01*
X0201696Y0155075D01*
X0201777Y0155223D01*
X0201862Y0155369D01*
X0201951Y0155513D01*
X0202043Y0155655D01*
X0202139Y0155794D01*
X0202238Y0155931D01*
X0202340Y0156066D01*
X0202446Y0156198D01*
X0202555Y0156327D01*
X0202667Y0156454D01*
X0202782Y0156578D01*
X0202900Y0156699D01*
X0203021Y0156817D01*
X0203145Y0156932D01*
X0203272Y0157044D01*
X0203401Y0157153D01*
X0203533Y0157259D01*
X0203668Y0157361D01*
X0203805Y0157460D01*
X0203944Y0157556D01*
X0204086Y0157648D01*
X0204230Y0157737D01*
X0204376Y0157822D01*
X0204524Y0157903D01*
X0204674Y0157981D01*
X0204826Y0158055D01*
X0204980Y0158126D01*
X0205135Y0158193D01*
X0205292Y0158255D01*
X0205451Y0158314D01*
X0205611Y0158369D01*
X0205772Y0158420D01*
X0205934Y0158467D01*
X0206098Y0158511D01*
X0206262Y0158550D01*
X0206428Y0158585D01*
X0206594Y0158616D01*
X0206761Y0158642D01*
X0206929Y0158665D01*
X0207097Y0158684D01*
X0207265Y0158698D01*
X0207434Y0158709D01*
X0207603Y0158715D01*
X0207772Y0158717D01*
X0207941Y0158715D01*
X0208110Y0158709D01*
X0208279Y0158698D01*
X0208447Y0158684D01*
X0208615Y0158665D01*
X0208783Y0158642D01*
X0208950Y0158616D01*
X0209116Y0158585D01*
X0209282Y0158550D01*
X0209446Y0158511D01*
X0209610Y0158467D01*
X0209772Y0158420D01*
X0209933Y0158369D01*
X0210093Y0158314D01*
X0210252Y0158255D01*
X0210409Y0158193D01*
X0210564Y0158126D01*
X0210718Y0158055D01*
X0210870Y0157981D01*
X0211020Y0157903D01*
X0211168Y0157822D01*
X0211314Y0157737D01*
X0211458Y0157648D01*
X0211600Y0157556D01*
X0211739Y0157460D01*
X0211876Y0157361D01*
X0212011Y0157259D01*
X0212143Y0157153D01*
X0212272Y0157044D01*
X0212399Y0156932D01*
X0212523Y0156817D01*
X0212644Y0156699D01*
X0212762Y0156578D01*
X0212877Y0156454D01*
X0212989Y0156327D01*
X0213098Y0156198D01*
X0213204Y0156066D01*
X0213306Y0155931D01*
X0213405Y0155794D01*
X0213501Y0155655D01*
X0213593Y0155513D01*
X0213682Y0155369D01*
X0213767Y0155223D01*
X0213848Y0155075D01*
X0213926Y0154925D01*
X0214000Y0154773D01*
X0214071Y0154619D01*
X0214138Y0154464D01*
X0214200Y0154307D01*
X0214259Y0154148D01*
X0214314Y0153988D01*
X0214365Y0153827D01*
X0214412Y0153665D01*
X0214456Y0153501D01*
X0214495Y0153337D01*
X0214530Y0153171D01*
X0214561Y0153005D01*
X0214587Y0152838D01*
X0214610Y0152670D01*
X0214629Y0152502D01*
X0214643Y0152334D01*
X0214654Y0152165D01*
X0214660Y0151996D01*
X0214662Y0151827D01*
X0214660Y0151658D01*
X0214654Y0151489D01*
X0214643Y0151320D01*
X0214629Y0151152D01*
X0214610Y0150984D01*
X0214587Y0150816D01*
X0214561Y0150649D01*
X0214530Y0150483D01*
X0214495Y0150317D01*
X0214456Y0150153D01*
X0214412Y0149989D01*
X0214365Y0149827D01*
X0214314Y0149666D01*
X0214259Y0149506D01*
X0214200Y0149347D01*
X0214138Y0149190D01*
X0214071Y0149035D01*
X0214000Y0148881D01*
X0213926Y0148729D01*
X0213848Y0148579D01*
X0213767Y0148431D01*
X0213682Y0148285D01*
X0213593Y0148141D01*
X0213501Y0147999D01*
X0213405Y0147860D01*
X0213306Y0147723D01*
X0213204Y0147588D01*
X0213098Y0147456D01*
X0212989Y0147327D01*
X0212877Y0147200D01*
X0212762Y0147076D01*
X0212644Y0146955D01*
X0212523Y0146837D01*
X0212399Y0146722D01*
X0212272Y0146610D01*
X0212143Y0146501D01*
X0212011Y0146395D01*
X0211876Y0146293D01*
X0211739Y0146194D01*
X0211600Y0146098D01*
X0211458Y0146006D01*
X0211314Y0145917D01*
X0211168Y0145832D01*
X0211020Y0145751D01*
X0210870Y0145673D01*
X0210718Y0145599D01*
X0210564Y0145528D01*
X0210409Y0145461D01*
X0210252Y0145399D01*
X0210093Y0145340D01*
X0209933Y0145285D01*
X0209772Y0145234D01*
X0209610Y0145187D01*
X0209446Y0145143D01*
X0209282Y0145104D01*
X0209116Y0145069D01*
X0208950Y0145038D01*
X0208783Y0145012D01*
X0208615Y0144989D01*
X0208447Y0144970D01*
X0208279Y0144956D01*
X0208110Y0144945D01*
X0207941Y0144939D01*
X0207772Y0144937D01*
X0207603Y0144939D01*
X0207434Y0144945D01*
X0207265Y0144956D01*
X0207097Y0144970D01*
X0206929Y0144989D01*
X0206761Y0145012D01*
X0206594Y0145038D01*
X0206428Y0145069D01*
X0206262Y0145104D01*
X0206098Y0145143D01*
X0205934Y0145187D01*
X0205772Y0145234D01*
X0205611Y0145285D01*
X0205451Y0145340D01*
X0205292Y0145399D01*
X0205135Y0145461D01*
X0204980Y0145528D01*
X0204826Y0145599D01*
X0204674Y0145673D01*
X0204524Y0145751D01*
X0204376Y0145832D01*
X0204230Y0145917D01*
X0204086Y0146006D01*
X0203944Y0146098D01*
X0203805Y0146194D01*
X0203668Y0146293D01*
X0203533Y0146395D01*
X0203401Y0146501D01*
X0203272Y0146610D01*
X0203145Y0146722D01*
X0203021Y0146837D01*
X0202900Y0146955D01*
X0202782Y0147076D01*
X0202667Y0147200D01*
X0202555Y0147327D01*
X0202446Y0147456D01*
X0202340Y0147588D01*
X0202238Y0147723D01*
X0202139Y0147860D01*
X0202043Y0147999D01*
X0201951Y0148141D01*
X0201862Y0148285D01*
X0201777Y0148431D01*
X0201696Y0148579D01*
X0201618Y0148729D01*
X0201544Y0148881D01*
X0201473Y0149035D01*
X0201406Y0149190D01*
X0201344Y0149347D01*
X0201285Y0149506D01*
X0201230Y0149666D01*
X0201179Y0149827D01*
X0201132Y0149989D01*
X0201088Y0150153D01*
X0201049Y0150317D01*
X0201014Y0150483D01*
X0200983Y0150649D01*
X0200957Y0150816D01*
X0200934Y0150984D01*
X0200915Y0151152D01*
X0200901Y0151320D01*
X0200890Y0151489D01*
X0200884Y0151658D01*
X0200882Y0151827D01*
X0239268Y0124268D02*
X0239268Y0100646D01*
X0262890Y0100646D01*
X0262890Y0124268D01*
X0239268Y0124268D01*
X0244189Y0112457D02*
X0244191Y0112626D01*
X0244197Y0112795D01*
X0244208Y0112964D01*
X0244222Y0113132D01*
X0244241Y0113300D01*
X0244264Y0113468D01*
X0244290Y0113635D01*
X0244321Y0113801D01*
X0244356Y0113967D01*
X0244395Y0114131D01*
X0244439Y0114295D01*
X0244486Y0114457D01*
X0244537Y0114618D01*
X0244592Y0114778D01*
X0244651Y0114937D01*
X0244713Y0115094D01*
X0244780Y0115249D01*
X0244851Y0115403D01*
X0244925Y0115555D01*
X0245003Y0115705D01*
X0245084Y0115853D01*
X0245169Y0115999D01*
X0245258Y0116143D01*
X0245350Y0116285D01*
X0245446Y0116424D01*
X0245545Y0116561D01*
X0245647Y0116696D01*
X0245753Y0116828D01*
X0245862Y0116957D01*
X0245974Y0117084D01*
X0246089Y0117208D01*
X0246207Y0117329D01*
X0246328Y0117447D01*
X0246452Y0117562D01*
X0246579Y0117674D01*
X0246708Y0117783D01*
X0246840Y0117889D01*
X0246975Y0117991D01*
X0247112Y0118090D01*
X0247251Y0118186D01*
X0247393Y0118278D01*
X0247537Y0118367D01*
X0247683Y0118452D01*
X0247831Y0118533D01*
X0247981Y0118611D01*
X0248133Y0118685D01*
X0248287Y0118756D01*
X0248442Y0118823D01*
X0248599Y0118885D01*
X0248758Y0118944D01*
X0248918Y0118999D01*
X0249079Y0119050D01*
X0249241Y0119097D01*
X0249405Y0119141D01*
X0249569Y0119180D01*
X0249735Y0119215D01*
X0249901Y0119246D01*
X0250068Y0119272D01*
X0250236Y0119295D01*
X0250404Y0119314D01*
X0250572Y0119328D01*
X0250741Y0119339D01*
X0250910Y0119345D01*
X0251079Y0119347D01*
X0251248Y0119345D01*
X0251417Y0119339D01*
X0251586Y0119328D01*
X0251754Y0119314D01*
X0251922Y0119295D01*
X0252090Y0119272D01*
X0252257Y0119246D01*
X0252423Y0119215D01*
X0252589Y0119180D01*
X0252753Y0119141D01*
X0252917Y0119097D01*
X0253079Y0119050D01*
X0253240Y0118999D01*
X0253400Y0118944D01*
X0253559Y0118885D01*
X0253716Y0118823D01*
X0253871Y0118756D01*
X0254025Y0118685D01*
X0254177Y0118611D01*
X0254327Y0118533D01*
X0254475Y0118452D01*
X0254621Y0118367D01*
X0254765Y0118278D01*
X0254907Y0118186D01*
X0255046Y0118090D01*
X0255183Y0117991D01*
X0255318Y0117889D01*
X0255450Y0117783D01*
X0255579Y0117674D01*
X0255706Y0117562D01*
X0255830Y0117447D01*
X0255951Y0117329D01*
X0256069Y0117208D01*
X0256184Y0117084D01*
X0256296Y0116957D01*
X0256405Y0116828D01*
X0256511Y0116696D01*
X0256613Y0116561D01*
X0256712Y0116424D01*
X0256808Y0116285D01*
X0256900Y0116143D01*
X0256989Y0115999D01*
X0257074Y0115853D01*
X0257155Y0115705D01*
X0257233Y0115555D01*
X0257307Y0115403D01*
X0257378Y0115249D01*
X0257445Y0115094D01*
X0257507Y0114937D01*
X0257566Y0114778D01*
X0257621Y0114618D01*
X0257672Y0114457D01*
X0257719Y0114295D01*
X0257763Y0114131D01*
X0257802Y0113967D01*
X0257837Y0113801D01*
X0257868Y0113635D01*
X0257894Y0113468D01*
X0257917Y0113300D01*
X0257936Y0113132D01*
X0257950Y0112964D01*
X0257961Y0112795D01*
X0257967Y0112626D01*
X0257969Y0112457D01*
X0257967Y0112288D01*
X0257961Y0112119D01*
X0257950Y0111950D01*
X0257936Y0111782D01*
X0257917Y0111614D01*
X0257894Y0111446D01*
X0257868Y0111279D01*
X0257837Y0111113D01*
X0257802Y0110947D01*
X0257763Y0110783D01*
X0257719Y0110619D01*
X0257672Y0110457D01*
X0257621Y0110296D01*
X0257566Y0110136D01*
X0257507Y0109977D01*
X0257445Y0109820D01*
X0257378Y0109665D01*
X0257307Y0109511D01*
X0257233Y0109359D01*
X0257155Y0109209D01*
X0257074Y0109061D01*
X0256989Y0108915D01*
X0256900Y0108771D01*
X0256808Y0108629D01*
X0256712Y0108490D01*
X0256613Y0108353D01*
X0256511Y0108218D01*
X0256405Y0108086D01*
X0256296Y0107957D01*
X0256184Y0107830D01*
X0256069Y0107706D01*
X0255951Y0107585D01*
X0255830Y0107467D01*
X0255706Y0107352D01*
X0255579Y0107240D01*
X0255450Y0107131D01*
X0255318Y0107025D01*
X0255183Y0106923D01*
X0255046Y0106824D01*
X0254907Y0106728D01*
X0254765Y0106636D01*
X0254621Y0106547D01*
X0254475Y0106462D01*
X0254327Y0106381D01*
X0254177Y0106303D01*
X0254025Y0106229D01*
X0253871Y0106158D01*
X0253716Y0106091D01*
X0253559Y0106029D01*
X0253400Y0105970D01*
X0253240Y0105915D01*
X0253079Y0105864D01*
X0252917Y0105817D01*
X0252753Y0105773D01*
X0252589Y0105734D01*
X0252423Y0105699D01*
X0252257Y0105668D01*
X0252090Y0105642D01*
X0251922Y0105619D01*
X0251754Y0105600D01*
X0251586Y0105586D01*
X0251417Y0105575D01*
X0251248Y0105569D01*
X0251079Y0105567D01*
X0250910Y0105569D01*
X0250741Y0105575D01*
X0250572Y0105586D01*
X0250404Y0105600D01*
X0250236Y0105619D01*
X0250068Y0105642D01*
X0249901Y0105668D01*
X0249735Y0105699D01*
X0249569Y0105734D01*
X0249405Y0105773D01*
X0249241Y0105817D01*
X0249079Y0105864D01*
X0248918Y0105915D01*
X0248758Y0105970D01*
X0248599Y0106029D01*
X0248442Y0106091D01*
X0248287Y0106158D01*
X0248133Y0106229D01*
X0247981Y0106303D01*
X0247831Y0106381D01*
X0247683Y0106462D01*
X0247537Y0106547D01*
X0247393Y0106636D01*
X0247251Y0106728D01*
X0247112Y0106824D01*
X0246975Y0106923D01*
X0246840Y0107025D01*
X0246708Y0107131D01*
X0246579Y0107240D01*
X0246452Y0107352D01*
X0246328Y0107467D01*
X0246207Y0107585D01*
X0246089Y0107706D01*
X0245974Y0107830D01*
X0245862Y0107957D01*
X0245753Y0108086D01*
X0245647Y0108218D01*
X0245545Y0108353D01*
X0245446Y0108490D01*
X0245350Y0108629D01*
X0245258Y0108771D01*
X0245169Y0108915D01*
X0245084Y0109061D01*
X0245003Y0109209D01*
X0244925Y0109359D01*
X0244851Y0109511D01*
X0244780Y0109665D01*
X0244713Y0109820D01*
X0244651Y0109977D01*
X0244592Y0110136D01*
X0244537Y0110296D01*
X0244486Y0110457D01*
X0244439Y0110619D01*
X0244395Y0110783D01*
X0244356Y0110947D01*
X0244321Y0111113D01*
X0244290Y0111279D01*
X0244264Y0111446D01*
X0244241Y0111614D01*
X0244222Y0111782D01*
X0244208Y0111950D01*
X0244197Y0112119D01*
X0244191Y0112288D01*
X0244189Y0112457D01*
X0251276Y0157693D02*
X0251276Y0181315D01*
X0274898Y0181315D01*
X0274898Y0157693D01*
X0251276Y0157693D01*
X0256197Y0169504D02*
X0256199Y0169673D01*
X0256205Y0169842D01*
X0256216Y0170011D01*
X0256230Y0170179D01*
X0256249Y0170347D01*
X0256272Y0170515D01*
X0256298Y0170682D01*
X0256329Y0170848D01*
X0256364Y0171014D01*
X0256403Y0171178D01*
X0256447Y0171342D01*
X0256494Y0171504D01*
X0256545Y0171665D01*
X0256600Y0171825D01*
X0256659Y0171984D01*
X0256721Y0172141D01*
X0256788Y0172296D01*
X0256859Y0172450D01*
X0256933Y0172602D01*
X0257011Y0172752D01*
X0257092Y0172900D01*
X0257177Y0173046D01*
X0257266Y0173190D01*
X0257358Y0173332D01*
X0257454Y0173471D01*
X0257553Y0173608D01*
X0257655Y0173743D01*
X0257761Y0173875D01*
X0257870Y0174004D01*
X0257982Y0174131D01*
X0258097Y0174255D01*
X0258215Y0174376D01*
X0258336Y0174494D01*
X0258460Y0174609D01*
X0258587Y0174721D01*
X0258716Y0174830D01*
X0258848Y0174936D01*
X0258983Y0175038D01*
X0259120Y0175137D01*
X0259259Y0175233D01*
X0259401Y0175325D01*
X0259545Y0175414D01*
X0259691Y0175499D01*
X0259839Y0175580D01*
X0259989Y0175658D01*
X0260141Y0175732D01*
X0260295Y0175803D01*
X0260450Y0175870D01*
X0260607Y0175932D01*
X0260766Y0175991D01*
X0260926Y0176046D01*
X0261087Y0176097D01*
X0261249Y0176144D01*
X0261413Y0176188D01*
X0261577Y0176227D01*
X0261743Y0176262D01*
X0261909Y0176293D01*
X0262076Y0176319D01*
X0262244Y0176342D01*
X0262412Y0176361D01*
X0262580Y0176375D01*
X0262749Y0176386D01*
X0262918Y0176392D01*
X0263087Y0176394D01*
X0263256Y0176392D01*
X0263425Y0176386D01*
X0263594Y0176375D01*
X0263762Y0176361D01*
X0263930Y0176342D01*
X0264098Y0176319D01*
X0264265Y0176293D01*
X0264431Y0176262D01*
X0264597Y0176227D01*
X0264761Y0176188D01*
X0264925Y0176144D01*
X0265087Y0176097D01*
X0265248Y0176046D01*
X0265408Y0175991D01*
X0265567Y0175932D01*
X0265724Y0175870D01*
X0265879Y0175803D01*
X0266033Y0175732D01*
X0266185Y0175658D01*
X0266335Y0175580D01*
X0266483Y0175499D01*
X0266629Y0175414D01*
X0266773Y0175325D01*
X0266915Y0175233D01*
X0267054Y0175137D01*
X0267191Y0175038D01*
X0267326Y0174936D01*
X0267458Y0174830D01*
X0267587Y0174721D01*
X0267714Y0174609D01*
X0267838Y0174494D01*
X0267959Y0174376D01*
X0268077Y0174255D01*
X0268192Y0174131D01*
X0268304Y0174004D01*
X0268413Y0173875D01*
X0268519Y0173743D01*
X0268621Y0173608D01*
X0268720Y0173471D01*
X0268816Y0173332D01*
X0268908Y0173190D01*
X0268997Y0173046D01*
X0269082Y0172900D01*
X0269163Y0172752D01*
X0269241Y0172602D01*
X0269315Y0172450D01*
X0269386Y0172296D01*
X0269453Y0172141D01*
X0269515Y0171984D01*
X0269574Y0171825D01*
X0269629Y0171665D01*
X0269680Y0171504D01*
X0269727Y0171342D01*
X0269771Y0171178D01*
X0269810Y0171014D01*
X0269845Y0170848D01*
X0269876Y0170682D01*
X0269902Y0170515D01*
X0269925Y0170347D01*
X0269944Y0170179D01*
X0269958Y0170011D01*
X0269969Y0169842D01*
X0269975Y0169673D01*
X0269977Y0169504D01*
X0269975Y0169335D01*
X0269969Y0169166D01*
X0269958Y0168997D01*
X0269944Y0168829D01*
X0269925Y0168661D01*
X0269902Y0168493D01*
X0269876Y0168326D01*
X0269845Y0168160D01*
X0269810Y0167994D01*
X0269771Y0167830D01*
X0269727Y0167666D01*
X0269680Y0167504D01*
X0269629Y0167343D01*
X0269574Y0167183D01*
X0269515Y0167024D01*
X0269453Y0166867D01*
X0269386Y0166712D01*
X0269315Y0166558D01*
X0269241Y0166406D01*
X0269163Y0166256D01*
X0269082Y0166108D01*
X0268997Y0165962D01*
X0268908Y0165818D01*
X0268816Y0165676D01*
X0268720Y0165537D01*
X0268621Y0165400D01*
X0268519Y0165265D01*
X0268413Y0165133D01*
X0268304Y0165004D01*
X0268192Y0164877D01*
X0268077Y0164753D01*
X0267959Y0164632D01*
X0267838Y0164514D01*
X0267714Y0164399D01*
X0267587Y0164287D01*
X0267458Y0164178D01*
X0267326Y0164072D01*
X0267191Y0163970D01*
X0267054Y0163871D01*
X0266915Y0163775D01*
X0266773Y0163683D01*
X0266629Y0163594D01*
X0266483Y0163509D01*
X0266335Y0163428D01*
X0266185Y0163350D01*
X0266033Y0163276D01*
X0265879Y0163205D01*
X0265724Y0163138D01*
X0265567Y0163076D01*
X0265408Y0163017D01*
X0265248Y0162962D01*
X0265087Y0162911D01*
X0264925Y0162864D01*
X0264761Y0162820D01*
X0264597Y0162781D01*
X0264431Y0162746D01*
X0264265Y0162715D01*
X0264098Y0162689D01*
X0263930Y0162666D01*
X0263762Y0162647D01*
X0263594Y0162633D01*
X0263425Y0162622D01*
X0263256Y0162616D01*
X0263087Y0162614D01*
X0262918Y0162616D01*
X0262749Y0162622D01*
X0262580Y0162633D01*
X0262412Y0162647D01*
X0262244Y0162666D01*
X0262076Y0162689D01*
X0261909Y0162715D01*
X0261743Y0162746D01*
X0261577Y0162781D01*
X0261413Y0162820D01*
X0261249Y0162864D01*
X0261087Y0162911D01*
X0260926Y0162962D01*
X0260766Y0163017D01*
X0260607Y0163076D01*
X0260450Y0163138D01*
X0260295Y0163205D01*
X0260141Y0163276D01*
X0259989Y0163350D01*
X0259839Y0163428D01*
X0259691Y0163509D01*
X0259545Y0163594D01*
X0259401Y0163683D01*
X0259259Y0163775D01*
X0259120Y0163871D01*
X0258983Y0163970D01*
X0258848Y0164072D01*
X0258716Y0164178D01*
X0258587Y0164287D01*
X0258460Y0164399D01*
X0258336Y0164514D01*
X0258215Y0164632D01*
X0258097Y0164753D01*
X0257982Y0164877D01*
X0257870Y0165004D01*
X0257761Y0165133D01*
X0257655Y0165265D01*
X0257553Y0165400D01*
X0257454Y0165537D01*
X0257358Y0165676D01*
X0257266Y0165818D01*
X0257177Y0165962D01*
X0257092Y0166108D01*
X0257011Y0166256D01*
X0256933Y0166406D01*
X0256859Y0166558D01*
X0256788Y0166712D01*
X0256721Y0166867D01*
X0256659Y0167024D01*
X0256600Y0167183D01*
X0256545Y0167343D01*
X0256494Y0167504D01*
X0256447Y0167666D01*
X0256403Y0167830D01*
X0256364Y0167994D01*
X0256329Y0168160D01*
X0256298Y0168326D01*
X0256272Y0168493D01*
X0256249Y0168661D01*
X0256230Y0168829D01*
X0256216Y0168997D01*
X0256205Y0169166D01*
X0256199Y0169335D01*
X0256197Y0169504D01*
X0108480Y0174228D02*
X0108480Y0150606D01*
X0084858Y0150606D01*
X0084858Y0174228D01*
X0108480Y0174228D01*
X0089779Y0162417D02*
X0089781Y0162586D01*
X0089787Y0162755D01*
X0089798Y0162924D01*
X0089812Y0163092D01*
X0089831Y0163260D01*
X0089854Y0163428D01*
X0089880Y0163595D01*
X0089911Y0163761D01*
X0089946Y0163927D01*
X0089985Y0164091D01*
X0090029Y0164255D01*
X0090076Y0164417D01*
X0090127Y0164578D01*
X0090182Y0164738D01*
X0090241Y0164897D01*
X0090303Y0165054D01*
X0090370Y0165209D01*
X0090441Y0165363D01*
X0090515Y0165515D01*
X0090593Y0165665D01*
X0090674Y0165813D01*
X0090759Y0165959D01*
X0090848Y0166103D01*
X0090940Y0166245D01*
X0091036Y0166384D01*
X0091135Y0166521D01*
X0091237Y0166656D01*
X0091343Y0166788D01*
X0091452Y0166917D01*
X0091564Y0167044D01*
X0091679Y0167168D01*
X0091797Y0167289D01*
X0091918Y0167407D01*
X0092042Y0167522D01*
X0092169Y0167634D01*
X0092298Y0167743D01*
X0092430Y0167849D01*
X0092565Y0167951D01*
X0092702Y0168050D01*
X0092841Y0168146D01*
X0092983Y0168238D01*
X0093127Y0168327D01*
X0093273Y0168412D01*
X0093421Y0168493D01*
X0093571Y0168571D01*
X0093723Y0168645D01*
X0093877Y0168716D01*
X0094032Y0168783D01*
X0094189Y0168845D01*
X0094348Y0168904D01*
X0094508Y0168959D01*
X0094669Y0169010D01*
X0094831Y0169057D01*
X0094995Y0169101D01*
X0095159Y0169140D01*
X0095325Y0169175D01*
X0095491Y0169206D01*
X0095658Y0169232D01*
X0095826Y0169255D01*
X0095994Y0169274D01*
X0096162Y0169288D01*
X0096331Y0169299D01*
X0096500Y0169305D01*
X0096669Y0169307D01*
X0096838Y0169305D01*
X0097007Y0169299D01*
X0097176Y0169288D01*
X0097344Y0169274D01*
X0097512Y0169255D01*
X0097680Y0169232D01*
X0097847Y0169206D01*
X0098013Y0169175D01*
X0098179Y0169140D01*
X0098343Y0169101D01*
X0098507Y0169057D01*
X0098669Y0169010D01*
X0098830Y0168959D01*
X0098990Y0168904D01*
X0099149Y0168845D01*
X0099306Y0168783D01*
X0099461Y0168716D01*
X0099615Y0168645D01*
X0099767Y0168571D01*
X0099917Y0168493D01*
X0100065Y0168412D01*
X0100211Y0168327D01*
X0100355Y0168238D01*
X0100497Y0168146D01*
X0100636Y0168050D01*
X0100773Y0167951D01*
X0100908Y0167849D01*
X0101040Y0167743D01*
X0101169Y0167634D01*
X0101296Y0167522D01*
X0101420Y0167407D01*
X0101541Y0167289D01*
X0101659Y0167168D01*
X0101774Y0167044D01*
X0101886Y0166917D01*
X0101995Y0166788D01*
X0102101Y0166656D01*
X0102203Y0166521D01*
X0102302Y0166384D01*
X0102398Y0166245D01*
X0102490Y0166103D01*
X0102579Y0165959D01*
X0102664Y0165813D01*
X0102745Y0165665D01*
X0102823Y0165515D01*
X0102897Y0165363D01*
X0102968Y0165209D01*
X0103035Y0165054D01*
X0103097Y0164897D01*
X0103156Y0164738D01*
X0103211Y0164578D01*
X0103262Y0164417D01*
X0103309Y0164255D01*
X0103353Y0164091D01*
X0103392Y0163927D01*
X0103427Y0163761D01*
X0103458Y0163595D01*
X0103484Y0163428D01*
X0103507Y0163260D01*
X0103526Y0163092D01*
X0103540Y0162924D01*
X0103551Y0162755D01*
X0103557Y0162586D01*
X0103559Y0162417D01*
X0103557Y0162248D01*
X0103551Y0162079D01*
X0103540Y0161910D01*
X0103526Y0161742D01*
X0103507Y0161574D01*
X0103484Y0161406D01*
X0103458Y0161239D01*
X0103427Y0161073D01*
X0103392Y0160907D01*
X0103353Y0160743D01*
X0103309Y0160579D01*
X0103262Y0160417D01*
X0103211Y0160256D01*
X0103156Y0160096D01*
X0103097Y0159937D01*
X0103035Y0159780D01*
X0102968Y0159625D01*
X0102897Y0159471D01*
X0102823Y0159319D01*
X0102745Y0159169D01*
X0102664Y0159021D01*
X0102579Y0158875D01*
X0102490Y0158731D01*
X0102398Y0158589D01*
X0102302Y0158450D01*
X0102203Y0158313D01*
X0102101Y0158178D01*
X0101995Y0158046D01*
X0101886Y0157917D01*
X0101774Y0157790D01*
X0101659Y0157666D01*
X0101541Y0157545D01*
X0101420Y0157427D01*
X0101296Y0157312D01*
X0101169Y0157200D01*
X0101040Y0157091D01*
X0100908Y0156985D01*
X0100773Y0156883D01*
X0100636Y0156784D01*
X0100497Y0156688D01*
X0100355Y0156596D01*
X0100211Y0156507D01*
X0100065Y0156422D01*
X0099917Y0156341D01*
X0099767Y0156263D01*
X0099615Y0156189D01*
X0099461Y0156118D01*
X0099306Y0156051D01*
X0099149Y0155989D01*
X0098990Y0155930D01*
X0098830Y0155875D01*
X0098669Y0155824D01*
X0098507Y0155777D01*
X0098343Y0155733D01*
X0098179Y0155694D01*
X0098013Y0155659D01*
X0097847Y0155628D01*
X0097680Y0155602D01*
X0097512Y0155579D01*
X0097344Y0155560D01*
X0097176Y0155546D01*
X0097007Y0155535D01*
X0096838Y0155529D01*
X0096669Y0155527D01*
X0096500Y0155529D01*
X0096331Y0155535D01*
X0096162Y0155546D01*
X0095994Y0155560D01*
X0095826Y0155579D01*
X0095658Y0155602D01*
X0095491Y0155628D01*
X0095325Y0155659D01*
X0095159Y0155694D01*
X0094995Y0155733D01*
X0094831Y0155777D01*
X0094669Y0155824D01*
X0094508Y0155875D01*
X0094348Y0155930D01*
X0094189Y0155989D01*
X0094032Y0156051D01*
X0093877Y0156118D01*
X0093723Y0156189D01*
X0093571Y0156263D01*
X0093421Y0156341D01*
X0093273Y0156422D01*
X0093127Y0156507D01*
X0092983Y0156596D01*
X0092841Y0156688D01*
X0092702Y0156784D01*
X0092565Y0156883D01*
X0092430Y0156985D01*
X0092298Y0157091D01*
X0092169Y0157200D01*
X0092042Y0157312D01*
X0091918Y0157427D01*
X0091797Y0157545D01*
X0091679Y0157666D01*
X0091564Y0157790D01*
X0091452Y0157917D01*
X0091343Y0158046D01*
X0091237Y0158178D01*
X0091135Y0158313D01*
X0091036Y0158450D01*
X0090940Y0158589D01*
X0090848Y0158731D01*
X0090759Y0158875D01*
X0090674Y0159021D01*
X0090593Y0159169D01*
X0090515Y0159319D01*
X0090441Y0159471D01*
X0090370Y0159625D01*
X0090303Y0159780D01*
X0090241Y0159937D01*
X0090182Y0160096D01*
X0090127Y0160256D01*
X0090076Y0160417D01*
X0090029Y0160579D01*
X0089985Y0160743D01*
X0089946Y0160907D01*
X0089911Y0161073D01*
X0089880Y0161239D01*
X0089854Y0161406D01*
X0089831Y0161574D01*
X0089812Y0161742D01*
X0089798Y0161910D01*
X0089787Y0162079D01*
X0089781Y0162248D01*
X0089779Y0162417D01*
X0076984Y0142732D02*
X0053362Y0142732D01*
X0053362Y0119110D01*
X0076984Y0119110D01*
X0076984Y0142732D01*
X0058283Y0130921D02*
X0058285Y0131090D01*
X0058291Y0131259D01*
X0058302Y0131428D01*
X0058316Y0131596D01*
X0058335Y0131764D01*
X0058358Y0131932D01*
X0058384Y0132099D01*
X0058415Y0132265D01*
X0058450Y0132431D01*
X0058489Y0132595D01*
X0058533Y0132759D01*
X0058580Y0132921D01*
X0058631Y0133082D01*
X0058686Y0133242D01*
X0058745Y0133401D01*
X0058807Y0133558D01*
X0058874Y0133713D01*
X0058945Y0133867D01*
X0059019Y0134019D01*
X0059097Y0134169D01*
X0059178Y0134317D01*
X0059263Y0134463D01*
X0059352Y0134607D01*
X0059444Y0134749D01*
X0059540Y0134888D01*
X0059639Y0135025D01*
X0059741Y0135160D01*
X0059847Y0135292D01*
X0059956Y0135421D01*
X0060068Y0135548D01*
X0060183Y0135672D01*
X0060301Y0135793D01*
X0060422Y0135911D01*
X0060546Y0136026D01*
X0060673Y0136138D01*
X0060802Y0136247D01*
X0060934Y0136353D01*
X0061069Y0136455D01*
X0061206Y0136554D01*
X0061345Y0136650D01*
X0061487Y0136742D01*
X0061631Y0136831D01*
X0061777Y0136916D01*
X0061925Y0136997D01*
X0062075Y0137075D01*
X0062227Y0137149D01*
X0062381Y0137220D01*
X0062536Y0137287D01*
X0062693Y0137349D01*
X0062852Y0137408D01*
X0063012Y0137463D01*
X0063173Y0137514D01*
X0063335Y0137561D01*
X0063499Y0137605D01*
X0063663Y0137644D01*
X0063829Y0137679D01*
X0063995Y0137710D01*
X0064162Y0137736D01*
X0064330Y0137759D01*
X0064498Y0137778D01*
X0064666Y0137792D01*
X0064835Y0137803D01*
X0065004Y0137809D01*
X0065173Y0137811D01*
X0065342Y0137809D01*
X0065511Y0137803D01*
X0065680Y0137792D01*
X0065848Y0137778D01*
X0066016Y0137759D01*
X0066184Y0137736D01*
X0066351Y0137710D01*
X0066517Y0137679D01*
X0066683Y0137644D01*
X0066847Y0137605D01*
X0067011Y0137561D01*
X0067173Y0137514D01*
X0067334Y0137463D01*
X0067494Y0137408D01*
X0067653Y0137349D01*
X0067810Y0137287D01*
X0067965Y0137220D01*
X0068119Y0137149D01*
X0068271Y0137075D01*
X0068421Y0136997D01*
X0068569Y0136916D01*
X0068715Y0136831D01*
X0068859Y0136742D01*
X0069001Y0136650D01*
X0069140Y0136554D01*
X0069277Y0136455D01*
X0069412Y0136353D01*
X0069544Y0136247D01*
X0069673Y0136138D01*
X0069800Y0136026D01*
X0069924Y0135911D01*
X0070045Y0135793D01*
X0070163Y0135672D01*
X0070278Y0135548D01*
X0070390Y0135421D01*
X0070499Y0135292D01*
X0070605Y0135160D01*
X0070707Y0135025D01*
X0070806Y0134888D01*
X0070902Y0134749D01*
X0070994Y0134607D01*
X0071083Y0134463D01*
X0071168Y0134317D01*
X0071249Y0134169D01*
X0071327Y0134019D01*
X0071401Y0133867D01*
X0071472Y0133713D01*
X0071539Y0133558D01*
X0071601Y0133401D01*
X0071660Y0133242D01*
X0071715Y0133082D01*
X0071766Y0132921D01*
X0071813Y0132759D01*
X0071857Y0132595D01*
X0071896Y0132431D01*
X0071931Y0132265D01*
X0071962Y0132099D01*
X0071988Y0131932D01*
X0072011Y0131764D01*
X0072030Y0131596D01*
X0072044Y0131428D01*
X0072055Y0131259D01*
X0072061Y0131090D01*
X0072063Y0130921D01*
X0072061Y0130752D01*
X0072055Y0130583D01*
X0072044Y0130414D01*
X0072030Y0130246D01*
X0072011Y0130078D01*
X0071988Y0129910D01*
X0071962Y0129743D01*
X0071931Y0129577D01*
X0071896Y0129411D01*
X0071857Y0129247D01*
X0071813Y0129083D01*
X0071766Y0128921D01*
X0071715Y0128760D01*
X0071660Y0128600D01*
X0071601Y0128441D01*
X0071539Y0128284D01*
X0071472Y0128129D01*
X0071401Y0127975D01*
X0071327Y0127823D01*
X0071249Y0127673D01*
X0071168Y0127525D01*
X0071083Y0127379D01*
X0070994Y0127235D01*
X0070902Y0127093D01*
X0070806Y0126954D01*
X0070707Y0126817D01*
X0070605Y0126682D01*
X0070499Y0126550D01*
X0070390Y0126421D01*
X0070278Y0126294D01*
X0070163Y0126170D01*
X0070045Y0126049D01*
X0069924Y0125931D01*
X0069800Y0125816D01*
X0069673Y0125704D01*
X0069544Y0125595D01*
X0069412Y0125489D01*
X0069277Y0125387D01*
X0069140Y0125288D01*
X0069001Y0125192D01*
X0068859Y0125100D01*
X0068715Y0125011D01*
X0068569Y0124926D01*
X0068421Y0124845D01*
X0068271Y0124767D01*
X0068119Y0124693D01*
X0067965Y0124622D01*
X0067810Y0124555D01*
X0067653Y0124493D01*
X0067494Y0124434D01*
X0067334Y0124379D01*
X0067173Y0124328D01*
X0067011Y0124281D01*
X0066847Y0124237D01*
X0066683Y0124198D01*
X0066517Y0124163D01*
X0066351Y0124132D01*
X0066184Y0124106D01*
X0066016Y0124083D01*
X0065848Y0124064D01*
X0065680Y0124050D01*
X0065511Y0124039D01*
X0065342Y0124033D01*
X0065173Y0124031D01*
X0065004Y0124033D01*
X0064835Y0124039D01*
X0064666Y0124050D01*
X0064498Y0124064D01*
X0064330Y0124083D01*
X0064162Y0124106D01*
X0063995Y0124132D01*
X0063829Y0124163D01*
X0063663Y0124198D01*
X0063499Y0124237D01*
X0063335Y0124281D01*
X0063173Y0124328D01*
X0063012Y0124379D01*
X0062852Y0124434D01*
X0062693Y0124493D01*
X0062536Y0124555D01*
X0062381Y0124622D01*
X0062227Y0124693D01*
X0062075Y0124767D01*
X0061925Y0124845D01*
X0061777Y0124926D01*
X0061631Y0125011D01*
X0061487Y0125100D01*
X0061345Y0125192D01*
X0061206Y0125288D01*
X0061069Y0125387D01*
X0060934Y0125489D01*
X0060802Y0125595D01*
X0060673Y0125704D01*
X0060546Y0125816D01*
X0060422Y0125931D01*
X0060301Y0126049D01*
X0060183Y0126170D01*
X0060068Y0126294D01*
X0059956Y0126421D01*
X0059847Y0126550D01*
X0059741Y0126682D01*
X0059639Y0126817D01*
X0059540Y0126954D01*
X0059444Y0127093D01*
X0059352Y0127235D01*
X0059263Y0127379D01*
X0059178Y0127525D01*
X0059097Y0127673D01*
X0059019Y0127823D01*
X0058945Y0127975D01*
X0058874Y0128129D01*
X0058807Y0128284D01*
X0058745Y0128441D01*
X0058686Y0128600D01*
X0058631Y0128760D01*
X0058580Y0128921D01*
X0058533Y0129083D01*
X0058489Y0129247D01*
X0058450Y0129411D01*
X0058415Y0129577D01*
X0058384Y0129743D01*
X0058358Y0129910D01*
X0058335Y0130078D01*
X0058316Y0130246D01*
X0058302Y0130414D01*
X0058291Y0130583D01*
X0058285Y0130752D01*
X0058283Y0130921D01*
X0045488Y0150606D02*
X0021866Y0150606D01*
X0021866Y0174228D01*
X0045488Y0174228D01*
X0045488Y0150606D01*
X0026787Y0162417D02*
X0026789Y0162586D01*
X0026795Y0162755D01*
X0026806Y0162924D01*
X0026820Y0163092D01*
X0026839Y0163260D01*
X0026862Y0163428D01*
X0026888Y0163595D01*
X0026919Y0163761D01*
X0026954Y0163927D01*
X0026993Y0164091D01*
X0027037Y0164255D01*
X0027084Y0164417D01*
X0027135Y0164578D01*
X0027190Y0164738D01*
X0027249Y0164897D01*
X0027311Y0165054D01*
X0027378Y0165209D01*
X0027449Y0165363D01*
X0027523Y0165515D01*
X0027601Y0165665D01*
X0027682Y0165813D01*
X0027767Y0165959D01*
X0027856Y0166103D01*
X0027948Y0166245D01*
X0028044Y0166384D01*
X0028143Y0166521D01*
X0028245Y0166656D01*
X0028351Y0166788D01*
X0028460Y0166917D01*
X0028572Y0167044D01*
X0028687Y0167168D01*
X0028805Y0167289D01*
X0028926Y0167407D01*
X0029050Y0167522D01*
X0029177Y0167634D01*
X0029306Y0167743D01*
X0029438Y0167849D01*
X0029573Y0167951D01*
X0029710Y0168050D01*
X0029849Y0168146D01*
X0029991Y0168238D01*
X0030135Y0168327D01*
X0030281Y0168412D01*
X0030429Y0168493D01*
X0030579Y0168571D01*
X0030731Y0168645D01*
X0030885Y0168716D01*
X0031040Y0168783D01*
X0031197Y0168845D01*
X0031356Y0168904D01*
X0031516Y0168959D01*
X0031677Y0169010D01*
X0031839Y0169057D01*
X0032003Y0169101D01*
X0032167Y0169140D01*
X0032333Y0169175D01*
X0032499Y0169206D01*
X0032666Y0169232D01*
X0032834Y0169255D01*
X0033002Y0169274D01*
X0033170Y0169288D01*
X0033339Y0169299D01*
X0033508Y0169305D01*
X0033677Y0169307D01*
X0033846Y0169305D01*
X0034015Y0169299D01*
X0034184Y0169288D01*
X0034352Y0169274D01*
X0034520Y0169255D01*
X0034688Y0169232D01*
X0034855Y0169206D01*
X0035021Y0169175D01*
X0035187Y0169140D01*
X0035351Y0169101D01*
X0035515Y0169057D01*
X0035677Y0169010D01*
X0035838Y0168959D01*
X0035998Y0168904D01*
X0036157Y0168845D01*
X0036314Y0168783D01*
X0036469Y0168716D01*
X0036623Y0168645D01*
X0036775Y0168571D01*
X0036925Y0168493D01*
X0037073Y0168412D01*
X0037219Y0168327D01*
X0037363Y0168238D01*
X0037505Y0168146D01*
X0037644Y0168050D01*
X0037781Y0167951D01*
X0037916Y0167849D01*
X0038048Y0167743D01*
X0038177Y0167634D01*
X0038304Y0167522D01*
X0038428Y0167407D01*
X0038549Y0167289D01*
X0038667Y0167168D01*
X0038782Y0167044D01*
X0038894Y0166917D01*
X0039003Y0166788D01*
X0039109Y0166656D01*
X0039211Y0166521D01*
X0039310Y0166384D01*
X0039406Y0166245D01*
X0039498Y0166103D01*
X0039587Y0165959D01*
X0039672Y0165813D01*
X0039753Y0165665D01*
X0039831Y0165515D01*
X0039905Y0165363D01*
X0039976Y0165209D01*
X0040043Y0165054D01*
X0040105Y0164897D01*
X0040164Y0164738D01*
X0040219Y0164578D01*
X0040270Y0164417D01*
X0040317Y0164255D01*
X0040361Y0164091D01*
X0040400Y0163927D01*
X0040435Y0163761D01*
X0040466Y0163595D01*
X0040492Y0163428D01*
X0040515Y0163260D01*
X0040534Y0163092D01*
X0040548Y0162924D01*
X0040559Y0162755D01*
X0040565Y0162586D01*
X0040567Y0162417D01*
X0040565Y0162248D01*
X0040559Y0162079D01*
X0040548Y0161910D01*
X0040534Y0161742D01*
X0040515Y0161574D01*
X0040492Y0161406D01*
X0040466Y0161239D01*
X0040435Y0161073D01*
X0040400Y0160907D01*
X0040361Y0160743D01*
X0040317Y0160579D01*
X0040270Y0160417D01*
X0040219Y0160256D01*
X0040164Y0160096D01*
X0040105Y0159937D01*
X0040043Y0159780D01*
X0039976Y0159625D01*
X0039905Y0159471D01*
X0039831Y0159319D01*
X0039753Y0159169D01*
X0039672Y0159021D01*
X0039587Y0158875D01*
X0039498Y0158731D01*
X0039406Y0158589D01*
X0039310Y0158450D01*
X0039211Y0158313D01*
X0039109Y0158178D01*
X0039003Y0158046D01*
X0038894Y0157917D01*
X0038782Y0157790D01*
X0038667Y0157666D01*
X0038549Y0157545D01*
X0038428Y0157427D01*
X0038304Y0157312D01*
X0038177Y0157200D01*
X0038048Y0157091D01*
X0037916Y0156985D01*
X0037781Y0156883D01*
X0037644Y0156784D01*
X0037505Y0156688D01*
X0037363Y0156596D01*
X0037219Y0156507D01*
X0037073Y0156422D01*
X0036925Y0156341D01*
X0036775Y0156263D01*
X0036623Y0156189D01*
X0036469Y0156118D01*
X0036314Y0156051D01*
X0036157Y0155989D01*
X0035998Y0155930D01*
X0035838Y0155875D01*
X0035677Y0155824D01*
X0035515Y0155777D01*
X0035351Y0155733D01*
X0035187Y0155694D01*
X0035021Y0155659D01*
X0034855Y0155628D01*
X0034688Y0155602D01*
X0034520Y0155579D01*
X0034352Y0155560D01*
X0034184Y0155546D01*
X0034015Y0155535D01*
X0033846Y0155529D01*
X0033677Y0155527D01*
X0033508Y0155529D01*
X0033339Y0155535D01*
X0033170Y0155546D01*
X0033002Y0155560D01*
X0032834Y0155579D01*
X0032666Y0155602D01*
X0032499Y0155628D01*
X0032333Y0155659D01*
X0032167Y0155694D01*
X0032003Y0155733D01*
X0031839Y0155777D01*
X0031677Y0155824D01*
X0031516Y0155875D01*
X0031356Y0155930D01*
X0031197Y0155989D01*
X0031040Y0156051D01*
X0030885Y0156118D01*
X0030731Y0156189D01*
X0030579Y0156263D01*
X0030429Y0156341D01*
X0030281Y0156422D01*
X0030135Y0156507D01*
X0029991Y0156596D01*
X0029849Y0156688D01*
X0029710Y0156784D01*
X0029573Y0156883D01*
X0029438Y0156985D01*
X0029306Y0157091D01*
X0029177Y0157200D01*
X0029050Y0157312D01*
X0028926Y0157427D01*
X0028805Y0157545D01*
X0028687Y0157666D01*
X0028572Y0157790D01*
X0028460Y0157917D01*
X0028351Y0158046D01*
X0028245Y0158178D01*
X0028143Y0158313D01*
X0028044Y0158450D01*
X0027948Y0158589D01*
X0027856Y0158731D01*
X0027767Y0158875D01*
X0027682Y0159021D01*
X0027601Y0159169D01*
X0027523Y0159319D01*
X0027449Y0159471D01*
X0027378Y0159625D01*
X0027311Y0159780D01*
X0027249Y0159937D01*
X0027190Y0160096D01*
X0027135Y0160256D01*
X0027084Y0160417D01*
X0027037Y0160579D01*
X0026993Y0160743D01*
X0026954Y0160907D01*
X0026919Y0161073D01*
X0026888Y0161239D01*
X0026862Y0161406D01*
X0026839Y0161574D01*
X0026820Y0161742D01*
X0026806Y0161910D01*
X0026795Y0162079D01*
X0026789Y0162248D01*
X0026787Y0162417D01*
X0053362Y0182102D02*
X0053362Y0205724D01*
X0076984Y0205724D01*
X0076984Y0182102D01*
X0053362Y0182102D01*
X0058283Y0193913D02*
X0058285Y0194082D01*
X0058291Y0194251D01*
X0058302Y0194420D01*
X0058316Y0194588D01*
X0058335Y0194756D01*
X0058358Y0194924D01*
X0058384Y0195091D01*
X0058415Y0195257D01*
X0058450Y0195423D01*
X0058489Y0195587D01*
X0058533Y0195751D01*
X0058580Y0195913D01*
X0058631Y0196074D01*
X0058686Y0196234D01*
X0058745Y0196393D01*
X0058807Y0196550D01*
X0058874Y0196705D01*
X0058945Y0196859D01*
X0059019Y0197011D01*
X0059097Y0197161D01*
X0059178Y0197309D01*
X0059263Y0197455D01*
X0059352Y0197599D01*
X0059444Y0197741D01*
X0059540Y0197880D01*
X0059639Y0198017D01*
X0059741Y0198152D01*
X0059847Y0198284D01*
X0059956Y0198413D01*
X0060068Y0198540D01*
X0060183Y0198664D01*
X0060301Y0198785D01*
X0060422Y0198903D01*
X0060546Y0199018D01*
X0060673Y0199130D01*
X0060802Y0199239D01*
X0060934Y0199345D01*
X0061069Y0199447D01*
X0061206Y0199546D01*
X0061345Y0199642D01*
X0061487Y0199734D01*
X0061631Y0199823D01*
X0061777Y0199908D01*
X0061925Y0199989D01*
X0062075Y0200067D01*
X0062227Y0200141D01*
X0062381Y0200212D01*
X0062536Y0200279D01*
X0062693Y0200341D01*
X0062852Y0200400D01*
X0063012Y0200455D01*
X0063173Y0200506D01*
X0063335Y0200553D01*
X0063499Y0200597D01*
X0063663Y0200636D01*
X0063829Y0200671D01*
X0063995Y0200702D01*
X0064162Y0200728D01*
X0064330Y0200751D01*
X0064498Y0200770D01*
X0064666Y0200784D01*
X0064835Y0200795D01*
X0065004Y0200801D01*
X0065173Y0200803D01*
X0065342Y0200801D01*
X0065511Y0200795D01*
X0065680Y0200784D01*
X0065848Y0200770D01*
X0066016Y0200751D01*
X0066184Y0200728D01*
X0066351Y0200702D01*
X0066517Y0200671D01*
X0066683Y0200636D01*
X0066847Y0200597D01*
X0067011Y0200553D01*
X0067173Y0200506D01*
X0067334Y0200455D01*
X0067494Y0200400D01*
X0067653Y0200341D01*
X0067810Y0200279D01*
X0067965Y0200212D01*
X0068119Y0200141D01*
X0068271Y0200067D01*
X0068421Y0199989D01*
X0068569Y0199908D01*
X0068715Y0199823D01*
X0068859Y0199734D01*
X0069001Y0199642D01*
X0069140Y0199546D01*
X0069277Y0199447D01*
X0069412Y0199345D01*
X0069544Y0199239D01*
X0069673Y0199130D01*
X0069800Y0199018D01*
X0069924Y0198903D01*
X0070045Y0198785D01*
X0070163Y0198664D01*
X0070278Y0198540D01*
X0070390Y0198413D01*
X0070499Y0198284D01*
X0070605Y0198152D01*
X0070707Y0198017D01*
X0070806Y0197880D01*
X0070902Y0197741D01*
X0070994Y0197599D01*
X0071083Y0197455D01*
X0071168Y0197309D01*
X0071249Y0197161D01*
X0071327Y0197011D01*
X0071401Y0196859D01*
X0071472Y0196705D01*
X0071539Y0196550D01*
X0071601Y0196393D01*
X0071660Y0196234D01*
X0071715Y0196074D01*
X0071766Y0195913D01*
X0071813Y0195751D01*
X0071857Y0195587D01*
X0071896Y0195423D01*
X0071931Y0195257D01*
X0071962Y0195091D01*
X0071988Y0194924D01*
X0072011Y0194756D01*
X0072030Y0194588D01*
X0072044Y0194420D01*
X0072055Y0194251D01*
X0072061Y0194082D01*
X0072063Y0193913D01*
X0072061Y0193744D01*
X0072055Y0193575D01*
X0072044Y0193406D01*
X0072030Y0193238D01*
X0072011Y0193070D01*
X0071988Y0192902D01*
X0071962Y0192735D01*
X0071931Y0192569D01*
X0071896Y0192403D01*
X0071857Y0192239D01*
X0071813Y0192075D01*
X0071766Y0191913D01*
X0071715Y0191752D01*
X0071660Y0191592D01*
X0071601Y0191433D01*
X0071539Y0191276D01*
X0071472Y0191121D01*
X0071401Y0190967D01*
X0071327Y0190815D01*
X0071249Y0190665D01*
X0071168Y0190517D01*
X0071083Y0190371D01*
X0070994Y0190227D01*
X0070902Y0190085D01*
X0070806Y0189946D01*
X0070707Y0189809D01*
X0070605Y0189674D01*
X0070499Y0189542D01*
X0070390Y0189413D01*
X0070278Y0189286D01*
X0070163Y0189162D01*
X0070045Y0189041D01*
X0069924Y0188923D01*
X0069800Y0188808D01*
X0069673Y0188696D01*
X0069544Y0188587D01*
X0069412Y0188481D01*
X0069277Y0188379D01*
X0069140Y0188280D01*
X0069001Y0188184D01*
X0068859Y0188092D01*
X0068715Y0188003D01*
X0068569Y0187918D01*
X0068421Y0187837D01*
X0068271Y0187759D01*
X0068119Y0187685D01*
X0067965Y0187614D01*
X0067810Y0187547D01*
X0067653Y0187485D01*
X0067494Y0187426D01*
X0067334Y0187371D01*
X0067173Y0187320D01*
X0067011Y0187273D01*
X0066847Y0187229D01*
X0066683Y0187190D01*
X0066517Y0187155D01*
X0066351Y0187124D01*
X0066184Y0187098D01*
X0066016Y0187075D01*
X0065848Y0187056D01*
X0065680Y0187042D01*
X0065511Y0187031D01*
X0065342Y0187025D01*
X0065173Y0187023D01*
X0065004Y0187025D01*
X0064835Y0187031D01*
X0064666Y0187042D01*
X0064498Y0187056D01*
X0064330Y0187075D01*
X0064162Y0187098D01*
X0063995Y0187124D01*
X0063829Y0187155D01*
X0063663Y0187190D01*
X0063499Y0187229D01*
X0063335Y0187273D01*
X0063173Y0187320D01*
X0063012Y0187371D01*
X0062852Y0187426D01*
X0062693Y0187485D01*
X0062536Y0187547D01*
X0062381Y0187614D01*
X0062227Y0187685D01*
X0062075Y0187759D01*
X0061925Y0187837D01*
X0061777Y0187918D01*
X0061631Y0188003D01*
X0061487Y0188092D01*
X0061345Y0188184D01*
X0061206Y0188280D01*
X0061069Y0188379D01*
X0060934Y0188481D01*
X0060802Y0188587D01*
X0060673Y0188696D01*
X0060546Y0188808D01*
X0060422Y0188923D01*
X0060301Y0189041D01*
X0060183Y0189162D01*
X0060068Y0189286D01*
X0059956Y0189413D01*
X0059847Y0189542D01*
X0059741Y0189674D01*
X0059639Y0189809D01*
X0059540Y0189946D01*
X0059444Y0190085D01*
X0059352Y0190227D01*
X0059263Y0190371D01*
X0059178Y0190517D01*
X0059097Y0190665D01*
X0059019Y0190815D01*
X0058945Y0190967D01*
X0058874Y0191121D01*
X0058807Y0191276D01*
X0058745Y0191433D01*
X0058686Y0191592D01*
X0058631Y0191752D01*
X0058580Y0191913D01*
X0058533Y0192075D01*
X0058489Y0192239D01*
X0058450Y0192403D01*
X0058415Y0192569D01*
X0058384Y0192735D01*
X0058358Y0192902D01*
X0058335Y0193070D01*
X0058316Y0193238D01*
X0058302Y0193406D01*
X0058291Y0193575D01*
X0058285Y0193744D01*
X0058283Y0193913D01*
D16*
X0028559Y0233677D03*
M02*
