G75*
%MOIN*%
%OFA0B0*%
%FSLAX25Y25*%
%IPPOS*%
%LPD*%
%AMOC8*
5,1,8,0,0,1.08239X$1,22.5*
%
%ADD10C,0.00000*%
%ADD11C,0.07874*%
%ADD12C,0.13800*%
%ADD13C,0.01898*%
%ADD14C,0.01878*%
%ADD15C,0.08200*%
%ADD16C,0.04762*%
D10*
X0005437Y0040870D02*
X0068429Y0040870D01*
X0068429Y0005437D01*
X0068431Y0005313D01*
X0068437Y0005190D01*
X0068446Y0005066D01*
X0068460Y0004944D01*
X0068477Y0004821D01*
X0068499Y0004699D01*
X0068524Y0004578D01*
X0068553Y0004458D01*
X0068585Y0004339D01*
X0068622Y0004220D01*
X0068662Y0004103D01*
X0068705Y0003988D01*
X0068753Y0003873D01*
X0068804Y0003761D01*
X0068858Y0003650D01*
X0068916Y0003540D01*
X0068977Y0003433D01*
X0069042Y0003327D01*
X0069110Y0003224D01*
X0069181Y0003123D01*
X0069255Y0003024D01*
X0069332Y0002927D01*
X0069413Y0002833D01*
X0069496Y0002742D01*
X0069582Y0002653D01*
X0069671Y0002567D01*
X0069762Y0002484D01*
X0069856Y0002403D01*
X0069953Y0002326D01*
X0070052Y0002252D01*
X0070153Y0002181D01*
X0070256Y0002113D01*
X0070362Y0002048D01*
X0070469Y0001987D01*
X0070579Y0001929D01*
X0070690Y0001875D01*
X0070802Y0001824D01*
X0070917Y0001776D01*
X0071032Y0001733D01*
X0071149Y0001693D01*
X0071268Y0001656D01*
X0071387Y0001624D01*
X0071507Y0001595D01*
X0071628Y0001570D01*
X0071750Y0001548D01*
X0071873Y0001531D01*
X0071995Y0001517D01*
X0072119Y0001508D01*
X0072242Y0001502D01*
X0072366Y0001500D01*
X0194413Y0001500D01*
X0194537Y0001502D01*
X0194660Y0001508D01*
X0194784Y0001517D01*
X0194906Y0001531D01*
X0195029Y0001548D01*
X0195151Y0001570D01*
X0195272Y0001595D01*
X0195392Y0001624D01*
X0195511Y0001656D01*
X0195630Y0001693D01*
X0195747Y0001733D01*
X0195862Y0001776D01*
X0195977Y0001824D01*
X0196089Y0001875D01*
X0196200Y0001929D01*
X0196310Y0001987D01*
X0196417Y0002048D01*
X0196523Y0002113D01*
X0196626Y0002181D01*
X0196727Y0002252D01*
X0196826Y0002326D01*
X0196923Y0002403D01*
X0197017Y0002484D01*
X0197108Y0002567D01*
X0197197Y0002653D01*
X0197283Y0002742D01*
X0197366Y0002833D01*
X0197447Y0002927D01*
X0197524Y0003024D01*
X0197598Y0003123D01*
X0197669Y0003224D01*
X0197737Y0003327D01*
X0197802Y0003433D01*
X0197863Y0003540D01*
X0197921Y0003650D01*
X0197975Y0003761D01*
X0198026Y0003873D01*
X0198074Y0003988D01*
X0198117Y0004103D01*
X0198157Y0004220D01*
X0198194Y0004339D01*
X0198226Y0004458D01*
X0198255Y0004578D01*
X0198280Y0004699D01*
X0198302Y0004821D01*
X0198319Y0004944D01*
X0198333Y0005066D01*
X0198342Y0005190D01*
X0198348Y0005313D01*
X0198350Y0005437D01*
X0198350Y0040870D01*
X0273154Y0040870D01*
X0273278Y0040872D01*
X0273401Y0040878D01*
X0273525Y0040887D01*
X0273647Y0040901D01*
X0273770Y0040918D01*
X0273892Y0040940D01*
X0274013Y0040965D01*
X0274133Y0040994D01*
X0274252Y0041026D01*
X0274371Y0041063D01*
X0274488Y0041103D01*
X0274603Y0041146D01*
X0274718Y0041194D01*
X0274830Y0041245D01*
X0274941Y0041299D01*
X0275051Y0041357D01*
X0275158Y0041418D01*
X0275264Y0041483D01*
X0275367Y0041551D01*
X0275468Y0041622D01*
X0275567Y0041696D01*
X0275664Y0041773D01*
X0275758Y0041854D01*
X0275849Y0041937D01*
X0275938Y0042023D01*
X0276024Y0042112D01*
X0276107Y0042203D01*
X0276188Y0042297D01*
X0276265Y0042394D01*
X0276339Y0042493D01*
X0276410Y0042594D01*
X0276478Y0042697D01*
X0276543Y0042803D01*
X0276604Y0042910D01*
X0276662Y0043020D01*
X0276716Y0043131D01*
X0276767Y0043243D01*
X0276815Y0043358D01*
X0276858Y0043473D01*
X0276898Y0043590D01*
X0276935Y0043709D01*
X0276967Y0043828D01*
X0276996Y0043948D01*
X0277021Y0044069D01*
X0277043Y0044191D01*
X0277060Y0044314D01*
X0277074Y0044436D01*
X0277083Y0044560D01*
X0277089Y0044683D01*
X0277091Y0044807D01*
X0277091Y0223941D01*
X0277089Y0224065D01*
X0277083Y0224188D01*
X0277074Y0224312D01*
X0277060Y0224434D01*
X0277043Y0224557D01*
X0277021Y0224679D01*
X0276996Y0224800D01*
X0276967Y0224920D01*
X0276935Y0225039D01*
X0276898Y0225158D01*
X0276858Y0225275D01*
X0276815Y0225390D01*
X0276767Y0225505D01*
X0276716Y0225617D01*
X0276662Y0225728D01*
X0276604Y0225838D01*
X0276543Y0225945D01*
X0276478Y0226051D01*
X0276410Y0226154D01*
X0276339Y0226255D01*
X0276265Y0226354D01*
X0276188Y0226451D01*
X0276107Y0226545D01*
X0276024Y0226636D01*
X0275938Y0226725D01*
X0275849Y0226811D01*
X0275758Y0226894D01*
X0275664Y0226975D01*
X0275567Y0227052D01*
X0275468Y0227126D01*
X0275367Y0227197D01*
X0275264Y0227265D01*
X0275158Y0227330D01*
X0275051Y0227391D01*
X0274941Y0227449D01*
X0274830Y0227503D01*
X0274718Y0227554D01*
X0274603Y0227602D01*
X0274488Y0227645D01*
X0274371Y0227685D01*
X0274252Y0227722D01*
X0274133Y0227754D01*
X0274013Y0227783D01*
X0273892Y0227808D01*
X0273770Y0227830D01*
X0273647Y0227847D01*
X0273525Y0227861D01*
X0273401Y0227870D01*
X0273278Y0227876D01*
X0273154Y0227878D01*
X0005437Y0227878D01*
X0005313Y0227876D01*
X0005190Y0227870D01*
X0005066Y0227861D01*
X0004944Y0227847D01*
X0004821Y0227830D01*
X0004699Y0227808D01*
X0004578Y0227783D01*
X0004458Y0227754D01*
X0004339Y0227722D01*
X0004220Y0227685D01*
X0004103Y0227645D01*
X0003988Y0227602D01*
X0003873Y0227554D01*
X0003761Y0227503D01*
X0003650Y0227449D01*
X0003540Y0227391D01*
X0003433Y0227330D01*
X0003327Y0227265D01*
X0003224Y0227197D01*
X0003123Y0227126D01*
X0003024Y0227052D01*
X0002927Y0226975D01*
X0002833Y0226894D01*
X0002742Y0226811D01*
X0002653Y0226725D01*
X0002567Y0226636D01*
X0002484Y0226545D01*
X0002403Y0226451D01*
X0002326Y0226354D01*
X0002252Y0226255D01*
X0002181Y0226154D01*
X0002113Y0226051D01*
X0002048Y0225945D01*
X0001987Y0225838D01*
X0001929Y0225728D01*
X0001875Y0225617D01*
X0001824Y0225505D01*
X0001776Y0225390D01*
X0001733Y0225275D01*
X0001693Y0225158D01*
X0001656Y0225039D01*
X0001624Y0224920D01*
X0001595Y0224800D01*
X0001570Y0224679D01*
X0001548Y0224557D01*
X0001531Y0224434D01*
X0001517Y0224312D01*
X0001508Y0224188D01*
X0001502Y0224065D01*
X0001500Y0223941D01*
X0001500Y0044807D01*
X0001502Y0044683D01*
X0001508Y0044560D01*
X0001517Y0044436D01*
X0001531Y0044314D01*
X0001548Y0044191D01*
X0001570Y0044069D01*
X0001595Y0043948D01*
X0001624Y0043828D01*
X0001656Y0043709D01*
X0001693Y0043590D01*
X0001733Y0043473D01*
X0001776Y0043358D01*
X0001824Y0043243D01*
X0001875Y0043131D01*
X0001929Y0043020D01*
X0001987Y0042910D01*
X0002048Y0042803D01*
X0002113Y0042697D01*
X0002181Y0042594D01*
X0002252Y0042493D01*
X0002326Y0042394D01*
X0002403Y0042297D01*
X0002484Y0042203D01*
X0002567Y0042112D01*
X0002653Y0042023D01*
X0002742Y0041937D01*
X0002833Y0041854D01*
X0002927Y0041773D01*
X0003024Y0041696D01*
X0003123Y0041622D01*
X0003224Y0041551D01*
X0003327Y0041483D01*
X0003433Y0041418D01*
X0003540Y0041357D01*
X0003650Y0041299D01*
X0003761Y0041245D01*
X0003873Y0041194D01*
X0003988Y0041146D01*
X0004103Y0041103D01*
X0004220Y0041063D01*
X0004339Y0041026D01*
X0004458Y0040994D01*
X0004578Y0040965D01*
X0004699Y0040940D01*
X0004821Y0040918D01*
X0004944Y0040901D01*
X0005066Y0040887D01*
X0005190Y0040878D01*
X0005313Y0040872D01*
X0005437Y0040870D01*
X0006220Y0056618D02*
X0006222Y0056779D01*
X0006228Y0056939D01*
X0006238Y0057100D01*
X0006252Y0057260D01*
X0006270Y0057420D01*
X0006291Y0057579D01*
X0006317Y0057738D01*
X0006347Y0057896D01*
X0006380Y0058053D01*
X0006418Y0058210D01*
X0006459Y0058365D01*
X0006504Y0058519D01*
X0006553Y0058672D01*
X0006606Y0058824D01*
X0006662Y0058975D01*
X0006723Y0059124D01*
X0006786Y0059272D01*
X0006854Y0059418D01*
X0006925Y0059562D01*
X0006999Y0059704D01*
X0007077Y0059845D01*
X0007159Y0059983D01*
X0007244Y0060120D01*
X0007332Y0060254D01*
X0007424Y0060386D01*
X0007519Y0060516D01*
X0007617Y0060644D01*
X0007718Y0060769D01*
X0007822Y0060891D01*
X0007929Y0061011D01*
X0008039Y0061128D01*
X0008152Y0061243D01*
X0008268Y0061354D01*
X0008387Y0061463D01*
X0008508Y0061568D01*
X0008632Y0061671D01*
X0008758Y0061771D01*
X0008886Y0061867D01*
X0009017Y0061960D01*
X0009151Y0062050D01*
X0009286Y0062137D01*
X0009424Y0062220D01*
X0009563Y0062300D01*
X0009705Y0062376D01*
X0009848Y0062449D01*
X0009993Y0062518D01*
X0010140Y0062584D01*
X0010288Y0062646D01*
X0010438Y0062704D01*
X0010589Y0062759D01*
X0010742Y0062810D01*
X0010896Y0062857D01*
X0011051Y0062900D01*
X0011207Y0062939D01*
X0011363Y0062975D01*
X0011521Y0063006D01*
X0011679Y0063034D01*
X0011838Y0063058D01*
X0011998Y0063078D01*
X0012158Y0063094D01*
X0012318Y0063106D01*
X0012479Y0063114D01*
X0012640Y0063118D01*
X0012800Y0063118D01*
X0012961Y0063114D01*
X0013122Y0063106D01*
X0013282Y0063094D01*
X0013442Y0063078D01*
X0013602Y0063058D01*
X0013761Y0063034D01*
X0013919Y0063006D01*
X0014077Y0062975D01*
X0014233Y0062939D01*
X0014389Y0062900D01*
X0014544Y0062857D01*
X0014698Y0062810D01*
X0014851Y0062759D01*
X0015002Y0062704D01*
X0015152Y0062646D01*
X0015300Y0062584D01*
X0015447Y0062518D01*
X0015592Y0062449D01*
X0015735Y0062376D01*
X0015877Y0062300D01*
X0016016Y0062220D01*
X0016154Y0062137D01*
X0016289Y0062050D01*
X0016423Y0061960D01*
X0016554Y0061867D01*
X0016682Y0061771D01*
X0016808Y0061671D01*
X0016932Y0061568D01*
X0017053Y0061463D01*
X0017172Y0061354D01*
X0017288Y0061243D01*
X0017401Y0061128D01*
X0017511Y0061011D01*
X0017618Y0060891D01*
X0017722Y0060769D01*
X0017823Y0060644D01*
X0017921Y0060516D01*
X0018016Y0060386D01*
X0018108Y0060254D01*
X0018196Y0060120D01*
X0018281Y0059983D01*
X0018363Y0059845D01*
X0018441Y0059704D01*
X0018515Y0059562D01*
X0018586Y0059418D01*
X0018654Y0059272D01*
X0018717Y0059124D01*
X0018778Y0058975D01*
X0018834Y0058824D01*
X0018887Y0058672D01*
X0018936Y0058519D01*
X0018981Y0058365D01*
X0019022Y0058210D01*
X0019060Y0058053D01*
X0019093Y0057896D01*
X0019123Y0057738D01*
X0019149Y0057579D01*
X0019170Y0057420D01*
X0019188Y0057260D01*
X0019202Y0057100D01*
X0019212Y0056939D01*
X0019218Y0056779D01*
X0019220Y0056618D01*
X0019218Y0056457D01*
X0019212Y0056297D01*
X0019202Y0056136D01*
X0019188Y0055976D01*
X0019170Y0055816D01*
X0019149Y0055657D01*
X0019123Y0055498D01*
X0019093Y0055340D01*
X0019060Y0055183D01*
X0019022Y0055026D01*
X0018981Y0054871D01*
X0018936Y0054717D01*
X0018887Y0054564D01*
X0018834Y0054412D01*
X0018778Y0054261D01*
X0018717Y0054112D01*
X0018654Y0053964D01*
X0018586Y0053818D01*
X0018515Y0053674D01*
X0018441Y0053532D01*
X0018363Y0053391D01*
X0018281Y0053253D01*
X0018196Y0053116D01*
X0018108Y0052982D01*
X0018016Y0052850D01*
X0017921Y0052720D01*
X0017823Y0052592D01*
X0017722Y0052467D01*
X0017618Y0052345D01*
X0017511Y0052225D01*
X0017401Y0052108D01*
X0017288Y0051993D01*
X0017172Y0051882D01*
X0017053Y0051773D01*
X0016932Y0051668D01*
X0016808Y0051565D01*
X0016682Y0051465D01*
X0016554Y0051369D01*
X0016423Y0051276D01*
X0016289Y0051186D01*
X0016154Y0051099D01*
X0016016Y0051016D01*
X0015877Y0050936D01*
X0015735Y0050860D01*
X0015592Y0050787D01*
X0015447Y0050718D01*
X0015300Y0050652D01*
X0015152Y0050590D01*
X0015002Y0050532D01*
X0014851Y0050477D01*
X0014698Y0050426D01*
X0014544Y0050379D01*
X0014389Y0050336D01*
X0014233Y0050297D01*
X0014077Y0050261D01*
X0013919Y0050230D01*
X0013761Y0050202D01*
X0013602Y0050178D01*
X0013442Y0050158D01*
X0013282Y0050142D01*
X0013122Y0050130D01*
X0012961Y0050122D01*
X0012800Y0050118D01*
X0012640Y0050118D01*
X0012479Y0050122D01*
X0012318Y0050130D01*
X0012158Y0050142D01*
X0011998Y0050158D01*
X0011838Y0050178D01*
X0011679Y0050202D01*
X0011521Y0050230D01*
X0011363Y0050261D01*
X0011207Y0050297D01*
X0011051Y0050336D01*
X0010896Y0050379D01*
X0010742Y0050426D01*
X0010589Y0050477D01*
X0010438Y0050532D01*
X0010288Y0050590D01*
X0010140Y0050652D01*
X0009993Y0050718D01*
X0009848Y0050787D01*
X0009705Y0050860D01*
X0009563Y0050936D01*
X0009424Y0051016D01*
X0009286Y0051099D01*
X0009151Y0051186D01*
X0009017Y0051276D01*
X0008886Y0051369D01*
X0008758Y0051465D01*
X0008632Y0051565D01*
X0008508Y0051668D01*
X0008387Y0051773D01*
X0008268Y0051882D01*
X0008152Y0051993D01*
X0008039Y0052108D01*
X0007929Y0052225D01*
X0007822Y0052345D01*
X0007718Y0052467D01*
X0007617Y0052592D01*
X0007519Y0052720D01*
X0007424Y0052850D01*
X0007332Y0052982D01*
X0007244Y0053116D01*
X0007159Y0053253D01*
X0007077Y0053391D01*
X0006999Y0053532D01*
X0006925Y0053674D01*
X0006854Y0053818D01*
X0006786Y0053964D01*
X0006723Y0054112D01*
X0006662Y0054261D01*
X0006606Y0054412D01*
X0006553Y0054564D01*
X0006504Y0054717D01*
X0006459Y0054871D01*
X0006418Y0055026D01*
X0006380Y0055183D01*
X0006347Y0055340D01*
X0006317Y0055498D01*
X0006291Y0055657D01*
X0006270Y0055816D01*
X0006252Y0055976D01*
X0006238Y0056136D01*
X0006228Y0056297D01*
X0006222Y0056457D01*
X0006220Y0056618D01*
X0081024Y0048744D02*
X0081026Y0048905D01*
X0081032Y0049065D01*
X0081042Y0049226D01*
X0081056Y0049386D01*
X0081074Y0049546D01*
X0081095Y0049705D01*
X0081121Y0049864D01*
X0081151Y0050022D01*
X0081184Y0050179D01*
X0081222Y0050336D01*
X0081263Y0050491D01*
X0081308Y0050645D01*
X0081357Y0050798D01*
X0081410Y0050950D01*
X0081466Y0051101D01*
X0081527Y0051250D01*
X0081590Y0051398D01*
X0081658Y0051544D01*
X0081729Y0051688D01*
X0081803Y0051830D01*
X0081881Y0051971D01*
X0081963Y0052109D01*
X0082048Y0052246D01*
X0082136Y0052380D01*
X0082228Y0052512D01*
X0082323Y0052642D01*
X0082421Y0052770D01*
X0082522Y0052895D01*
X0082626Y0053017D01*
X0082733Y0053137D01*
X0082843Y0053254D01*
X0082956Y0053369D01*
X0083072Y0053480D01*
X0083191Y0053589D01*
X0083312Y0053694D01*
X0083436Y0053797D01*
X0083562Y0053897D01*
X0083690Y0053993D01*
X0083821Y0054086D01*
X0083955Y0054176D01*
X0084090Y0054263D01*
X0084228Y0054346D01*
X0084367Y0054426D01*
X0084509Y0054502D01*
X0084652Y0054575D01*
X0084797Y0054644D01*
X0084944Y0054710D01*
X0085092Y0054772D01*
X0085242Y0054830D01*
X0085393Y0054885D01*
X0085546Y0054936D01*
X0085700Y0054983D01*
X0085855Y0055026D01*
X0086011Y0055065D01*
X0086167Y0055101D01*
X0086325Y0055132D01*
X0086483Y0055160D01*
X0086642Y0055184D01*
X0086802Y0055204D01*
X0086962Y0055220D01*
X0087122Y0055232D01*
X0087283Y0055240D01*
X0087444Y0055244D01*
X0087604Y0055244D01*
X0087765Y0055240D01*
X0087926Y0055232D01*
X0088086Y0055220D01*
X0088246Y0055204D01*
X0088406Y0055184D01*
X0088565Y0055160D01*
X0088723Y0055132D01*
X0088881Y0055101D01*
X0089037Y0055065D01*
X0089193Y0055026D01*
X0089348Y0054983D01*
X0089502Y0054936D01*
X0089655Y0054885D01*
X0089806Y0054830D01*
X0089956Y0054772D01*
X0090104Y0054710D01*
X0090251Y0054644D01*
X0090396Y0054575D01*
X0090539Y0054502D01*
X0090681Y0054426D01*
X0090820Y0054346D01*
X0090958Y0054263D01*
X0091093Y0054176D01*
X0091227Y0054086D01*
X0091358Y0053993D01*
X0091486Y0053897D01*
X0091612Y0053797D01*
X0091736Y0053694D01*
X0091857Y0053589D01*
X0091976Y0053480D01*
X0092092Y0053369D01*
X0092205Y0053254D01*
X0092315Y0053137D01*
X0092422Y0053017D01*
X0092526Y0052895D01*
X0092627Y0052770D01*
X0092725Y0052642D01*
X0092820Y0052512D01*
X0092912Y0052380D01*
X0093000Y0052246D01*
X0093085Y0052109D01*
X0093167Y0051971D01*
X0093245Y0051830D01*
X0093319Y0051688D01*
X0093390Y0051544D01*
X0093458Y0051398D01*
X0093521Y0051250D01*
X0093582Y0051101D01*
X0093638Y0050950D01*
X0093691Y0050798D01*
X0093740Y0050645D01*
X0093785Y0050491D01*
X0093826Y0050336D01*
X0093864Y0050179D01*
X0093897Y0050022D01*
X0093927Y0049864D01*
X0093953Y0049705D01*
X0093974Y0049546D01*
X0093992Y0049386D01*
X0094006Y0049226D01*
X0094016Y0049065D01*
X0094022Y0048905D01*
X0094024Y0048744D01*
X0094022Y0048583D01*
X0094016Y0048423D01*
X0094006Y0048262D01*
X0093992Y0048102D01*
X0093974Y0047942D01*
X0093953Y0047783D01*
X0093927Y0047624D01*
X0093897Y0047466D01*
X0093864Y0047309D01*
X0093826Y0047152D01*
X0093785Y0046997D01*
X0093740Y0046843D01*
X0093691Y0046690D01*
X0093638Y0046538D01*
X0093582Y0046387D01*
X0093521Y0046238D01*
X0093458Y0046090D01*
X0093390Y0045944D01*
X0093319Y0045800D01*
X0093245Y0045658D01*
X0093167Y0045517D01*
X0093085Y0045379D01*
X0093000Y0045242D01*
X0092912Y0045108D01*
X0092820Y0044976D01*
X0092725Y0044846D01*
X0092627Y0044718D01*
X0092526Y0044593D01*
X0092422Y0044471D01*
X0092315Y0044351D01*
X0092205Y0044234D01*
X0092092Y0044119D01*
X0091976Y0044008D01*
X0091857Y0043899D01*
X0091736Y0043794D01*
X0091612Y0043691D01*
X0091486Y0043591D01*
X0091358Y0043495D01*
X0091227Y0043402D01*
X0091093Y0043312D01*
X0090958Y0043225D01*
X0090820Y0043142D01*
X0090681Y0043062D01*
X0090539Y0042986D01*
X0090396Y0042913D01*
X0090251Y0042844D01*
X0090104Y0042778D01*
X0089956Y0042716D01*
X0089806Y0042658D01*
X0089655Y0042603D01*
X0089502Y0042552D01*
X0089348Y0042505D01*
X0089193Y0042462D01*
X0089037Y0042423D01*
X0088881Y0042387D01*
X0088723Y0042356D01*
X0088565Y0042328D01*
X0088406Y0042304D01*
X0088246Y0042284D01*
X0088086Y0042268D01*
X0087926Y0042256D01*
X0087765Y0042248D01*
X0087604Y0042244D01*
X0087444Y0042244D01*
X0087283Y0042248D01*
X0087122Y0042256D01*
X0086962Y0042268D01*
X0086802Y0042284D01*
X0086642Y0042304D01*
X0086483Y0042328D01*
X0086325Y0042356D01*
X0086167Y0042387D01*
X0086011Y0042423D01*
X0085855Y0042462D01*
X0085700Y0042505D01*
X0085546Y0042552D01*
X0085393Y0042603D01*
X0085242Y0042658D01*
X0085092Y0042716D01*
X0084944Y0042778D01*
X0084797Y0042844D01*
X0084652Y0042913D01*
X0084509Y0042986D01*
X0084367Y0043062D01*
X0084228Y0043142D01*
X0084090Y0043225D01*
X0083955Y0043312D01*
X0083821Y0043402D01*
X0083690Y0043495D01*
X0083562Y0043591D01*
X0083436Y0043691D01*
X0083312Y0043794D01*
X0083191Y0043899D01*
X0083072Y0044008D01*
X0082956Y0044119D01*
X0082843Y0044234D01*
X0082733Y0044351D01*
X0082626Y0044471D01*
X0082522Y0044593D01*
X0082421Y0044718D01*
X0082323Y0044846D01*
X0082228Y0044976D01*
X0082136Y0045108D01*
X0082048Y0045242D01*
X0081963Y0045379D01*
X0081881Y0045517D01*
X0081803Y0045658D01*
X0081729Y0045800D01*
X0081658Y0045944D01*
X0081590Y0046090D01*
X0081527Y0046238D01*
X0081466Y0046387D01*
X0081410Y0046538D01*
X0081357Y0046690D01*
X0081308Y0046843D01*
X0081263Y0046997D01*
X0081222Y0047152D01*
X0081184Y0047309D01*
X0081151Y0047466D01*
X0081121Y0047624D01*
X0081095Y0047783D01*
X0081074Y0047942D01*
X0081056Y0048102D01*
X0081042Y0048262D01*
X0081032Y0048423D01*
X0081026Y0048583D01*
X0081024Y0048744D01*
X0088898Y0068429D02*
X0088900Y0068590D01*
X0088906Y0068750D01*
X0088916Y0068911D01*
X0088930Y0069071D01*
X0088948Y0069231D01*
X0088969Y0069390D01*
X0088995Y0069549D01*
X0089025Y0069707D01*
X0089058Y0069864D01*
X0089096Y0070021D01*
X0089137Y0070176D01*
X0089182Y0070330D01*
X0089231Y0070483D01*
X0089284Y0070635D01*
X0089340Y0070786D01*
X0089401Y0070935D01*
X0089464Y0071083D01*
X0089532Y0071229D01*
X0089603Y0071373D01*
X0089677Y0071515D01*
X0089755Y0071656D01*
X0089837Y0071794D01*
X0089922Y0071931D01*
X0090010Y0072065D01*
X0090102Y0072197D01*
X0090197Y0072327D01*
X0090295Y0072455D01*
X0090396Y0072580D01*
X0090500Y0072702D01*
X0090607Y0072822D01*
X0090717Y0072939D01*
X0090830Y0073054D01*
X0090946Y0073165D01*
X0091065Y0073274D01*
X0091186Y0073379D01*
X0091310Y0073482D01*
X0091436Y0073582D01*
X0091564Y0073678D01*
X0091695Y0073771D01*
X0091829Y0073861D01*
X0091964Y0073948D01*
X0092102Y0074031D01*
X0092241Y0074111D01*
X0092383Y0074187D01*
X0092526Y0074260D01*
X0092671Y0074329D01*
X0092818Y0074395D01*
X0092966Y0074457D01*
X0093116Y0074515D01*
X0093267Y0074570D01*
X0093420Y0074621D01*
X0093574Y0074668D01*
X0093729Y0074711D01*
X0093885Y0074750D01*
X0094041Y0074786D01*
X0094199Y0074817D01*
X0094357Y0074845D01*
X0094516Y0074869D01*
X0094676Y0074889D01*
X0094836Y0074905D01*
X0094996Y0074917D01*
X0095157Y0074925D01*
X0095318Y0074929D01*
X0095478Y0074929D01*
X0095639Y0074925D01*
X0095800Y0074917D01*
X0095960Y0074905D01*
X0096120Y0074889D01*
X0096280Y0074869D01*
X0096439Y0074845D01*
X0096597Y0074817D01*
X0096755Y0074786D01*
X0096911Y0074750D01*
X0097067Y0074711D01*
X0097222Y0074668D01*
X0097376Y0074621D01*
X0097529Y0074570D01*
X0097680Y0074515D01*
X0097830Y0074457D01*
X0097978Y0074395D01*
X0098125Y0074329D01*
X0098270Y0074260D01*
X0098413Y0074187D01*
X0098555Y0074111D01*
X0098694Y0074031D01*
X0098832Y0073948D01*
X0098967Y0073861D01*
X0099101Y0073771D01*
X0099232Y0073678D01*
X0099360Y0073582D01*
X0099486Y0073482D01*
X0099610Y0073379D01*
X0099731Y0073274D01*
X0099850Y0073165D01*
X0099966Y0073054D01*
X0100079Y0072939D01*
X0100189Y0072822D01*
X0100296Y0072702D01*
X0100400Y0072580D01*
X0100501Y0072455D01*
X0100599Y0072327D01*
X0100694Y0072197D01*
X0100786Y0072065D01*
X0100874Y0071931D01*
X0100959Y0071794D01*
X0101041Y0071656D01*
X0101119Y0071515D01*
X0101193Y0071373D01*
X0101264Y0071229D01*
X0101332Y0071083D01*
X0101395Y0070935D01*
X0101456Y0070786D01*
X0101512Y0070635D01*
X0101565Y0070483D01*
X0101614Y0070330D01*
X0101659Y0070176D01*
X0101700Y0070021D01*
X0101738Y0069864D01*
X0101771Y0069707D01*
X0101801Y0069549D01*
X0101827Y0069390D01*
X0101848Y0069231D01*
X0101866Y0069071D01*
X0101880Y0068911D01*
X0101890Y0068750D01*
X0101896Y0068590D01*
X0101898Y0068429D01*
X0101896Y0068268D01*
X0101890Y0068108D01*
X0101880Y0067947D01*
X0101866Y0067787D01*
X0101848Y0067627D01*
X0101827Y0067468D01*
X0101801Y0067309D01*
X0101771Y0067151D01*
X0101738Y0066994D01*
X0101700Y0066837D01*
X0101659Y0066682D01*
X0101614Y0066528D01*
X0101565Y0066375D01*
X0101512Y0066223D01*
X0101456Y0066072D01*
X0101395Y0065923D01*
X0101332Y0065775D01*
X0101264Y0065629D01*
X0101193Y0065485D01*
X0101119Y0065343D01*
X0101041Y0065202D01*
X0100959Y0065064D01*
X0100874Y0064927D01*
X0100786Y0064793D01*
X0100694Y0064661D01*
X0100599Y0064531D01*
X0100501Y0064403D01*
X0100400Y0064278D01*
X0100296Y0064156D01*
X0100189Y0064036D01*
X0100079Y0063919D01*
X0099966Y0063804D01*
X0099850Y0063693D01*
X0099731Y0063584D01*
X0099610Y0063479D01*
X0099486Y0063376D01*
X0099360Y0063276D01*
X0099232Y0063180D01*
X0099101Y0063087D01*
X0098967Y0062997D01*
X0098832Y0062910D01*
X0098694Y0062827D01*
X0098555Y0062747D01*
X0098413Y0062671D01*
X0098270Y0062598D01*
X0098125Y0062529D01*
X0097978Y0062463D01*
X0097830Y0062401D01*
X0097680Y0062343D01*
X0097529Y0062288D01*
X0097376Y0062237D01*
X0097222Y0062190D01*
X0097067Y0062147D01*
X0096911Y0062108D01*
X0096755Y0062072D01*
X0096597Y0062041D01*
X0096439Y0062013D01*
X0096280Y0061989D01*
X0096120Y0061969D01*
X0095960Y0061953D01*
X0095800Y0061941D01*
X0095639Y0061933D01*
X0095478Y0061929D01*
X0095318Y0061929D01*
X0095157Y0061933D01*
X0094996Y0061941D01*
X0094836Y0061953D01*
X0094676Y0061969D01*
X0094516Y0061989D01*
X0094357Y0062013D01*
X0094199Y0062041D01*
X0094041Y0062072D01*
X0093885Y0062108D01*
X0093729Y0062147D01*
X0093574Y0062190D01*
X0093420Y0062237D01*
X0093267Y0062288D01*
X0093116Y0062343D01*
X0092966Y0062401D01*
X0092818Y0062463D01*
X0092671Y0062529D01*
X0092526Y0062598D01*
X0092383Y0062671D01*
X0092241Y0062747D01*
X0092102Y0062827D01*
X0091964Y0062910D01*
X0091829Y0062997D01*
X0091695Y0063087D01*
X0091564Y0063180D01*
X0091436Y0063276D01*
X0091310Y0063376D01*
X0091186Y0063479D01*
X0091065Y0063584D01*
X0090946Y0063693D01*
X0090830Y0063804D01*
X0090717Y0063919D01*
X0090607Y0064036D01*
X0090500Y0064156D01*
X0090396Y0064278D01*
X0090295Y0064403D01*
X0090197Y0064531D01*
X0090102Y0064661D01*
X0090010Y0064793D01*
X0089922Y0064927D01*
X0089837Y0065064D01*
X0089755Y0065202D01*
X0089677Y0065343D01*
X0089603Y0065485D01*
X0089532Y0065629D01*
X0089464Y0065775D01*
X0089401Y0065923D01*
X0089340Y0066072D01*
X0089284Y0066223D01*
X0089231Y0066375D01*
X0089182Y0066528D01*
X0089137Y0066682D01*
X0089096Y0066837D01*
X0089058Y0066994D01*
X0089025Y0067151D01*
X0088995Y0067309D01*
X0088969Y0067468D01*
X0088948Y0067627D01*
X0088930Y0067787D01*
X0088916Y0067947D01*
X0088906Y0068108D01*
X0088900Y0068268D01*
X0088898Y0068429D01*
X0108583Y0097957D02*
X0108585Y0098118D01*
X0108591Y0098278D01*
X0108601Y0098439D01*
X0108615Y0098599D01*
X0108633Y0098759D01*
X0108654Y0098918D01*
X0108680Y0099077D01*
X0108710Y0099235D01*
X0108743Y0099392D01*
X0108781Y0099549D01*
X0108822Y0099704D01*
X0108867Y0099858D01*
X0108916Y0100011D01*
X0108969Y0100163D01*
X0109025Y0100314D01*
X0109086Y0100463D01*
X0109149Y0100611D01*
X0109217Y0100757D01*
X0109288Y0100901D01*
X0109362Y0101043D01*
X0109440Y0101184D01*
X0109522Y0101322D01*
X0109607Y0101459D01*
X0109695Y0101593D01*
X0109787Y0101725D01*
X0109882Y0101855D01*
X0109980Y0101983D01*
X0110081Y0102108D01*
X0110185Y0102230D01*
X0110292Y0102350D01*
X0110402Y0102467D01*
X0110515Y0102582D01*
X0110631Y0102693D01*
X0110750Y0102802D01*
X0110871Y0102907D01*
X0110995Y0103010D01*
X0111121Y0103110D01*
X0111249Y0103206D01*
X0111380Y0103299D01*
X0111514Y0103389D01*
X0111649Y0103476D01*
X0111787Y0103559D01*
X0111926Y0103639D01*
X0112068Y0103715D01*
X0112211Y0103788D01*
X0112356Y0103857D01*
X0112503Y0103923D01*
X0112651Y0103985D01*
X0112801Y0104043D01*
X0112952Y0104098D01*
X0113105Y0104149D01*
X0113259Y0104196D01*
X0113414Y0104239D01*
X0113570Y0104278D01*
X0113726Y0104314D01*
X0113884Y0104345D01*
X0114042Y0104373D01*
X0114201Y0104397D01*
X0114361Y0104417D01*
X0114521Y0104433D01*
X0114681Y0104445D01*
X0114842Y0104453D01*
X0115003Y0104457D01*
X0115163Y0104457D01*
X0115324Y0104453D01*
X0115485Y0104445D01*
X0115645Y0104433D01*
X0115805Y0104417D01*
X0115965Y0104397D01*
X0116124Y0104373D01*
X0116282Y0104345D01*
X0116440Y0104314D01*
X0116596Y0104278D01*
X0116752Y0104239D01*
X0116907Y0104196D01*
X0117061Y0104149D01*
X0117214Y0104098D01*
X0117365Y0104043D01*
X0117515Y0103985D01*
X0117663Y0103923D01*
X0117810Y0103857D01*
X0117955Y0103788D01*
X0118098Y0103715D01*
X0118240Y0103639D01*
X0118379Y0103559D01*
X0118517Y0103476D01*
X0118652Y0103389D01*
X0118786Y0103299D01*
X0118917Y0103206D01*
X0119045Y0103110D01*
X0119171Y0103010D01*
X0119295Y0102907D01*
X0119416Y0102802D01*
X0119535Y0102693D01*
X0119651Y0102582D01*
X0119764Y0102467D01*
X0119874Y0102350D01*
X0119981Y0102230D01*
X0120085Y0102108D01*
X0120186Y0101983D01*
X0120284Y0101855D01*
X0120379Y0101725D01*
X0120471Y0101593D01*
X0120559Y0101459D01*
X0120644Y0101322D01*
X0120726Y0101184D01*
X0120804Y0101043D01*
X0120878Y0100901D01*
X0120949Y0100757D01*
X0121017Y0100611D01*
X0121080Y0100463D01*
X0121141Y0100314D01*
X0121197Y0100163D01*
X0121250Y0100011D01*
X0121299Y0099858D01*
X0121344Y0099704D01*
X0121385Y0099549D01*
X0121423Y0099392D01*
X0121456Y0099235D01*
X0121486Y0099077D01*
X0121512Y0098918D01*
X0121533Y0098759D01*
X0121551Y0098599D01*
X0121565Y0098439D01*
X0121575Y0098278D01*
X0121581Y0098118D01*
X0121583Y0097957D01*
X0121581Y0097796D01*
X0121575Y0097636D01*
X0121565Y0097475D01*
X0121551Y0097315D01*
X0121533Y0097155D01*
X0121512Y0096996D01*
X0121486Y0096837D01*
X0121456Y0096679D01*
X0121423Y0096522D01*
X0121385Y0096365D01*
X0121344Y0096210D01*
X0121299Y0096056D01*
X0121250Y0095903D01*
X0121197Y0095751D01*
X0121141Y0095600D01*
X0121080Y0095451D01*
X0121017Y0095303D01*
X0120949Y0095157D01*
X0120878Y0095013D01*
X0120804Y0094871D01*
X0120726Y0094730D01*
X0120644Y0094592D01*
X0120559Y0094455D01*
X0120471Y0094321D01*
X0120379Y0094189D01*
X0120284Y0094059D01*
X0120186Y0093931D01*
X0120085Y0093806D01*
X0119981Y0093684D01*
X0119874Y0093564D01*
X0119764Y0093447D01*
X0119651Y0093332D01*
X0119535Y0093221D01*
X0119416Y0093112D01*
X0119295Y0093007D01*
X0119171Y0092904D01*
X0119045Y0092804D01*
X0118917Y0092708D01*
X0118786Y0092615D01*
X0118652Y0092525D01*
X0118517Y0092438D01*
X0118379Y0092355D01*
X0118240Y0092275D01*
X0118098Y0092199D01*
X0117955Y0092126D01*
X0117810Y0092057D01*
X0117663Y0091991D01*
X0117515Y0091929D01*
X0117365Y0091871D01*
X0117214Y0091816D01*
X0117061Y0091765D01*
X0116907Y0091718D01*
X0116752Y0091675D01*
X0116596Y0091636D01*
X0116440Y0091600D01*
X0116282Y0091569D01*
X0116124Y0091541D01*
X0115965Y0091517D01*
X0115805Y0091497D01*
X0115645Y0091481D01*
X0115485Y0091469D01*
X0115324Y0091461D01*
X0115163Y0091457D01*
X0115003Y0091457D01*
X0114842Y0091461D01*
X0114681Y0091469D01*
X0114521Y0091481D01*
X0114361Y0091497D01*
X0114201Y0091517D01*
X0114042Y0091541D01*
X0113884Y0091569D01*
X0113726Y0091600D01*
X0113570Y0091636D01*
X0113414Y0091675D01*
X0113259Y0091718D01*
X0113105Y0091765D01*
X0112952Y0091816D01*
X0112801Y0091871D01*
X0112651Y0091929D01*
X0112503Y0091991D01*
X0112356Y0092057D01*
X0112211Y0092126D01*
X0112068Y0092199D01*
X0111926Y0092275D01*
X0111787Y0092355D01*
X0111649Y0092438D01*
X0111514Y0092525D01*
X0111380Y0092615D01*
X0111249Y0092708D01*
X0111121Y0092804D01*
X0110995Y0092904D01*
X0110871Y0093007D01*
X0110750Y0093112D01*
X0110631Y0093221D01*
X0110515Y0093332D01*
X0110402Y0093447D01*
X0110292Y0093564D01*
X0110185Y0093684D01*
X0110081Y0093806D01*
X0109980Y0093931D01*
X0109882Y0094059D01*
X0109787Y0094189D01*
X0109695Y0094321D01*
X0109607Y0094455D01*
X0109522Y0094592D01*
X0109440Y0094730D01*
X0109362Y0094871D01*
X0109288Y0095013D01*
X0109217Y0095157D01*
X0109149Y0095303D01*
X0109086Y0095451D01*
X0109025Y0095600D01*
X0108969Y0095751D01*
X0108916Y0095903D01*
X0108867Y0096056D01*
X0108822Y0096210D01*
X0108781Y0096365D01*
X0108743Y0096522D01*
X0108710Y0096679D01*
X0108680Y0096837D01*
X0108654Y0096996D01*
X0108633Y0097155D01*
X0108615Y0097315D01*
X0108601Y0097475D01*
X0108591Y0097636D01*
X0108585Y0097796D01*
X0108583Y0097957D01*
X0179449Y0050713D02*
X0179451Y0050874D01*
X0179457Y0051034D01*
X0179467Y0051195D01*
X0179481Y0051355D01*
X0179499Y0051515D01*
X0179520Y0051674D01*
X0179546Y0051833D01*
X0179576Y0051991D01*
X0179609Y0052148D01*
X0179647Y0052305D01*
X0179688Y0052460D01*
X0179733Y0052614D01*
X0179782Y0052767D01*
X0179835Y0052919D01*
X0179891Y0053070D01*
X0179952Y0053219D01*
X0180015Y0053367D01*
X0180083Y0053513D01*
X0180154Y0053657D01*
X0180228Y0053799D01*
X0180306Y0053940D01*
X0180388Y0054078D01*
X0180473Y0054215D01*
X0180561Y0054349D01*
X0180653Y0054481D01*
X0180748Y0054611D01*
X0180846Y0054739D01*
X0180947Y0054864D01*
X0181051Y0054986D01*
X0181158Y0055106D01*
X0181268Y0055223D01*
X0181381Y0055338D01*
X0181497Y0055449D01*
X0181616Y0055558D01*
X0181737Y0055663D01*
X0181861Y0055766D01*
X0181987Y0055866D01*
X0182115Y0055962D01*
X0182246Y0056055D01*
X0182380Y0056145D01*
X0182515Y0056232D01*
X0182653Y0056315D01*
X0182792Y0056395D01*
X0182934Y0056471D01*
X0183077Y0056544D01*
X0183222Y0056613D01*
X0183369Y0056679D01*
X0183517Y0056741D01*
X0183667Y0056799D01*
X0183818Y0056854D01*
X0183971Y0056905D01*
X0184125Y0056952D01*
X0184280Y0056995D01*
X0184436Y0057034D01*
X0184592Y0057070D01*
X0184750Y0057101D01*
X0184908Y0057129D01*
X0185067Y0057153D01*
X0185227Y0057173D01*
X0185387Y0057189D01*
X0185547Y0057201D01*
X0185708Y0057209D01*
X0185869Y0057213D01*
X0186029Y0057213D01*
X0186190Y0057209D01*
X0186351Y0057201D01*
X0186511Y0057189D01*
X0186671Y0057173D01*
X0186831Y0057153D01*
X0186990Y0057129D01*
X0187148Y0057101D01*
X0187306Y0057070D01*
X0187462Y0057034D01*
X0187618Y0056995D01*
X0187773Y0056952D01*
X0187927Y0056905D01*
X0188080Y0056854D01*
X0188231Y0056799D01*
X0188381Y0056741D01*
X0188529Y0056679D01*
X0188676Y0056613D01*
X0188821Y0056544D01*
X0188964Y0056471D01*
X0189106Y0056395D01*
X0189245Y0056315D01*
X0189383Y0056232D01*
X0189518Y0056145D01*
X0189652Y0056055D01*
X0189783Y0055962D01*
X0189911Y0055866D01*
X0190037Y0055766D01*
X0190161Y0055663D01*
X0190282Y0055558D01*
X0190401Y0055449D01*
X0190517Y0055338D01*
X0190630Y0055223D01*
X0190740Y0055106D01*
X0190847Y0054986D01*
X0190951Y0054864D01*
X0191052Y0054739D01*
X0191150Y0054611D01*
X0191245Y0054481D01*
X0191337Y0054349D01*
X0191425Y0054215D01*
X0191510Y0054078D01*
X0191592Y0053940D01*
X0191670Y0053799D01*
X0191744Y0053657D01*
X0191815Y0053513D01*
X0191883Y0053367D01*
X0191946Y0053219D01*
X0192007Y0053070D01*
X0192063Y0052919D01*
X0192116Y0052767D01*
X0192165Y0052614D01*
X0192210Y0052460D01*
X0192251Y0052305D01*
X0192289Y0052148D01*
X0192322Y0051991D01*
X0192352Y0051833D01*
X0192378Y0051674D01*
X0192399Y0051515D01*
X0192417Y0051355D01*
X0192431Y0051195D01*
X0192441Y0051034D01*
X0192447Y0050874D01*
X0192449Y0050713D01*
X0192447Y0050552D01*
X0192441Y0050392D01*
X0192431Y0050231D01*
X0192417Y0050071D01*
X0192399Y0049911D01*
X0192378Y0049752D01*
X0192352Y0049593D01*
X0192322Y0049435D01*
X0192289Y0049278D01*
X0192251Y0049121D01*
X0192210Y0048966D01*
X0192165Y0048812D01*
X0192116Y0048659D01*
X0192063Y0048507D01*
X0192007Y0048356D01*
X0191946Y0048207D01*
X0191883Y0048059D01*
X0191815Y0047913D01*
X0191744Y0047769D01*
X0191670Y0047627D01*
X0191592Y0047486D01*
X0191510Y0047348D01*
X0191425Y0047211D01*
X0191337Y0047077D01*
X0191245Y0046945D01*
X0191150Y0046815D01*
X0191052Y0046687D01*
X0190951Y0046562D01*
X0190847Y0046440D01*
X0190740Y0046320D01*
X0190630Y0046203D01*
X0190517Y0046088D01*
X0190401Y0045977D01*
X0190282Y0045868D01*
X0190161Y0045763D01*
X0190037Y0045660D01*
X0189911Y0045560D01*
X0189783Y0045464D01*
X0189652Y0045371D01*
X0189518Y0045281D01*
X0189383Y0045194D01*
X0189245Y0045111D01*
X0189106Y0045031D01*
X0188964Y0044955D01*
X0188821Y0044882D01*
X0188676Y0044813D01*
X0188529Y0044747D01*
X0188381Y0044685D01*
X0188231Y0044627D01*
X0188080Y0044572D01*
X0187927Y0044521D01*
X0187773Y0044474D01*
X0187618Y0044431D01*
X0187462Y0044392D01*
X0187306Y0044356D01*
X0187148Y0044325D01*
X0186990Y0044297D01*
X0186831Y0044273D01*
X0186671Y0044253D01*
X0186511Y0044237D01*
X0186351Y0044225D01*
X0186190Y0044217D01*
X0186029Y0044213D01*
X0185869Y0044213D01*
X0185708Y0044217D01*
X0185547Y0044225D01*
X0185387Y0044237D01*
X0185227Y0044253D01*
X0185067Y0044273D01*
X0184908Y0044297D01*
X0184750Y0044325D01*
X0184592Y0044356D01*
X0184436Y0044392D01*
X0184280Y0044431D01*
X0184125Y0044474D01*
X0183971Y0044521D01*
X0183818Y0044572D01*
X0183667Y0044627D01*
X0183517Y0044685D01*
X0183369Y0044747D01*
X0183222Y0044813D01*
X0183077Y0044882D01*
X0182934Y0044955D01*
X0182792Y0045031D01*
X0182653Y0045111D01*
X0182515Y0045194D01*
X0182380Y0045281D01*
X0182246Y0045371D01*
X0182115Y0045464D01*
X0181987Y0045560D01*
X0181861Y0045660D01*
X0181737Y0045763D01*
X0181616Y0045868D01*
X0181497Y0045977D01*
X0181381Y0046088D01*
X0181268Y0046203D01*
X0181158Y0046320D01*
X0181051Y0046440D01*
X0180947Y0046562D01*
X0180846Y0046687D01*
X0180748Y0046815D01*
X0180653Y0046945D01*
X0180561Y0047077D01*
X0180473Y0047211D01*
X0180388Y0047348D01*
X0180306Y0047486D01*
X0180228Y0047627D01*
X0180154Y0047769D01*
X0180083Y0047913D01*
X0180015Y0048059D01*
X0179952Y0048207D01*
X0179891Y0048356D01*
X0179835Y0048507D01*
X0179782Y0048659D01*
X0179733Y0048812D01*
X0179688Y0048966D01*
X0179647Y0049121D01*
X0179609Y0049278D01*
X0179576Y0049435D01*
X0179546Y0049593D01*
X0179520Y0049752D01*
X0179499Y0049911D01*
X0179481Y0050071D01*
X0179467Y0050231D01*
X0179457Y0050392D01*
X0179451Y0050552D01*
X0179449Y0050713D01*
X0218819Y0084177D02*
X0218821Y0084338D01*
X0218827Y0084498D01*
X0218837Y0084659D01*
X0218851Y0084819D01*
X0218869Y0084979D01*
X0218890Y0085138D01*
X0218916Y0085297D01*
X0218946Y0085455D01*
X0218979Y0085612D01*
X0219017Y0085769D01*
X0219058Y0085924D01*
X0219103Y0086078D01*
X0219152Y0086231D01*
X0219205Y0086383D01*
X0219261Y0086534D01*
X0219322Y0086683D01*
X0219385Y0086831D01*
X0219453Y0086977D01*
X0219524Y0087121D01*
X0219598Y0087263D01*
X0219676Y0087404D01*
X0219758Y0087542D01*
X0219843Y0087679D01*
X0219931Y0087813D01*
X0220023Y0087945D01*
X0220118Y0088075D01*
X0220216Y0088203D01*
X0220317Y0088328D01*
X0220421Y0088450D01*
X0220528Y0088570D01*
X0220638Y0088687D01*
X0220751Y0088802D01*
X0220867Y0088913D01*
X0220986Y0089022D01*
X0221107Y0089127D01*
X0221231Y0089230D01*
X0221357Y0089330D01*
X0221485Y0089426D01*
X0221616Y0089519D01*
X0221750Y0089609D01*
X0221885Y0089696D01*
X0222023Y0089779D01*
X0222162Y0089859D01*
X0222304Y0089935D01*
X0222447Y0090008D01*
X0222592Y0090077D01*
X0222739Y0090143D01*
X0222887Y0090205D01*
X0223037Y0090263D01*
X0223188Y0090318D01*
X0223341Y0090369D01*
X0223495Y0090416D01*
X0223650Y0090459D01*
X0223806Y0090498D01*
X0223962Y0090534D01*
X0224120Y0090565D01*
X0224278Y0090593D01*
X0224437Y0090617D01*
X0224597Y0090637D01*
X0224757Y0090653D01*
X0224917Y0090665D01*
X0225078Y0090673D01*
X0225239Y0090677D01*
X0225399Y0090677D01*
X0225560Y0090673D01*
X0225721Y0090665D01*
X0225881Y0090653D01*
X0226041Y0090637D01*
X0226201Y0090617D01*
X0226360Y0090593D01*
X0226518Y0090565D01*
X0226676Y0090534D01*
X0226832Y0090498D01*
X0226988Y0090459D01*
X0227143Y0090416D01*
X0227297Y0090369D01*
X0227450Y0090318D01*
X0227601Y0090263D01*
X0227751Y0090205D01*
X0227899Y0090143D01*
X0228046Y0090077D01*
X0228191Y0090008D01*
X0228334Y0089935D01*
X0228476Y0089859D01*
X0228615Y0089779D01*
X0228753Y0089696D01*
X0228888Y0089609D01*
X0229022Y0089519D01*
X0229153Y0089426D01*
X0229281Y0089330D01*
X0229407Y0089230D01*
X0229531Y0089127D01*
X0229652Y0089022D01*
X0229771Y0088913D01*
X0229887Y0088802D01*
X0230000Y0088687D01*
X0230110Y0088570D01*
X0230217Y0088450D01*
X0230321Y0088328D01*
X0230422Y0088203D01*
X0230520Y0088075D01*
X0230615Y0087945D01*
X0230707Y0087813D01*
X0230795Y0087679D01*
X0230880Y0087542D01*
X0230962Y0087404D01*
X0231040Y0087263D01*
X0231114Y0087121D01*
X0231185Y0086977D01*
X0231253Y0086831D01*
X0231316Y0086683D01*
X0231377Y0086534D01*
X0231433Y0086383D01*
X0231486Y0086231D01*
X0231535Y0086078D01*
X0231580Y0085924D01*
X0231621Y0085769D01*
X0231659Y0085612D01*
X0231692Y0085455D01*
X0231722Y0085297D01*
X0231748Y0085138D01*
X0231769Y0084979D01*
X0231787Y0084819D01*
X0231801Y0084659D01*
X0231811Y0084498D01*
X0231817Y0084338D01*
X0231819Y0084177D01*
X0231817Y0084016D01*
X0231811Y0083856D01*
X0231801Y0083695D01*
X0231787Y0083535D01*
X0231769Y0083375D01*
X0231748Y0083216D01*
X0231722Y0083057D01*
X0231692Y0082899D01*
X0231659Y0082742D01*
X0231621Y0082585D01*
X0231580Y0082430D01*
X0231535Y0082276D01*
X0231486Y0082123D01*
X0231433Y0081971D01*
X0231377Y0081820D01*
X0231316Y0081671D01*
X0231253Y0081523D01*
X0231185Y0081377D01*
X0231114Y0081233D01*
X0231040Y0081091D01*
X0230962Y0080950D01*
X0230880Y0080812D01*
X0230795Y0080675D01*
X0230707Y0080541D01*
X0230615Y0080409D01*
X0230520Y0080279D01*
X0230422Y0080151D01*
X0230321Y0080026D01*
X0230217Y0079904D01*
X0230110Y0079784D01*
X0230000Y0079667D01*
X0229887Y0079552D01*
X0229771Y0079441D01*
X0229652Y0079332D01*
X0229531Y0079227D01*
X0229407Y0079124D01*
X0229281Y0079024D01*
X0229153Y0078928D01*
X0229022Y0078835D01*
X0228888Y0078745D01*
X0228753Y0078658D01*
X0228615Y0078575D01*
X0228476Y0078495D01*
X0228334Y0078419D01*
X0228191Y0078346D01*
X0228046Y0078277D01*
X0227899Y0078211D01*
X0227751Y0078149D01*
X0227601Y0078091D01*
X0227450Y0078036D01*
X0227297Y0077985D01*
X0227143Y0077938D01*
X0226988Y0077895D01*
X0226832Y0077856D01*
X0226676Y0077820D01*
X0226518Y0077789D01*
X0226360Y0077761D01*
X0226201Y0077737D01*
X0226041Y0077717D01*
X0225881Y0077701D01*
X0225721Y0077689D01*
X0225560Y0077681D01*
X0225399Y0077677D01*
X0225239Y0077677D01*
X0225078Y0077681D01*
X0224917Y0077689D01*
X0224757Y0077701D01*
X0224597Y0077717D01*
X0224437Y0077737D01*
X0224278Y0077761D01*
X0224120Y0077789D01*
X0223962Y0077820D01*
X0223806Y0077856D01*
X0223650Y0077895D01*
X0223495Y0077938D01*
X0223341Y0077985D01*
X0223188Y0078036D01*
X0223037Y0078091D01*
X0222887Y0078149D01*
X0222739Y0078211D01*
X0222592Y0078277D01*
X0222447Y0078346D01*
X0222304Y0078419D01*
X0222162Y0078495D01*
X0222023Y0078575D01*
X0221885Y0078658D01*
X0221750Y0078745D01*
X0221616Y0078835D01*
X0221485Y0078928D01*
X0221357Y0079024D01*
X0221231Y0079124D01*
X0221107Y0079227D01*
X0220986Y0079332D01*
X0220867Y0079441D01*
X0220751Y0079552D01*
X0220638Y0079667D01*
X0220528Y0079784D01*
X0220421Y0079904D01*
X0220317Y0080026D01*
X0220216Y0080151D01*
X0220118Y0080279D01*
X0220023Y0080409D01*
X0219931Y0080541D01*
X0219843Y0080675D01*
X0219758Y0080812D01*
X0219676Y0080950D01*
X0219598Y0081091D01*
X0219524Y0081233D01*
X0219453Y0081377D01*
X0219385Y0081523D01*
X0219322Y0081671D01*
X0219261Y0081820D01*
X0219205Y0081971D01*
X0219152Y0082123D01*
X0219103Y0082276D01*
X0219058Y0082430D01*
X0219017Y0082585D01*
X0218979Y0082742D01*
X0218946Y0082899D01*
X0218916Y0083057D01*
X0218890Y0083216D01*
X0218869Y0083375D01*
X0218851Y0083535D01*
X0218837Y0083695D01*
X0218827Y0083856D01*
X0218821Y0084016D01*
X0218819Y0084177D01*
X0207008Y0123547D02*
X0207010Y0123708D01*
X0207016Y0123868D01*
X0207026Y0124029D01*
X0207040Y0124189D01*
X0207058Y0124349D01*
X0207079Y0124508D01*
X0207105Y0124667D01*
X0207135Y0124825D01*
X0207168Y0124982D01*
X0207206Y0125139D01*
X0207247Y0125294D01*
X0207292Y0125448D01*
X0207341Y0125601D01*
X0207394Y0125753D01*
X0207450Y0125904D01*
X0207511Y0126053D01*
X0207574Y0126201D01*
X0207642Y0126347D01*
X0207713Y0126491D01*
X0207787Y0126633D01*
X0207865Y0126774D01*
X0207947Y0126912D01*
X0208032Y0127049D01*
X0208120Y0127183D01*
X0208212Y0127315D01*
X0208307Y0127445D01*
X0208405Y0127573D01*
X0208506Y0127698D01*
X0208610Y0127820D01*
X0208717Y0127940D01*
X0208827Y0128057D01*
X0208940Y0128172D01*
X0209056Y0128283D01*
X0209175Y0128392D01*
X0209296Y0128497D01*
X0209420Y0128600D01*
X0209546Y0128700D01*
X0209674Y0128796D01*
X0209805Y0128889D01*
X0209939Y0128979D01*
X0210074Y0129066D01*
X0210212Y0129149D01*
X0210351Y0129229D01*
X0210493Y0129305D01*
X0210636Y0129378D01*
X0210781Y0129447D01*
X0210928Y0129513D01*
X0211076Y0129575D01*
X0211226Y0129633D01*
X0211377Y0129688D01*
X0211530Y0129739D01*
X0211684Y0129786D01*
X0211839Y0129829D01*
X0211995Y0129868D01*
X0212151Y0129904D01*
X0212309Y0129935D01*
X0212467Y0129963D01*
X0212626Y0129987D01*
X0212786Y0130007D01*
X0212946Y0130023D01*
X0213106Y0130035D01*
X0213267Y0130043D01*
X0213428Y0130047D01*
X0213588Y0130047D01*
X0213749Y0130043D01*
X0213910Y0130035D01*
X0214070Y0130023D01*
X0214230Y0130007D01*
X0214390Y0129987D01*
X0214549Y0129963D01*
X0214707Y0129935D01*
X0214865Y0129904D01*
X0215021Y0129868D01*
X0215177Y0129829D01*
X0215332Y0129786D01*
X0215486Y0129739D01*
X0215639Y0129688D01*
X0215790Y0129633D01*
X0215940Y0129575D01*
X0216088Y0129513D01*
X0216235Y0129447D01*
X0216380Y0129378D01*
X0216523Y0129305D01*
X0216665Y0129229D01*
X0216804Y0129149D01*
X0216942Y0129066D01*
X0217077Y0128979D01*
X0217211Y0128889D01*
X0217342Y0128796D01*
X0217470Y0128700D01*
X0217596Y0128600D01*
X0217720Y0128497D01*
X0217841Y0128392D01*
X0217960Y0128283D01*
X0218076Y0128172D01*
X0218189Y0128057D01*
X0218299Y0127940D01*
X0218406Y0127820D01*
X0218510Y0127698D01*
X0218611Y0127573D01*
X0218709Y0127445D01*
X0218804Y0127315D01*
X0218896Y0127183D01*
X0218984Y0127049D01*
X0219069Y0126912D01*
X0219151Y0126774D01*
X0219229Y0126633D01*
X0219303Y0126491D01*
X0219374Y0126347D01*
X0219442Y0126201D01*
X0219505Y0126053D01*
X0219566Y0125904D01*
X0219622Y0125753D01*
X0219675Y0125601D01*
X0219724Y0125448D01*
X0219769Y0125294D01*
X0219810Y0125139D01*
X0219848Y0124982D01*
X0219881Y0124825D01*
X0219911Y0124667D01*
X0219937Y0124508D01*
X0219958Y0124349D01*
X0219976Y0124189D01*
X0219990Y0124029D01*
X0220000Y0123868D01*
X0220006Y0123708D01*
X0220008Y0123547D01*
X0220006Y0123386D01*
X0220000Y0123226D01*
X0219990Y0123065D01*
X0219976Y0122905D01*
X0219958Y0122745D01*
X0219937Y0122586D01*
X0219911Y0122427D01*
X0219881Y0122269D01*
X0219848Y0122112D01*
X0219810Y0121955D01*
X0219769Y0121800D01*
X0219724Y0121646D01*
X0219675Y0121493D01*
X0219622Y0121341D01*
X0219566Y0121190D01*
X0219505Y0121041D01*
X0219442Y0120893D01*
X0219374Y0120747D01*
X0219303Y0120603D01*
X0219229Y0120461D01*
X0219151Y0120320D01*
X0219069Y0120182D01*
X0218984Y0120045D01*
X0218896Y0119911D01*
X0218804Y0119779D01*
X0218709Y0119649D01*
X0218611Y0119521D01*
X0218510Y0119396D01*
X0218406Y0119274D01*
X0218299Y0119154D01*
X0218189Y0119037D01*
X0218076Y0118922D01*
X0217960Y0118811D01*
X0217841Y0118702D01*
X0217720Y0118597D01*
X0217596Y0118494D01*
X0217470Y0118394D01*
X0217342Y0118298D01*
X0217211Y0118205D01*
X0217077Y0118115D01*
X0216942Y0118028D01*
X0216804Y0117945D01*
X0216665Y0117865D01*
X0216523Y0117789D01*
X0216380Y0117716D01*
X0216235Y0117647D01*
X0216088Y0117581D01*
X0215940Y0117519D01*
X0215790Y0117461D01*
X0215639Y0117406D01*
X0215486Y0117355D01*
X0215332Y0117308D01*
X0215177Y0117265D01*
X0215021Y0117226D01*
X0214865Y0117190D01*
X0214707Y0117159D01*
X0214549Y0117131D01*
X0214390Y0117107D01*
X0214230Y0117087D01*
X0214070Y0117071D01*
X0213910Y0117059D01*
X0213749Y0117051D01*
X0213588Y0117047D01*
X0213428Y0117047D01*
X0213267Y0117051D01*
X0213106Y0117059D01*
X0212946Y0117071D01*
X0212786Y0117087D01*
X0212626Y0117107D01*
X0212467Y0117131D01*
X0212309Y0117159D01*
X0212151Y0117190D01*
X0211995Y0117226D01*
X0211839Y0117265D01*
X0211684Y0117308D01*
X0211530Y0117355D01*
X0211377Y0117406D01*
X0211226Y0117461D01*
X0211076Y0117519D01*
X0210928Y0117581D01*
X0210781Y0117647D01*
X0210636Y0117716D01*
X0210493Y0117789D01*
X0210351Y0117865D01*
X0210212Y0117945D01*
X0210074Y0118028D01*
X0209939Y0118115D01*
X0209805Y0118205D01*
X0209674Y0118298D01*
X0209546Y0118394D01*
X0209420Y0118494D01*
X0209296Y0118597D01*
X0209175Y0118702D01*
X0209056Y0118811D01*
X0208940Y0118922D01*
X0208827Y0119037D01*
X0208717Y0119154D01*
X0208610Y0119274D01*
X0208506Y0119396D01*
X0208405Y0119521D01*
X0208307Y0119649D01*
X0208212Y0119779D01*
X0208120Y0119911D01*
X0208032Y0120045D01*
X0207947Y0120182D01*
X0207865Y0120320D01*
X0207787Y0120461D01*
X0207713Y0120603D01*
X0207642Y0120747D01*
X0207574Y0120893D01*
X0207511Y0121041D01*
X0207450Y0121190D01*
X0207394Y0121341D01*
X0207341Y0121493D01*
X0207292Y0121646D01*
X0207247Y0121800D01*
X0207206Y0121955D01*
X0207168Y0122112D01*
X0207135Y0122269D01*
X0207105Y0122427D01*
X0207079Y0122586D01*
X0207058Y0122745D01*
X0207040Y0122905D01*
X0207026Y0123065D01*
X0207016Y0123226D01*
X0207010Y0123386D01*
X0207008Y0123547D01*
X0258189Y0080240D02*
X0258191Y0080401D01*
X0258197Y0080561D01*
X0258207Y0080722D01*
X0258221Y0080882D01*
X0258239Y0081042D01*
X0258260Y0081201D01*
X0258286Y0081360D01*
X0258316Y0081518D01*
X0258349Y0081675D01*
X0258387Y0081832D01*
X0258428Y0081987D01*
X0258473Y0082141D01*
X0258522Y0082294D01*
X0258575Y0082446D01*
X0258631Y0082597D01*
X0258692Y0082746D01*
X0258755Y0082894D01*
X0258823Y0083040D01*
X0258894Y0083184D01*
X0258968Y0083326D01*
X0259046Y0083467D01*
X0259128Y0083605D01*
X0259213Y0083742D01*
X0259301Y0083876D01*
X0259393Y0084008D01*
X0259488Y0084138D01*
X0259586Y0084266D01*
X0259687Y0084391D01*
X0259791Y0084513D01*
X0259898Y0084633D01*
X0260008Y0084750D01*
X0260121Y0084865D01*
X0260237Y0084976D01*
X0260356Y0085085D01*
X0260477Y0085190D01*
X0260601Y0085293D01*
X0260727Y0085393D01*
X0260855Y0085489D01*
X0260986Y0085582D01*
X0261120Y0085672D01*
X0261255Y0085759D01*
X0261393Y0085842D01*
X0261532Y0085922D01*
X0261674Y0085998D01*
X0261817Y0086071D01*
X0261962Y0086140D01*
X0262109Y0086206D01*
X0262257Y0086268D01*
X0262407Y0086326D01*
X0262558Y0086381D01*
X0262711Y0086432D01*
X0262865Y0086479D01*
X0263020Y0086522D01*
X0263176Y0086561D01*
X0263332Y0086597D01*
X0263490Y0086628D01*
X0263648Y0086656D01*
X0263807Y0086680D01*
X0263967Y0086700D01*
X0264127Y0086716D01*
X0264287Y0086728D01*
X0264448Y0086736D01*
X0264609Y0086740D01*
X0264769Y0086740D01*
X0264930Y0086736D01*
X0265091Y0086728D01*
X0265251Y0086716D01*
X0265411Y0086700D01*
X0265571Y0086680D01*
X0265730Y0086656D01*
X0265888Y0086628D01*
X0266046Y0086597D01*
X0266202Y0086561D01*
X0266358Y0086522D01*
X0266513Y0086479D01*
X0266667Y0086432D01*
X0266820Y0086381D01*
X0266971Y0086326D01*
X0267121Y0086268D01*
X0267269Y0086206D01*
X0267416Y0086140D01*
X0267561Y0086071D01*
X0267704Y0085998D01*
X0267846Y0085922D01*
X0267985Y0085842D01*
X0268123Y0085759D01*
X0268258Y0085672D01*
X0268392Y0085582D01*
X0268523Y0085489D01*
X0268651Y0085393D01*
X0268777Y0085293D01*
X0268901Y0085190D01*
X0269022Y0085085D01*
X0269141Y0084976D01*
X0269257Y0084865D01*
X0269370Y0084750D01*
X0269480Y0084633D01*
X0269587Y0084513D01*
X0269691Y0084391D01*
X0269792Y0084266D01*
X0269890Y0084138D01*
X0269985Y0084008D01*
X0270077Y0083876D01*
X0270165Y0083742D01*
X0270250Y0083605D01*
X0270332Y0083467D01*
X0270410Y0083326D01*
X0270484Y0083184D01*
X0270555Y0083040D01*
X0270623Y0082894D01*
X0270686Y0082746D01*
X0270747Y0082597D01*
X0270803Y0082446D01*
X0270856Y0082294D01*
X0270905Y0082141D01*
X0270950Y0081987D01*
X0270991Y0081832D01*
X0271029Y0081675D01*
X0271062Y0081518D01*
X0271092Y0081360D01*
X0271118Y0081201D01*
X0271139Y0081042D01*
X0271157Y0080882D01*
X0271171Y0080722D01*
X0271181Y0080561D01*
X0271187Y0080401D01*
X0271189Y0080240D01*
X0271187Y0080079D01*
X0271181Y0079919D01*
X0271171Y0079758D01*
X0271157Y0079598D01*
X0271139Y0079438D01*
X0271118Y0079279D01*
X0271092Y0079120D01*
X0271062Y0078962D01*
X0271029Y0078805D01*
X0270991Y0078648D01*
X0270950Y0078493D01*
X0270905Y0078339D01*
X0270856Y0078186D01*
X0270803Y0078034D01*
X0270747Y0077883D01*
X0270686Y0077734D01*
X0270623Y0077586D01*
X0270555Y0077440D01*
X0270484Y0077296D01*
X0270410Y0077154D01*
X0270332Y0077013D01*
X0270250Y0076875D01*
X0270165Y0076738D01*
X0270077Y0076604D01*
X0269985Y0076472D01*
X0269890Y0076342D01*
X0269792Y0076214D01*
X0269691Y0076089D01*
X0269587Y0075967D01*
X0269480Y0075847D01*
X0269370Y0075730D01*
X0269257Y0075615D01*
X0269141Y0075504D01*
X0269022Y0075395D01*
X0268901Y0075290D01*
X0268777Y0075187D01*
X0268651Y0075087D01*
X0268523Y0074991D01*
X0268392Y0074898D01*
X0268258Y0074808D01*
X0268123Y0074721D01*
X0267985Y0074638D01*
X0267846Y0074558D01*
X0267704Y0074482D01*
X0267561Y0074409D01*
X0267416Y0074340D01*
X0267269Y0074274D01*
X0267121Y0074212D01*
X0266971Y0074154D01*
X0266820Y0074099D01*
X0266667Y0074048D01*
X0266513Y0074001D01*
X0266358Y0073958D01*
X0266202Y0073919D01*
X0266046Y0073883D01*
X0265888Y0073852D01*
X0265730Y0073824D01*
X0265571Y0073800D01*
X0265411Y0073780D01*
X0265251Y0073764D01*
X0265091Y0073752D01*
X0264930Y0073744D01*
X0264769Y0073740D01*
X0264609Y0073740D01*
X0264448Y0073744D01*
X0264287Y0073752D01*
X0264127Y0073764D01*
X0263967Y0073780D01*
X0263807Y0073800D01*
X0263648Y0073824D01*
X0263490Y0073852D01*
X0263332Y0073883D01*
X0263176Y0073919D01*
X0263020Y0073958D01*
X0262865Y0074001D01*
X0262711Y0074048D01*
X0262558Y0074099D01*
X0262407Y0074154D01*
X0262257Y0074212D01*
X0262109Y0074274D01*
X0261962Y0074340D01*
X0261817Y0074409D01*
X0261674Y0074482D01*
X0261532Y0074558D01*
X0261393Y0074638D01*
X0261255Y0074721D01*
X0261120Y0074808D01*
X0260986Y0074898D01*
X0260855Y0074991D01*
X0260727Y0075087D01*
X0260601Y0075187D01*
X0260477Y0075290D01*
X0260356Y0075395D01*
X0260237Y0075504D01*
X0260121Y0075615D01*
X0260008Y0075730D01*
X0259898Y0075847D01*
X0259791Y0075967D01*
X0259687Y0076089D01*
X0259586Y0076214D01*
X0259488Y0076342D01*
X0259393Y0076472D01*
X0259301Y0076604D01*
X0259213Y0076738D01*
X0259128Y0076875D01*
X0259046Y0077013D01*
X0258968Y0077154D01*
X0258894Y0077296D01*
X0258823Y0077440D01*
X0258755Y0077586D01*
X0258692Y0077734D01*
X0258631Y0077883D01*
X0258575Y0078034D01*
X0258522Y0078186D01*
X0258473Y0078339D01*
X0258428Y0078493D01*
X0258387Y0078648D01*
X0258349Y0078805D01*
X0258316Y0078962D01*
X0258286Y0079120D01*
X0258260Y0079279D01*
X0258239Y0079438D01*
X0258221Y0079598D01*
X0258207Y0079758D01*
X0258197Y0079919D01*
X0258191Y0080079D01*
X0258189Y0080240D01*
X0258189Y0214098D02*
X0258191Y0214259D01*
X0258197Y0214419D01*
X0258207Y0214580D01*
X0258221Y0214740D01*
X0258239Y0214900D01*
X0258260Y0215059D01*
X0258286Y0215218D01*
X0258316Y0215376D01*
X0258349Y0215533D01*
X0258387Y0215690D01*
X0258428Y0215845D01*
X0258473Y0215999D01*
X0258522Y0216152D01*
X0258575Y0216304D01*
X0258631Y0216455D01*
X0258692Y0216604D01*
X0258755Y0216752D01*
X0258823Y0216898D01*
X0258894Y0217042D01*
X0258968Y0217184D01*
X0259046Y0217325D01*
X0259128Y0217463D01*
X0259213Y0217600D01*
X0259301Y0217734D01*
X0259393Y0217866D01*
X0259488Y0217996D01*
X0259586Y0218124D01*
X0259687Y0218249D01*
X0259791Y0218371D01*
X0259898Y0218491D01*
X0260008Y0218608D01*
X0260121Y0218723D01*
X0260237Y0218834D01*
X0260356Y0218943D01*
X0260477Y0219048D01*
X0260601Y0219151D01*
X0260727Y0219251D01*
X0260855Y0219347D01*
X0260986Y0219440D01*
X0261120Y0219530D01*
X0261255Y0219617D01*
X0261393Y0219700D01*
X0261532Y0219780D01*
X0261674Y0219856D01*
X0261817Y0219929D01*
X0261962Y0219998D01*
X0262109Y0220064D01*
X0262257Y0220126D01*
X0262407Y0220184D01*
X0262558Y0220239D01*
X0262711Y0220290D01*
X0262865Y0220337D01*
X0263020Y0220380D01*
X0263176Y0220419D01*
X0263332Y0220455D01*
X0263490Y0220486D01*
X0263648Y0220514D01*
X0263807Y0220538D01*
X0263967Y0220558D01*
X0264127Y0220574D01*
X0264287Y0220586D01*
X0264448Y0220594D01*
X0264609Y0220598D01*
X0264769Y0220598D01*
X0264930Y0220594D01*
X0265091Y0220586D01*
X0265251Y0220574D01*
X0265411Y0220558D01*
X0265571Y0220538D01*
X0265730Y0220514D01*
X0265888Y0220486D01*
X0266046Y0220455D01*
X0266202Y0220419D01*
X0266358Y0220380D01*
X0266513Y0220337D01*
X0266667Y0220290D01*
X0266820Y0220239D01*
X0266971Y0220184D01*
X0267121Y0220126D01*
X0267269Y0220064D01*
X0267416Y0219998D01*
X0267561Y0219929D01*
X0267704Y0219856D01*
X0267846Y0219780D01*
X0267985Y0219700D01*
X0268123Y0219617D01*
X0268258Y0219530D01*
X0268392Y0219440D01*
X0268523Y0219347D01*
X0268651Y0219251D01*
X0268777Y0219151D01*
X0268901Y0219048D01*
X0269022Y0218943D01*
X0269141Y0218834D01*
X0269257Y0218723D01*
X0269370Y0218608D01*
X0269480Y0218491D01*
X0269587Y0218371D01*
X0269691Y0218249D01*
X0269792Y0218124D01*
X0269890Y0217996D01*
X0269985Y0217866D01*
X0270077Y0217734D01*
X0270165Y0217600D01*
X0270250Y0217463D01*
X0270332Y0217325D01*
X0270410Y0217184D01*
X0270484Y0217042D01*
X0270555Y0216898D01*
X0270623Y0216752D01*
X0270686Y0216604D01*
X0270747Y0216455D01*
X0270803Y0216304D01*
X0270856Y0216152D01*
X0270905Y0215999D01*
X0270950Y0215845D01*
X0270991Y0215690D01*
X0271029Y0215533D01*
X0271062Y0215376D01*
X0271092Y0215218D01*
X0271118Y0215059D01*
X0271139Y0214900D01*
X0271157Y0214740D01*
X0271171Y0214580D01*
X0271181Y0214419D01*
X0271187Y0214259D01*
X0271189Y0214098D01*
X0271187Y0213937D01*
X0271181Y0213777D01*
X0271171Y0213616D01*
X0271157Y0213456D01*
X0271139Y0213296D01*
X0271118Y0213137D01*
X0271092Y0212978D01*
X0271062Y0212820D01*
X0271029Y0212663D01*
X0270991Y0212506D01*
X0270950Y0212351D01*
X0270905Y0212197D01*
X0270856Y0212044D01*
X0270803Y0211892D01*
X0270747Y0211741D01*
X0270686Y0211592D01*
X0270623Y0211444D01*
X0270555Y0211298D01*
X0270484Y0211154D01*
X0270410Y0211012D01*
X0270332Y0210871D01*
X0270250Y0210733D01*
X0270165Y0210596D01*
X0270077Y0210462D01*
X0269985Y0210330D01*
X0269890Y0210200D01*
X0269792Y0210072D01*
X0269691Y0209947D01*
X0269587Y0209825D01*
X0269480Y0209705D01*
X0269370Y0209588D01*
X0269257Y0209473D01*
X0269141Y0209362D01*
X0269022Y0209253D01*
X0268901Y0209148D01*
X0268777Y0209045D01*
X0268651Y0208945D01*
X0268523Y0208849D01*
X0268392Y0208756D01*
X0268258Y0208666D01*
X0268123Y0208579D01*
X0267985Y0208496D01*
X0267846Y0208416D01*
X0267704Y0208340D01*
X0267561Y0208267D01*
X0267416Y0208198D01*
X0267269Y0208132D01*
X0267121Y0208070D01*
X0266971Y0208012D01*
X0266820Y0207957D01*
X0266667Y0207906D01*
X0266513Y0207859D01*
X0266358Y0207816D01*
X0266202Y0207777D01*
X0266046Y0207741D01*
X0265888Y0207710D01*
X0265730Y0207682D01*
X0265571Y0207658D01*
X0265411Y0207638D01*
X0265251Y0207622D01*
X0265091Y0207610D01*
X0264930Y0207602D01*
X0264769Y0207598D01*
X0264609Y0207598D01*
X0264448Y0207602D01*
X0264287Y0207610D01*
X0264127Y0207622D01*
X0263967Y0207638D01*
X0263807Y0207658D01*
X0263648Y0207682D01*
X0263490Y0207710D01*
X0263332Y0207741D01*
X0263176Y0207777D01*
X0263020Y0207816D01*
X0262865Y0207859D01*
X0262711Y0207906D01*
X0262558Y0207957D01*
X0262407Y0208012D01*
X0262257Y0208070D01*
X0262109Y0208132D01*
X0261962Y0208198D01*
X0261817Y0208267D01*
X0261674Y0208340D01*
X0261532Y0208416D01*
X0261393Y0208496D01*
X0261255Y0208579D01*
X0261120Y0208666D01*
X0260986Y0208756D01*
X0260855Y0208849D01*
X0260727Y0208945D01*
X0260601Y0209045D01*
X0260477Y0209148D01*
X0260356Y0209253D01*
X0260237Y0209362D01*
X0260121Y0209473D01*
X0260008Y0209588D01*
X0259898Y0209705D01*
X0259791Y0209825D01*
X0259687Y0209947D01*
X0259586Y0210072D01*
X0259488Y0210200D01*
X0259393Y0210330D01*
X0259301Y0210462D01*
X0259213Y0210596D01*
X0259128Y0210733D01*
X0259046Y0210871D01*
X0258968Y0211012D01*
X0258894Y0211154D01*
X0258823Y0211298D01*
X0258755Y0211444D01*
X0258692Y0211592D01*
X0258631Y0211741D01*
X0258575Y0211892D01*
X0258522Y0212044D01*
X0258473Y0212197D01*
X0258428Y0212351D01*
X0258387Y0212506D01*
X0258349Y0212663D01*
X0258316Y0212820D01*
X0258286Y0212978D01*
X0258260Y0213137D01*
X0258239Y0213296D01*
X0258221Y0213456D01*
X0258207Y0213616D01*
X0258197Y0213777D01*
X0258191Y0213937D01*
X0258189Y0214098D01*
X0006220Y0214098D02*
X0006222Y0214259D01*
X0006228Y0214419D01*
X0006238Y0214580D01*
X0006252Y0214740D01*
X0006270Y0214900D01*
X0006291Y0215059D01*
X0006317Y0215218D01*
X0006347Y0215376D01*
X0006380Y0215533D01*
X0006418Y0215690D01*
X0006459Y0215845D01*
X0006504Y0215999D01*
X0006553Y0216152D01*
X0006606Y0216304D01*
X0006662Y0216455D01*
X0006723Y0216604D01*
X0006786Y0216752D01*
X0006854Y0216898D01*
X0006925Y0217042D01*
X0006999Y0217184D01*
X0007077Y0217325D01*
X0007159Y0217463D01*
X0007244Y0217600D01*
X0007332Y0217734D01*
X0007424Y0217866D01*
X0007519Y0217996D01*
X0007617Y0218124D01*
X0007718Y0218249D01*
X0007822Y0218371D01*
X0007929Y0218491D01*
X0008039Y0218608D01*
X0008152Y0218723D01*
X0008268Y0218834D01*
X0008387Y0218943D01*
X0008508Y0219048D01*
X0008632Y0219151D01*
X0008758Y0219251D01*
X0008886Y0219347D01*
X0009017Y0219440D01*
X0009151Y0219530D01*
X0009286Y0219617D01*
X0009424Y0219700D01*
X0009563Y0219780D01*
X0009705Y0219856D01*
X0009848Y0219929D01*
X0009993Y0219998D01*
X0010140Y0220064D01*
X0010288Y0220126D01*
X0010438Y0220184D01*
X0010589Y0220239D01*
X0010742Y0220290D01*
X0010896Y0220337D01*
X0011051Y0220380D01*
X0011207Y0220419D01*
X0011363Y0220455D01*
X0011521Y0220486D01*
X0011679Y0220514D01*
X0011838Y0220538D01*
X0011998Y0220558D01*
X0012158Y0220574D01*
X0012318Y0220586D01*
X0012479Y0220594D01*
X0012640Y0220598D01*
X0012800Y0220598D01*
X0012961Y0220594D01*
X0013122Y0220586D01*
X0013282Y0220574D01*
X0013442Y0220558D01*
X0013602Y0220538D01*
X0013761Y0220514D01*
X0013919Y0220486D01*
X0014077Y0220455D01*
X0014233Y0220419D01*
X0014389Y0220380D01*
X0014544Y0220337D01*
X0014698Y0220290D01*
X0014851Y0220239D01*
X0015002Y0220184D01*
X0015152Y0220126D01*
X0015300Y0220064D01*
X0015447Y0219998D01*
X0015592Y0219929D01*
X0015735Y0219856D01*
X0015877Y0219780D01*
X0016016Y0219700D01*
X0016154Y0219617D01*
X0016289Y0219530D01*
X0016423Y0219440D01*
X0016554Y0219347D01*
X0016682Y0219251D01*
X0016808Y0219151D01*
X0016932Y0219048D01*
X0017053Y0218943D01*
X0017172Y0218834D01*
X0017288Y0218723D01*
X0017401Y0218608D01*
X0017511Y0218491D01*
X0017618Y0218371D01*
X0017722Y0218249D01*
X0017823Y0218124D01*
X0017921Y0217996D01*
X0018016Y0217866D01*
X0018108Y0217734D01*
X0018196Y0217600D01*
X0018281Y0217463D01*
X0018363Y0217325D01*
X0018441Y0217184D01*
X0018515Y0217042D01*
X0018586Y0216898D01*
X0018654Y0216752D01*
X0018717Y0216604D01*
X0018778Y0216455D01*
X0018834Y0216304D01*
X0018887Y0216152D01*
X0018936Y0215999D01*
X0018981Y0215845D01*
X0019022Y0215690D01*
X0019060Y0215533D01*
X0019093Y0215376D01*
X0019123Y0215218D01*
X0019149Y0215059D01*
X0019170Y0214900D01*
X0019188Y0214740D01*
X0019202Y0214580D01*
X0019212Y0214419D01*
X0019218Y0214259D01*
X0019220Y0214098D01*
X0019218Y0213937D01*
X0019212Y0213777D01*
X0019202Y0213616D01*
X0019188Y0213456D01*
X0019170Y0213296D01*
X0019149Y0213137D01*
X0019123Y0212978D01*
X0019093Y0212820D01*
X0019060Y0212663D01*
X0019022Y0212506D01*
X0018981Y0212351D01*
X0018936Y0212197D01*
X0018887Y0212044D01*
X0018834Y0211892D01*
X0018778Y0211741D01*
X0018717Y0211592D01*
X0018654Y0211444D01*
X0018586Y0211298D01*
X0018515Y0211154D01*
X0018441Y0211012D01*
X0018363Y0210871D01*
X0018281Y0210733D01*
X0018196Y0210596D01*
X0018108Y0210462D01*
X0018016Y0210330D01*
X0017921Y0210200D01*
X0017823Y0210072D01*
X0017722Y0209947D01*
X0017618Y0209825D01*
X0017511Y0209705D01*
X0017401Y0209588D01*
X0017288Y0209473D01*
X0017172Y0209362D01*
X0017053Y0209253D01*
X0016932Y0209148D01*
X0016808Y0209045D01*
X0016682Y0208945D01*
X0016554Y0208849D01*
X0016423Y0208756D01*
X0016289Y0208666D01*
X0016154Y0208579D01*
X0016016Y0208496D01*
X0015877Y0208416D01*
X0015735Y0208340D01*
X0015592Y0208267D01*
X0015447Y0208198D01*
X0015300Y0208132D01*
X0015152Y0208070D01*
X0015002Y0208012D01*
X0014851Y0207957D01*
X0014698Y0207906D01*
X0014544Y0207859D01*
X0014389Y0207816D01*
X0014233Y0207777D01*
X0014077Y0207741D01*
X0013919Y0207710D01*
X0013761Y0207682D01*
X0013602Y0207658D01*
X0013442Y0207638D01*
X0013282Y0207622D01*
X0013122Y0207610D01*
X0012961Y0207602D01*
X0012800Y0207598D01*
X0012640Y0207598D01*
X0012479Y0207602D01*
X0012318Y0207610D01*
X0012158Y0207622D01*
X0011998Y0207638D01*
X0011838Y0207658D01*
X0011679Y0207682D01*
X0011521Y0207710D01*
X0011363Y0207741D01*
X0011207Y0207777D01*
X0011051Y0207816D01*
X0010896Y0207859D01*
X0010742Y0207906D01*
X0010589Y0207957D01*
X0010438Y0208012D01*
X0010288Y0208070D01*
X0010140Y0208132D01*
X0009993Y0208198D01*
X0009848Y0208267D01*
X0009705Y0208340D01*
X0009563Y0208416D01*
X0009424Y0208496D01*
X0009286Y0208579D01*
X0009151Y0208666D01*
X0009017Y0208756D01*
X0008886Y0208849D01*
X0008758Y0208945D01*
X0008632Y0209045D01*
X0008508Y0209148D01*
X0008387Y0209253D01*
X0008268Y0209362D01*
X0008152Y0209473D01*
X0008039Y0209588D01*
X0007929Y0209705D01*
X0007822Y0209825D01*
X0007718Y0209947D01*
X0007617Y0210072D01*
X0007519Y0210200D01*
X0007424Y0210330D01*
X0007332Y0210462D01*
X0007244Y0210596D01*
X0007159Y0210733D01*
X0007077Y0210871D01*
X0006999Y0211012D01*
X0006925Y0211154D01*
X0006854Y0211298D01*
X0006786Y0211444D01*
X0006723Y0211592D01*
X0006662Y0211741D01*
X0006606Y0211892D01*
X0006553Y0212044D01*
X0006504Y0212197D01*
X0006459Y0212351D01*
X0006418Y0212506D01*
X0006380Y0212663D01*
X0006347Y0212820D01*
X0006317Y0212978D01*
X0006291Y0213137D01*
X0006270Y0213296D01*
X0006252Y0213456D01*
X0006238Y0213616D01*
X0006228Y0213777D01*
X0006222Y0213937D01*
X0006220Y0214098D01*
D11*
X0044217Y0139295D02*
X0044219Y0139420D01*
X0044225Y0139545D01*
X0044235Y0139669D01*
X0044249Y0139793D01*
X0044266Y0139917D01*
X0044288Y0140040D01*
X0044314Y0140162D01*
X0044343Y0140284D01*
X0044376Y0140404D01*
X0044414Y0140523D01*
X0044454Y0140642D01*
X0044499Y0140758D01*
X0044547Y0140873D01*
X0044599Y0140987D01*
X0044655Y0141099D01*
X0044714Y0141209D01*
X0044776Y0141317D01*
X0044842Y0141424D01*
X0044911Y0141528D01*
X0044984Y0141629D01*
X0045059Y0141729D01*
X0045138Y0141826D01*
X0045220Y0141920D01*
X0045305Y0142012D01*
X0045392Y0142101D01*
X0045483Y0142187D01*
X0045576Y0142270D01*
X0045672Y0142351D01*
X0045770Y0142428D01*
X0045870Y0142502D01*
X0045973Y0142573D01*
X0046078Y0142640D01*
X0046186Y0142705D01*
X0046295Y0142765D01*
X0046406Y0142823D01*
X0046519Y0142876D01*
X0046633Y0142926D01*
X0046749Y0142973D01*
X0046866Y0143015D01*
X0046985Y0143054D01*
X0047105Y0143090D01*
X0047226Y0143121D01*
X0047348Y0143149D01*
X0047470Y0143172D01*
X0047594Y0143192D01*
X0047718Y0143208D01*
X0047842Y0143220D01*
X0047967Y0143228D01*
X0048092Y0143232D01*
X0048216Y0143232D01*
X0048341Y0143228D01*
X0048466Y0143220D01*
X0048590Y0143208D01*
X0048714Y0143192D01*
X0048838Y0143172D01*
X0048960Y0143149D01*
X0049082Y0143121D01*
X0049203Y0143090D01*
X0049323Y0143054D01*
X0049442Y0143015D01*
X0049559Y0142973D01*
X0049675Y0142926D01*
X0049789Y0142876D01*
X0049902Y0142823D01*
X0050013Y0142765D01*
X0050123Y0142705D01*
X0050230Y0142640D01*
X0050335Y0142573D01*
X0050438Y0142502D01*
X0050538Y0142428D01*
X0050636Y0142351D01*
X0050732Y0142270D01*
X0050825Y0142187D01*
X0050916Y0142101D01*
X0051003Y0142012D01*
X0051088Y0141920D01*
X0051170Y0141826D01*
X0051249Y0141729D01*
X0051324Y0141629D01*
X0051397Y0141528D01*
X0051466Y0141424D01*
X0051532Y0141317D01*
X0051594Y0141209D01*
X0051653Y0141099D01*
X0051709Y0140987D01*
X0051761Y0140873D01*
X0051809Y0140758D01*
X0051854Y0140642D01*
X0051894Y0140523D01*
X0051932Y0140404D01*
X0051965Y0140284D01*
X0051994Y0140162D01*
X0052020Y0140040D01*
X0052042Y0139917D01*
X0052059Y0139793D01*
X0052073Y0139669D01*
X0052083Y0139545D01*
X0052089Y0139420D01*
X0052091Y0139295D01*
X0052089Y0139170D01*
X0052083Y0139045D01*
X0052073Y0138921D01*
X0052059Y0138797D01*
X0052042Y0138673D01*
X0052020Y0138550D01*
X0051994Y0138428D01*
X0051965Y0138306D01*
X0051932Y0138186D01*
X0051894Y0138067D01*
X0051854Y0137948D01*
X0051809Y0137832D01*
X0051761Y0137717D01*
X0051709Y0137603D01*
X0051653Y0137491D01*
X0051594Y0137381D01*
X0051532Y0137273D01*
X0051466Y0137166D01*
X0051397Y0137062D01*
X0051324Y0136961D01*
X0051249Y0136861D01*
X0051170Y0136764D01*
X0051088Y0136670D01*
X0051003Y0136578D01*
X0050916Y0136489D01*
X0050825Y0136403D01*
X0050732Y0136320D01*
X0050636Y0136239D01*
X0050538Y0136162D01*
X0050438Y0136088D01*
X0050335Y0136017D01*
X0050230Y0135950D01*
X0050122Y0135885D01*
X0050013Y0135825D01*
X0049902Y0135767D01*
X0049789Y0135714D01*
X0049675Y0135664D01*
X0049559Y0135617D01*
X0049442Y0135575D01*
X0049323Y0135536D01*
X0049203Y0135500D01*
X0049082Y0135469D01*
X0048960Y0135441D01*
X0048838Y0135418D01*
X0048714Y0135398D01*
X0048590Y0135382D01*
X0048466Y0135370D01*
X0048341Y0135362D01*
X0048216Y0135358D01*
X0048092Y0135358D01*
X0047967Y0135362D01*
X0047842Y0135370D01*
X0047718Y0135382D01*
X0047594Y0135398D01*
X0047470Y0135418D01*
X0047348Y0135441D01*
X0047226Y0135469D01*
X0047105Y0135500D01*
X0046985Y0135536D01*
X0046866Y0135575D01*
X0046749Y0135617D01*
X0046633Y0135664D01*
X0046519Y0135714D01*
X0046406Y0135767D01*
X0046295Y0135825D01*
X0046185Y0135885D01*
X0046078Y0135950D01*
X0045973Y0136017D01*
X0045870Y0136088D01*
X0045770Y0136162D01*
X0045672Y0136239D01*
X0045576Y0136320D01*
X0045483Y0136403D01*
X0045392Y0136489D01*
X0045305Y0136578D01*
X0045220Y0136670D01*
X0045138Y0136764D01*
X0045059Y0136861D01*
X0044984Y0136961D01*
X0044911Y0137062D01*
X0044842Y0137166D01*
X0044776Y0137273D01*
X0044714Y0137381D01*
X0044655Y0137491D01*
X0044599Y0137603D01*
X0044547Y0137717D01*
X0044499Y0137832D01*
X0044454Y0137948D01*
X0044414Y0138067D01*
X0044376Y0138186D01*
X0044343Y0138306D01*
X0044314Y0138428D01*
X0044288Y0138550D01*
X0044266Y0138673D01*
X0044249Y0138797D01*
X0044235Y0138921D01*
X0044225Y0139045D01*
X0044219Y0139170D01*
X0044217Y0139295D01*
X0012720Y0107799D02*
X0012722Y0107924D01*
X0012728Y0108049D01*
X0012738Y0108173D01*
X0012752Y0108297D01*
X0012769Y0108421D01*
X0012791Y0108544D01*
X0012817Y0108666D01*
X0012846Y0108788D01*
X0012879Y0108908D01*
X0012917Y0109027D01*
X0012957Y0109146D01*
X0013002Y0109262D01*
X0013050Y0109377D01*
X0013102Y0109491D01*
X0013158Y0109603D01*
X0013217Y0109713D01*
X0013279Y0109821D01*
X0013345Y0109928D01*
X0013414Y0110032D01*
X0013487Y0110133D01*
X0013562Y0110233D01*
X0013641Y0110330D01*
X0013723Y0110424D01*
X0013808Y0110516D01*
X0013895Y0110605D01*
X0013986Y0110691D01*
X0014079Y0110774D01*
X0014175Y0110855D01*
X0014273Y0110932D01*
X0014373Y0111006D01*
X0014476Y0111077D01*
X0014581Y0111144D01*
X0014689Y0111209D01*
X0014798Y0111269D01*
X0014909Y0111327D01*
X0015022Y0111380D01*
X0015136Y0111430D01*
X0015252Y0111477D01*
X0015369Y0111519D01*
X0015488Y0111558D01*
X0015608Y0111594D01*
X0015729Y0111625D01*
X0015851Y0111653D01*
X0015973Y0111676D01*
X0016097Y0111696D01*
X0016221Y0111712D01*
X0016345Y0111724D01*
X0016470Y0111732D01*
X0016595Y0111736D01*
X0016719Y0111736D01*
X0016844Y0111732D01*
X0016969Y0111724D01*
X0017093Y0111712D01*
X0017217Y0111696D01*
X0017341Y0111676D01*
X0017463Y0111653D01*
X0017585Y0111625D01*
X0017706Y0111594D01*
X0017826Y0111558D01*
X0017945Y0111519D01*
X0018062Y0111477D01*
X0018178Y0111430D01*
X0018292Y0111380D01*
X0018405Y0111327D01*
X0018516Y0111269D01*
X0018626Y0111209D01*
X0018733Y0111144D01*
X0018838Y0111077D01*
X0018941Y0111006D01*
X0019041Y0110932D01*
X0019139Y0110855D01*
X0019235Y0110774D01*
X0019328Y0110691D01*
X0019419Y0110605D01*
X0019506Y0110516D01*
X0019591Y0110424D01*
X0019673Y0110330D01*
X0019752Y0110233D01*
X0019827Y0110133D01*
X0019900Y0110032D01*
X0019969Y0109928D01*
X0020035Y0109821D01*
X0020097Y0109713D01*
X0020156Y0109603D01*
X0020212Y0109491D01*
X0020264Y0109377D01*
X0020312Y0109262D01*
X0020357Y0109146D01*
X0020397Y0109027D01*
X0020435Y0108908D01*
X0020468Y0108788D01*
X0020497Y0108666D01*
X0020523Y0108544D01*
X0020545Y0108421D01*
X0020562Y0108297D01*
X0020576Y0108173D01*
X0020586Y0108049D01*
X0020592Y0107924D01*
X0020594Y0107799D01*
X0020592Y0107674D01*
X0020586Y0107549D01*
X0020576Y0107425D01*
X0020562Y0107301D01*
X0020545Y0107177D01*
X0020523Y0107054D01*
X0020497Y0106932D01*
X0020468Y0106810D01*
X0020435Y0106690D01*
X0020397Y0106571D01*
X0020357Y0106452D01*
X0020312Y0106336D01*
X0020264Y0106221D01*
X0020212Y0106107D01*
X0020156Y0105995D01*
X0020097Y0105885D01*
X0020035Y0105777D01*
X0019969Y0105670D01*
X0019900Y0105566D01*
X0019827Y0105465D01*
X0019752Y0105365D01*
X0019673Y0105268D01*
X0019591Y0105174D01*
X0019506Y0105082D01*
X0019419Y0104993D01*
X0019328Y0104907D01*
X0019235Y0104824D01*
X0019139Y0104743D01*
X0019041Y0104666D01*
X0018941Y0104592D01*
X0018838Y0104521D01*
X0018733Y0104454D01*
X0018625Y0104389D01*
X0018516Y0104329D01*
X0018405Y0104271D01*
X0018292Y0104218D01*
X0018178Y0104168D01*
X0018062Y0104121D01*
X0017945Y0104079D01*
X0017826Y0104040D01*
X0017706Y0104004D01*
X0017585Y0103973D01*
X0017463Y0103945D01*
X0017341Y0103922D01*
X0017217Y0103902D01*
X0017093Y0103886D01*
X0016969Y0103874D01*
X0016844Y0103866D01*
X0016719Y0103862D01*
X0016595Y0103862D01*
X0016470Y0103866D01*
X0016345Y0103874D01*
X0016221Y0103886D01*
X0016097Y0103902D01*
X0015973Y0103922D01*
X0015851Y0103945D01*
X0015729Y0103973D01*
X0015608Y0104004D01*
X0015488Y0104040D01*
X0015369Y0104079D01*
X0015252Y0104121D01*
X0015136Y0104168D01*
X0015022Y0104218D01*
X0014909Y0104271D01*
X0014798Y0104329D01*
X0014688Y0104389D01*
X0014581Y0104454D01*
X0014476Y0104521D01*
X0014373Y0104592D01*
X0014273Y0104666D01*
X0014175Y0104743D01*
X0014079Y0104824D01*
X0013986Y0104907D01*
X0013895Y0104993D01*
X0013808Y0105082D01*
X0013723Y0105174D01*
X0013641Y0105268D01*
X0013562Y0105365D01*
X0013487Y0105465D01*
X0013414Y0105566D01*
X0013345Y0105670D01*
X0013279Y0105777D01*
X0013217Y0105885D01*
X0013158Y0105995D01*
X0013102Y0106107D01*
X0013050Y0106221D01*
X0013002Y0106336D01*
X0012957Y0106452D01*
X0012917Y0106571D01*
X0012879Y0106690D01*
X0012846Y0106810D01*
X0012817Y0106932D01*
X0012791Y0107054D01*
X0012769Y0107177D01*
X0012752Y0107301D01*
X0012738Y0107425D01*
X0012728Y0107549D01*
X0012722Y0107674D01*
X0012720Y0107799D01*
X0044217Y0072366D02*
X0044219Y0072491D01*
X0044225Y0072616D01*
X0044235Y0072740D01*
X0044249Y0072864D01*
X0044266Y0072988D01*
X0044288Y0073111D01*
X0044314Y0073233D01*
X0044343Y0073355D01*
X0044376Y0073475D01*
X0044414Y0073594D01*
X0044454Y0073713D01*
X0044499Y0073829D01*
X0044547Y0073944D01*
X0044599Y0074058D01*
X0044655Y0074170D01*
X0044714Y0074280D01*
X0044776Y0074388D01*
X0044842Y0074495D01*
X0044911Y0074599D01*
X0044984Y0074700D01*
X0045059Y0074800D01*
X0045138Y0074897D01*
X0045220Y0074991D01*
X0045305Y0075083D01*
X0045392Y0075172D01*
X0045483Y0075258D01*
X0045576Y0075341D01*
X0045672Y0075422D01*
X0045770Y0075499D01*
X0045870Y0075573D01*
X0045973Y0075644D01*
X0046078Y0075711D01*
X0046186Y0075776D01*
X0046295Y0075836D01*
X0046406Y0075894D01*
X0046519Y0075947D01*
X0046633Y0075997D01*
X0046749Y0076044D01*
X0046866Y0076086D01*
X0046985Y0076125D01*
X0047105Y0076161D01*
X0047226Y0076192D01*
X0047348Y0076220D01*
X0047470Y0076243D01*
X0047594Y0076263D01*
X0047718Y0076279D01*
X0047842Y0076291D01*
X0047967Y0076299D01*
X0048092Y0076303D01*
X0048216Y0076303D01*
X0048341Y0076299D01*
X0048466Y0076291D01*
X0048590Y0076279D01*
X0048714Y0076263D01*
X0048838Y0076243D01*
X0048960Y0076220D01*
X0049082Y0076192D01*
X0049203Y0076161D01*
X0049323Y0076125D01*
X0049442Y0076086D01*
X0049559Y0076044D01*
X0049675Y0075997D01*
X0049789Y0075947D01*
X0049902Y0075894D01*
X0050013Y0075836D01*
X0050123Y0075776D01*
X0050230Y0075711D01*
X0050335Y0075644D01*
X0050438Y0075573D01*
X0050538Y0075499D01*
X0050636Y0075422D01*
X0050732Y0075341D01*
X0050825Y0075258D01*
X0050916Y0075172D01*
X0051003Y0075083D01*
X0051088Y0074991D01*
X0051170Y0074897D01*
X0051249Y0074800D01*
X0051324Y0074700D01*
X0051397Y0074599D01*
X0051466Y0074495D01*
X0051532Y0074388D01*
X0051594Y0074280D01*
X0051653Y0074170D01*
X0051709Y0074058D01*
X0051761Y0073944D01*
X0051809Y0073829D01*
X0051854Y0073713D01*
X0051894Y0073594D01*
X0051932Y0073475D01*
X0051965Y0073355D01*
X0051994Y0073233D01*
X0052020Y0073111D01*
X0052042Y0072988D01*
X0052059Y0072864D01*
X0052073Y0072740D01*
X0052083Y0072616D01*
X0052089Y0072491D01*
X0052091Y0072366D01*
X0052089Y0072241D01*
X0052083Y0072116D01*
X0052073Y0071992D01*
X0052059Y0071868D01*
X0052042Y0071744D01*
X0052020Y0071621D01*
X0051994Y0071499D01*
X0051965Y0071377D01*
X0051932Y0071257D01*
X0051894Y0071138D01*
X0051854Y0071019D01*
X0051809Y0070903D01*
X0051761Y0070788D01*
X0051709Y0070674D01*
X0051653Y0070562D01*
X0051594Y0070452D01*
X0051532Y0070344D01*
X0051466Y0070237D01*
X0051397Y0070133D01*
X0051324Y0070032D01*
X0051249Y0069932D01*
X0051170Y0069835D01*
X0051088Y0069741D01*
X0051003Y0069649D01*
X0050916Y0069560D01*
X0050825Y0069474D01*
X0050732Y0069391D01*
X0050636Y0069310D01*
X0050538Y0069233D01*
X0050438Y0069159D01*
X0050335Y0069088D01*
X0050230Y0069021D01*
X0050122Y0068956D01*
X0050013Y0068896D01*
X0049902Y0068838D01*
X0049789Y0068785D01*
X0049675Y0068735D01*
X0049559Y0068688D01*
X0049442Y0068646D01*
X0049323Y0068607D01*
X0049203Y0068571D01*
X0049082Y0068540D01*
X0048960Y0068512D01*
X0048838Y0068489D01*
X0048714Y0068469D01*
X0048590Y0068453D01*
X0048466Y0068441D01*
X0048341Y0068433D01*
X0048216Y0068429D01*
X0048092Y0068429D01*
X0047967Y0068433D01*
X0047842Y0068441D01*
X0047718Y0068453D01*
X0047594Y0068469D01*
X0047470Y0068489D01*
X0047348Y0068512D01*
X0047226Y0068540D01*
X0047105Y0068571D01*
X0046985Y0068607D01*
X0046866Y0068646D01*
X0046749Y0068688D01*
X0046633Y0068735D01*
X0046519Y0068785D01*
X0046406Y0068838D01*
X0046295Y0068896D01*
X0046185Y0068956D01*
X0046078Y0069021D01*
X0045973Y0069088D01*
X0045870Y0069159D01*
X0045770Y0069233D01*
X0045672Y0069310D01*
X0045576Y0069391D01*
X0045483Y0069474D01*
X0045392Y0069560D01*
X0045305Y0069649D01*
X0045220Y0069741D01*
X0045138Y0069835D01*
X0045059Y0069932D01*
X0044984Y0070032D01*
X0044911Y0070133D01*
X0044842Y0070237D01*
X0044776Y0070344D01*
X0044714Y0070452D01*
X0044655Y0070562D01*
X0044599Y0070674D01*
X0044547Y0070788D01*
X0044499Y0070903D01*
X0044454Y0071019D01*
X0044414Y0071138D01*
X0044376Y0071257D01*
X0044343Y0071377D01*
X0044314Y0071499D01*
X0044288Y0071621D01*
X0044266Y0071744D01*
X0044249Y0071868D01*
X0044235Y0071992D01*
X0044225Y0072116D01*
X0044219Y0072241D01*
X0044217Y0072366D01*
X0075713Y0107799D02*
X0075715Y0107924D01*
X0075721Y0108049D01*
X0075731Y0108173D01*
X0075745Y0108297D01*
X0075762Y0108421D01*
X0075784Y0108544D01*
X0075810Y0108666D01*
X0075839Y0108788D01*
X0075872Y0108908D01*
X0075910Y0109027D01*
X0075950Y0109146D01*
X0075995Y0109262D01*
X0076043Y0109377D01*
X0076095Y0109491D01*
X0076151Y0109603D01*
X0076210Y0109713D01*
X0076272Y0109821D01*
X0076338Y0109928D01*
X0076407Y0110032D01*
X0076480Y0110133D01*
X0076555Y0110233D01*
X0076634Y0110330D01*
X0076716Y0110424D01*
X0076801Y0110516D01*
X0076888Y0110605D01*
X0076979Y0110691D01*
X0077072Y0110774D01*
X0077168Y0110855D01*
X0077266Y0110932D01*
X0077366Y0111006D01*
X0077469Y0111077D01*
X0077574Y0111144D01*
X0077682Y0111209D01*
X0077791Y0111269D01*
X0077902Y0111327D01*
X0078015Y0111380D01*
X0078129Y0111430D01*
X0078245Y0111477D01*
X0078362Y0111519D01*
X0078481Y0111558D01*
X0078601Y0111594D01*
X0078722Y0111625D01*
X0078844Y0111653D01*
X0078966Y0111676D01*
X0079090Y0111696D01*
X0079214Y0111712D01*
X0079338Y0111724D01*
X0079463Y0111732D01*
X0079588Y0111736D01*
X0079712Y0111736D01*
X0079837Y0111732D01*
X0079962Y0111724D01*
X0080086Y0111712D01*
X0080210Y0111696D01*
X0080334Y0111676D01*
X0080456Y0111653D01*
X0080578Y0111625D01*
X0080699Y0111594D01*
X0080819Y0111558D01*
X0080938Y0111519D01*
X0081055Y0111477D01*
X0081171Y0111430D01*
X0081285Y0111380D01*
X0081398Y0111327D01*
X0081509Y0111269D01*
X0081619Y0111209D01*
X0081726Y0111144D01*
X0081831Y0111077D01*
X0081934Y0111006D01*
X0082034Y0110932D01*
X0082132Y0110855D01*
X0082228Y0110774D01*
X0082321Y0110691D01*
X0082412Y0110605D01*
X0082499Y0110516D01*
X0082584Y0110424D01*
X0082666Y0110330D01*
X0082745Y0110233D01*
X0082820Y0110133D01*
X0082893Y0110032D01*
X0082962Y0109928D01*
X0083028Y0109821D01*
X0083090Y0109713D01*
X0083149Y0109603D01*
X0083205Y0109491D01*
X0083257Y0109377D01*
X0083305Y0109262D01*
X0083350Y0109146D01*
X0083390Y0109027D01*
X0083428Y0108908D01*
X0083461Y0108788D01*
X0083490Y0108666D01*
X0083516Y0108544D01*
X0083538Y0108421D01*
X0083555Y0108297D01*
X0083569Y0108173D01*
X0083579Y0108049D01*
X0083585Y0107924D01*
X0083587Y0107799D01*
X0083585Y0107674D01*
X0083579Y0107549D01*
X0083569Y0107425D01*
X0083555Y0107301D01*
X0083538Y0107177D01*
X0083516Y0107054D01*
X0083490Y0106932D01*
X0083461Y0106810D01*
X0083428Y0106690D01*
X0083390Y0106571D01*
X0083350Y0106452D01*
X0083305Y0106336D01*
X0083257Y0106221D01*
X0083205Y0106107D01*
X0083149Y0105995D01*
X0083090Y0105885D01*
X0083028Y0105777D01*
X0082962Y0105670D01*
X0082893Y0105566D01*
X0082820Y0105465D01*
X0082745Y0105365D01*
X0082666Y0105268D01*
X0082584Y0105174D01*
X0082499Y0105082D01*
X0082412Y0104993D01*
X0082321Y0104907D01*
X0082228Y0104824D01*
X0082132Y0104743D01*
X0082034Y0104666D01*
X0081934Y0104592D01*
X0081831Y0104521D01*
X0081726Y0104454D01*
X0081618Y0104389D01*
X0081509Y0104329D01*
X0081398Y0104271D01*
X0081285Y0104218D01*
X0081171Y0104168D01*
X0081055Y0104121D01*
X0080938Y0104079D01*
X0080819Y0104040D01*
X0080699Y0104004D01*
X0080578Y0103973D01*
X0080456Y0103945D01*
X0080334Y0103922D01*
X0080210Y0103902D01*
X0080086Y0103886D01*
X0079962Y0103874D01*
X0079837Y0103866D01*
X0079712Y0103862D01*
X0079588Y0103862D01*
X0079463Y0103866D01*
X0079338Y0103874D01*
X0079214Y0103886D01*
X0079090Y0103902D01*
X0078966Y0103922D01*
X0078844Y0103945D01*
X0078722Y0103973D01*
X0078601Y0104004D01*
X0078481Y0104040D01*
X0078362Y0104079D01*
X0078245Y0104121D01*
X0078129Y0104168D01*
X0078015Y0104218D01*
X0077902Y0104271D01*
X0077791Y0104329D01*
X0077681Y0104389D01*
X0077574Y0104454D01*
X0077469Y0104521D01*
X0077366Y0104592D01*
X0077266Y0104666D01*
X0077168Y0104743D01*
X0077072Y0104824D01*
X0076979Y0104907D01*
X0076888Y0104993D01*
X0076801Y0105082D01*
X0076716Y0105174D01*
X0076634Y0105268D01*
X0076555Y0105365D01*
X0076480Y0105465D01*
X0076407Y0105566D01*
X0076338Y0105670D01*
X0076272Y0105777D01*
X0076210Y0105885D01*
X0076151Y0105995D01*
X0076095Y0106107D01*
X0076043Y0106221D01*
X0075995Y0106336D01*
X0075950Y0106452D01*
X0075910Y0106571D01*
X0075872Y0106690D01*
X0075839Y0106810D01*
X0075810Y0106932D01*
X0075784Y0107054D01*
X0075762Y0107177D01*
X0075745Y0107301D01*
X0075731Y0107425D01*
X0075721Y0107549D01*
X0075715Y0107674D01*
X0075713Y0107799D01*
X0159571Y0147169D02*
X0159573Y0147294D01*
X0159579Y0147419D01*
X0159589Y0147543D01*
X0159603Y0147667D01*
X0159620Y0147791D01*
X0159642Y0147914D01*
X0159668Y0148036D01*
X0159697Y0148158D01*
X0159730Y0148278D01*
X0159768Y0148397D01*
X0159808Y0148516D01*
X0159853Y0148632D01*
X0159901Y0148747D01*
X0159953Y0148861D01*
X0160009Y0148973D01*
X0160068Y0149083D01*
X0160130Y0149191D01*
X0160196Y0149298D01*
X0160265Y0149402D01*
X0160338Y0149503D01*
X0160413Y0149603D01*
X0160492Y0149700D01*
X0160574Y0149794D01*
X0160659Y0149886D01*
X0160746Y0149975D01*
X0160837Y0150061D01*
X0160930Y0150144D01*
X0161026Y0150225D01*
X0161124Y0150302D01*
X0161224Y0150376D01*
X0161327Y0150447D01*
X0161432Y0150514D01*
X0161540Y0150579D01*
X0161649Y0150639D01*
X0161760Y0150697D01*
X0161873Y0150750D01*
X0161987Y0150800D01*
X0162103Y0150847D01*
X0162220Y0150889D01*
X0162339Y0150928D01*
X0162459Y0150964D01*
X0162580Y0150995D01*
X0162702Y0151023D01*
X0162824Y0151046D01*
X0162948Y0151066D01*
X0163072Y0151082D01*
X0163196Y0151094D01*
X0163321Y0151102D01*
X0163446Y0151106D01*
X0163570Y0151106D01*
X0163695Y0151102D01*
X0163820Y0151094D01*
X0163944Y0151082D01*
X0164068Y0151066D01*
X0164192Y0151046D01*
X0164314Y0151023D01*
X0164436Y0150995D01*
X0164557Y0150964D01*
X0164677Y0150928D01*
X0164796Y0150889D01*
X0164913Y0150847D01*
X0165029Y0150800D01*
X0165143Y0150750D01*
X0165256Y0150697D01*
X0165367Y0150639D01*
X0165477Y0150579D01*
X0165584Y0150514D01*
X0165689Y0150447D01*
X0165792Y0150376D01*
X0165892Y0150302D01*
X0165990Y0150225D01*
X0166086Y0150144D01*
X0166179Y0150061D01*
X0166270Y0149975D01*
X0166357Y0149886D01*
X0166442Y0149794D01*
X0166524Y0149700D01*
X0166603Y0149603D01*
X0166678Y0149503D01*
X0166751Y0149402D01*
X0166820Y0149298D01*
X0166886Y0149191D01*
X0166948Y0149083D01*
X0167007Y0148973D01*
X0167063Y0148861D01*
X0167115Y0148747D01*
X0167163Y0148632D01*
X0167208Y0148516D01*
X0167248Y0148397D01*
X0167286Y0148278D01*
X0167319Y0148158D01*
X0167348Y0148036D01*
X0167374Y0147914D01*
X0167396Y0147791D01*
X0167413Y0147667D01*
X0167427Y0147543D01*
X0167437Y0147419D01*
X0167443Y0147294D01*
X0167445Y0147169D01*
X0167443Y0147044D01*
X0167437Y0146919D01*
X0167427Y0146795D01*
X0167413Y0146671D01*
X0167396Y0146547D01*
X0167374Y0146424D01*
X0167348Y0146302D01*
X0167319Y0146180D01*
X0167286Y0146060D01*
X0167248Y0145941D01*
X0167208Y0145822D01*
X0167163Y0145706D01*
X0167115Y0145591D01*
X0167063Y0145477D01*
X0167007Y0145365D01*
X0166948Y0145255D01*
X0166886Y0145147D01*
X0166820Y0145040D01*
X0166751Y0144936D01*
X0166678Y0144835D01*
X0166603Y0144735D01*
X0166524Y0144638D01*
X0166442Y0144544D01*
X0166357Y0144452D01*
X0166270Y0144363D01*
X0166179Y0144277D01*
X0166086Y0144194D01*
X0165990Y0144113D01*
X0165892Y0144036D01*
X0165792Y0143962D01*
X0165689Y0143891D01*
X0165584Y0143824D01*
X0165476Y0143759D01*
X0165367Y0143699D01*
X0165256Y0143641D01*
X0165143Y0143588D01*
X0165029Y0143538D01*
X0164913Y0143491D01*
X0164796Y0143449D01*
X0164677Y0143410D01*
X0164557Y0143374D01*
X0164436Y0143343D01*
X0164314Y0143315D01*
X0164192Y0143292D01*
X0164068Y0143272D01*
X0163944Y0143256D01*
X0163820Y0143244D01*
X0163695Y0143236D01*
X0163570Y0143232D01*
X0163446Y0143232D01*
X0163321Y0143236D01*
X0163196Y0143244D01*
X0163072Y0143256D01*
X0162948Y0143272D01*
X0162824Y0143292D01*
X0162702Y0143315D01*
X0162580Y0143343D01*
X0162459Y0143374D01*
X0162339Y0143410D01*
X0162220Y0143449D01*
X0162103Y0143491D01*
X0161987Y0143538D01*
X0161873Y0143588D01*
X0161760Y0143641D01*
X0161649Y0143699D01*
X0161539Y0143759D01*
X0161432Y0143824D01*
X0161327Y0143891D01*
X0161224Y0143962D01*
X0161124Y0144036D01*
X0161026Y0144113D01*
X0160930Y0144194D01*
X0160837Y0144277D01*
X0160746Y0144363D01*
X0160659Y0144452D01*
X0160574Y0144544D01*
X0160492Y0144638D01*
X0160413Y0144735D01*
X0160338Y0144835D01*
X0160265Y0144936D01*
X0160196Y0145040D01*
X0160130Y0145147D01*
X0160068Y0145255D01*
X0160009Y0145365D01*
X0159953Y0145477D01*
X0159901Y0145591D01*
X0159853Y0145706D01*
X0159808Y0145822D01*
X0159768Y0145941D01*
X0159730Y0146060D01*
X0159697Y0146180D01*
X0159668Y0146302D01*
X0159642Y0146424D01*
X0159620Y0146547D01*
X0159603Y0146671D01*
X0159589Y0146795D01*
X0159579Y0146919D01*
X0159573Y0147044D01*
X0159571Y0147169D01*
X0213508Y0166854D02*
X0213510Y0166979D01*
X0213516Y0167104D01*
X0213526Y0167228D01*
X0213540Y0167352D01*
X0213557Y0167476D01*
X0213579Y0167599D01*
X0213605Y0167721D01*
X0213634Y0167843D01*
X0213667Y0167963D01*
X0213705Y0168082D01*
X0213745Y0168201D01*
X0213790Y0168317D01*
X0213838Y0168432D01*
X0213890Y0168546D01*
X0213946Y0168658D01*
X0214005Y0168768D01*
X0214067Y0168876D01*
X0214133Y0168983D01*
X0214202Y0169087D01*
X0214275Y0169188D01*
X0214350Y0169288D01*
X0214429Y0169385D01*
X0214511Y0169479D01*
X0214596Y0169571D01*
X0214683Y0169660D01*
X0214774Y0169746D01*
X0214867Y0169829D01*
X0214963Y0169910D01*
X0215061Y0169987D01*
X0215161Y0170061D01*
X0215264Y0170132D01*
X0215369Y0170199D01*
X0215477Y0170264D01*
X0215586Y0170324D01*
X0215697Y0170382D01*
X0215810Y0170435D01*
X0215924Y0170485D01*
X0216040Y0170532D01*
X0216157Y0170574D01*
X0216276Y0170613D01*
X0216396Y0170649D01*
X0216517Y0170680D01*
X0216639Y0170708D01*
X0216761Y0170731D01*
X0216885Y0170751D01*
X0217009Y0170767D01*
X0217133Y0170779D01*
X0217258Y0170787D01*
X0217383Y0170791D01*
X0217507Y0170791D01*
X0217632Y0170787D01*
X0217757Y0170779D01*
X0217881Y0170767D01*
X0218005Y0170751D01*
X0218129Y0170731D01*
X0218251Y0170708D01*
X0218373Y0170680D01*
X0218494Y0170649D01*
X0218614Y0170613D01*
X0218733Y0170574D01*
X0218850Y0170532D01*
X0218966Y0170485D01*
X0219080Y0170435D01*
X0219193Y0170382D01*
X0219304Y0170324D01*
X0219414Y0170264D01*
X0219521Y0170199D01*
X0219626Y0170132D01*
X0219729Y0170061D01*
X0219829Y0169987D01*
X0219927Y0169910D01*
X0220023Y0169829D01*
X0220116Y0169746D01*
X0220207Y0169660D01*
X0220294Y0169571D01*
X0220379Y0169479D01*
X0220461Y0169385D01*
X0220540Y0169288D01*
X0220615Y0169188D01*
X0220688Y0169087D01*
X0220757Y0168983D01*
X0220823Y0168876D01*
X0220885Y0168768D01*
X0220944Y0168658D01*
X0221000Y0168546D01*
X0221052Y0168432D01*
X0221100Y0168317D01*
X0221145Y0168201D01*
X0221185Y0168082D01*
X0221223Y0167963D01*
X0221256Y0167843D01*
X0221285Y0167721D01*
X0221311Y0167599D01*
X0221333Y0167476D01*
X0221350Y0167352D01*
X0221364Y0167228D01*
X0221374Y0167104D01*
X0221380Y0166979D01*
X0221382Y0166854D01*
X0221380Y0166729D01*
X0221374Y0166604D01*
X0221364Y0166480D01*
X0221350Y0166356D01*
X0221333Y0166232D01*
X0221311Y0166109D01*
X0221285Y0165987D01*
X0221256Y0165865D01*
X0221223Y0165745D01*
X0221185Y0165626D01*
X0221145Y0165507D01*
X0221100Y0165391D01*
X0221052Y0165276D01*
X0221000Y0165162D01*
X0220944Y0165050D01*
X0220885Y0164940D01*
X0220823Y0164832D01*
X0220757Y0164725D01*
X0220688Y0164621D01*
X0220615Y0164520D01*
X0220540Y0164420D01*
X0220461Y0164323D01*
X0220379Y0164229D01*
X0220294Y0164137D01*
X0220207Y0164048D01*
X0220116Y0163962D01*
X0220023Y0163879D01*
X0219927Y0163798D01*
X0219829Y0163721D01*
X0219729Y0163647D01*
X0219626Y0163576D01*
X0219521Y0163509D01*
X0219413Y0163444D01*
X0219304Y0163384D01*
X0219193Y0163326D01*
X0219080Y0163273D01*
X0218966Y0163223D01*
X0218850Y0163176D01*
X0218733Y0163134D01*
X0218614Y0163095D01*
X0218494Y0163059D01*
X0218373Y0163028D01*
X0218251Y0163000D01*
X0218129Y0162977D01*
X0218005Y0162957D01*
X0217881Y0162941D01*
X0217757Y0162929D01*
X0217632Y0162921D01*
X0217507Y0162917D01*
X0217383Y0162917D01*
X0217258Y0162921D01*
X0217133Y0162929D01*
X0217009Y0162941D01*
X0216885Y0162957D01*
X0216761Y0162977D01*
X0216639Y0163000D01*
X0216517Y0163028D01*
X0216396Y0163059D01*
X0216276Y0163095D01*
X0216157Y0163134D01*
X0216040Y0163176D01*
X0215924Y0163223D01*
X0215810Y0163273D01*
X0215697Y0163326D01*
X0215586Y0163384D01*
X0215476Y0163444D01*
X0215369Y0163509D01*
X0215264Y0163576D01*
X0215161Y0163647D01*
X0215061Y0163721D01*
X0214963Y0163798D01*
X0214867Y0163879D01*
X0214774Y0163962D01*
X0214683Y0164048D01*
X0214596Y0164137D01*
X0214511Y0164229D01*
X0214429Y0164323D01*
X0214350Y0164420D01*
X0214275Y0164520D01*
X0214202Y0164621D01*
X0214133Y0164725D01*
X0214067Y0164832D01*
X0214005Y0164940D01*
X0213946Y0165050D01*
X0213890Y0165162D01*
X0213838Y0165276D01*
X0213790Y0165391D01*
X0213745Y0165507D01*
X0213705Y0165626D01*
X0213667Y0165745D01*
X0213634Y0165865D01*
X0213605Y0165987D01*
X0213579Y0166109D01*
X0213557Y0166232D01*
X0213540Y0166356D01*
X0213526Y0166480D01*
X0213516Y0166604D01*
X0213510Y0166729D01*
X0213508Y0166854D01*
X0245004Y0115673D02*
X0245006Y0115798D01*
X0245012Y0115923D01*
X0245022Y0116047D01*
X0245036Y0116171D01*
X0245053Y0116295D01*
X0245075Y0116418D01*
X0245101Y0116540D01*
X0245130Y0116662D01*
X0245163Y0116782D01*
X0245201Y0116901D01*
X0245241Y0117020D01*
X0245286Y0117136D01*
X0245334Y0117251D01*
X0245386Y0117365D01*
X0245442Y0117477D01*
X0245501Y0117587D01*
X0245563Y0117695D01*
X0245629Y0117802D01*
X0245698Y0117906D01*
X0245771Y0118007D01*
X0245846Y0118107D01*
X0245925Y0118204D01*
X0246007Y0118298D01*
X0246092Y0118390D01*
X0246179Y0118479D01*
X0246270Y0118565D01*
X0246363Y0118648D01*
X0246459Y0118729D01*
X0246557Y0118806D01*
X0246657Y0118880D01*
X0246760Y0118951D01*
X0246865Y0119018D01*
X0246973Y0119083D01*
X0247082Y0119143D01*
X0247193Y0119201D01*
X0247306Y0119254D01*
X0247420Y0119304D01*
X0247536Y0119351D01*
X0247653Y0119393D01*
X0247772Y0119432D01*
X0247892Y0119468D01*
X0248013Y0119499D01*
X0248135Y0119527D01*
X0248257Y0119550D01*
X0248381Y0119570D01*
X0248505Y0119586D01*
X0248629Y0119598D01*
X0248754Y0119606D01*
X0248879Y0119610D01*
X0249003Y0119610D01*
X0249128Y0119606D01*
X0249253Y0119598D01*
X0249377Y0119586D01*
X0249501Y0119570D01*
X0249625Y0119550D01*
X0249747Y0119527D01*
X0249869Y0119499D01*
X0249990Y0119468D01*
X0250110Y0119432D01*
X0250229Y0119393D01*
X0250346Y0119351D01*
X0250462Y0119304D01*
X0250576Y0119254D01*
X0250689Y0119201D01*
X0250800Y0119143D01*
X0250910Y0119083D01*
X0251017Y0119018D01*
X0251122Y0118951D01*
X0251225Y0118880D01*
X0251325Y0118806D01*
X0251423Y0118729D01*
X0251519Y0118648D01*
X0251612Y0118565D01*
X0251703Y0118479D01*
X0251790Y0118390D01*
X0251875Y0118298D01*
X0251957Y0118204D01*
X0252036Y0118107D01*
X0252111Y0118007D01*
X0252184Y0117906D01*
X0252253Y0117802D01*
X0252319Y0117695D01*
X0252381Y0117587D01*
X0252440Y0117477D01*
X0252496Y0117365D01*
X0252548Y0117251D01*
X0252596Y0117136D01*
X0252641Y0117020D01*
X0252681Y0116901D01*
X0252719Y0116782D01*
X0252752Y0116662D01*
X0252781Y0116540D01*
X0252807Y0116418D01*
X0252829Y0116295D01*
X0252846Y0116171D01*
X0252860Y0116047D01*
X0252870Y0115923D01*
X0252876Y0115798D01*
X0252878Y0115673D01*
X0252876Y0115548D01*
X0252870Y0115423D01*
X0252860Y0115299D01*
X0252846Y0115175D01*
X0252829Y0115051D01*
X0252807Y0114928D01*
X0252781Y0114806D01*
X0252752Y0114684D01*
X0252719Y0114564D01*
X0252681Y0114445D01*
X0252641Y0114326D01*
X0252596Y0114210D01*
X0252548Y0114095D01*
X0252496Y0113981D01*
X0252440Y0113869D01*
X0252381Y0113759D01*
X0252319Y0113651D01*
X0252253Y0113544D01*
X0252184Y0113440D01*
X0252111Y0113339D01*
X0252036Y0113239D01*
X0251957Y0113142D01*
X0251875Y0113048D01*
X0251790Y0112956D01*
X0251703Y0112867D01*
X0251612Y0112781D01*
X0251519Y0112698D01*
X0251423Y0112617D01*
X0251325Y0112540D01*
X0251225Y0112466D01*
X0251122Y0112395D01*
X0251017Y0112328D01*
X0250909Y0112263D01*
X0250800Y0112203D01*
X0250689Y0112145D01*
X0250576Y0112092D01*
X0250462Y0112042D01*
X0250346Y0111995D01*
X0250229Y0111953D01*
X0250110Y0111914D01*
X0249990Y0111878D01*
X0249869Y0111847D01*
X0249747Y0111819D01*
X0249625Y0111796D01*
X0249501Y0111776D01*
X0249377Y0111760D01*
X0249253Y0111748D01*
X0249128Y0111740D01*
X0249003Y0111736D01*
X0248879Y0111736D01*
X0248754Y0111740D01*
X0248629Y0111748D01*
X0248505Y0111760D01*
X0248381Y0111776D01*
X0248257Y0111796D01*
X0248135Y0111819D01*
X0248013Y0111847D01*
X0247892Y0111878D01*
X0247772Y0111914D01*
X0247653Y0111953D01*
X0247536Y0111995D01*
X0247420Y0112042D01*
X0247306Y0112092D01*
X0247193Y0112145D01*
X0247082Y0112203D01*
X0246972Y0112263D01*
X0246865Y0112328D01*
X0246760Y0112395D01*
X0246657Y0112466D01*
X0246557Y0112540D01*
X0246459Y0112617D01*
X0246363Y0112698D01*
X0246270Y0112781D01*
X0246179Y0112867D01*
X0246092Y0112956D01*
X0246007Y0113048D01*
X0245925Y0113142D01*
X0245846Y0113239D01*
X0245771Y0113339D01*
X0245698Y0113440D01*
X0245629Y0113544D01*
X0245563Y0113651D01*
X0245501Y0113759D01*
X0245442Y0113869D01*
X0245386Y0113981D01*
X0245334Y0114095D01*
X0245286Y0114210D01*
X0245241Y0114326D01*
X0245201Y0114445D01*
X0245163Y0114564D01*
X0245130Y0114684D01*
X0245101Y0114806D01*
X0245075Y0114928D01*
X0245053Y0115051D01*
X0245036Y0115175D01*
X0245022Y0115299D01*
X0245012Y0115423D01*
X0245006Y0115548D01*
X0245004Y0115673D01*
X0191067Y0095988D02*
X0191069Y0096113D01*
X0191075Y0096238D01*
X0191085Y0096362D01*
X0191099Y0096486D01*
X0191116Y0096610D01*
X0191138Y0096733D01*
X0191164Y0096855D01*
X0191193Y0096977D01*
X0191226Y0097097D01*
X0191264Y0097216D01*
X0191304Y0097335D01*
X0191349Y0097451D01*
X0191397Y0097566D01*
X0191449Y0097680D01*
X0191505Y0097792D01*
X0191564Y0097902D01*
X0191626Y0098010D01*
X0191692Y0098117D01*
X0191761Y0098221D01*
X0191834Y0098322D01*
X0191909Y0098422D01*
X0191988Y0098519D01*
X0192070Y0098613D01*
X0192155Y0098705D01*
X0192242Y0098794D01*
X0192333Y0098880D01*
X0192426Y0098963D01*
X0192522Y0099044D01*
X0192620Y0099121D01*
X0192720Y0099195D01*
X0192823Y0099266D01*
X0192928Y0099333D01*
X0193036Y0099398D01*
X0193145Y0099458D01*
X0193256Y0099516D01*
X0193369Y0099569D01*
X0193483Y0099619D01*
X0193599Y0099666D01*
X0193716Y0099708D01*
X0193835Y0099747D01*
X0193955Y0099783D01*
X0194076Y0099814D01*
X0194198Y0099842D01*
X0194320Y0099865D01*
X0194444Y0099885D01*
X0194568Y0099901D01*
X0194692Y0099913D01*
X0194817Y0099921D01*
X0194942Y0099925D01*
X0195066Y0099925D01*
X0195191Y0099921D01*
X0195316Y0099913D01*
X0195440Y0099901D01*
X0195564Y0099885D01*
X0195688Y0099865D01*
X0195810Y0099842D01*
X0195932Y0099814D01*
X0196053Y0099783D01*
X0196173Y0099747D01*
X0196292Y0099708D01*
X0196409Y0099666D01*
X0196525Y0099619D01*
X0196639Y0099569D01*
X0196752Y0099516D01*
X0196863Y0099458D01*
X0196973Y0099398D01*
X0197080Y0099333D01*
X0197185Y0099266D01*
X0197288Y0099195D01*
X0197388Y0099121D01*
X0197486Y0099044D01*
X0197582Y0098963D01*
X0197675Y0098880D01*
X0197766Y0098794D01*
X0197853Y0098705D01*
X0197938Y0098613D01*
X0198020Y0098519D01*
X0198099Y0098422D01*
X0198174Y0098322D01*
X0198247Y0098221D01*
X0198316Y0098117D01*
X0198382Y0098010D01*
X0198444Y0097902D01*
X0198503Y0097792D01*
X0198559Y0097680D01*
X0198611Y0097566D01*
X0198659Y0097451D01*
X0198704Y0097335D01*
X0198744Y0097216D01*
X0198782Y0097097D01*
X0198815Y0096977D01*
X0198844Y0096855D01*
X0198870Y0096733D01*
X0198892Y0096610D01*
X0198909Y0096486D01*
X0198923Y0096362D01*
X0198933Y0096238D01*
X0198939Y0096113D01*
X0198941Y0095988D01*
X0198939Y0095863D01*
X0198933Y0095738D01*
X0198923Y0095614D01*
X0198909Y0095490D01*
X0198892Y0095366D01*
X0198870Y0095243D01*
X0198844Y0095121D01*
X0198815Y0094999D01*
X0198782Y0094879D01*
X0198744Y0094760D01*
X0198704Y0094641D01*
X0198659Y0094525D01*
X0198611Y0094410D01*
X0198559Y0094296D01*
X0198503Y0094184D01*
X0198444Y0094074D01*
X0198382Y0093966D01*
X0198316Y0093859D01*
X0198247Y0093755D01*
X0198174Y0093654D01*
X0198099Y0093554D01*
X0198020Y0093457D01*
X0197938Y0093363D01*
X0197853Y0093271D01*
X0197766Y0093182D01*
X0197675Y0093096D01*
X0197582Y0093013D01*
X0197486Y0092932D01*
X0197388Y0092855D01*
X0197288Y0092781D01*
X0197185Y0092710D01*
X0197080Y0092643D01*
X0196972Y0092578D01*
X0196863Y0092518D01*
X0196752Y0092460D01*
X0196639Y0092407D01*
X0196525Y0092357D01*
X0196409Y0092310D01*
X0196292Y0092268D01*
X0196173Y0092229D01*
X0196053Y0092193D01*
X0195932Y0092162D01*
X0195810Y0092134D01*
X0195688Y0092111D01*
X0195564Y0092091D01*
X0195440Y0092075D01*
X0195316Y0092063D01*
X0195191Y0092055D01*
X0195066Y0092051D01*
X0194942Y0092051D01*
X0194817Y0092055D01*
X0194692Y0092063D01*
X0194568Y0092075D01*
X0194444Y0092091D01*
X0194320Y0092111D01*
X0194198Y0092134D01*
X0194076Y0092162D01*
X0193955Y0092193D01*
X0193835Y0092229D01*
X0193716Y0092268D01*
X0193599Y0092310D01*
X0193483Y0092357D01*
X0193369Y0092407D01*
X0193256Y0092460D01*
X0193145Y0092518D01*
X0193035Y0092578D01*
X0192928Y0092643D01*
X0192823Y0092710D01*
X0192720Y0092781D01*
X0192620Y0092855D01*
X0192522Y0092932D01*
X0192426Y0093013D01*
X0192333Y0093096D01*
X0192242Y0093182D01*
X0192155Y0093271D01*
X0192070Y0093363D01*
X0191988Y0093457D01*
X0191909Y0093554D01*
X0191834Y0093654D01*
X0191761Y0093755D01*
X0191692Y0093859D01*
X0191626Y0093966D01*
X0191564Y0094074D01*
X0191505Y0094184D01*
X0191449Y0094296D01*
X0191397Y0094410D01*
X0191349Y0094525D01*
X0191304Y0094641D01*
X0191264Y0094760D01*
X0191226Y0094879D01*
X0191193Y0094999D01*
X0191164Y0095121D01*
X0191138Y0095243D01*
X0191116Y0095366D01*
X0191099Y0095490D01*
X0191085Y0095614D01*
X0191075Y0095738D01*
X0191069Y0095863D01*
X0191067Y0095988D01*
X0158390Y0025122D02*
X0158392Y0025247D01*
X0158398Y0025372D01*
X0158408Y0025496D01*
X0158422Y0025620D01*
X0158439Y0025744D01*
X0158461Y0025867D01*
X0158487Y0025989D01*
X0158516Y0026111D01*
X0158549Y0026231D01*
X0158587Y0026350D01*
X0158627Y0026469D01*
X0158672Y0026585D01*
X0158720Y0026700D01*
X0158772Y0026814D01*
X0158828Y0026926D01*
X0158887Y0027036D01*
X0158949Y0027144D01*
X0159015Y0027251D01*
X0159084Y0027355D01*
X0159157Y0027456D01*
X0159232Y0027556D01*
X0159311Y0027653D01*
X0159393Y0027747D01*
X0159478Y0027839D01*
X0159565Y0027928D01*
X0159656Y0028014D01*
X0159749Y0028097D01*
X0159845Y0028178D01*
X0159943Y0028255D01*
X0160043Y0028329D01*
X0160146Y0028400D01*
X0160251Y0028467D01*
X0160359Y0028532D01*
X0160468Y0028592D01*
X0160579Y0028650D01*
X0160692Y0028703D01*
X0160806Y0028753D01*
X0160922Y0028800D01*
X0161039Y0028842D01*
X0161158Y0028881D01*
X0161278Y0028917D01*
X0161399Y0028948D01*
X0161521Y0028976D01*
X0161643Y0028999D01*
X0161767Y0029019D01*
X0161891Y0029035D01*
X0162015Y0029047D01*
X0162140Y0029055D01*
X0162265Y0029059D01*
X0162389Y0029059D01*
X0162514Y0029055D01*
X0162639Y0029047D01*
X0162763Y0029035D01*
X0162887Y0029019D01*
X0163011Y0028999D01*
X0163133Y0028976D01*
X0163255Y0028948D01*
X0163376Y0028917D01*
X0163496Y0028881D01*
X0163615Y0028842D01*
X0163732Y0028800D01*
X0163848Y0028753D01*
X0163962Y0028703D01*
X0164075Y0028650D01*
X0164186Y0028592D01*
X0164296Y0028532D01*
X0164403Y0028467D01*
X0164508Y0028400D01*
X0164611Y0028329D01*
X0164711Y0028255D01*
X0164809Y0028178D01*
X0164905Y0028097D01*
X0164998Y0028014D01*
X0165089Y0027928D01*
X0165176Y0027839D01*
X0165261Y0027747D01*
X0165343Y0027653D01*
X0165422Y0027556D01*
X0165497Y0027456D01*
X0165570Y0027355D01*
X0165639Y0027251D01*
X0165705Y0027144D01*
X0165767Y0027036D01*
X0165826Y0026926D01*
X0165882Y0026814D01*
X0165934Y0026700D01*
X0165982Y0026585D01*
X0166027Y0026469D01*
X0166067Y0026350D01*
X0166105Y0026231D01*
X0166138Y0026111D01*
X0166167Y0025989D01*
X0166193Y0025867D01*
X0166215Y0025744D01*
X0166232Y0025620D01*
X0166246Y0025496D01*
X0166256Y0025372D01*
X0166262Y0025247D01*
X0166264Y0025122D01*
X0166262Y0024997D01*
X0166256Y0024872D01*
X0166246Y0024748D01*
X0166232Y0024624D01*
X0166215Y0024500D01*
X0166193Y0024377D01*
X0166167Y0024255D01*
X0166138Y0024133D01*
X0166105Y0024013D01*
X0166067Y0023894D01*
X0166027Y0023775D01*
X0165982Y0023659D01*
X0165934Y0023544D01*
X0165882Y0023430D01*
X0165826Y0023318D01*
X0165767Y0023208D01*
X0165705Y0023100D01*
X0165639Y0022993D01*
X0165570Y0022889D01*
X0165497Y0022788D01*
X0165422Y0022688D01*
X0165343Y0022591D01*
X0165261Y0022497D01*
X0165176Y0022405D01*
X0165089Y0022316D01*
X0164998Y0022230D01*
X0164905Y0022147D01*
X0164809Y0022066D01*
X0164711Y0021989D01*
X0164611Y0021915D01*
X0164508Y0021844D01*
X0164403Y0021777D01*
X0164295Y0021712D01*
X0164186Y0021652D01*
X0164075Y0021594D01*
X0163962Y0021541D01*
X0163848Y0021491D01*
X0163732Y0021444D01*
X0163615Y0021402D01*
X0163496Y0021363D01*
X0163376Y0021327D01*
X0163255Y0021296D01*
X0163133Y0021268D01*
X0163011Y0021245D01*
X0162887Y0021225D01*
X0162763Y0021209D01*
X0162639Y0021197D01*
X0162514Y0021189D01*
X0162389Y0021185D01*
X0162265Y0021185D01*
X0162140Y0021189D01*
X0162015Y0021197D01*
X0161891Y0021209D01*
X0161767Y0021225D01*
X0161643Y0021245D01*
X0161521Y0021268D01*
X0161399Y0021296D01*
X0161278Y0021327D01*
X0161158Y0021363D01*
X0161039Y0021402D01*
X0160922Y0021444D01*
X0160806Y0021491D01*
X0160692Y0021541D01*
X0160579Y0021594D01*
X0160468Y0021652D01*
X0160358Y0021712D01*
X0160251Y0021777D01*
X0160146Y0021844D01*
X0160043Y0021915D01*
X0159943Y0021989D01*
X0159845Y0022066D01*
X0159749Y0022147D01*
X0159656Y0022230D01*
X0159565Y0022316D01*
X0159478Y0022405D01*
X0159393Y0022497D01*
X0159311Y0022591D01*
X0159232Y0022688D01*
X0159157Y0022788D01*
X0159084Y0022889D01*
X0159015Y0022993D01*
X0158949Y0023100D01*
X0158887Y0023208D01*
X0158828Y0023318D01*
X0158772Y0023430D01*
X0158720Y0023544D01*
X0158672Y0023659D01*
X0158627Y0023775D01*
X0158587Y0023894D01*
X0158549Y0024013D01*
X0158516Y0024133D01*
X0158487Y0024255D01*
X0158461Y0024377D01*
X0158439Y0024500D01*
X0158422Y0024624D01*
X0158408Y0024748D01*
X0158398Y0024872D01*
X0158392Y0024997D01*
X0158390Y0025122D01*
X0111146Y0025122D02*
X0111148Y0025247D01*
X0111154Y0025372D01*
X0111164Y0025496D01*
X0111178Y0025620D01*
X0111195Y0025744D01*
X0111217Y0025867D01*
X0111243Y0025989D01*
X0111272Y0026111D01*
X0111305Y0026231D01*
X0111343Y0026350D01*
X0111383Y0026469D01*
X0111428Y0026585D01*
X0111476Y0026700D01*
X0111528Y0026814D01*
X0111584Y0026926D01*
X0111643Y0027036D01*
X0111705Y0027144D01*
X0111771Y0027251D01*
X0111840Y0027355D01*
X0111913Y0027456D01*
X0111988Y0027556D01*
X0112067Y0027653D01*
X0112149Y0027747D01*
X0112234Y0027839D01*
X0112321Y0027928D01*
X0112412Y0028014D01*
X0112505Y0028097D01*
X0112601Y0028178D01*
X0112699Y0028255D01*
X0112799Y0028329D01*
X0112902Y0028400D01*
X0113007Y0028467D01*
X0113115Y0028532D01*
X0113224Y0028592D01*
X0113335Y0028650D01*
X0113448Y0028703D01*
X0113562Y0028753D01*
X0113678Y0028800D01*
X0113795Y0028842D01*
X0113914Y0028881D01*
X0114034Y0028917D01*
X0114155Y0028948D01*
X0114277Y0028976D01*
X0114399Y0028999D01*
X0114523Y0029019D01*
X0114647Y0029035D01*
X0114771Y0029047D01*
X0114896Y0029055D01*
X0115021Y0029059D01*
X0115145Y0029059D01*
X0115270Y0029055D01*
X0115395Y0029047D01*
X0115519Y0029035D01*
X0115643Y0029019D01*
X0115767Y0028999D01*
X0115889Y0028976D01*
X0116011Y0028948D01*
X0116132Y0028917D01*
X0116252Y0028881D01*
X0116371Y0028842D01*
X0116488Y0028800D01*
X0116604Y0028753D01*
X0116718Y0028703D01*
X0116831Y0028650D01*
X0116942Y0028592D01*
X0117052Y0028532D01*
X0117159Y0028467D01*
X0117264Y0028400D01*
X0117367Y0028329D01*
X0117467Y0028255D01*
X0117565Y0028178D01*
X0117661Y0028097D01*
X0117754Y0028014D01*
X0117845Y0027928D01*
X0117932Y0027839D01*
X0118017Y0027747D01*
X0118099Y0027653D01*
X0118178Y0027556D01*
X0118253Y0027456D01*
X0118326Y0027355D01*
X0118395Y0027251D01*
X0118461Y0027144D01*
X0118523Y0027036D01*
X0118582Y0026926D01*
X0118638Y0026814D01*
X0118690Y0026700D01*
X0118738Y0026585D01*
X0118783Y0026469D01*
X0118823Y0026350D01*
X0118861Y0026231D01*
X0118894Y0026111D01*
X0118923Y0025989D01*
X0118949Y0025867D01*
X0118971Y0025744D01*
X0118988Y0025620D01*
X0119002Y0025496D01*
X0119012Y0025372D01*
X0119018Y0025247D01*
X0119020Y0025122D01*
X0119018Y0024997D01*
X0119012Y0024872D01*
X0119002Y0024748D01*
X0118988Y0024624D01*
X0118971Y0024500D01*
X0118949Y0024377D01*
X0118923Y0024255D01*
X0118894Y0024133D01*
X0118861Y0024013D01*
X0118823Y0023894D01*
X0118783Y0023775D01*
X0118738Y0023659D01*
X0118690Y0023544D01*
X0118638Y0023430D01*
X0118582Y0023318D01*
X0118523Y0023208D01*
X0118461Y0023100D01*
X0118395Y0022993D01*
X0118326Y0022889D01*
X0118253Y0022788D01*
X0118178Y0022688D01*
X0118099Y0022591D01*
X0118017Y0022497D01*
X0117932Y0022405D01*
X0117845Y0022316D01*
X0117754Y0022230D01*
X0117661Y0022147D01*
X0117565Y0022066D01*
X0117467Y0021989D01*
X0117367Y0021915D01*
X0117264Y0021844D01*
X0117159Y0021777D01*
X0117051Y0021712D01*
X0116942Y0021652D01*
X0116831Y0021594D01*
X0116718Y0021541D01*
X0116604Y0021491D01*
X0116488Y0021444D01*
X0116371Y0021402D01*
X0116252Y0021363D01*
X0116132Y0021327D01*
X0116011Y0021296D01*
X0115889Y0021268D01*
X0115767Y0021245D01*
X0115643Y0021225D01*
X0115519Y0021209D01*
X0115395Y0021197D01*
X0115270Y0021189D01*
X0115145Y0021185D01*
X0115021Y0021185D01*
X0114896Y0021189D01*
X0114771Y0021197D01*
X0114647Y0021209D01*
X0114523Y0021225D01*
X0114399Y0021245D01*
X0114277Y0021268D01*
X0114155Y0021296D01*
X0114034Y0021327D01*
X0113914Y0021363D01*
X0113795Y0021402D01*
X0113678Y0021444D01*
X0113562Y0021491D01*
X0113448Y0021541D01*
X0113335Y0021594D01*
X0113224Y0021652D01*
X0113114Y0021712D01*
X0113007Y0021777D01*
X0112902Y0021844D01*
X0112799Y0021915D01*
X0112699Y0021989D01*
X0112601Y0022066D01*
X0112505Y0022147D01*
X0112412Y0022230D01*
X0112321Y0022316D01*
X0112234Y0022405D01*
X0112149Y0022497D01*
X0112067Y0022591D01*
X0111988Y0022688D01*
X0111913Y0022788D01*
X0111840Y0022889D01*
X0111771Y0022993D01*
X0111705Y0023100D01*
X0111643Y0023208D01*
X0111584Y0023318D01*
X0111528Y0023430D01*
X0111476Y0023544D01*
X0111428Y0023659D01*
X0111383Y0023775D01*
X0111343Y0023894D01*
X0111305Y0024013D01*
X0111272Y0024133D01*
X0111243Y0024255D01*
X0111217Y0024377D01*
X0111195Y0024500D01*
X0111178Y0024624D01*
X0111164Y0024748D01*
X0111154Y0024872D01*
X0111148Y0024997D01*
X0111146Y0025122D01*
D12*
X0087524Y0048744D03*
X0095398Y0068429D03*
X0115083Y0097957D03*
X0185949Y0050713D03*
X0225319Y0084177D03*
X0264689Y0080240D03*
X0213508Y0123547D03*
X0264689Y0214098D03*
X0012720Y0214098D03*
X0012720Y0056618D03*
D13*
X0255790Y0192683D02*
X0259022Y0192683D01*
X0259022Y0188269D01*
X0255790Y0188269D01*
X0255790Y0192683D01*
X0255790Y0190166D02*
X0259022Y0190166D01*
X0259022Y0192063D02*
X0255790Y0192063D01*
X0263664Y0192683D02*
X0266896Y0192683D01*
X0266896Y0188269D01*
X0263664Y0188269D01*
X0263664Y0192683D01*
X0263664Y0190166D02*
X0266896Y0190166D01*
X0266896Y0192063D02*
X0263664Y0192063D01*
D14*
X0267299Y0184425D02*
X0267299Y0180779D01*
X0263653Y0180779D01*
X0263653Y0184425D01*
X0267299Y0184425D01*
X0267299Y0182656D02*
X0263653Y0182656D01*
X0259032Y0184425D02*
X0259032Y0180779D01*
X0255386Y0180779D01*
X0255386Y0184425D01*
X0259032Y0184425D01*
X0259032Y0182656D02*
X0255386Y0182656D01*
D15*
X0197366Y0220004D03*
X0187366Y0220004D03*
X0177366Y0220004D03*
X0167366Y0220004D03*
X0153232Y0194413D03*
X0143232Y0194413D03*
X0130240Y0220004D03*
X0120240Y0220004D03*
X0110240Y0220004D03*
X0100240Y0220004D03*
X0090240Y0220004D03*
X0080240Y0220004D03*
X0044807Y0186539D03*
X0034807Y0186539D03*
X0034807Y0174728D03*
X0044807Y0174728D03*
X0131421Y0139295D03*
X0141421Y0139295D03*
D16*
X0203272Y0187524D03*
X0248941Y0187524D03*
M02*
