G75*
%MOIN*%
%OFA0B0*%
%FSLAX25Y25*%
%IPPOS*%
%LPD*%
%AMOC8*
5,1,8,0,0,1.08239X$1,22.5*
%
%ADD10C,0.00000*%
%ADD11R,0.05200X0.00200*%
%ADD12R,0.02400X0.00200*%
%ADD13R,0.00800X0.00200*%
%ADD14R,0.03000X0.00200*%
%ADD15R,0.02200X0.00200*%
%ADD16R,0.01400X0.00200*%
%ADD17R,0.01600X0.00200*%
%ADD18C,0.00800*%
%ADD19R,0.00200X0.00100*%
%ADD20R,0.00700X0.00100*%
%ADD21R,0.01200X0.00100*%
%ADD22R,0.01600X0.00100*%
%ADD23R,0.02000X0.00100*%
%ADD24R,0.02500X0.00100*%
%ADD25R,0.01100X0.00100*%
%ADD26R,0.02900X0.00100*%
%ADD27R,0.00800X0.00100*%
%ADD28R,0.01500X0.00100*%
%ADD29R,0.03200X0.00100*%
%ADD30R,0.02200X0.00100*%
%ADD31R,0.01900X0.00100*%
%ADD32R,0.03700X0.00100*%
%ADD33R,0.03300X0.00100*%
%ADD34R,0.02300X0.00100*%
%ADD35R,0.04100X0.00100*%
%ADD36R,0.04300X0.00100*%
%ADD37R,0.02700X0.00100*%
%ADD38R,0.04400X0.00100*%
%ADD39R,0.05200X0.00100*%
%ADD40R,0.03100X0.00100*%
%ADD41R,0.04700X0.00100*%
%ADD42R,0.05900X0.00100*%
%ADD43R,0.03600X0.00100*%
%ADD44R,0.06700X0.00100*%
%ADD45R,0.04000X0.00100*%
%ADD46R,0.07300X0.00100*%
%ADD47R,0.04900X0.00100*%
%ADD48R,0.07900X0.00100*%
%ADD49R,0.08500X0.00100*%
%ADD50R,0.05000X0.00100*%
%ADD51R,0.09200X0.00100*%
%ADD52R,0.05400X0.00100*%
%ADD53R,0.05100X0.00100*%
%ADD54R,0.09400X0.00100*%
%ADD55R,0.05700X0.00100*%
%ADD56R,0.09300X0.00100*%
%ADD57R,0.06100X0.00100*%
%ADD58R,0.06400X0.00100*%
%ADD59R,0.05300X0.00100*%
%ADD60R,0.06800X0.00100*%
%ADD61R,0.07100X0.00100*%
%ADD62R,0.07500X0.00100*%
%ADD63R,0.05500X0.00100*%
%ADD64R,0.07800X0.00100*%
%ADD65R,0.00400X0.00100*%
%ADD66R,0.08100X0.00100*%
%ADD67R,0.08400X0.00100*%
%ADD68R,0.01300X0.00100*%
%ADD69R,0.08700X0.00100*%
%ADD70R,0.09000X0.00100*%
%ADD71R,0.02100X0.00100*%
%ADD72R,0.09700X0.00100*%
%ADD73R,0.02800X0.00100*%
%ADD74R,0.06300X0.00100*%
%ADD75R,0.09600X0.00100*%
%ADD76R,0.04800X0.00100*%
%ADD77R,0.02400X0.00100*%
%ADD78R,0.06500X0.00100*%
%ADD79R,0.03000X0.00100*%
%ADD80R,0.05800X0.00100*%
%ADD81R,0.03500X0.00100*%
%ADD82R,0.04600X0.00100*%
%ADD83R,0.06900X0.00100*%
%ADD84R,0.07000X0.00100*%
%ADD85R,0.05600X0.00100*%
%ADD86R,0.09500X0.00100*%
%ADD87R,0.07200X0.00100*%
%ADD88R,0.06000X0.00100*%
%ADD89R,0.06600X0.00100*%
%ADD90R,0.07400X0.00100*%
%ADD91R,0.07600X0.00100*%
%ADD92R,0.07700X0.00100*%
%ADD93R,0.08000X0.00100*%
%ADD94R,0.08200X0.00100*%
%ADD95R,0.09100X0.00100*%
%ADD96R,0.08600X0.00100*%
%ADD97R,0.08900X0.00100*%
%ADD98R,0.08800X0.00100*%
%ADD99R,0.08300X0.00100*%
%ADD100R,0.03800X0.00100*%
%ADD101R,0.00300X0.00100*%
%ADD102R,0.00100X0.00100*%
%ADD103R,0.00900X0.00100*%
%ADD104R,0.00500X0.00100*%
%ADD105R,0.09800X0.00100*%
%ADD106R,0.01800X0.00100*%
%ADD107R,0.01000X0.00100*%
%ADD108R,0.01700X0.00100*%
%ADD109R,0.03400X0.00100*%
%ADD110R,0.01400X0.00100*%
%ADD111R,0.04200X0.00100*%
%ADD112R,0.09900X0.00100*%
%ADD113R,0.10000X0.00100*%
%ADD114R,0.10100X0.00100*%
%ADD115R,0.00600X0.00100*%
%ADD116R,0.02600X0.00100*%
%ADD117R,0.03900X0.00100*%
%ADD118R,0.10200X0.00100*%
%ADD119R,0.10300X0.00100*%
%ADD120R,0.10400X0.00100*%
%ADD121R,0.04500X0.00100*%
%ADD122R,0.10500X0.00100*%
%ADD123R,0.10800X0.00100*%
%ADD124R,0.10900X0.00100*%
%ADD125R,0.10700X0.00100*%
%ADD126R,0.06200X0.00100*%
%ADD127R,0.15200X0.00100*%
%ADD128R,0.14000X0.00100*%
%ADD129R,0.11700X0.00100*%
%ADD130R,0.14100X0.00100*%
%ADD131R,0.12900X0.00100*%
%ADD132R,0.16400X0.00100*%
%ADD133R,0.02559X0.05512*%
%ADD134C,0.00500*%
%ADD135C,0.01000*%
%ADD136R,0.05512X0.02559*%
D10*
X0005437Y0040870D02*
X0068429Y0040870D01*
X0068429Y0005437D01*
X0068431Y0005313D01*
X0068437Y0005190D01*
X0068446Y0005066D01*
X0068460Y0004944D01*
X0068477Y0004821D01*
X0068499Y0004699D01*
X0068524Y0004578D01*
X0068553Y0004458D01*
X0068585Y0004339D01*
X0068622Y0004220D01*
X0068662Y0004103D01*
X0068705Y0003988D01*
X0068753Y0003873D01*
X0068804Y0003761D01*
X0068858Y0003650D01*
X0068916Y0003540D01*
X0068977Y0003433D01*
X0069042Y0003327D01*
X0069110Y0003224D01*
X0069181Y0003123D01*
X0069255Y0003024D01*
X0069332Y0002927D01*
X0069413Y0002833D01*
X0069496Y0002742D01*
X0069582Y0002653D01*
X0069671Y0002567D01*
X0069762Y0002484D01*
X0069856Y0002403D01*
X0069953Y0002326D01*
X0070052Y0002252D01*
X0070153Y0002181D01*
X0070256Y0002113D01*
X0070362Y0002048D01*
X0070469Y0001987D01*
X0070579Y0001929D01*
X0070690Y0001875D01*
X0070802Y0001824D01*
X0070917Y0001776D01*
X0071032Y0001733D01*
X0071149Y0001693D01*
X0071268Y0001656D01*
X0071387Y0001624D01*
X0071507Y0001595D01*
X0071628Y0001570D01*
X0071750Y0001548D01*
X0071873Y0001531D01*
X0071995Y0001517D01*
X0072119Y0001508D01*
X0072242Y0001502D01*
X0072366Y0001500D01*
X0194413Y0001500D01*
X0194537Y0001502D01*
X0194660Y0001508D01*
X0194784Y0001517D01*
X0194906Y0001531D01*
X0195029Y0001548D01*
X0195151Y0001570D01*
X0195272Y0001595D01*
X0195392Y0001624D01*
X0195511Y0001656D01*
X0195630Y0001693D01*
X0195747Y0001733D01*
X0195862Y0001776D01*
X0195977Y0001824D01*
X0196089Y0001875D01*
X0196200Y0001929D01*
X0196310Y0001987D01*
X0196417Y0002048D01*
X0196523Y0002113D01*
X0196626Y0002181D01*
X0196727Y0002252D01*
X0196826Y0002326D01*
X0196923Y0002403D01*
X0197017Y0002484D01*
X0197108Y0002567D01*
X0197197Y0002653D01*
X0197283Y0002742D01*
X0197366Y0002833D01*
X0197447Y0002927D01*
X0197524Y0003024D01*
X0197598Y0003123D01*
X0197669Y0003224D01*
X0197737Y0003327D01*
X0197802Y0003433D01*
X0197863Y0003540D01*
X0197921Y0003650D01*
X0197975Y0003761D01*
X0198026Y0003873D01*
X0198074Y0003988D01*
X0198117Y0004103D01*
X0198157Y0004220D01*
X0198194Y0004339D01*
X0198226Y0004458D01*
X0198255Y0004578D01*
X0198280Y0004699D01*
X0198302Y0004821D01*
X0198319Y0004944D01*
X0198333Y0005066D01*
X0198342Y0005190D01*
X0198348Y0005313D01*
X0198350Y0005437D01*
X0198350Y0040870D01*
X0273154Y0040870D01*
X0273278Y0040872D01*
X0273401Y0040878D01*
X0273525Y0040887D01*
X0273647Y0040901D01*
X0273770Y0040918D01*
X0273892Y0040940D01*
X0274013Y0040965D01*
X0274133Y0040994D01*
X0274252Y0041026D01*
X0274371Y0041063D01*
X0274488Y0041103D01*
X0274603Y0041146D01*
X0274718Y0041194D01*
X0274830Y0041245D01*
X0274941Y0041299D01*
X0275051Y0041357D01*
X0275158Y0041418D01*
X0275264Y0041483D01*
X0275367Y0041551D01*
X0275468Y0041622D01*
X0275567Y0041696D01*
X0275664Y0041773D01*
X0275758Y0041854D01*
X0275849Y0041937D01*
X0275938Y0042023D01*
X0276024Y0042112D01*
X0276107Y0042203D01*
X0276188Y0042297D01*
X0276265Y0042394D01*
X0276339Y0042493D01*
X0276410Y0042594D01*
X0276478Y0042697D01*
X0276543Y0042803D01*
X0276604Y0042910D01*
X0276662Y0043020D01*
X0276716Y0043131D01*
X0276767Y0043243D01*
X0276815Y0043358D01*
X0276858Y0043473D01*
X0276898Y0043590D01*
X0276935Y0043709D01*
X0276967Y0043828D01*
X0276996Y0043948D01*
X0277021Y0044069D01*
X0277043Y0044191D01*
X0277060Y0044314D01*
X0277074Y0044436D01*
X0277083Y0044560D01*
X0277089Y0044683D01*
X0277091Y0044807D01*
X0277091Y0223941D01*
X0277089Y0224065D01*
X0277083Y0224188D01*
X0277074Y0224312D01*
X0277060Y0224434D01*
X0277043Y0224557D01*
X0277021Y0224679D01*
X0276996Y0224800D01*
X0276967Y0224920D01*
X0276935Y0225039D01*
X0276898Y0225158D01*
X0276858Y0225275D01*
X0276815Y0225390D01*
X0276767Y0225505D01*
X0276716Y0225617D01*
X0276662Y0225728D01*
X0276604Y0225838D01*
X0276543Y0225945D01*
X0276478Y0226051D01*
X0276410Y0226154D01*
X0276339Y0226255D01*
X0276265Y0226354D01*
X0276188Y0226451D01*
X0276107Y0226545D01*
X0276024Y0226636D01*
X0275938Y0226725D01*
X0275849Y0226811D01*
X0275758Y0226894D01*
X0275664Y0226975D01*
X0275567Y0227052D01*
X0275468Y0227126D01*
X0275367Y0227197D01*
X0275264Y0227265D01*
X0275158Y0227330D01*
X0275051Y0227391D01*
X0274941Y0227449D01*
X0274830Y0227503D01*
X0274718Y0227554D01*
X0274603Y0227602D01*
X0274488Y0227645D01*
X0274371Y0227685D01*
X0274252Y0227722D01*
X0274133Y0227754D01*
X0274013Y0227783D01*
X0273892Y0227808D01*
X0273770Y0227830D01*
X0273647Y0227847D01*
X0273525Y0227861D01*
X0273401Y0227870D01*
X0273278Y0227876D01*
X0273154Y0227878D01*
X0005437Y0227878D01*
X0005313Y0227876D01*
X0005190Y0227870D01*
X0005066Y0227861D01*
X0004944Y0227847D01*
X0004821Y0227830D01*
X0004699Y0227808D01*
X0004578Y0227783D01*
X0004458Y0227754D01*
X0004339Y0227722D01*
X0004220Y0227685D01*
X0004103Y0227645D01*
X0003988Y0227602D01*
X0003873Y0227554D01*
X0003761Y0227503D01*
X0003650Y0227449D01*
X0003540Y0227391D01*
X0003433Y0227330D01*
X0003327Y0227265D01*
X0003224Y0227197D01*
X0003123Y0227126D01*
X0003024Y0227052D01*
X0002927Y0226975D01*
X0002833Y0226894D01*
X0002742Y0226811D01*
X0002653Y0226725D01*
X0002567Y0226636D01*
X0002484Y0226545D01*
X0002403Y0226451D01*
X0002326Y0226354D01*
X0002252Y0226255D01*
X0002181Y0226154D01*
X0002113Y0226051D01*
X0002048Y0225945D01*
X0001987Y0225838D01*
X0001929Y0225728D01*
X0001875Y0225617D01*
X0001824Y0225505D01*
X0001776Y0225390D01*
X0001733Y0225275D01*
X0001693Y0225158D01*
X0001656Y0225039D01*
X0001624Y0224920D01*
X0001595Y0224800D01*
X0001570Y0224679D01*
X0001548Y0224557D01*
X0001531Y0224434D01*
X0001517Y0224312D01*
X0001508Y0224188D01*
X0001502Y0224065D01*
X0001500Y0223941D01*
X0001500Y0044807D01*
X0001502Y0044683D01*
X0001508Y0044560D01*
X0001517Y0044436D01*
X0001531Y0044314D01*
X0001548Y0044191D01*
X0001570Y0044069D01*
X0001595Y0043948D01*
X0001624Y0043828D01*
X0001656Y0043709D01*
X0001693Y0043590D01*
X0001733Y0043473D01*
X0001776Y0043358D01*
X0001824Y0043243D01*
X0001875Y0043131D01*
X0001929Y0043020D01*
X0001987Y0042910D01*
X0002048Y0042803D01*
X0002113Y0042697D01*
X0002181Y0042594D01*
X0002252Y0042493D01*
X0002326Y0042394D01*
X0002403Y0042297D01*
X0002484Y0042203D01*
X0002567Y0042112D01*
X0002653Y0042023D01*
X0002742Y0041937D01*
X0002833Y0041854D01*
X0002927Y0041773D01*
X0003024Y0041696D01*
X0003123Y0041622D01*
X0003224Y0041551D01*
X0003327Y0041483D01*
X0003433Y0041418D01*
X0003540Y0041357D01*
X0003650Y0041299D01*
X0003761Y0041245D01*
X0003873Y0041194D01*
X0003988Y0041146D01*
X0004103Y0041103D01*
X0004220Y0041063D01*
X0004339Y0041026D01*
X0004458Y0040994D01*
X0004578Y0040965D01*
X0004699Y0040940D01*
X0004821Y0040918D01*
X0004944Y0040901D01*
X0005066Y0040887D01*
X0005190Y0040878D01*
X0005313Y0040872D01*
X0005437Y0040870D01*
X0006220Y0056618D02*
X0006222Y0056779D01*
X0006228Y0056939D01*
X0006238Y0057100D01*
X0006252Y0057260D01*
X0006270Y0057420D01*
X0006291Y0057579D01*
X0006317Y0057738D01*
X0006347Y0057896D01*
X0006380Y0058053D01*
X0006418Y0058210D01*
X0006459Y0058365D01*
X0006504Y0058519D01*
X0006553Y0058672D01*
X0006606Y0058824D01*
X0006662Y0058975D01*
X0006723Y0059124D01*
X0006786Y0059272D01*
X0006854Y0059418D01*
X0006925Y0059562D01*
X0006999Y0059704D01*
X0007077Y0059845D01*
X0007159Y0059983D01*
X0007244Y0060120D01*
X0007332Y0060254D01*
X0007424Y0060386D01*
X0007519Y0060516D01*
X0007617Y0060644D01*
X0007718Y0060769D01*
X0007822Y0060891D01*
X0007929Y0061011D01*
X0008039Y0061128D01*
X0008152Y0061243D01*
X0008268Y0061354D01*
X0008387Y0061463D01*
X0008508Y0061568D01*
X0008632Y0061671D01*
X0008758Y0061771D01*
X0008886Y0061867D01*
X0009017Y0061960D01*
X0009151Y0062050D01*
X0009286Y0062137D01*
X0009424Y0062220D01*
X0009563Y0062300D01*
X0009705Y0062376D01*
X0009848Y0062449D01*
X0009993Y0062518D01*
X0010140Y0062584D01*
X0010288Y0062646D01*
X0010438Y0062704D01*
X0010589Y0062759D01*
X0010742Y0062810D01*
X0010896Y0062857D01*
X0011051Y0062900D01*
X0011207Y0062939D01*
X0011363Y0062975D01*
X0011521Y0063006D01*
X0011679Y0063034D01*
X0011838Y0063058D01*
X0011998Y0063078D01*
X0012158Y0063094D01*
X0012318Y0063106D01*
X0012479Y0063114D01*
X0012640Y0063118D01*
X0012800Y0063118D01*
X0012961Y0063114D01*
X0013122Y0063106D01*
X0013282Y0063094D01*
X0013442Y0063078D01*
X0013602Y0063058D01*
X0013761Y0063034D01*
X0013919Y0063006D01*
X0014077Y0062975D01*
X0014233Y0062939D01*
X0014389Y0062900D01*
X0014544Y0062857D01*
X0014698Y0062810D01*
X0014851Y0062759D01*
X0015002Y0062704D01*
X0015152Y0062646D01*
X0015300Y0062584D01*
X0015447Y0062518D01*
X0015592Y0062449D01*
X0015735Y0062376D01*
X0015877Y0062300D01*
X0016016Y0062220D01*
X0016154Y0062137D01*
X0016289Y0062050D01*
X0016423Y0061960D01*
X0016554Y0061867D01*
X0016682Y0061771D01*
X0016808Y0061671D01*
X0016932Y0061568D01*
X0017053Y0061463D01*
X0017172Y0061354D01*
X0017288Y0061243D01*
X0017401Y0061128D01*
X0017511Y0061011D01*
X0017618Y0060891D01*
X0017722Y0060769D01*
X0017823Y0060644D01*
X0017921Y0060516D01*
X0018016Y0060386D01*
X0018108Y0060254D01*
X0018196Y0060120D01*
X0018281Y0059983D01*
X0018363Y0059845D01*
X0018441Y0059704D01*
X0018515Y0059562D01*
X0018586Y0059418D01*
X0018654Y0059272D01*
X0018717Y0059124D01*
X0018778Y0058975D01*
X0018834Y0058824D01*
X0018887Y0058672D01*
X0018936Y0058519D01*
X0018981Y0058365D01*
X0019022Y0058210D01*
X0019060Y0058053D01*
X0019093Y0057896D01*
X0019123Y0057738D01*
X0019149Y0057579D01*
X0019170Y0057420D01*
X0019188Y0057260D01*
X0019202Y0057100D01*
X0019212Y0056939D01*
X0019218Y0056779D01*
X0019220Y0056618D01*
X0019218Y0056457D01*
X0019212Y0056297D01*
X0019202Y0056136D01*
X0019188Y0055976D01*
X0019170Y0055816D01*
X0019149Y0055657D01*
X0019123Y0055498D01*
X0019093Y0055340D01*
X0019060Y0055183D01*
X0019022Y0055026D01*
X0018981Y0054871D01*
X0018936Y0054717D01*
X0018887Y0054564D01*
X0018834Y0054412D01*
X0018778Y0054261D01*
X0018717Y0054112D01*
X0018654Y0053964D01*
X0018586Y0053818D01*
X0018515Y0053674D01*
X0018441Y0053532D01*
X0018363Y0053391D01*
X0018281Y0053253D01*
X0018196Y0053116D01*
X0018108Y0052982D01*
X0018016Y0052850D01*
X0017921Y0052720D01*
X0017823Y0052592D01*
X0017722Y0052467D01*
X0017618Y0052345D01*
X0017511Y0052225D01*
X0017401Y0052108D01*
X0017288Y0051993D01*
X0017172Y0051882D01*
X0017053Y0051773D01*
X0016932Y0051668D01*
X0016808Y0051565D01*
X0016682Y0051465D01*
X0016554Y0051369D01*
X0016423Y0051276D01*
X0016289Y0051186D01*
X0016154Y0051099D01*
X0016016Y0051016D01*
X0015877Y0050936D01*
X0015735Y0050860D01*
X0015592Y0050787D01*
X0015447Y0050718D01*
X0015300Y0050652D01*
X0015152Y0050590D01*
X0015002Y0050532D01*
X0014851Y0050477D01*
X0014698Y0050426D01*
X0014544Y0050379D01*
X0014389Y0050336D01*
X0014233Y0050297D01*
X0014077Y0050261D01*
X0013919Y0050230D01*
X0013761Y0050202D01*
X0013602Y0050178D01*
X0013442Y0050158D01*
X0013282Y0050142D01*
X0013122Y0050130D01*
X0012961Y0050122D01*
X0012800Y0050118D01*
X0012640Y0050118D01*
X0012479Y0050122D01*
X0012318Y0050130D01*
X0012158Y0050142D01*
X0011998Y0050158D01*
X0011838Y0050178D01*
X0011679Y0050202D01*
X0011521Y0050230D01*
X0011363Y0050261D01*
X0011207Y0050297D01*
X0011051Y0050336D01*
X0010896Y0050379D01*
X0010742Y0050426D01*
X0010589Y0050477D01*
X0010438Y0050532D01*
X0010288Y0050590D01*
X0010140Y0050652D01*
X0009993Y0050718D01*
X0009848Y0050787D01*
X0009705Y0050860D01*
X0009563Y0050936D01*
X0009424Y0051016D01*
X0009286Y0051099D01*
X0009151Y0051186D01*
X0009017Y0051276D01*
X0008886Y0051369D01*
X0008758Y0051465D01*
X0008632Y0051565D01*
X0008508Y0051668D01*
X0008387Y0051773D01*
X0008268Y0051882D01*
X0008152Y0051993D01*
X0008039Y0052108D01*
X0007929Y0052225D01*
X0007822Y0052345D01*
X0007718Y0052467D01*
X0007617Y0052592D01*
X0007519Y0052720D01*
X0007424Y0052850D01*
X0007332Y0052982D01*
X0007244Y0053116D01*
X0007159Y0053253D01*
X0007077Y0053391D01*
X0006999Y0053532D01*
X0006925Y0053674D01*
X0006854Y0053818D01*
X0006786Y0053964D01*
X0006723Y0054112D01*
X0006662Y0054261D01*
X0006606Y0054412D01*
X0006553Y0054564D01*
X0006504Y0054717D01*
X0006459Y0054871D01*
X0006418Y0055026D01*
X0006380Y0055183D01*
X0006347Y0055340D01*
X0006317Y0055498D01*
X0006291Y0055657D01*
X0006270Y0055816D01*
X0006252Y0055976D01*
X0006238Y0056136D01*
X0006228Y0056297D01*
X0006222Y0056457D01*
X0006220Y0056618D01*
X0081024Y0048744D02*
X0081026Y0048905D01*
X0081032Y0049065D01*
X0081042Y0049226D01*
X0081056Y0049386D01*
X0081074Y0049546D01*
X0081095Y0049705D01*
X0081121Y0049864D01*
X0081151Y0050022D01*
X0081184Y0050179D01*
X0081222Y0050336D01*
X0081263Y0050491D01*
X0081308Y0050645D01*
X0081357Y0050798D01*
X0081410Y0050950D01*
X0081466Y0051101D01*
X0081527Y0051250D01*
X0081590Y0051398D01*
X0081658Y0051544D01*
X0081729Y0051688D01*
X0081803Y0051830D01*
X0081881Y0051971D01*
X0081963Y0052109D01*
X0082048Y0052246D01*
X0082136Y0052380D01*
X0082228Y0052512D01*
X0082323Y0052642D01*
X0082421Y0052770D01*
X0082522Y0052895D01*
X0082626Y0053017D01*
X0082733Y0053137D01*
X0082843Y0053254D01*
X0082956Y0053369D01*
X0083072Y0053480D01*
X0083191Y0053589D01*
X0083312Y0053694D01*
X0083436Y0053797D01*
X0083562Y0053897D01*
X0083690Y0053993D01*
X0083821Y0054086D01*
X0083955Y0054176D01*
X0084090Y0054263D01*
X0084228Y0054346D01*
X0084367Y0054426D01*
X0084509Y0054502D01*
X0084652Y0054575D01*
X0084797Y0054644D01*
X0084944Y0054710D01*
X0085092Y0054772D01*
X0085242Y0054830D01*
X0085393Y0054885D01*
X0085546Y0054936D01*
X0085700Y0054983D01*
X0085855Y0055026D01*
X0086011Y0055065D01*
X0086167Y0055101D01*
X0086325Y0055132D01*
X0086483Y0055160D01*
X0086642Y0055184D01*
X0086802Y0055204D01*
X0086962Y0055220D01*
X0087122Y0055232D01*
X0087283Y0055240D01*
X0087444Y0055244D01*
X0087604Y0055244D01*
X0087765Y0055240D01*
X0087926Y0055232D01*
X0088086Y0055220D01*
X0088246Y0055204D01*
X0088406Y0055184D01*
X0088565Y0055160D01*
X0088723Y0055132D01*
X0088881Y0055101D01*
X0089037Y0055065D01*
X0089193Y0055026D01*
X0089348Y0054983D01*
X0089502Y0054936D01*
X0089655Y0054885D01*
X0089806Y0054830D01*
X0089956Y0054772D01*
X0090104Y0054710D01*
X0090251Y0054644D01*
X0090396Y0054575D01*
X0090539Y0054502D01*
X0090681Y0054426D01*
X0090820Y0054346D01*
X0090958Y0054263D01*
X0091093Y0054176D01*
X0091227Y0054086D01*
X0091358Y0053993D01*
X0091486Y0053897D01*
X0091612Y0053797D01*
X0091736Y0053694D01*
X0091857Y0053589D01*
X0091976Y0053480D01*
X0092092Y0053369D01*
X0092205Y0053254D01*
X0092315Y0053137D01*
X0092422Y0053017D01*
X0092526Y0052895D01*
X0092627Y0052770D01*
X0092725Y0052642D01*
X0092820Y0052512D01*
X0092912Y0052380D01*
X0093000Y0052246D01*
X0093085Y0052109D01*
X0093167Y0051971D01*
X0093245Y0051830D01*
X0093319Y0051688D01*
X0093390Y0051544D01*
X0093458Y0051398D01*
X0093521Y0051250D01*
X0093582Y0051101D01*
X0093638Y0050950D01*
X0093691Y0050798D01*
X0093740Y0050645D01*
X0093785Y0050491D01*
X0093826Y0050336D01*
X0093864Y0050179D01*
X0093897Y0050022D01*
X0093927Y0049864D01*
X0093953Y0049705D01*
X0093974Y0049546D01*
X0093992Y0049386D01*
X0094006Y0049226D01*
X0094016Y0049065D01*
X0094022Y0048905D01*
X0094024Y0048744D01*
X0094022Y0048583D01*
X0094016Y0048423D01*
X0094006Y0048262D01*
X0093992Y0048102D01*
X0093974Y0047942D01*
X0093953Y0047783D01*
X0093927Y0047624D01*
X0093897Y0047466D01*
X0093864Y0047309D01*
X0093826Y0047152D01*
X0093785Y0046997D01*
X0093740Y0046843D01*
X0093691Y0046690D01*
X0093638Y0046538D01*
X0093582Y0046387D01*
X0093521Y0046238D01*
X0093458Y0046090D01*
X0093390Y0045944D01*
X0093319Y0045800D01*
X0093245Y0045658D01*
X0093167Y0045517D01*
X0093085Y0045379D01*
X0093000Y0045242D01*
X0092912Y0045108D01*
X0092820Y0044976D01*
X0092725Y0044846D01*
X0092627Y0044718D01*
X0092526Y0044593D01*
X0092422Y0044471D01*
X0092315Y0044351D01*
X0092205Y0044234D01*
X0092092Y0044119D01*
X0091976Y0044008D01*
X0091857Y0043899D01*
X0091736Y0043794D01*
X0091612Y0043691D01*
X0091486Y0043591D01*
X0091358Y0043495D01*
X0091227Y0043402D01*
X0091093Y0043312D01*
X0090958Y0043225D01*
X0090820Y0043142D01*
X0090681Y0043062D01*
X0090539Y0042986D01*
X0090396Y0042913D01*
X0090251Y0042844D01*
X0090104Y0042778D01*
X0089956Y0042716D01*
X0089806Y0042658D01*
X0089655Y0042603D01*
X0089502Y0042552D01*
X0089348Y0042505D01*
X0089193Y0042462D01*
X0089037Y0042423D01*
X0088881Y0042387D01*
X0088723Y0042356D01*
X0088565Y0042328D01*
X0088406Y0042304D01*
X0088246Y0042284D01*
X0088086Y0042268D01*
X0087926Y0042256D01*
X0087765Y0042248D01*
X0087604Y0042244D01*
X0087444Y0042244D01*
X0087283Y0042248D01*
X0087122Y0042256D01*
X0086962Y0042268D01*
X0086802Y0042284D01*
X0086642Y0042304D01*
X0086483Y0042328D01*
X0086325Y0042356D01*
X0086167Y0042387D01*
X0086011Y0042423D01*
X0085855Y0042462D01*
X0085700Y0042505D01*
X0085546Y0042552D01*
X0085393Y0042603D01*
X0085242Y0042658D01*
X0085092Y0042716D01*
X0084944Y0042778D01*
X0084797Y0042844D01*
X0084652Y0042913D01*
X0084509Y0042986D01*
X0084367Y0043062D01*
X0084228Y0043142D01*
X0084090Y0043225D01*
X0083955Y0043312D01*
X0083821Y0043402D01*
X0083690Y0043495D01*
X0083562Y0043591D01*
X0083436Y0043691D01*
X0083312Y0043794D01*
X0083191Y0043899D01*
X0083072Y0044008D01*
X0082956Y0044119D01*
X0082843Y0044234D01*
X0082733Y0044351D01*
X0082626Y0044471D01*
X0082522Y0044593D01*
X0082421Y0044718D01*
X0082323Y0044846D01*
X0082228Y0044976D01*
X0082136Y0045108D01*
X0082048Y0045242D01*
X0081963Y0045379D01*
X0081881Y0045517D01*
X0081803Y0045658D01*
X0081729Y0045800D01*
X0081658Y0045944D01*
X0081590Y0046090D01*
X0081527Y0046238D01*
X0081466Y0046387D01*
X0081410Y0046538D01*
X0081357Y0046690D01*
X0081308Y0046843D01*
X0081263Y0046997D01*
X0081222Y0047152D01*
X0081184Y0047309D01*
X0081151Y0047466D01*
X0081121Y0047624D01*
X0081095Y0047783D01*
X0081074Y0047942D01*
X0081056Y0048102D01*
X0081042Y0048262D01*
X0081032Y0048423D01*
X0081026Y0048583D01*
X0081024Y0048744D01*
X0088898Y0068429D02*
X0088900Y0068590D01*
X0088906Y0068750D01*
X0088916Y0068911D01*
X0088930Y0069071D01*
X0088948Y0069231D01*
X0088969Y0069390D01*
X0088995Y0069549D01*
X0089025Y0069707D01*
X0089058Y0069864D01*
X0089096Y0070021D01*
X0089137Y0070176D01*
X0089182Y0070330D01*
X0089231Y0070483D01*
X0089284Y0070635D01*
X0089340Y0070786D01*
X0089401Y0070935D01*
X0089464Y0071083D01*
X0089532Y0071229D01*
X0089603Y0071373D01*
X0089677Y0071515D01*
X0089755Y0071656D01*
X0089837Y0071794D01*
X0089922Y0071931D01*
X0090010Y0072065D01*
X0090102Y0072197D01*
X0090197Y0072327D01*
X0090295Y0072455D01*
X0090396Y0072580D01*
X0090500Y0072702D01*
X0090607Y0072822D01*
X0090717Y0072939D01*
X0090830Y0073054D01*
X0090946Y0073165D01*
X0091065Y0073274D01*
X0091186Y0073379D01*
X0091310Y0073482D01*
X0091436Y0073582D01*
X0091564Y0073678D01*
X0091695Y0073771D01*
X0091829Y0073861D01*
X0091964Y0073948D01*
X0092102Y0074031D01*
X0092241Y0074111D01*
X0092383Y0074187D01*
X0092526Y0074260D01*
X0092671Y0074329D01*
X0092818Y0074395D01*
X0092966Y0074457D01*
X0093116Y0074515D01*
X0093267Y0074570D01*
X0093420Y0074621D01*
X0093574Y0074668D01*
X0093729Y0074711D01*
X0093885Y0074750D01*
X0094041Y0074786D01*
X0094199Y0074817D01*
X0094357Y0074845D01*
X0094516Y0074869D01*
X0094676Y0074889D01*
X0094836Y0074905D01*
X0094996Y0074917D01*
X0095157Y0074925D01*
X0095318Y0074929D01*
X0095478Y0074929D01*
X0095639Y0074925D01*
X0095800Y0074917D01*
X0095960Y0074905D01*
X0096120Y0074889D01*
X0096280Y0074869D01*
X0096439Y0074845D01*
X0096597Y0074817D01*
X0096755Y0074786D01*
X0096911Y0074750D01*
X0097067Y0074711D01*
X0097222Y0074668D01*
X0097376Y0074621D01*
X0097529Y0074570D01*
X0097680Y0074515D01*
X0097830Y0074457D01*
X0097978Y0074395D01*
X0098125Y0074329D01*
X0098270Y0074260D01*
X0098413Y0074187D01*
X0098555Y0074111D01*
X0098694Y0074031D01*
X0098832Y0073948D01*
X0098967Y0073861D01*
X0099101Y0073771D01*
X0099232Y0073678D01*
X0099360Y0073582D01*
X0099486Y0073482D01*
X0099610Y0073379D01*
X0099731Y0073274D01*
X0099850Y0073165D01*
X0099966Y0073054D01*
X0100079Y0072939D01*
X0100189Y0072822D01*
X0100296Y0072702D01*
X0100400Y0072580D01*
X0100501Y0072455D01*
X0100599Y0072327D01*
X0100694Y0072197D01*
X0100786Y0072065D01*
X0100874Y0071931D01*
X0100959Y0071794D01*
X0101041Y0071656D01*
X0101119Y0071515D01*
X0101193Y0071373D01*
X0101264Y0071229D01*
X0101332Y0071083D01*
X0101395Y0070935D01*
X0101456Y0070786D01*
X0101512Y0070635D01*
X0101565Y0070483D01*
X0101614Y0070330D01*
X0101659Y0070176D01*
X0101700Y0070021D01*
X0101738Y0069864D01*
X0101771Y0069707D01*
X0101801Y0069549D01*
X0101827Y0069390D01*
X0101848Y0069231D01*
X0101866Y0069071D01*
X0101880Y0068911D01*
X0101890Y0068750D01*
X0101896Y0068590D01*
X0101898Y0068429D01*
X0101896Y0068268D01*
X0101890Y0068108D01*
X0101880Y0067947D01*
X0101866Y0067787D01*
X0101848Y0067627D01*
X0101827Y0067468D01*
X0101801Y0067309D01*
X0101771Y0067151D01*
X0101738Y0066994D01*
X0101700Y0066837D01*
X0101659Y0066682D01*
X0101614Y0066528D01*
X0101565Y0066375D01*
X0101512Y0066223D01*
X0101456Y0066072D01*
X0101395Y0065923D01*
X0101332Y0065775D01*
X0101264Y0065629D01*
X0101193Y0065485D01*
X0101119Y0065343D01*
X0101041Y0065202D01*
X0100959Y0065064D01*
X0100874Y0064927D01*
X0100786Y0064793D01*
X0100694Y0064661D01*
X0100599Y0064531D01*
X0100501Y0064403D01*
X0100400Y0064278D01*
X0100296Y0064156D01*
X0100189Y0064036D01*
X0100079Y0063919D01*
X0099966Y0063804D01*
X0099850Y0063693D01*
X0099731Y0063584D01*
X0099610Y0063479D01*
X0099486Y0063376D01*
X0099360Y0063276D01*
X0099232Y0063180D01*
X0099101Y0063087D01*
X0098967Y0062997D01*
X0098832Y0062910D01*
X0098694Y0062827D01*
X0098555Y0062747D01*
X0098413Y0062671D01*
X0098270Y0062598D01*
X0098125Y0062529D01*
X0097978Y0062463D01*
X0097830Y0062401D01*
X0097680Y0062343D01*
X0097529Y0062288D01*
X0097376Y0062237D01*
X0097222Y0062190D01*
X0097067Y0062147D01*
X0096911Y0062108D01*
X0096755Y0062072D01*
X0096597Y0062041D01*
X0096439Y0062013D01*
X0096280Y0061989D01*
X0096120Y0061969D01*
X0095960Y0061953D01*
X0095800Y0061941D01*
X0095639Y0061933D01*
X0095478Y0061929D01*
X0095318Y0061929D01*
X0095157Y0061933D01*
X0094996Y0061941D01*
X0094836Y0061953D01*
X0094676Y0061969D01*
X0094516Y0061989D01*
X0094357Y0062013D01*
X0094199Y0062041D01*
X0094041Y0062072D01*
X0093885Y0062108D01*
X0093729Y0062147D01*
X0093574Y0062190D01*
X0093420Y0062237D01*
X0093267Y0062288D01*
X0093116Y0062343D01*
X0092966Y0062401D01*
X0092818Y0062463D01*
X0092671Y0062529D01*
X0092526Y0062598D01*
X0092383Y0062671D01*
X0092241Y0062747D01*
X0092102Y0062827D01*
X0091964Y0062910D01*
X0091829Y0062997D01*
X0091695Y0063087D01*
X0091564Y0063180D01*
X0091436Y0063276D01*
X0091310Y0063376D01*
X0091186Y0063479D01*
X0091065Y0063584D01*
X0090946Y0063693D01*
X0090830Y0063804D01*
X0090717Y0063919D01*
X0090607Y0064036D01*
X0090500Y0064156D01*
X0090396Y0064278D01*
X0090295Y0064403D01*
X0090197Y0064531D01*
X0090102Y0064661D01*
X0090010Y0064793D01*
X0089922Y0064927D01*
X0089837Y0065064D01*
X0089755Y0065202D01*
X0089677Y0065343D01*
X0089603Y0065485D01*
X0089532Y0065629D01*
X0089464Y0065775D01*
X0089401Y0065923D01*
X0089340Y0066072D01*
X0089284Y0066223D01*
X0089231Y0066375D01*
X0089182Y0066528D01*
X0089137Y0066682D01*
X0089096Y0066837D01*
X0089058Y0066994D01*
X0089025Y0067151D01*
X0088995Y0067309D01*
X0088969Y0067468D01*
X0088948Y0067627D01*
X0088930Y0067787D01*
X0088916Y0067947D01*
X0088906Y0068108D01*
X0088900Y0068268D01*
X0088898Y0068429D01*
X0108583Y0097957D02*
X0108585Y0098118D01*
X0108591Y0098278D01*
X0108601Y0098439D01*
X0108615Y0098599D01*
X0108633Y0098759D01*
X0108654Y0098918D01*
X0108680Y0099077D01*
X0108710Y0099235D01*
X0108743Y0099392D01*
X0108781Y0099549D01*
X0108822Y0099704D01*
X0108867Y0099858D01*
X0108916Y0100011D01*
X0108969Y0100163D01*
X0109025Y0100314D01*
X0109086Y0100463D01*
X0109149Y0100611D01*
X0109217Y0100757D01*
X0109288Y0100901D01*
X0109362Y0101043D01*
X0109440Y0101184D01*
X0109522Y0101322D01*
X0109607Y0101459D01*
X0109695Y0101593D01*
X0109787Y0101725D01*
X0109882Y0101855D01*
X0109980Y0101983D01*
X0110081Y0102108D01*
X0110185Y0102230D01*
X0110292Y0102350D01*
X0110402Y0102467D01*
X0110515Y0102582D01*
X0110631Y0102693D01*
X0110750Y0102802D01*
X0110871Y0102907D01*
X0110995Y0103010D01*
X0111121Y0103110D01*
X0111249Y0103206D01*
X0111380Y0103299D01*
X0111514Y0103389D01*
X0111649Y0103476D01*
X0111787Y0103559D01*
X0111926Y0103639D01*
X0112068Y0103715D01*
X0112211Y0103788D01*
X0112356Y0103857D01*
X0112503Y0103923D01*
X0112651Y0103985D01*
X0112801Y0104043D01*
X0112952Y0104098D01*
X0113105Y0104149D01*
X0113259Y0104196D01*
X0113414Y0104239D01*
X0113570Y0104278D01*
X0113726Y0104314D01*
X0113884Y0104345D01*
X0114042Y0104373D01*
X0114201Y0104397D01*
X0114361Y0104417D01*
X0114521Y0104433D01*
X0114681Y0104445D01*
X0114842Y0104453D01*
X0115003Y0104457D01*
X0115163Y0104457D01*
X0115324Y0104453D01*
X0115485Y0104445D01*
X0115645Y0104433D01*
X0115805Y0104417D01*
X0115965Y0104397D01*
X0116124Y0104373D01*
X0116282Y0104345D01*
X0116440Y0104314D01*
X0116596Y0104278D01*
X0116752Y0104239D01*
X0116907Y0104196D01*
X0117061Y0104149D01*
X0117214Y0104098D01*
X0117365Y0104043D01*
X0117515Y0103985D01*
X0117663Y0103923D01*
X0117810Y0103857D01*
X0117955Y0103788D01*
X0118098Y0103715D01*
X0118240Y0103639D01*
X0118379Y0103559D01*
X0118517Y0103476D01*
X0118652Y0103389D01*
X0118786Y0103299D01*
X0118917Y0103206D01*
X0119045Y0103110D01*
X0119171Y0103010D01*
X0119295Y0102907D01*
X0119416Y0102802D01*
X0119535Y0102693D01*
X0119651Y0102582D01*
X0119764Y0102467D01*
X0119874Y0102350D01*
X0119981Y0102230D01*
X0120085Y0102108D01*
X0120186Y0101983D01*
X0120284Y0101855D01*
X0120379Y0101725D01*
X0120471Y0101593D01*
X0120559Y0101459D01*
X0120644Y0101322D01*
X0120726Y0101184D01*
X0120804Y0101043D01*
X0120878Y0100901D01*
X0120949Y0100757D01*
X0121017Y0100611D01*
X0121080Y0100463D01*
X0121141Y0100314D01*
X0121197Y0100163D01*
X0121250Y0100011D01*
X0121299Y0099858D01*
X0121344Y0099704D01*
X0121385Y0099549D01*
X0121423Y0099392D01*
X0121456Y0099235D01*
X0121486Y0099077D01*
X0121512Y0098918D01*
X0121533Y0098759D01*
X0121551Y0098599D01*
X0121565Y0098439D01*
X0121575Y0098278D01*
X0121581Y0098118D01*
X0121583Y0097957D01*
X0121581Y0097796D01*
X0121575Y0097636D01*
X0121565Y0097475D01*
X0121551Y0097315D01*
X0121533Y0097155D01*
X0121512Y0096996D01*
X0121486Y0096837D01*
X0121456Y0096679D01*
X0121423Y0096522D01*
X0121385Y0096365D01*
X0121344Y0096210D01*
X0121299Y0096056D01*
X0121250Y0095903D01*
X0121197Y0095751D01*
X0121141Y0095600D01*
X0121080Y0095451D01*
X0121017Y0095303D01*
X0120949Y0095157D01*
X0120878Y0095013D01*
X0120804Y0094871D01*
X0120726Y0094730D01*
X0120644Y0094592D01*
X0120559Y0094455D01*
X0120471Y0094321D01*
X0120379Y0094189D01*
X0120284Y0094059D01*
X0120186Y0093931D01*
X0120085Y0093806D01*
X0119981Y0093684D01*
X0119874Y0093564D01*
X0119764Y0093447D01*
X0119651Y0093332D01*
X0119535Y0093221D01*
X0119416Y0093112D01*
X0119295Y0093007D01*
X0119171Y0092904D01*
X0119045Y0092804D01*
X0118917Y0092708D01*
X0118786Y0092615D01*
X0118652Y0092525D01*
X0118517Y0092438D01*
X0118379Y0092355D01*
X0118240Y0092275D01*
X0118098Y0092199D01*
X0117955Y0092126D01*
X0117810Y0092057D01*
X0117663Y0091991D01*
X0117515Y0091929D01*
X0117365Y0091871D01*
X0117214Y0091816D01*
X0117061Y0091765D01*
X0116907Y0091718D01*
X0116752Y0091675D01*
X0116596Y0091636D01*
X0116440Y0091600D01*
X0116282Y0091569D01*
X0116124Y0091541D01*
X0115965Y0091517D01*
X0115805Y0091497D01*
X0115645Y0091481D01*
X0115485Y0091469D01*
X0115324Y0091461D01*
X0115163Y0091457D01*
X0115003Y0091457D01*
X0114842Y0091461D01*
X0114681Y0091469D01*
X0114521Y0091481D01*
X0114361Y0091497D01*
X0114201Y0091517D01*
X0114042Y0091541D01*
X0113884Y0091569D01*
X0113726Y0091600D01*
X0113570Y0091636D01*
X0113414Y0091675D01*
X0113259Y0091718D01*
X0113105Y0091765D01*
X0112952Y0091816D01*
X0112801Y0091871D01*
X0112651Y0091929D01*
X0112503Y0091991D01*
X0112356Y0092057D01*
X0112211Y0092126D01*
X0112068Y0092199D01*
X0111926Y0092275D01*
X0111787Y0092355D01*
X0111649Y0092438D01*
X0111514Y0092525D01*
X0111380Y0092615D01*
X0111249Y0092708D01*
X0111121Y0092804D01*
X0110995Y0092904D01*
X0110871Y0093007D01*
X0110750Y0093112D01*
X0110631Y0093221D01*
X0110515Y0093332D01*
X0110402Y0093447D01*
X0110292Y0093564D01*
X0110185Y0093684D01*
X0110081Y0093806D01*
X0109980Y0093931D01*
X0109882Y0094059D01*
X0109787Y0094189D01*
X0109695Y0094321D01*
X0109607Y0094455D01*
X0109522Y0094592D01*
X0109440Y0094730D01*
X0109362Y0094871D01*
X0109288Y0095013D01*
X0109217Y0095157D01*
X0109149Y0095303D01*
X0109086Y0095451D01*
X0109025Y0095600D01*
X0108969Y0095751D01*
X0108916Y0095903D01*
X0108867Y0096056D01*
X0108822Y0096210D01*
X0108781Y0096365D01*
X0108743Y0096522D01*
X0108710Y0096679D01*
X0108680Y0096837D01*
X0108654Y0096996D01*
X0108633Y0097155D01*
X0108615Y0097315D01*
X0108601Y0097475D01*
X0108591Y0097636D01*
X0108585Y0097796D01*
X0108583Y0097957D01*
X0179449Y0050713D02*
X0179451Y0050874D01*
X0179457Y0051034D01*
X0179467Y0051195D01*
X0179481Y0051355D01*
X0179499Y0051515D01*
X0179520Y0051674D01*
X0179546Y0051833D01*
X0179576Y0051991D01*
X0179609Y0052148D01*
X0179647Y0052305D01*
X0179688Y0052460D01*
X0179733Y0052614D01*
X0179782Y0052767D01*
X0179835Y0052919D01*
X0179891Y0053070D01*
X0179952Y0053219D01*
X0180015Y0053367D01*
X0180083Y0053513D01*
X0180154Y0053657D01*
X0180228Y0053799D01*
X0180306Y0053940D01*
X0180388Y0054078D01*
X0180473Y0054215D01*
X0180561Y0054349D01*
X0180653Y0054481D01*
X0180748Y0054611D01*
X0180846Y0054739D01*
X0180947Y0054864D01*
X0181051Y0054986D01*
X0181158Y0055106D01*
X0181268Y0055223D01*
X0181381Y0055338D01*
X0181497Y0055449D01*
X0181616Y0055558D01*
X0181737Y0055663D01*
X0181861Y0055766D01*
X0181987Y0055866D01*
X0182115Y0055962D01*
X0182246Y0056055D01*
X0182380Y0056145D01*
X0182515Y0056232D01*
X0182653Y0056315D01*
X0182792Y0056395D01*
X0182934Y0056471D01*
X0183077Y0056544D01*
X0183222Y0056613D01*
X0183369Y0056679D01*
X0183517Y0056741D01*
X0183667Y0056799D01*
X0183818Y0056854D01*
X0183971Y0056905D01*
X0184125Y0056952D01*
X0184280Y0056995D01*
X0184436Y0057034D01*
X0184592Y0057070D01*
X0184750Y0057101D01*
X0184908Y0057129D01*
X0185067Y0057153D01*
X0185227Y0057173D01*
X0185387Y0057189D01*
X0185547Y0057201D01*
X0185708Y0057209D01*
X0185869Y0057213D01*
X0186029Y0057213D01*
X0186190Y0057209D01*
X0186351Y0057201D01*
X0186511Y0057189D01*
X0186671Y0057173D01*
X0186831Y0057153D01*
X0186990Y0057129D01*
X0187148Y0057101D01*
X0187306Y0057070D01*
X0187462Y0057034D01*
X0187618Y0056995D01*
X0187773Y0056952D01*
X0187927Y0056905D01*
X0188080Y0056854D01*
X0188231Y0056799D01*
X0188381Y0056741D01*
X0188529Y0056679D01*
X0188676Y0056613D01*
X0188821Y0056544D01*
X0188964Y0056471D01*
X0189106Y0056395D01*
X0189245Y0056315D01*
X0189383Y0056232D01*
X0189518Y0056145D01*
X0189652Y0056055D01*
X0189783Y0055962D01*
X0189911Y0055866D01*
X0190037Y0055766D01*
X0190161Y0055663D01*
X0190282Y0055558D01*
X0190401Y0055449D01*
X0190517Y0055338D01*
X0190630Y0055223D01*
X0190740Y0055106D01*
X0190847Y0054986D01*
X0190951Y0054864D01*
X0191052Y0054739D01*
X0191150Y0054611D01*
X0191245Y0054481D01*
X0191337Y0054349D01*
X0191425Y0054215D01*
X0191510Y0054078D01*
X0191592Y0053940D01*
X0191670Y0053799D01*
X0191744Y0053657D01*
X0191815Y0053513D01*
X0191883Y0053367D01*
X0191946Y0053219D01*
X0192007Y0053070D01*
X0192063Y0052919D01*
X0192116Y0052767D01*
X0192165Y0052614D01*
X0192210Y0052460D01*
X0192251Y0052305D01*
X0192289Y0052148D01*
X0192322Y0051991D01*
X0192352Y0051833D01*
X0192378Y0051674D01*
X0192399Y0051515D01*
X0192417Y0051355D01*
X0192431Y0051195D01*
X0192441Y0051034D01*
X0192447Y0050874D01*
X0192449Y0050713D01*
X0192447Y0050552D01*
X0192441Y0050392D01*
X0192431Y0050231D01*
X0192417Y0050071D01*
X0192399Y0049911D01*
X0192378Y0049752D01*
X0192352Y0049593D01*
X0192322Y0049435D01*
X0192289Y0049278D01*
X0192251Y0049121D01*
X0192210Y0048966D01*
X0192165Y0048812D01*
X0192116Y0048659D01*
X0192063Y0048507D01*
X0192007Y0048356D01*
X0191946Y0048207D01*
X0191883Y0048059D01*
X0191815Y0047913D01*
X0191744Y0047769D01*
X0191670Y0047627D01*
X0191592Y0047486D01*
X0191510Y0047348D01*
X0191425Y0047211D01*
X0191337Y0047077D01*
X0191245Y0046945D01*
X0191150Y0046815D01*
X0191052Y0046687D01*
X0190951Y0046562D01*
X0190847Y0046440D01*
X0190740Y0046320D01*
X0190630Y0046203D01*
X0190517Y0046088D01*
X0190401Y0045977D01*
X0190282Y0045868D01*
X0190161Y0045763D01*
X0190037Y0045660D01*
X0189911Y0045560D01*
X0189783Y0045464D01*
X0189652Y0045371D01*
X0189518Y0045281D01*
X0189383Y0045194D01*
X0189245Y0045111D01*
X0189106Y0045031D01*
X0188964Y0044955D01*
X0188821Y0044882D01*
X0188676Y0044813D01*
X0188529Y0044747D01*
X0188381Y0044685D01*
X0188231Y0044627D01*
X0188080Y0044572D01*
X0187927Y0044521D01*
X0187773Y0044474D01*
X0187618Y0044431D01*
X0187462Y0044392D01*
X0187306Y0044356D01*
X0187148Y0044325D01*
X0186990Y0044297D01*
X0186831Y0044273D01*
X0186671Y0044253D01*
X0186511Y0044237D01*
X0186351Y0044225D01*
X0186190Y0044217D01*
X0186029Y0044213D01*
X0185869Y0044213D01*
X0185708Y0044217D01*
X0185547Y0044225D01*
X0185387Y0044237D01*
X0185227Y0044253D01*
X0185067Y0044273D01*
X0184908Y0044297D01*
X0184750Y0044325D01*
X0184592Y0044356D01*
X0184436Y0044392D01*
X0184280Y0044431D01*
X0184125Y0044474D01*
X0183971Y0044521D01*
X0183818Y0044572D01*
X0183667Y0044627D01*
X0183517Y0044685D01*
X0183369Y0044747D01*
X0183222Y0044813D01*
X0183077Y0044882D01*
X0182934Y0044955D01*
X0182792Y0045031D01*
X0182653Y0045111D01*
X0182515Y0045194D01*
X0182380Y0045281D01*
X0182246Y0045371D01*
X0182115Y0045464D01*
X0181987Y0045560D01*
X0181861Y0045660D01*
X0181737Y0045763D01*
X0181616Y0045868D01*
X0181497Y0045977D01*
X0181381Y0046088D01*
X0181268Y0046203D01*
X0181158Y0046320D01*
X0181051Y0046440D01*
X0180947Y0046562D01*
X0180846Y0046687D01*
X0180748Y0046815D01*
X0180653Y0046945D01*
X0180561Y0047077D01*
X0180473Y0047211D01*
X0180388Y0047348D01*
X0180306Y0047486D01*
X0180228Y0047627D01*
X0180154Y0047769D01*
X0180083Y0047913D01*
X0180015Y0048059D01*
X0179952Y0048207D01*
X0179891Y0048356D01*
X0179835Y0048507D01*
X0179782Y0048659D01*
X0179733Y0048812D01*
X0179688Y0048966D01*
X0179647Y0049121D01*
X0179609Y0049278D01*
X0179576Y0049435D01*
X0179546Y0049593D01*
X0179520Y0049752D01*
X0179499Y0049911D01*
X0179481Y0050071D01*
X0179467Y0050231D01*
X0179457Y0050392D01*
X0179451Y0050552D01*
X0179449Y0050713D01*
X0218819Y0084177D02*
X0218821Y0084338D01*
X0218827Y0084498D01*
X0218837Y0084659D01*
X0218851Y0084819D01*
X0218869Y0084979D01*
X0218890Y0085138D01*
X0218916Y0085297D01*
X0218946Y0085455D01*
X0218979Y0085612D01*
X0219017Y0085769D01*
X0219058Y0085924D01*
X0219103Y0086078D01*
X0219152Y0086231D01*
X0219205Y0086383D01*
X0219261Y0086534D01*
X0219322Y0086683D01*
X0219385Y0086831D01*
X0219453Y0086977D01*
X0219524Y0087121D01*
X0219598Y0087263D01*
X0219676Y0087404D01*
X0219758Y0087542D01*
X0219843Y0087679D01*
X0219931Y0087813D01*
X0220023Y0087945D01*
X0220118Y0088075D01*
X0220216Y0088203D01*
X0220317Y0088328D01*
X0220421Y0088450D01*
X0220528Y0088570D01*
X0220638Y0088687D01*
X0220751Y0088802D01*
X0220867Y0088913D01*
X0220986Y0089022D01*
X0221107Y0089127D01*
X0221231Y0089230D01*
X0221357Y0089330D01*
X0221485Y0089426D01*
X0221616Y0089519D01*
X0221750Y0089609D01*
X0221885Y0089696D01*
X0222023Y0089779D01*
X0222162Y0089859D01*
X0222304Y0089935D01*
X0222447Y0090008D01*
X0222592Y0090077D01*
X0222739Y0090143D01*
X0222887Y0090205D01*
X0223037Y0090263D01*
X0223188Y0090318D01*
X0223341Y0090369D01*
X0223495Y0090416D01*
X0223650Y0090459D01*
X0223806Y0090498D01*
X0223962Y0090534D01*
X0224120Y0090565D01*
X0224278Y0090593D01*
X0224437Y0090617D01*
X0224597Y0090637D01*
X0224757Y0090653D01*
X0224917Y0090665D01*
X0225078Y0090673D01*
X0225239Y0090677D01*
X0225399Y0090677D01*
X0225560Y0090673D01*
X0225721Y0090665D01*
X0225881Y0090653D01*
X0226041Y0090637D01*
X0226201Y0090617D01*
X0226360Y0090593D01*
X0226518Y0090565D01*
X0226676Y0090534D01*
X0226832Y0090498D01*
X0226988Y0090459D01*
X0227143Y0090416D01*
X0227297Y0090369D01*
X0227450Y0090318D01*
X0227601Y0090263D01*
X0227751Y0090205D01*
X0227899Y0090143D01*
X0228046Y0090077D01*
X0228191Y0090008D01*
X0228334Y0089935D01*
X0228476Y0089859D01*
X0228615Y0089779D01*
X0228753Y0089696D01*
X0228888Y0089609D01*
X0229022Y0089519D01*
X0229153Y0089426D01*
X0229281Y0089330D01*
X0229407Y0089230D01*
X0229531Y0089127D01*
X0229652Y0089022D01*
X0229771Y0088913D01*
X0229887Y0088802D01*
X0230000Y0088687D01*
X0230110Y0088570D01*
X0230217Y0088450D01*
X0230321Y0088328D01*
X0230422Y0088203D01*
X0230520Y0088075D01*
X0230615Y0087945D01*
X0230707Y0087813D01*
X0230795Y0087679D01*
X0230880Y0087542D01*
X0230962Y0087404D01*
X0231040Y0087263D01*
X0231114Y0087121D01*
X0231185Y0086977D01*
X0231253Y0086831D01*
X0231316Y0086683D01*
X0231377Y0086534D01*
X0231433Y0086383D01*
X0231486Y0086231D01*
X0231535Y0086078D01*
X0231580Y0085924D01*
X0231621Y0085769D01*
X0231659Y0085612D01*
X0231692Y0085455D01*
X0231722Y0085297D01*
X0231748Y0085138D01*
X0231769Y0084979D01*
X0231787Y0084819D01*
X0231801Y0084659D01*
X0231811Y0084498D01*
X0231817Y0084338D01*
X0231819Y0084177D01*
X0231817Y0084016D01*
X0231811Y0083856D01*
X0231801Y0083695D01*
X0231787Y0083535D01*
X0231769Y0083375D01*
X0231748Y0083216D01*
X0231722Y0083057D01*
X0231692Y0082899D01*
X0231659Y0082742D01*
X0231621Y0082585D01*
X0231580Y0082430D01*
X0231535Y0082276D01*
X0231486Y0082123D01*
X0231433Y0081971D01*
X0231377Y0081820D01*
X0231316Y0081671D01*
X0231253Y0081523D01*
X0231185Y0081377D01*
X0231114Y0081233D01*
X0231040Y0081091D01*
X0230962Y0080950D01*
X0230880Y0080812D01*
X0230795Y0080675D01*
X0230707Y0080541D01*
X0230615Y0080409D01*
X0230520Y0080279D01*
X0230422Y0080151D01*
X0230321Y0080026D01*
X0230217Y0079904D01*
X0230110Y0079784D01*
X0230000Y0079667D01*
X0229887Y0079552D01*
X0229771Y0079441D01*
X0229652Y0079332D01*
X0229531Y0079227D01*
X0229407Y0079124D01*
X0229281Y0079024D01*
X0229153Y0078928D01*
X0229022Y0078835D01*
X0228888Y0078745D01*
X0228753Y0078658D01*
X0228615Y0078575D01*
X0228476Y0078495D01*
X0228334Y0078419D01*
X0228191Y0078346D01*
X0228046Y0078277D01*
X0227899Y0078211D01*
X0227751Y0078149D01*
X0227601Y0078091D01*
X0227450Y0078036D01*
X0227297Y0077985D01*
X0227143Y0077938D01*
X0226988Y0077895D01*
X0226832Y0077856D01*
X0226676Y0077820D01*
X0226518Y0077789D01*
X0226360Y0077761D01*
X0226201Y0077737D01*
X0226041Y0077717D01*
X0225881Y0077701D01*
X0225721Y0077689D01*
X0225560Y0077681D01*
X0225399Y0077677D01*
X0225239Y0077677D01*
X0225078Y0077681D01*
X0224917Y0077689D01*
X0224757Y0077701D01*
X0224597Y0077717D01*
X0224437Y0077737D01*
X0224278Y0077761D01*
X0224120Y0077789D01*
X0223962Y0077820D01*
X0223806Y0077856D01*
X0223650Y0077895D01*
X0223495Y0077938D01*
X0223341Y0077985D01*
X0223188Y0078036D01*
X0223037Y0078091D01*
X0222887Y0078149D01*
X0222739Y0078211D01*
X0222592Y0078277D01*
X0222447Y0078346D01*
X0222304Y0078419D01*
X0222162Y0078495D01*
X0222023Y0078575D01*
X0221885Y0078658D01*
X0221750Y0078745D01*
X0221616Y0078835D01*
X0221485Y0078928D01*
X0221357Y0079024D01*
X0221231Y0079124D01*
X0221107Y0079227D01*
X0220986Y0079332D01*
X0220867Y0079441D01*
X0220751Y0079552D01*
X0220638Y0079667D01*
X0220528Y0079784D01*
X0220421Y0079904D01*
X0220317Y0080026D01*
X0220216Y0080151D01*
X0220118Y0080279D01*
X0220023Y0080409D01*
X0219931Y0080541D01*
X0219843Y0080675D01*
X0219758Y0080812D01*
X0219676Y0080950D01*
X0219598Y0081091D01*
X0219524Y0081233D01*
X0219453Y0081377D01*
X0219385Y0081523D01*
X0219322Y0081671D01*
X0219261Y0081820D01*
X0219205Y0081971D01*
X0219152Y0082123D01*
X0219103Y0082276D01*
X0219058Y0082430D01*
X0219017Y0082585D01*
X0218979Y0082742D01*
X0218946Y0082899D01*
X0218916Y0083057D01*
X0218890Y0083216D01*
X0218869Y0083375D01*
X0218851Y0083535D01*
X0218837Y0083695D01*
X0218827Y0083856D01*
X0218821Y0084016D01*
X0218819Y0084177D01*
X0207008Y0123547D02*
X0207010Y0123708D01*
X0207016Y0123868D01*
X0207026Y0124029D01*
X0207040Y0124189D01*
X0207058Y0124349D01*
X0207079Y0124508D01*
X0207105Y0124667D01*
X0207135Y0124825D01*
X0207168Y0124982D01*
X0207206Y0125139D01*
X0207247Y0125294D01*
X0207292Y0125448D01*
X0207341Y0125601D01*
X0207394Y0125753D01*
X0207450Y0125904D01*
X0207511Y0126053D01*
X0207574Y0126201D01*
X0207642Y0126347D01*
X0207713Y0126491D01*
X0207787Y0126633D01*
X0207865Y0126774D01*
X0207947Y0126912D01*
X0208032Y0127049D01*
X0208120Y0127183D01*
X0208212Y0127315D01*
X0208307Y0127445D01*
X0208405Y0127573D01*
X0208506Y0127698D01*
X0208610Y0127820D01*
X0208717Y0127940D01*
X0208827Y0128057D01*
X0208940Y0128172D01*
X0209056Y0128283D01*
X0209175Y0128392D01*
X0209296Y0128497D01*
X0209420Y0128600D01*
X0209546Y0128700D01*
X0209674Y0128796D01*
X0209805Y0128889D01*
X0209939Y0128979D01*
X0210074Y0129066D01*
X0210212Y0129149D01*
X0210351Y0129229D01*
X0210493Y0129305D01*
X0210636Y0129378D01*
X0210781Y0129447D01*
X0210928Y0129513D01*
X0211076Y0129575D01*
X0211226Y0129633D01*
X0211377Y0129688D01*
X0211530Y0129739D01*
X0211684Y0129786D01*
X0211839Y0129829D01*
X0211995Y0129868D01*
X0212151Y0129904D01*
X0212309Y0129935D01*
X0212467Y0129963D01*
X0212626Y0129987D01*
X0212786Y0130007D01*
X0212946Y0130023D01*
X0213106Y0130035D01*
X0213267Y0130043D01*
X0213428Y0130047D01*
X0213588Y0130047D01*
X0213749Y0130043D01*
X0213910Y0130035D01*
X0214070Y0130023D01*
X0214230Y0130007D01*
X0214390Y0129987D01*
X0214549Y0129963D01*
X0214707Y0129935D01*
X0214865Y0129904D01*
X0215021Y0129868D01*
X0215177Y0129829D01*
X0215332Y0129786D01*
X0215486Y0129739D01*
X0215639Y0129688D01*
X0215790Y0129633D01*
X0215940Y0129575D01*
X0216088Y0129513D01*
X0216235Y0129447D01*
X0216380Y0129378D01*
X0216523Y0129305D01*
X0216665Y0129229D01*
X0216804Y0129149D01*
X0216942Y0129066D01*
X0217077Y0128979D01*
X0217211Y0128889D01*
X0217342Y0128796D01*
X0217470Y0128700D01*
X0217596Y0128600D01*
X0217720Y0128497D01*
X0217841Y0128392D01*
X0217960Y0128283D01*
X0218076Y0128172D01*
X0218189Y0128057D01*
X0218299Y0127940D01*
X0218406Y0127820D01*
X0218510Y0127698D01*
X0218611Y0127573D01*
X0218709Y0127445D01*
X0218804Y0127315D01*
X0218896Y0127183D01*
X0218984Y0127049D01*
X0219069Y0126912D01*
X0219151Y0126774D01*
X0219229Y0126633D01*
X0219303Y0126491D01*
X0219374Y0126347D01*
X0219442Y0126201D01*
X0219505Y0126053D01*
X0219566Y0125904D01*
X0219622Y0125753D01*
X0219675Y0125601D01*
X0219724Y0125448D01*
X0219769Y0125294D01*
X0219810Y0125139D01*
X0219848Y0124982D01*
X0219881Y0124825D01*
X0219911Y0124667D01*
X0219937Y0124508D01*
X0219958Y0124349D01*
X0219976Y0124189D01*
X0219990Y0124029D01*
X0220000Y0123868D01*
X0220006Y0123708D01*
X0220008Y0123547D01*
X0220006Y0123386D01*
X0220000Y0123226D01*
X0219990Y0123065D01*
X0219976Y0122905D01*
X0219958Y0122745D01*
X0219937Y0122586D01*
X0219911Y0122427D01*
X0219881Y0122269D01*
X0219848Y0122112D01*
X0219810Y0121955D01*
X0219769Y0121800D01*
X0219724Y0121646D01*
X0219675Y0121493D01*
X0219622Y0121341D01*
X0219566Y0121190D01*
X0219505Y0121041D01*
X0219442Y0120893D01*
X0219374Y0120747D01*
X0219303Y0120603D01*
X0219229Y0120461D01*
X0219151Y0120320D01*
X0219069Y0120182D01*
X0218984Y0120045D01*
X0218896Y0119911D01*
X0218804Y0119779D01*
X0218709Y0119649D01*
X0218611Y0119521D01*
X0218510Y0119396D01*
X0218406Y0119274D01*
X0218299Y0119154D01*
X0218189Y0119037D01*
X0218076Y0118922D01*
X0217960Y0118811D01*
X0217841Y0118702D01*
X0217720Y0118597D01*
X0217596Y0118494D01*
X0217470Y0118394D01*
X0217342Y0118298D01*
X0217211Y0118205D01*
X0217077Y0118115D01*
X0216942Y0118028D01*
X0216804Y0117945D01*
X0216665Y0117865D01*
X0216523Y0117789D01*
X0216380Y0117716D01*
X0216235Y0117647D01*
X0216088Y0117581D01*
X0215940Y0117519D01*
X0215790Y0117461D01*
X0215639Y0117406D01*
X0215486Y0117355D01*
X0215332Y0117308D01*
X0215177Y0117265D01*
X0215021Y0117226D01*
X0214865Y0117190D01*
X0214707Y0117159D01*
X0214549Y0117131D01*
X0214390Y0117107D01*
X0214230Y0117087D01*
X0214070Y0117071D01*
X0213910Y0117059D01*
X0213749Y0117051D01*
X0213588Y0117047D01*
X0213428Y0117047D01*
X0213267Y0117051D01*
X0213106Y0117059D01*
X0212946Y0117071D01*
X0212786Y0117087D01*
X0212626Y0117107D01*
X0212467Y0117131D01*
X0212309Y0117159D01*
X0212151Y0117190D01*
X0211995Y0117226D01*
X0211839Y0117265D01*
X0211684Y0117308D01*
X0211530Y0117355D01*
X0211377Y0117406D01*
X0211226Y0117461D01*
X0211076Y0117519D01*
X0210928Y0117581D01*
X0210781Y0117647D01*
X0210636Y0117716D01*
X0210493Y0117789D01*
X0210351Y0117865D01*
X0210212Y0117945D01*
X0210074Y0118028D01*
X0209939Y0118115D01*
X0209805Y0118205D01*
X0209674Y0118298D01*
X0209546Y0118394D01*
X0209420Y0118494D01*
X0209296Y0118597D01*
X0209175Y0118702D01*
X0209056Y0118811D01*
X0208940Y0118922D01*
X0208827Y0119037D01*
X0208717Y0119154D01*
X0208610Y0119274D01*
X0208506Y0119396D01*
X0208405Y0119521D01*
X0208307Y0119649D01*
X0208212Y0119779D01*
X0208120Y0119911D01*
X0208032Y0120045D01*
X0207947Y0120182D01*
X0207865Y0120320D01*
X0207787Y0120461D01*
X0207713Y0120603D01*
X0207642Y0120747D01*
X0207574Y0120893D01*
X0207511Y0121041D01*
X0207450Y0121190D01*
X0207394Y0121341D01*
X0207341Y0121493D01*
X0207292Y0121646D01*
X0207247Y0121800D01*
X0207206Y0121955D01*
X0207168Y0122112D01*
X0207135Y0122269D01*
X0207105Y0122427D01*
X0207079Y0122586D01*
X0207058Y0122745D01*
X0207040Y0122905D01*
X0207026Y0123065D01*
X0207016Y0123226D01*
X0207010Y0123386D01*
X0207008Y0123547D01*
X0258189Y0080240D02*
X0258191Y0080401D01*
X0258197Y0080561D01*
X0258207Y0080722D01*
X0258221Y0080882D01*
X0258239Y0081042D01*
X0258260Y0081201D01*
X0258286Y0081360D01*
X0258316Y0081518D01*
X0258349Y0081675D01*
X0258387Y0081832D01*
X0258428Y0081987D01*
X0258473Y0082141D01*
X0258522Y0082294D01*
X0258575Y0082446D01*
X0258631Y0082597D01*
X0258692Y0082746D01*
X0258755Y0082894D01*
X0258823Y0083040D01*
X0258894Y0083184D01*
X0258968Y0083326D01*
X0259046Y0083467D01*
X0259128Y0083605D01*
X0259213Y0083742D01*
X0259301Y0083876D01*
X0259393Y0084008D01*
X0259488Y0084138D01*
X0259586Y0084266D01*
X0259687Y0084391D01*
X0259791Y0084513D01*
X0259898Y0084633D01*
X0260008Y0084750D01*
X0260121Y0084865D01*
X0260237Y0084976D01*
X0260356Y0085085D01*
X0260477Y0085190D01*
X0260601Y0085293D01*
X0260727Y0085393D01*
X0260855Y0085489D01*
X0260986Y0085582D01*
X0261120Y0085672D01*
X0261255Y0085759D01*
X0261393Y0085842D01*
X0261532Y0085922D01*
X0261674Y0085998D01*
X0261817Y0086071D01*
X0261962Y0086140D01*
X0262109Y0086206D01*
X0262257Y0086268D01*
X0262407Y0086326D01*
X0262558Y0086381D01*
X0262711Y0086432D01*
X0262865Y0086479D01*
X0263020Y0086522D01*
X0263176Y0086561D01*
X0263332Y0086597D01*
X0263490Y0086628D01*
X0263648Y0086656D01*
X0263807Y0086680D01*
X0263967Y0086700D01*
X0264127Y0086716D01*
X0264287Y0086728D01*
X0264448Y0086736D01*
X0264609Y0086740D01*
X0264769Y0086740D01*
X0264930Y0086736D01*
X0265091Y0086728D01*
X0265251Y0086716D01*
X0265411Y0086700D01*
X0265571Y0086680D01*
X0265730Y0086656D01*
X0265888Y0086628D01*
X0266046Y0086597D01*
X0266202Y0086561D01*
X0266358Y0086522D01*
X0266513Y0086479D01*
X0266667Y0086432D01*
X0266820Y0086381D01*
X0266971Y0086326D01*
X0267121Y0086268D01*
X0267269Y0086206D01*
X0267416Y0086140D01*
X0267561Y0086071D01*
X0267704Y0085998D01*
X0267846Y0085922D01*
X0267985Y0085842D01*
X0268123Y0085759D01*
X0268258Y0085672D01*
X0268392Y0085582D01*
X0268523Y0085489D01*
X0268651Y0085393D01*
X0268777Y0085293D01*
X0268901Y0085190D01*
X0269022Y0085085D01*
X0269141Y0084976D01*
X0269257Y0084865D01*
X0269370Y0084750D01*
X0269480Y0084633D01*
X0269587Y0084513D01*
X0269691Y0084391D01*
X0269792Y0084266D01*
X0269890Y0084138D01*
X0269985Y0084008D01*
X0270077Y0083876D01*
X0270165Y0083742D01*
X0270250Y0083605D01*
X0270332Y0083467D01*
X0270410Y0083326D01*
X0270484Y0083184D01*
X0270555Y0083040D01*
X0270623Y0082894D01*
X0270686Y0082746D01*
X0270747Y0082597D01*
X0270803Y0082446D01*
X0270856Y0082294D01*
X0270905Y0082141D01*
X0270950Y0081987D01*
X0270991Y0081832D01*
X0271029Y0081675D01*
X0271062Y0081518D01*
X0271092Y0081360D01*
X0271118Y0081201D01*
X0271139Y0081042D01*
X0271157Y0080882D01*
X0271171Y0080722D01*
X0271181Y0080561D01*
X0271187Y0080401D01*
X0271189Y0080240D01*
X0271187Y0080079D01*
X0271181Y0079919D01*
X0271171Y0079758D01*
X0271157Y0079598D01*
X0271139Y0079438D01*
X0271118Y0079279D01*
X0271092Y0079120D01*
X0271062Y0078962D01*
X0271029Y0078805D01*
X0270991Y0078648D01*
X0270950Y0078493D01*
X0270905Y0078339D01*
X0270856Y0078186D01*
X0270803Y0078034D01*
X0270747Y0077883D01*
X0270686Y0077734D01*
X0270623Y0077586D01*
X0270555Y0077440D01*
X0270484Y0077296D01*
X0270410Y0077154D01*
X0270332Y0077013D01*
X0270250Y0076875D01*
X0270165Y0076738D01*
X0270077Y0076604D01*
X0269985Y0076472D01*
X0269890Y0076342D01*
X0269792Y0076214D01*
X0269691Y0076089D01*
X0269587Y0075967D01*
X0269480Y0075847D01*
X0269370Y0075730D01*
X0269257Y0075615D01*
X0269141Y0075504D01*
X0269022Y0075395D01*
X0268901Y0075290D01*
X0268777Y0075187D01*
X0268651Y0075087D01*
X0268523Y0074991D01*
X0268392Y0074898D01*
X0268258Y0074808D01*
X0268123Y0074721D01*
X0267985Y0074638D01*
X0267846Y0074558D01*
X0267704Y0074482D01*
X0267561Y0074409D01*
X0267416Y0074340D01*
X0267269Y0074274D01*
X0267121Y0074212D01*
X0266971Y0074154D01*
X0266820Y0074099D01*
X0266667Y0074048D01*
X0266513Y0074001D01*
X0266358Y0073958D01*
X0266202Y0073919D01*
X0266046Y0073883D01*
X0265888Y0073852D01*
X0265730Y0073824D01*
X0265571Y0073800D01*
X0265411Y0073780D01*
X0265251Y0073764D01*
X0265091Y0073752D01*
X0264930Y0073744D01*
X0264769Y0073740D01*
X0264609Y0073740D01*
X0264448Y0073744D01*
X0264287Y0073752D01*
X0264127Y0073764D01*
X0263967Y0073780D01*
X0263807Y0073800D01*
X0263648Y0073824D01*
X0263490Y0073852D01*
X0263332Y0073883D01*
X0263176Y0073919D01*
X0263020Y0073958D01*
X0262865Y0074001D01*
X0262711Y0074048D01*
X0262558Y0074099D01*
X0262407Y0074154D01*
X0262257Y0074212D01*
X0262109Y0074274D01*
X0261962Y0074340D01*
X0261817Y0074409D01*
X0261674Y0074482D01*
X0261532Y0074558D01*
X0261393Y0074638D01*
X0261255Y0074721D01*
X0261120Y0074808D01*
X0260986Y0074898D01*
X0260855Y0074991D01*
X0260727Y0075087D01*
X0260601Y0075187D01*
X0260477Y0075290D01*
X0260356Y0075395D01*
X0260237Y0075504D01*
X0260121Y0075615D01*
X0260008Y0075730D01*
X0259898Y0075847D01*
X0259791Y0075967D01*
X0259687Y0076089D01*
X0259586Y0076214D01*
X0259488Y0076342D01*
X0259393Y0076472D01*
X0259301Y0076604D01*
X0259213Y0076738D01*
X0259128Y0076875D01*
X0259046Y0077013D01*
X0258968Y0077154D01*
X0258894Y0077296D01*
X0258823Y0077440D01*
X0258755Y0077586D01*
X0258692Y0077734D01*
X0258631Y0077883D01*
X0258575Y0078034D01*
X0258522Y0078186D01*
X0258473Y0078339D01*
X0258428Y0078493D01*
X0258387Y0078648D01*
X0258349Y0078805D01*
X0258316Y0078962D01*
X0258286Y0079120D01*
X0258260Y0079279D01*
X0258239Y0079438D01*
X0258221Y0079598D01*
X0258207Y0079758D01*
X0258197Y0079919D01*
X0258191Y0080079D01*
X0258189Y0080240D01*
X0258189Y0214098D02*
X0258191Y0214259D01*
X0258197Y0214419D01*
X0258207Y0214580D01*
X0258221Y0214740D01*
X0258239Y0214900D01*
X0258260Y0215059D01*
X0258286Y0215218D01*
X0258316Y0215376D01*
X0258349Y0215533D01*
X0258387Y0215690D01*
X0258428Y0215845D01*
X0258473Y0215999D01*
X0258522Y0216152D01*
X0258575Y0216304D01*
X0258631Y0216455D01*
X0258692Y0216604D01*
X0258755Y0216752D01*
X0258823Y0216898D01*
X0258894Y0217042D01*
X0258968Y0217184D01*
X0259046Y0217325D01*
X0259128Y0217463D01*
X0259213Y0217600D01*
X0259301Y0217734D01*
X0259393Y0217866D01*
X0259488Y0217996D01*
X0259586Y0218124D01*
X0259687Y0218249D01*
X0259791Y0218371D01*
X0259898Y0218491D01*
X0260008Y0218608D01*
X0260121Y0218723D01*
X0260237Y0218834D01*
X0260356Y0218943D01*
X0260477Y0219048D01*
X0260601Y0219151D01*
X0260727Y0219251D01*
X0260855Y0219347D01*
X0260986Y0219440D01*
X0261120Y0219530D01*
X0261255Y0219617D01*
X0261393Y0219700D01*
X0261532Y0219780D01*
X0261674Y0219856D01*
X0261817Y0219929D01*
X0261962Y0219998D01*
X0262109Y0220064D01*
X0262257Y0220126D01*
X0262407Y0220184D01*
X0262558Y0220239D01*
X0262711Y0220290D01*
X0262865Y0220337D01*
X0263020Y0220380D01*
X0263176Y0220419D01*
X0263332Y0220455D01*
X0263490Y0220486D01*
X0263648Y0220514D01*
X0263807Y0220538D01*
X0263967Y0220558D01*
X0264127Y0220574D01*
X0264287Y0220586D01*
X0264448Y0220594D01*
X0264609Y0220598D01*
X0264769Y0220598D01*
X0264930Y0220594D01*
X0265091Y0220586D01*
X0265251Y0220574D01*
X0265411Y0220558D01*
X0265571Y0220538D01*
X0265730Y0220514D01*
X0265888Y0220486D01*
X0266046Y0220455D01*
X0266202Y0220419D01*
X0266358Y0220380D01*
X0266513Y0220337D01*
X0266667Y0220290D01*
X0266820Y0220239D01*
X0266971Y0220184D01*
X0267121Y0220126D01*
X0267269Y0220064D01*
X0267416Y0219998D01*
X0267561Y0219929D01*
X0267704Y0219856D01*
X0267846Y0219780D01*
X0267985Y0219700D01*
X0268123Y0219617D01*
X0268258Y0219530D01*
X0268392Y0219440D01*
X0268523Y0219347D01*
X0268651Y0219251D01*
X0268777Y0219151D01*
X0268901Y0219048D01*
X0269022Y0218943D01*
X0269141Y0218834D01*
X0269257Y0218723D01*
X0269370Y0218608D01*
X0269480Y0218491D01*
X0269587Y0218371D01*
X0269691Y0218249D01*
X0269792Y0218124D01*
X0269890Y0217996D01*
X0269985Y0217866D01*
X0270077Y0217734D01*
X0270165Y0217600D01*
X0270250Y0217463D01*
X0270332Y0217325D01*
X0270410Y0217184D01*
X0270484Y0217042D01*
X0270555Y0216898D01*
X0270623Y0216752D01*
X0270686Y0216604D01*
X0270747Y0216455D01*
X0270803Y0216304D01*
X0270856Y0216152D01*
X0270905Y0215999D01*
X0270950Y0215845D01*
X0270991Y0215690D01*
X0271029Y0215533D01*
X0271062Y0215376D01*
X0271092Y0215218D01*
X0271118Y0215059D01*
X0271139Y0214900D01*
X0271157Y0214740D01*
X0271171Y0214580D01*
X0271181Y0214419D01*
X0271187Y0214259D01*
X0271189Y0214098D01*
X0271187Y0213937D01*
X0271181Y0213777D01*
X0271171Y0213616D01*
X0271157Y0213456D01*
X0271139Y0213296D01*
X0271118Y0213137D01*
X0271092Y0212978D01*
X0271062Y0212820D01*
X0271029Y0212663D01*
X0270991Y0212506D01*
X0270950Y0212351D01*
X0270905Y0212197D01*
X0270856Y0212044D01*
X0270803Y0211892D01*
X0270747Y0211741D01*
X0270686Y0211592D01*
X0270623Y0211444D01*
X0270555Y0211298D01*
X0270484Y0211154D01*
X0270410Y0211012D01*
X0270332Y0210871D01*
X0270250Y0210733D01*
X0270165Y0210596D01*
X0270077Y0210462D01*
X0269985Y0210330D01*
X0269890Y0210200D01*
X0269792Y0210072D01*
X0269691Y0209947D01*
X0269587Y0209825D01*
X0269480Y0209705D01*
X0269370Y0209588D01*
X0269257Y0209473D01*
X0269141Y0209362D01*
X0269022Y0209253D01*
X0268901Y0209148D01*
X0268777Y0209045D01*
X0268651Y0208945D01*
X0268523Y0208849D01*
X0268392Y0208756D01*
X0268258Y0208666D01*
X0268123Y0208579D01*
X0267985Y0208496D01*
X0267846Y0208416D01*
X0267704Y0208340D01*
X0267561Y0208267D01*
X0267416Y0208198D01*
X0267269Y0208132D01*
X0267121Y0208070D01*
X0266971Y0208012D01*
X0266820Y0207957D01*
X0266667Y0207906D01*
X0266513Y0207859D01*
X0266358Y0207816D01*
X0266202Y0207777D01*
X0266046Y0207741D01*
X0265888Y0207710D01*
X0265730Y0207682D01*
X0265571Y0207658D01*
X0265411Y0207638D01*
X0265251Y0207622D01*
X0265091Y0207610D01*
X0264930Y0207602D01*
X0264769Y0207598D01*
X0264609Y0207598D01*
X0264448Y0207602D01*
X0264287Y0207610D01*
X0264127Y0207622D01*
X0263967Y0207638D01*
X0263807Y0207658D01*
X0263648Y0207682D01*
X0263490Y0207710D01*
X0263332Y0207741D01*
X0263176Y0207777D01*
X0263020Y0207816D01*
X0262865Y0207859D01*
X0262711Y0207906D01*
X0262558Y0207957D01*
X0262407Y0208012D01*
X0262257Y0208070D01*
X0262109Y0208132D01*
X0261962Y0208198D01*
X0261817Y0208267D01*
X0261674Y0208340D01*
X0261532Y0208416D01*
X0261393Y0208496D01*
X0261255Y0208579D01*
X0261120Y0208666D01*
X0260986Y0208756D01*
X0260855Y0208849D01*
X0260727Y0208945D01*
X0260601Y0209045D01*
X0260477Y0209148D01*
X0260356Y0209253D01*
X0260237Y0209362D01*
X0260121Y0209473D01*
X0260008Y0209588D01*
X0259898Y0209705D01*
X0259791Y0209825D01*
X0259687Y0209947D01*
X0259586Y0210072D01*
X0259488Y0210200D01*
X0259393Y0210330D01*
X0259301Y0210462D01*
X0259213Y0210596D01*
X0259128Y0210733D01*
X0259046Y0210871D01*
X0258968Y0211012D01*
X0258894Y0211154D01*
X0258823Y0211298D01*
X0258755Y0211444D01*
X0258692Y0211592D01*
X0258631Y0211741D01*
X0258575Y0211892D01*
X0258522Y0212044D01*
X0258473Y0212197D01*
X0258428Y0212351D01*
X0258387Y0212506D01*
X0258349Y0212663D01*
X0258316Y0212820D01*
X0258286Y0212978D01*
X0258260Y0213137D01*
X0258239Y0213296D01*
X0258221Y0213456D01*
X0258207Y0213616D01*
X0258197Y0213777D01*
X0258191Y0213937D01*
X0258189Y0214098D01*
X0006220Y0214098D02*
X0006222Y0214259D01*
X0006228Y0214419D01*
X0006238Y0214580D01*
X0006252Y0214740D01*
X0006270Y0214900D01*
X0006291Y0215059D01*
X0006317Y0215218D01*
X0006347Y0215376D01*
X0006380Y0215533D01*
X0006418Y0215690D01*
X0006459Y0215845D01*
X0006504Y0215999D01*
X0006553Y0216152D01*
X0006606Y0216304D01*
X0006662Y0216455D01*
X0006723Y0216604D01*
X0006786Y0216752D01*
X0006854Y0216898D01*
X0006925Y0217042D01*
X0006999Y0217184D01*
X0007077Y0217325D01*
X0007159Y0217463D01*
X0007244Y0217600D01*
X0007332Y0217734D01*
X0007424Y0217866D01*
X0007519Y0217996D01*
X0007617Y0218124D01*
X0007718Y0218249D01*
X0007822Y0218371D01*
X0007929Y0218491D01*
X0008039Y0218608D01*
X0008152Y0218723D01*
X0008268Y0218834D01*
X0008387Y0218943D01*
X0008508Y0219048D01*
X0008632Y0219151D01*
X0008758Y0219251D01*
X0008886Y0219347D01*
X0009017Y0219440D01*
X0009151Y0219530D01*
X0009286Y0219617D01*
X0009424Y0219700D01*
X0009563Y0219780D01*
X0009705Y0219856D01*
X0009848Y0219929D01*
X0009993Y0219998D01*
X0010140Y0220064D01*
X0010288Y0220126D01*
X0010438Y0220184D01*
X0010589Y0220239D01*
X0010742Y0220290D01*
X0010896Y0220337D01*
X0011051Y0220380D01*
X0011207Y0220419D01*
X0011363Y0220455D01*
X0011521Y0220486D01*
X0011679Y0220514D01*
X0011838Y0220538D01*
X0011998Y0220558D01*
X0012158Y0220574D01*
X0012318Y0220586D01*
X0012479Y0220594D01*
X0012640Y0220598D01*
X0012800Y0220598D01*
X0012961Y0220594D01*
X0013122Y0220586D01*
X0013282Y0220574D01*
X0013442Y0220558D01*
X0013602Y0220538D01*
X0013761Y0220514D01*
X0013919Y0220486D01*
X0014077Y0220455D01*
X0014233Y0220419D01*
X0014389Y0220380D01*
X0014544Y0220337D01*
X0014698Y0220290D01*
X0014851Y0220239D01*
X0015002Y0220184D01*
X0015152Y0220126D01*
X0015300Y0220064D01*
X0015447Y0219998D01*
X0015592Y0219929D01*
X0015735Y0219856D01*
X0015877Y0219780D01*
X0016016Y0219700D01*
X0016154Y0219617D01*
X0016289Y0219530D01*
X0016423Y0219440D01*
X0016554Y0219347D01*
X0016682Y0219251D01*
X0016808Y0219151D01*
X0016932Y0219048D01*
X0017053Y0218943D01*
X0017172Y0218834D01*
X0017288Y0218723D01*
X0017401Y0218608D01*
X0017511Y0218491D01*
X0017618Y0218371D01*
X0017722Y0218249D01*
X0017823Y0218124D01*
X0017921Y0217996D01*
X0018016Y0217866D01*
X0018108Y0217734D01*
X0018196Y0217600D01*
X0018281Y0217463D01*
X0018363Y0217325D01*
X0018441Y0217184D01*
X0018515Y0217042D01*
X0018586Y0216898D01*
X0018654Y0216752D01*
X0018717Y0216604D01*
X0018778Y0216455D01*
X0018834Y0216304D01*
X0018887Y0216152D01*
X0018936Y0215999D01*
X0018981Y0215845D01*
X0019022Y0215690D01*
X0019060Y0215533D01*
X0019093Y0215376D01*
X0019123Y0215218D01*
X0019149Y0215059D01*
X0019170Y0214900D01*
X0019188Y0214740D01*
X0019202Y0214580D01*
X0019212Y0214419D01*
X0019218Y0214259D01*
X0019220Y0214098D01*
X0019218Y0213937D01*
X0019212Y0213777D01*
X0019202Y0213616D01*
X0019188Y0213456D01*
X0019170Y0213296D01*
X0019149Y0213137D01*
X0019123Y0212978D01*
X0019093Y0212820D01*
X0019060Y0212663D01*
X0019022Y0212506D01*
X0018981Y0212351D01*
X0018936Y0212197D01*
X0018887Y0212044D01*
X0018834Y0211892D01*
X0018778Y0211741D01*
X0018717Y0211592D01*
X0018654Y0211444D01*
X0018586Y0211298D01*
X0018515Y0211154D01*
X0018441Y0211012D01*
X0018363Y0210871D01*
X0018281Y0210733D01*
X0018196Y0210596D01*
X0018108Y0210462D01*
X0018016Y0210330D01*
X0017921Y0210200D01*
X0017823Y0210072D01*
X0017722Y0209947D01*
X0017618Y0209825D01*
X0017511Y0209705D01*
X0017401Y0209588D01*
X0017288Y0209473D01*
X0017172Y0209362D01*
X0017053Y0209253D01*
X0016932Y0209148D01*
X0016808Y0209045D01*
X0016682Y0208945D01*
X0016554Y0208849D01*
X0016423Y0208756D01*
X0016289Y0208666D01*
X0016154Y0208579D01*
X0016016Y0208496D01*
X0015877Y0208416D01*
X0015735Y0208340D01*
X0015592Y0208267D01*
X0015447Y0208198D01*
X0015300Y0208132D01*
X0015152Y0208070D01*
X0015002Y0208012D01*
X0014851Y0207957D01*
X0014698Y0207906D01*
X0014544Y0207859D01*
X0014389Y0207816D01*
X0014233Y0207777D01*
X0014077Y0207741D01*
X0013919Y0207710D01*
X0013761Y0207682D01*
X0013602Y0207658D01*
X0013442Y0207638D01*
X0013282Y0207622D01*
X0013122Y0207610D01*
X0012961Y0207602D01*
X0012800Y0207598D01*
X0012640Y0207598D01*
X0012479Y0207602D01*
X0012318Y0207610D01*
X0012158Y0207622D01*
X0011998Y0207638D01*
X0011838Y0207658D01*
X0011679Y0207682D01*
X0011521Y0207710D01*
X0011363Y0207741D01*
X0011207Y0207777D01*
X0011051Y0207816D01*
X0010896Y0207859D01*
X0010742Y0207906D01*
X0010589Y0207957D01*
X0010438Y0208012D01*
X0010288Y0208070D01*
X0010140Y0208132D01*
X0009993Y0208198D01*
X0009848Y0208267D01*
X0009705Y0208340D01*
X0009563Y0208416D01*
X0009424Y0208496D01*
X0009286Y0208579D01*
X0009151Y0208666D01*
X0009017Y0208756D01*
X0008886Y0208849D01*
X0008758Y0208945D01*
X0008632Y0209045D01*
X0008508Y0209148D01*
X0008387Y0209253D01*
X0008268Y0209362D01*
X0008152Y0209473D01*
X0008039Y0209588D01*
X0007929Y0209705D01*
X0007822Y0209825D01*
X0007718Y0209947D01*
X0007617Y0210072D01*
X0007519Y0210200D01*
X0007424Y0210330D01*
X0007332Y0210462D01*
X0007244Y0210596D01*
X0007159Y0210733D01*
X0007077Y0210871D01*
X0006999Y0211012D01*
X0006925Y0211154D01*
X0006854Y0211298D01*
X0006786Y0211444D01*
X0006723Y0211592D01*
X0006662Y0211741D01*
X0006606Y0211892D01*
X0006553Y0212044D01*
X0006504Y0212197D01*
X0006459Y0212351D01*
X0006418Y0212506D01*
X0006380Y0212663D01*
X0006347Y0212820D01*
X0006317Y0212978D01*
X0006291Y0213137D01*
X0006270Y0213296D01*
X0006252Y0213456D01*
X0006238Y0213616D01*
X0006228Y0213777D01*
X0006222Y0213937D01*
X0006220Y0214098D01*
D11*
X0112052Y0051483D03*
X0112052Y0051283D03*
X0112052Y0051083D03*
X0112052Y0050883D03*
X0112052Y0047083D03*
X0112052Y0046883D03*
X0112052Y0046683D03*
X0112052Y0046483D03*
X0118052Y0046483D03*
X0118052Y0046683D03*
X0118052Y0046883D03*
X0118052Y0047083D03*
X0118052Y0050883D03*
X0118052Y0051083D03*
X0118052Y0051283D03*
X0118052Y0051483D03*
X0124052Y0051483D03*
X0124052Y0051283D03*
X0124052Y0051083D03*
X0124052Y0050883D03*
X0124052Y0047083D03*
X0124052Y0046883D03*
X0124052Y0046683D03*
X0124052Y0046483D03*
X0132252Y0046483D03*
X0132252Y0046683D03*
X0132252Y0046883D03*
X0132252Y0047083D03*
X0132252Y0050883D03*
X0132252Y0051083D03*
X0132252Y0051283D03*
X0132252Y0051483D03*
X0138252Y0051483D03*
X0138252Y0051283D03*
X0138252Y0051083D03*
X0138252Y0050883D03*
X0144252Y0050883D03*
X0144252Y0051083D03*
X0144252Y0051283D03*
X0144252Y0051483D03*
X0144252Y0047083D03*
X0144252Y0046883D03*
X0144252Y0046683D03*
X0144252Y0046483D03*
X0150252Y0046483D03*
X0150252Y0046683D03*
X0150252Y0046883D03*
X0150252Y0047083D03*
X0150252Y0050883D03*
X0150252Y0051083D03*
X0150252Y0051283D03*
X0150252Y0051483D03*
X0156252Y0051483D03*
X0156252Y0051283D03*
X0156252Y0051083D03*
X0156252Y0050883D03*
X0162252Y0050883D03*
X0162252Y0051083D03*
X0162252Y0051283D03*
X0162252Y0051483D03*
X0162252Y0047083D03*
X0162252Y0046883D03*
X0162252Y0046683D03*
X0162252Y0046483D03*
X0168252Y0046483D03*
X0168252Y0046683D03*
X0168252Y0046883D03*
X0168252Y0047083D03*
X0168252Y0050883D03*
X0168252Y0051083D03*
X0168252Y0051283D03*
X0168252Y0051483D03*
D12*
X0156252Y0047083D03*
X0156252Y0046883D03*
X0156252Y0046683D03*
X0156252Y0046483D03*
X0138252Y0046483D03*
X0138252Y0046683D03*
X0138252Y0046883D03*
X0138252Y0047083D03*
D13*
X0139052Y0047283D03*
X0139052Y0047483D03*
X0139052Y0047683D03*
X0139052Y0047883D03*
X0139052Y0048083D03*
X0139052Y0048283D03*
X0139052Y0048483D03*
X0139052Y0048683D03*
X0139052Y0048883D03*
X0139052Y0049083D03*
X0139052Y0049283D03*
X0137452Y0049283D03*
X0137452Y0049083D03*
X0137452Y0048883D03*
X0137452Y0048683D03*
X0137452Y0048483D03*
X0137452Y0048283D03*
X0137452Y0048083D03*
X0137452Y0047883D03*
X0137452Y0047683D03*
X0137452Y0047483D03*
X0137452Y0047283D03*
X0134452Y0047283D03*
X0134452Y0047483D03*
X0134452Y0047683D03*
X0134452Y0047883D03*
X0134452Y0048083D03*
X0134452Y0048283D03*
X0134452Y0048483D03*
X0134452Y0048683D03*
X0134452Y0048883D03*
X0134452Y0049083D03*
X0134452Y0049283D03*
X0134452Y0049483D03*
X0134452Y0049683D03*
X0134452Y0049883D03*
X0134452Y0050083D03*
X0134452Y0050283D03*
X0134452Y0050483D03*
X0134452Y0050683D03*
X0136052Y0050683D03*
X0136052Y0050483D03*
X0136052Y0050283D03*
X0132252Y0050283D03*
X0132252Y0050483D03*
X0132252Y0050683D03*
X0132252Y0050083D03*
X0132252Y0049883D03*
X0132252Y0049683D03*
X0132252Y0049483D03*
X0132252Y0048483D03*
X0132252Y0048283D03*
X0132252Y0048083D03*
X0132252Y0047883D03*
X0132252Y0047683D03*
X0132252Y0047483D03*
X0132252Y0047283D03*
X0130052Y0047283D03*
X0130052Y0047483D03*
X0130052Y0047683D03*
X0130052Y0047883D03*
X0130052Y0048083D03*
X0130052Y0048283D03*
X0130052Y0048483D03*
X0130052Y0048683D03*
X0130052Y0048883D03*
X0130052Y0049083D03*
X0130052Y0049283D03*
X0130052Y0049483D03*
X0130052Y0049683D03*
X0130052Y0049883D03*
X0130052Y0050083D03*
X0130052Y0050283D03*
X0130052Y0050483D03*
X0130052Y0050683D03*
X0126252Y0050683D03*
X0126252Y0050483D03*
X0126252Y0050283D03*
X0126252Y0050083D03*
X0126252Y0049883D03*
X0126252Y0049683D03*
X0126252Y0049483D03*
X0126252Y0049283D03*
X0126252Y0049083D03*
X0126252Y0048883D03*
X0126252Y0048683D03*
X0126252Y0048483D03*
X0126252Y0048283D03*
X0126252Y0048083D03*
X0126252Y0047883D03*
X0126252Y0047683D03*
X0126252Y0047483D03*
X0126252Y0047283D03*
X0124052Y0048683D03*
X0124052Y0048883D03*
X0124052Y0049083D03*
X0124052Y0049283D03*
X0121852Y0049283D03*
X0121852Y0049483D03*
X0121852Y0049683D03*
X0121852Y0049883D03*
X0121852Y0050083D03*
X0121852Y0050283D03*
X0121852Y0050483D03*
X0121852Y0050683D03*
X0120252Y0050683D03*
X0120252Y0050483D03*
X0120252Y0050283D03*
X0120252Y0050083D03*
X0120252Y0049883D03*
X0120252Y0049683D03*
X0120252Y0049483D03*
X0120252Y0049283D03*
X0120252Y0049083D03*
X0120252Y0048883D03*
X0120252Y0048683D03*
X0120252Y0048483D03*
X0120252Y0048283D03*
X0120252Y0048083D03*
X0120252Y0047883D03*
X0120252Y0047683D03*
X0120252Y0047483D03*
X0120252Y0047283D03*
X0121852Y0047283D03*
X0121852Y0047483D03*
X0121852Y0047683D03*
X0121852Y0047883D03*
X0121852Y0048083D03*
X0121852Y0048283D03*
X0121852Y0048483D03*
X0121852Y0048683D03*
X0121852Y0048883D03*
X0121852Y0049083D03*
X0118052Y0049483D03*
X0118052Y0049683D03*
X0118052Y0049883D03*
X0118052Y0050083D03*
X0118052Y0048483D03*
X0118052Y0048283D03*
X0118052Y0048083D03*
X0118052Y0047883D03*
X0118052Y0047683D03*
X0118052Y0047483D03*
X0118052Y0047283D03*
X0115852Y0047283D03*
X0115852Y0047483D03*
X0115852Y0047683D03*
X0115852Y0048683D03*
X0115852Y0048883D03*
X0115852Y0049083D03*
X0115852Y0049283D03*
X0115852Y0049483D03*
X0115852Y0049683D03*
X0115852Y0049883D03*
X0115852Y0050083D03*
X0115852Y0050283D03*
X0115852Y0050483D03*
X0115852Y0050683D03*
X0114252Y0050683D03*
X0114252Y0050483D03*
X0114252Y0050283D03*
X0114252Y0050083D03*
X0114252Y0049883D03*
X0114252Y0049683D03*
X0114252Y0049483D03*
X0114252Y0049283D03*
X0114252Y0049083D03*
X0114252Y0048883D03*
X0114252Y0048683D03*
X0114252Y0048483D03*
X0114252Y0048283D03*
X0114252Y0048083D03*
X0114252Y0047883D03*
X0114252Y0047683D03*
X0114252Y0047483D03*
X0114252Y0047283D03*
X0112052Y0048683D03*
X0112052Y0048883D03*
X0112052Y0049083D03*
X0112052Y0049283D03*
X0109852Y0049283D03*
X0109852Y0049083D03*
X0109852Y0048883D03*
X0109852Y0048683D03*
X0109852Y0048483D03*
X0109852Y0048283D03*
X0109852Y0048083D03*
X0109852Y0047883D03*
X0109852Y0047683D03*
X0109852Y0047483D03*
X0109852Y0047283D03*
X0109852Y0050283D03*
X0109852Y0050483D03*
X0109852Y0050683D03*
X0140452Y0050683D03*
X0140452Y0050483D03*
X0140452Y0050283D03*
X0142052Y0050283D03*
X0142052Y0050483D03*
X0142052Y0050683D03*
X0142052Y0049283D03*
X0142052Y0049083D03*
X0142052Y0048883D03*
X0142052Y0048683D03*
X0142052Y0047683D03*
X0142052Y0047483D03*
X0142052Y0047283D03*
X0146452Y0047283D03*
X0146452Y0047483D03*
X0146452Y0047683D03*
X0146452Y0047883D03*
X0146452Y0048083D03*
X0146452Y0048283D03*
X0146452Y0048483D03*
X0146452Y0048683D03*
X0146452Y0048883D03*
X0146452Y0049083D03*
X0146452Y0049283D03*
X0146452Y0049483D03*
X0146452Y0049683D03*
X0146452Y0049883D03*
X0146452Y0050083D03*
X0146452Y0050283D03*
X0146452Y0050483D03*
X0146452Y0050683D03*
X0148052Y0050683D03*
X0148052Y0050483D03*
X0148052Y0050283D03*
X0148052Y0049283D03*
X0148052Y0049083D03*
X0148052Y0048883D03*
X0148052Y0048683D03*
X0148052Y0047683D03*
X0148052Y0047483D03*
X0148052Y0047283D03*
X0152452Y0047283D03*
X0152452Y0047483D03*
X0152452Y0047683D03*
X0152452Y0047883D03*
X0152452Y0048083D03*
X0152452Y0048283D03*
X0152452Y0048483D03*
X0152452Y0048683D03*
X0152452Y0048883D03*
X0152452Y0049083D03*
X0152452Y0049283D03*
X0152452Y0049483D03*
X0152452Y0049683D03*
X0152452Y0049883D03*
X0152452Y0050083D03*
X0152452Y0050283D03*
X0152452Y0050483D03*
X0152452Y0050683D03*
X0154052Y0050683D03*
X0154052Y0050483D03*
X0154052Y0050283D03*
X0155452Y0049283D03*
X0155452Y0049083D03*
X0155452Y0048883D03*
X0155452Y0048683D03*
X0155452Y0048483D03*
X0155452Y0048283D03*
X0155452Y0048083D03*
X0155452Y0047883D03*
X0155452Y0047683D03*
X0155452Y0047483D03*
X0155452Y0047283D03*
X0157052Y0047283D03*
X0157052Y0047483D03*
X0157052Y0047683D03*
X0157052Y0047883D03*
X0157052Y0048083D03*
X0157052Y0048283D03*
X0157052Y0048483D03*
X0157052Y0048683D03*
X0157052Y0048883D03*
X0157052Y0049083D03*
X0157052Y0049283D03*
X0158452Y0050283D03*
X0158452Y0050483D03*
X0158452Y0050683D03*
X0160052Y0050683D03*
X0160052Y0050483D03*
X0160052Y0050283D03*
X0160052Y0050083D03*
X0160052Y0049883D03*
X0160052Y0049683D03*
X0160052Y0049483D03*
X0160052Y0049283D03*
X0160052Y0049083D03*
X0160052Y0048883D03*
X0160052Y0048683D03*
X0160052Y0047683D03*
X0160052Y0047483D03*
X0160052Y0047283D03*
X0164452Y0047283D03*
X0164452Y0047483D03*
X0164452Y0047683D03*
X0164452Y0047883D03*
X0164452Y0048083D03*
X0164452Y0048283D03*
X0164452Y0048483D03*
X0164452Y0048683D03*
X0164452Y0048883D03*
X0164452Y0049083D03*
X0164452Y0049283D03*
X0164452Y0050283D03*
X0164452Y0050483D03*
X0164452Y0050683D03*
X0166052Y0050683D03*
X0166052Y0050483D03*
X0166052Y0050283D03*
X0166052Y0050083D03*
X0166052Y0049883D03*
X0166052Y0049683D03*
X0166052Y0049483D03*
X0166052Y0049283D03*
X0166052Y0049083D03*
X0166052Y0048883D03*
X0166052Y0048683D03*
X0166052Y0048483D03*
X0166052Y0048283D03*
X0166052Y0048083D03*
X0166052Y0047883D03*
X0166052Y0047683D03*
X0166052Y0047483D03*
X0166052Y0047283D03*
X0170452Y0047283D03*
X0170452Y0047483D03*
X0170452Y0047683D03*
X0170452Y0048683D03*
X0170452Y0048883D03*
X0170452Y0049083D03*
X0170452Y0049283D03*
X0170452Y0050283D03*
X0170452Y0050483D03*
X0170452Y0050683D03*
D14*
X0169352Y0050083D03*
X0169352Y0049883D03*
X0169352Y0049683D03*
X0169352Y0049483D03*
X0169352Y0048483D03*
X0169352Y0048283D03*
X0169352Y0048083D03*
X0169352Y0047883D03*
X0149152Y0047883D03*
X0149152Y0048083D03*
X0149152Y0048283D03*
X0149152Y0048483D03*
X0149152Y0049483D03*
X0149152Y0049683D03*
X0149152Y0049883D03*
X0149152Y0050083D03*
X0143152Y0050083D03*
X0143152Y0049883D03*
X0143152Y0049683D03*
X0143152Y0049483D03*
X0143152Y0048483D03*
X0143152Y0048283D03*
X0143152Y0048083D03*
X0143152Y0047883D03*
X0110952Y0049483D03*
X0110952Y0049683D03*
X0110952Y0049883D03*
X0110952Y0050083D03*
D15*
X0136752Y0050083D03*
X0136752Y0049883D03*
X0136752Y0049683D03*
X0136752Y0049483D03*
X0139752Y0049483D03*
X0139752Y0049683D03*
X0139752Y0049883D03*
X0139752Y0050083D03*
X0154752Y0050083D03*
X0154752Y0049883D03*
X0154752Y0049683D03*
X0154752Y0049483D03*
X0157752Y0049483D03*
X0157752Y0049683D03*
X0157752Y0049883D03*
X0157752Y0050083D03*
X0160752Y0048483D03*
X0160752Y0048283D03*
X0160752Y0048083D03*
X0160752Y0047883D03*
X0163752Y0049483D03*
X0163752Y0049683D03*
X0163752Y0049883D03*
X0163752Y0050083D03*
D16*
X0116152Y0048483D03*
X0116152Y0048283D03*
X0116152Y0048083D03*
X0116152Y0047883D03*
D17*
X0111652Y0047883D03*
X0111652Y0048083D03*
X0111652Y0048283D03*
X0111652Y0048483D03*
D18*
X0147580Y0131647D02*
X0150280Y0131647D01*
X0124965Y0154177D02*
X0123390Y0152602D01*
X0088744Y0152602D01*
X0087169Y0154177D01*
X0087169Y0188823D01*
X0088744Y0190398D01*
X0123390Y0190398D01*
X0124965Y0188823D01*
X0124965Y0154177D01*
X0164735Y0183419D02*
X0166136Y0182018D01*
X0167537Y0182018D01*
X0168938Y0183419D01*
X0168938Y0185087D02*
X0164735Y0185087D01*
X0164735Y0187189D01*
X0165435Y0187890D01*
X0166136Y0187890D01*
X0166836Y0187189D01*
X0166836Y0185087D01*
X0166836Y0187189D02*
X0167537Y0187890D01*
X0168238Y0187890D01*
X0168938Y0187189D01*
X0168938Y0185087D01*
X0168938Y0189691D02*
X0164735Y0189691D01*
X0166136Y0189691D02*
X0168938Y0192494D01*
X0168938Y0194295D02*
X0167537Y0195696D01*
X0166136Y0195696D01*
X0164735Y0194295D01*
X0164735Y0192494D02*
X0166836Y0190392D01*
X0174735Y0189691D02*
X0174735Y0191793D01*
X0175435Y0192494D01*
X0178238Y0192494D01*
X0178938Y0191793D01*
X0178938Y0189691D01*
X0174735Y0189691D01*
X0174735Y0187890D02*
X0176136Y0186489D01*
X0176136Y0187189D02*
X0176136Y0185087D01*
X0174735Y0185087D02*
X0178938Y0185087D01*
X0178938Y0187189D01*
X0178238Y0187890D01*
X0176836Y0187890D01*
X0176136Y0187189D01*
X0174735Y0183419D02*
X0176136Y0182018D01*
X0177537Y0182018D01*
X0178938Y0183419D01*
X0184735Y0188023D02*
X0186136Y0186622D01*
X0187537Y0186622D01*
X0188938Y0188023D01*
X0188238Y0189691D02*
X0185435Y0189691D01*
X0184735Y0190392D01*
X0184735Y0191793D01*
X0185435Y0192494D01*
X0186836Y0192494D01*
X0186836Y0191093D01*
X0188238Y0192494D02*
X0188938Y0191793D01*
X0188938Y0190392D01*
X0188238Y0189691D01*
X0188938Y0194295D02*
X0184735Y0194295D01*
X0186136Y0194295D02*
X0186136Y0196397D01*
X0186836Y0197098D01*
X0188238Y0197098D01*
X0188938Y0196397D01*
X0188938Y0194295D01*
X0186136Y0195696D02*
X0184735Y0197098D01*
X0184735Y0198899D02*
X0186136Y0200300D01*
X0187537Y0200300D01*
X0188938Y0198899D01*
X0194735Y0198899D02*
X0196136Y0200300D01*
X0197537Y0200300D01*
X0198938Y0198899D01*
X0198938Y0197098D02*
X0194735Y0197098D01*
X0196836Y0197098D02*
X0196836Y0194295D01*
X0194735Y0194295D02*
X0198938Y0194295D01*
X0198938Y0192494D02*
X0194735Y0192494D01*
X0196136Y0191093D01*
X0194735Y0189691D01*
X0198938Y0189691D01*
X0198938Y0188023D02*
X0197537Y0186622D01*
X0196136Y0186622D01*
X0194735Y0188023D01*
X0178938Y0194295D02*
X0177537Y0195696D01*
X0176136Y0195696D01*
X0174735Y0194295D01*
X0176136Y0201968D02*
X0174735Y0203370D01*
X0176136Y0204771D01*
X0178938Y0204771D01*
X0178238Y0206572D02*
X0175435Y0206572D01*
X0174735Y0207273D01*
X0174735Y0208674D01*
X0175435Y0209375D01*
X0175435Y0211176D02*
X0174735Y0211877D01*
X0174735Y0213278D01*
X0175435Y0213979D01*
X0178238Y0213979D02*
X0178938Y0213278D01*
X0178938Y0211877D01*
X0178238Y0211176D01*
X0175435Y0211176D01*
X0178238Y0209375D02*
X0178938Y0208674D01*
X0178938Y0207273D01*
X0178238Y0206572D01*
X0178938Y0201968D02*
X0176136Y0201968D01*
X0168938Y0202669D02*
X0168238Y0201968D01*
X0165435Y0201968D01*
X0164735Y0202669D01*
X0164735Y0204070D01*
X0165435Y0204771D01*
X0166836Y0204771D01*
X0166836Y0203370D01*
X0168238Y0204771D02*
X0168938Y0204070D01*
X0168938Y0202669D01*
X0168938Y0206572D02*
X0164735Y0206572D01*
X0164735Y0209375D02*
X0168938Y0209375D01*
X0168938Y0211176D02*
X0164735Y0211176D01*
X0164735Y0213278D01*
X0165435Y0213979D01*
X0168238Y0213979D01*
X0168938Y0213278D01*
X0168938Y0211176D01*
X0164735Y0209375D02*
X0168938Y0206572D01*
X0184735Y0206572D02*
X0184735Y0208674D01*
X0185435Y0209375D01*
X0188238Y0209375D01*
X0188938Y0208674D01*
X0188938Y0206572D01*
X0184735Y0206572D01*
X0186836Y0211176D02*
X0186836Y0213979D01*
X0194735Y0208674D02*
X0195435Y0209375D01*
X0198238Y0209375D01*
X0198938Y0208674D01*
X0198938Y0206572D01*
X0194735Y0206572D01*
X0194735Y0208674D01*
X0196836Y0211176D02*
X0196836Y0213979D01*
X0198238Y0212577D02*
X0195435Y0212577D01*
X0217445Y0214098D02*
X0217445Y0207799D01*
X0222169Y0207799D01*
X0222169Y0213311D01*
X0239492Y0213311D01*
X0239492Y0207799D01*
X0244217Y0207799D01*
X0244217Y0214098D01*
X0244217Y0224728D02*
X0217445Y0224728D01*
X0237327Y0154846D02*
X0235752Y0153272D01*
X0235752Y0146972D01*
X0237327Y0145398D01*
X0241657Y0145398D01*
X0249531Y0145398D02*
X0255437Y0145398D01*
X0255437Y0154846D01*
X0249531Y0154846D01*
X0241657Y0154846D02*
X0237327Y0154846D01*
X0203429Y0148114D02*
X0203429Y0138350D01*
X0199492Y0133232D02*
X0187366Y0133232D01*
X0183429Y0138232D02*
X0183429Y0148114D01*
X0187366Y0153232D02*
X0199492Y0153232D01*
X0188429Y0143232D02*
X0188431Y0143373D01*
X0188437Y0143514D01*
X0188447Y0143654D01*
X0188461Y0143794D01*
X0188479Y0143934D01*
X0188500Y0144073D01*
X0188526Y0144212D01*
X0188555Y0144350D01*
X0188589Y0144486D01*
X0188626Y0144622D01*
X0188667Y0144757D01*
X0188712Y0144891D01*
X0188761Y0145023D01*
X0188813Y0145154D01*
X0188869Y0145283D01*
X0188929Y0145410D01*
X0188992Y0145536D01*
X0189058Y0145660D01*
X0189129Y0145783D01*
X0189202Y0145903D01*
X0189279Y0146021D01*
X0189359Y0146137D01*
X0189443Y0146250D01*
X0189529Y0146361D01*
X0189619Y0146470D01*
X0189712Y0146576D01*
X0189807Y0146679D01*
X0189906Y0146780D01*
X0190007Y0146878D01*
X0190111Y0146973D01*
X0190218Y0147065D01*
X0190327Y0147154D01*
X0190439Y0147239D01*
X0190553Y0147322D01*
X0190669Y0147402D01*
X0190788Y0147478D01*
X0190909Y0147550D01*
X0191031Y0147620D01*
X0191156Y0147685D01*
X0191282Y0147748D01*
X0191410Y0147806D01*
X0191540Y0147861D01*
X0191671Y0147913D01*
X0191804Y0147960D01*
X0191938Y0148004D01*
X0192073Y0148045D01*
X0192209Y0148081D01*
X0192346Y0148113D01*
X0192484Y0148142D01*
X0192622Y0148167D01*
X0192762Y0148187D01*
X0192902Y0148204D01*
X0193042Y0148217D01*
X0193183Y0148226D01*
X0193323Y0148231D01*
X0193464Y0148232D01*
X0193605Y0148229D01*
X0193746Y0148222D01*
X0193886Y0148211D01*
X0194026Y0148196D01*
X0194166Y0148177D01*
X0194305Y0148155D01*
X0194443Y0148128D01*
X0194581Y0148098D01*
X0194717Y0148063D01*
X0194853Y0148025D01*
X0194987Y0147983D01*
X0195121Y0147937D01*
X0195253Y0147888D01*
X0195383Y0147834D01*
X0195512Y0147777D01*
X0195639Y0147717D01*
X0195765Y0147653D01*
X0195888Y0147585D01*
X0196010Y0147514D01*
X0196130Y0147440D01*
X0196247Y0147362D01*
X0196362Y0147281D01*
X0196475Y0147197D01*
X0196586Y0147110D01*
X0196694Y0147019D01*
X0196799Y0146926D01*
X0196902Y0146829D01*
X0197002Y0146730D01*
X0197099Y0146628D01*
X0197193Y0146523D01*
X0197284Y0146416D01*
X0197372Y0146306D01*
X0197457Y0146194D01*
X0197539Y0146079D01*
X0197618Y0145962D01*
X0197693Y0145843D01*
X0197765Y0145722D01*
X0197833Y0145599D01*
X0197898Y0145474D01*
X0197960Y0145347D01*
X0198017Y0145218D01*
X0198072Y0145088D01*
X0198122Y0144957D01*
X0198169Y0144824D01*
X0198212Y0144690D01*
X0198251Y0144554D01*
X0198286Y0144418D01*
X0198318Y0144281D01*
X0198345Y0144143D01*
X0198369Y0144004D01*
X0198389Y0143864D01*
X0198405Y0143724D01*
X0198417Y0143584D01*
X0198425Y0143443D01*
X0198429Y0143302D01*
X0198429Y0143162D01*
X0198425Y0143021D01*
X0198417Y0142880D01*
X0198405Y0142740D01*
X0198389Y0142600D01*
X0198369Y0142460D01*
X0198345Y0142321D01*
X0198318Y0142183D01*
X0198286Y0142046D01*
X0198251Y0141910D01*
X0198212Y0141774D01*
X0198169Y0141640D01*
X0198122Y0141507D01*
X0198072Y0141376D01*
X0198017Y0141246D01*
X0197960Y0141117D01*
X0197898Y0140990D01*
X0197833Y0140865D01*
X0197765Y0140742D01*
X0197693Y0140621D01*
X0197618Y0140502D01*
X0197539Y0140385D01*
X0197457Y0140270D01*
X0197372Y0140158D01*
X0197284Y0140048D01*
X0197193Y0139941D01*
X0197099Y0139836D01*
X0197002Y0139734D01*
X0196902Y0139635D01*
X0196799Y0139538D01*
X0196694Y0139445D01*
X0196586Y0139354D01*
X0196475Y0139267D01*
X0196362Y0139183D01*
X0196247Y0139102D01*
X0196130Y0139024D01*
X0196010Y0138950D01*
X0195888Y0138879D01*
X0195765Y0138811D01*
X0195639Y0138747D01*
X0195512Y0138687D01*
X0195383Y0138630D01*
X0195253Y0138576D01*
X0195121Y0138527D01*
X0194987Y0138481D01*
X0194853Y0138439D01*
X0194717Y0138401D01*
X0194581Y0138366D01*
X0194443Y0138336D01*
X0194305Y0138309D01*
X0194166Y0138287D01*
X0194026Y0138268D01*
X0193886Y0138253D01*
X0193746Y0138242D01*
X0193605Y0138235D01*
X0193464Y0138232D01*
X0193323Y0138233D01*
X0193183Y0138238D01*
X0193042Y0138247D01*
X0192902Y0138260D01*
X0192762Y0138277D01*
X0192622Y0138297D01*
X0192484Y0138322D01*
X0192346Y0138351D01*
X0192209Y0138383D01*
X0192073Y0138419D01*
X0191938Y0138460D01*
X0191804Y0138504D01*
X0191671Y0138551D01*
X0191540Y0138603D01*
X0191410Y0138658D01*
X0191282Y0138716D01*
X0191156Y0138779D01*
X0191031Y0138844D01*
X0190909Y0138914D01*
X0190788Y0138986D01*
X0190669Y0139062D01*
X0190553Y0139142D01*
X0190439Y0139225D01*
X0190327Y0139310D01*
X0190218Y0139399D01*
X0190111Y0139491D01*
X0190007Y0139586D01*
X0189906Y0139684D01*
X0189807Y0139785D01*
X0189712Y0139888D01*
X0189619Y0139994D01*
X0189529Y0140103D01*
X0189443Y0140214D01*
X0189359Y0140327D01*
X0189279Y0140443D01*
X0189202Y0140561D01*
X0189129Y0140681D01*
X0189058Y0140804D01*
X0188992Y0140928D01*
X0188929Y0141054D01*
X0188869Y0141181D01*
X0188813Y0141310D01*
X0188761Y0141441D01*
X0188712Y0141573D01*
X0188667Y0141707D01*
X0188626Y0141842D01*
X0188589Y0141978D01*
X0188555Y0142114D01*
X0188526Y0142252D01*
X0188500Y0142391D01*
X0188479Y0142530D01*
X0188461Y0142670D01*
X0188447Y0142810D01*
X0188437Y0142950D01*
X0188431Y0143091D01*
X0188429Y0143232D01*
X0130608Y0204306D02*
X0127806Y0204306D01*
X0129907Y0204306D02*
X0129907Y0207109D01*
X0130608Y0207109D02*
X0127806Y0207109D01*
X0128506Y0208910D02*
X0127806Y0209611D01*
X0127806Y0211012D01*
X0128506Y0211713D01*
X0129907Y0211713D01*
X0130608Y0211012D01*
X0130608Y0210311D01*
X0129907Y0208910D01*
X0132009Y0208910D01*
X0132009Y0211713D01*
X0130608Y0207109D02*
X0132009Y0205708D01*
X0130608Y0204306D01*
X0122009Y0205708D02*
X0120608Y0207109D01*
X0117806Y0207109D01*
X0119907Y0207109D02*
X0119907Y0204306D01*
X0120608Y0204306D02*
X0122009Y0205708D01*
X0120608Y0204306D02*
X0117806Y0204306D01*
X0119907Y0208910D02*
X0119907Y0211713D01*
X0117806Y0211012D02*
X0122009Y0211012D01*
X0119907Y0208910D01*
X0112009Y0209611D02*
X0112009Y0211012D01*
X0111309Y0211713D01*
X0110608Y0211713D01*
X0109907Y0211012D01*
X0109207Y0211713D01*
X0108506Y0211713D01*
X0107806Y0211012D01*
X0107806Y0209611D01*
X0108506Y0208910D01*
X0107806Y0207109D02*
X0110608Y0207109D01*
X0112009Y0205708D01*
X0110608Y0204306D01*
X0107806Y0204306D01*
X0109907Y0204306D02*
X0109907Y0207109D01*
X0111309Y0208910D02*
X0112009Y0209611D01*
X0109907Y0210311D02*
X0109907Y0211012D01*
X0102009Y0211012D02*
X0102009Y0209611D01*
X0101309Y0208910D01*
X0100608Y0207109D02*
X0097806Y0207109D01*
X0097806Y0208910D02*
X0100608Y0211713D01*
X0101309Y0211713D01*
X0102009Y0211012D01*
X0097806Y0211713D02*
X0097806Y0208910D01*
X0099907Y0207109D02*
X0099907Y0204306D01*
X0100608Y0204306D02*
X0097806Y0204306D01*
X0100608Y0204306D02*
X0102009Y0205708D01*
X0100608Y0207109D01*
X0092009Y0205708D02*
X0090608Y0207109D01*
X0087806Y0207109D01*
X0087806Y0208910D02*
X0087806Y0211713D01*
X0087806Y0210311D02*
X0092009Y0210311D01*
X0090608Y0208910D01*
X0089907Y0207109D02*
X0089907Y0204306D01*
X0090608Y0204306D02*
X0092009Y0205708D01*
X0090608Y0204306D02*
X0087806Y0204306D01*
X0082009Y0205708D02*
X0080608Y0207109D01*
X0077806Y0207109D01*
X0078506Y0208910D02*
X0077806Y0209611D01*
X0077806Y0211012D01*
X0078506Y0211713D01*
X0081309Y0211713D01*
X0078506Y0208910D01*
X0081309Y0208910D01*
X0082009Y0209611D01*
X0082009Y0211012D01*
X0081309Y0211713D01*
X0079907Y0207109D02*
X0079907Y0204306D01*
X0080608Y0204306D02*
X0082009Y0205708D01*
X0080608Y0204306D02*
X0077806Y0204306D01*
D19*
X0143911Y0071975D03*
X0135411Y0071375D03*
X0139711Y0059075D03*
X0148511Y0059475D03*
D20*
X0148761Y0059575D03*
X0139961Y0059175D03*
X0143861Y0068075D03*
X0135361Y0071675D03*
X0109661Y0066975D03*
X0109161Y0073175D03*
X0161661Y0062475D03*
D21*
X0166711Y0073875D03*
X0150111Y0088775D03*
X0150111Y0088875D03*
X0150111Y0088975D03*
X0150111Y0089075D03*
X0150111Y0089175D03*
X0150111Y0089275D03*
X0150111Y0089375D03*
X0150111Y0089475D03*
X0150111Y0089575D03*
X0150111Y0089675D03*
X0150111Y0089775D03*
X0150111Y0089875D03*
X0150111Y0089975D03*
X0150111Y0090075D03*
X0150111Y0090175D03*
X0150111Y0090275D03*
X0150111Y0090375D03*
X0150111Y0090475D03*
X0150111Y0090575D03*
X0150111Y0090675D03*
X0150111Y0090775D03*
X0150111Y0090875D03*
X0150111Y0090975D03*
X0150111Y0091075D03*
X0150111Y0091175D03*
X0150111Y0091275D03*
X0150111Y0091375D03*
X0150111Y0091475D03*
X0150111Y0091575D03*
X0150111Y0091675D03*
X0150111Y0091775D03*
X0150111Y0091875D03*
X0150111Y0091975D03*
X0150111Y0092075D03*
X0150111Y0092175D03*
X0147811Y0090975D03*
X0147811Y0090875D03*
X0147811Y0090775D03*
X0147811Y0090675D03*
X0147811Y0090575D03*
X0147811Y0090475D03*
X0147811Y0090375D03*
X0147811Y0090275D03*
X0147811Y0090175D03*
X0147811Y0090075D03*
X0147811Y0089975D03*
X0147811Y0089875D03*
X0147811Y0089775D03*
X0147811Y0089675D03*
X0147811Y0089575D03*
X0147811Y0089475D03*
X0147811Y0089375D03*
X0147811Y0089275D03*
X0147811Y0089175D03*
X0147811Y0089075D03*
X0147811Y0088975D03*
X0147811Y0088875D03*
X0147811Y0088775D03*
X0147811Y0096975D03*
X0147811Y0097075D03*
X0147811Y0097175D03*
X0147811Y0097275D03*
X0147811Y0097375D03*
X0147811Y0097475D03*
X0147811Y0097575D03*
X0147811Y0097675D03*
X0147811Y0097775D03*
X0147811Y0097875D03*
X0147811Y0097975D03*
X0138411Y0101675D03*
X0138411Y0101775D03*
X0138411Y0101875D03*
X0138411Y0101975D03*
X0138411Y0102075D03*
X0138411Y0102175D03*
X0138411Y0102275D03*
X0138411Y0102375D03*
X0138411Y0102475D03*
X0138411Y0102575D03*
X0138411Y0102675D03*
X0138411Y0102775D03*
X0138411Y0102875D03*
X0138411Y0102975D03*
X0138411Y0103075D03*
X0138411Y0103175D03*
X0138411Y0103275D03*
X0138411Y0103375D03*
X0138411Y0103475D03*
X0138411Y0103575D03*
X0138411Y0103675D03*
X0138411Y0103775D03*
X0138411Y0103875D03*
X0138411Y0103975D03*
X0138411Y0104075D03*
X0138411Y0104175D03*
X0138411Y0104275D03*
X0138411Y0104375D03*
X0138411Y0104475D03*
X0138411Y0104575D03*
X0138411Y0104675D03*
X0138411Y0104775D03*
X0138411Y0104875D03*
X0138411Y0104975D03*
X0138411Y0105075D03*
X0134911Y0105075D03*
X0134911Y0104975D03*
X0134911Y0104875D03*
X0134911Y0104775D03*
X0134911Y0104675D03*
X0134911Y0104575D03*
X0134911Y0104475D03*
X0134911Y0104375D03*
X0134911Y0104275D03*
X0134911Y0104175D03*
X0134911Y0104075D03*
X0134911Y0103975D03*
X0132511Y0103975D03*
X0132511Y0104075D03*
X0132511Y0104175D03*
X0132511Y0104275D03*
X0132511Y0104375D03*
X0132511Y0104475D03*
X0132511Y0104575D03*
X0132511Y0104675D03*
X0132511Y0104775D03*
X0132511Y0104875D03*
X0132511Y0104975D03*
X0132511Y0105075D03*
X0132511Y0105175D03*
X0132511Y0105275D03*
X0132511Y0105375D03*
X0132511Y0105475D03*
X0132511Y0105575D03*
X0132511Y0105675D03*
X0132511Y0105775D03*
X0132511Y0105875D03*
X0132511Y0105975D03*
X0132511Y0106075D03*
X0132511Y0106175D03*
X0132511Y0106275D03*
X0134911Y0107475D03*
X0134911Y0107575D03*
X0134911Y0107675D03*
X0134911Y0107775D03*
X0134911Y0107875D03*
X0134911Y0107975D03*
X0134911Y0108075D03*
X0134911Y0108175D03*
X0134911Y0108275D03*
X0134911Y0108375D03*
X0134911Y0108475D03*
X0134911Y0108575D03*
X0133711Y0108675D03*
X0133711Y0108775D03*
X0133711Y0108875D03*
X0133711Y0108975D03*
X0133711Y0109075D03*
X0133711Y0109175D03*
X0133711Y0109275D03*
X0133711Y0109375D03*
X0133711Y0109475D03*
X0133711Y0109575D03*
X0133711Y0109675D03*
X0133711Y0109775D03*
X0132511Y0102675D03*
X0132511Y0102575D03*
X0132511Y0102475D03*
X0132511Y0102375D03*
X0132511Y0102275D03*
X0132511Y0102175D03*
X0132511Y0102075D03*
X0132511Y0101975D03*
X0132511Y0101875D03*
X0132511Y0101775D03*
X0132511Y0101675D03*
X0116911Y0076375D03*
X0116011Y0069375D03*
X0135311Y0071975D03*
X0135311Y0072075D03*
X0143611Y0072475D03*
X0143911Y0067675D03*
X0143911Y0067575D03*
X0140111Y0059275D03*
D22*
X0140311Y0059375D03*
X0143911Y0067275D03*
X0143511Y0072675D03*
X0135311Y0072275D03*
X0122611Y0061775D03*
X0115811Y0069475D03*
X0109511Y0073075D03*
D23*
X0109411Y0067575D03*
X0135211Y0072575D03*
X0143911Y0066875D03*
X0148411Y0068575D03*
X0140511Y0059475D03*
X0169211Y0066975D03*
D24*
X0169361Y0067075D03*
X0153861Y0072675D03*
X0148661Y0068475D03*
X0143961Y0066475D03*
X0143961Y0066375D03*
X0143261Y0073075D03*
X0141961Y0075875D03*
X0140661Y0059575D03*
X0122361Y0061975D03*
D25*
X0109561Y0067175D03*
X0148961Y0059675D03*
X0148961Y0098175D03*
X0148961Y0098275D03*
X0148961Y0098375D03*
X0148961Y0098475D03*
X0148961Y0098575D03*
X0148961Y0098675D03*
X0148961Y0098775D03*
X0148961Y0098875D03*
X0148961Y0098975D03*
X0148961Y0099075D03*
X0148961Y0099175D03*
X0148961Y0099275D03*
X0148961Y0099375D03*
X0148961Y0099475D03*
X0148961Y0099575D03*
X0148961Y0099675D03*
X0148961Y0099775D03*
X0148961Y0099875D03*
X0148961Y0099975D03*
X0148961Y0100075D03*
X0148961Y0100175D03*
X0148961Y0100275D03*
X0148961Y0100375D03*
X0148961Y0101675D03*
X0148961Y0101775D03*
X0148961Y0101875D03*
X0148961Y0101975D03*
X0148961Y0102075D03*
X0148961Y0102175D03*
X0148961Y0102275D03*
X0148961Y0102375D03*
X0148961Y0102475D03*
X0148961Y0102575D03*
X0148961Y0102675D03*
X0148961Y0102775D03*
X0148961Y0102875D03*
X0148961Y0102975D03*
X0148961Y0103075D03*
X0148961Y0103175D03*
X0148961Y0103275D03*
X0148961Y0103375D03*
X0148961Y0103475D03*
X0148961Y0103575D03*
X0148961Y0103675D03*
X0148961Y0103775D03*
X0148961Y0103875D03*
X0144261Y0103875D03*
X0144261Y0103775D03*
X0144261Y0103675D03*
X0144261Y0103575D03*
X0144261Y0103475D03*
X0144261Y0103375D03*
X0144261Y0103275D03*
X0144261Y0103175D03*
X0144261Y0103075D03*
X0144261Y0102975D03*
X0144261Y0102875D03*
X0144261Y0102775D03*
X0144261Y0102675D03*
X0144261Y0102575D03*
X0144261Y0102475D03*
X0144261Y0102375D03*
X0144261Y0102275D03*
X0144261Y0102175D03*
X0144261Y0102075D03*
X0144261Y0101975D03*
X0144261Y0101875D03*
X0144261Y0101775D03*
X0144261Y0101675D03*
X0140761Y0101675D03*
X0140761Y0101775D03*
X0140761Y0101875D03*
X0140761Y0101975D03*
X0140761Y0102075D03*
X0140761Y0102175D03*
X0140761Y0102275D03*
X0140761Y0102375D03*
X0140761Y0102475D03*
X0140761Y0102575D03*
X0140761Y0102675D03*
X0140761Y0102775D03*
X0140761Y0102875D03*
X0140761Y0102975D03*
X0140761Y0103075D03*
X0140761Y0103175D03*
X0140761Y0103275D03*
X0140761Y0103375D03*
X0140761Y0103475D03*
X0140761Y0103575D03*
X0140761Y0103675D03*
X0140761Y0103775D03*
X0140761Y0103875D03*
X0136061Y0108675D03*
X0136061Y0108775D03*
X0136061Y0108875D03*
X0136061Y0108975D03*
X0136061Y0109075D03*
X0136061Y0109175D03*
X0136061Y0109275D03*
X0136061Y0109375D03*
X0136061Y0109475D03*
X0136061Y0109575D03*
X0136061Y0109675D03*
X0136061Y0109775D03*
D26*
X0140161Y0072875D03*
X0140361Y0072475D03*
X0140461Y0072375D03*
X0140861Y0059675D03*
X0158061Y0073175D03*
X0157861Y0073675D03*
X0157761Y0073975D03*
X0167461Y0070775D03*
X0167561Y0070675D03*
X0169561Y0067175D03*
X0116661Y0072575D03*
X0116661Y0072675D03*
X0116661Y0072775D03*
X0116561Y0073575D03*
D27*
X0122911Y0061575D03*
X0134511Y0059675D03*
X0143911Y0067975D03*
X0166811Y0073775D03*
D28*
X0168961Y0066875D03*
X0148161Y0068675D03*
X0143561Y0072575D03*
X0149161Y0059775D03*
X0109461Y0067375D03*
D29*
X0109211Y0068175D03*
X0122111Y0062175D03*
X0133911Y0076075D03*
X0140211Y0073075D03*
X0139811Y0068275D03*
X0141011Y0059775D03*
X0162211Y0073375D03*
X0162211Y0073475D03*
X0162111Y0073575D03*
X0162111Y0073675D03*
X0162011Y0073875D03*
X0162011Y0073975D03*
X0161911Y0074075D03*
X0161911Y0074175D03*
X0162311Y0073275D03*
X0162411Y0073075D03*
D30*
X0143911Y0066775D03*
X0135211Y0072675D03*
X0133811Y0059775D03*
D31*
X0143961Y0066975D03*
X0143461Y0072775D03*
X0135261Y0072475D03*
X0128961Y0067575D03*
X0149361Y0059875D03*
X0161661Y0062675D03*
D32*
X0164661Y0068275D03*
X0164561Y0068475D03*
X0164461Y0068675D03*
X0164461Y0068775D03*
X0164361Y0068875D03*
X0164361Y0068975D03*
X0164261Y0069075D03*
X0164261Y0069175D03*
X0164161Y0069275D03*
X0164161Y0069375D03*
X0164061Y0069475D03*
X0164061Y0069575D03*
X0159261Y0068875D03*
X0158061Y0074275D03*
X0173061Y0072475D03*
X0141761Y0075575D03*
X0141161Y0071175D03*
X0140061Y0068575D03*
X0139961Y0066475D03*
X0141161Y0059875D03*
X0131161Y0071175D03*
X0131261Y0071475D03*
X0131361Y0071675D03*
X0131361Y0071775D03*
X0131461Y0071975D03*
X0131461Y0072075D03*
X0133861Y0075875D03*
X0121961Y0062275D03*
X0115661Y0076175D03*
D33*
X0113361Y0073575D03*
X0113261Y0073475D03*
X0113161Y0073375D03*
X0113061Y0073275D03*
X0109161Y0068275D03*
X0133261Y0059875D03*
X0139761Y0066675D03*
X0140861Y0071875D03*
X0157861Y0074175D03*
X0162361Y0073175D03*
X0162461Y0072975D03*
X0167561Y0070975D03*
D34*
X0149561Y0059975D03*
X0143961Y0066675D03*
X0129161Y0067475D03*
X0109361Y0067775D03*
X0136661Y0088775D03*
X0136661Y0088875D03*
X0136661Y0088975D03*
X0136661Y0089075D03*
X0136661Y0089175D03*
X0136661Y0089275D03*
X0136661Y0089375D03*
X0136661Y0089475D03*
X0136661Y0089575D03*
X0136661Y0089675D03*
X0136661Y0089775D03*
X0136661Y0089875D03*
X0136661Y0089975D03*
X0136661Y0090075D03*
X0136661Y0090175D03*
X0136661Y0090275D03*
X0136661Y0090375D03*
X0136661Y0090475D03*
X0136661Y0090575D03*
X0136661Y0090675D03*
X0136661Y0090775D03*
X0136661Y0090875D03*
X0136661Y0090975D03*
X0148361Y0100475D03*
X0148361Y0100575D03*
X0148361Y0100675D03*
X0148361Y0100775D03*
X0148361Y0100875D03*
X0148361Y0100975D03*
X0148361Y0101075D03*
X0148361Y0101175D03*
X0148361Y0101275D03*
X0148361Y0101375D03*
X0148361Y0101475D03*
X0148361Y0101575D03*
D35*
X0141861Y0075375D03*
X0141061Y0070875D03*
X0132861Y0067775D03*
X0131161Y0070675D03*
X0126261Y0073375D03*
X0126361Y0073675D03*
X0126361Y0073775D03*
X0126461Y0074075D03*
X0126461Y0074175D03*
X0126461Y0074275D03*
X0126561Y0074375D03*
X0126561Y0074475D03*
X0126561Y0074575D03*
X0126561Y0074675D03*
X0126661Y0074875D03*
X0126661Y0074975D03*
X0126661Y0075075D03*
X0126761Y0075475D03*
X0126761Y0075575D03*
X0126861Y0076175D03*
X0119861Y0070875D03*
X0119761Y0070675D03*
X0119661Y0070475D03*
X0119661Y0070375D03*
X0115661Y0075675D03*
X0115661Y0075775D03*
X0141361Y0059975D03*
X0159561Y0067575D03*
X0159561Y0067675D03*
X0159561Y0067775D03*
X0159461Y0069275D03*
X0161761Y0063075D03*
X0173561Y0070875D03*
D36*
X0166961Y0072875D03*
X0166861Y0073075D03*
X0166761Y0075975D03*
X0159561Y0069375D03*
X0150461Y0060475D03*
X0140161Y0066175D03*
X0140361Y0068975D03*
X0140961Y0070675D03*
X0141861Y0075275D03*
X0133861Y0075675D03*
X0131161Y0070575D03*
X0131161Y0070475D03*
X0131361Y0070175D03*
X0131561Y0069875D03*
X0131661Y0069675D03*
X0131761Y0069575D03*
X0131861Y0069375D03*
X0131961Y0069275D03*
X0132061Y0069075D03*
X0132161Y0068975D03*
X0132261Y0068775D03*
X0132361Y0068575D03*
X0132561Y0068275D03*
X0125561Y0070875D03*
X0125661Y0071175D03*
X0125661Y0071275D03*
X0125761Y0071475D03*
X0125761Y0071575D03*
X0125761Y0071675D03*
X0125861Y0071775D03*
X0125861Y0071875D03*
X0125861Y0071975D03*
X0125961Y0072175D03*
X0125961Y0072275D03*
X0126061Y0072575D03*
X0126061Y0072675D03*
X0119661Y0070275D03*
X0119661Y0070175D03*
X0115561Y0075475D03*
X0132861Y0059975D03*
D37*
X0129361Y0067375D03*
X0140161Y0072775D03*
X0143961Y0066275D03*
X0143961Y0066175D03*
X0149761Y0060075D03*
X0109261Y0067975D03*
D38*
X0109011Y0068775D03*
X0114711Y0070075D03*
X0115611Y0075375D03*
X0125311Y0070075D03*
X0125311Y0069975D03*
X0125411Y0070275D03*
X0125411Y0070375D03*
X0125411Y0070475D03*
X0125511Y0070575D03*
X0125511Y0070675D03*
X0125511Y0070775D03*
X0125611Y0070975D03*
X0125611Y0071075D03*
X0125711Y0071375D03*
X0125211Y0069675D03*
X0131211Y0070375D03*
X0131311Y0070275D03*
X0131411Y0070075D03*
X0131511Y0069975D03*
X0131611Y0069775D03*
X0131811Y0069475D03*
X0140911Y0070575D03*
X0141511Y0060075D03*
X0121711Y0062475D03*
X0166911Y0072975D03*
X0167011Y0072775D03*
X0167111Y0072675D03*
D39*
X0152611Y0069275D03*
X0152511Y0069375D03*
X0152411Y0069475D03*
X0142111Y0074775D03*
X0132411Y0060075D03*
X0119711Y0069375D03*
X0115311Y0074575D03*
D40*
X0115261Y0069775D03*
X0139661Y0067875D03*
X0139661Y0067775D03*
X0139661Y0067675D03*
X0139661Y0067575D03*
X0139661Y0067475D03*
X0139661Y0067375D03*
X0139661Y0067275D03*
X0139661Y0067175D03*
X0139661Y0067075D03*
X0139661Y0066975D03*
X0139661Y0066875D03*
X0139661Y0066775D03*
X0140761Y0071975D03*
X0140661Y0072075D03*
X0148961Y0068375D03*
X0149961Y0060175D03*
X0162061Y0073775D03*
X0161861Y0074275D03*
X0152261Y0076175D03*
D41*
X0149761Y0072575D03*
X0149861Y0072475D03*
X0149961Y0072375D03*
X0150061Y0072275D03*
X0150161Y0072175D03*
X0150261Y0072075D03*
X0150361Y0071875D03*
X0150461Y0071775D03*
X0150561Y0071675D03*
X0159661Y0069675D03*
X0167561Y0072075D03*
X0167661Y0071975D03*
X0167761Y0071875D03*
X0150661Y0060575D03*
X0141561Y0060375D03*
X0141561Y0060275D03*
X0141561Y0060175D03*
X0140561Y0069175D03*
X0140761Y0070275D03*
X0141961Y0075075D03*
X0136661Y0082875D03*
X0136661Y0082975D03*
X0136661Y0083075D03*
X0136661Y0083175D03*
X0136661Y0083275D03*
X0136661Y0083375D03*
X0136661Y0083475D03*
X0136661Y0083575D03*
X0136661Y0083675D03*
X0136661Y0083775D03*
X0136661Y0083875D03*
X0136661Y0083975D03*
X0135461Y0096975D03*
X0135461Y0097075D03*
X0135461Y0097175D03*
X0135461Y0097275D03*
X0135461Y0097375D03*
X0135461Y0097475D03*
X0135461Y0097575D03*
X0135461Y0097675D03*
X0135461Y0097775D03*
X0135461Y0097875D03*
X0135461Y0097975D03*
X0135461Y0100475D03*
X0135461Y0100575D03*
X0135461Y0100675D03*
X0135461Y0100775D03*
X0135461Y0100875D03*
X0135461Y0100975D03*
X0135461Y0101075D03*
X0135461Y0101175D03*
X0135461Y0101275D03*
X0135461Y0101375D03*
X0135461Y0101475D03*
X0135461Y0101575D03*
X0134261Y0102775D03*
X0134261Y0102875D03*
X0134261Y0102975D03*
X0134261Y0103075D03*
X0134261Y0103175D03*
X0134261Y0103275D03*
X0134261Y0103375D03*
X0134261Y0103475D03*
X0134261Y0103575D03*
X0134261Y0103675D03*
X0134261Y0103775D03*
X0134261Y0103875D03*
X0138961Y0109875D03*
X0138961Y0109975D03*
X0138961Y0110075D03*
X0138961Y0110175D03*
X0138961Y0110275D03*
X0138961Y0110375D03*
X0138961Y0110475D03*
X0138961Y0110575D03*
X0138961Y0110675D03*
X0138961Y0110775D03*
X0138961Y0110875D03*
X0115461Y0075075D03*
X0119661Y0069875D03*
X0109761Y0069975D03*
X0109661Y0069875D03*
X0109561Y0069775D03*
X0109461Y0069675D03*
X0108961Y0068875D03*
D42*
X0111461Y0072875D03*
X0111561Y0072975D03*
X0115061Y0073975D03*
X0132061Y0060175D03*
X0141561Y0061875D03*
X0141561Y0061975D03*
X0141561Y0062075D03*
X0141561Y0073175D03*
X0141661Y0073275D03*
X0141661Y0073375D03*
X0141761Y0073475D03*
X0141761Y0073575D03*
X0141861Y0073675D03*
X0141861Y0073775D03*
X0141961Y0073875D03*
X0141961Y0073975D03*
X0142061Y0074175D03*
X0133861Y0075075D03*
X0136061Y0081675D03*
X0136061Y0081775D03*
X0136061Y0081875D03*
X0136061Y0081975D03*
X0136061Y0082075D03*
X0136061Y0082175D03*
X0136061Y0082275D03*
X0136061Y0082375D03*
X0136061Y0082475D03*
X0136061Y0082575D03*
X0136061Y0082675D03*
X0136061Y0082775D03*
X0137261Y0084075D03*
X0137261Y0084175D03*
X0137261Y0084275D03*
X0137261Y0084375D03*
X0137261Y0084475D03*
X0137261Y0084575D03*
X0137261Y0084675D03*
X0137261Y0084775D03*
X0137261Y0084875D03*
X0137261Y0084975D03*
X0137261Y0085075D03*
X0137261Y0085175D03*
X0136061Y0095775D03*
X0136061Y0095875D03*
X0136061Y0095975D03*
X0136061Y0096075D03*
X0136061Y0096175D03*
X0136061Y0096275D03*
X0136061Y0096375D03*
X0136061Y0096475D03*
X0136061Y0096575D03*
X0136061Y0096675D03*
X0136061Y0096775D03*
X0136061Y0096875D03*
X0167261Y0075375D03*
D43*
X0164011Y0069675D03*
X0158411Y0072975D03*
X0150111Y0060275D03*
X0141211Y0071275D03*
X0141211Y0071375D03*
X0109111Y0068375D03*
X0146611Y0108675D03*
X0146611Y0108775D03*
X0146611Y0108875D03*
X0146611Y0108975D03*
X0146611Y0109075D03*
X0146611Y0109175D03*
X0146611Y0109275D03*
X0146611Y0109375D03*
X0146611Y0109475D03*
X0146611Y0109575D03*
X0146611Y0109675D03*
X0146611Y0109775D03*
D44*
X0159761Y0074975D03*
X0141561Y0063175D03*
X0141561Y0063075D03*
X0131761Y0060275D03*
X0133561Y0073575D03*
X0133561Y0073675D03*
X0133661Y0073775D03*
X0133661Y0073875D03*
X0133761Y0073975D03*
X0133961Y0074675D03*
D45*
X0133911Y0075775D03*
X0131811Y0072575D03*
X0131111Y0070875D03*
X0131111Y0070775D03*
X0126611Y0074775D03*
X0126711Y0075175D03*
X0126711Y0075275D03*
X0126711Y0075375D03*
X0126811Y0075675D03*
X0126811Y0075775D03*
X0126811Y0075875D03*
X0126811Y0075975D03*
X0126811Y0076075D03*
X0121011Y0073175D03*
X0120911Y0072975D03*
X0120811Y0072775D03*
X0120711Y0072575D03*
X0120611Y0072375D03*
X0120511Y0072175D03*
X0120411Y0071975D03*
X0120311Y0071775D03*
X0120211Y0071575D03*
X0120111Y0071375D03*
X0120011Y0071275D03*
X0120011Y0071175D03*
X0119911Y0071075D03*
X0119911Y0070975D03*
X0119811Y0070775D03*
X0119711Y0070575D03*
X0114911Y0069975D03*
X0109011Y0068575D03*
X0121811Y0062375D03*
X0140111Y0066275D03*
X0140211Y0068775D03*
X0141111Y0070975D03*
X0150311Y0060375D03*
X0159511Y0067875D03*
X0159511Y0067975D03*
X0159411Y0069175D03*
X0166711Y0076075D03*
X0172311Y0072975D03*
X0172811Y0072675D03*
D46*
X0167861Y0074875D03*
X0161261Y0071475D03*
X0161261Y0071375D03*
X0161361Y0071275D03*
X0161161Y0071575D03*
X0161561Y0070875D03*
X0162661Y0063975D03*
X0150361Y0075375D03*
X0150361Y0075475D03*
X0150361Y0075575D03*
X0150261Y0075675D03*
X0150261Y0075775D03*
X0141561Y0063975D03*
X0141561Y0063875D03*
X0131561Y0067275D03*
X0131461Y0060375D03*
X0121061Y0063675D03*
D47*
X0119661Y0069675D03*
X0115461Y0074875D03*
X0109361Y0069575D03*
X0109261Y0069475D03*
X0109161Y0069375D03*
X0109061Y0069275D03*
X0140761Y0069675D03*
X0141561Y0060675D03*
X0141561Y0060575D03*
X0141561Y0060475D03*
X0151361Y0070775D03*
X0151261Y0070875D03*
X0151161Y0070975D03*
X0151061Y0071075D03*
X0168061Y0071475D03*
X0168161Y0071375D03*
X0168261Y0071175D03*
X0173161Y0070775D03*
D48*
X0162861Y0064175D03*
X0161461Y0070475D03*
X0151061Y0072975D03*
X0150961Y0073075D03*
X0150961Y0073175D03*
X0131661Y0066575D03*
X0131661Y0066475D03*
X0131161Y0060475D03*
X0121261Y0064375D03*
D49*
X0121461Y0065075D03*
X0130861Y0060575D03*
X0131761Y0065875D03*
X0161561Y0069775D03*
X0163061Y0064375D03*
X0171461Y0068775D03*
D50*
X0170311Y0067675D03*
X0168211Y0071275D03*
X0167011Y0075675D03*
X0161911Y0063275D03*
X0150811Y0060675D03*
X0152011Y0069975D03*
X0151911Y0070075D03*
X0151711Y0070375D03*
X0151611Y0070475D03*
X0151511Y0070575D03*
X0151411Y0070675D03*
X0142011Y0074875D03*
X0140711Y0069575D03*
X0140711Y0069475D03*
X0140711Y0069375D03*
X0119711Y0069575D03*
X0115411Y0074775D03*
X0109011Y0069175D03*
X0108911Y0069075D03*
D51*
X0112511Y0070375D03*
X0112611Y0070475D03*
X0121711Y0065975D03*
X0121711Y0065875D03*
X0130611Y0060675D03*
X0131611Y0064375D03*
X0131711Y0064675D03*
X0131811Y0064975D03*
X0131811Y0065075D03*
X0152211Y0066375D03*
X0152211Y0066475D03*
X0152211Y0066575D03*
X0152311Y0066175D03*
X0152311Y0066075D03*
X0152311Y0065975D03*
X0152311Y0065875D03*
X0152411Y0065475D03*
X0171411Y0069575D03*
X0171511Y0069375D03*
X0171511Y0069275D03*
D52*
X0167111Y0075575D03*
X0160011Y0075975D03*
X0153211Y0068475D03*
X0153311Y0068375D03*
X0151011Y0060775D03*
X0162011Y0063375D03*
X0142111Y0074675D03*
X0133911Y0075275D03*
X0121411Y0062775D03*
X0119711Y0069175D03*
D53*
X0119661Y0069475D03*
X0115361Y0074675D03*
X0121461Y0062675D03*
X0133861Y0075375D03*
X0141561Y0060975D03*
X0141561Y0060875D03*
X0141561Y0060775D03*
X0152061Y0069875D03*
X0152161Y0069775D03*
X0152261Y0069675D03*
X0152361Y0069575D03*
X0151861Y0070175D03*
X0151761Y0070275D03*
D54*
X0152511Y0064975D03*
X0152511Y0064875D03*
X0152511Y0064775D03*
X0152511Y0064675D03*
X0152611Y0064575D03*
X0152611Y0064475D03*
X0152611Y0064375D03*
X0152611Y0064275D03*
X0171211Y0069975D03*
X0171211Y0070075D03*
X0171311Y0069775D03*
X0131211Y0063075D03*
X0131111Y0062775D03*
X0131011Y0062375D03*
X0130911Y0062075D03*
X0130811Y0061775D03*
X0130811Y0061675D03*
X0130711Y0061475D03*
X0130711Y0061375D03*
X0130611Y0061075D03*
X0130611Y0060975D03*
X0130511Y0060775D03*
X0121811Y0066175D03*
X0121811Y0066275D03*
X0112911Y0071275D03*
D55*
X0115161Y0074175D03*
X0119661Y0068875D03*
X0133861Y0075175D03*
X0142161Y0074475D03*
X0141561Y0061775D03*
X0141561Y0061675D03*
X0151161Y0060875D03*
X0170561Y0067875D03*
D56*
X0171461Y0069475D03*
X0171361Y0069675D03*
X0171261Y0069875D03*
X0163361Y0064675D03*
X0152861Y0061975D03*
X0152461Y0065075D03*
X0152461Y0065175D03*
X0152461Y0065275D03*
X0152461Y0065375D03*
X0152361Y0065575D03*
X0152361Y0065675D03*
X0152361Y0065775D03*
X0131761Y0064875D03*
X0131761Y0064775D03*
X0131661Y0064575D03*
X0131661Y0064475D03*
X0131561Y0064275D03*
X0131561Y0064175D03*
X0131561Y0064075D03*
X0131461Y0063975D03*
X0131461Y0063875D03*
X0131461Y0063775D03*
X0131361Y0063675D03*
X0131361Y0063575D03*
X0131361Y0063475D03*
X0131261Y0063375D03*
X0131261Y0063275D03*
X0131261Y0063175D03*
X0131161Y0062975D03*
X0131161Y0062875D03*
X0131061Y0062675D03*
X0131061Y0062575D03*
X0131061Y0062475D03*
X0130961Y0062275D03*
X0130961Y0062175D03*
X0130861Y0061975D03*
X0130861Y0061875D03*
X0130761Y0061575D03*
X0130661Y0061275D03*
X0130661Y0061175D03*
X0130561Y0060875D03*
X0121761Y0066075D03*
X0112461Y0070275D03*
X0112361Y0070175D03*
D57*
X0111261Y0072675D03*
X0114961Y0073775D03*
X0121161Y0062975D03*
X0141561Y0062375D03*
X0141561Y0062275D03*
X0141561Y0062175D03*
X0151361Y0060975D03*
D58*
X0151511Y0061075D03*
X0159811Y0075375D03*
X0167511Y0075175D03*
X0170811Y0068075D03*
X0133911Y0074875D03*
D59*
X0119661Y0069275D03*
X0115261Y0074475D03*
X0141561Y0061275D03*
X0141561Y0061175D03*
X0141561Y0061075D03*
X0152661Y0069175D03*
X0152761Y0069075D03*
X0152861Y0068975D03*
X0152961Y0068875D03*
X0152961Y0068775D03*
X0153061Y0068675D03*
X0153161Y0068575D03*
X0170461Y0067775D03*
D60*
X0167611Y0075075D03*
X0159811Y0074875D03*
X0159811Y0074775D03*
X0151611Y0061175D03*
X0141611Y0063275D03*
X0133811Y0074075D03*
X0133811Y0074175D03*
X0133911Y0074275D03*
X0134011Y0074575D03*
D61*
X0135461Y0079375D03*
X0135461Y0079475D03*
X0135461Y0079575D03*
X0135461Y0079675D03*
X0135461Y0079775D03*
X0135461Y0079875D03*
X0135461Y0079975D03*
X0135461Y0080075D03*
X0135461Y0080175D03*
X0135461Y0080275D03*
X0135461Y0080375D03*
X0135461Y0080475D03*
X0135461Y0080575D03*
X0135461Y0080675D03*
X0135461Y0080775D03*
X0135461Y0080875D03*
X0135461Y0080975D03*
X0135461Y0081075D03*
X0135461Y0081175D03*
X0135461Y0081275D03*
X0135461Y0081375D03*
X0135461Y0081475D03*
X0135461Y0081575D03*
X0136661Y0099275D03*
X0136661Y0099375D03*
X0136661Y0099475D03*
X0136661Y0099575D03*
X0136661Y0099675D03*
X0136661Y0099775D03*
X0136661Y0099875D03*
X0136661Y0099975D03*
X0136661Y0100075D03*
X0136661Y0100175D03*
X0136661Y0100275D03*
X0136661Y0100375D03*
X0167761Y0074975D03*
X0168761Y0074175D03*
X0151761Y0061275D03*
X0141561Y0063675D03*
X0141561Y0063775D03*
X0120961Y0063375D03*
D62*
X0121161Y0063875D03*
X0141661Y0064375D03*
X0141761Y0064675D03*
X0141761Y0064775D03*
X0141761Y0065875D03*
X0141761Y0065975D03*
X0151961Y0061375D03*
X0162761Y0064075D03*
X0160861Y0071975D03*
X0160761Y0072075D03*
X0160661Y0072275D03*
X0160561Y0072475D03*
X0160561Y0072575D03*
X0160461Y0072675D03*
X0160461Y0072775D03*
X0167861Y0074775D03*
X0168161Y0074475D03*
X0150561Y0074575D03*
X0150561Y0074675D03*
X0150561Y0074775D03*
X0150461Y0074975D03*
D63*
X0142161Y0074575D03*
X0141561Y0061575D03*
X0141561Y0061475D03*
X0141561Y0061375D03*
X0119661Y0069075D03*
X0115261Y0074375D03*
D64*
X0121211Y0064275D03*
X0121211Y0064175D03*
X0131611Y0066675D03*
X0150911Y0073275D03*
X0150911Y0073375D03*
X0150911Y0073475D03*
X0150811Y0073575D03*
X0150811Y0073675D03*
X0151111Y0072875D03*
X0161511Y0070575D03*
X0152111Y0061475D03*
D65*
X0143911Y0072075D03*
X0135411Y0071475D03*
X0123011Y0061475D03*
X0109711Y0066775D03*
X0166911Y0073675D03*
D66*
X0161461Y0070275D03*
X0162961Y0064275D03*
X0152261Y0061575D03*
X0131661Y0066275D03*
X0131661Y0066375D03*
X0121361Y0064675D03*
D67*
X0121411Y0064975D03*
X0131711Y0065975D03*
X0152411Y0061675D03*
X0161511Y0069875D03*
X0161511Y0069975D03*
D68*
X0161661Y0062575D03*
X0122761Y0061675D03*
D69*
X0121561Y0065375D03*
X0113161Y0071075D03*
X0131761Y0065675D03*
X0131761Y0065575D03*
X0151761Y0068275D03*
X0152561Y0061775D03*
X0163161Y0064475D03*
D70*
X0163211Y0064575D03*
X0152711Y0061875D03*
X0152111Y0066975D03*
X0152111Y0067075D03*
X0152111Y0067175D03*
X0152011Y0067375D03*
X0152011Y0067475D03*
X0152011Y0067575D03*
X0152011Y0067675D03*
X0131811Y0065275D03*
X0121711Y0065775D03*
X0112811Y0070675D03*
X0112711Y0070575D03*
D71*
X0115661Y0069575D03*
X0109361Y0067675D03*
X0122461Y0061875D03*
X0143361Y0072875D03*
D72*
X0152861Y0062975D03*
X0152961Y0062475D03*
X0152961Y0062375D03*
X0152961Y0062275D03*
X0152961Y0062175D03*
X0152961Y0062075D03*
X0162461Y0066675D03*
X0162461Y0066775D03*
X0162561Y0066575D03*
X0121861Y0066775D03*
X0121861Y0066875D03*
D73*
X0122211Y0062075D03*
X0133911Y0076175D03*
X0140211Y0072675D03*
X0140311Y0072575D03*
X0167411Y0070875D03*
D74*
X0162361Y0063675D03*
X0159761Y0075475D03*
X0141561Y0062675D03*
X0141561Y0062575D03*
X0141561Y0062475D03*
X0111261Y0072575D03*
D75*
X0121911Y0066675D03*
X0121911Y0066575D03*
X0121911Y0066475D03*
X0152811Y0063375D03*
X0152811Y0063275D03*
X0152811Y0063175D03*
X0152811Y0063075D03*
X0152911Y0062875D03*
X0152911Y0062775D03*
X0152911Y0062675D03*
X0152911Y0062575D03*
X0162611Y0066375D03*
X0162611Y0066475D03*
X0162711Y0066275D03*
X0162711Y0066175D03*
X0162811Y0066075D03*
X0162811Y0065975D03*
X0162911Y0065875D03*
X0162911Y0065775D03*
X0163011Y0065675D03*
X0163011Y0065575D03*
X0163111Y0065375D03*
X0163211Y0065175D03*
X0163311Y0064975D03*
X0162411Y0066875D03*
X0162411Y0066975D03*
X0171011Y0070475D03*
D76*
X0168011Y0071575D03*
X0167911Y0071675D03*
X0167811Y0071775D03*
X0166911Y0075775D03*
X0151011Y0071175D03*
X0150911Y0071275D03*
X0150811Y0071375D03*
X0150711Y0071475D03*
X0150611Y0071575D03*
X0150311Y0071975D03*
X0142011Y0074975D03*
X0140711Y0070175D03*
X0140711Y0070075D03*
X0140711Y0069975D03*
X0140711Y0069875D03*
X0140711Y0069775D03*
X0140611Y0069275D03*
X0133911Y0075475D03*
X0121611Y0062575D03*
X0119711Y0069775D03*
X0115511Y0074975D03*
X0108911Y0068975D03*
D77*
X0143311Y0072975D03*
X0143911Y0066575D03*
X0161711Y0062775D03*
X0146011Y0095775D03*
X0146011Y0095875D03*
X0146011Y0095975D03*
X0146011Y0096075D03*
X0146011Y0096175D03*
X0146011Y0096275D03*
X0146011Y0096375D03*
X0146011Y0096475D03*
X0146011Y0096575D03*
X0146011Y0096675D03*
X0146011Y0096775D03*
X0146011Y0096875D03*
X0146011Y0099275D03*
X0146011Y0099375D03*
X0146011Y0099475D03*
X0146011Y0099575D03*
X0146011Y0099675D03*
X0146011Y0099775D03*
X0146011Y0099875D03*
X0146011Y0099975D03*
X0146011Y0100075D03*
X0146011Y0100175D03*
X0146011Y0100275D03*
X0146011Y0100375D03*
X0142511Y0108675D03*
X0142511Y0108775D03*
X0142511Y0108875D03*
X0142511Y0108975D03*
X0142511Y0109075D03*
X0142511Y0109175D03*
X0142511Y0109275D03*
X0142511Y0109375D03*
X0142511Y0109475D03*
X0142511Y0109575D03*
X0142511Y0109675D03*
X0142511Y0109775D03*
X0139011Y0109775D03*
X0139011Y0109675D03*
X0139011Y0109575D03*
X0139011Y0109475D03*
X0139011Y0109375D03*
X0139011Y0109275D03*
X0139011Y0109175D03*
X0139011Y0109075D03*
X0139011Y0108975D03*
X0139011Y0108875D03*
X0139011Y0108775D03*
X0139011Y0108675D03*
X0134311Y0109875D03*
X0134311Y0109975D03*
X0134311Y0110075D03*
X0134311Y0110175D03*
X0134311Y0110275D03*
X0134311Y0110375D03*
X0134311Y0110475D03*
X0134311Y0110575D03*
X0134311Y0110675D03*
X0134311Y0110775D03*
X0134311Y0110875D03*
D78*
X0133961Y0074775D03*
X0133261Y0073075D03*
X0133261Y0072975D03*
X0133161Y0072875D03*
X0133161Y0072775D03*
X0141561Y0062975D03*
X0141561Y0062875D03*
X0141561Y0062775D03*
X0121061Y0063075D03*
X0159761Y0075175D03*
X0159761Y0075275D03*
D79*
X0160411Y0076175D03*
X0157711Y0074075D03*
X0157811Y0073875D03*
X0157811Y0073775D03*
X0157911Y0073575D03*
X0157911Y0073475D03*
X0158011Y0073375D03*
X0158011Y0073275D03*
X0158111Y0073075D03*
X0166811Y0076275D03*
X0161711Y0062875D03*
X0139711Y0067975D03*
X0139711Y0068075D03*
X0139711Y0068175D03*
X0140611Y0072175D03*
X0140511Y0072275D03*
X0140211Y0072975D03*
X0116611Y0072975D03*
X0116611Y0073075D03*
X0116611Y0073175D03*
X0116611Y0073275D03*
X0116611Y0073375D03*
X0116611Y0073475D03*
X0116611Y0072875D03*
X0116011Y0076275D03*
X0109211Y0068075D03*
D80*
X0115111Y0074075D03*
X0119711Y0068775D03*
X0121311Y0062875D03*
X0142011Y0074075D03*
X0142111Y0074275D03*
X0142211Y0074375D03*
X0146611Y0081675D03*
X0146611Y0081775D03*
X0146611Y0081875D03*
X0146611Y0081975D03*
X0146611Y0082075D03*
X0146611Y0082175D03*
X0146611Y0082275D03*
X0146611Y0082375D03*
X0146611Y0082475D03*
X0146611Y0082575D03*
X0146611Y0082675D03*
X0146611Y0082775D03*
X0146611Y0082875D03*
X0146611Y0082975D03*
X0146611Y0083075D03*
X0146611Y0083175D03*
X0146611Y0083275D03*
X0146611Y0083375D03*
X0146611Y0083475D03*
X0146611Y0083575D03*
X0146611Y0083675D03*
X0146611Y0083775D03*
X0146611Y0083875D03*
X0146611Y0083975D03*
X0146611Y0084075D03*
X0146611Y0084175D03*
X0146611Y0084275D03*
X0146611Y0084375D03*
X0146611Y0084475D03*
X0146611Y0084575D03*
X0146611Y0084675D03*
X0146611Y0084775D03*
X0146611Y0084875D03*
X0146611Y0084975D03*
X0146611Y0085075D03*
X0146611Y0085175D03*
X0150911Y0075975D03*
X0172811Y0070675D03*
D81*
X0161761Y0062975D03*
X0139861Y0066575D03*
X0139961Y0068475D03*
X0141161Y0071475D03*
X0141061Y0071575D03*
X0141761Y0075675D03*
X0115061Y0069875D03*
X0112861Y0073075D03*
X0147761Y0103975D03*
X0147761Y0104075D03*
X0147761Y0104175D03*
X0147761Y0104275D03*
X0147761Y0104375D03*
X0147761Y0104475D03*
X0147761Y0104575D03*
X0147761Y0104675D03*
X0147761Y0104775D03*
X0147761Y0104875D03*
X0147761Y0104975D03*
X0147761Y0105075D03*
X0145461Y0109875D03*
X0145461Y0109975D03*
X0145461Y0110075D03*
X0145461Y0110175D03*
X0145461Y0110275D03*
X0145461Y0110375D03*
X0145461Y0110475D03*
X0145461Y0110575D03*
X0145461Y0110675D03*
X0145461Y0110775D03*
X0145461Y0110875D03*
X0134861Y0107375D03*
X0134861Y0107275D03*
X0134861Y0107175D03*
X0134861Y0107075D03*
X0134861Y0106975D03*
X0134861Y0106875D03*
X0134861Y0106775D03*
X0134861Y0106675D03*
X0134861Y0106575D03*
X0134861Y0106475D03*
X0134861Y0106375D03*
D82*
X0142511Y0110975D03*
X0142511Y0111075D03*
X0142511Y0111175D03*
X0142511Y0111275D03*
X0142511Y0111375D03*
X0142511Y0111475D03*
X0142511Y0111575D03*
X0142511Y0111675D03*
X0142511Y0111775D03*
X0142511Y0111875D03*
X0142511Y0111975D03*
X0142511Y0112075D03*
X0142511Y0090975D03*
X0142511Y0090875D03*
X0142511Y0090775D03*
X0142511Y0090675D03*
X0142511Y0090575D03*
X0142511Y0090475D03*
X0142511Y0090375D03*
X0142511Y0090275D03*
X0142511Y0090175D03*
X0142511Y0090075D03*
X0142511Y0089975D03*
X0142511Y0089875D03*
X0142511Y0089775D03*
X0142511Y0089675D03*
X0142511Y0089575D03*
X0142511Y0089475D03*
X0142511Y0089375D03*
X0142511Y0089275D03*
X0142511Y0089175D03*
X0142511Y0089075D03*
X0142511Y0088975D03*
X0142511Y0088875D03*
X0142511Y0088775D03*
X0149711Y0072675D03*
X0140811Y0070375D03*
X0125011Y0068975D03*
X0115511Y0075175D03*
X0109811Y0070075D03*
X0159611Y0069575D03*
X0159811Y0067475D03*
X0161811Y0063175D03*
X0170211Y0067575D03*
X0167511Y0072175D03*
X0167411Y0072275D03*
D83*
X0159761Y0074675D03*
X0162561Y0063875D03*
X0141561Y0063475D03*
X0141561Y0063375D03*
X0133961Y0074375D03*
X0133961Y0074475D03*
X0120961Y0063175D03*
D84*
X0120911Y0063275D03*
X0141611Y0063575D03*
X0147211Y0079375D03*
X0147211Y0079475D03*
X0147211Y0079575D03*
X0147211Y0079675D03*
X0147211Y0079775D03*
X0147211Y0079875D03*
X0147211Y0079975D03*
X0147211Y0080075D03*
X0147211Y0080175D03*
X0147211Y0080275D03*
X0147211Y0080375D03*
X0147211Y0080475D03*
X0147211Y0080575D03*
X0147211Y0080675D03*
X0147211Y0080775D03*
X0147211Y0080875D03*
X0147211Y0080975D03*
X0147211Y0081075D03*
X0147211Y0081175D03*
X0147211Y0081275D03*
X0147211Y0081375D03*
X0147211Y0081475D03*
X0147211Y0081575D03*
X0159811Y0074575D03*
X0159811Y0074475D03*
X0169011Y0074075D03*
X0171011Y0068275D03*
X0142511Y0096975D03*
X0142511Y0097075D03*
X0142511Y0097175D03*
X0142511Y0097275D03*
X0142511Y0097375D03*
X0142511Y0097475D03*
X0142511Y0097575D03*
X0142511Y0097675D03*
X0142511Y0097775D03*
X0142511Y0097875D03*
X0142511Y0097975D03*
D85*
X0167211Y0075475D03*
X0162111Y0063475D03*
X0119711Y0068975D03*
X0115211Y0074275D03*
D86*
X0121861Y0066375D03*
X0152661Y0064175D03*
X0152661Y0064075D03*
X0152661Y0063975D03*
X0152661Y0063875D03*
X0152761Y0063775D03*
X0152761Y0063675D03*
X0152761Y0063575D03*
X0152761Y0063475D03*
X0162261Y0067275D03*
X0162261Y0067375D03*
X0162361Y0067175D03*
X0162361Y0067075D03*
X0163061Y0065475D03*
X0163161Y0065275D03*
X0163261Y0065075D03*
X0163361Y0064875D03*
X0163361Y0064775D03*
X0171061Y0070275D03*
X0171061Y0070375D03*
X0170961Y0070575D03*
X0171161Y0070175D03*
D87*
X0168611Y0074275D03*
X0161511Y0071075D03*
X0161511Y0070975D03*
X0161411Y0071175D03*
X0159811Y0074375D03*
X0150311Y0075875D03*
X0121011Y0063575D03*
X0121011Y0063475D03*
D88*
X0115011Y0073875D03*
X0111311Y0072775D03*
X0159811Y0075875D03*
X0170711Y0067975D03*
X0162211Y0063575D03*
D89*
X0162411Y0063775D03*
X0170911Y0068175D03*
X0159811Y0075075D03*
X0133511Y0073475D03*
X0133411Y0073375D03*
X0133411Y0073275D03*
X0133311Y0073175D03*
D90*
X0131611Y0067175D03*
X0131611Y0067075D03*
X0141711Y0066075D03*
X0141711Y0064575D03*
X0141711Y0064475D03*
X0141611Y0064275D03*
X0141611Y0064175D03*
X0141611Y0064075D03*
X0150511Y0074875D03*
X0150411Y0075075D03*
X0150411Y0075175D03*
X0150411Y0075275D03*
X0160411Y0072875D03*
X0160911Y0071875D03*
X0161011Y0071775D03*
X0161111Y0071675D03*
X0161511Y0070775D03*
X0168411Y0074375D03*
X0171111Y0068375D03*
X0121111Y0063775D03*
D91*
X0121111Y0063975D03*
X0131611Y0066875D03*
X0131611Y0066975D03*
X0141811Y0065775D03*
X0141811Y0065675D03*
X0141811Y0065075D03*
X0141811Y0064975D03*
X0141811Y0064875D03*
X0150711Y0074075D03*
X0150711Y0074175D03*
X0150611Y0074275D03*
X0150611Y0074375D03*
X0150611Y0074475D03*
X0160611Y0072375D03*
X0160711Y0072175D03*
X0161511Y0070675D03*
X0167911Y0074675D03*
X0168011Y0074575D03*
X0171211Y0068475D03*
D92*
X0151161Y0072775D03*
X0150761Y0073775D03*
X0150761Y0073875D03*
X0150761Y0073975D03*
X0141861Y0065575D03*
X0141861Y0065475D03*
X0141861Y0065375D03*
X0141861Y0065275D03*
X0141861Y0065175D03*
X0131661Y0066775D03*
X0121161Y0064075D03*
D93*
X0121311Y0064475D03*
X0121311Y0064575D03*
X0161511Y0070375D03*
X0171311Y0068575D03*
D94*
X0171411Y0068675D03*
X0131711Y0066175D03*
X0121411Y0064875D03*
X0121411Y0064775D03*
D95*
X0113061Y0071175D03*
X0131761Y0065175D03*
X0152061Y0067275D03*
X0152161Y0066875D03*
X0152161Y0066775D03*
X0152161Y0066675D03*
X0152261Y0066275D03*
X0171561Y0069175D03*
X0171661Y0069075D03*
X0171661Y0068975D03*
D96*
X0131711Y0065775D03*
X0121511Y0065275D03*
X0121511Y0065175D03*
D97*
X0121661Y0065675D03*
X0112961Y0070875D03*
X0112861Y0070775D03*
X0131761Y0065475D03*
X0131761Y0065375D03*
X0151861Y0068075D03*
X0151961Y0067975D03*
X0151961Y0067875D03*
X0151961Y0067775D03*
D98*
X0151811Y0068175D03*
X0171611Y0068875D03*
X0121611Y0065575D03*
X0121611Y0065475D03*
X0113111Y0070975D03*
D99*
X0131661Y0066075D03*
X0161461Y0070075D03*
X0161461Y0070175D03*
D100*
X0159311Y0068975D03*
X0159311Y0068775D03*
X0159311Y0068675D03*
X0159311Y0068575D03*
X0164511Y0068575D03*
X0164611Y0068375D03*
X0164711Y0068175D03*
X0164711Y0068075D03*
X0164811Y0067975D03*
X0164811Y0067875D03*
X0164911Y0067775D03*
X0164911Y0067675D03*
X0165011Y0067575D03*
X0165011Y0067475D03*
X0169911Y0067375D03*
X0173411Y0071575D03*
X0173311Y0071775D03*
X0173311Y0071875D03*
X0173211Y0072075D03*
X0173211Y0072175D03*
X0173111Y0072275D03*
X0173111Y0072375D03*
X0171811Y0073275D03*
X0171611Y0073375D03*
X0171511Y0073475D03*
X0171311Y0073575D03*
X0171211Y0073675D03*
X0171011Y0073775D03*
X0167011Y0073175D03*
X0166611Y0076175D03*
X0141111Y0071075D03*
X0140111Y0068675D03*
X0140011Y0066375D03*
X0131111Y0070975D03*
X0131111Y0071075D03*
X0131211Y0071275D03*
X0131211Y0071375D03*
X0131311Y0071575D03*
X0131411Y0071875D03*
X0131511Y0072175D03*
X0131611Y0072275D03*
X0122011Y0075575D03*
X0121911Y0075275D03*
X0121511Y0074275D03*
X0115711Y0076075D03*
X0109111Y0068475D03*
D101*
X0143861Y0068475D03*
X0143861Y0068375D03*
X0153561Y0076375D03*
X0168461Y0073475D03*
X0168561Y0066675D03*
D102*
X0143861Y0068575D03*
X0135461Y0071275D03*
X0109761Y0066675D03*
D103*
X0135361Y0071775D03*
X0142561Y0076075D03*
X0143761Y0072275D03*
X0143861Y0067875D03*
X0147861Y0068775D03*
X0168761Y0066775D03*
D104*
X0143861Y0068175D03*
X0143861Y0068275D03*
X0135361Y0071575D03*
X0120361Y0075675D03*
X0109661Y0066875D03*
D105*
X0112811Y0071375D03*
X0121911Y0067275D03*
X0121911Y0067175D03*
X0121911Y0067075D03*
X0121911Y0066975D03*
D106*
X0143911Y0067075D03*
X0152911Y0076275D03*
X0160611Y0076275D03*
D107*
X0143711Y0072375D03*
X0143911Y0067775D03*
X0135311Y0071875D03*
X0134511Y0076375D03*
X0128611Y0067775D03*
X0109611Y0067075D03*
D108*
X0109461Y0067475D03*
X0135261Y0072375D03*
X0142261Y0075975D03*
X0143961Y0067175D03*
X0166661Y0073975D03*
D109*
X0169711Y0067275D03*
X0141011Y0071675D03*
X0140911Y0071775D03*
X0141711Y0075775D03*
X0133911Y0075975D03*
X0139911Y0068375D03*
X0113011Y0073175D03*
D110*
X0109511Y0067275D03*
X0128811Y0067675D03*
X0135311Y0072175D03*
X0143911Y0067475D03*
X0143911Y0067375D03*
X0168011Y0073375D03*
X0167411Y0076375D03*
D111*
X0168011Y0071075D03*
X0170011Y0067475D03*
X0160211Y0076075D03*
X0141011Y0070775D03*
X0140311Y0068875D03*
X0133111Y0067375D03*
X0133011Y0067475D03*
X0133011Y0067575D03*
X0132911Y0067675D03*
X0132811Y0067875D03*
X0132711Y0067975D03*
X0132711Y0068075D03*
X0132611Y0068175D03*
X0132511Y0068375D03*
X0132411Y0068475D03*
X0132311Y0068675D03*
X0132211Y0068875D03*
X0132011Y0069175D03*
X0131911Y0072675D03*
X0126411Y0073875D03*
X0126411Y0073975D03*
X0126311Y0073575D03*
X0126311Y0073475D03*
X0126211Y0073275D03*
X0126211Y0073175D03*
X0126211Y0073075D03*
X0126111Y0072975D03*
X0126111Y0072875D03*
X0126111Y0072775D03*
X0126011Y0072475D03*
X0126011Y0072375D03*
X0125911Y0072075D03*
X0115611Y0075575D03*
X0109011Y0068675D03*
D112*
X0121961Y0067475D03*
X0121961Y0067375D03*
D113*
X0121911Y0067575D03*
X0121911Y0067675D03*
D114*
X0121961Y0067775D03*
X0121961Y0067875D03*
X0121961Y0067975D03*
X0121961Y0068075D03*
X0112661Y0071475D03*
X0113061Y0072475D03*
D115*
X0116211Y0069275D03*
X0128411Y0067875D03*
X0143811Y0072175D03*
X0147611Y0068875D03*
X0160911Y0076375D03*
D116*
X0167511Y0073275D03*
X0133911Y0076275D03*
X0115411Y0069675D03*
X0109311Y0067875D03*
D117*
X0115661Y0075875D03*
X0115661Y0075975D03*
X0121061Y0073375D03*
X0121061Y0073275D03*
X0121161Y0073475D03*
X0121161Y0073575D03*
X0121261Y0073675D03*
X0121261Y0073775D03*
X0121361Y0073875D03*
X0121361Y0073975D03*
X0121461Y0074075D03*
X0121461Y0074175D03*
X0121561Y0074375D03*
X0121561Y0074475D03*
X0121661Y0074575D03*
X0121661Y0074675D03*
X0121761Y0074775D03*
X0121761Y0074875D03*
X0121761Y0074975D03*
X0121861Y0075075D03*
X0121861Y0075175D03*
X0121961Y0075375D03*
X0121961Y0075475D03*
X0120961Y0073075D03*
X0120861Y0072875D03*
X0120761Y0072675D03*
X0120661Y0072475D03*
X0120561Y0072275D03*
X0120461Y0072075D03*
X0120361Y0071875D03*
X0120261Y0071675D03*
X0120161Y0071475D03*
X0131661Y0072375D03*
X0131761Y0072475D03*
X0141861Y0075475D03*
X0159361Y0069075D03*
X0159361Y0068475D03*
X0159361Y0068375D03*
X0159461Y0068275D03*
X0159461Y0068175D03*
X0159461Y0068075D03*
X0170761Y0073875D03*
X0171961Y0073175D03*
X0172161Y0073075D03*
X0172461Y0072875D03*
X0172661Y0072775D03*
X0172961Y0072575D03*
X0173261Y0071975D03*
X0173361Y0071675D03*
X0173461Y0071475D03*
X0173461Y0071375D03*
X0173561Y0071275D03*
X0173561Y0071175D03*
X0173561Y0071075D03*
X0173661Y0070975D03*
D118*
X0122011Y0068275D03*
X0122011Y0068175D03*
D119*
X0121961Y0068375D03*
X0121961Y0068475D03*
X0112961Y0072375D03*
D120*
X0112911Y0072275D03*
X0122011Y0068675D03*
X0122011Y0068575D03*
D121*
X0119661Y0069975D03*
X0119661Y0070075D03*
X0124961Y0068875D03*
X0124961Y0068775D03*
X0125061Y0069075D03*
X0125061Y0069175D03*
X0125061Y0069275D03*
X0125161Y0069375D03*
X0125161Y0069475D03*
X0125161Y0069575D03*
X0125261Y0069775D03*
X0125261Y0069875D03*
X0125361Y0070175D03*
X0115561Y0075275D03*
X0133861Y0075575D03*
X0141961Y0075175D03*
X0140861Y0070475D03*
X0140461Y0069075D03*
X0151561Y0076075D03*
X0159561Y0069475D03*
X0166861Y0075875D03*
X0167161Y0072575D03*
X0167261Y0072475D03*
X0167361Y0072375D03*
X0170361Y0073975D03*
D122*
X0112861Y0072175D03*
X0112561Y0071575D03*
D123*
X0112511Y0071675D03*
X0112611Y0071875D03*
D124*
X0112461Y0071775D03*
D125*
X0112661Y0071975D03*
X0112761Y0072075D03*
D126*
X0114911Y0073675D03*
X0133811Y0074975D03*
X0159811Y0075575D03*
X0159811Y0075675D03*
X0159811Y0075775D03*
X0167411Y0075275D03*
D127*
X0141911Y0085275D03*
X0141911Y0085375D03*
X0141911Y0085475D03*
X0141911Y0085575D03*
X0141911Y0085675D03*
X0141911Y0085775D03*
X0141911Y0085875D03*
X0141911Y0085975D03*
X0141911Y0086075D03*
X0141911Y0086175D03*
X0141911Y0086275D03*
X0141911Y0086375D03*
X0141911Y0086475D03*
X0141911Y0086575D03*
X0141911Y0086675D03*
X0141911Y0086775D03*
X0141911Y0086875D03*
X0141911Y0086975D03*
X0141911Y0087075D03*
X0141911Y0087175D03*
X0141911Y0087275D03*
X0141911Y0087375D03*
X0141911Y0087475D03*
X0141911Y0092275D03*
X0141911Y0092375D03*
X0141911Y0092475D03*
X0141911Y0092575D03*
X0141911Y0092675D03*
X0141911Y0092775D03*
X0141911Y0092875D03*
X0141911Y0092975D03*
X0141911Y0093075D03*
X0141911Y0093175D03*
X0141911Y0093275D03*
X0141911Y0093375D03*
D128*
X0142511Y0088675D03*
X0142511Y0088575D03*
X0142511Y0088475D03*
X0142511Y0088375D03*
X0142511Y0088275D03*
X0142511Y0088175D03*
X0142511Y0088075D03*
X0142511Y0087975D03*
X0142511Y0087875D03*
X0142511Y0087775D03*
X0142511Y0087675D03*
X0142511Y0087575D03*
X0142511Y0105175D03*
X0142511Y0105275D03*
X0142511Y0105375D03*
X0142511Y0105475D03*
X0142511Y0105575D03*
X0142511Y0105675D03*
X0142511Y0105775D03*
X0142511Y0105875D03*
X0142511Y0105975D03*
X0142511Y0106075D03*
X0142511Y0106175D03*
X0142511Y0106275D03*
D129*
X0143661Y0106375D03*
X0143661Y0106475D03*
X0143661Y0106575D03*
X0143661Y0106675D03*
X0143661Y0106775D03*
X0143661Y0106875D03*
X0143661Y0106975D03*
X0143661Y0107075D03*
X0143661Y0107175D03*
X0143661Y0107275D03*
X0143661Y0107375D03*
X0143661Y0107475D03*
X0143661Y0107575D03*
X0143661Y0107675D03*
X0143661Y0107775D03*
X0143661Y0107875D03*
X0143661Y0107975D03*
X0143661Y0108075D03*
X0143661Y0108175D03*
X0143661Y0108275D03*
X0143661Y0108375D03*
X0143661Y0108475D03*
X0143661Y0108575D03*
X0141361Y0092175D03*
X0141361Y0092075D03*
X0141361Y0091975D03*
X0141361Y0091875D03*
X0141361Y0091775D03*
X0141361Y0091675D03*
X0141361Y0091575D03*
X0141361Y0091475D03*
X0141361Y0091375D03*
X0141361Y0091275D03*
X0141361Y0091175D03*
X0141361Y0091075D03*
D130*
X0141361Y0093475D03*
X0141361Y0093575D03*
X0141361Y0093675D03*
X0141361Y0093775D03*
X0141361Y0093875D03*
X0141361Y0093975D03*
X0141361Y0094075D03*
X0141361Y0094175D03*
X0141361Y0094275D03*
X0141361Y0094375D03*
X0141361Y0094475D03*
X0140161Y0098175D03*
X0140161Y0098275D03*
X0140161Y0098375D03*
X0140161Y0098475D03*
X0140161Y0098575D03*
X0140161Y0098675D03*
X0140161Y0098775D03*
X0140161Y0098875D03*
X0140161Y0098975D03*
X0140161Y0099075D03*
X0140161Y0099175D03*
D131*
X0140761Y0095675D03*
X0140761Y0095575D03*
X0140761Y0095475D03*
X0140761Y0095375D03*
X0140761Y0095275D03*
X0140761Y0095175D03*
X0140761Y0095075D03*
X0140761Y0094975D03*
X0140761Y0094875D03*
X0140761Y0094775D03*
X0140761Y0094675D03*
X0140761Y0094575D03*
D132*
X0141311Y0098075D03*
D133*
X0183660Y0174734D03*
X0189460Y0174734D03*
X0189460Y0182608D03*
X0183660Y0182608D03*
D134*
X0244094Y0154122D02*
X0244094Y0146122D01*
X0117642Y0120465D02*
X0117642Y0110619D01*
X0117640Y0110549D01*
X0117634Y0110480D01*
X0117624Y0110410D01*
X0117611Y0110342D01*
X0117593Y0110274D01*
X0117572Y0110208D01*
X0117547Y0110143D01*
X0117519Y0110079D01*
X0117487Y0110017D01*
X0117451Y0109957D01*
X0117412Y0109899D01*
X0117370Y0109843D01*
X0117325Y0109789D01*
X0117277Y0109739D01*
X0117227Y0109691D01*
X0117173Y0109646D01*
X0117117Y0109604D01*
X0117059Y0109565D01*
X0116999Y0109529D01*
X0116937Y0109497D01*
X0116873Y0109469D01*
X0116808Y0109444D01*
X0116742Y0109423D01*
X0116674Y0109405D01*
X0116606Y0109392D01*
X0116536Y0109382D01*
X0116467Y0109376D01*
X0116397Y0109374D01*
X0098837Y0109374D01*
X0098779Y0109376D01*
X0098722Y0109382D01*
X0098665Y0109391D01*
X0098609Y0109404D01*
X0098554Y0109421D01*
X0098500Y0109441D01*
X0098448Y0109465D01*
X0098397Y0109492D01*
X0098348Y0109522D01*
X0098301Y0109556D01*
X0098257Y0109592D01*
X0098215Y0109632D01*
X0098175Y0109674D01*
X0098139Y0109718D01*
X0098105Y0109765D01*
X0098075Y0109814D01*
X0098048Y0109865D01*
X0098024Y0109917D01*
X0098004Y0109971D01*
X0097987Y0110026D01*
X0097974Y0110082D01*
X0097965Y0110139D01*
X0097959Y0110196D01*
X0097957Y0110254D01*
X0097957Y0120465D01*
X0097948Y0120536D01*
X0097943Y0120608D01*
X0097942Y0120680D01*
X0097945Y0120751D01*
X0097952Y0120823D01*
X0097962Y0120894D01*
X0097977Y0120964D01*
X0097995Y0121034D01*
X0098017Y0121102D01*
X0098043Y0121169D01*
X0098072Y0121234D01*
X0098105Y0121298D01*
X0098141Y0121360D01*
X0098180Y0121420D01*
X0098223Y0121478D01*
X0098269Y0121533D01*
X0098317Y0121586D01*
X0098369Y0121636D01*
X0098423Y0121683D01*
X0098479Y0121727D01*
X0098538Y0121769D01*
X0098599Y0121806D01*
X0098662Y0121841D01*
X0098727Y0121872D01*
X0098793Y0121899D01*
X0098861Y0121923D01*
X0098930Y0121943D01*
X0098999Y0121960D01*
X0099070Y0121972D01*
X0116528Y0121972D01*
X0116599Y0121960D01*
X0116668Y0121943D01*
X0116737Y0121923D01*
X0116805Y0121899D01*
X0116871Y0121872D01*
X0116936Y0121841D01*
X0116999Y0121806D01*
X0117060Y0121769D01*
X0117119Y0121727D01*
X0117175Y0121683D01*
X0117229Y0121636D01*
X0117281Y0121586D01*
X0117329Y0121533D01*
X0117375Y0121478D01*
X0117418Y0121420D01*
X0117457Y0121360D01*
X0117493Y0121298D01*
X0117526Y0121234D01*
X0117555Y0121169D01*
X0117581Y0121102D01*
X0117603Y0121034D01*
X0117621Y0120964D01*
X0117636Y0120894D01*
X0117646Y0120823D01*
X0117653Y0120751D01*
X0117656Y0120680D01*
X0117655Y0120608D01*
X0117650Y0120536D01*
X0117641Y0120465D01*
X0115673Y0118823D02*
X0115673Y0113311D01*
X0115672Y0113311D02*
X0115678Y0113211D01*
X0115680Y0113110D01*
X0115678Y0113009D01*
X0115672Y0112908D01*
X0115662Y0112808D01*
X0115648Y0112708D01*
X0115630Y0112609D01*
X0115608Y0112511D01*
X0115582Y0112413D01*
X0115553Y0112317D01*
X0115520Y0112222D01*
X0115483Y0112128D01*
X0115442Y0112036D01*
X0115398Y0111945D01*
X0115350Y0111857D01*
X0115299Y0111770D01*
X0115245Y0111685D01*
X0115187Y0111602D01*
X0115126Y0111522D01*
X0115062Y0111444D01*
X0114995Y0111369D01*
X0114925Y0111297D01*
X0114852Y0111227D01*
X0114777Y0111160D01*
X0114699Y0111096D01*
X0114618Y0111036D01*
X0114536Y0110978D01*
X0114451Y0110924D01*
X0114364Y0110873D01*
X0114275Y0110826D01*
X0114184Y0110782D01*
X0114092Y0110742D01*
X0113998Y0110705D01*
X0113902Y0110672D01*
X0113806Y0110643D01*
X0113708Y0110618D01*
X0113610Y0110597D01*
X0113511Y0110579D01*
X0113411Y0110565D01*
X0113311Y0110556D01*
X0113311Y0110555D02*
X0102287Y0110555D01*
X0102192Y0110557D01*
X0102097Y0110563D01*
X0102002Y0110572D01*
X0101908Y0110586D01*
X0101815Y0110603D01*
X0101722Y0110624D01*
X0101630Y0110648D01*
X0101539Y0110677D01*
X0101449Y0110708D01*
X0101361Y0110744D01*
X0101274Y0110783D01*
X0101189Y0110826D01*
X0101106Y0110871D01*
X0101025Y0110921D01*
X0100945Y0110973D01*
X0100868Y0111029D01*
X0100793Y0111087D01*
X0100721Y0111149D01*
X0100651Y0111214D01*
X0100584Y0111281D01*
X0100519Y0111351D01*
X0100457Y0111423D01*
X0100399Y0111498D01*
X0100343Y0111575D01*
X0100291Y0111655D01*
X0100241Y0111736D01*
X0100196Y0111819D01*
X0100153Y0111904D01*
X0100114Y0111991D01*
X0100078Y0112079D01*
X0100047Y0112169D01*
X0100018Y0112260D01*
X0099994Y0112352D01*
X0099973Y0112445D01*
X0099956Y0112538D01*
X0099942Y0112632D01*
X0099933Y0112727D01*
X0099927Y0112822D01*
X0099925Y0112917D01*
X0099925Y0118429D01*
X0099934Y0118527D01*
X0099947Y0118624D01*
X0099964Y0118721D01*
X0099985Y0118817D01*
X0100009Y0118913D01*
X0100037Y0119007D01*
X0100068Y0119100D01*
X0100103Y0119192D01*
X0100142Y0119282D01*
X0100184Y0119371D01*
X0100229Y0119459D01*
X0100278Y0119544D01*
X0100330Y0119628D01*
X0100385Y0119709D01*
X0100443Y0119788D01*
X0100504Y0119866D01*
X0100568Y0119940D01*
X0100635Y0120012D01*
X0100704Y0120082D01*
X0100776Y0120149D01*
X0100851Y0120213D01*
X0100928Y0120274D01*
X0101007Y0120332D01*
X0101089Y0120387D01*
X0101173Y0120439D01*
X0101258Y0120487D01*
X0101345Y0120533D01*
X0101434Y0120575D01*
X0101525Y0120613D01*
X0101617Y0120648D01*
X0101710Y0120679D01*
X0101804Y0120707D01*
X0101899Y0120732D01*
X0101996Y0120752D01*
X0102093Y0120769D01*
X0102190Y0120782D01*
X0102288Y0120791D01*
X0102386Y0120797D01*
X0102484Y0120799D01*
X0102583Y0120797D01*
X0102681Y0120791D01*
X0113311Y0120791D01*
X0113403Y0120797D01*
X0113495Y0120800D01*
X0113588Y0120799D01*
X0113680Y0120793D01*
X0113772Y0120784D01*
X0113863Y0120771D01*
X0113954Y0120754D01*
X0114044Y0120733D01*
X0114133Y0120708D01*
X0114220Y0120680D01*
X0114307Y0120648D01*
X0114392Y0120612D01*
X0114476Y0120573D01*
X0114557Y0120530D01*
X0114637Y0120484D01*
X0114715Y0120434D01*
X0114791Y0120381D01*
X0114864Y0120325D01*
X0114935Y0120266D01*
X0115003Y0120204D01*
X0115069Y0120139D01*
X0115132Y0120072D01*
X0115192Y0120001D01*
X0115248Y0119929D01*
X0115302Y0119854D01*
X0115353Y0119776D01*
X0115400Y0119697D01*
X0115444Y0119616D01*
X0115484Y0119533D01*
X0115521Y0119448D01*
X0115554Y0119362D01*
X0115583Y0119275D01*
X0115609Y0119186D01*
X0115631Y0119096D01*
X0115649Y0119006D01*
X0115663Y0118915D01*
X0115673Y0118823D01*
D135*
X0120702Y0187248D02*
X0120704Y0187315D01*
X0120710Y0187381D01*
X0120720Y0187447D01*
X0120734Y0187512D01*
X0120751Y0187576D01*
X0120773Y0187639D01*
X0120798Y0187701D01*
X0120827Y0187761D01*
X0120860Y0187819D01*
X0120895Y0187875D01*
X0120935Y0187929D01*
X0120977Y0187980D01*
X0121022Y0188029D01*
X0121070Y0188075D01*
X0121121Y0188118D01*
X0121174Y0188158D01*
X0121230Y0188195D01*
X0121288Y0188228D01*
X0121347Y0188258D01*
X0121408Y0188284D01*
X0121471Y0188307D01*
X0121535Y0188325D01*
X0121600Y0188340D01*
X0121666Y0188351D01*
X0121732Y0188358D01*
X0121798Y0188361D01*
X0121865Y0188360D01*
X0121931Y0188355D01*
X0121997Y0188346D01*
X0122063Y0188333D01*
X0122127Y0188316D01*
X0122190Y0188296D01*
X0122252Y0188271D01*
X0122313Y0188243D01*
X0122372Y0188212D01*
X0122428Y0188177D01*
X0122483Y0188139D01*
X0122535Y0188097D01*
X0122584Y0188052D01*
X0122631Y0188005D01*
X0122675Y0187955D01*
X0122715Y0187902D01*
X0122753Y0187847D01*
X0122787Y0187790D01*
X0122818Y0187731D01*
X0122845Y0187670D01*
X0122868Y0187608D01*
X0122888Y0187544D01*
X0122904Y0187479D01*
X0122916Y0187414D01*
X0122924Y0187348D01*
X0122928Y0187281D01*
X0122928Y0187215D01*
X0122924Y0187148D01*
X0122916Y0187082D01*
X0122904Y0187017D01*
X0122888Y0186952D01*
X0122868Y0186888D01*
X0122845Y0186826D01*
X0122818Y0186765D01*
X0122787Y0186706D01*
X0122753Y0186649D01*
X0122715Y0186594D01*
X0122675Y0186541D01*
X0122631Y0186491D01*
X0122584Y0186444D01*
X0122535Y0186399D01*
X0122483Y0186357D01*
X0122428Y0186319D01*
X0122371Y0186284D01*
X0122313Y0186253D01*
X0122252Y0186225D01*
X0122190Y0186200D01*
X0122127Y0186180D01*
X0122063Y0186163D01*
X0121997Y0186150D01*
X0121931Y0186141D01*
X0121865Y0186136D01*
X0121798Y0186135D01*
X0121732Y0186138D01*
X0121666Y0186145D01*
X0121600Y0186156D01*
X0121535Y0186171D01*
X0121471Y0186189D01*
X0121408Y0186212D01*
X0121347Y0186238D01*
X0121288Y0186268D01*
X0121230Y0186301D01*
X0121174Y0186338D01*
X0121121Y0186378D01*
X0121070Y0186421D01*
X0121022Y0186467D01*
X0120977Y0186516D01*
X0120935Y0186567D01*
X0120895Y0186621D01*
X0120860Y0186677D01*
X0120827Y0186735D01*
X0120798Y0186795D01*
X0120773Y0186857D01*
X0120751Y0186920D01*
X0120734Y0186984D01*
X0120720Y0187049D01*
X0120710Y0187115D01*
X0120704Y0187181D01*
X0120702Y0187248D01*
D136*
X0182596Y0165838D03*
X0182596Y0160038D03*
M02*
