G75*
%MOIN*%
%OFA0B0*%
%FSLAX25Y25*%
%IPPOS*%
%LPD*%
%AMOC8*
5,1,8,0,0,1.08239X$1,22.5*
%
%ADD10C,0.00000*%
%ADD11R,0.05200X0.00200*%
%ADD12R,0.02400X0.00200*%
%ADD13R,0.00800X0.00200*%
%ADD14R,0.03000X0.00200*%
%ADD15R,0.02200X0.00200*%
%ADD16R,0.01400X0.00200*%
%ADD17R,0.01600X0.00200*%
%ADD18R,0.00200X0.00100*%
%ADD19R,0.00700X0.00100*%
%ADD20R,0.01200X0.00100*%
%ADD21R,0.01600X0.00100*%
%ADD22R,0.02000X0.00100*%
%ADD23R,0.02500X0.00100*%
%ADD24R,0.01100X0.00100*%
%ADD25R,0.02900X0.00100*%
%ADD26R,0.00800X0.00100*%
%ADD27R,0.01500X0.00100*%
%ADD28R,0.03200X0.00100*%
%ADD29R,0.02200X0.00100*%
%ADD30R,0.01900X0.00100*%
%ADD31R,0.03700X0.00100*%
%ADD32R,0.03300X0.00100*%
%ADD33R,0.02300X0.00100*%
%ADD34R,0.04100X0.00100*%
%ADD35R,0.04300X0.00100*%
%ADD36R,0.02700X0.00100*%
%ADD37R,0.04400X0.00100*%
%ADD38R,0.05200X0.00100*%
%ADD39R,0.03100X0.00100*%
%ADD40R,0.04700X0.00100*%
%ADD41R,0.05900X0.00100*%
%ADD42R,0.03600X0.00100*%
%ADD43R,0.06700X0.00100*%
%ADD44R,0.04000X0.00100*%
%ADD45R,0.07300X0.00100*%
%ADD46R,0.04900X0.00100*%
%ADD47R,0.07900X0.00100*%
%ADD48R,0.08500X0.00100*%
%ADD49R,0.05000X0.00100*%
%ADD50R,0.09200X0.00100*%
%ADD51R,0.05400X0.00100*%
%ADD52R,0.05100X0.00100*%
%ADD53R,0.09400X0.00100*%
%ADD54R,0.05700X0.00100*%
%ADD55R,0.09300X0.00100*%
%ADD56R,0.06100X0.00100*%
%ADD57R,0.06400X0.00100*%
%ADD58R,0.05300X0.00100*%
%ADD59R,0.06800X0.00100*%
%ADD60R,0.07100X0.00100*%
%ADD61R,0.07500X0.00100*%
%ADD62R,0.05500X0.00100*%
%ADD63R,0.07800X0.00100*%
%ADD64R,0.00400X0.00100*%
%ADD65R,0.08100X0.00100*%
%ADD66R,0.08400X0.00100*%
%ADD67R,0.01300X0.00100*%
%ADD68R,0.08700X0.00100*%
%ADD69R,0.09000X0.00100*%
%ADD70R,0.02100X0.00100*%
%ADD71R,0.09700X0.00100*%
%ADD72R,0.02800X0.00100*%
%ADD73R,0.06300X0.00100*%
%ADD74R,0.09600X0.00100*%
%ADD75R,0.04800X0.00100*%
%ADD76R,0.02400X0.00100*%
%ADD77R,0.06500X0.00100*%
%ADD78R,0.03000X0.00100*%
%ADD79R,0.05800X0.00100*%
%ADD80R,0.03500X0.00100*%
%ADD81R,0.04600X0.00100*%
%ADD82R,0.06900X0.00100*%
%ADD83R,0.07000X0.00100*%
%ADD84R,0.05600X0.00100*%
%ADD85R,0.09500X0.00100*%
%ADD86R,0.07200X0.00100*%
%ADD87R,0.06000X0.00100*%
%ADD88R,0.06600X0.00100*%
%ADD89R,0.07400X0.00100*%
%ADD90R,0.07600X0.00100*%
%ADD91R,0.07700X0.00100*%
%ADD92R,0.08000X0.00100*%
%ADD93R,0.08200X0.00100*%
%ADD94R,0.09100X0.00100*%
%ADD95R,0.08600X0.00100*%
%ADD96R,0.08900X0.00100*%
%ADD97R,0.08800X0.00100*%
%ADD98R,0.08300X0.00100*%
%ADD99R,0.03800X0.00100*%
%ADD100R,0.00300X0.00100*%
%ADD101R,0.00100X0.00100*%
%ADD102R,0.00900X0.00100*%
%ADD103R,0.00500X0.00100*%
%ADD104R,0.09800X0.00100*%
%ADD105R,0.01800X0.00100*%
%ADD106R,0.01000X0.00100*%
%ADD107R,0.01700X0.00100*%
%ADD108R,0.03400X0.00100*%
%ADD109R,0.01400X0.00100*%
%ADD110R,0.04200X0.00100*%
%ADD111R,0.09900X0.00100*%
%ADD112R,0.10000X0.00100*%
%ADD113R,0.10100X0.00100*%
%ADD114R,0.00600X0.00100*%
%ADD115R,0.02600X0.00100*%
%ADD116R,0.03900X0.00100*%
%ADD117R,0.10200X0.00100*%
%ADD118R,0.10300X0.00100*%
%ADD119R,0.10400X0.00100*%
%ADD120R,0.04500X0.00100*%
%ADD121R,0.10500X0.00100*%
%ADD122R,0.10800X0.00100*%
%ADD123R,0.10900X0.00100*%
%ADD124R,0.10700X0.00100*%
%ADD125R,0.06200X0.00100*%
%ADD126R,0.15200X0.00100*%
%ADD127R,0.14000X0.00100*%
%ADD128R,0.11700X0.00100*%
%ADD129R,0.14100X0.00100*%
%ADD130R,0.12900X0.00100*%
%ADD131R,0.16400X0.00100*%
%ADD132R,0.02559X0.05512*%
%ADD133R,0.00787X0.00787*%
%ADD134C,0.00500*%
D10*
X0006937Y0042870D02*
X0069929Y0042870D01*
X0069929Y0007437D01*
X0069931Y0007313D01*
X0069937Y0007190D01*
X0069946Y0007066D01*
X0069960Y0006944D01*
X0069977Y0006821D01*
X0069999Y0006699D01*
X0070024Y0006578D01*
X0070053Y0006458D01*
X0070085Y0006339D01*
X0070122Y0006220D01*
X0070162Y0006103D01*
X0070205Y0005988D01*
X0070253Y0005873D01*
X0070304Y0005761D01*
X0070358Y0005650D01*
X0070416Y0005540D01*
X0070477Y0005433D01*
X0070542Y0005327D01*
X0070610Y0005224D01*
X0070681Y0005123D01*
X0070755Y0005024D01*
X0070832Y0004927D01*
X0070913Y0004833D01*
X0070996Y0004742D01*
X0071082Y0004653D01*
X0071171Y0004567D01*
X0071262Y0004484D01*
X0071356Y0004403D01*
X0071453Y0004326D01*
X0071552Y0004252D01*
X0071653Y0004181D01*
X0071756Y0004113D01*
X0071862Y0004048D01*
X0071969Y0003987D01*
X0072079Y0003929D01*
X0072190Y0003875D01*
X0072302Y0003824D01*
X0072417Y0003776D01*
X0072532Y0003733D01*
X0072649Y0003693D01*
X0072768Y0003656D01*
X0072887Y0003624D01*
X0073007Y0003595D01*
X0073128Y0003570D01*
X0073250Y0003548D01*
X0073373Y0003531D01*
X0073495Y0003517D01*
X0073619Y0003508D01*
X0073742Y0003502D01*
X0073866Y0003500D01*
X0195913Y0003500D01*
X0196037Y0003502D01*
X0196160Y0003508D01*
X0196284Y0003517D01*
X0196406Y0003531D01*
X0196529Y0003548D01*
X0196651Y0003570D01*
X0196772Y0003595D01*
X0196892Y0003624D01*
X0197011Y0003656D01*
X0197130Y0003693D01*
X0197247Y0003733D01*
X0197362Y0003776D01*
X0197477Y0003824D01*
X0197589Y0003875D01*
X0197700Y0003929D01*
X0197810Y0003987D01*
X0197917Y0004048D01*
X0198023Y0004113D01*
X0198126Y0004181D01*
X0198227Y0004252D01*
X0198326Y0004326D01*
X0198423Y0004403D01*
X0198517Y0004484D01*
X0198608Y0004567D01*
X0198697Y0004653D01*
X0198783Y0004742D01*
X0198866Y0004833D01*
X0198947Y0004927D01*
X0199024Y0005024D01*
X0199098Y0005123D01*
X0199169Y0005224D01*
X0199237Y0005327D01*
X0199302Y0005433D01*
X0199363Y0005540D01*
X0199421Y0005650D01*
X0199475Y0005761D01*
X0199526Y0005873D01*
X0199574Y0005988D01*
X0199617Y0006103D01*
X0199657Y0006220D01*
X0199694Y0006339D01*
X0199726Y0006458D01*
X0199755Y0006578D01*
X0199780Y0006699D01*
X0199802Y0006821D01*
X0199819Y0006944D01*
X0199833Y0007066D01*
X0199842Y0007190D01*
X0199848Y0007313D01*
X0199850Y0007437D01*
X0199850Y0042870D01*
X0274654Y0042870D01*
X0274778Y0042872D01*
X0274901Y0042878D01*
X0275025Y0042887D01*
X0275147Y0042901D01*
X0275270Y0042918D01*
X0275392Y0042940D01*
X0275513Y0042965D01*
X0275633Y0042994D01*
X0275752Y0043026D01*
X0275871Y0043063D01*
X0275988Y0043103D01*
X0276103Y0043146D01*
X0276218Y0043194D01*
X0276330Y0043245D01*
X0276441Y0043299D01*
X0276551Y0043357D01*
X0276658Y0043418D01*
X0276764Y0043483D01*
X0276867Y0043551D01*
X0276968Y0043622D01*
X0277067Y0043696D01*
X0277164Y0043773D01*
X0277258Y0043854D01*
X0277349Y0043937D01*
X0277438Y0044023D01*
X0277524Y0044112D01*
X0277607Y0044203D01*
X0277688Y0044297D01*
X0277765Y0044394D01*
X0277839Y0044493D01*
X0277910Y0044594D01*
X0277978Y0044697D01*
X0278043Y0044803D01*
X0278104Y0044910D01*
X0278162Y0045020D01*
X0278216Y0045131D01*
X0278267Y0045243D01*
X0278315Y0045358D01*
X0278358Y0045473D01*
X0278398Y0045590D01*
X0278435Y0045709D01*
X0278467Y0045828D01*
X0278496Y0045948D01*
X0278521Y0046069D01*
X0278543Y0046191D01*
X0278560Y0046314D01*
X0278574Y0046436D01*
X0278583Y0046560D01*
X0278589Y0046683D01*
X0278591Y0046807D01*
X0278591Y0225941D01*
X0278589Y0226065D01*
X0278583Y0226188D01*
X0278574Y0226312D01*
X0278560Y0226434D01*
X0278543Y0226557D01*
X0278521Y0226679D01*
X0278496Y0226800D01*
X0278467Y0226920D01*
X0278435Y0227039D01*
X0278398Y0227158D01*
X0278358Y0227275D01*
X0278315Y0227390D01*
X0278267Y0227505D01*
X0278216Y0227617D01*
X0278162Y0227728D01*
X0278104Y0227838D01*
X0278043Y0227945D01*
X0277978Y0228051D01*
X0277910Y0228154D01*
X0277839Y0228255D01*
X0277765Y0228354D01*
X0277688Y0228451D01*
X0277607Y0228545D01*
X0277524Y0228636D01*
X0277438Y0228725D01*
X0277349Y0228811D01*
X0277258Y0228894D01*
X0277164Y0228975D01*
X0277067Y0229052D01*
X0276968Y0229126D01*
X0276867Y0229197D01*
X0276764Y0229265D01*
X0276658Y0229330D01*
X0276551Y0229391D01*
X0276441Y0229449D01*
X0276330Y0229503D01*
X0276218Y0229554D01*
X0276103Y0229602D01*
X0275988Y0229645D01*
X0275871Y0229685D01*
X0275752Y0229722D01*
X0275633Y0229754D01*
X0275513Y0229783D01*
X0275392Y0229808D01*
X0275270Y0229830D01*
X0275147Y0229847D01*
X0275025Y0229861D01*
X0274901Y0229870D01*
X0274778Y0229876D01*
X0274654Y0229878D01*
X0006937Y0229878D01*
X0006813Y0229876D01*
X0006690Y0229870D01*
X0006566Y0229861D01*
X0006444Y0229847D01*
X0006321Y0229830D01*
X0006199Y0229808D01*
X0006078Y0229783D01*
X0005958Y0229754D01*
X0005839Y0229722D01*
X0005720Y0229685D01*
X0005603Y0229645D01*
X0005488Y0229602D01*
X0005373Y0229554D01*
X0005261Y0229503D01*
X0005150Y0229449D01*
X0005040Y0229391D01*
X0004933Y0229330D01*
X0004827Y0229265D01*
X0004724Y0229197D01*
X0004623Y0229126D01*
X0004524Y0229052D01*
X0004427Y0228975D01*
X0004333Y0228894D01*
X0004242Y0228811D01*
X0004153Y0228725D01*
X0004067Y0228636D01*
X0003984Y0228545D01*
X0003903Y0228451D01*
X0003826Y0228354D01*
X0003752Y0228255D01*
X0003681Y0228154D01*
X0003613Y0228051D01*
X0003548Y0227945D01*
X0003487Y0227838D01*
X0003429Y0227728D01*
X0003375Y0227617D01*
X0003324Y0227505D01*
X0003276Y0227390D01*
X0003233Y0227275D01*
X0003193Y0227158D01*
X0003156Y0227039D01*
X0003124Y0226920D01*
X0003095Y0226800D01*
X0003070Y0226679D01*
X0003048Y0226557D01*
X0003031Y0226434D01*
X0003017Y0226312D01*
X0003008Y0226188D01*
X0003002Y0226065D01*
X0003000Y0225941D01*
X0003000Y0046807D01*
X0003002Y0046683D01*
X0003008Y0046560D01*
X0003017Y0046436D01*
X0003031Y0046314D01*
X0003048Y0046191D01*
X0003070Y0046069D01*
X0003095Y0045948D01*
X0003124Y0045828D01*
X0003156Y0045709D01*
X0003193Y0045590D01*
X0003233Y0045473D01*
X0003276Y0045358D01*
X0003324Y0045243D01*
X0003375Y0045131D01*
X0003429Y0045020D01*
X0003487Y0044910D01*
X0003548Y0044803D01*
X0003613Y0044697D01*
X0003681Y0044594D01*
X0003752Y0044493D01*
X0003826Y0044394D01*
X0003903Y0044297D01*
X0003984Y0044203D01*
X0004067Y0044112D01*
X0004153Y0044023D01*
X0004242Y0043937D01*
X0004333Y0043854D01*
X0004427Y0043773D01*
X0004524Y0043696D01*
X0004623Y0043622D01*
X0004724Y0043551D01*
X0004827Y0043483D01*
X0004933Y0043418D01*
X0005040Y0043357D01*
X0005150Y0043299D01*
X0005261Y0043245D01*
X0005373Y0043194D01*
X0005488Y0043146D01*
X0005603Y0043103D01*
X0005720Y0043063D01*
X0005839Y0043026D01*
X0005958Y0042994D01*
X0006078Y0042965D01*
X0006199Y0042940D01*
X0006321Y0042918D01*
X0006444Y0042901D01*
X0006566Y0042887D01*
X0006690Y0042878D01*
X0006813Y0042872D01*
X0006937Y0042870D01*
X0007720Y0058618D02*
X0007722Y0058779D01*
X0007728Y0058939D01*
X0007738Y0059100D01*
X0007752Y0059260D01*
X0007770Y0059420D01*
X0007791Y0059579D01*
X0007817Y0059738D01*
X0007847Y0059896D01*
X0007880Y0060053D01*
X0007918Y0060210D01*
X0007959Y0060365D01*
X0008004Y0060519D01*
X0008053Y0060672D01*
X0008106Y0060824D01*
X0008162Y0060975D01*
X0008223Y0061124D01*
X0008286Y0061272D01*
X0008354Y0061418D01*
X0008425Y0061562D01*
X0008499Y0061704D01*
X0008577Y0061845D01*
X0008659Y0061983D01*
X0008744Y0062120D01*
X0008832Y0062254D01*
X0008924Y0062386D01*
X0009019Y0062516D01*
X0009117Y0062644D01*
X0009218Y0062769D01*
X0009322Y0062891D01*
X0009429Y0063011D01*
X0009539Y0063128D01*
X0009652Y0063243D01*
X0009768Y0063354D01*
X0009887Y0063463D01*
X0010008Y0063568D01*
X0010132Y0063671D01*
X0010258Y0063771D01*
X0010386Y0063867D01*
X0010517Y0063960D01*
X0010651Y0064050D01*
X0010786Y0064137D01*
X0010924Y0064220D01*
X0011063Y0064300D01*
X0011205Y0064376D01*
X0011348Y0064449D01*
X0011493Y0064518D01*
X0011640Y0064584D01*
X0011788Y0064646D01*
X0011938Y0064704D01*
X0012089Y0064759D01*
X0012242Y0064810D01*
X0012396Y0064857D01*
X0012551Y0064900D01*
X0012707Y0064939D01*
X0012863Y0064975D01*
X0013021Y0065006D01*
X0013179Y0065034D01*
X0013338Y0065058D01*
X0013498Y0065078D01*
X0013658Y0065094D01*
X0013818Y0065106D01*
X0013979Y0065114D01*
X0014140Y0065118D01*
X0014300Y0065118D01*
X0014461Y0065114D01*
X0014622Y0065106D01*
X0014782Y0065094D01*
X0014942Y0065078D01*
X0015102Y0065058D01*
X0015261Y0065034D01*
X0015419Y0065006D01*
X0015577Y0064975D01*
X0015733Y0064939D01*
X0015889Y0064900D01*
X0016044Y0064857D01*
X0016198Y0064810D01*
X0016351Y0064759D01*
X0016502Y0064704D01*
X0016652Y0064646D01*
X0016800Y0064584D01*
X0016947Y0064518D01*
X0017092Y0064449D01*
X0017235Y0064376D01*
X0017377Y0064300D01*
X0017516Y0064220D01*
X0017654Y0064137D01*
X0017789Y0064050D01*
X0017923Y0063960D01*
X0018054Y0063867D01*
X0018182Y0063771D01*
X0018308Y0063671D01*
X0018432Y0063568D01*
X0018553Y0063463D01*
X0018672Y0063354D01*
X0018788Y0063243D01*
X0018901Y0063128D01*
X0019011Y0063011D01*
X0019118Y0062891D01*
X0019222Y0062769D01*
X0019323Y0062644D01*
X0019421Y0062516D01*
X0019516Y0062386D01*
X0019608Y0062254D01*
X0019696Y0062120D01*
X0019781Y0061983D01*
X0019863Y0061845D01*
X0019941Y0061704D01*
X0020015Y0061562D01*
X0020086Y0061418D01*
X0020154Y0061272D01*
X0020217Y0061124D01*
X0020278Y0060975D01*
X0020334Y0060824D01*
X0020387Y0060672D01*
X0020436Y0060519D01*
X0020481Y0060365D01*
X0020522Y0060210D01*
X0020560Y0060053D01*
X0020593Y0059896D01*
X0020623Y0059738D01*
X0020649Y0059579D01*
X0020670Y0059420D01*
X0020688Y0059260D01*
X0020702Y0059100D01*
X0020712Y0058939D01*
X0020718Y0058779D01*
X0020720Y0058618D01*
X0020718Y0058457D01*
X0020712Y0058297D01*
X0020702Y0058136D01*
X0020688Y0057976D01*
X0020670Y0057816D01*
X0020649Y0057657D01*
X0020623Y0057498D01*
X0020593Y0057340D01*
X0020560Y0057183D01*
X0020522Y0057026D01*
X0020481Y0056871D01*
X0020436Y0056717D01*
X0020387Y0056564D01*
X0020334Y0056412D01*
X0020278Y0056261D01*
X0020217Y0056112D01*
X0020154Y0055964D01*
X0020086Y0055818D01*
X0020015Y0055674D01*
X0019941Y0055532D01*
X0019863Y0055391D01*
X0019781Y0055253D01*
X0019696Y0055116D01*
X0019608Y0054982D01*
X0019516Y0054850D01*
X0019421Y0054720D01*
X0019323Y0054592D01*
X0019222Y0054467D01*
X0019118Y0054345D01*
X0019011Y0054225D01*
X0018901Y0054108D01*
X0018788Y0053993D01*
X0018672Y0053882D01*
X0018553Y0053773D01*
X0018432Y0053668D01*
X0018308Y0053565D01*
X0018182Y0053465D01*
X0018054Y0053369D01*
X0017923Y0053276D01*
X0017789Y0053186D01*
X0017654Y0053099D01*
X0017516Y0053016D01*
X0017377Y0052936D01*
X0017235Y0052860D01*
X0017092Y0052787D01*
X0016947Y0052718D01*
X0016800Y0052652D01*
X0016652Y0052590D01*
X0016502Y0052532D01*
X0016351Y0052477D01*
X0016198Y0052426D01*
X0016044Y0052379D01*
X0015889Y0052336D01*
X0015733Y0052297D01*
X0015577Y0052261D01*
X0015419Y0052230D01*
X0015261Y0052202D01*
X0015102Y0052178D01*
X0014942Y0052158D01*
X0014782Y0052142D01*
X0014622Y0052130D01*
X0014461Y0052122D01*
X0014300Y0052118D01*
X0014140Y0052118D01*
X0013979Y0052122D01*
X0013818Y0052130D01*
X0013658Y0052142D01*
X0013498Y0052158D01*
X0013338Y0052178D01*
X0013179Y0052202D01*
X0013021Y0052230D01*
X0012863Y0052261D01*
X0012707Y0052297D01*
X0012551Y0052336D01*
X0012396Y0052379D01*
X0012242Y0052426D01*
X0012089Y0052477D01*
X0011938Y0052532D01*
X0011788Y0052590D01*
X0011640Y0052652D01*
X0011493Y0052718D01*
X0011348Y0052787D01*
X0011205Y0052860D01*
X0011063Y0052936D01*
X0010924Y0053016D01*
X0010786Y0053099D01*
X0010651Y0053186D01*
X0010517Y0053276D01*
X0010386Y0053369D01*
X0010258Y0053465D01*
X0010132Y0053565D01*
X0010008Y0053668D01*
X0009887Y0053773D01*
X0009768Y0053882D01*
X0009652Y0053993D01*
X0009539Y0054108D01*
X0009429Y0054225D01*
X0009322Y0054345D01*
X0009218Y0054467D01*
X0009117Y0054592D01*
X0009019Y0054720D01*
X0008924Y0054850D01*
X0008832Y0054982D01*
X0008744Y0055116D01*
X0008659Y0055253D01*
X0008577Y0055391D01*
X0008499Y0055532D01*
X0008425Y0055674D01*
X0008354Y0055818D01*
X0008286Y0055964D01*
X0008223Y0056112D01*
X0008162Y0056261D01*
X0008106Y0056412D01*
X0008053Y0056564D01*
X0008004Y0056717D01*
X0007959Y0056871D01*
X0007918Y0057026D01*
X0007880Y0057183D01*
X0007847Y0057340D01*
X0007817Y0057498D01*
X0007791Y0057657D01*
X0007770Y0057816D01*
X0007752Y0057976D01*
X0007738Y0058136D01*
X0007728Y0058297D01*
X0007722Y0058457D01*
X0007720Y0058618D01*
X0082524Y0050744D02*
X0082526Y0050905D01*
X0082532Y0051065D01*
X0082542Y0051226D01*
X0082556Y0051386D01*
X0082574Y0051546D01*
X0082595Y0051705D01*
X0082621Y0051864D01*
X0082651Y0052022D01*
X0082684Y0052179D01*
X0082722Y0052336D01*
X0082763Y0052491D01*
X0082808Y0052645D01*
X0082857Y0052798D01*
X0082910Y0052950D01*
X0082966Y0053101D01*
X0083027Y0053250D01*
X0083090Y0053398D01*
X0083158Y0053544D01*
X0083229Y0053688D01*
X0083303Y0053830D01*
X0083381Y0053971D01*
X0083463Y0054109D01*
X0083548Y0054246D01*
X0083636Y0054380D01*
X0083728Y0054512D01*
X0083823Y0054642D01*
X0083921Y0054770D01*
X0084022Y0054895D01*
X0084126Y0055017D01*
X0084233Y0055137D01*
X0084343Y0055254D01*
X0084456Y0055369D01*
X0084572Y0055480D01*
X0084691Y0055589D01*
X0084812Y0055694D01*
X0084936Y0055797D01*
X0085062Y0055897D01*
X0085190Y0055993D01*
X0085321Y0056086D01*
X0085455Y0056176D01*
X0085590Y0056263D01*
X0085728Y0056346D01*
X0085867Y0056426D01*
X0086009Y0056502D01*
X0086152Y0056575D01*
X0086297Y0056644D01*
X0086444Y0056710D01*
X0086592Y0056772D01*
X0086742Y0056830D01*
X0086893Y0056885D01*
X0087046Y0056936D01*
X0087200Y0056983D01*
X0087355Y0057026D01*
X0087511Y0057065D01*
X0087667Y0057101D01*
X0087825Y0057132D01*
X0087983Y0057160D01*
X0088142Y0057184D01*
X0088302Y0057204D01*
X0088462Y0057220D01*
X0088622Y0057232D01*
X0088783Y0057240D01*
X0088944Y0057244D01*
X0089104Y0057244D01*
X0089265Y0057240D01*
X0089426Y0057232D01*
X0089586Y0057220D01*
X0089746Y0057204D01*
X0089906Y0057184D01*
X0090065Y0057160D01*
X0090223Y0057132D01*
X0090381Y0057101D01*
X0090537Y0057065D01*
X0090693Y0057026D01*
X0090848Y0056983D01*
X0091002Y0056936D01*
X0091155Y0056885D01*
X0091306Y0056830D01*
X0091456Y0056772D01*
X0091604Y0056710D01*
X0091751Y0056644D01*
X0091896Y0056575D01*
X0092039Y0056502D01*
X0092181Y0056426D01*
X0092320Y0056346D01*
X0092458Y0056263D01*
X0092593Y0056176D01*
X0092727Y0056086D01*
X0092858Y0055993D01*
X0092986Y0055897D01*
X0093112Y0055797D01*
X0093236Y0055694D01*
X0093357Y0055589D01*
X0093476Y0055480D01*
X0093592Y0055369D01*
X0093705Y0055254D01*
X0093815Y0055137D01*
X0093922Y0055017D01*
X0094026Y0054895D01*
X0094127Y0054770D01*
X0094225Y0054642D01*
X0094320Y0054512D01*
X0094412Y0054380D01*
X0094500Y0054246D01*
X0094585Y0054109D01*
X0094667Y0053971D01*
X0094745Y0053830D01*
X0094819Y0053688D01*
X0094890Y0053544D01*
X0094958Y0053398D01*
X0095021Y0053250D01*
X0095082Y0053101D01*
X0095138Y0052950D01*
X0095191Y0052798D01*
X0095240Y0052645D01*
X0095285Y0052491D01*
X0095326Y0052336D01*
X0095364Y0052179D01*
X0095397Y0052022D01*
X0095427Y0051864D01*
X0095453Y0051705D01*
X0095474Y0051546D01*
X0095492Y0051386D01*
X0095506Y0051226D01*
X0095516Y0051065D01*
X0095522Y0050905D01*
X0095524Y0050744D01*
X0095522Y0050583D01*
X0095516Y0050423D01*
X0095506Y0050262D01*
X0095492Y0050102D01*
X0095474Y0049942D01*
X0095453Y0049783D01*
X0095427Y0049624D01*
X0095397Y0049466D01*
X0095364Y0049309D01*
X0095326Y0049152D01*
X0095285Y0048997D01*
X0095240Y0048843D01*
X0095191Y0048690D01*
X0095138Y0048538D01*
X0095082Y0048387D01*
X0095021Y0048238D01*
X0094958Y0048090D01*
X0094890Y0047944D01*
X0094819Y0047800D01*
X0094745Y0047658D01*
X0094667Y0047517D01*
X0094585Y0047379D01*
X0094500Y0047242D01*
X0094412Y0047108D01*
X0094320Y0046976D01*
X0094225Y0046846D01*
X0094127Y0046718D01*
X0094026Y0046593D01*
X0093922Y0046471D01*
X0093815Y0046351D01*
X0093705Y0046234D01*
X0093592Y0046119D01*
X0093476Y0046008D01*
X0093357Y0045899D01*
X0093236Y0045794D01*
X0093112Y0045691D01*
X0092986Y0045591D01*
X0092858Y0045495D01*
X0092727Y0045402D01*
X0092593Y0045312D01*
X0092458Y0045225D01*
X0092320Y0045142D01*
X0092181Y0045062D01*
X0092039Y0044986D01*
X0091896Y0044913D01*
X0091751Y0044844D01*
X0091604Y0044778D01*
X0091456Y0044716D01*
X0091306Y0044658D01*
X0091155Y0044603D01*
X0091002Y0044552D01*
X0090848Y0044505D01*
X0090693Y0044462D01*
X0090537Y0044423D01*
X0090381Y0044387D01*
X0090223Y0044356D01*
X0090065Y0044328D01*
X0089906Y0044304D01*
X0089746Y0044284D01*
X0089586Y0044268D01*
X0089426Y0044256D01*
X0089265Y0044248D01*
X0089104Y0044244D01*
X0088944Y0044244D01*
X0088783Y0044248D01*
X0088622Y0044256D01*
X0088462Y0044268D01*
X0088302Y0044284D01*
X0088142Y0044304D01*
X0087983Y0044328D01*
X0087825Y0044356D01*
X0087667Y0044387D01*
X0087511Y0044423D01*
X0087355Y0044462D01*
X0087200Y0044505D01*
X0087046Y0044552D01*
X0086893Y0044603D01*
X0086742Y0044658D01*
X0086592Y0044716D01*
X0086444Y0044778D01*
X0086297Y0044844D01*
X0086152Y0044913D01*
X0086009Y0044986D01*
X0085867Y0045062D01*
X0085728Y0045142D01*
X0085590Y0045225D01*
X0085455Y0045312D01*
X0085321Y0045402D01*
X0085190Y0045495D01*
X0085062Y0045591D01*
X0084936Y0045691D01*
X0084812Y0045794D01*
X0084691Y0045899D01*
X0084572Y0046008D01*
X0084456Y0046119D01*
X0084343Y0046234D01*
X0084233Y0046351D01*
X0084126Y0046471D01*
X0084022Y0046593D01*
X0083921Y0046718D01*
X0083823Y0046846D01*
X0083728Y0046976D01*
X0083636Y0047108D01*
X0083548Y0047242D01*
X0083463Y0047379D01*
X0083381Y0047517D01*
X0083303Y0047658D01*
X0083229Y0047800D01*
X0083158Y0047944D01*
X0083090Y0048090D01*
X0083027Y0048238D01*
X0082966Y0048387D01*
X0082910Y0048538D01*
X0082857Y0048690D01*
X0082808Y0048843D01*
X0082763Y0048997D01*
X0082722Y0049152D01*
X0082684Y0049309D01*
X0082651Y0049466D01*
X0082621Y0049624D01*
X0082595Y0049783D01*
X0082574Y0049942D01*
X0082556Y0050102D01*
X0082542Y0050262D01*
X0082532Y0050423D01*
X0082526Y0050583D01*
X0082524Y0050744D01*
X0090398Y0070429D02*
X0090400Y0070590D01*
X0090406Y0070750D01*
X0090416Y0070911D01*
X0090430Y0071071D01*
X0090448Y0071231D01*
X0090469Y0071390D01*
X0090495Y0071549D01*
X0090525Y0071707D01*
X0090558Y0071864D01*
X0090596Y0072021D01*
X0090637Y0072176D01*
X0090682Y0072330D01*
X0090731Y0072483D01*
X0090784Y0072635D01*
X0090840Y0072786D01*
X0090901Y0072935D01*
X0090964Y0073083D01*
X0091032Y0073229D01*
X0091103Y0073373D01*
X0091177Y0073515D01*
X0091255Y0073656D01*
X0091337Y0073794D01*
X0091422Y0073931D01*
X0091510Y0074065D01*
X0091602Y0074197D01*
X0091697Y0074327D01*
X0091795Y0074455D01*
X0091896Y0074580D01*
X0092000Y0074702D01*
X0092107Y0074822D01*
X0092217Y0074939D01*
X0092330Y0075054D01*
X0092446Y0075165D01*
X0092565Y0075274D01*
X0092686Y0075379D01*
X0092810Y0075482D01*
X0092936Y0075582D01*
X0093064Y0075678D01*
X0093195Y0075771D01*
X0093329Y0075861D01*
X0093464Y0075948D01*
X0093602Y0076031D01*
X0093741Y0076111D01*
X0093883Y0076187D01*
X0094026Y0076260D01*
X0094171Y0076329D01*
X0094318Y0076395D01*
X0094466Y0076457D01*
X0094616Y0076515D01*
X0094767Y0076570D01*
X0094920Y0076621D01*
X0095074Y0076668D01*
X0095229Y0076711D01*
X0095385Y0076750D01*
X0095541Y0076786D01*
X0095699Y0076817D01*
X0095857Y0076845D01*
X0096016Y0076869D01*
X0096176Y0076889D01*
X0096336Y0076905D01*
X0096496Y0076917D01*
X0096657Y0076925D01*
X0096818Y0076929D01*
X0096978Y0076929D01*
X0097139Y0076925D01*
X0097300Y0076917D01*
X0097460Y0076905D01*
X0097620Y0076889D01*
X0097780Y0076869D01*
X0097939Y0076845D01*
X0098097Y0076817D01*
X0098255Y0076786D01*
X0098411Y0076750D01*
X0098567Y0076711D01*
X0098722Y0076668D01*
X0098876Y0076621D01*
X0099029Y0076570D01*
X0099180Y0076515D01*
X0099330Y0076457D01*
X0099478Y0076395D01*
X0099625Y0076329D01*
X0099770Y0076260D01*
X0099913Y0076187D01*
X0100055Y0076111D01*
X0100194Y0076031D01*
X0100332Y0075948D01*
X0100467Y0075861D01*
X0100601Y0075771D01*
X0100732Y0075678D01*
X0100860Y0075582D01*
X0100986Y0075482D01*
X0101110Y0075379D01*
X0101231Y0075274D01*
X0101350Y0075165D01*
X0101466Y0075054D01*
X0101579Y0074939D01*
X0101689Y0074822D01*
X0101796Y0074702D01*
X0101900Y0074580D01*
X0102001Y0074455D01*
X0102099Y0074327D01*
X0102194Y0074197D01*
X0102286Y0074065D01*
X0102374Y0073931D01*
X0102459Y0073794D01*
X0102541Y0073656D01*
X0102619Y0073515D01*
X0102693Y0073373D01*
X0102764Y0073229D01*
X0102832Y0073083D01*
X0102895Y0072935D01*
X0102956Y0072786D01*
X0103012Y0072635D01*
X0103065Y0072483D01*
X0103114Y0072330D01*
X0103159Y0072176D01*
X0103200Y0072021D01*
X0103238Y0071864D01*
X0103271Y0071707D01*
X0103301Y0071549D01*
X0103327Y0071390D01*
X0103348Y0071231D01*
X0103366Y0071071D01*
X0103380Y0070911D01*
X0103390Y0070750D01*
X0103396Y0070590D01*
X0103398Y0070429D01*
X0103396Y0070268D01*
X0103390Y0070108D01*
X0103380Y0069947D01*
X0103366Y0069787D01*
X0103348Y0069627D01*
X0103327Y0069468D01*
X0103301Y0069309D01*
X0103271Y0069151D01*
X0103238Y0068994D01*
X0103200Y0068837D01*
X0103159Y0068682D01*
X0103114Y0068528D01*
X0103065Y0068375D01*
X0103012Y0068223D01*
X0102956Y0068072D01*
X0102895Y0067923D01*
X0102832Y0067775D01*
X0102764Y0067629D01*
X0102693Y0067485D01*
X0102619Y0067343D01*
X0102541Y0067202D01*
X0102459Y0067064D01*
X0102374Y0066927D01*
X0102286Y0066793D01*
X0102194Y0066661D01*
X0102099Y0066531D01*
X0102001Y0066403D01*
X0101900Y0066278D01*
X0101796Y0066156D01*
X0101689Y0066036D01*
X0101579Y0065919D01*
X0101466Y0065804D01*
X0101350Y0065693D01*
X0101231Y0065584D01*
X0101110Y0065479D01*
X0100986Y0065376D01*
X0100860Y0065276D01*
X0100732Y0065180D01*
X0100601Y0065087D01*
X0100467Y0064997D01*
X0100332Y0064910D01*
X0100194Y0064827D01*
X0100055Y0064747D01*
X0099913Y0064671D01*
X0099770Y0064598D01*
X0099625Y0064529D01*
X0099478Y0064463D01*
X0099330Y0064401D01*
X0099180Y0064343D01*
X0099029Y0064288D01*
X0098876Y0064237D01*
X0098722Y0064190D01*
X0098567Y0064147D01*
X0098411Y0064108D01*
X0098255Y0064072D01*
X0098097Y0064041D01*
X0097939Y0064013D01*
X0097780Y0063989D01*
X0097620Y0063969D01*
X0097460Y0063953D01*
X0097300Y0063941D01*
X0097139Y0063933D01*
X0096978Y0063929D01*
X0096818Y0063929D01*
X0096657Y0063933D01*
X0096496Y0063941D01*
X0096336Y0063953D01*
X0096176Y0063969D01*
X0096016Y0063989D01*
X0095857Y0064013D01*
X0095699Y0064041D01*
X0095541Y0064072D01*
X0095385Y0064108D01*
X0095229Y0064147D01*
X0095074Y0064190D01*
X0094920Y0064237D01*
X0094767Y0064288D01*
X0094616Y0064343D01*
X0094466Y0064401D01*
X0094318Y0064463D01*
X0094171Y0064529D01*
X0094026Y0064598D01*
X0093883Y0064671D01*
X0093741Y0064747D01*
X0093602Y0064827D01*
X0093464Y0064910D01*
X0093329Y0064997D01*
X0093195Y0065087D01*
X0093064Y0065180D01*
X0092936Y0065276D01*
X0092810Y0065376D01*
X0092686Y0065479D01*
X0092565Y0065584D01*
X0092446Y0065693D01*
X0092330Y0065804D01*
X0092217Y0065919D01*
X0092107Y0066036D01*
X0092000Y0066156D01*
X0091896Y0066278D01*
X0091795Y0066403D01*
X0091697Y0066531D01*
X0091602Y0066661D01*
X0091510Y0066793D01*
X0091422Y0066927D01*
X0091337Y0067064D01*
X0091255Y0067202D01*
X0091177Y0067343D01*
X0091103Y0067485D01*
X0091032Y0067629D01*
X0090964Y0067775D01*
X0090901Y0067923D01*
X0090840Y0068072D01*
X0090784Y0068223D01*
X0090731Y0068375D01*
X0090682Y0068528D01*
X0090637Y0068682D01*
X0090596Y0068837D01*
X0090558Y0068994D01*
X0090525Y0069151D01*
X0090495Y0069309D01*
X0090469Y0069468D01*
X0090448Y0069627D01*
X0090430Y0069787D01*
X0090416Y0069947D01*
X0090406Y0070108D01*
X0090400Y0070268D01*
X0090398Y0070429D01*
X0110083Y0099957D02*
X0110085Y0100118D01*
X0110091Y0100278D01*
X0110101Y0100439D01*
X0110115Y0100599D01*
X0110133Y0100759D01*
X0110154Y0100918D01*
X0110180Y0101077D01*
X0110210Y0101235D01*
X0110243Y0101392D01*
X0110281Y0101549D01*
X0110322Y0101704D01*
X0110367Y0101858D01*
X0110416Y0102011D01*
X0110469Y0102163D01*
X0110525Y0102314D01*
X0110586Y0102463D01*
X0110649Y0102611D01*
X0110717Y0102757D01*
X0110788Y0102901D01*
X0110862Y0103043D01*
X0110940Y0103184D01*
X0111022Y0103322D01*
X0111107Y0103459D01*
X0111195Y0103593D01*
X0111287Y0103725D01*
X0111382Y0103855D01*
X0111480Y0103983D01*
X0111581Y0104108D01*
X0111685Y0104230D01*
X0111792Y0104350D01*
X0111902Y0104467D01*
X0112015Y0104582D01*
X0112131Y0104693D01*
X0112250Y0104802D01*
X0112371Y0104907D01*
X0112495Y0105010D01*
X0112621Y0105110D01*
X0112749Y0105206D01*
X0112880Y0105299D01*
X0113014Y0105389D01*
X0113149Y0105476D01*
X0113287Y0105559D01*
X0113426Y0105639D01*
X0113568Y0105715D01*
X0113711Y0105788D01*
X0113856Y0105857D01*
X0114003Y0105923D01*
X0114151Y0105985D01*
X0114301Y0106043D01*
X0114452Y0106098D01*
X0114605Y0106149D01*
X0114759Y0106196D01*
X0114914Y0106239D01*
X0115070Y0106278D01*
X0115226Y0106314D01*
X0115384Y0106345D01*
X0115542Y0106373D01*
X0115701Y0106397D01*
X0115861Y0106417D01*
X0116021Y0106433D01*
X0116181Y0106445D01*
X0116342Y0106453D01*
X0116503Y0106457D01*
X0116663Y0106457D01*
X0116824Y0106453D01*
X0116985Y0106445D01*
X0117145Y0106433D01*
X0117305Y0106417D01*
X0117465Y0106397D01*
X0117624Y0106373D01*
X0117782Y0106345D01*
X0117940Y0106314D01*
X0118096Y0106278D01*
X0118252Y0106239D01*
X0118407Y0106196D01*
X0118561Y0106149D01*
X0118714Y0106098D01*
X0118865Y0106043D01*
X0119015Y0105985D01*
X0119163Y0105923D01*
X0119310Y0105857D01*
X0119455Y0105788D01*
X0119598Y0105715D01*
X0119740Y0105639D01*
X0119879Y0105559D01*
X0120017Y0105476D01*
X0120152Y0105389D01*
X0120286Y0105299D01*
X0120417Y0105206D01*
X0120545Y0105110D01*
X0120671Y0105010D01*
X0120795Y0104907D01*
X0120916Y0104802D01*
X0121035Y0104693D01*
X0121151Y0104582D01*
X0121264Y0104467D01*
X0121374Y0104350D01*
X0121481Y0104230D01*
X0121585Y0104108D01*
X0121686Y0103983D01*
X0121784Y0103855D01*
X0121879Y0103725D01*
X0121971Y0103593D01*
X0122059Y0103459D01*
X0122144Y0103322D01*
X0122226Y0103184D01*
X0122304Y0103043D01*
X0122378Y0102901D01*
X0122449Y0102757D01*
X0122517Y0102611D01*
X0122580Y0102463D01*
X0122641Y0102314D01*
X0122697Y0102163D01*
X0122750Y0102011D01*
X0122799Y0101858D01*
X0122844Y0101704D01*
X0122885Y0101549D01*
X0122923Y0101392D01*
X0122956Y0101235D01*
X0122986Y0101077D01*
X0123012Y0100918D01*
X0123033Y0100759D01*
X0123051Y0100599D01*
X0123065Y0100439D01*
X0123075Y0100278D01*
X0123081Y0100118D01*
X0123083Y0099957D01*
X0123081Y0099796D01*
X0123075Y0099636D01*
X0123065Y0099475D01*
X0123051Y0099315D01*
X0123033Y0099155D01*
X0123012Y0098996D01*
X0122986Y0098837D01*
X0122956Y0098679D01*
X0122923Y0098522D01*
X0122885Y0098365D01*
X0122844Y0098210D01*
X0122799Y0098056D01*
X0122750Y0097903D01*
X0122697Y0097751D01*
X0122641Y0097600D01*
X0122580Y0097451D01*
X0122517Y0097303D01*
X0122449Y0097157D01*
X0122378Y0097013D01*
X0122304Y0096871D01*
X0122226Y0096730D01*
X0122144Y0096592D01*
X0122059Y0096455D01*
X0121971Y0096321D01*
X0121879Y0096189D01*
X0121784Y0096059D01*
X0121686Y0095931D01*
X0121585Y0095806D01*
X0121481Y0095684D01*
X0121374Y0095564D01*
X0121264Y0095447D01*
X0121151Y0095332D01*
X0121035Y0095221D01*
X0120916Y0095112D01*
X0120795Y0095007D01*
X0120671Y0094904D01*
X0120545Y0094804D01*
X0120417Y0094708D01*
X0120286Y0094615D01*
X0120152Y0094525D01*
X0120017Y0094438D01*
X0119879Y0094355D01*
X0119740Y0094275D01*
X0119598Y0094199D01*
X0119455Y0094126D01*
X0119310Y0094057D01*
X0119163Y0093991D01*
X0119015Y0093929D01*
X0118865Y0093871D01*
X0118714Y0093816D01*
X0118561Y0093765D01*
X0118407Y0093718D01*
X0118252Y0093675D01*
X0118096Y0093636D01*
X0117940Y0093600D01*
X0117782Y0093569D01*
X0117624Y0093541D01*
X0117465Y0093517D01*
X0117305Y0093497D01*
X0117145Y0093481D01*
X0116985Y0093469D01*
X0116824Y0093461D01*
X0116663Y0093457D01*
X0116503Y0093457D01*
X0116342Y0093461D01*
X0116181Y0093469D01*
X0116021Y0093481D01*
X0115861Y0093497D01*
X0115701Y0093517D01*
X0115542Y0093541D01*
X0115384Y0093569D01*
X0115226Y0093600D01*
X0115070Y0093636D01*
X0114914Y0093675D01*
X0114759Y0093718D01*
X0114605Y0093765D01*
X0114452Y0093816D01*
X0114301Y0093871D01*
X0114151Y0093929D01*
X0114003Y0093991D01*
X0113856Y0094057D01*
X0113711Y0094126D01*
X0113568Y0094199D01*
X0113426Y0094275D01*
X0113287Y0094355D01*
X0113149Y0094438D01*
X0113014Y0094525D01*
X0112880Y0094615D01*
X0112749Y0094708D01*
X0112621Y0094804D01*
X0112495Y0094904D01*
X0112371Y0095007D01*
X0112250Y0095112D01*
X0112131Y0095221D01*
X0112015Y0095332D01*
X0111902Y0095447D01*
X0111792Y0095564D01*
X0111685Y0095684D01*
X0111581Y0095806D01*
X0111480Y0095931D01*
X0111382Y0096059D01*
X0111287Y0096189D01*
X0111195Y0096321D01*
X0111107Y0096455D01*
X0111022Y0096592D01*
X0110940Y0096730D01*
X0110862Y0096871D01*
X0110788Y0097013D01*
X0110717Y0097157D01*
X0110649Y0097303D01*
X0110586Y0097451D01*
X0110525Y0097600D01*
X0110469Y0097751D01*
X0110416Y0097903D01*
X0110367Y0098056D01*
X0110322Y0098210D01*
X0110281Y0098365D01*
X0110243Y0098522D01*
X0110210Y0098679D01*
X0110180Y0098837D01*
X0110154Y0098996D01*
X0110133Y0099155D01*
X0110115Y0099315D01*
X0110101Y0099475D01*
X0110091Y0099636D01*
X0110085Y0099796D01*
X0110083Y0099957D01*
X0180949Y0052713D02*
X0180951Y0052874D01*
X0180957Y0053034D01*
X0180967Y0053195D01*
X0180981Y0053355D01*
X0180999Y0053515D01*
X0181020Y0053674D01*
X0181046Y0053833D01*
X0181076Y0053991D01*
X0181109Y0054148D01*
X0181147Y0054305D01*
X0181188Y0054460D01*
X0181233Y0054614D01*
X0181282Y0054767D01*
X0181335Y0054919D01*
X0181391Y0055070D01*
X0181452Y0055219D01*
X0181515Y0055367D01*
X0181583Y0055513D01*
X0181654Y0055657D01*
X0181728Y0055799D01*
X0181806Y0055940D01*
X0181888Y0056078D01*
X0181973Y0056215D01*
X0182061Y0056349D01*
X0182153Y0056481D01*
X0182248Y0056611D01*
X0182346Y0056739D01*
X0182447Y0056864D01*
X0182551Y0056986D01*
X0182658Y0057106D01*
X0182768Y0057223D01*
X0182881Y0057338D01*
X0182997Y0057449D01*
X0183116Y0057558D01*
X0183237Y0057663D01*
X0183361Y0057766D01*
X0183487Y0057866D01*
X0183615Y0057962D01*
X0183746Y0058055D01*
X0183880Y0058145D01*
X0184015Y0058232D01*
X0184153Y0058315D01*
X0184292Y0058395D01*
X0184434Y0058471D01*
X0184577Y0058544D01*
X0184722Y0058613D01*
X0184869Y0058679D01*
X0185017Y0058741D01*
X0185167Y0058799D01*
X0185318Y0058854D01*
X0185471Y0058905D01*
X0185625Y0058952D01*
X0185780Y0058995D01*
X0185936Y0059034D01*
X0186092Y0059070D01*
X0186250Y0059101D01*
X0186408Y0059129D01*
X0186567Y0059153D01*
X0186727Y0059173D01*
X0186887Y0059189D01*
X0187047Y0059201D01*
X0187208Y0059209D01*
X0187369Y0059213D01*
X0187529Y0059213D01*
X0187690Y0059209D01*
X0187851Y0059201D01*
X0188011Y0059189D01*
X0188171Y0059173D01*
X0188331Y0059153D01*
X0188490Y0059129D01*
X0188648Y0059101D01*
X0188806Y0059070D01*
X0188962Y0059034D01*
X0189118Y0058995D01*
X0189273Y0058952D01*
X0189427Y0058905D01*
X0189580Y0058854D01*
X0189731Y0058799D01*
X0189881Y0058741D01*
X0190029Y0058679D01*
X0190176Y0058613D01*
X0190321Y0058544D01*
X0190464Y0058471D01*
X0190606Y0058395D01*
X0190745Y0058315D01*
X0190883Y0058232D01*
X0191018Y0058145D01*
X0191152Y0058055D01*
X0191283Y0057962D01*
X0191411Y0057866D01*
X0191537Y0057766D01*
X0191661Y0057663D01*
X0191782Y0057558D01*
X0191901Y0057449D01*
X0192017Y0057338D01*
X0192130Y0057223D01*
X0192240Y0057106D01*
X0192347Y0056986D01*
X0192451Y0056864D01*
X0192552Y0056739D01*
X0192650Y0056611D01*
X0192745Y0056481D01*
X0192837Y0056349D01*
X0192925Y0056215D01*
X0193010Y0056078D01*
X0193092Y0055940D01*
X0193170Y0055799D01*
X0193244Y0055657D01*
X0193315Y0055513D01*
X0193383Y0055367D01*
X0193446Y0055219D01*
X0193507Y0055070D01*
X0193563Y0054919D01*
X0193616Y0054767D01*
X0193665Y0054614D01*
X0193710Y0054460D01*
X0193751Y0054305D01*
X0193789Y0054148D01*
X0193822Y0053991D01*
X0193852Y0053833D01*
X0193878Y0053674D01*
X0193899Y0053515D01*
X0193917Y0053355D01*
X0193931Y0053195D01*
X0193941Y0053034D01*
X0193947Y0052874D01*
X0193949Y0052713D01*
X0193947Y0052552D01*
X0193941Y0052392D01*
X0193931Y0052231D01*
X0193917Y0052071D01*
X0193899Y0051911D01*
X0193878Y0051752D01*
X0193852Y0051593D01*
X0193822Y0051435D01*
X0193789Y0051278D01*
X0193751Y0051121D01*
X0193710Y0050966D01*
X0193665Y0050812D01*
X0193616Y0050659D01*
X0193563Y0050507D01*
X0193507Y0050356D01*
X0193446Y0050207D01*
X0193383Y0050059D01*
X0193315Y0049913D01*
X0193244Y0049769D01*
X0193170Y0049627D01*
X0193092Y0049486D01*
X0193010Y0049348D01*
X0192925Y0049211D01*
X0192837Y0049077D01*
X0192745Y0048945D01*
X0192650Y0048815D01*
X0192552Y0048687D01*
X0192451Y0048562D01*
X0192347Y0048440D01*
X0192240Y0048320D01*
X0192130Y0048203D01*
X0192017Y0048088D01*
X0191901Y0047977D01*
X0191782Y0047868D01*
X0191661Y0047763D01*
X0191537Y0047660D01*
X0191411Y0047560D01*
X0191283Y0047464D01*
X0191152Y0047371D01*
X0191018Y0047281D01*
X0190883Y0047194D01*
X0190745Y0047111D01*
X0190606Y0047031D01*
X0190464Y0046955D01*
X0190321Y0046882D01*
X0190176Y0046813D01*
X0190029Y0046747D01*
X0189881Y0046685D01*
X0189731Y0046627D01*
X0189580Y0046572D01*
X0189427Y0046521D01*
X0189273Y0046474D01*
X0189118Y0046431D01*
X0188962Y0046392D01*
X0188806Y0046356D01*
X0188648Y0046325D01*
X0188490Y0046297D01*
X0188331Y0046273D01*
X0188171Y0046253D01*
X0188011Y0046237D01*
X0187851Y0046225D01*
X0187690Y0046217D01*
X0187529Y0046213D01*
X0187369Y0046213D01*
X0187208Y0046217D01*
X0187047Y0046225D01*
X0186887Y0046237D01*
X0186727Y0046253D01*
X0186567Y0046273D01*
X0186408Y0046297D01*
X0186250Y0046325D01*
X0186092Y0046356D01*
X0185936Y0046392D01*
X0185780Y0046431D01*
X0185625Y0046474D01*
X0185471Y0046521D01*
X0185318Y0046572D01*
X0185167Y0046627D01*
X0185017Y0046685D01*
X0184869Y0046747D01*
X0184722Y0046813D01*
X0184577Y0046882D01*
X0184434Y0046955D01*
X0184292Y0047031D01*
X0184153Y0047111D01*
X0184015Y0047194D01*
X0183880Y0047281D01*
X0183746Y0047371D01*
X0183615Y0047464D01*
X0183487Y0047560D01*
X0183361Y0047660D01*
X0183237Y0047763D01*
X0183116Y0047868D01*
X0182997Y0047977D01*
X0182881Y0048088D01*
X0182768Y0048203D01*
X0182658Y0048320D01*
X0182551Y0048440D01*
X0182447Y0048562D01*
X0182346Y0048687D01*
X0182248Y0048815D01*
X0182153Y0048945D01*
X0182061Y0049077D01*
X0181973Y0049211D01*
X0181888Y0049348D01*
X0181806Y0049486D01*
X0181728Y0049627D01*
X0181654Y0049769D01*
X0181583Y0049913D01*
X0181515Y0050059D01*
X0181452Y0050207D01*
X0181391Y0050356D01*
X0181335Y0050507D01*
X0181282Y0050659D01*
X0181233Y0050812D01*
X0181188Y0050966D01*
X0181147Y0051121D01*
X0181109Y0051278D01*
X0181076Y0051435D01*
X0181046Y0051593D01*
X0181020Y0051752D01*
X0180999Y0051911D01*
X0180981Y0052071D01*
X0180967Y0052231D01*
X0180957Y0052392D01*
X0180951Y0052552D01*
X0180949Y0052713D01*
X0220319Y0086177D02*
X0220321Y0086338D01*
X0220327Y0086498D01*
X0220337Y0086659D01*
X0220351Y0086819D01*
X0220369Y0086979D01*
X0220390Y0087138D01*
X0220416Y0087297D01*
X0220446Y0087455D01*
X0220479Y0087612D01*
X0220517Y0087769D01*
X0220558Y0087924D01*
X0220603Y0088078D01*
X0220652Y0088231D01*
X0220705Y0088383D01*
X0220761Y0088534D01*
X0220822Y0088683D01*
X0220885Y0088831D01*
X0220953Y0088977D01*
X0221024Y0089121D01*
X0221098Y0089263D01*
X0221176Y0089404D01*
X0221258Y0089542D01*
X0221343Y0089679D01*
X0221431Y0089813D01*
X0221523Y0089945D01*
X0221618Y0090075D01*
X0221716Y0090203D01*
X0221817Y0090328D01*
X0221921Y0090450D01*
X0222028Y0090570D01*
X0222138Y0090687D01*
X0222251Y0090802D01*
X0222367Y0090913D01*
X0222486Y0091022D01*
X0222607Y0091127D01*
X0222731Y0091230D01*
X0222857Y0091330D01*
X0222985Y0091426D01*
X0223116Y0091519D01*
X0223250Y0091609D01*
X0223385Y0091696D01*
X0223523Y0091779D01*
X0223662Y0091859D01*
X0223804Y0091935D01*
X0223947Y0092008D01*
X0224092Y0092077D01*
X0224239Y0092143D01*
X0224387Y0092205D01*
X0224537Y0092263D01*
X0224688Y0092318D01*
X0224841Y0092369D01*
X0224995Y0092416D01*
X0225150Y0092459D01*
X0225306Y0092498D01*
X0225462Y0092534D01*
X0225620Y0092565D01*
X0225778Y0092593D01*
X0225937Y0092617D01*
X0226097Y0092637D01*
X0226257Y0092653D01*
X0226417Y0092665D01*
X0226578Y0092673D01*
X0226739Y0092677D01*
X0226899Y0092677D01*
X0227060Y0092673D01*
X0227221Y0092665D01*
X0227381Y0092653D01*
X0227541Y0092637D01*
X0227701Y0092617D01*
X0227860Y0092593D01*
X0228018Y0092565D01*
X0228176Y0092534D01*
X0228332Y0092498D01*
X0228488Y0092459D01*
X0228643Y0092416D01*
X0228797Y0092369D01*
X0228950Y0092318D01*
X0229101Y0092263D01*
X0229251Y0092205D01*
X0229399Y0092143D01*
X0229546Y0092077D01*
X0229691Y0092008D01*
X0229834Y0091935D01*
X0229976Y0091859D01*
X0230115Y0091779D01*
X0230253Y0091696D01*
X0230388Y0091609D01*
X0230522Y0091519D01*
X0230653Y0091426D01*
X0230781Y0091330D01*
X0230907Y0091230D01*
X0231031Y0091127D01*
X0231152Y0091022D01*
X0231271Y0090913D01*
X0231387Y0090802D01*
X0231500Y0090687D01*
X0231610Y0090570D01*
X0231717Y0090450D01*
X0231821Y0090328D01*
X0231922Y0090203D01*
X0232020Y0090075D01*
X0232115Y0089945D01*
X0232207Y0089813D01*
X0232295Y0089679D01*
X0232380Y0089542D01*
X0232462Y0089404D01*
X0232540Y0089263D01*
X0232614Y0089121D01*
X0232685Y0088977D01*
X0232753Y0088831D01*
X0232816Y0088683D01*
X0232877Y0088534D01*
X0232933Y0088383D01*
X0232986Y0088231D01*
X0233035Y0088078D01*
X0233080Y0087924D01*
X0233121Y0087769D01*
X0233159Y0087612D01*
X0233192Y0087455D01*
X0233222Y0087297D01*
X0233248Y0087138D01*
X0233269Y0086979D01*
X0233287Y0086819D01*
X0233301Y0086659D01*
X0233311Y0086498D01*
X0233317Y0086338D01*
X0233319Y0086177D01*
X0233317Y0086016D01*
X0233311Y0085856D01*
X0233301Y0085695D01*
X0233287Y0085535D01*
X0233269Y0085375D01*
X0233248Y0085216D01*
X0233222Y0085057D01*
X0233192Y0084899D01*
X0233159Y0084742D01*
X0233121Y0084585D01*
X0233080Y0084430D01*
X0233035Y0084276D01*
X0232986Y0084123D01*
X0232933Y0083971D01*
X0232877Y0083820D01*
X0232816Y0083671D01*
X0232753Y0083523D01*
X0232685Y0083377D01*
X0232614Y0083233D01*
X0232540Y0083091D01*
X0232462Y0082950D01*
X0232380Y0082812D01*
X0232295Y0082675D01*
X0232207Y0082541D01*
X0232115Y0082409D01*
X0232020Y0082279D01*
X0231922Y0082151D01*
X0231821Y0082026D01*
X0231717Y0081904D01*
X0231610Y0081784D01*
X0231500Y0081667D01*
X0231387Y0081552D01*
X0231271Y0081441D01*
X0231152Y0081332D01*
X0231031Y0081227D01*
X0230907Y0081124D01*
X0230781Y0081024D01*
X0230653Y0080928D01*
X0230522Y0080835D01*
X0230388Y0080745D01*
X0230253Y0080658D01*
X0230115Y0080575D01*
X0229976Y0080495D01*
X0229834Y0080419D01*
X0229691Y0080346D01*
X0229546Y0080277D01*
X0229399Y0080211D01*
X0229251Y0080149D01*
X0229101Y0080091D01*
X0228950Y0080036D01*
X0228797Y0079985D01*
X0228643Y0079938D01*
X0228488Y0079895D01*
X0228332Y0079856D01*
X0228176Y0079820D01*
X0228018Y0079789D01*
X0227860Y0079761D01*
X0227701Y0079737D01*
X0227541Y0079717D01*
X0227381Y0079701D01*
X0227221Y0079689D01*
X0227060Y0079681D01*
X0226899Y0079677D01*
X0226739Y0079677D01*
X0226578Y0079681D01*
X0226417Y0079689D01*
X0226257Y0079701D01*
X0226097Y0079717D01*
X0225937Y0079737D01*
X0225778Y0079761D01*
X0225620Y0079789D01*
X0225462Y0079820D01*
X0225306Y0079856D01*
X0225150Y0079895D01*
X0224995Y0079938D01*
X0224841Y0079985D01*
X0224688Y0080036D01*
X0224537Y0080091D01*
X0224387Y0080149D01*
X0224239Y0080211D01*
X0224092Y0080277D01*
X0223947Y0080346D01*
X0223804Y0080419D01*
X0223662Y0080495D01*
X0223523Y0080575D01*
X0223385Y0080658D01*
X0223250Y0080745D01*
X0223116Y0080835D01*
X0222985Y0080928D01*
X0222857Y0081024D01*
X0222731Y0081124D01*
X0222607Y0081227D01*
X0222486Y0081332D01*
X0222367Y0081441D01*
X0222251Y0081552D01*
X0222138Y0081667D01*
X0222028Y0081784D01*
X0221921Y0081904D01*
X0221817Y0082026D01*
X0221716Y0082151D01*
X0221618Y0082279D01*
X0221523Y0082409D01*
X0221431Y0082541D01*
X0221343Y0082675D01*
X0221258Y0082812D01*
X0221176Y0082950D01*
X0221098Y0083091D01*
X0221024Y0083233D01*
X0220953Y0083377D01*
X0220885Y0083523D01*
X0220822Y0083671D01*
X0220761Y0083820D01*
X0220705Y0083971D01*
X0220652Y0084123D01*
X0220603Y0084276D01*
X0220558Y0084430D01*
X0220517Y0084585D01*
X0220479Y0084742D01*
X0220446Y0084899D01*
X0220416Y0085057D01*
X0220390Y0085216D01*
X0220369Y0085375D01*
X0220351Y0085535D01*
X0220337Y0085695D01*
X0220327Y0085856D01*
X0220321Y0086016D01*
X0220319Y0086177D01*
X0208508Y0125547D02*
X0208510Y0125708D01*
X0208516Y0125868D01*
X0208526Y0126029D01*
X0208540Y0126189D01*
X0208558Y0126349D01*
X0208579Y0126508D01*
X0208605Y0126667D01*
X0208635Y0126825D01*
X0208668Y0126982D01*
X0208706Y0127139D01*
X0208747Y0127294D01*
X0208792Y0127448D01*
X0208841Y0127601D01*
X0208894Y0127753D01*
X0208950Y0127904D01*
X0209011Y0128053D01*
X0209074Y0128201D01*
X0209142Y0128347D01*
X0209213Y0128491D01*
X0209287Y0128633D01*
X0209365Y0128774D01*
X0209447Y0128912D01*
X0209532Y0129049D01*
X0209620Y0129183D01*
X0209712Y0129315D01*
X0209807Y0129445D01*
X0209905Y0129573D01*
X0210006Y0129698D01*
X0210110Y0129820D01*
X0210217Y0129940D01*
X0210327Y0130057D01*
X0210440Y0130172D01*
X0210556Y0130283D01*
X0210675Y0130392D01*
X0210796Y0130497D01*
X0210920Y0130600D01*
X0211046Y0130700D01*
X0211174Y0130796D01*
X0211305Y0130889D01*
X0211439Y0130979D01*
X0211574Y0131066D01*
X0211712Y0131149D01*
X0211851Y0131229D01*
X0211993Y0131305D01*
X0212136Y0131378D01*
X0212281Y0131447D01*
X0212428Y0131513D01*
X0212576Y0131575D01*
X0212726Y0131633D01*
X0212877Y0131688D01*
X0213030Y0131739D01*
X0213184Y0131786D01*
X0213339Y0131829D01*
X0213495Y0131868D01*
X0213651Y0131904D01*
X0213809Y0131935D01*
X0213967Y0131963D01*
X0214126Y0131987D01*
X0214286Y0132007D01*
X0214446Y0132023D01*
X0214606Y0132035D01*
X0214767Y0132043D01*
X0214928Y0132047D01*
X0215088Y0132047D01*
X0215249Y0132043D01*
X0215410Y0132035D01*
X0215570Y0132023D01*
X0215730Y0132007D01*
X0215890Y0131987D01*
X0216049Y0131963D01*
X0216207Y0131935D01*
X0216365Y0131904D01*
X0216521Y0131868D01*
X0216677Y0131829D01*
X0216832Y0131786D01*
X0216986Y0131739D01*
X0217139Y0131688D01*
X0217290Y0131633D01*
X0217440Y0131575D01*
X0217588Y0131513D01*
X0217735Y0131447D01*
X0217880Y0131378D01*
X0218023Y0131305D01*
X0218165Y0131229D01*
X0218304Y0131149D01*
X0218442Y0131066D01*
X0218577Y0130979D01*
X0218711Y0130889D01*
X0218842Y0130796D01*
X0218970Y0130700D01*
X0219096Y0130600D01*
X0219220Y0130497D01*
X0219341Y0130392D01*
X0219460Y0130283D01*
X0219576Y0130172D01*
X0219689Y0130057D01*
X0219799Y0129940D01*
X0219906Y0129820D01*
X0220010Y0129698D01*
X0220111Y0129573D01*
X0220209Y0129445D01*
X0220304Y0129315D01*
X0220396Y0129183D01*
X0220484Y0129049D01*
X0220569Y0128912D01*
X0220651Y0128774D01*
X0220729Y0128633D01*
X0220803Y0128491D01*
X0220874Y0128347D01*
X0220942Y0128201D01*
X0221005Y0128053D01*
X0221066Y0127904D01*
X0221122Y0127753D01*
X0221175Y0127601D01*
X0221224Y0127448D01*
X0221269Y0127294D01*
X0221310Y0127139D01*
X0221348Y0126982D01*
X0221381Y0126825D01*
X0221411Y0126667D01*
X0221437Y0126508D01*
X0221458Y0126349D01*
X0221476Y0126189D01*
X0221490Y0126029D01*
X0221500Y0125868D01*
X0221506Y0125708D01*
X0221508Y0125547D01*
X0221506Y0125386D01*
X0221500Y0125226D01*
X0221490Y0125065D01*
X0221476Y0124905D01*
X0221458Y0124745D01*
X0221437Y0124586D01*
X0221411Y0124427D01*
X0221381Y0124269D01*
X0221348Y0124112D01*
X0221310Y0123955D01*
X0221269Y0123800D01*
X0221224Y0123646D01*
X0221175Y0123493D01*
X0221122Y0123341D01*
X0221066Y0123190D01*
X0221005Y0123041D01*
X0220942Y0122893D01*
X0220874Y0122747D01*
X0220803Y0122603D01*
X0220729Y0122461D01*
X0220651Y0122320D01*
X0220569Y0122182D01*
X0220484Y0122045D01*
X0220396Y0121911D01*
X0220304Y0121779D01*
X0220209Y0121649D01*
X0220111Y0121521D01*
X0220010Y0121396D01*
X0219906Y0121274D01*
X0219799Y0121154D01*
X0219689Y0121037D01*
X0219576Y0120922D01*
X0219460Y0120811D01*
X0219341Y0120702D01*
X0219220Y0120597D01*
X0219096Y0120494D01*
X0218970Y0120394D01*
X0218842Y0120298D01*
X0218711Y0120205D01*
X0218577Y0120115D01*
X0218442Y0120028D01*
X0218304Y0119945D01*
X0218165Y0119865D01*
X0218023Y0119789D01*
X0217880Y0119716D01*
X0217735Y0119647D01*
X0217588Y0119581D01*
X0217440Y0119519D01*
X0217290Y0119461D01*
X0217139Y0119406D01*
X0216986Y0119355D01*
X0216832Y0119308D01*
X0216677Y0119265D01*
X0216521Y0119226D01*
X0216365Y0119190D01*
X0216207Y0119159D01*
X0216049Y0119131D01*
X0215890Y0119107D01*
X0215730Y0119087D01*
X0215570Y0119071D01*
X0215410Y0119059D01*
X0215249Y0119051D01*
X0215088Y0119047D01*
X0214928Y0119047D01*
X0214767Y0119051D01*
X0214606Y0119059D01*
X0214446Y0119071D01*
X0214286Y0119087D01*
X0214126Y0119107D01*
X0213967Y0119131D01*
X0213809Y0119159D01*
X0213651Y0119190D01*
X0213495Y0119226D01*
X0213339Y0119265D01*
X0213184Y0119308D01*
X0213030Y0119355D01*
X0212877Y0119406D01*
X0212726Y0119461D01*
X0212576Y0119519D01*
X0212428Y0119581D01*
X0212281Y0119647D01*
X0212136Y0119716D01*
X0211993Y0119789D01*
X0211851Y0119865D01*
X0211712Y0119945D01*
X0211574Y0120028D01*
X0211439Y0120115D01*
X0211305Y0120205D01*
X0211174Y0120298D01*
X0211046Y0120394D01*
X0210920Y0120494D01*
X0210796Y0120597D01*
X0210675Y0120702D01*
X0210556Y0120811D01*
X0210440Y0120922D01*
X0210327Y0121037D01*
X0210217Y0121154D01*
X0210110Y0121274D01*
X0210006Y0121396D01*
X0209905Y0121521D01*
X0209807Y0121649D01*
X0209712Y0121779D01*
X0209620Y0121911D01*
X0209532Y0122045D01*
X0209447Y0122182D01*
X0209365Y0122320D01*
X0209287Y0122461D01*
X0209213Y0122603D01*
X0209142Y0122747D01*
X0209074Y0122893D01*
X0209011Y0123041D01*
X0208950Y0123190D01*
X0208894Y0123341D01*
X0208841Y0123493D01*
X0208792Y0123646D01*
X0208747Y0123800D01*
X0208706Y0123955D01*
X0208668Y0124112D01*
X0208635Y0124269D01*
X0208605Y0124427D01*
X0208579Y0124586D01*
X0208558Y0124745D01*
X0208540Y0124905D01*
X0208526Y0125065D01*
X0208516Y0125226D01*
X0208510Y0125386D01*
X0208508Y0125547D01*
X0259689Y0082240D02*
X0259691Y0082401D01*
X0259697Y0082561D01*
X0259707Y0082722D01*
X0259721Y0082882D01*
X0259739Y0083042D01*
X0259760Y0083201D01*
X0259786Y0083360D01*
X0259816Y0083518D01*
X0259849Y0083675D01*
X0259887Y0083832D01*
X0259928Y0083987D01*
X0259973Y0084141D01*
X0260022Y0084294D01*
X0260075Y0084446D01*
X0260131Y0084597D01*
X0260192Y0084746D01*
X0260255Y0084894D01*
X0260323Y0085040D01*
X0260394Y0085184D01*
X0260468Y0085326D01*
X0260546Y0085467D01*
X0260628Y0085605D01*
X0260713Y0085742D01*
X0260801Y0085876D01*
X0260893Y0086008D01*
X0260988Y0086138D01*
X0261086Y0086266D01*
X0261187Y0086391D01*
X0261291Y0086513D01*
X0261398Y0086633D01*
X0261508Y0086750D01*
X0261621Y0086865D01*
X0261737Y0086976D01*
X0261856Y0087085D01*
X0261977Y0087190D01*
X0262101Y0087293D01*
X0262227Y0087393D01*
X0262355Y0087489D01*
X0262486Y0087582D01*
X0262620Y0087672D01*
X0262755Y0087759D01*
X0262893Y0087842D01*
X0263032Y0087922D01*
X0263174Y0087998D01*
X0263317Y0088071D01*
X0263462Y0088140D01*
X0263609Y0088206D01*
X0263757Y0088268D01*
X0263907Y0088326D01*
X0264058Y0088381D01*
X0264211Y0088432D01*
X0264365Y0088479D01*
X0264520Y0088522D01*
X0264676Y0088561D01*
X0264832Y0088597D01*
X0264990Y0088628D01*
X0265148Y0088656D01*
X0265307Y0088680D01*
X0265467Y0088700D01*
X0265627Y0088716D01*
X0265787Y0088728D01*
X0265948Y0088736D01*
X0266109Y0088740D01*
X0266269Y0088740D01*
X0266430Y0088736D01*
X0266591Y0088728D01*
X0266751Y0088716D01*
X0266911Y0088700D01*
X0267071Y0088680D01*
X0267230Y0088656D01*
X0267388Y0088628D01*
X0267546Y0088597D01*
X0267702Y0088561D01*
X0267858Y0088522D01*
X0268013Y0088479D01*
X0268167Y0088432D01*
X0268320Y0088381D01*
X0268471Y0088326D01*
X0268621Y0088268D01*
X0268769Y0088206D01*
X0268916Y0088140D01*
X0269061Y0088071D01*
X0269204Y0087998D01*
X0269346Y0087922D01*
X0269485Y0087842D01*
X0269623Y0087759D01*
X0269758Y0087672D01*
X0269892Y0087582D01*
X0270023Y0087489D01*
X0270151Y0087393D01*
X0270277Y0087293D01*
X0270401Y0087190D01*
X0270522Y0087085D01*
X0270641Y0086976D01*
X0270757Y0086865D01*
X0270870Y0086750D01*
X0270980Y0086633D01*
X0271087Y0086513D01*
X0271191Y0086391D01*
X0271292Y0086266D01*
X0271390Y0086138D01*
X0271485Y0086008D01*
X0271577Y0085876D01*
X0271665Y0085742D01*
X0271750Y0085605D01*
X0271832Y0085467D01*
X0271910Y0085326D01*
X0271984Y0085184D01*
X0272055Y0085040D01*
X0272123Y0084894D01*
X0272186Y0084746D01*
X0272247Y0084597D01*
X0272303Y0084446D01*
X0272356Y0084294D01*
X0272405Y0084141D01*
X0272450Y0083987D01*
X0272491Y0083832D01*
X0272529Y0083675D01*
X0272562Y0083518D01*
X0272592Y0083360D01*
X0272618Y0083201D01*
X0272639Y0083042D01*
X0272657Y0082882D01*
X0272671Y0082722D01*
X0272681Y0082561D01*
X0272687Y0082401D01*
X0272689Y0082240D01*
X0272687Y0082079D01*
X0272681Y0081919D01*
X0272671Y0081758D01*
X0272657Y0081598D01*
X0272639Y0081438D01*
X0272618Y0081279D01*
X0272592Y0081120D01*
X0272562Y0080962D01*
X0272529Y0080805D01*
X0272491Y0080648D01*
X0272450Y0080493D01*
X0272405Y0080339D01*
X0272356Y0080186D01*
X0272303Y0080034D01*
X0272247Y0079883D01*
X0272186Y0079734D01*
X0272123Y0079586D01*
X0272055Y0079440D01*
X0271984Y0079296D01*
X0271910Y0079154D01*
X0271832Y0079013D01*
X0271750Y0078875D01*
X0271665Y0078738D01*
X0271577Y0078604D01*
X0271485Y0078472D01*
X0271390Y0078342D01*
X0271292Y0078214D01*
X0271191Y0078089D01*
X0271087Y0077967D01*
X0270980Y0077847D01*
X0270870Y0077730D01*
X0270757Y0077615D01*
X0270641Y0077504D01*
X0270522Y0077395D01*
X0270401Y0077290D01*
X0270277Y0077187D01*
X0270151Y0077087D01*
X0270023Y0076991D01*
X0269892Y0076898D01*
X0269758Y0076808D01*
X0269623Y0076721D01*
X0269485Y0076638D01*
X0269346Y0076558D01*
X0269204Y0076482D01*
X0269061Y0076409D01*
X0268916Y0076340D01*
X0268769Y0076274D01*
X0268621Y0076212D01*
X0268471Y0076154D01*
X0268320Y0076099D01*
X0268167Y0076048D01*
X0268013Y0076001D01*
X0267858Y0075958D01*
X0267702Y0075919D01*
X0267546Y0075883D01*
X0267388Y0075852D01*
X0267230Y0075824D01*
X0267071Y0075800D01*
X0266911Y0075780D01*
X0266751Y0075764D01*
X0266591Y0075752D01*
X0266430Y0075744D01*
X0266269Y0075740D01*
X0266109Y0075740D01*
X0265948Y0075744D01*
X0265787Y0075752D01*
X0265627Y0075764D01*
X0265467Y0075780D01*
X0265307Y0075800D01*
X0265148Y0075824D01*
X0264990Y0075852D01*
X0264832Y0075883D01*
X0264676Y0075919D01*
X0264520Y0075958D01*
X0264365Y0076001D01*
X0264211Y0076048D01*
X0264058Y0076099D01*
X0263907Y0076154D01*
X0263757Y0076212D01*
X0263609Y0076274D01*
X0263462Y0076340D01*
X0263317Y0076409D01*
X0263174Y0076482D01*
X0263032Y0076558D01*
X0262893Y0076638D01*
X0262755Y0076721D01*
X0262620Y0076808D01*
X0262486Y0076898D01*
X0262355Y0076991D01*
X0262227Y0077087D01*
X0262101Y0077187D01*
X0261977Y0077290D01*
X0261856Y0077395D01*
X0261737Y0077504D01*
X0261621Y0077615D01*
X0261508Y0077730D01*
X0261398Y0077847D01*
X0261291Y0077967D01*
X0261187Y0078089D01*
X0261086Y0078214D01*
X0260988Y0078342D01*
X0260893Y0078472D01*
X0260801Y0078604D01*
X0260713Y0078738D01*
X0260628Y0078875D01*
X0260546Y0079013D01*
X0260468Y0079154D01*
X0260394Y0079296D01*
X0260323Y0079440D01*
X0260255Y0079586D01*
X0260192Y0079734D01*
X0260131Y0079883D01*
X0260075Y0080034D01*
X0260022Y0080186D01*
X0259973Y0080339D01*
X0259928Y0080493D01*
X0259887Y0080648D01*
X0259849Y0080805D01*
X0259816Y0080962D01*
X0259786Y0081120D01*
X0259760Y0081279D01*
X0259739Y0081438D01*
X0259721Y0081598D01*
X0259707Y0081758D01*
X0259697Y0081919D01*
X0259691Y0082079D01*
X0259689Y0082240D01*
X0259689Y0216098D02*
X0259691Y0216259D01*
X0259697Y0216419D01*
X0259707Y0216580D01*
X0259721Y0216740D01*
X0259739Y0216900D01*
X0259760Y0217059D01*
X0259786Y0217218D01*
X0259816Y0217376D01*
X0259849Y0217533D01*
X0259887Y0217690D01*
X0259928Y0217845D01*
X0259973Y0217999D01*
X0260022Y0218152D01*
X0260075Y0218304D01*
X0260131Y0218455D01*
X0260192Y0218604D01*
X0260255Y0218752D01*
X0260323Y0218898D01*
X0260394Y0219042D01*
X0260468Y0219184D01*
X0260546Y0219325D01*
X0260628Y0219463D01*
X0260713Y0219600D01*
X0260801Y0219734D01*
X0260893Y0219866D01*
X0260988Y0219996D01*
X0261086Y0220124D01*
X0261187Y0220249D01*
X0261291Y0220371D01*
X0261398Y0220491D01*
X0261508Y0220608D01*
X0261621Y0220723D01*
X0261737Y0220834D01*
X0261856Y0220943D01*
X0261977Y0221048D01*
X0262101Y0221151D01*
X0262227Y0221251D01*
X0262355Y0221347D01*
X0262486Y0221440D01*
X0262620Y0221530D01*
X0262755Y0221617D01*
X0262893Y0221700D01*
X0263032Y0221780D01*
X0263174Y0221856D01*
X0263317Y0221929D01*
X0263462Y0221998D01*
X0263609Y0222064D01*
X0263757Y0222126D01*
X0263907Y0222184D01*
X0264058Y0222239D01*
X0264211Y0222290D01*
X0264365Y0222337D01*
X0264520Y0222380D01*
X0264676Y0222419D01*
X0264832Y0222455D01*
X0264990Y0222486D01*
X0265148Y0222514D01*
X0265307Y0222538D01*
X0265467Y0222558D01*
X0265627Y0222574D01*
X0265787Y0222586D01*
X0265948Y0222594D01*
X0266109Y0222598D01*
X0266269Y0222598D01*
X0266430Y0222594D01*
X0266591Y0222586D01*
X0266751Y0222574D01*
X0266911Y0222558D01*
X0267071Y0222538D01*
X0267230Y0222514D01*
X0267388Y0222486D01*
X0267546Y0222455D01*
X0267702Y0222419D01*
X0267858Y0222380D01*
X0268013Y0222337D01*
X0268167Y0222290D01*
X0268320Y0222239D01*
X0268471Y0222184D01*
X0268621Y0222126D01*
X0268769Y0222064D01*
X0268916Y0221998D01*
X0269061Y0221929D01*
X0269204Y0221856D01*
X0269346Y0221780D01*
X0269485Y0221700D01*
X0269623Y0221617D01*
X0269758Y0221530D01*
X0269892Y0221440D01*
X0270023Y0221347D01*
X0270151Y0221251D01*
X0270277Y0221151D01*
X0270401Y0221048D01*
X0270522Y0220943D01*
X0270641Y0220834D01*
X0270757Y0220723D01*
X0270870Y0220608D01*
X0270980Y0220491D01*
X0271087Y0220371D01*
X0271191Y0220249D01*
X0271292Y0220124D01*
X0271390Y0219996D01*
X0271485Y0219866D01*
X0271577Y0219734D01*
X0271665Y0219600D01*
X0271750Y0219463D01*
X0271832Y0219325D01*
X0271910Y0219184D01*
X0271984Y0219042D01*
X0272055Y0218898D01*
X0272123Y0218752D01*
X0272186Y0218604D01*
X0272247Y0218455D01*
X0272303Y0218304D01*
X0272356Y0218152D01*
X0272405Y0217999D01*
X0272450Y0217845D01*
X0272491Y0217690D01*
X0272529Y0217533D01*
X0272562Y0217376D01*
X0272592Y0217218D01*
X0272618Y0217059D01*
X0272639Y0216900D01*
X0272657Y0216740D01*
X0272671Y0216580D01*
X0272681Y0216419D01*
X0272687Y0216259D01*
X0272689Y0216098D01*
X0272687Y0215937D01*
X0272681Y0215777D01*
X0272671Y0215616D01*
X0272657Y0215456D01*
X0272639Y0215296D01*
X0272618Y0215137D01*
X0272592Y0214978D01*
X0272562Y0214820D01*
X0272529Y0214663D01*
X0272491Y0214506D01*
X0272450Y0214351D01*
X0272405Y0214197D01*
X0272356Y0214044D01*
X0272303Y0213892D01*
X0272247Y0213741D01*
X0272186Y0213592D01*
X0272123Y0213444D01*
X0272055Y0213298D01*
X0271984Y0213154D01*
X0271910Y0213012D01*
X0271832Y0212871D01*
X0271750Y0212733D01*
X0271665Y0212596D01*
X0271577Y0212462D01*
X0271485Y0212330D01*
X0271390Y0212200D01*
X0271292Y0212072D01*
X0271191Y0211947D01*
X0271087Y0211825D01*
X0270980Y0211705D01*
X0270870Y0211588D01*
X0270757Y0211473D01*
X0270641Y0211362D01*
X0270522Y0211253D01*
X0270401Y0211148D01*
X0270277Y0211045D01*
X0270151Y0210945D01*
X0270023Y0210849D01*
X0269892Y0210756D01*
X0269758Y0210666D01*
X0269623Y0210579D01*
X0269485Y0210496D01*
X0269346Y0210416D01*
X0269204Y0210340D01*
X0269061Y0210267D01*
X0268916Y0210198D01*
X0268769Y0210132D01*
X0268621Y0210070D01*
X0268471Y0210012D01*
X0268320Y0209957D01*
X0268167Y0209906D01*
X0268013Y0209859D01*
X0267858Y0209816D01*
X0267702Y0209777D01*
X0267546Y0209741D01*
X0267388Y0209710D01*
X0267230Y0209682D01*
X0267071Y0209658D01*
X0266911Y0209638D01*
X0266751Y0209622D01*
X0266591Y0209610D01*
X0266430Y0209602D01*
X0266269Y0209598D01*
X0266109Y0209598D01*
X0265948Y0209602D01*
X0265787Y0209610D01*
X0265627Y0209622D01*
X0265467Y0209638D01*
X0265307Y0209658D01*
X0265148Y0209682D01*
X0264990Y0209710D01*
X0264832Y0209741D01*
X0264676Y0209777D01*
X0264520Y0209816D01*
X0264365Y0209859D01*
X0264211Y0209906D01*
X0264058Y0209957D01*
X0263907Y0210012D01*
X0263757Y0210070D01*
X0263609Y0210132D01*
X0263462Y0210198D01*
X0263317Y0210267D01*
X0263174Y0210340D01*
X0263032Y0210416D01*
X0262893Y0210496D01*
X0262755Y0210579D01*
X0262620Y0210666D01*
X0262486Y0210756D01*
X0262355Y0210849D01*
X0262227Y0210945D01*
X0262101Y0211045D01*
X0261977Y0211148D01*
X0261856Y0211253D01*
X0261737Y0211362D01*
X0261621Y0211473D01*
X0261508Y0211588D01*
X0261398Y0211705D01*
X0261291Y0211825D01*
X0261187Y0211947D01*
X0261086Y0212072D01*
X0260988Y0212200D01*
X0260893Y0212330D01*
X0260801Y0212462D01*
X0260713Y0212596D01*
X0260628Y0212733D01*
X0260546Y0212871D01*
X0260468Y0213012D01*
X0260394Y0213154D01*
X0260323Y0213298D01*
X0260255Y0213444D01*
X0260192Y0213592D01*
X0260131Y0213741D01*
X0260075Y0213892D01*
X0260022Y0214044D01*
X0259973Y0214197D01*
X0259928Y0214351D01*
X0259887Y0214506D01*
X0259849Y0214663D01*
X0259816Y0214820D01*
X0259786Y0214978D01*
X0259760Y0215137D01*
X0259739Y0215296D01*
X0259721Y0215456D01*
X0259707Y0215616D01*
X0259697Y0215777D01*
X0259691Y0215937D01*
X0259689Y0216098D01*
X0007720Y0216098D02*
X0007722Y0216259D01*
X0007728Y0216419D01*
X0007738Y0216580D01*
X0007752Y0216740D01*
X0007770Y0216900D01*
X0007791Y0217059D01*
X0007817Y0217218D01*
X0007847Y0217376D01*
X0007880Y0217533D01*
X0007918Y0217690D01*
X0007959Y0217845D01*
X0008004Y0217999D01*
X0008053Y0218152D01*
X0008106Y0218304D01*
X0008162Y0218455D01*
X0008223Y0218604D01*
X0008286Y0218752D01*
X0008354Y0218898D01*
X0008425Y0219042D01*
X0008499Y0219184D01*
X0008577Y0219325D01*
X0008659Y0219463D01*
X0008744Y0219600D01*
X0008832Y0219734D01*
X0008924Y0219866D01*
X0009019Y0219996D01*
X0009117Y0220124D01*
X0009218Y0220249D01*
X0009322Y0220371D01*
X0009429Y0220491D01*
X0009539Y0220608D01*
X0009652Y0220723D01*
X0009768Y0220834D01*
X0009887Y0220943D01*
X0010008Y0221048D01*
X0010132Y0221151D01*
X0010258Y0221251D01*
X0010386Y0221347D01*
X0010517Y0221440D01*
X0010651Y0221530D01*
X0010786Y0221617D01*
X0010924Y0221700D01*
X0011063Y0221780D01*
X0011205Y0221856D01*
X0011348Y0221929D01*
X0011493Y0221998D01*
X0011640Y0222064D01*
X0011788Y0222126D01*
X0011938Y0222184D01*
X0012089Y0222239D01*
X0012242Y0222290D01*
X0012396Y0222337D01*
X0012551Y0222380D01*
X0012707Y0222419D01*
X0012863Y0222455D01*
X0013021Y0222486D01*
X0013179Y0222514D01*
X0013338Y0222538D01*
X0013498Y0222558D01*
X0013658Y0222574D01*
X0013818Y0222586D01*
X0013979Y0222594D01*
X0014140Y0222598D01*
X0014300Y0222598D01*
X0014461Y0222594D01*
X0014622Y0222586D01*
X0014782Y0222574D01*
X0014942Y0222558D01*
X0015102Y0222538D01*
X0015261Y0222514D01*
X0015419Y0222486D01*
X0015577Y0222455D01*
X0015733Y0222419D01*
X0015889Y0222380D01*
X0016044Y0222337D01*
X0016198Y0222290D01*
X0016351Y0222239D01*
X0016502Y0222184D01*
X0016652Y0222126D01*
X0016800Y0222064D01*
X0016947Y0221998D01*
X0017092Y0221929D01*
X0017235Y0221856D01*
X0017377Y0221780D01*
X0017516Y0221700D01*
X0017654Y0221617D01*
X0017789Y0221530D01*
X0017923Y0221440D01*
X0018054Y0221347D01*
X0018182Y0221251D01*
X0018308Y0221151D01*
X0018432Y0221048D01*
X0018553Y0220943D01*
X0018672Y0220834D01*
X0018788Y0220723D01*
X0018901Y0220608D01*
X0019011Y0220491D01*
X0019118Y0220371D01*
X0019222Y0220249D01*
X0019323Y0220124D01*
X0019421Y0219996D01*
X0019516Y0219866D01*
X0019608Y0219734D01*
X0019696Y0219600D01*
X0019781Y0219463D01*
X0019863Y0219325D01*
X0019941Y0219184D01*
X0020015Y0219042D01*
X0020086Y0218898D01*
X0020154Y0218752D01*
X0020217Y0218604D01*
X0020278Y0218455D01*
X0020334Y0218304D01*
X0020387Y0218152D01*
X0020436Y0217999D01*
X0020481Y0217845D01*
X0020522Y0217690D01*
X0020560Y0217533D01*
X0020593Y0217376D01*
X0020623Y0217218D01*
X0020649Y0217059D01*
X0020670Y0216900D01*
X0020688Y0216740D01*
X0020702Y0216580D01*
X0020712Y0216419D01*
X0020718Y0216259D01*
X0020720Y0216098D01*
X0020718Y0215937D01*
X0020712Y0215777D01*
X0020702Y0215616D01*
X0020688Y0215456D01*
X0020670Y0215296D01*
X0020649Y0215137D01*
X0020623Y0214978D01*
X0020593Y0214820D01*
X0020560Y0214663D01*
X0020522Y0214506D01*
X0020481Y0214351D01*
X0020436Y0214197D01*
X0020387Y0214044D01*
X0020334Y0213892D01*
X0020278Y0213741D01*
X0020217Y0213592D01*
X0020154Y0213444D01*
X0020086Y0213298D01*
X0020015Y0213154D01*
X0019941Y0213012D01*
X0019863Y0212871D01*
X0019781Y0212733D01*
X0019696Y0212596D01*
X0019608Y0212462D01*
X0019516Y0212330D01*
X0019421Y0212200D01*
X0019323Y0212072D01*
X0019222Y0211947D01*
X0019118Y0211825D01*
X0019011Y0211705D01*
X0018901Y0211588D01*
X0018788Y0211473D01*
X0018672Y0211362D01*
X0018553Y0211253D01*
X0018432Y0211148D01*
X0018308Y0211045D01*
X0018182Y0210945D01*
X0018054Y0210849D01*
X0017923Y0210756D01*
X0017789Y0210666D01*
X0017654Y0210579D01*
X0017516Y0210496D01*
X0017377Y0210416D01*
X0017235Y0210340D01*
X0017092Y0210267D01*
X0016947Y0210198D01*
X0016800Y0210132D01*
X0016652Y0210070D01*
X0016502Y0210012D01*
X0016351Y0209957D01*
X0016198Y0209906D01*
X0016044Y0209859D01*
X0015889Y0209816D01*
X0015733Y0209777D01*
X0015577Y0209741D01*
X0015419Y0209710D01*
X0015261Y0209682D01*
X0015102Y0209658D01*
X0014942Y0209638D01*
X0014782Y0209622D01*
X0014622Y0209610D01*
X0014461Y0209602D01*
X0014300Y0209598D01*
X0014140Y0209598D01*
X0013979Y0209602D01*
X0013818Y0209610D01*
X0013658Y0209622D01*
X0013498Y0209638D01*
X0013338Y0209658D01*
X0013179Y0209682D01*
X0013021Y0209710D01*
X0012863Y0209741D01*
X0012707Y0209777D01*
X0012551Y0209816D01*
X0012396Y0209859D01*
X0012242Y0209906D01*
X0012089Y0209957D01*
X0011938Y0210012D01*
X0011788Y0210070D01*
X0011640Y0210132D01*
X0011493Y0210198D01*
X0011348Y0210267D01*
X0011205Y0210340D01*
X0011063Y0210416D01*
X0010924Y0210496D01*
X0010786Y0210579D01*
X0010651Y0210666D01*
X0010517Y0210756D01*
X0010386Y0210849D01*
X0010258Y0210945D01*
X0010132Y0211045D01*
X0010008Y0211148D01*
X0009887Y0211253D01*
X0009768Y0211362D01*
X0009652Y0211473D01*
X0009539Y0211588D01*
X0009429Y0211705D01*
X0009322Y0211825D01*
X0009218Y0211947D01*
X0009117Y0212072D01*
X0009019Y0212200D01*
X0008924Y0212330D01*
X0008832Y0212462D01*
X0008744Y0212596D01*
X0008659Y0212733D01*
X0008577Y0212871D01*
X0008499Y0213012D01*
X0008425Y0213154D01*
X0008354Y0213298D01*
X0008286Y0213444D01*
X0008223Y0213592D01*
X0008162Y0213741D01*
X0008106Y0213892D01*
X0008053Y0214044D01*
X0008004Y0214197D01*
X0007959Y0214351D01*
X0007918Y0214506D01*
X0007880Y0214663D01*
X0007847Y0214820D01*
X0007817Y0214978D01*
X0007791Y0215137D01*
X0007770Y0215296D01*
X0007752Y0215456D01*
X0007738Y0215616D01*
X0007728Y0215777D01*
X0007722Y0215937D01*
X0007720Y0216098D01*
D11*
X0046484Y0128012D03*
X0046484Y0127812D03*
X0046484Y0127612D03*
X0046484Y0127412D03*
X0046484Y0123612D03*
X0046484Y0123412D03*
X0046484Y0123212D03*
X0046484Y0123012D03*
X0052484Y0127412D03*
X0052484Y0127612D03*
X0052484Y0127812D03*
X0052484Y0128012D03*
X0068925Y0096569D03*
X0068925Y0096369D03*
X0068925Y0096169D03*
X0068925Y0095969D03*
X0068925Y0092169D03*
X0068925Y0091969D03*
X0068925Y0091769D03*
X0068925Y0091569D03*
X0074925Y0091569D03*
X0074925Y0091769D03*
X0074925Y0091969D03*
X0074925Y0092169D03*
X0074925Y0095969D03*
X0074925Y0096169D03*
X0074925Y0096369D03*
X0074925Y0096569D03*
X0080925Y0096569D03*
X0080925Y0096369D03*
X0080925Y0096169D03*
X0080925Y0095969D03*
X0080925Y0092169D03*
X0080925Y0091969D03*
X0080925Y0091769D03*
X0080925Y0091569D03*
X0086925Y0091569D03*
X0086925Y0091769D03*
X0086925Y0091969D03*
X0086925Y0092169D03*
X0086925Y0095969D03*
X0086925Y0096169D03*
X0086925Y0096369D03*
X0086925Y0096569D03*
X0092925Y0096569D03*
X0092925Y0096369D03*
X0092925Y0096169D03*
X0092925Y0095969D03*
X0058579Y0060969D03*
X0058579Y0060769D03*
X0058579Y0060569D03*
X0058579Y0060369D03*
X0058579Y0056569D03*
X0058579Y0056369D03*
X0058579Y0056169D03*
X0058579Y0055969D03*
X0052579Y0055969D03*
X0052579Y0056169D03*
X0052579Y0056369D03*
X0052579Y0056569D03*
X0052579Y0060369D03*
X0052579Y0060569D03*
X0052579Y0060769D03*
X0052579Y0060969D03*
X0046579Y0060969D03*
X0046579Y0060769D03*
X0046579Y0060569D03*
X0046579Y0060369D03*
X0046579Y0056569D03*
X0046579Y0056369D03*
X0046579Y0056169D03*
X0046579Y0055969D03*
X0040579Y0055969D03*
X0040579Y0056169D03*
X0040579Y0056369D03*
X0040579Y0056569D03*
X0040579Y0060369D03*
X0040579Y0060569D03*
X0040579Y0060769D03*
X0040579Y0060969D03*
X0014689Y0091289D03*
X0014689Y0091489D03*
X0014689Y0091689D03*
X0014689Y0091889D03*
X0014689Y0095689D03*
X0014689Y0095889D03*
X0014689Y0096089D03*
X0014689Y0096289D03*
X0020689Y0096289D03*
X0020689Y0096089D03*
X0020689Y0095889D03*
X0020689Y0095689D03*
X0026689Y0095689D03*
X0026689Y0095889D03*
X0026689Y0096089D03*
X0026689Y0096289D03*
X0008689Y0091889D03*
X0008689Y0091689D03*
X0008689Y0091489D03*
X0008689Y0091289D03*
X0102390Y0013952D03*
X0102390Y0013752D03*
X0102390Y0013552D03*
X0102390Y0013352D03*
X0102390Y0009552D03*
X0102390Y0009352D03*
X0102390Y0009152D03*
X0102390Y0008952D03*
X0108390Y0008952D03*
X0108390Y0009152D03*
X0108390Y0009352D03*
X0108390Y0009552D03*
X0108390Y0013352D03*
X0108390Y0013552D03*
X0108390Y0013752D03*
X0108390Y0013952D03*
X0114390Y0009552D03*
X0114390Y0009352D03*
X0114390Y0009152D03*
X0114390Y0008952D03*
X0120390Y0008952D03*
X0120390Y0009152D03*
X0120390Y0009352D03*
X0120390Y0009552D03*
X0120390Y0013352D03*
X0120390Y0013552D03*
X0120390Y0013752D03*
X0120390Y0013952D03*
X0126390Y0013952D03*
X0126390Y0013752D03*
X0126390Y0013552D03*
X0126390Y0013352D03*
X0126390Y0009552D03*
X0126390Y0009352D03*
X0126390Y0009152D03*
X0126390Y0008952D03*
X0132390Y0013352D03*
X0132390Y0013552D03*
X0132390Y0013752D03*
X0132390Y0013952D03*
X0152390Y0013672D03*
X0152390Y0013472D03*
X0152390Y0013272D03*
X0152390Y0013072D03*
X0152390Y0009272D03*
X0152390Y0009072D03*
X0152390Y0008872D03*
X0152390Y0008672D03*
X0158390Y0013072D03*
X0158390Y0013272D03*
X0158390Y0013472D03*
X0158390Y0013672D03*
X0164390Y0013672D03*
X0164390Y0013472D03*
X0164390Y0013272D03*
X0164390Y0013072D03*
X0164390Y0009272D03*
X0164390Y0009072D03*
X0164390Y0008872D03*
X0164390Y0008672D03*
X0170390Y0008672D03*
X0170390Y0008872D03*
X0170390Y0009072D03*
X0170390Y0009272D03*
X0170390Y0013072D03*
X0170390Y0013272D03*
X0170390Y0013472D03*
X0170390Y0013672D03*
X0176390Y0013672D03*
X0176390Y0013472D03*
X0176390Y0013272D03*
X0176390Y0013072D03*
X0169613Y0048483D03*
X0169613Y0048683D03*
X0169613Y0048883D03*
X0169613Y0049083D03*
X0169613Y0052883D03*
X0169613Y0053083D03*
X0169613Y0053283D03*
X0169613Y0053483D03*
X0163613Y0053483D03*
X0163613Y0053283D03*
X0163613Y0053083D03*
X0163613Y0052883D03*
X0163613Y0049083D03*
X0163613Y0048883D03*
X0163613Y0048683D03*
X0163613Y0048483D03*
X0157613Y0048483D03*
X0157613Y0048683D03*
X0157613Y0048883D03*
X0157613Y0049083D03*
X0157613Y0052883D03*
X0157613Y0053083D03*
X0157613Y0053283D03*
X0157613Y0053483D03*
X0149413Y0053483D03*
X0149413Y0053283D03*
X0149413Y0053083D03*
X0149413Y0052883D03*
X0149413Y0049083D03*
X0149413Y0048883D03*
X0149413Y0048683D03*
X0149413Y0048483D03*
X0143413Y0052883D03*
X0143413Y0053083D03*
X0143413Y0053283D03*
X0143413Y0053483D03*
X0137413Y0053483D03*
X0137413Y0053283D03*
X0137413Y0053083D03*
X0137413Y0052883D03*
X0137413Y0049083D03*
X0137413Y0048883D03*
X0137413Y0048683D03*
X0137413Y0048483D03*
X0131413Y0048483D03*
X0131413Y0048683D03*
X0131413Y0048883D03*
X0131413Y0049083D03*
X0131413Y0052883D03*
X0131413Y0053083D03*
X0131413Y0053283D03*
X0131413Y0053483D03*
X0125413Y0053483D03*
X0125413Y0053283D03*
X0125413Y0053083D03*
X0125413Y0052883D03*
X0119413Y0052883D03*
X0119413Y0053083D03*
X0119413Y0053283D03*
X0119413Y0053483D03*
X0119413Y0049083D03*
X0119413Y0048883D03*
X0119413Y0048683D03*
X0119413Y0048483D03*
X0113413Y0048483D03*
X0113413Y0048683D03*
X0113413Y0048883D03*
X0113413Y0049083D03*
X0113413Y0052883D03*
X0113413Y0053083D03*
X0113413Y0053283D03*
X0113413Y0053483D03*
X0196091Y0079531D03*
X0196091Y0079731D03*
X0196091Y0079931D03*
X0196091Y0080131D03*
X0196091Y0083931D03*
X0196091Y0084131D03*
X0196091Y0084331D03*
X0196091Y0084531D03*
X0250815Y0099330D03*
X0250815Y0099530D03*
X0250815Y0099730D03*
X0250815Y0099930D03*
X0250815Y0103730D03*
X0250815Y0103930D03*
X0250815Y0104130D03*
X0250815Y0104330D03*
X0218531Y0151684D03*
X0218531Y0154684D03*
X0164988Y0134886D03*
D12*
X0164988Y0134686D03*
X0164988Y0134486D03*
X0164988Y0134286D03*
X0164988Y0131086D03*
X0164988Y0130886D03*
X0164988Y0130686D03*
X0164988Y0130486D03*
X0218531Y0151084D03*
X0218531Y0151284D03*
X0218531Y0151484D03*
X0218531Y0154084D03*
X0218531Y0154284D03*
X0218531Y0154484D03*
X0143413Y0049083D03*
X0143413Y0048883D03*
X0143413Y0048683D03*
X0143413Y0048483D03*
X0125413Y0048483D03*
X0125413Y0048683D03*
X0125413Y0048883D03*
X0125413Y0049083D03*
X0132390Y0009552D03*
X0132390Y0009352D03*
X0132390Y0009152D03*
X0132390Y0008952D03*
X0158390Y0008872D03*
X0158390Y0009072D03*
X0158390Y0009272D03*
X0158390Y0008672D03*
X0176390Y0008672D03*
X0176390Y0008872D03*
X0176390Y0009072D03*
X0176390Y0009272D03*
X0092925Y0091569D03*
X0092925Y0091769D03*
X0092925Y0091969D03*
X0092925Y0092169D03*
X0026689Y0091889D03*
X0026689Y0091689D03*
X0026689Y0091489D03*
X0026689Y0091289D03*
D13*
X0027489Y0092089D03*
X0027489Y0092289D03*
X0027489Y0092489D03*
X0027489Y0092689D03*
X0027489Y0092889D03*
X0027489Y0093089D03*
X0027489Y0093289D03*
X0027489Y0093489D03*
X0027489Y0093689D03*
X0027489Y0093889D03*
X0027489Y0094089D03*
X0025889Y0094089D03*
X0025889Y0093889D03*
X0025889Y0093689D03*
X0025889Y0093489D03*
X0025889Y0093289D03*
X0025889Y0093089D03*
X0025889Y0092889D03*
X0025889Y0092689D03*
X0025889Y0092489D03*
X0025889Y0092289D03*
X0025889Y0092089D03*
X0024489Y0095089D03*
X0024489Y0095289D03*
X0024489Y0095489D03*
X0022889Y0095489D03*
X0022889Y0095289D03*
X0022889Y0095089D03*
X0022889Y0094089D03*
X0022889Y0093889D03*
X0022889Y0093689D03*
X0022889Y0093489D03*
X0020689Y0092489D03*
X0020689Y0092289D03*
X0020689Y0092089D03*
X0018489Y0092089D03*
X0018489Y0092289D03*
X0018489Y0092489D03*
X0018489Y0092689D03*
X0018489Y0092889D03*
X0018489Y0093089D03*
X0018489Y0093289D03*
X0018489Y0093489D03*
X0018489Y0093689D03*
X0018489Y0093889D03*
X0018489Y0094089D03*
X0018489Y0094289D03*
X0018489Y0094489D03*
X0018489Y0094689D03*
X0018489Y0094889D03*
X0018489Y0095089D03*
X0018489Y0095289D03*
X0018489Y0095489D03*
X0016889Y0095489D03*
X0016889Y0095289D03*
X0016889Y0095089D03*
X0016889Y0094089D03*
X0016889Y0093889D03*
X0016889Y0093689D03*
X0016889Y0093489D03*
X0016889Y0092489D03*
X0016889Y0092289D03*
X0016889Y0092089D03*
X0012489Y0092089D03*
X0012489Y0092289D03*
X0012489Y0092489D03*
X0012489Y0092689D03*
X0012489Y0092889D03*
X0012489Y0093089D03*
X0012489Y0093289D03*
X0012489Y0093489D03*
X0012489Y0093689D03*
X0012489Y0093889D03*
X0012489Y0094089D03*
X0012489Y0094289D03*
X0012489Y0094489D03*
X0012489Y0094689D03*
X0012489Y0094889D03*
X0012489Y0095089D03*
X0012489Y0095289D03*
X0012489Y0095489D03*
X0010889Y0093289D03*
X0010889Y0093089D03*
X0010889Y0092889D03*
X0010889Y0092689D03*
X0010889Y0092489D03*
X0010889Y0092289D03*
X0010889Y0092089D03*
X0008689Y0094289D03*
X0008689Y0094489D03*
X0008689Y0094689D03*
X0008689Y0094889D03*
X0008689Y0095089D03*
X0008689Y0095289D03*
X0008689Y0095489D03*
X0006489Y0095489D03*
X0006489Y0095289D03*
X0006489Y0095089D03*
X0006489Y0094889D03*
X0006489Y0094689D03*
X0006489Y0094489D03*
X0006489Y0094289D03*
X0006489Y0094089D03*
X0006489Y0093889D03*
X0006489Y0093689D03*
X0006489Y0093489D03*
X0006489Y0093289D03*
X0006489Y0093089D03*
X0006489Y0092889D03*
X0006489Y0092689D03*
X0006489Y0092489D03*
X0006489Y0092289D03*
X0006489Y0092089D03*
X0028889Y0095089D03*
X0028889Y0095289D03*
X0028889Y0095489D03*
X0044284Y0123812D03*
X0044284Y0124012D03*
X0044284Y0124212D03*
X0044284Y0124412D03*
X0044284Y0124612D03*
X0044284Y0124812D03*
X0044284Y0125012D03*
X0044284Y0125212D03*
X0044284Y0125412D03*
X0044284Y0125612D03*
X0044284Y0125812D03*
X0044284Y0126012D03*
X0044284Y0126212D03*
X0044284Y0126412D03*
X0044284Y0126612D03*
X0044284Y0126812D03*
X0044284Y0127012D03*
X0044284Y0127212D03*
X0046484Y0127212D03*
X0046484Y0127012D03*
X0046484Y0126812D03*
X0046484Y0126612D03*
X0046484Y0126412D03*
X0046484Y0126212D03*
X0046484Y0126012D03*
X0046484Y0125812D03*
X0046484Y0125612D03*
X0046484Y0125412D03*
X0046484Y0125212D03*
X0048684Y0125212D03*
X0048684Y0125412D03*
X0048684Y0125612D03*
X0048684Y0125812D03*
X0048684Y0126012D03*
X0048684Y0126212D03*
X0048684Y0126412D03*
X0048684Y0126612D03*
X0048684Y0126812D03*
X0048684Y0127012D03*
X0048684Y0127212D03*
X0050284Y0127212D03*
X0050284Y0127012D03*
X0050284Y0126812D03*
X0050284Y0126612D03*
X0050284Y0126412D03*
X0050284Y0126212D03*
X0050284Y0126012D03*
X0050284Y0125812D03*
X0050284Y0125612D03*
X0050284Y0125412D03*
X0050284Y0125212D03*
X0050284Y0125012D03*
X0050284Y0124812D03*
X0050284Y0124612D03*
X0050284Y0124412D03*
X0050284Y0124212D03*
X0050284Y0124012D03*
X0050284Y0123812D03*
X0048684Y0123812D03*
X0048684Y0124012D03*
X0048684Y0124212D03*
X0048684Y0124412D03*
X0048684Y0124612D03*
X0048684Y0124812D03*
X0048684Y0125012D03*
X0052484Y0124212D03*
X0052484Y0124012D03*
X0052484Y0123812D03*
X0052484Y0126012D03*
X0052484Y0126212D03*
X0052484Y0126412D03*
X0052484Y0126612D03*
X0054684Y0126612D03*
X0054684Y0126812D03*
X0054684Y0127012D03*
X0054684Y0127212D03*
X0054684Y0126412D03*
X0054684Y0126212D03*
X0054684Y0126012D03*
X0054684Y0125812D03*
X0054684Y0125612D03*
X0054684Y0125412D03*
X0054684Y0125212D03*
X0066725Y0095769D03*
X0066725Y0095569D03*
X0066725Y0095369D03*
X0066725Y0095169D03*
X0066725Y0094969D03*
X0066725Y0094769D03*
X0066725Y0094569D03*
X0066725Y0094369D03*
X0066725Y0094169D03*
X0066725Y0093969D03*
X0066725Y0093769D03*
X0066725Y0093569D03*
X0066725Y0093369D03*
X0066725Y0093169D03*
X0066725Y0092969D03*
X0066725Y0092769D03*
X0066725Y0092569D03*
X0066725Y0092369D03*
X0068925Y0092369D03*
X0068925Y0092569D03*
X0068925Y0092769D03*
X0068925Y0092969D03*
X0068925Y0093169D03*
X0068925Y0093369D03*
X0068925Y0093569D03*
X0068925Y0094569D03*
X0068925Y0094769D03*
X0068925Y0094969D03*
X0068925Y0095169D03*
X0071125Y0095169D03*
X0071125Y0094969D03*
X0071125Y0094769D03*
X0071125Y0094569D03*
X0071125Y0094369D03*
X0071125Y0094169D03*
X0071125Y0093969D03*
X0071125Y0093769D03*
X0071125Y0092769D03*
X0071125Y0092569D03*
X0071125Y0092369D03*
X0072725Y0092369D03*
X0072725Y0092569D03*
X0072725Y0092769D03*
X0073525Y0093769D03*
X0073525Y0093969D03*
X0073525Y0094169D03*
X0073525Y0094369D03*
X0072725Y0095369D03*
X0072725Y0095569D03*
X0072725Y0095769D03*
X0071125Y0095769D03*
X0071125Y0095569D03*
X0071125Y0095369D03*
X0076525Y0094369D03*
X0076525Y0094169D03*
X0076525Y0093969D03*
X0076525Y0093769D03*
X0077125Y0092769D03*
X0077125Y0092569D03*
X0077125Y0092369D03*
X0078725Y0092369D03*
X0078725Y0092569D03*
X0078725Y0092769D03*
X0078725Y0092969D03*
X0078725Y0093169D03*
X0078725Y0093369D03*
X0078725Y0093569D03*
X0078725Y0093769D03*
X0078725Y0093969D03*
X0078725Y0094169D03*
X0078725Y0094369D03*
X0078725Y0094569D03*
X0078725Y0094769D03*
X0078725Y0094969D03*
X0078725Y0095169D03*
X0078725Y0095369D03*
X0078725Y0095569D03*
X0078725Y0095769D03*
X0077125Y0095769D03*
X0077125Y0095569D03*
X0077125Y0095369D03*
X0080925Y0094369D03*
X0080925Y0094169D03*
X0080925Y0093969D03*
X0080925Y0093769D03*
X0083125Y0093769D03*
X0083125Y0093569D03*
X0083125Y0093369D03*
X0083125Y0093169D03*
X0083125Y0092969D03*
X0083125Y0092769D03*
X0083125Y0092569D03*
X0083125Y0092369D03*
X0084725Y0092369D03*
X0084725Y0092569D03*
X0084725Y0092769D03*
X0084725Y0092969D03*
X0084725Y0093169D03*
X0084725Y0093369D03*
X0084725Y0093569D03*
X0084725Y0093769D03*
X0084725Y0093969D03*
X0084725Y0094169D03*
X0084725Y0094369D03*
X0084725Y0094569D03*
X0084725Y0094769D03*
X0084725Y0094969D03*
X0084725Y0095169D03*
X0084725Y0095369D03*
X0084725Y0095569D03*
X0084725Y0095769D03*
X0083125Y0095769D03*
X0083125Y0095569D03*
X0083125Y0095369D03*
X0083125Y0094369D03*
X0083125Y0094169D03*
X0083125Y0093969D03*
X0086925Y0093569D03*
X0086925Y0093369D03*
X0086925Y0093169D03*
X0086925Y0092969D03*
X0086925Y0092769D03*
X0086925Y0092569D03*
X0086925Y0092369D03*
X0089125Y0092369D03*
X0089125Y0092569D03*
X0089125Y0092769D03*
X0089125Y0092969D03*
X0089125Y0093169D03*
X0089125Y0093369D03*
X0089125Y0093569D03*
X0089125Y0093769D03*
X0089125Y0093969D03*
X0089125Y0094169D03*
X0089125Y0094369D03*
X0089125Y0094569D03*
X0089125Y0094769D03*
X0089125Y0094969D03*
X0089125Y0095169D03*
X0089125Y0095369D03*
X0089125Y0095569D03*
X0089125Y0095769D03*
X0090725Y0095769D03*
X0090725Y0095569D03*
X0090725Y0095369D03*
X0092125Y0094369D03*
X0092125Y0094169D03*
X0092125Y0093969D03*
X0092125Y0093769D03*
X0092125Y0093569D03*
X0092125Y0093369D03*
X0092125Y0093169D03*
X0092125Y0092969D03*
X0092125Y0092769D03*
X0092125Y0092569D03*
X0092125Y0092369D03*
X0093725Y0092369D03*
X0093725Y0092569D03*
X0093725Y0092769D03*
X0093725Y0092969D03*
X0093725Y0093169D03*
X0093725Y0093369D03*
X0093725Y0093569D03*
X0093725Y0093769D03*
X0093725Y0093969D03*
X0093725Y0094169D03*
X0093725Y0094369D03*
X0095125Y0095369D03*
X0095125Y0095569D03*
X0095125Y0095769D03*
X0086925Y0095769D03*
X0086925Y0095569D03*
X0086925Y0095369D03*
X0086925Y0095169D03*
X0086925Y0094969D03*
X0086925Y0094769D03*
X0086925Y0094569D03*
X0060779Y0060169D03*
X0060779Y0059969D03*
X0060779Y0059769D03*
X0060779Y0059569D03*
X0060779Y0059369D03*
X0060779Y0059169D03*
X0060779Y0058969D03*
X0060779Y0058769D03*
X0060779Y0058569D03*
X0060779Y0058369D03*
X0060779Y0058169D03*
X0060779Y0057969D03*
X0060779Y0057769D03*
X0060779Y0057569D03*
X0060779Y0057369D03*
X0060779Y0057169D03*
X0060779Y0056969D03*
X0060779Y0056769D03*
X0058579Y0056769D03*
X0058579Y0056969D03*
X0058579Y0057169D03*
X0058579Y0057369D03*
X0058579Y0057569D03*
X0058579Y0057769D03*
X0058579Y0057969D03*
X0058579Y0058169D03*
X0058579Y0058369D03*
X0058579Y0058569D03*
X0058579Y0058769D03*
X0056379Y0058769D03*
X0056379Y0058569D03*
X0056379Y0058369D03*
X0056379Y0058169D03*
X0056379Y0057969D03*
X0056379Y0057769D03*
X0056379Y0057569D03*
X0056379Y0057369D03*
X0056379Y0057169D03*
X0056379Y0056969D03*
X0056379Y0056769D03*
X0054779Y0056769D03*
X0054779Y0056969D03*
X0054779Y0057169D03*
X0054779Y0057369D03*
X0054779Y0057569D03*
X0054779Y0057769D03*
X0054779Y0057969D03*
X0054779Y0058169D03*
X0054779Y0058369D03*
X0054779Y0058569D03*
X0054779Y0058769D03*
X0054779Y0058969D03*
X0054779Y0059169D03*
X0054779Y0059369D03*
X0054779Y0059569D03*
X0054779Y0059769D03*
X0054779Y0059969D03*
X0054779Y0060169D03*
X0053379Y0060169D03*
X0053379Y0059969D03*
X0053379Y0059769D03*
X0053379Y0059569D03*
X0053379Y0059369D03*
X0053379Y0059169D03*
X0053379Y0058969D03*
X0053379Y0058769D03*
X0053379Y0058569D03*
X0053379Y0058369D03*
X0053379Y0058169D03*
X0051779Y0058169D03*
X0051779Y0058369D03*
X0051779Y0058569D03*
X0051779Y0058769D03*
X0051779Y0058969D03*
X0051779Y0059169D03*
X0051779Y0059369D03*
X0051779Y0059569D03*
X0051779Y0059769D03*
X0051779Y0059969D03*
X0051779Y0060169D03*
X0050379Y0060169D03*
X0050379Y0059969D03*
X0050379Y0059769D03*
X0050379Y0059569D03*
X0050379Y0059369D03*
X0050379Y0059169D03*
X0050379Y0058969D03*
X0050379Y0058769D03*
X0050379Y0058569D03*
X0050379Y0058369D03*
X0050379Y0058169D03*
X0050379Y0057969D03*
X0050379Y0057769D03*
X0050379Y0057569D03*
X0050379Y0057369D03*
X0050379Y0057169D03*
X0050379Y0056969D03*
X0050379Y0056769D03*
X0048779Y0056769D03*
X0048779Y0056969D03*
X0048779Y0057169D03*
X0048779Y0057369D03*
X0048779Y0057569D03*
X0048779Y0057769D03*
X0048779Y0057969D03*
X0048779Y0058169D03*
X0048779Y0058369D03*
X0048779Y0058569D03*
X0048779Y0058769D03*
X0048779Y0058969D03*
X0048779Y0059169D03*
X0048779Y0059369D03*
X0048779Y0059569D03*
X0048779Y0059769D03*
X0048779Y0059969D03*
X0048779Y0060169D03*
X0046579Y0058769D03*
X0046579Y0058569D03*
X0046579Y0058369D03*
X0046579Y0058169D03*
X0044379Y0058169D03*
X0044379Y0057969D03*
X0044379Y0057769D03*
X0044379Y0057569D03*
X0044379Y0057369D03*
X0044379Y0057169D03*
X0044379Y0056969D03*
X0044379Y0056769D03*
X0042779Y0056769D03*
X0042779Y0056969D03*
X0042779Y0057169D03*
X0042779Y0057369D03*
X0042779Y0057569D03*
X0042779Y0057769D03*
X0042779Y0057969D03*
X0042779Y0058169D03*
X0042779Y0058369D03*
X0042779Y0058569D03*
X0042779Y0058769D03*
X0042779Y0058969D03*
X0042779Y0059169D03*
X0042779Y0059369D03*
X0042779Y0059569D03*
X0042779Y0059769D03*
X0042779Y0059969D03*
X0042779Y0060169D03*
X0044379Y0060169D03*
X0044379Y0059969D03*
X0044379Y0059769D03*
X0044379Y0059569D03*
X0044379Y0059369D03*
X0044379Y0059169D03*
X0044379Y0058969D03*
X0044379Y0058769D03*
X0044379Y0058569D03*
X0044379Y0058369D03*
X0038379Y0058369D03*
X0038379Y0058169D03*
X0038379Y0057969D03*
X0038379Y0057769D03*
X0038379Y0057569D03*
X0038379Y0057369D03*
X0038379Y0057169D03*
X0038379Y0056969D03*
X0038379Y0056769D03*
X0038379Y0058569D03*
X0038379Y0058769D03*
X0038379Y0058969D03*
X0038379Y0059169D03*
X0038379Y0059369D03*
X0038379Y0059569D03*
X0038379Y0059769D03*
X0038379Y0059969D03*
X0038379Y0060169D03*
X0056379Y0060169D03*
X0056379Y0059969D03*
X0056379Y0059769D03*
X0056379Y0059569D03*
X0056379Y0059369D03*
X0056379Y0059169D03*
X0056379Y0058969D03*
X0111213Y0052683D03*
X0111213Y0052483D03*
X0111213Y0052283D03*
X0111213Y0051283D03*
X0111213Y0051083D03*
X0111213Y0050883D03*
X0111213Y0050683D03*
X0111213Y0049683D03*
X0111213Y0049483D03*
X0111213Y0049283D03*
X0115613Y0049283D03*
X0115613Y0049483D03*
X0115613Y0049683D03*
X0115613Y0049883D03*
X0115613Y0050083D03*
X0115613Y0050283D03*
X0115613Y0050483D03*
X0115613Y0050683D03*
X0115613Y0050883D03*
X0115613Y0051083D03*
X0115613Y0051283D03*
X0115613Y0051483D03*
X0115613Y0051683D03*
X0115613Y0051883D03*
X0115613Y0052083D03*
X0115613Y0052283D03*
X0115613Y0052483D03*
X0115613Y0052683D03*
X0117213Y0052683D03*
X0117213Y0052483D03*
X0117213Y0052283D03*
X0117213Y0051283D03*
X0117213Y0051083D03*
X0117213Y0050883D03*
X0117213Y0050683D03*
X0117213Y0050483D03*
X0117213Y0050283D03*
X0117213Y0050083D03*
X0117213Y0049883D03*
X0117213Y0049683D03*
X0117213Y0049483D03*
X0117213Y0049283D03*
X0121613Y0049283D03*
X0121613Y0049483D03*
X0121613Y0049683D03*
X0121613Y0050683D03*
X0121613Y0050883D03*
X0121613Y0051083D03*
X0121613Y0051283D03*
X0121613Y0051483D03*
X0121613Y0051683D03*
X0121613Y0051883D03*
X0121613Y0052083D03*
X0121613Y0052283D03*
X0121613Y0052483D03*
X0121613Y0052683D03*
X0123213Y0052683D03*
X0123213Y0052483D03*
X0123213Y0052283D03*
X0124613Y0051283D03*
X0124613Y0051083D03*
X0124613Y0050883D03*
X0124613Y0050683D03*
X0124613Y0050483D03*
X0124613Y0050283D03*
X0124613Y0050083D03*
X0124613Y0049883D03*
X0124613Y0049683D03*
X0124613Y0049483D03*
X0124613Y0049283D03*
X0126213Y0049283D03*
X0126213Y0049483D03*
X0126213Y0049683D03*
X0126213Y0049883D03*
X0126213Y0050083D03*
X0126213Y0050283D03*
X0126213Y0050483D03*
X0126213Y0050683D03*
X0126213Y0050883D03*
X0126213Y0051083D03*
X0126213Y0051283D03*
X0127613Y0052283D03*
X0127613Y0052483D03*
X0127613Y0052683D03*
X0129213Y0052683D03*
X0129213Y0052483D03*
X0129213Y0052283D03*
X0129213Y0052083D03*
X0129213Y0051883D03*
X0129213Y0051683D03*
X0129213Y0051483D03*
X0129213Y0051283D03*
X0129213Y0051083D03*
X0129213Y0050883D03*
X0129213Y0050683D03*
X0129213Y0050483D03*
X0129213Y0050283D03*
X0129213Y0050083D03*
X0129213Y0049883D03*
X0129213Y0049683D03*
X0129213Y0049483D03*
X0129213Y0049283D03*
X0133613Y0049283D03*
X0133613Y0049483D03*
X0133613Y0049683D03*
X0133613Y0050683D03*
X0133613Y0050883D03*
X0133613Y0051083D03*
X0133613Y0051283D03*
X0133613Y0052283D03*
X0133613Y0052483D03*
X0133613Y0052683D03*
X0135213Y0052683D03*
X0135213Y0052483D03*
X0135213Y0052283D03*
X0135213Y0052083D03*
X0135213Y0051883D03*
X0135213Y0051683D03*
X0135213Y0051483D03*
X0135213Y0051283D03*
X0135213Y0051083D03*
X0135213Y0050883D03*
X0135213Y0050683D03*
X0135213Y0050483D03*
X0135213Y0050283D03*
X0135213Y0050083D03*
X0135213Y0049883D03*
X0135213Y0049683D03*
X0135213Y0049483D03*
X0135213Y0049283D03*
X0139613Y0049283D03*
X0139613Y0049483D03*
X0139613Y0049683D03*
X0139613Y0050683D03*
X0139613Y0050883D03*
X0139613Y0051083D03*
X0139613Y0051283D03*
X0139613Y0052283D03*
X0139613Y0052483D03*
X0139613Y0052683D03*
X0141213Y0052683D03*
X0141213Y0052483D03*
X0141213Y0052283D03*
X0142613Y0051283D03*
X0142613Y0051083D03*
X0142613Y0050883D03*
X0142613Y0050683D03*
X0142613Y0050483D03*
X0142613Y0050283D03*
X0142613Y0050083D03*
X0142613Y0049883D03*
X0142613Y0049683D03*
X0142613Y0049483D03*
X0142613Y0049283D03*
X0144213Y0049283D03*
X0144213Y0049483D03*
X0144213Y0049683D03*
X0144213Y0049883D03*
X0144213Y0050083D03*
X0144213Y0050283D03*
X0144213Y0050483D03*
X0144213Y0050683D03*
X0144213Y0050883D03*
X0144213Y0051083D03*
X0144213Y0051283D03*
X0145613Y0052283D03*
X0145613Y0052483D03*
X0145613Y0052683D03*
X0147213Y0052683D03*
X0147213Y0052483D03*
X0147213Y0052283D03*
X0147213Y0052083D03*
X0147213Y0051883D03*
X0147213Y0051683D03*
X0147213Y0051483D03*
X0147213Y0051283D03*
X0147213Y0051083D03*
X0147213Y0050883D03*
X0147213Y0050683D03*
X0147213Y0050483D03*
X0147213Y0050283D03*
X0147213Y0050083D03*
X0147213Y0049883D03*
X0147213Y0049683D03*
X0147213Y0049483D03*
X0147213Y0049283D03*
X0149413Y0049283D03*
X0149413Y0049483D03*
X0149413Y0049683D03*
X0149413Y0049883D03*
X0149413Y0050083D03*
X0149413Y0050283D03*
X0149413Y0050483D03*
X0149413Y0051483D03*
X0149413Y0051683D03*
X0149413Y0051883D03*
X0149413Y0052083D03*
X0149413Y0052283D03*
X0149413Y0052483D03*
X0149413Y0052683D03*
X0151613Y0052683D03*
X0151613Y0052483D03*
X0151613Y0052283D03*
X0151613Y0052083D03*
X0151613Y0051883D03*
X0151613Y0051683D03*
X0151613Y0051483D03*
X0151613Y0051283D03*
X0151613Y0051083D03*
X0151613Y0050883D03*
X0151613Y0050683D03*
X0151613Y0050483D03*
X0151613Y0050283D03*
X0151613Y0050083D03*
X0151613Y0049883D03*
X0151613Y0049683D03*
X0151613Y0049483D03*
X0151613Y0049283D03*
X0155413Y0049283D03*
X0155413Y0049483D03*
X0155413Y0049683D03*
X0155413Y0049883D03*
X0155413Y0050083D03*
X0155413Y0050283D03*
X0155413Y0050483D03*
X0155413Y0050683D03*
X0155413Y0050883D03*
X0155413Y0051083D03*
X0155413Y0051283D03*
X0155413Y0051483D03*
X0155413Y0051683D03*
X0155413Y0051883D03*
X0155413Y0052083D03*
X0155413Y0052283D03*
X0155413Y0052483D03*
X0155413Y0052683D03*
X0157613Y0051283D03*
X0157613Y0051083D03*
X0157613Y0050883D03*
X0157613Y0050683D03*
X0159813Y0050683D03*
X0159813Y0050883D03*
X0159813Y0051083D03*
X0159813Y0051283D03*
X0159813Y0051483D03*
X0159813Y0051683D03*
X0159813Y0051883D03*
X0159813Y0052083D03*
X0159813Y0052283D03*
X0159813Y0052483D03*
X0159813Y0052683D03*
X0161413Y0052683D03*
X0161413Y0052483D03*
X0161413Y0052283D03*
X0161413Y0052083D03*
X0161413Y0051883D03*
X0161413Y0051683D03*
X0161413Y0051483D03*
X0161413Y0051283D03*
X0161413Y0051083D03*
X0161413Y0050883D03*
X0161413Y0050683D03*
X0161413Y0050483D03*
X0161413Y0050283D03*
X0161413Y0050083D03*
X0161413Y0049883D03*
X0161413Y0049683D03*
X0161413Y0049483D03*
X0161413Y0049283D03*
X0159813Y0049283D03*
X0159813Y0049483D03*
X0159813Y0049683D03*
X0159813Y0049883D03*
X0159813Y0050083D03*
X0159813Y0050283D03*
X0159813Y0050483D03*
X0163613Y0050483D03*
X0163613Y0050283D03*
X0163613Y0050083D03*
X0163613Y0049883D03*
X0163613Y0049683D03*
X0163613Y0049483D03*
X0163613Y0049283D03*
X0163613Y0051483D03*
X0163613Y0051683D03*
X0163613Y0051883D03*
X0163613Y0052083D03*
X0165813Y0052083D03*
X0165813Y0052283D03*
X0165813Y0052483D03*
X0165813Y0052683D03*
X0165813Y0051883D03*
X0165813Y0051683D03*
X0165813Y0051483D03*
X0165813Y0051283D03*
X0165813Y0051083D03*
X0165813Y0050883D03*
X0165813Y0050683D03*
X0165813Y0049683D03*
X0165813Y0049483D03*
X0165813Y0049283D03*
X0167413Y0049283D03*
X0167413Y0049483D03*
X0167413Y0049683D03*
X0167413Y0049883D03*
X0167413Y0050083D03*
X0167413Y0050283D03*
X0167413Y0050483D03*
X0167413Y0050683D03*
X0167413Y0050883D03*
X0167413Y0051083D03*
X0167413Y0051283D03*
X0167413Y0051483D03*
X0167413Y0051683D03*
X0167413Y0051883D03*
X0167413Y0052083D03*
X0167413Y0052283D03*
X0167413Y0052483D03*
X0167413Y0052683D03*
X0169613Y0051283D03*
X0169613Y0051083D03*
X0169613Y0050883D03*
X0169613Y0050683D03*
X0171813Y0050683D03*
X0171813Y0050883D03*
X0171813Y0051083D03*
X0171813Y0051283D03*
X0171813Y0050483D03*
X0171813Y0050283D03*
X0171813Y0050083D03*
X0171813Y0049883D03*
X0171813Y0049683D03*
X0171813Y0049483D03*
X0171813Y0049283D03*
X0171813Y0052283D03*
X0171813Y0052483D03*
X0171813Y0052683D03*
X0193891Y0080331D03*
X0193891Y0080531D03*
X0193891Y0080731D03*
X0193891Y0080931D03*
X0193891Y0081131D03*
X0193891Y0081331D03*
X0193891Y0081531D03*
X0193891Y0081731D03*
X0193891Y0081931D03*
X0193891Y0082131D03*
X0193891Y0082331D03*
X0193891Y0082531D03*
X0193891Y0082731D03*
X0193891Y0082931D03*
X0193891Y0083131D03*
X0193891Y0083331D03*
X0193891Y0083531D03*
X0193891Y0083731D03*
X0196091Y0083131D03*
X0196091Y0082931D03*
X0196091Y0082731D03*
X0196091Y0082531D03*
X0196091Y0081531D03*
X0196091Y0081331D03*
X0196091Y0081131D03*
X0196091Y0080931D03*
X0198291Y0080931D03*
X0198291Y0080731D03*
X0198291Y0080531D03*
X0198291Y0080331D03*
X0198291Y0081131D03*
X0198291Y0081331D03*
X0198291Y0081531D03*
X0198291Y0082531D03*
X0198291Y0082731D03*
X0198291Y0082931D03*
X0198291Y0083131D03*
X0198291Y0083331D03*
X0198291Y0083531D03*
X0198291Y0083731D03*
X0248615Y0100130D03*
X0248615Y0100330D03*
X0248615Y0100530D03*
X0248615Y0100730D03*
X0248615Y0100930D03*
X0248615Y0101130D03*
X0248615Y0101330D03*
X0248615Y0101530D03*
X0248615Y0101730D03*
X0248615Y0101930D03*
X0248615Y0102130D03*
X0248615Y0102330D03*
X0248615Y0102530D03*
X0248615Y0102730D03*
X0248615Y0102930D03*
X0248615Y0103130D03*
X0248615Y0103330D03*
X0248615Y0103530D03*
X0250815Y0102930D03*
X0250815Y0102730D03*
X0250815Y0102530D03*
X0250815Y0102330D03*
X0250815Y0101330D03*
X0250815Y0101130D03*
X0250815Y0100930D03*
X0250815Y0100730D03*
X0250815Y0100530D03*
X0250815Y0100330D03*
X0250815Y0100130D03*
X0253015Y0100130D03*
X0253015Y0100330D03*
X0253015Y0100530D03*
X0253015Y0100730D03*
X0253015Y0100930D03*
X0253015Y0101130D03*
X0253015Y0101330D03*
X0253015Y0101530D03*
X0253015Y0101730D03*
X0253015Y0101930D03*
X0253015Y0102130D03*
X0253015Y0102330D03*
X0253015Y0102530D03*
X0253015Y0102730D03*
X0253015Y0102930D03*
X0253015Y0103130D03*
X0253015Y0103330D03*
X0253015Y0103530D03*
X0220731Y0151084D03*
X0220731Y0151284D03*
X0220731Y0151484D03*
X0218531Y0151884D03*
X0218531Y0152084D03*
X0218531Y0152284D03*
X0218531Y0153284D03*
X0218531Y0153484D03*
X0218531Y0153684D03*
X0218531Y0153884D03*
X0216331Y0154084D03*
X0216331Y0154284D03*
X0216331Y0154484D03*
X0220731Y0154484D03*
X0220731Y0154284D03*
X0220731Y0154084D03*
X0216331Y0151484D03*
X0216331Y0151284D03*
X0216331Y0151084D03*
X0167188Y0134686D03*
X0167188Y0134486D03*
X0167188Y0134286D03*
X0164988Y0134086D03*
X0164988Y0133886D03*
X0164988Y0133686D03*
X0164988Y0133486D03*
X0164188Y0132486D03*
X0164188Y0132286D03*
X0164188Y0132086D03*
X0164188Y0131886D03*
X0164188Y0131686D03*
X0164188Y0131486D03*
X0164188Y0131286D03*
X0165788Y0131286D03*
X0165788Y0131486D03*
X0165788Y0131686D03*
X0165788Y0131886D03*
X0165788Y0132086D03*
X0165788Y0132286D03*
X0165788Y0132486D03*
X0162788Y0134286D03*
X0162788Y0134486D03*
X0162788Y0134686D03*
X0162190Y0012872D03*
X0162190Y0012672D03*
X0162190Y0012472D03*
X0162190Y0012272D03*
X0162190Y0012072D03*
X0162190Y0011872D03*
X0162190Y0011672D03*
X0162190Y0011472D03*
X0162190Y0011272D03*
X0162190Y0011072D03*
X0162190Y0010872D03*
X0162190Y0010672D03*
X0162190Y0010472D03*
X0162190Y0010272D03*
X0162190Y0010072D03*
X0162190Y0009872D03*
X0162190Y0009672D03*
X0162190Y0009472D03*
X0164390Y0009472D03*
X0164390Y0009672D03*
X0164390Y0009872D03*
X0164390Y0010072D03*
X0164390Y0010272D03*
X0164390Y0010472D03*
X0164390Y0010672D03*
X0164390Y0011672D03*
X0164390Y0011872D03*
X0164390Y0012072D03*
X0164390Y0012272D03*
X0166590Y0012272D03*
X0166590Y0012472D03*
X0166590Y0012672D03*
X0166590Y0012872D03*
X0166590Y0012072D03*
X0166590Y0011872D03*
X0166590Y0011672D03*
X0166590Y0011472D03*
X0166590Y0011272D03*
X0166590Y0011072D03*
X0166590Y0010872D03*
X0166590Y0010672D03*
X0166590Y0010472D03*
X0166590Y0010272D03*
X0166590Y0010072D03*
X0166590Y0009872D03*
X0166590Y0009672D03*
X0166590Y0009472D03*
X0168190Y0009472D03*
X0168190Y0009672D03*
X0168190Y0009872D03*
X0168190Y0010072D03*
X0168190Y0010272D03*
X0168190Y0010472D03*
X0168190Y0010672D03*
X0168190Y0010872D03*
X0168190Y0011072D03*
X0168190Y0011272D03*
X0168190Y0011472D03*
X0168190Y0011672D03*
X0168190Y0011872D03*
X0168190Y0012072D03*
X0168190Y0012272D03*
X0168190Y0012472D03*
X0168190Y0012672D03*
X0168190Y0012872D03*
X0170390Y0012272D03*
X0170390Y0012072D03*
X0170390Y0011872D03*
X0170390Y0011672D03*
X0170390Y0010672D03*
X0170390Y0010472D03*
X0170390Y0010272D03*
X0170390Y0010072D03*
X0170390Y0009872D03*
X0170390Y0009672D03*
X0170390Y0009472D03*
X0172590Y0009472D03*
X0172590Y0009672D03*
X0172590Y0009872D03*
X0172590Y0010872D03*
X0172590Y0011072D03*
X0172590Y0011272D03*
X0172590Y0011472D03*
X0172590Y0011672D03*
X0172590Y0011872D03*
X0172590Y0012072D03*
X0172590Y0012272D03*
X0172590Y0012472D03*
X0172590Y0012672D03*
X0172590Y0012872D03*
X0174190Y0012872D03*
X0174190Y0012672D03*
X0174190Y0012472D03*
X0175590Y0011472D03*
X0175590Y0011272D03*
X0175590Y0011072D03*
X0175590Y0010872D03*
X0175590Y0010672D03*
X0175590Y0010472D03*
X0175590Y0010272D03*
X0175590Y0010072D03*
X0175590Y0009872D03*
X0175590Y0009672D03*
X0175590Y0009472D03*
X0177190Y0009472D03*
X0177190Y0009672D03*
X0177190Y0009872D03*
X0177190Y0010072D03*
X0177190Y0010272D03*
X0177190Y0010472D03*
X0177190Y0010672D03*
X0177190Y0010872D03*
X0177190Y0011072D03*
X0177190Y0011272D03*
X0177190Y0011472D03*
X0178590Y0012472D03*
X0178590Y0012672D03*
X0178590Y0012872D03*
X0160590Y0012872D03*
X0160590Y0012672D03*
X0160590Y0012472D03*
X0159190Y0011472D03*
X0159190Y0011272D03*
X0159190Y0011072D03*
X0159190Y0010872D03*
X0159190Y0010672D03*
X0159190Y0010472D03*
X0159190Y0010272D03*
X0159190Y0010072D03*
X0159190Y0009872D03*
X0159190Y0009672D03*
X0159190Y0009472D03*
X0157590Y0009472D03*
X0157590Y0009672D03*
X0157590Y0009872D03*
X0157590Y0010072D03*
X0157590Y0010272D03*
X0157590Y0010472D03*
X0157590Y0010672D03*
X0157590Y0010872D03*
X0157590Y0011072D03*
X0157590Y0011272D03*
X0157590Y0011472D03*
X0156190Y0012472D03*
X0156190Y0012672D03*
X0156190Y0012872D03*
X0154590Y0012872D03*
X0154590Y0012672D03*
X0154590Y0012472D03*
X0154590Y0011472D03*
X0154590Y0011272D03*
X0154590Y0011072D03*
X0154590Y0010872D03*
X0154590Y0010672D03*
X0154590Y0010472D03*
X0154590Y0010272D03*
X0154590Y0010072D03*
X0154590Y0009872D03*
X0154590Y0009672D03*
X0154590Y0009472D03*
X0150190Y0009472D03*
X0150190Y0009672D03*
X0150190Y0009872D03*
X0150190Y0010872D03*
X0150190Y0011072D03*
X0150190Y0011272D03*
X0150190Y0011472D03*
X0150190Y0011672D03*
X0150190Y0011872D03*
X0150190Y0012072D03*
X0150190Y0012272D03*
X0150190Y0012472D03*
X0150190Y0012672D03*
X0150190Y0012872D03*
X0134590Y0012952D03*
X0134590Y0013152D03*
X0134590Y0012752D03*
X0133190Y0011752D03*
X0133190Y0011552D03*
X0133190Y0011352D03*
X0133190Y0011152D03*
X0133190Y0010952D03*
X0133190Y0010752D03*
X0133190Y0010552D03*
X0133190Y0010352D03*
X0133190Y0010152D03*
X0133190Y0009952D03*
X0133190Y0009752D03*
X0131590Y0009752D03*
X0131590Y0009952D03*
X0131590Y0010152D03*
X0131590Y0010352D03*
X0131590Y0010552D03*
X0131590Y0010752D03*
X0131590Y0010952D03*
X0131590Y0011152D03*
X0131590Y0011352D03*
X0131590Y0011552D03*
X0131590Y0011752D03*
X0130190Y0012752D03*
X0130190Y0012952D03*
X0130190Y0013152D03*
X0128590Y0013152D03*
X0128590Y0012952D03*
X0128590Y0012752D03*
X0128590Y0012552D03*
X0128590Y0012352D03*
X0128590Y0012152D03*
X0128590Y0011952D03*
X0128590Y0010952D03*
X0128590Y0010752D03*
X0128590Y0010552D03*
X0128590Y0010352D03*
X0128590Y0010152D03*
X0128590Y0009952D03*
X0128590Y0009752D03*
X0124190Y0009752D03*
X0124190Y0009952D03*
X0124190Y0010152D03*
X0124190Y0010352D03*
X0124190Y0010552D03*
X0124190Y0010752D03*
X0124190Y0010952D03*
X0124190Y0011152D03*
X0124190Y0011352D03*
X0124190Y0011552D03*
X0124190Y0011752D03*
X0124190Y0011952D03*
X0124190Y0012152D03*
X0124190Y0012352D03*
X0124190Y0012552D03*
X0124190Y0012752D03*
X0124190Y0012952D03*
X0124190Y0013152D03*
X0122590Y0013152D03*
X0122590Y0012952D03*
X0122590Y0012752D03*
X0122590Y0011752D03*
X0122590Y0011552D03*
X0122590Y0011352D03*
X0122590Y0011152D03*
X0122590Y0010152D03*
X0122590Y0009952D03*
X0122590Y0009752D03*
X0118190Y0009752D03*
X0118190Y0009952D03*
X0118190Y0010152D03*
X0118190Y0010352D03*
X0118190Y0010552D03*
X0118190Y0010752D03*
X0118190Y0010952D03*
X0118190Y0011152D03*
X0118190Y0011352D03*
X0118190Y0011552D03*
X0118190Y0011752D03*
X0118190Y0011952D03*
X0118190Y0012152D03*
X0118190Y0012352D03*
X0118190Y0012552D03*
X0118190Y0012752D03*
X0118190Y0012952D03*
X0118190Y0013152D03*
X0116590Y0010952D03*
X0116590Y0010752D03*
X0116590Y0010552D03*
X0116590Y0010352D03*
X0116590Y0010152D03*
X0116590Y0009952D03*
X0116590Y0009752D03*
X0114390Y0011952D03*
X0114390Y0012152D03*
X0114390Y0012352D03*
X0114390Y0012552D03*
X0114390Y0012752D03*
X0114390Y0012952D03*
X0114390Y0013152D03*
X0112190Y0013152D03*
X0112190Y0012952D03*
X0112190Y0012752D03*
X0112190Y0012552D03*
X0112190Y0012352D03*
X0112190Y0012152D03*
X0112190Y0011952D03*
X0112190Y0011752D03*
X0112190Y0011552D03*
X0112190Y0011352D03*
X0112190Y0011152D03*
X0112190Y0010952D03*
X0112190Y0010752D03*
X0112190Y0010552D03*
X0112190Y0010352D03*
X0112190Y0010152D03*
X0112190Y0009952D03*
X0112190Y0009752D03*
X0110590Y0009752D03*
X0110590Y0009952D03*
X0110590Y0010152D03*
X0110590Y0011152D03*
X0110590Y0011352D03*
X0110590Y0011552D03*
X0110590Y0011752D03*
X0110590Y0012752D03*
X0110590Y0012952D03*
X0110590Y0013152D03*
X0106190Y0013152D03*
X0106190Y0012952D03*
X0106190Y0012752D03*
X0106190Y0012552D03*
X0106190Y0012352D03*
X0106190Y0012152D03*
X0106190Y0011952D03*
X0106190Y0011752D03*
X0106190Y0011552D03*
X0106190Y0011352D03*
X0106190Y0011152D03*
X0106190Y0010952D03*
X0106190Y0010752D03*
X0106190Y0010552D03*
X0106190Y0010352D03*
X0106190Y0010152D03*
X0106190Y0009952D03*
X0106190Y0009752D03*
X0104590Y0009752D03*
X0104590Y0009952D03*
X0104590Y0010152D03*
X0104590Y0010352D03*
X0104590Y0010552D03*
X0104590Y0010752D03*
X0104590Y0010952D03*
X0104590Y0011152D03*
X0104590Y0011352D03*
X0104590Y0011552D03*
X0104590Y0011752D03*
X0104590Y0012752D03*
X0104590Y0012952D03*
X0104590Y0013152D03*
X0100190Y0013152D03*
X0100190Y0012952D03*
X0100190Y0012752D03*
X0100190Y0012552D03*
X0100190Y0012352D03*
X0100190Y0012152D03*
X0100190Y0011952D03*
X0100190Y0011752D03*
X0100190Y0011552D03*
X0100190Y0011352D03*
X0100190Y0011152D03*
X0100190Y0010152D03*
X0100190Y0009952D03*
X0100190Y0009752D03*
D14*
X0109490Y0010352D03*
X0109490Y0010552D03*
X0109490Y0010752D03*
X0109490Y0010952D03*
X0109490Y0011952D03*
X0109490Y0012152D03*
X0109490Y0012352D03*
X0109490Y0012552D03*
X0113290Y0013352D03*
X0113290Y0013552D03*
X0113290Y0013752D03*
X0113290Y0013952D03*
X0115490Y0011752D03*
X0115490Y0011552D03*
X0115490Y0011352D03*
X0115490Y0011152D03*
X0121490Y0010952D03*
X0121490Y0010752D03*
X0121490Y0010552D03*
X0121490Y0010352D03*
X0121490Y0011952D03*
X0121490Y0012152D03*
X0121490Y0012352D03*
X0121490Y0012552D03*
X0127490Y0011752D03*
X0127490Y0011552D03*
X0127490Y0011352D03*
X0127490Y0011152D03*
X0132513Y0049883D03*
X0132513Y0050083D03*
X0132513Y0050283D03*
X0132513Y0050483D03*
X0132513Y0051483D03*
X0132513Y0051683D03*
X0132513Y0051883D03*
X0132513Y0052083D03*
X0138513Y0052083D03*
X0138513Y0051883D03*
X0138513Y0051683D03*
X0138513Y0051483D03*
X0138513Y0050483D03*
X0138513Y0050283D03*
X0138513Y0050083D03*
X0138513Y0049883D03*
X0112313Y0049883D03*
X0112313Y0050083D03*
X0112313Y0050283D03*
X0112313Y0050483D03*
X0112313Y0051483D03*
X0112313Y0051683D03*
X0112313Y0051883D03*
X0112313Y0052083D03*
X0082025Y0094569D03*
X0082025Y0094769D03*
X0082025Y0094969D03*
X0082025Y0095169D03*
X0051384Y0123012D03*
X0051384Y0123212D03*
X0051384Y0123412D03*
X0051384Y0123612D03*
X0053584Y0124412D03*
X0053584Y0124612D03*
X0053584Y0124812D03*
X0053584Y0125012D03*
X0021789Y0094889D03*
X0021789Y0094689D03*
X0021789Y0094489D03*
X0021789Y0094289D03*
X0021789Y0093289D03*
X0021789Y0093089D03*
X0021789Y0092889D03*
X0021789Y0092689D03*
X0019589Y0091889D03*
X0019589Y0091689D03*
X0019589Y0091489D03*
X0019589Y0091289D03*
X0015789Y0092689D03*
X0015789Y0092889D03*
X0015789Y0093089D03*
X0015789Y0093289D03*
X0015789Y0094289D03*
X0015789Y0094489D03*
X0015789Y0094689D03*
X0015789Y0094889D03*
X0009789Y0094089D03*
X0009789Y0093889D03*
X0009789Y0093689D03*
X0009789Y0093489D03*
X0007589Y0095689D03*
X0007589Y0095889D03*
X0007589Y0096089D03*
X0007589Y0096289D03*
X0170713Y0052083D03*
X0170713Y0051883D03*
X0170713Y0051683D03*
X0170713Y0051483D03*
D15*
X0144913Y0051483D03*
X0144913Y0051683D03*
X0144913Y0051883D03*
X0144913Y0052083D03*
X0141913Y0052083D03*
X0141913Y0051883D03*
X0141913Y0051683D03*
X0141913Y0051483D03*
X0126913Y0051483D03*
X0126913Y0051683D03*
X0126913Y0051883D03*
X0126913Y0052083D03*
X0123913Y0052083D03*
X0123913Y0051883D03*
X0123913Y0051683D03*
X0123913Y0051483D03*
X0120913Y0050483D03*
X0120913Y0050283D03*
X0120913Y0050083D03*
X0120913Y0049883D03*
X0117913Y0051483D03*
X0117913Y0051683D03*
X0117913Y0051883D03*
X0117913Y0052083D03*
X0130890Y0012552D03*
X0130890Y0012352D03*
X0130890Y0012152D03*
X0130890Y0011952D03*
X0133890Y0011952D03*
X0133890Y0012152D03*
X0133890Y0012352D03*
X0133890Y0012552D03*
X0150890Y0010672D03*
X0150890Y0010472D03*
X0150890Y0010272D03*
X0150890Y0010072D03*
X0153890Y0011672D03*
X0153890Y0011872D03*
X0153890Y0012072D03*
X0153890Y0012272D03*
X0156890Y0012272D03*
X0156890Y0012072D03*
X0156890Y0011872D03*
X0156890Y0011672D03*
X0159890Y0011672D03*
X0159890Y0011872D03*
X0159890Y0012072D03*
X0159890Y0012272D03*
X0174890Y0012272D03*
X0174890Y0012072D03*
X0174890Y0011872D03*
X0174890Y0011672D03*
X0177890Y0011672D03*
X0177890Y0011872D03*
X0177890Y0012072D03*
X0177890Y0012272D03*
X0103890Y0012352D03*
X0103890Y0012552D03*
X0103890Y0012152D03*
X0103890Y0011952D03*
X0100890Y0010952D03*
X0100890Y0010752D03*
X0100890Y0010552D03*
X0100890Y0010352D03*
X0094425Y0094569D03*
X0094425Y0094769D03*
X0094425Y0094969D03*
X0094425Y0095169D03*
X0091425Y0095169D03*
X0091425Y0094969D03*
X0091425Y0094769D03*
X0091425Y0094569D03*
X0028189Y0094489D03*
X0028189Y0094689D03*
X0028189Y0094889D03*
X0028189Y0094289D03*
X0025189Y0094289D03*
X0025189Y0094489D03*
X0025189Y0094689D03*
X0025189Y0094889D03*
X0163488Y0135086D03*
X0163488Y0135286D03*
X0163488Y0135486D03*
X0166488Y0135486D03*
X0166488Y0135286D03*
X0166488Y0135086D03*
X0217031Y0150284D03*
X0217031Y0150484D03*
X0217031Y0150684D03*
X0217031Y0150884D03*
X0220031Y0150884D03*
X0220031Y0150684D03*
X0220031Y0150484D03*
X0220031Y0150284D03*
X0220031Y0154884D03*
X0220031Y0155084D03*
X0220031Y0155284D03*
X0217031Y0155284D03*
X0217031Y0155084D03*
X0217031Y0154884D03*
D16*
X0217431Y0153084D03*
X0217431Y0152884D03*
X0217431Y0152684D03*
X0217431Y0152484D03*
X0220431Y0152284D03*
X0220431Y0152084D03*
X0220431Y0151884D03*
X0220431Y0153284D03*
X0220431Y0153484D03*
X0220431Y0153684D03*
X0220431Y0153884D03*
X0166888Y0134086D03*
X0166888Y0133886D03*
X0166888Y0133686D03*
X0166888Y0133486D03*
X0163888Y0133286D03*
X0163888Y0133086D03*
X0163888Y0132886D03*
X0163888Y0132686D03*
X0197991Y0082331D03*
X0197991Y0082131D03*
X0197991Y0081931D03*
X0197991Y0081731D03*
X0165513Y0050483D03*
X0165513Y0050283D03*
X0165513Y0050083D03*
X0165513Y0049883D03*
X0172290Y0010672D03*
X0172290Y0010472D03*
X0172290Y0010272D03*
X0172290Y0010072D03*
X0076825Y0092969D03*
X0076825Y0093169D03*
X0076825Y0093369D03*
X0076825Y0093569D03*
X0076825Y0094569D03*
X0076825Y0094769D03*
X0076825Y0094969D03*
X0076825Y0095169D03*
X0070825Y0093569D03*
X0070825Y0093369D03*
X0070825Y0093169D03*
X0070825Y0092969D03*
D17*
X0073125Y0092969D03*
X0073125Y0093169D03*
X0073125Y0093369D03*
X0073125Y0093569D03*
X0073125Y0094569D03*
X0073125Y0094769D03*
X0073125Y0094969D03*
X0073125Y0095169D03*
X0081325Y0093569D03*
X0081325Y0093369D03*
X0081325Y0093169D03*
X0081325Y0092969D03*
X0040979Y0059569D03*
X0040979Y0059369D03*
X0040979Y0059169D03*
X0040979Y0058969D03*
X0040979Y0058769D03*
X0040979Y0058569D03*
X0040979Y0058369D03*
X0040979Y0058169D03*
X0040979Y0057969D03*
X0040979Y0057769D03*
X0040979Y0057569D03*
X0040979Y0057369D03*
X0163188Y0133486D03*
X0163188Y0133686D03*
X0163188Y0133886D03*
X0163188Y0134086D03*
X0166188Y0133286D03*
X0166188Y0133086D03*
X0166188Y0132886D03*
X0166188Y0132686D03*
X0216731Y0151884D03*
X0216731Y0152084D03*
X0216731Y0152284D03*
X0216731Y0153284D03*
X0216731Y0153484D03*
X0216731Y0153684D03*
X0216731Y0153884D03*
X0219731Y0153084D03*
X0219731Y0152884D03*
X0219731Y0152684D03*
X0219731Y0152484D03*
X0170013Y0050483D03*
X0170013Y0050283D03*
X0170013Y0050083D03*
X0170013Y0049883D03*
D18*
X0145111Y0062400D03*
X0136311Y0062800D03*
X0140911Y0075300D03*
X0149411Y0074700D03*
D19*
X0149461Y0075000D03*
X0140961Y0071400D03*
X0144861Y0062500D03*
X0136061Y0062900D03*
X0123161Y0065800D03*
X0175161Y0070300D03*
X0175661Y0076500D03*
D20*
X0168811Y0072700D03*
X0167911Y0079700D03*
X0149511Y0075400D03*
X0149511Y0075300D03*
X0141211Y0075800D03*
X0140911Y0071000D03*
X0140911Y0070900D03*
X0144711Y0062600D03*
X0118111Y0077200D03*
X0134711Y0092100D03*
X0134711Y0092200D03*
X0134711Y0092300D03*
X0134711Y0092400D03*
X0134711Y0092500D03*
X0134711Y0092600D03*
X0134711Y0092700D03*
X0134711Y0092800D03*
X0134711Y0092900D03*
X0134711Y0093000D03*
X0134711Y0093100D03*
X0134711Y0093200D03*
X0134711Y0093300D03*
X0134711Y0093400D03*
X0134711Y0093500D03*
X0134711Y0093600D03*
X0134711Y0093700D03*
X0134711Y0093800D03*
X0134711Y0093900D03*
X0134711Y0094000D03*
X0134711Y0094100D03*
X0134711Y0094200D03*
X0134711Y0094300D03*
X0134711Y0094400D03*
X0134711Y0094500D03*
X0134711Y0094600D03*
X0134711Y0094700D03*
X0134711Y0094800D03*
X0134711Y0094900D03*
X0134711Y0095000D03*
X0134711Y0095100D03*
X0134711Y0095200D03*
X0134711Y0095300D03*
X0134711Y0095400D03*
X0134711Y0095500D03*
X0137011Y0094300D03*
X0137011Y0094200D03*
X0137011Y0094100D03*
X0137011Y0094000D03*
X0137011Y0093900D03*
X0137011Y0093800D03*
X0137011Y0093700D03*
X0137011Y0093600D03*
X0137011Y0093500D03*
X0137011Y0093400D03*
X0137011Y0093300D03*
X0137011Y0093200D03*
X0137011Y0093100D03*
X0137011Y0093000D03*
X0137011Y0092900D03*
X0137011Y0092800D03*
X0137011Y0092700D03*
X0137011Y0092600D03*
X0137011Y0092500D03*
X0137011Y0092400D03*
X0137011Y0092300D03*
X0137011Y0092200D03*
X0137011Y0092100D03*
X0137011Y0100300D03*
X0137011Y0100400D03*
X0137011Y0100500D03*
X0137011Y0100600D03*
X0137011Y0100700D03*
X0137011Y0100800D03*
X0137011Y0100900D03*
X0137011Y0101000D03*
X0137011Y0101100D03*
X0137011Y0101200D03*
X0137011Y0101300D03*
X0146411Y0105000D03*
X0146411Y0105100D03*
X0146411Y0105200D03*
X0146411Y0105300D03*
X0146411Y0105400D03*
X0146411Y0105500D03*
X0146411Y0105600D03*
X0146411Y0105700D03*
X0146411Y0105800D03*
X0146411Y0105900D03*
X0146411Y0106000D03*
X0146411Y0106100D03*
X0146411Y0106200D03*
X0146411Y0106300D03*
X0146411Y0106400D03*
X0146411Y0106500D03*
X0146411Y0106600D03*
X0146411Y0106700D03*
X0146411Y0106800D03*
X0146411Y0106900D03*
X0146411Y0107000D03*
X0146411Y0107100D03*
X0146411Y0107200D03*
X0146411Y0107300D03*
X0146411Y0107400D03*
X0146411Y0107500D03*
X0146411Y0107600D03*
X0146411Y0107700D03*
X0146411Y0107800D03*
X0146411Y0107900D03*
X0146411Y0108000D03*
X0146411Y0108100D03*
X0146411Y0108200D03*
X0146411Y0108300D03*
X0146411Y0108400D03*
X0149911Y0108400D03*
X0149911Y0108300D03*
X0149911Y0108200D03*
X0149911Y0108100D03*
X0149911Y0108000D03*
X0149911Y0107900D03*
X0149911Y0107800D03*
X0149911Y0107700D03*
X0149911Y0107600D03*
X0149911Y0107500D03*
X0149911Y0107400D03*
X0149911Y0107300D03*
X0152311Y0107300D03*
X0152311Y0107400D03*
X0152311Y0107500D03*
X0152311Y0107600D03*
X0152311Y0107700D03*
X0152311Y0107800D03*
X0152311Y0107900D03*
X0152311Y0108000D03*
X0152311Y0108100D03*
X0152311Y0108200D03*
X0152311Y0108300D03*
X0152311Y0108400D03*
X0152311Y0108500D03*
X0152311Y0108600D03*
X0152311Y0108700D03*
X0152311Y0108800D03*
X0152311Y0108900D03*
X0152311Y0109000D03*
X0152311Y0109100D03*
X0152311Y0109200D03*
X0152311Y0109300D03*
X0152311Y0109400D03*
X0152311Y0109500D03*
X0152311Y0109600D03*
X0149911Y0110800D03*
X0149911Y0110900D03*
X0149911Y0111000D03*
X0149911Y0111100D03*
X0149911Y0111200D03*
X0149911Y0111300D03*
X0149911Y0111400D03*
X0149911Y0111500D03*
X0149911Y0111600D03*
X0149911Y0111700D03*
X0149911Y0111800D03*
X0149911Y0111900D03*
X0151111Y0112000D03*
X0151111Y0112100D03*
X0151111Y0112200D03*
X0151111Y0112300D03*
X0151111Y0112400D03*
X0151111Y0112500D03*
X0151111Y0112600D03*
X0151111Y0112700D03*
X0151111Y0112800D03*
X0151111Y0112900D03*
X0151111Y0113000D03*
X0151111Y0113100D03*
X0152311Y0106000D03*
X0152311Y0105900D03*
X0152311Y0105800D03*
X0152311Y0105700D03*
X0152311Y0105600D03*
X0152311Y0105500D03*
X0152311Y0105400D03*
X0152311Y0105300D03*
X0152311Y0105200D03*
X0152311Y0105100D03*
X0152311Y0105000D03*
D21*
X0149511Y0075600D03*
X0141311Y0076000D03*
X0140911Y0070600D03*
X0144511Y0062700D03*
X0162211Y0065100D03*
X0169011Y0072800D03*
X0175311Y0076400D03*
D22*
X0175411Y0070900D03*
X0149611Y0075900D03*
X0140911Y0070200D03*
X0136411Y0071900D03*
X0144311Y0062800D03*
X0115611Y0070300D03*
D23*
X0115461Y0070400D03*
X0130961Y0076000D03*
X0136161Y0071800D03*
X0140861Y0069800D03*
X0140861Y0069700D03*
X0141561Y0076400D03*
X0142861Y0079200D03*
X0144161Y0062900D03*
X0162461Y0065300D03*
D24*
X0175261Y0070500D03*
X0135861Y0063000D03*
X0135861Y0101500D03*
X0135861Y0101600D03*
X0135861Y0101700D03*
X0135861Y0101800D03*
X0135861Y0101900D03*
X0135861Y0102000D03*
X0135861Y0102100D03*
X0135861Y0102200D03*
X0135861Y0102300D03*
X0135861Y0102400D03*
X0135861Y0102500D03*
X0135861Y0102600D03*
X0135861Y0102700D03*
X0135861Y0102800D03*
X0135861Y0102900D03*
X0135861Y0103000D03*
X0135861Y0103100D03*
X0135861Y0103200D03*
X0135861Y0103300D03*
X0135861Y0103400D03*
X0135861Y0103500D03*
X0135861Y0103600D03*
X0135861Y0103700D03*
X0135861Y0105000D03*
X0135861Y0105100D03*
X0135861Y0105200D03*
X0135861Y0105300D03*
X0135861Y0105400D03*
X0135861Y0105500D03*
X0135861Y0105600D03*
X0135861Y0105700D03*
X0135861Y0105800D03*
X0135861Y0105900D03*
X0135861Y0106000D03*
X0135861Y0106100D03*
X0135861Y0106200D03*
X0135861Y0106300D03*
X0135861Y0106400D03*
X0135861Y0106500D03*
X0135861Y0106600D03*
X0135861Y0106700D03*
X0135861Y0106800D03*
X0135861Y0106900D03*
X0135861Y0107000D03*
X0135861Y0107100D03*
X0135861Y0107200D03*
X0140561Y0107200D03*
X0140561Y0107100D03*
X0140561Y0107000D03*
X0140561Y0106900D03*
X0140561Y0106800D03*
X0140561Y0106700D03*
X0140561Y0106600D03*
X0140561Y0106500D03*
X0140561Y0106400D03*
X0140561Y0106300D03*
X0140561Y0106200D03*
X0140561Y0106100D03*
X0140561Y0106000D03*
X0140561Y0105900D03*
X0140561Y0105800D03*
X0140561Y0105700D03*
X0140561Y0105600D03*
X0140561Y0105500D03*
X0140561Y0105400D03*
X0140561Y0105300D03*
X0140561Y0105200D03*
X0140561Y0105100D03*
X0140561Y0105000D03*
X0144061Y0105000D03*
X0144061Y0105100D03*
X0144061Y0105200D03*
X0144061Y0105300D03*
X0144061Y0105400D03*
X0144061Y0105500D03*
X0144061Y0105600D03*
X0144061Y0105700D03*
X0144061Y0105800D03*
X0144061Y0105900D03*
X0144061Y0106000D03*
X0144061Y0106100D03*
X0144061Y0106200D03*
X0144061Y0106300D03*
X0144061Y0106400D03*
X0144061Y0106500D03*
X0144061Y0106600D03*
X0144061Y0106700D03*
X0144061Y0106800D03*
X0144061Y0106900D03*
X0144061Y0107000D03*
X0144061Y0107100D03*
X0144061Y0107200D03*
X0148761Y0112000D03*
X0148761Y0112100D03*
X0148761Y0112200D03*
X0148761Y0112300D03*
X0148761Y0112400D03*
X0148761Y0112500D03*
X0148761Y0112600D03*
X0148761Y0112700D03*
X0148761Y0112800D03*
X0148761Y0112900D03*
X0148761Y0113000D03*
X0148761Y0113100D03*
D25*
X0127061Y0077300D03*
X0126961Y0077000D03*
X0126761Y0076500D03*
X0117361Y0074100D03*
X0117261Y0074000D03*
X0115261Y0070500D03*
X0144361Y0075700D03*
X0144461Y0075800D03*
X0144661Y0076200D03*
X0143961Y0063000D03*
X0168161Y0075900D03*
X0168161Y0076000D03*
X0168161Y0076100D03*
X0168261Y0076900D03*
D26*
X0161911Y0064900D03*
X0150311Y0063000D03*
X0140911Y0071300D03*
X0118011Y0077100D03*
D27*
X0115861Y0070200D03*
X0136661Y0072000D03*
X0141261Y0075900D03*
X0135661Y0063100D03*
X0175361Y0070700D03*
D28*
X0175611Y0071500D03*
X0162711Y0065500D03*
X0150911Y0079400D03*
X0144611Y0076400D03*
X0145011Y0071600D03*
X0143811Y0063100D03*
X0122611Y0076700D03*
X0122611Y0076800D03*
X0122711Y0076900D03*
X0122711Y0077000D03*
X0122811Y0077200D03*
X0122811Y0077300D03*
X0122911Y0077400D03*
X0122911Y0077500D03*
X0122511Y0076600D03*
X0122411Y0076400D03*
D29*
X0140911Y0070100D03*
X0149611Y0076000D03*
X0151011Y0063100D03*
D30*
X0155861Y0070900D03*
X0149561Y0075800D03*
X0141361Y0076100D03*
X0140861Y0070300D03*
X0135461Y0063200D03*
X0123161Y0066000D03*
D31*
X0120161Y0071600D03*
X0120261Y0071800D03*
X0120361Y0072000D03*
X0120361Y0072100D03*
X0120461Y0072200D03*
X0120461Y0072300D03*
X0120561Y0072400D03*
X0120561Y0072500D03*
X0120661Y0072600D03*
X0120661Y0072700D03*
X0120761Y0072800D03*
X0120761Y0072900D03*
X0125561Y0072200D03*
X0126761Y0077600D03*
X0111761Y0075800D03*
X0143061Y0078900D03*
X0143661Y0074500D03*
X0144761Y0071900D03*
X0144861Y0069800D03*
X0143661Y0063200D03*
X0153661Y0074500D03*
X0153561Y0074800D03*
X0153461Y0075000D03*
X0153461Y0075100D03*
X0153361Y0075300D03*
X0153361Y0075400D03*
X0150961Y0079200D03*
X0162861Y0065600D03*
X0169161Y0079500D03*
D32*
X0171461Y0076900D03*
X0171561Y0076800D03*
X0171661Y0076700D03*
X0171761Y0076600D03*
X0175661Y0071600D03*
X0151561Y0063200D03*
X0145061Y0070000D03*
X0143961Y0075200D03*
X0126961Y0077500D03*
X0122461Y0076500D03*
X0122361Y0076300D03*
X0117261Y0074300D03*
D33*
X0135261Y0063300D03*
X0140861Y0070000D03*
X0155661Y0070800D03*
X0175461Y0071100D03*
X0148161Y0092100D03*
X0148161Y0092200D03*
X0148161Y0092300D03*
X0148161Y0092400D03*
X0148161Y0092500D03*
X0148161Y0092600D03*
X0148161Y0092700D03*
X0148161Y0092800D03*
X0148161Y0092900D03*
X0148161Y0093000D03*
X0148161Y0093100D03*
X0148161Y0093200D03*
X0148161Y0093300D03*
X0148161Y0093400D03*
X0148161Y0093500D03*
X0148161Y0093600D03*
X0148161Y0093700D03*
X0148161Y0093800D03*
X0148161Y0093900D03*
X0148161Y0094000D03*
X0148161Y0094100D03*
X0148161Y0094200D03*
X0148161Y0094300D03*
X0136461Y0103800D03*
X0136461Y0103900D03*
X0136461Y0104000D03*
X0136461Y0104100D03*
X0136461Y0104200D03*
X0136461Y0104300D03*
X0136461Y0104400D03*
X0136461Y0104500D03*
X0136461Y0104600D03*
X0136461Y0104700D03*
X0136461Y0104800D03*
X0136461Y0104900D03*
D34*
X0157961Y0079500D03*
X0158061Y0078900D03*
X0158061Y0078800D03*
X0158161Y0078400D03*
X0158161Y0078300D03*
X0158161Y0078200D03*
X0158261Y0078000D03*
X0158261Y0077900D03*
X0158261Y0077800D03*
X0158261Y0077700D03*
X0158361Y0077600D03*
X0158361Y0077500D03*
X0158361Y0077400D03*
X0158461Y0077100D03*
X0158461Y0077000D03*
X0158561Y0076700D03*
X0153661Y0074000D03*
X0151961Y0071100D03*
X0143761Y0074200D03*
X0142961Y0078700D03*
X0143461Y0063300D03*
X0125261Y0070900D03*
X0125261Y0071000D03*
X0125261Y0071100D03*
X0125361Y0072600D03*
X0123061Y0066400D03*
X0111261Y0074200D03*
X0164961Y0074200D03*
X0165061Y0074000D03*
X0165161Y0073800D03*
X0165161Y0073700D03*
X0169161Y0079000D03*
X0169161Y0079100D03*
D35*
X0169261Y0078800D03*
X0165161Y0073600D03*
X0165161Y0073500D03*
X0159261Y0074200D03*
X0159161Y0074500D03*
X0159161Y0074600D03*
X0159061Y0074800D03*
X0159061Y0074900D03*
X0159061Y0075000D03*
X0158961Y0075100D03*
X0158961Y0075200D03*
X0158961Y0075300D03*
X0158861Y0075500D03*
X0158861Y0075600D03*
X0158761Y0075900D03*
X0158761Y0076000D03*
X0153661Y0073900D03*
X0153661Y0073800D03*
X0153461Y0073500D03*
X0153261Y0073200D03*
X0153161Y0073000D03*
X0153061Y0072900D03*
X0152961Y0072700D03*
X0152861Y0072600D03*
X0152761Y0072400D03*
X0152661Y0072300D03*
X0152561Y0072100D03*
X0152461Y0071900D03*
X0152261Y0071600D03*
X0150961Y0079000D03*
X0142961Y0078600D03*
X0143861Y0074000D03*
X0144461Y0072300D03*
X0144661Y0069500D03*
X0151961Y0063300D03*
X0134361Y0063800D03*
X0125261Y0072700D03*
X0117961Y0076400D03*
X0117861Y0076200D03*
X0118061Y0079300D03*
D36*
X0135061Y0063400D03*
X0140861Y0069500D03*
X0140861Y0069600D03*
X0144661Y0076100D03*
X0155461Y0070700D03*
X0175561Y0071300D03*
D37*
X0175811Y0072100D03*
X0170111Y0073400D03*
X0169211Y0078700D03*
X0159111Y0074700D03*
X0159211Y0074400D03*
X0159211Y0074300D03*
X0159311Y0074100D03*
X0159311Y0074000D03*
X0159311Y0073900D03*
X0159411Y0073800D03*
X0159411Y0073700D03*
X0159411Y0073600D03*
X0159511Y0073400D03*
X0159511Y0073300D03*
X0159611Y0073000D03*
X0153611Y0073700D03*
X0153511Y0073600D03*
X0153411Y0073400D03*
X0153311Y0073300D03*
X0153211Y0073100D03*
X0153011Y0072800D03*
X0143911Y0073900D03*
X0143311Y0063400D03*
X0163111Y0065800D03*
X0117911Y0076300D03*
X0117811Y0076100D03*
X0117711Y0076000D03*
D38*
X0132211Y0072600D03*
X0132311Y0072700D03*
X0132411Y0072800D03*
X0142711Y0078100D03*
X0152411Y0063400D03*
X0165111Y0072700D03*
X0169511Y0077900D03*
D39*
X0169561Y0073100D03*
X0145161Y0071200D03*
X0145161Y0071100D03*
X0145161Y0071000D03*
X0145161Y0070900D03*
X0145161Y0070800D03*
X0145161Y0070700D03*
X0145161Y0070600D03*
X0145161Y0070500D03*
X0145161Y0070400D03*
X0145161Y0070300D03*
X0145161Y0070200D03*
X0145161Y0070100D03*
X0144061Y0075300D03*
X0144161Y0075400D03*
X0135861Y0071700D03*
X0134861Y0063500D03*
X0122761Y0077100D03*
X0122961Y0077600D03*
X0132561Y0079500D03*
D40*
X0135061Y0075900D03*
X0134961Y0075800D03*
X0134861Y0075700D03*
X0134761Y0075600D03*
X0134661Y0075500D03*
X0134561Y0075400D03*
X0134461Y0075200D03*
X0134361Y0075100D03*
X0134261Y0075000D03*
X0125161Y0073000D03*
X0117261Y0075400D03*
X0117161Y0075300D03*
X0117061Y0075200D03*
X0134161Y0063900D03*
X0143261Y0063700D03*
X0143261Y0063600D03*
X0143261Y0063500D03*
X0144261Y0072500D03*
X0144061Y0073600D03*
X0142861Y0078400D03*
X0148161Y0086200D03*
X0148161Y0086300D03*
X0148161Y0086400D03*
X0148161Y0086500D03*
X0148161Y0086600D03*
X0148161Y0086700D03*
X0148161Y0086800D03*
X0148161Y0086900D03*
X0148161Y0087000D03*
X0148161Y0087100D03*
X0148161Y0087200D03*
X0148161Y0087300D03*
X0149361Y0100300D03*
X0149361Y0100400D03*
X0149361Y0100500D03*
X0149361Y0100600D03*
X0149361Y0100700D03*
X0149361Y0100800D03*
X0149361Y0100900D03*
X0149361Y0101000D03*
X0149361Y0101100D03*
X0149361Y0101200D03*
X0149361Y0101300D03*
X0149361Y0103800D03*
X0149361Y0103900D03*
X0149361Y0104000D03*
X0149361Y0104100D03*
X0149361Y0104200D03*
X0149361Y0104300D03*
X0149361Y0104400D03*
X0149361Y0104500D03*
X0149361Y0104600D03*
X0149361Y0104700D03*
X0149361Y0104800D03*
X0149361Y0104900D03*
X0150561Y0106100D03*
X0150561Y0106200D03*
X0150561Y0106300D03*
X0150561Y0106400D03*
X0150561Y0106500D03*
X0150561Y0106600D03*
X0150561Y0106700D03*
X0150561Y0106800D03*
X0150561Y0106900D03*
X0150561Y0107000D03*
X0150561Y0107100D03*
X0150561Y0107200D03*
X0145861Y0113200D03*
X0145861Y0113300D03*
X0145861Y0113400D03*
X0145861Y0113500D03*
X0145861Y0113600D03*
X0145861Y0113700D03*
X0145861Y0113800D03*
X0145861Y0113900D03*
X0145861Y0114000D03*
X0145861Y0114100D03*
X0145861Y0114200D03*
X0169361Y0078400D03*
X0165161Y0073200D03*
X0175061Y0073300D03*
X0175161Y0073200D03*
X0175261Y0073100D03*
X0175361Y0073000D03*
X0175861Y0072200D03*
D41*
X0173361Y0076200D03*
X0173261Y0076300D03*
X0169761Y0077300D03*
X0152761Y0063500D03*
X0143261Y0065200D03*
X0143261Y0065300D03*
X0143261Y0065400D03*
X0143261Y0076500D03*
X0143161Y0076600D03*
X0143161Y0076700D03*
X0143061Y0076800D03*
X0143061Y0076900D03*
X0142961Y0077000D03*
X0142961Y0077100D03*
X0142861Y0077200D03*
X0142861Y0077300D03*
X0142761Y0077500D03*
X0150961Y0078400D03*
X0148761Y0085000D03*
X0148761Y0085100D03*
X0148761Y0085200D03*
X0148761Y0085300D03*
X0148761Y0085400D03*
X0148761Y0085500D03*
X0148761Y0085600D03*
X0148761Y0085700D03*
X0148761Y0085800D03*
X0148761Y0085900D03*
X0148761Y0086000D03*
X0148761Y0086100D03*
X0147561Y0087400D03*
X0147561Y0087500D03*
X0147561Y0087600D03*
X0147561Y0087700D03*
X0147561Y0087800D03*
X0147561Y0087900D03*
X0147561Y0088000D03*
X0147561Y0088100D03*
X0147561Y0088200D03*
X0147561Y0088300D03*
X0147561Y0088400D03*
X0147561Y0088500D03*
X0148761Y0099100D03*
X0148761Y0099200D03*
X0148761Y0099300D03*
X0148761Y0099400D03*
X0148761Y0099500D03*
X0148761Y0099600D03*
X0148761Y0099700D03*
X0148761Y0099800D03*
X0148761Y0099900D03*
X0148761Y0100000D03*
X0148761Y0100100D03*
X0148761Y0100200D03*
X0117561Y0078700D03*
D42*
X0120811Y0073000D03*
X0126411Y0076300D03*
X0134711Y0063600D03*
X0143611Y0074600D03*
X0143611Y0074700D03*
X0175711Y0071700D03*
X0138211Y0112000D03*
X0138211Y0112100D03*
X0138211Y0112200D03*
X0138211Y0112300D03*
X0138211Y0112400D03*
X0138211Y0112500D03*
X0138211Y0112600D03*
X0138211Y0112700D03*
X0138211Y0112800D03*
X0138211Y0112900D03*
X0138211Y0113000D03*
X0138211Y0113100D03*
D43*
X0125061Y0078300D03*
X0143261Y0066500D03*
X0143261Y0066400D03*
X0153061Y0063600D03*
X0151261Y0076900D03*
X0151261Y0077000D03*
X0151161Y0077100D03*
X0151161Y0077200D03*
X0151061Y0077300D03*
X0150861Y0078000D03*
D44*
X0150911Y0079100D03*
X0153011Y0075900D03*
X0153711Y0074200D03*
X0153711Y0074100D03*
X0158211Y0078100D03*
X0158111Y0078500D03*
X0158111Y0078600D03*
X0158111Y0078700D03*
X0158011Y0079000D03*
X0158011Y0079100D03*
X0158011Y0079200D03*
X0158011Y0079300D03*
X0158011Y0079400D03*
X0163811Y0076500D03*
X0163911Y0076300D03*
X0164011Y0076100D03*
X0164111Y0075900D03*
X0164211Y0075700D03*
X0164311Y0075500D03*
X0164411Y0075300D03*
X0164511Y0075100D03*
X0164611Y0074900D03*
X0164711Y0074700D03*
X0164811Y0074600D03*
X0164811Y0074500D03*
X0164911Y0074400D03*
X0164911Y0074300D03*
X0165011Y0074100D03*
X0165111Y0073900D03*
X0169911Y0073300D03*
X0175811Y0071900D03*
X0163011Y0065700D03*
X0144711Y0069600D03*
X0144611Y0072100D03*
X0143711Y0074300D03*
X0134511Y0063700D03*
X0125311Y0071200D03*
X0125311Y0071300D03*
X0125411Y0072500D03*
X0118111Y0079400D03*
X0112511Y0076300D03*
X0112011Y0076000D03*
D45*
X0116961Y0078200D03*
X0123561Y0074800D03*
X0123561Y0074700D03*
X0123461Y0074600D03*
X0123661Y0074900D03*
X0123261Y0074200D03*
X0122161Y0067300D03*
X0134461Y0078700D03*
X0134461Y0078800D03*
X0134461Y0078900D03*
X0134561Y0079000D03*
X0134561Y0079100D03*
X0143261Y0067300D03*
X0143261Y0067200D03*
X0153261Y0070600D03*
X0153361Y0063700D03*
X0163761Y0067000D03*
D46*
X0165161Y0073000D03*
X0169361Y0078200D03*
X0175461Y0072900D03*
X0175561Y0072800D03*
X0175661Y0072700D03*
X0175761Y0072600D03*
X0144061Y0073000D03*
X0143261Y0064000D03*
X0143261Y0063900D03*
X0143261Y0063800D03*
X0133461Y0074100D03*
X0133561Y0074200D03*
X0133661Y0074300D03*
X0133761Y0074400D03*
X0116761Y0074800D03*
X0116661Y0074700D03*
X0116561Y0074500D03*
X0111661Y0074100D03*
D47*
X0121961Y0067500D03*
X0123361Y0073800D03*
X0133761Y0076300D03*
X0133861Y0076400D03*
X0133861Y0076500D03*
X0153161Y0069900D03*
X0153161Y0069800D03*
X0153661Y0063800D03*
X0163561Y0067700D03*
D48*
X0163361Y0068400D03*
X0153061Y0069200D03*
X0153961Y0063900D03*
X0123261Y0073100D03*
X0121761Y0067700D03*
X0113361Y0072100D03*
D49*
X0114511Y0071000D03*
X0116611Y0074600D03*
X0117811Y0079000D03*
X0122911Y0066600D03*
X0134011Y0064000D03*
X0132811Y0073300D03*
X0132911Y0073400D03*
X0133111Y0073700D03*
X0133211Y0073800D03*
X0133311Y0073900D03*
X0133411Y0074000D03*
X0142811Y0078200D03*
X0144111Y0072900D03*
X0144111Y0072800D03*
X0144111Y0072700D03*
X0165111Y0072900D03*
X0169411Y0078100D03*
X0175811Y0072500D03*
X0175911Y0072400D03*
D50*
X0172311Y0073700D03*
X0172211Y0073800D03*
X0163111Y0069300D03*
X0163111Y0069200D03*
X0154211Y0064000D03*
X0153211Y0067700D03*
X0153111Y0068000D03*
X0153011Y0068300D03*
X0153011Y0068400D03*
X0132611Y0069700D03*
X0132611Y0069800D03*
X0132611Y0069900D03*
X0132511Y0069500D03*
X0132511Y0069400D03*
X0132511Y0069300D03*
X0132511Y0069200D03*
X0132411Y0068800D03*
X0113411Y0072900D03*
X0113311Y0072700D03*
X0113311Y0072600D03*
D51*
X0117711Y0078900D03*
X0124811Y0079300D03*
X0131611Y0071800D03*
X0131511Y0071700D03*
X0133811Y0064100D03*
X0122811Y0066700D03*
X0142711Y0078000D03*
X0150911Y0078600D03*
X0165111Y0072500D03*
X0163411Y0066100D03*
D52*
X0163361Y0066000D03*
X0165161Y0072800D03*
X0169461Y0078000D03*
X0150961Y0078700D03*
X0143261Y0064300D03*
X0143261Y0064200D03*
X0143261Y0064100D03*
X0132761Y0073200D03*
X0132661Y0073100D03*
X0132561Y0073000D03*
X0132461Y0072900D03*
X0132961Y0073500D03*
X0133061Y0073600D03*
D53*
X0132311Y0068300D03*
X0132311Y0068200D03*
X0132311Y0068100D03*
X0132311Y0068000D03*
X0132211Y0067900D03*
X0132211Y0067800D03*
X0132211Y0067700D03*
X0132211Y0067600D03*
X0113611Y0073300D03*
X0113611Y0073400D03*
X0113511Y0073100D03*
X0153611Y0066400D03*
X0153711Y0066100D03*
X0153811Y0065700D03*
X0153911Y0065400D03*
X0154011Y0065100D03*
X0154011Y0065000D03*
X0154111Y0064800D03*
X0154111Y0064700D03*
X0154211Y0064400D03*
X0154211Y0064300D03*
X0154311Y0064100D03*
X0163011Y0069500D03*
X0163011Y0069600D03*
X0171911Y0074600D03*
D54*
X0169661Y0077500D03*
X0165161Y0072200D03*
X0150961Y0078500D03*
X0142661Y0077800D03*
X0143261Y0065100D03*
X0143261Y0065000D03*
X0133661Y0064200D03*
X0114261Y0071200D03*
D55*
X0113361Y0072800D03*
X0113461Y0073000D03*
X0113561Y0073200D03*
X0121461Y0068000D03*
X0131961Y0065300D03*
X0132361Y0068400D03*
X0132361Y0068500D03*
X0132361Y0068600D03*
X0132361Y0068700D03*
X0132461Y0068900D03*
X0132461Y0069000D03*
X0132461Y0069100D03*
X0153061Y0068200D03*
X0153061Y0068100D03*
X0153161Y0067900D03*
X0153161Y0067800D03*
X0153261Y0067600D03*
X0153261Y0067500D03*
X0153261Y0067400D03*
X0153361Y0067300D03*
X0153361Y0067200D03*
X0153361Y0067100D03*
X0153461Y0067000D03*
X0153461Y0066900D03*
X0153461Y0066800D03*
X0153561Y0066700D03*
X0153561Y0066600D03*
X0153561Y0066500D03*
X0153661Y0066300D03*
X0153661Y0066200D03*
X0153761Y0066000D03*
X0153761Y0065900D03*
X0153761Y0065800D03*
X0153861Y0065600D03*
X0153861Y0065500D03*
X0153961Y0065300D03*
X0153961Y0065200D03*
X0154061Y0064900D03*
X0154161Y0064600D03*
X0154161Y0064500D03*
X0154261Y0064200D03*
X0163061Y0069400D03*
X0172361Y0073600D03*
X0172461Y0073500D03*
D56*
X0173561Y0076000D03*
X0169861Y0077100D03*
X0163661Y0066300D03*
X0143261Y0065700D03*
X0143261Y0065600D03*
X0143261Y0065500D03*
X0133461Y0064300D03*
D57*
X0133311Y0064400D03*
X0125011Y0078700D03*
X0117311Y0078500D03*
X0114011Y0071400D03*
X0150911Y0078200D03*
D58*
X0165161Y0072600D03*
X0169561Y0077800D03*
X0143261Y0064600D03*
X0143261Y0064500D03*
X0143261Y0064400D03*
X0132161Y0072500D03*
X0132061Y0072400D03*
X0131961Y0072300D03*
X0131861Y0072200D03*
X0131861Y0072100D03*
X0131761Y0072000D03*
X0131661Y0071900D03*
X0114361Y0071100D03*
D59*
X0117211Y0078400D03*
X0125011Y0078200D03*
X0125011Y0078100D03*
X0133211Y0064500D03*
X0143211Y0066600D03*
X0151011Y0077400D03*
X0151011Y0077500D03*
X0150911Y0077600D03*
X0150811Y0077900D03*
D60*
X0149361Y0082700D03*
X0149361Y0082800D03*
X0149361Y0082900D03*
X0149361Y0083000D03*
X0149361Y0083100D03*
X0149361Y0083200D03*
X0149361Y0083300D03*
X0149361Y0083400D03*
X0149361Y0083500D03*
X0149361Y0083600D03*
X0149361Y0083700D03*
X0149361Y0083800D03*
X0149361Y0083900D03*
X0149361Y0084000D03*
X0149361Y0084100D03*
X0149361Y0084200D03*
X0149361Y0084300D03*
X0149361Y0084400D03*
X0149361Y0084500D03*
X0149361Y0084600D03*
X0149361Y0084700D03*
X0149361Y0084800D03*
X0149361Y0084900D03*
X0148161Y0102600D03*
X0148161Y0102700D03*
X0148161Y0102800D03*
X0148161Y0102900D03*
X0148161Y0103000D03*
X0148161Y0103100D03*
X0148161Y0103200D03*
X0148161Y0103300D03*
X0148161Y0103400D03*
X0148161Y0103500D03*
X0148161Y0103600D03*
X0148161Y0103700D03*
X0117061Y0078300D03*
X0116061Y0077500D03*
X0133061Y0064600D03*
X0143261Y0067000D03*
X0143261Y0067100D03*
X0163861Y0066700D03*
D61*
X0163661Y0067200D03*
X0143161Y0067700D03*
X0143061Y0068000D03*
X0143061Y0068100D03*
X0143061Y0069200D03*
X0143061Y0069300D03*
X0132861Y0064700D03*
X0122061Y0067400D03*
X0123961Y0075300D03*
X0124061Y0075400D03*
X0124161Y0075600D03*
X0124261Y0075800D03*
X0124261Y0075900D03*
X0124361Y0076000D03*
X0124361Y0076100D03*
X0116961Y0078100D03*
X0116661Y0077800D03*
X0134261Y0077900D03*
X0134261Y0078000D03*
X0134261Y0078100D03*
X0134361Y0078300D03*
D62*
X0142661Y0077900D03*
X0143261Y0064900D03*
X0143261Y0064800D03*
X0143261Y0064700D03*
X0165161Y0072400D03*
X0169561Y0077700D03*
D63*
X0163611Y0067600D03*
X0163611Y0067500D03*
X0153211Y0070000D03*
X0133911Y0076600D03*
X0133911Y0076700D03*
X0133911Y0076800D03*
X0134011Y0076900D03*
X0134011Y0077000D03*
X0133711Y0076200D03*
X0123311Y0073900D03*
X0132711Y0064800D03*
D64*
X0140911Y0075400D03*
X0149411Y0074800D03*
X0161811Y0064800D03*
X0175111Y0070100D03*
X0117911Y0077000D03*
D65*
X0123361Y0073600D03*
X0121861Y0067600D03*
X0132561Y0064900D03*
X0153161Y0069600D03*
X0153161Y0069700D03*
X0163461Y0068000D03*
D66*
X0163411Y0068300D03*
X0153111Y0069300D03*
X0132411Y0065000D03*
X0123311Y0073200D03*
X0123311Y0073300D03*
D67*
X0123161Y0065900D03*
X0162061Y0065000D03*
D68*
X0163261Y0068700D03*
X0171661Y0074400D03*
X0153061Y0069000D03*
X0153061Y0068900D03*
X0133061Y0071600D03*
X0132261Y0065100D03*
X0121661Y0067800D03*
D69*
X0121611Y0067900D03*
X0132111Y0065200D03*
X0132711Y0070300D03*
X0132711Y0070400D03*
X0132711Y0070500D03*
X0132811Y0070700D03*
X0132811Y0070800D03*
X0132811Y0070900D03*
X0132811Y0071000D03*
X0153011Y0068600D03*
X0163111Y0069100D03*
X0172011Y0074000D03*
X0172111Y0073900D03*
D70*
X0169161Y0072900D03*
X0175461Y0071000D03*
X0162361Y0065200D03*
X0141461Y0076200D03*
D71*
X0131961Y0066300D03*
X0131861Y0065800D03*
X0131861Y0065700D03*
X0131861Y0065600D03*
X0131861Y0065500D03*
X0131861Y0065400D03*
X0122361Y0070000D03*
X0122361Y0070100D03*
X0122261Y0069900D03*
X0162961Y0070100D03*
X0162961Y0070200D03*
D72*
X0162611Y0065400D03*
X0150911Y0079500D03*
X0144611Y0076000D03*
X0144511Y0075900D03*
X0117411Y0074200D03*
D73*
X0122461Y0067000D03*
X0125061Y0078800D03*
X0143261Y0066000D03*
X0143261Y0065900D03*
X0143261Y0065800D03*
X0173561Y0075900D03*
D74*
X0162911Y0070000D03*
X0162911Y0069900D03*
X0162911Y0069800D03*
X0132011Y0066700D03*
X0132011Y0066600D03*
X0132011Y0066500D03*
X0132011Y0066400D03*
X0131911Y0066200D03*
X0131911Y0066100D03*
X0131911Y0066000D03*
X0131911Y0065900D03*
X0122211Y0069700D03*
X0122211Y0069800D03*
X0122111Y0069600D03*
X0122111Y0069500D03*
X0122011Y0069400D03*
X0122011Y0069300D03*
X0121911Y0069200D03*
X0121911Y0069100D03*
X0121811Y0069000D03*
X0121811Y0068900D03*
X0121711Y0068700D03*
X0121611Y0068500D03*
X0121511Y0068300D03*
X0122411Y0070200D03*
X0122411Y0070300D03*
X0113811Y0073800D03*
D75*
X0116811Y0074900D03*
X0116911Y0075000D03*
X0117011Y0075100D03*
X0117911Y0079100D03*
X0133811Y0074500D03*
X0133911Y0074600D03*
X0134011Y0074700D03*
X0134111Y0074800D03*
X0134211Y0074900D03*
X0134511Y0075300D03*
X0142811Y0078300D03*
X0144111Y0073500D03*
X0144111Y0073400D03*
X0144111Y0073300D03*
X0144111Y0073200D03*
X0144111Y0073100D03*
X0144211Y0072600D03*
X0150911Y0078800D03*
X0165111Y0073100D03*
X0169311Y0078300D03*
X0175911Y0072300D03*
X0163211Y0065900D03*
D76*
X0140911Y0069900D03*
X0141511Y0076300D03*
X0123111Y0066100D03*
X0138811Y0099100D03*
X0138811Y0099200D03*
X0138811Y0099300D03*
X0138811Y0099400D03*
X0138811Y0099500D03*
X0138811Y0099600D03*
X0138811Y0099700D03*
X0138811Y0099800D03*
X0138811Y0099900D03*
X0138811Y0100000D03*
X0138811Y0100100D03*
X0138811Y0100200D03*
X0138811Y0102600D03*
X0138811Y0102700D03*
X0138811Y0102800D03*
X0138811Y0102900D03*
X0138811Y0103000D03*
X0138811Y0103100D03*
X0138811Y0103200D03*
X0138811Y0103300D03*
X0138811Y0103400D03*
X0138811Y0103500D03*
X0138811Y0103600D03*
X0138811Y0103700D03*
X0142311Y0112000D03*
X0142311Y0112100D03*
X0142311Y0112200D03*
X0142311Y0112300D03*
X0142311Y0112400D03*
X0142311Y0112500D03*
X0142311Y0112600D03*
X0142311Y0112700D03*
X0142311Y0112800D03*
X0142311Y0112900D03*
X0142311Y0113000D03*
X0142311Y0113100D03*
X0145811Y0113100D03*
X0145811Y0113000D03*
X0145811Y0112900D03*
X0145811Y0112800D03*
X0145811Y0112700D03*
X0145811Y0112600D03*
X0145811Y0112500D03*
X0145811Y0112400D03*
X0145811Y0112300D03*
X0145811Y0112200D03*
X0145811Y0112100D03*
X0145811Y0112000D03*
X0150511Y0113200D03*
X0150511Y0113300D03*
X0150511Y0113400D03*
X0150511Y0113500D03*
X0150511Y0113600D03*
X0150511Y0113700D03*
X0150511Y0113800D03*
X0150511Y0113900D03*
X0150511Y0114000D03*
X0150511Y0114100D03*
X0150511Y0114200D03*
D77*
X0150861Y0078100D03*
X0151561Y0076400D03*
X0151561Y0076300D03*
X0151661Y0076200D03*
X0151661Y0076100D03*
X0143261Y0066300D03*
X0143261Y0066200D03*
X0143261Y0066100D03*
X0163761Y0066400D03*
X0125061Y0078500D03*
X0125061Y0078600D03*
D78*
X0124411Y0079500D03*
X0127111Y0077400D03*
X0127011Y0077200D03*
X0127011Y0077100D03*
X0126911Y0076900D03*
X0126911Y0076800D03*
X0126811Y0076700D03*
X0126811Y0076600D03*
X0126711Y0076400D03*
X0118011Y0079600D03*
X0123111Y0066200D03*
X0145111Y0071300D03*
X0145111Y0071400D03*
X0145111Y0071500D03*
X0144211Y0075500D03*
X0144311Y0075600D03*
X0144611Y0076300D03*
X0168211Y0076300D03*
X0168211Y0076400D03*
X0168211Y0076500D03*
X0168211Y0076600D03*
X0168211Y0076700D03*
X0168211Y0076800D03*
X0168211Y0076200D03*
X0168811Y0079600D03*
X0175611Y0071400D03*
D79*
X0169711Y0077400D03*
X0165111Y0072100D03*
X0163511Y0066200D03*
X0142811Y0077400D03*
X0142711Y0077600D03*
X0142611Y0077700D03*
X0138211Y0085000D03*
X0138211Y0085100D03*
X0138211Y0085200D03*
X0138211Y0085300D03*
X0138211Y0085400D03*
X0138211Y0085500D03*
X0138211Y0085600D03*
X0138211Y0085700D03*
X0138211Y0085800D03*
X0138211Y0085900D03*
X0138211Y0086000D03*
X0138211Y0086100D03*
X0138211Y0086200D03*
X0138211Y0086300D03*
X0138211Y0086400D03*
X0138211Y0086500D03*
X0138211Y0086600D03*
X0138211Y0086700D03*
X0138211Y0086800D03*
X0138211Y0086900D03*
X0138211Y0087000D03*
X0138211Y0087100D03*
X0138211Y0087200D03*
X0138211Y0087300D03*
X0138211Y0087400D03*
X0138211Y0087500D03*
X0138211Y0087600D03*
X0138211Y0087700D03*
X0138211Y0087800D03*
X0138211Y0087900D03*
X0138211Y0088000D03*
X0138211Y0088100D03*
X0138211Y0088200D03*
X0138211Y0088300D03*
X0138211Y0088400D03*
X0138211Y0088500D03*
X0133911Y0079300D03*
X0112011Y0074000D03*
D80*
X0123061Y0066300D03*
X0144961Y0069900D03*
X0144861Y0071800D03*
X0143661Y0074800D03*
X0143761Y0074900D03*
X0143061Y0079000D03*
X0169761Y0073200D03*
X0171961Y0076400D03*
X0137061Y0107300D03*
X0137061Y0107400D03*
X0137061Y0107500D03*
X0137061Y0107600D03*
X0137061Y0107700D03*
X0137061Y0107800D03*
X0137061Y0107900D03*
X0137061Y0108000D03*
X0137061Y0108100D03*
X0137061Y0108200D03*
X0137061Y0108300D03*
X0137061Y0108400D03*
X0139361Y0113200D03*
X0139361Y0113300D03*
X0139361Y0113400D03*
X0139361Y0113500D03*
X0139361Y0113600D03*
X0139361Y0113700D03*
X0139361Y0113800D03*
X0139361Y0113900D03*
X0139361Y0114000D03*
X0139361Y0114100D03*
X0139361Y0114200D03*
X0149961Y0110700D03*
X0149961Y0110600D03*
X0149961Y0110500D03*
X0149961Y0110400D03*
X0149961Y0110300D03*
X0149961Y0110200D03*
X0149961Y0110100D03*
X0149961Y0110000D03*
X0149961Y0109900D03*
X0149961Y0109800D03*
X0149961Y0109700D03*
D81*
X0142311Y0114300D03*
X0142311Y0114400D03*
X0142311Y0114500D03*
X0142311Y0114600D03*
X0142311Y0114700D03*
X0142311Y0114800D03*
X0142311Y0114900D03*
X0142311Y0115000D03*
X0142311Y0115100D03*
X0142311Y0115200D03*
X0142311Y0115300D03*
X0142311Y0115400D03*
X0142311Y0094300D03*
X0142311Y0094200D03*
X0142311Y0094100D03*
X0142311Y0094000D03*
X0142311Y0093900D03*
X0142311Y0093800D03*
X0142311Y0093700D03*
X0142311Y0093600D03*
X0142311Y0093500D03*
X0142311Y0093400D03*
X0142311Y0093300D03*
X0142311Y0093200D03*
X0142311Y0093100D03*
X0142311Y0093000D03*
X0142311Y0092900D03*
X0142311Y0092800D03*
X0142311Y0092700D03*
X0142311Y0092600D03*
X0142311Y0092500D03*
X0142311Y0092400D03*
X0142311Y0092300D03*
X0142311Y0092200D03*
X0142311Y0092100D03*
X0135111Y0076000D03*
X0144011Y0073700D03*
X0159811Y0072300D03*
X0169311Y0078500D03*
X0175011Y0073400D03*
X0125211Y0072900D03*
X0125011Y0070800D03*
X0123011Y0066500D03*
X0114611Y0070900D03*
X0117311Y0075500D03*
X0117411Y0075600D03*
D82*
X0125061Y0078000D03*
X0122261Y0067200D03*
X0143261Y0066800D03*
X0143261Y0066700D03*
X0150861Y0077700D03*
X0150861Y0077800D03*
X0163861Y0066500D03*
D83*
X0163911Y0066600D03*
X0143211Y0066900D03*
X0137611Y0082700D03*
X0137611Y0082800D03*
X0137611Y0082900D03*
X0137611Y0083000D03*
X0137611Y0083100D03*
X0137611Y0083200D03*
X0137611Y0083300D03*
X0137611Y0083400D03*
X0137611Y0083500D03*
X0137611Y0083600D03*
X0137611Y0083700D03*
X0137611Y0083800D03*
X0137611Y0083900D03*
X0137611Y0084000D03*
X0137611Y0084100D03*
X0137611Y0084200D03*
X0137611Y0084300D03*
X0137611Y0084400D03*
X0137611Y0084500D03*
X0137611Y0084600D03*
X0137611Y0084700D03*
X0137611Y0084800D03*
X0137611Y0084900D03*
X0125011Y0077900D03*
X0125011Y0077800D03*
X0115811Y0077400D03*
X0113811Y0071600D03*
X0142311Y0100300D03*
X0142311Y0100400D03*
X0142311Y0100500D03*
X0142311Y0100600D03*
X0142311Y0100700D03*
X0142311Y0100800D03*
X0142311Y0100900D03*
X0142311Y0101000D03*
X0142311Y0101100D03*
X0142311Y0101200D03*
X0142311Y0101300D03*
D84*
X0117611Y0078800D03*
X0122711Y0066800D03*
X0165111Y0072300D03*
X0169611Y0077600D03*
D85*
X0162961Y0069700D03*
X0132161Y0067500D03*
X0132161Y0067400D03*
X0132161Y0067300D03*
X0132161Y0067200D03*
X0132061Y0067100D03*
X0132061Y0067000D03*
X0132061Y0066900D03*
X0132061Y0066800D03*
X0122561Y0070600D03*
X0122561Y0070700D03*
X0122461Y0070500D03*
X0122461Y0070400D03*
X0121761Y0068800D03*
X0121661Y0068600D03*
X0121561Y0068400D03*
X0121461Y0068200D03*
X0121461Y0068100D03*
X0113761Y0073600D03*
X0113761Y0073700D03*
X0113861Y0073900D03*
X0113661Y0073500D03*
D86*
X0116211Y0077600D03*
X0123311Y0074400D03*
X0123311Y0074300D03*
X0123411Y0074500D03*
X0125011Y0077700D03*
X0134511Y0079200D03*
X0163811Y0066900D03*
X0163811Y0066800D03*
D87*
X0173511Y0076100D03*
X0169811Y0077200D03*
X0125011Y0079200D03*
X0114111Y0071300D03*
X0122611Y0066900D03*
D88*
X0122411Y0067100D03*
X0113911Y0071500D03*
X0125011Y0078400D03*
X0151311Y0076800D03*
X0151411Y0076700D03*
X0151411Y0076600D03*
X0151511Y0076500D03*
D89*
X0153211Y0070500D03*
X0153211Y0070400D03*
X0143111Y0069400D03*
X0143111Y0067900D03*
X0143111Y0067800D03*
X0143211Y0067600D03*
X0143211Y0067500D03*
X0143211Y0067400D03*
X0134311Y0078200D03*
X0134411Y0078400D03*
X0134411Y0078500D03*
X0134411Y0078600D03*
X0124411Y0076200D03*
X0123911Y0075200D03*
X0123811Y0075100D03*
X0123711Y0075000D03*
X0123311Y0074100D03*
X0116411Y0077700D03*
X0113711Y0071700D03*
X0163711Y0067100D03*
D90*
X0163711Y0067300D03*
X0153211Y0070200D03*
X0153211Y0070300D03*
X0143011Y0069100D03*
X0143011Y0069000D03*
X0143011Y0068400D03*
X0143011Y0068300D03*
X0143011Y0068200D03*
X0134111Y0077400D03*
X0134111Y0077500D03*
X0134211Y0077600D03*
X0134211Y0077700D03*
X0134211Y0077800D03*
X0124211Y0075700D03*
X0124111Y0075500D03*
X0123311Y0074000D03*
X0116911Y0078000D03*
X0116811Y0077900D03*
X0113611Y0071800D03*
D91*
X0133661Y0076100D03*
X0134061Y0077100D03*
X0134061Y0077200D03*
X0134061Y0077300D03*
X0142961Y0068900D03*
X0142961Y0068800D03*
X0142961Y0068700D03*
X0142961Y0068600D03*
X0142961Y0068500D03*
X0153161Y0070100D03*
X0163661Y0067400D03*
D92*
X0163511Y0067800D03*
X0163511Y0067900D03*
X0123311Y0073700D03*
X0113511Y0071900D03*
D93*
X0113411Y0072000D03*
X0153111Y0069500D03*
X0163411Y0068200D03*
X0163411Y0068100D03*
D94*
X0171761Y0074500D03*
X0153061Y0068500D03*
X0132761Y0070600D03*
X0132661Y0070200D03*
X0132661Y0070100D03*
X0132661Y0070000D03*
X0132561Y0069600D03*
X0113261Y0072500D03*
X0113161Y0072400D03*
X0113161Y0072300D03*
D95*
X0153111Y0069100D03*
X0163311Y0068600D03*
X0163311Y0068500D03*
D96*
X0163161Y0069000D03*
X0171861Y0074200D03*
X0171961Y0074100D03*
X0153061Y0068800D03*
X0153061Y0068700D03*
X0132961Y0071400D03*
X0132861Y0071300D03*
X0132861Y0071200D03*
X0132861Y0071100D03*
D97*
X0133011Y0071500D03*
X0113211Y0072200D03*
X0163211Y0068900D03*
X0163211Y0068800D03*
X0171711Y0074300D03*
D98*
X0153161Y0069400D03*
X0123361Y0073400D03*
X0123361Y0073500D03*
D99*
X0125511Y0072300D03*
X0125511Y0072100D03*
X0125511Y0072000D03*
X0125511Y0071900D03*
X0120311Y0071900D03*
X0120211Y0071700D03*
X0120111Y0071500D03*
X0120111Y0071400D03*
X0120011Y0071300D03*
X0120011Y0071200D03*
X0119911Y0071100D03*
X0119911Y0071000D03*
X0119811Y0070900D03*
X0119811Y0070800D03*
X0114911Y0070700D03*
X0111411Y0074900D03*
X0111511Y0075100D03*
X0111511Y0075200D03*
X0111611Y0075400D03*
X0111611Y0075500D03*
X0111711Y0075600D03*
X0111711Y0075700D03*
X0113011Y0076600D03*
X0113211Y0076700D03*
X0113311Y0076800D03*
X0113511Y0076900D03*
X0113611Y0077000D03*
X0113811Y0077100D03*
X0117811Y0076500D03*
X0118211Y0079500D03*
X0143711Y0074400D03*
X0144711Y0072000D03*
X0144811Y0069700D03*
X0153711Y0074300D03*
X0153711Y0074400D03*
X0153611Y0074600D03*
X0153611Y0074700D03*
X0153511Y0074900D03*
X0153411Y0075200D03*
X0153311Y0075500D03*
X0153211Y0075600D03*
X0162811Y0078900D03*
X0162911Y0078600D03*
X0163311Y0077600D03*
X0169111Y0079400D03*
X0175711Y0071800D03*
D100*
X0140961Y0071800D03*
X0140961Y0071700D03*
X0131261Y0079700D03*
X0116361Y0076800D03*
X0116261Y0070000D03*
D101*
X0140961Y0071900D03*
X0149361Y0074600D03*
X0175061Y0070000D03*
D102*
X0149461Y0075100D03*
X0142261Y0079400D03*
X0141061Y0075600D03*
X0140961Y0071200D03*
X0136961Y0072100D03*
X0116061Y0070100D03*
D103*
X0140961Y0071500D03*
X0140961Y0071600D03*
X0149461Y0074900D03*
X0164461Y0079000D03*
X0175161Y0070200D03*
D104*
X0172011Y0074700D03*
X0162911Y0070600D03*
X0162911Y0070500D03*
X0162911Y0070400D03*
X0162911Y0070300D03*
D105*
X0140911Y0070400D03*
X0131911Y0079600D03*
X0124211Y0079600D03*
D106*
X0141111Y0075700D03*
X0140911Y0071100D03*
X0149511Y0075200D03*
X0150311Y0079700D03*
X0156211Y0071100D03*
X0175211Y0070400D03*
D107*
X0175361Y0070800D03*
X0149561Y0075700D03*
X0142561Y0079300D03*
X0140861Y0070500D03*
X0118161Y0077300D03*
D108*
X0115111Y0070600D03*
X0143811Y0075000D03*
X0143911Y0075100D03*
X0143111Y0079100D03*
X0150911Y0079300D03*
X0144911Y0071700D03*
X0171811Y0076500D03*
D109*
X0175311Y0070600D03*
X0156011Y0071000D03*
X0149511Y0075500D03*
X0140911Y0070800D03*
X0140911Y0070700D03*
X0116811Y0076700D03*
X0117411Y0079700D03*
D110*
X0116811Y0074400D03*
X0114811Y0070800D03*
X0124611Y0079400D03*
X0143811Y0074100D03*
X0144511Y0072200D03*
X0151711Y0070700D03*
X0151811Y0070800D03*
X0151811Y0070900D03*
X0151911Y0071000D03*
X0152011Y0071200D03*
X0152111Y0071300D03*
X0152111Y0071400D03*
X0152211Y0071500D03*
X0152311Y0071700D03*
X0152411Y0071800D03*
X0152511Y0072000D03*
X0152611Y0072200D03*
X0152811Y0072500D03*
X0152911Y0076000D03*
X0158411Y0077200D03*
X0158411Y0077300D03*
X0158511Y0076900D03*
X0158511Y0076800D03*
X0158611Y0076600D03*
X0158611Y0076500D03*
X0158611Y0076400D03*
X0158711Y0076300D03*
X0158711Y0076200D03*
X0158711Y0076100D03*
X0158811Y0075800D03*
X0158811Y0075700D03*
X0158911Y0075400D03*
X0169211Y0078900D03*
X0175811Y0072000D03*
D111*
X0162861Y0070800D03*
X0162861Y0070700D03*
D112*
X0162911Y0070900D03*
X0162911Y0071000D03*
D113*
X0162861Y0071100D03*
X0162861Y0071200D03*
X0162861Y0071300D03*
X0162861Y0071400D03*
X0172161Y0074800D03*
X0171761Y0075800D03*
D114*
X0168611Y0072600D03*
X0156411Y0071200D03*
X0141011Y0075500D03*
X0137211Y0072200D03*
X0123911Y0079700D03*
D115*
X0117311Y0076600D03*
X0150911Y0079600D03*
X0169411Y0073000D03*
X0175511Y0071200D03*
D116*
X0169161Y0079200D03*
X0169161Y0079300D03*
X0163761Y0076700D03*
X0163761Y0076600D03*
X0163861Y0076400D03*
X0163961Y0076200D03*
X0164061Y0076000D03*
X0164161Y0075800D03*
X0164261Y0075600D03*
X0164361Y0075400D03*
X0164461Y0075200D03*
X0164561Y0075000D03*
X0164661Y0074800D03*
X0163661Y0076800D03*
X0163661Y0076900D03*
X0163561Y0077000D03*
X0163561Y0077100D03*
X0163461Y0077200D03*
X0163461Y0077300D03*
X0163361Y0077400D03*
X0163361Y0077500D03*
X0163261Y0077700D03*
X0163261Y0077800D03*
X0163161Y0077900D03*
X0163161Y0078000D03*
X0163061Y0078100D03*
X0163061Y0078200D03*
X0163061Y0078300D03*
X0162961Y0078400D03*
X0162961Y0078500D03*
X0162861Y0078700D03*
X0162861Y0078800D03*
X0153161Y0075700D03*
X0153061Y0075800D03*
X0142961Y0078800D03*
X0125461Y0072400D03*
X0125461Y0071800D03*
X0125461Y0071700D03*
X0125361Y0071600D03*
X0125361Y0071500D03*
X0125361Y0071400D03*
X0114061Y0077200D03*
X0112861Y0076500D03*
X0112661Y0076400D03*
X0112361Y0076200D03*
X0112161Y0076100D03*
X0111861Y0075900D03*
X0111561Y0075300D03*
X0111461Y0075000D03*
X0111361Y0074800D03*
X0111361Y0074700D03*
X0111261Y0074600D03*
X0111261Y0074500D03*
X0111261Y0074400D03*
X0111161Y0074300D03*
D117*
X0162811Y0071600D03*
X0162811Y0071500D03*
D118*
X0162861Y0071700D03*
X0162861Y0071800D03*
X0171861Y0075700D03*
D119*
X0171911Y0075600D03*
X0162811Y0072000D03*
X0162811Y0071900D03*
D120*
X0165161Y0073300D03*
X0165161Y0073400D03*
X0159861Y0072200D03*
X0159861Y0072100D03*
X0159761Y0072400D03*
X0159761Y0072500D03*
X0159761Y0072600D03*
X0159661Y0072700D03*
X0159661Y0072800D03*
X0159661Y0072900D03*
X0159561Y0073100D03*
X0159561Y0073200D03*
X0159461Y0073500D03*
X0150961Y0078900D03*
X0142861Y0078500D03*
X0143961Y0073800D03*
X0144361Y0072400D03*
X0133261Y0079400D03*
X0125261Y0072800D03*
X0117661Y0075900D03*
X0117561Y0075800D03*
X0117461Y0075700D03*
X0114461Y0077300D03*
X0117961Y0079200D03*
X0169261Y0078600D03*
D121*
X0171961Y0075500D03*
X0172261Y0074900D03*
D122*
X0172311Y0075000D03*
X0172211Y0075200D03*
D123*
X0172361Y0075100D03*
D124*
X0172161Y0075300D03*
X0172061Y0075400D03*
D125*
X0169911Y0077000D03*
X0151011Y0078300D03*
X0125011Y0078900D03*
X0125011Y0079000D03*
X0125011Y0079100D03*
X0117411Y0078600D03*
D126*
X0142911Y0088600D03*
X0142911Y0088700D03*
X0142911Y0088800D03*
X0142911Y0088900D03*
X0142911Y0089000D03*
X0142911Y0089100D03*
X0142911Y0089200D03*
X0142911Y0089300D03*
X0142911Y0089400D03*
X0142911Y0089500D03*
X0142911Y0089600D03*
X0142911Y0089700D03*
X0142911Y0089800D03*
X0142911Y0089900D03*
X0142911Y0090000D03*
X0142911Y0090100D03*
X0142911Y0090200D03*
X0142911Y0090300D03*
X0142911Y0090400D03*
X0142911Y0090500D03*
X0142911Y0090600D03*
X0142911Y0090700D03*
X0142911Y0090800D03*
X0142911Y0095600D03*
X0142911Y0095700D03*
X0142911Y0095800D03*
X0142911Y0095900D03*
X0142911Y0096000D03*
X0142911Y0096100D03*
X0142911Y0096200D03*
X0142911Y0096300D03*
X0142911Y0096400D03*
X0142911Y0096500D03*
X0142911Y0096600D03*
X0142911Y0096700D03*
D127*
X0142311Y0092000D03*
X0142311Y0091900D03*
X0142311Y0091800D03*
X0142311Y0091700D03*
X0142311Y0091600D03*
X0142311Y0091500D03*
X0142311Y0091400D03*
X0142311Y0091300D03*
X0142311Y0091200D03*
X0142311Y0091100D03*
X0142311Y0091000D03*
X0142311Y0090900D03*
X0142311Y0108500D03*
X0142311Y0108600D03*
X0142311Y0108700D03*
X0142311Y0108800D03*
X0142311Y0108900D03*
X0142311Y0109000D03*
X0142311Y0109100D03*
X0142311Y0109200D03*
X0142311Y0109300D03*
X0142311Y0109400D03*
X0142311Y0109500D03*
X0142311Y0109600D03*
D128*
X0141161Y0109700D03*
X0141161Y0109800D03*
X0141161Y0109900D03*
X0141161Y0110000D03*
X0141161Y0110100D03*
X0141161Y0110200D03*
X0141161Y0110300D03*
X0141161Y0110400D03*
X0141161Y0110500D03*
X0141161Y0110600D03*
X0141161Y0110700D03*
X0141161Y0110800D03*
X0141161Y0110900D03*
X0141161Y0111000D03*
X0141161Y0111100D03*
X0141161Y0111200D03*
X0141161Y0111300D03*
X0141161Y0111400D03*
X0141161Y0111500D03*
X0141161Y0111600D03*
X0141161Y0111700D03*
X0141161Y0111800D03*
X0141161Y0111900D03*
X0143461Y0095500D03*
X0143461Y0095400D03*
X0143461Y0095300D03*
X0143461Y0095200D03*
X0143461Y0095100D03*
X0143461Y0095000D03*
X0143461Y0094900D03*
X0143461Y0094800D03*
X0143461Y0094700D03*
X0143461Y0094600D03*
X0143461Y0094500D03*
X0143461Y0094400D03*
D129*
X0143461Y0096800D03*
X0143461Y0096900D03*
X0143461Y0097000D03*
X0143461Y0097100D03*
X0143461Y0097200D03*
X0143461Y0097300D03*
X0143461Y0097400D03*
X0143461Y0097500D03*
X0143461Y0097600D03*
X0143461Y0097700D03*
X0143461Y0097800D03*
X0144661Y0101500D03*
X0144661Y0101600D03*
X0144661Y0101700D03*
X0144661Y0101800D03*
X0144661Y0101900D03*
X0144661Y0102000D03*
X0144661Y0102100D03*
X0144661Y0102200D03*
X0144661Y0102300D03*
X0144661Y0102400D03*
X0144661Y0102500D03*
D130*
X0144061Y0099000D03*
X0144061Y0098900D03*
X0144061Y0098800D03*
X0144061Y0098700D03*
X0144061Y0098600D03*
X0144061Y0098500D03*
X0144061Y0098400D03*
X0144061Y0098300D03*
X0144061Y0098200D03*
X0144061Y0098100D03*
X0144061Y0098000D03*
X0144061Y0097900D03*
D131*
X0143511Y0101400D03*
D132*
X0259963Y0192470D03*
X0265763Y0192470D03*
D133*
X0262449Y0184602D03*
D134*
X0203174Y0215939D02*
X0201906Y0214671D01*
X0201906Y0214354D01*
X0200647Y0214671D02*
X0200647Y0216256D01*
X0200330Y0216256D02*
X0200964Y0216256D01*
X0201906Y0216256D02*
X0203174Y0216256D01*
X0203174Y0215939D01*
X0200647Y0214671D02*
X0200330Y0214354D01*
X0200013Y0214354D01*
X0199696Y0214671D01*
X0143460Y0203748D02*
X0143143Y0204065D01*
X0142509Y0204065D01*
X0142192Y0203748D01*
X0141250Y0204065D02*
X0140616Y0204065D01*
X0140933Y0204065D02*
X0140933Y0202480D01*
X0140616Y0202163D01*
X0140299Y0202163D01*
X0139982Y0202480D01*
X0142192Y0202163D02*
X0143460Y0203431D01*
X0143460Y0203748D01*
X0143460Y0202163D02*
X0142192Y0202163D01*
X0080468Y0227754D02*
X0079200Y0227754D01*
X0079834Y0227754D02*
X0079834Y0229656D01*
X0079200Y0229022D01*
X0078258Y0229656D02*
X0077624Y0229656D01*
X0077941Y0229656D02*
X0077941Y0228071D01*
X0077624Y0227754D01*
X0077307Y0227754D01*
X0076990Y0228071D01*
X0050615Y0182791D02*
X0049981Y0182474D01*
X0049347Y0181840D01*
X0050298Y0181840D01*
X0050615Y0181523D01*
X0050615Y0181206D01*
X0050298Y0180889D01*
X0049664Y0180889D01*
X0049347Y0181206D01*
X0049347Y0181840D01*
X0048405Y0182791D02*
X0047771Y0182791D01*
X0048088Y0182791D02*
X0048088Y0181206D01*
X0047771Y0180889D01*
X0047454Y0180889D01*
X0047137Y0181206D01*
X0047771Y0170980D02*
X0048405Y0170980D01*
X0048088Y0170980D02*
X0048088Y0169395D01*
X0047771Y0169078D01*
X0047454Y0169078D01*
X0047137Y0169395D01*
X0049347Y0169395D02*
X0049664Y0169078D01*
X0050298Y0169078D01*
X0050615Y0169395D01*
X0050615Y0170029D01*
X0050298Y0170346D01*
X0049981Y0170346D01*
X0049347Y0170029D01*
X0049347Y0170980D01*
X0050615Y0170980D01*
X0128171Y0147362D02*
X0128488Y0147045D01*
X0128805Y0147045D01*
X0129122Y0147362D01*
X0129122Y0148947D01*
X0128805Y0148947D02*
X0129439Y0148947D01*
X0130381Y0147996D02*
X0131649Y0147996D01*
X0131332Y0147045D02*
X0131332Y0148947D01*
X0130381Y0147996D01*
M02*
