G75*
%MOIN*%
%OFA0B0*%
%FSLAX25Y25*%
%IPPOS*%
%LPD*%
%AMOC8*
5,1,8,0,0,1.08239X$1,22.5*
%
%ADD10C,0.00000*%
%ADD11C,0.00039*%
%ADD12C,0.00400*%
%ADD13R,0.06000X0.06000*%
%ADD14R,0.03200X0.06600*%
%ADD15R,0.21654X0.03937*%
%ADD16R,0.13386X0.06299*%
%ADD17R,0.10000X0.10000*%
%ADD18R,0.09843X0.07874*%
%ADD19R,0.07874X0.09843*%
%ADD20R,0.09843X0.04724*%
%ADD21R,0.05118X0.05906*%
%ADD22R,0.04331X0.05512*%
%ADD23R,0.03937X0.03150*%
%ADD24R,0.02756X0.05906*%
%ADD25C,0.01000*%
D10*
X0017142Y0017142D02*
X0017142Y0201000D01*
X0017142Y0210449D01*
X0017142Y0466945D01*
X0290764Y0466945D01*
X0290764Y0083874D01*
X0215173Y0083874D01*
X0215173Y0017142D01*
X0017142Y0017142D01*
X0017142Y0201000D02*
X0017278Y0201002D01*
X0017414Y0201008D01*
X0017550Y0201018D01*
X0017685Y0201031D01*
X0017820Y0201049D01*
X0017955Y0201070D01*
X0018089Y0201096D01*
X0018222Y0201125D01*
X0018354Y0201158D01*
X0018485Y0201195D01*
X0018615Y0201235D01*
X0018743Y0201280D01*
X0018871Y0201328D01*
X0018997Y0201379D01*
X0019121Y0201435D01*
X0019244Y0201493D01*
X0019365Y0201556D01*
X0019484Y0201622D01*
X0019602Y0201691D01*
X0019717Y0201763D01*
X0019830Y0201839D01*
X0019941Y0201918D01*
X0020049Y0202001D01*
X0020155Y0202086D01*
X0020259Y0202174D01*
X0020360Y0202265D01*
X0020458Y0202360D01*
X0020554Y0202457D01*
X0020647Y0202556D01*
X0020736Y0202659D01*
X0020823Y0202763D01*
X0020907Y0202871D01*
X0020988Y0202980D01*
X0021065Y0203092D01*
X0021139Y0203207D01*
X0021210Y0203323D01*
X0021278Y0203441D01*
X0021342Y0203561D01*
X0021402Y0203683D01*
X0021459Y0203807D01*
X0021513Y0203932D01*
X0021563Y0204059D01*
X0021609Y0204187D01*
X0021651Y0204316D01*
X0021690Y0204447D01*
X0021725Y0204578D01*
X0021756Y0204711D01*
X0021783Y0204844D01*
X0021807Y0204978D01*
X0021826Y0205113D01*
X0021842Y0205248D01*
X0021854Y0205384D01*
X0021862Y0205520D01*
X0021866Y0205656D01*
X0021866Y0205792D01*
X0021862Y0205928D01*
X0021854Y0206064D01*
X0021842Y0206200D01*
X0021826Y0206335D01*
X0021807Y0206470D01*
X0021783Y0206604D01*
X0021756Y0206737D01*
X0021725Y0206870D01*
X0021690Y0207001D01*
X0021651Y0207132D01*
X0021609Y0207261D01*
X0021563Y0207389D01*
X0021513Y0207516D01*
X0021459Y0207641D01*
X0021402Y0207765D01*
X0021342Y0207887D01*
X0021278Y0208007D01*
X0021210Y0208125D01*
X0021139Y0208241D01*
X0021065Y0208356D01*
X0020988Y0208468D01*
X0020907Y0208577D01*
X0020823Y0208685D01*
X0020736Y0208789D01*
X0020647Y0208892D01*
X0020554Y0208991D01*
X0020458Y0209088D01*
X0020360Y0209183D01*
X0020259Y0209274D01*
X0020155Y0209362D01*
X0020049Y0209447D01*
X0019941Y0209530D01*
X0019830Y0209609D01*
X0019717Y0209685D01*
X0019602Y0209757D01*
X0019484Y0209826D01*
X0019365Y0209892D01*
X0019244Y0209955D01*
X0019121Y0210013D01*
X0018997Y0210069D01*
X0018871Y0210120D01*
X0018743Y0210168D01*
X0018615Y0210213D01*
X0018485Y0210253D01*
X0018354Y0210290D01*
X0018222Y0210323D01*
X0018089Y0210352D01*
X0017955Y0210378D01*
X0017820Y0210399D01*
X0017685Y0210417D01*
X0017550Y0210430D01*
X0017414Y0210440D01*
X0017278Y0210446D01*
X0017142Y0210448D01*
X0053165Y0456118D02*
X0053167Y0456202D01*
X0053173Y0456285D01*
X0053183Y0456368D01*
X0053197Y0456451D01*
X0053214Y0456533D01*
X0053236Y0456614D01*
X0053261Y0456693D01*
X0053290Y0456772D01*
X0053323Y0456849D01*
X0053359Y0456924D01*
X0053399Y0456998D01*
X0053442Y0457070D01*
X0053489Y0457139D01*
X0053539Y0457206D01*
X0053592Y0457271D01*
X0053648Y0457333D01*
X0053706Y0457393D01*
X0053768Y0457450D01*
X0053832Y0457503D01*
X0053899Y0457554D01*
X0053968Y0457601D01*
X0054039Y0457646D01*
X0054112Y0457686D01*
X0054187Y0457723D01*
X0054264Y0457757D01*
X0054342Y0457787D01*
X0054421Y0457813D01*
X0054502Y0457836D01*
X0054584Y0457854D01*
X0054666Y0457869D01*
X0054749Y0457880D01*
X0054832Y0457887D01*
X0054916Y0457890D01*
X0055000Y0457889D01*
X0055083Y0457884D01*
X0055167Y0457875D01*
X0055249Y0457862D01*
X0055331Y0457846D01*
X0055412Y0457825D01*
X0055493Y0457801D01*
X0055571Y0457773D01*
X0055649Y0457741D01*
X0055725Y0457705D01*
X0055799Y0457666D01*
X0055871Y0457624D01*
X0055941Y0457578D01*
X0056009Y0457529D01*
X0056074Y0457477D01*
X0056137Y0457422D01*
X0056197Y0457364D01*
X0056255Y0457303D01*
X0056309Y0457239D01*
X0056361Y0457173D01*
X0056409Y0457105D01*
X0056454Y0457034D01*
X0056495Y0456961D01*
X0056534Y0456887D01*
X0056568Y0456811D01*
X0056599Y0456733D01*
X0056626Y0456654D01*
X0056650Y0456573D01*
X0056669Y0456492D01*
X0056685Y0456410D01*
X0056697Y0456327D01*
X0056705Y0456243D01*
X0056709Y0456160D01*
X0056709Y0456076D01*
X0056705Y0455993D01*
X0056697Y0455909D01*
X0056685Y0455826D01*
X0056669Y0455744D01*
X0056650Y0455663D01*
X0056626Y0455582D01*
X0056599Y0455503D01*
X0056568Y0455425D01*
X0056534Y0455349D01*
X0056495Y0455275D01*
X0056454Y0455202D01*
X0056409Y0455131D01*
X0056361Y0455063D01*
X0056309Y0454997D01*
X0056255Y0454933D01*
X0056197Y0454872D01*
X0056137Y0454814D01*
X0056074Y0454759D01*
X0056009Y0454707D01*
X0055941Y0454658D01*
X0055871Y0454612D01*
X0055799Y0454570D01*
X0055725Y0454531D01*
X0055649Y0454495D01*
X0055571Y0454463D01*
X0055493Y0454435D01*
X0055412Y0454411D01*
X0055331Y0454390D01*
X0055249Y0454374D01*
X0055167Y0454361D01*
X0055083Y0454352D01*
X0055000Y0454347D01*
X0054916Y0454346D01*
X0054832Y0454349D01*
X0054749Y0454356D01*
X0054666Y0454367D01*
X0054584Y0454382D01*
X0054502Y0454400D01*
X0054421Y0454423D01*
X0054342Y0454449D01*
X0054264Y0454479D01*
X0054187Y0454513D01*
X0054112Y0454550D01*
X0054039Y0454590D01*
X0053968Y0454635D01*
X0053899Y0454682D01*
X0053832Y0454733D01*
X0053768Y0454786D01*
X0053706Y0454843D01*
X0053648Y0454903D01*
X0053592Y0454965D01*
X0053539Y0455030D01*
X0053489Y0455097D01*
X0053442Y0455166D01*
X0053399Y0455238D01*
X0053359Y0455312D01*
X0053323Y0455387D01*
X0053290Y0455464D01*
X0053261Y0455543D01*
X0053236Y0455622D01*
X0053214Y0455703D01*
X0053197Y0455785D01*
X0053183Y0455868D01*
X0053173Y0455951D01*
X0053167Y0456034D01*
X0053165Y0456118D01*
X0064976Y0456118D02*
X0064978Y0456202D01*
X0064984Y0456285D01*
X0064994Y0456368D01*
X0065008Y0456451D01*
X0065025Y0456533D01*
X0065047Y0456614D01*
X0065072Y0456693D01*
X0065101Y0456772D01*
X0065134Y0456849D01*
X0065170Y0456924D01*
X0065210Y0456998D01*
X0065253Y0457070D01*
X0065300Y0457139D01*
X0065350Y0457206D01*
X0065403Y0457271D01*
X0065459Y0457333D01*
X0065517Y0457393D01*
X0065579Y0457450D01*
X0065643Y0457503D01*
X0065710Y0457554D01*
X0065779Y0457601D01*
X0065850Y0457646D01*
X0065923Y0457686D01*
X0065998Y0457723D01*
X0066075Y0457757D01*
X0066153Y0457787D01*
X0066232Y0457813D01*
X0066313Y0457836D01*
X0066395Y0457854D01*
X0066477Y0457869D01*
X0066560Y0457880D01*
X0066643Y0457887D01*
X0066727Y0457890D01*
X0066811Y0457889D01*
X0066894Y0457884D01*
X0066978Y0457875D01*
X0067060Y0457862D01*
X0067142Y0457846D01*
X0067223Y0457825D01*
X0067304Y0457801D01*
X0067382Y0457773D01*
X0067460Y0457741D01*
X0067536Y0457705D01*
X0067610Y0457666D01*
X0067682Y0457624D01*
X0067752Y0457578D01*
X0067820Y0457529D01*
X0067885Y0457477D01*
X0067948Y0457422D01*
X0068008Y0457364D01*
X0068066Y0457303D01*
X0068120Y0457239D01*
X0068172Y0457173D01*
X0068220Y0457105D01*
X0068265Y0457034D01*
X0068306Y0456961D01*
X0068345Y0456887D01*
X0068379Y0456811D01*
X0068410Y0456733D01*
X0068437Y0456654D01*
X0068461Y0456573D01*
X0068480Y0456492D01*
X0068496Y0456410D01*
X0068508Y0456327D01*
X0068516Y0456243D01*
X0068520Y0456160D01*
X0068520Y0456076D01*
X0068516Y0455993D01*
X0068508Y0455909D01*
X0068496Y0455826D01*
X0068480Y0455744D01*
X0068461Y0455663D01*
X0068437Y0455582D01*
X0068410Y0455503D01*
X0068379Y0455425D01*
X0068345Y0455349D01*
X0068306Y0455275D01*
X0068265Y0455202D01*
X0068220Y0455131D01*
X0068172Y0455063D01*
X0068120Y0454997D01*
X0068066Y0454933D01*
X0068008Y0454872D01*
X0067948Y0454814D01*
X0067885Y0454759D01*
X0067820Y0454707D01*
X0067752Y0454658D01*
X0067682Y0454612D01*
X0067610Y0454570D01*
X0067536Y0454531D01*
X0067460Y0454495D01*
X0067382Y0454463D01*
X0067304Y0454435D01*
X0067223Y0454411D01*
X0067142Y0454390D01*
X0067060Y0454374D01*
X0066978Y0454361D01*
X0066894Y0454352D01*
X0066811Y0454347D01*
X0066727Y0454346D01*
X0066643Y0454349D01*
X0066560Y0454356D01*
X0066477Y0454367D01*
X0066395Y0454382D01*
X0066313Y0454400D01*
X0066232Y0454423D01*
X0066153Y0454449D01*
X0066075Y0454479D01*
X0065998Y0454513D01*
X0065923Y0454550D01*
X0065850Y0454590D01*
X0065779Y0454635D01*
X0065710Y0454682D01*
X0065643Y0454733D01*
X0065579Y0454786D01*
X0065517Y0454843D01*
X0065459Y0454903D01*
X0065403Y0454965D01*
X0065350Y0455030D01*
X0065300Y0455097D01*
X0065253Y0455166D01*
X0065210Y0455238D01*
X0065170Y0455312D01*
X0065134Y0455387D01*
X0065101Y0455464D01*
X0065072Y0455543D01*
X0065047Y0455622D01*
X0065025Y0455703D01*
X0065008Y0455785D01*
X0064994Y0455868D01*
X0064984Y0455951D01*
X0064978Y0456034D01*
X0064976Y0456118D01*
X0167142Y0062417D02*
X0167144Y0062542D01*
X0167150Y0062667D01*
X0167160Y0062791D01*
X0167174Y0062915D01*
X0167191Y0063039D01*
X0167213Y0063162D01*
X0167239Y0063284D01*
X0167268Y0063406D01*
X0167301Y0063526D01*
X0167339Y0063645D01*
X0167379Y0063764D01*
X0167424Y0063880D01*
X0167472Y0063995D01*
X0167524Y0064109D01*
X0167580Y0064221D01*
X0167639Y0064331D01*
X0167701Y0064439D01*
X0167767Y0064546D01*
X0167836Y0064650D01*
X0167909Y0064751D01*
X0167984Y0064851D01*
X0168063Y0064948D01*
X0168145Y0065042D01*
X0168230Y0065134D01*
X0168317Y0065223D01*
X0168408Y0065309D01*
X0168501Y0065392D01*
X0168597Y0065473D01*
X0168695Y0065550D01*
X0168795Y0065624D01*
X0168898Y0065695D01*
X0169003Y0065762D01*
X0169111Y0065827D01*
X0169220Y0065887D01*
X0169331Y0065945D01*
X0169444Y0065998D01*
X0169558Y0066048D01*
X0169674Y0066095D01*
X0169791Y0066137D01*
X0169910Y0066176D01*
X0170030Y0066212D01*
X0170151Y0066243D01*
X0170273Y0066271D01*
X0170395Y0066294D01*
X0170519Y0066314D01*
X0170643Y0066330D01*
X0170767Y0066342D01*
X0170892Y0066350D01*
X0171017Y0066354D01*
X0171141Y0066354D01*
X0171266Y0066350D01*
X0171391Y0066342D01*
X0171515Y0066330D01*
X0171639Y0066314D01*
X0171763Y0066294D01*
X0171885Y0066271D01*
X0172007Y0066243D01*
X0172128Y0066212D01*
X0172248Y0066176D01*
X0172367Y0066137D01*
X0172484Y0066095D01*
X0172600Y0066048D01*
X0172714Y0065998D01*
X0172827Y0065945D01*
X0172938Y0065887D01*
X0173048Y0065827D01*
X0173155Y0065762D01*
X0173260Y0065695D01*
X0173363Y0065624D01*
X0173463Y0065550D01*
X0173561Y0065473D01*
X0173657Y0065392D01*
X0173750Y0065309D01*
X0173841Y0065223D01*
X0173928Y0065134D01*
X0174013Y0065042D01*
X0174095Y0064948D01*
X0174174Y0064851D01*
X0174249Y0064751D01*
X0174322Y0064650D01*
X0174391Y0064546D01*
X0174457Y0064439D01*
X0174519Y0064331D01*
X0174578Y0064221D01*
X0174634Y0064109D01*
X0174686Y0063995D01*
X0174734Y0063880D01*
X0174779Y0063764D01*
X0174819Y0063645D01*
X0174857Y0063526D01*
X0174890Y0063406D01*
X0174919Y0063284D01*
X0174945Y0063162D01*
X0174967Y0063039D01*
X0174984Y0062915D01*
X0174998Y0062791D01*
X0175008Y0062667D01*
X0175014Y0062542D01*
X0175016Y0062417D01*
X0175014Y0062292D01*
X0175008Y0062167D01*
X0174998Y0062043D01*
X0174984Y0061919D01*
X0174967Y0061795D01*
X0174945Y0061672D01*
X0174919Y0061550D01*
X0174890Y0061428D01*
X0174857Y0061308D01*
X0174819Y0061189D01*
X0174779Y0061070D01*
X0174734Y0060954D01*
X0174686Y0060839D01*
X0174634Y0060725D01*
X0174578Y0060613D01*
X0174519Y0060503D01*
X0174457Y0060395D01*
X0174391Y0060288D01*
X0174322Y0060184D01*
X0174249Y0060083D01*
X0174174Y0059983D01*
X0174095Y0059886D01*
X0174013Y0059792D01*
X0173928Y0059700D01*
X0173841Y0059611D01*
X0173750Y0059525D01*
X0173657Y0059442D01*
X0173561Y0059361D01*
X0173463Y0059284D01*
X0173363Y0059210D01*
X0173260Y0059139D01*
X0173155Y0059072D01*
X0173047Y0059007D01*
X0172938Y0058947D01*
X0172827Y0058889D01*
X0172714Y0058836D01*
X0172600Y0058786D01*
X0172484Y0058739D01*
X0172367Y0058697D01*
X0172248Y0058658D01*
X0172128Y0058622D01*
X0172007Y0058591D01*
X0171885Y0058563D01*
X0171763Y0058540D01*
X0171639Y0058520D01*
X0171515Y0058504D01*
X0171391Y0058492D01*
X0171266Y0058484D01*
X0171141Y0058480D01*
X0171017Y0058480D01*
X0170892Y0058484D01*
X0170767Y0058492D01*
X0170643Y0058504D01*
X0170519Y0058520D01*
X0170395Y0058540D01*
X0170273Y0058563D01*
X0170151Y0058591D01*
X0170030Y0058622D01*
X0169910Y0058658D01*
X0169791Y0058697D01*
X0169674Y0058739D01*
X0169558Y0058786D01*
X0169444Y0058836D01*
X0169331Y0058889D01*
X0169220Y0058947D01*
X0169110Y0059007D01*
X0169003Y0059072D01*
X0168898Y0059139D01*
X0168795Y0059210D01*
X0168695Y0059284D01*
X0168597Y0059361D01*
X0168501Y0059442D01*
X0168408Y0059525D01*
X0168317Y0059611D01*
X0168230Y0059700D01*
X0168145Y0059792D01*
X0168063Y0059886D01*
X0167984Y0059983D01*
X0167909Y0060083D01*
X0167836Y0060184D01*
X0167767Y0060288D01*
X0167701Y0060395D01*
X0167639Y0060503D01*
X0167580Y0060613D01*
X0167524Y0060725D01*
X0167472Y0060839D01*
X0167424Y0060954D01*
X0167379Y0061070D01*
X0167339Y0061189D01*
X0167301Y0061308D01*
X0167268Y0061428D01*
X0167239Y0061550D01*
X0167213Y0061672D01*
X0167191Y0061795D01*
X0167174Y0061919D01*
X0167160Y0062043D01*
X0167150Y0062167D01*
X0167144Y0062292D01*
X0167142Y0062417D01*
X0167142Y0034858D02*
X0167144Y0034983D01*
X0167150Y0035108D01*
X0167160Y0035232D01*
X0167174Y0035356D01*
X0167191Y0035480D01*
X0167213Y0035603D01*
X0167239Y0035725D01*
X0167268Y0035847D01*
X0167301Y0035967D01*
X0167339Y0036086D01*
X0167379Y0036205D01*
X0167424Y0036321D01*
X0167472Y0036436D01*
X0167524Y0036550D01*
X0167580Y0036662D01*
X0167639Y0036772D01*
X0167701Y0036880D01*
X0167767Y0036987D01*
X0167836Y0037091D01*
X0167909Y0037192D01*
X0167984Y0037292D01*
X0168063Y0037389D01*
X0168145Y0037483D01*
X0168230Y0037575D01*
X0168317Y0037664D01*
X0168408Y0037750D01*
X0168501Y0037833D01*
X0168597Y0037914D01*
X0168695Y0037991D01*
X0168795Y0038065D01*
X0168898Y0038136D01*
X0169003Y0038203D01*
X0169111Y0038268D01*
X0169220Y0038328D01*
X0169331Y0038386D01*
X0169444Y0038439D01*
X0169558Y0038489D01*
X0169674Y0038536D01*
X0169791Y0038578D01*
X0169910Y0038617D01*
X0170030Y0038653D01*
X0170151Y0038684D01*
X0170273Y0038712D01*
X0170395Y0038735D01*
X0170519Y0038755D01*
X0170643Y0038771D01*
X0170767Y0038783D01*
X0170892Y0038791D01*
X0171017Y0038795D01*
X0171141Y0038795D01*
X0171266Y0038791D01*
X0171391Y0038783D01*
X0171515Y0038771D01*
X0171639Y0038755D01*
X0171763Y0038735D01*
X0171885Y0038712D01*
X0172007Y0038684D01*
X0172128Y0038653D01*
X0172248Y0038617D01*
X0172367Y0038578D01*
X0172484Y0038536D01*
X0172600Y0038489D01*
X0172714Y0038439D01*
X0172827Y0038386D01*
X0172938Y0038328D01*
X0173048Y0038268D01*
X0173155Y0038203D01*
X0173260Y0038136D01*
X0173363Y0038065D01*
X0173463Y0037991D01*
X0173561Y0037914D01*
X0173657Y0037833D01*
X0173750Y0037750D01*
X0173841Y0037664D01*
X0173928Y0037575D01*
X0174013Y0037483D01*
X0174095Y0037389D01*
X0174174Y0037292D01*
X0174249Y0037192D01*
X0174322Y0037091D01*
X0174391Y0036987D01*
X0174457Y0036880D01*
X0174519Y0036772D01*
X0174578Y0036662D01*
X0174634Y0036550D01*
X0174686Y0036436D01*
X0174734Y0036321D01*
X0174779Y0036205D01*
X0174819Y0036086D01*
X0174857Y0035967D01*
X0174890Y0035847D01*
X0174919Y0035725D01*
X0174945Y0035603D01*
X0174967Y0035480D01*
X0174984Y0035356D01*
X0174998Y0035232D01*
X0175008Y0035108D01*
X0175014Y0034983D01*
X0175016Y0034858D01*
X0175014Y0034733D01*
X0175008Y0034608D01*
X0174998Y0034484D01*
X0174984Y0034360D01*
X0174967Y0034236D01*
X0174945Y0034113D01*
X0174919Y0033991D01*
X0174890Y0033869D01*
X0174857Y0033749D01*
X0174819Y0033630D01*
X0174779Y0033511D01*
X0174734Y0033395D01*
X0174686Y0033280D01*
X0174634Y0033166D01*
X0174578Y0033054D01*
X0174519Y0032944D01*
X0174457Y0032836D01*
X0174391Y0032729D01*
X0174322Y0032625D01*
X0174249Y0032524D01*
X0174174Y0032424D01*
X0174095Y0032327D01*
X0174013Y0032233D01*
X0173928Y0032141D01*
X0173841Y0032052D01*
X0173750Y0031966D01*
X0173657Y0031883D01*
X0173561Y0031802D01*
X0173463Y0031725D01*
X0173363Y0031651D01*
X0173260Y0031580D01*
X0173155Y0031513D01*
X0173047Y0031448D01*
X0172938Y0031388D01*
X0172827Y0031330D01*
X0172714Y0031277D01*
X0172600Y0031227D01*
X0172484Y0031180D01*
X0172367Y0031138D01*
X0172248Y0031099D01*
X0172128Y0031063D01*
X0172007Y0031032D01*
X0171885Y0031004D01*
X0171763Y0030981D01*
X0171639Y0030961D01*
X0171515Y0030945D01*
X0171391Y0030933D01*
X0171266Y0030925D01*
X0171141Y0030921D01*
X0171017Y0030921D01*
X0170892Y0030925D01*
X0170767Y0030933D01*
X0170643Y0030945D01*
X0170519Y0030961D01*
X0170395Y0030981D01*
X0170273Y0031004D01*
X0170151Y0031032D01*
X0170030Y0031063D01*
X0169910Y0031099D01*
X0169791Y0031138D01*
X0169674Y0031180D01*
X0169558Y0031227D01*
X0169444Y0031277D01*
X0169331Y0031330D01*
X0169220Y0031388D01*
X0169110Y0031448D01*
X0169003Y0031513D01*
X0168898Y0031580D01*
X0168795Y0031651D01*
X0168695Y0031725D01*
X0168597Y0031802D01*
X0168501Y0031883D01*
X0168408Y0031966D01*
X0168317Y0032052D01*
X0168230Y0032141D01*
X0168145Y0032233D01*
X0168063Y0032327D01*
X0167984Y0032424D01*
X0167909Y0032524D01*
X0167836Y0032625D01*
X0167767Y0032729D01*
X0167701Y0032836D01*
X0167639Y0032944D01*
X0167580Y0033054D01*
X0167524Y0033166D01*
X0167472Y0033280D01*
X0167424Y0033395D01*
X0167379Y0033511D01*
X0167339Y0033630D01*
X0167301Y0033749D01*
X0167268Y0033869D01*
X0167239Y0033991D01*
X0167213Y0034113D01*
X0167191Y0034236D01*
X0167174Y0034360D01*
X0167160Y0034484D01*
X0167150Y0034608D01*
X0167144Y0034733D01*
X0167142Y0034858D01*
D11*
X0188008Y0105331D02*
X0188010Y0105468D01*
X0188016Y0105606D01*
X0188026Y0105743D01*
X0188040Y0105879D01*
X0188058Y0106016D01*
X0188080Y0106151D01*
X0188106Y0106286D01*
X0188135Y0106420D01*
X0188169Y0106554D01*
X0188206Y0106686D01*
X0188248Y0106817D01*
X0188293Y0106947D01*
X0188342Y0107075D01*
X0188394Y0107202D01*
X0188451Y0107327D01*
X0188510Y0107451D01*
X0188574Y0107573D01*
X0188641Y0107693D01*
X0188711Y0107811D01*
X0188785Y0107927D01*
X0188862Y0108041D01*
X0188943Y0108152D01*
X0189026Y0108261D01*
X0189113Y0108368D01*
X0189203Y0108471D01*
X0189296Y0108573D01*
X0189392Y0108671D01*
X0189490Y0108767D01*
X0189592Y0108860D01*
X0189695Y0108950D01*
X0189802Y0109037D01*
X0189911Y0109120D01*
X0190022Y0109201D01*
X0190136Y0109278D01*
X0190252Y0109352D01*
X0190370Y0109422D01*
X0190490Y0109489D01*
X0190612Y0109553D01*
X0190736Y0109612D01*
X0190861Y0109669D01*
X0190988Y0109721D01*
X0191116Y0109770D01*
X0191246Y0109815D01*
X0191377Y0109857D01*
X0191509Y0109894D01*
X0191643Y0109928D01*
X0191777Y0109957D01*
X0191912Y0109983D01*
X0192047Y0110005D01*
X0192184Y0110023D01*
X0192320Y0110037D01*
X0192457Y0110047D01*
X0192595Y0110053D01*
X0192732Y0110055D01*
X0192869Y0110053D01*
X0193007Y0110047D01*
X0193144Y0110037D01*
X0193280Y0110023D01*
X0193417Y0110005D01*
X0193552Y0109983D01*
X0193687Y0109957D01*
X0193821Y0109928D01*
X0193955Y0109894D01*
X0194087Y0109857D01*
X0194218Y0109815D01*
X0194348Y0109770D01*
X0194476Y0109721D01*
X0194603Y0109669D01*
X0194728Y0109612D01*
X0194852Y0109553D01*
X0194974Y0109489D01*
X0195094Y0109422D01*
X0195212Y0109352D01*
X0195328Y0109278D01*
X0195442Y0109201D01*
X0195553Y0109120D01*
X0195662Y0109037D01*
X0195769Y0108950D01*
X0195872Y0108860D01*
X0195974Y0108767D01*
X0196072Y0108671D01*
X0196168Y0108573D01*
X0196261Y0108471D01*
X0196351Y0108368D01*
X0196438Y0108261D01*
X0196521Y0108152D01*
X0196602Y0108041D01*
X0196679Y0107927D01*
X0196753Y0107811D01*
X0196823Y0107693D01*
X0196890Y0107573D01*
X0196954Y0107451D01*
X0197013Y0107327D01*
X0197070Y0107202D01*
X0197122Y0107075D01*
X0197171Y0106947D01*
X0197216Y0106817D01*
X0197258Y0106686D01*
X0197295Y0106554D01*
X0197329Y0106420D01*
X0197358Y0106286D01*
X0197384Y0106151D01*
X0197406Y0106016D01*
X0197424Y0105879D01*
X0197438Y0105743D01*
X0197448Y0105606D01*
X0197454Y0105468D01*
X0197456Y0105331D01*
X0197454Y0105194D01*
X0197448Y0105056D01*
X0197438Y0104919D01*
X0197424Y0104783D01*
X0197406Y0104646D01*
X0197384Y0104511D01*
X0197358Y0104376D01*
X0197329Y0104242D01*
X0197295Y0104108D01*
X0197258Y0103976D01*
X0197216Y0103845D01*
X0197171Y0103715D01*
X0197122Y0103587D01*
X0197070Y0103460D01*
X0197013Y0103335D01*
X0196954Y0103211D01*
X0196890Y0103089D01*
X0196823Y0102969D01*
X0196753Y0102851D01*
X0196679Y0102735D01*
X0196602Y0102621D01*
X0196521Y0102510D01*
X0196438Y0102401D01*
X0196351Y0102294D01*
X0196261Y0102191D01*
X0196168Y0102089D01*
X0196072Y0101991D01*
X0195974Y0101895D01*
X0195872Y0101802D01*
X0195769Y0101712D01*
X0195662Y0101625D01*
X0195553Y0101542D01*
X0195442Y0101461D01*
X0195328Y0101384D01*
X0195212Y0101310D01*
X0195094Y0101240D01*
X0194974Y0101173D01*
X0194852Y0101109D01*
X0194728Y0101050D01*
X0194603Y0100993D01*
X0194476Y0100941D01*
X0194348Y0100892D01*
X0194218Y0100847D01*
X0194087Y0100805D01*
X0193955Y0100768D01*
X0193821Y0100734D01*
X0193687Y0100705D01*
X0193552Y0100679D01*
X0193417Y0100657D01*
X0193280Y0100639D01*
X0193144Y0100625D01*
X0193007Y0100615D01*
X0192869Y0100609D01*
X0192732Y0100607D01*
X0192595Y0100609D01*
X0192457Y0100615D01*
X0192320Y0100625D01*
X0192184Y0100639D01*
X0192047Y0100657D01*
X0191912Y0100679D01*
X0191777Y0100705D01*
X0191643Y0100734D01*
X0191509Y0100768D01*
X0191377Y0100805D01*
X0191246Y0100847D01*
X0191116Y0100892D01*
X0190988Y0100941D01*
X0190861Y0100993D01*
X0190736Y0101050D01*
X0190612Y0101109D01*
X0190490Y0101173D01*
X0190370Y0101240D01*
X0190252Y0101310D01*
X0190136Y0101384D01*
X0190022Y0101461D01*
X0189911Y0101542D01*
X0189802Y0101625D01*
X0189695Y0101712D01*
X0189592Y0101802D01*
X0189490Y0101895D01*
X0189392Y0101991D01*
X0189296Y0102089D01*
X0189203Y0102191D01*
X0189113Y0102294D01*
X0189026Y0102401D01*
X0188943Y0102510D01*
X0188862Y0102621D01*
X0188785Y0102735D01*
X0188711Y0102851D01*
X0188641Y0102969D01*
X0188574Y0103089D01*
X0188510Y0103211D01*
X0188451Y0103335D01*
X0188394Y0103460D01*
X0188342Y0103587D01*
X0188293Y0103715D01*
X0188248Y0103845D01*
X0188206Y0103976D01*
X0188169Y0104108D01*
X0188135Y0104242D01*
X0188106Y0104376D01*
X0188080Y0104511D01*
X0188058Y0104646D01*
X0188040Y0104783D01*
X0188026Y0104919D01*
X0188016Y0105056D01*
X0188010Y0105194D01*
X0188008Y0105331D01*
X0223441Y0178953D02*
X0223443Y0179090D01*
X0223449Y0179228D01*
X0223459Y0179365D01*
X0223473Y0179501D01*
X0223491Y0179638D01*
X0223513Y0179773D01*
X0223539Y0179908D01*
X0223568Y0180042D01*
X0223602Y0180176D01*
X0223639Y0180308D01*
X0223681Y0180439D01*
X0223726Y0180569D01*
X0223775Y0180697D01*
X0223827Y0180824D01*
X0223884Y0180949D01*
X0223943Y0181073D01*
X0224007Y0181195D01*
X0224074Y0181315D01*
X0224144Y0181433D01*
X0224218Y0181549D01*
X0224295Y0181663D01*
X0224376Y0181774D01*
X0224459Y0181883D01*
X0224546Y0181990D01*
X0224636Y0182093D01*
X0224729Y0182195D01*
X0224825Y0182293D01*
X0224923Y0182389D01*
X0225025Y0182482D01*
X0225128Y0182572D01*
X0225235Y0182659D01*
X0225344Y0182742D01*
X0225455Y0182823D01*
X0225569Y0182900D01*
X0225685Y0182974D01*
X0225803Y0183044D01*
X0225923Y0183111D01*
X0226045Y0183175D01*
X0226169Y0183234D01*
X0226294Y0183291D01*
X0226421Y0183343D01*
X0226549Y0183392D01*
X0226679Y0183437D01*
X0226810Y0183479D01*
X0226942Y0183516D01*
X0227076Y0183550D01*
X0227210Y0183579D01*
X0227345Y0183605D01*
X0227480Y0183627D01*
X0227617Y0183645D01*
X0227753Y0183659D01*
X0227890Y0183669D01*
X0228028Y0183675D01*
X0228165Y0183677D01*
X0228302Y0183675D01*
X0228440Y0183669D01*
X0228577Y0183659D01*
X0228713Y0183645D01*
X0228850Y0183627D01*
X0228985Y0183605D01*
X0229120Y0183579D01*
X0229254Y0183550D01*
X0229388Y0183516D01*
X0229520Y0183479D01*
X0229651Y0183437D01*
X0229781Y0183392D01*
X0229909Y0183343D01*
X0230036Y0183291D01*
X0230161Y0183234D01*
X0230285Y0183175D01*
X0230407Y0183111D01*
X0230527Y0183044D01*
X0230645Y0182974D01*
X0230761Y0182900D01*
X0230875Y0182823D01*
X0230986Y0182742D01*
X0231095Y0182659D01*
X0231202Y0182572D01*
X0231305Y0182482D01*
X0231407Y0182389D01*
X0231505Y0182293D01*
X0231601Y0182195D01*
X0231694Y0182093D01*
X0231784Y0181990D01*
X0231871Y0181883D01*
X0231954Y0181774D01*
X0232035Y0181663D01*
X0232112Y0181549D01*
X0232186Y0181433D01*
X0232256Y0181315D01*
X0232323Y0181195D01*
X0232387Y0181073D01*
X0232446Y0180949D01*
X0232503Y0180824D01*
X0232555Y0180697D01*
X0232604Y0180569D01*
X0232649Y0180439D01*
X0232691Y0180308D01*
X0232728Y0180176D01*
X0232762Y0180042D01*
X0232791Y0179908D01*
X0232817Y0179773D01*
X0232839Y0179638D01*
X0232857Y0179501D01*
X0232871Y0179365D01*
X0232881Y0179228D01*
X0232887Y0179090D01*
X0232889Y0178953D01*
X0232887Y0178816D01*
X0232881Y0178678D01*
X0232871Y0178541D01*
X0232857Y0178405D01*
X0232839Y0178268D01*
X0232817Y0178133D01*
X0232791Y0177998D01*
X0232762Y0177864D01*
X0232728Y0177730D01*
X0232691Y0177598D01*
X0232649Y0177467D01*
X0232604Y0177337D01*
X0232555Y0177209D01*
X0232503Y0177082D01*
X0232446Y0176957D01*
X0232387Y0176833D01*
X0232323Y0176711D01*
X0232256Y0176591D01*
X0232186Y0176473D01*
X0232112Y0176357D01*
X0232035Y0176243D01*
X0231954Y0176132D01*
X0231871Y0176023D01*
X0231784Y0175916D01*
X0231694Y0175813D01*
X0231601Y0175711D01*
X0231505Y0175613D01*
X0231407Y0175517D01*
X0231305Y0175424D01*
X0231202Y0175334D01*
X0231095Y0175247D01*
X0230986Y0175164D01*
X0230875Y0175083D01*
X0230761Y0175006D01*
X0230645Y0174932D01*
X0230527Y0174862D01*
X0230407Y0174795D01*
X0230285Y0174731D01*
X0230161Y0174672D01*
X0230036Y0174615D01*
X0229909Y0174563D01*
X0229781Y0174514D01*
X0229651Y0174469D01*
X0229520Y0174427D01*
X0229388Y0174390D01*
X0229254Y0174356D01*
X0229120Y0174327D01*
X0228985Y0174301D01*
X0228850Y0174279D01*
X0228713Y0174261D01*
X0228577Y0174247D01*
X0228440Y0174237D01*
X0228302Y0174231D01*
X0228165Y0174229D01*
X0228028Y0174231D01*
X0227890Y0174237D01*
X0227753Y0174247D01*
X0227617Y0174261D01*
X0227480Y0174279D01*
X0227345Y0174301D01*
X0227210Y0174327D01*
X0227076Y0174356D01*
X0226942Y0174390D01*
X0226810Y0174427D01*
X0226679Y0174469D01*
X0226549Y0174514D01*
X0226421Y0174563D01*
X0226294Y0174615D01*
X0226169Y0174672D01*
X0226045Y0174731D01*
X0225923Y0174795D01*
X0225803Y0174862D01*
X0225685Y0174932D01*
X0225569Y0175006D01*
X0225455Y0175083D01*
X0225344Y0175164D01*
X0225235Y0175247D01*
X0225128Y0175334D01*
X0225025Y0175424D01*
X0224923Y0175517D01*
X0224825Y0175613D01*
X0224729Y0175711D01*
X0224636Y0175813D01*
X0224546Y0175916D01*
X0224459Y0176023D01*
X0224376Y0176132D01*
X0224295Y0176243D01*
X0224218Y0176357D01*
X0224144Y0176473D01*
X0224074Y0176591D01*
X0224007Y0176711D01*
X0223943Y0176833D01*
X0223884Y0176957D01*
X0223827Y0177082D01*
X0223775Y0177209D01*
X0223726Y0177337D01*
X0223681Y0177467D01*
X0223639Y0177598D01*
X0223602Y0177730D01*
X0223568Y0177864D01*
X0223539Y0177998D01*
X0223513Y0178133D01*
X0223491Y0178268D01*
X0223473Y0178405D01*
X0223459Y0178541D01*
X0223449Y0178678D01*
X0223443Y0178816D01*
X0223441Y0178953D01*
X0235252Y0139583D02*
X0235254Y0139720D01*
X0235260Y0139858D01*
X0235270Y0139995D01*
X0235284Y0140131D01*
X0235302Y0140268D01*
X0235324Y0140403D01*
X0235350Y0140538D01*
X0235379Y0140672D01*
X0235413Y0140806D01*
X0235450Y0140938D01*
X0235492Y0141069D01*
X0235537Y0141199D01*
X0235586Y0141327D01*
X0235638Y0141454D01*
X0235695Y0141579D01*
X0235754Y0141703D01*
X0235818Y0141825D01*
X0235885Y0141945D01*
X0235955Y0142063D01*
X0236029Y0142179D01*
X0236106Y0142293D01*
X0236187Y0142404D01*
X0236270Y0142513D01*
X0236357Y0142620D01*
X0236447Y0142723D01*
X0236540Y0142825D01*
X0236636Y0142923D01*
X0236734Y0143019D01*
X0236836Y0143112D01*
X0236939Y0143202D01*
X0237046Y0143289D01*
X0237155Y0143372D01*
X0237266Y0143453D01*
X0237380Y0143530D01*
X0237496Y0143604D01*
X0237614Y0143674D01*
X0237734Y0143741D01*
X0237856Y0143805D01*
X0237980Y0143864D01*
X0238105Y0143921D01*
X0238232Y0143973D01*
X0238360Y0144022D01*
X0238490Y0144067D01*
X0238621Y0144109D01*
X0238753Y0144146D01*
X0238887Y0144180D01*
X0239021Y0144209D01*
X0239156Y0144235D01*
X0239291Y0144257D01*
X0239428Y0144275D01*
X0239564Y0144289D01*
X0239701Y0144299D01*
X0239839Y0144305D01*
X0239976Y0144307D01*
X0240113Y0144305D01*
X0240251Y0144299D01*
X0240388Y0144289D01*
X0240524Y0144275D01*
X0240661Y0144257D01*
X0240796Y0144235D01*
X0240931Y0144209D01*
X0241065Y0144180D01*
X0241199Y0144146D01*
X0241331Y0144109D01*
X0241462Y0144067D01*
X0241592Y0144022D01*
X0241720Y0143973D01*
X0241847Y0143921D01*
X0241972Y0143864D01*
X0242096Y0143805D01*
X0242218Y0143741D01*
X0242338Y0143674D01*
X0242456Y0143604D01*
X0242572Y0143530D01*
X0242686Y0143453D01*
X0242797Y0143372D01*
X0242906Y0143289D01*
X0243013Y0143202D01*
X0243116Y0143112D01*
X0243218Y0143019D01*
X0243316Y0142923D01*
X0243412Y0142825D01*
X0243505Y0142723D01*
X0243595Y0142620D01*
X0243682Y0142513D01*
X0243765Y0142404D01*
X0243846Y0142293D01*
X0243923Y0142179D01*
X0243997Y0142063D01*
X0244067Y0141945D01*
X0244134Y0141825D01*
X0244198Y0141703D01*
X0244257Y0141579D01*
X0244314Y0141454D01*
X0244366Y0141327D01*
X0244415Y0141199D01*
X0244460Y0141069D01*
X0244502Y0140938D01*
X0244539Y0140806D01*
X0244573Y0140672D01*
X0244602Y0140538D01*
X0244628Y0140403D01*
X0244650Y0140268D01*
X0244668Y0140131D01*
X0244682Y0139995D01*
X0244692Y0139858D01*
X0244698Y0139720D01*
X0244700Y0139583D01*
X0244698Y0139446D01*
X0244692Y0139308D01*
X0244682Y0139171D01*
X0244668Y0139035D01*
X0244650Y0138898D01*
X0244628Y0138763D01*
X0244602Y0138628D01*
X0244573Y0138494D01*
X0244539Y0138360D01*
X0244502Y0138228D01*
X0244460Y0138097D01*
X0244415Y0137967D01*
X0244366Y0137839D01*
X0244314Y0137712D01*
X0244257Y0137587D01*
X0244198Y0137463D01*
X0244134Y0137341D01*
X0244067Y0137221D01*
X0243997Y0137103D01*
X0243923Y0136987D01*
X0243846Y0136873D01*
X0243765Y0136762D01*
X0243682Y0136653D01*
X0243595Y0136546D01*
X0243505Y0136443D01*
X0243412Y0136341D01*
X0243316Y0136243D01*
X0243218Y0136147D01*
X0243116Y0136054D01*
X0243013Y0135964D01*
X0242906Y0135877D01*
X0242797Y0135794D01*
X0242686Y0135713D01*
X0242572Y0135636D01*
X0242456Y0135562D01*
X0242338Y0135492D01*
X0242218Y0135425D01*
X0242096Y0135361D01*
X0241972Y0135302D01*
X0241847Y0135245D01*
X0241720Y0135193D01*
X0241592Y0135144D01*
X0241462Y0135099D01*
X0241331Y0135057D01*
X0241199Y0135020D01*
X0241065Y0134986D01*
X0240931Y0134957D01*
X0240796Y0134931D01*
X0240661Y0134909D01*
X0240524Y0134891D01*
X0240388Y0134877D01*
X0240251Y0134867D01*
X0240113Y0134861D01*
X0239976Y0134859D01*
X0239839Y0134861D01*
X0239701Y0134867D01*
X0239564Y0134877D01*
X0239428Y0134891D01*
X0239291Y0134909D01*
X0239156Y0134931D01*
X0239021Y0134957D01*
X0238887Y0134986D01*
X0238753Y0135020D01*
X0238621Y0135057D01*
X0238490Y0135099D01*
X0238360Y0135144D01*
X0238232Y0135193D01*
X0238105Y0135245D01*
X0237980Y0135302D01*
X0237856Y0135361D01*
X0237734Y0135425D01*
X0237614Y0135492D01*
X0237496Y0135562D01*
X0237380Y0135636D01*
X0237266Y0135713D01*
X0237155Y0135794D01*
X0237046Y0135877D01*
X0236939Y0135964D01*
X0236836Y0136054D01*
X0236734Y0136147D01*
X0236636Y0136243D01*
X0236540Y0136341D01*
X0236447Y0136443D01*
X0236357Y0136546D01*
X0236270Y0136653D01*
X0236187Y0136762D01*
X0236106Y0136873D01*
X0236029Y0136987D01*
X0235955Y0137103D01*
X0235885Y0137221D01*
X0235818Y0137341D01*
X0235754Y0137463D01*
X0235695Y0137587D01*
X0235638Y0137712D01*
X0235586Y0137839D01*
X0235537Y0137967D01*
X0235492Y0138097D01*
X0235450Y0138228D01*
X0235413Y0138360D01*
X0235379Y0138494D01*
X0235350Y0138628D01*
X0235324Y0138763D01*
X0235302Y0138898D01*
X0235284Y0139035D01*
X0235270Y0139171D01*
X0235260Y0139308D01*
X0235254Y0139446D01*
X0235252Y0139583D01*
X0276591Y0130921D02*
X0276593Y0131058D01*
X0276599Y0131196D01*
X0276609Y0131333D01*
X0276623Y0131469D01*
X0276641Y0131606D01*
X0276663Y0131741D01*
X0276689Y0131876D01*
X0276718Y0132010D01*
X0276752Y0132144D01*
X0276789Y0132276D01*
X0276831Y0132407D01*
X0276876Y0132537D01*
X0276925Y0132665D01*
X0276977Y0132792D01*
X0277034Y0132917D01*
X0277093Y0133041D01*
X0277157Y0133163D01*
X0277224Y0133283D01*
X0277294Y0133401D01*
X0277368Y0133517D01*
X0277445Y0133631D01*
X0277526Y0133742D01*
X0277609Y0133851D01*
X0277696Y0133958D01*
X0277786Y0134061D01*
X0277879Y0134163D01*
X0277975Y0134261D01*
X0278073Y0134357D01*
X0278175Y0134450D01*
X0278278Y0134540D01*
X0278385Y0134627D01*
X0278494Y0134710D01*
X0278605Y0134791D01*
X0278719Y0134868D01*
X0278835Y0134942D01*
X0278953Y0135012D01*
X0279073Y0135079D01*
X0279195Y0135143D01*
X0279319Y0135202D01*
X0279444Y0135259D01*
X0279571Y0135311D01*
X0279699Y0135360D01*
X0279829Y0135405D01*
X0279960Y0135447D01*
X0280092Y0135484D01*
X0280226Y0135518D01*
X0280360Y0135547D01*
X0280495Y0135573D01*
X0280630Y0135595D01*
X0280767Y0135613D01*
X0280903Y0135627D01*
X0281040Y0135637D01*
X0281178Y0135643D01*
X0281315Y0135645D01*
X0281452Y0135643D01*
X0281590Y0135637D01*
X0281727Y0135627D01*
X0281863Y0135613D01*
X0282000Y0135595D01*
X0282135Y0135573D01*
X0282270Y0135547D01*
X0282404Y0135518D01*
X0282538Y0135484D01*
X0282670Y0135447D01*
X0282801Y0135405D01*
X0282931Y0135360D01*
X0283059Y0135311D01*
X0283186Y0135259D01*
X0283311Y0135202D01*
X0283435Y0135143D01*
X0283557Y0135079D01*
X0283677Y0135012D01*
X0283795Y0134942D01*
X0283911Y0134868D01*
X0284025Y0134791D01*
X0284136Y0134710D01*
X0284245Y0134627D01*
X0284352Y0134540D01*
X0284455Y0134450D01*
X0284557Y0134357D01*
X0284655Y0134261D01*
X0284751Y0134163D01*
X0284844Y0134061D01*
X0284934Y0133958D01*
X0285021Y0133851D01*
X0285104Y0133742D01*
X0285185Y0133631D01*
X0285262Y0133517D01*
X0285336Y0133401D01*
X0285406Y0133283D01*
X0285473Y0133163D01*
X0285537Y0133041D01*
X0285596Y0132917D01*
X0285653Y0132792D01*
X0285705Y0132665D01*
X0285754Y0132537D01*
X0285799Y0132407D01*
X0285841Y0132276D01*
X0285878Y0132144D01*
X0285912Y0132010D01*
X0285941Y0131876D01*
X0285967Y0131741D01*
X0285989Y0131606D01*
X0286007Y0131469D01*
X0286021Y0131333D01*
X0286031Y0131196D01*
X0286037Y0131058D01*
X0286039Y0130921D01*
X0286037Y0130784D01*
X0286031Y0130646D01*
X0286021Y0130509D01*
X0286007Y0130373D01*
X0285989Y0130236D01*
X0285967Y0130101D01*
X0285941Y0129966D01*
X0285912Y0129832D01*
X0285878Y0129698D01*
X0285841Y0129566D01*
X0285799Y0129435D01*
X0285754Y0129305D01*
X0285705Y0129177D01*
X0285653Y0129050D01*
X0285596Y0128925D01*
X0285537Y0128801D01*
X0285473Y0128679D01*
X0285406Y0128559D01*
X0285336Y0128441D01*
X0285262Y0128325D01*
X0285185Y0128211D01*
X0285104Y0128100D01*
X0285021Y0127991D01*
X0284934Y0127884D01*
X0284844Y0127781D01*
X0284751Y0127679D01*
X0284655Y0127581D01*
X0284557Y0127485D01*
X0284455Y0127392D01*
X0284352Y0127302D01*
X0284245Y0127215D01*
X0284136Y0127132D01*
X0284025Y0127051D01*
X0283911Y0126974D01*
X0283795Y0126900D01*
X0283677Y0126830D01*
X0283557Y0126763D01*
X0283435Y0126699D01*
X0283311Y0126640D01*
X0283186Y0126583D01*
X0283059Y0126531D01*
X0282931Y0126482D01*
X0282801Y0126437D01*
X0282670Y0126395D01*
X0282538Y0126358D01*
X0282404Y0126324D01*
X0282270Y0126295D01*
X0282135Y0126269D01*
X0282000Y0126247D01*
X0281863Y0126229D01*
X0281727Y0126215D01*
X0281590Y0126205D01*
X0281452Y0126199D01*
X0281315Y0126197D01*
X0281178Y0126199D01*
X0281040Y0126205D01*
X0280903Y0126215D01*
X0280767Y0126229D01*
X0280630Y0126247D01*
X0280495Y0126269D01*
X0280360Y0126295D01*
X0280226Y0126324D01*
X0280092Y0126358D01*
X0279960Y0126395D01*
X0279829Y0126437D01*
X0279699Y0126482D01*
X0279571Y0126531D01*
X0279444Y0126583D01*
X0279319Y0126640D01*
X0279195Y0126699D01*
X0279073Y0126763D01*
X0278953Y0126830D01*
X0278835Y0126900D01*
X0278719Y0126974D01*
X0278605Y0127051D01*
X0278494Y0127132D01*
X0278385Y0127215D01*
X0278278Y0127302D01*
X0278175Y0127392D01*
X0278073Y0127485D01*
X0277975Y0127581D01*
X0277879Y0127679D01*
X0277786Y0127781D01*
X0277696Y0127884D01*
X0277609Y0127991D01*
X0277526Y0128100D01*
X0277445Y0128211D01*
X0277368Y0128325D01*
X0277294Y0128441D01*
X0277224Y0128559D01*
X0277157Y0128679D01*
X0277093Y0128801D01*
X0277034Y0128925D01*
X0276977Y0129050D01*
X0276925Y0129177D01*
X0276876Y0129305D01*
X0276831Y0129435D01*
X0276789Y0129566D01*
X0276752Y0129698D01*
X0276718Y0129832D01*
X0276689Y0129966D01*
X0276663Y0130101D01*
X0276641Y0130236D01*
X0276623Y0130373D01*
X0276609Y0130509D01*
X0276599Y0130646D01*
X0276593Y0130784D01*
X0276591Y0130921D01*
X0126985Y0149425D02*
X0126987Y0149562D01*
X0126993Y0149700D01*
X0127003Y0149837D01*
X0127017Y0149973D01*
X0127035Y0150110D01*
X0127057Y0150245D01*
X0127083Y0150380D01*
X0127112Y0150514D01*
X0127146Y0150648D01*
X0127183Y0150780D01*
X0127225Y0150911D01*
X0127270Y0151041D01*
X0127319Y0151169D01*
X0127371Y0151296D01*
X0127428Y0151421D01*
X0127487Y0151545D01*
X0127551Y0151667D01*
X0127618Y0151787D01*
X0127688Y0151905D01*
X0127762Y0152021D01*
X0127839Y0152135D01*
X0127920Y0152246D01*
X0128003Y0152355D01*
X0128090Y0152462D01*
X0128180Y0152565D01*
X0128273Y0152667D01*
X0128369Y0152765D01*
X0128467Y0152861D01*
X0128569Y0152954D01*
X0128672Y0153044D01*
X0128779Y0153131D01*
X0128888Y0153214D01*
X0128999Y0153295D01*
X0129113Y0153372D01*
X0129229Y0153446D01*
X0129347Y0153516D01*
X0129467Y0153583D01*
X0129589Y0153647D01*
X0129713Y0153706D01*
X0129838Y0153763D01*
X0129965Y0153815D01*
X0130093Y0153864D01*
X0130223Y0153909D01*
X0130354Y0153951D01*
X0130486Y0153988D01*
X0130620Y0154022D01*
X0130754Y0154051D01*
X0130889Y0154077D01*
X0131024Y0154099D01*
X0131161Y0154117D01*
X0131297Y0154131D01*
X0131434Y0154141D01*
X0131572Y0154147D01*
X0131709Y0154149D01*
X0131846Y0154147D01*
X0131984Y0154141D01*
X0132121Y0154131D01*
X0132257Y0154117D01*
X0132394Y0154099D01*
X0132529Y0154077D01*
X0132664Y0154051D01*
X0132798Y0154022D01*
X0132932Y0153988D01*
X0133064Y0153951D01*
X0133195Y0153909D01*
X0133325Y0153864D01*
X0133453Y0153815D01*
X0133580Y0153763D01*
X0133705Y0153706D01*
X0133829Y0153647D01*
X0133951Y0153583D01*
X0134071Y0153516D01*
X0134189Y0153446D01*
X0134305Y0153372D01*
X0134419Y0153295D01*
X0134530Y0153214D01*
X0134639Y0153131D01*
X0134746Y0153044D01*
X0134849Y0152954D01*
X0134951Y0152861D01*
X0135049Y0152765D01*
X0135145Y0152667D01*
X0135238Y0152565D01*
X0135328Y0152462D01*
X0135415Y0152355D01*
X0135498Y0152246D01*
X0135579Y0152135D01*
X0135656Y0152021D01*
X0135730Y0151905D01*
X0135800Y0151787D01*
X0135867Y0151667D01*
X0135931Y0151545D01*
X0135990Y0151421D01*
X0136047Y0151296D01*
X0136099Y0151169D01*
X0136148Y0151041D01*
X0136193Y0150911D01*
X0136235Y0150780D01*
X0136272Y0150648D01*
X0136306Y0150514D01*
X0136335Y0150380D01*
X0136361Y0150245D01*
X0136383Y0150110D01*
X0136401Y0149973D01*
X0136415Y0149837D01*
X0136425Y0149700D01*
X0136431Y0149562D01*
X0136433Y0149425D01*
X0136431Y0149288D01*
X0136425Y0149150D01*
X0136415Y0149013D01*
X0136401Y0148877D01*
X0136383Y0148740D01*
X0136361Y0148605D01*
X0136335Y0148470D01*
X0136306Y0148336D01*
X0136272Y0148202D01*
X0136235Y0148070D01*
X0136193Y0147939D01*
X0136148Y0147809D01*
X0136099Y0147681D01*
X0136047Y0147554D01*
X0135990Y0147429D01*
X0135931Y0147305D01*
X0135867Y0147183D01*
X0135800Y0147063D01*
X0135730Y0146945D01*
X0135656Y0146829D01*
X0135579Y0146715D01*
X0135498Y0146604D01*
X0135415Y0146495D01*
X0135328Y0146388D01*
X0135238Y0146285D01*
X0135145Y0146183D01*
X0135049Y0146085D01*
X0134951Y0145989D01*
X0134849Y0145896D01*
X0134746Y0145806D01*
X0134639Y0145719D01*
X0134530Y0145636D01*
X0134419Y0145555D01*
X0134305Y0145478D01*
X0134189Y0145404D01*
X0134071Y0145334D01*
X0133951Y0145267D01*
X0133829Y0145203D01*
X0133705Y0145144D01*
X0133580Y0145087D01*
X0133453Y0145035D01*
X0133325Y0144986D01*
X0133195Y0144941D01*
X0133064Y0144899D01*
X0132932Y0144862D01*
X0132798Y0144828D01*
X0132664Y0144799D01*
X0132529Y0144773D01*
X0132394Y0144751D01*
X0132257Y0144733D01*
X0132121Y0144719D01*
X0131984Y0144709D01*
X0131846Y0144703D01*
X0131709Y0144701D01*
X0131572Y0144703D01*
X0131434Y0144709D01*
X0131297Y0144719D01*
X0131161Y0144733D01*
X0131024Y0144751D01*
X0130889Y0144773D01*
X0130754Y0144799D01*
X0130620Y0144828D01*
X0130486Y0144862D01*
X0130354Y0144899D01*
X0130223Y0144941D01*
X0130093Y0144986D01*
X0129965Y0145035D01*
X0129838Y0145087D01*
X0129713Y0145144D01*
X0129589Y0145203D01*
X0129467Y0145267D01*
X0129347Y0145334D01*
X0129229Y0145404D01*
X0129113Y0145478D01*
X0128999Y0145555D01*
X0128888Y0145636D01*
X0128779Y0145719D01*
X0128672Y0145806D01*
X0128569Y0145896D01*
X0128467Y0145989D01*
X0128369Y0146085D01*
X0128273Y0146183D01*
X0128180Y0146285D01*
X0128090Y0146388D01*
X0128003Y0146495D01*
X0127920Y0146604D01*
X0127839Y0146715D01*
X0127762Y0146829D01*
X0127688Y0146945D01*
X0127618Y0147063D01*
X0127551Y0147183D01*
X0127487Y0147305D01*
X0127428Y0147429D01*
X0127371Y0147554D01*
X0127319Y0147681D01*
X0127270Y0147809D01*
X0127225Y0147939D01*
X0127183Y0148070D01*
X0127146Y0148202D01*
X0127112Y0148336D01*
X0127083Y0148470D01*
X0127057Y0148605D01*
X0127035Y0148740D01*
X0127017Y0148877D01*
X0127003Y0149013D01*
X0126993Y0149150D01*
X0126987Y0149288D01*
X0126985Y0149425D01*
X0105725Y0124228D02*
X0105727Y0124365D01*
X0105733Y0124503D01*
X0105743Y0124640D01*
X0105757Y0124776D01*
X0105775Y0124913D01*
X0105797Y0125048D01*
X0105823Y0125183D01*
X0105852Y0125317D01*
X0105886Y0125451D01*
X0105923Y0125583D01*
X0105965Y0125714D01*
X0106010Y0125844D01*
X0106059Y0125972D01*
X0106111Y0126099D01*
X0106168Y0126224D01*
X0106227Y0126348D01*
X0106291Y0126470D01*
X0106358Y0126590D01*
X0106428Y0126708D01*
X0106502Y0126824D01*
X0106579Y0126938D01*
X0106660Y0127049D01*
X0106743Y0127158D01*
X0106830Y0127265D01*
X0106920Y0127368D01*
X0107013Y0127470D01*
X0107109Y0127568D01*
X0107207Y0127664D01*
X0107309Y0127757D01*
X0107412Y0127847D01*
X0107519Y0127934D01*
X0107628Y0128017D01*
X0107739Y0128098D01*
X0107853Y0128175D01*
X0107969Y0128249D01*
X0108087Y0128319D01*
X0108207Y0128386D01*
X0108329Y0128450D01*
X0108453Y0128509D01*
X0108578Y0128566D01*
X0108705Y0128618D01*
X0108833Y0128667D01*
X0108963Y0128712D01*
X0109094Y0128754D01*
X0109226Y0128791D01*
X0109360Y0128825D01*
X0109494Y0128854D01*
X0109629Y0128880D01*
X0109764Y0128902D01*
X0109901Y0128920D01*
X0110037Y0128934D01*
X0110174Y0128944D01*
X0110312Y0128950D01*
X0110449Y0128952D01*
X0110586Y0128950D01*
X0110724Y0128944D01*
X0110861Y0128934D01*
X0110997Y0128920D01*
X0111134Y0128902D01*
X0111269Y0128880D01*
X0111404Y0128854D01*
X0111538Y0128825D01*
X0111672Y0128791D01*
X0111804Y0128754D01*
X0111935Y0128712D01*
X0112065Y0128667D01*
X0112193Y0128618D01*
X0112320Y0128566D01*
X0112445Y0128509D01*
X0112569Y0128450D01*
X0112691Y0128386D01*
X0112811Y0128319D01*
X0112929Y0128249D01*
X0113045Y0128175D01*
X0113159Y0128098D01*
X0113270Y0128017D01*
X0113379Y0127934D01*
X0113486Y0127847D01*
X0113589Y0127757D01*
X0113691Y0127664D01*
X0113789Y0127568D01*
X0113885Y0127470D01*
X0113978Y0127368D01*
X0114068Y0127265D01*
X0114155Y0127158D01*
X0114238Y0127049D01*
X0114319Y0126938D01*
X0114396Y0126824D01*
X0114470Y0126708D01*
X0114540Y0126590D01*
X0114607Y0126470D01*
X0114671Y0126348D01*
X0114730Y0126224D01*
X0114787Y0126099D01*
X0114839Y0125972D01*
X0114888Y0125844D01*
X0114933Y0125714D01*
X0114975Y0125583D01*
X0115012Y0125451D01*
X0115046Y0125317D01*
X0115075Y0125183D01*
X0115101Y0125048D01*
X0115123Y0124913D01*
X0115141Y0124776D01*
X0115155Y0124640D01*
X0115165Y0124503D01*
X0115171Y0124365D01*
X0115173Y0124228D01*
X0115171Y0124091D01*
X0115165Y0123953D01*
X0115155Y0123816D01*
X0115141Y0123680D01*
X0115123Y0123543D01*
X0115101Y0123408D01*
X0115075Y0123273D01*
X0115046Y0123139D01*
X0115012Y0123005D01*
X0114975Y0122873D01*
X0114933Y0122742D01*
X0114888Y0122612D01*
X0114839Y0122484D01*
X0114787Y0122357D01*
X0114730Y0122232D01*
X0114671Y0122108D01*
X0114607Y0121986D01*
X0114540Y0121866D01*
X0114470Y0121748D01*
X0114396Y0121632D01*
X0114319Y0121518D01*
X0114238Y0121407D01*
X0114155Y0121298D01*
X0114068Y0121191D01*
X0113978Y0121088D01*
X0113885Y0120986D01*
X0113789Y0120888D01*
X0113691Y0120792D01*
X0113589Y0120699D01*
X0113486Y0120609D01*
X0113379Y0120522D01*
X0113270Y0120439D01*
X0113159Y0120358D01*
X0113045Y0120281D01*
X0112929Y0120207D01*
X0112811Y0120137D01*
X0112691Y0120070D01*
X0112569Y0120006D01*
X0112445Y0119947D01*
X0112320Y0119890D01*
X0112193Y0119838D01*
X0112065Y0119789D01*
X0111935Y0119744D01*
X0111804Y0119702D01*
X0111672Y0119665D01*
X0111538Y0119631D01*
X0111404Y0119602D01*
X0111269Y0119576D01*
X0111134Y0119554D01*
X0110997Y0119536D01*
X0110861Y0119522D01*
X0110724Y0119512D01*
X0110586Y0119506D01*
X0110449Y0119504D01*
X0110312Y0119506D01*
X0110174Y0119512D01*
X0110037Y0119522D01*
X0109901Y0119536D01*
X0109764Y0119554D01*
X0109629Y0119576D01*
X0109494Y0119602D01*
X0109360Y0119631D01*
X0109226Y0119665D01*
X0109094Y0119702D01*
X0108963Y0119744D01*
X0108833Y0119789D01*
X0108705Y0119838D01*
X0108578Y0119890D01*
X0108453Y0119947D01*
X0108329Y0120006D01*
X0108207Y0120070D01*
X0108087Y0120137D01*
X0107969Y0120207D01*
X0107853Y0120281D01*
X0107739Y0120358D01*
X0107628Y0120439D01*
X0107519Y0120522D01*
X0107412Y0120609D01*
X0107309Y0120699D01*
X0107207Y0120792D01*
X0107109Y0120888D01*
X0107013Y0120986D01*
X0106920Y0121088D01*
X0106830Y0121191D01*
X0106743Y0121298D01*
X0106660Y0121407D01*
X0106579Y0121518D01*
X0106502Y0121632D01*
X0106428Y0121748D01*
X0106358Y0121866D01*
X0106291Y0121986D01*
X0106227Y0122108D01*
X0106168Y0122232D01*
X0106111Y0122357D01*
X0106059Y0122484D01*
X0106010Y0122612D01*
X0105965Y0122742D01*
X0105923Y0122873D01*
X0105886Y0123005D01*
X0105852Y0123139D01*
X0105823Y0123273D01*
X0105797Y0123408D01*
X0105775Y0123543D01*
X0105757Y0123680D01*
X0105743Y0123816D01*
X0105733Y0123953D01*
X0105727Y0124091D01*
X0105725Y0124228D01*
X0101788Y0105331D02*
X0101790Y0105468D01*
X0101796Y0105606D01*
X0101806Y0105743D01*
X0101820Y0105879D01*
X0101838Y0106016D01*
X0101860Y0106151D01*
X0101886Y0106286D01*
X0101915Y0106420D01*
X0101949Y0106554D01*
X0101986Y0106686D01*
X0102028Y0106817D01*
X0102073Y0106947D01*
X0102122Y0107075D01*
X0102174Y0107202D01*
X0102231Y0107327D01*
X0102290Y0107451D01*
X0102354Y0107573D01*
X0102421Y0107693D01*
X0102491Y0107811D01*
X0102565Y0107927D01*
X0102642Y0108041D01*
X0102723Y0108152D01*
X0102806Y0108261D01*
X0102893Y0108368D01*
X0102983Y0108471D01*
X0103076Y0108573D01*
X0103172Y0108671D01*
X0103270Y0108767D01*
X0103372Y0108860D01*
X0103475Y0108950D01*
X0103582Y0109037D01*
X0103691Y0109120D01*
X0103802Y0109201D01*
X0103916Y0109278D01*
X0104032Y0109352D01*
X0104150Y0109422D01*
X0104270Y0109489D01*
X0104392Y0109553D01*
X0104516Y0109612D01*
X0104641Y0109669D01*
X0104768Y0109721D01*
X0104896Y0109770D01*
X0105026Y0109815D01*
X0105157Y0109857D01*
X0105289Y0109894D01*
X0105423Y0109928D01*
X0105557Y0109957D01*
X0105692Y0109983D01*
X0105827Y0110005D01*
X0105964Y0110023D01*
X0106100Y0110037D01*
X0106237Y0110047D01*
X0106375Y0110053D01*
X0106512Y0110055D01*
X0106649Y0110053D01*
X0106787Y0110047D01*
X0106924Y0110037D01*
X0107060Y0110023D01*
X0107197Y0110005D01*
X0107332Y0109983D01*
X0107467Y0109957D01*
X0107601Y0109928D01*
X0107735Y0109894D01*
X0107867Y0109857D01*
X0107998Y0109815D01*
X0108128Y0109770D01*
X0108256Y0109721D01*
X0108383Y0109669D01*
X0108508Y0109612D01*
X0108632Y0109553D01*
X0108754Y0109489D01*
X0108874Y0109422D01*
X0108992Y0109352D01*
X0109108Y0109278D01*
X0109222Y0109201D01*
X0109333Y0109120D01*
X0109442Y0109037D01*
X0109549Y0108950D01*
X0109652Y0108860D01*
X0109754Y0108767D01*
X0109852Y0108671D01*
X0109948Y0108573D01*
X0110041Y0108471D01*
X0110131Y0108368D01*
X0110218Y0108261D01*
X0110301Y0108152D01*
X0110382Y0108041D01*
X0110459Y0107927D01*
X0110533Y0107811D01*
X0110603Y0107693D01*
X0110670Y0107573D01*
X0110734Y0107451D01*
X0110793Y0107327D01*
X0110850Y0107202D01*
X0110902Y0107075D01*
X0110951Y0106947D01*
X0110996Y0106817D01*
X0111038Y0106686D01*
X0111075Y0106554D01*
X0111109Y0106420D01*
X0111138Y0106286D01*
X0111164Y0106151D01*
X0111186Y0106016D01*
X0111204Y0105879D01*
X0111218Y0105743D01*
X0111228Y0105606D01*
X0111234Y0105468D01*
X0111236Y0105331D01*
X0111234Y0105194D01*
X0111228Y0105056D01*
X0111218Y0104919D01*
X0111204Y0104783D01*
X0111186Y0104646D01*
X0111164Y0104511D01*
X0111138Y0104376D01*
X0111109Y0104242D01*
X0111075Y0104108D01*
X0111038Y0103976D01*
X0110996Y0103845D01*
X0110951Y0103715D01*
X0110902Y0103587D01*
X0110850Y0103460D01*
X0110793Y0103335D01*
X0110734Y0103211D01*
X0110670Y0103089D01*
X0110603Y0102969D01*
X0110533Y0102851D01*
X0110459Y0102735D01*
X0110382Y0102621D01*
X0110301Y0102510D01*
X0110218Y0102401D01*
X0110131Y0102294D01*
X0110041Y0102191D01*
X0109948Y0102089D01*
X0109852Y0101991D01*
X0109754Y0101895D01*
X0109652Y0101802D01*
X0109549Y0101712D01*
X0109442Y0101625D01*
X0109333Y0101542D01*
X0109222Y0101461D01*
X0109108Y0101384D01*
X0108992Y0101310D01*
X0108874Y0101240D01*
X0108754Y0101173D01*
X0108632Y0101109D01*
X0108508Y0101050D01*
X0108383Y0100993D01*
X0108256Y0100941D01*
X0108128Y0100892D01*
X0107998Y0100847D01*
X0107867Y0100805D01*
X0107735Y0100768D01*
X0107601Y0100734D01*
X0107467Y0100705D01*
X0107332Y0100679D01*
X0107197Y0100657D01*
X0107060Y0100639D01*
X0106924Y0100625D01*
X0106787Y0100615D01*
X0106649Y0100609D01*
X0106512Y0100607D01*
X0106375Y0100609D01*
X0106237Y0100615D01*
X0106100Y0100625D01*
X0105964Y0100639D01*
X0105827Y0100657D01*
X0105692Y0100679D01*
X0105557Y0100705D01*
X0105423Y0100734D01*
X0105289Y0100768D01*
X0105157Y0100805D01*
X0105026Y0100847D01*
X0104896Y0100892D01*
X0104768Y0100941D01*
X0104641Y0100993D01*
X0104516Y0101050D01*
X0104392Y0101109D01*
X0104270Y0101173D01*
X0104150Y0101240D01*
X0104032Y0101310D01*
X0103916Y0101384D01*
X0103802Y0101461D01*
X0103691Y0101542D01*
X0103582Y0101625D01*
X0103475Y0101712D01*
X0103372Y0101802D01*
X0103270Y0101895D01*
X0103172Y0101991D01*
X0103076Y0102089D01*
X0102983Y0102191D01*
X0102893Y0102294D01*
X0102806Y0102401D01*
X0102723Y0102510D01*
X0102642Y0102621D01*
X0102565Y0102735D01*
X0102491Y0102851D01*
X0102421Y0102969D01*
X0102354Y0103089D01*
X0102290Y0103211D01*
X0102231Y0103335D01*
X0102174Y0103460D01*
X0102122Y0103587D01*
X0102073Y0103715D01*
X0102028Y0103845D01*
X0101986Y0103976D01*
X0101949Y0104108D01*
X0101915Y0104242D01*
X0101886Y0104376D01*
X0101860Y0104511D01*
X0101838Y0104646D01*
X0101820Y0104783D01*
X0101806Y0104919D01*
X0101796Y0105056D01*
X0101790Y0105194D01*
X0101788Y0105331D01*
X0021079Y0109661D02*
X0021081Y0109798D01*
X0021087Y0109936D01*
X0021097Y0110073D01*
X0021111Y0110209D01*
X0021129Y0110346D01*
X0021151Y0110481D01*
X0021177Y0110616D01*
X0021206Y0110750D01*
X0021240Y0110884D01*
X0021277Y0111016D01*
X0021319Y0111147D01*
X0021364Y0111277D01*
X0021413Y0111405D01*
X0021465Y0111532D01*
X0021522Y0111657D01*
X0021581Y0111781D01*
X0021645Y0111903D01*
X0021712Y0112023D01*
X0021782Y0112141D01*
X0021856Y0112257D01*
X0021933Y0112371D01*
X0022014Y0112482D01*
X0022097Y0112591D01*
X0022184Y0112698D01*
X0022274Y0112801D01*
X0022367Y0112903D01*
X0022463Y0113001D01*
X0022561Y0113097D01*
X0022663Y0113190D01*
X0022766Y0113280D01*
X0022873Y0113367D01*
X0022982Y0113450D01*
X0023093Y0113531D01*
X0023207Y0113608D01*
X0023323Y0113682D01*
X0023441Y0113752D01*
X0023561Y0113819D01*
X0023683Y0113883D01*
X0023807Y0113942D01*
X0023932Y0113999D01*
X0024059Y0114051D01*
X0024187Y0114100D01*
X0024317Y0114145D01*
X0024448Y0114187D01*
X0024580Y0114224D01*
X0024714Y0114258D01*
X0024848Y0114287D01*
X0024983Y0114313D01*
X0025118Y0114335D01*
X0025255Y0114353D01*
X0025391Y0114367D01*
X0025528Y0114377D01*
X0025666Y0114383D01*
X0025803Y0114385D01*
X0025940Y0114383D01*
X0026078Y0114377D01*
X0026215Y0114367D01*
X0026351Y0114353D01*
X0026488Y0114335D01*
X0026623Y0114313D01*
X0026758Y0114287D01*
X0026892Y0114258D01*
X0027026Y0114224D01*
X0027158Y0114187D01*
X0027289Y0114145D01*
X0027419Y0114100D01*
X0027547Y0114051D01*
X0027674Y0113999D01*
X0027799Y0113942D01*
X0027923Y0113883D01*
X0028045Y0113819D01*
X0028165Y0113752D01*
X0028283Y0113682D01*
X0028399Y0113608D01*
X0028513Y0113531D01*
X0028624Y0113450D01*
X0028733Y0113367D01*
X0028840Y0113280D01*
X0028943Y0113190D01*
X0029045Y0113097D01*
X0029143Y0113001D01*
X0029239Y0112903D01*
X0029332Y0112801D01*
X0029422Y0112698D01*
X0029509Y0112591D01*
X0029592Y0112482D01*
X0029673Y0112371D01*
X0029750Y0112257D01*
X0029824Y0112141D01*
X0029894Y0112023D01*
X0029961Y0111903D01*
X0030025Y0111781D01*
X0030084Y0111657D01*
X0030141Y0111532D01*
X0030193Y0111405D01*
X0030242Y0111277D01*
X0030287Y0111147D01*
X0030329Y0111016D01*
X0030366Y0110884D01*
X0030400Y0110750D01*
X0030429Y0110616D01*
X0030455Y0110481D01*
X0030477Y0110346D01*
X0030495Y0110209D01*
X0030509Y0110073D01*
X0030519Y0109936D01*
X0030525Y0109798D01*
X0030527Y0109661D01*
X0030525Y0109524D01*
X0030519Y0109386D01*
X0030509Y0109249D01*
X0030495Y0109113D01*
X0030477Y0108976D01*
X0030455Y0108841D01*
X0030429Y0108706D01*
X0030400Y0108572D01*
X0030366Y0108438D01*
X0030329Y0108306D01*
X0030287Y0108175D01*
X0030242Y0108045D01*
X0030193Y0107917D01*
X0030141Y0107790D01*
X0030084Y0107665D01*
X0030025Y0107541D01*
X0029961Y0107419D01*
X0029894Y0107299D01*
X0029824Y0107181D01*
X0029750Y0107065D01*
X0029673Y0106951D01*
X0029592Y0106840D01*
X0029509Y0106731D01*
X0029422Y0106624D01*
X0029332Y0106521D01*
X0029239Y0106419D01*
X0029143Y0106321D01*
X0029045Y0106225D01*
X0028943Y0106132D01*
X0028840Y0106042D01*
X0028733Y0105955D01*
X0028624Y0105872D01*
X0028513Y0105791D01*
X0028399Y0105714D01*
X0028283Y0105640D01*
X0028165Y0105570D01*
X0028045Y0105503D01*
X0027923Y0105439D01*
X0027799Y0105380D01*
X0027674Y0105323D01*
X0027547Y0105271D01*
X0027419Y0105222D01*
X0027289Y0105177D01*
X0027158Y0105135D01*
X0027026Y0105098D01*
X0026892Y0105064D01*
X0026758Y0105035D01*
X0026623Y0105009D01*
X0026488Y0104987D01*
X0026351Y0104969D01*
X0026215Y0104955D01*
X0026078Y0104945D01*
X0025940Y0104939D01*
X0025803Y0104937D01*
X0025666Y0104939D01*
X0025528Y0104945D01*
X0025391Y0104955D01*
X0025255Y0104969D01*
X0025118Y0104987D01*
X0024983Y0105009D01*
X0024848Y0105035D01*
X0024714Y0105064D01*
X0024580Y0105098D01*
X0024448Y0105135D01*
X0024317Y0105177D01*
X0024187Y0105222D01*
X0024059Y0105271D01*
X0023932Y0105323D01*
X0023807Y0105380D01*
X0023683Y0105439D01*
X0023561Y0105503D01*
X0023441Y0105570D01*
X0023323Y0105640D01*
X0023207Y0105714D01*
X0023093Y0105791D01*
X0022982Y0105872D01*
X0022873Y0105955D01*
X0022766Y0106042D01*
X0022663Y0106132D01*
X0022561Y0106225D01*
X0022463Y0106321D01*
X0022367Y0106419D01*
X0022274Y0106521D01*
X0022184Y0106624D01*
X0022097Y0106731D01*
X0022014Y0106840D01*
X0021933Y0106951D01*
X0021856Y0107065D01*
X0021782Y0107181D01*
X0021712Y0107299D01*
X0021645Y0107419D01*
X0021581Y0107541D01*
X0021522Y0107665D01*
X0021465Y0107790D01*
X0021413Y0107917D01*
X0021364Y0108045D01*
X0021319Y0108175D01*
X0021277Y0108306D01*
X0021240Y0108438D01*
X0021206Y0108572D01*
X0021177Y0108706D01*
X0021151Y0108841D01*
X0021129Y0108976D01*
X0021111Y0109113D01*
X0021097Y0109249D01*
X0021087Y0109386D01*
X0021081Y0109524D01*
X0021079Y0109661D01*
D12*
X0083287Y0316554D02*
X0086356Y0316554D01*
X0084821Y0316554D02*
X0084821Y0321158D01*
X0083287Y0319624D01*
X0087891Y0319624D02*
X0087891Y0320391D01*
X0088658Y0321158D01*
X0090192Y0321158D01*
X0090960Y0320391D01*
X0090960Y0319624D01*
X0090192Y0318856D01*
X0088658Y0318856D01*
X0087891Y0319624D01*
X0088658Y0318856D02*
X0087891Y0318089D01*
X0087891Y0317322D01*
X0088658Y0316554D01*
X0090192Y0316554D01*
X0090960Y0317322D01*
X0090960Y0318089D01*
X0090192Y0318856D01*
X0086356Y0392932D02*
X0083287Y0392932D01*
X0084821Y0392932D02*
X0084821Y0397536D01*
X0083287Y0396002D01*
D13*
X0088016Y0362524D03*
X0088016Y0352524D03*
X0098016Y0352524D03*
X0098016Y0362524D03*
X0108016Y0362524D03*
X0108016Y0352524D03*
X0118016Y0352524D03*
X0118016Y0362524D03*
X0128016Y0362524D03*
X0128016Y0352524D03*
X0138016Y0352524D03*
X0138016Y0362524D03*
X0148016Y0362524D03*
X0148016Y0352524D03*
X0158016Y0352524D03*
X0158016Y0362524D03*
X0168016Y0362524D03*
X0168016Y0352524D03*
X0178016Y0352524D03*
X0178016Y0362524D03*
X0188016Y0362524D03*
X0188016Y0352524D03*
X0198016Y0352524D03*
X0198016Y0362524D03*
X0208016Y0362524D03*
X0208016Y0352524D03*
X0218016Y0352524D03*
X0218016Y0362524D03*
X0228016Y0362524D03*
X0228016Y0352524D03*
X0238016Y0352524D03*
X0238016Y0362524D03*
X0248016Y0362524D03*
X0248016Y0352524D03*
X0078016Y0352524D03*
X0078016Y0362524D03*
X0068016Y0362524D03*
X0068016Y0352524D03*
X0058016Y0352524D03*
X0058016Y0362524D03*
D14*
X0058016Y0366024D03*
X0068016Y0366024D03*
X0078016Y0366024D03*
X0088016Y0366024D03*
X0098016Y0366024D03*
X0108016Y0366024D03*
X0118016Y0366024D03*
X0128016Y0366024D03*
X0138016Y0366024D03*
X0148016Y0366024D03*
X0158016Y0366024D03*
X0168016Y0366024D03*
X0178016Y0366024D03*
X0188016Y0366024D03*
X0198016Y0366024D03*
X0208016Y0366024D03*
X0218016Y0366024D03*
X0228016Y0366024D03*
X0238016Y0366024D03*
X0248016Y0366024D03*
X0248016Y0349024D03*
X0238016Y0349024D03*
X0228016Y0349024D03*
X0218016Y0349024D03*
X0208016Y0349024D03*
X0198016Y0349024D03*
X0188016Y0349024D03*
X0178016Y0349024D03*
X0168016Y0349024D03*
X0158016Y0349024D03*
X0148016Y0349024D03*
X0138016Y0349024D03*
X0128016Y0349024D03*
X0118016Y0349024D03*
X0108016Y0349024D03*
X0098016Y0349024D03*
X0088016Y0349024D03*
X0078016Y0349024D03*
X0068016Y0349024D03*
X0058016Y0349024D03*
D15*
X0156512Y0320291D03*
X0156512Y0312417D03*
D16*
X0149425Y0302969D03*
X0149425Y0329740D03*
D17*
X0189780Y0325213D03*
X0189780Y0310843D03*
X0189780Y0283283D03*
X0189780Y0268913D03*
X0281512Y0268913D03*
X0281512Y0325213D03*
D18*
X0157496Y0067142D03*
X0157496Y0030528D03*
X0184661Y0038008D03*
D19*
X0174031Y0083087D03*
D20*
X0184661Y0026984D03*
D21*
X0198835Y0044701D03*
X0205528Y0044701D03*
X0205528Y0060449D03*
X0198835Y0060449D03*
X0142535Y0064386D03*
X0135843Y0064386D03*
X0135843Y0048638D03*
X0142535Y0048638D03*
D22*
X0143126Y0040764D03*
X0135252Y0040764D03*
X0135252Y0056512D03*
X0143126Y0056512D03*
X0198244Y0052575D03*
X0206118Y0052575D03*
X0206118Y0068323D03*
X0198244Y0068323D03*
D23*
X0077181Y0451787D03*
X0077181Y0460449D03*
X0044504Y0460449D03*
X0044504Y0451787D03*
D24*
X0051984Y0447260D03*
X0063795Y0447260D03*
X0069701Y0447260D03*
D25*
X0072379Y0447500D02*
X0286264Y0447500D01*
X0286264Y0446502D02*
X0072379Y0446502D01*
X0072379Y0445503D02*
X0286264Y0445503D01*
X0286264Y0444505D02*
X0072379Y0444505D01*
X0072379Y0443769D02*
X0072379Y0450751D01*
X0071617Y0451513D01*
X0071012Y0451513D01*
X0072065Y0452566D01*
X0073020Y0454871D01*
X0073020Y0457366D01*
X0072065Y0459671D01*
X0070301Y0461435D01*
X0067996Y0462390D01*
X0065501Y0462390D01*
X0063195Y0461435D01*
X0061431Y0459671D01*
X0060843Y0458250D01*
X0060254Y0459671D01*
X0058490Y0461435D01*
X0056185Y0462390D01*
X0053689Y0462390D01*
X0051384Y0461435D01*
X0049620Y0459671D01*
X0048665Y0457366D01*
X0048665Y0454871D01*
X0049620Y0452566D01*
X0050673Y0451513D01*
X0050068Y0451513D01*
X0049306Y0450751D01*
X0049306Y0443769D01*
X0050068Y0443007D01*
X0053901Y0443007D01*
X0054662Y0443769D01*
X0054662Y0449846D01*
X0056185Y0449846D01*
X0058490Y0450801D01*
X0060254Y0452566D01*
X0060843Y0453987D01*
X0061431Y0452566D01*
X0062484Y0451513D01*
X0061879Y0451513D01*
X0061117Y0450751D01*
X0061117Y0443769D01*
X0061879Y0443007D01*
X0065712Y0443007D01*
X0066473Y0443769D01*
X0066473Y0449846D01*
X0067023Y0449846D01*
X0067023Y0443769D01*
X0067784Y0443007D01*
X0071617Y0443007D01*
X0072379Y0443769D01*
X0072116Y0443506D02*
X0286264Y0443506D01*
X0286264Y0442508D02*
X0021642Y0442508D01*
X0021642Y0443506D02*
X0049569Y0443506D01*
X0049306Y0444505D02*
X0021642Y0444505D01*
X0021642Y0445503D02*
X0049306Y0445503D01*
X0049306Y0446502D02*
X0021642Y0446502D01*
X0021642Y0447500D02*
X0049306Y0447500D01*
X0049306Y0448499D02*
X0021642Y0448499D01*
X0021642Y0449497D02*
X0041412Y0449497D01*
X0041235Y0449674D02*
X0041997Y0448913D01*
X0047011Y0448913D01*
X0047772Y0449674D01*
X0047772Y0453901D01*
X0047011Y0454662D01*
X0041997Y0454662D01*
X0041235Y0453901D01*
X0041235Y0449674D01*
X0041235Y0450496D02*
X0021642Y0450496D01*
X0021642Y0451494D02*
X0041235Y0451494D01*
X0041235Y0452493D02*
X0021642Y0452493D01*
X0021642Y0453491D02*
X0041235Y0453491D01*
X0041824Y0454490D02*
X0021642Y0454490D01*
X0021642Y0455488D02*
X0048665Y0455488D01*
X0048665Y0456487D02*
X0021642Y0456487D01*
X0021642Y0457485D02*
X0048715Y0457485D01*
X0049129Y0458484D02*
X0047772Y0458484D01*
X0047772Y0458336D02*
X0047772Y0462445D01*
X0073913Y0462445D01*
X0073913Y0458336D01*
X0074674Y0457574D01*
X0079688Y0457574D01*
X0080450Y0458336D01*
X0080450Y0462445D01*
X0286264Y0462445D01*
X0286264Y0331513D01*
X0275973Y0331513D01*
X0275212Y0330751D01*
X0275212Y0319674D01*
X0275973Y0318913D01*
X0286264Y0318913D01*
X0286264Y0275213D01*
X0275973Y0275213D01*
X0275212Y0274452D01*
X0275212Y0263375D01*
X0275973Y0262613D01*
X0286264Y0262613D01*
X0286264Y0138519D01*
X0284853Y0139462D01*
X0281315Y0140165D01*
X0277777Y0139462D01*
X0274778Y0137458D01*
X0272775Y0134459D01*
X0272775Y0134459D01*
X0272071Y0130921D01*
X0272775Y0127384D01*
X0272775Y0127384D01*
X0274778Y0124385D01*
X0274778Y0124385D01*
X0274778Y0124385D01*
X0277777Y0122381D01*
X0281315Y0121677D01*
X0284853Y0122381D01*
X0286264Y0123324D01*
X0286264Y0088374D01*
X0214278Y0088374D01*
X0212624Y0087689D01*
X0211358Y0086423D01*
X0210673Y0084769D01*
X0210673Y0021642D01*
X0021642Y0021642D01*
X0021642Y0101538D01*
X0022266Y0101121D01*
X0025803Y0100417D01*
X0029341Y0101121D01*
X0032340Y0103125D01*
X0034344Y0106124D01*
X0035047Y0109661D01*
X0034344Y0113199D01*
X0032340Y0116198D01*
X0032340Y0116198D01*
X0032340Y0116198D01*
X0029341Y0118202D01*
X0029341Y0118202D01*
X0025803Y0118905D01*
X0022266Y0118202D01*
X0022266Y0118202D01*
X0021642Y0117785D01*
X0021642Y0197546D01*
X0021825Y0197613D01*
X0024317Y0199704D01*
X0025944Y0202521D01*
X0026508Y0205724D01*
X0026508Y0205724D01*
X0025944Y0208928D01*
X0024317Y0211745D01*
X0024317Y0211745D01*
X0021825Y0213836D01*
X0021642Y0213903D01*
X0021642Y0462445D01*
X0041235Y0462445D01*
X0041235Y0458336D01*
X0041997Y0457574D01*
X0047011Y0457574D01*
X0047772Y0458336D01*
X0047772Y0459482D02*
X0049542Y0459482D01*
X0050430Y0460481D02*
X0047772Y0460481D01*
X0047772Y0461479D02*
X0051491Y0461479D01*
X0058383Y0461479D02*
X0063302Y0461479D01*
X0062241Y0460481D02*
X0059444Y0460481D01*
X0060332Y0459482D02*
X0061353Y0459482D01*
X0060940Y0458484D02*
X0060746Y0458484D01*
X0060637Y0453491D02*
X0061048Y0453491D01*
X0061504Y0452493D02*
X0060181Y0452493D01*
X0059183Y0451494D02*
X0061860Y0451494D01*
X0061117Y0450496D02*
X0057752Y0450496D01*
X0054662Y0449497D02*
X0061117Y0449497D01*
X0061117Y0448499D02*
X0054662Y0448499D01*
X0054662Y0447500D02*
X0061117Y0447500D01*
X0061117Y0446502D02*
X0054662Y0446502D01*
X0054662Y0445503D02*
X0061117Y0445503D01*
X0061117Y0444505D02*
X0054662Y0444505D01*
X0054400Y0443506D02*
X0061380Y0443506D01*
X0066211Y0443506D02*
X0067285Y0443506D01*
X0067023Y0444505D02*
X0066473Y0444505D01*
X0066473Y0445503D02*
X0067023Y0445503D01*
X0067023Y0446502D02*
X0066473Y0446502D01*
X0066473Y0447500D02*
X0067023Y0447500D01*
X0067023Y0448499D02*
X0066473Y0448499D01*
X0066473Y0449497D02*
X0067023Y0449497D01*
X0071636Y0451494D02*
X0073913Y0451494D01*
X0073913Y0450496D02*
X0072379Y0450496D01*
X0072379Y0449497D02*
X0074090Y0449497D01*
X0073913Y0449674D02*
X0074674Y0448913D01*
X0079688Y0448913D01*
X0080450Y0449674D01*
X0080450Y0453901D01*
X0079688Y0454662D01*
X0074674Y0454662D01*
X0073913Y0453901D01*
X0073913Y0449674D01*
X0072379Y0448499D02*
X0286264Y0448499D01*
X0286264Y0449497D02*
X0080273Y0449497D01*
X0080450Y0450496D02*
X0286264Y0450496D01*
X0286264Y0451494D02*
X0080450Y0451494D01*
X0080450Y0452493D02*
X0286264Y0452493D01*
X0286264Y0453491D02*
X0080450Y0453491D01*
X0079861Y0454490D02*
X0286264Y0454490D01*
X0286264Y0455488D02*
X0073020Y0455488D01*
X0073020Y0456487D02*
X0286264Y0456487D01*
X0286264Y0457485D02*
X0072970Y0457485D01*
X0072557Y0458484D02*
X0073913Y0458484D01*
X0073913Y0459482D02*
X0072143Y0459482D01*
X0071255Y0460481D02*
X0073913Y0460481D01*
X0073913Y0461479D02*
X0070194Y0461479D01*
X0072862Y0454490D02*
X0074502Y0454490D01*
X0073913Y0453491D02*
X0072448Y0453491D01*
X0071992Y0452493D02*
X0073913Y0452493D01*
X0080450Y0458484D02*
X0286264Y0458484D01*
X0286264Y0459482D02*
X0080450Y0459482D01*
X0080450Y0460481D02*
X0286264Y0460481D01*
X0286264Y0461479D02*
X0080450Y0461479D01*
X0050049Y0451494D02*
X0047772Y0451494D01*
X0047772Y0450496D02*
X0049306Y0450496D01*
X0049306Y0449497D02*
X0047595Y0449497D01*
X0047772Y0452493D02*
X0049693Y0452493D01*
X0049237Y0453491D02*
X0047772Y0453491D01*
X0047183Y0454490D02*
X0048823Y0454490D01*
X0041235Y0458484D02*
X0021642Y0458484D01*
X0021642Y0459482D02*
X0041235Y0459482D01*
X0041235Y0460481D02*
X0021642Y0460481D01*
X0021642Y0461479D02*
X0041235Y0461479D01*
X0021642Y0441509D02*
X0286264Y0441509D01*
X0286264Y0440511D02*
X0021642Y0440511D01*
X0021642Y0439512D02*
X0286264Y0439512D01*
X0286264Y0438514D02*
X0021642Y0438514D01*
X0021642Y0437515D02*
X0286264Y0437515D01*
X0286264Y0436516D02*
X0021642Y0436516D01*
X0021642Y0435518D02*
X0286264Y0435518D01*
X0286264Y0434519D02*
X0021642Y0434519D01*
X0021642Y0433521D02*
X0286264Y0433521D01*
X0286264Y0432522D02*
X0021642Y0432522D01*
X0021642Y0431524D02*
X0286264Y0431524D01*
X0286264Y0430525D02*
X0021642Y0430525D01*
X0021642Y0429527D02*
X0286264Y0429527D01*
X0286264Y0428528D02*
X0021642Y0428528D01*
X0021642Y0427530D02*
X0286264Y0427530D01*
X0286264Y0426531D02*
X0021642Y0426531D01*
X0021642Y0425533D02*
X0286264Y0425533D01*
X0286264Y0424534D02*
X0021642Y0424534D01*
X0021642Y0423536D02*
X0286264Y0423536D01*
X0286264Y0422537D02*
X0021642Y0422537D01*
X0021642Y0421539D02*
X0286264Y0421539D01*
X0286264Y0420540D02*
X0021642Y0420540D01*
X0021642Y0419542D02*
X0286264Y0419542D01*
X0286264Y0418543D02*
X0021642Y0418543D01*
X0021642Y0417545D02*
X0286264Y0417545D01*
X0286264Y0416546D02*
X0021642Y0416546D01*
X0021642Y0415548D02*
X0286264Y0415548D01*
X0286264Y0414549D02*
X0021642Y0414549D01*
X0021642Y0413551D02*
X0286264Y0413551D01*
X0286264Y0412552D02*
X0021642Y0412552D01*
X0021642Y0411554D02*
X0286264Y0411554D01*
X0286264Y0410555D02*
X0021642Y0410555D01*
X0021642Y0409557D02*
X0286264Y0409557D01*
X0286264Y0408558D02*
X0021642Y0408558D01*
X0021642Y0407560D02*
X0286264Y0407560D01*
X0286264Y0406561D02*
X0021642Y0406561D01*
X0021642Y0405563D02*
X0286264Y0405563D01*
X0286264Y0404564D02*
X0021642Y0404564D01*
X0021642Y0403566D02*
X0286264Y0403566D01*
X0286264Y0402567D02*
X0021642Y0402567D01*
X0021642Y0401569D02*
X0082275Y0401569D01*
X0082159Y0401521D02*
X0080837Y0400199D01*
X0079302Y0398664D01*
X0078587Y0396936D01*
X0078587Y0395067D01*
X0078835Y0394467D01*
X0078587Y0393867D01*
X0078587Y0391997D01*
X0079302Y0390270D01*
X0080624Y0388948D01*
X0082352Y0388232D01*
X0087291Y0388232D01*
X0089018Y0388948D01*
X0090340Y0390270D01*
X0091056Y0391997D01*
X0091056Y0393867D01*
X0090340Y0395595D01*
X0089521Y0396414D01*
X0089521Y0398471D01*
X0089233Y0399166D01*
X0088806Y0400199D01*
X0087484Y0401521D01*
X0086782Y0401811D01*
X0085756Y0402236D01*
X0083886Y0402236D01*
X0083191Y0401948D01*
X0082159Y0401521D01*
X0081208Y0400570D02*
X0021642Y0400570D01*
X0021642Y0399572D02*
X0080210Y0399572D01*
X0080837Y0400199D02*
X0080837Y0400199D01*
X0079265Y0398573D02*
X0021642Y0398573D01*
X0021642Y0397575D02*
X0078851Y0397575D01*
X0078587Y0396576D02*
X0021642Y0396576D01*
X0021642Y0395578D02*
X0078587Y0395578D01*
X0078789Y0394579D02*
X0021642Y0394579D01*
X0021642Y0393580D02*
X0078587Y0393580D01*
X0078587Y0392582D02*
X0021642Y0392582D01*
X0021642Y0391583D02*
X0078758Y0391583D01*
X0079172Y0390585D02*
X0021642Y0390585D01*
X0021642Y0389586D02*
X0079986Y0389586D01*
X0081493Y0388588D02*
X0021642Y0388588D01*
X0021642Y0387589D02*
X0286264Y0387589D01*
X0286264Y0386591D02*
X0021642Y0386591D01*
X0021642Y0385592D02*
X0286264Y0385592D01*
X0286264Y0384594D02*
X0021642Y0384594D01*
X0021642Y0383595D02*
X0286264Y0383595D01*
X0286264Y0382597D02*
X0021642Y0382597D01*
X0021642Y0381598D02*
X0286264Y0381598D01*
X0286264Y0380600D02*
X0021642Y0380600D01*
X0021642Y0379601D02*
X0286264Y0379601D01*
X0286264Y0378603D02*
X0021642Y0378603D01*
X0021642Y0377604D02*
X0286264Y0377604D01*
X0286264Y0376606D02*
X0021642Y0376606D01*
X0021642Y0375607D02*
X0286264Y0375607D01*
X0286264Y0374609D02*
X0021642Y0374609D01*
X0021642Y0373610D02*
X0286264Y0373610D01*
X0286264Y0372612D02*
X0021642Y0372612D01*
X0021642Y0371613D02*
X0286264Y0371613D01*
X0286264Y0370615D02*
X0250163Y0370615D01*
X0250154Y0370624D02*
X0245877Y0370624D01*
X0245116Y0369862D01*
X0245116Y0367024D01*
X0244818Y0367024D01*
X0244437Y0366921D01*
X0244095Y0366724D01*
X0243815Y0366445D01*
X0243618Y0366103D01*
X0243516Y0365721D01*
X0243516Y0363024D01*
X0245116Y0363024D01*
X0245116Y0362185D01*
X0245277Y0362024D01*
X0243516Y0362024D01*
X0243516Y0359326D01*
X0243618Y0358945D01*
X0243815Y0358603D01*
X0244095Y0358323D01*
X0244437Y0358126D01*
X0244818Y0358024D01*
X0247516Y0358024D01*
X0247516Y0361424D01*
X0248516Y0361424D01*
X0248516Y0358024D01*
X0251213Y0358024D01*
X0251595Y0358126D01*
X0251937Y0358323D01*
X0252216Y0358603D01*
X0252414Y0358945D01*
X0252516Y0359326D01*
X0252516Y0362024D01*
X0250754Y0362024D01*
X0250916Y0362185D01*
X0250916Y0363024D01*
X0252516Y0363024D01*
X0252516Y0365721D01*
X0252414Y0366103D01*
X0252216Y0366445D01*
X0251937Y0366724D01*
X0251595Y0366921D01*
X0251213Y0367024D01*
X0250916Y0367024D01*
X0250916Y0369862D01*
X0250154Y0370624D01*
X0250916Y0369616D02*
X0286264Y0369616D01*
X0286264Y0368618D02*
X0250916Y0368618D01*
X0250916Y0367619D02*
X0286264Y0367619D01*
X0286264Y0366621D02*
X0252040Y0366621D01*
X0252516Y0365622D02*
X0286264Y0365622D01*
X0286264Y0364624D02*
X0252516Y0364624D01*
X0252516Y0363625D02*
X0286264Y0363625D01*
X0286264Y0362627D02*
X0250916Y0362627D01*
X0252516Y0361628D02*
X0286264Y0361628D01*
X0286264Y0360630D02*
X0252516Y0360630D01*
X0252516Y0359631D02*
X0286264Y0359631D01*
X0286264Y0358633D02*
X0252233Y0358633D01*
X0251554Y0356824D02*
X0244477Y0356824D01*
X0243716Y0356062D01*
X0243716Y0348985D01*
X0244477Y0348224D01*
X0245116Y0348224D01*
X0245116Y0345185D01*
X0245877Y0344424D01*
X0250154Y0344424D01*
X0250916Y0345185D01*
X0250916Y0348224D01*
X0251554Y0348224D01*
X0252316Y0348985D01*
X0252316Y0356062D01*
X0251554Y0356824D01*
X0251742Y0356636D02*
X0286264Y0356636D01*
X0286264Y0357634D02*
X0021642Y0357634D01*
X0021642Y0356636D02*
X0054289Y0356636D01*
X0054477Y0356824D02*
X0053716Y0356062D01*
X0053716Y0348985D01*
X0054477Y0348224D01*
X0055116Y0348224D01*
X0055116Y0345185D01*
X0055877Y0344424D01*
X0060154Y0344424D01*
X0060916Y0345185D01*
X0060916Y0348224D01*
X0061554Y0348224D01*
X0062316Y0348985D01*
X0062316Y0356062D01*
X0061554Y0356824D01*
X0054477Y0356824D01*
X0054477Y0358224D02*
X0061554Y0358224D01*
X0062316Y0358985D01*
X0062316Y0366062D01*
X0061554Y0366824D01*
X0060916Y0366824D01*
X0060916Y0369862D01*
X0060154Y0370624D01*
X0055877Y0370624D01*
X0055116Y0369862D01*
X0055116Y0366824D01*
X0054477Y0366824D01*
X0053716Y0366062D01*
X0053716Y0358985D01*
X0054477Y0358224D01*
X0054068Y0358633D02*
X0021642Y0358633D01*
X0021642Y0359631D02*
X0053716Y0359631D01*
X0053716Y0360630D02*
X0021642Y0360630D01*
X0021642Y0361628D02*
X0053716Y0361628D01*
X0053716Y0362627D02*
X0021642Y0362627D01*
X0021642Y0363625D02*
X0053716Y0363625D01*
X0053716Y0364624D02*
X0021642Y0364624D01*
X0021642Y0365622D02*
X0053716Y0365622D01*
X0054274Y0366621D02*
X0021642Y0366621D01*
X0021642Y0367619D02*
X0055116Y0367619D01*
X0055116Y0368618D02*
X0021642Y0368618D01*
X0021642Y0369616D02*
X0055116Y0369616D01*
X0055868Y0370615D02*
X0021642Y0370615D01*
X0021642Y0355637D02*
X0053716Y0355637D01*
X0053716Y0354639D02*
X0021642Y0354639D01*
X0021642Y0353640D02*
X0053716Y0353640D01*
X0053716Y0352642D02*
X0021642Y0352642D01*
X0021642Y0351643D02*
X0053716Y0351643D01*
X0053716Y0350645D02*
X0021642Y0350645D01*
X0021642Y0349646D02*
X0053716Y0349646D01*
X0054053Y0348647D02*
X0021642Y0348647D01*
X0021642Y0347649D02*
X0055116Y0347649D01*
X0055116Y0346650D02*
X0021642Y0346650D01*
X0021642Y0345652D02*
X0055116Y0345652D01*
X0055647Y0344653D02*
X0021642Y0344653D01*
X0021642Y0343655D02*
X0286264Y0343655D01*
X0286264Y0344653D02*
X0250384Y0344653D01*
X0250916Y0345652D02*
X0286264Y0345652D01*
X0286264Y0346650D02*
X0250916Y0346650D01*
X0250916Y0347649D02*
X0286264Y0347649D01*
X0286264Y0348647D02*
X0251978Y0348647D01*
X0252316Y0349646D02*
X0286264Y0349646D01*
X0286264Y0350645D02*
X0252316Y0350645D01*
X0252316Y0351643D02*
X0286264Y0351643D01*
X0286264Y0352642D02*
X0252316Y0352642D01*
X0252316Y0353640D02*
X0286264Y0353640D01*
X0286264Y0354639D02*
X0252316Y0354639D01*
X0252316Y0355637D02*
X0286264Y0355637D01*
X0286264Y0342656D02*
X0021642Y0342656D01*
X0021642Y0341658D02*
X0286264Y0341658D01*
X0286264Y0340659D02*
X0021642Y0340659D01*
X0021642Y0339661D02*
X0286264Y0339661D01*
X0286264Y0338662D02*
X0021642Y0338662D01*
X0021642Y0337664D02*
X0286264Y0337664D01*
X0286264Y0336665D02*
X0021642Y0336665D01*
X0021642Y0335667D02*
X0286264Y0335667D01*
X0286264Y0334668D02*
X0021642Y0334668D01*
X0021642Y0333670D02*
X0141674Y0333670D01*
X0141432Y0333428D02*
X0142194Y0334190D01*
X0156657Y0334190D01*
X0157418Y0333428D01*
X0157418Y0326052D01*
X0156657Y0325291D01*
X0142194Y0325291D01*
X0141432Y0326052D01*
X0141432Y0333428D01*
X0141432Y0332671D02*
X0021642Y0332671D01*
X0021642Y0331673D02*
X0141432Y0331673D01*
X0141432Y0330674D02*
X0021642Y0330674D01*
X0021642Y0329676D02*
X0141432Y0329676D01*
X0141432Y0328677D02*
X0021642Y0328677D01*
X0021642Y0327679D02*
X0141432Y0327679D01*
X0141432Y0326680D02*
X0021642Y0326680D01*
X0021642Y0325682D02*
X0083460Y0325682D01*
X0083191Y0325570D02*
X0082159Y0325143D01*
X0080837Y0323821D01*
X0080837Y0323821D01*
X0079302Y0322286D01*
X0078587Y0320558D01*
X0078587Y0318689D01*
X0078835Y0318089D01*
X0078587Y0317489D01*
X0078587Y0315619D01*
X0079302Y0313892D01*
X0080624Y0312570D01*
X0082352Y0311854D01*
X0087291Y0311854D01*
X0087507Y0311944D01*
X0087723Y0311854D01*
X0090203Y0311854D01*
X0091127Y0311854D01*
X0091127Y0311854D01*
X0091127Y0311854D01*
X0092522Y0312432D01*
X0092855Y0312570D01*
X0093562Y0313277D01*
X0093622Y0313337D01*
X0093622Y0313337D01*
X0094237Y0313952D01*
X0094944Y0314659D01*
X0094944Y0314659D01*
X0094944Y0314659D01*
X0095478Y0315947D01*
X0095660Y0316387D01*
X0095660Y0317311D01*
X0095660Y0318256D01*
X0095660Y0318257D01*
X0095660Y0321326D01*
X0094944Y0323053D01*
X0093622Y0324375D01*
X0092855Y0325143D01*
X0091127Y0325858D01*
X0089593Y0325858D01*
X0089593Y0325858D01*
X0088668Y0325858D01*
X0087723Y0325858D01*
X0087723Y0325858D01*
X0087723Y0325858D01*
X0087324Y0325693D01*
X0086740Y0325451D01*
X0085756Y0325858D01*
X0083886Y0325858D01*
X0083191Y0325570D01*
X0081699Y0324683D02*
X0021642Y0324683D01*
X0021642Y0323685D02*
X0080701Y0323685D01*
X0079702Y0322686D02*
X0021642Y0322686D01*
X0021642Y0321688D02*
X0079054Y0321688D01*
X0078641Y0320689D02*
X0021642Y0320689D01*
X0021642Y0319691D02*
X0078587Y0319691D01*
X0078587Y0318692D02*
X0021642Y0318692D01*
X0021642Y0317694D02*
X0078671Y0317694D01*
X0078587Y0316695D02*
X0021642Y0316695D01*
X0021642Y0315697D02*
X0078587Y0315697D01*
X0078968Y0314698D02*
X0021642Y0314698D01*
X0021642Y0313700D02*
X0079495Y0313700D01*
X0080493Y0312701D02*
X0021642Y0312701D01*
X0021642Y0311703D02*
X0144385Y0311703D01*
X0144385Y0312701D02*
X0092986Y0312701D01*
X0092855Y0312570D02*
X0092855Y0312570D01*
X0092855Y0312570D01*
X0093985Y0313700D02*
X0144385Y0313700D01*
X0144385Y0314698D02*
X0094960Y0314698D01*
X0095374Y0315697D02*
X0183480Y0315697D01*
X0183480Y0316381D02*
X0183480Y0305304D01*
X0184241Y0304543D01*
X0195318Y0304543D01*
X0196080Y0305304D01*
X0196080Y0316381D01*
X0195318Y0317143D01*
X0184241Y0317143D01*
X0183480Y0316381D01*
X0183794Y0316695D02*
X0095660Y0316695D01*
X0095660Y0316387D02*
X0095660Y0316387D01*
X0095660Y0316387D01*
X0095660Y0317694D02*
X0144476Y0317694D01*
X0144385Y0317784D02*
X0145147Y0317023D01*
X0167877Y0317023D01*
X0168639Y0317784D01*
X0168639Y0322798D01*
X0167877Y0323560D01*
X0145147Y0323560D01*
X0144385Y0322798D01*
X0144385Y0317784D01*
X0144385Y0318692D02*
X0095660Y0318692D01*
X0095660Y0319691D02*
X0144385Y0319691D01*
X0144385Y0320689D02*
X0095660Y0320689D01*
X0095510Y0321688D02*
X0144385Y0321688D01*
X0144385Y0322686D02*
X0095096Y0322686D01*
X0094313Y0323685D02*
X0183480Y0323685D01*
X0183480Y0324683D02*
X0093314Y0324683D01*
X0091554Y0325682D02*
X0141803Y0325682D01*
X0145147Y0315686D02*
X0144385Y0314924D01*
X0144385Y0309910D01*
X0145147Y0309149D01*
X0167877Y0309149D01*
X0168639Y0309910D01*
X0168639Y0314924D01*
X0167877Y0315686D01*
X0145147Y0315686D01*
X0144385Y0310704D02*
X0021642Y0310704D01*
X0021642Y0309706D02*
X0144590Y0309706D01*
X0142194Y0307418D02*
X0141432Y0306657D01*
X0141432Y0299280D01*
X0142194Y0298519D01*
X0156657Y0298519D01*
X0157418Y0299280D01*
X0157418Y0306657D01*
X0156657Y0307418D01*
X0142194Y0307418D01*
X0141486Y0306710D02*
X0021642Y0306710D01*
X0021642Y0305712D02*
X0141432Y0305712D01*
X0141432Y0304713D02*
X0021642Y0304713D01*
X0021642Y0303714D02*
X0141432Y0303714D01*
X0141432Y0302716D02*
X0021642Y0302716D01*
X0021642Y0301717D02*
X0141432Y0301717D01*
X0141432Y0300719D02*
X0021642Y0300719D01*
X0021642Y0299720D02*
X0141432Y0299720D01*
X0141991Y0298722D02*
X0021642Y0298722D01*
X0021642Y0297723D02*
X0286264Y0297723D01*
X0286264Y0296725D02*
X0021642Y0296725D01*
X0021642Y0295726D02*
X0286264Y0295726D01*
X0286264Y0294728D02*
X0021642Y0294728D01*
X0021642Y0293729D02*
X0286264Y0293729D01*
X0286264Y0292731D02*
X0021642Y0292731D01*
X0021642Y0291732D02*
X0286264Y0291732D01*
X0286264Y0290734D02*
X0021642Y0290734D01*
X0021642Y0289735D02*
X0286264Y0289735D01*
X0286264Y0288737D02*
X0196080Y0288737D01*
X0196080Y0288822D02*
X0195318Y0289583D01*
X0184241Y0289583D01*
X0183480Y0288822D01*
X0183480Y0277745D01*
X0184241Y0276983D01*
X0195318Y0276983D01*
X0196080Y0277745D01*
X0196080Y0288822D01*
X0196080Y0287738D02*
X0286264Y0287738D01*
X0286264Y0286740D02*
X0196080Y0286740D01*
X0196080Y0285741D02*
X0286264Y0285741D01*
X0286264Y0284743D02*
X0196080Y0284743D01*
X0196080Y0283744D02*
X0286264Y0283744D01*
X0286264Y0282746D02*
X0196080Y0282746D01*
X0196080Y0281747D02*
X0286264Y0281747D01*
X0286264Y0280749D02*
X0196080Y0280749D01*
X0196080Y0279750D02*
X0286264Y0279750D01*
X0286264Y0278752D02*
X0196080Y0278752D01*
X0196080Y0277753D02*
X0286264Y0277753D01*
X0286264Y0276755D02*
X0021642Y0276755D01*
X0021642Y0277753D02*
X0183480Y0277753D01*
X0183480Y0278752D02*
X0021642Y0278752D01*
X0021642Y0279750D02*
X0183480Y0279750D01*
X0183480Y0280749D02*
X0021642Y0280749D01*
X0021642Y0281747D02*
X0183480Y0281747D01*
X0183480Y0282746D02*
X0021642Y0282746D01*
X0021642Y0283744D02*
X0183480Y0283744D01*
X0183480Y0284743D02*
X0021642Y0284743D01*
X0021642Y0285741D02*
X0183480Y0285741D01*
X0183480Y0286740D02*
X0021642Y0286740D01*
X0021642Y0287738D02*
X0183480Y0287738D01*
X0183480Y0288737D02*
X0021642Y0288737D01*
X0021642Y0275756D02*
X0286264Y0275756D01*
X0275518Y0274758D02*
X0196024Y0274758D01*
X0195980Y0274834D02*
X0195701Y0275114D01*
X0195359Y0275311D01*
X0194977Y0275413D01*
X0190279Y0275413D01*
X0190279Y0269413D01*
X0189280Y0269413D01*
X0189280Y0275413D01*
X0184582Y0275413D01*
X0184201Y0275311D01*
X0183859Y0275114D01*
X0183579Y0274834D01*
X0183382Y0274492D01*
X0183280Y0274111D01*
X0183280Y0269413D01*
X0189279Y0269413D01*
X0189279Y0268413D01*
X0183280Y0268413D01*
X0183280Y0263716D01*
X0183382Y0263334D01*
X0183579Y0262992D01*
X0183859Y0262713D01*
X0184201Y0262516D01*
X0184582Y0262413D01*
X0189280Y0262413D01*
X0189280Y0268413D01*
X0190279Y0268413D01*
X0190279Y0262413D01*
X0194977Y0262413D01*
X0195359Y0262516D01*
X0195701Y0262713D01*
X0195980Y0262992D01*
X0196177Y0263334D01*
X0196280Y0263716D01*
X0196280Y0268413D01*
X0190280Y0268413D01*
X0190280Y0269413D01*
X0196280Y0269413D01*
X0196280Y0274111D01*
X0196177Y0274492D01*
X0195980Y0274834D01*
X0196280Y0273759D02*
X0275212Y0273759D01*
X0275212Y0272761D02*
X0196280Y0272761D01*
X0196280Y0271762D02*
X0275212Y0271762D01*
X0275212Y0270764D02*
X0196280Y0270764D01*
X0196280Y0269765D02*
X0275212Y0269765D01*
X0275212Y0268767D02*
X0190280Y0268767D01*
X0190279Y0269765D02*
X0189280Y0269765D01*
X0189279Y0268767D02*
X0021642Y0268767D01*
X0021642Y0269765D02*
X0183280Y0269765D01*
X0183280Y0270764D02*
X0021642Y0270764D01*
X0021642Y0271762D02*
X0183280Y0271762D01*
X0183280Y0272761D02*
X0021642Y0272761D01*
X0021642Y0273759D02*
X0183280Y0273759D01*
X0183535Y0274758D02*
X0021642Y0274758D01*
X0021642Y0267768D02*
X0183280Y0267768D01*
X0183280Y0266770D02*
X0021642Y0266770D01*
X0021642Y0265771D02*
X0183280Y0265771D01*
X0183280Y0264773D02*
X0021642Y0264773D01*
X0021642Y0263774D02*
X0183280Y0263774D01*
X0183796Y0262776D02*
X0021642Y0262776D01*
X0021642Y0261777D02*
X0286264Y0261777D01*
X0286264Y0260778D02*
X0021642Y0260778D01*
X0021642Y0259780D02*
X0286264Y0259780D01*
X0286264Y0258781D02*
X0021642Y0258781D01*
X0021642Y0257783D02*
X0286264Y0257783D01*
X0286264Y0256784D02*
X0021642Y0256784D01*
X0021642Y0255786D02*
X0286264Y0255786D01*
X0286264Y0254787D02*
X0021642Y0254787D01*
X0021642Y0253789D02*
X0286264Y0253789D01*
X0286264Y0252790D02*
X0021642Y0252790D01*
X0021642Y0251792D02*
X0286264Y0251792D01*
X0286264Y0250793D02*
X0021642Y0250793D01*
X0021642Y0249795D02*
X0286264Y0249795D01*
X0286264Y0248796D02*
X0021642Y0248796D01*
X0021642Y0247798D02*
X0286264Y0247798D01*
X0286264Y0246799D02*
X0021642Y0246799D01*
X0021642Y0245801D02*
X0286264Y0245801D01*
X0286264Y0244802D02*
X0021642Y0244802D01*
X0021642Y0243804D02*
X0286264Y0243804D01*
X0286264Y0242805D02*
X0021642Y0242805D01*
X0021642Y0241807D02*
X0286264Y0241807D01*
X0286264Y0240808D02*
X0021642Y0240808D01*
X0021642Y0239810D02*
X0286264Y0239810D01*
X0286264Y0238811D02*
X0021642Y0238811D01*
X0021642Y0237813D02*
X0286264Y0237813D01*
X0286264Y0236814D02*
X0021642Y0236814D01*
X0021642Y0235816D02*
X0286264Y0235816D01*
X0286264Y0234817D02*
X0021642Y0234817D01*
X0021642Y0233819D02*
X0286264Y0233819D01*
X0286264Y0232820D02*
X0021642Y0232820D01*
X0021642Y0231822D02*
X0286264Y0231822D01*
X0286264Y0230823D02*
X0021642Y0230823D01*
X0021642Y0229825D02*
X0286264Y0229825D01*
X0286264Y0228826D02*
X0021642Y0228826D01*
X0021642Y0227828D02*
X0286264Y0227828D01*
X0286264Y0226829D02*
X0021642Y0226829D01*
X0021642Y0225831D02*
X0286264Y0225831D01*
X0286264Y0224832D02*
X0021642Y0224832D01*
X0021642Y0223834D02*
X0286264Y0223834D01*
X0286264Y0222835D02*
X0021642Y0222835D01*
X0021642Y0221837D02*
X0286264Y0221837D01*
X0286264Y0220838D02*
X0021642Y0220838D01*
X0021642Y0219840D02*
X0286264Y0219840D01*
X0286264Y0218841D02*
X0021642Y0218841D01*
X0021642Y0217843D02*
X0286264Y0217843D01*
X0286264Y0216844D02*
X0021642Y0216844D01*
X0021642Y0215845D02*
X0286264Y0215845D01*
X0286264Y0214847D02*
X0021642Y0214847D01*
X0021791Y0213848D02*
X0286264Y0213848D01*
X0286264Y0212850D02*
X0023000Y0212850D01*
X0024190Y0211851D02*
X0286264Y0211851D01*
X0286264Y0210853D02*
X0024832Y0210853D01*
X0025409Y0209854D02*
X0286264Y0209854D01*
X0286264Y0208856D02*
X0025956Y0208856D01*
X0025944Y0208928D02*
X0025944Y0208928D01*
X0026132Y0207857D02*
X0286264Y0207857D01*
X0286264Y0206859D02*
X0026308Y0206859D01*
X0026484Y0205860D02*
X0286264Y0205860D01*
X0286264Y0204862D02*
X0026356Y0204862D01*
X0026180Y0203863D02*
X0286264Y0203863D01*
X0286264Y0202865D02*
X0026004Y0202865D01*
X0025944Y0202521D02*
X0025944Y0202521D01*
X0025566Y0201866D02*
X0286264Y0201866D01*
X0286264Y0200868D02*
X0024989Y0200868D01*
X0024413Y0199869D02*
X0286264Y0199869D01*
X0286264Y0198871D02*
X0023325Y0198871D01*
X0024317Y0199704D02*
X0024317Y0199704D01*
X0024317Y0199704D01*
X0022135Y0197872D02*
X0286264Y0197872D01*
X0286264Y0196874D02*
X0021642Y0196874D01*
X0021825Y0197613D02*
X0021825Y0197613D01*
X0021642Y0195875D02*
X0286264Y0195875D01*
X0286264Y0194877D02*
X0021642Y0194877D01*
X0021642Y0193878D02*
X0286264Y0193878D01*
X0286264Y0192880D02*
X0021642Y0192880D01*
X0021642Y0191881D02*
X0286264Y0191881D01*
X0286264Y0190883D02*
X0021642Y0190883D01*
X0021642Y0189884D02*
X0286264Y0189884D01*
X0286264Y0188886D02*
X0021642Y0188886D01*
X0021642Y0187887D02*
X0226609Y0187887D01*
X0228165Y0188197D02*
X0224628Y0187493D01*
X0221629Y0185489D01*
X0219625Y0182490D01*
X0218921Y0178953D01*
X0219625Y0175415D01*
X0221629Y0172416D01*
X0224628Y0170412D01*
X0228165Y0169709D01*
X0228165Y0169709D01*
X0231703Y0170412D01*
X0234702Y0172416D01*
X0234702Y0172416D01*
X0234702Y0172416D01*
X0236706Y0175415D01*
X0237409Y0178953D01*
X0236706Y0182490D01*
X0236706Y0182490D01*
X0234702Y0185489D01*
X0234702Y0185489D01*
X0231703Y0187493D01*
X0231703Y0187493D01*
X0228165Y0188197D01*
X0228165Y0188197D01*
X0229722Y0187887D02*
X0286264Y0187887D01*
X0286264Y0186889D02*
X0232608Y0186889D01*
X0234102Y0185890D02*
X0286264Y0185890D01*
X0286264Y0184892D02*
X0235101Y0184892D01*
X0234702Y0185489D02*
X0234702Y0185489D01*
X0235768Y0183893D02*
X0286264Y0183893D01*
X0286264Y0182895D02*
X0236436Y0182895D01*
X0236824Y0181896D02*
X0286264Y0181896D01*
X0286264Y0180898D02*
X0237023Y0180898D01*
X0237221Y0179899D02*
X0286264Y0179899D01*
X0286264Y0178901D02*
X0237399Y0178901D01*
X0237200Y0177902D02*
X0286264Y0177902D01*
X0286264Y0176904D02*
X0237002Y0176904D01*
X0236803Y0175905D02*
X0286264Y0175905D01*
X0286264Y0174907D02*
X0236366Y0174907D01*
X0236706Y0175415D02*
X0236706Y0175415D01*
X0235699Y0173908D02*
X0286264Y0173908D01*
X0286264Y0172909D02*
X0235032Y0172909D01*
X0233946Y0171911D02*
X0286264Y0171911D01*
X0286264Y0170912D02*
X0232451Y0170912D01*
X0231703Y0170412D02*
X0231703Y0170412D01*
X0229197Y0169914D02*
X0286264Y0169914D01*
X0286264Y0168915D02*
X0021642Y0168915D01*
X0021642Y0167917D02*
X0286264Y0167917D01*
X0286264Y0166918D02*
X0021642Y0166918D01*
X0021642Y0165920D02*
X0286264Y0165920D01*
X0286264Y0164921D02*
X0021642Y0164921D01*
X0021642Y0163923D02*
X0286264Y0163923D01*
X0286264Y0162924D02*
X0021642Y0162924D01*
X0021642Y0161926D02*
X0286264Y0161926D01*
X0286264Y0160927D02*
X0021642Y0160927D01*
X0021642Y0159929D02*
X0286264Y0159929D01*
X0286264Y0158930D02*
X0021642Y0158930D01*
X0021642Y0157932D02*
X0128121Y0157932D01*
X0128171Y0157966D02*
X0125172Y0155962D01*
X0125172Y0155962D01*
X0125172Y0155962D01*
X0123168Y0152963D01*
X0123168Y0152963D01*
X0122465Y0149425D01*
X0123168Y0145888D01*
X0123168Y0145888D01*
X0125172Y0142889D01*
X0128171Y0140885D01*
X0131709Y0140181D01*
X0135246Y0140885D01*
X0138245Y0142889D01*
X0140249Y0145888D01*
X0140953Y0149425D01*
X0140249Y0152963D01*
X0138245Y0155962D01*
X0135246Y0157966D01*
X0131709Y0158669D01*
X0131709Y0158669D01*
X0128171Y0157966D01*
X0128171Y0157966D01*
X0126626Y0156933D02*
X0021642Y0156933D01*
X0021642Y0155935D02*
X0125154Y0155935D01*
X0124487Y0154936D02*
X0021642Y0154936D01*
X0021642Y0153938D02*
X0123820Y0153938D01*
X0123164Y0152939D02*
X0021642Y0152939D01*
X0021642Y0151941D02*
X0122965Y0151941D01*
X0122766Y0150942D02*
X0021642Y0150942D01*
X0021642Y0149944D02*
X0122568Y0149944D01*
X0122465Y0149425D02*
X0122465Y0149425D01*
X0122560Y0148945D02*
X0021642Y0148945D01*
X0021642Y0147947D02*
X0122759Y0147947D01*
X0122957Y0146948D02*
X0021642Y0146948D01*
X0021642Y0145950D02*
X0123156Y0145950D01*
X0123794Y0144951D02*
X0021642Y0144951D01*
X0021642Y0143953D02*
X0124461Y0143953D01*
X0125128Y0142954D02*
X0021642Y0142954D01*
X0021642Y0141956D02*
X0126568Y0141956D01*
X0125172Y0142889D02*
X0125172Y0142889D01*
X0128063Y0140957D02*
X0021642Y0140957D01*
X0021642Y0139959D02*
X0230807Y0139959D01*
X0230732Y0139583D02*
X0230732Y0139583D01*
X0231436Y0143120D01*
X0231436Y0143120D01*
X0233440Y0146119D01*
X0233440Y0146119D01*
X0233440Y0146119D01*
X0236439Y0148123D01*
X0236439Y0148123D01*
X0239976Y0148827D01*
X0239976Y0148827D01*
X0243514Y0148123D01*
X0243514Y0148123D01*
X0246513Y0146119D01*
X0246513Y0146119D01*
X0248517Y0143120D01*
X0248517Y0143120D01*
X0249220Y0139583D01*
X0248517Y0136045D01*
X0246513Y0133046D01*
X0246513Y0133046D01*
X0243514Y0131042D01*
X0243514Y0131042D01*
X0239976Y0130339D01*
X0239976Y0130339D01*
X0236439Y0131042D01*
X0236439Y0131042D01*
X0233440Y0133046D01*
X0233440Y0133046D01*
X0233440Y0133046D01*
X0231436Y0136045D01*
X0231436Y0136045D01*
X0230732Y0139583D01*
X0230856Y0138960D02*
X0021642Y0138960D01*
X0021642Y0137962D02*
X0231055Y0137962D01*
X0231253Y0136963D02*
X0021642Y0136963D01*
X0021642Y0135965D02*
X0231490Y0135965D01*
X0232157Y0134966D02*
X0021642Y0134966D01*
X0021642Y0133968D02*
X0232824Y0133968D01*
X0233555Y0132969D02*
X0112979Y0132969D01*
X0113986Y0132769D02*
X0110449Y0133472D01*
X0106911Y0132769D01*
X0103912Y0130765D01*
X0101908Y0127766D01*
X0101205Y0124228D01*
X0101908Y0120691D01*
X0103912Y0117692D01*
X0103912Y0117692D01*
X0103912Y0117692D01*
X0106911Y0115688D01*
X0106911Y0115688D01*
X0110449Y0114984D01*
X0113986Y0115688D01*
X0113986Y0115688D01*
X0116985Y0117692D01*
X0118989Y0120691D01*
X0119693Y0124228D01*
X0118989Y0127766D01*
X0116985Y0130765D01*
X0113986Y0132769D01*
X0113986Y0132769D01*
X0115181Y0131971D02*
X0235050Y0131971D01*
X0236792Y0130972D02*
X0116675Y0130972D01*
X0116985Y0130765D02*
X0116985Y0130765D01*
X0116985Y0130765D01*
X0117514Y0129974D02*
X0272259Y0129974D01*
X0272071Y0130921D02*
X0272071Y0130921D01*
X0272081Y0130972D02*
X0243161Y0130972D01*
X0244903Y0131971D02*
X0272280Y0131971D01*
X0272478Y0132969D02*
X0246398Y0132969D01*
X0247129Y0133968D02*
X0272677Y0133968D01*
X0273113Y0134966D02*
X0247796Y0134966D01*
X0248463Y0135965D02*
X0273781Y0135965D01*
X0274448Y0136963D02*
X0248699Y0136963D01*
X0248517Y0136045D02*
X0248517Y0136045D01*
X0248898Y0137962D02*
X0275532Y0137962D01*
X0274778Y0137458D02*
X0274778Y0137458D01*
X0274778Y0137458D01*
X0277027Y0138960D02*
X0249097Y0138960D01*
X0249146Y0139959D02*
X0280276Y0139959D01*
X0281315Y0140165D02*
X0281315Y0140165D01*
X0282354Y0139959D02*
X0286264Y0139959D01*
X0286264Y0140957D02*
X0248947Y0140957D01*
X0248748Y0141956D02*
X0286264Y0141956D01*
X0286264Y0142954D02*
X0248550Y0142954D01*
X0247961Y0143953D02*
X0286264Y0143953D01*
X0286264Y0144951D02*
X0247293Y0144951D01*
X0246626Y0145950D02*
X0286264Y0145950D01*
X0286264Y0146948D02*
X0245272Y0146948D01*
X0246513Y0146119D02*
X0246513Y0146119D01*
X0243778Y0147947D02*
X0286264Y0147947D01*
X0286264Y0148945D02*
X0140857Y0148945D01*
X0140850Y0149944D02*
X0286264Y0149944D01*
X0286264Y0150942D02*
X0140651Y0150942D01*
X0140452Y0151941D02*
X0286264Y0151941D01*
X0286264Y0152939D02*
X0140254Y0152939D01*
X0140249Y0152963D02*
X0140249Y0152963D01*
X0139598Y0153938D02*
X0286264Y0153938D01*
X0286264Y0154936D02*
X0138930Y0154936D01*
X0138263Y0155935D02*
X0286264Y0155935D01*
X0286264Y0156933D02*
X0136791Y0156933D01*
X0138245Y0155962D02*
X0138245Y0155962D01*
X0138245Y0155962D01*
X0135297Y0157932D02*
X0286264Y0157932D01*
X0284853Y0139462D02*
X0284853Y0139462D01*
X0285603Y0138960D02*
X0286264Y0138960D01*
X0277777Y0139462D02*
X0277777Y0139462D01*
X0272458Y0128975D02*
X0118181Y0128975D01*
X0118849Y0127976D02*
X0272657Y0127976D01*
X0273046Y0126978D02*
X0119146Y0126978D01*
X0118989Y0127766D02*
X0118989Y0127766D01*
X0119345Y0125979D02*
X0273713Y0125979D01*
X0274380Y0124981D02*
X0119543Y0124981D01*
X0119644Y0123982D02*
X0275380Y0123982D01*
X0276875Y0122984D02*
X0119445Y0122984D01*
X0119247Y0121985D02*
X0279765Y0121985D01*
X0281315Y0121677D02*
X0281315Y0121677D01*
X0282865Y0121985D02*
X0286264Y0121985D01*
X0286264Y0120987D02*
X0119048Y0120987D01*
X0118989Y0120691D02*
X0118989Y0120691D01*
X0118520Y0119988D02*
X0286264Y0119988D01*
X0286264Y0118990D02*
X0117853Y0118990D01*
X0117186Y0117991D02*
X0286264Y0117991D01*
X0286264Y0116993D02*
X0115939Y0116993D01*
X0116985Y0117692D02*
X0116985Y0117692D01*
X0116985Y0117692D01*
X0114445Y0115994D02*
X0286264Y0115994D01*
X0286264Y0114996D02*
X0110507Y0114996D01*
X0110449Y0114984D02*
X0110449Y0114984D01*
X0110391Y0114996D02*
X0033143Y0114996D01*
X0032476Y0115994D02*
X0106453Y0115994D01*
X0106512Y0114575D02*
X0102974Y0113871D01*
X0099975Y0111867D01*
X0097971Y0108868D01*
X0097268Y0105331D01*
X0097971Y0101793D01*
X0099975Y0098794D01*
X0099975Y0098794D01*
X0102974Y0096790D01*
X0106512Y0096087D01*
X0110049Y0096790D01*
X0113048Y0098794D01*
X0113048Y0098794D01*
X0115052Y0101793D01*
X0115756Y0105331D01*
X0115052Y0108868D01*
X0115052Y0108868D01*
X0113048Y0111867D01*
X0110049Y0113871D01*
X0106512Y0114575D01*
X0106512Y0114575D01*
X0104958Y0116993D02*
X0031150Y0116993D01*
X0029656Y0117991D02*
X0103712Y0117991D01*
X0103045Y0118990D02*
X0021642Y0118990D01*
X0021642Y0119988D02*
X0102378Y0119988D01*
X0101908Y0120691D02*
X0101908Y0120691D01*
X0101849Y0120987D02*
X0021642Y0120987D01*
X0021642Y0121985D02*
X0101651Y0121985D01*
X0101452Y0122984D02*
X0021642Y0122984D01*
X0021642Y0123982D02*
X0101254Y0123982D01*
X0101205Y0124228D02*
X0101205Y0124228D01*
X0101354Y0124981D02*
X0021642Y0124981D01*
X0021642Y0125979D02*
X0101553Y0125979D01*
X0101752Y0126978D02*
X0021642Y0126978D01*
X0021642Y0127976D02*
X0102049Y0127976D01*
X0101908Y0127766D02*
X0101908Y0127766D01*
X0102716Y0128975D02*
X0021642Y0128975D01*
X0021642Y0129974D02*
X0103383Y0129974D01*
X0103912Y0130765D02*
X0103912Y0130765D01*
X0103912Y0130765D01*
X0104222Y0130972D02*
X0021642Y0130972D01*
X0021642Y0131971D02*
X0105717Y0131971D01*
X0106911Y0132769D02*
X0106911Y0132769D01*
X0107918Y0132969D02*
X0021642Y0132969D01*
X0025803Y0118905D02*
X0025803Y0118905D01*
X0021951Y0117991D02*
X0021642Y0117991D01*
X0033810Y0113997D02*
X0103609Y0113997D01*
X0102974Y0113871D02*
X0102974Y0113871D01*
X0101669Y0112999D02*
X0034383Y0112999D01*
X0034344Y0113199D02*
X0034344Y0113199D01*
X0034582Y0112000D02*
X0100174Y0112000D01*
X0099975Y0111867D02*
X0099975Y0111867D01*
X0099397Y0111002D02*
X0034781Y0111002D01*
X0034979Y0110003D02*
X0098730Y0110003D01*
X0098063Y0109005D02*
X0034917Y0109005D01*
X0034718Y0108006D02*
X0097800Y0108006D01*
X0097971Y0108868D02*
X0097971Y0108868D01*
X0097601Y0107008D02*
X0034519Y0107008D01*
X0034344Y0106124D02*
X0034344Y0106124D01*
X0034267Y0106009D02*
X0097403Y0106009D01*
X0097268Y0105331D02*
X0097268Y0105331D01*
X0097331Y0105011D02*
X0033600Y0105011D01*
X0032933Y0104012D02*
X0097530Y0104012D01*
X0097729Y0103014D02*
X0032173Y0103014D01*
X0032340Y0103125D02*
X0032340Y0103125D01*
X0032340Y0103125D01*
X0030679Y0102015D02*
X0097927Y0102015D01*
X0098490Y0101017D02*
X0028816Y0101017D01*
X0029341Y0101121D02*
X0029341Y0101121D01*
X0025803Y0100417D02*
X0025803Y0100417D01*
X0022790Y0101017D02*
X0021642Y0101017D01*
X0022266Y0101121D02*
X0022266Y0101121D01*
X0021642Y0100018D02*
X0099157Y0100018D01*
X0099825Y0099020D02*
X0021642Y0099020D01*
X0021642Y0098021D02*
X0101132Y0098021D01*
X0102627Y0097023D02*
X0021642Y0097023D01*
X0021642Y0096024D02*
X0286264Y0096024D01*
X0286264Y0095026D02*
X0021642Y0095026D01*
X0021642Y0094027D02*
X0286264Y0094027D01*
X0286264Y0093029D02*
X0021642Y0093029D01*
X0021642Y0092030D02*
X0286264Y0092030D01*
X0286264Y0091032D02*
X0021642Y0091032D01*
X0021642Y0090033D02*
X0286264Y0090033D01*
X0286264Y0089035D02*
X0178780Y0089035D01*
X0178507Y0089308D02*
X0179268Y0088546D01*
X0179268Y0077627D01*
X0178507Y0076865D01*
X0169556Y0076865D01*
X0168794Y0077627D01*
X0168794Y0088546D01*
X0169556Y0089308D01*
X0178507Y0089308D01*
X0179268Y0088036D02*
X0213462Y0088036D01*
X0211973Y0087038D02*
X0179268Y0087038D01*
X0179268Y0086039D02*
X0211199Y0086039D01*
X0210786Y0085041D02*
X0179268Y0085041D01*
X0179268Y0084042D02*
X0210673Y0084042D01*
X0210673Y0083043D02*
X0179268Y0083043D01*
X0179268Y0082045D02*
X0210673Y0082045D01*
X0210673Y0081046D02*
X0179268Y0081046D01*
X0179268Y0080048D02*
X0210673Y0080048D01*
X0210673Y0079049D02*
X0179268Y0079049D01*
X0179268Y0078051D02*
X0210673Y0078051D01*
X0210673Y0077052D02*
X0178694Y0077052D01*
X0175858Y0069570D02*
X0172757Y0070854D01*
X0169401Y0070854D01*
X0166300Y0069570D01*
X0163926Y0067196D01*
X0163717Y0066692D01*
X0163717Y0071617D01*
X0162956Y0072379D01*
X0152036Y0072379D01*
X0151275Y0071617D01*
X0151275Y0062666D01*
X0152036Y0061905D01*
X0162642Y0061905D01*
X0162642Y0060739D01*
X0163926Y0057638D01*
X0166300Y0055265D01*
X0169401Y0053980D01*
X0172757Y0053980D01*
X0175858Y0055265D01*
X0178231Y0057638D01*
X0179516Y0060739D01*
X0179516Y0064096D01*
X0178231Y0067196D01*
X0175858Y0069570D01*
X0176363Y0069064D02*
X0194779Y0069064D01*
X0194779Y0068066D02*
X0177362Y0068066D01*
X0178285Y0067067D02*
X0194779Y0067067D01*
X0194779Y0066069D02*
X0178698Y0066069D01*
X0179112Y0065070D02*
X0194779Y0065070D01*
X0194779Y0065028D02*
X0195280Y0064527D01*
X0195075Y0064323D01*
X0194878Y0063981D01*
X0194776Y0063599D01*
X0194776Y0060949D01*
X0198335Y0060949D01*
X0198335Y0059949D01*
X0199335Y0059949D01*
X0199335Y0056831D01*
X0198744Y0056831D01*
X0198744Y0053075D01*
X0197744Y0053075D01*
X0197744Y0055996D01*
X0198335Y0055996D01*
X0198335Y0059949D01*
X0194776Y0059949D01*
X0194776Y0057299D01*
X0194878Y0056917D01*
X0195075Y0056575D01*
X0195139Y0056512D01*
X0194878Y0056252D01*
X0194681Y0055910D01*
X0194579Y0055528D01*
X0194579Y0053075D01*
X0197744Y0053075D01*
X0197744Y0052075D01*
X0194579Y0052075D01*
X0194579Y0049621D01*
X0194681Y0049240D01*
X0194878Y0048898D01*
X0195158Y0048619D01*
X0195313Y0048529D01*
X0194976Y0048192D01*
X0194976Y0041210D01*
X0195737Y0040448D01*
X0201932Y0040448D01*
X0202181Y0040697D01*
X0202430Y0040448D01*
X0208625Y0040448D01*
X0209387Y0041210D01*
X0209387Y0048192D01*
X0208941Y0048638D01*
X0209583Y0049280D01*
X0209583Y0055869D01*
X0208941Y0056512D01*
X0209387Y0056958D01*
X0209387Y0063940D01*
X0208941Y0064386D01*
X0209583Y0065028D01*
X0209583Y0071617D01*
X0208822Y0072379D01*
X0203414Y0072379D01*
X0202653Y0071617D01*
X0202653Y0065028D01*
X0202980Y0064702D01*
X0202430Y0064702D01*
X0202323Y0064594D01*
X0202315Y0064602D01*
X0201973Y0064799D01*
X0201591Y0064902D01*
X0201583Y0064902D01*
X0201709Y0065028D01*
X0201709Y0071617D01*
X0200948Y0072379D01*
X0195540Y0072379D01*
X0194779Y0071617D01*
X0194779Y0065028D01*
X0194930Y0064072D02*
X0179516Y0064072D01*
X0179516Y0063073D02*
X0194776Y0063073D01*
X0194776Y0062075D02*
X0179516Y0062075D01*
X0179516Y0061076D02*
X0194776Y0061076D01*
X0194776Y0059079D02*
X0178828Y0059079D01*
X0178415Y0058081D02*
X0194776Y0058081D01*
X0194834Y0057082D02*
X0177675Y0057082D01*
X0176677Y0056084D02*
X0194781Y0056084D01*
X0194579Y0055085D02*
X0175424Y0055085D01*
X0173014Y0054087D02*
X0194579Y0054087D01*
X0194579Y0053088D02*
X0146638Y0053088D01*
X0146689Y0053177D02*
X0146791Y0053558D01*
X0146791Y0056012D01*
X0143626Y0056012D01*
X0143626Y0057012D01*
X0146791Y0057012D01*
X0146791Y0059465D01*
X0146689Y0059847D01*
X0146492Y0060189D01*
X0146212Y0060468D01*
X0146057Y0060557D01*
X0146394Y0060895D01*
X0146394Y0067877D01*
X0145633Y0068639D01*
X0139438Y0068639D01*
X0139189Y0068390D01*
X0138940Y0068639D01*
X0132745Y0068639D01*
X0131983Y0067877D01*
X0131983Y0060895D01*
X0132429Y0060449D01*
X0131787Y0059806D01*
X0131787Y0053217D01*
X0132429Y0052575D01*
X0131983Y0052129D01*
X0131983Y0045147D01*
X0132429Y0044701D01*
X0131787Y0044058D01*
X0131787Y0037469D01*
X0132548Y0036708D01*
X0137956Y0036708D01*
X0138717Y0037469D01*
X0138717Y0044058D01*
X0138390Y0044385D01*
X0138940Y0044385D01*
X0139048Y0044493D01*
X0139055Y0044485D01*
X0139397Y0044287D01*
X0139779Y0044185D01*
X0139788Y0044185D01*
X0139661Y0044058D01*
X0139661Y0037469D01*
X0140422Y0036708D01*
X0145830Y0036708D01*
X0146591Y0037469D01*
X0146591Y0044058D01*
X0146090Y0044559D01*
X0146295Y0044764D01*
X0146492Y0045106D01*
X0146594Y0045488D01*
X0146594Y0048138D01*
X0143035Y0048138D01*
X0143035Y0049138D01*
X0142035Y0049138D01*
X0142035Y0052256D01*
X0142626Y0052256D01*
X0142626Y0056012D01*
X0139461Y0056012D01*
X0139461Y0053558D01*
X0139563Y0053177D01*
X0139635Y0053052D01*
X0139397Y0052988D01*
X0139055Y0052791D01*
X0139048Y0052783D01*
X0138940Y0052891D01*
X0138390Y0052891D01*
X0138717Y0053217D01*
X0138717Y0059806D01*
X0138390Y0060133D01*
X0138940Y0060133D01*
X0139189Y0060382D01*
X0139438Y0060133D01*
X0139728Y0060133D01*
X0139563Y0059847D01*
X0139461Y0059465D01*
X0139461Y0057012D01*
X0142626Y0057012D01*
X0142626Y0056012D01*
X0143626Y0056012D01*
X0143626Y0053091D01*
X0143035Y0053091D01*
X0143035Y0049138D01*
X0146594Y0049138D01*
X0146594Y0051788D01*
X0146492Y0052170D01*
X0146295Y0052512D01*
X0146232Y0052575D01*
X0146492Y0052835D01*
X0146689Y0053177D01*
X0146791Y0054087D02*
X0169144Y0054087D01*
X0166733Y0055085D02*
X0146791Y0055085D01*
X0146791Y0057082D02*
X0164482Y0057082D01*
X0163743Y0058081D02*
X0146791Y0058081D01*
X0146791Y0059079D02*
X0163329Y0059079D01*
X0162916Y0060078D02*
X0146556Y0060078D01*
X0146394Y0061076D02*
X0162642Y0061076D01*
X0165481Y0056084D02*
X0143626Y0056084D01*
X0143626Y0055085D02*
X0142626Y0055085D01*
X0142626Y0054087D02*
X0143626Y0054087D01*
X0143035Y0053088D02*
X0142626Y0053088D01*
X0143035Y0052090D02*
X0142035Y0052090D01*
X0142035Y0051091D02*
X0143035Y0051091D01*
X0143035Y0050093D02*
X0142035Y0050093D01*
X0143035Y0049094D02*
X0194765Y0049094D01*
X0194579Y0050093D02*
X0146594Y0050093D01*
X0146594Y0051091D02*
X0194579Y0051091D01*
X0194976Y0048096D02*
X0146594Y0048096D01*
X0146594Y0047097D02*
X0194976Y0047097D01*
X0194976Y0046099D02*
X0146594Y0046099D01*
X0146489Y0045100D02*
X0194976Y0045100D01*
X0194976Y0044102D02*
X0146548Y0044102D01*
X0146591Y0043103D02*
X0168936Y0043103D01*
X0169401Y0043295D02*
X0166300Y0042011D01*
X0163926Y0039637D01*
X0162642Y0036536D01*
X0162642Y0035957D01*
X0162615Y0035965D01*
X0157996Y0035965D01*
X0157996Y0031028D01*
X0156996Y0031028D01*
X0156996Y0035965D01*
X0152377Y0035965D01*
X0151996Y0035862D01*
X0151654Y0035665D01*
X0151375Y0035386D01*
X0151177Y0035044D01*
X0151075Y0034662D01*
X0151075Y0031028D01*
X0156996Y0031028D01*
X0156996Y0030028D01*
X0151075Y0030028D01*
X0151075Y0026393D01*
X0151177Y0026012D01*
X0151375Y0025670D01*
X0151654Y0025390D01*
X0151996Y0025193D01*
X0152377Y0025091D01*
X0156996Y0025091D01*
X0156996Y0030028D01*
X0157996Y0030028D01*
X0157996Y0031028D01*
X0163533Y0031028D01*
X0163926Y0030079D01*
X0166300Y0027706D01*
X0169401Y0026421D01*
X0172757Y0026421D01*
X0175858Y0027706D01*
X0178231Y0030079D01*
X0179346Y0032771D01*
X0190121Y0032771D01*
X0190883Y0033532D01*
X0190883Y0042483D01*
X0190121Y0043245D01*
X0179202Y0043245D01*
X0178440Y0042483D01*
X0178440Y0039133D01*
X0178231Y0039637D01*
X0175858Y0042011D01*
X0172757Y0043295D01*
X0169401Y0043295D01*
X0166526Y0042105D02*
X0146591Y0042105D01*
X0146591Y0041106D02*
X0165395Y0041106D01*
X0164396Y0040107D02*
X0146591Y0040107D01*
X0146591Y0039109D02*
X0163707Y0039109D01*
X0163294Y0038110D02*
X0146591Y0038110D01*
X0146234Y0037112D02*
X0162880Y0037112D01*
X0162642Y0036113D02*
X0021642Y0036113D01*
X0021642Y0035115D02*
X0151218Y0035115D01*
X0151075Y0034116D02*
X0021642Y0034116D01*
X0021642Y0033118D02*
X0151075Y0033118D01*
X0151075Y0032119D02*
X0021642Y0032119D01*
X0021642Y0031121D02*
X0151075Y0031121D01*
X0151075Y0029124D02*
X0021642Y0029124D01*
X0021642Y0030122D02*
X0156996Y0030122D01*
X0156996Y0029124D02*
X0157996Y0029124D01*
X0157996Y0030028D02*
X0157996Y0025091D01*
X0162615Y0025091D01*
X0162996Y0025193D01*
X0163338Y0025390D01*
X0163618Y0025670D01*
X0163815Y0026012D01*
X0163917Y0026393D01*
X0163917Y0030028D01*
X0157996Y0030028D01*
X0157996Y0030122D02*
X0163908Y0030122D01*
X0163917Y0029124D02*
X0164881Y0029124D01*
X0163917Y0028125D02*
X0165880Y0028125D01*
X0167697Y0027127D02*
X0163917Y0027127D01*
X0163846Y0026128D02*
X0178440Y0026128D01*
X0178440Y0025130D02*
X0162761Y0025130D01*
X0157996Y0025130D02*
X0156996Y0025130D01*
X0156996Y0026128D02*
X0157996Y0026128D01*
X0157996Y0027127D02*
X0156996Y0027127D01*
X0156996Y0028125D02*
X0157996Y0028125D01*
X0157996Y0031121D02*
X0156996Y0031121D01*
X0156996Y0032119D02*
X0157996Y0032119D01*
X0157996Y0033118D02*
X0156996Y0033118D01*
X0156996Y0034116D02*
X0157996Y0034116D01*
X0157996Y0035115D02*
X0156996Y0035115D01*
X0151075Y0028125D02*
X0021642Y0028125D01*
X0021642Y0027127D02*
X0151075Y0027127D01*
X0151146Y0026128D02*
X0021642Y0026128D01*
X0021642Y0025130D02*
X0152231Y0025130D01*
X0140018Y0037112D02*
X0138360Y0037112D01*
X0138717Y0038110D02*
X0139661Y0038110D01*
X0139661Y0039109D02*
X0138717Y0039109D01*
X0138717Y0040107D02*
X0139661Y0040107D01*
X0139661Y0041106D02*
X0138717Y0041106D01*
X0138717Y0042105D02*
X0139661Y0042105D01*
X0139661Y0043103D02*
X0138717Y0043103D01*
X0138674Y0044102D02*
X0139704Y0044102D01*
X0139614Y0053088D02*
X0138588Y0053088D01*
X0138717Y0054087D02*
X0139461Y0054087D01*
X0139461Y0055085D02*
X0138717Y0055085D01*
X0138717Y0056084D02*
X0142626Y0056084D01*
X0139461Y0057082D02*
X0138717Y0057082D01*
X0138717Y0058081D02*
X0139461Y0058081D01*
X0139461Y0059079D02*
X0138717Y0059079D01*
X0138446Y0060078D02*
X0139696Y0060078D01*
X0146394Y0062075D02*
X0151866Y0062075D01*
X0151275Y0063073D02*
X0146394Y0063073D01*
X0146394Y0064072D02*
X0151275Y0064072D01*
X0151275Y0065070D02*
X0146394Y0065070D01*
X0146394Y0066069D02*
X0151275Y0066069D01*
X0151275Y0067067D02*
X0146394Y0067067D01*
X0146206Y0068066D02*
X0151275Y0068066D01*
X0151275Y0069064D02*
X0021642Y0069064D01*
X0021642Y0068066D02*
X0132172Y0068066D01*
X0131983Y0067067D02*
X0021642Y0067067D01*
X0021642Y0066069D02*
X0131983Y0066069D01*
X0131983Y0065070D02*
X0021642Y0065070D01*
X0021642Y0064072D02*
X0131983Y0064072D01*
X0131983Y0063073D02*
X0021642Y0063073D01*
X0021642Y0062075D02*
X0131983Y0062075D01*
X0131983Y0061076D02*
X0021642Y0061076D01*
X0021642Y0060078D02*
X0132058Y0060078D01*
X0131787Y0059079D02*
X0021642Y0059079D01*
X0021642Y0058081D02*
X0131787Y0058081D01*
X0131787Y0057082D02*
X0021642Y0057082D01*
X0021642Y0056084D02*
X0131787Y0056084D01*
X0131787Y0055085D02*
X0021642Y0055085D01*
X0021642Y0054087D02*
X0131787Y0054087D01*
X0131916Y0053088D02*
X0021642Y0053088D01*
X0021642Y0052090D02*
X0131983Y0052090D01*
X0131983Y0051091D02*
X0021642Y0051091D01*
X0021642Y0050093D02*
X0131983Y0050093D01*
X0131983Y0049094D02*
X0021642Y0049094D01*
X0021642Y0048096D02*
X0131983Y0048096D01*
X0131983Y0047097D02*
X0021642Y0047097D01*
X0021642Y0046099D02*
X0131983Y0046099D01*
X0132030Y0045100D02*
X0021642Y0045100D01*
X0021642Y0044102D02*
X0131830Y0044102D01*
X0131787Y0043103D02*
X0021642Y0043103D01*
X0021642Y0042105D02*
X0131787Y0042105D01*
X0131787Y0041106D02*
X0021642Y0041106D01*
X0021642Y0040107D02*
X0131787Y0040107D01*
X0131787Y0039109D02*
X0021642Y0039109D01*
X0021642Y0038110D02*
X0131787Y0038110D01*
X0132144Y0037112D02*
X0021642Y0037112D01*
X0021642Y0024131D02*
X0178440Y0024131D01*
X0178440Y0024084D02*
X0179202Y0023322D01*
X0190121Y0023322D01*
X0190883Y0024084D01*
X0190883Y0029885D01*
X0190121Y0030646D01*
X0179202Y0030646D01*
X0178440Y0029885D01*
X0178440Y0024084D01*
X0178440Y0027127D02*
X0174460Y0027127D01*
X0176278Y0028125D02*
X0178440Y0028125D01*
X0178440Y0029124D02*
X0177276Y0029124D01*
X0178249Y0030122D02*
X0178678Y0030122D01*
X0178663Y0031121D02*
X0210673Y0031121D01*
X0210673Y0032119D02*
X0179076Y0032119D01*
X0178440Y0040107D02*
X0177761Y0040107D01*
X0178440Y0041106D02*
X0176763Y0041106D01*
X0175632Y0042105D02*
X0178440Y0042105D01*
X0179060Y0043103D02*
X0173221Y0043103D01*
X0179242Y0060078D02*
X0198335Y0060078D01*
X0198335Y0059079D02*
X0199335Y0059079D01*
X0199335Y0058081D02*
X0198335Y0058081D01*
X0198335Y0057082D02*
X0199335Y0057082D01*
X0198744Y0056084D02*
X0198335Y0056084D01*
X0198744Y0055085D02*
X0197744Y0055085D01*
X0197744Y0054087D02*
X0198744Y0054087D01*
X0198744Y0053088D02*
X0197744Y0053088D01*
X0197744Y0052090D02*
X0146514Y0052090D01*
X0151275Y0070063D02*
X0021642Y0070063D01*
X0021642Y0071061D02*
X0151275Y0071061D01*
X0151717Y0072060D02*
X0021642Y0072060D01*
X0021642Y0073058D02*
X0210673Y0073058D01*
X0210673Y0072060D02*
X0209141Y0072060D01*
X0209583Y0071061D02*
X0210673Y0071061D01*
X0210673Y0070063D02*
X0209583Y0070063D01*
X0209583Y0069064D02*
X0210673Y0069064D01*
X0210673Y0068066D02*
X0209583Y0068066D01*
X0209583Y0067067D02*
X0210673Y0067067D01*
X0210673Y0066069D02*
X0209583Y0066069D01*
X0209583Y0065070D02*
X0210673Y0065070D01*
X0210673Y0064072D02*
X0209255Y0064072D01*
X0209387Y0063073D02*
X0210673Y0063073D01*
X0210673Y0062075D02*
X0209387Y0062075D01*
X0209387Y0061076D02*
X0210673Y0061076D01*
X0210673Y0060078D02*
X0209387Y0060078D01*
X0209387Y0059079D02*
X0210673Y0059079D01*
X0210673Y0058081D02*
X0209387Y0058081D01*
X0209387Y0057082D02*
X0210673Y0057082D01*
X0210673Y0056084D02*
X0209369Y0056084D01*
X0209583Y0055085D02*
X0210673Y0055085D01*
X0210673Y0054087D02*
X0209583Y0054087D01*
X0209583Y0053088D02*
X0210673Y0053088D01*
X0210673Y0052090D02*
X0209583Y0052090D01*
X0209583Y0051091D02*
X0210673Y0051091D01*
X0210673Y0050093D02*
X0209583Y0050093D01*
X0209397Y0049094D02*
X0210673Y0049094D01*
X0210673Y0048096D02*
X0209387Y0048096D01*
X0209387Y0047097D02*
X0210673Y0047097D01*
X0210673Y0046099D02*
X0209387Y0046099D01*
X0209387Y0045100D02*
X0210673Y0045100D01*
X0210673Y0044102D02*
X0209387Y0044102D01*
X0209387Y0043103D02*
X0210673Y0043103D01*
X0210673Y0042105D02*
X0209387Y0042105D01*
X0209283Y0041106D02*
X0210673Y0041106D01*
X0210673Y0040107D02*
X0190883Y0040107D01*
X0190883Y0039109D02*
X0210673Y0039109D01*
X0210673Y0038110D02*
X0190883Y0038110D01*
X0190883Y0037112D02*
X0210673Y0037112D01*
X0210673Y0036113D02*
X0190883Y0036113D01*
X0190883Y0035115D02*
X0210673Y0035115D01*
X0210673Y0034116D02*
X0190883Y0034116D01*
X0190468Y0033118D02*
X0210673Y0033118D01*
X0210673Y0030122D02*
X0190645Y0030122D01*
X0190883Y0029124D02*
X0210673Y0029124D01*
X0210673Y0028125D02*
X0190883Y0028125D01*
X0190883Y0027127D02*
X0210673Y0027127D01*
X0210673Y0026128D02*
X0190883Y0026128D01*
X0190883Y0025130D02*
X0210673Y0025130D01*
X0210673Y0024131D02*
X0190883Y0024131D01*
X0190883Y0041106D02*
X0195079Y0041106D01*
X0194976Y0042105D02*
X0190883Y0042105D01*
X0190263Y0043103D02*
X0194976Y0043103D01*
X0201642Y0048954D02*
X0201807Y0049240D01*
X0201909Y0049621D01*
X0201909Y0052075D01*
X0198744Y0052075D01*
X0198744Y0053075D01*
X0201909Y0053075D01*
X0201909Y0055528D01*
X0201807Y0055910D01*
X0201735Y0056035D01*
X0201973Y0056098D01*
X0202315Y0056296D01*
X0202323Y0056304D01*
X0202430Y0056196D01*
X0202980Y0056196D01*
X0202653Y0055869D01*
X0202653Y0049280D01*
X0202980Y0048954D01*
X0202430Y0048954D01*
X0202181Y0048705D01*
X0201932Y0048954D01*
X0201642Y0048954D01*
X0201723Y0049094D02*
X0202839Y0049094D01*
X0202653Y0050093D02*
X0201909Y0050093D01*
X0201909Y0051091D02*
X0202653Y0051091D01*
X0202653Y0052090D02*
X0198744Y0052090D01*
X0201909Y0053088D02*
X0202653Y0053088D01*
X0202653Y0054087D02*
X0201909Y0054087D01*
X0201909Y0055085D02*
X0202653Y0055085D01*
X0202867Y0056084D02*
X0201918Y0056084D01*
X0201709Y0065070D02*
X0202653Y0065070D01*
X0202653Y0066069D02*
X0201709Y0066069D01*
X0201709Y0067067D02*
X0202653Y0067067D01*
X0202653Y0068066D02*
X0201709Y0068066D01*
X0201709Y0069064D02*
X0202653Y0069064D01*
X0202653Y0070063D02*
X0201709Y0070063D01*
X0201709Y0071061D02*
X0202653Y0071061D01*
X0203095Y0072060D02*
X0201267Y0072060D01*
X0195221Y0072060D02*
X0163275Y0072060D01*
X0163717Y0071061D02*
X0194779Y0071061D01*
X0194779Y0070063D02*
X0174668Y0070063D01*
X0167490Y0070063D02*
X0163717Y0070063D01*
X0163717Y0069064D02*
X0165794Y0069064D01*
X0164796Y0068066D02*
X0163717Y0068066D01*
X0163717Y0067067D02*
X0163873Y0067067D01*
X0169369Y0077052D02*
X0021642Y0077052D01*
X0021642Y0076054D02*
X0210673Y0076054D01*
X0210673Y0075055D02*
X0021642Y0075055D01*
X0021642Y0074057D02*
X0210673Y0074057D01*
X0196270Y0096790D02*
X0199269Y0098794D01*
X0199269Y0098794D01*
X0199269Y0098794D01*
X0201273Y0101793D01*
X0201976Y0105331D01*
X0201273Y0108868D01*
X0201273Y0108868D01*
X0199269Y0111867D01*
X0199269Y0111867D01*
X0199269Y0111867D01*
X0196270Y0113871D01*
X0196270Y0113871D01*
X0192732Y0114575D01*
X0189195Y0113871D01*
X0189195Y0113871D01*
X0186196Y0111867D01*
X0184192Y0108868D01*
X0183488Y0105331D01*
X0183488Y0105331D01*
X0184192Y0101793D01*
X0186196Y0098794D01*
X0189195Y0096790D01*
X0192732Y0096087D01*
X0196270Y0096790D01*
X0196270Y0096790D01*
X0196618Y0097023D02*
X0286264Y0097023D01*
X0286264Y0098021D02*
X0198112Y0098021D01*
X0199420Y0099020D02*
X0286264Y0099020D01*
X0286264Y0100018D02*
X0200087Y0100018D01*
X0200754Y0101017D02*
X0286264Y0101017D01*
X0286264Y0102015D02*
X0201317Y0102015D01*
X0201273Y0101793D02*
X0201273Y0101793D01*
X0201515Y0103014D02*
X0286264Y0103014D01*
X0286264Y0104012D02*
X0201714Y0104012D01*
X0201913Y0105011D02*
X0286264Y0105011D01*
X0286264Y0106009D02*
X0201841Y0106009D01*
X0201643Y0107008D02*
X0286264Y0107008D01*
X0286264Y0108006D02*
X0201444Y0108006D01*
X0201181Y0109005D02*
X0286264Y0109005D01*
X0286264Y0110003D02*
X0200514Y0110003D01*
X0199847Y0111002D02*
X0286264Y0111002D01*
X0286264Y0112000D02*
X0199070Y0112000D01*
X0197575Y0112999D02*
X0286264Y0112999D01*
X0286264Y0113997D02*
X0195635Y0113997D01*
X0192732Y0114575D02*
X0192732Y0114575D01*
X0189829Y0113997D02*
X0109415Y0113997D01*
X0110049Y0113871D02*
X0110049Y0113871D01*
X0111355Y0112999D02*
X0187889Y0112999D01*
X0186395Y0112000D02*
X0112849Y0112000D01*
X0113048Y0111867D02*
X0113048Y0111867D01*
X0113048Y0111867D01*
X0113627Y0111002D02*
X0185617Y0111002D01*
X0186196Y0111867D02*
X0186196Y0111867D01*
X0186196Y0111867D01*
X0184950Y0110003D02*
X0114294Y0110003D01*
X0114961Y0109005D02*
X0184283Y0109005D01*
X0184192Y0108868D02*
X0184192Y0108868D01*
X0184020Y0108006D02*
X0115224Y0108006D01*
X0115422Y0107008D02*
X0183822Y0107008D01*
X0183623Y0106009D02*
X0115621Y0106009D01*
X0115692Y0105011D02*
X0183552Y0105011D01*
X0183750Y0104012D02*
X0115494Y0104012D01*
X0115295Y0103014D02*
X0183949Y0103014D01*
X0184148Y0102015D02*
X0115096Y0102015D01*
X0115052Y0101793D02*
X0115052Y0101793D01*
X0114533Y0101017D02*
X0184711Y0101017D01*
X0184192Y0101793D02*
X0184192Y0101793D01*
X0185378Y0100018D02*
X0113866Y0100018D01*
X0113199Y0099020D02*
X0186045Y0099020D01*
X0186196Y0098794D02*
X0186196Y0098794D01*
X0186196Y0098794D01*
X0187353Y0098021D02*
X0111891Y0098021D01*
X0113048Y0098794D02*
X0113048Y0098794D01*
X0110397Y0097023D02*
X0188847Y0097023D01*
X0189195Y0096790D02*
X0189195Y0096790D01*
X0192732Y0096087D02*
X0192732Y0096087D01*
X0169283Y0089035D02*
X0021642Y0089035D01*
X0021642Y0088036D02*
X0168794Y0088036D01*
X0168794Y0087038D02*
X0021642Y0087038D01*
X0021642Y0086039D02*
X0168794Y0086039D01*
X0168794Y0085041D02*
X0021642Y0085041D01*
X0021642Y0084042D02*
X0168794Y0084042D01*
X0168794Y0083043D02*
X0021642Y0083043D01*
X0021642Y0082045D02*
X0168794Y0082045D01*
X0168794Y0081046D02*
X0021642Y0081046D01*
X0021642Y0080048D02*
X0168794Y0080048D01*
X0168794Y0079049D02*
X0021642Y0079049D01*
X0021642Y0078051D02*
X0168794Y0078051D01*
X0135355Y0140957D02*
X0231006Y0140957D01*
X0231204Y0141956D02*
X0136849Y0141956D01*
X0138245Y0142889D02*
X0138245Y0142889D01*
X0138289Y0142954D02*
X0231403Y0142954D01*
X0231992Y0143953D02*
X0138956Y0143953D01*
X0139623Y0144951D02*
X0232659Y0144951D01*
X0233327Y0145950D02*
X0140261Y0145950D01*
X0140249Y0145888D02*
X0140249Y0145888D01*
X0140460Y0146948D02*
X0234680Y0146948D01*
X0236175Y0147947D02*
X0140659Y0147947D01*
X0135246Y0157966D02*
X0135246Y0157966D01*
X0131709Y0140181D02*
X0131709Y0140181D01*
X0128171Y0140885D02*
X0128171Y0140885D01*
X0110449Y0133472D02*
X0110449Y0133472D01*
X0110049Y0096790D02*
X0110049Y0096790D01*
X0106512Y0096087D02*
X0106512Y0096087D01*
X0102974Y0096790D02*
X0102974Y0096790D01*
X0021642Y0169914D02*
X0227133Y0169914D01*
X0224628Y0170412D02*
X0224628Y0170412D01*
X0223879Y0170912D02*
X0021642Y0170912D01*
X0021642Y0171911D02*
X0222385Y0171911D01*
X0221629Y0172416D02*
X0221629Y0172416D01*
X0221629Y0172416D01*
X0221299Y0172909D02*
X0021642Y0172909D01*
X0021642Y0173908D02*
X0220632Y0173908D01*
X0219965Y0174907D02*
X0021642Y0174907D01*
X0021642Y0175905D02*
X0219527Y0175905D01*
X0219625Y0175415D02*
X0219625Y0175415D01*
X0219329Y0176904D02*
X0021642Y0176904D01*
X0021642Y0177902D02*
X0219130Y0177902D01*
X0218932Y0178901D02*
X0021642Y0178901D01*
X0021642Y0179899D02*
X0219109Y0179899D01*
X0218921Y0178953D02*
X0218921Y0178953D01*
X0219308Y0180898D02*
X0021642Y0180898D01*
X0021642Y0181896D02*
X0219507Y0181896D01*
X0219625Y0182490D02*
X0219625Y0182490D01*
X0219895Y0182895D02*
X0021642Y0182895D01*
X0021642Y0183893D02*
X0220562Y0183893D01*
X0221229Y0184892D02*
X0021642Y0184892D01*
X0021642Y0185890D02*
X0222229Y0185890D01*
X0221629Y0185489D02*
X0221629Y0185489D01*
X0221629Y0185489D01*
X0223723Y0186889D02*
X0021642Y0186889D01*
X0021642Y0307709D02*
X0183480Y0307709D01*
X0183480Y0308707D02*
X0021642Y0308707D01*
X0060384Y0344653D02*
X0065647Y0344653D01*
X0065877Y0344424D02*
X0070154Y0344424D01*
X0070916Y0345185D01*
X0070916Y0348224D01*
X0071554Y0348224D01*
X0072316Y0348985D01*
X0072316Y0356062D01*
X0071554Y0356824D01*
X0064477Y0356824D01*
X0063716Y0356062D01*
X0063716Y0348985D01*
X0064477Y0348224D01*
X0065116Y0348224D01*
X0065116Y0345185D01*
X0065877Y0344424D01*
X0065116Y0345652D02*
X0060916Y0345652D01*
X0060916Y0346650D02*
X0065116Y0346650D01*
X0065116Y0347649D02*
X0060916Y0347649D01*
X0061978Y0348647D02*
X0064053Y0348647D01*
X0063716Y0349646D02*
X0062316Y0349646D01*
X0062316Y0350645D02*
X0063716Y0350645D01*
X0063716Y0351643D02*
X0062316Y0351643D01*
X0062316Y0352642D02*
X0063716Y0352642D01*
X0063716Y0353640D02*
X0062316Y0353640D01*
X0062316Y0354639D02*
X0063716Y0354639D01*
X0063716Y0355637D02*
X0062316Y0355637D01*
X0061742Y0356636D02*
X0064289Y0356636D01*
X0064477Y0358224D02*
X0071554Y0358224D01*
X0072316Y0358985D01*
X0072316Y0366062D01*
X0071554Y0366824D01*
X0070916Y0366824D01*
X0070916Y0369862D01*
X0070154Y0370624D01*
X0065877Y0370624D01*
X0065116Y0369862D01*
X0065116Y0366824D01*
X0064477Y0366824D01*
X0063716Y0366062D01*
X0063716Y0358985D01*
X0064477Y0358224D01*
X0064068Y0358633D02*
X0061963Y0358633D01*
X0062316Y0359631D02*
X0063716Y0359631D01*
X0063716Y0360630D02*
X0062316Y0360630D01*
X0062316Y0361628D02*
X0063716Y0361628D01*
X0063716Y0362627D02*
X0062316Y0362627D01*
X0062316Y0363625D02*
X0063716Y0363625D01*
X0063716Y0364624D02*
X0062316Y0364624D01*
X0062316Y0365622D02*
X0063716Y0365622D01*
X0064274Y0366621D02*
X0061757Y0366621D01*
X0060916Y0367619D02*
X0065116Y0367619D01*
X0065116Y0368618D02*
X0060916Y0368618D01*
X0060916Y0369616D02*
X0065116Y0369616D01*
X0065868Y0370615D02*
X0060163Y0370615D01*
X0070163Y0370615D02*
X0075868Y0370615D01*
X0075877Y0370624D02*
X0075116Y0369862D01*
X0075116Y0366824D01*
X0074477Y0366824D01*
X0073716Y0366062D01*
X0073716Y0358985D01*
X0074477Y0358224D01*
X0081554Y0358224D01*
X0082316Y0358985D01*
X0082316Y0366062D01*
X0081554Y0366824D01*
X0080916Y0366824D01*
X0080916Y0369862D01*
X0080154Y0370624D01*
X0075877Y0370624D01*
X0075116Y0369616D02*
X0070916Y0369616D01*
X0070916Y0368618D02*
X0075116Y0368618D01*
X0075116Y0367619D02*
X0070916Y0367619D01*
X0071757Y0366621D02*
X0074274Y0366621D01*
X0073716Y0365622D02*
X0072316Y0365622D01*
X0072316Y0364624D02*
X0073716Y0364624D01*
X0073716Y0363625D02*
X0072316Y0363625D01*
X0072316Y0362627D02*
X0073716Y0362627D01*
X0073716Y0361628D02*
X0072316Y0361628D01*
X0072316Y0360630D02*
X0073716Y0360630D01*
X0073716Y0359631D02*
X0072316Y0359631D01*
X0071963Y0358633D02*
X0074068Y0358633D01*
X0074437Y0356921D02*
X0074095Y0356724D01*
X0073815Y0356445D01*
X0073618Y0356103D01*
X0073516Y0355721D01*
X0073516Y0353024D01*
X0075277Y0353024D01*
X0075116Y0352862D01*
X0075116Y0352024D01*
X0073516Y0352024D01*
X0073516Y0349326D01*
X0073618Y0348945D01*
X0073815Y0348603D01*
X0074095Y0348323D01*
X0074437Y0348126D01*
X0074818Y0348024D01*
X0075116Y0348024D01*
X0075116Y0345185D01*
X0075877Y0344424D01*
X0080154Y0344424D01*
X0080916Y0345185D01*
X0080916Y0348024D01*
X0081213Y0348024D01*
X0081595Y0348126D01*
X0081937Y0348323D01*
X0082216Y0348603D01*
X0082414Y0348945D01*
X0082516Y0349326D01*
X0082516Y0352024D01*
X0080916Y0352024D01*
X0080916Y0352862D01*
X0080754Y0353024D01*
X0082516Y0353024D01*
X0082516Y0355721D01*
X0082414Y0356103D01*
X0082216Y0356445D01*
X0081937Y0356724D01*
X0081595Y0356921D01*
X0081213Y0357024D01*
X0078516Y0357024D01*
X0078516Y0353624D01*
X0077516Y0353624D01*
X0077516Y0357024D01*
X0074818Y0357024D01*
X0074437Y0356921D01*
X0074006Y0356636D02*
X0071742Y0356636D01*
X0072316Y0355637D02*
X0073516Y0355637D01*
X0073516Y0354639D02*
X0072316Y0354639D01*
X0072316Y0353640D02*
X0073516Y0353640D01*
X0072316Y0352642D02*
X0075116Y0352642D01*
X0073516Y0351643D02*
X0072316Y0351643D01*
X0072316Y0350645D02*
X0073516Y0350645D01*
X0073516Y0349646D02*
X0072316Y0349646D01*
X0071978Y0348647D02*
X0073790Y0348647D01*
X0075116Y0347649D02*
X0070916Y0347649D01*
X0070916Y0346650D02*
X0075116Y0346650D01*
X0075116Y0345652D02*
X0070916Y0345652D01*
X0070384Y0344653D02*
X0075647Y0344653D01*
X0080384Y0344653D02*
X0085647Y0344653D01*
X0085877Y0344424D02*
X0090154Y0344424D01*
X0090916Y0345185D01*
X0090916Y0348224D01*
X0091554Y0348224D01*
X0092316Y0348985D01*
X0092316Y0356062D01*
X0091554Y0356824D01*
X0084477Y0356824D01*
X0083716Y0356062D01*
X0083716Y0348985D01*
X0084477Y0348224D01*
X0085116Y0348224D01*
X0085116Y0345185D01*
X0085877Y0344424D01*
X0085116Y0345652D02*
X0080916Y0345652D01*
X0080916Y0346650D02*
X0085116Y0346650D01*
X0085116Y0347649D02*
X0080916Y0347649D01*
X0082242Y0348647D02*
X0084053Y0348647D01*
X0083716Y0349646D02*
X0082516Y0349646D01*
X0082516Y0350645D02*
X0083716Y0350645D01*
X0083716Y0351643D02*
X0082516Y0351643D01*
X0083716Y0352642D02*
X0080916Y0352642D01*
X0082516Y0353640D02*
X0083716Y0353640D01*
X0083716Y0354639D02*
X0082516Y0354639D01*
X0082516Y0355637D02*
X0083716Y0355637D01*
X0084289Y0356636D02*
X0082025Y0356636D01*
X0081963Y0358633D02*
X0084068Y0358633D01*
X0083716Y0358985D02*
X0084477Y0358224D01*
X0091554Y0358224D01*
X0092316Y0358985D01*
X0092316Y0366062D01*
X0091554Y0366824D01*
X0090916Y0366824D01*
X0090916Y0369862D01*
X0090154Y0370624D01*
X0085877Y0370624D01*
X0085116Y0369862D01*
X0085116Y0366824D01*
X0084477Y0366824D01*
X0083716Y0366062D01*
X0083716Y0358985D01*
X0083716Y0359631D02*
X0082316Y0359631D01*
X0082316Y0360630D02*
X0083716Y0360630D01*
X0083716Y0361628D02*
X0082316Y0361628D01*
X0082316Y0362627D02*
X0083716Y0362627D01*
X0083716Y0363625D02*
X0082316Y0363625D01*
X0082316Y0364624D02*
X0083716Y0364624D01*
X0083716Y0365622D02*
X0082316Y0365622D01*
X0081757Y0366621D02*
X0084274Y0366621D01*
X0085116Y0367619D02*
X0080916Y0367619D01*
X0080916Y0368618D02*
X0085116Y0368618D01*
X0085116Y0369616D02*
X0080916Y0369616D01*
X0080163Y0370615D02*
X0085868Y0370615D01*
X0090163Y0370615D02*
X0095868Y0370615D01*
X0095877Y0370624D02*
X0095116Y0369862D01*
X0095116Y0367024D01*
X0094818Y0367024D01*
X0094437Y0366921D01*
X0094095Y0366724D01*
X0093815Y0366445D01*
X0093618Y0366103D01*
X0093516Y0365721D01*
X0093516Y0363024D01*
X0095116Y0363024D01*
X0095116Y0362185D01*
X0095277Y0362024D01*
X0093516Y0362024D01*
X0093516Y0359326D01*
X0093618Y0358945D01*
X0093815Y0358603D01*
X0094095Y0358323D01*
X0094437Y0358126D01*
X0094818Y0358024D01*
X0097516Y0358024D01*
X0097516Y0361424D01*
X0098516Y0361424D01*
X0098516Y0358024D01*
X0101213Y0358024D01*
X0101595Y0358126D01*
X0101937Y0358323D01*
X0102216Y0358603D01*
X0102414Y0358945D01*
X0102516Y0359326D01*
X0102516Y0362024D01*
X0100754Y0362024D01*
X0100916Y0362185D01*
X0100916Y0363024D01*
X0102516Y0363024D01*
X0102516Y0365721D01*
X0102414Y0366103D01*
X0102216Y0366445D01*
X0101937Y0366724D01*
X0101595Y0366921D01*
X0101213Y0367024D01*
X0100916Y0367024D01*
X0100916Y0369862D01*
X0100154Y0370624D01*
X0095877Y0370624D01*
X0095116Y0369616D02*
X0090916Y0369616D01*
X0090916Y0368618D02*
X0095116Y0368618D01*
X0095116Y0367619D02*
X0090916Y0367619D01*
X0091757Y0366621D02*
X0093992Y0366621D01*
X0093516Y0365622D02*
X0092316Y0365622D01*
X0092316Y0364624D02*
X0093516Y0364624D01*
X0093516Y0363625D02*
X0092316Y0363625D01*
X0092316Y0362627D02*
X0095116Y0362627D01*
X0093516Y0361628D02*
X0092316Y0361628D01*
X0092316Y0360630D02*
X0093516Y0360630D01*
X0093516Y0359631D02*
X0092316Y0359631D01*
X0091963Y0358633D02*
X0093798Y0358633D01*
X0094477Y0356824D02*
X0093716Y0356062D01*
X0093716Y0348985D01*
X0094477Y0348224D01*
X0095116Y0348224D01*
X0095116Y0345185D01*
X0095877Y0344424D01*
X0100154Y0344424D01*
X0100916Y0345185D01*
X0100916Y0348224D01*
X0101554Y0348224D01*
X0102316Y0348985D01*
X0102316Y0356062D01*
X0101554Y0356824D01*
X0094477Y0356824D01*
X0094289Y0356636D02*
X0091742Y0356636D01*
X0092316Y0355637D02*
X0093716Y0355637D01*
X0093716Y0354639D02*
X0092316Y0354639D01*
X0092316Y0353640D02*
X0093716Y0353640D01*
X0093716Y0352642D02*
X0092316Y0352642D01*
X0092316Y0351643D02*
X0093716Y0351643D01*
X0093716Y0350645D02*
X0092316Y0350645D01*
X0092316Y0349646D02*
X0093716Y0349646D01*
X0094053Y0348647D02*
X0091978Y0348647D01*
X0090916Y0347649D02*
X0095116Y0347649D01*
X0095116Y0346650D02*
X0090916Y0346650D01*
X0090916Y0345652D02*
X0095116Y0345652D01*
X0095647Y0344653D02*
X0090384Y0344653D01*
X0100384Y0344653D02*
X0105647Y0344653D01*
X0105877Y0344424D02*
X0110154Y0344424D01*
X0110916Y0345185D01*
X0110916Y0348224D01*
X0111554Y0348224D01*
X0112316Y0348985D01*
X0112316Y0356062D01*
X0111554Y0356824D01*
X0104477Y0356824D01*
X0103716Y0356062D01*
X0103716Y0348985D01*
X0104477Y0348224D01*
X0105116Y0348224D01*
X0105116Y0345185D01*
X0105877Y0344424D01*
X0105116Y0345652D02*
X0100916Y0345652D01*
X0100916Y0346650D02*
X0105116Y0346650D01*
X0105116Y0347649D02*
X0100916Y0347649D01*
X0101978Y0348647D02*
X0104053Y0348647D01*
X0103716Y0349646D02*
X0102316Y0349646D01*
X0102316Y0350645D02*
X0103716Y0350645D01*
X0103716Y0351643D02*
X0102316Y0351643D01*
X0102316Y0352642D02*
X0103716Y0352642D01*
X0103716Y0353640D02*
X0102316Y0353640D01*
X0102316Y0354639D02*
X0103716Y0354639D01*
X0103716Y0355637D02*
X0102316Y0355637D01*
X0101742Y0356636D02*
X0104289Y0356636D01*
X0104477Y0358224D02*
X0111554Y0358224D01*
X0112316Y0358985D01*
X0112316Y0366062D01*
X0111554Y0366824D01*
X0110916Y0366824D01*
X0110916Y0369862D01*
X0110154Y0370624D01*
X0105877Y0370624D01*
X0105116Y0369862D01*
X0105116Y0366824D01*
X0104477Y0366824D01*
X0103716Y0366062D01*
X0103716Y0358985D01*
X0104477Y0358224D01*
X0104068Y0358633D02*
X0102233Y0358633D01*
X0102516Y0359631D02*
X0103716Y0359631D01*
X0103716Y0360630D02*
X0102516Y0360630D01*
X0102516Y0361628D02*
X0103716Y0361628D01*
X0103716Y0362627D02*
X0100916Y0362627D01*
X0102516Y0363625D02*
X0103716Y0363625D01*
X0103716Y0364624D02*
X0102516Y0364624D01*
X0102516Y0365622D02*
X0103716Y0365622D01*
X0104274Y0366621D02*
X0102040Y0366621D01*
X0100916Y0367619D02*
X0105116Y0367619D01*
X0105116Y0368618D02*
X0100916Y0368618D01*
X0100916Y0369616D02*
X0105116Y0369616D01*
X0105868Y0370615D02*
X0100163Y0370615D01*
X0098516Y0360630D02*
X0097516Y0360630D01*
X0097516Y0359631D02*
X0098516Y0359631D01*
X0098516Y0358633D02*
X0097516Y0358633D01*
X0110163Y0370615D02*
X0115868Y0370615D01*
X0115877Y0370624D02*
X0115116Y0369862D01*
X0115116Y0366824D01*
X0114477Y0366824D01*
X0113716Y0366062D01*
X0113716Y0358985D01*
X0114477Y0358224D01*
X0121554Y0358224D01*
X0122316Y0358985D01*
X0122316Y0366062D01*
X0121554Y0366824D01*
X0120916Y0366824D01*
X0120916Y0369862D01*
X0120154Y0370624D01*
X0115877Y0370624D01*
X0115116Y0369616D02*
X0110916Y0369616D01*
X0110916Y0368618D02*
X0115116Y0368618D01*
X0115116Y0367619D02*
X0110916Y0367619D01*
X0111757Y0366621D02*
X0114274Y0366621D01*
X0113716Y0365622D02*
X0112316Y0365622D01*
X0112316Y0364624D02*
X0113716Y0364624D01*
X0113716Y0363625D02*
X0112316Y0363625D01*
X0112316Y0362627D02*
X0113716Y0362627D01*
X0113716Y0361628D02*
X0112316Y0361628D01*
X0112316Y0360630D02*
X0113716Y0360630D01*
X0113716Y0359631D02*
X0112316Y0359631D01*
X0111963Y0358633D02*
X0114068Y0358633D01*
X0114437Y0356921D02*
X0114095Y0356724D01*
X0113815Y0356445D01*
X0113618Y0356103D01*
X0113516Y0355721D01*
X0113516Y0353024D01*
X0115277Y0353024D01*
X0115116Y0352862D01*
X0115116Y0352024D01*
X0113516Y0352024D01*
X0113516Y0349326D01*
X0113618Y0348945D01*
X0113815Y0348603D01*
X0114095Y0348323D01*
X0114437Y0348126D01*
X0114818Y0348024D01*
X0115116Y0348024D01*
X0115116Y0345185D01*
X0115877Y0344424D01*
X0120154Y0344424D01*
X0120916Y0345185D01*
X0120916Y0348024D01*
X0121213Y0348024D01*
X0121595Y0348126D01*
X0121937Y0348323D01*
X0122216Y0348603D01*
X0122414Y0348945D01*
X0122516Y0349326D01*
X0122516Y0352024D01*
X0120916Y0352024D01*
X0120916Y0352862D01*
X0120754Y0353024D01*
X0122516Y0353024D01*
X0122516Y0355721D01*
X0122414Y0356103D01*
X0122216Y0356445D01*
X0121937Y0356724D01*
X0121595Y0356921D01*
X0121213Y0357024D01*
X0118516Y0357024D01*
X0118516Y0353624D01*
X0117516Y0353624D01*
X0117516Y0357024D01*
X0114818Y0357024D01*
X0114437Y0356921D01*
X0114006Y0356636D02*
X0111742Y0356636D01*
X0112316Y0355637D02*
X0113516Y0355637D01*
X0113516Y0354639D02*
X0112316Y0354639D01*
X0112316Y0353640D02*
X0113516Y0353640D01*
X0112316Y0352642D02*
X0115116Y0352642D01*
X0113516Y0351643D02*
X0112316Y0351643D01*
X0112316Y0350645D02*
X0113516Y0350645D01*
X0113516Y0349646D02*
X0112316Y0349646D01*
X0111978Y0348647D02*
X0113790Y0348647D01*
X0115116Y0347649D02*
X0110916Y0347649D01*
X0110916Y0346650D02*
X0115116Y0346650D01*
X0115116Y0345652D02*
X0110916Y0345652D01*
X0110384Y0344653D02*
X0115647Y0344653D01*
X0120384Y0344653D02*
X0125647Y0344653D01*
X0125877Y0344424D02*
X0130154Y0344424D01*
X0130916Y0345185D01*
X0130916Y0348224D01*
X0131554Y0348224D01*
X0132316Y0348985D01*
X0132316Y0356062D01*
X0131554Y0356824D01*
X0124477Y0356824D01*
X0123716Y0356062D01*
X0123716Y0348985D01*
X0124477Y0348224D01*
X0125116Y0348224D01*
X0125116Y0345185D01*
X0125877Y0344424D01*
X0125116Y0345652D02*
X0120916Y0345652D01*
X0120916Y0346650D02*
X0125116Y0346650D01*
X0125116Y0347649D02*
X0120916Y0347649D01*
X0122242Y0348647D02*
X0124053Y0348647D01*
X0123716Y0349646D02*
X0122516Y0349646D01*
X0122516Y0350645D02*
X0123716Y0350645D01*
X0123716Y0351643D02*
X0122516Y0351643D01*
X0123716Y0352642D02*
X0120916Y0352642D01*
X0122516Y0353640D02*
X0123716Y0353640D01*
X0123716Y0354639D02*
X0122516Y0354639D01*
X0122516Y0355637D02*
X0123716Y0355637D01*
X0124289Y0356636D02*
X0122025Y0356636D01*
X0121963Y0358633D02*
X0124068Y0358633D01*
X0123716Y0358985D02*
X0124477Y0358224D01*
X0131554Y0358224D01*
X0132316Y0358985D01*
X0132316Y0366062D01*
X0131554Y0366824D01*
X0130916Y0366824D01*
X0130916Y0369862D01*
X0130154Y0370624D01*
X0125877Y0370624D01*
X0125116Y0369862D01*
X0125116Y0366824D01*
X0124477Y0366824D01*
X0123716Y0366062D01*
X0123716Y0358985D01*
X0123716Y0359631D02*
X0122316Y0359631D01*
X0122316Y0360630D02*
X0123716Y0360630D01*
X0123716Y0361628D02*
X0122316Y0361628D01*
X0122316Y0362627D02*
X0123716Y0362627D01*
X0123716Y0363625D02*
X0122316Y0363625D01*
X0122316Y0364624D02*
X0123716Y0364624D01*
X0123716Y0365622D02*
X0122316Y0365622D01*
X0121757Y0366621D02*
X0124274Y0366621D01*
X0125116Y0367619D02*
X0120916Y0367619D01*
X0120916Y0368618D02*
X0125116Y0368618D01*
X0125116Y0369616D02*
X0120916Y0369616D01*
X0120163Y0370615D02*
X0125868Y0370615D01*
X0130163Y0370615D02*
X0135868Y0370615D01*
X0135877Y0370624D02*
X0135116Y0369862D01*
X0135116Y0366824D01*
X0134477Y0366824D01*
X0133716Y0366062D01*
X0133716Y0358985D01*
X0134477Y0358224D01*
X0141554Y0358224D01*
X0142316Y0358985D01*
X0142316Y0366062D01*
X0141554Y0366824D01*
X0140916Y0366824D01*
X0140916Y0369862D01*
X0140154Y0370624D01*
X0135877Y0370624D01*
X0135116Y0369616D02*
X0130916Y0369616D01*
X0130916Y0368618D02*
X0135116Y0368618D01*
X0135116Y0367619D02*
X0130916Y0367619D01*
X0131757Y0366621D02*
X0134274Y0366621D01*
X0133716Y0365622D02*
X0132316Y0365622D01*
X0132316Y0364624D02*
X0133716Y0364624D01*
X0133716Y0363625D02*
X0132316Y0363625D01*
X0132316Y0362627D02*
X0133716Y0362627D01*
X0133716Y0361628D02*
X0132316Y0361628D01*
X0132316Y0360630D02*
X0133716Y0360630D01*
X0133716Y0359631D02*
X0132316Y0359631D01*
X0131963Y0358633D02*
X0134068Y0358633D01*
X0134477Y0356824D02*
X0133716Y0356062D01*
X0133716Y0348985D01*
X0134477Y0348224D01*
X0135116Y0348224D01*
X0135116Y0345185D01*
X0135877Y0344424D01*
X0140154Y0344424D01*
X0140916Y0345185D01*
X0140916Y0348224D01*
X0141554Y0348224D01*
X0142316Y0348985D01*
X0142316Y0356062D01*
X0141554Y0356824D01*
X0134477Y0356824D01*
X0134289Y0356636D02*
X0131742Y0356636D01*
X0132316Y0355637D02*
X0133716Y0355637D01*
X0133716Y0354639D02*
X0132316Y0354639D01*
X0132316Y0353640D02*
X0133716Y0353640D01*
X0133716Y0352642D02*
X0132316Y0352642D01*
X0132316Y0351643D02*
X0133716Y0351643D01*
X0133716Y0350645D02*
X0132316Y0350645D01*
X0132316Y0349646D02*
X0133716Y0349646D01*
X0134053Y0348647D02*
X0131978Y0348647D01*
X0130916Y0347649D02*
X0135116Y0347649D01*
X0135116Y0346650D02*
X0130916Y0346650D01*
X0130916Y0345652D02*
X0135116Y0345652D01*
X0135647Y0344653D02*
X0130384Y0344653D01*
X0140384Y0344653D02*
X0145647Y0344653D01*
X0145877Y0344424D02*
X0150154Y0344424D01*
X0150916Y0345185D01*
X0150916Y0348024D01*
X0151213Y0348024D01*
X0151595Y0348126D01*
X0151937Y0348323D01*
X0152216Y0348603D01*
X0152414Y0348945D01*
X0152516Y0349326D01*
X0152516Y0352024D01*
X0150916Y0352024D01*
X0150916Y0352862D01*
X0150754Y0353024D01*
X0152516Y0353024D01*
X0152516Y0355721D01*
X0152414Y0356103D01*
X0152216Y0356445D01*
X0151937Y0356724D01*
X0151595Y0356921D01*
X0151213Y0357024D01*
X0148516Y0357024D01*
X0148516Y0353624D01*
X0147516Y0353624D01*
X0147516Y0357024D01*
X0144818Y0357024D01*
X0144437Y0356921D01*
X0144095Y0356724D01*
X0143815Y0356445D01*
X0143618Y0356103D01*
X0143516Y0355721D01*
X0143516Y0353024D01*
X0145277Y0353024D01*
X0145116Y0352862D01*
X0145116Y0352024D01*
X0143516Y0352024D01*
X0143516Y0349326D01*
X0143618Y0348945D01*
X0143815Y0348603D01*
X0144095Y0348323D01*
X0144437Y0348126D01*
X0144818Y0348024D01*
X0145116Y0348024D01*
X0145116Y0345185D01*
X0145877Y0344424D01*
X0145116Y0345652D02*
X0140916Y0345652D01*
X0140916Y0346650D02*
X0145116Y0346650D01*
X0145116Y0347649D02*
X0140916Y0347649D01*
X0141978Y0348647D02*
X0143790Y0348647D01*
X0143516Y0349646D02*
X0142316Y0349646D01*
X0142316Y0350645D02*
X0143516Y0350645D01*
X0143516Y0351643D02*
X0142316Y0351643D01*
X0142316Y0352642D02*
X0145116Y0352642D01*
X0143516Y0353640D02*
X0142316Y0353640D01*
X0142316Y0354639D02*
X0143516Y0354639D01*
X0143516Y0355637D02*
X0142316Y0355637D01*
X0141742Y0356636D02*
X0144006Y0356636D01*
X0144477Y0358224D02*
X0151554Y0358224D01*
X0152316Y0358985D01*
X0152316Y0366062D01*
X0151554Y0366824D01*
X0150916Y0366824D01*
X0150916Y0369862D01*
X0150154Y0370624D01*
X0145877Y0370624D01*
X0145116Y0369862D01*
X0145116Y0366824D01*
X0144477Y0366824D01*
X0143716Y0366062D01*
X0143716Y0358985D01*
X0144477Y0358224D01*
X0144068Y0358633D02*
X0141963Y0358633D01*
X0142316Y0359631D02*
X0143716Y0359631D01*
X0143716Y0360630D02*
X0142316Y0360630D01*
X0142316Y0361628D02*
X0143716Y0361628D01*
X0143716Y0362627D02*
X0142316Y0362627D01*
X0142316Y0363625D02*
X0143716Y0363625D01*
X0143716Y0364624D02*
X0142316Y0364624D01*
X0142316Y0365622D02*
X0143716Y0365622D01*
X0144274Y0366621D02*
X0141757Y0366621D01*
X0140916Y0367619D02*
X0145116Y0367619D01*
X0145116Y0368618D02*
X0140916Y0368618D01*
X0140916Y0369616D02*
X0145116Y0369616D01*
X0145868Y0370615D02*
X0140163Y0370615D01*
X0150163Y0370615D02*
X0155868Y0370615D01*
X0155877Y0370624D02*
X0155116Y0369862D01*
X0155116Y0366824D01*
X0154477Y0366824D01*
X0153716Y0366062D01*
X0153716Y0358985D01*
X0154477Y0358224D01*
X0161554Y0358224D01*
X0162316Y0358985D01*
X0162316Y0366062D01*
X0161554Y0366824D01*
X0160916Y0366824D01*
X0160916Y0369862D01*
X0160154Y0370624D01*
X0155877Y0370624D01*
X0155116Y0369616D02*
X0150916Y0369616D01*
X0150916Y0368618D02*
X0155116Y0368618D01*
X0155116Y0367619D02*
X0150916Y0367619D01*
X0151757Y0366621D02*
X0154274Y0366621D01*
X0153716Y0365622D02*
X0152316Y0365622D01*
X0152316Y0364624D02*
X0153716Y0364624D01*
X0153716Y0363625D02*
X0152316Y0363625D01*
X0152316Y0362627D02*
X0153716Y0362627D01*
X0153716Y0361628D02*
X0152316Y0361628D01*
X0152316Y0360630D02*
X0153716Y0360630D01*
X0153716Y0359631D02*
X0152316Y0359631D01*
X0151963Y0358633D02*
X0154068Y0358633D01*
X0154477Y0356824D02*
X0153716Y0356062D01*
X0153716Y0348985D01*
X0154477Y0348224D01*
X0155116Y0348224D01*
X0155116Y0345185D01*
X0155877Y0344424D01*
X0160154Y0344424D01*
X0160916Y0345185D01*
X0160916Y0348224D01*
X0161554Y0348224D01*
X0162316Y0348985D01*
X0162316Y0356062D01*
X0161554Y0356824D01*
X0154477Y0356824D01*
X0154289Y0356636D02*
X0152025Y0356636D01*
X0152516Y0355637D02*
X0153716Y0355637D01*
X0153716Y0354639D02*
X0152516Y0354639D01*
X0152516Y0353640D02*
X0153716Y0353640D01*
X0153716Y0352642D02*
X0150916Y0352642D01*
X0152516Y0351643D02*
X0153716Y0351643D01*
X0153716Y0350645D02*
X0152516Y0350645D01*
X0152516Y0349646D02*
X0153716Y0349646D01*
X0154053Y0348647D02*
X0152242Y0348647D01*
X0150916Y0347649D02*
X0155116Y0347649D01*
X0155116Y0346650D02*
X0150916Y0346650D01*
X0150916Y0345652D02*
X0155116Y0345652D01*
X0155647Y0344653D02*
X0150384Y0344653D01*
X0148516Y0353640D02*
X0147516Y0353640D01*
X0147516Y0354639D02*
X0148516Y0354639D01*
X0148516Y0355637D02*
X0147516Y0355637D01*
X0147516Y0356636D02*
X0148516Y0356636D01*
X0161742Y0356636D02*
X0164289Y0356636D01*
X0164477Y0356824D02*
X0163716Y0356062D01*
X0163716Y0348985D01*
X0164477Y0348224D01*
X0165116Y0348224D01*
X0165116Y0345185D01*
X0165877Y0344424D01*
X0170154Y0344424D01*
X0170916Y0345185D01*
X0170916Y0348224D01*
X0171554Y0348224D01*
X0172316Y0348985D01*
X0172316Y0356062D01*
X0171554Y0356824D01*
X0164477Y0356824D01*
X0164477Y0358224D02*
X0171554Y0358224D01*
X0172316Y0358985D01*
X0172316Y0366062D01*
X0171554Y0366824D01*
X0170916Y0366824D01*
X0170916Y0369862D01*
X0170154Y0370624D01*
X0165877Y0370624D01*
X0165116Y0369862D01*
X0165116Y0366824D01*
X0164477Y0366824D01*
X0163716Y0366062D01*
X0163716Y0358985D01*
X0164477Y0358224D01*
X0164068Y0358633D02*
X0161963Y0358633D01*
X0162316Y0359631D02*
X0163716Y0359631D01*
X0163716Y0360630D02*
X0162316Y0360630D01*
X0162316Y0361628D02*
X0163716Y0361628D01*
X0163716Y0362627D02*
X0162316Y0362627D01*
X0162316Y0363625D02*
X0163716Y0363625D01*
X0163716Y0364624D02*
X0162316Y0364624D01*
X0162316Y0365622D02*
X0163716Y0365622D01*
X0164274Y0366621D02*
X0161757Y0366621D01*
X0160916Y0367619D02*
X0165116Y0367619D01*
X0165116Y0368618D02*
X0160916Y0368618D01*
X0160916Y0369616D02*
X0165116Y0369616D01*
X0165868Y0370615D02*
X0160163Y0370615D01*
X0170163Y0370615D02*
X0175868Y0370615D01*
X0175877Y0370624D02*
X0175116Y0369862D01*
X0175116Y0367024D01*
X0174818Y0367024D01*
X0174437Y0366921D01*
X0174095Y0366724D01*
X0173815Y0366445D01*
X0173618Y0366103D01*
X0173516Y0365721D01*
X0173516Y0363024D01*
X0175116Y0363024D01*
X0175116Y0362185D01*
X0175277Y0362024D01*
X0173516Y0362024D01*
X0173516Y0359326D01*
X0173618Y0358945D01*
X0173815Y0358603D01*
X0174095Y0358323D01*
X0174437Y0358126D01*
X0174818Y0358024D01*
X0177516Y0358024D01*
X0177516Y0361424D01*
X0178516Y0361424D01*
X0178516Y0358024D01*
X0181213Y0358024D01*
X0181595Y0358126D01*
X0181937Y0358323D01*
X0182216Y0358603D01*
X0182414Y0358945D01*
X0182516Y0359326D01*
X0182516Y0362024D01*
X0180754Y0362024D01*
X0180916Y0362185D01*
X0180916Y0363024D01*
X0182516Y0363024D01*
X0182516Y0365721D01*
X0182414Y0366103D01*
X0182216Y0366445D01*
X0181937Y0366724D01*
X0181595Y0366921D01*
X0181213Y0367024D01*
X0180916Y0367024D01*
X0180916Y0369862D01*
X0180154Y0370624D01*
X0175877Y0370624D01*
X0175116Y0369616D02*
X0170916Y0369616D01*
X0170916Y0368618D02*
X0175116Y0368618D01*
X0175116Y0367619D02*
X0170916Y0367619D01*
X0171757Y0366621D02*
X0173992Y0366621D01*
X0173516Y0365622D02*
X0172316Y0365622D01*
X0172316Y0364624D02*
X0173516Y0364624D01*
X0173516Y0363625D02*
X0172316Y0363625D01*
X0172316Y0362627D02*
X0175116Y0362627D01*
X0173516Y0361628D02*
X0172316Y0361628D01*
X0172316Y0360630D02*
X0173516Y0360630D01*
X0173516Y0359631D02*
X0172316Y0359631D01*
X0171963Y0358633D02*
X0173798Y0358633D01*
X0174477Y0356824D02*
X0173716Y0356062D01*
X0173716Y0348985D01*
X0174477Y0348224D01*
X0175116Y0348224D01*
X0175116Y0345185D01*
X0175877Y0344424D01*
X0180154Y0344424D01*
X0180916Y0345185D01*
X0180916Y0348224D01*
X0181554Y0348224D01*
X0182316Y0348985D01*
X0182316Y0356062D01*
X0181554Y0356824D01*
X0174477Y0356824D01*
X0174289Y0356636D02*
X0171742Y0356636D01*
X0172316Y0355637D02*
X0173716Y0355637D01*
X0173716Y0354639D02*
X0172316Y0354639D01*
X0172316Y0353640D02*
X0173716Y0353640D01*
X0173716Y0352642D02*
X0172316Y0352642D01*
X0172316Y0351643D02*
X0173716Y0351643D01*
X0173716Y0350645D02*
X0172316Y0350645D01*
X0172316Y0349646D02*
X0173716Y0349646D01*
X0174053Y0348647D02*
X0171978Y0348647D01*
X0170916Y0347649D02*
X0175116Y0347649D01*
X0175116Y0346650D02*
X0170916Y0346650D01*
X0170916Y0345652D02*
X0175116Y0345652D01*
X0175647Y0344653D02*
X0170384Y0344653D01*
X0165647Y0344653D02*
X0160384Y0344653D01*
X0160916Y0345652D02*
X0165116Y0345652D01*
X0165116Y0346650D02*
X0160916Y0346650D01*
X0160916Y0347649D02*
X0165116Y0347649D01*
X0164053Y0348647D02*
X0161978Y0348647D01*
X0162316Y0349646D02*
X0163716Y0349646D01*
X0163716Y0350645D02*
X0162316Y0350645D01*
X0162316Y0351643D02*
X0163716Y0351643D01*
X0163716Y0352642D02*
X0162316Y0352642D01*
X0162316Y0353640D02*
X0163716Y0353640D01*
X0163716Y0354639D02*
X0162316Y0354639D01*
X0162316Y0355637D02*
X0163716Y0355637D01*
X0177516Y0358633D02*
X0178516Y0358633D01*
X0178516Y0359631D02*
X0177516Y0359631D01*
X0177516Y0360630D02*
X0178516Y0360630D01*
X0180916Y0362627D02*
X0183716Y0362627D01*
X0183716Y0363625D02*
X0182516Y0363625D01*
X0182516Y0364624D02*
X0183716Y0364624D01*
X0183716Y0365622D02*
X0182516Y0365622D01*
X0182040Y0366621D02*
X0184274Y0366621D01*
X0184477Y0366824D02*
X0183716Y0366062D01*
X0183716Y0358985D01*
X0184477Y0358224D01*
X0191554Y0358224D01*
X0192316Y0358985D01*
X0192316Y0366062D01*
X0191554Y0366824D01*
X0190916Y0366824D01*
X0190916Y0369862D01*
X0190154Y0370624D01*
X0185877Y0370624D01*
X0185116Y0369862D01*
X0185116Y0366824D01*
X0184477Y0366824D01*
X0185116Y0367619D02*
X0180916Y0367619D01*
X0180916Y0368618D02*
X0185116Y0368618D01*
X0185116Y0369616D02*
X0180916Y0369616D01*
X0180163Y0370615D02*
X0185868Y0370615D01*
X0190163Y0370615D02*
X0195868Y0370615D01*
X0195877Y0370624D02*
X0195116Y0369862D01*
X0195116Y0366824D01*
X0194477Y0366824D01*
X0193716Y0366062D01*
X0193716Y0358985D01*
X0194477Y0358224D01*
X0201554Y0358224D01*
X0202316Y0358985D01*
X0202316Y0366062D01*
X0201554Y0366824D01*
X0200916Y0366824D01*
X0200916Y0369862D01*
X0200154Y0370624D01*
X0195877Y0370624D01*
X0195116Y0369616D02*
X0190916Y0369616D01*
X0190916Y0368618D02*
X0195116Y0368618D01*
X0195116Y0367619D02*
X0190916Y0367619D01*
X0191757Y0366621D02*
X0194274Y0366621D01*
X0193716Y0365622D02*
X0192316Y0365622D01*
X0192316Y0364624D02*
X0193716Y0364624D01*
X0193716Y0363625D02*
X0192316Y0363625D01*
X0192316Y0362627D02*
X0193716Y0362627D01*
X0193716Y0361628D02*
X0192316Y0361628D01*
X0192316Y0360630D02*
X0193716Y0360630D01*
X0193716Y0359631D02*
X0192316Y0359631D01*
X0191963Y0358633D02*
X0194068Y0358633D01*
X0194437Y0356921D02*
X0194095Y0356724D01*
X0193815Y0356445D01*
X0193618Y0356103D01*
X0193516Y0355721D01*
X0193516Y0353024D01*
X0195277Y0353024D01*
X0195116Y0352862D01*
X0195116Y0352024D01*
X0193516Y0352024D01*
X0193516Y0349326D01*
X0193618Y0348945D01*
X0193815Y0348603D01*
X0194095Y0348323D01*
X0194437Y0348126D01*
X0194818Y0348024D01*
X0195116Y0348024D01*
X0195116Y0345185D01*
X0195877Y0344424D01*
X0200154Y0344424D01*
X0200916Y0345185D01*
X0200916Y0348024D01*
X0201213Y0348024D01*
X0201595Y0348126D01*
X0201937Y0348323D01*
X0202216Y0348603D01*
X0202414Y0348945D01*
X0202516Y0349326D01*
X0202516Y0352024D01*
X0200916Y0352024D01*
X0200916Y0352862D01*
X0200754Y0353024D01*
X0202516Y0353024D01*
X0202516Y0355721D01*
X0202414Y0356103D01*
X0202216Y0356445D01*
X0201937Y0356724D01*
X0201595Y0356921D01*
X0201213Y0357024D01*
X0198516Y0357024D01*
X0198516Y0353624D01*
X0197516Y0353624D01*
X0197516Y0357024D01*
X0194818Y0357024D01*
X0194437Y0356921D01*
X0194006Y0356636D02*
X0191742Y0356636D01*
X0191554Y0356824D02*
X0184477Y0356824D01*
X0183716Y0356062D01*
X0183716Y0348985D01*
X0184477Y0348224D01*
X0185116Y0348224D01*
X0185116Y0345185D01*
X0185877Y0344424D01*
X0190154Y0344424D01*
X0190916Y0345185D01*
X0190916Y0348224D01*
X0191554Y0348224D01*
X0192316Y0348985D01*
X0192316Y0356062D01*
X0191554Y0356824D01*
X0192316Y0355637D02*
X0193516Y0355637D01*
X0193516Y0354639D02*
X0192316Y0354639D01*
X0192316Y0353640D02*
X0193516Y0353640D01*
X0192316Y0352642D02*
X0195116Y0352642D01*
X0193516Y0351643D02*
X0192316Y0351643D01*
X0192316Y0350645D02*
X0193516Y0350645D01*
X0193516Y0349646D02*
X0192316Y0349646D01*
X0191978Y0348647D02*
X0193790Y0348647D01*
X0195116Y0347649D02*
X0190916Y0347649D01*
X0190916Y0346650D02*
X0195116Y0346650D01*
X0195116Y0345652D02*
X0190916Y0345652D01*
X0190384Y0344653D02*
X0195647Y0344653D01*
X0200384Y0344653D02*
X0205647Y0344653D01*
X0205877Y0344424D02*
X0210154Y0344424D01*
X0210916Y0345185D01*
X0210916Y0348224D01*
X0211554Y0348224D01*
X0212316Y0348985D01*
X0212316Y0356062D01*
X0211554Y0356824D01*
X0204477Y0356824D01*
X0203716Y0356062D01*
X0203716Y0348985D01*
X0204477Y0348224D01*
X0205116Y0348224D01*
X0205116Y0345185D01*
X0205877Y0344424D01*
X0205116Y0345652D02*
X0200916Y0345652D01*
X0200916Y0346650D02*
X0205116Y0346650D01*
X0205116Y0347649D02*
X0200916Y0347649D01*
X0202242Y0348647D02*
X0204053Y0348647D01*
X0203716Y0349646D02*
X0202516Y0349646D01*
X0202516Y0350645D02*
X0203716Y0350645D01*
X0203716Y0351643D02*
X0202516Y0351643D01*
X0203716Y0352642D02*
X0200916Y0352642D01*
X0202516Y0353640D02*
X0203716Y0353640D01*
X0203716Y0354639D02*
X0202516Y0354639D01*
X0202516Y0355637D02*
X0203716Y0355637D01*
X0204289Y0356636D02*
X0202025Y0356636D01*
X0201963Y0358633D02*
X0204068Y0358633D01*
X0203716Y0358985D02*
X0204477Y0358224D01*
X0211554Y0358224D01*
X0212316Y0358985D01*
X0212316Y0366062D01*
X0211554Y0366824D01*
X0210916Y0366824D01*
X0210916Y0369862D01*
X0210154Y0370624D01*
X0205877Y0370624D01*
X0205116Y0369862D01*
X0205116Y0366824D01*
X0204477Y0366824D01*
X0203716Y0366062D01*
X0203716Y0358985D01*
X0203716Y0359631D02*
X0202316Y0359631D01*
X0202316Y0360630D02*
X0203716Y0360630D01*
X0203716Y0361628D02*
X0202316Y0361628D01*
X0202316Y0362627D02*
X0203716Y0362627D01*
X0203716Y0363625D02*
X0202316Y0363625D01*
X0202316Y0364624D02*
X0203716Y0364624D01*
X0203716Y0365622D02*
X0202316Y0365622D01*
X0201757Y0366621D02*
X0204274Y0366621D01*
X0205116Y0367619D02*
X0200916Y0367619D01*
X0200916Y0368618D02*
X0205116Y0368618D01*
X0205116Y0369616D02*
X0200916Y0369616D01*
X0200163Y0370615D02*
X0205868Y0370615D01*
X0210163Y0370615D02*
X0215868Y0370615D01*
X0215877Y0370624D02*
X0215116Y0369862D01*
X0215116Y0366824D01*
X0214477Y0366824D01*
X0213716Y0366062D01*
X0213716Y0358985D01*
X0214477Y0358224D01*
X0221554Y0358224D01*
X0222316Y0358985D01*
X0222316Y0366062D01*
X0221554Y0366824D01*
X0220916Y0366824D01*
X0220916Y0369862D01*
X0220154Y0370624D01*
X0215877Y0370624D01*
X0215116Y0369616D02*
X0210916Y0369616D01*
X0210916Y0368618D02*
X0215116Y0368618D01*
X0215116Y0367619D02*
X0210916Y0367619D01*
X0211757Y0366621D02*
X0214274Y0366621D01*
X0213716Y0365622D02*
X0212316Y0365622D01*
X0212316Y0364624D02*
X0213716Y0364624D01*
X0213716Y0363625D02*
X0212316Y0363625D01*
X0212316Y0362627D02*
X0213716Y0362627D01*
X0213716Y0361628D02*
X0212316Y0361628D01*
X0212316Y0360630D02*
X0213716Y0360630D01*
X0213716Y0359631D02*
X0212316Y0359631D01*
X0211963Y0358633D02*
X0214068Y0358633D01*
X0214437Y0356921D02*
X0214095Y0356724D01*
X0213815Y0356445D01*
X0213618Y0356103D01*
X0213516Y0355721D01*
X0213516Y0353024D01*
X0215277Y0353024D01*
X0215116Y0352862D01*
X0215116Y0352024D01*
X0213516Y0352024D01*
X0213516Y0349326D01*
X0213618Y0348945D01*
X0213815Y0348603D01*
X0214095Y0348323D01*
X0214437Y0348126D01*
X0214818Y0348024D01*
X0215116Y0348024D01*
X0215116Y0345185D01*
X0215877Y0344424D01*
X0220154Y0344424D01*
X0220916Y0345185D01*
X0220916Y0348024D01*
X0221213Y0348024D01*
X0221595Y0348126D01*
X0221937Y0348323D01*
X0222216Y0348603D01*
X0222414Y0348945D01*
X0222516Y0349326D01*
X0222516Y0352024D01*
X0220916Y0352024D01*
X0220916Y0352862D01*
X0220754Y0353024D01*
X0222516Y0353024D01*
X0222516Y0355721D01*
X0222414Y0356103D01*
X0222216Y0356445D01*
X0221937Y0356724D01*
X0221595Y0356921D01*
X0221213Y0357024D01*
X0218516Y0357024D01*
X0218516Y0353624D01*
X0217516Y0353624D01*
X0217516Y0357024D01*
X0214818Y0357024D01*
X0214437Y0356921D01*
X0214006Y0356636D02*
X0211742Y0356636D01*
X0212316Y0355637D02*
X0213516Y0355637D01*
X0213516Y0354639D02*
X0212316Y0354639D01*
X0212316Y0353640D02*
X0213516Y0353640D01*
X0212316Y0352642D02*
X0215116Y0352642D01*
X0213516Y0351643D02*
X0212316Y0351643D01*
X0212316Y0350645D02*
X0213516Y0350645D01*
X0213516Y0349646D02*
X0212316Y0349646D01*
X0211978Y0348647D02*
X0213790Y0348647D01*
X0215116Y0347649D02*
X0210916Y0347649D01*
X0210916Y0346650D02*
X0215116Y0346650D01*
X0215116Y0345652D02*
X0210916Y0345652D01*
X0210384Y0344653D02*
X0215647Y0344653D01*
X0220384Y0344653D02*
X0225647Y0344653D01*
X0225877Y0344424D02*
X0230154Y0344424D01*
X0230916Y0345185D01*
X0230916Y0348224D01*
X0231554Y0348224D01*
X0232316Y0348985D01*
X0232316Y0356062D01*
X0231554Y0356824D01*
X0224477Y0356824D01*
X0223716Y0356062D01*
X0223716Y0348985D01*
X0224477Y0348224D01*
X0225116Y0348224D01*
X0225116Y0345185D01*
X0225877Y0344424D01*
X0225116Y0345652D02*
X0220916Y0345652D01*
X0220916Y0346650D02*
X0225116Y0346650D01*
X0225116Y0347649D02*
X0220916Y0347649D01*
X0222242Y0348647D02*
X0224053Y0348647D01*
X0223716Y0349646D02*
X0222516Y0349646D01*
X0222516Y0350645D02*
X0223716Y0350645D01*
X0223716Y0351643D02*
X0222516Y0351643D01*
X0223716Y0352642D02*
X0220916Y0352642D01*
X0222516Y0353640D02*
X0223716Y0353640D01*
X0223716Y0354639D02*
X0222516Y0354639D01*
X0222516Y0355637D02*
X0223716Y0355637D01*
X0224289Y0356636D02*
X0222025Y0356636D01*
X0221963Y0358633D02*
X0224068Y0358633D01*
X0223716Y0358985D02*
X0224477Y0358224D01*
X0231554Y0358224D01*
X0232316Y0358985D01*
X0232316Y0366062D01*
X0231554Y0366824D01*
X0230916Y0366824D01*
X0230916Y0369862D01*
X0230154Y0370624D01*
X0225877Y0370624D01*
X0225116Y0369862D01*
X0225116Y0366824D01*
X0224477Y0366824D01*
X0223716Y0366062D01*
X0223716Y0358985D01*
X0223716Y0359631D02*
X0222316Y0359631D01*
X0222316Y0360630D02*
X0223716Y0360630D01*
X0223716Y0361628D02*
X0222316Y0361628D01*
X0222316Y0362627D02*
X0223716Y0362627D01*
X0223716Y0363625D02*
X0222316Y0363625D01*
X0222316Y0364624D02*
X0223716Y0364624D01*
X0223716Y0365622D02*
X0222316Y0365622D01*
X0221757Y0366621D02*
X0224274Y0366621D01*
X0225116Y0367619D02*
X0220916Y0367619D01*
X0220916Y0368618D02*
X0225116Y0368618D01*
X0225116Y0369616D02*
X0220916Y0369616D01*
X0220163Y0370615D02*
X0225868Y0370615D01*
X0230163Y0370615D02*
X0235868Y0370615D01*
X0235877Y0370624D02*
X0235116Y0369862D01*
X0235116Y0366824D01*
X0234477Y0366824D01*
X0233716Y0366062D01*
X0233716Y0358985D01*
X0234477Y0358224D01*
X0241554Y0358224D01*
X0242316Y0358985D01*
X0242316Y0366062D01*
X0241554Y0366824D01*
X0240916Y0366824D01*
X0240916Y0369862D01*
X0240154Y0370624D01*
X0235877Y0370624D01*
X0235116Y0369616D02*
X0230916Y0369616D01*
X0230916Y0368618D02*
X0235116Y0368618D01*
X0235116Y0367619D02*
X0230916Y0367619D01*
X0231757Y0366621D02*
X0234274Y0366621D01*
X0233716Y0365622D02*
X0232316Y0365622D01*
X0232316Y0364624D02*
X0233716Y0364624D01*
X0233716Y0363625D02*
X0232316Y0363625D01*
X0232316Y0362627D02*
X0233716Y0362627D01*
X0233716Y0361628D02*
X0232316Y0361628D01*
X0232316Y0360630D02*
X0233716Y0360630D01*
X0233716Y0359631D02*
X0232316Y0359631D01*
X0231963Y0358633D02*
X0234068Y0358633D01*
X0234477Y0356824D02*
X0233716Y0356062D01*
X0233716Y0348985D01*
X0234477Y0348224D01*
X0235116Y0348224D01*
X0235116Y0345185D01*
X0235877Y0344424D01*
X0240154Y0344424D01*
X0240916Y0345185D01*
X0240916Y0348224D01*
X0241554Y0348224D01*
X0242316Y0348985D01*
X0242316Y0356062D01*
X0241554Y0356824D01*
X0234477Y0356824D01*
X0234289Y0356636D02*
X0231742Y0356636D01*
X0232316Y0355637D02*
X0233716Y0355637D01*
X0233716Y0354639D02*
X0232316Y0354639D01*
X0232316Y0353640D02*
X0233716Y0353640D01*
X0233716Y0352642D02*
X0232316Y0352642D01*
X0232316Y0351643D02*
X0233716Y0351643D01*
X0233716Y0350645D02*
X0232316Y0350645D01*
X0232316Y0349646D02*
X0233716Y0349646D01*
X0234053Y0348647D02*
X0231978Y0348647D01*
X0230916Y0347649D02*
X0235116Y0347649D01*
X0235116Y0346650D02*
X0230916Y0346650D01*
X0230916Y0345652D02*
X0235116Y0345652D01*
X0235647Y0344653D02*
X0230384Y0344653D01*
X0240384Y0344653D02*
X0245647Y0344653D01*
X0245116Y0345652D02*
X0240916Y0345652D01*
X0240916Y0346650D02*
X0245116Y0346650D01*
X0245116Y0347649D02*
X0240916Y0347649D01*
X0241978Y0348647D02*
X0244053Y0348647D01*
X0243716Y0349646D02*
X0242316Y0349646D01*
X0242316Y0350645D02*
X0243716Y0350645D01*
X0243716Y0351643D02*
X0242316Y0351643D01*
X0242316Y0352642D02*
X0243716Y0352642D01*
X0243716Y0353640D02*
X0242316Y0353640D01*
X0242316Y0354639D02*
X0243716Y0354639D01*
X0243716Y0355637D02*
X0242316Y0355637D01*
X0241742Y0356636D02*
X0244289Y0356636D01*
X0243798Y0358633D02*
X0241963Y0358633D01*
X0242316Y0359631D02*
X0243516Y0359631D01*
X0243516Y0360630D02*
X0242316Y0360630D01*
X0242316Y0361628D02*
X0243516Y0361628D01*
X0242316Y0362627D02*
X0245116Y0362627D01*
X0243516Y0363625D02*
X0242316Y0363625D01*
X0242316Y0364624D02*
X0243516Y0364624D01*
X0243516Y0365622D02*
X0242316Y0365622D01*
X0241757Y0366621D02*
X0243992Y0366621D01*
X0245116Y0367619D02*
X0240916Y0367619D01*
X0240916Y0368618D02*
X0245116Y0368618D01*
X0245116Y0369616D02*
X0240916Y0369616D01*
X0240163Y0370615D02*
X0245868Y0370615D01*
X0247516Y0360630D02*
X0248516Y0360630D01*
X0248516Y0359631D02*
X0247516Y0359631D01*
X0247516Y0358633D02*
X0248516Y0358633D01*
X0275212Y0330674D02*
X0196080Y0330674D01*
X0196080Y0330751D02*
X0195318Y0331513D01*
X0184241Y0331513D01*
X0183480Y0330751D01*
X0183480Y0319674D01*
X0184241Y0318913D01*
X0195318Y0318913D01*
X0196080Y0319674D01*
X0196080Y0330751D01*
X0196080Y0329676D02*
X0275212Y0329676D01*
X0275212Y0328677D02*
X0196080Y0328677D01*
X0196080Y0327679D02*
X0275212Y0327679D01*
X0275212Y0326680D02*
X0196080Y0326680D01*
X0196080Y0325682D02*
X0275212Y0325682D01*
X0275212Y0324683D02*
X0196080Y0324683D01*
X0196080Y0323685D02*
X0275212Y0323685D01*
X0275212Y0322686D02*
X0196080Y0322686D01*
X0196080Y0321688D02*
X0275212Y0321688D01*
X0275212Y0320689D02*
X0196080Y0320689D01*
X0196080Y0319691D02*
X0275212Y0319691D01*
X0286264Y0318692D02*
X0168639Y0318692D01*
X0168639Y0319691D02*
X0183480Y0319691D01*
X0183480Y0320689D02*
X0168639Y0320689D01*
X0168639Y0321688D02*
X0183480Y0321688D01*
X0183480Y0322686D02*
X0168639Y0322686D01*
X0168548Y0317694D02*
X0286264Y0317694D01*
X0286264Y0316695D02*
X0195765Y0316695D01*
X0196080Y0315697D02*
X0286264Y0315697D01*
X0286264Y0314698D02*
X0196080Y0314698D01*
X0196080Y0313700D02*
X0286264Y0313700D01*
X0286264Y0312701D02*
X0196080Y0312701D01*
X0196080Y0311703D02*
X0286264Y0311703D01*
X0286264Y0310704D02*
X0196080Y0310704D01*
X0196080Y0309706D02*
X0286264Y0309706D01*
X0286264Y0308707D02*
X0196080Y0308707D01*
X0196080Y0307709D02*
X0286264Y0307709D01*
X0286264Y0306710D02*
X0196080Y0306710D01*
X0196080Y0305712D02*
X0286264Y0305712D01*
X0286264Y0304713D02*
X0195488Y0304713D01*
X0184071Y0304713D02*
X0157418Y0304713D01*
X0157418Y0305712D02*
X0183480Y0305712D01*
X0183480Y0306710D02*
X0157365Y0306710D01*
X0157418Y0303714D02*
X0286264Y0303714D01*
X0286264Y0302716D02*
X0157418Y0302716D01*
X0157418Y0301717D02*
X0286264Y0301717D01*
X0286264Y0300719D02*
X0157418Y0300719D01*
X0157418Y0299720D02*
X0286264Y0299720D01*
X0286264Y0298722D02*
X0156860Y0298722D01*
X0168434Y0309706D02*
X0183480Y0309706D01*
X0183480Y0310704D02*
X0168639Y0310704D01*
X0168639Y0311703D02*
X0183480Y0311703D01*
X0183480Y0312701D02*
X0168639Y0312701D01*
X0168639Y0313700D02*
X0183480Y0313700D01*
X0183480Y0314698D02*
X0168639Y0314698D01*
X0157048Y0325682D02*
X0183480Y0325682D01*
X0183480Y0326680D02*
X0157418Y0326680D01*
X0157418Y0327679D02*
X0183480Y0327679D01*
X0183480Y0328677D02*
X0157418Y0328677D01*
X0157418Y0329676D02*
X0183480Y0329676D01*
X0183480Y0330674D02*
X0157418Y0330674D01*
X0157418Y0331673D02*
X0286264Y0331673D01*
X0286264Y0332671D02*
X0157418Y0332671D01*
X0157177Y0333670D02*
X0286264Y0333670D01*
X0286264Y0388588D02*
X0088149Y0388588D01*
X0089657Y0389586D02*
X0286264Y0389586D01*
X0286264Y0390585D02*
X0090471Y0390585D01*
X0090884Y0391583D02*
X0286264Y0391583D01*
X0286264Y0392582D02*
X0091056Y0392582D01*
X0091056Y0393580D02*
X0286264Y0393580D01*
X0286264Y0394579D02*
X0090761Y0394579D01*
X0090347Y0395578D02*
X0286264Y0395578D01*
X0286264Y0396576D02*
X0089521Y0396576D01*
X0089521Y0397575D02*
X0286264Y0397575D01*
X0286264Y0398573D02*
X0089479Y0398573D01*
X0089065Y0399572D02*
X0286264Y0399572D01*
X0286264Y0400570D02*
X0088434Y0400570D01*
X0087484Y0401521D02*
X0087484Y0401521D01*
X0087368Y0401569D02*
X0286264Y0401569D01*
X0218516Y0356636D02*
X0217516Y0356636D01*
X0217516Y0355637D02*
X0218516Y0355637D01*
X0218516Y0354639D02*
X0217516Y0354639D01*
X0217516Y0353640D02*
X0218516Y0353640D01*
X0198516Y0353640D02*
X0197516Y0353640D01*
X0197516Y0354639D02*
X0198516Y0354639D01*
X0198516Y0355637D02*
X0197516Y0355637D01*
X0197516Y0356636D02*
X0198516Y0356636D01*
X0185116Y0347649D02*
X0180916Y0347649D01*
X0180916Y0346650D02*
X0185116Y0346650D01*
X0185116Y0345652D02*
X0180916Y0345652D01*
X0180384Y0344653D02*
X0185647Y0344653D01*
X0184053Y0348647D02*
X0181978Y0348647D01*
X0182316Y0349646D02*
X0183716Y0349646D01*
X0183716Y0350645D02*
X0182316Y0350645D01*
X0182316Y0351643D02*
X0183716Y0351643D01*
X0183716Y0352642D02*
X0182316Y0352642D01*
X0182316Y0353640D02*
X0183716Y0353640D01*
X0183716Y0354639D02*
X0182316Y0354639D01*
X0182316Y0355637D02*
X0183716Y0355637D01*
X0184289Y0356636D02*
X0181742Y0356636D01*
X0182233Y0358633D02*
X0184068Y0358633D01*
X0183716Y0359631D02*
X0182516Y0359631D01*
X0182516Y0360630D02*
X0183716Y0360630D01*
X0183716Y0361628D02*
X0182516Y0361628D01*
X0189280Y0274758D02*
X0190279Y0274758D01*
X0190279Y0273759D02*
X0189280Y0273759D01*
X0189280Y0272761D02*
X0190279Y0272761D01*
X0190279Y0271762D02*
X0189280Y0271762D01*
X0189280Y0270764D02*
X0190279Y0270764D01*
X0190279Y0267768D02*
X0189280Y0267768D01*
X0189280Y0266770D02*
X0190279Y0266770D01*
X0190279Y0265771D02*
X0189280Y0265771D01*
X0189280Y0264773D02*
X0190279Y0264773D01*
X0190279Y0263774D02*
X0189280Y0263774D01*
X0189280Y0262776D02*
X0190279Y0262776D01*
X0195763Y0262776D02*
X0275811Y0262776D01*
X0275212Y0263774D02*
X0196280Y0263774D01*
X0196280Y0264773D02*
X0275212Y0264773D01*
X0275212Y0265771D02*
X0196280Y0265771D01*
X0196280Y0266770D02*
X0275212Y0266770D01*
X0275212Y0267768D02*
X0196280Y0267768D01*
X0224628Y0187493D02*
X0224628Y0187493D01*
X0277777Y0122381D02*
X0277777Y0122381D01*
X0284853Y0122381D02*
X0284853Y0122381D01*
X0285755Y0122984D02*
X0286264Y0122984D01*
X0210673Y0023133D02*
X0021642Y0023133D01*
X0021642Y0022134D02*
X0210673Y0022134D01*
X0087297Y0325682D02*
X0086182Y0325682D01*
X0078516Y0353640D02*
X0077516Y0353640D01*
X0077516Y0354639D02*
X0078516Y0354639D01*
X0078516Y0355637D02*
X0077516Y0355637D01*
X0077516Y0356636D02*
X0078516Y0356636D01*
X0117516Y0356636D02*
X0118516Y0356636D01*
X0118516Y0355637D02*
X0117516Y0355637D01*
X0117516Y0354639D02*
X0118516Y0354639D01*
X0118516Y0353640D02*
X0117516Y0353640D01*
M02*
