%
M48
M72
T01C0.01969
T02C0.03543
T03C0.04000
T04C0.04724
T05C0.05118
T06C0.05906
T07C0.06299
%
T01
X71741Y60449
X97234Y95882
X109045Y50606
X211407Y91945
X266525Y139189
X258651Y213992
X124793Y233677
X61801Y233677
X153052Y335252
X157864Y341551
X163052Y347850
X173052Y344701
X178139Y338402
X168100Y332102
X195659Y312417
X203533Y312417
X211407Y312417
X219281Y312417
X227155Y312417
X235029Y312417
X242903Y312417
X250777Y312417
X280304Y354150
X263052Y387220
X253052Y446276
X213052Y438402
X183052Y387220
X136604Y472654
X128730Y472654
X120856Y472654
X112982Y472654
X105108Y472654
X97234Y472654
X74989Y446276
X63178Y434465
X85423Y371472
X93297Y371472
X101171Y371472
X109045Y371472
T02
X60226Y468815
X72037Y468815
T03
X211407Y52575
X211407Y42575
T04
X176367Y50606
X156682Y30921
X156682Y21079
X196052Y21079
X196052Y30921
T05
X156682Y50606
X166525Y50606
X186210Y50606
X196052Y50606
X176367Y30921
T06
X38966Y162417
X70462Y193913
X101958Y162417
X136820Y80173
X157942Y128205
X169753Y187260
X213060Y151827
X224871Y210882
X268375Y169504
X256367Y112457
X182489Y80173
X70462Y130921
T07
X31289Y253559
X31289Y292929
M30
