%
M48
M72
T01C0.01969
T02C0.02000
T03C0.02362
T04C0.04000
T05C0.13000
%
T01
X127484Y82209
X174728Y86146
X237720Y194413
X72366Y123547
X68429Y131421
X64492Y135358
X68429Y155043
X64492Y158980
X60555Y162917
X56618Y166854
X32996Y99925
T02
X148980Y118547
X148980Y128547
X158980Y128547
X168980Y128547
X168980Y118547
X158980Y118547
T03
X248941Y187524
X203272Y187524
T04
X131421Y139295
X141421Y139295
X143232Y194413
X153232Y194413
X167366Y220004
X177366Y220004
X187366Y220004
X197366Y220004
X130240Y220004
X120240Y220004
X110240Y220004
X100240Y220004
X90240Y220004
X80240Y220004
X44807Y186539
X34807Y186539
X34807Y174728
X44807Y174728
T05
X87524Y48744
X95398Y68429
X115083Y97957
X185949Y50713
X225319Y84177
X213508Y123547
X264689Y80240
X264689Y214098
X12720Y214098
X12720Y56618
M30
