G75*
%MOIN*%
%OFA0B0*%
%FSLAX25Y25*%
%IPPOS*%
%LPD*%
%AMOC8*
5,1,8,0,0,1.08239X$1,22.5*
%
%ADD10C,0.00000*%
%ADD11C,0.00039*%
%ADD12R,0.05131X0.06312*%
%ADD13R,0.16548X0.02375*%
%ADD14C,0.00400*%
%ADD15R,0.06902X0.05918*%
%ADD16R,0.09855X0.07099*%
%ADD17R,0.05524X0.05524*%
%ADD18R,0.05918X0.06902*%
%ADD19C,0.08674*%
%ADD20C,0.04343*%
D10*
X0017142Y0017142D02*
X0017142Y0201000D01*
X0017142Y0210449D01*
X0017142Y0466945D01*
X0290764Y0466945D01*
X0290764Y0083874D01*
X0215173Y0083874D01*
X0215173Y0017142D01*
X0017142Y0017142D01*
X0017142Y0201000D02*
X0017278Y0201002D01*
X0017414Y0201008D01*
X0017550Y0201018D01*
X0017685Y0201031D01*
X0017820Y0201049D01*
X0017955Y0201070D01*
X0018089Y0201096D01*
X0018222Y0201125D01*
X0018354Y0201158D01*
X0018485Y0201195D01*
X0018615Y0201235D01*
X0018743Y0201280D01*
X0018871Y0201328D01*
X0018997Y0201379D01*
X0019121Y0201435D01*
X0019244Y0201493D01*
X0019365Y0201556D01*
X0019484Y0201622D01*
X0019602Y0201691D01*
X0019717Y0201763D01*
X0019830Y0201839D01*
X0019941Y0201918D01*
X0020049Y0202001D01*
X0020155Y0202086D01*
X0020259Y0202174D01*
X0020360Y0202265D01*
X0020458Y0202360D01*
X0020554Y0202457D01*
X0020647Y0202556D01*
X0020736Y0202659D01*
X0020823Y0202763D01*
X0020907Y0202871D01*
X0020988Y0202980D01*
X0021065Y0203092D01*
X0021139Y0203207D01*
X0021210Y0203323D01*
X0021278Y0203441D01*
X0021342Y0203561D01*
X0021402Y0203683D01*
X0021459Y0203807D01*
X0021513Y0203932D01*
X0021563Y0204059D01*
X0021609Y0204187D01*
X0021651Y0204316D01*
X0021690Y0204447D01*
X0021725Y0204578D01*
X0021756Y0204711D01*
X0021783Y0204844D01*
X0021807Y0204978D01*
X0021826Y0205113D01*
X0021842Y0205248D01*
X0021854Y0205384D01*
X0021862Y0205520D01*
X0021866Y0205656D01*
X0021866Y0205792D01*
X0021862Y0205928D01*
X0021854Y0206064D01*
X0021842Y0206200D01*
X0021826Y0206335D01*
X0021807Y0206470D01*
X0021783Y0206604D01*
X0021756Y0206737D01*
X0021725Y0206870D01*
X0021690Y0207001D01*
X0021651Y0207132D01*
X0021609Y0207261D01*
X0021563Y0207389D01*
X0021513Y0207516D01*
X0021459Y0207641D01*
X0021402Y0207765D01*
X0021342Y0207887D01*
X0021278Y0208007D01*
X0021210Y0208125D01*
X0021139Y0208241D01*
X0021065Y0208356D01*
X0020988Y0208468D01*
X0020907Y0208577D01*
X0020823Y0208685D01*
X0020736Y0208789D01*
X0020647Y0208892D01*
X0020554Y0208991D01*
X0020458Y0209088D01*
X0020360Y0209183D01*
X0020259Y0209274D01*
X0020155Y0209362D01*
X0020049Y0209447D01*
X0019941Y0209530D01*
X0019830Y0209609D01*
X0019717Y0209685D01*
X0019602Y0209757D01*
X0019484Y0209826D01*
X0019365Y0209892D01*
X0019244Y0209955D01*
X0019121Y0210013D01*
X0018997Y0210069D01*
X0018871Y0210120D01*
X0018743Y0210168D01*
X0018615Y0210213D01*
X0018485Y0210253D01*
X0018354Y0210290D01*
X0018222Y0210323D01*
X0018089Y0210352D01*
X0017955Y0210378D01*
X0017820Y0210399D01*
X0017685Y0210417D01*
X0017550Y0210430D01*
X0017414Y0210440D01*
X0017278Y0210446D01*
X0017142Y0210448D01*
X0053165Y0456118D02*
X0053167Y0456202D01*
X0053173Y0456285D01*
X0053183Y0456368D01*
X0053197Y0456451D01*
X0053214Y0456533D01*
X0053236Y0456614D01*
X0053261Y0456693D01*
X0053290Y0456772D01*
X0053323Y0456849D01*
X0053359Y0456924D01*
X0053399Y0456998D01*
X0053442Y0457070D01*
X0053489Y0457139D01*
X0053539Y0457206D01*
X0053592Y0457271D01*
X0053648Y0457333D01*
X0053706Y0457393D01*
X0053768Y0457450D01*
X0053832Y0457503D01*
X0053899Y0457554D01*
X0053968Y0457601D01*
X0054039Y0457646D01*
X0054112Y0457686D01*
X0054187Y0457723D01*
X0054264Y0457757D01*
X0054342Y0457787D01*
X0054421Y0457813D01*
X0054502Y0457836D01*
X0054584Y0457854D01*
X0054666Y0457869D01*
X0054749Y0457880D01*
X0054832Y0457887D01*
X0054916Y0457890D01*
X0055000Y0457889D01*
X0055083Y0457884D01*
X0055167Y0457875D01*
X0055249Y0457862D01*
X0055331Y0457846D01*
X0055412Y0457825D01*
X0055493Y0457801D01*
X0055571Y0457773D01*
X0055649Y0457741D01*
X0055725Y0457705D01*
X0055799Y0457666D01*
X0055871Y0457624D01*
X0055941Y0457578D01*
X0056009Y0457529D01*
X0056074Y0457477D01*
X0056137Y0457422D01*
X0056197Y0457364D01*
X0056255Y0457303D01*
X0056309Y0457239D01*
X0056361Y0457173D01*
X0056409Y0457105D01*
X0056454Y0457034D01*
X0056495Y0456961D01*
X0056534Y0456887D01*
X0056568Y0456811D01*
X0056599Y0456733D01*
X0056626Y0456654D01*
X0056650Y0456573D01*
X0056669Y0456492D01*
X0056685Y0456410D01*
X0056697Y0456327D01*
X0056705Y0456243D01*
X0056709Y0456160D01*
X0056709Y0456076D01*
X0056705Y0455993D01*
X0056697Y0455909D01*
X0056685Y0455826D01*
X0056669Y0455744D01*
X0056650Y0455663D01*
X0056626Y0455582D01*
X0056599Y0455503D01*
X0056568Y0455425D01*
X0056534Y0455349D01*
X0056495Y0455275D01*
X0056454Y0455202D01*
X0056409Y0455131D01*
X0056361Y0455063D01*
X0056309Y0454997D01*
X0056255Y0454933D01*
X0056197Y0454872D01*
X0056137Y0454814D01*
X0056074Y0454759D01*
X0056009Y0454707D01*
X0055941Y0454658D01*
X0055871Y0454612D01*
X0055799Y0454570D01*
X0055725Y0454531D01*
X0055649Y0454495D01*
X0055571Y0454463D01*
X0055493Y0454435D01*
X0055412Y0454411D01*
X0055331Y0454390D01*
X0055249Y0454374D01*
X0055167Y0454361D01*
X0055083Y0454352D01*
X0055000Y0454347D01*
X0054916Y0454346D01*
X0054832Y0454349D01*
X0054749Y0454356D01*
X0054666Y0454367D01*
X0054584Y0454382D01*
X0054502Y0454400D01*
X0054421Y0454423D01*
X0054342Y0454449D01*
X0054264Y0454479D01*
X0054187Y0454513D01*
X0054112Y0454550D01*
X0054039Y0454590D01*
X0053968Y0454635D01*
X0053899Y0454682D01*
X0053832Y0454733D01*
X0053768Y0454786D01*
X0053706Y0454843D01*
X0053648Y0454903D01*
X0053592Y0454965D01*
X0053539Y0455030D01*
X0053489Y0455097D01*
X0053442Y0455166D01*
X0053399Y0455238D01*
X0053359Y0455312D01*
X0053323Y0455387D01*
X0053290Y0455464D01*
X0053261Y0455543D01*
X0053236Y0455622D01*
X0053214Y0455703D01*
X0053197Y0455785D01*
X0053183Y0455868D01*
X0053173Y0455951D01*
X0053167Y0456034D01*
X0053165Y0456118D01*
X0064976Y0456118D02*
X0064978Y0456202D01*
X0064984Y0456285D01*
X0064994Y0456368D01*
X0065008Y0456451D01*
X0065025Y0456533D01*
X0065047Y0456614D01*
X0065072Y0456693D01*
X0065101Y0456772D01*
X0065134Y0456849D01*
X0065170Y0456924D01*
X0065210Y0456998D01*
X0065253Y0457070D01*
X0065300Y0457139D01*
X0065350Y0457206D01*
X0065403Y0457271D01*
X0065459Y0457333D01*
X0065517Y0457393D01*
X0065579Y0457450D01*
X0065643Y0457503D01*
X0065710Y0457554D01*
X0065779Y0457601D01*
X0065850Y0457646D01*
X0065923Y0457686D01*
X0065998Y0457723D01*
X0066075Y0457757D01*
X0066153Y0457787D01*
X0066232Y0457813D01*
X0066313Y0457836D01*
X0066395Y0457854D01*
X0066477Y0457869D01*
X0066560Y0457880D01*
X0066643Y0457887D01*
X0066727Y0457890D01*
X0066811Y0457889D01*
X0066894Y0457884D01*
X0066978Y0457875D01*
X0067060Y0457862D01*
X0067142Y0457846D01*
X0067223Y0457825D01*
X0067304Y0457801D01*
X0067382Y0457773D01*
X0067460Y0457741D01*
X0067536Y0457705D01*
X0067610Y0457666D01*
X0067682Y0457624D01*
X0067752Y0457578D01*
X0067820Y0457529D01*
X0067885Y0457477D01*
X0067948Y0457422D01*
X0068008Y0457364D01*
X0068066Y0457303D01*
X0068120Y0457239D01*
X0068172Y0457173D01*
X0068220Y0457105D01*
X0068265Y0457034D01*
X0068306Y0456961D01*
X0068345Y0456887D01*
X0068379Y0456811D01*
X0068410Y0456733D01*
X0068437Y0456654D01*
X0068461Y0456573D01*
X0068480Y0456492D01*
X0068496Y0456410D01*
X0068508Y0456327D01*
X0068516Y0456243D01*
X0068520Y0456160D01*
X0068520Y0456076D01*
X0068516Y0455993D01*
X0068508Y0455909D01*
X0068496Y0455826D01*
X0068480Y0455744D01*
X0068461Y0455663D01*
X0068437Y0455582D01*
X0068410Y0455503D01*
X0068379Y0455425D01*
X0068345Y0455349D01*
X0068306Y0455275D01*
X0068265Y0455202D01*
X0068220Y0455131D01*
X0068172Y0455063D01*
X0068120Y0454997D01*
X0068066Y0454933D01*
X0068008Y0454872D01*
X0067948Y0454814D01*
X0067885Y0454759D01*
X0067820Y0454707D01*
X0067752Y0454658D01*
X0067682Y0454612D01*
X0067610Y0454570D01*
X0067536Y0454531D01*
X0067460Y0454495D01*
X0067382Y0454463D01*
X0067304Y0454435D01*
X0067223Y0454411D01*
X0067142Y0454390D01*
X0067060Y0454374D01*
X0066978Y0454361D01*
X0066894Y0454352D01*
X0066811Y0454347D01*
X0066727Y0454346D01*
X0066643Y0454349D01*
X0066560Y0454356D01*
X0066477Y0454367D01*
X0066395Y0454382D01*
X0066313Y0454400D01*
X0066232Y0454423D01*
X0066153Y0454449D01*
X0066075Y0454479D01*
X0065998Y0454513D01*
X0065923Y0454550D01*
X0065850Y0454590D01*
X0065779Y0454635D01*
X0065710Y0454682D01*
X0065643Y0454733D01*
X0065579Y0454786D01*
X0065517Y0454843D01*
X0065459Y0454903D01*
X0065403Y0454965D01*
X0065350Y0455030D01*
X0065300Y0455097D01*
X0065253Y0455166D01*
X0065210Y0455238D01*
X0065170Y0455312D01*
X0065134Y0455387D01*
X0065101Y0455464D01*
X0065072Y0455543D01*
X0065047Y0455622D01*
X0065025Y0455703D01*
X0065008Y0455785D01*
X0064994Y0455868D01*
X0064984Y0455951D01*
X0064978Y0456034D01*
X0064976Y0456118D01*
X0167142Y0062417D02*
X0167144Y0062542D01*
X0167150Y0062667D01*
X0167160Y0062791D01*
X0167174Y0062915D01*
X0167191Y0063039D01*
X0167213Y0063162D01*
X0167239Y0063284D01*
X0167268Y0063406D01*
X0167301Y0063526D01*
X0167339Y0063645D01*
X0167379Y0063764D01*
X0167424Y0063880D01*
X0167472Y0063995D01*
X0167524Y0064109D01*
X0167580Y0064221D01*
X0167639Y0064331D01*
X0167701Y0064439D01*
X0167767Y0064546D01*
X0167836Y0064650D01*
X0167909Y0064751D01*
X0167984Y0064851D01*
X0168063Y0064948D01*
X0168145Y0065042D01*
X0168230Y0065134D01*
X0168317Y0065223D01*
X0168408Y0065309D01*
X0168501Y0065392D01*
X0168597Y0065473D01*
X0168695Y0065550D01*
X0168795Y0065624D01*
X0168898Y0065695D01*
X0169003Y0065762D01*
X0169111Y0065827D01*
X0169220Y0065887D01*
X0169331Y0065945D01*
X0169444Y0065998D01*
X0169558Y0066048D01*
X0169674Y0066095D01*
X0169791Y0066137D01*
X0169910Y0066176D01*
X0170030Y0066212D01*
X0170151Y0066243D01*
X0170273Y0066271D01*
X0170395Y0066294D01*
X0170519Y0066314D01*
X0170643Y0066330D01*
X0170767Y0066342D01*
X0170892Y0066350D01*
X0171017Y0066354D01*
X0171141Y0066354D01*
X0171266Y0066350D01*
X0171391Y0066342D01*
X0171515Y0066330D01*
X0171639Y0066314D01*
X0171763Y0066294D01*
X0171885Y0066271D01*
X0172007Y0066243D01*
X0172128Y0066212D01*
X0172248Y0066176D01*
X0172367Y0066137D01*
X0172484Y0066095D01*
X0172600Y0066048D01*
X0172714Y0065998D01*
X0172827Y0065945D01*
X0172938Y0065887D01*
X0173048Y0065827D01*
X0173155Y0065762D01*
X0173260Y0065695D01*
X0173363Y0065624D01*
X0173463Y0065550D01*
X0173561Y0065473D01*
X0173657Y0065392D01*
X0173750Y0065309D01*
X0173841Y0065223D01*
X0173928Y0065134D01*
X0174013Y0065042D01*
X0174095Y0064948D01*
X0174174Y0064851D01*
X0174249Y0064751D01*
X0174322Y0064650D01*
X0174391Y0064546D01*
X0174457Y0064439D01*
X0174519Y0064331D01*
X0174578Y0064221D01*
X0174634Y0064109D01*
X0174686Y0063995D01*
X0174734Y0063880D01*
X0174779Y0063764D01*
X0174819Y0063645D01*
X0174857Y0063526D01*
X0174890Y0063406D01*
X0174919Y0063284D01*
X0174945Y0063162D01*
X0174967Y0063039D01*
X0174984Y0062915D01*
X0174998Y0062791D01*
X0175008Y0062667D01*
X0175014Y0062542D01*
X0175016Y0062417D01*
X0175014Y0062292D01*
X0175008Y0062167D01*
X0174998Y0062043D01*
X0174984Y0061919D01*
X0174967Y0061795D01*
X0174945Y0061672D01*
X0174919Y0061550D01*
X0174890Y0061428D01*
X0174857Y0061308D01*
X0174819Y0061189D01*
X0174779Y0061070D01*
X0174734Y0060954D01*
X0174686Y0060839D01*
X0174634Y0060725D01*
X0174578Y0060613D01*
X0174519Y0060503D01*
X0174457Y0060395D01*
X0174391Y0060288D01*
X0174322Y0060184D01*
X0174249Y0060083D01*
X0174174Y0059983D01*
X0174095Y0059886D01*
X0174013Y0059792D01*
X0173928Y0059700D01*
X0173841Y0059611D01*
X0173750Y0059525D01*
X0173657Y0059442D01*
X0173561Y0059361D01*
X0173463Y0059284D01*
X0173363Y0059210D01*
X0173260Y0059139D01*
X0173155Y0059072D01*
X0173047Y0059007D01*
X0172938Y0058947D01*
X0172827Y0058889D01*
X0172714Y0058836D01*
X0172600Y0058786D01*
X0172484Y0058739D01*
X0172367Y0058697D01*
X0172248Y0058658D01*
X0172128Y0058622D01*
X0172007Y0058591D01*
X0171885Y0058563D01*
X0171763Y0058540D01*
X0171639Y0058520D01*
X0171515Y0058504D01*
X0171391Y0058492D01*
X0171266Y0058484D01*
X0171141Y0058480D01*
X0171017Y0058480D01*
X0170892Y0058484D01*
X0170767Y0058492D01*
X0170643Y0058504D01*
X0170519Y0058520D01*
X0170395Y0058540D01*
X0170273Y0058563D01*
X0170151Y0058591D01*
X0170030Y0058622D01*
X0169910Y0058658D01*
X0169791Y0058697D01*
X0169674Y0058739D01*
X0169558Y0058786D01*
X0169444Y0058836D01*
X0169331Y0058889D01*
X0169220Y0058947D01*
X0169110Y0059007D01*
X0169003Y0059072D01*
X0168898Y0059139D01*
X0168795Y0059210D01*
X0168695Y0059284D01*
X0168597Y0059361D01*
X0168501Y0059442D01*
X0168408Y0059525D01*
X0168317Y0059611D01*
X0168230Y0059700D01*
X0168145Y0059792D01*
X0168063Y0059886D01*
X0167984Y0059983D01*
X0167909Y0060083D01*
X0167836Y0060184D01*
X0167767Y0060288D01*
X0167701Y0060395D01*
X0167639Y0060503D01*
X0167580Y0060613D01*
X0167524Y0060725D01*
X0167472Y0060839D01*
X0167424Y0060954D01*
X0167379Y0061070D01*
X0167339Y0061189D01*
X0167301Y0061308D01*
X0167268Y0061428D01*
X0167239Y0061550D01*
X0167213Y0061672D01*
X0167191Y0061795D01*
X0167174Y0061919D01*
X0167160Y0062043D01*
X0167150Y0062167D01*
X0167144Y0062292D01*
X0167142Y0062417D01*
X0167142Y0034858D02*
X0167144Y0034983D01*
X0167150Y0035108D01*
X0167160Y0035232D01*
X0167174Y0035356D01*
X0167191Y0035480D01*
X0167213Y0035603D01*
X0167239Y0035725D01*
X0167268Y0035847D01*
X0167301Y0035967D01*
X0167339Y0036086D01*
X0167379Y0036205D01*
X0167424Y0036321D01*
X0167472Y0036436D01*
X0167524Y0036550D01*
X0167580Y0036662D01*
X0167639Y0036772D01*
X0167701Y0036880D01*
X0167767Y0036987D01*
X0167836Y0037091D01*
X0167909Y0037192D01*
X0167984Y0037292D01*
X0168063Y0037389D01*
X0168145Y0037483D01*
X0168230Y0037575D01*
X0168317Y0037664D01*
X0168408Y0037750D01*
X0168501Y0037833D01*
X0168597Y0037914D01*
X0168695Y0037991D01*
X0168795Y0038065D01*
X0168898Y0038136D01*
X0169003Y0038203D01*
X0169111Y0038268D01*
X0169220Y0038328D01*
X0169331Y0038386D01*
X0169444Y0038439D01*
X0169558Y0038489D01*
X0169674Y0038536D01*
X0169791Y0038578D01*
X0169910Y0038617D01*
X0170030Y0038653D01*
X0170151Y0038684D01*
X0170273Y0038712D01*
X0170395Y0038735D01*
X0170519Y0038755D01*
X0170643Y0038771D01*
X0170767Y0038783D01*
X0170892Y0038791D01*
X0171017Y0038795D01*
X0171141Y0038795D01*
X0171266Y0038791D01*
X0171391Y0038783D01*
X0171515Y0038771D01*
X0171639Y0038755D01*
X0171763Y0038735D01*
X0171885Y0038712D01*
X0172007Y0038684D01*
X0172128Y0038653D01*
X0172248Y0038617D01*
X0172367Y0038578D01*
X0172484Y0038536D01*
X0172600Y0038489D01*
X0172714Y0038439D01*
X0172827Y0038386D01*
X0172938Y0038328D01*
X0173048Y0038268D01*
X0173155Y0038203D01*
X0173260Y0038136D01*
X0173363Y0038065D01*
X0173463Y0037991D01*
X0173561Y0037914D01*
X0173657Y0037833D01*
X0173750Y0037750D01*
X0173841Y0037664D01*
X0173928Y0037575D01*
X0174013Y0037483D01*
X0174095Y0037389D01*
X0174174Y0037292D01*
X0174249Y0037192D01*
X0174322Y0037091D01*
X0174391Y0036987D01*
X0174457Y0036880D01*
X0174519Y0036772D01*
X0174578Y0036662D01*
X0174634Y0036550D01*
X0174686Y0036436D01*
X0174734Y0036321D01*
X0174779Y0036205D01*
X0174819Y0036086D01*
X0174857Y0035967D01*
X0174890Y0035847D01*
X0174919Y0035725D01*
X0174945Y0035603D01*
X0174967Y0035480D01*
X0174984Y0035356D01*
X0174998Y0035232D01*
X0175008Y0035108D01*
X0175014Y0034983D01*
X0175016Y0034858D01*
X0175014Y0034733D01*
X0175008Y0034608D01*
X0174998Y0034484D01*
X0174984Y0034360D01*
X0174967Y0034236D01*
X0174945Y0034113D01*
X0174919Y0033991D01*
X0174890Y0033869D01*
X0174857Y0033749D01*
X0174819Y0033630D01*
X0174779Y0033511D01*
X0174734Y0033395D01*
X0174686Y0033280D01*
X0174634Y0033166D01*
X0174578Y0033054D01*
X0174519Y0032944D01*
X0174457Y0032836D01*
X0174391Y0032729D01*
X0174322Y0032625D01*
X0174249Y0032524D01*
X0174174Y0032424D01*
X0174095Y0032327D01*
X0174013Y0032233D01*
X0173928Y0032141D01*
X0173841Y0032052D01*
X0173750Y0031966D01*
X0173657Y0031883D01*
X0173561Y0031802D01*
X0173463Y0031725D01*
X0173363Y0031651D01*
X0173260Y0031580D01*
X0173155Y0031513D01*
X0173047Y0031448D01*
X0172938Y0031388D01*
X0172827Y0031330D01*
X0172714Y0031277D01*
X0172600Y0031227D01*
X0172484Y0031180D01*
X0172367Y0031138D01*
X0172248Y0031099D01*
X0172128Y0031063D01*
X0172007Y0031032D01*
X0171885Y0031004D01*
X0171763Y0030981D01*
X0171639Y0030961D01*
X0171515Y0030945D01*
X0171391Y0030933D01*
X0171266Y0030925D01*
X0171141Y0030921D01*
X0171017Y0030921D01*
X0170892Y0030925D01*
X0170767Y0030933D01*
X0170643Y0030945D01*
X0170519Y0030961D01*
X0170395Y0030981D01*
X0170273Y0031004D01*
X0170151Y0031032D01*
X0170030Y0031063D01*
X0169910Y0031099D01*
X0169791Y0031138D01*
X0169674Y0031180D01*
X0169558Y0031227D01*
X0169444Y0031277D01*
X0169331Y0031330D01*
X0169220Y0031388D01*
X0169110Y0031448D01*
X0169003Y0031513D01*
X0168898Y0031580D01*
X0168795Y0031651D01*
X0168695Y0031725D01*
X0168597Y0031802D01*
X0168501Y0031883D01*
X0168408Y0031966D01*
X0168317Y0032052D01*
X0168230Y0032141D01*
X0168145Y0032233D01*
X0168063Y0032327D01*
X0167984Y0032424D01*
X0167909Y0032524D01*
X0167836Y0032625D01*
X0167767Y0032729D01*
X0167701Y0032836D01*
X0167639Y0032944D01*
X0167580Y0033054D01*
X0167524Y0033166D01*
X0167472Y0033280D01*
X0167424Y0033395D01*
X0167379Y0033511D01*
X0167339Y0033630D01*
X0167301Y0033749D01*
X0167268Y0033869D01*
X0167239Y0033991D01*
X0167213Y0034113D01*
X0167191Y0034236D01*
X0167174Y0034360D01*
X0167160Y0034484D01*
X0167150Y0034608D01*
X0167144Y0034733D01*
X0167142Y0034858D01*
D11*
X0188008Y0105331D02*
X0188010Y0105468D01*
X0188016Y0105606D01*
X0188026Y0105743D01*
X0188040Y0105879D01*
X0188058Y0106016D01*
X0188080Y0106151D01*
X0188106Y0106286D01*
X0188135Y0106420D01*
X0188169Y0106554D01*
X0188206Y0106686D01*
X0188248Y0106817D01*
X0188293Y0106947D01*
X0188342Y0107075D01*
X0188394Y0107202D01*
X0188451Y0107327D01*
X0188510Y0107451D01*
X0188574Y0107573D01*
X0188641Y0107693D01*
X0188711Y0107811D01*
X0188785Y0107927D01*
X0188862Y0108041D01*
X0188943Y0108152D01*
X0189026Y0108261D01*
X0189113Y0108368D01*
X0189203Y0108471D01*
X0189296Y0108573D01*
X0189392Y0108671D01*
X0189490Y0108767D01*
X0189592Y0108860D01*
X0189695Y0108950D01*
X0189802Y0109037D01*
X0189911Y0109120D01*
X0190022Y0109201D01*
X0190136Y0109278D01*
X0190252Y0109352D01*
X0190370Y0109422D01*
X0190490Y0109489D01*
X0190612Y0109553D01*
X0190736Y0109612D01*
X0190861Y0109669D01*
X0190988Y0109721D01*
X0191116Y0109770D01*
X0191246Y0109815D01*
X0191377Y0109857D01*
X0191509Y0109894D01*
X0191643Y0109928D01*
X0191777Y0109957D01*
X0191912Y0109983D01*
X0192047Y0110005D01*
X0192184Y0110023D01*
X0192320Y0110037D01*
X0192457Y0110047D01*
X0192595Y0110053D01*
X0192732Y0110055D01*
X0192869Y0110053D01*
X0193007Y0110047D01*
X0193144Y0110037D01*
X0193280Y0110023D01*
X0193417Y0110005D01*
X0193552Y0109983D01*
X0193687Y0109957D01*
X0193821Y0109928D01*
X0193955Y0109894D01*
X0194087Y0109857D01*
X0194218Y0109815D01*
X0194348Y0109770D01*
X0194476Y0109721D01*
X0194603Y0109669D01*
X0194728Y0109612D01*
X0194852Y0109553D01*
X0194974Y0109489D01*
X0195094Y0109422D01*
X0195212Y0109352D01*
X0195328Y0109278D01*
X0195442Y0109201D01*
X0195553Y0109120D01*
X0195662Y0109037D01*
X0195769Y0108950D01*
X0195872Y0108860D01*
X0195974Y0108767D01*
X0196072Y0108671D01*
X0196168Y0108573D01*
X0196261Y0108471D01*
X0196351Y0108368D01*
X0196438Y0108261D01*
X0196521Y0108152D01*
X0196602Y0108041D01*
X0196679Y0107927D01*
X0196753Y0107811D01*
X0196823Y0107693D01*
X0196890Y0107573D01*
X0196954Y0107451D01*
X0197013Y0107327D01*
X0197070Y0107202D01*
X0197122Y0107075D01*
X0197171Y0106947D01*
X0197216Y0106817D01*
X0197258Y0106686D01*
X0197295Y0106554D01*
X0197329Y0106420D01*
X0197358Y0106286D01*
X0197384Y0106151D01*
X0197406Y0106016D01*
X0197424Y0105879D01*
X0197438Y0105743D01*
X0197448Y0105606D01*
X0197454Y0105468D01*
X0197456Y0105331D01*
X0197454Y0105194D01*
X0197448Y0105056D01*
X0197438Y0104919D01*
X0197424Y0104783D01*
X0197406Y0104646D01*
X0197384Y0104511D01*
X0197358Y0104376D01*
X0197329Y0104242D01*
X0197295Y0104108D01*
X0197258Y0103976D01*
X0197216Y0103845D01*
X0197171Y0103715D01*
X0197122Y0103587D01*
X0197070Y0103460D01*
X0197013Y0103335D01*
X0196954Y0103211D01*
X0196890Y0103089D01*
X0196823Y0102969D01*
X0196753Y0102851D01*
X0196679Y0102735D01*
X0196602Y0102621D01*
X0196521Y0102510D01*
X0196438Y0102401D01*
X0196351Y0102294D01*
X0196261Y0102191D01*
X0196168Y0102089D01*
X0196072Y0101991D01*
X0195974Y0101895D01*
X0195872Y0101802D01*
X0195769Y0101712D01*
X0195662Y0101625D01*
X0195553Y0101542D01*
X0195442Y0101461D01*
X0195328Y0101384D01*
X0195212Y0101310D01*
X0195094Y0101240D01*
X0194974Y0101173D01*
X0194852Y0101109D01*
X0194728Y0101050D01*
X0194603Y0100993D01*
X0194476Y0100941D01*
X0194348Y0100892D01*
X0194218Y0100847D01*
X0194087Y0100805D01*
X0193955Y0100768D01*
X0193821Y0100734D01*
X0193687Y0100705D01*
X0193552Y0100679D01*
X0193417Y0100657D01*
X0193280Y0100639D01*
X0193144Y0100625D01*
X0193007Y0100615D01*
X0192869Y0100609D01*
X0192732Y0100607D01*
X0192595Y0100609D01*
X0192457Y0100615D01*
X0192320Y0100625D01*
X0192184Y0100639D01*
X0192047Y0100657D01*
X0191912Y0100679D01*
X0191777Y0100705D01*
X0191643Y0100734D01*
X0191509Y0100768D01*
X0191377Y0100805D01*
X0191246Y0100847D01*
X0191116Y0100892D01*
X0190988Y0100941D01*
X0190861Y0100993D01*
X0190736Y0101050D01*
X0190612Y0101109D01*
X0190490Y0101173D01*
X0190370Y0101240D01*
X0190252Y0101310D01*
X0190136Y0101384D01*
X0190022Y0101461D01*
X0189911Y0101542D01*
X0189802Y0101625D01*
X0189695Y0101712D01*
X0189592Y0101802D01*
X0189490Y0101895D01*
X0189392Y0101991D01*
X0189296Y0102089D01*
X0189203Y0102191D01*
X0189113Y0102294D01*
X0189026Y0102401D01*
X0188943Y0102510D01*
X0188862Y0102621D01*
X0188785Y0102735D01*
X0188711Y0102851D01*
X0188641Y0102969D01*
X0188574Y0103089D01*
X0188510Y0103211D01*
X0188451Y0103335D01*
X0188394Y0103460D01*
X0188342Y0103587D01*
X0188293Y0103715D01*
X0188248Y0103845D01*
X0188206Y0103976D01*
X0188169Y0104108D01*
X0188135Y0104242D01*
X0188106Y0104376D01*
X0188080Y0104511D01*
X0188058Y0104646D01*
X0188040Y0104783D01*
X0188026Y0104919D01*
X0188016Y0105056D01*
X0188010Y0105194D01*
X0188008Y0105331D01*
X0223441Y0178953D02*
X0223443Y0179090D01*
X0223449Y0179228D01*
X0223459Y0179365D01*
X0223473Y0179501D01*
X0223491Y0179638D01*
X0223513Y0179773D01*
X0223539Y0179908D01*
X0223568Y0180042D01*
X0223602Y0180176D01*
X0223639Y0180308D01*
X0223681Y0180439D01*
X0223726Y0180569D01*
X0223775Y0180697D01*
X0223827Y0180824D01*
X0223884Y0180949D01*
X0223943Y0181073D01*
X0224007Y0181195D01*
X0224074Y0181315D01*
X0224144Y0181433D01*
X0224218Y0181549D01*
X0224295Y0181663D01*
X0224376Y0181774D01*
X0224459Y0181883D01*
X0224546Y0181990D01*
X0224636Y0182093D01*
X0224729Y0182195D01*
X0224825Y0182293D01*
X0224923Y0182389D01*
X0225025Y0182482D01*
X0225128Y0182572D01*
X0225235Y0182659D01*
X0225344Y0182742D01*
X0225455Y0182823D01*
X0225569Y0182900D01*
X0225685Y0182974D01*
X0225803Y0183044D01*
X0225923Y0183111D01*
X0226045Y0183175D01*
X0226169Y0183234D01*
X0226294Y0183291D01*
X0226421Y0183343D01*
X0226549Y0183392D01*
X0226679Y0183437D01*
X0226810Y0183479D01*
X0226942Y0183516D01*
X0227076Y0183550D01*
X0227210Y0183579D01*
X0227345Y0183605D01*
X0227480Y0183627D01*
X0227617Y0183645D01*
X0227753Y0183659D01*
X0227890Y0183669D01*
X0228028Y0183675D01*
X0228165Y0183677D01*
X0228302Y0183675D01*
X0228440Y0183669D01*
X0228577Y0183659D01*
X0228713Y0183645D01*
X0228850Y0183627D01*
X0228985Y0183605D01*
X0229120Y0183579D01*
X0229254Y0183550D01*
X0229388Y0183516D01*
X0229520Y0183479D01*
X0229651Y0183437D01*
X0229781Y0183392D01*
X0229909Y0183343D01*
X0230036Y0183291D01*
X0230161Y0183234D01*
X0230285Y0183175D01*
X0230407Y0183111D01*
X0230527Y0183044D01*
X0230645Y0182974D01*
X0230761Y0182900D01*
X0230875Y0182823D01*
X0230986Y0182742D01*
X0231095Y0182659D01*
X0231202Y0182572D01*
X0231305Y0182482D01*
X0231407Y0182389D01*
X0231505Y0182293D01*
X0231601Y0182195D01*
X0231694Y0182093D01*
X0231784Y0181990D01*
X0231871Y0181883D01*
X0231954Y0181774D01*
X0232035Y0181663D01*
X0232112Y0181549D01*
X0232186Y0181433D01*
X0232256Y0181315D01*
X0232323Y0181195D01*
X0232387Y0181073D01*
X0232446Y0180949D01*
X0232503Y0180824D01*
X0232555Y0180697D01*
X0232604Y0180569D01*
X0232649Y0180439D01*
X0232691Y0180308D01*
X0232728Y0180176D01*
X0232762Y0180042D01*
X0232791Y0179908D01*
X0232817Y0179773D01*
X0232839Y0179638D01*
X0232857Y0179501D01*
X0232871Y0179365D01*
X0232881Y0179228D01*
X0232887Y0179090D01*
X0232889Y0178953D01*
X0232887Y0178816D01*
X0232881Y0178678D01*
X0232871Y0178541D01*
X0232857Y0178405D01*
X0232839Y0178268D01*
X0232817Y0178133D01*
X0232791Y0177998D01*
X0232762Y0177864D01*
X0232728Y0177730D01*
X0232691Y0177598D01*
X0232649Y0177467D01*
X0232604Y0177337D01*
X0232555Y0177209D01*
X0232503Y0177082D01*
X0232446Y0176957D01*
X0232387Y0176833D01*
X0232323Y0176711D01*
X0232256Y0176591D01*
X0232186Y0176473D01*
X0232112Y0176357D01*
X0232035Y0176243D01*
X0231954Y0176132D01*
X0231871Y0176023D01*
X0231784Y0175916D01*
X0231694Y0175813D01*
X0231601Y0175711D01*
X0231505Y0175613D01*
X0231407Y0175517D01*
X0231305Y0175424D01*
X0231202Y0175334D01*
X0231095Y0175247D01*
X0230986Y0175164D01*
X0230875Y0175083D01*
X0230761Y0175006D01*
X0230645Y0174932D01*
X0230527Y0174862D01*
X0230407Y0174795D01*
X0230285Y0174731D01*
X0230161Y0174672D01*
X0230036Y0174615D01*
X0229909Y0174563D01*
X0229781Y0174514D01*
X0229651Y0174469D01*
X0229520Y0174427D01*
X0229388Y0174390D01*
X0229254Y0174356D01*
X0229120Y0174327D01*
X0228985Y0174301D01*
X0228850Y0174279D01*
X0228713Y0174261D01*
X0228577Y0174247D01*
X0228440Y0174237D01*
X0228302Y0174231D01*
X0228165Y0174229D01*
X0228028Y0174231D01*
X0227890Y0174237D01*
X0227753Y0174247D01*
X0227617Y0174261D01*
X0227480Y0174279D01*
X0227345Y0174301D01*
X0227210Y0174327D01*
X0227076Y0174356D01*
X0226942Y0174390D01*
X0226810Y0174427D01*
X0226679Y0174469D01*
X0226549Y0174514D01*
X0226421Y0174563D01*
X0226294Y0174615D01*
X0226169Y0174672D01*
X0226045Y0174731D01*
X0225923Y0174795D01*
X0225803Y0174862D01*
X0225685Y0174932D01*
X0225569Y0175006D01*
X0225455Y0175083D01*
X0225344Y0175164D01*
X0225235Y0175247D01*
X0225128Y0175334D01*
X0225025Y0175424D01*
X0224923Y0175517D01*
X0224825Y0175613D01*
X0224729Y0175711D01*
X0224636Y0175813D01*
X0224546Y0175916D01*
X0224459Y0176023D01*
X0224376Y0176132D01*
X0224295Y0176243D01*
X0224218Y0176357D01*
X0224144Y0176473D01*
X0224074Y0176591D01*
X0224007Y0176711D01*
X0223943Y0176833D01*
X0223884Y0176957D01*
X0223827Y0177082D01*
X0223775Y0177209D01*
X0223726Y0177337D01*
X0223681Y0177467D01*
X0223639Y0177598D01*
X0223602Y0177730D01*
X0223568Y0177864D01*
X0223539Y0177998D01*
X0223513Y0178133D01*
X0223491Y0178268D01*
X0223473Y0178405D01*
X0223459Y0178541D01*
X0223449Y0178678D01*
X0223443Y0178816D01*
X0223441Y0178953D01*
X0235252Y0139583D02*
X0235254Y0139720D01*
X0235260Y0139858D01*
X0235270Y0139995D01*
X0235284Y0140131D01*
X0235302Y0140268D01*
X0235324Y0140403D01*
X0235350Y0140538D01*
X0235379Y0140672D01*
X0235413Y0140806D01*
X0235450Y0140938D01*
X0235492Y0141069D01*
X0235537Y0141199D01*
X0235586Y0141327D01*
X0235638Y0141454D01*
X0235695Y0141579D01*
X0235754Y0141703D01*
X0235818Y0141825D01*
X0235885Y0141945D01*
X0235955Y0142063D01*
X0236029Y0142179D01*
X0236106Y0142293D01*
X0236187Y0142404D01*
X0236270Y0142513D01*
X0236357Y0142620D01*
X0236447Y0142723D01*
X0236540Y0142825D01*
X0236636Y0142923D01*
X0236734Y0143019D01*
X0236836Y0143112D01*
X0236939Y0143202D01*
X0237046Y0143289D01*
X0237155Y0143372D01*
X0237266Y0143453D01*
X0237380Y0143530D01*
X0237496Y0143604D01*
X0237614Y0143674D01*
X0237734Y0143741D01*
X0237856Y0143805D01*
X0237980Y0143864D01*
X0238105Y0143921D01*
X0238232Y0143973D01*
X0238360Y0144022D01*
X0238490Y0144067D01*
X0238621Y0144109D01*
X0238753Y0144146D01*
X0238887Y0144180D01*
X0239021Y0144209D01*
X0239156Y0144235D01*
X0239291Y0144257D01*
X0239428Y0144275D01*
X0239564Y0144289D01*
X0239701Y0144299D01*
X0239839Y0144305D01*
X0239976Y0144307D01*
X0240113Y0144305D01*
X0240251Y0144299D01*
X0240388Y0144289D01*
X0240524Y0144275D01*
X0240661Y0144257D01*
X0240796Y0144235D01*
X0240931Y0144209D01*
X0241065Y0144180D01*
X0241199Y0144146D01*
X0241331Y0144109D01*
X0241462Y0144067D01*
X0241592Y0144022D01*
X0241720Y0143973D01*
X0241847Y0143921D01*
X0241972Y0143864D01*
X0242096Y0143805D01*
X0242218Y0143741D01*
X0242338Y0143674D01*
X0242456Y0143604D01*
X0242572Y0143530D01*
X0242686Y0143453D01*
X0242797Y0143372D01*
X0242906Y0143289D01*
X0243013Y0143202D01*
X0243116Y0143112D01*
X0243218Y0143019D01*
X0243316Y0142923D01*
X0243412Y0142825D01*
X0243505Y0142723D01*
X0243595Y0142620D01*
X0243682Y0142513D01*
X0243765Y0142404D01*
X0243846Y0142293D01*
X0243923Y0142179D01*
X0243997Y0142063D01*
X0244067Y0141945D01*
X0244134Y0141825D01*
X0244198Y0141703D01*
X0244257Y0141579D01*
X0244314Y0141454D01*
X0244366Y0141327D01*
X0244415Y0141199D01*
X0244460Y0141069D01*
X0244502Y0140938D01*
X0244539Y0140806D01*
X0244573Y0140672D01*
X0244602Y0140538D01*
X0244628Y0140403D01*
X0244650Y0140268D01*
X0244668Y0140131D01*
X0244682Y0139995D01*
X0244692Y0139858D01*
X0244698Y0139720D01*
X0244700Y0139583D01*
X0244698Y0139446D01*
X0244692Y0139308D01*
X0244682Y0139171D01*
X0244668Y0139035D01*
X0244650Y0138898D01*
X0244628Y0138763D01*
X0244602Y0138628D01*
X0244573Y0138494D01*
X0244539Y0138360D01*
X0244502Y0138228D01*
X0244460Y0138097D01*
X0244415Y0137967D01*
X0244366Y0137839D01*
X0244314Y0137712D01*
X0244257Y0137587D01*
X0244198Y0137463D01*
X0244134Y0137341D01*
X0244067Y0137221D01*
X0243997Y0137103D01*
X0243923Y0136987D01*
X0243846Y0136873D01*
X0243765Y0136762D01*
X0243682Y0136653D01*
X0243595Y0136546D01*
X0243505Y0136443D01*
X0243412Y0136341D01*
X0243316Y0136243D01*
X0243218Y0136147D01*
X0243116Y0136054D01*
X0243013Y0135964D01*
X0242906Y0135877D01*
X0242797Y0135794D01*
X0242686Y0135713D01*
X0242572Y0135636D01*
X0242456Y0135562D01*
X0242338Y0135492D01*
X0242218Y0135425D01*
X0242096Y0135361D01*
X0241972Y0135302D01*
X0241847Y0135245D01*
X0241720Y0135193D01*
X0241592Y0135144D01*
X0241462Y0135099D01*
X0241331Y0135057D01*
X0241199Y0135020D01*
X0241065Y0134986D01*
X0240931Y0134957D01*
X0240796Y0134931D01*
X0240661Y0134909D01*
X0240524Y0134891D01*
X0240388Y0134877D01*
X0240251Y0134867D01*
X0240113Y0134861D01*
X0239976Y0134859D01*
X0239839Y0134861D01*
X0239701Y0134867D01*
X0239564Y0134877D01*
X0239428Y0134891D01*
X0239291Y0134909D01*
X0239156Y0134931D01*
X0239021Y0134957D01*
X0238887Y0134986D01*
X0238753Y0135020D01*
X0238621Y0135057D01*
X0238490Y0135099D01*
X0238360Y0135144D01*
X0238232Y0135193D01*
X0238105Y0135245D01*
X0237980Y0135302D01*
X0237856Y0135361D01*
X0237734Y0135425D01*
X0237614Y0135492D01*
X0237496Y0135562D01*
X0237380Y0135636D01*
X0237266Y0135713D01*
X0237155Y0135794D01*
X0237046Y0135877D01*
X0236939Y0135964D01*
X0236836Y0136054D01*
X0236734Y0136147D01*
X0236636Y0136243D01*
X0236540Y0136341D01*
X0236447Y0136443D01*
X0236357Y0136546D01*
X0236270Y0136653D01*
X0236187Y0136762D01*
X0236106Y0136873D01*
X0236029Y0136987D01*
X0235955Y0137103D01*
X0235885Y0137221D01*
X0235818Y0137341D01*
X0235754Y0137463D01*
X0235695Y0137587D01*
X0235638Y0137712D01*
X0235586Y0137839D01*
X0235537Y0137967D01*
X0235492Y0138097D01*
X0235450Y0138228D01*
X0235413Y0138360D01*
X0235379Y0138494D01*
X0235350Y0138628D01*
X0235324Y0138763D01*
X0235302Y0138898D01*
X0235284Y0139035D01*
X0235270Y0139171D01*
X0235260Y0139308D01*
X0235254Y0139446D01*
X0235252Y0139583D01*
X0276591Y0130921D02*
X0276593Y0131058D01*
X0276599Y0131196D01*
X0276609Y0131333D01*
X0276623Y0131469D01*
X0276641Y0131606D01*
X0276663Y0131741D01*
X0276689Y0131876D01*
X0276718Y0132010D01*
X0276752Y0132144D01*
X0276789Y0132276D01*
X0276831Y0132407D01*
X0276876Y0132537D01*
X0276925Y0132665D01*
X0276977Y0132792D01*
X0277034Y0132917D01*
X0277093Y0133041D01*
X0277157Y0133163D01*
X0277224Y0133283D01*
X0277294Y0133401D01*
X0277368Y0133517D01*
X0277445Y0133631D01*
X0277526Y0133742D01*
X0277609Y0133851D01*
X0277696Y0133958D01*
X0277786Y0134061D01*
X0277879Y0134163D01*
X0277975Y0134261D01*
X0278073Y0134357D01*
X0278175Y0134450D01*
X0278278Y0134540D01*
X0278385Y0134627D01*
X0278494Y0134710D01*
X0278605Y0134791D01*
X0278719Y0134868D01*
X0278835Y0134942D01*
X0278953Y0135012D01*
X0279073Y0135079D01*
X0279195Y0135143D01*
X0279319Y0135202D01*
X0279444Y0135259D01*
X0279571Y0135311D01*
X0279699Y0135360D01*
X0279829Y0135405D01*
X0279960Y0135447D01*
X0280092Y0135484D01*
X0280226Y0135518D01*
X0280360Y0135547D01*
X0280495Y0135573D01*
X0280630Y0135595D01*
X0280767Y0135613D01*
X0280903Y0135627D01*
X0281040Y0135637D01*
X0281178Y0135643D01*
X0281315Y0135645D01*
X0281452Y0135643D01*
X0281590Y0135637D01*
X0281727Y0135627D01*
X0281863Y0135613D01*
X0282000Y0135595D01*
X0282135Y0135573D01*
X0282270Y0135547D01*
X0282404Y0135518D01*
X0282538Y0135484D01*
X0282670Y0135447D01*
X0282801Y0135405D01*
X0282931Y0135360D01*
X0283059Y0135311D01*
X0283186Y0135259D01*
X0283311Y0135202D01*
X0283435Y0135143D01*
X0283557Y0135079D01*
X0283677Y0135012D01*
X0283795Y0134942D01*
X0283911Y0134868D01*
X0284025Y0134791D01*
X0284136Y0134710D01*
X0284245Y0134627D01*
X0284352Y0134540D01*
X0284455Y0134450D01*
X0284557Y0134357D01*
X0284655Y0134261D01*
X0284751Y0134163D01*
X0284844Y0134061D01*
X0284934Y0133958D01*
X0285021Y0133851D01*
X0285104Y0133742D01*
X0285185Y0133631D01*
X0285262Y0133517D01*
X0285336Y0133401D01*
X0285406Y0133283D01*
X0285473Y0133163D01*
X0285537Y0133041D01*
X0285596Y0132917D01*
X0285653Y0132792D01*
X0285705Y0132665D01*
X0285754Y0132537D01*
X0285799Y0132407D01*
X0285841Y0132276D01*
X0285878Y0132144D01*
X0285912Y0132010D01*
X0285941Y0131876D01*
X0285967Y0131741D01*
X0285989Y0131606D01*
X0286007Y0131469D01*
X0286021Y0131333D01*
X0286031Y0131196D01*
X0286037Y0131058D01*
X0286039Y0130921D01*
X0286037Y0130784D01*
X0286031Y0130646D01*
X0286021Y0130509D01*
X0286007Y0130373D01*
X0285989Y0130236D01*
X0285967Y0130101D01*
X0285941Y0129966D01*
X0285912Y0129832D01*
X0285878Y0129698D01*
X0285841Y0129566D01*
X0285799Y0129435D01*
X0285754Y0129305D01*
X0285705Y0129177D01*
X0285653Y0129050D01*
X0285596Y0128925D01*
X0285537Y0128801D01*
X0285473Y0128679D01*
X0285406Y0128559D01*
X0285336Y0128441D01*
X0285262Y0128325D01*
X0285185Y0128211D01*
X0285104Y0128100D01*
X0285021Y0127991D01*
X0284934Y0127884D01*
X0284844Y0127781D01*
X0284751Y0127679D01*
X0284655Y0127581D01*
X0284557Y0127485D01*
X0284455Y0127392D01*
X0284352Y0127302D01*
X0284245Y0127215D01*
X0284136Y0127132D01*
X0284025Y0127051D01*
X0283911Y0126974D01*
X0283795Y0126900D01*
X0283677Y0126830D01*
X0283557Y0126763D01*
X0283435Y0126699D01*
X0283311Y0126640D01*
X0283186Y0126583D01*
X0283059Y0126531D01*
X0282931Y0126482D01*
X0282801Y0126437D01*
X0282670Y0126395D01*
X0282538Y0126358D01*
X0282404Y0126324D01*
X0282270Y0126295D01*
X0282135Y0126269D01*
X0282000Y0126247D01*
X0281863Y0126229D01*
X0281727Y0126215D01*
X0281590Y0126205D01*
X0281452Y0126199D01*
X0281315Y0126197D01*
X0281178Y0126199D01*
X0281040Y0126205D01*
X0280903Y0126215D01*
X0280767Y0126229D01*
X0280630Y0126247D01*
X0280495Y0126269D01*
X0280360Y0126295D01*
X0280226Y0126324D01*
X0280092Y0126358D01*
X0279960Y0126395D01*
X0279829Y0126437D01*
X0279699Y0126482D01*
X0279571Y0126531D01*
X0279444Y0126583D01*
X0279319Y0126640D01*
X0279195Y0126699D01*
X0279073Y0126763D01*
X0278953Y0126830D01*
X0278835Y0126900D01*
X0278719Y0126974D01*
X0278605Y0127051D01*
X0278494Y0127132D01*
X0278385Y0127215D01*
X0278278Y0127302D01*
X0278175Y0127392D01*
X0278073Y0127485D01*
X0277975Y0127581D01*
X0277879Y0127679D01*
X0277786Y0127781D01*
X0277696Y0127884D01*
X0277609Y0127991D01*
X0277526Y0128100D01*
X0277445Y0128211D01*
X0277368Y0128325D01*
X0277294Y0128441D01*
X0277224Y0128559D01*
X0277157Y0128679D01*
X0277093Y0128801D01*
X0277034Y0128925D01*
X0276977Y0129050D01*
X0276925Y0129177D01*
X0276876Y0129305D01*
X0276831Y0129435D01*
X0276789Y0129566D01*
X0276752Y0129698D01*
X0276718Y0129832D01*
X0276689Y0129966D01*
X0276663Y0130101D01*
X0276641Y0130236D01*
X0276623Y0130373D01*
X0276609Y0130509D01*
X0276599Y0130646D01*
X0276593Y0130784D01*
X0276591Y0130921D01*
X0126985Y0149425D02*
X0126987Y0149562D01*
X0126993Y0149700D01*
X0127003Y0149837D01*
X0127017Y0149973D01*
X0127035Y0150110D01*
X0127057Y0150245D01*
X0127083Y0150380D01*
X0127112Y0150514D01*
X0127146Y0150648D01*
X0127183Y0150780D01*
X0127225Y0150911D01*
X0127270Y0151041D01*
X0127319Y0151169D01*
X0127371Y0151296D01*
X0127428Y0151421D01*
X0127487Y0151545D01*
X0127551Y0151667D01*
X0127618Y0151787D01*
X0127688Y0151905D01*
X0127762Y0152021D01*
X0127839Y0152135D01*
X0127920Y0152246D01*
X0128003Y0152355D01*
X0128090Y0152462D01*
X0128180Y0152565D01*
X0128273Y0152667D01*
X0128369Y0152765D01*
X0128467Y0152861D01*
X0128569Y0152954D01*
X0128672Y0153044D01*
X0128779Y0153131D01*
X0128888Y0153214D01*
X0128999Y0153295D01*
X0129113Y0153372D01*
X0129229Y0153446D01*
X0129347Y0153516D01*
X0129467Y0153583D01*
X0129589Y0153647D01*
X0129713Y0153706D01*
X0129838Y0153763D01*
X0129965Y0153815D01*
X0130093Y0153864D01*
X0130223Y0153909D01*
X0130354Y0153951D01*
X0130486Y0153988D01*
X0130620Y0154022D01*
X0130754Y0154051D01*
X0130889Y0154077D01*
X0131024Y0154099D01*
X0131161Y0154117D01*
X0131297Y0154131D01*
X0131434Y0154141D01*
X0131572Y0154147D01*
X0131709Y0154149D01*
X0131846Y0154147D01*
X0131984Y0154141D01*
X0132121Y0154131D01*
X0132257Y0154117D01*
X0132394Y0154099D01*
X0132529Y0154077D01*
X0132664Y0154051D01*
X0132798Y0154022D01*
X0132932Y0153988D01*
X0133064Y0153951D01*
X0133195Y0153909D01*
X0133325Y0153864D01*
X0133453Y0153815D01*
X0133580Y0153763D01*
X0133705Y0153706D01*
X0133829Y0153647D01*
X0133951Y0153583D01*
X0134071Y0153516D01*
X0134189Y0153446D01*
X0134305Y0153372D01*
X0134419Y0153295D01*
X0134530Y0153214D01*
X0134639Y0153131D01*
X0134746Y0153044D01*
X0134849Y0152954D01*
X0134951Y0152861D01*
X0135049Y0152765D01*
X0135145Y0152667D01*
X0135238Y0152565D01*
X0135328Y0152462D01*
X0135415Y0152355D01*
X0135498Y0152246D01*
X0135579Y0152135D01*
X0135656Y0152021D01*
X0135730Y0151905D01*
X0135800Y0151787D01*
X0135867Y0151667D01*
X0135931Y0151545D01*
X0135990Y0151421D01*
X0136047Y0151296D01*
X0136099Y0151169D01*
X0136148Y0151041D01*
X0136193Y0150911D01*
X0136235Y0150780D01*
X0136272Y0150648D01*
X0136306Y0150514D01*
X0136335Y0150380D01*
X0136361Y0150245D01*
X0136383Y0150110D01*
X0136401Y0149973D01*
X0136415Y0149837D01*
X0136425Y0149700D01*
X0136431Y0149562D01*
X0136433Y0149425D01*
X0136431Y0149288D01*
X0136425Y0149150D01*
X0136415Y0149013D01*
X0136401Y0148877D01*
X0136383Y0148740D01*
X0136361Y0148605D01*
X0136335Y0148470D01*
X0136306Y0148336D01*
X0136272Y0148202D01*
X0136235Y0148070D01*
X0136193Y0147939D01*
X0136148Y0147809D01*
X0136099Y0147681D01*
X0136047Y0147554D01*
X0135990Y0147429D01*
X0135931Y0147305D01*
X0135867Y0147183D01*
X0135800Y0147063D01*
X0135730Y0146945D01*
X0135656Y0146829D01*
X0135579Y0146715D01*
X0135498Y0146604D01*
X0135415Y0146495D01*
X0135328Y0146388D01*
X0135238Y0146285D01*
X0135145Y0146183D01*
X0135049Y0146085D01*
X0134951Y0145989D01*
X0134849Y0145896D01*
X0134746Y0145806D01*
X0134639Y0145719D01*
X0134530Y0145636D01*
X0134419Y0145555D01*
X0134305Y0145478D01*
X0134189Y0145404D01*
X0134071Y0145334D01*
X0133951Y0145267D01*
X0133829Y0145203D01*
X0133705Y0145144D01*
X0133580Y0145087D01*
X0133453Y0145035D01*
X0133325Y0144986D01*
X0133195Y0144941D01*
X0133064Y0144899D01*
X0132932Y0144862D01*
X0132798Y0144828D01*
X0132664Y0144799D01*
X0132529Y0144773D01*
X0132394Y0144751D01*
X0132257Y0144733D01*
X0132121Y0144719D01*
X0131984Y0144709D01*
X0131846Y0144703D01*
X0131709Y0144701D01*
X0131572Y0144703D01*
X0131434Y0144709D01*
X0131297Y0144719D01*
X0131161Y0144733D01*
X0131024Y0144751D01*
X0130889Y0144773D01*
X0130754Y0144799D01*
X0130620Y0144828D01*
X0130486Y0144862D01*
X0130354Y0144899D01*
X0130223Y0144941D01*
X0130093Y0144986D01*
X0129965Y0145035D01*
X0129838Y0145087D01*
X0129713Y0145144D01*
X0129589Y0145203D01*
X0129467Y0145267D01*
X0129347Y0145334D01*
X0129229Y0145404D01*
X0129113Y0145478D01*
X0128999Y0145555D01*
X0128888Y0145636D01*
X0128779Y0145719D01*
X0128672Y0145806D01*
X0128569Y0145896D01*
X0128467Y0145989D01*
X0128369Y0146085D01*
X0128273Y0146183D01*
X0128180Y0146285D01*
X0128090Y0146388D01*
X0128003Y0146495D01*
X0127920Y0146604D01*
X0127839Y0146715D01*
X0127762Y0146829D01*
X0127688Y0146945D01*
X0127618Y0147063D01*
X0127551Y0147183D01*
X0127487Y0147305D01*
X0127428Y0147429D01*
X0127371Y0147554D01*
X0127319Y0147681D01*
X0127270Y0147809D01*
X0127225Y0147939D01*
X0127183Y0148070D01*
X0127146Y0148202D01*
X0127112Y0148336D01*
X0127083Y0148470D01*
X0127057Y0148605D01*
X0127035Y0148740D01*
X0127017Y0148877D01*
X0127003Y0149013D01*
X0126993Y0149150D01*
X0126987Y0149288D01*
X0126985Y0149425D01*
X0105725Y0124228D02*
X0105727Y0124365D01*
X0105733Y0124503D01*
X0105743Y0124640D01*
X0105757Y0124776D01*
X0105775Y0124913D01*
X0105797Y0125048D01*
X0105823Y0125183D01*
X0105852Y0125317D01*
X0105886Y0125451D01*
X0105923Y0125583D01*
X0105965Y0125714D01*
X0106010Y0125844D01*
X0106059Y0125972D01*
X0106111Y0126099D01*
X0106168Y0126224D01*
X0106227Y0126348D01*
X0106291Y0126470D01*
X0106358Y0126590D01*
X0106428Y0126708D01*
X0106502Y0126824D01*
X0106579Y0126938D01*
X0106660Y0127049D01*
X0106743Y0127158D01*
X0106830Y0127265D01*
X0106920Y0127368D01*
X0107013Y0127470D01*
X0107109Y0127568D01*
X0107207Y0127664D01*
X0107309Y0127757D01*
X0107412Y0127847D01*
X0107519Y0127934D01*
X0107628Y0128017D01*
X0107739Y0128098D01*
X0107853Y0128175D01*
X0107969Y0128249D01*
X0108087Y0128319D01*
X0108207Y0128386D01*
X0108329Y0128450D01*
X0108453Y0128509D01*
X0108578Y0128566D01*
X0108705Y0128618D01*
X0108833Y0128667D01*
X0108963Y0128712D01*
X0109094Y0128754D01*
X0109226Y0128791D01*
X0109360Y0128825D01*
X0109494Y0128854D01*
X0109629Y0128880D01*
X0109764Y0128902D01*
X0109901Y0128920D01*
X0110037Y0128934D01*
X0110174Y0128944D01*
X0110312Y0128950D01*
X0110449Y0128952D01*
X0110586Y0128950D01*
X0110724Y0128944D01*
X0110861Y0128934D01*
X0110997Y0128920D01*
X0111134Y0128902D01*
X0111269Y0128880D01*
X0111404Y0128854D01*
X0111538Y0128825D01*
X0111672Y0128791D01*
X0111804Y0128754D01*
X0111935Y0128712D01*
X0112065Y0128667D01*
X0112193Y0128618D01*
X0112320Y0128566D01*
X0112445Y0128509D01*
X0112569Y0128450D01*
X0112691Y0128386D01*
X0112811Y0128319D01*
X0112929Y0128249D01*
X0113045Y0128175D01*
X0113159Y0128098D01*
X0113270Y0128017D01*
X0113379Y0127934D01*
X0113486Y0127847D01*
X0113589Y0127757D01*
X0113691Y0127664D01*
X0113789Y0127568D01*
X0113885Y0127470D01*
X0113978Y0127368D01*
X0114068Y0127265D01*
X0114155Y0127158D01*
X0114238Y0127049D01*
X0114319Y0126938D01*
X0114396Y0126824D01*
X0114470Y0126708D01*
X0114540Y0126590D01*
X0114607Y0126470D01*
X0114671Y0126348D01*
X0114730Y0126224D01*
X0114787Y0126099D01*
X0114839Y0125972D01*
X0114888Y0125844D01*
X0114933Y0125714D01*
X0114975Y0125583D01*
X0115012Y0125451D01*
X0115046Y0125317D01*
X0115075Y0125183D01*
X0115101Y0125048D01*
X0115123Y0124913D01*
X0115141Y0124776D01*
X0115155Y0124640D01*
X0115165Y0124503D01*
X0115171Y0124365D01*
X0115173Y0124228D01*
X0115171Y0124091D01*
X0115165Y0123953D01*
X0115155Y0123816D01*
X0115141Y0123680D01*
X0115123Y0123543D01*
X0115101Y0123408D01*
X0115075Y0123273D01*
X0115046Y0123139D01*
X0115012Y0123005D01*
X0114975Y0122873D01*
X0114933Y0122742D01*
X0114888Y0122612D01*
X0114839Y0122484D01*
X0114787Y0122357D01*
X0114730Y0122232D01*
X0114671Y0122108D01*
X0114607Y0121986D01*
X0114540Y0121866D01*
X0114470Y0121748D01*
X0114396Y0121632D01*
X0114319Y0121518D01*
X0114238Y0121407D01*
X0114155Y0121298D01*
X0114068Y0121191D01*
X0113978Y0121088D01*
X0113885Y0120986D01*
X0113789Y0120888D01*
X0113691Y0120792D01*
X0113589Y0120699D01*
X0113486Y0120609D01*
X0113379Y0120522D01*
X0113270Y0120439D01*
X0113159Y0120358D01*
X0113045Y0120281D01*
X0112929Y0120207D01*
X0112811Y0120137D01*
X0112691Y0120070D01*
X0112569Y0120006D01*
X0112445Y0119947D01*
X0112320Y0119890D01*
X0112193Y0119838D01*
X0112065Y0119789D01*
X0111935Y0119744D01*
X0111804Y0119702D01*
X0111672Y0119665D01*
X0111538Y0119631D01*
X0111404Y0119602D01*
X0111269Y0119576D01*
X0111134Y0119554D01*
X0110997Y0119536D01*
X0110861Y0119522D01*
X0110724Y0119512D01*
X0110586Y0119506D01*
X0110449Y0119504D01*
X0110312Y0119506D01*
X0110174Y0119512D01*
X0110037Y0119522D01*
X0109901Y0119536D01*
X0109764Y0119554D01*
X0109629Y0119576D01*
X0109494Y0119602D01*
X0109360Y0119631D01*
X0109226Y0119665D01*
X0109094Y0119702D01*
X0108963Y0119744D01*
X0108833Y0119789D01*
X0108705Y0119838D01*
X0108578Y0119890D01*
X0108453Y0119947D01*
X0108329Y0120006D01*
X0108207Y0120070D01*
X0108087Y0120137D01*
X0107969Y0120207D01*
X0107853Y0120281D01*
X0107739Y0120358D01*
X0107628Y0120439D01*
X0107519Y0120522D01*
X0107412Y0120609D01*
X0107309Y0120699D01*
X0107207Y0120792D01*
X0107109Y0120888D01*
X0107013Y0120986D01*
X0106920Y0121088D01*
X0106830Y0121191D01*
X0106743Y0121298D01*
X0106660Y0121407D01*
X0106579Y0121518D01*
X0106502Y0121632D01*
X0106428Y0121748D01*
X0106358Y0121866D01*
X0106291Y0121986D01*
X0106227Y0122108D01*
X0106168Y0122232D01*
X0106111Y0122357D01*
X0106059Y0122484D01*
X0106010Y0122612D01*
X0105965Y0122742D01*
X0105923Y0122873D01*
X0105886Y0123005D01*
X0105852Y0123139D01*
X0105823Y0123273D01*
X0105797Y0123408D01*
X0105775Y0123543D01*
X0105757Y0123680D01*
X0105743Y0123816D01*
X0105733Y0123953D01*
X0105727Y0124091D01*
X0105725Y0124228D01*
X0101788Y0105331D02*
X0101790Y0105468D01*
X0101796Y0105606D01*
X0101806Y0105743D01*
X0101820Y0105879D01*
X0101838Y0106016D01*
X0101860Y0106151D01*
X0101886Y0106286D01*
X0101915Y0106420D01*
X0101949Y0106554D01*
X0101986Y0106686D01*
X0102028Y0106817D01*
X0102073Y0106947D01*
X0102122Y0107075D01*
X0102174Y0107202D01*
X0102231Y0107327D01*
X0102290Y0107451D01*
X0102354Y0107573D01*
X0102421Y0107693D01*
X0102491Y0107811D01*
X0102565Y0107927D01*
X0102642Y0108041D01*
X0102723Y0108152D01*
X0102806Y0108261D01*
X0102893Y0108368D01*
X0102983Y0108471D01*
X0103076Y0108573D01*
X0103172Y0108671D01*
X0103270Y0108767D01*
X0103372Y0108860D01*
X0103475Y0108950D01*
X0103582Y0109037D01*
X0103691Y0109120D01*
X0103802Y0109201D01*
X0103916Y0109278D01*
X0104032Y0109352D01*
X0104150Y0109422D01*
X0104270Y0109489D01*
X0104392Y0109553D01*
X0104516Y0109612D01*
X0104641Y0109669D01*
X0104768Y0109721D01*
X0104896Y0109770D01*
X0105026Y0109815D01*
X0105157Y0109857D01*
X0105289Y0109894D01*
X0105423Y0109928D01*
X0105557Y0109957D01*
X0105692Y0109983D01*
X0105827Y0110005D01*
X0105964Y0110023D01*
X0106100Y0110037D01*
X0106237Y0110047D01*
X0106375Y0110053D01*
X0106512Y0110055D01*
X0106649Y0110053D01*
X0106787Y0110047D01*
X0106924Y0110037D01*
X0107060Y0110023D01*
X0107197Y0110005D01*
X0107332Y0109983D01*
X0107467Y0109957D01*
X0107601Y0109928D01*
X0107735Y0109894D01*
X0107867Y0109857D01*
X0107998Y0109815D01*
X0108128Y0109770D01*
X0108256Y0109721D01*
X0108383Y0109669D01*
X0108508Y0109612D01*
X0108632Y0109553D01*
X0108754Y0109489D01*
X0108874Y0109422D01*
X0108992Y0109352D01*
X0109108Y0109278D01*
X0109222Y0109201D01*
X0109333Y0109120D01*
X0109442Y0109037D01*
X0109549Y0108950D01*
X0109652Y0108860D01*
X0109754Y0108767D01*
X0109852Y0108671D01*
X0109948Y0108573D01*
X0110041Y0108471D01*
X0110131Y0108368D01*
X0110218Y0108261D01*
X0110301Y0108152D01*
X0110382Y0108041D01*
X0110459Y0107927D01*
X0110533Y0107811D01*
X0110603Y0107693D01*
X0110670Y0107573D01*
X0110734Y0107451D01*
X0110793Y0107327D01*
X0110850Y0107202D01*
X0110902Y0107075D01*
X0110951Y0106947D01*
X0110996Y0106817D01*
X0111038Y0106686D01*
X0111075Y0106554D01*
X0111109Y0106420D01*
X0111138Y0106286D01*
X0111164Y0106151D01*
X0111186Y0106016D01*
X0111204Y0105879D01*
X0111218Y0105743D01*
X0111228Y0105606D01*
X0111234Y0105468D01*
X0111236Y0105331D01*
X0111234Y0105194D01*
X0111228Y0105056D01*
X0111218Y0104919D01*
X0111204Y0104783D01*
X0111186Y0104646D01*
X0111164Y0104511D01*
X0111138Y0104376D01*
X0111109Y0104242D01*
X0111075Y0104108D01*
X0111038Y0103976D01*
X0110996Y0103845D01*
X0110951Y0103715D01*
X0110902Y0103587D01*
X0110850Y0103460D01*
X0110793Y0103335D01*
X0110734Y0103211D01*
X0110670Y0103089D01*
X0110603Y0102969D01*
X0110533Y0102851D01*
X0110459Y0102735D01*
X0110382Y0102621D01*
X0110301Y0102510D01*
X0110218Y0102401D01*
X0110131Y0102294D01*
X0110041Y0102191D01*
X0109948Y0102089D01*
X0109852Y0101991D01*
X0109754Y0101895D01*
X0109652Y0101802D01*
X0109549Y0101712D01*
X0109442Y0101625D01*
X0109333Y0101542D01*
X0109222Y0101461D01*
X0109108Y0101384D01*
X0108992Y0101310D01*
X0108874Y0101240D01*
X0108754Y0101173D01*
X0108632Y0101109D01*
X0108508Y0101050D01*
X0108383Y0100993D01*
X0108256Y0100941D01*
X0108128Y0100892D01*
X0107998Y0100847D01*
X0107867Y0100805D01*
X0107735Y0100768D01*
X0107601Y0100734D01*
X0107467Y0100705D01*
X0107332Y0100679D01*
X0107197Y0100657D01*
X0107060Y0100639D01*
X0106924Y0100625D01*
X0106787Y0100615D01*
X0106649Y0100609D01*
X0106512Y0100607D01*
X0106375Y0100609D01*
X0106237Y0100615D01*
X0106100Y0100625D01*
X0105964Y0100639D01*
X0105827Y0100657D01*
X0105692Y0100679D01*
X0105557Y0100705D01*
X0105423Y0100734D01*
X0105289Y0100768D01*
X0105157Y0100805D01*
X0105026Y0100847D01*
X0104896Y0100892D01*
X0104768Y0100941D01*
X0104641Y0100993D01*
X0104516Y0101050D01*
X0104392Y0101109D01*
X0104270Y0101173D01*
X0104150Y0101240D01*
X0104032Y0101310D01*
X0103916Y0101384D01*
X0103802Y0101461D01*
X0103691Y0101542D01*
X0103582Y0101625D01*
X0103475Y0101712D01*
X0103372Y0101802D01*
X0103270Y0101895D01*
X0103172Y0101991D01*
X0103076Y0102089D01*
X0102983Y0102191D01*
X0102893Y0102294D01*
X0102806Y0102401D01*
X0102723Y0102510D01*
X0102642Y0102621D01*
X0102565Y0102735D01*
X0102491Y0102851D01*
X0102421Y0102969D01*
X0102354Y0103089D01*
X0102290Y0103211D01*
X0102231Y0103335D01*
X0102174Y0103460D01*
X0102122Y0103587D01*
X0102073Y0103715D01*
X0102028Y0103845D01*
X0101986Y0103976D01*
X0101949Y0104108D01*
X0101915Y0104242D01*
X0101886Y0104376D01*
X0101860Y0104511D01*
X0101838Y0104646D01*
X0101820Y0104783D01*
X0101806Y0104919D01*
X0101796Y0105056D01*
X0101790Y0105194D01*
X0101788Y0105331D01*
X0021079Y0109661D02*
X0021081Y0109798D01*
X0021087Y0109936D01*
X0021097Y0110073D01*
X0021111Y0110209D01*
X0021129Y0110346D01*
X0021151Y0110481D01*
X0021177Y0110616D01*
X0021206Y0110750D01*
X0021240Y0110884D01*
X0021277Y0111016D01*
X0021319Y0111147D01*
X0021364Y0111277D01*
X0021413Y0111405D01*
X0021465Y0111532D01*
X0021522Y0111657D01*
X0021581Y0111781D01*
X0021645Y0111903D01*
X0021712Y0112023D01*
X0021782Y0112141D01*
X0021856Y0112257D01*
X0021933Y0112371D01*
X0022014Y0112482D01*
X0022097Y0112591D01*
X0022184Y0112698D01*
X0022274Y0112801D01*
X0022367Y0112903D01*
X0022463Y0113001D01*
X0022561Y0113097D01*
X0022663Y0113190D01*
X0022766Y0113280D01*
X0022873Y0113367D01*
X0022982Y0113450D01*
X0023093Y0113531D01*
X0023207Y0113608D01*
X0023323Y0113682D01*
X0023441Y0113752D01*
X0023561Y0113819D01*
X0023683Y0113883D01*
X0023807Y0113942D01*
X0023932Y0113999D01*
X0024059Y0114051D01*
X0024187Y0114100D01*
X0024317Y0114145D01*
X0024448Y0114187D01*
X0024580Y0114224D01*
X0024714Y0114258D01*
X0024848Y0114287D01*
X0024983Y0114313D01*
X0025118Y0114335D01*
X0025255Y0114353D01*
X0025391Y0114367D01*
X0025528Y0114377D01*
X0025666Y0114383D01*
X0025803Y0114385D01*
X0025940Y0114383D01*
X0026078Y0114377D01*
X0026215Y0114367D01*
X0026351Y0114353D01*
X0026488Y0114335D01*
X0026623Y0114313D01*
X0026758Y0114287D01*
X0026892Y0114258D01*
X0027026Y0114224D01*
X0027158Y0114187D01*
X0027289Y0114145D01*
X0027419Y0114100D01*
X0027547Y0114051D01*
X0027674Y0113999D01*
X0027799Y0113942D01*
X0027923Y0113883D01*
X0028045Y0113819D01*
X0028165Y0113752D01*
X0028283Y0113682D01*
X0028399Y0113608D01*
X0028513Y0113531D01*
X0028624Y0113450D01*
X0028733Y0113367D01*
X0028840Y0113280D01*
X0028943Y0113190D01*
X0029045Y0113097D01*
X0029143Y0113001D01*
X0029239Y0112903D01*
X0029332Y0112801D01*
X0029422Y0112698D01*
X0029509Y0112591D01*
X0029592Y0112482D01*
X0029673Y0112371D01*
X0029750Y0112257D01*
X0029824Y0112141D01*
X0029894Y0112023D01*
X0029961Y0111903D01*
X0030025Y0111781D01*
X0030084Y0111657D01*
X0030141Y0111532D01*
X0030193Y0111405D01*
X0030242Y0111277D01*
X0030287Y0111147D01*
X0030329Y0111016D01*
X0030366Y0110884D01*
X0030400Y0110750D01*
X0030429Y0110616D01*
X0030455Y0110481D01*
X0030477Y0110346D01*
X0030495Y0110209D01*
X0030509Y0110073D01*
X0030519Y0109936D01*
X0030525Y0109798D01*
X0030527Y0109661D01*
X0030525Y0109524D01*
X0030519Y0109386D01*
X0030509Y0109249D01*
X0030495Y0109113D01*
X0030477Y0108976D01*
X0030455Y0108841D01*
X0030429Y0108706D01*
X0030400Y0108572D01*
X0030366Y0108438D01*
X0030329Y0108306D01*
X0030287Y0108175D01*
X0030242Y0108045D01*
X0030193Y0107917D01*
X0030141Y0107790D01*
X0030084Y0107665D01*
X0030025Y0107541D01*
X0029961Y0107419D01*
X0029894Y0107299D01*
X0029824Y0107181D01*
X0029750Y0107065D01*
X0029673Y0106951D01*
X0029592Y0106840D01*
X0029509Y0106731D01*
X0029422Y0106624D01*
X0029332Y0106521D01*
X0029239Y0106419D01*
X0029143Y0106321D01*
X0029045Y0106225D01*
X0028943Y0106132D01*
X0028840Y0106042D01*
X0028733Y0105955D01*
X0028624Y0105872D01*
X0028513Y0105791D01*
X0028399Y0105714D01*
X0028283Y0105640D01*
X0028165Y0105570D01*
X0028045Y0105503D01*
X0027923Y0105439D01*
X0027799Y0105380D01*
X0027674Y0105323D01*
X0027547Y0105271D01*
X0027419Y0105222D01*
X0027289Y0105177D01*
X0027158Y0105135D01*
X0027026Y0105098D01*
X0026892Y0105064D01*
X0026758Y0105035D01*
X0026623Y0105009D01*
X0026488Y0104987D01*
X0026351Y0104969D01*
X0026215Y0104955D01*
X0026078Y0104945D01*
X0025940Y0104939D01*
X0025803Y0104937D01*
X0025666Y0104939D01*
X0025528Y0104945D01*
X0025391Y0104955D01*
X0025255Y0104969D01*
X0025118Y0104987D01*
X0024983Y0105009D01*
X0024848Y0105035D01*
X0024714Y0105064D01*
X0024580Y0105098D01*
X0024448Y0105135D01*
X0024317Y0105177D01*
X0024187Y0105222D01*
X0024059Y0105271D01*
X0023932Y0105323D01*
X0023807Y0105380D01*
X0023683Y0105439D01*
X0023561Y0105503D01*
X0023441Y0105570D01*
X0023323Y0105640D01*
X0023207Y0105714D01*
X0023093Y0105791D01*
X0022982Y0105872D01*
X0022873Y0105955D01*
X0022766Y0106042D01*
X0022663Y0106132D01*
X0022561Y0106225D01*
X0022463Y0106321D01*
X0022367Y0106419D01*
X0022274Y0106521D01*
X0022184Y0106624D01*
X0022097Y0106731D01*
X0022014Y0106840D01*
X0021933Y0106951D01*
X0021856Y0107065D01*
X0021782Y0107181D01*
X0021712Y0107299D01*
X0021645Y0107419D01*
X0021581Y0107541D01*
X0021522Y0107665D01*
X0021465Y0107790D01*
X0021413Y0107917D01*
X0021364Y0108045D01*
X0021319Y0108175D01*
X0021277Y0108306D01*
X0021240Y0108438D01*
X0021206Y0108572D01*
X0021177Y0108706D01*
X0021151Y0108841D01*
X0021129Y0108976D01*
X0021111Y0109113D01*
X0021097Y0109249D01*
X0021087Y0109386D01*
X0021081Y0109524D01*
X0021079Y0109661D01*
D12*
X0040764Y0233677D03*
X0048638Y0233677D03*
X0056512Y0233677D03*
X0064386Y0233677D03*
D13*
X0083087Y0328953D03*
X0083087Y0332102D03*
X0083087Y0335252D03*
X0083087Y0338402D03*
X0083087Y0341551D03*
X0083087Y0344701D03*
X0083087Y0347850D03*
X0083087Y0351000D03*
X0083087Y0354150D03*
X0083087Y0357299D03*
X0083087Y0360449D03*
X0083087Y0363598D03*
X0083087Y0366748D03*
X0083087Y0369898D03*
X0083087Y0373047D03*
X0083087Y0376197D03*
X0083087Y0379346D03*
X0083087Y0382496D03*
D14*
X0083287Y0392932D02*
X0086356Y0392932D01*
X0084821Y0392932D02*
X0084821Y0397536D01*
X0083287Y0396002D01*
X0084821Y0321158D02*
X0084821Y0316554D01*
X0083287Y0316554D02*
X0086356Y0316554D01*
X0087891Y0317322D02*
X0087891Y0318089D01*
X0088658Y0318856D01*
X0090192Y0318856D01*
X0090960Y0318089D01*
X0090960Y0317322D01*
X0090192Y0316554D01*
X0088658Y0316554D01*
X0087891Y0317322D01*
X0088658Y0318856D02*
X0087891Y0319624D01*
X0087891Y0320391D01*
X0088658Y0321158D01*
X0090192Y0321158D01*
X0090960Y0320391D01*
X0090960Y0319624D01*
X0090192Y0318856D01*
X0084821Y0321158D02*
X0083287Y0319624D01*
D15*
X0148815Y0196118D03*
X0148815Y0178402D03*
X0137004Y0137063D03*
X0137004Y0119346D03*
X0168303Y0119346D03*
X0168303Y0137063D03*
X0192122Y0142969D03*
X0192122Y0160685D03*
X0180114Y0178402D03*
X0180114Y0196118D03*
X0203933Y0202024D03*
X0203933Y0219740D03*
X0235232Y0219740D03*
X0235232Y0202024D03*
X0247437Y0178362D03*
X0247437Y0160646D03*
X0223421Y0160685D03*
X0223421Y0142969D03*
X0235429Y0121315D03*
X0235429Y0103598D03*
X0266728Y0103598D03*
X0266728Y0121315D03*
X0278736Y0160646D03*
X0278736Y0178362D03*
D16*
X0189602Y0080173D03*
X0164799Y0080173D03*
X0143933Y0080173D03*
X0119130Y0080173D03*
D17*
X0033087Y0233677D03*
X0024819Y0233677D03*
D18*
X0056315Y0209563D03*
X0074031Y0209563D03*
X0074031Y0178264D03*
X0087811Y0178067D03*
X0105528Y0178067D03*
X0105528Y0146768D03*
X0087811Y0146768D03*
X0074031Y0146571D03*
X0056315Y0146571D03*
X0042535Y0146768D03*
X0024819Y0146768D03*
X0024819Y0178067D03*
X0042535Y0178067D03*
X0056315Y0178264D03*
X0056315Y0115272D03*
X0074031Y0115272D03*
D19*
X0171079Y0062417D03*
X0171079Y0034858D03*
D20*
X0066748Y0456118D03*
X0054937Y0456118D03*
M02*
