G75*
%MOIN*%
%OFA0B0*%
%FSLAX25Y25*%
%IPPOS*%
%LPD*%
%AMOC8*
5,1,8,0,0,1.08239X$1,22.5*
%
%ADD10C,0.00000*%
%ADD11C,0.07874*%
%ADD12C,0.13800*%
%ADD13C,0.01898*%
%ADD14C,0.01878*%
%ADD15C,0.08200*%
%ADD16C,0.04762*%
D10*
X0006937Y0042870D02*
X0069929Y0042870D01*
X0069929Y0007437D01*
X0069931Y0007313D01*
X0069937Y0007190D01*
X0069946Y0007066D01*
X0069960Y0006944D01*
X0069977Y0006821D01*
X0069999Y0006699D01*
X0070024Y0006578D01*
X0070053Y0006458D01*
X0070085Y0006339D01*
X0070122Y0006220D01*
X0070162Y0006103D01*
X0070205Y0005988D01*
X0070253Y0005873D01*
X0070304Y0005761D01*
X0070358Y0005650D01*
X0070416Y0005540D01*
X0070477Y0005433D01*
X0070542Y0005327D01*
X0070610Y0005224D01*
X0070681Y0005123D01*
X0070755Y0005024D01*
X0070832Y0004927D01*
X0070913Y0004833D01*
X0070996Y0004742D01*
X0071082Y0004653D01*
X0071171Y0004567D01*
X0071262Y0004484D01*
X0071356Y0004403D01*
X0071453Y0004326D01*
X0071552Y0004252D01*
X0071653Y0004181D01*
X0071756Y0004113D01*
X0071862Y0004048D01*
X0071969Y0003987D01*
X0072079Y0003929D01*
X0072190Y0003875D01*
X0072302Y0003824D01*
X0072417Y0003776D01*
X0072532Y0003733D01*
X0072649Y0003693D01*
X0072768Y0003656D01*
X0072887Y0003624D01*
X0073007Y0003595D01*
X0073128Y0003570D01*
X0073250Y0003548D01*
X0073373Y0003531D01*
X0073495Y0003517D01*
X0073619Y0003508D01*
X0073742Y0003502D01*
X0073866Y0003500D01*
X0195913Y0003500D01*
X0196037Y0003502D01*
X0196160Y0003508D01*
X0196284Y0003517D01*
X0196406Y0003531D01*
X0196529Y0003548D01*
X0196651Y0003570D01*
X0196772Y0003595D01*
X0196892Y0003624D01*
X0197011Y0003656D01*
X0197130Y0003693D01*
X0197247Y0003733D01*
X0197362Y0003776D01*
X0197477Y0003824D01*
X0197589Y0003875D01*
X0197700Y0003929D01*
X0197810Y0003987D01*
X0197917Y0004048D01*
X0198023Y0004113D01*
X0198126Y0004181D01*
X0198227Y0004252D01*
X0198326Y0004326D01*
X0198423Y0004403D01*
X0198517Y0004484D01*
X0198608Y0004567D01*
X0198697Y0004653D01*
X0198783Y0004742D01*
X0198866Y0004833D01*
X0198947Y0004927D01*
X0199024Y0005024D01*
X0199098Y0005123D01*
X0199169Y0005224D01*
X0199237Y0005327D01*
X0199302Y0005433D01*
X0199363Y0005540D01*
X0199421Y0005650D01*
X0199475Y0005761D01*
X0199526Y0005873D01*
X0199574Y0005988D01*
X0199617Y0006103D01*
X0199657Y0006220D01*
X0199694Y0006339D01*
X0199726Y0006458D01*
X0199755Y0006578D01*
X0199780Y0006699D01*
X0199802Y0006821D01*
X0199819Y0006944D01*
X0199833Y0007066D01*
X0199842Y0007190D01*
X0199848Y0007313D01*
X0199850Y0007437D01*
X0199850Y0042870D01*
X0274654Y0042870D01*
X0274778Y0042872D01*
X0274901Y0042878D01*
X0275025Y0042887D01*
X0275147Y0042901D01*
X0275270Y0042918D01*
X0275392Y0042940D01*
X0275513Y0042965D01*
X0275633Y0042994D01*
X0275752Y0043026D01*
X0275871Y0043063D01*
X0275988Y0043103D01*
X0276103Y0043146D01*
X0276218Y0043194D01*
X0276330Y0043245D01*
X0276441Y0043299D01*
X0276551Y0043357D01*
X0276658Y0043418D01*
X0276764Y0043483D01*
X0276867Y0043551D01*
X0276968Y0043622D01*
X0277067Y0043696D01*
X0277164Y0043773D01*
X0277258Y0043854D01*
X0277349Y0043937D01*
X0277438Y0044023D01*
X0277524Y0044112D01*
X0277607Y0044203D01*
X0277688Y0044297D01*
X0277765Y0044394D01*
X0277839Y0044493D01*
X0277910Y0044594D01*
X0277978Y0044697D01*
X0278043Y0044803D01*
X0278104Y0044910D01*
X0278162Y0045020D01*
X0278216Y0045131D01*
X0278267Y0045243D01*
X0278315Y0045358D01*
X0278358Y0045473D01*
X0278398Y0045590D01*
X0278435Y0045709D01*
X0278467Y0045828D01*
X0278496Y0045948D01*
X0278521Y0046069D01*
X0278543Y0046191D01*
X0278560Y0046314D01*
X0278574Y0046436D01*
X0278583Y0046560D01*
X0278589Y0046683D01*
X0278591Y0046807D01*
X0278591Y0225941D01*
X0278589Y0226065D01*
X0278583Y0226188D01*
X0278574Y0226312D01*
X0278560Y0226434D01*
X0278543Y0226557D01*
X0278521Y0226679D01*
X0278496Y0226800D01*
X0278467Y0226920D01*
X0278435Y0227039D01*
X0278398Y0227158D01*
X0278358Y0227275D01*
X0278315Y0227390D01*
X0278267Y0227505D01*
X0278216Y0227617D01*
X0278162Y0227728D01*
X0278104Y0227838D01*
X0278043Y0227945D01*
X0277978Y0228051D01*
X0277910Y0228154D01*
X0277839Y0228255D01*
X0277765Y0228354D01*
X0277688Y0228451D01*
X0277607Y0228545D01*
X0277524Y0228636D01*
X0277438Y0228725D01*
X0277349Y0228811D01*
X0277258Y0228894D01*
X0277164Y0228975D01*
X0277067Y0229052D01*
X0276968Y0229126D01*
X0276867Y0229197D01*
X0276764Y0229265D01*
X0276658Y0229330D01*
X0276551Y0229391D01*
X0276441Y0229449D01*
X0276330Y0229503D01*
X0276218Y0229554D01*
X0276103Y0229602D01*
X0275988Y0229645D01*
X0275871Y0229685D01*
X0275752Y0229722D01*
X0275633Y0229754D01*
X0275513Y0229783D01*
X0275392Y0229808D01*
X0275270Y0229830D01*
X0275147Y0229847D01*
X0275025Y0229861D01*
X0274901Y0229870D01*
X0274778Y0229876D01*
X0274654Y0229878D01*
X0006937Y0229878D01*
X0006813Y0229876D01*
X0006690Y0229870D01*
X0006566Y0229861D01*
X0006444Y0229847D01*
X0006321Y0229830D01*
X0006199Y0229808D01*
X0006078Y0229783D01*
X0005958Y0229754D01*
X0005839Y0229722D01*
X0005720Y0229685D01*
X0005603Y0229645D01*
X0005488Y0229602D01*
X0005373Y0229554D01*
X0005261Y0229503D01*
X0005150Y0229449D01*
X0005040Y0229391D01*
X0004933Y0229330D01*
X0004827Y0229265D01*
X0004724Y0229197D01*
X0004623Y0229126D01*
X0004524Y0229052D01*
X0004427Y0228975D01*
X0004333Y0228894D01*
X0004242Y0228811D01*
X0004153Y0228725D01*
X0004067Y0228636D01*
X0003984Y0228545D01*
X0003903Y0228451D01*
X0003826Y0228354D01*
X0003752Y0228255D01*
X0003681Y0228154D01*
X0003613Y0228051D01*
X0003548Y0227945D01*
X0003487Y0227838D01*
X0003429Y0227728D01*
X0003375Y0227617D01*
X0003324Y0227505D01*
X0003276Y0227390D01*
X0003233Y0227275D01*
X0003193Y0227158D01*
X0003156Y0227039D01*
X0003124Y0226920D01*
X0003095Y0226800D01*
X0003070Y0226679D01*
X0003048Y0226557D01*
X0003031Y0226434D01*
X0003017Y0226312D01*
X0003008Y0226188D01*
X0003002Y0226065D01*
X0003000Y0225941D01*
X0003000Y0046807D01*
X0003002Y0046683D01*
X0003008Y0046560D01*
X0003017Y0046436D01*
X0003031Y0046314D01*
X0003048Y0046191D01*
X0003070Y0046069D01*
X0003095Y0045948D01*
X0003124Y0045828D01*
X0003156Y0045709D01*
X0003193Y0045590D01*
X0003233Y0045473D01*
X0003276Y0045358D01*
X0003324Y0045243D01*
X0003375Y0045131D01*
X0003429Y0045020D01*
X0003487Y0044910D01*
X0003548Y0044803D01*
X0003613Y0044697D01*
X0003681Y0044594D01*
X0003752Y0044493D01*
X0003826Y0044394D01*
X0003903Y0044297D01*
X0003984Y0044203D01*
X0004067Y0044112D01*
X0004153Y0044023D01*
X0004242Y0043937D01*
X0004333Y0043854D01*
X0004427Y0043773D01*
X0004524Y0043696D01*
X0004623Y0043622D01*
X0004724Y0043551D01*
X0004827Y0043483D01*
X0004933Y0043418D01*
X0005040Y0043357D01*
X0005150Y0043299D01*
X0005261Y0043245D01*
X0005373Y0043194D01*
X0005488Y0043146D01*
X0005603Y0043103D01*
X0005720Y0043063D01*
X0005839Y0043026D01*
X0005958Y0042994D01*
X0006078Y0042965D01*
X0006199Y0042940D01*
X0006321Y0042918D01*
X0006444Y0042901D01*
X0006566Y0042887D01*
X0006690Y0042878D01*
X0006813Y0042872D01*
X0006937Y0042870D01*
X0007720Y0058618D02*
X0007722Y0058779D01*
X0007728Y0058939D01*
X0007738Y0059100D01*
X0007752Y0059260D01*
X0007770Y0059420D01*
X0007791Y0059579D01*
X0007817Y0059738D01*
X0007847Y0059896D01*
X0007880Y0060053D01*
X0007918Y0060210D01*
X0007959Y0060365D01*
X0008004Y0060519D01*
X0008053Y0060672D01*
X0008106Y0060824D01*
X0008162Y0060975D01*
X0008223Y0061124D01*
X0008286Y0061272D01*
X0008354Y0061418D01*
X0008425Y0061562D01*
X0008499Y0061704D01*
X0008577Y0061845D01*
X0008659Y0061983D01*
X0008744Y0062120D01*
X0008832Y0062254D01*
X0008924Y0062386D01*
X0009019Y0062516D01*
X0009117Y0062644D01*
X0009218Y0062769D01*
X0009322Y0062891D01*
X0009429Y0063011D01*
X0009539Y0063128D01*
X0009652Y0063243D01*
X0009768Y0063354D01*
X0009887Y0063463D01*
X0010008Y0063568D01*
X0010132Y0063671D01*
X0010258Y0063771D01*
X0010386Y0063867D01*
X0010517Y0063960D01*
X0010651Y0064050D01*
X0010786Y0064137D01*
X0010924Y0064220D01*
X0011063Y0064300D01*
X0011205Y0064376D01*
X0011348Y0064449D01*
X0011493Y0064518D01*
X0011640Y0064584D01*
X0011788Y0064646D01*
X0011938Y0064704D01*
X0012089Y0064759D01*
X0012242Y0064810D01*
X0012396Y0064857D01*
X0012551Y0064900D01*
X0012707Y0064939D01*
X0012863Y0064975D01*
X0013021Y0065006D01*
X0013179Y0065034D01*
X0013338Y0065058D01*
X0013498Y0065078D01*
X0013658Y0065094D01*
X0013818Y0065106D01*
X0013979Y0065114D01*
X0014140Y0065118D01*
X0014300Y0065118D01*
X0014461Y0065114D01*
X0014622Y0065106D01*
X0014782Y0065094D01*
X0014942Y0065078D01*
X0015102Y0065058D01*
X0015261Y0065034D01*
X0015419Y0065006D01*
X0015577Y0064975D01*
X0015733Y0064939D01*
X0015889Y0064900D01*
X0016044Y0064857D01*
X0016198Y0064810D01*
X0016351Y0064759D01*
X0016502Y0064704D01*
X0016652Y0064646D01*
X0016800Y0064584D01*
X0016947Y0064518D01*
X0017092Y0064449D01*
X0017235Y0064376D01*
X0017377Y0064300D01*
X0017516Y0064220D01*
X0017654Y0064137D01*
X0017789Y0064050D01*
X0017923Y0063960D01*
X0018054Y0063867D01*
X0018182Y0063771D01*
X0018308Y0063671D01*
X0018432Y0063568D01*
X0018553Y0063463D01*
X0018672Y0063354D01*
X0018788Y0063243D01*
X0018901Y0063128D01*
X0019011Y0063011D01*
X0019118Y0062891D01*
X0019222Y0062769D01*
X0019323Y0062644D01*
X0019421Y0062516D01*
X0019516Y0062386D01*
X0019608Y0062254D01*
X0019696Y0062120D01*
X0019781Y0061983D01*
X0019863Y0061845D01*
X0019941Y0061704D01*
X0020015Y0061562D01*
X0020086Y0061418D01*
X0020154Y0061272D01*
X0020217Y0061124D01*
X0020278Y0060975D01*
X0020334Y0060824D01*
X0020387Y0060672D01*
X0020436Y0060519D01*
X0020481Y0060365D01*
X0020522Y0060210D01*
X0020560Y0060053D01*
X0020593Y0059896D01*
X0020623Y0059738D01*
X0020649Y0059579D01*
X0020670Y0059420D01*
X0020688Y0059260D01*
X0020702Y0059100D01*
X0020712Y0058939D01*
X0020718Y0058779D01*
X0020720Y0058618D01*
X0020718Y0058457D01*
X0020712Y0058297D01*
X0020702Y0058136D01*
X0020688Y0057976D01*
X0020670Y0057816D01*
X0020649Y0057657D01*
X0020623Y0057498D01*
X0020593Y0057340D01*
X0020560Y0057183D01*
X0020522Y0057026D01*
X0020481Y0056871D01*
X0020436Y0056717D01*
X0020387Y0056564D01*
X0020334Y0056412D01*
X0020278Y0056261D01*
X0020217Y0056112D01*
X0020154Y0055964D01*
X0020086Y0055818D01*
X0020015Y0055674D01*
X0019941Y0055532D01*
X0019863Y0055391D01*
X0019781Y0055253D01*
X0019696Y0055116D01*
X0019608Y0054982D01*
X0019516Y0054850D01*
X0019421Y0054720D01*
X0019323Y0054592D01*
X0019222Y0054467D01*
X0019118Y0054345D01*
X0019011Y0054225D01*
X0018901Y0054108D01*
X0018788Y0053993D01*
X0018672Y0053882D01*
X0018553Y0053773D01*
X0018432Y0053668D01*
X0018308Y0053565D01*
X0018182Y0053465D01*
X0018054Y0053369D01*
X0017923Y0053276D01*
X0017789Y0053186D01*
X0017654Y0053099D01*
X0017516Y0053016D01*
X0017377Y0052936D01*
X0017235Y0052860D01*
X0017092Y0052787D01*
X0016947Y0052718D01*
X0016800Y0052652D01*
X0016652Y0052590D01*
X0016502Y0052532D01*
X0016351Y0052477D01*
X0016198Y0052426D01*
X0016044Y0052379D01*
X0015889Y0052336D01*
X0015733Y0052297D01*
X0015577Y0052261D01*
X0015419Y0052230D01*
X0015261Y0052202D01*
X0015102Y0052178D01*
X0014942Y0052158D01*
X0014782Y0052142D01*
X0014622Y0052130D01*
X0014461Y0052122D01*
X0014300Y0052118D01*
X0014140Y0052118D01*
X0013979Y0052122D01*
X0013818Y0052130D01*
X0013658Y0052142D01*
X0013498Y0052158D01*
X0013338Y0052178D01*
X0013179Y0052202D01*
X0013021Y0052230D01*
X0012863Y0052261D01*
X0012707Y0052297D01*
X0012551Y0052336D01*
X0012396Y0052379D01*
X0012242Y0052426D01*
X0012089Y0052477D01*
X0011938Y0052532D01*
X0011788Y0052590D01*
X0011640Y0052652D01*
X0011493Y0052718D01*
X0011348Y0052787D01*
X0011205Y0052860D01*
X0011063Y0052936D01*
X0010924Y0053016D01*
X0010786Y0053099D01*
X0010651Y0053186D01*
X0010517Y0053276D01*
X0010386Y0053369D01*
X0010258Y0053465D01*
X0010132Y0053565D01*
X0010008Y0053668D01*
X0009887Y0053773D01*
X0009768Y0053882D01*
X0009652Y0053993D01*
X0009539Y0054108D01*
X0009429Y0054225D01*
X0009322Y0054345D01*
X0009218Y0054467D01*
X0009117Y0054592D01*
X0009019Y0054720D01*
X0008924Y0054850D01*
X0008832Y0054982D01*
X0008744Y0055116D01*
X0008659Y0055253D01*
X0008577Y0055391D01*
X0008499Y0055532D01*
X0008425Y0055674D01*
X0008354Y0055818D01*
X0008286Y0055964D01*
X0008223Y0056112D01*
X0008162Y0056261D01*
X0008106Y0056412D01*
X0008053Y0056564D01*
X0008004Y0056717D01*
X0007959Y0056871D01*
X0007918Y0057026D01*
X0007880Y0057183D01*
X0007847Y0057340D01*
X0007817Y0057498D01*
X0007791Y0057657D01*
X0007770Y0057816D01*
X0007752Y0057976D01*
X0007738Y0058136D01*
X0007728Y0058297D01*
X0007722Y0058457D01*
X0007720Y0058618D01*
X0082524Y0050744D02*
X0082526Y0050905D01*
X0082532Y0051065D01*
X0082542Y0051226D01*
X0082556Y0051386D01*
X0082574Y0051546D01*
X0082595Y0051705D01*
X0082621Y0051864D01*
X0082651Y0052022D01*
X0082684Y0052179D01*
X0082722Y0052336D01*
X0082763Y0052491D01*
X0082808Y0052645D01*
X0082857Y0052798D01*
X0082910Y0052950D01*
X0082966Y0053101D01*
X0083027Y0053250D01*
X0083090Y0053398D01*
X0083158Y0053544D01*
X0083229Y0053688D01*
X0083303Y0053830D01*
X0083381Y0053971D01*
X0083463Y0054109D01*
X0083548Y0054246D01*
X0083636Y0054380D01*
X0083728Y0054512D01*
X0083823Y0054642D01*
X0083921Y0054770D01*
X0084022Y0054895D01*
X0084126Y0055017D01*
X0084233Y0055137D01*
X0084343Y0055254D01*
X0084456Y0055369D01*
X0084572Y0055480D01*
X0084691Y0055589D01*
X0084812Y0055694D01*
X0084936Y0055797D01*
X0085062Y0055897D01*
X0085190Y0055993D01*
X0085321Y0056086D01*
X0085455Y0056176D01*
X0085590Y0056263D01*
X0085728Y0056346D01*
X0085867Y0056426D01*
X0086009Y0056502D01*
X0086152Y0056575D01*
X0086297Y0056644D01*
X0086444Y0056710D01*
X0086592Y0056772D01*
X0086742Y0056830D01*
X0086893Y0056885D01*
X0087046Y0056936D01*
X0087200Y0056983D01*
X0087355Y0057026D01*
X0087511Y0057065D01*
X0087667Y0057101D01*
X0087825Y0057132D01*
X0087983Y0057160D01*
X0088142Y0057184D01*
X0088302Y0057204D01*
X0088462Y0057220D01*
X0088622Y0057232D01*
X0088783Y0057240D01*
X0088944Y0057244D01*
X0089104Y0057244D01*
X0089265Y0057240D01*
X0089426Y0057232D01*
X0089586Y0057220D01*
X0089746Y0057204D01*
X0089906Y0057184D01*
X0090065Y0057160D01*
X0090223Y0057132D01*
X0090381Y0057101D01*
X0090537Y0057065D01*
X0090693Y0057026D01*
X0090848Y0056983D01*
X0091002Y0056936D01*
X0091155Y0056885D01*
X0091306Y0056830D01*
X0091456Y0056772D01*
X0091604Y0056710D01*
X0091751Y0056644D01*
X0091896Y0056575D01*
X0092039Y0056502D01*
X0092181Y0056426D01*
X0092320Y0056346D01*
X0092458Y0056263D01*
X0092593Y0056176D01*
X0092727Y0056086D01*
X0092858Y0055993D01*
X0092986Y0055897D01*
X0093112Y0055797D01*
X0093236Y0055694D01*
X0093357Y0055589D01*
X0093476Y0055480D01*
X0093592Y0055369D01*
X0093705Y0055254D01*
X0093815Y0055137D01*
X0093922Y0055017D01*
X0094026Y0054895D01*
X0094127Y0054770D01*
X0094225Y0054642D01*
X0094320Y0054512D01*
X0094412Y0054380D01*
X0094500Y0054246D01*
X0094585Y0054109D01*
X0094667Y0053971D01*
X0094745Y0053830D01*
X0094819Y0053688D01*
X0094890Y0053544D01*
X0094958Y0053398D01*
X0095021Y0053250D01*
X0095082Y0053101D01*
X0095138Y0052950D01*
X0095191Y0052798D01*
X0095240Y0052645D01*
X0095285Y0052491D01*
X0095326Y0052336D01*
X0095364Y0052179D01*
X0095397Y0052022D01*
X0095427Y0051864D01*
X0095453Y0051705D01*
X0095474Y0051546D01*
X0095492Y0051386D01*
X0095506Y0051226D01*
X0095516Y0051065D01*
X0095522Y0050905D01*
X0095524Y0050744D01*
X0095522Y0050583D01*
X0095516Y0050423D01*
X0095506Y0050262D01*
X0095492Y0050102D01*
X0095474Y0049942D01*
X0095453Y0049783D01*
X0095427Y0049624D01*
X0095397Y0049466D01*
X0095364Y0049309D01*
X0095326Y0049152D01*
X0095285Y0048997D01*
X0095240Y0048843D01*
X0095191Y0048690D01*
X0095138Y0048538D01*
X0095082Y0048387D01*
X0095021Y0048238D01*
X0094958Y0048090D01*
X0094890Y0047944D01*
X0094819Y0047800D01*
X0094745Y0047658D01*
X0094667Y0047517D01*
X0094585Y0047379D01*
X0094500Y0047242D01*
X0094412Y0047108D01*
X0094320Y0046976D01*
X0094225Y0046846D01*
X0094127Y0046718D01*
X0094026Y0046593D01*
X0093922Y0046471D01*
X0093815Y0046351D01*
X0093705Y0046234D01*
X0093592Y0046119D01*
X0093476Y0046008D01*
X0093357Y0045899D01*
X0093236Y0045794D01*
X0093112Y0045691D01*
X0092986Y0045591D01*
X0092858Y0045495D01*
X0092727Y0045402D01*
X0092593Y0045312D01*
X0092458Y0045225D01*
X0092320Y0045142D01*
X0092181Y0045062D01*
X0092039Y0044986D01*
X0091896Y0044913D01*
X0091751Y0044844D01*
X0091604Y0044778D01*
X0091456Y0044716D01*
X0091306Y0044658D01*
X0091155Y0044603D01*
X0091002Y0044552D01*
X0090848Y0044505D01*
X0090693Y0044462D01*
X0090537Y0044423D01*
X0090381Y0044387D01*
X0090223Y0044356D01*
X0090065Y0044328D01*
X0089906Y0044304D01*
X0089746Y0044284D01*
X0089586Y0044268D01*
X0089426Y0044256D01*
X0089265Y0044248D01*
X0089104Y0044244D01*
X0088944Y0044244D01*
X0088783Y0044248D01*
X0088622Y0044256D01*
X0088462Y0044268D01*
X0088302Y0044284D01*
X0088142Y0044304D01*
X0087983Y0044328D01*
X0087825Y0044356D01*
X0087667Y0044387D01*
X0087511Y0044423D01*
X0087355Y0044462D01*
X0087200Y0044505D01*
X0087046Y0044552D01*
X0086893Y0044603D01*
X0086742Y0044658D01*
X0086592Y0044716D01*
X0086444Y0044778D01*
X0086297Y0044844D01*
X0086152Y0044913D01*
X0086009Y0044986D01*
X0085867Y0045062D01*
X0085728Y0045142D01*
X0085590Y0045225D01*
X0085455Y0045312D01*
X0085321Y0045402D01*
X0085190Y0045495D01*
X0085062Y0045591D01*
X0084936Y0045691D01*
X0084812Y0045794D01*
X0084691Y0045899D01*
X0084572Y0046008D01*
X0084456Y0046119D01*
X0084343Y0046234D01*
X0084233Y0046351D01*
X0084126Y0046471D01*
X0084022Y0046593D01*
X0083921Y0046718D01*
X0083823Y0046846D01*
X0083728Y0046976D01*
X0083636Y0047108D01*
X0083548Y0047242D01*
X0083463Y0047379D01*
X0083381Y0047517D01*
X0083303Y0047658D01*
X0083229Y0047800D01*
X0083158Y0047944D01*
X0083090Y0048090D01*
X0083027Y0048238D01*
X0082966Y0048387D01*
X0082910Y0048538D01*
X0082857Y0048690D01*
X0082808Y0048843D01*
X0082763Y0048997D01*
X0082722Y0049152D01*
X0082684Y0049309D01*
X0082651Y0049466D01*
X0082621Y0049624D01*
X0082595Y0049783D01*
X0082574Y0049942D01*
X0082556Y0050102D01*
X0082542Y0050262D01*
X0082532Y0050423D01*
X0082526Y0050583D01*
X0082524Y0050744D01*
X0090398Y0070429D02*
X0090400Y0070590D01*
X0090406Y0070750D01*
X0090416Y0070911D01*
X0090430Y0071071D01*
X0090448Y0071231D01*
X0090469Y0071390D01*
X0090495Y0071549D01*
X0090525Y0071707D01*
X0090558Y0071864D01*
X0090596Y0072021D01*
X0090637Y0072176D01*
X0090682Y0072330D01*
X0090731Y0072483D01*
X0090784Y0072635D01*
X0090840Y0072786D01*
X0090901Y0072935D01*
X0090964Y0073083D01*
X0091032Y0073229D01*
X0091103Y0073373D01*
X0091177Y0073515D01*
X0091255Y0073656D01*
X0091337Y0073794D01*
X0091422Y0073931D01*
X0091510Y0074065D01*
X0091602Y0074197D01*
X0091697Y0074327D01*
X0091795Y0074455D01*
X0091896Y0074580D01*
X0092000Y0074702D01*
X0092107Y0074822D01*
X0092217Y0074939D01*
X0092330Y0075054D01*
X0092446Y0075165D01*
X0092565Y0075274D01*
X0092686Y0075379D01*
X0092810Y0075482D01*
X0092936Y0075582D01*
X0093064Y0075678D01*
X0093195Y0075771D01*
X0093329Y0075861D01*
X0093464Y0075948D01*
X0093602Y0076031D01*
X0093741Y0076111D01*
X0093883Y0076187D01*
X0094026Y0076260D01*
X0094171Y0076329D01*
X0094318Y0076395D01*
X0094466Y0076457D01*
X0094616Y0076515D01*
X0094767Y0076570D01*
X0094920Y0076621D01*
X0095074Y0076668D01*
X0095229Y0076711D01*
X0095385Y0076750D01*
X0095541Y0076786D01*
X0095699Y0076817D01*
X0095857Y0076845D01*
X0096016Y0076869D01*
X0096176Y0076889D01*
X0096336Y0076905D01*
X0096496Y0076917D01*
X0096657Y0076925D01*
X0096818Y0076929D01*
X0096978Y0076929D01*
X0097139Y0076925D01*
X0097300Y0076917D01*
X0097460Y0076905D01*
X0097620Y0076889D01*
X0097780Y0076869D01*
X0097939Y0076845D01*
X0098097Y0076817D01*
X0098255Y0076786D01*
X0098411Y0076750D01*
X0098567Y0076711D01*
X0098722Y0076668D01*
X0098876Y0076621D01*
X0099029Y0076570D01*
X0099180Y0076515D01*
X0099330Y0076457D01*
X0099478Y0076395D01*
X0099625Y0076329D01*
X0099770Y0076260D01*
X0099913Y0076187D01*
X0100055Y0076111D01*
X0100194Y0076031D01*
X0100332Y0075948D01*
X0100467Y0075861D01*
X0100601Y0075771D01*
X0100732Y0075678D01*
X0100860Y0075582D01*
X0100986Y0075482D01*
X0101110Y0075379D01*
X0101231Y0075274D01*
X0101350Y0075165D01*
X0101466Y0075054D01*
X0101579Y0074939D01*
X0101689Y0074822D01*
X0101796Y0074702D01*
X0101900Y0074580D01*
X0102001Y0074455D01*
X0102099Y0074327D01*
X0102194Y0074197D01*
X0102286Y0074065D01*
X0102374Y0073931D01*
X0102459Y0073794D01*
X0102541Y0073656D01*
X0102619Y0073515D01*
X0102693Y0073373D01*
X0102764Y0073229D01*
X0102832Y0073083D01*
X0102895Y0072935D01*
X0102956Y0072786D01*
X0103012Y0072635D01*
X0103065Y0072483D01*
X0103114Y0072330D01*
X0103159Y0072176D01*
X0103200Y0072021D01*
X0103238Y0071864D01*
X0103271Y0071707D01*
X0103301Y0071549D01*
X0103327Y0071390D01*
X0103348Y0071231D01*
X0103366Y0071071D01*
X0103380Y0070911D01*
X0103390Y0070750D01*
X0103396Y0070590D01*
X0103398Y0070429D01*
X0103396Y0070268D01*
X0103390Y0070108D01*
X0103380Y0069947D01*
X0103366Y0069787D01*
X0103348Y0069627D01*
X0103327Y0069468D01*
X0103301Y0069309D01*
X0103271Y0069151D01*
X0103238Y0068994D01*
X0103200Y0068837D01*
X0103159Y0068682D01*
X0103114Y0068528D01*
X0103065Y0068375D01*
X0103012Y0068223D01*
X0102956Y0068072D01*
X0102895Y0067923D01*
X0102832Y0067775D01*
X0102764Y0067629D01*
X0102693Y0067485D01*
X0102619Y0067343D01*
X0102541Y0067202D01*
X0102459Y0067064D01*
X0102374Y0066927D01*
X0102286Y0066793D01*
X0102194Y0066661D01*
X0102099Y0066531D01*
X0102001Y0066403D01*
X0101900Y0066278D01*
X0101796Y0066156D01*
X0101689Y0066036D01*
X0101579Y0065919D01*
X0101466Y0065804D01*
X0101350Y0065693D01*
X0101231Y0065584D01*
X0101110Y0065479D01*
X0100986Y0065376D01*
X0100860Y0065276D01*
X0100732Y0065180D01*
X0100601Y0065087D01*
X0100467Y0064997D01*
X0100332Y0064910D01*
X0100194Y0064827D01*
X0100055Y0064747D01*
X0099913Y0064671D01*
X0099770Y0064598D01*
X0099625Y0064529D01*
X0099478Y0064463D01*
X0099330Y0064401D01*
X0099180Y0064343D01*
X0099029Y0064288D01*
X0098876Y0064237D01*
X0098722Y0064190D01*
X0098567Y0064147D01*
X0098411Y0064108D01*
X0098255Y0064072D01*
X0098097Y0064041D01*
X0097939Y0064013D01*
X0097780Y0063989D01*
X0097620Y0063969D01*
X0097460Y0063953D01*
X0097300Y0063941D01*
X0097139Y0063933D01*
X0096978Y0063929D01*
X0096818Y0063929D01*
X0096657Y0063933D01*
X0096496Y0063941D01*
X0096336Y0063953D01*
X0096176Y0063969D01*
X0096016Y0063989D01*
X0095857Y0064013D01*
X0095699Y0064041D01*
X0095541Y0064072D01*
X0095385Y0064108D01*
X0095229Y0064147D01*
X0095074Y0064190D01*
X0094920Y0064237D01*
X0094767Y0064288D01*
X0094616Y0064343D01*
X0094466Y0064401D01*
X0094318Y0064463D01*
X0094171Y0064529D01*
X0094026Y0064598D01*
X0093883Y0064671D01*
X0093741Y0064747D01*
X0093602Y0064827D01*
X0093464Y0064910D01*
X0093329Y0064997D01*
X0093195Y0065087D01*
X0093064Y0065180D01*
X0092936Y0065276D01*
X0092810Y0065376D01*
X0092686Y0065479D01*
X0092565Y0065584D01*
X0092446Y0065693D01*
X0092330Y0065804D01*
X0092217Y0065919D01*
X0092107Y0066036D01*
X0092000Y0066156D01*
X0091896Y0066278D01*
X0091795Y0066403D01*
X0091697Y0066531D01*
X0091602Y0066661D01*
X0091510Y0066793D01*
X0091422Y0066927D01*
X0091337Y0067064D01*
X0091255Y0067202D01*
X0091177Y0067343D01*
X0091103Y0067485D01*
X0091032Y0067629D01*
X0090964Y0067775D01*
X0090901Y0067923D01*
X0090840Y0068072D01*
X0090784Y0068223D01*
X0090731Y0068375D01*
X0090682Y0068528D01*
X0090637Y0068682D01*
X0090596Y0068837D01*
X0090558Y0068994D01*
X0090525Y0069151D01*
X0090495Y0069309D01*
X0090469Y0069468D01*
X0090448Y0069627D01*
X0090430Y0069787D01*
X0090416Y0069947D01*
X0090406Y0070108D01*
X0090400Y0070268D01*
X0090398Y0070429D01*
X0110083Y0099957D02*
X0110085Y0100118D01*
X0110091Y0100278D01*
X0110101Y0100439D01*
X0110115Y0100599D01*
X0110133Y0100759D01*
X0110154Y0100918D01*
X0110180Y0101077D01*
X0110210Y0101235D01*
X0110243Y0101392D01*
X0110281Y0101549D01*
X0110322Y0101704D01*
X0110367Y0101858D01*
X0110416Y0102011D01*
X0110469Y0102163D01*
X0110525Y0102314D01*
X0110586Y0102463D01*
X0110649Y0102611D01*
X0110717Y0102757D01*
X0110788Y0102901D01*
X0110862Y0103043D01*
X0110940Y0103184D01*
X0111022Y0103322D01*
X0111107Y0103459D01*
X0111195Y0103593D01*
X0111287Y0103725D01*
X0111382Y0103855D01*
X0111480Y0103983D01*
X0111581Y0104108D01*
X0111685Y0104230D01*
X0111792Y0104350D01*
X0111902Y0104467D01*
X0112015Y0104582D01*
X0112131Y0104693D01*
X0112250Y0104802D01*
X0112371Y0104907D01*
X0112495Y0105010D01*
X0112621Y0105110D01*
X0112749Y0105206D01*
X0112880Y0105299D01*
X0113014Y0105389D01*
X0113149Y0105476D01*
X0113287Y0105559D01*
X0113426Y0105639D01*
X0113568Y0105715D01*
X0113711Y0105788D01*
X0113856Y0105857D01*
X0114003Y0105923D01*
X0114151Y0105985D01*
X0114301Y0106043D01*
X0114452Y0106098D01*
X0114605Y0106149D01*
X0114759Y0106196D01*
X0114914Y0106239D01*
X0115070Y0106278D01*
X0115226Y0106314D01*
X0115384Y0106345D01*
X0115542Y0106373D01*
X0115701Y0106397D01*
X0115861Y0106417D01*
X0116021Y0106433D01*
X0116181Y0106445D01*
X0116342Y0106453D01*
X0116503Y0106457D01*
X0116663Y0106457D01*
X0116824Y0106453D01*
X0116985Y0106445D01*
X0117145Y0106433D01*
X0117305Y0106417D01*
X0117465Y0106397D01*
X0117624Y0106373D01*
X0117782Y0106345D01*
X0117940Y0106314D01*
X0118096Y0106278D01*
X0118252Y0106239D01*
X0118407Y0106196D01*
X0118561Y0106149D01*
X0118714Y0106098D01*
X0118865Y0106043D01*
X0119015Y0105985D01*
X0119163Y0105923D01*
X0119310Y0105857D01*
X0119455Y0105788D01*
X0119598Y0105715D01*
X0119740Y0105639D01*
X0119879Y0105559D01*
X0120017Y0105476D01*
X0120152Y0105389D01*
X0120286Y0105299D01*
X0120417Y0105206D01*
X0120545Y0105110D01*
X0120671Y0105010D01*
X0120795Y0104907D01*
X0120916Y0104802D01*
X0121035Y0104693D01*
X0121151Y0104582D01*
X0121264Y0104467D01*
X0121374Y0104350D01*
X0121481Y0104230D01*
X0121585Y0104108D01*
X0121686Y0103983D01*
X0121784Y0103855D01*
X0121879Y0103725D01*
X0121971Y0103593D01*
X0122059Y0103459D01*
X0122144Y0103322D01*
X0122226Y0103184D01*
X0122304Y0103043D01*
X0122378Y0102901D01*
X0122449Y0102757D01*
X0122517Y0102611D01*
X0122580Y0102463D01*
X0122641Y0102314D01*
X0122697Y0102163D01*
X0122750Y0102011D01*
X0122799Y0101858D01*
X0122844Y0101704D01*
X0122885Y0101549D01*
X0122923Y0101392D01*
X0122956Y0101235D01*
X0122986Y0101077D01*
X0123012Y0100918D01*
X0123033Y0100759D01*
X0123051Y0100599D01*
X0123065Y0100439D01*
X0123075Y0100278D01*
X0123081Y0100118D01*
X0123083Y0099957D01*
X0123081Y0099796D01*
X0123075Y0099636D01*
X0123065Y0099475D01*
X0123051Y0099315D01*
X0123033Y0099155D01*
X0123012Y0098996D01*
X0122986Y0098837D01*
X0122956Y0098679D01*
X0122923Y0098522D01*
X0122885Y0098365D01*
X0122844Y0098210D01*
X0122799Y0098056D01*
X0122750Y0097903D01*
X0122697Y0097751D01*
X0122641Y0097600D01*
X0122580Y0097451D01*
X0122517Y0097303D01*
X0122449Y0097157D01*
X0122378Y0097013D01*
X0122304Y0096871D01*
X0122226Y0096730D01*
X0122144Y0096592D01*
X0122059Y0096455D01*
X0121971Y0096321D01*
X0121879Y0096189D01*
X0121784Y0096059D01*
X0121686Y0095931D01*
X0121585Y0095806D01*
X0121481Y0095684D01*
X0121374Y0095564D01*
X0121264Y0095447D01*
X0121151Y0095332D01*
X0121035Y0095221D01*
X0120916Y0095112D01*
X0120795Y0095007D01*
X0120671Y0094904D01*
X0120545Y0094804D01*
X0120417Y0094708D01*
X0120286Y0094615D01*
X0120152Y0094525D01*
X0120017Y0094438D01*
X0119879Y0094355D01*
X0119740Y0094275D01*
X0119598Y0094199D01*
X0119455Y0094126D01*
X0119310Y0094057D01*
X0119163Y0093991D01*
X0119015Y0093929D01*
X0118865Y0093871D01*
X0118714Y0093816D01*
X0118561Y0093765D01*
X0118407Y0093718D01*
X0118252Y0093675D01*
X0118096Y0093636D01*
X0117940Y0093600D01*
X0117782Y0093569D01*
X0117624Y0093541D01*
X0117465Y0093517D01*
X0117305Y0093497D01*
X0117145Y0093481D01*
X0116985Y0093469D01*
X0116824Y0093461D01*
X0116663Y0093457D01*
X0116503Y0093457D01*
X0116342Y0093461D01*
X0116181Y0093469D01*
X0116021Y0093481D01*
X0115861Y0093497D01*
X0115701Y0093517D01*
X0115542Y0093541D01*
X0115384Y0093569D01*
X0115226Y0093600D01*
X0115070Y0093636D01*
X0114914Y0093675D01*
X0114759Y0093718D01*
X0114605Y0093765D01*
X0114452Y0093816D01*
X0114301Y0093871D01*
X0114151Y0093929D01*
X0114003Y0093991D01*
X0113856Y0094057D01*
X0113711Y0094126D01*
X0113568Y0094199D01*
X0113426Y0094275D01*
X0113287Y0094355D01*
X0113149Y0094438D01*
X0113014Y0094525D01*
X0112880Y0094615D01*
X0112749Y0094708D01*
X0112621Y0094804D01*
X0112495Y0094904D01*
X0112371Y0095007D01*
X0112250Y0095112D01*
X0112131Y0095221D01*
X0112015Y0095332D01*
X0111902Y0095447D01*
X0111792Y0095564D01*
X0111685Y0095684D01*
X0111581Y0095806D01*
X0111480Y0095931D01*
X0111382Y0096059D01*
X0111287Y0096189D01*
X0111195Y0096321D01*
X0111107Y0096455D01*
X0111022Y0096592D01*
X0110940Y0096730D01*
X0110862Y0096871D01*
X0110788Y0097013D01*
X0110717Y0097157D01*
X0110649Y0097303D01*
X0110586Y0097451D01*
X0110525Y0097600D01*
X0110469Y0097751D01*
X0110416Y0097903D01*
X0110367Y0098056D01*
X0110322Y0098210D01*
X0110281Y0098365D01*
X0110243Y0098522D01*
X0110210Y0098679D01*
X0110180Y0098837D01*
X0110154Y0098996D01*
X0110133Y0099155D01*
X0110115Y0099315D01*
X0110101Y0099475D01*
X0110091Y0099636D01*
X0110085Y0099796D01*
X0110083Y0099957D01*
X0180949Y0052713D02*
X0180951Y0052874D01*
X0180957Y0053034D01*
X0180967Y0053195D01*
X0180981Y0053355D01*
X0180999Y0053515D01*
X0181020Y0053674D01*
X0181046Y0053833D01*
X0181076Y0053991D01*
X0181109Y0054148D01*
X0181147Y0054305D01*
X0181188Y0054460D01*
X0181233Y0054614D01*
X0181282Y0054767D01*
X0181335Y0054919D01*
X0181391Y0055070D01*
X0181452Y0055219D01*
X0181515Y0055367D01*
X0181583Y0055513D01*
X0181654Y0055657D01*
X0181728Y0055799D01*
X0181806Y0055940D01*
X0181888Y0056078D01*
X0181973Y0056215D01*
X0182061Y0056349D01*
X0182153Y0056481D01*
X0182248Y0056611D01*
X0182346Y0056739D01*
X0182447Y0056864D01*
X0182551Y0056986D01*
X0182658Y0057106D01*
X0182768Y0057223D01*
X0182881Y0057338D01*
X0182997Y0057449D01*
X0183116Y0057558D01*
X0183237Y0057663D01*
X0183361Y0057766D01*
X0183487Y0057866D01*
X0183615Y0057962D01*
X0183746Y0058055D01*
X0183880Y0058145D01*
X0184015Y0058232D01*
X0184153Y0058315D01*
X0184292Y0058395D01*
X0184434Y0058471D01*
X0184577Y0058544D01*
X0184722Y0058613D01*
X0184869Y0058679D01*
X0185017Y0058741D01*
X0185167Y0058799D01*
X0185318Y0058854D01*
X0185471Y0058905D01*
X0185625Y0058952D01*
X0185780Y0058995D01*
X0185936Y0059034D01*
X0186092Y0059070D01*
X0186250Y0059101D01*
X0186408Y0059129D01*
X0186567Y0059153D01*
X0186727Y0059173D01*
X0186887Y0059189D01*
X0187047Y0059201D01*
X0187208Y0059209D01*
X0187369Y0059213D01*
X0187529Y0059213D01*
X0187690Y0059209D01*
X0187851Y0059201D01*
X0188011Y0059189D01*
X0188171Y0059173D01*
X0188331Y0059153D01*
X0188490Y0059129D01*
X0188648Y0059101D01*
X0188806Y0059070D01*
X0188962Y0059034D01*
X0189118Y0058995D01*
X0189273Y0058952D01*
X0189427Y0058905D01*
X0189580Y0058854D01*
X0189731Y0058799D01*
X0189881Y0058741D01*
X0190029Y0058679D01*
X0190176Y0058613D01*
X0190321Y0058544D01*
X0190464Y0058471D01*
X0190606Y0058395D01*
X0190745Y0058315D01*
X0190883Y0058232D01*
X0191018Y0058145D01*
X0191152Y0058055D01*
X0191283Y0057962D01*
X0191411Y0057866D01*
X0191537Y0057766D01*
X0191661Y0057663D01*
X0191782Y0057558D01*
X0191901Y0057449D01*
X0192017Y0057338D01*
X0192130Y0057223D01*
X0192240Y0057106D01*
X0192347Y0056986D01*
X0192451Y0056864D01*
X0192552Y0056739D01*
X0192650Y0056611D01*
X0192745Y0056481D01*
X0192837Y0056349D01*
X0192925Y0056215D01*
X0193010Y0056078D01*
X0193092Y0055940D01*
X0193170Y0055799D01*
X0193244Y0055657D01*
X0193315Y0055513D01*
X0193383Y0055367D01*
X0193446Y0055219D01*
X0193507Y0055070D01*
X0193563Y0054919D01*
X0193616Y0054767D01*
X0193665Y0054614D01*
X0193710Y0054460D01*
X0193751Y0054305D01*
X0193789Y0054148D01*
X0193822Y0053991D01*
X0193852Y0053833D01*
X0193878Y0053674D01*
X0193899Y0053515D01*
X0193917Y0053355D01*
X0193931Y0053195D01*
X0193941Y0053034D01*
X0193947Y0052874D01*
X0193949Y0052713D01*
X0193947Y0052552D01*
X0193941Y0052392D01*
X0193931Y0052231D01*
X0193917Y0052071D01*
X0193899Y0051911D01*
X0193878Y0051752D01*
X0193852Y0051593D01*
X0193822Y0051435D01*
X0193789Y0051278D01*
X0193751Y0051121D01*
X0193710Y0050966D01*
X0193665Y0050812D01*
X0193616Y0050659D01*
X0193563Y0050507D01*
X0193507Y0050356D01*
X0193446Y0050207D01*
X0193383Y0050059D01*
X0193315Y0049913D01*
X0193244Y0049769D01*
X0193170Y0049627D01*
X0193092Y0049486D01*
X0193010Y0049348D01*
X0192925Y0049211D01*
X0192837Y0049077D01*
X0192745Y0048945D01*
X0192650Y0048815D01*
X0192552Y0048687D01*
X0192451Y0048562D01*
X0192347Y0048440D01*
X0192240Y0048320D01*
X0192130Y0048203D01*
X0192017Y0048088D01*
X0191901Y0047977D01*
X0191782Y0047868D01*
X0191661Y0047763D01*
X0191537Y0047660D01*
X0191411Y0047560D01*
X0191283Y0047464D01*
X0191152Y0047371D01*
X0191018Y0047281D01*
X0190883Y0047194D01*
X0190745Y0047111D01*
X0190606Y0047031D01*
X0190464Y0046955D01*
X0190321Y0046882D01*
X0190176Y0046813D01*
X0190029Y0046747D01*
X0189881Y0046685D01*
X0189731Y0046627D01*
X0189580Y0046572D01*
X0189427Y0046521D01*
X0189273Y0046474D01*
X0189118Y0046431D01*
X0188962Y0046392D01*
X0188806Y0046356D01*
X0188648Y0046325D01*
X0188490Y0046297D01*
X0188331Y0046273D01*
X0188171Y0046253D01*
X0188011Y0046237D01*
X0187851Y0046225D01*
X0187690Y0046217D01*
X0187529Y0046213D01*
X0187369Y0046213D01*
X0187208Y0046217D01*
X0187047Y0046225D01*
X0186887Y0046237D01*
X0186727Y0046253D01*
X0186567Y0046273D01*
X0186408Y0046297D01*
X0186250Y0046325D01*
X0186092Y0046356D01*
X0185936Y0046392D01*
X0185780Y0046431D01*
X0185625Y0046474D01*
X0185471Y0046521D01*
X0185318Y0046572D01*
X0185167Y0046627D01*
X0185017Y0046685D01*
X0184869Y0046747D01*
X0184722Y0046813D01*
X0184577Y0046882D01*
X0184434Y0046955D01*
X0184292Y0047031D01*
X0184153Y0047111D01*
X0184015Y0047194D01*
X0183880Y0047281D01*
X0183746Y0047371D01*
X0183615Y0047464D01*
X0183487Y0047560D01*
X0183361Y0047660D01*
X0183237Y0047763D01*
X0183116Y0047868D01*
X0182997Y0047977D01*
X0182881Y0048088D01*
X0182768Y0048203D01*
X0182658Y0048320D01*
X0182551Y0048440D01*
X0182447Y0048562D01*
X0182346Y0048687D01*
X0182248Y0048815D01*
X0182153Y0048945D01*
X0182061Y0049077D01*
X0181973Y0049211D01*
X0181888Y0049348D01*
X0181806Y0049486D01*
X0181728Y0049627D01*
X0181654Y0049769D01*
X0181583Y0049913D01*
X0181515Y0050059D01*
X0181452Y0050207D01*
X0181391Y0050356D01*
X0181335Y0050507D01*
X0181282Y0050659D01*
X0181233Y0050812D01*
X0181188Y0050966D01*
X0181147Y0051121D01*
X0181109Y0051278D01*
X0181076Y0051435D01*
X0181046Y0051593D01*
X0181020Y0051752D01*
X0180999Y0051911D01*
X0180981Y0052071D01*
X0180967Y0052231D01*
X0180957Y0052392D01*
X0180951Y0052552D01*
X0180949Y0052713D01*
X0220319Y0086177D02*
X0220321Y0086338D01*
X0220327Y0086498D01*
X0220337Y0086659D01*
X0220351Y0086819D01*
X0220369Y0086979D01*
X0220390Y0087138D01*
X0220416Y0087297D01*
X0220446Y0087455D01*
X0220479Y0087612D01*
X0220517Y0087769D01*
X0220558Y0087924D01*
X0220603Y0088078D01*
X0220652Y0088231D01*
X0220705Y0088383D01*
X0220761Y0088534D01*
X0220822Y0088683D01*
X0220885Y0088831D01*
X0220953Y0088977D01*
X0221024Y0089121D01*
X0221098Y0089263D01*
X0221176Y0089404D01*
X0221258Y0089542D01*
X0221343Y0089679D01*
X0221431Y0089813D01*
X0221523Y0089945D01*
X0221618Y0090075D01*
X0221716Y0090203D01*
X0221817Y0090328D01*
X0221921Y0090450D01*
X0222028Y0090570D01*
X0222138Y0090687D01*
X0222251Y0090802D01*
X0222367Y0090913D01*
X0222486Y0091022D01*
X0222607Y0091127D01*
X0222731Y0091230D01*
X0222857Y0091330D01*
X0222985Y0091426D01*
X0223116Y0091519D01*
X0223250Y0091609D01*
X0223385Y0091696D01*
X0223523Y0091779D01*
X0223662Y0091859D01*
X0223804Y0091935D01*
X0223947Y0092008D01*
X0224092Y0092077D01*
X0224239Y0092143D01*
X0224387Y0092205D01*
X0224537Y0092263D01*
X0224688Y0092318D01*
X0224841Y0092369D01*
X0224995Y0092416D01*
X0225150Y0092459D01*
X0225306Y0092498D01*
X0225462Y0092534D01*
X0225620Y0092565D01*
X0225778Y0092593D01*
X0225937Y0092617D01*
X0226097Y0092637D01*
X0226257Y0092653D01*
X0226417Y0092665D01*
X0226578Y0092673D01*
X0226739Y0092677D01*
X0226899Y0092677D01*
X0227060Y0092673D01*
X0227221Y0092665D01*
X0227381Y0092653D01*
X0227541Y0092637D01*
X0227701Y0092617D01*
X0227860Y0092593D01*
X0228018Y0092565D01*
X0228176Y0092534D01*
X0228332Y0092498D01*
X0228488Y0092459D01*
X0228643Y0092416D01*
X0228797Y0092369D01*
X0228950Y0092318D01*
X0229101Y0092263D01*
X0229251Y0092205D01*
X0229399Y0092143D01*
X0229546Y0092077D01*
X0229691Y0092008D01*
X0229834Y0091935D01*
X0229976Y0091859D01*
X0230115Y0091779D01*
X0230253Y0091696D01*
X0230388Y0091609D01*
X0230522Y0091519D01*
X0230653Y0091426D01*
X0230781Y0091330D01*
X0230907Y0091230D01*
X0231031Y0091127D01*
X0231152Y0091022D01*
X0231271Y0090913D01*
X0231387Y0090802D01*
X0231500Y0090687D01*
X0231610Y0090570D01*
X0231717Y0090450D01*
X0231821Y0090328D01*
X0231922Y0090203D01*
X0232020Y0090075D01*
X0232115Y0089945D01*
X0232207Y0089813D01*
X0232295Y0089679D01*
X0232380Y0089542D01*
X0232462Y0089404D01*
X0232540Y0089263D01*
X0232614Y0089121D01*
X0232685Y0088977D01*
X0232753Y0088831D01*
X0232816Y0088683D01*
X0232877Y0088534D01*
X0232933Y0088383D01*
X0232986Y0088231D01*
X0233035Y0088078D01*
X0233080Y0087924D01*
X0233121Y0087769D01*
X0233159Y0087612D01*
X0233192Y0087455D01*
X0233222Y0087297D01*
X0233248Y0087138D01*
X0233269Y0086979D01*
X0233287Y0086819D01*
X0233301Y0086659D01*
X0233311Y0086498D01*
X0233317Y0086338D01*
X0233319Y0086177D01*
X0233317Y0086016D01*
X0233311Y0085856D01*
X0233301Y0085695D01*
X0233287Y0085535D01*
X0233269Y0085375D01*
X0233248Y0085216D01*
X0233222Y0085057D01*
X0233192Y0084899D01*
X0233159Y0084742D01*
X0233121Y0084585D01*
X0233080Y0084430D01*
X0233035Y0084276D01*
X0232986Y0084123D01*
X0232933Y0083971D01*
X0232877Y0083820D01*
X0232816Y0083671D01*
X0232753Y0083523D01*
X0232685Y0083377D01*
X0232614Y0083233D01*
X0232540Y0083091D01*
X0232462Y0082950D01*
X0232380Y0082812D01*
X0232295Y0082675D01*
X0232207Y0082541D01*
X0232115Y0082409D01*
X0232020Y0082279D01*
X0231922Y0082151D01*
X0231821Y0082026D01*
X0231717Y0081904D01*
X0231610Y0081784D01*
X0231500Y0081667D01*
X0231387Y0081552D01*
X0231271Y0081441D01*
X0231152Y0081332D01*
X0231031Y0081227D01*
X0230907Y0081124D01*
X0230781Y0081024D01*
X0230653Y0080928D01*
X0230522Y0080835D01*
X0230388Y0080745D01*
X0230253Y0080658D01*
X0230115Y0080575D01*
X0229976Y0080495D01*
X0229834Y0080419D01*
X0229691Y0080346D01*
X0229546Y0080277D01*
X0229399Y0080211D01*
X0229251Y0080149D01*
X0229101Y0080091D01*
X0228950Y0080036D01*
X0228797Y0079985D01*
X0228643Y0079938D01*
X0228488Y0079895D01*
X0228332Y0079856D01*
X0228176Y0079820D01*
X0228018Y0079789D01*
X0227860Y0079761D01*
X0227701Y0079737D01*
X0227541Y0079717D01*
X0227381Y0079701D01*
X0227221Y0079689D01*
X0227060Y0079681D01*
X0226899Y0079677D01*
X0226739Y0079677D01*
X0226578Y0079681D01*
X0226417Y0079689D01*
X0226257Y0079701D01*
X0226097Y0079717D01*
X0225937Y0079737D01*
X0225778Y0079761D01*
X0225620Y0079789D01*
X0225462Y0079820D01*
X0225306Y0079856D01*
X0225150Y0079895D01*
X0224995Y0079938D01*
X0224841Y0079985D01*
X0224688Y0080036D01*
X0224537Y0080091D01*
X0224387Y0080149D01*
X0224239Y0080211D01*
X0224092Y0080277D01*
X0223947Y0080346D01*
X0223804Y0080419D01*
X0223662Y0080495D01*
X0223523Y0080575D01*
X0223385Y0080658D01*
X0223250Y0080745D01*
X0223116Y0080835D01*
X0222985Y0080928D01*
X0222857Y0081024D01*
X0222731Y0081124D01*
X0222607Y0081227D01*
X0222486Y0081332D01*
X0222367Y0081441D01*
X0222251Y0081552D01*
X0222138Y0081667D01*
X0222028Y0081784D01*
X0221921Y0081904D01*
X0221817Y0082026D01*
X0221716Y0082151D01*
X0221618Y0082279D01*
X0221523Y0082409D01*
X0221431Y0082541D01*
X0221343Y0082675D01*
X0221258Y0082812D01*
X0221176Y0082950D01*
X0221098Y0083091D01*
X0221024Y0083233D01*
X0220953Y0083377D01*
X0220885Y0083523D01*
X0220822Y0083671D01*
X0220761Y0083820D01*
X0220705Y0083971D01*
X0220652Y0084123D01*
X0220603Y0084276D01*
X0220558Y0084430D01*
X0220517Y0084585D01*
X0220479Y0084742D01*
X0220446Y0084899D01*
X0220416Y0085057D01*
X0220390Y0085216D01*
X0220369Y0085375D01*
X0220351Y0085535D01*
X0220337Y0085695D01*
X0220327Y0085856D01*
X0220321Y0086016D01*
X0220319Y0086177D01*
X0208508Y0125547D02*
X0208510Y0125708D01*
X0208516Y0125868D01*
X0208526Y0126029D01*
X0208540Y0126189D01*
X0208558Y0126349D01*
X0208579Y0126508D01*
X0208605Y0126667D01*
X0208635Y0126825D01*
X0208668Y0126982D01*
X0208706Y0127139D01*
X0208747Y0127294D01*
X0208792Y0127448D01*
X0208841Y0127601D01*
X0208894Y0127753D01*
X0208950Y0127904D01*
X0209011Y0128053D01*
X0209074Y0128201D01*
X0209142Y0128347D01*
X0209213Y0128491D01*
X0209287Y0128633D01*
X0209365Y0128774D01*
X0209447Y0128912D01*
X0209532Y0129049D01*
X0209620Y0129183D01*
X0209712Y0129315D01*
X0209807Y0129445D01*
X0209905Y0129573D01*
X0210006Y0129698D01*
X0210110Y0129820D01*
X0210217Y0129940D01*
X0210327Y0130057D01*
X0210440Y0130172D01*
X0210556Y0130283D01*
X0210675Y0130392D01*
X0210796Y0130497D01*
X0210920Y0130600D01*
X0211046Y0130700D01*
X0211174Y0130796D01*
X0211305Y0130889D01*
X0211439Y0130979D01*
X0211574Y0131066D01*
X0211712Y0131149D01*
X0211851Y0131229D01*
X0211993Y0131305D01*
X0212136Y0131378D01*
X0212281Y0131447D01*
X0212428Y0131513D01*
X0212576Y0131575D01*
X0212726Y0131633D01*
X0212877Y0131688D01*
X0213030Y0131739D01*
X0213184Y0131786D01*
X0213339Y0131829D01*
X0213495Y0131868D01*
X0213651Y0131904D01*
X0213809Y0131935D01*
X0213967Y0131963D01*
X0214126Y0131987D01*
X0214286Y0132007D01*
X0214446Y0132023D01*
X0214606Y0132035D01*
X0214767Y0132043D01*
X0214928Y0132047D01*
X0215088Y0132047D01*
X0215249Y0132043D01*
X0215410Y0132035D01*
X0215570Y0132023D01*
X0215730Y0132007D01*
X0215890Y0131987D01*
X0216049Y0131963D01*
X0216207Y0131935D01*
X0216365Y0131904D01*
X0216521Y0131868D01*
X0216677Y0131829D01*
X0216832Y0131786D01*
X0216986Y0131739D01*
X0217139Y0131688D01*
X0217290Y0131633D01*
X0217440Y0131575D01*
X0217588Y0131513D01*
X0217735Y0131447D01*
X0217880Y0131378D01*
X0218023Y0131305D01*
X0218165Y0131229D01*
X0218304Y0131149D01*
X0218442Y0131066D01*
X0218577Y0130979D01*
X0218711Y0130889D01*
X0218842Y0130796D01*
X0218970Y0130700D01*
X0219096Y0130600D01*
X0219220Y0130497D01*
X0219341Y0130392D01*
X0219460Y0130283D01*
X0219576Y0130172D01*
X0219689Y0130057D01*
X0219799Y0129940D01*
X0219906Y0129820D01*
X0220010Y0129698D01*
X0220111Y0129573D01*
X0220209Y0129445D01*
X0220304Y0129315D01*
X0220396Y0129183D01*
X0220484Y0129049D01*
X0220569Y0128912D01*
X0220651Y0128774D01*
X0220729Y0128633D01*
X0220803Y0128491D01*
X0220874Y0128347D01*
X0220942Y0128201D01*
X0221005Y0128053D01*
X0221066Y0127904D01*
X0221122Y0127753D01*
X0221175Y0127601D01*
X0221224Y0127448D01*
X0221269Y0127294D01*
X0221310Y0127139D01*
X0221348Y0126982D01*
X0221381Y0126825D01*
X0221411Y0126667D01*
X0221437Y0126508D01*
X0221458Y0126349D01*
X0221476Y0126189D01*
X0221490Y0126029D01*
X0221500Y0125868D01*
X0221506Y0125708D01*
X0221508Y0125547D01*
X0221506Y0125386D01*
X0221500Y0125226D01*
X0221490Y0125065D01*
X0221476Y0124905D01*
X0221458Y0124745D01*
X0221437Y0124586D01*
X0221411Y0124427D01*
X0221381Y0124269D01*
X0221348Y0124112D01*
X0221310Y0123955D01*
X0221269Y0123800D01*
X0221224Y0123646D01*
X0221175Y0123493D01*
X0221122Y0123341D01*
X0221066Y0123190D01*
X0221005Y0123041D01*
X0220942Y0122893D01*
X0220874Y0122747D01*
X0220803Y0122603D01*
X0220729Y0122461D01*
X0220651Y0122320D01*
X0220569Y0122182D01*
X0220484Y0122045D01*
X0220396Y0121911D01*
X0220304Y0121779D01*
X0220209Y0121649D01*
X0220111Y0121521D01*
X0220010Y0121396D01*
X0219906Y0121274D01*
X0219799Y0121154D01*
X0219689Y0121037D01*
X0219576Y0120922D01*
X0219460Y0120811D01*
X0219341Y0120702D01*
X0219220Y0120597D01*
X0219096Y0120494D01*
X0218970Y0120394D01*
X0218842Y0120298D01*
X0218711Y0120205D01*
X0218577Y0120115D01*
X0218442Y0120028D01*
X0218304Y0119945D01*
X0218165Y0119865D01*
X0218023Y0119789D01*
X0217880Y0119716D01*
X0217735Y0119647D01*
X0217588Y0119581D01*
X0217440Y0119519D01*
X0217290Y0119461D01*
X0217139Y0119406D01*
X0216986Y0119355D01*
X0216832Y0119308D01*
X0216677Y0119265D01*
X0216521Y0119226D01*
X0216365Y0119190D01*
X0216207Y0119159D01*
X0216049Y0119131D01*
X0215890Y0119107D01*
X0215730Y0119087D01*
X0215570Y0119071D01*
X0215410Y0119059D01*
X0215249Y0119051D01*
X0215088Y0119047D01*
X0214928Y0119047D01*
X0214767Y0119051D01*
X0214606Y0119059D01*
X0214446Y0119071D01*
X0214286Y0119087D01*
X0214126Y0119107D01*
X0213967Y0119131D01*
X0213809Y0119159D01*
X0213651Y0119190D01*
X0213495Y0119226D01*
X0213339Y0119265D01*
X0213184Y0119308D01*
X0213030Y0119355D01*
X0212877Y0119406D01*
X0212726Y0119461D01*
X0212576Y0119519D01*
X0212428Y0119581D01*
X0212281Y0119647D01*
X0212136Y0119716D01*
X0211993Y0119789D01*
X0211851Y0119865D01*
X0211712Y0119945D01*
X0211574Y0120028D01*
X0211439Y0120115D01*
X0211305Y0120205D01*
X0211174Y0120298D01*
X0211046Y0120394D01*
X0210920Y0120494D01*
X0210796Y0120597D01*
X0210675Y0120702D01*
X0210556Y0120811D01*
X0210440Y0120922D01*
X0210327Y0121037D01*
X0210217Y0121154D01*
X0210110Y0121274D01*
X0210006Y0121396D01*
X0209905Y0121521D01*
X0209807Y0121649D01*
X0209712Y0121779D01*
X0209620Y0121911D01*
X0209532Y0122045D01*
X0209447Y0122182D01*
X0209365Y0122320D01*
X0209287Y0122461D01*
X0209213Y0122603D01*
X0209142Y0122747D01*
X0209074Y0122893D01*
X0209011Y0123041D01*
X0208950Y0123190D01*
X0208894Y0123341D01*
X0208841Y0123493D01*
X0208792Y0123646D01*
X0208747Y0123800D01*
X0208706Y0123955D01*
X0208668Y0124112D01*
X0208635Y0124269D01*
X0208605Y0124427D01*
X0208579Y0124586D01*
X0208558Y0124745D01*
X0208540Y0124905D01*
X0208526Y0125065D01*
X0208516Y0125226D01*
X0208510Y0125386D01*
X0208508Y0125547D01*
X0259689Y0082240D02*
X0259691Y0082401D01*
X0259697Y0082561D01*
X0259707Y0082722D01*
X0259721Y0082882D01*
X0259739Y0083042D01*
X0259760Y0083201D01*
X0259786Y0083360D01*
X0259816Y0083518D01*
X0259849Y0083675D01*
X0259887Y0083832D01*
X0259928Y0083987D01*
X0259973Y0084141D01*
X0260022Y0084294D01*
X0260075Y0084446D01*
X0260131Y0084597D01*
X0260192Y0084746D01*
X0260255Y0084894D01*
X0260323Y0085040D01*
X0260394Y0085184D01*
X0260468Y0085326D01*
X0260546Y0085467D01*
X0260628Y0085605D01*
X0260713Y0085742D01*
X0260801Y0085876D01*
X0260893Y0086008D01*
X0260988Y0086138D01*
X0261086Y0086266D01*
X0261187Y0086391D01*
X0261291Y0086513D01*
X0261398Y0086633D01*
X0261508Y0086750D01*
X0261621Y0086865D01*
X0261737Y0086976D01*
X0261856Y0087085D01*
X0261977Y0087190D01*
X0262101Y0087293D01*
X0262227Y0087393D01*
X0262355Y0087489D01*
X0262486Y0087582D01*
X0262620Y0087672D01*
X0262755Y0087759D01*
X0262893Y0087842D01*
X0263032Y0087922D01*
X0263174Y0087998D01*
X0263317Y0088071D01*
X0263462Y0088140D01*
X0263609Y0088206D01*
X0263757Y0088268D01*
X0263907Y0088326D01*
X0264058Y0088381D01*
X0264211Y0088432D01*
X0264365Y0088479D01*
X0264520Y0088522D01*
X0264676Y0088561D01*
X0264832Y0088597D01*
X0264990Y0088628D01*
X0265148Y0088656D01*
X0265307Y0088680D01*
X0265467Y0088700D01*
X0265627Y0088716D01*
X0265787Y0088728D01*
X0265948Y0088736D01*
X0266109Y0088740D01*
X0266269Y0088740D01*
X0266430Y0088736D01*
X0266591Y0088728D01*
X0266751Y0088716D01*
X0266911Y0088700D01*
X0267071Y0088680D01*
X0267230Y0088656D01*
X0267388Y0088628D01*
X0267546Y0088597D01*
X0267702Y0088561D01*
X0267858Y0088522D01*
X0268013Y0088479D01*
X0268167Y0088432D01*
X0268320Y0088381D01*
X0268471Y0088326D01*
X0268621Y0088268D01*
X0268769Y0088206D01*
X0268916Y0088140D01*
X0269061Y0088071D01*
X0269204Y0087998D01*
X0269346Y0087922D01*
X0269485Y0087842D01*
X0269623Y0087759D01*
X0269758Y0087672D01*
X0269892Y0087582D01*
X0270023Y0087489D01*
X0270151Y0087393D01*
X0270277Y0087293D01*
X0270401Y0087190D01*
X0270522Y0087085D01*
X0270641Y0086976D01*
X0270757Y0086865D01*
X0270870Y0086750D01*
X0270980Y0086633D01*
X0271087Y0086513D01*
X0271191Y0086391D01*
X0271292Y0086266D01*
X0271390Y0086138D01*
X0271485Y0086008D01*
X0271577Y0085876D01*
X0271665Y0085742D01*
X0271750Y0085605D01*
X0271832Y0085467D01*
X0271910Y0085326D01*
X0271984Y0085184D01*
X0272055Y0085040D01*
X0272123Y0084894D01*
X0272186Y0084746D01*
X0272247Y0084597D01*
X0272303Y0084446D01*
X0272356Y0084294D01*
X0272405Y0084141D01*
X0272450Y0083987D01*
X0272491Y0083832D01*
X0272529Y0083675D01*
X0272562Y0083518D01*
X0272592Y0083360D01*
X0272618Y0083201D01*
X0272639Y0083042D01*
X0272657Y0082882D01*
X0272671Y0082722D01*
X0272681Y0082561D01*
X0272687Y0082401D01*
X0272689Y0082240D01*
X0272687Y0082079D01*
X0272681Y0081919D01*
X0272671Y0081758D01*
X0272657Y0081598D01*
X0272639Y0081438D01*
X0272618Y0081279D01*
X0272592Y0081120D01*
X0272562Y0080962D01*
X0272529Y0080805D01*
X0272491Y0080648D01*
X0272450Y0080493D01*
X0272405Y0080339D01*
X0272356Y0080186D01*
X0272303Y0080034D01*
X0272247Y0079883D01*
X0272186Y0079734D01*
X0272123Y0079586D01*
X0272055Y0079440D01*
X0271984Y0079296D01*
X0271910Y0079154D01*
X0271832Y0079013D01*
X0271750Y0078875D01*
X0271665Y0078738D01*
X0271577Y0078604D01*
X0271485Y0078472D01*
X0271390Y0078342D01*
X0271292Y0078214D01*
X0271191Y0078089D01*
X0271087Y0077967D01*
X0270980Y0077847D01*
X0270870Y0077730D01*
X0270757Y0077615D01*
X0270641Y0077504D01*
X0270522Y0077395D01*
X0270401Y0077290D01*
X0270277Y0077187D01*
X0270151Y0077087D01*
X0270023Y0076991D01*
X0269892Y0076898D01*
X0269758Y0076808D01*
X0269623Y0076721D01*
X0269485Y0076638D01*
X0269346Y0076558D01*
X0269204Y0076482D01*
X0269061Y0076409D01*
X0268916Y0076340D01*
X0268769Y0076274D01*
X0268621Y0076212D01*
X0268471Y0076154D01*
X0268320Y0076099D01*
X0268167Y0076048D01*
X0268013Y0076001D01*
X0267858Y0075958D01*
X0267702Y0075919D01*
X0267546Y0075883D01*
X0267388Y0075852D01*
X0267230Y0075824D01*
X0267071Y0075800D01*
X0266911Y0075780D01*
X0266751Y0075764D01*
X0266591Y0075752D01*
X0266430Y0075744D01*
X0266269Y0075740D01*
X0266109Y0075740D01*
X0265948Y0075744D01*
X0265787Y0075752D01*
X0265627Y0075764D01*
X0265467Y0075780D01*
X0265307Y0075800D01*
X0265148Y0075824D01*
X0264990Y0075852D01*
X0264832Y0075883D01*
X0264676Y0075919D01*
X0264520Y0075958D01*
X0264365Y0076001D01*
X0264211Y0076048D01*
X0264058Y0076099D01*
X0263907Y0076154D01*
X0263757Y0076212D01*
X0263609Y0076274D01*
X0263462Y0076340D01*
X0263317Y0076409D01*
X0263174Y0076482D01*
X0263032Y0076558D01*
X0262893Y0076638D01*
X0262755Y0076721D01*
X0262620Y0076808D01*
X0262486Y0076898D01*
X0262355Y0076991D01*
X0262227Y0077087D01*
X0262101Y0077187D01*
X0261977Y0077290D01*
X0261856Y0077395D01*
X0261737Y0077504D01*
X0261621Y0077615D01*
X0261508Y0077730D01*
X0261398Y0077847D01*
X0261291Y0077967D01*
X0261187Y0078089D01*
X0261086Y0078214D01*
X0260988Y0078342D01*
X0260893Y0078472D01*
X0260801Y0078604D01*
X0260713Y0078738D01*
X0260628Y0078875D01*
X0260546Y0079013D01*
X0260468Y0079154D01*
X0260394Y0079296D01*
X0260323Y0079440D01*
X0260255Y0079586D01*
X0260192Y0079734D01*
X0260131Y0079883D01*
X0260075Y0080034D01*
X0260022Y0080186D01*
X0259973Y0080339D01*
X0259928Y0080493D01*
X0259887Y0080648D01*
X0259849Y0080805D01*
X0259816Y0080962D01*
X0259786Y0081120D01*
X0259760Y0081279D01*
X0259739Y0081438D01*
X0259721Y0081598D01*
X0259707Y0081758D01*
X0259697Y0081919D01*
X0259691Y0082079D01*
X0259689Y0082240D01*
X0259689Y0216098D02*
X0259691Y0216259D01*
X0259697Y0216419D01*
X0259707Y0216580D01*
X0259721Y0216740D01*
X0259739Y0216900D01*
X0259760Y0217059D01*
X0259786Y0217218D01*
X0259816Y0217376D01*
X0259849Y0217533D01*
X0259887Y0217690D01*
X0259928Y0217845D01*
X0259973Y0217999D01*
X0260022Y0218152D01*
X0260075Y0218304D01*
X0260131Y0218455D01*
X0260192Y0218604D01*
X0260255Y0218752D01*
X0260323Y0218898D01*
X0260394Y0219042D01*
X0260468Y0219184D01*
X0260546Y0219325D01*
X0260628Y0219463D01*
X0260713Y0219600D01*
X0260801Y0219734D01*
X0260893Y0219866D01*
X0260988Y0219996D01*
X0261086Y0220124D01*
X0261187Y0220249D01*
X0261291Y0220371D01*
X0261398Y0220491D01*
X0261508Y0220608D01*
X0261621Y0220723D01*
X0261737Y0220834D01*
X0261856Y0220943D01*
X0261977Y0221048D01*
X0262101Y0221151D01*
X0262227Y0221251D01*
X0262355Y0221347D01*
X0262486Y0221440D01*
X0262620Y0221530D01*
X0262755Y0221617D01*
X0262893Y0221700D01*
X0263032Y0221780D01*
X0263174Y0221856D01*
X0263317Y0221929D01*
X0263462Y0221998D01*
X0263609Y0222064D01*
X0263757Y0222126D01*
X0263907Y0222184D01*
X0264058Y0222239D01*
X0264211Y0222290D01*
X0264365Y0222337D01*
X0264520Y0222380D01*
X0264676Y0222419D01*
X0264832Y0222455D01*
X0264990Y0222486D01*
X0265148Y0222514D01*
X0265307Y0222538D01*
X0265467Y0222558D01*
X0265627Y0222574D01*
X0265787Y0222586D01*
X0265948Y0222594D01*
X0266109Y0222598D01*
X0266269Y0222598D01*
X0266430Y0222594D01*
X0266591Y0222586D01*
X0266751Y0222574D01*
X0266911Y0222558D01*
X0267071Y0222538D01*
X0267230Y0222514D01*
X0267388Y0222486D01*
X0267546Y0222455D01*
X0267702Y0222419D01*
X0267858Y0222380D01*
X0268013Y0222337D01*
X0268167Y0222290D01*
X0268320Y0222239D01*
X0268471Y0222184D01*
X0268621Y0222126D01*
X0268769Y0222064D01*
X0268916Y0221998D01*
X0269061Y0221929D01*
X0269204Y0221856D01*
X0269346Y0221780D01*
X0269485Y0221700D01*
X0269623Y0221617D01*
X0269758Y0221530D01*
X0269892Y0221440D01*
X0270023Y0221347D01*
X0270151Y0221251D01*
X0270277Y0221151D01*
X0270401Y0221048D01*
X0270522Y0220943D01*
X0270641Y0220834D01*
X0270757Y0220723D01*
X0270870Y0220608D01*
X0270980Y0220491D01*
X0271087Y0220371D01*
X0271191Y0220249D01*
X0271292Y0220124D01*
X0271390Y0219996D01*
X0271485Y0219866D01*
X0271577Y0219734D01*
X0271665Y0219600D01*
X0271750Y0219463D01*
X0271832Y0219325D01*
X0271910Y0219184D01*
X0271984Y0219042D01*
X0272055Y0218898D01*
X0272123Y0218752D01*
X0272186Y0218604D01*
X0272247Y0218455D01*
X0272303Y0218304D01*
X0272356Y0218152D01*
X0272405Y0217999D01*
X0272450Y0217845D01*
X0272491Y0217690D01*
X0272529Y0217533D01*
X0272562Y0217376D01*
X0272592Y0217218D01*
X0272618Y0217059D01*
X0272639Y0216900D01*
X0272657Y0216740D01*
X0272671Y0216580D01*
X0272681Y0216419D01*
X0272687Y0216259D01*
X0272689Y0216098D01*
X0272687Y0215937D01*
X0272681Y0215777D01*
X0272671Y0215616D01*
X0272657Y0215456D01*
X0272639Y0215296D01*
X0272618Y0215137D01*
X0272592Y0214978D01*
X0272562Y0214820D01*
X0272529Y0214663D01*
X0272491Y0214506D01*
X0272450Y0214351D01*
X0272405Y0214197D01*
X0272356Y0214044D01*
X0272303Y0213892D01*
X0272247Y0213741D01*
X0272186Y0213592D01*
X0272123Y0213444D01*
X0272055Y0213298D01*
X0271984Y0213154D01*
X0271910Y0213012D01*
X0271832Y0212871D01*
X0271750Y0212733D01*
X0271665Y0212596D01*
X0271577Y0212462D01*
X0271485Y0212330D01*
X0271390Y0212200D01*
X0271292Y0212072D01*
X0271191Y0211947D01*
X0271087Y0211825D01*
X0270980Y0211705D01*
X0270870Y0211588D01*
X0270757Y0211473D01*
X0270641Y0211362D01*
X0270522Y0211253D01*
X0270401Y0211148D01*
X0270277Y0211045D01*
X0270151Y0210945D01*
X0270023Y0210849D01*
X0269892Y0210756D01*
X0269758Y0210666D01*
X0269623Y0210579D01*
X0269485Y0210496D01*
X0269346Y0210416D01*
X0269204Y0210340D01*
X0269061Y0210267D01*
X0268916Y0210198D01*
X0268769Y0210132D01*
X0268621Y0210070D01*
X0268471Y0210012D01*
X0268320Y0209957D01*
X0268167Y0209906D01*
X0268013Y0209859D01*
X0267858Y0209816D01*
X0267702Y0209777D01*
X0267546Y0209741D01*
X0267388Y0209710D01*
X0267230Y0209682D01*
X0267071Y0209658D01*
X0266911Y0209638D01*
X0266751Y0209622D01*
X0266591Y0209610D01*
X0266430Y0209602D01*
X0266269Y0209598D01*
X0266109Y0209598D01*
X0265948Y0209602D01*
X0265787Y0209610D01*
X0265627Y0209622D01*
X0265467Y0209638D01*
X0265307Y0209658D01*
X0265148Y0209682D01*
X0264990Y0209710D01*
X0264832Y0209741D01*
X0264676Y0209777D01*
X0264520Y0209816D01*
X0264365Y0209859D01*
X0264211Y0209906D01*
X0264058Y0209957D01*
X0263907Y0210012D01*
X0263757Y0210070D01*
X0263609Y0210132D01*
X0263462Y0210198D01*
X0263317Y0210267D01*
X0263174Y0210340D01*
X0263032Y0210416D01*
X0262893Y0210496D01*
X0262755Y0210579D01*
X0262620Y0210666D01*
X0262486Y0210756D01*
X0262355Y0210849D01*
X0262227Y0210945D01*
X0262101Y0211045D01*
X0261977Y0211148D01*
X0261856Y0211253D01*
X0261737Y0211362D01*
X0261621Y0211473D01*
X0261508Y0211588D01*
X0261398Y0211705D01*
X0261291Y0211825D01*
X0261187Y0211947D01*
X0261086Y0212072D01*
X0260988Y0212200D01*
X0260893Y0212330D01*
X0260801Y0212462D01*
X0260713Y0212596D01*
X0260628Y0212733D01*
X0260546Y0212871D01*
X0260468Y0213012D01*
X0260394Y0213154D01*
X0260323Y0213298D01*
X0260255Y0213444D01*
X0260192Y0213592D01*
X0260131Y0213741D01*
X0260075Y0213892D01*
X0260022Y0214044D01*
X0259973Y0214197D01*
X0259928Y0214351D01*
X0259887Y0214506D01*
X0259849Y0214663D01*
X0259816Y0214820D01*
X0259786Y0214978D01*
X0259760Y0215137D01*
X0259739Y0215296D01*
X0259721Y0215456D01*
X0259707Y0215616D01*
X0259697Y0215777D01*
X0259691Y0215937D01*
X0259689Y0216098D01*
X0007720Y0216098D02*
X0007722Y0216259D01*
X0007728Y0216419D01*
X0007738Y0216580D01*
X0007752Y0216740D01*
X0007770Y0216900D01*
X0007791Y0217059D01*
X0007817Y0217218D01*
X0007847Y0217376D01*
X0007880Y0217533D01*
X0007918Y0217690D01*
X0007959Y0217845D01*
X0008004Y0217999D01*
X0008053Y0218152D01*
X0008106Y0218304D01*
X0008162Y0218455D01*
X0008223Y0218604D01*
X0008286Y0218752D01*
X0008354Y0218898D01*
X0008425Y0219042D01*
X0008499Y0219184D01*
X0008577Y0219325D01*
X0008659Y0219463D01*
X0008744Y0219600D01*
X0008832Y0219734D01*
X0008924Y0219866D01*
X0009019Y0219996D01*
X0009117Y0220124D01*
X0009218Y0220249D01*
X0009322Y0220371D01*
X0009429Y0220491D01*
X0009539Y0220608D01*
X0009652Y0220723D01*
X0009768Y0220834D01*
X0009887Y0220943D01*
X0010008Y0221048D01*
X0010132Y0221151D01*
X0010258Y0221251D01*
X0010386Y0221347D01*
X0010517Y0221440D01*
X0010651Y0221530D01*
X0010786Y0221617D01*
X0010924Y0221700D01*
X0011063Y0221780D01*
X0011205Y0221856D01*
X0011348Y0221929D01*
X0011493Y0221998D01*
X0011640Y0222064D01*
X0011788Y0222126D01*
X0011938Y0222184D01*
X0012089Y0222239D01*
X0012242Y0222290D01*
X0012396Y0222337D01*
X0012551Y0222380D01*
X0012707Y0222419D01*
X0012863Y0222455D01*
X0013021Y0222486D01*
X0013179Y0222514D01*
X0013338Y0222538D01*
X0013498Y0222558D01*
X0013658Y0222574D01*
X0013818Y0222586D01*
X0013979Y0222594D01*
X0014140Y0222598D01*
X0014300Y0222598D01*
X0014461Y0222594D01*
X0014622Y0222586D01*
X0014782Y0222574D01*
X0014942Y0222558D01*
X0015102Y0222538D01*
X0015261Y0222514D01*
X0015419Y0222486D01*
X0015577Y0222455D01*
X0015733Y0222419D01*
X0015889Y0222380D01*
X0016044Y0222337D01*
X0016198Y0222290D01*
X0016351Y0222239D01*
X0016502Y0222184D01*
X0016652Y0222126D01*
X0016800Y0222064D01*
X0016947Y0221998D01*
X0017092Y0221929D01*
X0017235Y0221856D01*
X0017377Y0221780D01*
X0017516Y0221700D01*
X0017654Y0221617D01*
X0017789Y0221530D01*
X0017923Y0221440D01*
X0018054Y0221347D01*
X0018182Y0221251D01*
X0018308Y0221151D01*
X0018432Y0221048D01*
X0018553Y0220943D01*
X0018672Y0220834D01*
X0018788Y0220723D01*
X0018901Y0220608D01*
X0019011Y0220491D01*
X0019118Y0220371D01*
X0019222Y0220249D01*
X0019323Y0220124D01*
X0019421Y0219996D01*
X0019516Y0219866D01*
X0019608Y0219734D01*
X0019696Y0219600D01*
X0019781Y0219463D01*
X0019863Y0219325D01*
X0019941Y0219184D01*
X0020015Y0219042D01*
X0020086Y0218898D01*
X0020154Y0218752D01*
X0020217Y0218604D01*
X0020278Y0218455D01*
X0020334Y0218304D01*
X0020387Y0218152D01*
X0020436Y0217999D01*
X0020481Y0217845D01*
X0020522Y0217690D01*
X0020560Y0217533D01*
X0020593Y0217376D01*
X0020623Y0217218D01*
X0020649Y0217059D01*
X0020670Y0216900D01*
X0020688Y0216740D01*
X0020702Y0216580D01*
X0020712Y0216419D01*
X0020718Y0216259D01*
X0020720Y0216098D01*
X0020718Y0215937D01*
X0020712Y0215777D01*
X0020702Y0215616D01*
X0020688Y0215456D01*
X0020670Y0215296D01*
X0020649Y0215137D01*
X0020623Y0214978D01*
X0020593Y0214820D01*
X0020560Y0214663D01*
X0020522Y0214506D01*
X0020481Y0214351D01*
X0020436Y0214197D01*
X0020387Y0214044D01*
X0020334Y0213892D01*
X0020278Y0213741D01*
X0020217Y0213592D01*
X0020154Y0213444D01*
X0020086Y0213298D01*
X0020015Y0213154D01*
X0019941Y0213012D01*
X0019863Y0212871D01*
X0019781Y0212733D01*
X0019696Y0212596D01*
X0019608Y0212462D01*
X0019516Y0212330D01*
X0019421Y0212200D01*
X0019323Y0212072D01*
X0019222Y0211947D01*
X0019118Y0211825D01*
X0019011Y0211705D01*
X0018901Y0211588D01*
X0018788Y0211473D01*
X0018672Y0211362D01*
X0018553Y0211253D01*
X0018432Y0211148D01*
X0018308Y0211045D01*
X0018182Y0210945D01*
X0018054Y0210849D01*
X0017923Y0210756D01*
X0017789Y0210666D01*
X0017654Y0210579D01*
X0017516Y0210496D01*
X0017377Y0210416D01*
X0017235Y0210340D01*
X0017092Y0210267D01*
X0016947Y0210198D01*
X0016800Y0210132D01*
X0016652Y0210070D01*
X0016502Y0210012D01*
X0016351Y0209957D01*
X0016198Y0209906D01*
X0016044Y0209859D01*
X0015889Y0209816D01*
X0015733Y0209777D01*
X0015577Y0209741D01*
X0015419Y0209710D01*
X0015261Y0209682D01*
X0015102Y0209658D01*
X0014942Y0209638D01*
X0014782Y0209622D01*
X0014622Y0209610D01*
X0014461Y0209602D01*
X0014300Y0209598D01*
X0014140Y0209598D01*
X0013979Y0209602D01*
X0013818Y0209610D01*
X0013658Y0209622D01*
X0013498Y0209638D01*
X0013338Y0209658D01*
X0013179Y0209682D01*
X0013021Y0209710D01*
X0012863Y0209741D01*
X0012707Y0209777D01*
X0012551Y0209816D01*
X0012396Y0209859D01*
X0012242Y0209906D01*
X0012089Y0209957D01*
X0011938Y0210012D01*
X0011788Y0210070D01*
X0011640Y0210132D01*
X0011493Y0210198D01*
X0011348Y0210267D01*
X0011205Y0210340D01*
X0011063Y0210416D01*
X0010924Y0210496D01*
X0010786Y0210579D01*
X0010651Y0210666D01*
X0010517Y0210756D01*
X0010386Y0210849D01*
X0010258Y0210945D01*
X0010132Y0211045D01*
X0010008Y0211148D01*
X0009887Y0211253D01*
X0009768Y0211362D01*
X0009652Y0211473D01*
X0009539Y0211588D01*
X0009429Y0211705D01*
X0009322Y0211825D01*
X0009218Y0211947D01*
X0009117Y0212072D01*
X0009019Y0212200D01*
X0008924Y0212330D01*
X0008832Y0212462D01*
X0008744Y0212596D01*
X0008659Y0212733D01*
X0008577Y0212871D01*
X0008499Y0213012D01*
X0008425Y0213154D01*
X0008354Y0213298D01*
X0008286Y0213444D01*
X0008223Y0213592D01*
X0008162Y0213741D01*
X0008106Y0213892D01*
X0008053Y0214044D01*
X0008004Y0214197D01*
X0007959Y0214351D01*
X0007918Y0214506D01*
X0007880Y0214663D01*
X0007847Y0214820D01*
X0007817Y0214978D01*
X0007791Y0215137D01*
X0007770Y0215296D01*
X0007752Y0215456D01*
X0007738Y0215616D01*
X0007728Y0215777D01*
X0007722Y0215937D01*
X0007720Y0216098D01*
D11*
X0045717Y0141295D02*
X0045719Y0141420D01*
X0045725Y0141545D01*
X0045735Y0141669D01*
X0045749Y0141793D01*
X0045766Y0141917D01*
X0045788Y0142040D01*
X0045814Y0142162D01*
X0045843Y0142284D01*
X0045876Y0142404D01*
X0045914Y0142523D01*
X0045954Y0142642D01*
X0045999Y0142758D01*
X0046047Y0142873D01*
X0046099Y0142987D01*
X0046155Y0143099D01*
X0046214Y0143209D01*
X0046276Y0143317D01*
X0046342Y0143424D01*
X0046411Y0143528D01*
X0046484Y0143629D01*
X0046559Y0143729D01*
X0046638Y0143826D01*
X0046720Y0143920D01*
X0046805Y0144012D01*
X0046892Y0144101D01*
X0046983Y0144187D01*
X0047076Y0144270D01*
X0047172Y0144351D01*
X0047270Y0144428D01*
X0047370Y0144502D01*
X0047473Y0144573D01*
X0047578Y0144640D01*
X0047686Y0144705D01*
X0047795Y0144765D01*
X0047906Y0144823D01*
X0048019Y0144876D01*
X0048133Y0144926D01*
X0048249Y0144973D01*
X0048366Y0145015D01*
X0048485Y0145054D01*
X0048605Y0145090D01*
X0048726Y0145121D01*
X0048848Y0145149D01*
X0048970Y0145172D01*
X0049094Y0145192D01*
X0049218Y0145208D01*
X0049342Y0145220D01*
X0049467Y0145228D01*
X0049592Y0145232D01*
X0049716Y0145232D01*
X0049841Y0145228D01*
X0049966Y0145220D01*
X0050090Y0145208D01*
X0050214Y0145192D01*
X0050338Y0145172D01*
X0050460Y0145149D01*
X0050582Y0145121D01*
X0050703Y0145090D01*
X0050823Y0145054D01*
X0050942Y0145015D01*
X0051059Y0144973D01*
X0051175Y0144926D01*
X0051289Y0144876D01*
X0051402Y0144823D01*
X0051513Y0144765D01*
X0051623Y0144705D01*
X0051730Y0144640D01*
X0051835Y0144573D01*
X0051938Y0144502D01*
X0052038Y0144428D01*
X0052136Y0144351D01*
X0052232Y0144270D01*
X0052325Y0144187D01*
X0052416Y0144101D01*
X0052503Y0144012D01*
X0052588Y0143920D01*
X0052670Y0143826D01*
X0052749Y0143729D01*
X0052824Y0143629D01*
X0052897Y0143528D01*
X0052966Y0143424D01*
X0053032Y0143317D01*
X0053094Y0143209D01*
X0053153Y0143099D01*
X0053209Y0142987D01*
X0053261Y0142873D01*
X0053309Y0142758D01*
X0053354Y0142642D01*
X0053394Y0142523D01*
X0053432Y0142404D01*
X0053465Y0142284D01*
X0053494Y0142162D01*
X0053520Y0142040D01*
X0053542Y0141917D01*
X0053559Y0141793D01*
X0053573Y0141669D01*
X0053583Y0141545D01*
X0053589Y0141420D01*
X0053591Y0141295D01*
X0053589Y0141170D01*
X0053583Y0141045D01*
X0053573Y0140921D01*
X0053559Y0140797D01*
X0053542Y0140673D01*
X0053520Y0140550D01*
X0053494Y0140428D01*
X0053465Y0140306D01*
X0053432Y0140186D01*
X0053394Y0140067D01*
X0053354Y0139948D01*
X0053309Y0139832D01*
X0053261Y0139717D01*
X0053209Y0139603D01*
X0053153Y0139491D01*
X0053094Y0139381D01*
X0053032Y0139273D01*
X0052966Y0139166D01*
X0052897Y0139062D01*
X0052824Y0138961D01*
X0052749Y0138861D01*
X0052670Y0138764D01*
X0052588Y0138670D01*
X0052503Y0138578D01*
X0052416Y0138489D01*
X0052325Y0138403D01*
X0052232Y0138320D01*
X0052136Y0138239D01*
X0052038Y0138162D01*
X0051938Y0138088D01*
X0051835Y0138017D01*
X0051730Y0137950D01*
X0051622Y0137885D01*
X0051513Y0137825D01*
X0051402Y0137767D01*
X0051289Y0137714D01*
X0051175Y0137664D01*
X0051059Y0137617D01*
X0050942Y0137575D01*
X0050823Y0137536D01*
X0050703Y0137500D01*
X0050582Y0137469D01*
X0050460Y0137441D01*
X0050338Y0137418D01*
X0050214Y0137398D01*
X0050090Y0137382D01*
X0049966Y0137370D01*
X0049841Y0137362D01*
X0049716Y0137358D01*
X0049592Y0137358D01*
X0049467Y0137362D01*
X0049342Y0137370D01*
X0049218Y0137382D01*
X0049094Y0137398D01*
X0048970Y0137418D01*
X0048848Y0137441D01*
X0048726Y0137469D01*
X0048605Y0137500D01*
X0048485Y0137536D01*
X0048366Y0137575D01*
X0048249Y0137617D01*
X0048133Y0137664D01*
X0048019Y0137714D01*
X0047906Y0137767D01*
X0047795Y0137825D01*
X0047685Y0137885D01*
X0047578Y0137950D01*
X0047473Y0138017D01*
X0047370Y0138088D01*
X0047270Y0138162D01*
X0047172Y0138239D01*
X0047076Y0138320D01*
X0046983Y0138403D01*
X0046892Y0138489D01*
X0046805Y0138578D01*
X0046720Y0138670D01*
X0046638Y0138764D01*
X0046559Y0138861D01*
X0046484Y0138961D01*
X0046411Y0139062D01*
X0046342Y0139166D01*
X0046276Y0139273D01*
X0046214Y0139381D01*
X0046155Y0139491D01*
X0046099Y0139603D01*
X0046047Y0139717D01*
X0045999Y0139832D01*
X0045954Y0139948D01*
X0045914Y0140067D01*
X0045876Y0140186D01*
X0045843Y0140306D01*
X0045814Y0140428D01*
X0045788Y0140550D01*
X0045766Y0140673D01*
X0045749Y0140797D01*
X0045735Y0140921D01*
X0045725Y0141045D01*
X0045719Y0141170D01*
X0045717Y0141295D01*
X0014220Y0109799D02*
X0014222Y0109924D01*
X0014228Y0110049D01*
X0014238Y0110173D01*
X0014252Y0110297D01*
X0014269Y0110421D01*
X0014291Y0110544D01*
X0014317Y0110666D01*
X0014346Y0110788D01*
X0014379Y0110908D01*
X0014417Y0111027D01*
X0014457Y0111146D01*
X0014502Y0111262D01*
X0014550Y0111377D01*
X0014602Y0111491D01*
X0014658Y0111603D01*
X0014717Y0111713D01*
X0014779Y0111821D01*
X0014845Y0111928D01*
X0014914Y0112032D01*
X0014987Y0112133D01*
X0015062Y0112233D01*
X0015141Y0112330D01*
X0015223Y0112424D01*
X0015308Y0112516D01*
X0015395Y0112605D01*
X0015486Y0112691D01*
X0015579Y0112774D01*
X0015675Y0112855D01*
X0015773Y0112932D01*
X0015873Y0113006D01*
X0015976Y0113077D01*
X0016081Y0113144D01*
X0016189Y0113209D01*
X0016298Y0113269D01*
X0016409Y0113327D01*
X0016522Y0113380D01*
X0016636Y0113430D01*
X0016752Y0113477D01*
X0016869Y0113519D01*
X0016988Y0113558D01*
X0017108Y0113594D01*
X0017229Y0113625D01*
X0017351Y0113653D01*
X0017473Y0113676D01*
X0017597Y0113696D01*
X0017721Y0113712D01*
X0017845Y0113724D01*
X0017970Y0113732D01*
X0018095Y0113736D01*
X0018219Y0113736D01*
X0018344Y0113732D01*
X0018469Y0113724D01*
X0018593Y0113712D01*
X0018717Y0113696D01*
X0018841Y0113676D01*
X0018963Y0113653D01*
X0019085Y0113625D01*
X0019206Y0113594D01*
X0019326Y0113558D01*
X0019445Y0113519D01*
X0019562Y0113477D01*
X0019678Y0113430D01*
X0019792Y0113380D01*
X0019905Y0113327D01*
X0020016Y0113269D01*
X0020126Y0113209D01*
X0020233Y0113144D01*
X0020338Y0113077D01*
X0020441Y0113006D01*
X0020541Y0112932D01*
X0020639Y0112855D01*
X0020735Y0112774D01*
X0020828Y0112691D01*
X0020919Y0112605D01*
X0021006Y0112516D01*
X0021091Y0112424D01*
X0021173Y0112330D01*
X0021252Y0112233D01*
X0021327Y0112133D01*
X0021400Y0112032D01*
X0021469Y0111928D01*
X0021535Y0111821D01*
X0021597Y0111713D01*
X0021656Y0111603D01*
X0021712Y0111491D01*
X0021764Y0111377D01*
X0021812Y0111262D01*
X0021857Y0111146D01*
X0021897Y0111027D01*
X0021935Y0110908D01*
X0021968Y0110788D01*
X0021997Y0110666D01*
X0022023Y0110544D01*
X0022045Y0110421D01*
X0022062Y0110297D01*
X0022076Y0110173D01*
X0022086Y0110049D01*
X0022092Y0109924D01*
X0022094Y0109799D01*
X0022092Y0109674D01*
X0022086Y0109549D01*
X0022076Y0109425D01*
X0022062Y0109301D01*
X0022045Y0109177D01*
X0022023Y0109054D01*
X0021997Y0108932D01*
X0021968Y0108810D01*
X0021935Y0108690D01*
X0021897Y0108571D01*
X0021857Y0108452D01*
X0021812Y0108336D01*
X0021764Y0108221D01*
X0021712Y0108107D01*
X0021656Y0107995D01*
X0021597Y0107885D01*
X0021535Y0107777D01*
X0021469Y0107670D01*
X0021400Y0107566D01*
X0021327Y0107465D01*
X0021252Y0107365D01*
X0021173Y0107268D01*
X0021091Y0107174D01*
X0021006Y0107082D01*
X0020919Y0106993D01*
X0020828Y0106907D01*
X0020735Y0106824D01*
X0020639Y0106743D01*
X0020541Y0106666D01*
X0020441Y0106592D01*
X0020338Y0106521D01*
X0020233Y0106454D01*
X0020125Y0106389D01*
X0020016Y0106329D01*
X0019905Y0106271D01*
X0019792Y0106218D01*
X0019678Y0106168D01*
X0019562Y0106121D01*
X0019445Y0106079D01*
X0019326Y0106040D01*
X0019206Y0106004D01*
X0019085Y0105973D01*
X0018963Y0105945D01*
X0018841Y0105922D01*
X0018717Y0105902D01*
X0018593Y0105886D01*
X0018469Y0105874D01*
X0018344Y0105866D01*
X0018219Y0105862D01*
X0018095Y0105862D01*
X0017970Y0105866D01*
X0017845Y0105874D01*
X0017721Y0105886D01*
X0017597Y0105902D01*
X0017473Y0105922D01*
X0017351Y0105945D01*
X0017229Y0105973D01*
X0017108Y0106004D01*
X0016988Y0106040D01*
X0016869Y0106079D01*
X0016752Y0106121D01*
X0016636Y0106168D01*
X0016522Y0106218D01*
X0016409Y0106271D01*
X0016298Y0106329D01*
X0016188Y0106389D01*
X0016081Y0106454D01*
X0015976Y0106521D01*
X0015873Y0106592D01*
X0015773Y0106666D01*
X0015675Y0106743D01*
X0015579Y0106824D01*
X0015486Y0106907D01*
X0015395Y0106993D01*
X0015308Y0107082D01*
X0015223Y0107174D01*
X0015141Y0107268D01*
X0015062Y0107365D01*
X0014987Y0107465D01*
X0014914Y0107566D01*
X0014845Y0107670D01*
X0014779Y0107777D01*
X0014717Y0107885D01*
X0014658Y0107995D01*
X0014602Y0108107D01*
X0014550Y0108221D01*
X0014502Y0108336D01*
X0014457Y0108452D01*
X0014417Y0108571D01*
X0014379Y0108690D01*
X0014346Y0108810D01*
X0014317Y0108932D01*
X0014291Y0109054D01*
X0014269Y0109177D01*
X0014252Y0109301D01*
X0014238Y0109425D01*
X0014228Y0109549D01*
X0014222Y0109674D01*
X0014220Y0109799D01*
X0045717Y0074366D02*
X0045719Y0074491D01*
X0045725Y0074616D01*
X0045735Y0074740D01*
X0045749Y0074864D01*
X0045766Y0074988D01*
X0045788Y0075111D01*
X0045814Y0075233D01*
X0045843Y0075355D01*
X0045876Y0075475D01*
X0045914Y0075594D01*
X0045954Y0075713D01*
X0045999Y0075829D01*
X0046047Y0075944D01*
X0046099Y0076058D01*
X0046155Y0076170D01*
X0046214Y0076280D01*
X0046276Y0076388D01*
X0046342Y0076495D01*
X0046411Y0076599D01*
X0046484Y0076700D01*
X0046559Y0076800D01*
X0046638Y0076897D01*
X0046720Y0076991D01*
X0046805Y0077083D01*
X0046892Y0077172D01*
X0046983Y0077258D01*
X0047076Y0077341D01*
X0047172Y0077422D01*
X0047270Y0077499D01*
X0047370Y0077573D01*
X0047473Y0077644D01*
X0047578Y0077711D01*
X0047686Y0077776D01*
X0047795Y0077836D01*
X0047906Y0077894D01*
X0048019Y0077947D01*
X0048133Y0077997D01*
X0048249Y0078044D01*
X0048366Y0078086D01*
X0048485Y0078125D01*
X0048605Y0078161D01*
X0048726Y0078192D01*
X0048848Y0078220D01*
X0048970Y0078243D01*
X0049094Y0078263D01*
X0049218Y0078279D01*
X0049342Y0078291D01*
X0049467Y0078299D01*
X0049592Y0078303D01*
X0049716Y0078303D01*
X0049841Y0078299D01*
X0049966Y0078291D01*
X0050090Y0078279D01*
X0050214Y0078263D01*
X0050338Y0078243D01*
X0050460Y0078220D01*
X0050582Y0078192D01*
X0050703Y0078161D01*
X0050823Y0078125D01*
X0050942Y0078086D01*
X0051059Y0078044D01*
X0051175Y0077997D01*
X0051289Y0077947D01*
X0051402Y0077894D01*
X0051513Y0077836D01*
X0051623Y0077776D01*
X0051730Y0077711D01*
X0051835Y0077644D01*
X0051938Y0077573D01*
X0052038Y0077499D01*
X0052136Y0077422D01*
X0052232Y0077341D01*
X0052325Y0077258D01*
X0052416Y0077172D01*
X0052503Y0077083D01*
X0052588Y0076991D01*
X0052670Y0076897D01*
X0052749Y0076800D01*
X0052824Y0076700D01*
X0052897Y0076599D01*
X0052966Y0076495D01*
X0053032Y0076388D01*
X0053094Y0076280D01*
X0053153Y0076170D01*
X0053209Y0076058D01*
X0053261Y0075944D01*
X0053309Y0075829D01*
X0053354Y0075713D01*
X0053394Y0075594D01*
X0053432Y0075475D01*
X0053465Y0075355D01*
X0053494Y0075233D01*
X0053520Y0075111D01*
X0053542Y0074988D01*
X0053559Y0074864D01*
X0053573Y0074740D01*
X0053583Y0074616D01*
X0053589Y0074491D01*
X0053591Y0074366D01*
X0053589Y0074241D01*
X0053583Y0074116D01*
X0053573Y0073992D01*
X0053559Y0073868D01*
X0053542Y0073744D01*
X0053520Y0073621D01*
X0053494Y0073499D01*
X0053465Y0073377D01*
X0053432Y0073257D01*
X0053394Y0073138D01*
X0053354Y0073019D01*
X0053309Y0072903D01*
X0053261Y0072788D01*
X0053209Y0072674D01*
X0053153Y0072562D01*
X0053094Y0072452D01*
X0053032Y0072344D01*
X0052966Y0072237D01*
X0052897Y0072133D01*
X0052824Y0072032D01*
X0052749Y0071932D01*
X0052670Y0071835D01*
X0052588Y0071741D01*
X0052503Y0071649D01*
X0052416Y0071560D01*
X0052325Y0071474D01*
X0052232Y0071391D01*
X0052136Y0071310D01*
X0052038Y0071233D01*
X0051938Y0071159D01*
X0051835Y0071088D01*
X0051730Y0071021D01*
X0051622Y0070956D01*
X0051513Y0070896D01*
X0051402Y0070838D01*
X0051289Y0070785D01*
X0051175Y0070735D01*
X0051059Y0070688D01*
X0050942Y0070646D01*
X0050823Y0070607D01*
X0050703Y0070571D01*
X0050582Y0070540D01*
X0050460Y0070512D01*
X0050338Y0070489D01*
X0050214Y0070469D01*
X0050090Y0070453D01*
X0049966Y0070441D01*
X0049841Y0070433D01*
X0049716Y0070429D01*
X0049592Y0070429D01*
X0049467Y0070433D01*
X0049342Y0070441D01*
X0049218Y0070453D01*
X0049094Y0070469D01*
X0048970Y0070489D01*
X0048848Y0070512D01*
X0048726Y0070540D01*
X0048605Y0070571D01*
X0048485Y0070607D01*
X0048366Y0070646D01*
X0048249Y0070688D01*
X0048133Y0070735D01*
X0048019Y0070785D01*
X0047906Y0070838D01*
X0047795Y0070896D01*
X0047685Y0070956D01*
X0047578Y0071021D01*
X0047473Y0071088D01*
X0047370Y0071159D01*
X0047270Y0071233D01*
X0047172Y0071310D01*
X0047076Y0071391D01*
X0046983Y0071474D01*
X0046892Y0071560D01*
X0046805Y0071649D01*
X0046720Y0071741D01*
X0046638Y0071835D01*
X0046559Y0071932D01*
X0046484Y0072032D01*
X0046411Y0072133D01*
X0046342Y0072237D01*
X0046276Y0072344D01*
X0046214Y0072452D01*
X0046155Y0072562D01*
X0046099Y0072674D01*
X0046047Y0072788D01*
X0045999Y0072903D01*
X0045954Y0073019D01*
X0045914Y0073138D01*
X0045876Y0073257D01*
X0045843Y0073377D01*
X0045814Y0073499D01*
X0045788Y0073621D01*
X0045766Y0073744D01*
X0045749Y0073868D01*
X0045735Y0073992D01*
X0045725Y0074116D01*
X0045719Y0074241D01*
X0045717Y0074366D01*
X0077213Y0109799D02*
X0077215Y0109924D01*
X0077221Y0110049D01*
X0077231Y0110173D01*
X0077245Y0110297D01*
X0077262Y0110421D01*
X0077284Y0110544D01*
X0077310Y0110666D01*
X0077339Y0110788D01*
X0077372Y0110908D01*
X0077410Y0111027D01*
X0077450Y0111146D01*
X0077495Y0111262D01*
X0077543Y0111377D01*
X0077595Y0111491D01*
X0077651Y0111603D01*
X0077710Y0111713D01*
X0077772Y0111821D01*
X0077838Y0111928D01*
X0077907Y0112032D01*
X0077980Y0112133D01*
X0078055Y0112233D01*
X0078134Y0112330D01*
X0078216Y0112424D01*
X0078301Y0112516D01*
X0078388Y0112605D01*
X0078479Y0112691D01*
X0078572Y0112774D01*
X0078668Y0112855D01*
X0078766Y0112932D01*
X0078866Y0113006D01*
X0078969Y0113077D01*
X0079074Y0113144D01*
X0079182Y0113209D01*
X0079291Y0113269D01*
X0079402Y0113327D01*
X0079515Y0113380D01*
X0079629Y0113430D01*
X0079745Y0113477D01*
X0079862Y0113519D01*
X0079981Y0113558D01*
X0080101Y0113594D01*
X0080222Y0113625D01*
X0080344Y0113653D01*
X0080466Y0113676D01*
X0080590Y0113696D01*
X0080714Y0113712D01*
X0080838Y0113724D01*
X0080963Y0113732D01*
X0081088Y0113736D01*
X0081212Y0113736D01*
X0081337Y0113732D01*
X0081462Y0113724D01*
X0081586Y0113712D01*
X0081710Y0113696D01*
X0081834Y0113676D01*
X0081956Y0113653D01*
X0082078Y0113625D01*
X0082199Y0113594D01*
X0082319Y0113558D01*
X0082438Y0113519D01*
X0082555Y0113477D01*
X0082671Y0113430D01*
X0082785Y0113380D01*
X0082898Y0113327D01*
X0083009Y0113269D01*
X0083119Y0113209D01*
X0083226Y0113144D01*
X0083331Y0113077D01*
X0083434Y0113006D01*
X0083534Y0112932D01*
X0083632Y0112855D01*
X0083728Y0112774D01*
X0083821Y0112691D01*
X0083912Y0112605D01*
X0083999Y0112516D01*
X0084084Y0112424D01*
X0084166Y0112330D01*
X0084245Y0112233D01*
X0084320Y0112133D01*
X0084393Y0112032D01*
X0084462Y0111928D01*
X0084528Y0111821D01*
X0084590Y0111713D01*
X0084649Y0111603D01*
X0084705Y0111491D01*
X0084757Y0111377D01*
X0084805Y0111262D01*
X0084850Y0111146D01*
X0084890Y0111027D01*
X0084928Y0110908D01*
X0084961Y0110788D01*
X0084990Y0110666D01*
X0085016Y0110544D01*
X0085038Y0110421D01*
X0085055Y0110297D01*
X0085069Y0110173D01*
X0085079Y0110049D01*
X0085085Y0109924D01*
X0085087Y0109799D01*
X0085085Y0109674D01*
X0085079Y0109549D01*
X0085069Y0109425D01*
X0085055Y0109301D01*
X0085038Y0109177D01*
X0085016Y0109054D01*
X0084990Y0108932D01*
X0084961Y0108810D01*
X0084928Y0108690D01*
X0084890Y0108571D01*
X0084850Y0108452D01*
X0084805Y0108336D01*
X0084757Y0108221D01*
X0084705Y0108107D01*
X0084649Y0107995D01*
X0084590Y0107885D01*
X0084528Y0107777D01*
X0084462Y0107670D01*
X0084393Y0107566D01*
X0084320Y0107465D01*
X0084245Y0107365D01*
X0084166Y0107268D01*
X0084084Y0107174D01*
X0083999Y0107082D01*
X0083912Y0106993D01*
X0083821Y0106907D01*
X0083728Y0106824D01*
X0083632Y0106743D01*
X0083534Y0106666D01*
X0083434Y0106592D01*
X0083331Y0106521D01*
X0083226Y0106454D01*
X0083118Y0106389D01*
X0083009Y0106329D01*
X0082898Y0106271D01*
X0082785Y0106218D01*
X0082671Y0106168D01*
X0082555Y0106121D01*
X0082438Y0106079D01*
X0082319Y0106040D01*
X0082199Y0106004D01*
X0082078Y0105973D01*
X0081956Y0105945D01*
X0081834Y0105922D01*
X0081710Y0105902D01*
X0081586Y0105886D01*
X0081462Y0105874D01*
X0081337Y0105866D01*
X0081212Y0105862D01*
X0081088Y0105862D01*
X0080963Y0105866D01*
X0080838Y0105874D01*
X0080714Y0105886D01*
X0080590Y0105902D01*
X0080466Y0105922D01*
X0080344Y0105945D01*
X0080222Y0105973D01*
X0080101Y0106004D01*
X0079981Y0106040D01*
X0079862Y0106079D01*
X0079745Y0106121D01*
X0079629Y0106168D01*
X0079515Y0106218D01*
X0079402Y0106271D01*
X0079291Y0106329D01*
X0079181Y0106389D01*
X0079074Y0106454D01*
X0078969Y0106521D01*
X0078866Y0106592D01*
X0078766Y0106666D01*
X0078668Y0106743D01*
X0078572Y0106824D01*
X0078479Y0106907D01*
X0078388Y0106993D01*
X0078301Y0107082D01*
X0078216Y0107174D01*
X0078134Y0107268D01*
X0078055Y0107365D01*
X0077980Y0107465D01*
X0077907Y0107566D01*
X0077838Y0107670D01*
X0077772Y0107777D01*
X0077710Y0107885D01*
X0077651Y0107995D01*
X0077595Y0108107D01*
X0077543Y0108221D01*
X0077495Y0108336D01*
X0077450Y0108452D01*
X0077410Y0108571D01*
X0077372Y0108690D01*
X0077339Y0108810D01*
X0077310Y0108932D01*
X0077284Y0109054D01*
X0077262Y0109177D01*
X0077245Y0109301D01*
X0077231Y0109425D01*
X0077221Y0109549D01*
X0077215Y0109674D01*
X0077213Y0109799D01*
X0161071Y0149169D02*
X0161073Y0149294D01*
X0161079Y0149419D01*
X0161089Y0149543D01*
X0161103Y0149667D01*
X0161120Y0149791D01*
X0161142Y0149914D01*
X0161168Y0150036D01*
X0161197Y0150158D01*
X0161230Y0150278D01*
X0161268Y0150397D01*
X0161308Y0150516D01*
X0161353Y0150632D01*
X0161401Y0150747D01*
X0161453Y0150861D01*
X0161509Y0150973D01*
X0161568Y0151083D01*
X0161630Y0151191D01*
X0161696Y0151298D01*
X0161765Y0151402D01*
X0161838Y0151503D01*
X0161913Y0151603D01*
X0161992Y0151700D01*
X0162074Y0151794D01*
X0162159Y0151886D01*
X0162246Y0151975D01*
X0162337Y0152061D01*
X0162430Y0152144D01*
X0162526Y0152225D01*
X0162624Y0152302D01*
X0162724Y0152376D01*
X0162827Y0152447D01*
X0162932Y0152514D01*
X0163040Y0152579D01*
X0163149Y0152639D01*
X0163260Y0152697D01*
X0163373Y0152750D01*
X0163487Y0152800D01*
X0163603Y0152847D01*
X0163720Y0152889D01*
X0163839Y0152928D01*
X0163959Y0152964D01*
X0164080Y0152995D01*
X0164202Y0153023D01*
X0164324Y0153046D01*
X0164448Y0153066D01*
X0164572Y0153082D01*
X0164696Y0153094D01*
X0164821Y0153102D01*
X0164946Y0153106D01*
X0165070Y0153106D01*
X0165195Y0153102D01*
X0165320Y0153094D01*
X0165444Y0153082D01*
X0165568Y0153066D01*
X0165692Y0153046D01*
X0165814Y0153023D01*
X0165936Y0152995D01*
X0166057Y0152964D01*
X0166177Y0152928D01*
X0166296Y0152889D01*
X0166413Y0152847D01*
X0166529Y0152800D01*
X0166643Y0152750D01*
X0166756Y0152697D01*
X0166867Y0152639D01*
X0166977Y0152579D01*
X0167084Y0152514D01*
X0167189Y0152447D01*
X0167292Y0152376D01*
X0167392Y0152302D01*
X0167490Y0152225D01*
X0167586Y0152144D01*
X0167679Y0152061D01*
X0167770Y0151975D01*
X0167857Y0151886D01*
X0167942Y0151794D01*
X0168024Y0151700D01*
X0168103Y0151603D01*
X0168178Y0151503D01*
X0168251Y0151402D01*
X0168320Y0151298D01*
X0168386Y0151191D01*
X0168448Y0151083D01*
X0168507Y0150973D01*
X0168563Y0150861D01*
X0168615Y0150747D01*
X0168663Y0150632D01*
X0168708Y0150516D01*
X0168748Y0150397D01*
X0168786Y0150278D01*
X0168819Y0150158D01*
X0168848Y0150036D01*
X0168874Y0149914D01*
X0168896Y0149791D01*
X0168913Y0149667D01*
X0168927Y0149543D01*
X0168937Y0149419D01*
X0168943Y0149294D01*
X0168945Y0149169D01*
X0168943Y0149044D01*
X0168937Y0148919D01*
X0168927Y0148795D01*
X0168913Y0148671D01*
X0168896Y0148547D01*
X0168874Y0148424D01*
X0168848Y0148302D01*
X0168819Y0148180D01*
X0168786Y0148060D01*
X0168748Y0147941D01*
X0168708Y0147822D01*
X0168663Y0147706D01*
X0168615Y0147591D01*
X0168563Y0147477D01*
X0168507Y0147365D01*
X0168448Y0147255D01*
X0168386Y0147147D01*
X0168320Y0147040D01*
X0168251Y0146936D01*
X0168178Y0146835D01*
X0168103Y0146735D01*
X0168024Y0146638D01*
X0167942Y0146544D01*
X0167857Y0146452D01*
X0167770Y0146363D01*
X0167679Y0146277D01*
X0167586Y0146194D01*
X0167490Y0146113D01*
X0167392Y0146036D01*
X0167292Y0145962D01*
X0167189Y0145891D01*
X0167084Y0145824D01*
X0166976Y0145759D01*
X0166867Y0145699D01*
X0166756Y0145641D01*
X0166643Y0145588D01*
X0166529Y0145538D01*
X0166413Y0145491D01*
X0166296Y0145449D01*
X0166177Y0145410D01*
X0166057Y0145374D01*
X0165936Y0145343D01*
X0165814Y0145315D01*
X0165692Y0145292D01*
X0165568Y0145272D01*
X0165444Y0145256D01*
X0165320Y0145244D01*
X0165195Y0145236D01*
X0165070Y0145232D01*
X0164946Y0145232D01*
X0164821Y0145236D01*
X0164696Y0145244D01*
X0164572Y0145256D01*
X0164448Y0145272D01*
X0164324Y0145292D01*
X0164202Y0145315D01*
X0164080Y0145343D01*
X0163959Y0145374D01*
X0163839Y0145410D01*
X0163720Y0145449D01*
X0163603Y0145491D01*
X0163487Y0145538D01*
X0163373Y0145588D01*
X0163260Y0145641D01*
X0163149Y0145699D01*
X0163039Y0145759D01*
X0162932Y0145824D01*
X0162827Y0145891D01*
X0162724Y0145962D01*
X0162624Y0146036D01*
X0162526Y0146113D01*
X0162430Y0146194D01*
X0162337Y0146277D01*
X0162246Y0146363D01*
X0162159Y0146452D01*
X0162074Y0146544D01*
X0161992Y0146638D01*
X0161913Y0146735D01*
X0161838Y0146835D01*
X0161765Y0146936D01*
X0161696Y0147040D01*
X0161630Y0147147D01*
X0161568Y0147255D01*
X0161509Y0147365D01*
X0161453Y0147477D01*
X0161401Y0147591D01*
X0161353Y0147706D01*
X0161308Y0147822D01*
X0161268Y0147941D01*
X0161230Y0148060D01*
X0161197Y0148180D01*
X0161168Y0148302D01*
X0161142Y0148424D01*
X0161120Y0148547D01*
X0161103Y0148671D01*
X0161089Y0148795D01*
X0161079Y0148919D01*
X0161073Y0149044D01*
X0161071Y0149169D01*
X0215008Y0168854D02*
X0215010Y0168979D01*
X0215016Y0169104D01*
X0215026Y0169228D01*
X0215040Y0169352D01*
X0215057Y0169476D01*
X0215079Y0169599D01*
X0215105Y0169721D01*
X0215134Y0169843D01*
X0215167Y0169963D01*
X0215205Y0170082D01*
X0215245Y0170201D01*
X0215290Y0170317D01*
X0215338Y0170432D01*
X0215390Y0170546D01*
X0215446Y0170658D01*
X0215505Y0170768D01*
X0215567Y0170876D01*
X0215633Y0170983D01*
X0215702Y0171087D01*
X0215775Y0171188D01*
X0215850Y0171288D01*
X0215929Y0171385D01*
X0216011Y0171479D01*
X0216096Y0171571D01*
X0216183Y0171660D01*
X0216274Y0171746D01*
X0216367Y0171829D01*
X0216463Y0171910D01*
X0216561Y0171987D01*
X0216661Y0172061D01*
X0216764Y0172132D01*
X0216869Y0172199D01*
X0216977Y0172264D01*
X0217086Y0172324D01*
X0217197Y0172382D01*
X0217310Y0172435D01*
X0217424Y0172485D01*
X0217540Y0172532D01*
X0217657Y0172574D01*
X0217776Y0172613D01*
X0217896Y0172649D01*
X0218017Y0172680D01*
X0218139Y0172708D01*
X0218261Y0172731D01*
X0218385Y0172751D01*
X0218509Y0172767D01*
X0218633Y0172779D01*
X0218758Y0172787D01*
X0218883Y0172791D01*
X0219007Y0172791D01*
X0219132Y0172787D01*
X0219257Y0172779D01*
X0219381Y0172767D01*
X0219505Y0172751D01*
X0219629Y0172731D01*
X0219751Y0172708D01*
X0219873Y0172680D01*
X0219994Y0172649D01*
X0220114Y0172613D01*
X0220233Y0172574D01*
X0220350Y0172532D01*
X0220466Y0172485D01*
X0220580Y0172435D01*
X0220693Y0172382D01*
X0220804Y0172324D01*
X0220914Y0172264D01*
X0221021Y0172199D01*
X0221126Y0172132D01*
X0221229Y0172061D01*
X0221329Y0171987D01*
X0221427Y0171910D01*
X0221523Y0171829D01*
X0221616Y0171746D01*
X0221707Y0171660D01*
X0221794Y0171571D01*
X0221879Y0171479D01*
X0221961Y0171385D01*
X0222040Y0171288D01*
X0222115Y0171188D01*
X0222188Y0171087D01*
X0222257Y0170983D01*
X0222323Y0170876D01*
X0222385Y0170768D01*
X0222444Y0170658D01*
X0222500Y0170546D01*
X0222552Y0170432D01*
X0222600Y0170317D01*
X0222645Y0170201D01*
X0222685Y0170082D01*
X0222723Y0169963D01*
X0222756Y0169843D01*
X0222785Y0169721D01*
X0222811Y0169599D01*
X0222833Y0169476D01*
X0222850Y0169352D01*
X0222864Y0169228D01*
X0222874Y0169104D01*
X0222880Y0168979D01*
X0222882Y0168854D01*
X0222880Y0168729D01*
X0222874Y0168604D01*
X0222864Y0168480D01*
X0222850Y0168356D01*
X0222833Y0168232D01*
X0222811Y0168109D01*
X0222785Y0167987D01*
X0222756Y0167865D01*
X0222723Y0167745D01*
X0222685Y0167626D01*
X0222645Y0167507D01*
X0222600Y0167391D01*
X0222552Y0167276D01*
X0222500Y0167162D01*
X0222444Y0167050D01*
X0222385Y0166940D01*
X0222323Y0166832D01*
X0222257Y0166725D01*
X0222188Y0166621D01*
X0222115Y0166520D01*
X0222040Y0166420D01*
X0221961Y0166323D01*
X0221879Y0166229D01*
X0221794Y0166137D01*
X0221707Y0166048D01*
X0221616Y0165962D01*
X0221523Y0165879D01*
X0221427Y0165798D01*
X0221329Y0165721D01*
X0221229Y0165647D01*
X0221126Y0165576D01*
X0221021Y0165509D01*
X0220913Y0165444D01*
X0220804Y0165384D01*
X0220693Y0165326D01*
X0220580Y0165273D01*
X0220466Y0165223D01*
X0220350Y0165176D01*
X0220233Y0165134D01*
X0220114Y0165095D01*
X0219994Y0165059D01*
X0219873Y0165028D01*
X0219751Y0165000D01*
X0219629Y0164977D01*
X0219505Y0164957D01*
X0219381Y0164941D01*
X0219257Y0164929D01*
X0219132Y0164921D01*
X0219007Y0164917D01*
X0218883Y0164917D01*
X0218758Y0164921D01*
X0218633Y0164929D01*
X0218509Y0164941D01*
X0218385Y0164957D01*
X0218261Y0164977D01*
X0218139Y0165000D01*
X0218017Y0165028D01*
X0217896Y0165059D01*
X0217776Y0165095D01*
X0217657Y0165134D01*
X0217540Y0165176D01*
X0217424Y0165223D01*
X0217310Y0165273D01*
X0217197Y0165326D01*
X0217086Y0165384D01*
X0216976Y0165444D01*
X0216869Y0165509D01*
X0216764Y0165576D01*
X0216661Y0165647D01*
X0216561Y0165721D01*
X0216463Y0165798D01*
X0216367Y0165879D01*
X0216274Y0165962D01*
X0216183Y0166048D01*
X0216096Y0166137D01*
X0216011Y0166229D01*
X0215929Y0166323D01*
X0215850Y0166420D01*
X0215775Y0166520D01*
X0215702Y0166621D01*
X0215633Y0166725D01*
X0215567Y0166832D01*
X0215505Y0166940D01*
X0215446Y0167050D01*
X0215390Y0167162D01*
X0215338Y0167276D01*
X0215290Y0167391D01*
X0215245Y0167507D01*
X0215205Y0167626D01*
X0215167Y0167745D01*
X0215134Y0167865D01*
X0215105Y0167987D01*
X0215079Y0168109D01*
X0215057Y0168232D01*
X0215040Y0168356D01*
X0215026Y0168480D01*
X0215016Y0168604D01*
X0215010Y0168729D01*
X0215008Y0168854D01*
X0246504Y0117673D02*
X0246506Y0117798D01*
X0246512Y0117923D01*
X0246522Y0118047D01*
X0246536Y0118171D01*
X0246553Y0118295D01*
X0246575Y0118418D01*
X0246601Y0118540D01*
X0246630Y0118662D01*
X0246663Y0118782D01*
X0246701Y0118901D01*
X0246741Y0119020D01*
X0246786Y0119136D01*
X0246834Y0119251D01*
X0246886Y0119365D01*
X0246942Y0119477D01*
X0247001Y0119587D01*
X0247063Y0119695D01*
X0247129Y0119802D01*
X0247198Y0119906D01*
X0247271Y0120007D01*
X0247346Y0120107D01*
X0247425Y0120204D01*
X0247507Y0120298D01*
X0247592Y0120390D01*
X0247679Y0120479D01*
X0247770Y0120565D01*
X0247863Y0120648D01*
X0247959Y0120729D01*
X0248057Y0120806D01*
X0248157Y0120880D01*
X0248260Y0120951D01*
X0248365Y0121018D01*
X0248473Y0121083D01*
X0248582Y0121143D01*
X0248693Y0121201D01*
X0248806Y0121254D01*
X0248920Y0121304D01*
X0249036Y0121351D01*
X0249153Y0121393D01*
X0249272Y0121432D01*
X0249392Y0121468D01*
X0249513Y0121499D01*
X0249635Y0121527D01*
X0249757Y0121550D01*
X0249881Y0121570D01*
X0250005Y0121586D01*
X0250129Y0121598D01*
X0250254Y0121606D01*
X0250379Y0121610D01*
X0250503Y0121610D01*
X0250628Y0121606D01*
X0250753Y0121598D01*
X0250877Y0121586D01*
X0251001Y0121570D01*
X0251125Y0121550D01*
X0251247Y0121527D01*
X0251369Y0121499D01*
X0251490Y0121468D01*
X0251610Y0121432D01*
X0251729Y0121393D01*
X0251846Y0121351D01*
X0251962Y0121304D01*
X0252076Y0121254D01*
X0252189Y0121201D01*
X0252300Y0121143D01*
X0252410Y0121083D01*
X0252517Y0121018D01*
X0252622Y0120951D01*
X0252725Y0120880D01*
X0252825Y0120806D01*
X0252923Y0120729D01*
X0253019Y0120648D01*
X0253112Y0120565D01*
X0253203Y0120479D01*
X0253290Y0120390D01*
X0253375Y0120298D01*
X0253457Y0120204D01*
X0253536Y0120107D01*
X0253611Y0120007D01*
X0253684Y0119906D01*
X0253753Y0119802D01*
X0253819Y0119695D01*
X0253881Y0119587D01*
X0253940Y0119477D01*
X0253996Y0119365D01*
X0254048Y0119251D01*
X0254096Y0119136D01*
X0254141Y0119020D01*
X0254181Y0118901D01*
X0254219Y0118782D01*
X0254252Y0118662D01*
X0254281Y0118540D01*
X0254307Y0118418D01*
X0254329Y0118295D01*
X0254346Y0118171D01*
X0254360Y0118047D01*
X0254370Y0117923D01*
X0254376Y0117798D01*
X0254378Y0117673D01*
X0254376Y0117548D01*
X0254370Y0117423D01*
X0254360Y0117299D01*
X0254346Y0117175D01*
X0254329Y0117051D01*
X0254307Y0116928D01*
X0254281Y0116806D01*
X0254252Y0116684D01*
X0254219Y0116564D01*
X0254181Y0116445D01*
X0254141Y0116326D01*
X0254096Y0116210D01*
X0254048Y0116095D01*
X0253996Y0115981D01*
X0253940Y0115869D01*
X0253881Y0115759D01*
X0253819Y0115651D01*
X0253753Y0115544D01*
X0253684Y0115440D01*
X0253611Y0115339D01*
X0253536Y0115239D01*
X0253457Y0115142D01*
X0253375Y0115048D01*
X0253290Y0114956D01*
X0253203Y0114867D01*
X0253112Y0114781D01*
X0253019Y0114698D01*
X0252923Y0114617D01*
X0252825Y0114540D01*
X0252725Y0114466D01*
X0252622Y0114395D01*
X0252517Y0114328D01*
X0252409Y0114263D01*
X0252300Y0114203D01*
X0252189Y0114145D01*
X0252076Y0114092D01*
X0251962Y0114042D01*
X0251846Y0113995D01*
X0251729Y0113953D01*
X0251610Y0113914D01*
X0251490Y0113878D01*
X0251369Y0113847D01*
X0251247Y0113819D01*
X0251125Y0113796D01*
X0251001Y0113776D01*
X0250877Y0113760D01*
X0250753Y0113748D01*
X0250628Y0113740D01*
X0250503Y0113736D01*
X0250379Y0113736D01*
X0250254Y0113740D01*
X0250129Y0113748D01*
X0250005Y0113760D01*
X0249881Y0113776D01*
X0249757Y0113796D01*
X0249635Y0113819D01*
X0249513Y0113847D01*
X0249392Y0113878D01*
X0249272Y0113914D01*
X0249153Y0113953D01*
X0249036Y0113995D01*
X0248920Y0114042D01*
X0248806Y0114092D01*
X0248693Y0114145D01*
X0248582Y0114203D01*
X0248472Y0114263D01*
X0248365Y0114328D01*
X0248260Y0114395D01*
X0248157Y0114466D01*
X0248057Y0114540D01*
X0247959Y0114617D01*
X0247863Y0114698D01*
X0247770Y0114781D01*
X0247679Y0114867D01*
X0247592Y0114956D01*
X0247507Y0115048D01*
X0247425Y0115142D01*
X0247346Y0115239D01*
X0247271Y0115339D01*
X0247198Y0115440D01*
X0247129Y0115544D01*
X0247063Y0115651D01*
X0247001Y0115759D01*
X0246942Y0115869D01*
X0246886Y0115981D01*
X0246834Y0116095D01*
X0246786Y0116210D01*
X0246741Y0116326D01*
X0246701Y0116445D01*
X0246663Y0116564D01*
X0246630Y0116684D01*
X0246601Y0116806D01*
X0246575Y0116928D01*
X0246553Y0117051D01*
X0246536Y0117175D01*
X0246522Y0117299D01*
X0246512Y0117423D01*
X0246506Y0117548D01*
X0246504Y0117673D01*
X0192567Y0097988D02*
X0192569Y0098113D01*
X0192575Y0098238D01*
X0192585Y0098362D01*
X0192599Y0098486D01*
X0192616Y0098610D01*
X0192638Y0098733D01*
X0192664Y0098855D01*
X0192693Y0098977D01*
X0192726Y0099097D01*
X0192764Y0099216D01*
X0192804Y0099335D01*
X0192849Y0099451D01*
X0192897Y0099566D01*
X0192949Y0099680D01*
X0193005Y0099792D01*
X0193064Y0099902D01*
X0193126Y0100010D01*
X0193192Y0100117D01*
X0193261Y0100221D01*
X0193334Y0100322D01*
X0193409Y0100422D01*
X0193488Y0100519D01*
X0193570Y0100613D01*
X0193655Y0100705D01*
X0193742Y0100794D01*
X0193833Y0100880D01*
X0193926Y0100963D01*
X0194022Y0101044D01*
X0194120Y0101121D01*
X0194220Y0101195D01*
X0194323Y0101266D01*
X0194428Y0101333D01*
X0194536Y0101398D01*
X0194645Y0101458D01*
X0194756Y0101516D01*
X0194869Y0101569D01*
X0194983Y0101619D01*
X0195099Y0101666D01*
X0195216Y0101708D01*
X0195335Y0101747D01*
X0195455Y0101783D01*
X0195576Y0101814D01*
X0195698Y0101842D01*
X0195820Y0101865D01*
X0195944Y0101885D01*
X0196068Y0101901D01*
X0196192Y0101913D01*
X0196317Y0101921D01*
X0196442Y0101925D01*
X0196566Y0101925D01*
X0196691Y0101921D01*
X0196816Y0101913D01*
X0196940Y0101901D01*
X0197064Y0101885D01*
X0197188Y0101865D01*
X0197310Y0101842D01*
X0197432Y0101814D01*
X0197553Y0101783D01*
X0197673Y0101747D01*
X0197792Y0101708D01*
X0197909Y0101666D01*
X0198025Y0101619D01*
X0198139Y0101569D01*
X0198252Y0101516D01*
X0198363Y0101458D01*
X0198473Y0101398D01*
X0198580Y0101333D01*
X0198685Y0101266D01*
X0198788Y0101195D01*
X0198888Y0101121D01*
X0198986Y0101044D01*
X0199082Y0100963D01*
X0199175Y0100880D01*
X0199266Y0100794D01*
X0199353Y0100705D01*
X0199438Y0100613D01*
X0199520Y0100519D01*
X0199599Y0100422D01*
X0199674Y0100322D01*
X0199747Y0100221D01*
X0199816Y0100117D01*
X0199882Y0100010D01*
X0199944Y0099902D01*
X0200003Y0099792D01*
X0200059Y0099680D01*
X0200111Y0099566D01*
X0200159Y0099451D01*
X0200204Y0099335D01*
X0200244Y0099216D01*
X0200282Y0099097D01*
X0200315Y0098977D01*
X0200344Y0098855D01*
X0200370Y0098733D01*
X0200392Y0098610D01*
X0200409Y0098486D01*
X0200423Y0098362D01*
X0200433Y0098238D01*
X0200439Y0098113D01*
X0200441Y0097988D01*
X0200439Y0097863D01*
X0200433Y0097738D01*
X0200423Y0097614D01*
X0200409Y0097490D01*
X0200392Y0097366D01*
X0200370Y0097243D01*
X0200344Y0097121D01*
X0200315Y0096999D01*
X0200282Y0096879D01*
X0200244Y0096760D01*
X0200204Y0096641D01*
X0200159Y0096525D01*
X0200111Y0096410D01*
X0200059Y0096296D01*
X0200003Y0096184D01*
X0199944Y0096074D01*
X0199882Y0095966D01*
X0199816Y0095859D01*
X0199747Y0095755D01*
X0199674Y0095654D01*
X0199599Y0095554D01*
X0199520Y0095457D01*
X0199438Y0095363D01*
X0199353Y0095271D01*
X0199266Y0095182D01*
X0199175Y0095096D01*
X0199082Y0095013D01*
X0198986Y0094932D01*
X0198888Y0094855D01*
X0198788Y0094781D01*
X0198685Y0094710D01*
X0198580Y0094643D01*
X0198472Y0094578D01*
X0198363Y0094518D01*
X0198252Y0094460D01*
X0198139Y0094407D01*
X0198025Y0094357D01*
X0197909Y0094310D01*
X0197792Y0094268D01*
X0197673Y0094229D01*
X0197553Y0094193D01*
X0197432Y0094162D01*
X0197310Y0094134D01*
X0197188Y0094111D01*
X0197064Y0094091D01*
X0196940Y0094075D01*
X0196816Y0094063D01*
X0196691Y0094055D01*
X0196566Y0094051D01*
X0196442Y0094051D01*
X0196317Y0094055D01*
X0196192Y0094063D01*
X0196068Y0094075D01*
X0195944Y0094091D01*
X0195820Y0094111D01*
X0195698Y0094134D01*
X0195576Y0094162D01*
X0195455Y0094193D01*
X0195335Y0094229D01*
X0195216Y0094268D01*
X0195099Y0094310D01*
X0194983Y0094357D01*
X0194869Y0094407D01*
X0194756Y0094460D01*
X0194645Y0094518D01*
X0194535Y0094578D01*
X0194428Y0094643D01*
X0194323Y0094710D01*
X0194220Y0094781D01*
X0194120Y0094855D01*
X0194022Y0094932D01*
X0193926Y0095013D01*
X0193833Y0095096D01*
X0193742Y0095182D01*
X0193655Y0095271D01*
X0193570Y0095363D01*
X0193488Y0095457D01*
X0193409Y0095554D01*
X0193334Y0095654D01*
X0193261Y0095755D01*
X0193192Y0095859D01*
X0193126Y0095966D01*
X0193064Y0096074D01*
X0193005Y0096184D01*
X0192949Y0096296D01*
X0192897Y0096410D01*
X0192849Y0096525D01*
X0192804Y0096641D01*
X0192764Y0096760D01*
X0192726Y0096879D01*
X0192693Y0096999D01*
X0192664Y0097121D01*
X0192638Y0097243D01*
X0192616Y0097366D01*
X0192599Y0097490D01*
X0192585Y0097614D01*
X0192575Y0097738D01*
X0192569Y0097863D01*
X0192567Y0097988D01*
X0159890Y0027122D02*
X0159892Y0027247D01*
X0159898Y0027372D01*
X0159908Y0027496D01*
X0159922Y0027620D01*
X0159939Y0027744D01*
X0159961Y0027867D01*
X0159987Y0027989D01*
X0160016Y0028111D01*
X0160049Y0028231D01*
X0160087Y0028350D01*
X0160127Y0028469D01*
X0160172Y0028585D01*
X0160220Y0028700D01*
X0160272Y0028814D01*
X0160328Y0028926D01*
X0160387Y0029036D01*
X0160449Y0029144D01*
X0160515Y0029251D01*
X0160584Y0029355D01*
X0160657Y0029456D01*
X0160732Y0029556D01*
X0160811Y0029653D01*
X0160893Y0029747D01*
X0160978Y0029839D01*
X0161065Y0029928D01*
X0161156Y0030014D01*
X0161249Y0030097D01*
X0161345Y0030178D01*
X0161443Y0030255D01*
X0161543Y0030329D01*
X0161646Y0030400D01*
X0161751Y0030467D01*
X0161859Y0030532D01*
X0161968Y0030592D01*
X0162079Y0030650D01*
X0162192Y0030703D01*
X0162306Y0030753D01*
X0162422Y0030800D01*
X0162539Y0030842D01*
X0162658Y0030881D01*
X0162778Y0030917D01*
X0162899Y0030948D01*
X0163021Y0030976D01*
X0163143Y0030999D01*
X0163267Y0031019D01*
X0163391Y0031035D01*
X0163515Y0031047D01*
X0163640Y0031055D01*
X0163765Y0031059D01*
X0163889Y0031059D01*
X0164014Y0031055D01*
X0164139Y0031047D01*
X0164263Y0031035D01*
X0164387Y0031019D01*
X0164511Y0030999D01*
X0164633Y0030976D01*
X0164755Y0030948D01*
X0164876Y0030917D01*
X0164996Y0030881D01*
X0165115Y0030842D01*
X0165232Y0030800D01*
X0165348Y0030753D01*
X0165462Y0030703D01*
X0165575Y0030650D01*
X0165686Y0030592D01*
X0165796Y0030532D01*
X0165903Y0030467D01*
X0166008Y0030400D01*
X0166111Y0030329D01*
X0166211Y0030255D01*
X0166309Y0030178D01*
X0166405Y0030097D01*
X0166498Y0030014D01*
X0166589Y0029928D01*
X0166676Y0029839D01*
X0166761Y0029747D01*
X0166843Y0029653D01*
X0166922Y0029556D01*
X0166997Y0029456D01*
X0167070Y0029355D01*
X0167139Y0029251D01*
X0167205Y0029144D01*
X0167267Y0029036D01*
X0167326Y0028926D01*
X0167382Y0028814D01*
X0167434Y0028700D01*
X0167482Y0028585D01*
X0167527Y0028469D01*
X0167567Y0028350D01*
X0167605Y0028231D01*
X0167638Y0028111D01*
X0167667Y0027989D01*
X0167693Y0027867D01*
X0167715Y0027744D01*
X0167732Y0027620D01*
X0167746Y0027496D01*
X0167756Y0027372D01*
X0167762Y0027247D01*
X0167764Y0027122D01*
X0167762Y0026997D01*
X0167756Y0026872D01*
X0167746Y0026748D01*
X0167732Y0026624D01*
X0167715Y0026500D01*
X0167693Y0026377D01*
X0167667Y0026255D01*
X0167638Y0026133D01*
X0167605Y0026013D01*
X0167567Y0025894D01*
X0167527Y0025775D01*
X0167482Y0025659D01*
X0167434Y0025544D01*
X0167382Y0025430D01*
X0167326Y0025318D01*
X0167267Y0025208D01*
X0167205Y0025100D01*
X0167139Y0024993D01*
X0167070Y0024889D01*
X0166997Y0024788D01*
X0166922Y0024688D01*
X0166843Y0024591D01*
X0166761Y0024497D01*
X0166676Y0024405D01*
X0166589Y0024316D01*
X0166498Y0024230D01*
X0166405Y0024147D01*
X0166309Y0024066D01*
X0166211Y0023989D01*
X0166111Y0023915D01*
X0166008Y0023844D01*
X0165903Y0023777D01*
X0165795Y0023712D01*
X0165686Y0023652D01*
X0165575Y0023594D01*
X0165462Y0023541D01*
X0165348Y0023491D01*
X0165232Y0023444D01*
X0165115Y0023402D01*
X0164996Y0023363D01*
X0164876Y0023327D01*
X0164755Y0023296D01*
X0164633Y0023268D01*
X0164511Y0023245D01*
X0164387Y0023225D01*
X0164263Y0023209D01*
X0164139Y0023197D01*
X0164014Y0023189D01*
X0163889Y0023185D01*
X0163765Y0023185D01*
X0163640Y0023189D01*
X0163515Y0023197D01*
X0163391Y0023209D01*
X0163267Y0023225D01*
X0163143Y0023245D01*
X0163021Y0023268D01*
X0162899Y0023296D01*
X0162778Y0023327D01*
X0162658Y0023363D01*
X0162539Y0023402D01*
X0162422Y0023444D01*
X0162306Y0023491D01*
X0162192Y0023541D01*
X0162079Y0023594D01*
X0161968Y0023652D01*
X0161858Y0023712D01*
X0161751Y0023777D01*
X0161646Y0023844D01*
X0161543Y0023915D01*
X0161443Y0023989D01*
X0161345Y0024066D01*
X0161249Y0024147D01*
X0161156Y0024230D01*
X0161065Y0024316D01*
X0160978Y0024405D01*
X0160893Y0024497D01*
X0160811Y0024591D01*
X0160732Y0024688D01*
X0160657Y0024788D01*
X0160584Y0024889D01*
X0160515Y0024993D01*
X0160449Y0025100D01*
X0160387Y0025208D01*
X0160328Y0025318D01*
X0160272Y0025430D01*
X0160220Y0025544D01*
X0160172Y0025659D01*
X0160127Y0025775D01*
X0160087Y0025894D01*
X0160049Y0026013D01*
X0160016Y0026133D01*
X0159987Y0026255D01*
X0159961Y0026377D01*
X0159939Y0026500D01*
X0159922Y0026624D01*
X0159908Y0026748D01*
X0159898Y0026872D01*
X0159892Y0026997D01*
X0159890Y0027122D01*
X0112646Y0027122D02*
X0112648Y0027247D01*
X0112654Y0027372D01*
X0112664Y0027496D01*
X0112678Y0027620D01*
X0112695Y0027744D01*
X0112717Y0027867D01*
X0112743Y0027989D01*
X0112772Y0028111D01*
X0112805Y0028231D01*
X0112843Y0028350D01*
X0112883Y0028469D01*
X0112928Y0028585D01*
X0112976Y0028700D01*
X0113028Y0028814D01*
X0113084Y0028926D01*
X0113143Y0029036D01*
X0113205Y0029144D01*
X0113271Y0029251D01*
X0113340Y0029355D01*
X0113413Y0029456D01*
X0113488Y0029556D01*
X0113567Y0029653D01*
X0113649Y0029747D01*
X0113734Y0029839D01*
X0113821Y0029928D01*
X0113912Y0030014D01*
X0114005Y0030097D01*
X0114101Y0030178D01*
X0114199Y0030255D01*
X0114299Y0030329D01*
X0114402Y0030400D01*
X0114507Y0030467D01*
X0114615Y0030532D01*
X0114724Y0030592D01*
X0114835Y0030650D01*
X0114948Y0030703D01*
X0115062Y0030753D01*
X0115178Y0030800D01*
X0115295Y0030842D01*
X0115414Y0030881D01*
X0115534Y0030917D01*
X0115655Y0030948D01*
X0115777Y0030976D01*
X0115899Y0030999D01*
X0116023Y0031019D01*
X0116147Y0031035D01*
X0116271Y0031047D01*
X0116396Y0031055D01*
X0116521Y0031059D01*
X0116645Y0031059D01*
X0116770Y0031055D01*
X0116895Y0031047D01*
X0117019Y0031035D01*
X0117143Y0031019D01*
X0117267Y0030999D01*
X0117389Y0030976D01*
X0117511Y0030948D01*
X0117632Y0030917D01*
X0117752Y0030881D01*
X0117871Y0030842D01*
X0117988Y0030800D01*
X0118104Y0030753D01*
X0118218Y0030703D01*
X0118331Y0030650D01*
X0118442Y0030592D01*
X0118552Y0030532D01*
X0118659Y0030467D01*
X0118764Y0030400D01*
X0118867Y0030329D01*
X0118967Y0030255D01*
X0119065Y0030178D01*
X0119161Y0030097D01*
X0119254Y0030014D01*
X0119345Y0029928D01*
X0119432Y0029839D01*
X0119517Y0029747D01*
X0119599Y0029653D01*
X0119678Y0029556D01*
X0119753Y0029456D01*
X0119826Y0029355D01*
X0119895Y0029251D01*
X0119961Y0029144D01*
X0120023Y0029036D01*
X0120082Y0028926D01*
X0120138Y0028814D01*
X0120190Y0028700D01*
X0120238Y0028585D01*
X0120283Y0028469D01*
X0120323Y0028350D01*
X0120361Y0028231D01*
X0120394Y0028111D01*
X0120423Y0027989D01*
X0120449Y0027867D01*
X0120471Y0027744D01*
X0120488Y0027620D01*
X0120502Y0027496D01*
X0120512Y0027372D01*
X0120518Y0027247D01*
X0120520Y0027122D01*
X0120518Y0026997D01*
X0120512Y0026872D01*
X0120502Y0026748D01*
X0120488Y0026624D01*
X0120471Y0026500D01*
X0120449Y0026377D01*
X0120423Y0026255D01*
X0120394Y0026133D01*
X0120361Y0026013D01*
X0120323Y0025894D01*
X0120283Y0025775D01*
X0120238Y0025659D01*
X0120190Y0025544D01*
X0120138Y0025430D01*
X0120082Y0025318D01*
X0120023Y0025208D01*
X0119961Y0025100D01*
X0119895Y0024993D01*
X0119826Y0024889D01*
X0119753Y0024788D01*
X0119678Y0024688D01*
X0119599Y0024591D01*
X0119517Y0024497D01*
X0119432Y0024405D01*
X0119345Y0024316D01*
X0119254Y0024230D01*
X0119161Y0024147D01*
X0119065Y0024066D01*
X0118967Y0023989D01*
X0118867Y0023915D01*
X0118764Y0023844D01*
X0118659Y0023777D01*
X0118551Y0023712D01*
X0118442Y0023652D01*
X0118331Y0023594D01*
X0118218Y0023541D01*
X0118104Y0023491D01*
X0117988Y0023444D01*
X0117871Y0023402D01*
X0117752Y0023363D01*
X0117632Y0023327D01*
X0117511Y0023296D01*
X0117389Y0023268D01*
X0117267Y0023245D01*
X0117143Y0023225D01*
X0117019Y0023209D01*
X0116895Y0023197D01*
X0116770Y0023189D01*
X0116645Y0023185D01*
X0116521Y0023185D01*
X0116396Y0023189D01*
X0116271Y0023197D01*
X0116147Y0023209D01*
X0116023Y0023225D01*
X0115899Y0023245D01*
X0115777Y0023268D01*
X0115655Y0023296D01*
X0115534Y0023327D01*
X0115414Y0023363D01*
X0115295Y0023402D01*
X0115178Y0023444D01*
X0115062Y0023491D01*
X0114948Y0023541D01*
X0114835Y0023594D01*
X0114724Y0023652D01*
X0114614Y0023712D01*
X0114507Y0023777D01*
X0114402Y0023844D01*
X0114299Y0023915D01*
X0114199Y0023989D01*
X0114101Y0024066D01*
X0114005Y0024147D01*
X0113912Y0024230D01*
X0113821Y0024316D01*
X0113734Y0024405D01*
X0113649Y0024497D01*
X0113567Y0024591D01*
X0113488Y0024688D01*
X0113413Y0024788D01*
X0113340Y0024889D01*
X0113271Y0024993D01*
X0113205Y0025100D01*
X0113143Y0025208D01*
X0113084Y0025318D01*
X0113028Y0025430D01*
X0112976Y0025544D01*
X0112928Y0025659D01*
X0112883Y0025775D01*
X0112843Y0025894D01*
X0112805Y0026013D01*
X0112772Y0026133D01*
X0112743Y0026255D01*
X0112717Y0026377D01*
X0112695Y0026500D01*
X0112678Y0026624D01*
X0112664Y0026748D01*
X0112654Y0026872D01*
X0112648Y0026997D01*
X0112646Y0027122D01*
D12*
X0089024Y0050744D03*
X0096898Y0070429D03*
X0116583Y0099957D03*
X0187449Y0052713D03*
X0226819Y0086177D03*
X0266189Y0082240D03*
X0215008Y0125547D03*
X0266189Y0216098D03*
X0014220Y0216098D03*
X0014220Y0058618D03*
D13*
X0257290Y0194683D02*
X0260522Y0194683D01*
X0260522Y0190269D01*
X0257290Y0190269D01*
X0257290Y0194683D01*
X0257290Y0192166D02*
X0260522Y0192166D01*
X0260522Y0194063D02*
X0257290Y0194063D01*
X0265164Y0194683D02*
X0268396Y0194683D01*
X0268396Y0190269D01*
X0265164Y0190269D01*
X0265164Y0194683D01*
X0265164Y0192166D02*
X0268396Y0192166D01*
X0268396Y0194063D02*
X0265164Y0194063D01*
D14*
X0268799Y0186425D02*
X0268799Y0182779D01*
X0265153Y0182779D01*
X0265153Y0186425D01*
X0268799Y0186425D01*
X0268799Y0184656D02*
X0265153Y0184656D01*
X0260532Y0186425D02*
X0260532Y0182779D01*
X0256886Y0182779D01*
X0256886Y0186425D01*
X0260532Y0186425D01*
X0260532Y0184656D02*
X0256886Y0184656D01*
D15*
X0198866Y0222004D03*
X0188866Y0222004D03*
X0178866Y0222004D03*
X0168866Y0222004D03*
X0154732Y0196413D03*
X0144732Y0196413D03*
X0131740Y0222004D03*
X0121740Y0222004D03*
X0111740Y0222004D03*
X0101740Y0222004D03*
X0091740Y0222004D03*
X0081740Y0222004D03*
X0046307Y0188539D03*
X0036307Y0188539D03*
X0036307Y0176728D03*
X0046307Y0176728D03*
X0132921Y0141295D03*
X0142921Y0141295D03*
D16*
X0204772Y0189524D03*
X0250441Y0189524D03*
M02*
