G75*
%MOIN*%
%OFA0B0*%
%FSLAX25Y25*%
%IPPOS*%
%LPD*%
%AMOC8*
5,1,8,0,0,1.08239X$1,22.5*
%
%ADD10C,0.00300*%
%ADD11C,0.08908*%
%ADD12C,0.02381*%
%ADD13C,0.03378*%
D10*
X0002189Y0001992D02*
X0002189Y0082209D01*
X0065083Y0082209D01*
X0065083Y0141854D01*
X0002189Y0141854D01*
X0002189Y0199925D01*
X0227189Y0199925D01*
X0227189Y0001992D01*
X0002189Y0001992D01*
D11*
X0010949Y0010949D03*
X0010949Y0190476D03*
X0218823Y0190476D03*
X0218823Y0010949D03*
D12*
X0067064Y0085161D02*
X0065083Y0085161D01*
X0065083Y0088311D02*
X0067064Y0088311D01*
X0067064Y0091461D02*
X0065083Y0091461D01*
X0065083Y0094610D02*
X0067064Y0094610D01*
X0067064Y0097760D02*
X0065083Y0097760D01*
X0065083Y0100909D02*
X0067064Y0100909D01*
X0067064Y0104059D02*
X0065083Y0104059D01*
X0065083Y0107209D02*
X0067064Y0107209D01*
X0067064Y0110358D02*
X0065083Y0110358D01*
X0065083Y0113508D02*
X0067064Y0113508D01*
X0067064Y0116657D02*
X0065083Y0116657D01*
X0065083Y0119807D02*
X0067064Y0119807D01*
X0067064Y0122957D02*
X0065083Y0122957D01*
X0065083Y0126106D02*
X0067064Y0126106D01*
X0067064Y0129256D02*
X0065083Y0129256D01*
X0065083Y0132406D02*
X0067064Y0132406D01*
X0067064Y0135555D02*
X0065083Y0135555D01*
X0065083Y0138705D02*
X0067064Y0138705D01*
D13*
X0076303Y0143232D03*
X0084177Y0143232D03*
X0078272Y0118626D03*
X0077287Y0101894D03*
X0119610Y0095988D03*
X0123547Y0099925D03*
X0127484Y0103862D03*
X0131421Y0127484D03*
X0127484Y0131421D03*
X0123547Y0135358D03*
X0162917Y0123547D03*
X0166854Y0115673D03*
X0166854Y0103862D03*
X0162917Y0099925D03*
X0084177Y0052681D03*
M02*
