<?xml version="1.0" encoding="UTF-8"?>
<svg width="573px" height="67px" viewBox="0 0 573 67" version="1.1" xmlns="http://www.w3.org/2000/svg" xmlns:xlink="http://www.w3.org/1999/xlink">
    <!-- Generator: Sketch 48.1 (47250) - http://www.bohemiancoding.com/sketch -->
    <title>retropie</title>
    <desc>Created with Sketch.</desc>
    <defs></defs>
    <g id="Page-1" stroke="none" stroke-width="1" fill="none" fill-rule="evenodd">
        <g id="retropie" transform="translate(-1.000000, 0.000000)">
            <path d="M371.55059,0 L573.833659,0 L573.833659,66.9165813 L371.55059,66.9165813 L371.55059,0 Z M377.526845,27.5192171 L383.918272,27.5192171 L383.35762,31.534212 L383.469751,31.534212 C384.665813,29.8984651 386.142181,28.7088489 387.898898,27.9653276 C389.655615,27.2218064 391.487058,26.8500513 393.393283,26.8500513 C395.449015,26.8500513 397.252426,27.2125125 398.80357,27.9374457 C400.354713,28.662379 401.606823,29.6568238 402.559935,30.92081 C403.513047,32.1847962 404.167134,33.6718164 404.522215,35.3819154 C404.877296,37.0920143 404.924017,38.9322019 404.662378,40.9025333 C404.363363,42.8728647 403.784028,44.7130523 402.924358,46.4231513 C402.064689,48.1332502 400.971429,49.6202705 399.644547,50.8842567 C398.317665,52.1482429 396.803921,53.1426877 395.10327,53.8676209 C393.402618,54.5925542 391.599207,54.9550154 389.692983,54.9550154 C388.422166,54.9550154 387.319563,54.8249011 386.385139,54.5646687 C385.450715,54.3044362 384.637778,53.9698567 383.946305,53.5609199 C383.254831,53.1519832 382.684841,52.715171 382.236317,52.2504702 C381.787794,51.7857694 381.41403,51.3303695 381.115014,50.8842567 L380.946819,50.8842567 L378.648148,67 L371.920329,67 L377.526845,27.5192171 Z M397.931322,40.9504874 C398.08083,39.9095576 398.043454,38.9058189 397.819192,37.9392413 C397.59493,36.9726636 397.193134,36.1176269 396.613791,35.3741056 C396.034448,34.6305844 395.286921,34.0357763 394.371185,33.5896635 C393.45545,33.1435507 392.380878,32.9204977 391.147439,32.9204977 C389.913999,32.9204977 388.783364,33.1435507 387.755497,33.5896635 C386.727631,34.0357763 385.821253,34.6305844 385.036337,35.3741056 C384.251421,36.1176269 383.606679,36.9726636 383.10209,37.9392413 C382.597501,38.9058189 382.270457,39.9095576 382.12095,40.9504874 C381.971442,41.9914172 382.008818,42.9951559 382.23308,43.9617336 C382.457342,44.9283112 382.859138,45.7833479 383.438481,46.5268692 C384.017823,47.2703905 384.765351,47.8651986 385.681087,48.3113113 C386.596822,48.7574241 387.671393,48.9804772 388.904833,48.9804772 C390.138272,48.9804772 391.278252,48.7574241 392.324807,48.3113113 C393.371362,47.8651986 394.287084,47.2703905 395.072,46.5268692 C395.856916,45.7833479 396.492314,44.9283112 396.978215,43.9617336 C397.464115,42.9951559 397.781815,41.9914172 397.931322,40.9504874 Z M409.470302,40.9025333 C409.769317,38.7834977 410.423404,36.8596652 411.432582,35.1309782 C412.44176,33.4022912 413.693869,31.9245648 415.188947,30.6977547 C416.684025,29.4709446 418.375307,28.5229692 420.262843,27.8538 C422.15038,27.1846308 424.103296,26.8500513 426.121652,26.8500513 C428.140007,26.8500513 429.990139,27.1846308 431.672102,27.8538 C433.354065,28.5229692 434.765024,29.4709446 435.905021,30.6977547 C437.045018,31.9245648 437.876643,33.4022912 438.39992,35.1309782 C438.923197,36.8596652 439.035327,38.7834977 438.736311,40.9025333 C438.437295,43.021569 437.783208,44.9454015 436.774031,46.6740885 C435.764853,48.4027755 434.522088,49.8805018 433.045698,51.107312 C431.569308,52.3341221 429.887371,53.2820975 427.999834,53.9512667 C426.112298,54.6204358 424.159382,54.9550154 422.141026,54.9550154 C420.12267,54.9550154 418.263195,54.6204358 416.562543,53.9512667 C414.861892,53.2820975 413.441589,52.3341221 412.301592,51.107312 C411.161595,49.8805018 410.32997,48.4027755 409.806693,46.6740885 C409.283415,44.9454015 409.171286,43.021569 409.470302,40.9025333 Z M416.215896,40.9504874 C416.066388,41.9914172 416.103764,42.9951559 416.328026,43.9617336 C416.552288,44.9283112 416.954084,45.7833479 417.533427,46.5268692 C418.11277,47.2703905 418.860298,47.8651986 419.776033,48.3113113 C420.691768,48.7574241 421.76634,48.9804772 422.999779,48.9804772 C424.233219,48.9804772 425.373199,48.7574241 426.419754,48.3113113 C427.466308,47.8651986 428.38203,47.2703905 429.166946,46.5268692 C429.951862,45.7833479 430.587261,44.9283112 431.073161,43.9617336 C431.559062,42.9951559 431.876761,41.9914172 432.026269,40.9504874 C432.175777,39.9095576 432.1384,38.9058189 431.914138,37.9392413 C431.689877,36.9726636 431.28808,36.1176269 430.708738,35.3741056 C430.129395,34.6305844 429.381867,34.0357763 428.466132,33.5896635 C427.550396,33.1435507 426.475825,32.9204977 425.242385,32.9204977 C424.008946,32.9204977 422.87831,33.1435507 421.850444,33.5896635 C420.822577,34.0357763 419.9162,34.6305844 419.131284,35.3741056 C418.346368,36.1176269 417.701625,36.9726636 417.197036,37.9392413 C416.692447,38.9058189 416.365404,39.9095576 416.215896,40.9504874 Z M464.320231,35.5492068 C463.647446,34.7313334 462.909262,34.0807621 462.105658,33.5974732 C461.302053,33.1141844 460.45174,32.8725436 459.554693,32.8725436 C458.321254,32.8725436 457.190618,33.0955966 456.162752,33.5417094 C455.134885,33.9878222 454.228508,34.5826303 453.443592,35.3261516 C452.658676,36.0696729 452.013933,36.9247095 451.509344,37.8912872 C451.004755,38.8578649 450.677712,39.8616035 450.528204,40.9025333 C450.378696,41.9434631 450.416072,42.9472018 450.640334,43.9137795 C450.864596,44.8803572 451.266392,45.7353938 451.845735,46.4789151 C452.425078,47.2224364 453.172606,47.8172445 454.088341,48.2633573 C455.004076,48.70947 456.078648,48.9325231 457.312087,48.9325231 C458.358642,48.9325231 459.358461,48.7187639 460.311573,48.2912392 C461.264685,47.8637144 462.114998,47.2410247 462.862537,46.4231513 L466.674968,51.2188396 C465.890052,51.8880088 465.030395,52.4642291 464.095971,52.947518 C463.161547,53.4308068 462.227137,53.8211496 461.292713,54.1185581 C460.358289,54.4159666 459.4706,54.6297258 458.629618,54.759842 C457.788637,54.8899583 457.069141,54.9550154 456.47111,54.9550154 C454.452754,54.9550154 452.593279,54.6204358 450.892627,53.9512667 C449.191976,53.2820975 447.771673,52.3341221 446.631676,51.107312 C445.491679,49.8805018 444.660054,48.4027755 444.136777,46.6740885 C443.613499,44.9454015 443.50137,43.021569 443.800386,40.9025333 C444.099401,38.7834977 444.753488,36.8596652 445.762666,35.1309782 C446.771844,33.4022912 448.023953,31.9245648 449.519031,30.6977547 C451.014109,29.4709446 452.705391,28.5229692 454.592927,27.8538 C456.480464,27.1846308 458.43338,26.8500513 460.451736,26.8500513 C462.171076,26.8500513 463.853013,27.175337 465.497599,27.8259181 C467.142185,28.4764992 468.506424,29.5081195 469.590356,30.92081 L464.320231,35.5492068 Z M487.463927,50.6054376 L487.295731,50.6054376 C486.099669,52.1296562 484.707398,53.2356276 483.118877,53.9233848 C481.530357,54.6111419 479.839075,54.9550154 478.044981,54.9550154 C476.811542,54.9550154 475.624841,54.7877256 474.484844,54.453141 C473.344847,54.1185564 472.363716,53.6166871 471.541423,52.947518 C470.71913,52.2783488 470.10242,51.4418999 469.691273,50.4381462 C469.280127,49.4343924 469.167998,48.263364 469.354883,46.9250256 C469.653898,44.7688139 470.457491,43.0680345 471.765684,41.8226363 C473.073877,40.5772382 474.624998,39.6385566 476.419092,39.0065635 C478.213186,38.3745704 480.110038,37.9842276 482.109705,37.8355234 C484.109372,37.6868191 485.950159,37.6124681 487.632122,37.6124681 L489.314077,37.6124681 L489.370142,36.8875385 C489.63178,35.2146156 489.239328,33.9599422 488.192774,33.1234808 C487.146219,32.2870193 485.725916,31.8687949 483.931822,31.8687949 C482.511498,31.8687949 481.147259,32.1197295 479.839066,32.6216064 C478.530873,33.1234833 477.372204,33.8019363 476.363027,34.6569858 L473.335508,31.1438652 C475.017471,29.6196466 476.914323,28.5229692 479.026121,27.8538 C481.137919,27.1846308 483.25903,26.8500513 485.389516,26.8500513 C487.295741,26.8500513 488.874893,27.0638105 490.127021,27.4913352 C491.379149,27.9188599 492.388312,28.4671987 493.15454,29.1363678 C493.920767,29.805537 494.472069,30.5769287 494.808461,31.4505662 C495.144854,32.3242038 495.350424,33.207122 495.425178,34.0993476 C495.499932,34.9915731 495.490588,35.8559037 495.397146,36.6923651 C495.303703,37.5288266 495.219606,38.2630428 495.144852,38.8950359 L493.014377,54.2858496 L486.95934,54.2858496 L487.463927,50.6054376 Z M488.224375,42.2596459 L486.822746,42.2596459 C485.888322,42.2596459 484.832439,42.2968214 483.655065,42.3711736 C482.477691,42.4455257 481.356399,42.6221094 480.291156,42.9009298 C479.225913,43.1797503 478.300847,43.5886809 477.515931,44.1277338 C476.731015,44.6667868 476.26381,45.4195908 476.114302,46.3861684 C476.039548,47.0181615 476.114301,47.5479125 476.338563,47.9754373 C476.562824,48.402962 476.880524,48.7654232 477.29167,49.0628317 C477.702817,49.3602402 478.170022,49.5739994 478.693299,49.7041156 C479.216576,49.8342318 479.758534,49.899289 480.319188,49.899289 C482.63656,49.899289 484.430627,49.3509502 485.701443,48.2542563 C486.97226,47.1575624 487.738476,45.6612483 488.000114,43.765269 L488.224375,42.2596459 Z M504.296941,27.5504874 L511.024759,27.5504874 L507.268394,54.3171199 L500.540576,54.3171199 L504.296941,27.5504874 Z M504.577783,18.4906747 C504.727291,17.4125688 505.259905,16.4738873 506.17564,15.6746019 C507.091375,14.8753165 508.165947,14.4756798 509.399386,14.4756798 C510.632826,14.4756798 511.6233,14.8567288 512.370839,15.6188381 C513.118378,16.3809474 513.398701,17.3382167 513.211817,18.4906747 C513.024932,19.6431327 512.464286,20.600402 511.529862,21.3625113 C510.595438,22.1246206 509.511523,22.5056696 508.278083,22.5056696 C507.044644,22.5056696 506.082202,22.1060329 505.390728,21.3067475 C504.699254,20.5074621 504.428275,19.5687806 504.577783,18.4906747 Z M515.517342,40.9025333 C515.816358,38.7834977 516.470444,36.8596652 517.479622,35.1309782 C518.4888,33.4022912 519.740909,31.9245648 521.235987,30.6977547 C522.731066,29.4709446 524.422347,28.5229692 526.309884,27.8538 C528.19742,27.1846308 530.150336,26.8500513 532.168692,26.8500513 C534.187048,26.8500513 536.037179,27.1846308 537.719142,27.8538 C539.401105,28.5229692 540.812064,29.4709446 541.952061,30.6977547 C543.092058,31.9245648 543.923683,33.4022912 544.44696,35.1309782 C544.970238,36.8596652 545.082367,38.7834977 544.783351,40.9025333 C544.484336,43.021569 543.830249,44.9454015 542.821071,46.6740885 C541.811893,48.4027755 540.569128,49.8805018 539.092738,51.107312 C537.616349,52.3341221 535.934411,53.2820975 534.046875,53.9512667 C532.159338,54.6204358 530.206422,54.9550154 528.188066,54.9550154 C526.169711,54.9550154 524.310235,54.6204358 522.609584,53.9512667 C520.908932,53.2820975 519.488629,52.3341221 518.348632,51.107312 C517.208635,49.8805018 516.37701,48.4027755 515.853733,46.6740885 C515.330455,44.9454015 515.218326,43.021569 515.517342,40.9025333 Z M522.027799,40.9504874 C521.878291,41.9914172 521.915667,42.9951559 522.139929,43.9617336 C522.364191,44.9283112 522.765987,45.7833479 523.34533,46.5268692 C523.924672,47.2703905 524.6722,47.8651986 525.587936,48.3113113 C526.503671,48.7574241 527.578242,48.9804772 528.811682,48.9804772 C530.045121,48.9804772 531.185101,48.7574241 532.231656,48.3113113 C533.278211,47.8651986 534.193933,47.2703905 534.978849,46.5268692 C535.763765,45.7833479 536.399163,44.9283112 536.885064,43.9617336 C537.370964,42.9951559 537.688664,41.9914172 537.838171,40.9504874 C537.987679,39.9095576 537.950303,38.9058189 537.726041,37.9392413 C537.501779,36.9726636 537.099983,36.1176269 536.52064,35.3741056 C535.941298,34.6305844 535.19377,34.0357763 534.278034,33.5896635 C533.362299,33.1435507 532.287728,32.9204977 531.054288,32.9204977 C529.820848,32.9204977 528.690213,33.1435507 527.662346,33.5896635 C526.63448,34.0357763 525.728102,34.6305844 524.943186,35.3741056 C524.15827,36.1176269 523.513528,36.9726636 523.008939,37.9392413 C522.50435,38.9058189 522.177306,39.9095576 522.027799,40.9504874 Z" id="pocaio" fill="#000000"></path>
            <path d="M58.0675968,60.7006981 C49.4885225,64.903537 40.3356334,67.0049249 30.6086549,67.0049249 C25.6545416,67.0049249 21.2140311,66.2093995 17.2869901,64.6183247 C13.3599491,63.02725 10.1126369,60.775763 7.54495625,57.863796 C4.97727559,54.9518291 3.13461475,51.4545192 2.01691846,47.3717614 C0.899222169,43.2890036 0.702873063,38.7560097 1.42786525,33.7726436 C2.15285744,28.6691964 3.6481314,24.031133 5.91373199,19.8583144 C8.17933257,15.6854958 11.0188427,12.1281463 14.4323476,9.18615906 C17.8458525,6.24417184 21.742627,3.97767487 26.1227882,2.38660015 C30.5029493,0.795525427 35.1700165,0 40.1241298,0 C45.0178271,0 49.5187527,0.585386635 53.6270418,1.75617747 C57.7353309,2.9269683 61.2696148,5.01334631 64.2299995,8.01537408 L54.6239011,16.4810501 C52.8718366,14.4997117 50.60627,12.9687005 47.8271333,11.8879705 C45.0479966,10.8072405 42.0272411,10.2668837 38.7647763,10.2668837 C35.4418954,10.2668837 32.345621,10.8522703 29.4758603,12.0230611 C26.6060995,13.193852 24.0535612,14.8149226 21.8181686,16.8863218 C19.582776,18.957721 17.7401152,21.3743171 16.2901308,24.1361826 C14.8401464,26.8980482 13.9037122,29.8700111 13.4808001,33.0521605 C12.997472,36.4744722 13.0729909,39.6265541 13.707359,42.5085007 C14.3417272,45.3904474 15.4745105,47.8820931 17.1057429,49.9835125 C18.7369754,52.084932 20.8212966,53.7360225 23.3587693,54.9368336 C25.8962419,56.1376447 28.8263748,56.7380412 32.1492556,56.7380412 C35.0492244,56.7380412 37.8283194,56.4678628 40.4866241,55.9274978 C43.1449288,55.3871328 45.5313256,54.5465776 47.6458862,53.4058071 L49.8208518,38.3657231 L36.6804341,38.3657231 L38.1304113,28.0988395 L62.6893988,28.0988395 L58.0675968,60.7006981 Z" id="G" fill="#FF0000"></path>
            <path d="M98.8961219,0 L109.313019,0 L129,67 L115.238227,67 L111.033241,51.6694915 L81.6939058,51.6694915 L73.4750693,67 L60,67 L98.8961219,0 Z M108.261773,41.4491525 L101.763158,14.1949153 L87.2368421,41.4491525 L108.261773,41.4491525 Z" id="A" fill="#F8E71C"></path>
            <path d="M143.389929,0 L169.567914,0 C172.097201,0 174.547411,0.299667436 176.918617,0.899011299 C179.289823,1.49835516 181.360645,2.47621732 183.131146,3.83262712 C184.901646,5.18903691 186.229502,6.93972562 187.114752,9.08474576 C188.000002,11.2297659 188.221312,13.816369 187.778687,16.8446328 C187.272829,20.6299624 185.75528,23.7528126 183.225994,26.2132768 C180.696707,28.6737411 177.629993,30.4402018 174.02576,31.5127119 L174.02576,31.7019774 C176.112421,31.9543327 177.977742,32.5378956 179.621778,33.4526836 C181.265814,34.3674716 182.641093,35.5345974 183.747656,36.954096 C184.854219,38.3735947 185.628802,40.0138796 186.071427,41.875 C186.514052,43.7361204 186.577283,45.7391606 186.261122,47.8841808 C185.755265,51.5433328 184.601295,54.5873231 182.799179,57.0162429 C180.997062,59.4451628 178.799777,61.4008871 176.207258,62.8834746 C173.61474,64.366062 170.753527,65.422784 167.623535,66.0536723 C164.493543,66.6845606 161.34779,67 158.186182,67 L134,67 L143.389929,0 Z M151.546838,27.2542373 L162.454332,27.2542373 C166.437958,27.2542373 169.536287,26.4814107 171.749413,24.9357345 C173.962539,23.3900582 175.227163,21.355474 175.543324,18.8319209 C175.985949,15.9298348 175.274598,13.7690749 173.409249,12.3495763 C171.5439,10.9300776 168.334916,10.220339 163.7822,10.220339 L153.918032,10.220339 L151.546838,27.2542373 Z M147.373536,56.779661 L158.375877,56.779661 C159.893449,56.779661 161.537461,56.6850292 163.307961,56.4957627 C165.078462,56.3064962 166.722474,55.8648811 168.240046,55.170904 C169.757618,54.4769269 171.085473,53.4832927 172.223652,52.1899718 C173.361831,50.8966508 174.08899,49.1459621 174.405151,46.9378531 C174.911008,43.4048788 174.10481,40.9444514 171.986533,39.5564972 C169.868255,38.168543 166.37473,37.4745763 161.505854,37.4745763 L150.029273,37.4745763 L147.373536,56.779661 Z" id="B" fill="#0ACC0A"></path>
            <path d="M191.427451,33.7718467 C192.151741,28.6690334 193.645567,24.0315462 195.908973,19.8592459 C198.172379,15.6869456 201.009139,12.1300379 204.419338,9.18841614 C207.829537,6.24679436 211.722538,3.98057893 216.098456,2.38970184 C220.474375,0.798824756 225.136922,0.0033981458 230.086238,0.0033981458 C235.09591,-0.0566349517 239.577387,0.678759462 243.530804,2.20960345 C247.48422,3.74044744 250.758566,5.97664678 253.353938,8.91826855 C255.949311,11.8598903 257.790187,15.40179 258.876622,19.5440737 C259.963057,23.6863574 260.144127,28.3088366 259.419837,33.4116499 C258.695547,38.394397 257.21681,42.9268278 254.983583,47.0090785 C252.750355,51.0913291 249.913595,54.6032126 246.473217,57.5448344 C243.03284,60.4864562 239.109661,62.7826877 234.703563,64.4335979 C230.297466,66.0845081 225.589651,66.9399669 220.579979,67 C215.630663,67 211.194454,66.2045734 207.271216,64.6136963 C203.347978,63.0228192 200.103811,60.7716118 197.538617,57.8600066 C194.973424,54.9484014 193.132547,51.4515259 192.015934,47.3692753 C190.89932,43.2870246 190.703161,38.7545938 191.427451,33.7718467 Z M203.468712,33.0514531 C202.985852,36.4733397 203.061298,39.62503 203.695052,42.5066187 C204.328806,45.3882074 205.460492,47.8795435 207.090144,49.9807019 C208.719797,52.0818604 210.802099,53.7327458 213.337115,54.9334077 C215.87213,56.1340697 218.799425,56.7343917 222.119087,56.7343917 C225.43875,56.7343917 228.547114,56.1340697 231.444275,54.9334077 C234.341435,53.7327458 236.90659,52.0818604 239.139818,49.9807019 C241.373045,47.8795435 243.213921,45.3882074 244.662501,42.5066187 C246.111081,39.62503 247.076787,36.4733397 247.559647,33.0514531 C247.982149,29.8696989 247.876525,26.8981052 247.242772,24.1365827 C246.609018,21.3750602 245.477332,18.9587643 243.847679,16.8876224 C242.218027,14.8164805 240.120635,13.1956112 237.555441,12.0249658 C234.990247,10.8543204 232.047863,10.2690065 228.728201,10.2690065 C225.408538,10.2690065 222.315262,10.8543204 219.448281,12.0249658 C216.5813,13.1956112 214.031233,14.8164805 211.798006,16.8876224 C209.564778,18.9587643 207.723902,21.3750602 206.275322,24.1365827 C204.826742,26.8981052 203.891215,29.8696989 203.468712,33.0514531 Z" id="O" fill="#1CD9D9"></path>
            <polygon id="Z" fill="#0000FF" points="256.539432 56.2118644 299.35489 10.7881356 263.563091 10.7881356 265.102524 0 316 0 314.460568 10.7881356 271.356467 56.2118644 308.591483 56.2118644 307.05205 67 255 67"></polygon>
            <polygon id="E" fill="#FF00FF" points="322.411972 0 367 0 365.478873 10.7881356 332.869718 10.7881356 330.588028 27.2542373 361.485915 27.2542373 359.964789 38.0423729 329.066901 38.0423729 326.5 56.2118644 360.820423 56.2118644 359.299296 67 313 67"></polygon>
        </g>
    </g>
</svg>