%
M48
M72
T01C0.01378
T02C0.04000
T03C0.04724
T04C0.05118
%
T01
X44347Y62424
X68953Y22069
X87654Y54550
X91591Y38802
X99465Y54550
X87654Y74235
X127024Y62424
X121119Y32896
X44347Y208093
X35489Y195298
T02
X30095Y223841
X40095Y223841
X50095Y223841
X60095Y223841
X95528Y223841
X105528Y223841
X115528Y223841
X125528Y223841
X135528Y223841
X145528Y223841
X155528Y223841
X165528Y223841
X175528Y223841
X185528Y223841
X195528Y223841
X205528Y223841
X210686Y40770
X210686Y30770
T03
X156237Y122306
X168048Y181361
X174662Y46676
X154977Y26991
X154977Y17148
X194347Y17148
X194347Y26991
X254662Y106557
X223166Y204983
T04
X194741Y46676
X184505Y46676
X164820Y46676
X154583Y46676
X174662Y26991
M30
