G75*
%MOIN*%
%OFA0B0*%
%FSLAX25Y25*%
%IPPOS*%
%LPD*%
%AMOC8*
5,1,8,0,0,1.08239X$1,22.5*
%
%ADD10C,0.00000*%
%ADD11C,0.00039*%
%ADD12R,0.08661X0.02362*%
%ADD13R,0.05118X0.05906*%
%ADD14C,0.07400*%
%ADD15R,0.05512X0.06299*%
%ADD16R,0.05512X0.04331*%
%ADD17C,0.08600*%
%ADD18C,0.01000*%
%ADD19C,0.02978*%
%ADD20C,0.02400*%
%ADD21C,0.01200*%
D10*
X0020725Y0015180D02*
X0020725Y0191951D01*
X0020858Y0191953D01*
X0020991Y0191959D01*
X0021123Y0191969D01*
X0021256Y0191982D01*
X0021387Y0192000D01*
X0021519Y0192021D01*
X0021649Y0192046D01*
X0021779Y0192075D01*
X0021908Y0192108D01*
X0022035Y0192145D01*
X0022162Y0192185D01*
X0022288Y0192229D01*
X0022412Y0192277D01*
X0022534Y0192328D01*
X0022655Y0192383D01*
X0022775Y0192442D01*
X0022892Y0192503D01*
X0023008Y0192569D01*
X0023122Y0192637D01*
X0023234Y0192709D01*
X0023343Y0192785D01*
X0023451Y0192863D01*
X0023556Y0192945D01*
X0023658Y0193029D01*
X0023758Y0193117D01*
X0023856Y0193207D01*
X0023950Y0193301D01*
X0024042Y0193397D01*
X0024131Y0193496D01*
X0024217Y0193597D01*
X0024300Y0193701D01*
X0024380Y0193807D01*
X0024457Y0193915D01*
X0024531Y0194026D01*
X0024601Y0194139D01*
X0024668Y0194253D01*
X0024732Y0194370D01*
X0024792Y0194489D01*
X0024849Y0194609D01*
X0024902Y0194731D01*
X0024951Y0194854D01*
X0024997Y0194979D01*
X0025040Y0195105D01*
X0025078Y0195232D01*
X0025113Y0195361D01*
X0025144Y0195490D01*
X0025171Y0195620D01*
X0025194Y0195751D01*
X0025214Y0195882D01*
X0025229Y0196015D01*
X0025241Y0196147D01*
X0025249Y0196280D01*
X0025253Y0196413D01*
X0025253Y0196545D01*
X0025249Y0196678D01*
X0025241Y0196811D01*
X0025229Y0196943D01*
X0025214Y0197076D01*
X0025194Y0197207D01*
X0025171Y0197338D01*
X0025144Y0197468D01*
X0025113Y0197597D01*
X0025078Y0197726D01*
X0025040Y0197853D01*
X0024997Y0197979D01*
X0024951Y0198104D01*
X0024902Y0198227D01*
X0024849Y0198349D01*
X0024792Y0198469D01*
X0024732Y0198588D01*
X0024668Y0198705D01*
X0024601Y0198819D01*
X0024531Y0198932D01*
X0024457Y0199043D01*
X0024380Y0199151D01*
X0024300Y0199257D01*
X0024217Y0199361D01*
X0024131Y0199462D01*
X0024042Y0199561D01*
X0023950Y0199657D01*
X0023856Y0199751D01*
X0023758Y0199841D01*
X0023658Y0199929D01*
X0023556Y0200013D01*
X0023451Y0200095D01*
X0023343Y0200173D01*
X0023234Y0200249D01*
X0023122Y0200321D01*
X0023008Y0200389D01*
X0022892Y0200455D01*
X0022775Y0200516D01*
X0022655Y0200575D01*
X0022534Y0200630D01*
X0022412Y0200681D01*
X0022288Y0200729D01*
X0022162Y0200773D01*
X0022035Y0200813D01*
X0021908Y0200850D01*
X0021779Y0200883D01*
X0021649Y0200912D01*
X0021519Y0200937D01*
X0021387Y0200958D01*
X0021256Y0200976D01*
X0021123Y0200989D01*
X0020991Y0200999D01*
X0020858Y0201005D01*
X0020725Y0201007D01*
X0020725Y0201006D02*
X0020725Y0231715D01*
X0294347Y0231715D01*
X0294347Y0081912D01*
X0294345Y0081788D01*
X0294339Y0081665D01*
X0294330Y0081541D01*
X0294316Y0081419D01*
X0294299Y0081296D01*
X0294277Y0081174D01*
X0294252Y0081053D01*
X0294223Y0080933D01*
X0294191Y0080814D01*
X0294154Y0080695D01*
X0294114Y0080578D01*
X0294071Y0080463D01*
X0294023Y0080348D01*
X0293972Y0080236D01*
X0293918Y0080125D01*
X0293860Y0080015D01*
X0293799Y0079908D01*
X0293734Y0079802D01*
X0293666Y0079699D01*
X0293595Y0079598D01*
X0293521Y0079499D01*
X0293444Y0079402D01*
X0293363Y0079308D01*
X0293280Y0079217D01*
X0293194Y0079128D01*
X0293105Y0079042D01*
X0293014Y0078959D01*
X0292920Y0078878D01*
X0292823Y0078801D01*
X0292724Y0078727D01*
X0292623Y0078656D01*
X0292520Y0078588D01*
X0292414Y0078523D01*
X0292307Y0078462D01*
X0292197Y0078404D01*
X0292086Y0078350D01*
X0291974Y0078299D01*
X0291859Y0078251D01*
X0291744Y0078208D01*
X0291627Y0078168D01*
X0291508Y0078131D01*
X0291389Y0078099D01*
X0291269Y0078070D01*
X0291148Y0078045D01*
X0291026Y0078023D01*
X0290903Y0078006D01*
X0290781Y0077992D01*
X0290657Y0077983D01*
X0290534Y0077977D01*
X0290410Y0077975D01*
X0223481Y0077975D01*
X0223357Y0077973D01*
X0223234Y0077967D01*
X0223110Y0077958D01*
X0222988Y0077944D01*
X0222865Y0077927D01*
X0222743Y0077905D01*
X0222622Y0077880D01*
X0222502Y0077851D01*
X0222383Y0077819D01*
X0222264Y0077782D01*
X0222147Y0077742D01*
X0222032Y0077699D01*
X0221917Y0077651D01*
X0221805Y0077600D01*
X0221694Y0077546D01*
X0221584Y0077488D01*
X0221477Y0077427D01*
X0221371Y0077362D01*
X0221268Y0077294D01*
X0221167Y0077223D01*
X0221068Y0077149D01*
X0220971Y0077072D01*
X0220877Y0076991D01*
X0220786Y0076908D01*
X0220697Y0076822D01*
X0220611Y0076733D01*
X0220528Y0076642D01*
X0220447Y0076548D01*
X0220370Y0076451D01*
X0220296Y0076352D01*
X0220225Y0076251D01*
X0220157Y0076148D01*
X0220092Y0076042D01*
X0220031Y0075935D01*
X0219973Y0075825D01*
X0219919Y0075714D01*
X0219868Y0075602D01*
X0219820Y0075487D01*
X0219777Y0075372D01*
X0219737Y0075255D01*
X0219700Y0075136D01*
X0219668Y0075017D01*
X0219639Y0074897D01*
X0219614Y0074776D01*
X0219592Y0074654D01*
X0219575Y0074531D01*
X0219561Y0074409D01*
X0219552Y0074285D01*
X0219546Y0074162D01*
X0219544Y0074038D01*
X0219544Y0015180D01*
X0219542Y0015056D01*
X0219536Y0014933D01*
X0219527Y0014809D01*
X0219513Y0014687D01*
X0219496Y0014564D01*
X0219474Y0014442D01*
X0219449Y0014321D01*
X0219420Y0014201D01*
X0219388Y0014082D01*
X0219351Y0013963D01*
X0219311Y0013846D01*
X0219268Y0013731D01*
X0219220Y0013616D01*
X0219169Y0013504D01*
X0219115Y0013393D01*
X0219057Y0013283D01*
X0218996Y0013176D01*
X0218931Y0013070D01*
X0218863Y0012967D01*
X0218792Y0012866D01*
X0218718Y0012767D01*
X0218641Y0012670D01*
X0218560Y0012576D01*
X0218477Y0012485D01*
X0218391Y0012396D01*
X0218302Y0012310D01*
X0218211Y0012227D01*
X0218117Y0012146D01*
X0218020Y0012069D01*
X0217921Y0011995D01*
X0217820Y0011924D01*
X0217717Y0011856D01*
X0217611Y0011791D01*
X0217504Y0011730D01*
X0217394Y0011672D01*
X0217283Y0011618D01*
X0217171Y0011567D01*
X0217056Y0011519D01*
X0216941Y0011476D01*
X0216824Y0011436D01*
X0216705Y0011399D01*
X0216586Y0011367D01*
X0216466Y0011338D01*
X0216345Y0011313D01*
X0216223Y0011291D01*
X0216100Y0011274D01*
X0215978Y0011260D01*
X0215854Y0011251D01*
X0215731Y0011245D01*
X0215607Y0011243D01*
X0191985Y0011243D01*
X0191861Y0011245D01*
X0191738Y0011251D01*
X0191614Y0011260D01*
X0191492Y0011274D01*
X0191369Y0011291D01*
X0191247Y0011313D01*
X0191126Y0011338D01*
X0191006Y0011367D01*
X0190887Y0011399D01*
X0190768Y0011436D01*
X0190651Y0011476D01*
X0190536Y0011519D01*
X0190421Y0011567D01*
X0190309Y0011618D01*
X0190198Y0011672D01*
X0190088Y0011730D01*
X0189981Y0011791D01*
X0189875Y0011856D01*
X0189772Y0011924D01*
X0189671Y0011995D01*
X0189572Y0012069D01*
X0189475Y0012146D01*
X0189381Y0012227D01*
X0189290Y0012310D01*
X0189201Y0012396D01*
X0189115Y0012485D01*
X0189032Y0012576D01*
X0188951Y0012670D01*
X0188874Y0012767D01*
X0188800Y0012866D01*
X0188729Y0012967D01*
X0188661Y0013070D01*
X0188596Y0013176D01*
X0188535Y0013283D01*
X0188477Y0013393D01*
X0188423Y0013504D01*
X0188372Y0013616D01*
X0188324Y0013731D01*
X0188281Y0013846D01*
X0188241Y0013963D01*
X0188204Y0014082D01*
X0188172Y0014201D01*
X0188143Y0014321D01*
X0188118Y0014442D01*
X0188096Y0014564D01*
X0188079Y0014687D01*
X0188065Y0014809D01*
X0188056Y0014933D01*
X0188050Y0015056D01*
X0188048Y0015180D01*
X0188048Y0018132D01*
X0160489Y0018132D01*
X0160489Y0015180D01*
X0160487Y0015056D01*
X0160481Y0014933D01*
X0160472Y0014809D01*
X0160458Y0014687D01*
X0160441Y0014564D01*
X0160419Y0014442D01*
X0160394Y0014321D01*
X0160365Y0014201D01*
X0160333Y0014082D01*
X0160296Y0013963D01*
X0160256Y0013846D01*
X0160213Y0013731D01*
X0160165Y0013616D01*
X0160114Y0013504D01*
X0160060Y0013393D01*
X0160002Y0013283D01*
X0159941Y0013176D01*
X0159876Y0013070D01*
X0159808Y0012967D01*
X0159737Y0012866D01*
X0159663Y0012767D01*
X0159586Y0012670D01*
X0159505Y0012576D01*
X0159422Y0012485D01*
X0159336Y0012396D01*
X0159247Y0012310D01*
X0159156Y0012227D01*
X0159062Y0012146D01*
X0158965Y0012069D01*
X0158866Y0011995D01*
X0158765Y0011924D01*
X0158662Y0011856D01*
X0158556Y0011791D01*
X0158449Y0011730D01*
X0158339Y0011672D01*
X0158228Y0011618D01*
X0158116Y0011567D01*
X0158001Y0011519D01*
X0157886Y0011476D01*
X0157769Y0011436D01*
X0157650Y0011399D01*
X0157531Y0011367D01*
X0157411Y0011338D01*
X0157290Y0011313D01*
X0157168Y0011291D01*
X0157045Y0011274D01*
X0156923Y0011260D01*
X0156799Y0011251D01*
X0156676Y0011245D01*
X0156552Y0011243D01*
X0024662Y0011243D01*
X0024538Y0011245D01*
X0024415Y0011251D01*
X0024291Y0011260D01*
X0024169Y0011274D01*
X0024046Y0011291D01*
X0023924Y0011313D01*
X0023803Y0011338D01*
X0023683Y0011367D01*
X0023564Y0011399D01*
X0023445Y0011436D01*
X0023328Y0011476D01*
X0023213Y0011519D01*
X0023098Y0011567D01*
X0022986Y0011618D01*
X0022875Y0011672D01*
X0022765Y0011730D01*
X0022658Y0011791D01*
X0022552Y0011856D01*
X0022449Y0011924D01*
X0022348Y0011995D01*
X0022249Y0012069D01*
X0022152Y0012146D01*
X0022058Y0012227D01*
X0021967Y0012310D01*
X0021878Y0012396D01*
X0021792Y0012485D01*
X0021709Y0012576D01*
X0021628Y0012670D01*
X0021551Y0012767D01*
X0021477Y0012866D01*
X0021406Y0012967D01*
X0021338Y0013070D01*
X0021273Y0013176D01*
X0021212Y0013283D01*
X0021154Y0013393D01*
X0021100Y0013504D01*
X0021049Y0013616D01*
X0021001Y0013731D01*
X0020958Y0013846D01*
X0020918Y0013963D01*
X0020881Y0014082D01*
X0020849Y0014201D01*
X0020820Y0014321D01*
X0020795Y0014442D01*
X0020773Y0014564D01*
X0020756Y0014687D01*
X0020742Y0014809D01*
X0020733Y0014933D01*
X0020727Y0015056D01*
X0020725Y0015180D01*
X0152615Y0017148D02*
X0152617Y0017245D01*
X0152623Y0017342D01*
X0152633Y0017438D01*
X0152647Y0017534D01*
X0152665Y0017630D01*
X0152686Y0017724D01*
X0152712Y0017818D01*
X0152741Y0017910D01*
X0152775Y0018001D01*
X0152811Y0018091D01*
X0152852Y0018179D01*
X0152896Y0018265D01*
X0152944Y0018350D01*
X0152995Y0018432D01*
X0153049Y0018513D01*
X0153107Y0018591D01*
X0153168Y0018666D01*
X0153231Y0018739D01*
X0153298Y0018810D01*
X0153368Y0018877D01*
X0153440Y0018942D01*
X0153515Y0019003D01*
X0153593Y0019062D01*
X0153672Y0019117D01*
X0153754Y0019169D01*
X0153838Y0019217D01*
X0153924Y0019262D01*
X0154012Y0019304D01*
X0154101Y0019342D01*
X0154192Y0019376D01*
X0154284Y0019406D01*
X0154377Y0019433D01*
X0154472Y0019455D01*
X0154567Y0019474D01*
X0154663Y0019489D01*
X0154759Y0019500D01*
X0154856Y0019507D01*
X0154953Y0019510D01*
X0155050Y0019509D01*
X0155147Y0019504D01*
X0155243Y0019495D01*
X0155339Y0019482D01*
X0155435Y0019465D01*
X0155530Y0019444D01*
X0155623Y0019420D01*
X0155716Y0019391D01*
X0155808Y0019359D01*
X0155898Y0019323D01*
X0155986Y0019284D01*
X0156073Y0019240D01*
X0156158Y0019194D01*
X0156241Y0019143D01*
X0156322Y0019090D01*
X0156400Y0019033D01*
X0156477Y0018973D01*
X0156550Y0018910D01*
X0156621Y0018844D01*
X0156689Y0018775D01*
X0156755Y0018703D01*
X0156817Y0018629D01*
X0156876Y0018552D01*
X0156932Y0018473D01*
X0156985Y0018391D01*
X0157035Y0018308D01*
X0157080Y0018222D01*
X0157123Y0018135D01*
X0157162Y0018046D01*
X0157197Y0017956D01*
X0157228Y0017864D01*
X0157255Y0017771D01*
X0157279Y0017677D01*
X0157299Y0017582D01*
X0157315Y0017486D01*
X0157327Y0017390D01*
X0157335Y0017293D01*
X0157339Y0017196D01*
X0157339Y0017100D01*
X0157335Y0017003D01*
X0157327Y0016906D01*
X0157315Y0016810D01*
X0157299Y0016714D01*
X0157279Y0016619D01*
X0157255Y0016525D01*
X0157228Y0016432D01*
X0157197Y0016340D01*
X0157162Y0016250D01*
X0157123Y0016161D01*
X0157080Y0016074D01*
X0157035Y0015988D01*
X0156985Y0015905D01*
X0156932Y0015823D01*
X0156876Y0015744D01*
X0156817Y0015667D01*
X0156755Y0015593D01*
X0156689Y0015521D01*
X0156621Y0015452D01*
X0156550Y0015386D01*
X0156477Y0015323D01*
X0156400Y0015263D01*
X0156322Y0015206D01*
X0156241Y0015153D01*
X0156158Y0015102D01*
X0156073Y0015056D01*
X0155986Y0015012D01*
X0155898Y0014973D01*
X0155808Y0014937D01*
X0155716Y0014905D01*
X0155623Y0014876D01*
X0155530Y0014852D01*
X0155435Y0014831D01*
X0155339Y0014814D01*
X0155243Y0014801D01*
X0155147Y0014792D01*
X0155050Y0014787D01*
X0154953Y0014786D01*
X0154856Y0014789D01*
X0154759Y0014796D01*
X0154663Y0014807D01*
X0154567Y0014822D01*
X0154472Y0014841D01*
X0154377Y0014863D01*
X0154284Y0014890D01*
X0154192Y0014920D01*
X0154101Y0014954D01*
X0154012Y0014992D01*
X0153924Y0015034D01*
X0153838Y0015079D01*
X0153754Y0015127D01*
X0153672Y0015179D01*
X0153593Y0015234D01*
X0153515Y0015293D01*
X0153440Y0015354D01*
X0153368Y0015419D01*
X0153298Y0015486D01*
X0153231Y0015557D01*
X0153168Y0015630D01*
X0153107Y0015705D01*
X0153049Y0015783D01*
X0152995Y0015864D01*
X0152944Y0015946D01*
X0152896Y0016031D01*
X0152852Y0016117D01*
X0152811Y0016205D01*
X0152775Y0016295D01*
X0152741Y0016386D01*
X0152712Y0016478D01*
X0152686Y0016572D01*
X0152665Y0016666D01*
X0152647Y0016762D01*
X0152633Y0016858D01*
X0152623Y0016954D01*
X0152617Y0017051D01*
X0152615Y0017148D01*
X0152615Y0026991D02*
X0152617Y0027088D01*
X0152623Y0027185D01*
X0152633Y0027281D01*
X0152647Y0027377D01*
X0152665Y0027473D01*
X0152686Y0027567D01*
X0152712Y0027661D01*
X0152741Y0027753D01*
X0152775Y0027844D01*
X0152811Y0027934D01*
X0152852Y0028022D01*
X0152896Y0028108D01*
X0152944Y0028193D01*
X0152995Y0028275D01*
X0153049Y0028356D01*
X0153107Y0028434D01*
X0153168Y0028509D01*
X0153231Y0028582D01*
X0153298Y0028653D01*
X0153368Y0028720D01*
X0153440Y0028785D01*
X0153515Y0028846D01*
X0153593Y0028905D01*
X0153672Y0028960D01*
X0153754Y0029012D01*
X0153838Y0029060D01*
X0153924Y0029105D01*
X0154012Y0029147D01*
X0154101Y0029185D01*
X0154192Y0029219D01*
X0154284Y0029249D01*
X0154377Y0029276D01*
X0154472Y0029298D01*
X0154567Y0029317D01*
X0154663Y0029332D01*
X0154759Y0029343D01*
X0154856Y0029350D01*
X0154953Y0029353D01*
X0155050Y0029352D01*
X0155147Y0029347D01*
X0155243Y0029338D01*
X0155339Y0029325D01*
X0155435Y0029308D01*
X0155530Y0029287D01*
X0155623Y0029263D01*
X0155716Y0029234D01*
X0155808Y0029202D01*
X0155898Y0029166D01*
X0155986Y0029127D01*
X0156073Y0029083D01*
X0156158Y0029037D01*
X0156241Y0028986D01*
X0156322Y0028933D01*
X0156400Y0028876D01*
X0156477Y0028816D01*
X0156550Y0028753D01*
X0156621Y0028687D01*
X0156689Y0028618D01*
X0156755Y0028546D01*
X0156817Y0028472D01*
X0156876Y0028395D01*
X0156932Y0028316D01*
X0156985Y0028234D01*
X0157035Y0028151D01*
X0157080Y0028065D01*
X0157123Y0027978D01*
X0157162Y0027889D01*
X0157197Y0027799D01*
X0157228Y0027707D01*
X0157255Y0027614D01*
X0157279Y0027520D01*
X0157299Y0027425D01*
X0157315Y0027329D01*
X0157327Y0027233D01*
X0157335Y0027136D01*
X0157339Y0027039D01*
X0157339Y0026943D01*
X0157335Y0026846D01*
X0157327Y0026749D01*
X0157315Y0026653D01*
X0157299Y0026557D01*
X0157279Y0026462D01*
X0157255Y0026368D01*
X0157228Y0026275D01*
X0157197Y0026183D01*
X0157162Y0026093D01*
X0157123Y0026004D01*
X0157080Y0025917D01*
X0157035Y0025831D01*
X0156985Y0025748D01*
X0156932Y0025666D01*
X0156876Y0025587D01*
X0156817Y0025510D01*
X0156755Y0025436D01*
X0156689Y0025364D01*
X0156621Y0025295D01*
X0156550Y0025229D01*
X0156477Y0025166D01*
X0156400Y0025106D01*
X0156322Y0025049D01*
X0156241Y0024996D01*
X0156158Y0024945D01*
X0156073Y0024899D01*
X0155986Y0024855D01*
X0155898Y0024816D01*
X0155808Y0024780D01*
X0155716Y0024748D01*
X0155623Y0024719D01*
X0155530Y0024695D01*
X0155435Y0024674D01*
X0155339Y0024657D01*
X0155243Y0024644D01*
X0155147Y0024635D01*
X0155050Y0024630D01*
X0154953Y0024629D01*
X0154856Y0024632D01*
X0154759Y0024639D01*
X0154663Y0024650D01*
X0154567Y0024665D01*
X0154472Y0024684D01*
X0154377Y0024706D01*
X0154284Y0024733D01*
X0154192Y0024763D01*
X0154101Y0024797D01*
X0154012Y0024835D01*
X0153924Y0024877D01*
X0153838Y0024922D01*
X0153754Y0024970D01*
X0153672Y0025022D01*
X0153593Y0025077D01*
X0153515Y0025136D01*
X0153440Y0025197D01*
X0153368Y0025262D01*
X0153298Y0025329D01*
X0153231Y0025400D01*
X0153168Y0025473D01*
X0153107Y0025548D01*
X0153049Y0025626D01*
X0152995Y0025707D01*
X0152944Y0025789D01*
X0152896Y0025874D01*
X0152852Y0025960D01*
X0152811Y0026048D01*
X0152775Y0026138D01*
X0152741Y0026229D01*
X0152712Y0026321D01*
X0152686Y0026415D01*
X0152665Y0026509D01*
X0152647Y0026605D01*
X0152633Y0026701D01*
X0152623Y0026797D01*
X0152617Y0026894D01*
X0152615Y0026991D01*
X0172300Y0046676D02*
X0172302Y0046773D01*
X0172308Y0046870D01*
X0172318Y0046966D01*
X0172332Y0047062D01*
X0172350Y0047158D01*
X0172371Y0047252D01*
X0172397Y0047346D01*
X0172426Y0047438D01*
X0172460Y0047529D01*
X0172496Y0047619D01*
X0172537Y0047707D01*
X0172581Y0047793D01*
X0172629Y0047878D01*
X0172680Y0047960D01*
X0172734Y0048041D01*
X0172792Y0048119D01*
X0172853Y0048194D01*
X0172916Y0048267D01*
X0172983Y0048338D01*
X0173053Y0048405D01*
X0173125Y0048470D01*
X0173200Y0048531D01*
X0173278Y0048590D01*
X0173357Y0048645D01*
X0173439Y0048697D01*
X0173523Y0048745D01*
X0173609Y0048790D01*
X0173697Y0048832D01*
X0173786Y0048870D01*
X0173877Y0048904D01*
X0173969Y0048934D01*
X0174062Y0048961D01*
X0174157Y0048983D01*
X0174252Y0049002D01*
X0174348Y0049017D01*
X0174444Y0049028D01*
X0174541Y0049035D01*
X0174638Y0049038D01*
X0174735Y0049037D01*
X0174832Y0049032D01*
X0174928Y0049023D01*
X0175024Y0049010D01*
X0175120Y0048993D01*
X0175215Y0048972D01*
X0175308Y0048948D01*
X0175401Y0048919D01*
X0175493Y0048887D01*
X0175583Y0048851D01*
X0175671Y0048812D01*
X0175758Y0048768D01*
X0175843Y0048722D01*
X0175926Y0048671D01*
X0176007Y0048618D01*
X0176085Y0048561D01*
X0176162Y0048501D01*
X0176235Y0048438D01*
X0176306Y0048372D01*
X0176374Y0048303D01*
X0176440Y0048231D01*
X0176502Y0048157D01*
X0176561Y0048080D01*
X0176617Y0048001D01*
X0176670Y0047919D01*
X0176720Y0047836D01*
X0176765Y0047750D01*
X0176808Y0047663D01*
X0176847Y0047574D01*
X0176882Y0047484D01*
X0176913Y0047392D01*
X0176940Y0047299D01*
X0176964Y0047205D01*
X0176984Y0047110D01*
X0177000Y0047014D01*
X0177012Y0046918D01*
X0177020Y0046821D01*
X0177024Y0046724D01*
X0177024Y0046628D01*
X0177020Y0046531D01*
X0177012Y0046434D01*
X0177000Y0046338D01*
X0176984Y0046242D01*
X0176964Y0046147D01*
X0176940Y0046053D01*
X0176913Y0045960D01*
X0176882Y0045868D01*
X0176847Y0045778D01*
X0176808Y0045689D01*
X0176765Y0045602D01*
X0176720Y0045516D01*
X0176670Y0045433D01*
X0176617Y0045351D01*
X0176561Y0045272D01*
X0176502Y0045195D01*
X0176440Y0045121D01*
X0176374Y0045049D01*
X0176306Y0044980D01*
X0176235Y0044914D01*
X0176162Y0044851D01*
X0176085Y0044791D01*
X0176007Y0044734D01*
X0175926Y0044681D01*
X0175843Y0044630D01*
X0175758Y0044584D01*
X0175671Y0044540D01*
X0175583Y0044501D01*
X0175493Y0044465D01*
X0175401Y0044433D01*
X0175308Y0044404D01*
X0175215Y0044380D01*
X0175120Y0044359D01*
X0175024Y0044342D01*
X0174928Y0044329D01*
X0174832Y0044320D01*
X0174735Y0044315D01*
X0174638Y0044314D01*
X0174541Y0044317D01*
X0174444Y0044324D01*
X0174348Y0044335D01*
X0174252Y0044350D01*
X0174157Y0044369D01*
X0174062Y0044391D01*
X0173969Y0044418D01*
X0173877Y0044448D01*
X0173786Y0044482D01*
X0173697Y0044520D01*
X0173609Y0044562D01*
X0173523Y0044607D01*
X0173439Y0044655D01*
X0173357Y0044707D01*
X0173278Y0044762D01*
X0173200Y0044821D01*
X0173125Y0044882D01*
X0173053Y0044947D01*
X0172983Y0045014D01*
X0172916Y0045085D01*
X0172853Y0045158D01*
X0172792Y0045233D01*
X0172734Y0045311D01*
X0172680Y0045392D01*
X0172629Y0045474D01*
X0172581Y0045559D01*
X0172537Y0045645D01*
X0172496Y0045733D01*
X0172460Y0045823D01*
X0172426Y0045914D01*
X0172397Y0046006D01*
X0172371Y0046100D01*
X0172350Y0046194D01*
X0172332Y0046290D01*
X0172318Y0046386D01*
X0172308Y0046482D01*
X0172302Y0046579D01*
X0172300Y0046676D01*
X0191985Y0026991D02*
X0191987Y0027088D01*
X0191993Y0027185D01*
X0192003Y0027281D01*
X0192017Y0027377D01*
X0192035Y0027473D01*
X0192056Y0027567D01*
X0192082Y0027661D01*
X0192111Y0027753D01*
X0192145Y0027844D01*
X0192181Y0027934D01*
X0192222Y0028022D01*
X0192266Y0028108D01*
X0192314Y0028193D01*
X0192365Y0028275D01*
X0192419Y0028356D01*
X0192477Y0028434D01*
X0192538Y0028509D01*
X0192601Y0028582D01*
X0192668Y0028653D01*
X0192738Y0028720D01*
X0192810Y0028785D01*
X0192885Y0028846D01*
X0192963Y0028905D01*
X0193042Y0028960D01*
X0193124Y0029012D01*
X0193208Y0029060D01*
X0193294Y0029105D01*
X0193382Y0029147D01*
X0193471Y0029185D01*
X0193562Y0029219D01*
X0193654Y0029249D01*
X0193747Y0029276D01*
X0193842Y0029298D01*
X0193937Y0029317D01*
X0194033Y0029332D01*
X0194129Y0029343D01*
X0194226Y0029350D01*
X0194323Y0029353D01*
X0194420Y0029352D01*
X0194517Y0029347D01*
X0194613Y0029338D01*
X0194709Y0029325D01*
X0194805Y0029308D01*
X0194900Y0029287D01*
X0194993Y0029263D01*
X0195086Y0029234D01*
X0195178Y0029202D01*
X0195268Y0029166D01*
X0195356Y0029127D01*
X0195443Y0029083D01*
X0195528Y0029037D01*
X0195611Y0028986D01*
X0195692Y0028933D01*
X0195770Y0028876D01*
X0195847Y0028816D01*
X0195920Y0028753D01*
X0195991Y0028687D01*
X0196059Y0028618D01*
X0196125Y0028546D01*
X0196187Y0028472D01*
X0196246Y0028395D01*
X0196302Y0028316D01*
X0196355Y0028234D01*
X0196405Y0028151D01*
X0196450Y0028065D01*
X0196493Y0027978D01*
X0196532Y0027889D01*
X0196567Y0027799D01*
X0196598Y0027707D01*
X0196625Y0027614D01*
X0196649Y0027520D01*
X0196669Y0027425D01*
X0196685Y0027329D01*
X0196697Y0027233D01*
X0196705Y0027136D01*
X0196709Y0027039D01*
X0196709Y0026943D01*
X0196705Y0026846D01*
X0196697Y0026749D01*
X0196685Y0026653D01*
X0196669Y0026557D01*
X0196649Y0026462D01*
X0196625Y0026368D01*
X0196598Y0026275D01*
X0196567Y0026183D01*
X0196532Y0026093D01*
X0196493Y0026004D01*
X0196450Y0025917D01*
X0196405Y0025831D01*
X0196355Y0025748D01*
X0196302Y0025666D01*
X0196246Y0025587D01*
X0196187Y0025510D01*
X0196125Y0025436D01*
X0196059Y0025364D01*
X0195991Y0025295D01*
X0195920Y0025229D01*
X0195847Y0025166D01*
X0195770Y0025106D01*
X0195692Y0025049D01*
X0195611Y0024996D01*
X0195528Y0024945D01*
X0195443Y0024899D01*
X0195356Y0024855D01*
X0195268Y0024816D01*
X0195178Y0024780D01*
X0195086Y0024748D01*
X0194993Y0024719D01*
X0194900Y0024695D01*
X0194805Y0024674D01*
X0194709Y0024657D01*
X0194613Y0024644D01*
X0194517Y0024635D01*
X0194420Y0024630D01*
X0194323Y0024629D01*
X0194226Y0024632D01*
X0194129Y0024639D01*
X0194033Y0024650D01*
X0193937Y0024665D01*
X0193842Y0024684D01*
X0193747Y0024706D01*
X0193654Y0024733D01*
X0193562Y0024763D01*
X0193471Y0024797D01*
X0193382Y0024835D01*
X0193294Y0024877D01*
X0193208Y0024922D01*
X0193124Y0024970D01*
X0193042Y0025022D01*
X0192963Y0025077D01*
X0192885Y0025136D01*
X0192810Y0025197D01*
X0192738Y0025262D01*
X0192668Y0025329D01*
X0192601Y0025400D01*
X0192538Y0025473D01*
X0192477Y0025548D01*
X0192419Y0025626D01*
X0192365Y0025707D01*
X0192314Y0025789D01*
X0192266Y0025874D01*
X0192222Y0025960D01*
X0192181Y0026048D01*
X0192145Y0026138D01*
X0192111Y0026229D01*
X0192082Y0026321D01*
X0192056Y0026415D01*
X0192035Y0026509D01*
X0192017Y0026605D01*
X0192003Y0026701D01*
X0191993Y0026797D01*
X0191987Y0026894D01*
X0191985Y0026991D01*
X0191985Y0017148D02*
X0191987Y0017245D01*
X0191993Y0017342D01*
X0192003Y0017438D01*
X0192017Y0017534D01*
X0192035Y0017630D01*
X0192056Y0017724D01*
X0192082Y0017818D01*
X0192111Y0017910D01*
X0192145Y0018001D01*
X0192181Y0018091D01*
X0192222Y0018179D01*
X0192266Y0018265D01*
X0192314Y0018350D01*
X0192365Y0018432D01*
X0192419Y0018513D01*
X0192477Y0018591D01*
X0192538Y0018666D01*
X0192601Y0018739D01*
X0192668Y0018810D01*
X0192738Y0018877D01*
X0192810Y0018942D01*
X0192885Y0019003D01*
X0192963Y0019062D01*
X0193042Y0019117D01*
X0193124Y0019169D01*
X0193208Y0019217D01*
X0193294Y0019262D01*
X0193382Y0019304D01*
X0193471Y0019342D01*
X0193562Y0019376D01*
X0193654Y0019406D01*
X0193747Y0019433D01*
X0193842Y0019455D01*
X0193937Y0019474D01*
X0194033Y0019489D01*
X0194129Y0019500D01*
X0194226Y0019507D01*
X0194323Y0019510D01*
X0194420Y0019509D01*
X0194517Y0019504D01*
X0194613Y0019495D01*
X0194709Y0019482D01*
X0194805Y0019465D01*
X0194900Y0019444D01*
X0194993Y0019420D01*
X0195086Y0019391D01*
X0195178Y0019359D01*
X0195268Y0019323D01*
X0195356Y0019284D01*
X0195443Y0019240D01*
X0195528Y0019194D01*
X0195611Y0019143D01*
X0195692Y0019090D01*
X0195770Y0019033D01*
X0195847Y0018973D01*
X0195920Y0018910D01*
X0195991Y0018844D01*
X0196059Y0018775D01*
X0196125Y0018703D01*
X0196187Y0018629D01*
X0196246Y0018552D01*
X0196302Y0018473D01*
X0196355Y0018391D01*
X0196405Y0018308D01*
X0196450Y0018222D01*
X0196493Y0018135D01*
X0196532Y0018046D01*
X0196567Y0017956D01*
X0196598Y0017864D01*
X0196625Y0017771D01*
X0196649Y0017677D01*
X0196669Y0017582D01*
X0196685Y0017486D01*
X0196697Y0017390D01*
X0196705Y0017293D01*
X0196709Y0017196D01*
X0196709Y0017100D01*
X0196705Y0017003D01*
X0196697Y0016906D01*
X0196685Y0016810D01*
X0196669Y0016714D01*
X0196649Y0016619D01*
X0196625Y0016525D01*
X0196598Y0016432D01*
X0196567Y0016340D01*
X0196532Y0016250D01*
X0196493Y0016161D01*
X0196450Y0016074D01*
X0196405Y0015988D01*
X0196355Y0015905D01*
X0196302Y0015823D01*
X0196246Y0015744D01*
X0196187Y0015667D01*
X0196125Y0015593D01*
X0196059Y0015521D01*
X0195991Y0015452D01*
X0195920Y0015386D01*
X0195847Y0015323D01*
X0195770Y0015263D01*
X0195692Y0015206D01*
X0195611Y0015153D01*
X0195528Y0015102D01*
X0195443Y0015056D01*
X0195356Y0015012D01*
X0195268Y0014973D01*
X0195178Y0014937D01*
X0195086Y0014905D01*
X0194993Y0014876D01*
X0194900Y0014852D01*
X0194805Y0014831D01*
X0194709Y0014814D01*
X0194613Y0014801D01*
X0194517Y0014792D01*
X0194420Y0014787D01*
X0194323Y0014786D01*
X0194226Y0014789D01*
X0194129Y0014796D01*
X0194033Y0014807D01*
X0193937Y0014822D01*
X0193842Y0014841D01*
X0193747Y0014863D01*
X0193654Y0014890D01*
X0193562Y0014920D01*
X0193471Y0014954D01*
X0193382Y0014992D01*
X0193294Y0015034D01*
X0193208Y0015079D01*
X0193124Y0015127D01*
X0193042Y0015179D01*
X0192963Y0015234D01*
X0192885Y0015293D01*
X0192810Y0015354D01*
X0192738Y0015419D01*
X0192668Y0015486D01*
X0192601Y0015557D01*
X0192538Y0015630D01*
X0192477Y0015705D01*
X0192419Y0015783D01*
X0192365Y0015864D01*
X0192314Y0015946D01*
X0192266Y0016031D01*
X0192222Y0016117D01*
X0192181Y0016205D01*
X0192145Y0016295D01*
X0192111Y0016386D01*
X0192082Y0016478D01*
X0192056Y0016572D01*
X0192035Y0016666D01*
X0192017Y0016762D01*
X0192003Y0016858D01*
X0191993Y0016954D01*
X0191987Y0017051D01*
X0191985Y0017148D01*
X0153875Y0122306D02*
X0153877Y0122403D01*
X0153883Y0122500D01*
X0153893Y0122596D01*
X0153907Y0122692D01*
X0153925Y0122788D01*
X0153946Y0122882D01*
X0153972Y0122976D01*
X0154001Y0123068D01*
X0154035Y0123159D01*
X0154071Y0123249D01*
X0154112Y0123337D01*
X0154156Y0123423D01*
X0154204Y0123508D01*
X0154255Y0123590D01*
X0154309Y0123671D01*
X0154367Y0123749D01*
X0154428Y0123824D01*
X0154491Y0123897D01*
X0154558Y0123968D01*
X0154628Y0124035D01*
X0154700Y0124100D01*
X0154775Y0124161D01*
X0154853Y0124220D01*
X0154932Y0124275D01*
X0155014Y0124327D01*
X0155098Y0124375D01*
X0155184Y0124420D01*
X0155272Y0124462D01*
X0155361Y0124500D01*
X0155452Y0124534D01*
X0155544Y0124564D01*
X0155637Y0124591D01*
X0155732Y0124613D01*
X0155827Y0124632D01*
X0155923Y0124647D01*
X0156019Y0124658D01*
X0156116Y0124665D01*
X0156213Y0124668D01*
X0156310Y0124667D01*
X0156407Y0124662D01*
X0156503Y0124653D01*
X0156599Y0124640D01*
X0156695Y0124623D01*
X0156790Y0124602D01*
X0156883Y0124578D01*
X0156976Y0124549D01*
X0157068Y0124517D01*
X0157158Y0124481D01*
X0157246Y0124442D01*
X0157333Y0124398D01*
X0157418Y0124352D01*
X0157501Y0124301D01*
X0157582Y0124248D01*
X0157660Y0124191D01*
X0157737Y0124131D01*
X0157810Y0124068D01*
X0157881Y0124002D01*
X0157949Y0123933D01*
X0158015Y0123861D01*
X0158077Y0123787D01*
X0158136Y0123710D01*
X0158192Y0123631D01*
X0158245Y0123549D01*
X0158295Y0123466D01*
X0158340Y0123380D01*
X0158383Y0123293D01*
X0158422Y0123204D01*
X0158457Y0123114D01*
X0158488Y0123022D01*
X0158515Y0122929D01*
X0158539Y0122835D01*
X0158559Y0122740D01*
X0158575Y0122644D01*
X0158587Y0122548D01*
X0158595Y0122451D01*
X0158599Y0122354D01*
X0158599Y0122258D01*
X0158595Y0122161D01*
X0158587Y0122064D01*
X0158575Y0121968D01*
X0158559Y0121872D01*
X0158539Y0121777D01*
X0158515Y0121683D01*
X0158488Y0121590D01*
X0158457Y0121498D01*
X0158422Y0121408D01*
X0158383Y0121319D01*
X0158340Y0121232D01*
X0158295Y0121146D01*
X0158245Y0121063D01*
X0158192Y0120981D01*
X0158136Y0120902D01*
X0158077Y0120825D01*
X0158015Y0120751D01*
X0157949Y0120679D01*
X0157881Y0120610D01*
X0157810Y0120544D01*
X0157737Y0120481D01*
X0157660Y0120421D01*
X0157582Y0120364D01*
X0157501Y0120311D01*
X0157418Y0120260D01*
X0157333Y0120214D01*
X0157246Y0120170D01*
X0157158Y0120131D01*
X0157068Y0120095D01*
X0156976Y0120063D01*
X0156883Y0120034D01*
X0156790Y0120010D01*
X0156695Y0119989D01*
X0156599Y0119972D01*
X0156503Y0119959D01*
X0156407Y0119950D01*
X0156310Y0119945D01*
X0156213Y0119944D01*
X0156116Y0119947D01*
X0156019Y0119954D01*
X0155923Y0119965D01*
X0155827Y0119980D01*
X0155732Y0119999D01*
X0155637Y0120021D01*
X0155544Y0120048D01*
X0155452Y0120078D01*
X0155361Y0120112D01*
X0155272Y0120150D01*
X0155184Y0120192D01*
X0155098Y0120237D01*
X0155014Y0120285D01*
X0154932Y0120337D01*
X0154853Y0120392D01*
X0154775Y0120451D01*
X0154700Y0120512D01*
X0154628Y0120577D01*
X0154558Y0120644D01*
X0154491Y0120715D01*
X0154428Y0120788D01*
X0154367Y0120863D01*
X0154309Y0120941D01*
X0154255Y0121022D01*
X0154204Y0121104D01*
X0154156Y0121189D01*
X0154112Y0121275D01*
X0154071Y0121363D01*
X0154035Y0121453D01*
X0154001Y0121544D01*
X0153972Y0121636D01*
X0153946Y0121730D01*
X0153925Y0121824D01*
X0153907Y0121920D01*
X0153893Y0122016D01*
X0153883Y0122112D01*
X0153877Y0122209D01*
X0153875Y0122306D01*
X0165686Y0181361D02*
X0165688Y0181458D01*
X0165694Y0181555D01*
X0165704Y0181651D01*
X0165718Y0181747D01*
X0165736Y0181843D01*
X0165757Y0181937D01*
X0165783Y0182031D01*
X0165812Y0182123D01*
X0165846Y0182214D01*
X0165882Y0182304D01*
X0165923Y0182392D01*
X0165967Y0182478D01*
X0166015Y0182563D01*
X0166066Y0182645D01*
X0166120Y0182726D01*
X0166178Y0182804D01*
X0166239Y0182879D01*
X0166302Y0182952D01*
X0166369Y0183023D01*
X0166439Y0183090D01*
X0166511Y0183155D01*
X0166586Y0183216D01*
X0166664Y0183275D01*
X0166743Y0183330D01*
X0166825Y0183382D01*
X0166909Y0183430D01*
X0166995Y0183475D01*
X0167083Y0183517D01*
X0167172Y0183555D01*
X0167263Y0183589D01*
X0167355Y0183619D01*
X0167448Y0183646D01*
X0167543Y0183668D01*
X0167638Y0183687D01*
X0167734Y0183702D01*
X0167830Y0183713D01*
X0167927Y0183720D01*
X0168024Y0183723D01*
X0168121Y0183722D01*
X0168218Y0183717D01*
X0168314Y0183708D01*
X0168410Y0183695D01*
X0168506Y0183678D01*
X0168601Y0183657D01*
X0168694Y0183633D01*
X0168787Y0183604D01*
X0168879Y0183572D01*
X0168969Y0183536D01*
X0169057Y0183497D01*
X0169144Y0183453D01*
X0169229Y0183407D01*
X0169312Y0183356D01*
X0169393Y0183303D01*
X0169471Y0183246D01*
X0169548Y0183186D01*
X0169621Y0183123D01*
X0169692Y0183057D01*
X0169760Y0182988D01*
X0169826Y0182916D01*
X0169888Y0182842D01*
X0169947Y0182765D01*
X0170003Y0182686D01*
X0170056Y0182604D01*
X0170106Y0182521D01*
X0170151Y0182435D01*
X0170194Y0182348D01*
X0170233Y0182259D01*
X0170268Y0182169D01*
X0170299Y0182077D01*
X0170326Y0181984D01*
X0170350Y0181890D01*
X0170370Y0181795D01*
X0170386Y0181699D01*
X0170398Y0181603D01*
X0170406Y0181506D01*
X0170410Y0181409D01*
X0170410Y0181313D01*
X0170406Y0181216D01*
X0170398Y0181119D01*
X0170386Y0181023D01*
X0170370Y0180927D01*
X0170350Y0180832D01*
X0170326Y0180738D01*
X0170299Y0180645D01*
X0170268Y0180553D01*
X0170233Y0180463D01*
X0170194Y0180374D01*
X0170151Y0180287D01*
X0170106Y0180201D01*
X0170056Y0180118D01*
X0170003Y0180036D01*
X0169947Y0179957D01*
X0169888Y0179880D01*
X0169826Y0179806D01*
X0169760Y0179734D01*
X0169692Y0179665D01*
X0169621Y0179599D01*
X0169548Y0179536D01*
X0169471Y0179476D01*
X0169393Y0179419D01*
X0169312Y0179366D01*
X0169229Y0179315D01*
X0169144Y0179269D01*
X0169057Y0179225D01*
X0168969Y0179186D01*
X0168879Y0179150D01*
X0168787Y0179118D01*
X0168694Y0179089D01*
X0168601Y0179065D01*
X0168506Y0179044D01*
X0168410Y0179027D01*
X0168314Y0179014D01*
X0168218Y0179005D01*
X0168121Y0179000D01*
X0168024Y0178999D01*
X0167927Y0179002D01*
X0167830Y0179009D01*
X0167734Y0179020D01*
X0167638Y0179035D01*
X0167543Y0179054D01*
X0167448Y0179076D01*
X0167355Y0179103D01*
X0167263Y0179133D01*
X0167172Y0179167D01*
X0167083Y0179205D01*
X0166995Y0179247D01*
X0166909Y0179292D01*
X0166825Y0179340D01*
X0166743Y0179392D01*
X0166664Y0179447D01*
X0166586Y0179506D01*
X0166511Y0179567D01*
X0166439Y0179632D01*
X0166369Y0179699D01*
X0166302Y0179770D01*
X0166239Y0179843D01*
X0166178Y0179918D01*
X0166120Y0179996D01*
X0166066Y0180077D01*
X0166015Y0180159D01*
X0165967Y0180244D01*
X0165923Y0180330D01*
X0165882Y0180418D01*
X0165846Y0180508D01*
X0165812Y0180599D01*
X0165783Y0180691D01*
X0165757Y0180785D01*
X0165736Y0180879D01*
X0165718Y0180975D01*
X0165704Y0181071D01*
X0165694Y0181167D01*
X0165688Y0181264D01*
X0165686Y0181361D01*
X0220804Y0204983D02*
X0220806Y0205080D01*
X0220812Y0205177D01*
X0220822Y0205273D01*
X0220836Y0205369D01*
X0220854Y0205465D01*
X0220875Y0205559D01*
X0220901Y0205653D01*
X0220930Y0205745D01*
X0220964Y0205836D01*
X0221000Y0205926D01*
X0221041Y0206014D01*
X0221085Y0206100D01*
X0221133Y0206185D01*
X0221184Y0206267D01*
X0221238Y0206348D01*
X0221296Y0206426D01*
X0221357Y0206501D01*
X0221420Y0206574D01*
X0221487Y0206645D01*
X0221557Y0206712D01*
X0221629Y0206777D01*
X0221704Y0206838D01*
X0221782Y0206897D01*
X0221861Y0206952D01*
X0221943Y0207004D01*
X0222027Y0207052D01*
X0222113Y0207097D01*
X0222201Y0207139D01*
X0222290Y0207177D01*
X0222381Y0207211D01*
X0222473Y0207241D01*
X0222566Y0207268D01*
X0222661Y0207290D01*
X0222756Y0207309D01*
X0222852Y0207324D01*
X0222948Y0207335D01*
X0223045Y0207342D01*
X0223142Y0207345D01*
X0223239Y0207344D01*
X0223336Y0207339D01*
X0223432Y0207330D01*
X0223528Y0207317D01*
X0223624Y0207300D01*
X0223719Y0207279D01*
X0223812Y0207255D01*
X0223905Y0207226D01*
X0223997Y0207194D01*
X0224087Y0207158D01*
X0224175Y0207119D01*
X0224262Y0207075D01*
X0224347Y0207029D01*
X0224430Y0206978D01*
X0224511Y0206925D01*
X0224589Y0206868D01*
X0224666Y0206808D01*
X0224739Y0206745D01*
X0224810Y0206679D01*
X0224878Y0206610D01*
X0224944Y0206538D01*
X0225006Y0206464D01*
X0225065Y0206387D01*
X0225121Y0206308D01*
X0225174Y0206226D01*
X0225224Y0206143D01*
X0225269Y0206057D01*
X0225312Y0205970D01*
X0225351Y0205881D01*
X0225386Y0205791D01*
X0225417Y0205699D01*
X0225444Y0205606D01*
X0225468Y0205512D01*
X0225488Y0205417D01*
X0225504Y0205321D01*
X0225516Y0205225D01*
X0225524Y0205128D01*
X0225528Y0205031D01*
X0225528Y0204935D01*
X0225524Y0204838D01*
X0225516Y0204741D01*
X0225504Y0204645D01*
X0225488Y0204549D01*
X0225468Y0204454D01*
X0225444Y0204360D01*
X0225417Y0204267D01*
X0225386Y0204175D01*
X0225351Y0204085D01*
X0225312Y0203996D01*
X0225269Y0203909D01*
X0225224Y0203823D01*
X0225174Y0203740D01*
X0225121Y0203658D01*
X0225065Y0203579D01*
X0225006Y0203502D01*
X0224944Y0203428D01*
X0224878Y0203356D01*
X0224810Y0203287D01*
X0224739Y0203221D01*
X0224666Y0203158D01*
X0224589Y0203098D01*
X0224511Y0203041D01*
X0224430Y0202988D01*
X0224347Y0202937D01*
X0224262Y0202891D01*
X0224175Y0202847D01*
X0224087Y0202808D01*
X0223997Y0202772D01*
X0223905Y0202740D01*
X0223812Y0202711D01*
X0223719Y0202687D01*
X0223624Y0202666D01*
X0223528Y0202649D01*
X0223432Y0202636D01*
X0223336Y0202627D01*
X0223239Y0202622D01*
X0223142Y0202621D01*
X0223045Y0202624D01*
X0222948Y0202631D01*
X0222852Y0202642D01*
X0222756Y0202657D01*
X0222661Y0202676D01*
X0222566Y0202698D01*
X0222473Y0202725D01*
X0222381Y0202755D01*
X0222290Y0202789D01*
X0222201Y0202827D01*
X0222113Y0202869D01*
X0222027Y0202914D01*
X0221943Y0202962D01*
X0221861Y0203014D01*
X0221782Y0203069D01*
X0221704Y0203128D01*
X0221629Y0203189D01*
X0221557Y0203254D01*
X0221487Y0203321D01*
X0221420Y0203392D01*
X0221357Y0203465D01*
X0221296Y0203540D01*
X0221238Y0203618D01*
X0221184Y0203699D01*
X0221133Y0203781D01*
X0221085Y0203866D01*
X0221041Y0203952D01*
X0221000Y0204040D01*
X0220964Y0204130D01*
X0220930Y0204221D01*
X0220901Y0204313D01*
X0220875Y0204407D01*
X0220854Y0204501D01*
X0220836Y0204597D01*
X0220822Y0204693D01*
X0220812Y0204789D01*
X0220806Y0204886D01*
X0220804Y0204983D01*
X0252300Y0106557D02*
X0252302Y0106654D01*
X0252308Y0106751D01*
X0252318Y0106847D01*
X0252332Y0106943D01*
X0252350Y0107039D01*
X0252371Y0107133D01*
X0252397Y0107227D01*
X0252426Y0107319D01*
X0252460Y0107410D01*
X0252496Y0107500D01*
X0252537Y0107588D01*
X0252581Y0107674D01*
X0252629Y0107759D01*
X0252680Y0107841D01*
X0252734Y0107922D01*
X0252792Y0108000D01*
X0252853Y0108075D01*
X0252916Y0108148D01*
X0252983Y0108219D01*
X0253053Y0108286D01*
X0253125Y0108351D01*
X0253200Y0108412D01*
X0253278Y0108471D01*
X0253357Y0108526D01*
X0253439Y0108578D01*
X0253523Y0108626D01*
X0253609Y0108671D01*
X0253697Y0108713D01*
X0253786Y0108751D01*
X0253877Y0108785D01*
X0253969Y0108815D01*
X0254062Y0108842D01*
X0254157Y0108864D01*
X0254252Y0108883D01*
X0254348Y0108898D01*
X0254444Y0108909D01*
X0254541Y0108916D01*
X0254638Y0108919D01*
X0254735Y0108918D01*
X0254832Y0108913D01*
X0254928Y0108904D01*
X0255024Y0108891D01*
X0255120Y0108874D01*
X0255215Y0108853D01*
X0255308Y0108829D01*
X0255401Y0108800D01*
X0255493Y0108768D01*
X0255583Y0108732D01*
X0255671Y0108693D01*
X0255758Y0108649D01*
X0255843Y0108603D01*
X0255926Y0108552D01*
X0256007Y0108499D01*
X0256085Y0108442D01*
X0256162Y0108382D01*
X0256235Y0108319D01*
X0256306Y0108253D01*
X0256374Y0108184D01*
X0256440Y0108112D01*
X0256502Y0108038D01*
X0256561Y0107961D01*
X0256617Y0107882D01*
X0256670Y0107800D01*
X0256720Y0107717D01*
X0256765Y0107631D01*
X0256808Y0107544D01*
X0256847Y0107455D01*
X0256882Y0107365D01*
X0256913Y0107273D01*
X0256940Y0107180D01*
X0256964Y0107086D01*
X0256984Y0106991D01*
X0257000Y0106895D01*
X0257012Y0106799D01*
X0257020Y0106702D01*
X0257024Y0106605D01*
X0257024Y0106509D01*
X0257020Y0106412D01*
X0257012Y0106315D01*
X0257000Y0106219D01*
X0256984Y0106123D01*
X0256964Y0106028D01*
X0256940Y0105934D01*
X0256913Y0105841D01*
X0256882Y0105749D01*
X0256847Y0105659D01*
X0256808Y0105570D01*
X0256765Y0105483D01*
X0256720Y0105397D01*
X0256670Y0105314D01*
X0256617Y0105232D01*
X0256561Y0105153D01*
X0256502Y0105076D01*
X0256440Y0105002D01*
X0256374Y0104930D01*
X0256306Y0104861D01*
X0256235Y0104795D01*
X0256162Y0104732D01*
X0256085Y0104672D01*
X0256007Y0104615D01*
X0255926Y0104562D01*
X0255843Y0104511D01*
X0255758Y0104465D01*
X0255671Y0104421D01*
X0255583Y0104382D01*
X0255493Y0104346D01*
X0255401Y0104314D01*
X0255308Y0104285D01*
X0255215Y0104261D01*
X0255120Y0104240D01*
X0255024Y0104223D01*
X0254928Y0104210D01*
X0254832Y0104201D01*
X0254735Y0104196D01*
X0254638Y0104195D01*
X0254541Y0104198D01*
X0254444Y0104205D01*
X0254348Y0104216D01*
X0254252Y0104231D01*
X0254157Y0104250D01*
X0254062Y0104272D01*
X0253969Y0104299D01*
X0253877Y0104329D01*
X0253786Y0104363D01*
X0253697Y0104401D01*
X0253609Y0104443D01*
X0253523Y0104488D01*
X0253439Y0104536D01*
X0253357Y0104588D01*
X0253278Y0104643D01*
X0253200Y0104702D01*
X0253125Y0104763D01*
X0253053Y0104828D01*
X0252983Y0104895D01*
X0252916Y0104966D01*
X0252853Y0105039D01*
X0252792Y0105114D01*
X0252734Y0105192D01*
X0252680Y0105273D01*
X0252629Y0105355D01*
X0252581Y0105440D01*
X0252537Y0105526D01*
X0252496Y0105614D01*
X0252460Y0105704D01*
X0252426Y0105795D01*
X0252397Y0105887D01*
X0252371Y0105981D01*
X0252350Y0106075D01*
X0252332Y0106171D01*
X0252318Y0106267D01*
X0252308Y0106363D01*
X0252302Y0106460D01*
X0252300Y0106557D01*
D11*
X0236080Y0133683D02*
X0236082Y0133867D01*
X0236089Y0134050D01*
X0236100Y0134233D01*
X0236116Y0134416D01*
X0236136Y0134599D01*
X0236161Y0134781D01*
X0236190Y0134962D01*
X0236224Y0135142D01*
X0236262Y0135322D01*
X0236304Y0135500D01*
X0236351Y0135678D01*
X0236402Y0135854D01*
X0236458Y0136029D01*
X0236517Y0136203D01*
X0236581Y0136375D01*
X0236649Y0136545D01*
X0236722Y0136714D01*
X0236798Y0136881D01*
X0236879Y0137046D01*
X0236963Y0137209D01*
X0237052Y0137370D01*
X0237144Y0137528D01*
X0237240Y0137685D01*
X0237341Y0137839D01*
X0237444Y0137990D01*
X0237552Y0138139D01*
X0237663Y0138285D01*
X0237778Y0138428D01*
X0237896Y0138569D01*
X0238018Y0138706D01*
X0238143Y0138841D01*
X0238271Y0138972D01*
X0238402Y0139100D01*
X0238537Y0139225D01*
X0238674Y0139347D01*
X0238815Y0139465D01*
X0238958Y0139580D01*
X0239104Y0139691D01*
X0239253Y0139799D01*
X0239404Y0139902D01*
X0239558Y0140003D01*
X0239715Y0140099D01*
X0239873Y0140191D01*
X0240034Y0140280D01*
X0240197Y0140364D01*
X0240362Y0140445D01*
X0240529Y0140521D01*
X0240698Y0140594D01*
X0240868Y0140662D01*
X0241040Y0140726D01*
X0241214Y0140785D01*
X0241389Y0140841D01*
X0241565Y0140892D01*
X0241743Y0140939D01*
X0241921Y0140981D01*
X0242101Y0141019D01*
X0242281Y0141053D01*
X0242462Y0141082D01*
X0242644Y0141107D01*
X0242827Y0141127D01*
X0243010Y0141143D01*
X0243193Y0141154D01*
X0243376Y0141161D01*
X0243560Y0141163D01*
X0243744Y0141161D01*
X0243927Y0141154D01*
X0244110Y0141143D01*
X0244293Y0141127D01*
X0244476Y0141107D01*
X0244658Y0141082D01*
X0244839Y0141053D01*
X0245019Y0141019D01*
X0245199Y0140981D01*
X0245377Y0140939D01*
X0245555Y0140892D01*
X0245731Y0140841D01*
X0245906Y0140785D01*
X0246080Y0140726D01*
X0246252Y0140662D01*
X0246422Y0140594D01*
X0246591Y0140521D01*
X0246758Y0140445D01*
X0246923Y0140364D01*
X0247086Y0140280D01*
X0247247Y0140191D01*
X0247405Y0140099D01*
X0247562Y0140003D01*
X0247716Y0139902D01*
X0247867Y0139799D01*
X0248016Y0139691D01*
X0248162Y0139580D01*
X0248305Y0139465D01*
X0248446Y0139347D01*
X0248583Y0139225D01*
X0248718Y0139100D01*
X0248849Y0138972D01*
X0248977Y0138841D01*
X0249102Y0138706D01*
X0249224Y0138569D01*
X0249342Y0138428D01*
X0249457Y0138285D01*
X0249568Y0138139D01*
X0249676Y0137990D01*
X0249779Y0137839D01*
X0249880Y0137685D01*
X0249976Y0137528D01*
X0250068Y0137370D01*
X0250157Y0137209D01*
X0250241Y0137046D01*
X0250322Y0136881D01*
X0250398Y0136714D01*
X0250471Y0136545D01*
X0250539Y0136375D01*
X0250603Y0136203D01*
X0250662Y0136029D01*
X0250718Y0135854D01*
X0250769Y0135678D01*
X0250816Y0135500D01*
X0250858Y0135322D01*
X0250896Y0135142D01*
X0250930Y0134962D01*
X0250959Y0134781D01*
X0250984Y0134599D01*
X0251004Y0134416D01*
X0251020Y0134233D01*
X0251031Y0134050D01*
X0251038Y0133867D01*
X0251040Y0133683D01*
X0251038Y0133499D01*
X0251031Y0133316D01*
X0251020Y0133133D01*
X0251004Y0132950D01*
X0250984Y0132767D01*
X0250959Y0132585D01*
X0250930Y0132404D01*
X0250896Y0132224D01*
X0250858Y0132044D01*
X0250816Y0131866D01*
X0250769Y0131688D01*
X0250718Y0131512D01*
X0250662Y0131337D01*
X0250603Y0131163D01*
X0250539Y0130991D01*
X0250471Y0130821D01*
X0250398Y0130652D01*
X0250322Y0130485D01*
X0250241Y0130320D01*
X0250157Y0130157D01*
X0250068Y0129996D01*
X0249976Y0129838D01*
X0249880Y0129681D01*
X0249779Y0129527D01*
X0249676Y0129376D01*
X0249568Y0129227D01*
X0249457Y0129081D01*
X0249342Y0128938D01*
X0249224Y0128797D01*
X0249102Y0128660D01*
X0248977Y0128525D01*
X0248849Y0128394D01*
X0248718Y0128266D01*
X0248583Y0128141D01*
X0248446Y0128019D01*
X0248305Y0127901D01*
X0248162Y0127786D01*
X0248016Y0127675D01*
X0247867Y0127567D01*
X0247716Y0127464D01*
X0247562Y0127363D01*
X0247405Y0127267D01*
X0247247Y0127175D01*
X0247086Y0127086D01*
X0246923Y0127002D01*
X0246758Y0126921D01*
X0246591Y0126845D01*
X0246422Y0126772D01*
X0246252Y0126704D01*
X0246080Y0126640D01*
X0245906Y0126581D01*
X0245731Y0126525D01*
X0245555Y0126474D01*
X0245377Y0126427D01*
X0245199Y0126385D01*
X0245019Y0126347D01*
X0244839Y0126313D01*
X0244658Y0126284D01*
X0244476Y0126259D01*
X0244293Y0126239D01*
X0244110Y0126223D01*
X0243927Y0126212D01*
X0243744Y0126205D01*
X0243560Y0126203D01*
X0243376Y0126205D01*
X0243193Y0126212D01*
X0243010Y0126223D01*
X0242827Y0126239D01*
X0242644Y0126259D01*
X0242462Y0126284D01*
X0242281Y0126313D01*
X0242101Y0126347D01*
X0241921Y0126385D01*
X0241743Y0126427D01*
X0241565Y0126474D01*
X0241389Y0126525D01*
X0241214Y0126581D01*
X0241040Y0126640D01*
X0240868Y0126704D01*
X0240698Y0126772D01*
X0240529Y0126845D01*
X0240362Y0126921D01*
X0240197Y0127002D01*
X0240034Y0127086D01*
X0239873Y0127175D01*
X0239715Y0127267D01*
X0239558Y0127363D01*
X0239404Y0127464D01*
X0239253Y0127567D01*
X0239104Y0127675D01*
X0238958Y0127786D01*
X0238815Y0127901D01*
X0238674Y0128019D01*
X0238537Y0128141D01*
X0238402Y0128266D01*
X0238271Y0128394D01*
X0238143Y0128525D01*
X0238018Y0128660D01*
X0237896Y0128797D01*
X0237778Y0128938D01*
X0237663Y0129081D01*
X0237552Y0129227D01*
X0237444Y0129376D01*
X0237341Y0129527D01*
X0237240Y0129681D01*
X0237144Y0129838D01*
X0237052Y0129996D01*
X0236963Y0130157D01*
X0236879Y0130320D01*
X0236798Y0130485D01*
X0236722Y0130652D01*
X0236649Y0130821D01*
X0236581Y0130991D01*
X0236517Y0131163D01*
X0236458Y0131337D01*
X0236402Y0131512D01*
X0236351Y0131688D01*
X0236304Y0131866D01*
X0236262Y0132044D01*
X0236224Y0132224D01*
X0236190Y0132404D01*
X0236161Y0132585D01*
X0236136Y0132767D01*
X0236116Y0132950D01*
X0236100Y0133133D01*
X0236089Y0133316D01*
X0236082Y0133499D01*
X0236080Y0133683D01*
X0227418Y0173054D02*
X0227420Y0173185D01*
X0227426Y0173317D01*
X0227436Y0173448D01*
X0227450Y0173579D01*
X0227468Y0173709D01*
X0227490Y0173838D01*
X0227515Y0173967D01*
X0227545Y0174095D01*
X0227579Y0174222D01*
X0227616Y0174349D01*
X0227657Y0174473D01*
X0227702Y0174597D01*
X0227751Y0174719D01*
X0227803Y0174840D01*
X0227859Y0174958D01*
X0227919Y0175076D01*
X0227982Y0175191D01*
X0228049Y0175304D01*
X0228119Y0175416D01*
X0228192Y0175525D01*
X0228268Y0175631D01*
X0228348Y0175736D01*
X0228431Y0175838D01*
X0228517Y0175937D01*
X0228606Y0176034D01*
X0228698Y0176128D01*
X0228793Y0176219D01*
X0228890Y0176308D01*
X0228990Y0176393D01*
X0229093Y0176475D01*
X0229198Y0176554D01*
X0229305Y0176630D01*
X0229415Y0176702D01*
X0229527Y0176771D01*
X0229641Y0176837D01*
X0229756Y0176899D01*
X0229874Y0176958D01*
X0229993Y0177013D01*
X0230114Y0177065D01*
X0230237Y0177112D01*
X0230361Y0177156D01*
X0230486Y0177197D01*
X0230612Y0177233D01*
X0230740Y0177266D01*
X0230868Y0177294D01*
X0230997Y0177319D01*
X0231127Y0177340D01*
X0231257Y0177357D01*
X0231388Y0177370D01*
X0231519Y0177379D01*
X0231650Y0177384D01*
X0231782Y0177385D01*
X0231913Y0177382D01*
X0232045Y0177375D01*
X0232176Y0177364D01*
X0232306Y0177349D01*
X0232436Y0177330D01*
X0232566Y0177307D01*
X0232694Y0177281D01*
X0232822Y0177250D01*
X0232949Y0177215D01*
X0233075Y0177177D01*
X0233199Y0177135D01*
X0233323Y0177089D01*
X0233444Y0177039D01*
X0233564Y0176986D01*
X0233683Y0176929D01*
X0233800Y0176869D01*
X0233914Y0176805D01*
X0234027Y0176737D01*
X0234138Y0176666D01*
X0234247Y0176592D01*
X0234353Y0176515D01*
X0234457Y0176434D01*
X0234558Y0176351D01*
X0234657Y0176264D01*
X0234753Y0176174D01*
X0234846Y0176081D01*
X0234937Y0175986D01*
X0235024Y0175888D01*
X0235109Y0175787D01*
X0235190Y0175684D01*
X0235268Y0175578D01*
X0235343Y0175470D01*
X0235415Y0175360D01*
X0235483Y0175248D01*
X0235548Y0175134D01*
X0235609Y0175017D01*
X0235667Y0174899D01*
X0235721Y0174779D01*
X0235772Y0174658D01*
X0235819Y0174535D01*
X0235862Y0174411D01*
X0235901Y0174286D01*
X0235937Y0174159D01*
X0235968Y0174031D01*
X0235996Y0173903D01*
X0236020Y0173774D01*
X0236040Y0173644D01*
X0236056Y0173513D01*
X0236068Y0173382D01*
X0236076Y0173251D01*
X0236080Y0173120D01*
X0236080Y0172988D01*
X0236076Y0172857D01*
X0236068Y0172726D01*
X0236056Y0172595D01*
X0236040Y0172464D01*
X0236020Y0172334D01*
X0235996Y0172205D01*
X0235968Y0172077D01*
X0235937Y0171949D01*
X0235901Y0171822D01*
X0235862Y0171697D01*
X0235819Y0171573D01*
X0235772Y0171450D01*
X0235721Y0171329D01*
X0235667Y0171209D01*
X0235609Y0171091D01*
X0235548Y0170974D01*
X0235483Y0170860D01*
X0235415Y0170748D01*
X0235343Y0170638D01*
X0235268Y0170530D01*
X0235190Y0170424D01*
X0235109Y0170321D01*
X0235024Y0170220D01*
X0234937Y0170122D01*
X0234846Y0170027D01*
X0234753Y0169934D01*
X0234657Y0169844D01*
X0234558Y0169757D01*
X0234457Y0169674D01*
X0234353Y0169593D01*
X0234247Y0169516D01*
X0234138Y0169442D01*
X0234027Y0169371D01*
X0233915Y0169303D01*
X0233800Y0169239D01*
X0233683Y0169179D01*
X0233564Y0169122D01*
X0233444Y0169069D01*
X0233323Y0169019D01*
X0233199Y0168973D01*
X0233075Y0168931D01*
X0232949Y0168893D01*
X0232822Y0168858D01*
X0232694Y0168827D01*
X0232566Y0168801D01*
X0232436Y0168778D01*
X0232306Y0168759D01*
X0232176Y0168744D01*
X0232045Y0168733D01*
X0231913Y0168726D01*
X0231782Y0168723D01*
X0231650Y0168724D01*
X0231519Y0168729D01*
X0231388Y0168738D01*
X0231257Y0168751D01*
X0231127Y0168768D01*
X0230997Y0168789D01*
X0230868Y0168814D01*
X0230740Y0168842D01*
X0230612Y0168875D01*
X0230486Y0168911D01*
X0230361Y0168952D01*
X0230237Y0168996D01*
X0230114Y0169043D01*
X0229993Y0169095D01*
X0229874Y0169150D01*
X0229756Y0169209D01*
X0229641Y0169271D01*
X0229527Y0169337D01*
X0229415Y0169406D01*
X0229305Y0169478D01*
X0229198Y0169554D01*
X0229093Y0169633D01*
X0228990Y0169715D01*
X0228890Y0169800D01*
X0228793Y0169889D01*
X0228698Y0169980D01*
X0228606Y0170074D01*
X0228517Y0170171D01*
X0228431Y0170270D01*
X0228348Y0170372D01*
X0228268Y0170477D01*
X0228192Y0170583D01*
X0228119Y0170692D01*
X0228049Y0170804D01*
X0227982Y0170917D01*
X0227919Y0171032D01*
X0227859Y0171150D01*
X0227803Y0171268D01*
X0227751Y0171389D01*
X0227702Y0171511D01*
X0227657Y0171635D01*
X0227616Y0171759D01*
X0227579Y0171886D01*
X0227545Y0172013D01*
X0227515Y0172141D01*
X0227490Y0172270D01*
X0227468Y0172399D01*
X0227450Y0172529D01*
X0227436Y0172660D01*
X0227426Y0172791D01*
X0227420Y0172923D01*
X0227418Y0173054D01*
X0197300Y0099431D02*
X0197302Y0099600D01*
X0197308Y0099769D01*
X0197319Y0099938D01*
X0197333Y0100106D01*
X0197352Y0100274D01*
X0197375Y0100442D01*
X0197401Y0100609D01*
X0197432Y0100775D01*
X0197467Y0100941D01*
X0197506Y0101105D01*
X0197550Y0101269D01*
X0197597Y0101431D01*
X0197648Y0101592D01*
X0197703Y0101752D01*
X0197762Y0101911D01*
X0197824Y0102068D01*
X0197891Y0102223D01*
X0197962Y0102377D01*
X0198036Y0102529D01*
X0198114Y0102679D01*
X0198195Y0102827D01*
X0198280Y0102973D01*
X0198369Y0103117D01*
X0198461Y0103259D01*
X0198557Y0103398D01*
X0198656Y0103535D01*
X0198758Y0103670D01*
X0198864Y0103802D01*
X0198973Y0103931D01*
X0199085Y0104058D01*
X0199200Y0104182D01*
X0199318Y0104303D01*
X0199439Y0104421D01*
X0199563Y0104536D01*
X0199690Y0104648D01*
X0199819Y0104757D01*
X0199951Y0104863D01*
X0200086Y0104965D01*
X0200223Y0105064D01*
X0200362Y0105160D01*
X0200504Y0105252D01*
X0200648Y0105341D01*
X0200794Y0105426D01*
X0200942Y0105507D01*
X0201092Y0105585D01*
X0201244Y0105659D01*
X0201398Y0105730D01*
X0201553Y0105797D01*
X0201710Y0105859D01*
X0201869Y0105918D01*
X0202029Y0105973D01*
X0202190Y0106024D01*
X0202352Y0106071D01*
X0202516Y0106115D01*
X0202680Y0106154D01*
X0202846Y0106189D01*
X0203012Y0106220D01*
X0203179Y0106246D01*
X0203347Y0106269D01*
X0203515Y0106288D01*
X0203683Y0106302D01*
X0203852Y0106313D01*
X0204021Y0106319D01*
X0204190Y0106321D01*
X0204359Y0106319D01*
X0204528Y0106313D01*
X0204697Y0106302D01*
X0204865Y0106288D01*
X0205033Y0106269D01*
X0205201Y0106246D01*
X0205368Y0106220D01*
X0205534Y0106189D01*
X0205700Y0106154D01*
X0205864Y0106115D01*
X0206028Y0106071D01*
X0206190Y0106024D01*
X0206351Y0105973D01*
X0206511Y0105918D01*
X0206670Y0105859D01*
X0206827Y0105797D01*
X0206982Y0105730D01*
X0207136Y0105659D01*
X0207288Y0105585D01*
X0207438Y0105507D01*
X0207586Y0105426D01*
X0207732Y0105341D01*
X0207876Y0105252D01*
X0208018Y0105160D01*
X0208157Y0105064D01*
X0208294Y0104965D01*
X0208429Y0104863D01*
X0208561Y0104757D01*
X0208690Y0104648D01*
X0208817Y0104536D01*
X0208941Y0104421D01*
X0209062Y0104303D01*
X0209180Y0104182D01*
X0209295Y0104058D01*
X0209407Y0103931D01*
X0209516Y0103802D01*
X0209622Y0103670D01*
X0209724Y0103535D01*
X0209823Y0103398D01*
X0209919Y0103259D01*
X0210011Y0103117D01*
X0210100Y0102973D01*
X0210185Y0102827D01*
X0210266Y0102679D01*
X0210344Y0102529D01*
X0210418Y0102377D01*
X0210489Y0102223D01*
X0210556Y0102068D01*
X0210618Y0101911D01*
X0210677Y0101752D01*
X0210732Y0101592D01*
X0210783Y0101431D01*
X0210830Y0101269D01*
X0210874Y0101105D01*
X0210913Y0100941D01*
X0210948Y0100775D01*
X0210979Y0100609D01*
X0211005Y0100442D01*
X0211028Y0100274D01*
X0211047Y0100106D01*
X0211061Y0099938D01*
X0211072Y0099769D01*
X0211078Y0099600D01*
X0211080Y0099431D01*
X0211078Y0099262D01*
X0211072Y0099093D01*
X0211061Y0098924D01*
X0211047Y0098756D01*
X0211028Y0098588D01*
X0211005Y0098420D01*
X0210979Y0098253D01*
X0210948Y0098087D01*
X0210913Y0097921D01*
X0210874Y0097757D01*
X0210830Y0097593D01*
X0210783Y0097431D01*
X0210732Y0097270D01*
X0210677Y0097110D01*
X0210618Y0096951D01*
X0210556Y0096794D01*
X0210489Y0096639D01*
X0210418Y0096485D01*
X0210344Y0096333D01*
X0210266Y0096183D01*
X0210185Y0096035D01*
X0210100Y0095889D01*
X0210011Y0095745D01*
X0209919Y0095603D01*
X0209823Y0095464D01*
X0209724Y0095327D01*
X0209622Y0095192D01*
X0209516Y0095060D01*
X0209407Y0094931D01*
X0209295Y0094804D01*
X0209180Y0094680D01*
X0209062Y0094559D01*
X0208941Y0094441D01*
X0208817Y0094326D01*
X0208690Y0094214D01*
X0208561Y0094105D01*
X0208429Y0093999D01*
X0208294Y0093897D01*
X0208157Y0093798D01*
X0208018Y0093702D01*
X0207876Y0093610D01*
X0207732Y0093521D01*
X0207586Y0093436D01*
X0207438Y0093355D01*
X0207288Y0093277D01*
X0207136Y0093203D01*
X0206982Y0093132D01*
X0206827Y0093065D01*
X0206670Y0093003D01*
X0206511Y0092944D01*
X0206351Y0092889D01*
X0206190Y0092838D01*
X0206028Y0092791D01*
X0205864Y0092747D01*
X0205700Y0092708D01*
X0205534Y0092673D01*
X0205368Y0092642D01*
X0205201Y0092616D01*
X0205033Y0092593D01*
X0204865Y0092574D01*
X0204697Y0092560D01*
X0204528Y0092549D01*
X0204359Y0092543D01*
X0204190Y0092541D01*
X0204021Y0092543D01*
X0203852Y0092549D01*
X0203683Y0092560D01*
X0203515Y0092574D01*
X0203347Y0092593D01*
X0203179Y0092616D01*
X0203012Y0092642D01*
X0202846Y0092673D01*
X0202680Y0092708D01*
X0202516Y0092747D01*
X0202352Y0092791D01*
X0202190Y0092838D01*
X0202029Y0092889D01*
X0201869Y0092944D01*
X0201710Y0093003D01*
X0201553Y0093065D01*
X0201398Y0093132D01*
X0201244Y0093203D01*
X0201092Y0093277D01*
X0200942Y0093355D01*
X0200794Y0093436D01*
X0200648Y0093521D01*
X0200504Y0093610D01*
X0200362Y0093702D01*
X0200223Y0093798D01*
X0200086Y0093897D01*
X0199951Y0093999D01*
X0199819Y0094105D01*
X0199690Y0094214D01*
X0199563Y0094326D01*
X0199439Y0094441D01*
X0199318Y0094559D01*
X0199200Y0094680D01*
X0199085Y0094804D01*
X0198973Y0094931D01*
X0198864Y0095060D01*
X0198758Y0095192D01*
X0198656Y0095327D01*
X0198557Y0095464D01*
X0198461Y0095603D01*
X0198369Y0095745D01*
X0198280Y0095889D01*
X0198195Y0096035D01*
X0198114Y0096183D01*
X0198036Y0096333D01*
X0197962Y0096485D01*
X0197891Y0096639D01*
X0197824Y0096794D01*
X0197762Y0096951D01*
X0197703Y0097110D01*
X0197648Y0097270D01*
X0197597Y0097431D01*
X0197550Y0097593D01*
X0197506Y0097757D01*
X0197467Y0097921D01*
X0197432Y0098087D01*
X0197401Y0098253D01*
X0197375Y0098420D01*
X0197352Y0098588D01*
X0197333Y0098756D01*
X0197319Y0098924D01*
X0197308Y0099093D01*
X0197302Y0099262D01*
X0197300Y0099431D01*
X0130568Y0143526D02*
X0130570Y0143663D01*
X0130576Y0143801D01*
X0130586Y0143938D01*
X0130600Y0144074D01*
X0130618Y0144211D01*
X0130640Y0144346D01*
X0130666Y0144481D01*
X0130695Y0144615D01*
X0130729Y0144749D01*
X0130766Y0144881D01*
X0130808Y0145012D01*
X0130853Y0145142D01*
X0130902Y0145270D01*
X0130954Y0145397D01*
X0131011Y0145522D01*
X0131070Y0145646D01*
X0131134Y0145768D01*
X0131201Y0145888D01*
X0131271Y0146006D01*
X0131345Y0146122D01*
X0131422Y0146236D01*
X0131503Y0146347D01*
X0131586Y0146456D01*
X0131673Y0146563D01*
X0131763Y0146666D01*
X0131856Y0146768D01*
X0131952Y0146866D01*
X0132050Y0146962D01*
X0132152Y0147055D01*
X0132255Y0147145D01*
X0132362Y0147232D01*
X0132471Y0147315D01*
X0132582Y0147396D01*
X0132696Y0147473D01*
X0132812Y0147547D01*
X0132930Y0147617D01*
X0133050Y0147684D01*
X0133172Y0147748D01*
X0133296Y0147807D01*
X0133421Y0147864D01*
X0133548Y0147916D01*
X0133676Y0147965D01*
X0133806Y0148010D01*
X0133937Y0148052D01*
X0134069Y0148089D01*
X0134203Y0148123D01*
X0134337Y0148152D01*
X0134472Y0148178D01*
X0134607Y0148200D01*
X0134744Y0148218D01*
X0134880Y0148232D01*
X0135017Y0148242D01*
X0135155Y0148248D01*
X0135292Y0148250D01*
X0135429Y0148248D01*
X0135567Y0148242D01*
X0135704Y0148232D01*
X0135840Y0148218D01*
X0135977Y0148200D01*
X0136112Y0148178D01*
X0136247Y0148152D01*
X0136381Y0148123D01*
X0136515Y0148089D01*
X0136647Y0148052D01*
X0136778Y0148010D01*
X0136908Y0147965D01*
X0137036Y0147916D01*
X0137163Y0147864D01*
X0137288Y0147807D01*
X0137412Y0147748D01*
X0137534Y0147684D01*
X0137654Y0147617D01*
X0137772Y0147547D01*
X0137888Y0147473D01*
X0138002Y0147396D01*
X0138113Y0147315D01*
X0138222Y0147232D01*
X0138329Y0147145D01*
X0138432Y0147055D01*
X0138534Y0146962D01*
X0138632Y0146866D01*
X0138728Y0146768D01*
X0138821Y0146666D01*
X0138911Y0146563D01*
X0138998Y0146456D01*
X0139081Y0146347D01*
X0139162Y0146236D01*
X0139239Y0146122D01*
X0139313Y0146006D01*
X0139383Y0145888D01*
X0139450Y0145768D01*
X0139514Y0145646D01*
X0139573Y0145522D01*
X0139630Y0145397D01*
X0139682Y0145270D01*
X0139731Y0145142D01*
X0139776Y0145012D01*
X0139818Y0144881D01*
X0139855Y0144749D01*
X0139889Y0144615D01*
X0139918Y0144481D01*
X0139944Y0144346D01*
X0139966Y0144211D01*
X0139984Y0144074D01*
X0139998Y0143938D01*
X0140008Y0143801D01*
X0140014Y0143663D01*
X0140016Y0143526D01*
X0140014Y0143389D01*
X0140008Y0143251D01*
X0139998Y0143114D01*
X0139984Y0142978D01*
X0139966Y0142841D01*
X0139944Y0142706D01*
X0139918Y0142571D01*
X0139889Y0142437D01*
X0139855Y0142303D01*
X0139818Y0142171D01*
X0139776Y0142040D01*
X0139731Y0141910D01*
X0139682Y0141782D01*
X0139630Y0141655D01*
X0139573Y0141530D01*
X0139514Y0141406D01*
X0139450Y0141284D01*
X0139383Y0141164D01*
X0139313Y0141046D01*
X0139239Y0140930D01*
X0139162Y0140816D01*
X0139081Y0140705D01*
X0138998Y0140596D01*
X0138911Y0140489D01*
X0138821Y0140386D01*
X0138728Y0140284D01*
X0138632Y0140186D01*
X0138534Y0140090D01*
X0138432Y0139997D01*
X0138329Y0139907D01*
X0138222Y0139820D01*
X0138113Y0139737D01*
X0138002Y0139656D01*
X0137888Y0139579D01*
X0137772Y0139505D01*
X0137654Y0139435D01*
X0137534Y0139368D01*
X0137412Y0139304D01*
X0137288Y0139245D01*
X0137163Y0139188D01*
X0137036Y0139136D01*
X0136908Y0139087D01*
X0136778Y0139042D01*
X0136647Y0139000D01*
X0136515Y0138963D01*
X0136381Y0138929D01*
X0136247Y0138900D01*
X0136112Y0138874D01*
X0135977Y0138852D01*
X0135840Y0138834D01*
X0135704Y0138820D01*
X0135567Y0138810D01*
X0135429Y0138804D01*
X0135292Y0138802D01*
X0135155Y0138804D01*
X0135017Y0138810D01*
X0134880Y0138820D01*
X0134744Y0138834D01*
X0134607Y0138852D01*
X0134472Y0138874D01*
X0134337Y0138900D01*
X0134203Y0138929D01*
X0134069Y0138963D01*
X0133937Y0139000D01*
X0133806Y0139042D01*
X0133676Y0139087D01*
X0133548Y0139136D01*
X0133421Y0139188D01*
X0133296Y0139245D01*
X0133172Y0139304D01*
X0133050Y0139368D01*
X0132930Y0139435D01*
X0132812Y0139505D01*
X0132696Y0139579D01*
X0132582Y0139656D01*
X0132471Y0139737D01*
X0132362Y0139820D01*
X0132255Y0139907D01*
X0132152Y0139997D01*
X0132050Y0140090D01*
X0131952Y0140186D01*
X0131856Y0140284D01*
X0131763Y0140386D01*
X0131673Y0140489D01*
X0131586Y0140596D01*
X0131503Y0140705D01*
X0131422Y0140816D01*
X0131345Y0140930D01*
X0131271Y0141046D01*
X0131201Y0141164D01*
X0131134Y0141284D01*
X0131070Y0141406D01*
X0131011Y0141530D01*
X0130954Y0141655D01*
X0130902Y0141782D01*
X0130853Y0141910D01*
X0130808Y0142040D01*
X0130766Y0142171D01*
X0130729Y0142303D01*
X0130695Y0142437D01*
X0130666Y0142571D01*
X0130640Y0142706D01*
X0130618Y0142841D01*
X0130600Y0142978D01*
X0130586Y0143114D01*
X0130576Y0143251D01*
X0130570Y0143389D01*
X0130568Y0143526D01*
X0109701Y0118329D02*
X0109703Y0118460D01*
X0109709Y0118592D01*
X0109719Y0118723D01*
X0109733Y0118854D01*
X0109751Y0118984D01*
X0109773Y0119113D01*
X0109798Y0119242D01*
X0109828Y0119370D01*
X0109862Y0119497D01*
X0109899Y0119624D01*
X0109940Y0119748D01*
X0109985Y0119872D01*
X0110034Y0119994D01*
X0110086Y0120115D01*
X0110142Y0120233D01*
X0110202Y0120351D01*
X0110265Y0120466D01*
X0110332Y0120579D01*
X0110402Y0120691D01*
X0110475Y0120800D01*
X0110551Y0120906D01*
X0110631Y0121011D01*
X0110714Y0121113D01*
X0110800Y0121212D01*
X0110889Y0121309D01*
X0110981Y0121403D01*
X0111076Y0121494D01*
X0111173Y0121583D01*
X0111273Y0121668D01*
X0111376Y0121750D01*
X0111481Y0121829D01*
X0111588Y0121905D01*
X0111698Y0121977D01*
X0111810Y0122046D01*
X0111924Y0122112D01*
X0112039Y0122174D01*
X0112157Y0122233D01*
X0112276Y0122288D01*
X0112397Y0122340D01*
X0112520Y0122387D01*
X0112644Y0122431D01*
X0112769Y0122472D01*
X0112895Y0122508D01*
X0113023Y0122541D01*
X0113151Y0122569D01*
X0113280Y0122594D01*
X0113410Y0122615D01*
X0113540Y0122632D01*
X0113671Y0122645D01*
X0113802Y0122654D01*
X0113933Y0122659D01*
X0114065Y0122660D01*
X0114196Y0122657D01*
X0114328Y0122650D01*
X0114459Y0122639D01*
X0114589Y0122624D01*
X0114719Y0122605D01*
X0114849Y0122582D01*
X0114977Y0122556D01*
X0115105Y0122525D01*
X0115232Y0122490D01*
X0115358Y0122452D01*
X0115482Y0122410D01*
X0115606Y0122364D01*
X0115727Y0122314D01*
X0115847Y0122261D01*
X0115966Y0122204D01*
X0116083Y0122144D01*
X0116197Y0122080D01*
X0116310Y0122012D01*
X0116421Y0121941D01*
X0116530Y0121867D01*
X0116636Y0121790D01*
X0116740Y0121709D01*
X0116841Y0121626D01*
X0116940Y0121539D01*
X0117036Y0121449D01*
X0117129Y0121356D01*
X0117220Y0121261D01*
X0117307Y0121163D01*
X0117392Y0121062D01*
X0117473Y0120959D01*
X0117551Y0120853D01*
X0117626Y0120745D01*
X0117698Y0120635D01*
X0117766Y0120523D01*
X0117831Y0120409D01*
X0117892Y0120292D01*
X0117950Y0120174D01*
X0118004Y0120054D01*
X0118055Y0119933D01*
X0118102Y0119810D01*
X0118145Y0119686D01*
X0118184Y0119561D01*
X0118220Y0119434D01*
X0118251Y0119306D01*
X0118279Y0119178D01*
X0118303Y0119049D01*
X0118323Y0118919D01*
X0118339Y0118788D01*
X0118351Y0118657D01*
X0118359Y0118526D01*
X0118363Y0118395D01*
X0118363Y0118263D01*
X0118359Y0118132D01*
X0118351Y0118001D01*
X0118339Y0117870D01*
X0118323Y0117739D01*
X0118303Y0117609D01*
X0118279Y0117480D01*
X0118251Y0117352D01*
X0118220Y0117224D01*
X0118184Y0117097D01*
X0118145Y0116972D01*
X0118102Y0116848D01*
X0118055Y0116725D01*
X0118004Y0116604D01*
X0117950Y0116484D01*
X0117892Y0116366D01*
X0117831Y0116249D01*
X0117766Y0116135D01*
X0117698Y0116023D01*
X0117626Y0115913D01*
X0117551Y0115805D01*
X0117473Y0115699D01*
X0117392Y0115596D01*
X0117307Y0115495D01*
X0117220Y0115397D01*
X0117129Y0115302D01*
X0117036Y0115209D01*
X0116940Y0115119D01*
X0116841Y0115032D01*
X0116740Y0114949D01*
X0116636Y0114868D01*
X0116530Y0114791D01*
X0116421Y0114717D01*
X0116310Y0114646D01*
X0116198Y0114578D01*
X0116083Y0114514D01*
X0115966Y0114454D01*
X0115847Y0114397D01*
X0115727Y0114344D01*
X0115606Y0114294D01*
X0115482Y0114248D01*
X0115358Y0114206D01*
X0115232Y0114168D01*
X0115105Y0114133D01*
X0114977Y0114102D01*
X0114849Y0114076D01*
X0114719Y0114053D01*
X0114589Y0114034D01*
X0114459Y0114019D01*
X0114328Y0114008D01*
X0114196Y0114001D01*
X0114065Y0113998D01*
X0113933Y0113999D01*
X0113802Y0114004D01*
X0113671Y0114013D01*
X0113540Y0114026D01*
X0113410Y0114043D01*
X0113280Y0114064D01*
X0113151Y0114089D01*
X0113023Y0114117D01*
X0112895Y0114150D01*
X0112769Y0114186D01*
X0112644Y0114227D01*
X0112520Y0114271D01*
X0112397Y0114318D01*
X0112276Y0114370D01*
X0112157Y0114425D01*
X0112039Y0114484D01*
X0111924Y0114546D01*
X0111810Y0114612D01*
X0111698Y0114681D01*
X0111588Y0114753D01*
X0111481Y0114829D01*
X0111376Y0114908D01*
X0111273Y0114990D01*
X0111173Y0115075D01*
X0111076Y0115164D01*
X0110981Y0115255D01*
X0110889Y0115349D01*
X0110800Y0115446D01*
X0110714Y0115545D01*
X0110631Y0115647D01*
X0110551Y0115752D01*
X0110475Y0115858D01*
X0110402Y0115967D01*
X0110332Y0116079D01*
X0110265Y0116192D01*
X0110202Y0116307D01*
X0110142Y0116425D01*
X0110086Y0116543D01*
X0110034Y0116664D01*
X0109985Y0116786D01*
X0109940Y0116910D01*
X0109899Y0117034D01*
X0109862Y0117161D01*
X0109828Y0117288D01*
X0109798Y0117416D01*
X0109773Y0117545D01*
X0109751Y0117674D01*
X0109733Y0117804D01*
X0109719Y0117935D01*
X0109709Y0118066D01*
X0109703Y0118198D01*
X0109701Y0118329D01*
X0104977Y0099431D02*
X0104979Y0099574D01*
X0104985Y0099717D01*
X0104995Y0099859D01*
X0105009Y0100001D01*
X0105027Y0100143D01*
X0105049Y0100285D01*
X0105074Y0100425D01*
X0105104Y0100565D01*
X0105138Y0100704D01*
X0105175Y0100842D01*
X0105217Y0100979D01*
X0105262Y0101114D01*
X0105311Y0101248D01*
X0105363Y0101381D01*
X0105419Y0101513D01*
X0105479Y0101642D01*
X0105543Y0101770D01*
X0105610Y0101897D01*
X0105681Y0102021D01*
X0105755Y0102143D01*
X0105832Y0102263D01*
X0105913Y0102381D01*
X0105997Y0102497D01*
X0106084Y0102610D01*
X0106174Y0102721D01*
X0106268Y0102829D01*
X0106364Y0102935D01*
X0106463Y0103037D01*
X0106566Y0103137D01*
X0106670Y0103234D01*
X0106778Y0103329D01*
X0106888Y0103420D01*
X0107001Y0103508D01*
X0107116Y0103592D01*
X0107233Y0103674D01*
X0107353Y0103752D01*
X0107474Y0103827D01*
X0107598Y0103899D01*
X0107724Y0103967D01*
X0107851Y0104031D01*
X0107981Y0104092D01*
X0108112Y0104149D01*
X0108244Y0104203D01*
X0108378Y0104252D01*
X0108513Y0104299D01*
X0108650Y0104341D01*
X0108788Y0104379D01*
X0108926Y0104414D01*
X0109066Y0104444D01*
X0109206Y0104471D01*
X0109347Y0104494D01*
X0109489Y0104513D01*
X0109631Y0104528D01*
X0109774Y0104539D01*
X0109916Y0104546D01*
X0110059Y0104549D01*
X0110202Y0104548D01*
X0110345Y0104543D01*
X0110488Y0104534D01*
X0110630Y0104521D01*
X0110772Y0104504D01*
X0110913Y0104483D01*
X0111054Y0104458D01*
X0111194Y0104430D01*
X0111333Y0104397D01*
X0111471Y0104360D01*
X0111608Y0104320D01*
X0111744Y0104276D01*
X0111879Y0104228D01*
X0112012Y0104176D01*
X0112144Y0104121D01*
X0112274Y0104062D01*
X0112403Y0103999D01*
X0112529Y0103933D01*
X0112654Y0103863D01*
X0112777Y0103790D01*
X0112897Y0103714D01*
X0113016Y0103634D01*
X0113132Y0103550D01*
X0113246Y0103464D01*
X0113357Y0103374D01*
X0113466Y0103282D01*
X0113572Y0103186D01*
X0113676Y0103088D01*
X0113777Y0102986D01*
X0113874Y0102882D01*
X0113969Y0102775D01*
X0114061Y0102666D01*
X0114150Y0102554D01*
X0114236Y0102439D01*
X0114318Y0102323D01*
X0114397Y0102203D01*
X0114473Y0102082D01*
X0114545Y0101959D01*
X0114614Y0101834D01*
X0114679Y0101707D01*
X0114741Y0101578D01*
X0114799Y0101447D01*
X0114854Y0101315D01*
X0114904Y0101181D01*
X0114951Y0101046D01*
X0114995Y0100910D01*
X0115034Y0100773D01*
X0115069Y0100634D01*
X0115101Y0100495D01*
X0115129Y0100355D01*
X0115153Y0100214D01*
X0115173Y0100072D01*
X0115189Y0099930D01*
X0115201Y0099788D01*
X0115209Y0099645D01*
X0115213Y0099502D01*
X0115213Y0099360D01*
X0115209Y0099217D01*
X0115201Y0099074D01*
X0115189Y0098932D01*
X0115173Y0098790D01*
X0115153Y0098648D01*
X0115129Y0098507D01*
X0115101Y0098367D01*
X0115069Y0098228D01*
X0115034Y0098089D01*
X0114995Y0097952D01*
X0114951Y0097816D01*
X0114904Y0097681D01*
X0114854Y0097547D01*
X0114799Y0097415D01*
X0114741Y0097284D01*
X0114679Y0097155D01*
X0114614Y0097028D01*
X0114545Y0096903D01*
X0114473Y0096780D01*
X0114397Y0096659D01*
X0114318Y0096539D01*
X0114236Y0096423D01*
X0114150Y0096308D01*
X0114061Y0096196D01*
X0113969Y0096087D01*
X0113874Y0095980D01*
X0113777Y0095876D01*
X0113676Y0095774D01*
X0113572Y0095676D01*
X0113466Y0095580D01*
X0113357Y0095488D01*
X0113246Y0095398D01*
X0113132Y0095312D01*
X0113016Y0095228D01*
X0112897Y0095148D01*
X0112777Y0095072D01*
X0112654Y0094999D01*
X0112529Y0094929D01*
X0112403Y0094863D01*
X0112274Y0094800D01*
X0112144Y0094741D01*
X0112012Y0094686D01*
X0111879Y0094634D01*
X0111744Y0094586D01*
X0111608Y0094542D01*
X0111471Y0094502D01*
X0111333Y0094465D01*
X0111194Y0094432D01*
X0111054Y0094404D01*
X0110913Y0094379D01*
X0110772Y0094358D01*
X0110630Y0094341D01*
X0110488Y0094328D01*
X0110345Y0094319D01*
X0110202Y0094314D01*
X0110059Y0094313D01*
X0109916Y0094316D01*
X0109774Y0094323D01*
X0109631Y0094334D01*
X0109489Y0094349D01*
X0109347Y0094368D01*
X0109206Y0094391D01*
X0109066Y0094418D01*
X0108926Y0094448D01*
X0108788Y0094483D01*
X0108650Y0094521D01*
X0108513Y0094563D01*
X0108378Y0094610D01*
X0108244Y0094659D01*
X0108112Y0094713D01*
X0107981Y0094770D01*
X0107851Y0094831D01*
X0107724Y0094895D01*
X0107598Y0094963D01*
X0107474Y0095035D01*
X0107353Y0095110D01*
X0107233Y0095188D01*
X0107116Y0095270D01*
X0107001Y0095354D01*
X0106888Y0095442D01*
X0106778Y0095533D01*
X0106670Y0095628D01*
X0106566Y0095725D01*
X0106463Y0095825D01*
X0106364Y0095927D01*
X0106268Y0096033D01*
X0106174Y0096141D01*
X0106084Y0096252D01*
X0105997Y0096365D01*
X0105913Y0096481D01*
X0105832Y0096599D01*
X0105755Y0096719D01*
X0105681Y0096841D01*
X0105610Y0096965D01*
X0105543Y0097092D01*
X0105479Y0097220D01*
X0105419Y0097349D01*
X0105363Y0097481D01*
X0105311Y0097614D01*
X0105262Y0097748D01*
X0105217Y0097883D01*
X0105175Y0098020D01*
X0105138Y0098158D01*
X0105104Y0098297D01*
X0105074Y0098437D01*
X0105049Y0098577D01*
X0105027Y0098719D01*
X0105009Y0098861D01*
X0104995Y0099003D01*
X0104985Y0099145D01*
X0104979Y0099288D01*
X0104977Y0099431D01*
X0023088Y0103762D02*
X0023090Y0103899D01*
X0023096Y0104037D01*
X0023106Y0104174D01*
X0023120Y0104310D01*
X0023138Y0104447D01*
X0023160Y0104582D01*
X0023186Y0104717D01*
X0023215Y0104851D01*
X0023249Y0104985D01*
X0023286Y0105117D01*
X0023328Y0105248D01*
X0023373Y0105378D01*
X0023422Y0105506D01*
X0023474Y0105633D01*
X0023531Y0105758D01*
X0023590Y0105882D01*
X0023654Y0106004D01*
X0023721Y0106124D01*
X0023791Y0106242D01*
X0023865Y0106358D01*
X0023942Y0106472D01*
X0024023Y0106583D01*
X0024106Y0106692D01*
X0024193Y0106799D01*
X0024283Y0106902D01*
X0024376Y0107004D01*
X0024472Y0107102D01*
X0024570Y0107198D01*
X0024672Y0107291D01*
X0024775Y0107381D01*
X0024882Y0107468D01*
X0024991Y0107551D01*
X0025102Y0107632D01*
X0025216Y0107709D01*
X0025332Y0107783D01*
X0025450Y0107853D01*
X0025570Y0107920D01*
X0025692Y0107984D01*
X0025816Y0108043D01*
X0025941Y0108100D01*
X0026068Y0108152D01*
X0026196Y0108201D01*
X0026326Y0108246D01*
X0026457Y0108288D01*
X0026589Y0108325D01*
X0026723Y0108359D01*
X0026857Y0108388D01*
X0026992Y0108414D01*
X0027127Y0108436D01*
X0027264Y0108454D01*
X0027400Y0108468D01*
X0027537Y0108478D01*
X0027675Y0108484D01*
X0027812Y0108486D01*
X0027949Y0108484D01*
X0028087Y0108478D01*
X0028224Y0108468D01*
X0028360Y0108454D01*
X0028497Y0108436D01*
X0028632Y0108414D01*
X0028767Y0108388D01*
X0028901Y0108359D01*
X0029035Y0108325D01*
X0029167Y0108288D01*
X0029298Y0108246D01*
X0029428Y0108201D01*
X0029556Y0108152D01*
X0029683Y0108100D01*
X0029808Y0108043D01*
X0029932Y0107984D01*
X0030054Y0107920D01*
X0030174Y0107853D01*
X0030292Y0107783D01*
X0030408Y0107709D01*
X0030522Y0107632D01*
X0030633Y0107551D01*
X0030742Y0107468D01*
X0030849Y0107381D01*
X0030952Y0107291D01*
X0031054Y0107198D01*
X0031152Y0107102D01*
X0031248Y0107004D01*
X0031341Y0106902D01*
X0031431Y0106799D01*
X0031518Y0106692D01*
X0031601Y0106583D01*
X0031682Y0106472D01*
X0031759Y0106358D01*
X0031833Y0106242D01*
X0031903Y0106124D01*
X0031970Y0106004D01*
X0032034Y0105882D01*
X0032093Y0105758D01*
X0032150Y0105633D01*
X0032202Y0105506D01*
X0032251Y0105378D01*
X0032296Y0105248D01*
X0032338Y0105117D01*
X0032375Y0104985D01*
X0032409Y0104851D01*
X0032438Y0104717D01*
X0032464Y0104582D01*
X0032486Y0104447D01*
X0032504Y0104310D01*
X0032518Y0104174D01*
X0032528Y0104037D01*
X0032534Y0103899D01*
X0032536Y0103762D01*
X0032534Y0103625D01*
X0032528Y0103487D01*
X0032518Y0103350D01*
X0032504Y0103214D01*
X0032486Y0103077D01*
X0032464Y0102942D01*
X0032438Y0102807D01*
X0032409Y0102673D01*
X0032375Y0102539D01*
X0032338Y0102407D01*
X0032296Y0102276D01*
X0032251Y0102146D01*
X0032202Y0102018D01*
X0032150Y0101891D01*
X0032093Y0101766D01*
X0032034Y0101642D01*
X0031970Y0101520D01*
X0031903Y0101400D01*
X0031833Y0101282D01*
X0031759Y0101166D01*
X0031682Y0101052D01*
X0031601Y0100941D01*
X0031518Y0100832D01*
X0031431Y0100725D01*
X0031341Y0100622D01*
X0031248Y0100520D01*
X0031152Y0100422D01*
X0031054Y0100326D01*
X0030952Y0100233D01*
X0030849Y0100143D01*
X0030742Y0100056D01*
X0030633Y0099973D01*
X0030522Y0099892D01*
X0030408Y0099815D01*
X0030292Y0099741D01*
X0030174Y0099671D01*
X0030054Y0099604D01*
X0029932Y0099540D01*
X0029808Y0099481D01*
X0029683Y0099424D01*
X0029556Y0099372D01*
X0029428Y0099323D01*
X0029298Y0099278D01*
X0029167Y0099236D01*
X0029035Y0099199D01*
X0028901Y0099165D01*
X0028767Y0099136D01*
X0028632Y0099110D01*
X0028497Y0099088D01*
X0028360Y0099070D01*
X0028224Y0099056D01*
X0028087Y0099046D01*
X0027949Y0099040D01*
X0027812Y0099038D01*
X0027675Y0099040D01*
X0027537Y0099046D01*
X0027400Y0099056D01*
X0027264Y0099070D01*
X0027127Y0099088D01*
X0026992Y0099110D01*
X0026857Y0099136D01*
X0026723Y0099165D01*
X0026589Y0099199D01*
X0026457Y0099236D01*
X0026326Y0099278D01*
X0026196Y0099323D01*
X0026068Y0099372D01*
X0025941Y0099424D01*
X0025816Y0099481D01*
X0025692Y0099540D01*
X0025570Y0099604D01*
X0025450Y0099671D01*
X0025332Y0099741D01*
X0025216Y0099815D01*
X0025102Y0099892D01*
X0024991Y0099973D01*
X0024882Y0100056D01*
X0024775Y0100143D01*
X0024672Y0100233D01*
X0024570Y0100326D01*
X0024472Y0100422D01*
X0024376Y0100520D01*
X0024283Y0100622D01*
X0024193Y0100725D01*
X0024106Y0100832D01*
X0024023Y0100941D01*
X0023942Y0101052D01*
X0023865Y0101166D01*
X0023791Y0101282D01*
X0023721Y0101400D01*
X0023654Y0101520D01*
X0023590Y0101642D01*
X0023531Y0101766D01*
X0023474Y0101891D01*
X0023422Y0102018D01*
X0023373Y0102146D01*
X0023328Y0102276D01*
X0023286Y0102407D01*
X0023249Y0102539D01*
X0023215Y0102673D01*
X0023186Y0102807D01*
X0023160Y0102942D01*
X0023138Y0103077D01*
X0023120Y0103214D01*
X0023106Y0103350D01*
X0023096Y0103487D01*
X0023090Y0103625D01*
X0023088Y0103762D01*
X0280174Y0125022D02*
X0280176Y0125159D01*
X0280182Y0125297D01*
X0280192Y0125434D01*
X0280206Y0125570D01*
X0280224Y0125707D01*
X0280246Y0125842D01*
X0280272Y0125977D01*
X0280301Y0126111D01*
X0280335Y0126245D01*
X0280372Y0126377D01*
X0280414Y0126508D01*
X0280459Y0126638D01*
X0280508Y0126766D01*
X0280560Y0126893D01*
X0280617Y0127018D01*
X0280676Y0127142D01*
X0280740Y0127264D01*
X0280807Y0127384D01*
X0280877Y0127502D01*
X0280951Y0127618D01*
X0281028Y0127732D01*
X0281109Y0127843D01*
X0281192Y0127952D01*
X0281279Y0128059D01*
X0281369Y0128162D01*
X0281462Y0128264D01*
X0281558Y0128362D01*
X0281656Y0128458D01*
X0281758Y0128551D01*
X0281861Y0128641D01*
X0281968Y0128728D01*
X0282077Y0128811D01*
X0282188Y0128892D01*
X0282302Y0128969D01*
X0282418Y0129043D01*
X0282536Y0129113D01*
X0282656Y0129180D01*
X0282778Y0129244D01*
X0282902Y0129303D01*
X0283027Y0129360D01*
X0283154Y0129412D01*
X0283282Y0129461D01*
X0283412Y0129506D01*
X0283543Y0129548D01*
X0283675Y0129585D01*
X0283809Y0129619D01*
X0283943Y0129648D01*
X0284078Y0129674D01*
X0284213Y0129696D01*
X0284350Y0129714D01*
X0284486Y0129728D01*
X0284623Y0129738D01*
X0284761Y0129744D01*
X0284898Y0129746D01*
X0285035Y0129744D01*
X0285173Y0129738D01*
X0285310Y0129728D01*
X0285446Y0129714D01*
X0285583Y0129696D01*
X0285718Y0129674D01*
X0285853Y0129648D01*
X0285987Y0129619D01*
X0286121Y0129585D01*
X0286253Y0129548D01*
X0286384Y0129506D01*
X0286514Y0129461D01*
X0286642Y0129412D01*
X0286769Y0129360D01*
X0286894Y0129303D01*
X0287018Y0129244D01*
X0287140Y0129180D01*
X0287260Y0129113D01*
X0287378Y0129043D01*
X0287494Y0128969D01*
X0287608Y0128892D01*
X0287719Y0128811D01*
X0287828Y0128728D01*
X0287935Y0128641D01*
X0288038Y0128551D01*
X0288140Y0128458D01*
X0288238Y0128362D01*
X0288334Y0128264D01*
X0288427Y0128162D01*
X0288517Y0128059D01*
X0288604Y0127952D01*
X0288687Y0127843D01*
X0288768Y0127732D01*
X0288845Y0127618D01*
X0288919Y0127502D01*
X0288989Y0127384D01*
X0289056Y0127264D01*
X0289120Y0127142D01*
X0289179Y0127018D01*
X0289236Y0126893D01*
X0289288Y0126766D01*
X0289337Y0126638D01*
X0289382Y0126508D01*
X0289424Y0126377D01*
X0289461Y0126245D01*
X0289495Y0126111D01*
X0289524Y0125977D01*
X0289550Y0125842D01*
X0289572Y0125707D01*
X0289590Y0125570D01*
X0289604Y0125434D01*
X0289614Y0125297D01*
X0289620Y0125159D01*
X0289622Y0125022D01*
X0289620Y0124885D01*
X0289614Y0124747D01*
X0289604Y0124610D01*
X0289590Y0124474D01*
X0289572Y0124337D01*
X0289550Y0124202D01*
X0289524Y0124067D01*
X0289495Y0123933D01*
X0289461Y0123799D01*
X0289424Y0123667D01*
X0289382Y0123536D01*
X0289337Y0123406D01*
X0289288Y0123278D01*
X0289236Y0123151D01*
X0289179Y0123026D01*
X0289120Y0122902D01*
X0289056Y0122780D01*
X0288989Y0122660D01*
X0288919Y0122542D01*
X0288845Y0122426D01*
X0288768Y0122312D01*
X0288687Y0122201D01*
X0288604Y0122092D01*
X0288517Y0121985D01*
X0288427Y0121882D01*
X0288334Y0121780D01*
X0288238Y0121682D01*
X0288140Y0121586D01*
X0288038Y0121493D01*
X0287935Y0121403D01*
X0287828Y0121316D01*
X0287719Y0121233D01*
X0287608Y0121152D01*
X0287494Y0121075D01*
X0287378Y0121001D01*
X0287260Y0120931D01*
X0287140Y0120864D01*
X0287018Y0120800D01*
X0286894Y0120741D01*
X0286769Y0120684D01*
X0286642Y0120632D01*
X0286514Y0120583D01*
X0286384Y0120538D01*
X0286253Y0120496D01*
X0286121Y0120459D01*
X0285987Y0120425D01*
X0285853Y0120396D01*
X0285718Y0120370D01*
X0285583Y0120348D01*
X0285446Y0120330D01*
X0285310Y0120316D01*
X0285173Y0120306D01*
X0285035Y0120300D01*
X0284898Y0120298D01*
X0284761Y0120300D01*
X0284623Y0120306D01*
X0284486Y0120316D01*
X0284350Y0120330D01*
X0284213Y0120348D01*
X0284078Y0120370D01*
X0283943Y0120396D01*
X0283809Y0120425D01*
X0283675Y0120459D01*
X0283543Y0120496D01*
X0283412Y0120538D01*
X0283282Y0120583D01*
X0283154Y0120632D01*
X0283027Y0120684D01*
X0282902Y0120741D01*
X0282778Y0120800D01*
X0282656Y0120864D01*
X0282536Y0120931D01*
X0282418Y0121001D01*
X0282302Y0121075D01*
X0282188Y0121152D01*
X0282077Y0121233D01*
X0281968Y0121316D01*
X0281861Y0121403D01*
X0281758Y0121493D01*
X0281656Y0121586D01*
X0281558Y0121682D01*
X0281462Y0121780D01*
X0281369Y0121882D01*
X0281279Y0121985D01*
X0281192Y0122092D01*
X0281109Y0122201D01*
X0281028Y0122312D01*
X0280951Y0122426D01*
X0280877Y0122542D01*
X0280807Y0122660D01*
X0280740Y0122780D01*
X0280676Y0122902D01*
X0280617Y0123026D01*
X0280560Y0123151D01*
X0280508Y0123278D01*
X0280459Y0123406D01*
X0280414Y0123536D01*
X0280372Y0123667D01*
X0280335Y0123799D01*
X0280301Y0123933D01*
X0280272Y0124067D01*
X0280246Y0124202D01*
X0280224Y0124337D01*
X0280206Y0124474D01*
X0280192Y0124610D01*
X0280182Y0124747D01*
X0280176Y0124885D01*
X0280174Y0125022D01*
D12*
X0078205Y0044333D03*
X0078205Y0039333D03*
X0078205Y0034333D03*
X0078205Y0029333D03*
X0057733Y0029333D03*
X0057733Y0034333D03*
X0057733Y0039333D03*
X0057733Y0044333D03*
D13*
X0043757Y0042739D03*
X0037064Y0042739D03*
X0037064Y0030928D03*
X0043757Y0030928D03*
X0103993Y0030928D03*
X0110686Y0030928D03*
D14*
X0210686Y0030770D03*
X0210686Y0040770D03*
X0205528Y0223841D03*
X0195528Y0223841D03*
X0185528Y0223841D03*
X0175528Y0223841D03*
X0165528Y0223841D03*
X0155528Y0223841D03*
X0145528Y0223841D03*
X0135528Y0223841D03*
X0125528Y0223841D03*
X0115528Y0223841D03*
X0105528Y0223841D03*
X0095528Y0223841D03*
X0060095Y0223841D03*
X0050095Y0223841D03*
X0040095Y0223841D03*
X0030095Y0223841D03*
D15*
X0101827Y0042542D03*
X0112851Y0042542D03*
D16*
X0071906Y0054550D03*
X0071906Y0062424D03*
X0210686Y0058487D03*
X0210686Y0050613D03*
D17*
X0194741Y0046676D03*
X0184505Y0046676D03*
X0174662Y0026991D03*
X0164820Y0046676D03*
X0154583Y0046676D03*
D18*
X0159701Y0048953D02*
X0159331Y0049848D01*
X0157755Y0051423D01*
X0155697Y0052276D01*
X0153469Y0052276D01*
X0151411Y0051423D01*
X0149836Y0049848D01*
X0149309Y0048576D01*
X0112064Y0048576D01*
X0110951Y0047463D01*
X0110951Y0046991D01*
X0109557Y0046991D01*
X0108795Y0046230D01*
X0108795Y0038854D01*
X0109113Y0038536D01*
X0105566Y0038536D01*
X0105883Y0038854D01*
X0105883Y0046230D01*
X0105122Y0046991D01*
X0098533Y0046991D01*
X0097775Y0046233D01*
X0083656Y0046233D01*
X0083075Y0046814D01*
X0073806Y0046814D01*
X0073806Y0051084D01*
X0075201Y0051084D01*
X0075962Y0051846D01*
X0075962Y0052050D01*
X0086402Y0052050D01*
X0087099Y0051761D01*
X0088209Y0051761D01*
X0089234Y0052185D01*
X0090019Y0052970D01*
X0090443Y0053995D01*
X0090443Y0055104D01*
X0090019Y0056129D01*
X0089234Y0056914D01*
X0088209Y0057339D01*
X0087099Y0057339D01*
X0086402Y0057050D01*
X0075962Y0057050D01*
X0075962Y0057253D01*
X0075201Y0058015D01*
X0068612Y0058015D01*
X0067850Y0057253D01*
X0067850Y0051846D01*
X0068612Y0051084D01*
X0070006Y0051084D01*
X0070006Y0031233D01*
X0063183Y0031233D01*
X0062602Y0031814D01*
X0058276Y0031814D01*
X0058230Y0031833D01*
X0047616Y0031833D01*
X0047616Y0032433D01*
X0052283Y0032433D01*
X0052864Y0031852D01*
X0062602Y0031852D01*
X0063364Y0032613D01*
X0063364Y0036053D01*
X0062602Y0036814D01*
X0052864Y0036814D01*
X0052283Y0036233D01*
X0050184Y0036233D01*
X0050184Y0042835D01*
X0050805Y0042214D01*
X0051724Y0041833D01*
X0058230Y0041833D01*
X0058276Y0041852D01*
X0062132Y0041852D01*
X0062132Y0041814D01*
X0052864Y0041814D01*
X0052102Y0041053D01*
X0052102Y0037613D01*
X0052864Y0036852D01*
X0062602Y0036852D01*
X0063183Y0037433D01*
X0064819Y0037433D01*
X0065932Y0038546D01*
X0065932Y0060524D01*
X0067850Y0060524D01*
X0067850Y0059720D01*
X0068612Y0058958D01*
X0075201Y0058958D01*
X0075962Y0059720D01*
X0075962Y0060524D01*
X0113313Y0060524D01*
X0113313Y0053763D01*
X0114426Y0052650D01*
X0162920Y0052650D01*
X0162920Y0051950D01*
X0161647Y0051423D01*
X0160072Y0049848D01*
X0159701Y0048953D01*
X0159605Y0049186D02*
X0159798Y0049186D01*
X0160409Y0050184D02*
X0158994Y0050184D01*
X0157995Y0051183D02*
X0161407Y0051183D01*
X0162920Y0052181D02*
X0155924Y0052181D01*
X0153242Y0052181D02*
X0089225Y0052181D01*
X0090106Y0053180D02*
X0113896Y0053180D01*
X0113313Y0054179D02*
X0090443Y0054179D01*
X0090413Y0055177D02*
X0113313Y0055177D01*
X0113313Y0056176D02*
X0089972Y0056176D01*
X0088606Y0057174D02*
X0113313Y0057174D01*
X0113313Y0058173D02*
X0065932Y0058173D01*
X0065932Y0059171D02*
X0068399Y0059171D01*
X0067850Y0060170D02*
X0065932Y0060170D01*
X0065932Y0057174D02*
X0067850Y0057174D01*
X0067850Y0056176D02*
X0065932Y0056176D01*
X0065932Y0055177D02*
X0067850Y0055177D01*
X0067850Y0054179D02*
X0065932Y0054179D01*
X0065932Y0053180D02*
X0067850Y0053180D01*
X0067850Y0052181D02*
X0065932Y0052181D01*
X0065932Y0051183D02*
X0068513Y0051183D01*
X0070006Y0050184D02*
X0065932Y0050184D01*
X0065932Y0049186D02*
X0070006Y0049186D01*
X0070006Y0048187D02*
X0065932Y0048187D01*
X0065932Y0047189D02*
X0070006Y0047189D01*
X0070006Y0046190D02*
X0065932Y0046190D01*
X0065932Y0045192D02*
X0070006Y0045192D01*
X0070006Y0044193D02*
X0065932Y0044193D01*
X0065932Y0043195D02*
X0070006Y0043195D01*
X0070006Y0042196D02*
X0065932Y0042196D01*
X0065932Y0041198D02*
X0070006Y0041198D01*
X0070006Y0040199D02*
X0065932Y0040199D01*
X0065932Y0039201D02*
X0070006Y0039201D01*
X0070006Y0038202D02*
X0065588Y0038202D01*
X0062954Y0037204D02*
X0070006Y0037204D01*
X0070006Y0036205D02*
X0063211Y0036205D01*
X0063364Y0035207D02*
X0070006Y0035207D01*
X0070006Y0034208D02*
X0063364Y0034208D01*
X0063364Y0033210D02*
X0070006Y0033210D01*
X0070006Y0032211D02*
X0062961Y0032211D01*
X0063183Y0027433D02*
X0072693Y0027433D01*
X0072724Y0027464D01*
X0073336Y0026852D01*
X0083075Y0026852D01*
X0083656Y0027433D01*
X0085754Y0027433D01*
X0085754Y0018330D01*
X0086867Y0017217D01*
X0127811Y0017217D01*
X0128924Y0018330D01*
X0128924Y0032374D01*
X0150656Y0032374D01*
X0149160Y0030878D01*
X0148115Y0028356D01*
X0148115Y0025626D01*
X0149160Y0023103D01*
X0150194Y0022069D01*
X0149160Y0021035D01*
X0148115Y0018513D01*
X0148115Y0015783D01*
X0148132Y0015743D01*
X0025225Y0015743D01*
X0025225Y0095033D01*
X0027812Y0094518D01*
X0031349Y0095222D01*
X0034348Y0097226D01*
X0036352Y0100225D01*
X0037056Y0103762D01*
X0036352Y0107300D01*
X0034348Y0110299D01*
X0031349Y0112303D01*
X0027812Y0113006D01*
X0027812Y0113006D01*
X0025225Y0112492D01*
X0025225Y0188510D01*
X0025308Y0188540D01*
X0025308Y0188540D01*
X0027747Y0190586D01*
X0027747Y0190586D01*
X0027747Y0190586D01*
X0028068Y0191141D01*
X0028068Y0124918D01*
X0028448Y0124000D01*
X0029151Y0123296D01*
X0030070Y0122916D01*
X0037910Y0122916D01*
X0037910Y0096420D01*
X0036566Y0096420D01*
X0035647Y0096039D01*
X0034944Y0095336D01*
X0034564Y0094417D01*
X0034564Y0046991D01*
X0033966Y0046991D01*
X0033205Y0046230D01*
X0033205Y0039247D01*
X0033966Y0038486D01*
X0040161Y0038486D01*
X0040410Y0038735D01*
X0040659Y0038486D01*
X0046384Y0038486D01*
X0046384Y0035180D01*
X0040659Y0035180D01*
X0040551Y0035073D01*
X0040544Y0035081D01*
X0040202Y0035278D01*
X0039820Y0035380D01*
X0037564Y0035380D01*
X0037564Y0031428D01*
X0036564Y0031428D01*
X0036564Y0035380D01*
X0034307Y0035380D01*
X0033926Y0035278D01*
X0033584Y0035081D01*
X0033304Y0034801D01*
X0033107Y0034459D01*
X0033005Y0034078D01*
X0033005Y0031428D01*
X0036564Y0031428D01*
X0036564Y0030428D01*
X0033005Y0030428D01*
X0033005Y0027777D01*
X0033107Y0027396D01*
X0033304Y0027054D01*
X0033584Y0026775D01*
X0033926Y0026577D01*
X0034307Y0026475D01*
X0036564Y0026475D01*
X0036564Y0030428D01*
X0037564Y0030428D01*
X0037564Y0026475D01*
X0039820Y0026475D01*
X0040202Y0026577D01*
X0040544Y0026775D01*
X0040551Y0026782D01*
X0040659Y0026675D01*
X0046854Y0026675D01*
X0047012Y0026833D01*
X0058230Y0026833D01*
X0058276Y0026852D01*
X0062602Y0026852D01*
X0063183Y0027433D01*
X0062969Y0027219D02*
X0072969Y0027219D01*
X0073806Y0031814D02*
X0073806Y0031852D01*
X0083075Y0031852D01*
X0083656Y0032433D01*
X0089691Y0032433D01*
X0089691Y0030141D01*
X0090804Y0029028D01*
X0100134Y0029028D01*
X0100134Y0027436D01*
X0100895Y0026675D01*
X0107090Y0026675D01*
X0107198Y0026782D01*
X0107206Y0026775D01*
X0107548Y0026577D01*
X0107929Y0026475D01*
X0110186Y0026475D01*
X0110186Y0030428D01*
X0111186Y0030428D01*
X0111186Y0031428D01*
X0114745Y0031428D01*
X0114745Y0034078D01*
X0114642Y0034459D01*
X0114483Y0034736D01*
X0125124Y0034736D01*
X0125124Y0021017D01*
X0089554Y0021017D01*
X0089554Y0030120D01*
X0088441Y0031233D01*
X0083656Y0031233D01*
X0083075Y0031814D01*
X0073806Y0031814D01*
X0078296Y0039242D02*
X0078296Y0039424D01*
X0084036Y0039424D01*
X0084036Y0040712D01*
X0083934Y0041093D01*
X0083736Y0041435D01*
X0083457Y0041714D01*
X0083127Y0041905D01*
X0083656Y0042433D01*
X0097771Y0042433D01*
X0097771Y0038854D01*
X0098533Y0038092D01*
X0099927Y0038092D01*
X0099927Y0035849D01*
X0100746Y0035031D01*
X0100134Y0034419D01*
X0100134Y0032828D01*
X0093491Y0032828D01*
X0093491Y0035120D01*
X0092378Y0036233D01*
X0083656Y0036233D01*
X0083127Y0036761D01*
X0083457Y0036952D01*
X0083736Y0037231D01*
X0083934Y0037573D01*
X0084036Y0037954D01*
X0084036Y0039242D01*
X0078296Y0039242D01*
X0084036Y0039201D02*
X0097771Y0039201D01*
X0097771Y0040199D02*
X0084036Y0040199D01*
X0083873Y0041198D02*
X0097771Y0041198D01*
X0097771Y0042196D02*
X0083419Y0042196D01*
X0084036Y0038202D02*
X0098423Y0038202D01*
X0099927Y0037204D02*
X0083709Y0037204D01*
X0083434Y0032211D02*
X0089691Y0032211D01*
X0089691Y0031213D02*
X0088461Y0031213D01*
X0089460Y0030214D02*
X0089691Y0030214D01*
X0089554Y0029216D02*
X0090616Y0029216D01*
X0089554Y0028217D02*
X0100134Y0028217D01*
X0100351Y0027219D02*
X0089554Y0027219D01*
X0089554Y0026220D02*
X0125124Y0026220D01*
X0125124Y0025222D02*
X0089554Y0025222D01*
X0089554Y0024223D02*
X0125124Y0024223D01*
X0125124Y0023225D02*
X0089554Y0023225D01*
X0089554Y0022226D02*
X0125124Y0022226D01*
X0125124Y0021228D02*
X0089554Y0021228D01*
X0085852Y0018232D02*
X0025225Y0018232D01*
X0025225Y0017234D02*
X0086850Y0017234D01*
X0085754Y0019231D02*
X0025225Y0019231D01*
X0025225Y0020229D02*
X0085754Y0020229D01*
X0085754Y0021228D02*
X0025225Y0021228D01*
X0025225Y0022226D02*
X0085754Y0022226D01*
X0085754Y0023225D02*
X0025225Y0023225D01*
X0025225Y0024223D02*
X0085754Y0024223D01*
X0085754Y0025222D02*
X0025225Y0025222D01*
X0025225Y0026220D02*
X0085754Y0026220D01*
X0085754Y0027219D02*
X0083441Y0027219D01*
X0093491Y0033210D02*
X0100134Y0033210D01*
X0100134Y0034208D02*
X0093491Y0034208D01*
X0093404Y0035207D02*
X0100570Y0035207D01*
X0099927Y0036205D02*
X0092406Y0036205D01*
X0105883Y0039201D02*
X0108795Y0039201D01*
X0108795Y0040199D02*
X0105883Y0040199D01*
X0105883Y0041198D02*
X0108795Y0041198D01*
X0108795Y0042196D02*
X0105883Y0042196D01*
X0105883Y0043195D02*
X0108795Y0043195D01*
X0108795Y0044193D02*
X0105883Y0044193D01*
X0105883Y0045192D02*
X0108795Y0045192D01*
X0108795Y0046190D02*
X0105883Y0046190D01*
X0110951Y0047189D02*
X0073806Y0047189D01*
X0073806Y0048187D02*
X0111676Y0048187D01*
X0117113Y0056450D02*
X0117113Y0063211D01*
X0116000Y0064324D01*
X0075962Y0064324D01*
X0075962Y0065127D01*
X0075201Y0065889D01*
X0068612Y0065889D01*
X0067850Y0065127D01*
X0067850Y0064324D01*
X0063245Y0064324D01*
X0062132Y0063211D01*
X0062132Y0046814D01*
X0058276Y0046814D01*
X0058230Y0046833D01*
X0054721Y0046833D01*
X0054721Y0129850D01*
X0054340Y0130769D01*
X0054320Y0130790D01*
X0057595Y0130790D01*
X0057595Y0073737D01*
X0057976Y0072819D01*
X0058679Y0072115D01*
X0059598Y0071735D01*
X0086402Y0071735D01*
X0087099Y0071446D01*
X0088209Y0071446D01*
X0089234Y0071870D01*
X0090019Y0072655D01*
X0090443Y0073680D01*
X0090443Y0074789D01*
X0090019Y0075814D01*
X0089234Y0076599D01*
X0088209Y0077024D01*
X0087099Y0077024D01*
X0086402Y0076735D01*
X0062595Y0076735D01*
X0062595Y0133787D01*
X0062215Y0134706D01*
X0061511Y0135409D01*
X0060592Y0135790D01*
X0052595Y0135790D01*
X0052595Y0219465D01*
X0052927Y0219602D01*
X0054334Y0221009D01*
X0055017Y0222659D01*
X0055023Y0222623D01*
X0055276Y0221845D01*
X0055648Y0221116D01*
X0056129Y0220453D01*
X0056708Y0219875D01*
X0057370Y0219394D01*
X0058099Y0219022D01*
X0058877Y0218769D01*
X0059595Y0218655D01*
X0059595Y0223341D01*
X0060595Y0223341D01*
X0060595Y0218655D01*
X0061313Y0218769D01*
X0062091Y0219022D01*
X0062821Y0219394D01*
X0063483Y0219875D01*
X0064061Y0220453D01*
X0064543Y0221116D01*
X0064914Y0221845D01*
X0065167Y0222623D01*
X0065281Y0223341D01*
X0060595Y0223341D01*
X0060595Y0224341D01*
X0065281Y0224341D01*
X0065167Y0225059D01*
X0064914Y0225837D01*
X0064543Y0226566D01*
X0064071Y0227215D01*
X0091831Y0227215D01*
X0091289Y0226673D01*
X0090528Y0224836D01*
X0090528Y0222846D01*
X0091289Y0221009D01*
X0092696Y0219602D01*
X0094534Y0218841D01*
X0096523Y0218841D01*
X0098360Y0219602D01*
X0099767Y0221009D01*
X0100528Y0222846D01*
X0101289Y0221009D01*
X0102696Y0219602D01*
X0104534Y0218841D01*
X0106523Y0218841D01*
X0108360Y0219602D01*
X0109767Y0221009D01*
X0110528Y0222846D01*
X0111289Y0221009D01*
X0112696Y0219602D01*
X0114534Y0218841D01*
X0116523Y0218841D01*
X0118360Y0219602D01*
X0119767Y0221009D01*
X0120528Y0222846D01*
X0121289Y0221009D01*
X0122696Y0219602D01*
X0124534Y0218841D01*
X0126523Y0218841D01*
X0128360Y0219602D01*
X0129767Y0221009D01*
X0130528Y0222846D01*
X0131289Y0221009D01*
X0132696Y0219602D01*
X0134534Y0218841D01*
X0136523Y0218841D01*
X0138360Y0219602D01*
X0139767Y0221009D01*
X0140528Y0222846D01*
X0141289Y0221009D01*
X0142696Y0219602D01*
X0144534Y0218841D01*
X0146523Y0218841D01*
X0148360Y0219602D01*
X0149767Y0221009D01*
X0150528Y0222846D01*
X0151289Y0221009D01*
X0152696Y0219602D01*
X0154534Y0218841D01*
X0156523Y0218841D01*
X0158360Y0219602D01*
X0159767Y0221009D01*
X0160528Y0222846D01*
X0161289Y0221009D01*
X0162696Y0219602D01*
X0164534Y0218841D01*
X0166523Y0218841D01*
X0168360Y0219602D01*
X0169767Y0221009D01*
X0170528Y0222846D01*
X0171289Y0221009D01*
X0172696Y0219602D01*
X0174534Y0218841D01*
X0176523Y0218841D01*
X0178360Y0219602D01*
X0179767Y0221009D01*
X0180528Y0222846D01*
X0181289Y0221009D01*
X0182696Y0219602D01*
X0184534Y0218841D01*
X0186523Y0218841D01*
X0188360Y0219602D01*
X0189767Y0221009D01*
X0190528Y0222846D01*
X0191289Y0221009D01*
X0192696Y0219602D01*
X0194534Y0218841D01*
X0196523Y0218841D01*
X0198360Y0219602D01*
X0199767Y0221009D01*
X0200528Y0222846D01*
X0201289Y0221009D01*
X0202696Y0219602D01*
X0204534Y0218841D01*
X0206523Y0218841D01*
X0208360Y0219602D01*
X0209767Y0221009D01*
X0210528Y0222846D01*
X0210528Y0224836D01*
X0209767Y0226673D01*
X0209225Y0227215D01*
X0289847Y0227215D01*
X0289847Y0132619D01*
X0288436Y0133562D01*
X0284898Y0134266D01*
X0281361Y0133562D01*
X0281361Y0133562D01*
X0278362Y0131559D01*
X0278362Y0131559D01*
X0276358Y0128560D01*
X0275654Y0125022D01*
X0276358Y0121484D01*
X0278362Y0118485D01*
X0281361Y0116482D01*
X0284898Y0115778D01*
X0284898Y0115778D01*
X0288436Y0116482D01*
X0289847Y0117425D01*
X0289847Y0082475D01*
X0221803Y0082475D01*
X0218702Y0081190D01*
X0216328Y0078817D01*
X0215044Y0075716D01*
X0215044Y0043314D01*
X0214924Y0043602D01*
X0213518Y0045009D01*
X0211680Y0045770D01*
X0209691Y0045770D01*
X0207853Y0045009D01*
X0206447Y0043602D01*
X0205686Y0041765D01*
X0205686Y0039776D01*
X0206199Y0038536D01*
X0196641Y0038536D01*
X0196641Y0041401D01*
X0197913Y0041928D01*
X0199488Y0043503D01*
X0200341Y0045562D01*
X0200341Y0047789D01*
X0199958Y0048713D01*
X0206630Y0048713D01*
X0206630Y0047909D01*
X0207391Y0047147D01*
X0213980Y0047147D01*
X0214742Y0047909D01*
X0214742Y0053316D01*
X0213980Y0054078D01*
X0207391Y0054078D01*
X0206630Y0053316D01*
X0206630Y0052513D01*
X0193954Y0052513D01*
X0193717Y0052276D01*
X0193627Y0052276D01*
X0191569Y0051423D01*
X0189993Y0049848D01*
X0189623Y0048953D01*
X0189252Y0049848D01*
X0187677Y0051423D01*
X0186405Y0051950D01*
X0186405Y0055337D01*
X0185292Y0056450D01*
X0117113Y0056450D01*
X0117113Y0057174D02*
X0206430Y0057174D01*
X0206430Y0057987D02*
X0206430Y0056124D01*
X0206532Y0055742D01*
X0206729Y0055400D01*
X0207009Y0055121D01*
X0207351Y0054923D01*
X0207732Y0054821D01*
X0210186Y0054821D01*
X0210186Y0057987D01*
X0211186Y0057987D01*
X0211186Y0058987D01*
X0210186Y0058987D01*
X0210186Y0062152D01*
X0207732Y0062152D01*
X0207351Y0062050D01*
X0207009Y0061852D01*
X0206729Y0061573D01*
X0206532Y0061231D01*
X0206430Y0060849D01*
X0206430Y0058987D01*
X0210186Y0058987D01*
X0210186Y0057987D01*
X0206430Y0057987D01*
X0206430Y0059171D02*
X0117113Y0059171D01*
X0117113Y0058173D02*
X0210186Y0058173D01*
X0210186Y0059171D02*
X0211186Y0059171D01*
X0211186Y0058987D02*
X0211186Y0062152D01*
X0213639Y0062152D01*
X0214021Y0062050D01*
X0214363Y0061852D01*
X0214642Y0061573D01*
X0214839Y0061231D01*
X0214942Y0060849D01*
X0214942Y0058987D01*
X0211186Y0058987D01*
X0211186Y0058173D02*
X0215044Y0058173D01*
X0214942Y0057987D02*
X0211186Y0057987D01*
X0211186Y0054821D01*
X0213639Y0054821D01*
X0214021Y0054923D01*
X0214363Y0055121D01*
X0214642Y0055400D01*
X0214839Y0055742D01*
X0214942Y0056124D01*
X0214942Y0057987D01*
X0214942Y0057174D02*
X0215044Y0057174D01*
X0215044Y0056176D02*
X0214942Y0056176D01*
X0215044Y0055177D02*
X0214419Y0055177D01*
X0215044Y0054179D02*
X0186405Y0054179D01*
X0186405Y0055177D02*
X0206953Y0055177D01*
X0206430Y0056176D02*
X0185566Y0056176D01*
X0186405Y0053180D02*
X0206630Y0053180D01*
X0206630Y0048187D02*
X0200176Y0048187D01*
X0200341Y0047189D02*
X0207350Y0047189D01*
X0208295Y0045192D02*
X0200188Y0045192D01*
X0200341Y0046190D02*
X0215044Y0046190D01*
X0215044Y0045192D02*
X0213076Y0045192D01*
X0214333Y0044193D02*
X0215044Y0044193D01*
X0215044Y0047189D02*
X0214022Y0047189D01*
X0214742Y0048187D02*
X0215044Y0048187D01*
X0215044Y0049186D02*
X0214742Y0049186D01*
X0214742Y0050184D02*
X0215044Y0050184D01*
X0215044Y0051183D02*
X0214742Y0051183D01*
X0214742Y0052181D02*
X0215044Y0052181D01*
X0215044Y0053180D02*
X0214742Y0053180D01*
X0211186Y0055177D02*
X0210186Y0055177D01*
X0210186Y0056176D02*
X0211186Y0056176D01*
X0211186Y0057174D02*
X0210186Y0057174D01*
X0210186Y0060170D02*
X0211186Y0060170D01*
X0211186Y0061168D02*
X0210186Y0061168D01*
X0214856Y0061168D02*
X0215044Y0061168D01*
X0215044Y0060170D02*
X0214942Y0060170D01*
X0214942Y0059171D02*
X0215044Y0059171D01*
X0215044Y0062167D02*
X0117113Y0062167D01*
X0117113Y0063165D02*
X0215044Y0063165D01*
X0215044Y0064164D02*
X0116160Y0064164D01*
X0117113Y0061168D02*
X0206515Y0061168D01*
X0206430Y0060170D02*
X0117113Y0060170D01*
X0113313Y0060170D02*
X0075962Y0060170D01*
X0075413Y0059171D02*
X0113313Y0059171D01*
X0114710Y0034208D02*
X0125124Y0034208D01*
X0125124Y0033210D02*
X0114745Y0033210D01*
X0114745Y0032211D02*
X0125124Y0032211D01*
X0125124Y0031213D02*
X0111186Y0031213D01*
X0111186Y0030428D02*
X0114745Y0030428D01*
X0114745Y0027777D01*
X0114642Y0027396D01*
X0114445Y0027054D01*
X0114166Y0026775D01*
X0113824Y0026577D01*
X0113442Y0026475D01*
X0111186Y0026475D01*
X0111186Y0030428D01*
X0111186Y0030214D02*
X0110186Y0030214D01*
X0110186Y0029216D02*
X0111186Y0029216D01*
X0111186Y0028217D02*
X0110186Y0028217D01*
X0110186Y0027219D02*
X0111186Y0027219D01*
X0114540Y0027219D02*
X0125124Y0027219D01*
X0125124Y0028217D02*
X0114745Y0028217D01*
X0114745Y0029216D02*
X0125124Y0029216D01*
X0125124Y0030214D02*
X0114745Y0030214D01*
X0128924Y0030214D02*
X0148885Y0030214D01*
X0148471Y0029216D02*
X0128924Y0029216D01*
X0128924Y0028217D02*
X0148115Y0028217D01*
X0148115Y0027219D02*
X0128924Y0027219D01*
X0128924Y0026220D02*
X0148115Y0026220D01*
X0148282Y0025222D02*
X0128924Y0025222D01*
X0128924Y0024223D02*
X0148696Y0024223D01*
X0149109Y0023225D02*
X0128924Y0023225D01*
X0128924Y0022226D02*
X0150037Y0022226D01*
X0149352Y0021228D02*
X0128924Y0021228D01*
X0128924Y0020229D02*
X0148826Y0020229D01*
X0148412Y0019231D02*
X0128924Y0019231D01*
X0128827Y0018232D02*
X0148115Y0018232D01*
X0148115Y0017234D02*
X0127828Y0017234D01*
X0128924Y0031213D02*
X0149495Y0031213D01*
X0150493Y0032211D02*
X0128924Y0032211D01*
X0148115Y0016235D02*
X0025225Y0016235D01*
X0025225Y0027219D02*
X0033209Y0027219D01*
X0033005Y0028217D02*
X0025225Y0028217D01*
X0025225Y0029216D02*
X0033005Y0029216D01*
X0033005Y0030214D02*
X0025225Y0030214D01*
X0025225Y0031213D02*
X0036564Y0031213D01*
X0036564Y0032211D02*
X0037564Y0032211D01*
X0037564Y0033210D02*
X0036564Y0033210D01*
X0036564Y0034208D02*
X0037564Y0034208D01*
X0037564Y0035207D02*
X0036564Y0035207D01*
X0033802Y0035207D02*
X0025225Y0035207D01*
X0025225Y0036205D02*
X0046384Y0036205D01*
X0046384Y0035207D02*
X0040325Y0035207D01*
X0037564Y0030214D02*
X0036564Y0030214D01*
X0036564Y0029216D02*
X0037564Y0029216D01*
X0037564Y0028217D02*
X0036564Y0028217D01*
X0036564Y0027219D02*
X0037564Y0027219D01*
X0033005Y0032211D02*
X0025225Y0032211D01*
X0025225Y0033210D02*
X0033005Y0033210D01*
X0033040Y0034208D02*
X0025225Y0034208D01*
X0025225Y0037204D02*
X0046384Y0037204D01*
X0046384Y0038202D02*
X0025225Y0038202D01*
X0025225Y0039201D02*
X0033251Y0039201D01*
X0033205Y0040199D02*
X0025225Y0040199D01*
X0025225Y0041198D02*
X0033205Y0041198D01*
X0033205Y0042196D02*
X0025225Y0042196D01*
X0025225Y0043195D02*
X0033205Y0043195D01*
X0033205Y0044193D02*
X0025225Y0044193D01*
X0025225Y0045192D02*
X0033205Y0045192D01*
X0033205Y0046190D02*
X0025225Y0046190D01*
X0025225Y0047189D02*
X0034564Y0047189D01*
X0034564Y0048187D02*
X0025225Y0048187D01*
X0025225Y0049186D02*
X0034564Y0049186D01*
X0034564Y0050184D02*
X0025225Y0050184D01*
X0025225Y0051183D02*
X0034564Y0051183D01*
X0034564Y0052181D02*
X0025225Y0052181D01*
X0025225Y0053180D02*
X0034564Y0053180D01*
X0034564Y0054179D02*
X0025225Y0054179D01*
X0025225Y0055177D02*
X0034564Y0055177D01*
X0034564Y0056176D02*
X0025225Y0056176D01*
X0025225Y0057174D02*
X0034564Y0057174D01*
X0034564Y0058173D02*
X0025225Y0058173D01*
X0025225Y0059171D02*
X0034564Y0059171D01*
X0034564Y0060170D02*
X0025225Y0060170D01*
X0025225Y0061168D02*
X0034564Y0061168D01*
X0034564Y0062167D02*
X0025225Y0062167D01*
X0025225Y0063165D02*
X0034564Y0063165D01*
X0034564Y0064164D02*
X0025225Y0064164D01*
X0025225Y0065162D02*
X0034564Y0065162D01*
X0034564Y0066161D02*
X0025225Y0066161D01*
X0025225Y0067159D02*
X0034564Y0067159D01*
X0034564Y0068158D02*
X0025225Y0068158D01*
X0025225Y0069156D02*
X0034564Y0069156D01*
X0034564Y0070155D02*
X0025225Y0070155D01*
X0025225Y0071153D02*
X0034564Y0071153D01*
X0034564Y0072152D02*
X0025225Y0072152D01*
X0025225Y0073150D02*
X0034564Y0073150D01*
X0034564Y0074149D02*
X0025225Y0074149D01*
X0025225Y0075147D02*
X0034564Y0075147D01*
X0034564Y0076146D02*
X0025225Y0076146D01*
X0025225Y0077144D02*
X0034564Y0077144D01*
X0034564Y0078143D02*
X0025225Y0078143D01*
X0025225Y0079141D02*
X0034564Y0079141D01*
X0034564Y0080140D02*
X0025225Y0080140D01*
X0025225Y0081138D02*
X0034564Y0081138D01*
X0034564Y0082137D02*
X0025225Y0082137D01*
X0025225Y0083135D02*
X0034564Y0083135D01*
X0034564Y0084134D02*
X0025225Y0084134D01*
X0025225Y0085132D02*
X0034564Y0085132D01*
X0034564Y0086131D02*
X0025225Y0086131D01*
X0025225Y0087129D02*
X0034564Y0087129D01*
X0034564Y0088128D02*
X0025225Y0088128D01*
X0025225Y0089126D02*
X0034564Y0089126D01*
X0034564Y0090125D02*
X0025225Y0090125D01*
X0025225Y0091123D02*
X0034564Y0091123D01*
X0034564Y0092122D02*
X0025225Y0092122D01*
X0025225Y0093120D02*
X0034564Y0093120D01*
X0034564Y0094119D02*
X0025225Y0094119D01*
X0027812Y0094518D02*
X0027812Y0094518D01*
X0030825Y0095117D02*
X0034854Y0095117D01*
X0035833Y0096116D02*
X0032687Y0096116D01*
X0031349Y0095222D02*
X0031349Y0095222D01*
X0034182Y0097114D02*
X0037910Y0097114D01*
X0037910Y0098113D02*
X0034941Y0098113D01*
X0034348Y0097226D02*
X0034348Y0097226D01*
X0034348Y0097226D01*
X0035608Y0099112D02*
X0037910Y0099112D01*
X0037910Y0100110D02*
X0036275Y0100110D01*
X0036352Y0100225D02*
X0036352Y0100225D01*
X0036528Y0101109D02*
X0037910Y0101109D01*
X0037910Y0102107D02*
X0036727Y0102107D01*
X0036925Y0103106D02*
X0037910Y0103106D01*
X0037910Y0104104D02*
X0036988Y0104104D01*
X0036789Y0105103D02*
X0037910Y0105103D01*
X0037910Y0106101D02*
X0036591Y0106101D01*
X0036392Y0107100D02*
X0037910Y0107100D01*
X0037910Y0108098D02*
X0035819Y0108098D01*
X0036352Y0107300D02*
X0036352Y0107300D01*
X0035151Y0109097D02*
X0037910Y0109097D01*
X0037910Y0110095D02*
X0034484Y0110095D01*
X0034348Y0110299D02*
X0034348Y0110299D01*
X0034348Y0110299D01*
X0033159Y0111094D02*
X0037910Y0111094D01*
X0037910Y0112092D02*
X0031664Y0112092D01*
X0031349Y0112303D02*
X0031349Y0112303D01*
X0025225Y0113091D02*
X0037910Y0113091D01*
X0037910Y0114089D02*
X0025225Y0114089D01*
X0025225Y0115088D02*
X0037910Y0115088D01*
X0037910Y0116086D02*
X0025225Y0116086D01*
X0025225Y0117085D02*
X0037910Y0117085D01*
X0037910Y0118083D02*
X0025225Y0118083D01*
X0025225Y0119082D02*
X0037910Y0119082D01*
X0037910Y0120080D02*
X0025225Y0120080D01*
X0025225Y0121079D02*
X0037910Y0121079D01*
X0037910Y0122077D02*
X0025225Y0122077D01*
X0025225Y0123076D02*
X0029684Y0123076D01*
X0028417Y0124074D02*
X0025225Y0124074D01*
X0025225Y0125073D02*
X0028068Y0125073D01*
X0028068Y0126071D02*
X0025225Y0126071D01*
X0025225Y0127070D02*
X0028068Y0127070D01*
X0028068Y0128068D02*
X0025225Y0128068D01*
X0025225Y0129067D02*
X0028068Y0129067D01*
X0028068Y0130065D02*
X0025225Y0130065D01*
X0025225Y0131064D02*
X0028068Y0131064D01*
X0028068Y0132062D02*
X0025225Y0132062D01*
X0025225Y0133061D02*
X0028068Y0133061D01*
X0028068Y0134059D02*
X0025225Y0134059D01*
X0025225Y0135058D02*
X0028068Y0135058D01*
X0028068Y0136056D02*
X0025225Y0136056D01*
X0025225Y0137055D02*
X0028068Y0137055D01*
X0028068Y0138053D02*
X0025225Y0138053D01*
X0025225Y0139052D02*
X0028068Y0139052D01*
X0028068Y0140050D02*
X0025225Y0140050D01*
X0025225Y0141049D02*
X0028068Y0141049D01*
X0028068Y0142048D02*
X0025225Y0142048D01*
X0025225Y0143046D02*
X0028068Y0143046D01*
X0028068Y0144045D02*
X0025225Y0144045D01*
X0025225Y0145043D02*
X0028068Y0145043D01*
X0028068Y0146042D02*
X0025225Y0146042D01*
X0025225Y0147040D02*
X0028068Y0147040D01*
X0028068Y0148039D02*
X0025225Y0148039D01*
X0025225Y0149037D02*
X0028068Y0149037D01*
X0028068Y0150036D02*
X0025225Y0150036D01*
X0025225Y0151034D02*
X0028068Y0151034D01*
X0028068Y0152033D02*
X0025225Y0152033D01*
X0025225Y0153031D02*
X0028068Y0153031D01*
X0028068Y0154030D02*
X0025225Y0154030D01*
X0025225Y0155028D02*
X0028068Y0155028D01*
X0028068Y0156027D02*
X0025225Y0156027D01*
X0025225Y0157025D02*
X0028068Y0157025D01*
X0028068Y0158024D02*
X0025225Y0158024D01*
X0025225Y0159022D02*
X0028068Y0159022D01*
X0028068Y0160021D02*
X0025225Y0160021D01*
X0025225Y0161019D02*
X0028068Y0161019D01*
X0028068Y0162018D02*
X0025225Y0162018D01*
X0025225Y0163016D02*
X0028068Y0163016D01*
X0028068Y0164015D02*
X0025225Y0164015D01*
X0025225Y0165013D02*
X0028068Y0165013D01*
X0028068Y0166012D02*
X0025225Y0166012D01*
X0025225Y0167010D02*
X0028068Y0167010D01*
X0028068Y0168009D02*
X0025225Y0168009D01*
X0025225Y0169007D02*
X0028068Y0169007D01*
X0028068Y0170006D02*
X0025225Y0170006D01*
X0025225Y0171004D02*
X0028068Y0171004D01*
X0028068Y0172003D02*
X0025225Y0172003D01*
X0025225Y0173001D02*
X0028068Y0173001D01*
X0028068Y0174000D02*
X0025225Y0174000D01*
X0025225Y0174998D02*
X0028068Y0174998D01*
X0028068Y0175997D02*
X0025225Y0175997D01*
X0025225Y0176995D02*
X0028068Y0176995D01*
X0028068Y0177994D02*
X0025225Y0177994D01*
X0025225Y0178992D02*
X0028068Y0178992D01*
X0028068Y0179991D02*
X0025225Y0179991D01*
X0025225Y0180989D02*
X0028068Y0180989D01*
X0028068Y0181988D02*
X0025225Y0181988D01*
X0025225Y0182986D02*
X0028068Y0182986D01*
X0028068Y0183985D02*
X0025225Y0183985D01*
X0025225Y0184983D02*
X0028068Y0184983D01*
X0028068Y0185982D02*
X0025225Y0185982D01*
X0025225Y0186981D02*
X0028068Y0186981D01*
X0028068Y0187979D02*
X0025225Y0187979D01*
X0025830Y0188978D02*
X0028068Y0188978D01*
X0028068Y0189976D02*
X0027020Y0189976D01*
X0027971Y0190975D02*
X0028068Y0190975D01*
X0033068Y0190975D02*
X0037595Y0190975D01*
X0037595Y0191973D02*
X0033068Y0191973D01*
X0033068Y0192972D02*
X0037595Y0192972D01*
X0037595Y0193970D02*
X0033068Y0193970D01*
X0033068Y0194969D02*
X0037595Y0194969D01*
X0037595Y0195967D02*
X0033068Y0195967D01*
X0033068Y0196966D02*
X0037595Y0196966D01*
X0037595Y0197964D02*
X0033068Y0197964D01*
X0033068Y0198963D02*
X0037595Y0198963D01*
X0037595Y0199961D02*
X0033068Y0199961D01*
X0033068Y0200960D02*
X0037595Y0200960D01*
X0037595Y0201958D02*
X0033068Y0201958D01*
X0033068Y0202957D02*
X0037595Y0202957D01*
X0037595Y0203955D02*
X0033068Y0203955D01*
X0033068Y0204954D02*
X0037595Y0204954D01*
X0037595Y0205952D02*
X0033068Y0205952D01*
X0033068Y0206951D02*
X0037595Y0206951D01*
X0037595Y0207949D02*
X0033068Y0207949D01*
X0033068Y0208948D02*
X0037595Y0208948D01*
X0037595Y0209946D02*
X0033068Y0209946D01*
X0033068Y0210945D02*
X0037595Y0210945D01*
X0037595Y0211943D02*
X0033068Y0211943D01*
X0033068Y0212942D02*
X0037595Y0212942D01*
X0037595Y0213940D02*
X0033068Y0213940D01*
X0033068Y0214939D02*
X0037595Y0214939D01*
X0037595Y0215937D02*
X0033068Y0215937D01*
X0033068Y0216936D02*
X0037595Y0216936D01*
X0037595Y0217934D02*
X0033068Y0217934D01*
X0033068Y0218933D02*
X0037595Y0218933D01*
X0037595Y0219465D02*
X0037595Y0128855D01*
X0037976Y0127937D01*
X0037997Y0127916D01*
X0033068Y0127916D01*
X0033068Y0219742D01*
X0034334Y0221009D01*
X0035095Y0222846D01*
X0035856Y0221009D01*
X0037263Y0219602D01*
X0037595Y0219465D01*
X0036934Y0219931D02*
X0033257Y0219931D01*
X0034255Y0220930D02*
X0035935Y0220930D01*
X0035475Y0221928D02*
X0034715Y0221928D01*
X0035095Y0222846D02*
X0035095Y0224836D01*
X0034334Y0226673D01*
X0033792Y0227215D01*
X0036398Y0227215D01*
X0035856Y0226673D01*
X0035095Y0224836D01*
X0035095Y0222846D01*
X0035095Y0222927D02*
X0035095Y0222927D01*
X0035095Y0223925D02*
X0035095Y0223925D01*
X0035058Y0224924D02*
X0035132Y0224924D01*
X0035545Y0225922D02*
X0034645Y0225922D01*
X0034086Y0226921D02*
X0036104Y0226921D01*
X0043792Y0227215D02*
X0044334Y0226673D01*
X0045095Y0224836D01*
X0045095Y0222846D01*
X0045856Y0221009D01*
X0047263Y0219602D01*
X0047595Y0219465D01*
X0047595Y0132792D01*
X0047976Y0131874D01*
X0047997Y0131853D01*
X0042595Y0131853D01*
X0042595Y0219465D01*
X0042927Y0219602D01*
X0044334Y0221009D01*
X0045095Y0222846D01*
X0045095Y0224836D01*
X0045856Y0226673D01*
X0046398Y0227215D01*
X0043792Y0227215D01*
X0044086Y0226921D02*
X0046104Y0226921D01*
X0045545Y0225922D02*
X0044645Y0225922D01*
X0045058Y0224924D02*
X0045132Y0224924D01*
X0045095Y0223925D02*
X0045095Y0223925D01*
X0045095Y0222927D02*
X0045095Y0222927D01*
X0044715Y0221928D02*
X0045475Y0221928D01*
X0045935Y0220930D02*
X0044255Y0220930D01*
X0043257Y0219931D02*
X0046934Y0219931D01*
X0047595Y0218933D02*
X0042595Y0218933D01*
X0042595Y0217934D02*
X0047595Y0217934D01*
X0047595Y0216936D02*
X0042595Y0216936D01*
X0042595Y0215937D02*
X0047595Y0215937D01*
X0047595Y0214939D02*
X0042595Y0214939D01*
X0042595Y0213940D02*
X0047595Y0213940D01*
X0047595Y0212942D02*
X0042595Y0212942D01*
X0042595Y0211943D02*
X0047595Y0211943D01*
X0047595Y0210945D02*
X0042595Y0210945D01*
X0042595Y0209946D02*
X0047595Y0209946D01*
X0047595Y0208948D02*
X0042595Y0208948D01*
X0042595Y0207949D02*
X0047595Y0207949D01*
X0047595Y0206951D02*
X0042595Y0206951D01*
X0042595Y0205952D02*
X0047595Y0205952D01*
X0047595Y0204954D02*
X0042595Y0204954D01*
X0042595Y0203955D02*
X0047595Y0203955D01*
X0047595Y0202957D02*
X0042595Y0202957D01*
X0042595Y0201958D02*
X0047595Y0201958D01*
X0047595Y0200960D02*
X0042595Y0200960D01*
X0042595Y0199961D02*
X0047595Y0199961D01*
X0047595Y0198963D02*
X0042595Y0198963D01*
X0042595Y0197964D02*
X0047595Y0197964D01*
X0047595Y0196966D02*
X0042595Y0196966D01*
X0042595Y0195967D02*
X0047595Y0195967D01*
X0047595Y0194969D02*
X0042595Y0194969D01*
X0042595Y0193970D02*
X0047595Y0193970D01*
X0047595Y0192972D02*
X0042595Y0192972D01*
X0042595Y0191973D02*
X0047595Y0191973D01*
X0047595Y0190975D02*
X0042595Y0190975D01*
X0042595Y0189976D02*
X0047595Y0189976D01*
X0047595Y0188978D02*
X0042595Y0188978D01*
X0042595Y0187979D02*
X0047595Y0187979D01*
X0047595Y0186981D02*
X0042595Y0186981D01*
X0042595Y0185982D02*
X0047595Y0185982D01*
X0047595Y0184983D02*
X0042595Y0184983D01*
X0042595Y0183985D02*
X0047595Y0183985D01*
X0047595Y0182986D02*
X0042595Y0182986D01*
X0042595Y0181988D02*
X0047595Y0181988D01*
X0047595Y0180989D02*
X0042595Y0180989D01*
X0042595Y0179991D02*
X0047595Y0179991D01*
X0047595Y0178992D02*
X0042595Y0178992D01*
X0042595Y0177994D02*
X0047595Y0177994D01*
X0047595Y0176995D02*
X0042595Y0176995D01*
X0042595Y0175997D02*
X0047595Y0175997D01*
X0047595Y0174998D02*
X0042595Y0174998D01*
X0042595Y0174000D02*
X0047595Y0174000D01*
X0047595Y0173001D02*
X0042595Y0173001D01*
X0042595Y0172003D02*
X0047595Y0172003D01*
X0047595Y0171004D02*
X0042595Y0171004D01*
X0042595Y0170006D02*
X0047595Y0170006D01*
X0047595Y0169007D02*
X0042595Y0169007D01*
X0042595Y0168009D02*
X0047595Y0168009D01*
X0047595Y0167010D02*
X0042595Y0167010D01*
X0042595Y0166012D02*
X0047595Y0166012D01*
X0047595Y0165013D02*
X0042595Y0165013D01*
X0042595Y0164015D02*
X0047595Y0164015D01*
X0047595Y0163016D02*
X0042595Y0163016D01*
X0042595Y0162018D02*
X0047595Y0162018D01*
X0047595Y0161019D02*
X0042595Y0161019D01*
X0042595Y0160021D02*
X0047595Y0160021D01*
X0047595Y0159022D02*
X0042595Y0159022D01*
X0042595Y0158024D02*
X0047595Y0158024D01*
X0047595Y0157025D02*
X0042595Y0157025D01*
X0042595Y0156027D02*
X0047595Y0156027D01*
X0047595Y0155028D02*
X0042595Y0155028D01*
X0042595Y0154030D02*
X0047595Y0154030D01*
X0047595Y0153031D02*
X0042595Y0153031D01*
X0042595Y0152033D02*
X0047595Y0152033D01*
X0047595Y0151034D02*
X0042595Y0151034D01*
X0042595Y0150036D02*
X0047595Y0150036D01*
X0047595Y0149037D02*
X0042595Y0149037D01*
X0042595Y0148039D02*
X0047595Y0148039D01*
X0047595Y0147040D02*
X0042595Y0147040D01*
X0042595Y0146042D02*
X0047595Y0146042D01*
X0047595Y0145043D02*
X0042595Y0145043D01*
X0042595Y0144045D02*
X0047595Y0144045D01*
X0047595Y0143046D02*
X0042595Y0143046D01*
X0042595Y0142048D02*
X0047595Y0142048D01*
X0047595Y0141049D02*
X0042595Y0141049D01*
X0042595Y0140050D02*
X0047595Y0140050D01*
X0047595Y0139052D02*
X0042595Y0139052D01*
X0042595Y0138053D02*
X0047595Y0138053D01*
X0047595Y0137055D02*
X0042595Y0137055D01*
X0042595Y0136056D02*
X0047595Y0136056D01*
X0047595Y0135058D02*
X0042595Y0135058D01*
X0042595Y0134059D02*
X0047595Y0134059D01*
X0047595Y0133061D02*
X0042595Y0133061D01*
X0042595Y0132062D02*
X0047898Y0132062D01*
X0049721Y0126853D02*
X0049721Y0043989D01*
X0049071Y0044639D01*
X0047616Y0044639D01*
X0047616Y0046230D01*
X0046854Y0046991D01*
X0040659Y0046991D01*
X0040410Y0046742D01*
X0040161Y0046991D01*
X0039564Y0046991D01*
X0039564Y0091420D01*
X0040907Y0091420D01*
X0041826Y0091800D01*
X0042529Y0092504D01*
X0042910Y0093422D01*
X0042910Y0125913D01*
X0042529Y0126832D01*
X0042509Y0126853D01*
X0049721Y0126853D01*
X0049721Y0126071D02*
X0042845Y0126071D01*
X0042910Y0125073D02*
X0049721Y0125073D01*
X0049721Y0124074D02*
X0042910Y0124074D01*
X0042910Y0123076D02*
X0049721Y0123076D01*
X0049721Y0122077D02*
X0042910Y0122077D01*
X0042910Y0121079D02*
X0049721Y0121079D01*
X0049721Y0120080D02*
X0042910Y0120080D01*
X0042910Y0119082D02*
X0049721Y0119082D01*
X0049721Y0118083D02*
X0042910Y0118083D01*
X0042910Y0117085D02*
X0049721Y0117085D01*
X0049721Y0116086D02*
X0042910Y0116086D01*
X0042910Y0115088D02*
X0049721Y0115088D01*
X0049721Y0114089D02*
X0042910Y0114089D01*
X0042910Y0113091D02*
X0049721Y0113091D01*
X0049721Y0112092D02*
X0042910Y0112092D01*
X0042910Y0111094D02*
X0049721Y0111094D01*
X0049721Y0110095D02*
X0042910Y0110095D01*
X0042910Y0109097D02*
X0049721Y0109097D01*
X0049721Y0108098D02*
X0042910Y0108098D01*
X0042910Y0107100D02*
X0049721Y0107100D01*
X0049721Y0106101D02*
X0042910Y0106101D01*
X0042910Y0105103D02*
X0049721Y0105103D01*
X0049721Y0104104D02*
X0042910Y0104104D01*
X0042910Y0103106D02*
X0049721Y0103106D01*
X0049721Y0102107D02*
X0042910Y0102107D01*
X0042910Y0101109D02*
X0049721Y0101109D01*
X0049721Y0100110D02*
X0042910Y0100110D01*
X0042910Y0099112D02*
X0049721Y0099112D01*
X0049721Y0098113D02*
X0042910Y0098113D01*
X0042910Y0097114D02*
X0049721Y0097114D01*
X0049721Y0096116D02*
X0042910Y0096116D01*
X0042910Y0095117D02*
X0049721Y0095117D01*
X0049721Y0094119D02*
X0042910Y0094119D01*
X0042785Y0093120D02*
X0049721Y0093120D01*
X0049721Y0092122D02*
X0042148Y0092122D01*
X0039564Y0091123D02*
X0049721Y0091123D01*
X0049721Y0090125D02*
X0039564Y0090125D01*
X0039564Y0089126D02*
X0049721Y0089126D01*
X0049721Y0088128D02*
X0039564Y0088128D01*
X0039564Y0087129D02*
X0049721Y0087129D01*
X0049721Y0086131D02*
X0039564Y0086131D01*
X0039564Y0085132D02*
X0049721Y0085132D01*
X0049721Y0084134D02*
X0039564Y0084134D01*
X0039564Y0083135D02*
X0049721Y0083135D01*
X0049721Y0082137D02*
X0039564Y0082137D01*
X0039564Y0081138D02*
X0049721Y0081138D01*
X0049721Y0080140D02*
X0039564Y0080140D01*
X0039564Y0079141D02*
X0049721Y0079141D01*
X0049721Y0078143D02*
X0039564Y0078143D01*
X0039564Y0077144D02*
X0049721Y0077144D01*
X0049721Y0076146D02*
X0039564Y0076146D01*
X0039564Y0075147D02*
X0049721Y0075147D01*
X0049721Y0074149D02*
X0039564Y0074149D01*
X0039564Y0073150D02*
X0049721Y0073150D01*
X0049721Y0072152D02*
X0039564Y0072152D01*
X0039564Y0071153D02*
X0049721Y0071153D01*
X0049721Y0070155D02*
X0039564Y0070155D01*
X0039564Y0069156D02*
X0049721Y0069156D01*
X0049721Y0068158D02*
X0039564Y0068158D01*
X0039564Y0067159D02*
X0049721Y0067159D01*
X0049721Y0066161D02*
X0039564Y0066161D01*
X0039564Y0065162D02*
X0049721Y0065162D01*
X0049721Y0064164D02*
X0039564Y0064164D01*
X0039564Y0063165D02*
X0049721Y0063165D01*
X0049721Y0062167D02*
X0039564Y0062167D01*
X0039564Y0061168D02*
X0049721Y0061168D01*
X0049721Y0060170D02*
X0039564Y0060170D01*
X0039564Y0059171D02*
X0049721Y0059171D01*
X0049721Y0058173D02*
X0039564Y0058173D01*
X0039564Y0057174D02*
X0049721Y0057174D01*
X0049721Y0056176D02*
X0039564Y0056176D01*
X0039564Y0055177D02*
X0049721Y0055177D01*
X0049721Y0054179D02*
X0039564Y0054179D01*
X0039564Y0053180D02*
X0049721Y0053180D01*
X0049721Y0052181D02*
X0039564Y0052181D01*
X0039564Y0051183D02*
X0049721Y0051183D01*
X0049721Y0050184D02*
X0039564Y0050184D01*
X0039564Y0049186D02*
X0049721Y0049186D01*
X0049721Y0048187D02*
X0039564Y0048187D01*
X0039564Y0047189D02*
X0049721Y0047189D01*
X0049721Y0046190D02*
X0047616Y0046190D01*
X0047616Y0045192D02*
X0049721Y0045192D01*
X0049721Y0044193D02*
X0049516Y0044193D01*
X0050184Y0042196D02*
X0050847Y0042196D01*
X0050184Y0041198D02*
X0052247Y0041198D01*
X0052102Y0040199D02*
X0050184Y0040199D01*
X0050184Y0039201D02*
X0052102Y0039201D01*
X0052102Y0038202D02*
X0050184Y0038202D01*
X0050184Y0037204D02*
X0052512Y0037204D01*
X0052504Y0032211D02*
X0047616Y0032211D01*
X0054721Y0047189D02*
X0062132Y0047189D01*
X0062132Y0048187D02*
X0054721Y0048187D01*
X0054721Y0049186D02*
X0062132Y0049186D01*
X0062132Y0050184D02*
X0054721Y0050184D01*
X0054721Y0051183D02*
X0062132Y0051183D01*
X0062132Y0052181D02*
X0054721Y0052181D01*
X0054721Y0053180D02*
X0062132Y0053180D01*
X0062132Y0054179D02*
X0054721Y0054179D01*
X0054721Y0055177D02*
X0062132Y0055177D01*
X0062132Y0056176D02*
X0054721Y0056176D01*
X0054721Y0057174D02*
X0062132Y0057174D01*
X0062132Y0058173D02*
X0054721Y0058173D01*
X0054721Y0059171D02*
X0062132Y0059171D01*
X0062132Y0060170D02*
X0054721Y0060170D01*
X0054721Y0061168D02*
X0062132Y0061168D01*
X0062132Y0062167D02*
X0054721Y0062167D01*
X0054721Y0063165D02*
X0062132Y0063165D01*
X0063085Y0064164D02*
X0054721Y0064164D01*
X0054721Y0065162D02*
X0067885Y0065162D01*
X0062595Y0077144D02*
X0215636Y0077144D01*
X0215222Y0076146D02*
X0089687Y0076146D01*
X0090295Y0075147D02*
X0215044Y0075147D01*
X0215044Y0074149D02*
X0090443Y0074149D01*
X0090224Y0073150D02*
X0215044Y0073150D01*
X0215044Y0072152D02*
X0089515Y0072152D01*
X0086702Y0057174D02*
X0075962Y0057174D01*
X0075299Y0051183D02*
X0151171Y0051183D01*
X0150173Y0050184D02*
X0073806Y0050184D01*
X0073806Y0049186D02*
X0149562Y0049186D01*
X0159298Y0032374D02*
X0172461Y0032374D01*
X0172436Y0032366D01*
X0171622Y0031951D01*
X0170884Y0031415D01*
X0170238Y0030769D01*
X0169701Y0030030D01*
X0169287Y0029217D01*
X0169005Y0028349D01*
X0168869Y0027491D01*
X0174162Y0027491D01*
X0174162Y0026491D01*
X0168869Y0026491D01*
X0169005Y0025632D01*
X0169287Y0024764D01*
X0169701Y0023951D01*
X0170238Y0023212D01*
X0170818Y0022632D01*
X0160323Y0022632D01*
X0160794Y0023103D01*
X0161839Y0025626D01*
X0161839Y0028356D01*
X0160794Y0030878D01*
X0159298Y0032374D01*
X0159461Y0032211D02*
X0172133Y0032211D01*
X0170682Y0031213D02*
X0160459Y0031213D01*
X0161069Y0030214D02*
X0169835Y0030214D01*
X0169287Y0029216D02*
X0161483Y0029216D01*
X0161839Y0028217D02*
X0168984Y0028217D01*
X0168912Y0026220D02*
X0161839Y0026220D01*
X0161839Y0027219D02*
X0174162Y0027219D01*
X0175162Y0027219D02*
X0187485Y0027219D01*
X0187485Y0028217D02*
X0180340Y0028217D01*
X0180319Y0028349D02*
X0180037Y0029217D01*
X0179623Y0030030D01*
X0179086Y0030769D01*
X0178440Y0031415D01*
X0177702Y0031951D01*
X0176888Y0032366D01*
X0176863Y0032374D01*
X0190026Y0032374D01*
X0188530Y0030878D01*
X0187485Y0028356D01*
X0187485Y0025626D01*
X0188530Y0023103D01*
X0189042Y0022591D01*
X0188943Y0022632D01*
X0178506Y0022632D01*
X0179086Y0023212D01*
X0179623Y0023951D01*
X0180037Y0024764D01*
X0180319Y0025632D01*
X0180455Y0026491D01*
X0175162Y0026491D01*
X0175162Y0027491D01*
X0180455Y0027491D01*
X0180319Y0028349D01*
X0180038Y0029216D02*
X0187841Y0029216D01*
X0188255Y0030214D02*
X0179489Y0030214D01*
X0178642Y0031213D02*
X0188865Y0031213D01*
X0189863Y0032211D02*
X0177191Y0032211D01*
X0180412Y0026220D02*
X0187485Y0026220D01*
X0187652Y0025222D02*
X0180186Y0025222D01*
X0179761Y0024223D02*
X0188066Y0024223D01*
X0188479Y0023225D02*
X0179095Y0023225D01*
X0170229Y0023225D02*
X0160845Y0023225D01*
X0161258Y0024223D02*
X0169563Y0024223D01*
X0169138Y0025222D02*
X0161672Y0025222D01*
X0186405Y0052181D02*
X0193400Y0052181D01*
X0191329Y0051183D02*
X0187917Y0051183D01*
X0188915Y0050184D02*
X0190330Y0050184D01*
X0189719Y0049186D02*
X0189526Y0049186D01*
X0196641Y0041198D02*
X0205686Y0041198D01*
X0205686Y0040199D02*
X0196641Y0040199D01*
X0196641Y0039201D02*
X0205924Y0039201D01*
X0205865Y0042196D02*
X0198181Y0042196D01*
X0199180Y0043195D02*
X0206278Y0043195D01*
X0207038Y0044193D02*
X0199774Y0044193D01*
X0215044Y0065162D02*
X0075927Y0065162D01*
X0062595Y0078143D02*
X0216049Y0078143D01*
X0216328Y0078817D02*
X0216328Y0078817D01*
X0216653Y0079141D02*
X0062595Y0079141D01*
X0062595Y0080140D02*
X0217651Y0080140D01*
X0218650Y0081138D02*
X0062595Y0081138D01*
X0062595Y0082137D02*
X0220987Y0082137D01*
X0218702Y0081190D02*
X0218702Y0081190D01*
X0215044Y0071153D02*
X0054721Y0071153D01*
X0054721Y0070155D02*
X0215044Y0070155D01*
X0215044Y0069156D02*
X0054721Y0069156D01*
X0054721Y0068158D02*
X0215044Y0068158D01*
X0215044Y0067159D02*
X0054721Y0067159D01*
X0054721Y0066161D02*
X0215044Y0066161D01*
X0206171Y0088195D02*
X0202208Y0088195D01*
X0198485Y0089551D01*
X0198485Y0089551D01*
X0195449Y0092098D01*
X0195449Y0092098D01*
X0193468Y0095529D01*
X0193468Y0095529D01*
X0192780Y0099431D01*
X0192780Y0099431D01*
X0193468Y0103334D01*
X0195449Y0106765D01*
X0195449Y0106765D01*
X0198485Y0109312D01*
X0198485Y0109312D01*
X0202208Y0110668D01*
X0206171Y0110668D01*
X0209894Y0109312D01*
X0209894Y0109312D01*
X0212930Y0106765D01*
X0212930Y0106765D01*
X0214911Y0103334D01*
X0214911Y0103334D01*
X0215599Y0099431D01*
X0214911Y0095529D01*
X0212930Y0092098D01*
X0212930Y0092098D01*
X0209894Y0089551D01*
X0209894Y0089551D01*
X0206171Y0088195D01*
X0208729Y0089126D02*
X0289847Y0089126D01*
X0289847Y0088128D02*
X0062595Y0088128D01*
X0062595Y0089126D02*
X0199650Y0089126D01*
X0197800Y0090125D02*
X0111760Y0090125D01*
X0110095Y0089794D02*
X0113783Y0090527D01*
X0116910Y0092617D01*
X0118999Y0095743D01*
X0118999Y0095743D01*
X0119733Y0099431D01*
X0118999Y0103120D01*
X0116910Y0106246D01*
X0113783Y0108336D01*
X0110095Y0109069D01*
X0106407Y0108336D01*
X0106407Y0108336D01*
X0103280Y0106246D01*
X0101191Y0103120D01*
X0101191Y0103120D01*
X0100457Y0099431D01*
X0101191Y0095743D01*
X0103280Y0092617D01*
X0103280Y0092617D01*
X0106407Y0090527D01*
X0110095Y0089794D01*
X0110095Y0089794D01*
X0108430Y0090125D02*
X0062595Y0090125D01*
X0062595Y0091123D02*
X0105515Y0091123D01*
X0106407Y0090527D02*
X0106407Y0090527D01*
X0104020Y0092122D02*
X0062595Y0092122D01*
X0062595Y0093120D02*
X0102943Y0093120D01*
X0103280Y0092617D02*
X0103280Y0092617D01*
X0102276Y0094119D02*
X0062595Y0094119D01*
X0062595Y0095117D02*
X0101609Y0095117D01*
X0101191Y0095743D02*
X0101191Y0095743D01*
X0101117Y0096116D02*
X0062595Y0096116D01*
X0062595Y0097114D02*
X0100918Y0097114D01*
X0100720Y0098113D02*
X0062595Y0098113D01*
X0062595Y0099112D02*
X0100521Y0099112D01*
X0100457Y0099431D02*
X0100457Y0099431D01*
X0100592Y0100110D02*
X0062595Y0100110D01*
X0062595Y0101109D02*
X0100791Y0101109D01*
X0100990Y0102107D02*
X0062595Y0102107D01*
X0062595Y0103106D02*
X0101188Y0103106D01*
X0101849Y0104104D02*
X0062595Y0104104D01*
X0062595Y0105103D02*
X0102516Y0105103D01*
X0103183Y0106101D02*
X0062595Y0106101D01*
X0062595Y0107100D02*
X0104557Y0107100D01*
X0103280Y0106246D02*
X0103280Y0106246D01*
X0106051Y0108098D02*
X0062595Y0108098D01*
X0062595Y0109097D02*
X0198228Y0109097D01*
X0197038Y0108098D02*
X0114139Y0108098D01*
X0113783Y0108336D02*
X0113783Y0108336D01*
X0114032Y0109479D02*
X0117419Y0110152D01*
X0120290Y0112071D01*
X0122209Y0114942D01*
X0122883Y0118329D01*
X0122209Y0121716D01*
X0120290Y0124587D01*
X0117419Y0126506D01*
X0114032Y0127180D01*
X0110645Y0126506D01*
X0107774Y0124587D01*
X0105855Y0121716D01*
X0105182Y0118329D01*
X0105855Y0114942D01*
X0107774Y0112071D01*
X0110645Y0110152D01*
X0114032Y0109479D01*
X0115633Y0107100D02*
X0195848Y0107100D01*
X0195066Y0106101D02*
X0117007Y0106101D01*
X0116910Y0106246D02*
X0116910Y0106246D01*
X0117674Y0105103D02*
X0194489Y0105103D01*
X0193913Y0104104D02*
X0118342Y0104104D01*
X0118999Y0103120D02*
X0118999Y0103120D01*
X0119002Y0103106D02*
X0193428Y0103106D01*
X0193252Y0102107D02*
X0119201Y0102107D01*
X0119399Y0101109D02*
X0193076Y0101109D01*
X0192900Y0100110D02*
X0119598Y0100110D01*
X0119669Y0099112D02*
X0192837Y0099112D01*
X0193013Y0098113D02*
X0119471Y0098113D01*
X0119272Y0097114D02*
X0193189Y0097114D01*
X0193365Y0096116D02*
X0119073Y0096116D01*
X0118581Y0095117D02*
X0193706Y0095117D01*
X0194282Y0094119D02*
X0117914Y0094119D01*
X0117247Y0093120D02*
X0194859Y0093120D01*
X0195435Y0092122D02*
X0116170Y0092122D01*
X0116910Y0092617D02*
X0116910Y0092617D01*
X0116910Y0092617D01*
X0114675Y0091123D02*
X0196610Y0091123D01*
X0195449Y0092098D02*
X0195449Y0092098D01*
X0200636Y0110095D02*
X0117131Y0110095D01*
X0118828Y0111094D02*
X0249494Y0111094D01*
X0248845Y0110445D02*
X0250775Y0112375D01*
X0253297Y0113420D01*
X0256027Y0113420D01*
X0258549Y0112375D01*
X0260480Y0110445D01*
X0261524Y0107922D01*
X0261524Y0105192D01*
X0260480Y0102670D01*
X0258549Y0100740D01*
X0256027Y0099695D01*
X0253297Y0099695D01*
X0250775Y0100740D01*
X0248845Y0102670D01*
X0247800Y0105192D01*
X0247800Y0107922D01*
X0248845Y0110445D01*
X0248700Y0110095D02*
X0207744Y0110095D01*
X0210151Y0109097D02*
X0248286Y0109097D01*
X0247873Y0108098D02*
X0211341Y0108098D01*
X0212531Y0107100D02*
X0247800Y0107100D01*
X0247800Y0106101D02*
X0213313Y0106101D01*
X0212930Y0106765D02*
X0212930Y0106765D01*
X0213890Y0105103D02*
X0247837Y0105103D01*
X0248251Y0104104D02*
X0214466Y0104104D01*
X0214951Y0103106D02*
X0248664Y0103106D01*
X0249408Y0102107D02*
X0215127Y0102107D01*
X0215303Y0101109D02*
X0250406Y0101109D01*
X0252296Y0100110D02*
X0215479Y0100110D01*
X0215543Y0099112D02*
X0289847Y0099112D01*
X0289847Y0100110D02*
X0257028Y0100110D01*
X0258918Y0101109D02*
X0289847Y0101109D01*
X0289847Y0102107D02*
X0259916Y0102107D01*
X0260660Y0103106D02*
X0289847Y0103106D01*
X0289847Y0104104D02*
X0261073Y0104104D01*
X0261487Y0105103D02*
X0289847Y0105103D01*
X0289847Y0106101D02*
X0261524Y0106101D01*
X0261524Y0107100D02*
X0289847Y0107100D01*
X0289847Y0108098D02*
X0261451Y0108098D01*
X0261038Y0109097D02*
X0289847Y0109097D01*
X0289847Y0110095D02*
X0260624Y0110095D01*
X0259830Y0111094D02*
X0289847Y0111094D01*
X0289847Y0112092D02*
X0258832Y0112092D01*
X0256821Y0113091D02*
X0289847Y0113091D01*
X0289847Y0114089D02*
X0121639Y0114089D01*
X0122238Y0115088D02*
X0289847Y0115088D01*
X0289847Y0116086D02*
X0286448Y0116086D01*
X0288436Y0116482D02*
X0288436Y0116482D01*
X0289338Y0117085D02*
X0289847Y0117085D01*
X0283349Y0116086D02*
X0159154Y0116086D01*
X0160124Y0116488D02*
X0157602Y0115443D01*
X0154872Y0115443D01*
X0152350Y0116488D01*
X0150419Y0118418D01*
X0149375Y0120941D01*
X0149375Y0123670D01*
X0150419Y0126193D01*
X0152350Y0128123D01*
X0154872Y0129168D01*
X0157602Y0129168D01*
X0160124Y0128123D01*
X0162054Y0126193D01*
X0163099Y0123670D01*
X0163099Y0120941D01*
X0162054Y0118418D01*
X0160124Y0116488D01*
X0160721Y0117085D02*
X0280458Y0117085D01*
X0281361Y0116482D02*
X0281361Y0116482D01*
X0278964Y0118083D02*
X0161719Y0118083D01*
X0162329Y0119082D02*
X0277963Y0119082D01*
X0278362Y0118485D02*
X0278362Y0118485D01*
X0278362Y0118485D01*
X0277296Y0120080D02*
X0162743Y0120080D01*
X0163099Y0121079D02*
X0276629Y0121079D01*
X0276240Y0122077D02*
X0246225Y0122077D01*
X0245643Y0121866D02*
X0249560Y0123291D01*
X0252752Y0125970D01*
X0254836Y0129579D01*
X0254836Y0129579D01*
X0255560Y0133683D01*
X0254836Y0137788D01*
X0252752Y0141397D01*
X0249560Y0144076D01*
X0249560Y0144076D01*
X0245643Y0145501D01*
X0241476Y0145501D01*
X0237560Y0144076D01*
X0237560Y0144076D01*
X0234367Y0141397D01*
X0234367Y0141397D01*
X0232283Y0137788D01*
X0231560Y0133683D01*
X0232283Y0129579D01*
X0234367Y0125970D01*
X0234367Y0125970D01*
X0234367Y0125970D01*
X0237560Y0123291D01*
X0241476Y0121866D01*
X0245643Y0121866D01*
X0248968Y0123076D02*
X0276041Y0123076D01*
X0275843Y0124074D02*
X0250493Y0124074D01*
X0249560Y0123291D02*
X0249560Y0123291D01*
X0251683Y0125073D02*
X0275664Y0125073D01*
X0275863Y0126071D02*
X0252811Y0126071D01*
X0252752Y0125970D02*
X0252752Y0125970D01*
X0253387Y0127070D02*
X0276062Y0127070D01*
X0276260Y0128068D02*
X0253964Y0128068D01*
X0254540Y0129067D02*
X0276697Y0129067D01*
X0277364Y0130065D02*
X0254922Y0130065D01*
X0255098Y0131064D02*
X0278031Y0131064D01*
X0279116Y0132062D02*
X0255274Y0132062D01*
X0255450Y0133061D02*
X0280610Y0133061D01*
X0283859Y0134059D02*
X0255493Y0134059D01*
X0255317Y0135058D02*
X0289847Y0135058D01*
X0289847Y0136056D02*
X0255141Y0136056D01*
X0254965Y0137055D02*
X0289847Y0137055D01*
X0289847Y0138053D02*
X0254683Y0138053D01*
X0254836Y0137788D02*
X0254836Y0137788D01*
X0254106Y0139052D02*
X0289847Y0139052D01*
X0289847Y0140050D02*
X0253530Y0140050D01*
X0252953Y0141049D02*
X0289847Y0141049D01*
X0289847Y0142048D02*
X0251977Y0142048D01*
X0252752Y0141397D02*
X0252752Y0141397D01*
X0252752Y0141397D01*
X0250787Y0143046D02*
X0289847Y0143046D01*
X0289847Y0144045D02*
X0249597Y0144045D01*
X0246902Y0145043D02*
X0289847Y0145043D01*
X0289847Y0146042D02*
X0144036Y0146042D01*
X0143837Y0147040D02*
X0289847Y0147040D01*
X0289847Y0148039D02*
X0143181Y0148039D01*
X0143832Y0147064D02*
X0141829Y0150063D01*
X0141829Y0150063D01*
X0141829Y0150063D01*
X0138830Y0152066D01*
X0138830Y0152066D01*
X0135292Y0152770D01*
X0135292Y0152770D01*
X0131754Y0152066D01*
X0128755Y0150063D01*
X0128755Y0150063D01*
X0128755Y0150063D01*
X0126752Y0147064D01*
X0126048Y0143526D01*
X0126752Y0139988D01*
X0128755Y0136989D01*
X0128755Y0136989D01*
X0128755Y0136989D01*
X0131754Y0134986D01*
X0135292Y0134282D01*
X0138830Y0134986D01*
X0141829Y0136989D01*
X0141829Y0136989D01*
X0141829Y0136989D01*
X0143832Y0139988D01*
X0143832Y0139988D01*
X0144536Y0143526D01*
X0143832Y0147064D01*
X0143832Y0147064D01*
X0144234Y0145043D02*
X0240217Y0145043D01*
X0237522Y0144045D02*
X0144433Y0144045D01*
X0144441Y0143046D02*
X0236332Y0143046D01*
X0235142Y0142048D02*
X0144242Y0142048D01*
X0144043Y0141049D02*
X0234166Y0141049D01*
X0233590Y0140050D02*
X0143845Y0140050D01*
X0143207Y0139052D02*
X0233013Y0139052D01*
X0232437Y0138053D02*
X0142539Y0138053D01*
X0141872Y0137055D02*
X0232154Y0137055D01*
X0232283Y0137788D02*
X0232283Y0137788D01*
X0231978Y0136056D02*
X0140432Y0136056D01*
X0138938Y0135058D02*
X0231802Y0135058D01*
X0231626Y0134059D02*
X0062482Y0134059D01*
X0062595Y0133061D02*
X0231669Y0133061D01*
X0231560Y0133683D02*
X0231560Y0133683D01*
X0231846Y0132062D02*
X0062595Y0132062D01*
X0062595Y0131064D02*
X0232022Y0131064D01*
X0232198Y0130065D02*
X0062595Y0130065D01*
X0062595Y0129067D02*
X0154628Y0129067D01*
X0152295Y0128068D02*
X0062595Y0128068D01*
X0062595Y0127070D02*
X0113481Y0127070D01*
X0114584Y0127070D02*
X0151297Y0127070D01*
X0150369Y0126071D02*
X0118069Y0126071D01*
X0119564Y0125073D02*
X0149956Y0125073D01*
X0149542Y0124074D02*
X0120633Y0124074D01*
X0121300Y0123076D02*
X0149375Y0123076D01*
X0149375Y0122077D02*
X0121967Y0122077D01*
X0122336Y0121079D02*
X0149375Y0121079D01*
X0149731Y0120080D02*
X0122534Y0120080D01*
X0122733Y0119082D02*
X0150145Y0119082D01*
X0150755Y0118083D02*
X0122834Y0118083D01*
X0122635Y0117085D02*
X0151753Y0117085D01*
X0153320Y0116086D02*
X0122436Y0116086D01*
X0120972Y0113091D02*
X0252503Y0113091D01*
X0250492Y0112092D02*
X0120304Y0112092D01*
X0110933Y0110095D02*
X0062595Y0110095D01*
X0062595Y0111094D02*
X0109237Y0111094D01*
X0107760Y0112092D02*
X0062595Y0112092D01*
X0062595Y0113091D02*
X0107093Y0113091D01*
X0106425Y0114089D02*
X0062595Y0114089D01*
X0062595Y0115088D02*
X0105826Y0115088D01*
X0105628Y0116086D02*
X0062595Y0116086D01*
X0062595Y0117085D02*
X0105429Y0117085D01*
X0105231Y0118083D02*
X0062595Y0118083D01*
X0062595Y0119082D02*
X0105331Y0119082D01*
X0105530Y0120080D02*
X0062595Y0120080D01*
X0062595Y0121079D02*
X0105729Y0121079D01*
X0106097Y0122077D02*
X0062595Y0122077D01*
X0062595Y0123076D02*
X0106764Y0123076D01*
X0107431Y0124074D02*
X0062595Y0124074D01*
X0062595Y0125073D02*
X0108501Y0125073D01*
X0109995Y0126071D02*
X0062595Y0126071D01*
X0057595Y0126071D02*
X0054721Y0126071D01*
X0054721Y0125073D02*
X0057595Y0125073D01*
X0057595Y0124074D02*
X0054721Y0124074D01*
X0054721Y0123076D02*
X0057595Y0123076D01*
X0057595Y0122077D02*
X0054721Y0122077D01*
X0054721Y0121079D02*
X0057595Y0121079D01*
X0057595Y0120080D02*
X0054721Y0120080D01*
X0054721Y0119082D02*
X0057595Y0119082D01*
X0057595Y0118083D02*
X0054721Y0118083D01*
X0054721Y0117085D02*
X0057595Y0117085D01*
X0057595Y0116086D02*
X0054721Y0116086D01*
X0054721Y0115088D02*
X0057595Y0115088D01*
X0057595Y0114089D02*
X0054721Y0114089D01*
X0054721Y0113091D02*
X0057595Y0113091D01*
X0057595Y0112092D02*
X0054721Y0112092D01*
X0054721Y0111094D02*
X0057595Y0111094D01*
X0057595Y0110095D02*
X0054721Y0110095D01*
X0054721Y0109097D02*
X0057595Y0109097D01*
X0057595Y0108098D02*
X0054721Y0108098D01*
X0054721Y0107100D02*
X0057595Y0107100D01*
X0057595Y0106101D02*
X0054721Y0106101D01*
X0054721Y0105103D02*
X0057595Y0105103D01*
X0057595Y0104104D02*
X0054721Y0104104D01*
X0054721Y0103106D02*
X0057595Y0103106D01*
X0057595Y0102107D02*
X0054721Y0102107D01*
X0054721Y0101109D02*
X0057595Y0101109D01*
X0057595Y0100110D02*
X0054721Y0100110D01*
X0054721Y0099112D02*
X0057595Y0099112D01*
X0057595Y0098113D02*
X0054721Y0098113D01*
X0054721Y0097114D02*
X0057595Y0097114D01*
X0057595Y0096116D02*
X0054721Y0096116D01*
X0054721Y0095117D02*
X0057595Y0095117D01*
X0057595Y0094119D02*
X0054721Y0094119D01*
X0054721Y0093120D02*
X0057595Y0093120D01*
X0057595Y0092122D02*
X0054721Y0092122D01*
X0054721Y0091123D02*
X0057595Y0091123D01*
X0057595Y0090125D02*
X0054721Y0090125D01*
X0054721Y0089126D02*
X0057595Y0089126D01*
X0057595Y0088128D02*
X0054721Y0088128D01*
X0054721Y0087129D02*
X0057595Y0087129D01*
X0057595Y0086131D02*
X0054721Y0086131D01*
X0054721Y0085132D02*
X0057595Y0085132D01*
X0057595Y0084134D02*
X0054721Y0084134D01*
X0054721Y0083135D02*
X0057595Y0083135D01*
X0057595Y0082137D02*
X0054721Y0082137D01*
X0054721Y0081138D02*
X0057595Y0081138D01*
X0057595Y0080140D02*
X0054721Y0080140D01*
X0054721Y0079141D02*
X0057595Y0079141D01*
X0057595Y0078143D02*
X0054721Y0078143D01*
X0054721Y0077144D02*
X0057595Y0077144D01*
X0057595Y0076146D02*
X0054721Y0076146D01*
X0054721Y0075147D02*
X0057595Y0075147D01*
X0057595Y0074149D02*
X0054721Y0074149D01*
X0054721Y0073150D02*
X0057838Y0073150D01*
X0058643Y0072152D02*
X0054721Y0072152D01*
X0062595Y0083135D02*
X0289847Y0083135D01*
X0289847Y0084134D02*
X0062595Y0084134D01*
X0062595Y0085132D02*
X0289847Y0085132D01*
X0289847Y0086131D02*
X0062595Y0086131D01*
X0062595Y0087129D02*
X0289847Y0087129D01*
X0289847Y0090125D02*
X0210579Y0090125D01*
X0211769Y0091123D02*
X0289847Y0091123D01*
X0289847Y0092122D02*
X0212944Y0092122D01*
X0213520Y0093120D02*
X0289847Y0093120D01*
X0289847Y0094119D02*
X0214097Y0094119D01*
X0214673Y0095117D02*
X0289847Y0095117D01*
X0289847Y0096116D02*
X0215014Y0096116D01*
X0214911Y0095529D02*
X0214911Y0095529D01*
X0215190Y0097114D02*
X0289847Y0097114D01*
X0289847Y0098113D02*
X0215367Y0098113D01*
X0233156Y0128068D02*
X0160179Y0128068D01*
X0161177Y0127070D02*
X0233732Y0127070D01*
X0234309Y0126071D02*
X0162105Y0126071D01*
X0162518Y0125073D02*
X0235436Y0125073D01*
X0236626Y0124074D02*
X0162932Y0124074D01*
X0163099Y0123076D02*
X0238151Y0123076D01*
X0237560Y0123291D02*
X0237560Y0123291D01*
X0240895Y0122077D02*
X0163099Y0122077D01*
X0157845Y0129067D02*
X0232579Y0129067D01*
X0232283Y0129579D02*
X0232283Y0129579D01*
X0231749Y0164203D02*
X0228362Y0164877D01*
X0225490Y0166795D01*
X0223572Y0169667D01*
X0222898Y0173054D01*
X0223572Y0176440D01*
X0225490Y0179312D01*
X0228362Y0181230D01*
X0231749Y0181904D01*
X0235136Y0181230D01*
X0238007Y0179312D01*
X0239925Y0176440D01*
X0240599Y0173054D01*
X0239925Y0169667D01*
X0238007Y0166795D01*
X0235136Y0164877D01*
X0231749Y0164203D01*
X0235340Y0165013D02*
X0289847Y0165013D01*
X0289847Y0164015D02*
X0052595Y0164015D01*
X0052595Y0165013D02*
X0228158Y0165013D01*
X0226663Y0166012D02*
X0052595Y0166012D01*
X0052595Y0167010D02*
X0225347Y0167010D01*
X0224680Y0168009D02*
X0052595Y0168009D01*
X0052595Y0169007D02*
X0224012Y0169007D01*
X0223504Y0170006D02*
X0052595Y0170006D01*
X0052595Y0171004D02*
X0223306Y0171004D01*
X0223107Y0172003D02*
X0052595Y0172003D01*
X0052595Y0173001D02*
X0222909Y0173001D01*
X0223087Y0174000D02*
X0052595Y0174000D01*
X0052595Y0174998D02*
X0165476Y0174998D01*
X0166683Y0174498D02*
X0164161Y0175543D01*
X0162230Y0177473D01*
X0161186Y0179996D01*
X0161186Y0182726D01*
X0162230Y0185248D01*
X0164161Y0187178D01*
X0166683Y0188223D01*
X0169413Y0188223D01*
X0171935Y0187178D01*
X0173865Y0185248D01*
X0174910Y0182726D01*
X0174910Y0179996D01*
X0173865Y0177473D01*
X0171935Y0175543D01*
X0169413Y0174498D01*
X0166683Y0174498D01*
X0163707Y0175997D02*
X0052595Y0175997D01*
X0052595Y0176995D02*
X0162708Y0176995D01*
X0162015Y0177994D02*
X0052595Y0177994D01*
X0052595Y0178992D02*
X0161601Y0178992D01*
X0161188Y0179991D02*
X0052595Y0179991D01*
X0052595Y0180989D02*
X0161186Y0180989D01*
X0161186Y0181988D02*
X0052595Y0181988D01*
X0052595Y0182986D02*
X0161294Y0182986D01*
X0161707Y0183985D02*
X0052595Y0183985D01*
X0052595Y0184983D02*
X0162121Y0184983D01*
X0162965Y0185982D02*
X0052595Y0185982D01*
X0052595Y0186981D02*
X0163963Y0186981D01*
X0166094Y0187979D02*
X0052595Y0187979D01*
X0052595Y0188978D02*
X0289847Y0188978D01*
X0289847Y0189976D02*
X0052595Y0189976D01*
X0052595Y0190975D02*
X0289847Y0190975D01*
X0289847Y0191973D02*
X0052595Y0191973D01*
X0052595Y0192972D02*
X0289847Y0192972D01*
X0289847Y0193970D02*
X0052595Y0193970D01*
X0052595Y0194969D02*
X0289847Y0194969D01*
X0289847Y0195967D02*
X0052595Y0195967D01*
X0052595Y0196966D02*
X0289847Y0196966D01*
X0289847Y0197964D02*
X0052595Y0197964D01*
X0052595Y0198963D02*
X0219768Y0198963D01*
X0219279Y0199165D02*
X0221801Y0198120D01*
X0224531Y0198120D01*
X0227053Y0199165D01*
X0228983Y0201096D01*
X0230028Y0203618D01*
X0230028Y0206348D01*
X0228983Y0208870D01*
X0227053Y0210800D01*
X0224531Y0211845D01*
X0221801Y0211845D01*
X0219279Y0210800D01*
X0217348Y0208870D01*
X0216304Y0206348D01*
X0216304Y0203618D01*
X0217348Y0201096D01*
X0219279Y0199165D01*
X0218483Y0199961D02*
X0052595Y0199961D01*
X0052595Y0200960D02*
X0217484Y0200960D01*
X0216991Y0201958D02*
X0052595Y0201958D01*
X0052595Y0202957D02*
X0216578Y0202957D01*
X0216304Y0203955D02*
X0052595Y0203955D01*
X0052595Y0204954D02*
X0216304Y0204954D01*
X0216304Y0205952D02*
X0052595Y0205952D01*
X0052595Y0206951D02*
X0216554Y0206951D01*
X0216967Y0207949D02*
X0052595Y0207949D01*
X0052595Y0208948D02*
X0217426Y0208948D01*
X0218425Y0209946D02*
X0052595Y0209946D01*
X0052595Y0210945D02*
X0219628Y0210945D01*
X0226704Y0210945D02*
X0289847Y0210945D01*
X0289847Y0211943D02*
X0052595Y0211943D01*
X0052595Y0212942D02*
X0289847Y0212942D01*
X0289847Y0213940D02*
X0052595Y0213940D01*
X0052595Y0214939D02*
X0289847Y0214939D01*
X0289847Y0215937D02*
X0052595Y0215937D01*
X0052595Y0216936D02*
X0289847Y0216936D01*
X0289847Y0217934D02*
X0052595Y0217934D01*
X0052595Y0218933D02*
X0058373Y0218933D01*
X0059595Y0218933D02*
X0060595Y0218933D01*
X0060595Y0219931D02*
X0059595Y0219931D01*
X0059595Y0220930D02*
X0060595Y0220930D01*
X0060595Y0221928D02*
X0059595Y0221928D01*
X0059595Y0222927D02*
X0060595Y0222927D01*
X0060595Y0223925D02*
X0090528Y0223925D01*
X0090528Y0222927D02*
X0065215Y0222927D01*
X0064941Y0221928D02*
X0090908Y0221928D01*
X0091368Y0220930D02*
X0064408Y0220930D01*
X0063539Y0219931D02*
X0092367Y0219931D01*
X0094312Y0218933D02*
X0061817Y0218933D01*
X0056651Y0219931D02*
X0053257Y0219931D01*
X0054255Y0220930D02*
X0055783Y0220930D01*
X0055249Y0221928D02*
X0054715Y0221928D01*
X0064285Y0226921D02*
X0091537Y0226921D01*
X0090978Y0225922D02*
X0064871Y0225922D01*
X0065188Y0224924D02*
X0090565Y0224924D01*
X0096745Y0218933D02*
X0104312Y0218933D01*
X0102367Y0219931D02*
X0098690Y0219931D01*
X0099688Y0220930D02*
X0101368Y0220930D01*
X0100908Y0221928D02*
X0100148Y0221928D01*
X0100528Y0222846D02*
X0100528Y0224836D01*
X0101289Y0226673D01*
X0101831Y0227215D01*
X0099225Y0227215D01*
X0099767Y0226673D01*
X0100528Y0224836D01*
X0100528Y0222846D01*
X0100528Y0222927D02*
X0100528Y0222927D01*
X0100528Y0223925D02*
X0100528Y0223925D01*
X0100492Y0224924D02*
X0100565Y0224924D01*
X0100978Y0225922D02*
X0100078Y0225922D01*
X0099519Y0226921D02*
X0101537Y0226921D01*
X0109225Y0227215D02*
X0111831Y0227215D01*
X0111289Y0226673D01*
X0110528Y0224836D01*
X0110528Y0222846D01*
X0110528Y0224836D01*
X0109767Y0226673D01*
X0109225Y0227215D01*
X0109519Y0226921D02*
X0111537Y0226921D01*
X0110978Y0225922D02*
X0110078Y0225922D01*
X0110492Y0224924D02*
X0110565Y0224924D01*
X0110528Y0223925D02*
X0110528Y0223925D01*
X0110528Y0222927D02*
X0110528Y0222927D01*
X0110148Y0221928D02*
X0110908Y0221928D01*
X0111368Y0220930D02*
X0109688Y0220930D01*
X0108690Y0219931D02*
X0112367Y0219931D01*
X0114312Y0218933D02*
X0106745Y0218933D01*
X0116745Y0218933D02*
X0124312Y0218933D01*
X0122367Y0219931D02*
X0118690Y0219931D01*
X0119688Y0220930D02*
X0121368Y0220930D01*
X0120908Y0221928D02*
X0120148Y0221928D01*
X0120528Y0222846D02*
X0120528Y0224836D01*
X0121289Y0226673D01*
X0121831Y0227215D01*
X0119225Y0227215D01*
X0119767Y0226673D01*
X0120528Y0224836D01*
X0120528Y0222846D01*
X0120528Y0222927D02*
X0120528Y0222927D01*
X0120528Y0223925D02*
X0120528Y0223925D01*
X0120492Y0224924D02*
X0120565Y0224924D01*
X0120978Y0225922D02*
X0120078Y0225922D01*
X0119519Y0226921D02*
X0121537Y0226921D01*
X0129225Y0227215D02*
X0129767Y0226673D01*
X0130528Y0224836D01*
X0130528Y0222846D01*
X0130528Y0224836D01*
X0131289Y0226673D01*
X0131831Y0227215D01*
X0129225Y0227215D01*
X0129519Y0226921D02*
X0131537Y0226921D01*
X0130978Y0225922D02*
X0130078Y0225922D01*
X0130492Y0224924D02*
X0130565Y0224924D01*
X0130528Y0223925D02*
X0130528Y0223925D01*
X0130528Y0222927D02*
X0130528Y0222927D01*
X0130148Y0221928D02*
X0130908Y0221928D01*
X0131368Y0220930D02*
X0129688Y0220930D01*
X0128690Y0219931D02*
X0132367Y0219931D01*
X0134312Y0218933D02*
X0126745Y0218933D01*
X0136745Y0218933D02*
X0144312Y0218933D01*
X0142367Y0219931D02*
X0138690Y0219931D01*
X0139688Y0220930D02*
X0141368Y0220930D01*
X0140908Y0221928D02*
X0140148Y0221928D01*
X0140528Y0222846D02*
X0140528Y0224836D01*
X0141289Y0226673D01*
X0141831Y0227215D01*
X0139225Y0227215D01*
X0139767Y0226673D01*
X0140528Y0224836D01*
X0140528Y0222846D01*
X0140528Y0222927D02*
X0140528Y0222927D01*
X0140528Y0223925D02*
X0140528Y0223925D01*
X0140492Y0224924D02*
X0140565Y0224924D01*
X0140978Y0225922D02*
X0140078Y0225922D01*
X0139519Y0226921D02*
X0141537Y0226921D01*
X0146745Y0218933D02*
X0154312Y0218933D01*
X0152367Y0219931D02*
X0148690Y0219931D01*
X0149688Y0220930D02*
X0151368Y0220930D01*
X0150908Y0221928D02*
X0150148Y0221928D01*
X0150528Y0222846D02*
X0150528Y0224836D01*
X0151289Y0226673D01*
X0151831Y0227215D01*
X0149225Y0227215D01*
X0149767Y0226673D01*
X0150528Y0224836D01*
X0150528Y0222846D01*
X0150528Y0222927D02*
X0150528Y0222927D01*
X0150528Y0223925D02*
X0150528Y0223925D01*
X0150492Y0224924D02*
X0150565Y0224924D01*
X0150978Y0225922D02*
X0150078Y0225922D01*
X0149519Y0226921D02*
X0151537Y0226921D01*
X0159225Y0227215D02*
X0161831Y0227215D01*
X0161289Y0226673D01*
X0160528Y0224836D01*
X0160528Y0222846D01*
X0160528Y0224836D01*
X0159767Y0226673D01*
X0159225Y0227215D01*
X0159519Y0226921D02*
X0161537Y0226921D01*
X0160978Y0225922D02*
X0160078Y0225922D01*
X0160492Y0224924D02*
X0160565Y0224924D01*
X0160528Y0223925D02*
X0160528Y0223925D01*
X0160528Y0222927D02*
X0160528Y0222927D01*
X0160148Y0221928D02*
X0160908Y0221928D01*
X0161368Y0220930D02*
X0159688Y0220930D01*
X0158690Y0219931D02*
X0162367Y0219931D01*
X0164312Y0218933D02*
X0156745Y0218933D01*
X0166745Y0218933D02*
X0174312Y0218933D01*
X0172367Y0219931D02*
X0168690Y0219931D01*
X0169688Y0220930D02*
X0171368Y0220930D01*
X0170908Y0221928D02*
X0170148Y0221928D01*
X0170528Y0222846D02*
X0170528Y0224836D01*
X0171289Y0226673D01*
X0171831Y0227215D01*
X0169225Y0227215D01*
X0169767Y0226673D01*
X0170528Y0224836D01*
X0170528Y0222846D01*
X0170528Y0222927D02*
X0170528Y0222927D01*
X0170528Y0223925D02*
X0170528Y0223925D01*
X0170492Y0224924D02*
X0170565Y0224924D01*
X0170978Y0225922D02*
X0170078Y0225922D01*
X0169519Y0226921D02*
X0171537Y0226921D01*
X0176745Y0218933D02*
X0184312Y0218933D01*
X0182367Y0219931D02*
X0178690Y0219931D01*
X0179688Y0220930D02*
X0181368Y0220930D01*
X0180908Y0221928D02*
X0180148Y0221928D01*
X0180528Y0222846D02*
X0180528Y0224836D01*
X0181289Y0226673D01*
X0181831Y0227215D01*
X0179225Y0227215D01*
X0179767Y0226673D01*
X0180528Y0224836D01*
X0180528Y0222846D01*
X0180528Y0222927D02*
X0180528Y0222927D01*
X0180528Y0223925D02*
X0180528Y0223925D01*
X0180492Y0224924D02*
X0180565Y0224924D01*
X0180978Y0225922D02*
X0180078Y0225922D01*
X0179519Y0226921D02*
X0181537Y0226921D01*
X0189225Y0227215D02*
X0191831Y0227215D01*
X0191289Y0226673D01*
X0190528Y0224836D01*
X0190528Y0222846D01*
X0190528Y0224836D01*
X0189767Y0226673D01*
X0189225Y0227215D01*
X0189519Y0226921D02*
X0191537Y0226921D01*
X0190978Y0225922D02*
X0190078Y0225922D01*
X0190492Y0224924D02*
X0190565Y0224924D01*
X0190528Y0223925D02*
X0190528Y0223925D01*
X0190528Y0222927D02*
X0190528Y0222927D01*
X0190148Y0221928D02*
X0190908Y0221928D01*
X0191368Y0220930D02*
X0189688Y0220930D01*
X0188690Y0219931D02*
X0192367Y0219931D01*
X0194312Y0218933D02*
X0186745Y0218933D01*
X0196745Y0218933D02*
X0204312Y0218933D01*
X0202367Y0219931D02*
X0198690Y0219931D01*
X0199688Y0220930D02*
X0201368Y0220930D01*
X0200908Y0221928D02*
X0200148Y0221928D01*
X0200528Y0222846D02*
X0200528Y0224836D01*
X0201289Y0226673D01*
X0201831Y0227215D01*
X0199225Y0227215D01*
X0199767Y0226673D01*
X0200528Y0224836D01*
X0200528Y0222846D01*
X0200528Y0222927D02*
X0200528Y0222927D01*
X0200528Y0223925D02*
X0200528Y0223925D01*
X0200492Y0224924D02*
X0200565Y0224924D01*
X0200978Y0225922D02*
X0200078Y0225922D01*
X0199519Y0226921D02*
X0201537Y0226921D01*
X0209519Y0226921D02*
X0289847Y0226921D01*
X0289847Y0225922D02*
X0210078Y0225922D01*
X0210492Y0224924D02*
X0289847Y0224924D01*
X0289847Y0223925D02*
X0210528Y0223925D01*
X0210528Y0222927D02*
X0289847Y0222927D01*
X0289847Y0221928D02*
X0210148Y0221928D01*
X0209688Y0220930D02*
X0289847Y0220930D01*
X0289847Y0219931D02*
X0208690Y0219931D01*
X0206745Y0218933D02*
X0289847Y0218933D01*
X0289847Y0209946D02*
X0227907Y0209946D01*
X0228905Y0208948D02*
X0289847Y0208948D01*
X0289847Y0207949D02*
X0229365Y0207949D01*
X0229778Y0206951D02*
X0289847Y0206951D01*
X0289847Y0205952D02*
X0230028Y0205952D01*
X0230028Y0204954D02*
X0289847Y0204954D01*
X0289847Y0203955D02*
X0230028Y0203955D01*
X0229754Y0202957D02*
X0289847Y0202957D01*
X0289847Y0201958D02*
X0229341Y0201958D01*
X0228848Y0200960D02*
X0289847Y0200960D01*
X0289847Y0199961D02*
X0227849Y0199961D01*
X0226564Y0198963D02*
X0289847Y0198963D01*
X0289847Y0187979D02*
X0170001Y0187979D01*
X0172133Y0186981D02*
X0289847Y0186981D01*
X0289847Y0185982D02*
X0173131Y0185982D01*
X0173975Y0184983D02*
X0289847Y0184983D01*
X0289847Y0183985D02*
X0174388Y0183985D01*
X0174802Y0182986D02*
X0289847Y0182986D01*
X0289847Y0181988D02*
X0174910Y0181988D01*
X0174910Y0180989D02*
X0228001Y0180989D01*
X0226507Y0179991D02*
X0174908Y0179991D01*
X0174495Y0178992D02*
X0225277Y0178992D01*
X0224610Y0177994D02*
X0174081Y0177994D01*
X0173387Y0176995D02*
X0223943Y0176995D01*
X0223484Y0175997D02*
X0172389Y0175997D01*
X0170620Y0174998D02*
X0223285Y0174998D01*
X0235496Y0180989D02*
X0289847Y0180989D01*
X0289847Y0179991D02*
X0236990Y0179991D01*
X0238220Y0178992D02*
X0289847Y0178992D01*
X0289847Y0177994D02*
X0238887Y0177994D01*
X0239555Y0176995D02*
X0289847Y0176995D01*
X0289847Y0175997D02*
X0240014Y0175997D01*
X0240212Y0174998D02*
X0289847Y0174998D01*
X0289847Y0174000D02*
X0240411Y0174000D01*
X0240589Y0173001D02*
X0289847Y0173001D01*
X0289847Y0172003D02*
X0240390Y0172003D01*
X0240191Y0171004D02*
X0289847Y0171004D01*
X0289847Y0170006D02*
X0239993Y0170006D01*
X0239485Y0169007D02*
X0289847Y0169007D01*
X0289847Y0168009D02*
X0238818Y0168009D01*
X0238150Y0167010D02*
X0289847Y0167010D01*
X0289847Y0166012D02*
X0236834Y0166012D01*
X0284898Y0134266D02*
X0284898Y0134266D01*
X0285938Y0134059D02*
X0289847Y0134059D01*
X0289847Y0133061D02*
X0289186Y0133061D01*
X0288436Y0133562D02*
X0288436Y0133562D01*
X0289847Y0149037D02*
X0142514Y0149037D01*
X0141847Y0150036D02*
X0289847Y0150036D01*
X0289847Y0151034D02*
X0140374Y0151034D01*
X0138880Y0152033D02*
X0289847Y0152033D01*
X0289847Y0153031D02*
X0052595Y0153031D01*
X0052595Y0152033D02*
X0131704Y0152033D01*
X0131754Y0152066D02*
X0131754Y0152066D01*
X0130209Y0151034D02*
X0052595Y0151034D01*
X0052595Y0150036D02*
X0128737Y0150036D01*
X0128070Y0149037D02*
X0052595Y0149037D01*
X0052595Y0148039D02*
X0127403Y0148039D01*
X0126752Y0147064D02*
X0126752Y0147064D01*
X0126747Y0147040D02*
X0052595Y0147040D01*
X0052595Y0146042D02*
X0126548Y0146042D01*
X0126350Y0145043D02*
X0052595Y0145043D01*
X0052595Y0144045D02*
X0126151Y0144045D01*
X0126048Y0143526D02*
X0126048Y0143526D01*
X0126143Y0143046D02*
X0052595Y0143046D01*
X0052595Y0142048D02*
X0126342Y0142048D01*
X0126541Y0141049D02*
X0052595Y0141049D01*
X0052595Y0140050D02*
X0126739Y0140050D01*
X0126752Y0139988D02*
X0126752Y0139988D01*
X0127377Y0139052D02*
X0052595Y0139052D01*
X0052595Y0138053D02*
X0128044Y0138053D01*
X0128712Y0137055D02*
X0052595Y0137055D01*
X0052595Y0136056D02*
X0130152Y0136056D01*
X0131646Y0135058D02*
X0061862Y0135058D01*
X0057595Y0130065D02*
X0054632Y0130065D01*
X0054721Y0129067D02*
X0057595Y0129067D01*
X0057595Y0128068D02*
X0054721Y0128068D01*
X0054721Y0127070D02*
X0057595Y0127070D01*
X0052595Y0154030D02*
X0289847Y0154030D01*
X0289847Y0155028D02*
X0052595Y0155028D01*
X0052595Y0156027D02*
X0289847Y0156027D01*
X0289847Y0157025D02*
X0052595Y0157025D01*
X0052595Y0158024D02*
X0289847Y0158024D01*
X0289847Y0159022D02*
X0052595Y0159022D01*
X0052595Y0160021D02*
X0289847Y0160021D01*
X0289847Y0161019D02*
X0052595Y0161019D01*
X0052595Y0162018D02*
X0289847Y0162018D01*
X0289847Y0163016D02*
X0052595Y0163016D01*
X0037595Y0163016D02*
X0033068Y0163016D01*
X0033068Y0162018D02*
X0037595Y0162018D01*
X0037595Y0161019D02*
X0033068Y0161019D01*
X0033068Y0160021D02*
X0037595Y0160021D01*
X0037595Y0159022D02*
X0033068Y0159022D01*
X0033068Y0158024D02*
X0037595Y0158024D01*
X0037595Y0157025D02*
X0033068Y0157025D01*
X0033068Y0156027D02*
X0037595Y0156027D01*
X0037595Y0155028D02*
X0033068Y0155028D01*
X0033068Y0154030D02*
X0037595Y0154030D01*
X0037595Y0153031D02*
X0033068Y0153031D01*
X0033068Y0152033D02*
X0037595Y0152033D01*
X0037595Y0151034D02*
X0033068Y0151034D01*
X0033068Y0150036D02*
X0037595Y0150036D01*
X0037595Y0149037D02*
X0033068Y0149037D01*
X0033068Y0148039D02*
X0037595Y0148039D01*
X0037595Y0147040D02*
X0033068Y0147040D01*
X0033068Y0146042D02*
X0037595Y0146042D01*
X0037595Y0145043D02*
X0033068Y0145043D01*
X0033068Y0144045D02*
X0037595Y0144045D01*
X0037595Y0143046D02*
X0033068Y0143046D01*
X0033068Y0142048D02*
X0037595Y0142048D01*
X0037595Y0141049D02*
X0033068Y0141049D01*
X0033068Y0140050D02*
X0037595Y0140050D01*
X0037595Y0139052D02*
X0033068Y0139052D01*
X0033068Y0138053D02*
X0037595Y0138053D01*
X0037595Y0137055D02*
X0033068Y0137055D01*
X0033068Y0136056D02*
X0037595Y0136056D01*
X0037595Y0135058D02*
X0033068Y0135058D01*
X0033068Y0134059D02*
X0037595Y0134059D01*
X0037595Y0133061D02*
X0033068Y0133061D01*
X0033068Y0132062D02*
X0037595Y0132062D01*
X0037595Y0131064D02*
X0033068Y0131064D01*
X0033068Y0130065D02*
X0037595Y0130065D01*
X0037595Y0129067D02*
X0033068Y0129067D01*
X0033068Y0128068D02*
X0037921Y0128068D01*
X0037595Y0164015D02*
X0033068Y0164015D01*
X0033068Y0165013D02*
X0037595Y0165013D01*
X0037595Y0166012D02*
X0033068Y0166012D01*
X0033068Y0167010D02*
X0037595Y0167010D01*
X0037595Y0168009D02*
X0033068Y0168009D01*
X0033068Y0169007D02*
X0037595Y0169007D01*
X0037595Y0170006D02*
X0033068Y0170006D01*
X0033068Y0171004D02*
X0037595Y0171004D01*
X0037595Y0172003D02*
X0033068Y0172003D01*
X0033068Y0173001D02*
X0037595Y0173001D01*
X0037595Y0174000D02*
X0033068Y0174000D01*
X0033068Y0174998D02*
X0037595Y0174998D01*
X0037595Y0175997D02*
X0033068Y0175997D01*
X0033068Y0176995D02*
X0037595Y0176995D01*
X0037595Y0177994D02*
X0033068Y0177994D01*
X0033068Y0178992D02*
X0037595Y0178992D01*
X0037595Y0179991D02*
X0033068Y0179991D01*
X0033068Y0180989D02*
X0037595Y0180989D01*
X0037595Y0181988D02*
X0033068Y0181988D01*
X0033068Y0182986D02*
X0037595Y0182986D01*
X0037595Y0183985D02*
X0033068Y0183985D01*
X0033068Y0184983D02*
X0037595Y0184983D01*
X0037595Y0185982D02*
X0033068Y0185982D01*
X0033068Y0186981D02*
X0037595Y0186981D01*
X0037595Y0187979D02*
X0033068Y0187979D01*
X0033068Y0188978D02*
X0037595Y0188978D01*
X0037595Y0189976D02*
X0033068Y0189976D01*
X0113783Y0090527D02*
X0113783Y0090527D01*
X0131754Y0134986D02*
X0131754Y0134986D01*
X0135292Y0134282D02*
X0135292Y0134282D01*
X0138830Y0134986D02*
X0138830Y0134986D01*
D19*
X0127024Y0062424D03*
X0121119Y0032896D03*
X0099465Y0054550D03*
X0091591Y0038802D03*
X0087654Y0054550D03*
X0087654Y0074235D03*
X0068953Y0022069D03*
X0044347Y0062424D03*
X0035489Y0195298D03*
X0044347Y0208093D03*
D20*
X0040095Y0223841D02*
X0040095Y0129353D01*
X0052221Y0129353D01*
X0052221Y0044333D01*
X0057733Y0044333D01*
X0057733Y0029333D02*
X0056158Y0029333D01*
X0043757Y0029333D01*
X0043757Y0030928D01*
X0037064Y0042739D02*
X0037064Y0093920D01*
X0040410Y0093920D01*
X0040410Y0125416D01*
X0030568Y0125416D01*
X0030568Y0223369D01*
X0030095Y0223841D01*
X0050095Y0223841D02*
X0050095Y0133290D01*
X0060095Y0133290D01*
X0060095Y0074235D01*
X0087654Y0074235D01*
X0087654Y0054550D02*
X0071906Y0054550D01*
D21*
X0071906Y0029333D01*
X0056158Y0029333D01*
X0057733Y0034333D02*
X0048284Y0034333D01*
X0048284Y0042739D01*
X0043757Y0042739D01*
X0057733Y0039333D02*
X0064032Y0039333D01*
X0064032Y0062424D01*
X0071906Y0062424D01*
X0115213Y0062424D01*
X0115213Y0054550D01*
X0164820Y0054550D01*
X0184505Y0054550D01*
X0184505Y0046676D01*
X0194741Y0046676D02*
X0194741Y0039195D01*
X0154583Y0039195D01*
X0154583Y0046676D01*
X0112851Y0046676D01*
X0112851Y0042542D01*
X0103993Y0030928D02*
X0091591Y0030928D01*
X0091591Y0034333D01*
X0078205Y0034333D01*
X0078205Y0029333D02*
X0087654Y0029333D01*
X0087654Y0019117D01*
X0127024Y0019117D01*
X0127024Y0034274D01*
X0210686Y0034274D01*
X0210686Y0030770D01*
X0210686Y0036636D02*
X0101827Y0036636D01*
X0101827Y0042542D01*
X0101827Y0044333D01*
X0078205Y0044333D01*
X0164820Y0046676D02*
X0164820Y0054550D01*
X0194741Y0050613D02*
X0194741Y0046676D01*
X0194741Y0050613D02*
X0210686Y0050613D01*
X0210686Y0040770D02*
X0210686Y0036636D01*
M02*
