G75*
%MOIN*%
%OFA0B0*%
%FSLAX25Y25*%
%IPPOS*%
%LPD*%
%AMOC8*
5,1,8,0,0,1.08239X$1,22.5*
%
%ADD10C,0.00000*%
%ADD11C,0.00039*%
%ADD12C,0.05124*%
%ADD13R,0.09061X0.02762*%
%ADD14R,0.05518X0.06306*%
%ADD15C,0.07800*%
%ADD16R,0.05912X0.06699*%
%ADD17R,0.05912X0.04731*%
%ADD18C,0.09600*%
%ADD19C,0.03378*%
D10*
X0020725Y0015180D02*
X0020725Y0191951D01*
X0020858Y0191953D01*
X0020991Y0191959D01*
X0021123Y0191969D01*
X0021256Y0191982D01*
X0021387Y0192000D01*
X0021519Y0192021D01*
X0021649Y0192046D01*
X0021779Y0192075D01*
X0021908Y0192108D01*
X0022035Y0192145D01*
X0022162Y0192185D01*
X0022288Y0192229D01*
X0022412Y0192277D01*
X0022534Y0192328D01*
X0022655Y0192383D01*
X0022775Y0192442D01*
X0022892Y0192503D01*
X0023008Y0192569D01*
X0023122Y0192637D01*
X0023234Y0192709D01*
X0023343Y0192785D01*
X0023451Y0192863D01*
X0023556Y0192945D01*
X0023658Y0193029D01*
X0023758Y0193117D01*
X0023856Y0193207D01*
X0023950Y0193301D01*
X0024042Y0193397D01*
X0024131Y0193496D01*
X0024217Y0193597D01*
X0024300Y0193701D01*
X0024380Y0193807D01*
X0024457Y0193915D01*
X0024531Y0194026D01*
X0024601Y0194139D01*
X0024668Y0194253D01*
X0024732Y0194370D01*
X0024792Y0194489D01*
X0024849Y0194609D01*
X0024902Y0194731D01*
X0024951Y0194854D01*
X0024997Y0194979D01*
X0025040Y0195105D01*
X0025078Y0195232D01*
X0025113Y0195361D01*
X0025144Y0195490D01*
X0025171Y0195620D01*
X0025194Y0195751D01*
X0025214Y0195882D01*
X0025229Y0196015D01*
X0025241Y0196147D01*
X0025249Y0196280D01*
X0025253Y0196413D01*
X0025253Y0196545D01*
X0025249Y0196678D01*
X0025241Y0196811D01*
X0025229Y0196943D01*
X0025214Y0197076D01*
X0025194Y0197207D01*
X0025171Y0197338D01*
X0025144Y0197468D01*
X0025113Y0197597D01*
X0025078Y0197726D01*
X0025040Y0197853D01*
X0024997Y0197979D01*
X0024951Y0198104D01*
X0024902Y0198227D01*
X0024849Y0198349D01*
X0024792Y0198469D01*
X0024732Y0198588D01*
X0024668Y0198705D01*
X0024601Y0198819D01*
X0024531Y0198932D01*
X0024457Y0199043D01*
X0024380Y0199151D01*
X0024300Y0199257D01*
X0024217Y0199361D01*
X0024131Y0199462D01*
X0024042Y0199561D01*
X0023950Y0199657D01*
X0023856Y0199751D01*
X0023758Y0199841D01*
X0023658Y0199929D01*
X0023556Y0200013D01*
X0023451Y0200095D01*
X0023343Y0200173D01*
X0023234Y0200249D01*
X0023122Y0200321D01*
X0023008Y0200389D01*
X0022892Y0200455D01*
X0022775Y0200516D01*
X0022655Y0200575D01*
X0022534Y0200630D01*
X0022412Y0200681D01*
X0022288Y0200729D01*
X0022162Y0200773D01*
X0022035Y0200813D01*
X0021908Y0200850D01*
X0021779Y0200883D01*
X0021649Y0200912D01*
X0021519Y0200937D01*
X0021387Y0200958D01*
X0021256Y0200976D01*
X0021123Y0200989D01*
X0020991Y0200999D01*
X0020858Y0201005D01*
X0020725Y0201007D01*
X0020725Y0201006D02*
X0020725Y0231715D01*
X0294347Y0231715D01*
X0294347Y0081912D01*
X0294345Y0081788D01*
X0294339Y0081665D01*
X0294330Y0081541D01*
X0294316Y0081419D01*
X0294299Y0081296D01*
X0294277Y0081174D01*
X0294252Y0081053D01*
X0294223Y0080933D01*
X0294191Y0080814D01*
X0294154Y0080695D01*
X0294114Y0080578D01*
X0294071Y0080463D01*
X0294023Y0080348D01*
X0293972Y0080236D01*
X0293918Y0080125D01*
X0293860Y0080015D01*
X0293799Y0079908D01*
X0293734Y0079802D01*
X0293666Y0079699D01*
X0293595Y0079598D01*
X0293521Y0079499D01*
X0293444Y0079402D01*
X0293363Y0079308D01*
X0293280Y0079217D01*
X0293194Y0079128D01*
X0293105Y0079042D01*
X0293014Y0078959D01*
X0292920Y0078878D01*
X0292823Y0078801D01*
X0292724Y0078727D01*
X0292623Y0078656D01*
X0292520Y0078588D01*
X0292414Y0078523D01*
X0292307Y0078462D01*
X0292197Y0078404D01*
X0292086Y0078350D01*
X0291974Y0078299D01*
X0291859Y0078251D01*
X0291744Y0078208D01*
X0291627Y0078168D01*
X0291508Y0078131D01*
X0291389Y0078099D01*
X0291269Y0078070D01*
X0291148Y0078045D01*
X0291026Y0078023D01*
X0290903Y0078006D01*
X0290781Y0077992D01*
X0290657Y0077983D01*
X0290534Y0077977D01*
X0290410Y0077975D01*
X0223481Y0077975D01*
X0223357Y0077973D01*
X0223234Y0077967D01*
X0223110Y0077958D01*
X0222988Y0077944D01*
X0222865Y0077927D01*
X0222743Y0077905D01*
X0222622Y0077880D01*
X0222502Y0077851D01*
X0222383Y0077819D01*
X0222264Y0077782D01*
X0222147Y0077742D01*
X0222032Y0077699D01*
X0221917Y0077651D01*
X0221805Y0077600D01*
X0221694Y0077546D01*
X0221584Y0077488D01*
X0221477Y0077427D01*
X0221371Y0077362D01*
X0221268Y0077294D01*
X0221167Y0077223D01*
X0221068Y0077149D01*
X0220971Y0077072D01*
X0220877Y0076991D01*
X0220786Y0076908D01*
X0220697Y0076822D01*
X0220611Y0076733D01*
X0220528Y0076642D01*
X0220447Y0076548D01*
X0220370Y0076451D01*
X0220296Y0076352D01*
X0220225Y0076251D01*
X0220157Y0076148D01*
X0220092Y0076042D01*
X0220031Y0075935D01*
X0219973Y0075825D01*
X0219919Y0075714D01*
X0219868Y0075602D01*
X0219820Y0075487D01*
X0219777Y0075372D01*
X0219737Y0075255D01*
X0219700Y0075136D01*
X0219668Y0075017D01*
X0219639Y0074897D01*
X0219614Y0074776D01*
X0219592Y0074654D01*
X0219575Y0074531D01*
X0219561Y0074409D01*
X0219552Y0074285D01*
X0219546Y0074162D01*
X0219544Y0074038D01*
X0219544Y0015180D01*
X0219542Y0015056D01*
X0219536Y0014933D01*
X0219527Y0014809D01*
X0219513Y0014687D01*
X0219496Y0014564D01*
X0219474Y0014442D01*
X0219449Y0014321D01*
X0219420Y0014201D01*
X0219388Y0014082D01*
X0219351Y0013963D01*
X0219311Y0013846D01*
X0219268Y0013731D01*
X0219220Y0013616D01*
X0219169Y0013504D01*
X0219115Y0013393D01*
X0219057Y0013283D01*
X0218996Y0013176D01*
X0218931Y0013070D01*
X0218863Y0012967D01*
X0218792Y0012866D01*
X0218718Y0012767D01*
X0218641Y0012670D01*
X0218560Y0012576D01*
X0218477Y0012485D01*
X0218391Y0012396D01*
X0218302Y0012310D01*
X0218211Y0012227D01*
X0218117Y0012146D01*
X0218020Y0012069D01*
X0217921Y0011995D01*
X0217820Y0011924D01*
X0217717Y0011856D01*
X0217611Y0011791D01*
X0217504Y0011730D01*
X0217394Y0011672D01*
X0217283Y0011618D01*
X0217171Y0011567D01*
X0217056Y0011519D01*
X0216941Y0011476D01*
X0216824Y0011436D01*
X0216705Y0011399D01*
X0216586Y0011367D01*
X0216466Y0011338D01*
X0216345Y0011313D01*
X0216223Y0011291D01*
X0216100Y0011274D01*
X0215978Y0011260D01*
X0215854Y0011251D01*
X0215731Y0011245D01*
X0215607Y0011243D01*
X0191985Y0011243D01*
X0191861Y0011245D01*
X0191738Y0011251D01*
X0191614Y0011260D01*
X0191492Y0011274D01*
X0191369Y0011291D01*
X0191247Y0011313D01*
X0191126Y0011338D01*
X0191006Y0011367D01*
X0190887Y0011399D01*
X0190768Y0011436D01*
X0190651Y0011476D01*
X0190536Y0011519D01*
X0190421Y0011567D01*
X0190309Y0011618D01*
X0190198Y0011672D01*
X0190088Y0011730D01*
X0189981Y0011791D01*
X0189875Y0011856D01*
X0189772Y0011924D01*
X0189671Y0011995D01*
X0189572Y0012069D01*
X0189475Y0012146D01*
X0189381Y0012227D01*
X0189290Y0012310D01*
X0189201Y0012396D01*
X0189115Y0012485D01*
X0189032Y0012576D01*
X0188951Y0012670D01*
X0188874Y0012767D01*
X0188800Y0012866D01*
X0188729Y0012967D01*
X0188661Y0013070D01*
X0188596Y0013176D01*
X0188535Y0013283D01*
X0188477Y0013393D01*
X0188423Y0013504D01*
X0188372Y0013616D01*
X0188324Y0013731D01*
X0188281Y0013846D01*
X0188241Y0013963D01*
X0188204Y0014082D01*
X0188172Y0014201D01*
X0188143Y0014321D01*
X0188118Y0014442D01*
X0188096Y0014564D01*
X0188079Y0014687D01*
X0188065Y0014809D01*
X0188056Y0014933D01*
X0188050Y0015056D01*
X0188048Y0015180D01*
X0188048Y0018132D01*
X0160489Y0018132D01*
X0160489Y0015180D01*
X0160487Y0015056D01*
X0160481Y0014933D01*
X0160472Y0014809D01*
X0160458Y0014687D01*
X0160441Y0014564D01*
X0160419Y0014442D01*
X0160394Y0014321D01*
X0160365Y0014201D01*
X0160333Y0014082D01*
X0160296Y0013963D01*
X0160256Y0013846D01*
X0160213Y0013731D01*
X0160165Y0013616D01*
X0160114Y0013504D01*
X0160060Y0013393D01*
X0160002Y0013283D01*
X0159941Y0013176D01*
X0159876Y0013070D01*
X0159808Y0012967D01*
X0159737Y0012866D01*
X0159663Y0012767D01*
X0159586Y0012670D01*
X0159505Y0012576D01*
X0159422Y0012485D01*
X0159336Y0012396D01*
X0159247Y0012310D01*
X0159156Y0012227D01*
X0159062Y0012146D01*
X0158965Y0012069D01*
X0158866Y0011995D01*
X0158765Y0011924D01*
X0158662Y0011856D01*
X0158556Y0011791D01*
X0158449Y0011730D01*
X0158339Y0011672D01*
X0158228Y0011618D01*
X0158116Y0011567D01*
X0158001Y0011519D01*
X0157886Y0011476D01*
X0157769Y0011436D01*
X0157650Y0011399D01*
X0157531Y0011367D01*
X0157411Y0011338D01*
X0157290Y0011313D01*
X0157168Y0011291D01*
X0157045Y0011274D01*
X0156923Y0011260D01*
X0156799Y0011251D01*
X0156676Y0011245D01*
X0156552Y0011243D01*
X0024662Y0011243D01*
X0024538Y0011245D01*
X0024415Y0011251D01*
X0024291Y0011260D01*
X0024169Y0011274D01*
X0024046Y0011291D01*
X0023924Y0011313D01*
X0023803Y0011338D01*
X0023683Y0011367D01*
X0023564Y0011399D01*
X0023445Y0011436D01*
X0023328Y0011476D01*
X0023213Y0011519D01*
X0023098Y0011567D01*
X0022986Y0011618D01*
X0022875Y0011672D01*
X0022765Y0011730D01*
X0022658Y0011791D01*
X0022552Y0011856D01*
X0022449Y0011924D01*
X0022348Y0011995D01*
X0022249Y0012069D01*
X0022152Y0012146D01*
X0022058Y0012227D01*
X0021967Y0012310D01*
X0021878Y0012396D01*
X0021792Y0012485D01*
X0021709Y0012576D01*
X0021628Y0012670D01*
X0021551Y0012767D01*
X0021477Y0012866D01*
X0021406Y0012967D01*
X0021338Y0013070D01*
X0021273Y0013176D01*
X0021212Y0013283D01*
X0021154Y0013393D01*
X0021100Y0013504D01*
X0021049Y0013616D01*
X0021001Y0013731D01*
X0020958Y0013846D01*
X0020918Y0013963D01*
X0020881Y0014082D01*
X0020849Y0014201D01*
X0020820Y0014321D01*
X0020795Y0014442D01*
X0020773Y0014564D01*
X0020756Y0014687D01*
X0020742Y0014809D01*
X0020733Y0014933D01*
X0020727Y0015056D01*
X0020725Y0015180D01*
X0152615Y0017148D02*
X0152617Y0017245D01*
X0152623Y0017342D01*
X0152633Y0017438D01*
X0152647Y0017534D01*
X0152665Y0017630D01*
X0152686Y0017724D01*
X0152712Y0017818D01*
X0152741Y0017910D01*
X0152775Y0018001D01*
X0152811Y0018091D01*
X0152852Y0018179D01*
X0152896Y0018265D01*
X0152944Y0018350D01*
X0152995Y0018432D01*
X0153049Y0018513D01*
X0153107Y0018591D01*
X0153168Y0018666D01*
X0153231Y0018739D01*
X0153298Y0018810D01*
X0153368Y0018877D01*
X0153440Y0018942D01*
X0153515Y0019003D01*
X0153593Y0019062D01*
X0153672Y0019117D01*
X0153754Y0019169D01*
X0153838Y0019217D01*
X0153924Y0019262D01*
X0154012Y0019304D01*
X0154101Y0019342D01*
X0154192Y0019376D01*
X0154284Y0019406D01*
X0154377Y0019433D01*
X0154472Y0019455D01*
X0154567Y0019474D01*
X0154663Y0019489D01*
X0154759Y0019500D01*
X0154856Y0019507D01*
X0154953Y0019510D01*
X0155050Y0019509D01*
X0155147Y0019504D01*
X0155243Y0019495D01*
X0155339Y0019482D01*
X0155435Y0019465D01*
X0155530Y0019444D01*
X0155623Y0019420D01*
X0155716Y0019391D01*
X0155808Y0019359D01*
X0155898Y0019323D01*
X0155986Y0019284D01*
X0156073Y0019240D01*
X0156158Y0019194D01*
X0156241Y0019143D01*
X0156322Y0019090D01*
X0156400Y0019033D01*
X0156477Y0018973D01*
X0156550Y0018910D01*
X0156621Y0018844D01*
X0156689Y0018775D01*
X0156755Y0018703D01*
X0156817Y0018629D01*
X0156876Y0018552D01*
X0156932Y0018473D01*
X0156985Y0018391D01*
X0157035Y0018308D01*
X0157080Y0018222D01*
X0157123Y0018135D01*
X0157162Y0018046D01*
X0157197Y0017956D01*
X0157228Y0017864D01*
X0157255Y0017771D01*
X0157279Y0017677D01*
X0157299Y0017582D01*
X0157315Y0017486D01*
X0157327Y0017390D01*
X0157335Y0017293D01*
X0157339Y0017196D01*
X0157339Y0017100D01*
X0157335Y0017003D01*
X0157327Y0016906D01*
X0157315Y0016810D01*
X0157299Y0016714D01*
X0157279Y0016619D01*
X0157255Y0016525D01*
X0157228Y0016432D01*
X0157197Y0016340D01*
X0157162Y0016250D01*
X0157123Y0016161D01*
X0157080Y0016074D01*
X0157035Y0015988D01*
X0156985Y0015905D01*
X0156932Y0015823D01*
X0156876Y0015744D01*
X0156817Y0015667D01*
X0156755Y0015593D01*
X0156689Y0015521D01*
X0156621Y0015452D01*
X0156550Y0015386D01*
X0156477Y0015323D01*
X0156400Y0015263D01*
X0156322Y0015206D01*
X0156241Y0015153D01*
X0156158Y0015102D01*
X0156073Y0015056D01*
X0155986Y0015012D01*
X0155898Y0014973D01*
X0155808Y0014937D01*
X0155716Y0014905D01*
X0155623Y0014876D01*
X0155530Y0014852D01*
X0155435Y0014831D01*
X0155339Y0014814D01*
X0155243Y0014801D01*
X0155147Y0014792D01*
X0155050Y0014787D01*
X0154953Y0014786D01*
X0154856Y0014789D01*
X0154759Y0014796D01*
X0154663Y0014807D01*
X0154567Y0014822D01*
X0154472Y0014841D01*
X0154377Y0014863D01*
X0154284Y0014890D01*
X0154192Y0014920D01*
X0154101Y0014954D01*
X0154012Y0014992D01*
X0153924Y0015034D01*
X0153838Y0015079D01*
X0153754Y0015127D01*
X0153672Y0015179D01*
X0153593Y0015234D01*
X0153515Y0015293D01*
X0153440Y0015354D01*
X0153368Y0015419D01*
X0153298Y0015486D01*
X0153231Y0015557D01*
X0153168Y0015630D01*
X0153107Y0015705D01*
X0153049Y0015783D01*
X0152995Y0015864D01*
X0152944Y0015946D01*
X0152896Y0016031D01*
X0152852Y0016117D01*
X0152811Y0016205D01*
X0152775Y0016295D01*
X0152741Y0016386D01*
X0152712Y0016478D01*
X0152686Y0016572D01*
X0152665Y0016666D01*
X0152647Y0016762D01*
X0152633Y0016858D01*
X0152623Y0016954D01*
X0152617Y0017051D01*
X0152615Y0017148D01*
X0152615Y0026991D02*
X0152617Y0027088D01*
X0152623Y0027185D01*
X0152633Y0027281D01*
X0152647Y0027377D01*
X0152665Y0027473D01*
X0152686Y0027567D01*
X0152712Y0027661D01*
X0152741Y0027753D01*
X0152775Y0027844D01*
X0152811Y0027934D01*
X0152852Y0028022D01*
X0152896Y0028108D01*
X0152944Y0028193D01*
X0152995Y0028275D01*
X0153049Y0028356D01*
X0153107Y0028434D01*
X0153168Y0028509D01*
X0153231Y0028582D01*
X0153298Y0028653D01*
X0153368Y0028720D01*
X0153440Y0028785D01*
X0153515Y0028846D01*
X0153593Y0028905D01*
X0153672Y0028960D01*
X0153754Y0029012D01*
X0153838Y0029060D01*
X0153924Y0029105D01*
X0154012Y0029147D01*
X0154101Y0029185D01*
X0154192Y0029219D01*
X0154284Y0029249D01*
X0154377Y0029276D01*
X0154472Y0029298D01*
X0154567Y0029317D01*
X0154663Y0029332D01*
X0154759Y0029343D01*
X0154856Y0029350D01*
X0154953Y0029353D01*
X0155050Y0029352D01*
X0155147Y0029347D01*
X0155243Y0029338D01*
X0155339Y0029325D01*
X0155435Y0029308D01*
X0155530Y0029287D01*
X0155623Y0029263D01*
X0155716Y0029234D01*
X0155808Y0029202D01*
X0155898Y0029166D01*
X0155986Y0029127D01*
X0156073Y0029083D01*
X0156158Y0029037D01*
X0156241Y0028986D01*
X0156322Y0028933D01*
X0156400Y0028876D01*
X0156477Y0028816D01*
X0156550Y0028753D01*
X0156621Y0028687D01*
X0156689Y0028618D01*
X0156755Y0028546D01*
X0156817Y0028472D01*
X0156876Y0028395D01*
X0156932Y0028316D01*
X0156985Y0028234D01*
X0157035Y0028151D01*
X0157080Y0028065D01*
X0157123Y0027978D01*
X0157162Y0027889D01*
X0157197Y0027799D01*
X0157228Y0027707D01*
X0157255Y0027614D01*
X0157279Y0027520D01*
X0157299Y0027425D01*
X0157315Y0027329D01*
X0157327Y0027233D01*
X0157335Y0027136D01*
X0157339Y0027039D01*
X0157339Y0026943D01*
X0157335Y0026846D01*
X0157327Y0026749D01*
X0157315Y0026653D01*
X0157299Y0026557D01*
X0157279Y0026462D01*
X0157255Y0026368D01*
X0157228Y0026275D01*
X0157197Y0026183D01*
X0157162Y0026093D01*
X0157123Y0026004D01*
X0157080Y0025917D01*
X0157035Y0025831D01*
X0156985Y0025748D01*
X0156932Y0025666D01*
X0156876Y0025587D01*
X0156817Y0025510D01*
X0156755Y0025436D01*
X0156689Y0025364D01*
X0156621Y0025295D01*
X0156550Y0025229D01*
X0156477Y0025166D01*
X0156400Y0025106D01*
X0156322Y0025049D01*
X0156241Y0024996D01*
X0156158Y0024945D01*
X0156073Y0024899D01*
X0155986Y0024855D01*
X0155898Y0024816D01*
X0155808Y0024780D01*
X0155716Y0024748D01*
X0155623Y0024719D01*
X0155530Y0024695D01*
X0155435Y0024674D01*
X0155339Y0024657D01*
X0155243Y0024644D01*
X0155147Y0024635D01*
X0155050Y0024630D01*
X0154953Y0024629D01*
X0154856Y0024632D01*
X0154759Y0024639D01*
X0154663Y0024650D01*
X0154567Y0024665D01*
X0154472Y0024684D01*
X0154377Y0024706D01*
X0154284Y0024733D01*
X0154192Y0024763D01*
X0154101Y0024797D01*
X0154012Y0024835D01*
X0153924Y0024877D01*
X0153838Y0024922D01*
X0153754Y0024970D01*
X0153672Y0025022D01*
X0153593Y0025077D01*
X0153515Y0025136D01*
X0153440Y0025197D01*
X0153368Y0025262D01*
X0153298Y0025329D01*
X0153231Y0025400D01*
X0153168Y0025473D01*
X0153107Y0025548D01*
X0153049Y0025626D01*
X0152995Y0025707D01*
X0152944Y0025789D01*
X0152896Y0025874D01*
X0152852Y0025960D01*
X0152811Y0026048D01*
X0152775Y0026138D01*
X0152741Y0026229D01*
X0152712Y0026321D01*
X0152686Y0026415D01*
X0152665Y0026509D01*
X0152647Y0026605D01*
X0152633Y0026701D01*
X0152623Y0026797D01*
X0152617Y0026894D01*
X0152615Y0026991D01*
X0172300Y0046676D02*
X0172302Y0046773D01*
X0172308Y0046870D01*
X0172318Y0046966D01*
X0172332Y0047062D01*
X0172350Y0047158D01*
X0172371Y0047252D01*
X0172397Y0047346D01*
X0172426Y0047438D01*
X0172460Y0047529D01*
X0172496Y0047619D01*
X0172537Y0047707D01*
X0172581Y0047793D01*
X0172629Y0047878D01*
X0172680Y0047960D01*
X0172734Y0048041D01*
X0172792Y0048119D01*
X0172853Y0048194D01*
X0172916Y0048267D01*
X0172983Y0048338D01*
X0173053Y0048405D01*
X0173125Y0048470D01*
X0173200Y0048531D01*
X0173278Y0048590D01*
X0173357Y0048645D01*
X0173439Y0048697D01*
X0173523Y0048745D01*
X0173609Y0048790D01*
X0173697Y0048832D01*
X0173786Y0048870D01*
X0173877Y0048904D01*
X0173969Y0048934D01*
X0174062Y0048961D01*
X0174157Y0048983D01*
X0174252Y0049002D01*
X0174348Y0049017D01*
X0174444Y0049028D01*
X0174541Y0049035D01*
X0174638Y0049038D01*
X0174735Y0049037D01*
X0174832Y0049032D01*
X0174928Y0049023D01*
X0175024Y0049010D01*
X0175120Y0048993D01*
X0175215Y0048972D01*
X0175308Y0048948D01*
X0175401Y0048919D01*
X0175493Y0048887D01*
X0175583Y0048851D01*
X0175671Y0048812D01*
X0175758Y0048768D01*
X0175843Y0048722D01*
X0175926Y0048671D01*
X0176007Y0048618D01*
X0176085Y0048561D01*
X0176162Y0048501D01*
X0176235Y0048438D01*
X0176306Y0048372D01*
X0176374Y0048303D01*
X0176440Y0048231D01*
X0176502Y0048157D01*
X0176561Y0048080D01*
X0176617Y0048001D01*
X0176670Y0047919D01*
X0176720Y0047836D01*
X0176765Y0047750D01*
X0176808Y0047663D01*
X0176847Y0047574D01*
X0176882Y0047484D01*
X0176913Y0047392D01*
X0176940Y0047299D01*
X0176964Y0047205D01*
X0176984Y0047110D01*
X0177000Y0047014D01*
X0177012Y0046918D01*
X0177020Y0046821D01*
X0177024Y0046724D01*
X0177024Y0046628D01*
X0177020Y0046531D01*
X0177012Y0046434D01*
X0177000Y0046338D01*
X0176984Y0046242D01*
X0176964Y0046147D01*
X0176940Y0046053D01*
X0176913Y0045960D01*
X0176882Y0045868D01*
X0176847Y0045778D01*
X0176808Y0045689D01*
X0176765Y0045602D01*
X0176720Y0045516D01*
X0176670Y0045433D01*
X0176617Y0045351D01*
X0176561Y0045272D01*
X0176502Y0045195D01*
X0176440Y0045121D01*
X0176374Y0045049D01*
X0176306Y0044980D01*
X0176235Y0044914D01*
X0176162Y0044851D01*
X0176085Y0044791D01*
X0176007Y0044734D01*
X0175926Y0044681D01*
X0175843Y0044630D01*
X0175758Y0044584D01*
X0175671Y0044540D01*
X0175583Y0044501D01*
X0175493Y0044465D01*
X0175401Y0044433D01*
X0175308Y0044404D01*
X0175215Y0044380D01*
X0175120Y0044359D01*
X0175024Y0044342D01*
X0174928Y0044329D01*
X0174832Y0044320D01*
X0174735Y0044315D01*
X0174638Y0044314D01*
X0174541Y0044317D01*
X0174444Y0044324D01*
X0174348Y0044335D01*
X0174252Y0044350D01*
X0174157Y0044369D01*
X0174062Y0044391D01*
X0173969Y0044418D01*
X0173877Y0044448D01*
X0173786Y0044482D01*
X0173697Y0044520D01*
X0173609Y0044562D01*
X0173523Y0044607D01*
X0173439Y0044655D01*
X0173357Y0044707D01*
X0173278Y0044762D01*
X0173200Y0044821D01*
X0173125Y0044882D01*
X0173053Y0044947D01*
X0172983Y0045014D01*
X0172916Y0045085D01*
X0172853Y0045158D01*
X0172792Y0045233D01*
X0172734Y0045311D01*
X0172680Y0045392D01*
X0172629Y0045474D01*
X0172581Y0045559D01*
X0172537Y0045645D01*
X0172496Y0045733D01*
X0172460Y0045823D01*
X0172426Y0045914D01*
X0172397Y0046006D01*
X0172371Y0046100D01*
X0172350Y0046194D01*
X0172332Y0046290D01*
X0172318Y0046386D01*
X0172308Y0046482D01*
X0172302Y0046579D01*
X0172300Y0046676D01*
X0191985Y0026991D02*
X0191987Y0027088D01*
X0191993Y0027185D01*
X0192003Y0027281D01*
X0192017Y0027377D01*
X0192035Y0027473D01*
X0192056Y0027567D01*
X0192082Y0027661D01*
X0192111Y0027753D01*
X0192145Y0027844D01*
X0192181Y0027934D01*
X0192222Y0028022D01*
X0192266Y0028108D01*
X0192314Y0028193D01*
X0192365Y0028275D01*
X0192419Y0028356D01*
X0192477Y0028434D01*
X0192538Y0028509D01*
X0192601Y0028582D01*
X0192668Y0028653D01*
X0192738Y0028720D01*
X0192810Y0028785D01*
X0192885Y0028846D01*
X0192963Y0028905D01*
X0193042Y0028960D01*
X0193124Y0029012D01*
X0193208Y0029060D01*
X0193294Y0029105D01*
X0193382Y0029147D01*
X0193471Y0029185D01*
X0193562Y0029219D01*
X0193654Y0029249D01*
X0193747Y0029276D01*
X0193842Y0029298D01*
X0193937Y0029317D01*
X0194033Y0029332D01*
X0194129Y0029343D01*
X0194226Y0029350D01*
X0194323Y0029353D01*
X0194420Y0029352D01*
X0194517Y0029347D01*
X0194613Y0029338D01*
X0194709Y0029325D01*
X0194805Y0029308D01*
X0194900Y0029287D01*
X0194993Y0029263D01*
X0195086Y0029234D01*
X0195178Y0029202D01*
X0195268Y0029166D01*
X0195356Y0029127D01*
X0195443Y0029083D01*
X0195528Y0029037D01*
X0195611Y0028986D01*
X0195692Y0028933D01*
X0195770Y0028876D01*
X0195847Y0028816D01*
X0195920Y0028753D01*
X0195991Y0028687D01*
X0196059Y0028618D01*
X0196125Y0028546D01*
X0196187Y0028472D01*
X0196246Y0028395D01*
X0196302Y0028316D01*
X0196355Y0028234D01*
X0196405Y0028151D01*
X0196450Y0028065D01*
X0196493Y0027978D01*
X0196532Y0027889D01*
X0196567Y0027799D01*
X0196598Y0027707D01*
X0196625Y0027614D01*
X0196649Y0027520D01*
X0196669Y0027425D01*
X0196685Y0027329D01*
X0196697Y0027233D01*
X0196705Y0027136D01*
X0196709Y0027039D01*
X0196709Y0026943D01*
X0196705Y0026846D01*
X0196697Y0026749D01*
X0196685Y0026653D01*
X0196669Y0026557D01*
X0196649Y0026462D01*
X0196625Y0026368D01*
X0196598Y0026275D01*
X0196567Y0026183D01*
X0196532Y0026093D01*
X0196493Y0026004D01*
X0196450Y0025917D01*
X0196405Y0025831D01*
X0196355Y0025748D01*
X0196302Y0025666D01*
X0196246Y0025587D01*
X0196187Y0025510D01*
X0196125Y0025436D01*
X0196059Y0025364D01*
X0195991Y0025295D01*
X0195920Y0025229D01*
X0195847Y0025166D01*
X0195770Y0025106D01*
X0195692Y0025049D01*
X0195611Y0024996D01*
X0195528Y0024945D01*
X0195443Y0024899D01*
X0195356Y0024855D01*
X0195268Y0024816D01*
X0195178Y0024780D01*
X0195086Y0024748D01*
X0194993Y0024719D01*
X0194900Y0024695D01*
X0194805Y0024674D01*
X0194709Y0024657D01*
X0194613Y0024644D01*
X0194517Y0024635D01*
X0194420Y0024630D01*
X0194323Y0024629D01*
X0194226Y0024632D01*
X0194129Y0024639D01*
X0194033Y0024650D01*
X0193937Y0024665D01*
X0193842Y0024684D01*
X0193747Y0024706D01*
X0193654Y0024733D01*
X0193562Y0024763D01*
X0193471Y0024797D01*
X0193382Y0024835D01*
X0193294Y0024877D01*
X0193208Y0024922D01*
X0193124Y0024970D01*
X0193042Y0025022D01*
X0192963Y0025077D01*
X0192885Y0025136D01*
X0192810Y0025197D01*
X0192738Y0025262D01*
X0192668Y0025329D01*
X0192601Y0025400D01*
X0192538Y0025473D01*
X0192477Y0025548D01*
X0192419Y0025626D01*
X0192365Y0025707D01*
X0192314Y0025789D01*
X0192266Y0025874D01*
X0192222Y0025960D01*
X0192181Y0026048D01*
X0192145Y0026138D01*
X0192111Y0026229D01*
X0192082Y0026321D01*
X0192056Y0026415D01*
X0192035Y0026509D01*
X0192017Y0026605D01*
X0192003Y0026701D01*
X0191993Y0026797D01*
X0191987Y0026894D01*
X0191985Y0026991D01*
X0191985Y0017148D02*
X0191987Y0017245D01*
X0191993Y0017342D01*
X0192003Y0017438D01*
X0192017Y0017534D01*
X0192035Y0017630D01*
X0192056Y0017724D01*
X0192082Y0017818D01*
X0192111Y0017910D01*
X0192145Y0018001D01*
X0192181Y0018091D01*
X0192222Y0018179D01*
X0192266Y0018265D01*
X0192314Y0018350D01*
X0192365Y0018432D01*
X0192419Y0018513D01*
X0192477Y0018591D01*
X0192538Y0018666D01*
X0192601Y0018739D01*
X0192668Y0018810D01*
X0192738Y0018877D01*
X0192810Y0018942D01*
X0192885Y0019003D01*
X0192963Y0019062D01*
X0193042Y0019117D01*
X0193124Y0019169D01*
X0193208Y0019217D01*
X0193294Y0019262D01*
X0193382Y0019304D01*
X0193471Y0019342D01*
X0193562Y0019376D01*
X0193654Y0019406D01*
X0193747Y0019433D01*
X0193842Y0019455D01*
X0193937Y0019474D01*
X0194033Y0019489D01*
X0194129Y0019500D01*
X0194226Y0019507D01*
X0194323Y0019510D01*
X0194420Y0019509D01*
X0194517Y0019504D01*
X0194613Y0019495D01*
X0194709Y0019482D01*
X0194805Y0019465D01*
X0194900Y0019444D01*
X0194993Y0019420D01*
X0195086Y0019391D01*
X0195178Y0019359D01*
X0195268Y0019323D01*
X0195356Y0019284D01*
X0195443Y0019240D01*
X0195528Y0019194D01*
X0195611Y0019143D01*
X0195692Y0019090D01*
X0195770Y0019033D01*
X0195847Y0018973D01*
X0195920Y0018910D01*
X0195991Y0018844D01*
X0196059Y0018775D01*
X0196125Y0018703D01*
X0196187Y0018629D01*
X0196246Y0018552D01*
X0196302Y0018473D01*
X0196355Y0018391D01*
X0196405Y0018308D01*
X0196450Y0018222D01*
X0196493Y0018135D01*
X0196532Y0018046D01*
X0196567Y0017956D01*
X0196598Y0017864D01*
X0196625Y0017771D01*
X0196649Y0017677D01*
X0196669Y0017582D01*
X0196685Y0017486D01*
X0196697Y0017390D01*
X0196705Y0017293D01*
X0196709Y0017196D01*
X0196709Y0017100D01*
X0196705Y0017003D01*
X0196697Y0016906D01*
X0196685Y0016810D01*
X0196669Y0016714D01*
X0196649Y0016619D01*
X0196625Y0016525D01*
X0196598Y0016432D01*
X0196567Y0016340D01*
X0196532Y0016250D01*
X0196493Y0016161D01*
X0196450Y0016074D01*
X0196405Y0015988D01*
X0196355Y0015905D01*
X0196302Y0015823D01*
X0196246Y0015744D01*
X0196187Y0015667D01*
X0196125Y0015593D01*
X0196059Y0015521D01*
X0195991Y0015452D01*
X0195920Y0015386D01*
X0195847Y0015323D01*
X0195770Y0015263D01*
X0195692Y0015206D01*
X0195611Y0015153D01*
X0195528Y0015102D01*
X0195443Y0015056D01*
X0195356Y0015012D01*
X0195268Y0014973D01*
X0195178Y0014937D01*
X0195086Y0014905D01*
X0194993Y0014876D01*
X0194900Y0014852D01*
X0194805Y0014831D01*
X0194709Y0014814D01*
X0194613Y0014801D01*
X0194517Y0014792D01*
X0194420Y0014787D01*
X0194323Y0014786D01*
X0194226Y0014789D01*
X0194129Y0014796D01*
X0194033Y0014807D01*
X0193937Y0014822D01*
X0193842Y0014841D01*
X0193747Y0014863D01*
X0193654Y0014890D01*
X0193562Y0014920D01*
X0193471Y0014954D01*
X0193382Y0014992D01*
X0193294Y0015034D01*
X0193208Y0015079D01*
X0193124Y0015127D01*
X0193042Y0015179D01*
X0192963Y0015234D01*
X0192885Y0015293D01*
X0192810Y0015354D01*
X0192738Y0015419D01*
X0192668Y0015486D01*
X0192601Y0015557D01*
X0192538Y0015630D01*
X0192477Y0015705D01*
X0192419Y0015783D01*
X0192365Y0015864D01*
X0192314Y0015946D01*
X0192266Y0016031D01*
X0192222Y0016117D01*
X0192181Y0016205D01*
X0192145Y0016295D01*
X0192111Y0016386D01*
X0192082Y0016478D01*
X0192056Y0016572D01*
X0192035Y0016666D01*
X0192017Y0016762D01*
X0192003Y0016858D01*
X0191993Y0016954D01*
X0191987Y0017051D01*
X0191985Y0017148D01*
X0153875Y0122306D02*
X0153877Y0122403D01*
X0153883Y0122500D01*
X0153893Y0122596D01*
X0153907Y0122692D01*
X0153925Y0122788D01*
X0153946Y0122882D01*
X0153972Y0122976D01*
X0154001Y0123068D01*
X0154035Y0123159D01*
X0154071Y0123249D01*
X0154112Y0123337D01*
X0154156Y0123423D01*
X0154204Y0123508D01*
X0154255Y0123590D01*
X0154309Y0123671D01*
X0154367Y0123749D01*
X0154428Y0123824D01*
X0154491Y0123897D01*
X0154558Y0123968D01*
X0154628Y0124035D01*
X0154700Y0124100D01*
X0154775Y0124161D01*
X0154853Y0124220D01*
X0154932Y0124275D01*
X0155014Y0124327D01*
X0155098Y0124375D01*
X0155184Y0124420D01*
X0155272Y0124462D01*
X0155361Y0124500D01*
X0155452Y0124534D01*
X0155544Y0124564D01*
X0155637Y0124591D01*
X0155732Y0124613D01*
X0155827Y0124632D01*
X0155923Y0124647D01*
X0156019Y0124658D01*
X0156116Y0124665D01*
X0156213Y0124668D01*
X0156310Y0124667D01*
X0156407Y0124662D01*
X0156503Y0124653D01*
X0156599Y0124640D01*
X0156695Y0124623D01*
X0156790Y0124602D01*
X0156883Y0124578D01*
X0156976Y0124549D01*
X0157068Y0124517D01*
X0157158Y0124481D01*
X0157246Y0124442D01*
X0157333Y0124398D01*
X0157418Y0124352D01*
X0157501Y0124301D01*
X0157582Y0124248D01*
X0157660Y0124191D01*
X0157737Y0124131D01*
X0157810Y0124068D01*
X0157881Y0124002D01*
X0157949Y0123933D01*
X0158015Y0123861D01*
X0158077Y0123787D01*
X0158136Y0123710D01*
X0158192Y0123631D01*
X0158245Y0123549D01*
X0158295Y0123466D01*
X0158340Y0123380D01*
X0158383Y0123293D01*
X0158422Y0123204D01*
X0158457Y0123114D01*
X0158488Y0123022D01*
X0158515Y0122929D01*
X0158539Y0122835D01*
X0158559Y0122740D01*
X0158575Y0122644D01*
X0158587Y0122548D01*
X0158595Y0122451D01*
X0158599Y0122354D01*
X0158599Y0122258D01*
X0158595Y0122161D01*
X0158587Y0122064D01*
X0158575Y0121968D01*
X0158559Y0121872D01*
X0158539Y0121777D01*
X0158515Y0121683D01*
X0158488Y0121590D01*
X0158457Y0121498D01*
X0158422Y0121408D01*
X0158383Y0121319D01*
X0158340Y0121232D01*
X0158295Y0121146D01*
X0158245Y0121063D01*
X0158192Y0120981D01*
X0158136Y0120902D01*
X0158077Y0120825D01*
X0158015Y0120751D01*
X0157949Y0120679D01*
X0157881Y0120610D01*
X0157810Y0120544D01*
X0157737Y0120481D01*
X0157660Y0120421D01*
X0157582Y0120364D01*
X0157501Y0120311D01*
X0157418Y0120260D01*
X0157333Y0120214D01*
X0157246Y0120170D01*
X0157158Y0120131D01*
X0157068Y0120095D01*
X0156976Y0120063D01*
X0156883Y0120034D01*
X0156790Y0120010D01*
X0156695Y0119989D01*
X0156599Y0119972D01*
X0156503Y0119959D01*
X0156407Y0119950D01*
X0156310Y0119945D01*
X0156213Y0119944D01*
X0156116Y0119947D01*
X0156019Y0119954D01*
X0155923Y0119965D01*
X0155827Y0119980D01*
X0155732Y0119999D01*
X0155637Y0120021D01*
X0155544Y0120048D01*
X0155452Y0120078D01*
X0155361Y0120112D01*
X0155272Y0120150D01*
X0155184Y0120192D01*
X0155098Y0120237D01*
X0155014Y0120285D01*
X0154932Y0120337D01*
X0154853Y0120392D01*
X0154775Y0120451D01*
X0154700Y0120512D01*
X0154628Y0120577D01*
X0154558Y0120644D01*
X0154491Y0120715D01*
X0154428Y0120788D01*
X0154367Y0120863D01*
X0154309Y0120941D01*
X0154255Y0121022D01*
X0154204Y0121104D01*
X0154156Y0121189D01*
X0154112Y0121275D01*
X0154071Y0121363D01*
X0154035Y0121453D01*
X0154001Y0121544D01*
X0153972Y0121636D01*
X0153946Y0121730D01*
X0153925Y0121824D01*
X0153907Y0121920D01*
X0153893Y0122016D01*
X0153883Y0122112D01*
X0153877Y0122209D01*
X0153875Y0122306D01*
X0165686Y0181361D02*
X0165688Y0181458D01*
X0165694Y0181555D01*
X0165704Y0181651D01*
X0165718Y0181747D01*
X0165736Y0181843D01*
X0165757Y0181937D01*
X0165783Y0182031D01*
X0165812Y0182123D01*
X0165846Y0182214D01*
X0165882Y0182304D01*
X0165923Y0182392D01*
X0165967Y0182478D01*
X0166015Y0182563D01*
X0166066Y0182645D01*
X0166120Y0182726D01*
X0166178Y0182804D01*
X0166239Y0182879D01*
X0166302Y0182952D01*
X0166369Y0183023D01*
X0166439Y0183090D01*
X0166511Y0183155D01*
X0166586Y0183216D01*
X0166664Y0183275D01*
X0166743Y0183330D01*
X0166825Y0183382D01*
X0166909Y0183430D01*
X0166995Y0183475D01*
X0167083Y0183517D01*
X0167172Y0183555D01*
X0167263Y0183589D01*
X0167355Y0183619D01*
X0167448Y0183646D01*
X0167543Y0183668D01*
X0167638Y0183687D01*
X0167734Y0183702D01*
X0167830Y0183713D01*
X0167927Y0183720D01*
X0168024Y0183723D01*
X0168121Y0183722D01*
X0168218Y0183717D01*
X0168314Y0183708D01*
X0168410Y0183695D01*
X0168506Y0183678D01*
X0168601Y0183657D01*
X0168694Y0183633D01*
X0168787Y0183604D01*
X0168879Y0183572D01*
X0168969Y0183536D01*
X0169057Y0183497D01*
X0169144Y0183453D01*
X0169229Y0183407D01*
X0169312Y0183356D01*
X0169393Y0183303D01*
X0169471Y0183246D01*
X0169548Y0183186D01*
X0169621Y0183123D01*
X0169692Y0183057D01*
X0169760Y0182988D01*
X0169826Y0182916D01*
X0169888Y0182842D01*
X0169947Y0182765D01*
X0170003Y0182686D01*
X0170056Y0182604D01*
X0170106Y0182521D01*
X0170151Y0182435D01*
X0170194Y0182348D01*
X0170233Y0182259D01*
X0170268Y0182169D01*
X0170299Y0182077D01*
X0170326Y0181984D01*
X0170350Y0181890D01*
X0170370Y0181795D01*
X0170386Y0181699D01*
X0170398Y0181603D01*
X0170406Y0181506D01*
X0170410Y0181409D01*
X0170410Y0181313D01*
X0170406Y0181216D01*
X0170398Y0181119D01*
X0170386Y0181023D01*
X0170370Y0180927D01*
X0170350Y0180832D01*
X0170326Y0180738D01*
X0170299Y0180645D01*
X0170268Y0180553D01*
X0170233Y0180463D01*
X0170194Y0180374D01*
X0170151Y0180287D01*
X0170106Y0180201D01*
X0170056Y0180118D01*
X0170003Y0180036D01*
X0169947Y0179957D01*
X0169888Y0179880D01*
X0169826Y0179806D01*
X0169760Y0179734D01*
X0169692Y0179665D01*
X0169621Y0179599D01*
X0169548Y0179536D01*
X0169471Y0179476D01*
X0169393Y0179419D01*
X0169312Y0179366D01*
X0169229Y0179315D01*
X0169144Y0179269D01*
X0169057Y0179225D01*
X0168969Y0179186D01*
X0168879Y0179150D01*
X0168787Y0179118D01*
X0168694Y0179089D01*
X0168601Y0179065D01*
X0168506Y0179044D01*
X0168410Y0179027D01*
X0168314Y0179014D01*
X0168218Y0179005D01*
X0168121Y0179000D01*
X0168024Y0178999D01*
X0167927Y0179002D01*
X0167830Y0179009D01*
X0167734Y0179020D01*
X0167638Y0179035D01*
X0167543Y0179054D01*
X0167448Y0179076D01*
X0167355Y0179103D01*
X0167263Y0179133D01*
X0167172Y0179167D01*
X0167083Y0179205D01*
X0166995Y0179247D01*
X0166909Y0179292D01*
X0166825Y0179340D01*
X0166743Y0179392D01*
X0166664Y0179447D01*
X0166586Y0179506D01*
X0166511Y0179567D01*
X0166439Y0179632D01*
X0166369Y0179699D01*
X0166302Y0179770D01*
X0166239Y0179843D01*
X0166178Y0179918D01*
X0166120Y0179996D01*
X0166066Y0180077D01*
X0166015Y0180159D01*
X0165967Y0180244D01*
X0165923Y0180330D01*
X0165882Y0180418D01*
X0165846Y0180508D01*
X0165812Y0180599D01*
X0165783Y0180691D01*
X0165757Y0180785D01*
X0165736Y0180879D01*
X0165718Y0180975D01*
X0165704Y0181071D01*
X0165694Y0181167D01*
X0165688Y0181264D01*
X0165686Y0181361D01*
X0220804Y0204983D02*
X0220806Y0205080D01*
X0220812Y0205177D01*
X0220822Y0205273D01*
X0220836Y0205369D01*
X0220854Y0205465D01*
X0220875Y0205559D01*
X0220901Y0205653D01*
X0220930Y0205745D01*
X0220964Y0205836D01*
X0221000Y0205926D01*
X0221041Y0206014D01*
X0221085Y0206100D01*
X0221133Y0206185D01*
X0221184Y0206267D01*
X0221238Y0206348D01*
X0221296Y0206426D01*
X0221357Y0206501D01*
X0221420Y0206574D01*
X0221487Y0206645D01*
X0221557Y0206712D01*
X0221629Y0206777D01*
X0221704Y0206838D01*
X0221782Y0206897D01*
X0221861Y0206952D01*
X0221943Y0207004D01*
X0222027Y0207052D01*
X0222113Y0207097D01*
X0222201Y0207139D01*
X0222290Y0207177D01*
X0222381Y0207211D01*
X0222473Y0207241D01*
X0222566Y0207268D01*
X0222661Y0207290D01*
X0222756Y0207309D01*
X0222852Y0207324D01*
X0222948Y0207335D01*
X0223045Y0207342D01*
X0223142Y0207345D01*
X0223239Y0207344D01*
X0223336Y0207339D01*
X0223432Y0207330D01*
X0223528Y0207317D01*
X0223624Y0207300D01*
X0223719Y0207279D01*
X0223812Y0207255D01*
X0223905Y0207226D01*
X0223997Y0207194D01*
X0224087Y0207158D01*
X0224175Y0207119D01*
X0224262Y0207075D01*
X0224347Y0207029D01*
X0224430Y0206978D01*
X0224511Y0206925D01*
X0224589Y0206868D01*
X0224666Y0206808D01*
X0224739Y0206745D01*
X0224810Y0206679D01*
X0224878Y0206610D01*
X0224944Y0206538D01*
X0225006Y0206464D01*
X0225065Y0206387D01*
X0225121Y0206308D01*
X0225174Y0206226D01*
X0225224Y0206143D01*
X0225269Y0206057D01*
X0225312Y0205970D01*
X0225351Y0205881D01*
X0225386Y0205791D01*
X0225417Y0205699D01*
X0225444Y0205606D01*
X0225468Y0205512D01*
X0225488Y0205417D01*
X0225504Y0205321D01*
X0225516Y0205225D01*
X0225524Y0205128D01*
X0225528Y0205031D01*
X0225528Y0204935D01*
X0225524Y0204838D01*
X0225516Y0204741D01*
X0225504Y0204645D01*
X0225488Y0204549D01*
X0225468Y0204454D01*
X0225444Y0204360D01*
X0225417Y0204267D01*
X0225386Y0204175D01*
X0225351Y0204085D01*
X0225312Y0203996D01*
X0225269Y0203909D01*
X0225224Y0203823D01*
X0225174Y0203740D01*
X0225121Y0203658D01*
X0225065Y0203579D01*
X0225006Y0203502D01*
X0224944Y0203428D01*
X0224878Y0203356D01*
X0224810Y0203287D01*
X0224739Y0203221D01*
X0224666Y0203158D01*
X0224589Y0203098D01*
X0224511Y0203041D01*
X0224430Y0202988D01*
X0224347Y0202937D01*
X0224262Y0202891D01*
X0224175Y0202847D01*
X0224087Y0202808D01*
X0223997Y0202772D01*
X0223905Y0202740D01*
X0223812Y0202711D01*
X0223719Y0202687D01*
X0223624Y0202666D01*
X0223528Y0202649D01*
X0223432Y0202636D01*
X0223336Y0202627D01*
X0223239Y0202622D01*
X0223142Y0202621D01*
X0223045Y0202624D01*
X0222948Y0202631D01*
X0222852Y0202642D01*
X0222756Y0202657D01*
X0222661Y0202676D01*
X0222566Y0202698D01*
X0222473Y0202725D01*
X0222381Y0202755D01*
X0222290Y0202789D01*
X0222201Y0202827D01*
X0222113Y0202869D01*
X0222027Y0202914D01*
X0221943Y0202962D01*
X0221861Y0203014D01*
X0221782Y0203069D01*
X0221704Y0203128D01*
X0221629Y0203189D01*
X0221557Y0203254D01*
X0221487Y0203321D01*
X0221420Y0203392D01*
X0221357Y0203465D01*
X0221296Y0203540D01*
X0221238Y0203618D01*
X0221184Y0203699D01*
X0221133Y0203781D01*
X0221085Y0203866D01*
X0221041Y0203952D01*
X0221000Y0204040D01*
X0220964Y0204130D01*
X0220930Y0204221D01*
X0220901Y0204313D01*
X0220875Y0204407D01*
X0220854Y0204501D01*
X0220836Y0204597D01*
X0220822Y0204693D01*
X0220812Y0204789D01*
X0220806Y0204886D01*
X0220804Y0204983D01*
X0252300Y0106557D02*
X0252302Y0106654D01*
X0252308Y0106751D01*
X0252318Y0106847D01*
X0252332Y0106943D01*
X0252350Y0107039D01*
X0252371Y0107133D01*
X0252397Y0107227D01*
X0252426Y0107319D01*
X0252460Y0107410D01*
X0252496Y0107500D01*
X0252537Y0107588D01*
X0252581Y0107674D01*
X0252629Y0107759D01*
X0252680Y0107841D01*
X0252734Y0107922D01*
X0252792Y0108000D01*
X0252853Y0108075D01*
X0252916Y0108148D01*
X0252983Y0108219D01*
X0253053Y0108286D01*
X0253125Y0108351D01*
X0253200Y0108412D01*
X0253278Y0108471D01*
X0253357Y0108526D01*
X0253439Y0108578D01*
X0253523Y0108626D01*
X0253609Y0108671D01*
X0253697Y0108713D01*
X0253786Y0108751D01*
X0253877Y0108785D01*
X0253969Y0108815D01*
X0254062Y0108842D01*
X0254157Y0108864D01*
X0254252Y0108883D01*
X0254348Y0108898D01*
X0254444Y0108909D01*
X0254541Y0108916D01*
X0254638Y0108919D01*
X0254735Y0108918D01*
X0254832Y0108913D01*
X0254928Y0108904D01*
X0255024Y0108891D01*
X0255120Y0108874D01*
X0255215Y0108853D01*
X0255308Y0108829D01*
X0255401Y0108800D01*
X0255493Y0108768D01*
X0255583Y0108732D01*
X0255671Y0108693D01*
X0255758Y0108649D01*
X0255843Y0108603D01*
X0255926Y0108552D01*
X0256007Y0108499D01*
X0256085Y0108442D01*
X0256162Y0108382D01*
X0256235Y0108319D01*
X0256306Y0108253D01*
X0256374Y0108184D01*
X0256440Y0108112D01*
X0256502Y0108038D01*
X0256561Y0107961D01*
X0256617Y0107882D01*
X0256670Y0107800D01*
X0256720Y0107717D01*
X0256765Y0107631D01*
X0256808Y0107544D01*
X0256847Y0107455D01*
X0256882Y0107365D01*
X0256913Y0107273D01*
X0256940Y0107180D01*
X0256964Y0107086D01*
X0256984Y0106991D01*
X0257000Y0106895D01*
X0257012Y0106799D01*
X0257020Y0106702D01*
X0257024Y0106605D01*
X0257024Y0106509D01*
X0257020Y0106412D01*
X0257012Y0106315D01*
X0257000Y0106219D01*
X0256984Y0106123D01*
X0256964Y0106028D01*
X0256940Y0105934D01*
X0256913Y0105841D01*
X0256882Y0105749D01*
X0256847Y0105659D01*
X0256808Y0105570D01*
X0256765Y0105483D01*
X0256720Y0105397D01*
X0256670Y0105314D01*
X0256617Y0105232D01*
X0256561Y0105153D01*
X0256502Y0105076D01*
X0256440Y0105002D01*
X0256374Y0104930D01*
X0256306Y0104861D01*
X0256235Y0104795D01*
X0256162Y0104732D01*
X0256085Y0104672D01*
X0256007Y0104615D01*
X0255926Y0104562D01*
X0255843Y0104511D01*
X0255758Y0104465D01*
X0255671Y0104421D01*
X0255583Y0104382D01*
X0255493Y0104346D01*
X0255401Y0104314D01*
X0255308Y0104285D01*
X0255215Y0104261D01*
X0255120Y0104240D01*
X0255024Y0104223D01*
X0254928Y0104210D01*
X0254832Y0104201D01*
X0254735Y0104196D01*
X0254638Y0104195D01*
X0254541Y0104198D01*
X0254444Y0104205D01*
X0254348Y0104216D01*
X0254252Y0104231D01*
X0254157Y0104250D01*
X0254062Y0104272D01*
X0253969Y0104299D01*
X0253877Y0104329D01*
X0253786Y0104363D01*
X0253697Y0104401D01*
X0253609Y0104443D01*
X0253523Y0104488D01*
X0253439Y0104536D01*
X0253357Y0104588D01*
X0253278Y0104643D01*
X0253200Y0104702D01*
X0253125Y0104763D01*
X0253053Y0104828D01*
X0252983Y0104895D01*
X0252916Y0104966D01*
X0252853Y0105039D01*
X0252792Y0105114D01*
X0252734Y0105192D01*
X0252680Y0105273D01*
X0252629Y0105355D01*
X0252581Y0105440D01*
X0252537Y0105526D01*
X0252496Y0105614D01*
X0252460Y0105704D01*
X0252426Y0105795D01*
X0252397Y0105887D01*
X0252371Y0105981D01*
X0252350Y0106075D01*
X0252332Y0106171D01*
X0252318Y0106267D01*
X0252308Y0106363D01*
X0252302Y0106460D01*
X0252300Y0106557D01*
D11*
X0236080Y0133683D02*
X0236082Y0133867D01*
X0236089Y0134050D01*
X0236100Y0134233D01*
X0236116Y0134416D01*
X0236136Y0134599D01*
X0236161Y0134781D01*
X0236190Y0134962D01*
X0236224Y0135142D01*
X0236262Y0135322D01*
X0236304Y0135500D01*
X0236351Y0135678D01*
X0236402Y0135854D01*
X0236458Y0136029D01*
X0236517Y0136203D01*
X0236581Y0136375D01*
X0236649Y0136545D01*
X0236722Y0136714D01*
X0236798Y0136881D01*
X0236879Y0137046D01*
X0236963Y0137209D01*
X0237052Y0137370D01*
X0237144Y0137528D01*
X0237240Y0137685D01*
X0237341Y0137839D01*
X0237444Y0137990D01*
X0237552Y0138139D01*
X0237663Y0138285D01*
X0237778Y0138428D01*
X0237896Y0138569D01*
X0238018Y0138706D01*
X0238143Y0138841D01*
X0238271Y0138972D01*
X0238402Y0139100D01*
X0238537Y0139225D01*
X0238674Y0139347D01*
X0238815Y0139465D01*
X0238958Y0139580D01*
X0239104Y0139691D01*
X0239253Y0139799D01*
X0239404Y0139902D01*
X0239558Y0140003D01*
X0239715Y0140099D01*
X0239873Y0140191D01*
X0240034Y0140280D01*
X0240197Y0140364D01*
X0240362Y0140445D01*
X0240529Y0140521D01*
X0240698Y0140594D01*
X0240868Y0140662D01*
X0241040Y0140726D01*
X0241214Y0140785D01*
X0241389Y0140841D01*
X0241565Y0140892D01*
X0241743Y0140939D01*
X0241921Y0140981D01*
X0242101Y0141019D01*
X0242281Y0141053D01*
X0242462Y0141082D01*
X0242644Y0141107D01*
X0242827Y0141127D01*
X0243010Y0141143D01*
X0243193Y0141154D01*
X0243376Y0141161D01*
X0243560Y0141163D01*
X0243744Y0141161D01*
X0243927Y0141154D01*
X0244110Y0141143D01*
X0244293Y0141127D01*
X0244476Y0141107D01*
X0244658Y0141082D01*
X0244839Y0141053D01*
X0245019Y0141019D01*
X0245199Y0140981D01*
X0245377Y0140939D01*
X0245555Y0140892D01*
X0245731Y0140841D01*
X0245906Y0140785D01*
X0246080Y0140726D01*
X0246252Y0140662D01*
X0246422Y0140594D01*
X0246591Y0140521D01*
X0246758Y0140445D01*
X0246923Y0140364D01*
X0247086Y0140280D01*
X0247247Y0140191D01*
X0247405Y0140099D01*
X0247562Y0140003D01*
X0247716Y0139902D01*
X0247867Y0139799D01*
X0248016Y0139691D01*
X0248162Y0139580D01*
X0248305Y0139465D01*
X0248446Y0139347D01*
X0248583Y0139225D01*
X0248718Y0139100D01*
X0248849Y0138972D01*
X0248977Y0138841D01*
X0249102Y0138706D01*
X0249224Y0138569D01*
X0249342Y0138428D01*
X0249457Y0138285D01*
X0249568Y0138139D01*
X0249676Y0137990D01*
X0249779Y0137839D01*
X0249880Y0137685D01*
X0249976Y0137528D01*
X0250068Y0137370D01*
X0250157Y0137209D01*
X0250241Y0137046D01*
X0250322Y0136881D01*
X0250398Y0136714D01*
X0250471Y0136545D01*
X0250539Y0136375D01*
X0250603Y0136203D01*
X0250662Y0136029D01*
X0250718Y0135854D01*
X0250769Y0135678D01*
X0250816Y0135500D01*
X0250858Y0135322D01*
X0250896Y0135142D01*
X0250930Y0134962D01*
X0250959Y0134781D01*
X0250984Y0134599D01*
X0251004Y0134416D01*
X0251020Y0134233D01*
X0251031Y0134050D01*
X0251038Y0133867D01*
X0251040Y0133683D01*
X0251038Y0133499D01*
X0251031Y0133316D01*
X0251020Y0133133D01*
X0251004Y0132950D01*
X0250984Y0132767D01*
X0250959Y0132585D01*
X0250930Y0132404D01*
X0250896Y0132224D01*
X0250858Y0132044D01*
X0250816Y0131866D01*
X0250769Y0131688D01*
X0250718Y0131512D01*
X0250662Y0131337D01*
X0250603Y0131163D01*
X0250539Y0130991D01*
X0250471Y0130821D01*
X0250398Y0130652D01*
X0250322Y0130485D01*
X0250241Y0130320D01*
X0250157Y0130157D01*
X0250068Y0129996D01*
X0249976Y0129838D01*
X0249880Y0129681D01*
X0249779Y0129527D01*
X0249676Y0129376D01*
X0249568Y0129227D01*
X0249457Y0129081D01*
X0249342Y0128938D01*
X0249224Y0128797D01*
X0249102Y0128660D01*
X0248977Y0128525D01*
X0248849Y0128394D01*
X0248718Y0128266D01*
X0248583Y0128141D01*
X0248446Y0128019D01*
X0248305Y0127901D01*
X0248162Y0127786D01*
X0248016Y0127675D01*
X0247867Y0127567D01*
X0247716Y0127464D01*
X0247562Y0127363D01*
X0247405Y0127267D01*
X0247247Y0127175D01*
X0247086Y0127086D01*
X0246923Y0127002D01*
X0246758Y0126921D01*
X0246591Y0126845D01*
X0246422Y0126772D01*
X0246252Y0126704D01*
X0246080Y0126640D01*
X0245906Y0126581D01*
X0245731Y0126525D01*
X0245555Y0126474D01*
X0245377Y0126427D01*
X0245199Y0126385D01*
X0245019Y0126347D01*
X0244839Y0126313D01*
X0244658Y0126284D01*
X0244476Y0126259D01*
X0244293Y0126239D01*
X0244110Y0126223D01*
X0243927Y0126212D01*
X0243744Y0126205D01*
X0243560Y0126203D01*
X0243376Y0126205D01*
X0243193Y0126212D01*
X0243010Y0126223D01*
X0242827Y0126239D01*
X0242644Y0126259D01*
X0242462Y0126284D01*
X0242281Y0126313D01*
X0242101Y0126347D01*
X0241921Y0126385D01*
X0241743Y0126427D01*
X0241565Y0126474D01*
X0241389Y0126525D01*
X0241214Y0126581D01*
X0241040Y0126640D01*
X0240868Y0126704D01*
X0240698Y0126772D01*
X0240529Y0126845D01*
X0240362Y0126921D01*
X0240197Y0127002D01*
X0240034Y0127086D01*
X0239873Y0127175D01*
X0239715Y0127267D01*
X0239558Y0127363D01*
X0239404Y0127464D01*
X0239253Y0127567D01*
X0239104Y0127675D01*
X0238958Y0127786D01*
X0238815Y0127901D01*
X0238674Y0128019D01*
X0238537Y0128141D01*
X0238402Y0128266D01*
X0238271Y0128394D01*
X0238143Y0128525D01*
X0238018Y0128660D01*
X0237896Y0128797D01*
X0237778Y0128938D01*
X0237663Y0129081D01*
X0237552Y0129227D01*
X0237444Y0129376D01*
X0237341Y0129527D01*
X0237240Y0129681D01*
X0237144Y0129838D01*
X0237052Y0129996D01*
X0236963Y0130157D01*
X0236879Y0130320D01*
X0236798Y0130485D01*
X0236722Y0130652D01*
X0236649Y0130821D01*
X0236581Y0130991D01*
X0236517Y0131163D01*
X0236458Y0131337D01*
X0236402Y0131512D01*
X0236351Y0131688D01*
X0236304Y0131866D01*
X0236262Y0132044D01*
X0236224Y0132224D01*
X0236190Y0132404D01*
X0236161Y0132585D01*
X0236136Y0132767D01*
X0236116Y0132950D01*
X0236100Y0133133D01*
X0236089Y0133316D01*
X0236082Y0133499D01*
X0236080Y0133683D01*
X0227418Y0173054D02*
X0227420Y0173185D01*
X0227426Y0173317D01*
X0227436Y0173448D01*
X0227450Y0173579D01*
X0227468Y0173709D01*
X0227490Y0173838D01*
X0227515Y0173967D01*
X0227545Y0174095D01*
X0227579Y0174222D01*
X0227616Y0174349D01*
X0227657Y0174473D01*
X0227702Y0174597D01*
X0227751Y0174719D01*
X0227803Y0174840D01*
X0227859Y0174958D01*
X0227919Y0175076D01*
X0227982Y0175191D01*
X0228049Y0175304D01*
X0228119Y0175416D01*
X0228192Y0175525D01*
X0228268Y0175631D01*
X0228348Y0175736D01*
X0228431Y0175838D01*
X0228517Y0175937D01*
X0228606Y0176034D01*
X0228698Y0176128D01*
X0228793Y0176219D01*
X0228890Y0176308D01*
X0228990Y0176393D01*
X0229093Y0176475D01*
X0229198Y0176554D01*
X0229305Y0176630D01*
X0229415Y0176702D01*
X0229527Y0176771D01*
X0229641Y0176837D01*
X0229756Y0176899D01*
X0229874Y0176958D01*
X0229993Y0177013D01*
X0230114Y0177065D01*
X0230237Y0177112D01*
X0230361Y0177156D01*
X0230486Y0177197D01*
X0230612Y0177233D01*
X0230740Y0177266D01*
X0230868Y0177294D01*
X0230997Y0177319D01*
X0231127Y0177340D01*
X0231257Y0177357D01*
X0231388Y0177370D01*
X0231519Y0177379D01*
X0231650Y0177384D01*
X0231782Y0177385D01*
X0231913Y0177382D01*
X0232045Y0177375D01*
X0232176Y0177364D01*
X0232306Y0177349D01*
X0232436Y0177330D01*
X0232566Y0177307D01*
X0232694Y0177281D01*
X0232822Y0177250D01*
X0232949Y0177215D01*
X0233075Y0177177D01*
X0233199Y0177135D01*
X0233323Y0177089D01*
X0233444Y0177039D01*
X0233564Y0176986D01*
X0233683Y0176929D01*
X0233800Y0176869D01*
X0233914Y0176805D01*
X0234027Y0176737D01*
X0234138Y0176666D01*
X0234247Y0176592D01*
X0234353Y0176515D01*
X0234457Y0176434D01*
X0234558Y0176351D01*
X0234657Y0176264D01*
X0234753Y0176174D01*
X0234846Y0176081D01*
X0234937Y0175986D01*
X0235024Y0175888D01*
X0235109Y0175787D01*
X0235190Y0175684D01*
X0235268Y0175578D01*
X0235343Y0175470D01*
X0235415Y0175360D01*
X0235483Y0175248D01*
X0235548Y0175134D01*
X0235609Y0175017D01*
X0235667Y0174899D01*
X0235721Y0174779D01*
X0235772Y0174658D01*
X0235819Y0174535D01*
X0235862Y0174411D01*
X0235901Y0174286D01*
X0235937Y0174159D01*
X0235968Y0174031D01*
X0235996Y0173903D01*
X0236020Y0173774D01*
X0236040Y0173644D01*
X0236056Y0173513D01*
X0236068Y0173382D01*
X0236076Y0173251D01*
X0236080Y0173120D01*
X0236080Y0172988D01*
X0236076Y0172857D01*
X0236068Y0172726D01*
X0236056Y0172595D01*
X0236040Y0172464D01*
X0236020Y0172334D01*
X0235996Y0172205D01*
X0235968Y0172077D01*
X0235937Y0171949D01*
X0235901Y0171822D01*
X0235862Y0171697D01*
X0235819Y0171573D01*
X0235772Y0171450D01*
X0235721Y0171329D01*
X0235667Y0171209D01*
X0235609Y0171091D01*
X0235548Y0170974D01*
X0235483Y0170860D01*
X0235415Y0170748D01*
X0235343Y0170638D01*
X0235268Y0170530D01*
X0235190Y0170424D01*
X0235109Y0170321D01*
X0235024Y0170220D01*
X0234937Y0170122D01*
X0234846Y0170027D01*
X0234753Y0169934D01*
X0234657Y0169844D01*
X0234558Y0169757D01*
X0234457Y0169674D01*
X0234353Y0169593D01*
X0234247Y0169516D01*
X0234138Y0169442D01*
X0234027Y0169371D01*
X0233915Y0169303D01*
X0233800Y0169239D01*
X0233683Y0169179D01*
X0233564Y0169122D01*
X0233444Y0169069D01*
X0233323Y0169019D01*
X0233199Y0168973D01*
X0233075Y0168931D01*
X0232949Y0168893D01*
X0232822Y0168858D01*
X0232694Y0168827D01*
X0232566Y0168801D01*
X0232436Y0168778D01*
X0232306Y0168759D01*
X0232176Y0168744D01*
X0232045Y0168733D01*
X0231913Y0168726D01*
X0231782Y0168723D01*
X0231650Y0168724D01*
X0231519Y0168729D01*
X0231388Y0168738D01*
X0231257Y0168751D01*
X0231127Y0168768D01*
X0230997Y0168789D01*
X0230868Y0168814D01*
X0230740Y0168842D01*
X0230612Y0168875D01*
X0230486Y0168911D01*
X0230361Y0168952D01*
X0230237Y0168996D01*
X0230114Y0169043D01*
X0229993Y0169095D01*
X0229874Y0169150D01*
X0229756Y0169209D01*
X0229641Y0169271D01*
X0229527Y0169337D01*
X0229415Y0169406D01*
X0229305Y0169478D01*
X0229198Y0169554D01*
X0229093Y0169633D01*
X0228990Y0169715D01*
X0228890Y0169800D01*
X0228793Y0169889D01*
X0228698Y0169980D01*
X0228606Y0170074D01*
X0228517Y0170171D01*
X0228431Y0170270D01*
X0228348Y0170372D01*
X0228268Y0170477D01*
X0228192Y0170583D01*
X0228119Y0170692D01*
X0228049Y0170804D01*
X0227982Y0170917D01*
X0227919Y0171032D01*
X0227859Y0171150D01*
X0227803Y0171268D01*
X0227751Y0171389D01*
X0227702Y0171511D01*
X0227657Y0171635D01*
X0227616Y0171759D01*
X0227579Y0171886D01*
X0227545Y0172013D01*
X0227515Y0172141D01*
X0227490Y0172270D01*
X0227468Y0172399D01*
X0227450Y0172529D01*
X0227436Y0172660D01*
X0227426Y0172791D01*
X0227420Y0172923D01*
X0227418Y0173054D01*
X0197300Y0099431D02*
X0197302Y0099600D01*
X0197308Y0099769D01*
X0197319Y0099938D01*
X0197333Y0100106D01*
X0197352Y0100274D01*
X0197375Y0100442D01*
X0197401Y0100609D01*
X0197432Y0100775D01*
X0197467Y0100941D01*
X0197506Y0101105D01*
X0197550Y0101269D01*
X0197597Y0101431D01*
X0197648Y0101592D01*
X0197703Y0101752D01*
X0197762Y0101911D01*
X0197824Y0102068D01*
X0197891Y0102223D01*
X0197962Y0102377D01*
X0198036Y0102529D01*
X0198114Y0102679D01*
X0198195Y0102827D01*
X0198280Y0102973D01*
X0198369Y0103117D01*
X0198461Y0103259D01*
X0198557Y0103398D01*
X0198656Y0103535D01*
X0198758Y0103670D01*
X0198864Y0103802D01*
X0198973Y0103931D01*
X0199085Y0104058D01*
X0199200Y0104182D01*
X0199318Y0104303D01*
X0199439Y0104421D01*
X0199563Y0104536D01*
X0199690Y0104648D01*
X0199819Y0104757D01*
X0199951Y0104863D01*
X0200086Y0104965D01*
X0200223Y0105064D01*
X0200362Y0105160D01*
X0200504Y0105252D01*
X0200648Y0105341D01*
X0200794Y0105426D01*
X0200942Y0105507D01*
X0201092Y0105585D01*
X0201244Y0105659D01*
X0201398Y0105730D01*
X0201553Y0105797D01*
X0201710Y0105859D01*
X0201869Y0105918D01*
X0202029Y0105973D01*
X0202190Y0106024D01*
X0202352Y0106071D01*
X0202516Y0106115D01*
X0202680Y0106154D01*
X0202846Y0106189D01*
X0203012Y0106220D01*
X0203179Y0106246D01*
X0203347Y0106269D01*
X0203515Y0106288D01*
X0203683Y0106302D01*
X0203852Y0106313D01*
X0204021Y0106319D01*
X0204190Y0106321D01*
X0204359Y0106319D01*
X0204528Y0106313D01*
X0204697Y0106302D01*
X0204865Y0106288D01*
X0205033Y0106269D01*
X0205201Y0106246D01*
X0205368Y0106220D01*
X0205534Y0106189D01*
X0205700Y0106154D01*
X0205864Y0106115D01*
X0206028Y0106071D01*
X0206190Y0106024D01*
X0206351Y0105973D01*
X0206511Y0105918D01*
X0206670Y0105859D01*
X0206827Y0105797D01*
X0206982Y0105730D01*
X0207136Y0105659D01*
X0207288Y0105585D01*
X0207438Y0105507D01*
X0207586Y0105426D01*
X0207732Y0105341D01*
X0207876Y0105252D01*
X0208018Y0105160D01*
X0208157Y0105064D01*
X0208294Y0104965D01*
X0208429Y0104863D01*
X0208561Y0104757D01*
X0208690Y0104648D01*
X0208817Y0104536D01*
X0208941Y0104421D01*
X0209062Y0104303D01*
X0209180Y0104182D01*
X0209295Y0104058D01*
X0209407Y0103931D01*
X0209516Y0103802D01*
X0209622Y0103670D01*
X0209724Y0103535D01*
X0209823Y0103398D01*
X0209919Y0103259D01*
X0210011Y0103117D01*
X0210100Y0102973D01*
X0210185Y0102827D01*
X0210266Y0102679D01*
X0210344Y0102529D01*
X0210418Y0102377D01*
X0210489Y0102223D01*
X0210556Y0102068D01*
X0210618Y0101911D01*
X0210677Y0101752D01*
X0210732Y0101592D01*
X0210783Y0101431D01*
X0210830Y0101269D01*
X0210874Y0101105D01*
X0210913Y0100941D01*
X0210948Y0100775D01*
X0210979Y0100609D01*
X0211005Y0100442D01*
X0211028Y0100274D01*
X0211047Y0100106D01*
X0211061Y0099938D01*
X0211072Y0099769D01*
X0211078Y0099600D01*
X0211080Y0099431D01*
X0211078Y0099262D01*
X0211072Y0099093D01*
X0211061Y0098924D01*
X0211047Y0098756D01*
X0211028Y0098588D01*
X0211005Y0098420D01*
X0210979Y0098253D01*
X0210948Y0098087D01*
X0210913Y0097921D01*
X0210874Y0097757D01*
X0210830Y0097593D01*
X0210783Y0097431D01*
X0210732Y0097270D01*
X0210677Y0097110D01*
X0210618Y0096951D01*
X0210556Y0096794D01*
X0210489Y0096639D01*
X0210418Y0096485D01*
X0210344Y0096333D01*
X0210266Y0096183D01*
X0210185Y0096035D01*
X0210100Y0095889D01*
X0210011Y0095745D01*
X0209919Y0095603D01*
X0209823Y0095464D01*
X0209724Y0095327D01*
X0209622Y0095192D01*
X0209516Y0095060D01*
X0209407Y0094931D01*
X0209295Y0094804D01*
X0209180Y0094680D01*
X0209062Y0094559D01*
X0208941Y0094441D01*
X0208817Y0094326D01*
X0208690Y0094214D01*
X0208561Y0094105D01*
X0208429Y0093999D01*
X0208294Y0093897D01*
X0208157Y0093798D01*
X0208018Y0093702D01*
X0207876Y0093610D01*
X0207732Y0093521D01*
X0207586Y0093436D01*
X0207438Y0093355D01*
X0207288Y0093277D01*
X0207136Y0093203D01*
X0206982Y0093132D01*
X0206827Y0093065D01*
X0206670Y0093003D01*
X0206511Y0092944D01*
X0206351Y0092889D01*
X0206190Y0092838D01*
X0206028Y0092791D01*
X0205864Y0092747D01*
X0205700Y0092708D01*
X0205534Y0092673D01*
X0205368Y0092642D01*
X0205201Y0092616D01*
X0205033Y0092593D01*
X0204865Y0092574D01*
X0204697Y0092560D01*
X0204528Y0092549D01*
X0204359Y0092543D01*
X0204190Y0092541D01*
X0204021Y0092543D01*
X0203852Y0092549D01*
X0203683Y0092560D01*
X0203515Y0092574D01*
X0203347Y0092593D01*
X0203179Y0092616D01*
X0203012Y0092642D01*
X0202846Y0092673D01*
X0202680Y0092708D01*
X0202516Y0092747D01*
X0202352Y0092791D01*
X0202190Y0092838D01*
X0202029Y0092889D01*
X0201869Y0092944D01*
X0201710Y0093003D01*
X0201553Y0093065D01*
X0201398Y0093132D01*
X0201244Y0093203D01*
X0201092Y0093277D01*
X0200942Y0093355D01*
X0200794Y0093436D01*
X0200648Y0093521D01*
X0200504Y0093610D01*
X0200362Y0093702D01*
X0200223Y0093798D01*
X0200086Y0093897D01*
X0199951Y0093999D01*
X0199819Y0094105D01*
X0199690Y0094214D01*
X0199563Y0094326D01*
X0199439Y0094441D01*
X0199318Y0094559D01*
X0199200Y0094680D01*
X0199085Y0094804D01*
X0198973Y0094931D01*
X0198864Y0095060D01*
X0198758Y0095192D01*
X0198656Y0095327D01*
X0198557Y0095464D01*
X0198461Y0095603D01*
X0198369Y0095745D01*
X0198280Y0095889D01*
X0198195Y0096035D01*
X0198114Y0096183D01*
X0198036Y0096333D01*
X0197962Y0096485D01*
X0197891Y0096639D01*
X0197824Y0096794D01*
X0197762Y0096951D01*
X0197703Y0097110D01*
X0197648Y0097270D01*
X0197597Y0097431D01*
X0197550Y0097593D01*
X0197506Y0097757D01*
X0197467Y0097921D01*
X0197432Y0098087D01*
X0197401Y0098253D01*
X0197375Y0098420D01*
X0197352Y0098588D01*
X0197333Y0098756D01*
X0197319Y0098924D01*
X0197308Y0099093D01*
X0197302Y0099262D01*
X0197300Y0099431D01*
X0130568Y0143526D02*
X0130570Y0143663D01*
X0130576Y0143801D01*
X0130586Y0143938D01*
X0130600Y0144074D01*
X0130618Y0144211D01*
X0130640Y0144346D01*
X0130666Y0144481D01*
X0130695Y0144615D01*
X0130729Y0144749D01*
X0130766Y0144881D01*
X0130808Y0145012D01*
X0130853Y0145142D01*
X0130902Y0145270D01*
X0130954Y0145397D01*
X0131011Y0145522D01*
X0131070Y0145646D01*
X0131134Y0145768D01*
X0131201Y0145888D01*
X0131271Y0146006D01*
X0131345Y0146122D01*
X0131422Y0146236D01*
X0131503Y0146347D01*
X0131586Y0146456D01*
X0131673Y0146563D01*
X0131763Y0146666D01*
X0131856Y0146768D01*
X0131952Y0146866D01*
X0132050Y0146962D01*
X0132152Y0147055D01*
X0132255Y0147145D01*
X0132362Y0147232D01*
X0132471Y0147315D01*
X0132582Y0147396D01*
X0132696Y0147473D01*
X0132812Y0147547D01*
X0132930Y0147617D01*
X0133050Y0147684D01*
X0133172Y0147748D01*
X0133296Y0147807D01*
X0133421Y0147864D01*
X0133548Y0147916D01*
X0133676Y0147965D01*
X0133806Y0148010D01*
X0133937Y0148052D01*
X0134069Y0148089D01*
X0134203Y0148123D01*
X0134337Y0148152D01*
X0134472Y0148178D01*
X0134607Y0148200D01*
X0134744Y0148218D01*
X0134880Y0148232D01*
X0135017Y0148242D01*
X0135155Y0148248D01*
X0135292Y0148250D01*
X0135429Y0148248D01*
X0135567Y0148242D01*
X0135704Y0148232D01*
X0135840Y0148218D01*
X0135977Y0148200D01*
X0136112Y0148178D01*
X0136247Y0148152D01*
X0136381Y0148123D01*
X0136515Y0148089D01*
X0136647Y0148052D01*
X0136778Y0148010D01*
X0136908Y0147965D01*
X0137036Y0147916D01*
X0137163Y0147864D01*
X0137288Y0147807D01*
X0137412Y0147748D01*
X0137534Y0147684D01*
X0137654Y0147617D01*
X0137772Y0147547D01*
X0137888Y0147473D01*
X0138002Y0147396D01*
X0138113Y0147315D01*
X0138222Y0147232D01*
X0138329Y0147145D01*
X0138432Y0147055D01*
X0138534Y0146962D01*
X0138632Y0146866D01*
X0138728Y0146768D01*
X0138821Y0146666D01*
X0138911Y0146563D01*
X0138998Y0146456D01*
X0139081Y0146347D01*
X0139162Y0146236D01*
X0139239Y0146122D01*
X0139313Y0146006D01*
X0139383Y0145888D01*
X0139450Y0145768D01*
X0139514Y0145646D01*
X0139573Y0145522D01*
X0139630Y0145397D01*
X0139682Y0145270D01*
X0139731Y0145142D01*
X0139776Y0145012D01*
X0139818Y0144881D01*
X0139855Y0144749D01*
X0139889Y0144615D01*
X0139918Y0144481D01*
X0139944Y0144346D01*
X0139966Y0144211D01*
X0139984Y0144074D01*
X0139998Y0143938D01*
X0140008Y0143801D01*
X0140014Y0143663D01*
X0140016Y0143526D01*
X0140014Y0143389D01*
X0140008Y0143251D01*
X0139998Y0143114D01*
X0139984Y0142978D01*
X0139966Y0142841D01*
X0139944Y0142706D01*
X0139918Y0142571D01*
X0139889Y0142437D01*
X0139855Y0142303D01*
X0139818Y0142171D01*
X0139776Y0142040D01*
X0139731Y0141910D01*
X0139682Y0141782D01*
X0139630Y0141655D01*
X0139573Y0141530D01*
X0139514Y0141406D01*
X0139450Y0141284D01*
X0139383Y0141164D01*
X0139313Y0141046D01*
X0139239Y0140930D01*
X0139162Y0140816D01*
X0139081Y0140705D01*
X0138998Y0140596D01*
X0138911Y0140489D01*
X0138821Y0140386D01*
X0138728Y0140284D01*
X0138632Y0140186D01*
X0138534Y0140090D01*
X0138432Y0139997D01*
X0138329Y0139907D01*
X0138222Y0139820D01*
X0138113Y0139737D01*
X0138002Y0139656D01*
X0137888Y0139579D01*
X0137772Y0139505D01*
X0137654Y0139435D01*
X0137534Y0139368D01*
X0137412Y0139304D01*
X0137288Y0139245D01*
X0137163Y0139188D01*
X0137036Y0139136D01*
X0136908Y0139087D01*
X0136778Y0139042D01*
X0136647Y0139000D01*
X0136515Y0138963D01*
X0136381Y0138929D01*
X0136247Y0138900D01*
X0136112Y0138874D01*
X0135977Y0138852D01*
X0135840Y0138834D01*
X0135704Y0138820D01*
X0135567Y0138810D01*
X0135429Y0138804D01*
X0135292Y0138802D01*
X0135155Y0138804D01*
X0135017Y0138810D01*
X0134880Y0138820D01*
X0134744Y0138834D01*
X0134607Y0138852D01*
X0134472Y0138874D01*
X0134337Y0138900D01*
X0134203Y0138929D01*
X0134069Y0138963D01*
X0133937Y0139000D01*
X0133806Y0139042D01*
X0133676Y0139087D01*
X0133548Y0139136D01*
X0133421Y0139188D01*
X0133296Y0139245D01*
X0133172Y0139304D01*
X0133050Y0139368D01*
X0132930Y0139435D01*
X0132812Y0139505D01*
X0132696Y0139579D01*
X0132582Y0139656D01*
X0132471Y0139737D01*
X0132362Y0139820D01*
X0132255Y0139907D01*
X0132152Y0139997D01*
X0132050Y0140090D01*
X0131952Y0140186D01*
X0131856Y0140284D01*
X0131763Y0140386D01*
X0131673Y0140489D01*
X0131586Y0140596D01*
X0131503Y0140705D01*
X0131422Y0140816D01*
X0131345Y0140930D01*
X0131271Y0141046D01*
X0131201Y0141164D01*
X0131134Y0141284D01*
X0131070Y0141406D01*
X0131011Y0141530D01*
X0130954Y0141655D01*
X0130902Y0141782D01*
X0130853Y0141910D01*
X0130808Y0142040D01*
X0130766Y0142171D01*
X0130729Y0142303D01*
X0130695Y0142437D01*
X0130666Y0142571D01*
X0130640Y0142706D01*
X0130618Y0142841D01*
X0130600Y0142978D01*
X0130586Y0143114D01*
X0130576Y0143251D01*
X0130570Y0143389D01*
X0130568Y0143526D01*
X0109701Y0118329D02*
X0109703Y0118460D01*
X0109709Y0118592D01*
X0109719Y0118723D01*
X0109733Y0118854D01*
X0109751Y0118984D01*
X0109773Y0119113D01*
X0109798Y0119242D01*
X0109828Y0119370D01*
X0109862Y0119497D01*
X0109899Y0119624D01*
X0109940Y0119748D01*
X0109985Y0119872D01*
X0110034Y0119994D01*
X0110086Y0120115D01*
X0110142Y0120233D01*
X0110202Y0120351D01*
X0110265Y0120466D01*
X0110332Y0120579D01*
X0110402Y0120691D01*
X0110475Y0120800D01*
X0110551Y0120906D01*
X0110631Y0121011D01*
X0110714Y0121113D01*
X0110800Y0121212D01*
X0110889Y0121309D01*
X0110981Y0121403D01*
X0111076Y0121494D01*
X0111173Y0121583D01*
X0111273Y0121668D01*
X0111376Y0121750D01*
X0111481Y0121829D01*
X0111588Y0121905D01*
X0111698Y0121977D01*
X0111810Y0122046D01*
X0111924Y0122112D01*
X0112039Y0122174D01*
X0112157Y0122233D01*
X0112276Y0122288D01*
X0112397Y0122340D01*
X0112520Y0122387D01*
X0112644Y0122431D01*
X0112769Y0122472D01*
X0112895Y0122508D01*
X0113023Y0122541D01*
X0113151Y0122569D01*
X0113280Y0122594D01*
X0113410Y0122615D01*
X0113540Y0122632D01*
X0113671Y0122645D01*
X0113802Y0122654D01*
X0113933Y0122659D01*
X0114065Y0122660D01*
X0114196Y0122657D01*
X0114328Y0122650D01*
X0114459Y0122639D01*
X0114589Y0122624D01*
X0114719Y0122605D01*
X0114849Y0122582D01*
X0114977Y0122556D01*
X0115105Y0122525D01*
X0115232Y0122490D01*
X0115358Y0122452D01*
X0115482Y0122410D01*
X0115606Y0122364D01*
X0115727Y0122314D01*
X0115847Y0122261D01*
X0115966Y0122204D01*
X0116083Y0122144D01*
X0116197Y0122080D01*
X0116310Y0122012D01*
X0116421Y0121941D01*
X0116530Y0121867D01*
X0116636Y0121790D01*
X0116740Y0121709D01*
X0116841Y0121626D01*
X0116940Y0121539D01*
X0117036Y0121449D01*
X0117129Y0121356D01*
X0117220Y0121261D01*
X0117307Y0121163D01*
X0117392Y0121062D01*
X0117473Y0120959D01*
X0117551Y0120853D01*
X0117626Y0120745D01*
X0117698Y0120635D01*
X0117766Y0120523D01*
X0117831Y0120409D01*
X0117892Y0120292D01*
X0117950Y0120174D01*
X0118004Y0120054D01*
X0118055Y0119933D01*
X0118102Y0119810D01*
X0118145Y0119686D01*
X0118184Y0119561D01*
X0118220Y0119434D01*
X0118251Y0119306D01*
X0118279Y0119178D01*
X0118303Y0119049D01*
X0118323Y0118919D01*
X0118339Y0118788D01*
X0118351Y0118657D01*
X0118359Y0118526D01*
X0118363Y0118395D01*
X0118363Y0118263D01*
X0118359Y0118132D01*
X0118351Y0118001D01*
X0118339Y0117870D01*
X0118323Y0117739D01*
X0118303Y0117609D01*
X0118279Y0117480D01*
X0118251Y0117352D01*
X0118220Y0117224D01*
X0118184Y0117097D01*
X0118145Y0116972D01*
X0118102Y0116848D01*
X0118055Y0116725D01*
X0118004Y0116604D01*
X0117950Y0116484D01*
X0117892Y0116366D01*
X0117831Y0116249D01*
X0117766Y0116135D01*
X0117698Y0116023D01*
X0117626Y0115913D01*
X0117551Y0115805D01*
X0117473Y0115699D01*
X0117392Y0115596D01*
X0117307Y0115495D01*
X0117220Y0115397D01*
X0117129Y0115302D01*
X0117036Y0115209D01*
X0116940Y0115119D01*
X0116841Y0115032D01*
X0116740Y0114949D01*
X0116636Y0114868D01*
X0116530Y0114791D01*
X0116421Y0114717D01*
X0116310Y0114646D01*
X0116198Y0114578D01*
X0116083Y0114514D01*
X0115966Y0114454D01*
X0115847Y0114397D01*
X0115727Y0114344D01*
X0115606Y0114294D01*
X0115482Y0114248D01*
X0115358Y0114206D01*
X0115232Y0114168D01*
X0115105Y0114133D01*
X0114977Y0114102D01*
X0114849Y0114076D01*
X0114719Y0114053D01*
X0114589Y0114034D01*
X0114459Y0114019D01*
X0114328Y0114008D01*
X0114196Y0114001D01*
X0114065Y0113998D01*
X0113933Y0113999D01*
X0113802Y0114004D01*
X0113671Y0114013D01*
X0113540Y0114026D01*
X0113410Y0114043D01*
X0113280Y0114064D01*
X0113151Y0114089D01*
X0113023Y0114117D01*
X0112895Y0114150D01*
X0112769Y0114186D01*
X0112644Y0114227D01*
X0112520Y0114271D01*
X0112397Y0114318D01*
X0112276Y0114370D01*
X0112157Y0114425D01*
X0112039Y0114484D01*
X0111924Y0114546D01*
X0111810Y0114612D01*
X0111698Y0114681D01*
X0111588Y0114753D01*
X0111481Y0114829D01*
X0111376Y0114908D01*
X0111273Y0114990D01*
X0111173Y0115075D01*
X0111076Y0115164D01*
X0110981Y0115255D01*
X0110889Y0115349D01*
X0110800Y0115446D01*
X0110714Y0115545D01*
X0110631Y0115647D01*
X0110551Y0115752D01*
X0110475Y0115858D01*
X0110402Y0115967D01*
X0110332Y0116079D01*
X0110265Y0116192D01*
X0110202Y0116307D01*
X0110142Y0116425D01*
X0110086Y0116543D01*
X0110034Y0116664D01*
X0109985Y0116786D01*
X0109940Y0116910D01*
X0109899Y0117034D01*
X0109862Y0117161D01*
X0109828Y0117288D01*
X0109798Y0117416D01*
X0109773Y0117545D01*
X0109751Y0117674D01*
X0109733Y0117804D01*
X0109719Y0117935D01*
X0109709Y0118066D01*
X0109703Y0118198D01*
X0109701Y0118329D01*
X0104977Y0099431D02*
X0104979Y0099574D01*
X0104985Y0099717D01*
X0104995Y0099859D01*
X0105009Y0100001D01*
X0105027Y0100143D01*
X0105049Y0100285D01*
X0105074Y0100425D01*
X0105104Y0100565D01*
X0105138Y0100704D01*
X0105175Y0100842D01*
X0105217Y0100979D01*
X0105262Y0101114D01*
X0105311Y0101248D01*
X0105363Y0101381D01*
X0105419Y0101513D01*
X0105479Y0101642D01*
X0105543Y0101770D01*
X0105610Y0101897D01*
X0105681Y0102021D01*
X0105755Y0102143D01*
X0105832Y0102263D01*
X0105913Y0102381D01*
X0105997Y0102497D01*
X0106084Y0102610D01*
X0106174Y0102721D01*
X0106268Y0102829D01*
X0106364Y0102935D01*
X0106463Y0103037D01*
X0106566Y0103137D01*
X0106670Y0103234D01*
X0106778Y0103329D01*
X0106888Y0103420D01*
X0107001Y0103508D01*
X0107116Y0103592D01*
X0107233Y0103674D01*
X0107353Y0103752D01*
X0107474Y0103827D01*
X0107598Y0103899D01*
X0107724Y0103967D01*
X0107851Y0104031D01*
X0107981Y0104092D01*
X0108112Y0104149D01*
X0108244Y0104203D01*
X0108378Y0104252D01*
X0108513Y0104299D01*
X0108650Y0104341D01*
X0108788Y0104379D01*
X0108926Y0104414D01*
X0109066Y0104444D01*
X0109206Y0104471D01*
X0109347Y0104494D01*
X0109489Y0104513D01*
X0109631Y0104528D01*
X0109774Y0104539D01*
X0109916Y0104546D01*
X0110059Y0104549D01*
X0110202Y0104548D01*
X0110345Y0104543D01*
X0110488Y0104534D01*
X0110630Y0104521D01*
X0110772Y0104504D01*
X0110913Y0104483D01*
X0111054Y0104458D01*
X0111194Y0104430D01*
X0111333Y0104397D01*
X0111471Y0104360D01*
X0111608Y0104320D01*
X0111744Y0104276D01*
X0111879Y0104228D01*
X0112012Y0104176D01*
X0112144Y0104121D01*
X0112274Y0104062D01*
X0112403Y0103999D01*
X0112529Y0103933D01*
X0112654Y0103863D01*
X0112777Y0103790D01*
X0112897Y0103714D01*
X0113016Y0103634D01*
X0113132Y0103550D01*
X0113246Y0103464D01*
X0113357Y0103374D01*
X0113466Y0103282D01*
X0113572Y0103186D01*
X0113676Y0103088D01*
X0113777Y0102986D01*
X0113874Y0102882D01*
X0113969Y0102775D01*
X0114061Y0102666D01*
X0114150Y0102554D01*
X0114236Y0102439D01*
X0114318Y0102323D01*
X0114397Y0102203D01*
X0114473Y0102082D01*
X0114545Y0101959D01*
X0114614Y0101834D01*
X0114679Y0101707D01*
X0114741Y0101578D01*
X0114799Y0101447D01*
X0114854Y0101315D01*
X0114904Y0101181D01*
X0114951Y0101046D01*
X0114995Y0100910D01*
X0115034Y0100773D01*
X0115069Y0100634D01*
X0115101Y0100495D01*
X0115129Y0100355D01*
X0115153Y0100214D01*
X0115173Y0100072D01*
X0115189Y0099930D01*
X0115201Y0099788D01*
X0115209Y0099645D01*
X0115213Y0099502D01*
X0115213Y0099360D01*
X0115209Y0099217D01*
X0115201Y0099074D01*
X0115189Y0098932D01*
X0115173Y0098790D01*
X0115153Y0098648D01*
X0115129Y0098507D01*
X0115101Y0098367D01*
X0115069Y0098228D01*
X0115034Y0098089D01*
X0114995Y0097952D01*
X0114951Y0097816D01*
X0114904Y0097681D01*
X0114854Y0097547D01*
X0114799Y0097415D01*
X0114741Y0097284D01*
X0114679Y0097155D01*
X0114614Y0097028D01*
X0114545Y0096903D01*
X0114473Y0096780D01*
X0114397Y0096659D01*
X0114318Y0096539D01*
X0114236Y0096423D01*
X0114150Y0096308D01*
X0114061Y0096196D01*
X0113969Y0096087D01*
X0113874Y0095980D01*
X0113777Y0095876D01*
X0113676Y0095774D01*
X0113572Y0095676D01*
X0113466Y0095580D01*
X0113357Y0095488D01*
X0113246Y0095398D01*
X0113132Y0095312D01*
X0113016Y0095228D01*
X0112897Y0095148D01*
X0112777Y0095072D01*
X0112654Y0094999D01*
X0112529Y0094929D01*
X0112403Y0094863D01*
X0112274Y0094800D01*
X0112144Y0094741D01*
X0112012Y0094686D01*
X0111879Y0094634D01*
X0111744Y0094586D01*
X0111608Y0094542D01*
X0111471Y0094502D01*
X0111333Y0094465D01*
X0111194Y0094432D01*
X0111054Y0094404D01*
X0110913Y0094379D01*
X0110772Y0094358D01*
X0110630Y0094341D01*
X0110488Y0094328D01*
X0110345Y0094319D01*
X0110202Y0094314D01*
X0110059Y0094313D01*
X0109916Y0094316D01*
X0109774Y0094323D01*
X0109631Y0094334D01*
X0109489Y0094349D01*
X0109347Y0094368D01*
X0109206Y0094391D01*
X0109066Y0094418D01*
X0108926Y0094448D01*
X0108788Y0094483D01*
X0108650Y0094521D01*
X0108513Y0094563D01*
X0108378Y0094610D01*
X0108244Y0094659D01*
X0108112Y0094713D01*
X0107981Y0094770D01*
X0107851Y0094831D01*
X0107724Y0094895D01*
X0107598Y0094963D01*
X0107474Y0095035D01*
X0107353Y0095110D01*
X0107233Y0095188D01*
X0107116Y0095270D01*
X0107001Y0095354D01*
X0106888Y0095442D01*
X0106778Y0095533D01*
X0106670Y0095628D01*
X0106566Y0095725D01*
X0106463Y0095825D01*
X0106364Y0095927D01*
X0106268Y0096033D01*
X0106174Y0096141D01*
X0106084Y0096252D01*
X0105997Y0096365D01*
X0105913Y0096481D01*
X0105832Y0096599D01*
X0105755Y0096719D01*
X0105681Y0096841D01*
X0105610Y0096965D01*
X0105543Y0097092D01*
X0105479Y0097220D01*
X0105419Y0097349D01*
X0105363Y0097481D01*
X0105311Y0097614D01*
X0105262Y0097748D01*
X0105217Y0097883D01*
X0105175Y0098020D01*
X0105138Y0098158D01*
X0105104Y0098297D01*
X0105074Y0098437D01*
X0105049Y0098577D01*
X0105027Y0098719D01*
X0105009Y0098861D01*
X0104995Y0099003D01*
X0104985Y0099145D01*
X0104979Y0099288D01*
X0104977Y0099431D01*
X0023088Y0103762D02*
X0023090Y0103899D01*
X0023096Y0104037D01*
X0023106Y0104174D01*
X0023120Y0104310D01*
X0023138Y0104447D01*
X0023160Y0104582D01*
X0023186Y0104717D01*
X0023215Y0104851D01*
X0023249Y0104985D01*
X0023286Y0105117D01*
X0023328Y0105248D01*
X0023373Y0105378D01*
X0023422Y0105506D01*
X0023474Y0105633D01*
X0023531Y0105758D01*
X0023590Y0105882D01*
X0023654Y0106004D01*
X0023721Y0106124D01*
X0023791Y0106242D01*
X0023865Y0106358D01*
X0023942Y0106472D01*
X0024023Y0106583D01*
X0024106Y0106692D01*
X0024193Y0106799D01*
X0024283Y0106902D01*
X0024376Y0107004D01*
X0024472Y0107102D01*
X0024570Y0107198D01*
X0024672Y0107291D01*
X0024775Y0107381D01*
X0024882Y0107468D01*
X0024991Y0107551D01*
X0025102Y0107632D01*
X0025216Y0107709D01*
X0025332Y0107783D01*
X0025450Y0107853D01*
X0025570Y0107920D01*
X0025692Y0107984D01*
X0025816Y0108043D01*
X0025941Y0108100D01*
X0026068Y0108152D01*
X0026196Y0108201D01*
X0026326Y0108246D01*
X0026457Y0108288D01*
X0026589Y0108325D01*
X0026723Y0108359D01*
X0026857Y0108388D01*
X0026992Y0108414D01*
X0027127Y0108436D01*
X0027264Y0108454D01*
X0027400Y0108468D01*
X0027537Y0108478D01*
X0027675Y0108484D01*
X0027812Y0108486D01*
X0027949Y0108484D01*
X0028087Y0108478D01*
X0028224Y0108468D01*
X0028360Y0108454D01*
X0028497Y0108436D01*
X0028632Y0108414D01*
X0028767Y0108388D01*
X0028901Y0108359D01*
X0029035Y0108325D01*
X0029167Y0108288D01*
X0029298Y0108246D01*
X0029428Y0108201D01*
X0029556Y0108152D01*
X0029683Y0108100D01*
X0029808Y0108043D01*
X0029932Y0107984D01*
X0030054Y0107920D01*
X0030174Y0107853D01*
X0030292Y0107783D01*
X0030408Y0107709D01*
X0030522Y0107632D01*
X0030633Y0107551D01*
X0030742Y0107468D01*
X0030849Y0107381D01*
X0030952Y0107291D01*
X0031054Y0107198D01*
X0031152Y0107102D01*
X0031248Y0107004D01*
X0031341Y0106902D01*
X0031431Y0106799D01*
X0031518Y0106692D01*
X0031601Y0106583D01*
X0031682Y0106472D01*
X0031759Y0106358D01*
X0031833Y0106242D01*
X0031903Y0106124D01*
X0031970Y0106004D01*
X0032034Y0105882D01*
X0032093Y0105758D01*
X0032150Y0105633D01*
X0032202Y0105506D01*
X0032251Y0105378D01*
X0032296Y0105248D01*
X0032338Y0105117D01*
X0032375Y0104985D01*
X0032409Y0104851D01*
X0032438Y0104717D01*
X0032464Y0104582D01*
X0032486Y0104447D01*
X0032504Y0104310D01*
X0032518Y0104174D01*
X0032528Y0104037D01*
X0032534Y0103899D01*
X0032536Y0103762D01*
X0032534Y0103625D01*
X0032528Y0103487D01*
X0032518Y0103350D01*
X0032504Y0103214D01*
X0032486Y0103077D01*
X0032464Y0102942D01*
X0032438Y0102807D01*
X0032409Y0102673D01*
X0032375Y0102539D01*
X0032338Y0102407D01*
X0032296Y0102276D01*
X0032251Y0102146D01*
X0032202Y0102018D01*
X0032150Y0101891D01*
X0032093Y0101766D01*
X0032034Y0101642D01*
X0031970Y0101520D01*
X0031903Y0101400D01*
X0031833Y0101282D01*
X0031759Y0101166D01*
X0031682Y0101052D01*
X0031601Y0100941D01*
X0031518Y0100832D01*
X0031431Y0100725D01*
X0031341Y0100622D01*
X0031248Y0100520D01*
X0031152Y0100422D01*
X0031054Y0100326D01*
X0030952Y0100233D01*
X0030849Y0100143D01*
X0030742Y0100056D01*
X0030633Y0099973D01*
X0030522Y0099892D01*
X0030408Y0099815D01*
X0030292Y0099741D01*
X0030174Y0099671D01*
X0030054Y0099604D01*
X0029932Y0099540D01*
X0029808Y0099481D01*
X0029683Y0099424D01*
X0029556Y0099372D01*
X0029428Y0099323D01*
X0029298Y0099278D01*
X0029167Y0099236D01*
X0029035Y0099199D01*
X0028901Y0099165D01*
X0028767Y0099136D01*
X0028632Y0099110D01*
X0028497Y0099088D01*
X0028360Y0099070D01*
X0028224Y0099056D01*
X0028087Y0099046D01*
X0027949Y0099040D01*
X0027812Y0099038D01*
X0027675Y0099040D01*
X0027537Y0099046D01*
X0027400Y0099056D01*
X0027264Y0099070D01*
X0027127Y0099088D01*
X0026992Y0099110D01*
X0026857Y0099136D01*
X0026723Y0099165D01*
X0026589Y0099199D01*
X0026457Y0099236D01*
X0026326Y0099278D01*
X0026196Y0099323D01*
X0026068Y0099372D01*
X0025941Y0099424D01*
X0025816Y0099481D01*
X0025692Y0099540D01*
X0025570Y0099604D01*
X0025450Y0099671D01*
X0025332Y0099741D01*
X0025216Y0099815D01*
X0025102Y0099892D01*
X0024991Y0099973D01*
X0024882Y0100056D01*
X0024775Y0100143D01*
X0024672Y0100233D01*
X0024570Y0100326D01*
X0024472Y0100422D01*
X0024376Y0100520D01*
X0024283Y0100622D01*
X0024193Y0100725D01*
X0024106Y0100832D01*
X0024023Y0100941D01*
X0023942Y0101052D01*
X0023865Y0101166D01*
X0023791Y0101282D01*
X0023721Y0101400D01*
X0023654Y0101520D01*
X0023590Y0101642D01*
X0023531Y0101766D01*
X0023474Y0101891D01*
X0023422Y0102018D01*
X0023373Y0102146D01*
X0023328Y0102276D01*
X0023286Y0102407D01*
X0023249Y0102539D01*
X0023215Y0102673D01*
X0023186Y0102807D01*
X0023160Y0102942D01*
X0023138Y0103077D01*
X0023120Y0103214D01*
X0023106Y0103350D01*
X0023096Y0103487D01*
X0023090Y0103625D01*
X0023088Y0103762D01*
X0280174Y0125022D02*
X0280176Y0125159D01*
X0280182Y0125297D01*
X0280192Y0125434D01*
X0280206Y0125570D01*
X0280224Y0125707D01*
X0280246Y0125842D01*
X0280272Y0125977D01*
X0280301Y0126111D01*
X0280335Y0126245D01*
X0280372Y0126377D01*
X0280414Y0126508D01*
X0280459Y0126638D01*
X0280508Y0126766D01*
X0280560Y0126893D01*
X0280617Y0127018D01*
X0280676Y0127142D01*
X0280740Y0127264D01*
X0280807Y0127384D01*
X0280877Y0127502D01*
X0280951Y0127618D01*
X0281028Y0127732D01*
X0281109Y0127843D01*
X0281192Y0127952D01*
X0281279Y0128059D01*
X0281369Y0128162D01*
X0281462Y0128264D01*
X0281558Y0128362D01*
X0281656Y0128458D01*
X0281758Y0128551D01*
X0281861Y0128641D01*
X0281968Y0128728D01*
X0282077Y0128811D01*
X0282188Y0128892D01*
X0282302Y0128969D01*
X0282418Y0129043D01*
X0282536Y0129113D01*
X0282656Y0129180D01*
X0282778Y0129244D01*
X0282902Y0129303D01*
X0283027Y0129360D01*
X0283154Y0129412D01*
X0283282Y0129461D01*
X0283412Y0129506D01*
X0283543Y0129548D01*
X0283675Y0129585D01*
X0283809Y0129619D01*
X0283943Y0129648D01*
X0284078Y0129674D01*
X0284213Y0129696D01*
X0284350Y0129714D01*
X0284486Y0129728D01*
X0284623Y0129738D01*
X0284761Y0129744D01*
X0284898Y0129746D01*
X0285035Y0129744D01*
X0285173Y0129738D01*
X0285310Y0129728D01*
X0285446Y0129714D01*
X0285583Y0129696D01*
X0285718Y0129674D01*
X0285853Y0129648D01*
X0285987Y0129619D01*
X0286121Y0129585D01*
X0286253Y0129548D01*
X0286384Y0129506D01*
X0286514Y0129461D01*
X0286642Y0129412D01*
X0286769Y0129360D01*
X0286894Y0129303D01*
X0287018Y0129244D01*
X0287140Y0129180D01*
X0287260Y0129113D01*
X0287378Y0129043D01*
X0287494Y0128969D01*
X0287608Y0128892D01*
X0287719Y0128811D01*
X0287828Y0128728D01*
X0287935Y0128641D01*
X0288038Y0128551D01*
X0288140Y0128458D01*
X0288238Y0128362D01*
X0288334Y0128264D01*
X0288427Y0128162D01*
X0288517Y0128059D01*
X0288604Y0127952D01*
X0288687Y0127843D01*
X0288768Y0127732D01*
X0288845Y0127618D01*
X0288919Y0127502D01*
X0288989Y0127384D01*
X0289056Y0127264D01*
X0289120Y0127142D01*
X0289179Y0127018D01*
X0289236Y0126893D01*
X0289288Y0126766D01*
X0289337Y0126638D01*
X0289382Y0126508D01*
X0289424Y0126377D01*
X0289461Y0126245D01*
X0289495Y0126111D01*
X0289524Y0125977D01*
X0289550Y0125842D01*
X0289572Y0125707D01*
X0289590Y0125570D01*
X0289604Y0125434D01*
X0289614Y0125297D01*
X0289620Y0125159D01*
X0289622Y0125022D01*
X0289620Y0124885D01*
X0289614Y0124747D01*
X0289604Y0124610D01*
X0289590Y0124474D01*
X0289572Y0124337D01*
X0289550Y0124202D01*
X0289524Y0124067D01*
X0289495Y0123933D01*
X0289461Y0123799D01*
X0289424Y0123667D01*
X0289382Y0123536D01*
X0289337Y0123406D01*
X0289288Y0123278D01*
X0289236Y0123151D01*
X0289179Y0123026D01*
X0289120Y0122902D01*
X0289056Y0122780D01*
X0288989Y0122660D01*
X0288919Y0122542D01*
X0288845Y0122426D01*
X0288768Y0122312D01*
X0288687Y0122201D01*
X0288604Y0122092D01*
X0288517Y0121985D01*
X0288427Y0121882D01*
X0288334Y0121780D01*
X0288238Y0121682D01*
X0288140Y0121586D01*
X0288038Y0121493D01*
X0287935Y0121403D01*
X0287828Y0121316D01*
X0287719Y0121233D01*
X0287608Y0121152D01*
X0287494Y0121075D01*
X0287378Y0121001D01*
X0287260Y0120931D01*
X0287140Y0120864D01*
X0287018Y0120800D01*
X0286894Y0120741D01*
X0286769Y0120684D01*
X0286642Y0120632D01*
X0286514Y0120583D01*
X0286384Y0120538D01*
X0286253Y0120496D01*
X0286121Y0120459D01*
X0285987Y0120425D01*
X0285853Y0120396D01*
X0285718Y0120370D01*
X0285583Y0120348D01*
X0285446Y0120330D01*
X0285310Y0120316D01*
X0285173Y0120306D01*
X0285035Y0120300D01*
X0284898Y0120298D01*
X0284761Y0120300D01*
X0284623Y0120306D01*
X0284486Y0120316D01*
X0284350Y0120330D01*
X0284213Y0120348D01*
X0284078Y0120370D01*
X0283943Y0120396D01*
X0283809Y0120425D01*
X0283675Y0120459D01*
X0283543Y0120496D01*
X0283412Y0120538D01*
X0283282Y0120583D01*
X0283154Y0120632D01*
X0283027Y0120684D01*
X0282902Y0120741D01*
X0282778Y0120800D01*
X0282656Y0120864D01*
X0282536Y0120931D01*
X0282418Y0121001D01*
X0282302Y0121075D01*
X0282188Y0121152D01*
X0282077Y0121233D01*
X0281968Y0121316D01*
X0281861Y0121403D01*
X0281758Y0121493D01*
X0281656Y0121586D01*
X0281558Y0121682D01*
X0281462Y0121780D01*
X0281369Y0121882D01*
X0281279Y0121985D01*
X0281192Y0122092D01*
X0281109Y0122201D01*
X0281028Y0122312D01*
X0280951Y0122426D01*
X0280877Y0122542D01*
X0280807Y0122660D01*
X0280740Y0122780D01*
X0280676Y0122902D01*
X0280617Y0123026D01*
X0280560Y0123151D01*
X0280508Y0123278D01*
X0280459Y0123406D01*
X0280414Y0123536D01*
X0280372Y0123667D01*
X0280335Y0123799D01*
X0280301Y0123933D01*
X0280272Y0124067D01*
X0280246Y0124202D01*
X0280224Y0124337D01*
X0280206Y0124474D01*
X0280192Y0124610D01*
X0280182Y0124747D01*
X0280176Y0124885D01*
X0280174Y0125022D01*
D12*
X0254662Y0106557D03*
X0223166Y0204983D03*
X0168048Y0181361D03*
X0156237Y0122306D03*
X0174662Y0046676D03*
X0194347Y0026991D03*
X0194347Y0017148D03*
X0154977Y0017148D03*
X0154977Y0026991D03*
D13*
X0078205Y0029333D03*
X0078205Y0034333D03*
X0078205Y0039333D03*
X0078205Y0044333D03*
X0057733Y0044333D03*
X0057733Y0039333D03*
X0057733Y0034333D03*
X0057733Y0029333D03*
D14*
X0043757Y0030928D03*
X0037064Y0030928D03*
X0037064Y0042739D03*
X0043757Y0042739D03*
X0103993Y0030928D03*
X0110686Y0030928D03*
D15*
X0210686Y0030770D03*
X0210686Y0040770D03*
X0205528Y0223841D03*
X0195528Y0223841D03*
X0185528Y0223841D03*
X0175528Y0223841D03*
X0165528Y0223841D03*
X0155528Y0223841D03*
X0145528Y0223841D03*
X0135528Y0223841D03*
X0125528Y0223841D03*
X0115528Y0223841D03*
X0105528Y0223841D03*
X0095528Y0223841D03*
X0060095Y0223841D03*
X0050095Y0223841D03*
X0040095Y0223841D03*
X0030095Y0223841D03*
D16*
X0101827Y0042542D03*
X0112851Y0042542D03*
D17*
X0071906Y0054550D03*
X0071906Y0062424D03*
X0210686Y0058487D03*
X0210686Y0050613D03*
D18*
X0194741Y0046676D03*
X0184505Y0046676D03*
X0174662Y0026991D03*
X0164820Y0046676D03*
X0154583Y0046676D03*
D19*
X0127024Y0062424D03*
X0121119Y0032896D03*
X0099465Y0054550D03*
X0091591Y0038802D03*
X0087654Y0054550D03*
X0087654Y0074235D03*
X0068953Y0022069D03*
X0044347Y0062424D03*
X0035489Y0195298D03*
X0044347Y0208093D03*
M02*
