%
M48
M72
T01C0.0138
T02C0.0200
T03C0.0315
T04C0.0354
T05C0.0400
T06C0.0472
T07C0.0492
T08C0.0512
T09C0.0630
%
T01
X5294Y6045
X6475Y8013
X9034Y6045
X10019Y4470
X12676Y3683
X14152Y5651
X14940Y4765
X16712Y6439
X21830Y8998
X19369Y13722
X24586Y16084
X27932Y13919
X29113Y19431
X24782Y23368
X20452Y19628
X15924Y9982
X9231Y21793
X7656Y23368
X4507Y23368
X11987Y21793
X11987Y30454
X11003Y30454
X9994Y30454
X6278Y35966
X5688Y35966
X5688Y37147
X4507Y39903
X8149Y44824
X7558Y44234
X8149Y43742
X8994Y37541
X14743Y30454
X16994Y36675
X17994Y36990
X18483Y37620
X18994Y36045
X16515Y38250
X15994Y37935
X15530Y37305
X23798Y43840
X25994Y44824
X28719Y38328
X26948Y36045
T02
X3129Y35248
X3129Y38102
T03
X4204Y35720
X4204Y37630
T04
X6672Y46596
X7853Y46596
T05
X21928Y4667
X21928Y3667
T06
X18326Y5257
X16357Y3289
X16357Y2305
X20294Y2305
X20294Y3289
T07
X4586Y16242
X7735Y19391
X10885Y16242
X14371Y8017
X16483Y12820
X17664Y18726
X21995Y15183
X23176Y21088
X27527Y16950
X26326Y11246
X18938Y8017
X7735Y13092
T08
X16318Y5257
X17341Y5257
X19310Y5257
X20334Y5257
X18326Y3289
T09
X3129Y29293
X3129Y33230
M30
