%
M48
M72
T01C0.01378
T02C0.02000
T03C0.03150
T04C0.03543
T05C0.03937
T06C0.04000
T07C0.04724
T08C0.05118
T09C0.06299
%
T01
X52942Y60449
X64753Y80134
X90344Y60449
X100186Y44701
X126761Y36827
X141525Y56512
X149399Y47654
X167115Y64386
X218297Y89976
X193690Y137220
X245856Y160843
X279320Y139189
X291131Y194307
X247824Y233677
X204517Y196276
X159241Y99819
X92312Y217929
X76564Y233677
X45068Y233677
X99942Y304543
X110029Y304543
X119871Y304543
X147430Y304543
X169942Y366748
X179942Y369898
X184832Y376197
X189942Y360449
X165147Y382496
X159942Y379346
X155304Y373047
X89942Y375409
X62785Y359661
X56879Y359661
X56879Y371472
X52942Y371866
X45068Y399031
X81486Y448244
X75580Y442339
X81486Y437417
X119871Y217929
X269478Y360449
X287194Y383283
X259942Y448244
X237982Y438402
T02
X31289Y352476
X31289Y381020
T03
X42037Y357201
X42037Y376295
T04
X66722Y465961
X78533Y465961
T05
X45856Y162417
X77352Y130921
X108848Y162417
X143710Y80173
X164832Y128205
X176643Y187260
X219950Y151827
X231761Y210882
X275265Y169504
X263257Y112457
X189379Y80173
X77352Y193913
T06
X219281Y46669
X219281Y36669
T07
X183257Y52575
X163572Y32890
X163572Y23047
X202942Y23047
X202942Y32890
T08
X163178Y52575
X173415Y52575
X193100Y52575
X203336Y52575
X183257Y32890
T09
X31289Y292929
X31289Y332299
M30
