G75*
%MOIN*%
%OFA0B0*%
%FSLAX25Y25*%
%IPPOS*%
%LPD*%
%AMOC8*
5,1,8,0,0,1.08239X$1,22.5*
%
%ADD10C,0.00000*%
%ADD11C,0.00039*%
%ADD12R,0.05912X0.04731*%
%ADD13R,0.16148X0.01975*%
%ADD14C,0.01080*%
%ADD15C,0.04337*%
%ADD16C,0.00300*%
%ADD17C,0.00591*%
%ADD18R,0.05124X0.05124*%
%ADD19C,0.03943*%
%ADD20R,0.09849X0.09849*%
%ADD21C,0.07800*%
%ADD22C,0.04400*%
%ADD23C,0.05550*%
%ADD24C,0.05124*%
%ADD25C,0.05200*%
%ADD26C,0.03378*%
D10*
X0029320Y0023079D02*
X0029320Y0200244D01*
X0029453Y0200246D01*
X0029586Y0200252D01*
X0029718Y0200262D01*
X0029851Y0200275D01*
X0029982Y0200293D01*
X0030114Y0200314D01*
X0030244Y0200339D01*
X0030374Y0200368D01*
X0030503Y0200401D01*
X0030630Y0200438D01*
X0030757Y0200478D01*
X0030883Y0200522D01*
X0031007Y0200570D01*
X0031129Y0200621D01*
X0031250Y0200676D01*
X0031370Y0200735D01*
X0031487Y0200796D01*
X0031603Y0200862D01*
X0031717Y0200930D01*
X0031829Y0201002D01*
X0031938Y0201078D01*
X0032046Y0201156D01*
X0032151Y0201238D01*
X0032253Y0201322D01*
X0032353Y0201410D01*
X0032451Y0201500D01*
X0032545Y0201594D01*
X0032637Y0201690D01*
X0032726Y0201789D01*
X0032812Y0201890D01*
X0032895Y0201994D01*
X0032975Y0202100D01*
X0033052Y0202208D01*
X0033126Y0202319D01*
X0033196Y0202432D01*
X0033263Y0202546D01*
X0033327Y0202663D01*
X0033387Y0202782D01*
X0033444Y0202902D01*
X0033497Y0203024D01*
X0033546Y0203147D01*
X0033592Y0203272D01*
X0033635Y0203398D01*
X0033673Y0203525D01*
X0033708Y0203654D01*
X0033739Y0203783D01*
X0033766Y0203913D01*
X0033789Y0204044D01*
X0033809Y0204175D01*
X0033824Y0204308D01*
X0033836Y0204440D01*
X0033844Y0204573D01*
X0033848Y0204706D01*
X0033848Y0204838D01*
X0033844Y0204971D01*
X0033836Y0205104D01*
X0033824Y0205236D01*
X0033809Y0205369D01*
X0033789Y0205500D01*
X0033766Y0205631D01*
X0033739Y0205761D01*
X0033708Y0205890D01*
X0033673Y0206019D01*
X0033635Y0206146D01*
X0033592Y0206272D01*
X0033546Y0206397D01*
X0033497Y0206520D01*
X0033444Y0206642D01*
X0033387Y0206762D01*
X0033327Y0206881D01*
X0033263Y0206998D01*
X0033196Y0207112D01*
X0033126Y0207225D01*
X0033052Y0207336D01*
X0032975Y0207444D01*
X0032895Y0207550D01*
X0032812Y0207654D01*
X0032726Y0207755D01*
X0032637Y0207854D01*
X0032545Y0207950D01*
X0032451Y0208044D01*
X0032353Y0208134D01*
X0032253Y0208222D01*
X0032151Y0208306D01*
X0032046Y0208388D01*
X0031938Y0208466D01*
X0031829Y0208542D01*
X0031717Y0208614D01*
X0031603Y0208682D01*
X0031487Y0208748D01*
X0031370Y0208809D01*
X0031250Y0208868D01*
X0031129Y0208923D01*
X0031007Y0208974D01*
X0030883Y0209022D01*
X0030757Y0209066D01*
X0030630Y0209106D01*
X0030503Y0209143D01*
X0030374Y0209176D01*
X0030244Y0209205D01*
X0030114Y0209230D01*
X0029982Y0209251D01*
X0029851Y0209269D01*
X0029718Y0209282D01*
X0029586Y0209292D01*
X0029453Y0209298D01*
X0029320Y0209300D01*
X0029320Y0209299D02*
X0029320Y0278984D01*
X0026367Y0278984D01*
X0026243Y0278986D01*
X0026120Y0278992D01*
X0025996Y0279001D01*
X0025874Y0279015D01*
X0025751Y0279032D01*
X0025629Y0279054D01*
X0025508Y0279079D01*
X0025388Y0279108D01*
X0025269Y0279140D01*
X0025150Y0279177D01*
X0025033Y0279217D01*
X0024918Y0279260D01*
X0024803Y0279308D01*
X0024691Y0279359D01*
X0024580Y0279413D01*
X0024470Y0279471D01*
X0024363Y0279532D01*
X0024257Y0279597D01*
X0024154Y0279665D01*
X0024053Y0279736D01*
X0023954Y0279810D01*
X0023857Y0279887D01*
X0023763Y0279968D01*
X0023672Y0280051D01*
X0023583Y0280137D01*
X0023497Y0280226D01*
X0023414Y0280317D01*
X0023333Y0280411D01*
X0023256Y0280508D01*
X0023182Y0280607D01*
X0023111Y0280708D01*
X0023043Y0280811D01*
X0022978Y0280917D01*
X0022917Y0281024D01*
X0022859Y0281134D01*
X0022805Y0281245D01*
X0022754Y0281357D01*
X0022706Y0281472D01*
X0022663Y0281587D01*
X0022623Y0281704D01*
X0022586Y0281823D01*
X0022554Y0281942D01*
X0022525Y0282062D01*
X0022500Y0282183D01*
X0022478Y0282305D01*
X0022461Y0282428D01*
X0022447Y0282550D01*
X0022438Y0282674D01*
X0022432Y0282797D01*
X0022430Y0282921D01*
X0022430Y0385283D01*
X0022432Y0385407D01*
X0022438Y0385530D01*
X0022447Y0385654D01*
X0022461Y0385776D01*
X0022478Y0385899D01*
X0022500Y0386021D01*
X0022525Y0386142D01*
X0022554Y0386262D01*
X0022586Y0386381D01*
X0022623Y0386500D01*
X0022663Y0386617D01*
X0022706Y0386732D01*
X0022754Y0386847D01*
X0022805Y0386959D01*
X0022859Y0387070D01*
X0022917Y0387180D01*
X0022978Y0387287D01*
X0023043Y0387393D01*
X0023111Y0387496D01*
X0023182Y0387597D01*
X0023256Y0387696D01*
X0023333Y0387793D01*
X0023414Y0387887D01*
X0023497Y0387978D01*
X0023583Y0388067D01*
X0023672Y0388153D01*
X0023763Y0388236D01*
X0023857Y0388317D01*
X0023954Y0388394D01*
X0024053Y0388468D01*
X0024154Y0388539D01*
X0024257Y0388607D01*
X0024363Y0388672D01*
X0024470Y0388733D01*
X0024580Y0388791D01*
X0024691Y0388845D01*
X0024803Y0388896D01*
X0024918Y0388944D01*
X0025033Y0388987D01*
X0025150Y0389027D01*
X0025269Y0389064D01*
X0025388Y0389096D01*
X0025508Y0389125D01*
X0025629Y0389150D01*
X0025751Y0389172D01*
X0025874Y0389189D01*
X0025996Y0389203D01*
X0026120Y0389212D01*
X0026243Y0389218D01*
X0026367Y0389220D01*
X0029320Y0389220D01*
X0029320Y0460087D01*
X0029322Y0460211D01*
X0029328Y0460334D01*
X0029337Y0460458D01*
X0029351Y0460580D01*
X0029368Y0460703D01*
X0029390Y0460825D01*
X0029415Y0460946D01*
X0029444Y0461066D01*
X0029476Y0461185D01*
X0029513Y0461304D01*
X0029553Y0461421D01*
X0029596Y0461536D01*
X0029644Y0461651D01*
X0029695Y0461763D01*
X0029749Y0461874D01*
X0029807Y0461984D01*
X0029868Y0462091D01*
X0029933Y0462197D01*
X0030001Y0462300D01*
X0030072Y0462401D01*
X0030146Y0462500D01*
X0030223Y0462597D01*
X0030304Y0462691D01*
X0030387Y0462782D01*
X0030473Y0462871D01*
X0030562Y0462957D01*
X0030653Y0463040D01*
X0030747Y0463121D01*
X0030844Y0463198D01*
X0030943Y0463272D01*
X0031044Y0463343D01*
X0031147Y0463411D01*
X0031253Y0463476D01*
X0031360Y0463537D01*
X0031470Y0463595D01*
X0031581Y0463649D01*
X0031693Y0463700D01*
X0031808Y0463748D01*
X0031923Y0463791D01*
X0032040Y0463831D01*
X0032159Y0463868D01*
X0032278Y0463900D01*
X0032398Y0463929D01*
X0032519Y0463954D01*
X0032641Y0463976D01*
X0032764Y0463993D01*
X0032886Y0464007D01*
X0033010Y0464016D01*
X0033133Y0464022D01*
X0033257Y0464024D01*
X0049005Y0464024D01*
X0049005Y0471898D01*
X0050974Y0471898D01*
X0050974Y0473866D01*
X0060816Y0473866D01*
X0060816Y0471898D01*
X0084438Y0471898D01*
X0084438Y0473866D01*
X0094281Y0473866D01*
X0094281Y0471898D01*
X0096249Y0471898D01*
X0096249Y0464024D01*
X0299005Y0464024D01*
X0299129Y0464022D01*
X0299252Y0464016D01*
X0299376Y0464007D01*
X0299498Y0463993D01*
X0299621Y0463976D01*
X0299743Y0463954D01*
X0299864Y0463929D01*
X0299984Y0463900D01*
X0300103Y0463868D01*
X0300222Y0463831D01*
X0300339Y0463791D01*
X0300454Y0463748D01*
X0300569Y0463700D01*
X0300681Y0463649D01*
X0300792Y0463595D01*
X0300902Y0463537D01*
X0301009Y0463476D01*
X0301115Y0463411D01*
X0301218Y0463343D01*
X0301319Y0463272D01*
X0301418Y0463198D01*
X0301515Y0463121D01*
X0301609Y0463040D01*
X0301700Y0462957D01*
X0301789Y0462871D01*
X0301875Y0462782D01*
X0301958Y0462691D01*
X0302039Y0462597D01*
X0302116Y0462500D01*
X0302190Y0462401D01*
X0302261Y0462300D01*
X0302329Y0462197D01*
X0302394Y0462091D01*
X0302455Y0461984D01*
X0302513Y0461874D01*
X0302567Y0461763D01*
X0302618Y0461651D01*
X0302666Y0461536D01*
X0302709Y0461421D01*
X0302749Y0461304D01*
X0302786Y0461185D01*
X0302818Y0461066D01*
X0302847Y0460946D01*
X0302872Y0460825D01*
X0302894Y0460703D01*
X0302911Y0460580D01*
X0302925Y0460458D01*
X0302934Y0460334D01*
X0302940Y0460211D01*
X0302942Y0460087D01*
X0302942Y0089811D01*
X0302940Y0089687D01*
X0302934Y0089564D01*
X0302925Y0089440D01*
X0302911Y0089318D01*
X0302894Y0089195D01*
X0302872Y0089073D01*
X0302847Y0088952D01*
X0302818Y0088832D01*
X0302786Y0088713D01*
X0302749Y0088594D01*
X0302709Y0088477D01*
X0302666Y0088362D01*
X0302618Y0088247D01*
X0302567Y0088135D01*
X0302513Y0088024D01*
X0302455Y0087914D01*
X0302394Y0087807D01*
X0302329Y0087701D01*
X0302261Y0087598D01*
X0302190Y0087497D01*
X0302116Y0087398D01*
X0302039Y0087301D01*
X0301958Y0087207D01*
X0301875Y0087116D01*
X0301789Y0087027D01*
X0301700Y0086941D01*
X0301609Y0086858D01*
X0301515Y0086777D01*
X0301418Y0086700D01*
X0301319Y0086626D01*
X0301218Y0086555D01*
X0301115Y0086487D01*
X0301009Y0086422D01*
X0300902Y0086361D01*
X0300792Y0086303D01*
X0300681Y0086249D01*
X0300569Y0086198D01*
X0300454Y0086150D01*
X0300339Y0086107D01*
X0300222Y0086067D01*
X0300103Y0086030D01*
X0299984Y0085998D01*
X0299864Y0085969D01*
X0299743Y0085944D01*
X0299621Y0085922D01*
X0299498Y0085905D01*
X0299376Y0085891D01*
X0299252Y0085882D01*
X0299129Y0085876D01*
X0299005Y0085874D01*
X0232076Y0085874D01*
X0231952Y0085872D01*
X0231829Y0085866D01*
X0231705Y0085857D01*
X0231583Y0085843D01*
X0231460Y0085826D01*
X0231338Y0085804D01*
X0231217Y0085779D01*
X0231097Y0085750D01*
X0230978Y0085718D01*
X0230859Y0085681D01*
X0230742Y0085641D01*
X0230627Y0085598D01*
X0230512Y0085550D01*
X0230400Y0085499D01*
X0230289Y0085445D01*
X0230179Y0085387D01*
X0230072Y0085326D01*
X0229966Y0085261D01*
X0229863Y0085193D01*
X0229762Y0085122D01*
X0229663Y0085048D01*
X0229566Y0084971D01*
X0229472Y0084890D01*
X0229381Y0084807D01*
X0229292Y0084721D01*
X0229206Y0084632D01*
X0229123Y0084541D01*
X0229042Y0084447D01*
X0228965Y0084350D01*
X0228891Y0084251D01*
X0228820Y0084150D01*
X0228752Y0084047D01*
X0228687Y0083941D01*
X0228626Y0083834D01*
X0228568Y0083724D01*
X0228514Y0083613D01*
X0228463Y0083501D01*
X0228415Y0083386D01*
X0228372Y0083271D01*
X0228332Y0083154D01*
X0228295Y0083035D01*
X0228263Y0082916D01*
X0228234Y0082796D01*
X0228209Y0082675D01*
X0228187Y0082553D01*
X0228170Y0082430D01*
X0228156Y0082308D01*
X0228147Y0082184D01*
X0228141Y0082061D01*
X0228139Y0081937D01*
X0228139Y0023079D01*
X0228137Y0022955D01*
X0228131Y0022832D01*
X0228122Y0022708D01*
X0228108Y0022586D01*
X0228091Y0022463D01*
X0228069Y0022341D01*
X0228044Y0022220D01*
X0228015Y0022100D01*
X0227983Y0021981D01*
X0227946Y0021862D01*
X0227906Y0021745D01*
X0227863Y0021630D01*
X0227815Y0021515D01*
X0227764Y0021403D01*
X0227710Y0021292D01*
X0227652Y0021182D01*
X0227591Y0021075D01*
X0227526Y0020969D01*
X0227458Y0020866D01*
X0227387Y0020765D01*
X0227313Y0020666D01*
X0227236Y0020569D01*
X0227155Y0020475D01*
X0227072Y0020384D01*
X0226986Y0020295D01*
X0226897Y0020209D01*
X0226806Y0020126D01*
X0226712Y0020045D01*
X0226615Y0019968D01*
X0226516Y0019894D01*
X0226415Y0019823D01*
X0226312Y0019755D01*
X0226206Y0019690D01*
X0226099Y0019629D01*
X0225989Y0019571D01*
X0225878Y0019517D01*
X0225766Y0019466D01*
X0225651Y0019418D01*
X0225536Y0019375D01*
X0225419Y0019335D01*
X0225300Y0019298D01*
X0225181Y0019266D01*
X0225061Y0019237D01*
X0224940Y0019212D01*
X0224818Y0019190D01*
X0224695Y0019173D01*
X0224573Y0019159D01*
X0224449Y0019150D01*
X0224326Y0019144D01*
X0224202Y0019142D01*
X0033257Y0019142D01*
X0033133Y0019144D01*
X0033010Y0019150D01*
X0032886Y0019159D01*
X0032764Y0019173D01*
X0032641Y0019190D01*
X0032519Y0019212D01*
X0032398Y0019237D01*
X0032278Y0019266D01*
X0032159Y0019298D01*
X0032040Y0019335D01*
X0031923Y0019375D01*
X0031808Y0019418D01*
X0031693Y0019466D01*
X0031581Y0019517D01*
X0031470Y0019571D01*
X0031360Y0019629D01*
X0031253Y0019690D01*
X0031147Y0019755D01*
X0031044Y0019823D01*
X0030943Y0019894D01*
X0030844Y0019968D01*
X0030747Y0020045D01*
X0030653Y0020126D01*
X0030562Y0020209D01*
X0030473Y0020295D01*
X0030387Y0020384D01*
X0030304Y0020475D01*
X0030223Y0020569D01*
X0030146Y0020666D01*
X0030072Y0020765D01*
X0030001Y0020866D01*
X0029933Y0020969D01*
X0029868Y0021075D01*
X0029807Y0021182D01*
X0029749Y0021292D01*
X0029695Y0021403D01*
X0029644Y0021515D01*
X0029596Y0021630D01*
X0029553Y0021745D01*
X0029513Y0021862D01*
X0029476Y0021981D01*
X0029444Y0022100D01*
X0029415Y0022220D01*
X0029390Y0022341D01*
X0029368Y0022463D01*
X0029351Y0022586D01*
X0029337Y0022708D01*
X0029328Y0022832D01*
X0029322Y0022955D01*
X0029320Y0023079D01*
X0161210Y0025047D02*
X0161212Y0025144D01*
X0161218Y0025241D01*
X0161228Y0025337D01*
X0161242Y0025433D01*
X0161260Y0025529D01*
X0161281Y0025623D01*
X0161307Y0025717D01*
X0161336Y0025809D01*
X0161370Y0025900D01*
X0161406Y0025990D01*
X0161447Y0026078D01*
X0161491Y0026164D01*
X0161539Y0026249D01*
X0161590Y0026331D01*
X0161644Y0026412D01*
X0161702Y0026490D01*
X0161763Y0026565D01*
X0161826Y0026638D01*
X0161893Y0026709D01*
X0161963Y0026776D01*
X0162035Y0026841D01*
X0162110Y0026902D01*
X0162188Y0026961D01*
X0162267Y0027016D01*
X0162349Y0027068D01*
X0162433Y0027116D01*
X0162519Y0027161D01*
X0162607Y0027203D01*
X0162696Y0027241D01*
X0162787Y0027275D01*
X0162879Y0027305D01*
X0162972Y0027332D01*
X0163067Y0027354D01*
X0163162Y0027373D01*
X0163258Y0027388D01*
X0163354Y0027399D01*
X0163451Y0027406D01*
X0163548Y0027409D01*
X0163645Y0027408D01*
X0163742Y0027403D01*
X0163838Y0027394D01*
X0163934Y0027381D01*
X0164030Y0027364D01*
X0164125Y0027343D01*
X0164218Y0027319D01*
X0164311Y0027290D01*
X0164403Y0027258D01*
X0164493Y0027222D01*
X0164581Y0027183D01*
X0164668Y0027139D01*
X0164753Y0027093D01*
X0164836Y0027042D01*
X0164917Y0026989D01*
X0164995Y0026932D01*
X0165072Y0026872D01*
X0165145Y0026809D01*
X0165216Y0026743D01*
X0165284Y0026674D01*
X0165350Y0026602D01*
X0165412Y0026528D01*
X0165471Y0026451D01*
X0165527Y0026372D01*
X0165580Y0026290D01*
X0165630Y0026207D01*
X0165675Y0026121D01*
X0165718Y0026034D01*
X0165757Y0025945D01*
X0165792Y0025855D01*
X0165823Y0025763D01*
X0165850Y0025670D01*
X0165874Y0025576D01*
X0165894Y0025481D01*
X0165910Y0025385D01*
X0165922Y0025289D01*
X0165930Y0025192D01*
X0165934Y0025095D01*
X0165934Y0024999D01*
X0165930Y0024902D01*
X0165922Y0024805D01*
X0165910Y0024709D01*
X0165894Y0024613D01*
X0165874Y0024518D01*
X0165850Y0024424D01*
X0165823Y0024331D01*
X0165792Y0024239D01*
X0165757Y0024149D01*
X0165718Y0024060D01*
X0165675Y0023973D01*
X0165630Y0023887D01*
X0165580Y0023804D01*
X0165527Y0023722D01*
X0165471Y0023643D01*
X0165412Y0023566D01*
X0165350Y0023492D01*
X0165284Y0023420D01*
X0165216Y0023351D01*
X0165145Y0023285D01*
X0165072Y0023222D01*
X0164995Y0023162D01*
X0164917Y0023105D01*
X0164836Y0023052D01*
X0164753Y0023001D01*
X0164668Y0022955D01*
X0164581Y0022911D01*
X0164493Y0022872D01*
X0164403Y0022836D01*
X0164311Y0022804D01*
X0164218Y0022775D01*
X0164125Y0022751D01*
X0164030Y0022730D01*
X0163934Y0022713D01*
X0163838Y0022700D01*
X0163742Y0022691D01*
X0163645Y0022686D01*
X0163548Y0022685D01*
X0163451Y0022688D01*
X0163354Y0022695D01*
X0163258Y0022706D01*
X0163162Y0022721D01*
X0163067Y0022740D01*
X0162972Y0022762D01*
X0162879Y0022789D01*
X0162787Y0022819D01*
X0162696Y0022853D01*
X0162607Y0022891D01*
X0162519Y0022933D01*
X0162433Y0022978D01*
X0162349Y0023026D01*
X0162267Y0023078D01*
X0162188Y0023133D01*
X0162110Y0023192D01*
X0162035Y0023253D01*
X0161963Y0023318D01*
X0161893Y0023385D01*
X0161826Y0023456D01*
X0161763Y0023529D01*
X0161702Y0023604D01*
X0161644Y0023682D01*
X0161590Y0023763D01*
X0161539Y0023845D01*
X0161491Y0023930D01*
X0161447Y0024016D01*
X0161406Y0024104D01*
X0161370Y0024194D01*
X0161336Y0024285D01*
X0161307Y0024377D01*
X0161281Y0024471D01*
X0161260Y0024565D01*
X0161242Y0024661D01*
X0161228Y0024757D01*
X0161218Y0024853D01*
X0161212Y0024950D01*
X0161210Y0025047D01*
X0161210Y0034890D02*
X0161212Y0034987D01*
X0161218Y0035084D01*
X0161228Y0035180D01*
X0161242Y0035276D01*
X0161260Y0035372D01*
X0161281Y0035466D01*
X0161307Y0035560D01*
X0161336Y0035652D01*
X0161370Y0035743D01*
X0161406Y0035833D01*
X0161447Y0035921D01*
X0161491Y0036007D01*
X0161539Y0036092D01*
X0161590Y0036174D01*
X0161644Y0036255D01*
X0161702Y0036333D01*
X0161763Y0036408D01*
X0161826Y0036481D01*
X0161893Y0036552D01*
X0161963Y0036619D01*
X0162035Y0036684D01*
X0162110Y0036745D01*
X0162188Y0036804D01*
X0162267Y0036859D01*
X0162349Y0036911D01*
X0162433Y0036959D01*
X0162519Y0037004D01*
X0162607Y0037046D01*
X0162696Y0037084D01*
X0162787Y0037118D01*
X0162879Y0037148D01*
X0162972Y0037175D01*
X0163067Y0037197D01*
X0163162Y0037216D01*
X0163258Y0037231D01*
X0163354Y0037242D01*
X0163451Y0037249D01*
X0163548Y0037252D01*
X0163645Y0037251D01*
X0163742Y0037246D01*
X0163838Y0037237D01*
X0163934Y0037224D01*
X0164030Y0037207D01*
X0164125Y0037186D01*
X0164218Y0037162D01*
X0164311Y0037133D01*
X0164403Y0037101D01*
X0164493Y0037065D01*
X0164581Y0037026D01*
X0164668Y0036982D01*
X0164753Y0036936D01*
X0164836Y0036885D01*
X0164917Y0036832D01*
X0164995Y0036775D01*
X0165072Y0036715D01*
X0165145Y0036652D01*
X0165216Y0036586D01*
X0165284Y0036517D01*
X0165350Y0036445D01*
X0165412Y0036371D01*
X0165471Y0036294D01*
X0165527Y0036215D01*
X0165580Y0036133D01*
X0165630Y0036050D01*
X0165675Y0035964D01*
X0165718Y0035877D01*
X0165757Y0035788D01*
X0165792Y0035698D01*
X0165823Y0035606D01*
X0165850Y0035513D01*
X0165874Y0035419D01*
X0165894Y0035324D01*
X0165910Y0035228D01*
X0165922Y0035132D01*
X0165930Y0035035D01*
X0165934Y0034938D01*
X0165934Y0034842D01*
X0165930Y0034745D01*
X0165922Y0034648D01*
X0165910Y0034552D01*
X0165894Y0034456D01*
X0165874Y0034361D01*
X0165850Y0034267D01*
X0165823Y0034174D01*
X0165792Y0034082D01*
X0165757Y0033992D01*
X0165718Y0033903D01*
X0165675Y0033816D01*
X0165630Y0033730D01*
X0165580Y0033647D01*
X0165527Y0033565D01*
X0165471Y0033486D01*
X0165412Y0033409D01*
X0165350Y0033335D01*
X0165284Y0033263D01*
X0165216Y0033194D01*
X0165145Y0033128D01*
X0165072Y0033065D01*
X0164995Y0033005D01*
X0164917Y0032948D01*
X0164836Y0032895D01*
X0164753Y0032844D01*
X0164668Y0032798D01*
X0164581Y0032754D01*
X0164493Y0032715D01*
X0164403Y0032679D01*
X0164311Y0032647D01*
X0164218Y0032618D01*
X0164125Y0032594D01*
X0164030Y0032573D01*
X0163934Y0032556D01*
X0163838Y0032543D01*
X0163742Y0032534D01*
X0163645Y0032529D01*
X0163548Y0032528D01*
X0163451Y0032531D01*
X0163354Y0032538D01*
X0163258Y0032549D01*
X0163162Y0032564D01*
X0163067Y0032583D01*
X0162972Y0032605D01*
X0162879Y0032632D01*
X0162787Y0032662D01*
X0162696Y0032696D01*
X0162607Y0032734D01*
X0162519Y0032776D01*
X0162433Y0032821D01*
X0162349Y0032869D01*
X0162267Y0032921D01*
X0162188Y0032976D01*
X0162110Y0033035D01*
X0162035Y0033096D01*
X0161963Y0033161D01*
X0161893Y0033228D01*
X0161826Y0033299D01*
X0161763Y0033372D01*
X0161702Y0033447D01*
X0161644Y0033525D01*
X0161590Y0033606D01*
X0161539Y0033688D01*
X0161491Y0033773D01*
X0161447Y0033859D01*
X0161406Y0033947D01*
X0161370Y0034037D01*
X0161336Y0034128D01*
X0161307Y0034220D01*
X0161281Y0034314D01*
X0161260Y0034408D01*
X0161242Y0034504D01*
X0161228Y0034600D01*
X0161218Y0034696D01*
X0161212Y0034793D01*
X0161210Y0034890D01*
X0180895Y0054575D02*
X0180897Y0054672D01*
X0180903Y0054769D01*
X0180913Y0054865D01*
X0180927Y0054961D01*
X0180945Y0055057D01*
X0180966Y0055151D01*
X0180992Y0055245D01*
X0181021Y0055337D01*
X0181055Y0055428D01*
X0181091Y0055518D01*
X0181132Y0055606D01*
X0181176Y0055692D01*
X0181224Y0055777D01*
X0181275Y0055859D01*
X0181329Y0055940D01*
X0181387Y0056018D01*
X0181448Y0056093D01*
X0181511Y0056166D01*
X0181578Y0056237D01*
X0181648Y0056304D01*
X0181720Y0056369D01*
X0181795Y0056430D01*
X0181873Y0056489D01*
X0181952Y0056544D01*
X0182034Y0056596D01*
X0182118Y0056644D01*
X0182204Y0056689D01*
X0182292Y0056731D01*
X0182381Y0056769D01*
X0182472Y0056803D01*
X0182564Y0056833D01*
X0182657Y0056860D01*
X0182752Y0056882D01*
X0182847Y0056901D01*
X0182943Y0056916D01*
X0183039Y0056927D01*
X0183136Y0056934D01*
X0183233Y0056937D01*
X0183330Y0056936D01*
X0183427Y0056931D01*
X0183523Y0056922D01*
X0183619Y0056909D01*
X0183715Y0056892D01*
X0183810Y0056871D01*
X0183903Y0056847D01*
X0183996Y0056818D01*
X0184088Y0056786D01*
X0184178Y0056750D01*
X0184266Y0056711D01*
X0184353Y0056667D01*
X0184438Y0056621D01*
X0184521Y0056570D01*
X0184602Y0056517D01*
X0184680Y0056460D01*
X0184757Y0056400D01*
X0184830Y0056337D01*
X0184901Y0056271D01*
X0184969Y0056202D01*
X0185035Y0056130D01*
X0185097Y0056056D01*
X0185156Y0055979D01*
X0185212Y0055900D01*
X0185265Y0055818D01*
X0185315Y0055735D01*
X0185360Y0055649D01*
X0185403Y0055562D01*
X0185442Y0055473D01*
X0185477Y0055383D01*
X0185508Y0055291D01*
X0185535Y0055198D01*
X0185559Y0055104D01*
X0185579Y0055009D01*
X0185595Y0054913D01*
X0185607Y0054817D01*
X0185615Y0054720D01*
X0185619Y0054623D01*
X0185619Y0054527D01*
X0185615Y0054430D01*
X0185607Y0054333D01*
X0185595Y0054237D01*
X0185579Y0054141D01*
X0185559Y0054046D01*
X0185535Y0053952D01*
X0185508Y0053859D01*
X0185477Y0053767D01*
X0185442Y0053677D01*
X0185403Y0053588D01*
X0185360Y0053501D01*
X0185315Y0053415D01*
X0185265Y0053332D01*
X0185212Y0053250D01*
X0185156Y0053171D01*
X0185097Y0053094D01*
X0185035Y0053020D01*
X0184969Y0052948D01*
X0184901Y0052879D01*
X0184830Y0052813D01*
X0184757Y0052750D01*
X0184680Y0052690D01*
X0184602Y0052633D01*
X0184521Y0052580D01*
X0184438Y0052529D01*
X0184353Y0052483D01*
X0184266Y0052439D01*
X0184178Y0052400D01*
X0184088Y0052364D01*
X0183996Y0052332D01*
X0183903Y0052303D01*
X0183810Y0052279D01*
X0183715Y0052258D01*
X0183619Y0052241D01*
X0183523Y0052228D01*
X0183427Y0052219D01*
X0183330Y0052214D01*
X0183233Y0052213D01*
X0183136Y0052216D01*
X0183039Y0052223D01*
X0182943Y0052234D01*
X0182847Y0052249D01*
X0182752Y0052268D01*
X0182657Y0052290D01*
X0182564Y0052317D01*
X0182472Y0052347D01*
X0182381Y0052381D01*
X0182292Y0052419D01*
X0182204Y0052461D01*
X0182118Y0052506D01*
X0182034Y0052554D01*
X0181952Y0052606D01*
X0181873Y0052661D01*
X0181795Y0052720D01*
X0181720Y0052781D01*
X0181648Y0052846D01*
X0181578Y0052913D01*
X0181511Y0052984D01*
X0181448Y0053057D01*
X0181387Y0053132D01*
X0181329Y0053210D01*
X0181275Y0053291D01*
X0181224Y0053373D01*
X0181176Y0053458D01*
X0181132Y0053544D01*
X0181091Y0053632D01*
X0181055Y0053722D01*
X0181021Y0053813D01*
X0180992Y0053905D01*
X0180966Y0053999D01*
X0180945Y0054093D01*
X0180927Y0054189D01*
X0180913Y0054285D01*
X0180903Y0054381D01*
X0180897Y0054478D01*
X0180895Y0054575D01*
X0200580Y0034890D02*
X0200582Y0034987D01*
X0200588Y0035084D01*
X0200598Y0035180D01*
X0200612Y0035276D01*
X0200630Y0035372D01*
X0200651Y0035466D01*
X0200677Y0035560D01*
X0200706Y0035652D01*
X0200740Y0035743D01*
X0200776Y0035833D01*
X0200817Y0035921D01*
X0200861Y0036007D01*
X0200909Y0036092D01*
X0200960Y0036174D01*
X0201014Y0036255D01*
X0201072Y0036333D01*
X0201133Y0036408D01*
X0201196Y0036481D01*
X0201263Y0036552D01*
X0201333Y0036619D01*
X0201405Y0036684D01*
X0201480Y0036745D01*
X0201558Y0036804D01*
X0201637Y0036859D01*
X0201719Y0036911D01*
X0201803Y0036959D01*
X0201889Y0037004D01*
X0201977Y0037046D01*
X0202066Y0037084D01*
X0202157Y0037118D01*
X0202249Y0037148D01*
X0202342Y0037175D01*
X0202437Y0037197D01*
X0202532Y0037216D01*
X0202628Y0037231D01*
X0202724Y0037242D01*
X0202821Y0037249D01*
X0202918Y0037252D01*
X0203015Y0037251D01*
X0203112Y0037246D01*
X0203208Y0037237D01*
X0203304Y0037224D01*
X0203400Y0037207D01*
X0203495Y0037186D01*
X0203588Y0037162D01*
X0203681Y0037133D01*
X0203773Y0037101D01*
X0203863Y0037065D01*
X0203951Y0037026D01*
X0204038Y0036982D01*
X0204123Y0036936D01*
X0204206Y0036885D01*
X0204287Y0036832D01*
X0204365Y0036775D01*
X0204442Y0036715D01*
X0204515Y0036652D01*
X0204586Y0036586D01*
X0204654Y0036517D01*
X0204720Y0036445D01*
X0204782Y0036371D01*
X0204841Y0036294D01*
X0204897Y0036215D01*
X0204950Y0036133D01*
X0205000Y0036050D01*
X0205045Y0035964D01*
X0205088Y0035877D01*
X0205127Y0035788D01*
X0205162Y0035698D01*
X0205193Y0035606D01*
X0205220Y0035513D01*
X0205244Y0035419D01*
X0205264Y0035324D01*
X0205280Y0035228D01*
X0205292Y0035132D01*
X0205300Y0035035D01*
X0205304Y0034938D01*
X0205304Y0034842D01*
X0205300Y0034745D01*
X0205292Y0034648D01*
X0205280Y0034552D01*
X0205264Y0034456D01*
X0205244Y0034361D01*
X0205220Y0034267D01*
X0205193Y0034174D01*
X0205162Y0034082D01*
X0205127Y0033992D01*
X0205088Y0033903D01*
X0205045Y0033816D01*
X0205000Y0033730D01*
X0204950Y0033647D01*
X0204897Y0033565D01*
X0204841Y0033486D01*
X0204782Y0033409D01*
X0204720Y0033335D01*
X0204654Y0033263D01*
X0204586Y0033194D01*
X0204515Y0033128D01*
X0204442Y0033065D01*
X0204365Y0033005D01*
X0204287Y0032948D01*
X0204206Y0032895D01*
X0204123Y0032844D01*
X0204038Y0032798D01*
X0203951Y0032754D01*
X0203863Y0032715D01*
X0203773Y0032679D01*
X0203681Y0032647D01*
X0203588Y0032618D01*
X0203495Y0032594D01*
X0203400Y0032573D01*
X0203304Y0032556D01*
X0203208Y0032543D01*
X0203112Y0032534D01*
X0203015Y0032529D01*
X0202918Y0032528D01*
X0202821Y0032531D01*
X0202724Y0032538D01*
X0202628Y0032549D01*
X0202532Y0032564D01*
X0202437Y0032583D01*
X0202342Y0032605D01*
X0202249Y0032632D01*
X0202157Y0032662D01*
X0202066Y0032696D01*
X0201977Y0032734D01*
X0201889Y0032776D01*
X0201803Y0032821D01*
X0201719Y0032869D01*
X0201637Y0032921D01*
X0201558Y0032976D01*
X0201480Y0033035D01*
X0201405Y0033096D01*
X0201333Y0033161D01*
X0201263Y0033228D01*
X0201196Y0033299D01*
X0201133Y0033372D01*
X0201072Y0033447D01*
X0201014Y0033525D01*
X0200960Y0033606D01*
X0200909Y0033688D01*
X0200861Y0033773D01*
X0200817Y0033859D01*
X0200776Y0033947D01*
X0200740Y0034037D01*
X0200706Y0034128D01*
X0200677Y0034220D01*
X0200651Y0034314D01*
X0200630Y0034408D01*
X0200612Y0034504D01*
X0200598Y0034600D01*
X0200588Y0034696D01*
X0200582Y0034793D01*
X0200580Y0034890D01*
X0200580Y0025047D02*
X0200582Y0025144D01*
X0200588Y0025241D01*
X0200598Y0025337D01*
X0200612Y0025433D01*
X0200630Y0025529D01*
X0200651Y0025623D01*
X0200677Y0025717D01*
X0200706Y0025809D01*
X0200740Y0025900D01*
X0200776Y0025990D01*
X0200817Y0026078D01*
X0200861Y0026164D01*
X0200909Y0026249D01*
X0200960Y0026331D01*
X0201014Y0026412D01*
X0201072Y0026490D01*
X0201133Y0026565D01*
X0201196Y0026638D01*
X0201263Y0026709D01*
X0201333Y0026776D01*
X0201405Y0026841D01*
X0201480Y0026902D01*
X0201558Y0026961D01*
X0201637Y0027016D01*
X0201719Y0027068D01*
X0201803Y0027116D01*
X0201889Y0027161D01*
X0201977Y0027203D01*
X0202066Y0027241D01*
X0202157Y0027275D01*
X0202249Y0027305D01*
X0202342Y0027332D01*
X0202437Y0027354D01*
X0202532Y0027373D01*
X0202628Y0027388D01*
X0202724Y0027399D01*
X0202821Y0027406D01*
X0202918Y0027409D01*
X0203015Y0027408D01*
X0203112Y0027403D01*
X0203208Y0027394D01*
X0203304Y0027381D01*
X0203400Y0027364D01*
X0203495Y0027343D01*
X0203588Y0027319D01*
X0203681Y0027290D01*
X0203773Y0027258D01*
X0203863Y0027222D01*
X0203951Y0027183D01*
X0204038Y0027139D01*
X0204123Y0027093D01*
X0204206Y0027042D01*
X0204287Y0026989D01*
X0204365Y0026932D01*
X0204442Y0026872D01*
X0204515Y0026809D01*
X0204586Y0026743D01*
X0204654Y0026674D01*
X0204720Y0026602D01*
X0204782Y0026528D01*
X0204841Y0026451D01*
X0204897Y0026372D01*
X0204950Y0026290D01*
X0205000Y0026207D01*
X0205045Y0026121D01*
X0205088Y0026034D01*
X0205127Y0025945D01*
X0205162Y0025855D01*
X0205193Y0025763D01*
X0205220Y0025670D01*
X0205244Y0025576D01*
X0205264Y0025481D01*
X0205280Y0025385D01*
X0205292Y0025289D01*
X0205300Y0025192D01*
X0205304Y0025095D01*
X0205304Y0024999D01*
X0205300Y0024902D01*
X0205292Y0024805D01*
X0205280Y0024709D01*
X0205264Y0024613D01*
X0205244Y0024518D01*
X0205220Y0024424D01*
X0205193Y0024331D01*
X0205162Y0024239D01*
X0205127Y0024149D01*
X0205088Y0024060D01*
X0205045Y0023973D01*
X0205000Y0023887D01*
X0204950Y0023804D01*
X0204897Y0023722D01*
X0204841Y0023643D01*
X0204782Y0023566D01*
X0204720Y0023492D01*
X0204654Y0023420D01*
X0204586Y0023351D01*
X0204515Y0023285D01*
X0204442Y0023222D01*
X0204365Y0023162D01*
X0204287Y0023105D01*
X0204206Y0023052D01*
X0204123Y0023001D01*
X0204038Y0022955D01*
X0203951Y0022911D01*
X0203863Y0022872D01*
X0203773Y0022836D01*
X0203681Y0022804D01*
X0203588Y0022775D01*
X0203495Y0022751D01*
X0203400Y0022730D01*
X0203304Y0022713D01*
X0203208Y0022700D01*
X0203112Y0022691D01*
X0203015Y0022686D01*
X0202918Y0022685D01*
X0202821Y0022688D01*
X0202724Y0022695D01*
X0202628Y0022706D01*
X0202532Y0022721D01*
X0202437Y0022740D01*
X0202342Y0022762D01*
X0202249Y0022789D01*
X0202157Y0022819D01*
X0202066Y0022853D01*
X0201977Y0022891D01*
X0201889Y0022933D01*
X0201803Y0022978D01*
X0201719Y0023026D01*
X0201637Y0023078D01*
X0201558Y0023133D01*
X0201480Y0023192D01*
X0201405Y0023253D01*
X0201333Y0023318D01*
X0201263Y0023385D01*
X0201196Y0023456D01*
X0201133Y0023529D01*
X0201072Y0023604D01*
X0201014Y0023682D01*
X0200960Y0023763D01*
X0200909Y0023845D01*
X0200861Y0023930D01*
X0200817Y0024016D01*
X0200776Y0024104D01*
X0200740Y0024194D01*
X0200706Y0024285D01*
X0200677Y0024377D01*
X0200651Y0024471D01*
X0200630Y0024565D01*
X0200612Y0024661D01*
X0200598Y0024757D01*
X0200588Y0024853D01*
X0200582Y0024950D01*
X0200580Y0025047D01*
X0261288Y0114457D02*
X0261290Y0114545D01*
X0261296Y0114633D01*
X0261306Y0114721D01*
X0261320Y0114809D01*
X0261337Y0114895D01*
X0261359Y0114981D01*
X0261384Y0115065D01*
X0261414Y0115149D01*
X0261446Y0115231D01*
X0261483Y0115311D01*
X0261523Y0115390D01*
X0261567Y0115467D01*
X0261614Y0115542D01*
X0261664Y0115614D01*
X0261718Y0115685D01*
X0261774Y0115752D01*
X0261834Y0115818D01*
X0261896Y0115880D01*
X0261962Y0115940D01*
X0262029Y0115996D01*
X0262100Y0116050D01*
X0262172Y0116100D01*
X0262247Y0116147D01*
X0262324Y0116191D01*
X0262403Y0116231D01*
X0262483Y0116268D01*
X0262565Y0116300D01*
X0262649Y0116330D01*
X0262733Y0116355D01*
X0262819Y0116377D01*
X0262905Y0116394D01*
X0262993Y0116408D01*
X0263081Y0116418D01*
X0263169Y0116424D01*
X0263257Y0116426D01*
X0263345Y0116424D01*
X0263433Y0116418D01*
X0263521Y0116408D01*
X0263609Y0116394D01*
X0263695Y0116377D01*
X0263781Y0116355D01*
X0263865Y0116330D01*
X0263949Y0116300D01*
X0264031Y0116268D01*
X0264111Y0116231D01*
X0264190Y0116191D01*
X0264267Y0116147D01*
X0264342Y0116100D01*
X0264414Y0116050D01*
X0264485Y0115996D01*
X0264552Y0115940D01*
X0264618Y0115880D01*
X0264680Y0115818D01*
X0264740Y0115752D01*
X0264796Y0115685D01*
X0264850Y0115614D01*
X0264900Y0115542D01*
X0264947Y0115467D01*
X0264991Y0115390D01*
X0265031Y0115311D01*
X0265068Y0115231D01*
X0265100Y0115149D01*
X0265130Y0115065D01*
X0265155Y0114981D01*
X0265177Y0114895D01*
X0265194Y0114809D01*
X0265208Y0114721D01*
X0265218Y0114633D01*
X0265224Y0114545D01*
X0265226Y0114457D01*
X0265224Y0114369D01*
X0265218Y0114281D01*
X0265208Y0114193D01*
X0265194Y0114105D01*
X0265177Y0114019D01*
X0265155Y0113933D01*
X0265130Y0113849D01*
X0265100Y0113765D01*
X0265068Y0113683D01*
X0265031Y0113603D01*
X0264991Y0113524D01*
X0264947Y0113447D01*
X0264900Y0113372D01*
X0264850Y0113300D01*
X0264796Y0113229D01*
X0264740Y0113162D01*
X0264680Y0113096D01*
X0264618Y0113034D01*
X0264552Y0112974D01*
X0264485Y0112918D01*
X0264414Y0112864D01*
X0264342Y0112814D01*
X0264267Y0112767D01*
X0264190Y0112723D01*
X0264111Y0112683D01*
X0264031Y0112646D01*
X0263949Y0112614D01*
X0263865Y0112584D01*
X0263781Y0112559D01*
X0263695Y0112537D01*
X0263609Y0112520D01*
X0263521Y0112506D01*
X0263433Y0112496D01*
X0263345Y0112490D01*
X0263257Y0112488D01*
X0263169Y0112490D01*
X0263081Y0112496D01*
X0262993Y0112506D01*
X0262905Y0112520D01*
X0262819Y0112537D01*
X0262733Y0112559D01*
X0262649Y0112584D01*
X0262565Y0112614D01*
X0262483Y0112646D01*
X0262403Y0112683D01*
X0262324Y0112723D01*
X0262247Y0112767D01*
X0262172Y0112814D01*
X0262100Y0112864D01*
X0262029Y0112918D01*
X0261962Y0112974D01*
X0261896Y0113034D01*
X0261834Y0113096D01*
X0261774Y0113162D01*
X0261718Y0113229D01*
X0261664Y0113300D01*
X0261614Y0113372D01*
X0261567Y0113447D01*
X0261523Y0113524D01*
X0261483Y0113603D01*
X0261446Y0113683D01*
X0261414Y0113765D01*
X0261384Y0113849D01*
X0261359Y0113933D01*
X0261337Y0114019D01*
X0261320Y0114105D01*
X0261306Y0114193D01*
X0261296Y0114281D01*
X0261290Y0114369D01*
X0261288Y0114457D01*
X0229792Y0212882D02*
X0229794Y0212970D01*
X0229800Y0213058D01*
X0229810Y0213146D01*
X0229824Y0213234D01*
X0229841Y0213320D01*
X0229863Y0213406D01*
X0229888Y0213490D01*
X0229918Y0213574D01*
X0229950Y0213656D01*
X0229987Y0213736D01*
X0230027Y0213815D01*
X0230071Y0213892D01*
X0230118Y0213967D01*
X0230168Y0214039D01*
X0230222Y0214110D01*
X0230278Y0214177D01*
X0230338Y0214243D01*
X0230400Y0214305D01*
X0230466Y0214365D01*
X0230533Y0214421D01*
X0230604Y0214475D01*
X0230676Y0214525D01*
X0230751Y0214572D01*
X0230828Y0214616D01*
X0230907Y0214656D01*
X0230987Y0214693D01*
X0231069Y0214725D01*
X0231153Y0214755D01*
X0231237Y0214780D01*
X0231323Y0214802D01*
X0231409Y0214819D01*
X0231497Y0214833D01*
X0231585Y0214843D01*
X0231673Y0214849D01*
X0231761Y0214851D01*
X0231849Y0214849D01*
X0231937Y0214843D01*
X0232025Y0214833D01*
X0232113Y0214819D01*
X0232199Y0214802D01*
X0232285Y0214780D01*
X0232369Y0214755D01*
X0232453Y0214725D01*
X0232535Y0214693D01*
X0232615Y0214656D01*
X0232694Y0214616D01*
X0232771Y0214572D01*
X0232846Y0214525D01*
X0232918Y0214475D01*
X0232989Y0214421D01*
X0233056Y0214365D01*
X0233122Y0214305D01*
X0233184Y0214243D01*
X0233244Y0214177D01*
X0233300Y0214110D01*
X0233354Y0214039D01*
X0233404Y0213967D01*
X0233451Y0213892D01*
X0233495Y0213815D01*
X0233535Y0213736D01*
X0233572Y0213656D01*
X0233604Y0213574D01*
X0233634Y0213490D01*
X0233659Y0213406D01*
X0233681Y0213320D01*
X0233698Y0213234D01*
X0233712Y0213146D01*
X0233722Y0213058D01*
X0233728Y0212970D01*
X0233730Y0212882D01*
X0233728Y0212794D01*
X0233722Y0212706D01*
X0233712Y0212618D01*
X0233698Y0212530D01*
X0233681Y0212444D01*
X0233659Y0212358D01*
X0233634Y0212274D01*
X0233604Y0212190D01*
X0233572Y0212108D01*
X0233535Y0212028D01*
X0233495Y0211949D01*
X0233451Y0211872D01*
X0233404Y0211797D01*
X0233354Y0211725D01*
X0233300Y0211654D01*
X0233244Y0211587D01*
X0233184Y0211521D01*
X0233122Y0211459D01*
X0233056Y0211399D01*
X0232989Y0211343D01*
X0232918Y0211289D01*
X0232846Y0211239D01*
X0232771Y0211192D01*
X0232694Y0211148D01*
X0232615Y0211108D01*
X0232535Y0211071D01*
X0232453Y0211039D01*
X0232369Y0211009D01*
X0232285Y0210984D01*
X0232199Y0210962D01*
X0232113Y0210945D01*
X0232025Y0210931D01*
X0231937Y0210921D01*
X0231849Y0210915D01*
X0231761Y0210913D01*
X0231673Y0210915D01*
X0231585Y0210921D01*
X0231497Y0210931D01*
X0231409Y0210945D01*
X0231323Y0210962D01*
X0231237Y0210984D01*
X0231153Y0211009D01*
X0231069Y0211039D01*
X0230987Y0211071D01*
X0230907Y0211108D01*
X0230828Y0211148D01*
X0230751Y0211192D01*
X0230676Y0211239D01*
X0230604Y0211289D01*
X0230533Y0211343D01*
X0230466Y0211399D01*
X0230400Y0211459D01*
X0230338Y0211521D01*
X0230278Y0211587D01*
X0230222Y0211654D01*
X0230168Y0211725D01*
X0230118Y0211797D01*
X0230071Y0211872D01*
X0230027Y0211949D01*
X0229987Y0212028D01*
X0229950Y0212108D01*
X0229918Y0212190D01*
X0229888Y0212274D01*
X0229863Y0212358D01*
X0229841Y0212444D01*
X0229824Y0212530D01*
X0229810Y0212618D01*
X0229800Y0212706D01*
X0229794Y0212794D01*
X0229792Y0212882D01*
X0174674Y0189260D02*
X0174676Y0189348D01*
X0174682Y0189436D01*
X0174692Y0189524D01*
X0174706Y0189612D01*
X0174723Y0189698D01*
X0174745Y0189784D01*
X0174770Y0189868D01*
X0174800Y0189952D01*
X0174832Y0190034D01*
X0174869Y0190114D01*
X0174909Y0190193D01*
X0174953Y0190270D01*
X0175000Y0190345D01*
X0175050Y0190417D01*
X0175104Y0190488D01*
X0175160Y0190555D01*
X0175220Y0190621D01*
X0175282Y0190683D01*
X0175348Y0190743D01*
X0175415Y0190799D01*
X0175486Y0190853D01*
X0175558Y0190903D01*
X0175633Y0190950D01*
X0175710Y0190994D01*
X0175789Y0191034D01*
X0175869Y0191071D01*
X0175951Y0191103D01*
X0176035Y0191133D01*
X0176119Y0191158D01*
X0176205Y0191180D01*
X0176291Y0191197D01*
X0176379Y0191211D01*
X0176467Y0191221D01*
X0176555Y0191227D01*
X0176643Y0191229D01*
X0176731Y0191227D01*
X0176819Y0191221D01*
X0176907Y0191211D01*
X0176995Y0191197D01*
X0177081Y0191180D01*
X0177167Y0191158D01*
X0177251Y0191133D01*
X0177335Y0191103D01*
X0177417Y0191071D01*
X0177497Y0191034D01*
X0177576Y0190994D01*
X0177653Y0190950D01*
X0177728Y0190903D01*
X0177800Y0190853D01*
X0177871Y0190799D01*
X0177938Y0190743D01*
X0178004Y0190683D01*
X0178066Y0190621D01*
X0178126Y0190555D01*
X0178182Y0190488D01*
X0178236Y0190417D01*
X0178286Y0190345D01*
X0178333Y0190270D01*
X0178377Y0190193D01*
X0178417Y0190114D01*
X0178454Y0190034D01*
X0178486Y0189952D01*
X0178516Y0189868D01*
X0178541Y0189784D01*
X0178563Y0189698D01*
X0178580Y0189612D01*
X0178594Y0189524D01*
X0178604Y0189436D01*
X0178610Y0189348D01*
X0178612Y0189260D01*
X0178610Y0189172D01*
X0178604Y0189084D01*
X0178594Y0188996D01*
X0178580Y0188908D01*
X0178563Y0188822D01*
X0178541Y0188736D01*
X0178516Y0188652D01*
X0178486Y0188568D01*
X0178454Y0188486D01*
X0178417Y0188406D01*
X0178377Y0188327D01*
X0178333Y0188250D01*
X0178286Y0188175D01*
X0178236Y0188103D01*
X0178182Y0188032D01*
X0178126Y0187965D01*
X0178066Y0187899D01*
X0178004Y0187837D01*
X0177938Y0187777D01*
X0177871Y0187721D01*
X0177800Y0187667D01*
X0177728Y0187617D01*
X0177653Y0187570D01*
X0177576Y0187526D01*
X0177497Y0187486D01*
X0177417Y0187449D01*
X0177335Y0187417D01*
X0177251Y0187387D01*
X0177167Y0187362D01*
X0177081Y0187340D01*
X0176995Y0187323D01*
X0176907Y0187309D01*
X0176819Y0187299D01*
X0176731Y0187293D01*
X0176643Y0187291D01*
X0176555Y0187293D01*
X0176467Y0187299D01*
X0176379Y0187309D01*
X0176291Y0187323D01*
X0176205Y0187340D01*
X0176119Y0187362D01*
X0176035Y0187387D01*
X0175951Y0187417D01*
X0175869Y0187449D01*
X0175789Y0187486D01*
X0175710Y0187526D01*
X0175633Y0187570D01*
X0175558Y0187617D01*
X0175486Y0187667D01*
X0175415Y0187721D01*
X0175348Y0187777D01*
X0175282Y0187837D01*
X0175220Y0187899D01*
X0175160Y0187965D01*
X0175104Y0188032D01*
X0175050Y0188103D01*
X0175000Y0188175D01*
X0174953Y0188250D01*
X0174909Y0188327D01*
X0174869Y0188406D01*
X0174832Y0188486D01*
X0174800Y0188568D01*
X0174770Y0188652D01*
X0174745Y0188736D01*
X0174723Y0188822D01*
X0174706Y0188908D01*
X0174692Y0188996D01*
X0174682Y0189084D01*
X0174676Y0189172D01*
X0174674Y0189260D01*
X0162863Y0130205D02*
X0162865Y0130293D01*
X0162871Y0130381D01*
X0162881Y0130469D01*
X0162895Y0130557D01*
X0162912Y0130643D01*
X0162934Y0130729D01*
X0162959Y0130813D01*
X0162989Y0130897D01*
X0163021Y0130979D01*
X0163058Y0131059D01*
X0163098Y0131138D01*
X0163142Y0131215D01*
X0163189Y0131290D01*
X0163239Y0131362D01*
X0163293Y0131433D01*
X0163349Y0131500D01*
X0163409Y0131566D01*
X0163471Y0131628D01*
X0163537Y0131688D01*
X0163604Y0131744D01*
X0163675Y0131798D01*
X0163747Y0131848D01*
X0163822Y0131895D01*
X0163899Y0131939D01*
X0163978Y0131979D01*
X0164058Y0132016D01*
X0164140Y0132048D01*
X0164224Y0132078D01*
X0164308Y0132103D01*
X0164394Y0132125D01*
X0164480Y0132142D01*
X0164568Y0132156D01*
X0164656Y0132166D01*
X0164744Y0132172D01*
X0164832Y0132174D01*
X0164920Y0132172D01*
X0165008Y0132166D01*
X0165096Y0132156D01*
X0165184Y0132142D01*
X0165270Y0132125D01*
X0165356Y0132103D01*
X0165440Y0132078D01*
X0165524Y0132048D01*
X0165606Y0132016D01*
X0165686Y0131979D01*
X0165765Y0131939D01*
X0165842Y0131895D01*
X0165917Y0131848D01*
X0165989Y0131798D01*
X0166060Y0131744D01*
X0166127Y0131688D01*
X0166193Y0131628D01*
X0166255Y0131566D01*
X0166315Y0131500D01*
X0166371Y0131433D01*
X0166425Y0131362D01*
X0166475Y0131290D01*
X0166522Y0131215D01*
X0166566Y0131138D01*
X0166606Y0131059D01*
X0166643Y0130979D01*
X0166675Y0130897D01*
X0166705Y0130813D01*
X0166730Y0130729D01*
X0166752Y0130643D01*
X0166769Y0130557D01*
X0166783Y0130469D01*
X0166793Y0130381D01*
X0166799Y0130293D01*
X0166801Y0130205D01*
X0166799Y0130117D01*
X0166793Y0130029D01*
X0166783Y0129941D01*
X0166769Y0129853D01*
X0166752Y0129767D01*
X0166730Y0129681D01*
X0166705Y0129597D01*
X0166675Y0129513D01*
X0166643Y0129431D01*
X0166606Y0129351D01*
X0166566Y0129272D01*
X0166522Y0129195D01*
X0166475Y0129120D01*
X0166425Y0129048D01*
X0166371Y0128977D01*
X0166315Y0128910D01*
X0166255Y0128844D01*
X0166193Y0128782D01*
X0166127Y0128722D01*
X0166060Y0128666D01*
X0165989Y0128612D01*
X0165917Y0128562D01*
X0165842Y0128515D01*
X0165765Y0128471D01*
X0165686Y0128431D01*
X0165606Y0128394D01*
X0165524Y0128362D01*
X0165440Y0128332D01*
X0165356Y0128307D01*
X0165270Y0128285D01*
X0165184Y0128268D01*
X0165096Y0128254D01*
X0165008Y0128244D01*
X0164920Y0128238D01*
X0164832Y0128236D01*
X0164744Y0128238D01*
X0164656Y0128244D01*
X0164568Y0128254D01*
X0164480Y0128268D01*
X0164394Y0128285D01*
X0164308Y0128307D01*
X0164224Y0128332D01*
X0164140Y0128362D01*
X0164058Y0128394D01*
X0163978Y0128431D01*
X0163899Y0128471D01*
X0163822Y0128515D01*
X0163747Y0128562D01*
X0163675Y0128612D01*
X0163604Y0128666D01*
X0163537Y0128722D01*
X0163471Y0128782D01*
X0163409Y0128844D01*
X0163349Y0128910D01*
X0163293Y0128977D01*
X0163239Y0129048D01*
X0163189Y0129120D01*
X0163142Y0129195D01*
X0163098Y0129272D01*
X0163058Y0129351D01*
X0163021Y0129431D01*
X0162989Y0129513D01*
X0162959Y0129597D01*
X0162934Y0129681D01*
X0162912Y0129767D01*
X0162895Y0129853D01*
X0162881Y0129941D01*
X0162871Y0130029D01*
X0162865Y0130117D01*
X0162863Y0130205D01*
X0076761Y0467961D02*
X0076763Y0468045D01*
X0076769Y0468128D01*
X0076779Y0468211D01*
X0076793Y0468294D01*
X0076810Y0468376D01*
X0076832Y0468457D01*
X0076857Y0468536D01*
X0076886Y0468615D01*
X0076919Y0468692D01*
X0076955Y0468767D01*
X0076995Y0468841D01*
X0077038Y0468913D01*
X0077085Y0468982D01*
X0077135Y0469049D01*
X0077188Y0469114D01*
X0077244Y0469176D01*
X0077302Y0469236D01*
X0077364Y0469293D01*
X0077428Y0469346D01*
X0077495Y0469397D01*
X0077564Y0469444D01*
X0077635Y0469489D01*
X0077708Y0469529D01*
X0077783Y0469566D01*
X0077860Y0469600D01*
X0077938Y0469630D01*
X0078017Y0469656D01*
X0078098Y0469679D01*
X0078180Y0469697D01*
X0078262Y0469712D01*
X0078345Y0469723D01*
X0078428Y0469730D01*
X0078512Y0469733D01*
X0078596Y0469732D01*
X0078679Y0469727D01*
X0078763Y0469718D01*
X0078845Y0469705D01*
X0078927Y0469689D01*
X0079008Y0469668D01*
X0079089Y0469644D01*
X0079167Y0469616D01*
X0079245Y0469584D01*
X0079321Y0469548D01*
X0079395Y0469509D01*
X0079467Y0469467D01*
X0079537Y0469421D01*
X0079605Y0469372D01*
X0079670Y0469320D01*
X0079733Y0469265D01*
X0079793Y0469207D01*
X0079851Y0469146D01*
X0079905Y0469082D01*
X0079957Y0469016D01*
X0080005Y0468948D01*
X0080050Y0468877D01*
X0080091Y0468804D01*
X0080130Y0468730D01*
X0080164Y0468654D01*
X0080195Y0468576D01*
X0080222Y0468497D01*
X0080246Y0468416D01*
X0080265Y0468335D01*
X0080281Y0468253D01*
X0080293Y0468170D01*
X0080301Y0468086D01*
X0080305Y0468003D01*
X0080305Y0467919D01*
X0080301Y0467836D01*
X0080293Y0467752D01*
X0080281Y0467669D01*
X0080265Y0467587D01*
X0080246Y0467506D01*
X0080222Y0467425D01*
X0080195Y0467346D01*
X0080164Y0467268D01*
X0080130Y0467192D01*
X0080091Y0467118D01*
X0080050Y0467045D01*
X0080005Y0466974D01*
X0079957Y0466906D01*
X0079905Y0466840D01*
X0079851Y0466776D01*
X0079793Y0466715D01*
X0079733Y0466657D01*
X0079670Y0466602D01*
X0079605Y0466550D01*
X0079537Y0466501D01*
X0079467Y0466455D01*
X0079395Y0466413D01*
X0079321Y0466374D01*
X0079245Y0466338D01*
X0079167Y0466306D01*
X0079089Y0466278D01*
X0079008Y0466254D01*
X0078927Y0466233D01*
X0078845Y0466217D01*
X0078763Y0466204D01*
X0078679Y0466195D01*
X0078596Y0466190D01*
X0078512Y0466189D01*
X0078428Y0466192D01*
X0078345Y0466199D01*
X0078262Y0466210D01*
X0078180Y0466225D01*
X0078098Y0466243D01*
X0078017Y0466266D01*
X0077938Y0466292D01*
X0077860Y0466322D01*
X0077783Y0466356D01*
X0077708Y0466393D01*
X0077635Y0466433D01*
X0077564Y0466478D01*
X0077495Y0466525D01*
X0077428Y0466576D01*
X0077364Y0466629D01*
X0077302Y0466686D01*
X0077244Y0466746D01*
X0077188Y0466808D01*
X0077135Y0466873D01*
X0077085Y0466940D01*
X0077038Y0467009D01*
X0076995Y0467081D01*
X0076955Y0467155D01*
X0076919Y0467230D01*
X0076886Y0467307D01*
X0076857Y0467386D01*
X0076832Y0467465D01*
X0076810Y0467546D01*
X0076793Y0467628D01*
X0076779Y0467711D01*
X0076769Y0467794D01*
X0076763Y0467877D01*
X0076761Y0467961D01*
X0064950Y0467961D02*
X0064952Y0468045D01*
X0064958Y0468128D01*
X0064968Y0468211D01*
X0064982Y0468294D01*
X0064999Y0468376D01*
X0065021Y0468457D01*
X0065046Y0468536D01*
X0065075Y0468615D01*
X0065108Y0468692D01*
X0065144Y0468767D01*
X0065184Y0468841D01*
X0065227Y0468913D01*
X0065274Y0468982D01*
X0065324Y0469049D01*
X0065377Y0469114D01*
X0065433Y0469176D01*
X0065491Y0469236D01*
X0065553Y0469293D01*
X0065617Y0469346D01*
X0065684Y0469397D01*
X0065753Y0469444D01*
X0065824Y0469489D01*
X0065897Y0469529D01*
X0065972Y0469566D01*
X0066049Y0469600D01*
X0066127Y0469630D01*
X0066206Y0469656D01*
X0066287Y0469679D01*
X0066369Y0469697D01*
X0066451Y0469712D01*
X0066534Y0469723D01*
X0066617Y0469730D01*
X0066701Y0469733D01*
X0066785Y0469732D01*
X0066868Y0469727D01*
X0066952Y0469718D01*
X0067034Y0469705D01*
X0067116Y0469689D01*
X0067197Y0469668D01*
X0067278Y0469644D01*
X0067356Y0469616D01*
X0067434Y0469584D01*
X0067510Y0469548D01*
X0067584Y0469509D01*
X0067656Y0469467D01*
X0067726Y0469421D01*
X0067794Y0469372D01*
X0067859Y0469320D01*
X0067922Y0469265D01*
X0067982Y0469207D01*
X0068040Y0469146D01*
X0068094Y0469082D01*
X0068146Y0469016D01*
X0068194Y0468948D01*
X0068239Y0468877D01*
X0068280Y0468804D01*
X0068319Y0468730D01*
X0068353Y0468654D01*
X0068384Y0468576D01*
X0068411Y0468497D01*
X0068435Y0468416D01*
X0068454Y0468335D01*
X0068470Y0468253D01*
X0068482Y0468170D01*
X0068490Y0468086D01*
X0068494Y0468003D01*
X0068494Y0467919D01*
X0068490Y0467836D01*
X0068482Y0467752D01*
X0068470Y0467669D01*
X0068454Y0467587D01*
X0068435Y0467506D01*
X0068411Y0467425D01*
X0068384Y0467346D01*
X0068353Y0467268D01*
X0068319Y0467192D01*
X0068280Y0467118D01*
X0068239Y0467045D01*
X0068194Y0466974D01*
X0068146Y0466906D01*
X0068094Y0466840D01*
X0068040Y0466776D01*
X0067982Y0466715D01*
X0067922Y0466657D01*
X0067859Y0466602D01*
X0067794Y0466550D01*
X0067726Y0466501D01*
X0067656Y0466455D01*
X0067584Y0466413D01*
X0067510Y0466374D01*
X0067434Y0466338D01*
X0067356Y0466306D01*
X0067278Y0466278D01*
X0067197Y0466254D01*
X0067116Y0466233D01*
X0067034Y0466217D01*
X0066952Y0466204D01*
X0066868Y0466195D01*
X0066785Y0466190D01*
X0066701Y0466189D01*
X0066617Y0466192D01*
X0066534Y0466199D01*
X0066451Y0466210D01*
X0066369Y0466225D01*
X0066287Y0466243D01*
X0066206Y0466266D01*
X0066127Y0466292D01*
X0066049Y0466322D01*
X0065972Y0466356D01*
X0065897Y0466393D01*
X0065824Y0466433D01*
X0065753Y0466478D01*
X0065684Y0466525D01*
X0065617Y0466576D01*
X0065553Y0466629D01*
X0065491Y0466686D01*
X0065433Y0466746D01*
X0065377Y0466808D01*
X0065324Y0466873D01*
X0065274Y0466940D01*
X0065227Y0467009D01*
X0065184Y0467081D01*
X0065144Y0467155D01*
X0065108Y0467230D01*
X0065075Y0467307D01*
X0065046Y0467386D01*
X0065021Y0467465D01*
X0064999Y0467546D01*
X0064982Y0467628D01*
X0064968Y0467711D01*
X0064958Y0467794D01*
X0064952Y0467877D01*
X0064950Y0467961D01*
D11*
X0031683Y0439614D02*
X0031685Y0439757D01*
X0031691Y0439900D01*
X0031701Y0440042D01*
X0031715Y0440184D01*
X0031733Y0440326D01*
X0031755Y0440468D01*
X0031780Y0440608D01*
X0031810Y0440748D01*
X0031844Y0440887D01*
X0031881Y0441025D01*
X0031923Y0441162D01*
X0031968Y0441297D01*
X0032017Y0441431D01*
X0032069Y0441564D01*
X0032125Y0441696D01*
X0032185Y0441825D01*
X0032249Y0441953D01*
X0032316Y0442080D01*
X0032387Y0442204D01*
X0032461Y0442326D01*
X0032538Y0442446D01*
X0032619Y0442564D01*
X0032703Y0442680D01*
X0032790Y0442793D01*
X0032880Y0442904D01*
X0032974Y0443012D01*
X0033070Y0443118D01*
X0033169Y0443220D01*
X0033272Y0443320D01*
X0033376Y0443417D01*
X0033484Y0443512D01*
X0033594Y0443603D01*
X0033707Y0443691D01*
X0033822Y0443775D01*
X0033939Y0443857D01*
X0034059Y0443935D01*
X0034180Y0444010D01*
X0034304Y0444082D01*
X0034430Y0444150D01*
X0034557Y0444214D01*
X0034687Y0444275D01*
X0034818Y0444332D01*
X0034950Y0444386D01*
X0035084Y0444435D01*
X0035219Y0444482D01*
X0035356Y0444524D01*
X0035494Y0444562D01*
X0035632Y0444597D01*
X0035772Y0444627D01*
X0035912Y0444654D01*
X0036053Y0444677D01*
X0036195Y0444696D01*
X0036337Y0444711D01*
X0036480Y0444722D01*
X0036622Y0444729D01*
X0036765Y0444732D01*
X0036908Y0444731D01*
X0037051Y0444726D01*
X0037194Y0444717D01*
X0037336Y0444704D01*
X0037478Y0444687D01*
X0037619Y0444666D01*
X0037760Y0444641D01*
X0037900Y0444613D01*
X0038039Y0444580D01*
X0038177Y0444543D01*
X0038314Y0444503D01*
X0038450Y0444459D01*
X0038585Y0444411D01*
X0038718Y0444359D01*
X0038850Y0444304D01*
X0038980Y0444245D01*
X0039109Y0444182D01*
X0039235Y0444116D01*
X0039360Y0444046D01*
X0039483Y0443973D01*
X0039603Y0443897D01*
X0039722Y0443817D01*
X0039838Y0443733D01*
X0039952Y0443647D01*
X0040063Y0443557D01*
X0040172Y0443465D01*
X0040278Y0443369D01*
X0040382Y0443271D01*
X0040483Y0443169D01*
X0040580Y0443065D01*
X0040675Y0442958D01*
X0040767Y0442849D01*
X0040856Y0442737D01*
X0040942Y0442622D01*
X0041024Y0442506D01*
X0041103Y0442386D01*
X0041179Y0442265D01*
X0041251Y0442142D01*
X0041320Y0442017D01*
X0041385Y0441890D01*
X0041447Y0441761D01*
X0041505Y0441630D01*
X0041560Y0441498D01*
X0041610Y0441364D01*
X0041657Y0441229D01*
X0041701Y0441093D01*
X0041740Y0440956D01*
X0041775Y0440817D01*
X0041807Y0440678D01*
X0041835Y0440538D01*
X0041859Y0440397D01*
X0041879Y0440255D01*
X0041895Y0440113D01*
X0041907Y0439971D01*
X0041915Y0439828D01*
X0041919Y0439685D01*
X0041919Y0439543D01*
X0041915Y0439400D01*
X0041907Y0439257D01*
X0041895Y0439115D01*
X0041879Y0438973D01*
X0041859Y0438831D01*
X0041835Y0438690D01*
X0041807Y0438550D01*
X0041775Y0438411D01*
X0041740Y0438272D01*
X0041701Y0438135D01*
X0041657Y0437999D01*
X0041610Y0437864D01*
X0041560Y0437730D01*
X0041505Y0437598D01*
X0041447Y0437467D01*
X0041385Y0437338D01*
X0041320Y0437211D01*
X0041251Y0437086D01*
X0041179Y0436963D01*
X0041103Y0436842D01*
X0041024Y0436722D01*
X0040942Y0436606D01*
X0040856Y0436491D01*
X0040767Y0436379D01*
X0040675Y0436270D01*
X0040580Y0436163D01*
X0040483Y0436059D01*
X0040382Y0435957D01*
X0040278Y0435859D01*
X0040172Y0435763D01*
X0040063Y0435671D01*
X0039952Y0435581D01*
X0039838Y0435495D01*
X0039722Y0435411D01*
X0039603Y0435331D01*
X0039483Y0435255D01*
X0039360Y0435182D01*
X0039235Y0435112D01*
X0039109Y0435046D01*
X0038980Y0434983D01*
X0038850Y0434924D01*
X0038718Y0434869D01*
X0038585Y0434817D01*
X0038450Y0434769D01*
X0038314Y0434725D01*
X0038177Y0434685D01*
X0038039Y0434648D01*
X0037900Y0434615D01*
X0037760Y0434587D01*
X0037619Y0434562D01*
X0037478Y0434541D01*
X0037336Y0434524D01*
X0037194Y0434511D01*
X0037051Y0434502D01*
X0036908Y0434497D01*
X0036765Y0434496D01*
X0036622Y0434499D01*
X0036480Y0434506D01*
X0036337Y0434517D01*
X0036195Y0434532D01*
X0036053Y0434551D01*
X0035912Y0434574D01*
X0035772Y0434601D01*
X0035632Y0434631D01*
X0035494Y0434666D01*
X0035356Y0434704D01*
X0035219Y0434746D01*
X0035084Y0434793D01*
X0034950Y0434842D01*
X0034818Y0434896D01*
X0034687Y0434953D01*
X0034557Y0435014D01*
X0034430Y0435078D01*
X0034304Y0435146D01*
X0034180Y0435218D01*
X0034059Y0435293D01*
X0033939Y0435371D01*
X0033822Y0435453D01*
X0033707Y0435537D01*
X0033594Y0435625D01*
X0033484Y0435716D01*
X0033376Y0435811D01*
X0033272Y0435908D01*
X0033169Y0436008D01*
X0033070Y0436110D01*
X0032974Y0436216D01*
X0032880Y0436324D01*
X0032790Y0436435D01*
X0032703Y0436548D01*
X0032619Y0436664D01*
X0032538Y0436782D01*
X0032461Y0436902D01*
X0032387Y0437024D01*
X0032316Y0437148D01*
X0032249Y0437275D01*
X0032185Y0437403D01*
X0032125Y0437532D01*
X0032069Y0437664D01*
X0032017Y0437797D01*
X0031968Y0437931D01*
X0031923Y0438066D01*
X0031881Y0438203D01*
X0031844Y0438341D01*
X0031810Y0438480D01*
X0031780Y0438620D01*
X0031755Y0438760D01*
X0031733Y0438902D01*
X0031715Y0439044D01*
X0031701Y0439186D01*
X0031691Y0439328D01*
X0031685Y0439471D01*
X0031683Y0439614D01*
X0138769Y0151425D02*
X0138771Y0151568D01*
X0138777Y0151711D01*
X0138787Y0151853D01*
X0138801Y0151995D01*
X0138819Y0152137D01*
X0138841Y0152279D01*
X0138866Y0152419D01*
X0138896Y0152559D01*
X0138930Y0152698D01*
X0138967Y0152836D01*
X0139009Y0152973D01*
X0139054Y0153108D01*
X0139103Y0153242D01*
X0139155Y0153375D01*
X0139211Y0153507D01*
X0139271Y0153636D01*
X0139335Y0153764D01*
X0139402Y0153891D01*
X0139473Y0154015D01*
X0139547Y0154137D01*
X0139624Y0154257D01*
X0139705Y0154375D01*
X0139789Y0154491D01*
X0139876Y0154604D01*
X0139966Y0154715D01*
X0140060Y0154823D01*
X0140156Y0154929D01*
X0140255Y0155031D01*
X0140358Y0155131D01*
X0140462Y0155228D01*
X0140570Y0155323D01*
X0140680Y0155414D01*
X0140793Y0155502D01*
X0140908Y0155586D01*
X0141025Y0155668D01*
X0141145Y0155746D01*
X0141266Y0155821D01*
X0141390Y0155893D01*
X0141516Y0155961D01*
X0141643Y0156025D01*
X0141773Y0156086D01*
X0141904Y0156143D01*
X0142036Y0156197D01*
X0142170Y0156246D01*
X0142305Y0156293D01*
X0142442Y0156335D01*
X0142580Y0156373D01*
X0142718Y0156408D01*
X0142858Y0156438D01*
X0142998Y0156465D01*
X0143139Y0156488D01*
X0143281Y0156507D01*
X0143423Y0156522D01*
X0143566Y0156533D01*
X0143708Y0156540D01*
X0143851Y0156543D01*
X0143994Y0156542D01*
X0144137Y0156537D01*
X0144280Y0156528D01*
X0144422Y0156515D01*
X0144564Y0156498D01*
X0144705Y0156477D01*
X0144846Y0156452D01*
X0144986Y0156424D01*
X0145125Y0156391D01*
X0145263Y0156354D01*
X0145400Y0156314D01*
X0145536Y0156270D01*
X0145671Y0156222D01*
X0145804Y0156170D01*
X0145936Y0156115D01*
X0146066Y0156056D01*
X0146195Y0155993D01*
X0146321Y0155927D01*
X0146446Y0155857D01*
X0146569Y0155784D01*
X0146689Y0155708D01*
X0146808Y0155628D01*
X0146924Y0155544D01*
X0147038Y0155458D01*
X0147149Y0155368D01*
X0147258Y0155276D01*
X0147364Y0155180D01*
X0147468Y0155082D01*
X0147569Y0154980D01*
X0147666Y0154876D01*
X0147761Y0154769D01*
X0147853Y0154660D01*
X0147942Y0154548D01*
X0148028Y0154433D01*
X0148110Y0154317D01*
X0148189Y0154197D01*
X0148265Y0154076D01*
X0148337Y0153953D01*
X0148406Y0153828D01*
X0148471Y0153701D01*
X0148533Y0153572D01*
X0148591Y0153441D01*
X0148646Y0153309D01*
X0148696Y0153175D01*
X0148743Y0153040D01*
X0148787Y0152904D01*
X0148826Y0152767D01*
X0148861Y0152628D01*
X0148893Y0152489D01*
X0148921Y0152349D01*
X0148945Y0152208D01*
X0148965Y0152066D01*
X0148981Y0151924D01*
X0148993Y0151782D01*
X0149001Y0151639D01*
X0149005Y0151496D01*
X0149005Y0151354D01*
X0149001Y0151211D01*
X0148993Y0151068D01*
X0148981Y0150926D01*
X0148965Y0150784D01*
X0148945Y0150642D01*
X0148921Y0150501D01*
X0148893Y0150361D01*
X0148861Y0150222D01*
X0148826Y0150083D01*
X0148787Y0149946D01*
X0148743Y0149810D01*
X0148696Y0149675D01*
X0148646Y0149541D01*
X0148591Y0149409D01*
X0148533Y0149278D01*
X0148471Y0149149D01*
X0148406Y0149022D01*
X0148337Y0148897D01*
X0148265Y0148774D01*
X0148189Y0148653D01*
X0148110Y0148533D01*
X0148028Y0148417D01*
X0147942Y0148302D01*
X0147853Y0148190D01*
X0147761Y0148081D01*
X0147666Y0147974D01*
X0147569Y0147870D01*
X0147468Y0147768D01*
X0147364Y0147670D01*
X0147258Y0147574D01*
X0147149Y0147482D01*
X0147038Y0147392D01*
X0146924Y0147306D01*
X0146808Y0147222D01*
X0146689Y0147142D01*
X0146569Y0147066D01*
X0146446Y0146993D01*
X0146321Y0146923D01*
X0146195Y0146857D01*
X0146066Y0146794D01*
X0145936Y0146735D01*
X0145804Y0146680D01*
X0145671Y0146628D01*
X0145536Y0146580D01*
X0145400Y0146536D01*
X0145263Y0146496D01*
X0145125Y0146459D01*
X0144986Y0146426D01*
X0144846Y0146398D01*
X0144705Y0146373D01*
X0144564Y0146352D01*
X0144422Y0146335D01*
X0144280Y0146322D01*
X0144137Y0146313D01*
X0143994Y0146308D01*
X0143851Y0146307D01*
X0143708Y0146310D01*
X0143566Y0146317D01*
X0143423Y0146328D01*
X0143281Y0146343D01*
X0143139Y0146362D01*
X0142998Y0146385D01*
X0142858Y0146412D01*
X0142718Y0146442D01*
X0142580Y0146477D01*
X0142442Y0146515D01*
X0142305Y0146557D01*
X0142170Y0146604D01*
X0142036Y0146653D01*
X0141904Y0146707D01*
X0141773Y0146764D01*
X0141643Y0146825D01*
X0141516Y0146889D01*
X0141390Y0146957D01*
X0141266Y0147029D01*
X0141145Y0147104D01*
X0141025Y0147182D01*
X0140908Y0147264D01*
X0140793Y0147348D01*
X0140680Y0147436D01*
X0140570Y0147527D01*
X0140462Y0147622D01*
X0140358Y0147719D01*
X0140255Y0147819D01*
X0140156Y0147921D01*
X0140060Y0148027D01*
X0139966Y0148135D01*
X0139876Y0148246D01*
X0139789Y0148359D01*
X0139705Y0148475D01*
X0139624Y0148593D01*
X0139547Y0148713D01*
X0139473Y0148835D01*
X0139402Y0148959D01*
X0139335Y0149086D01*
X0139271Y0149214D01*
X0139211Y0149343D01*
X0139155Y0149475D01*
X0139103Y0149608D01*
X0139054Y0149742D01*
X0139009Y0149877D01*
X0138967Y0150014D01*
X0138930Y0150152D01*
X0138896Y0150291D01*
X0138866Y0150431D01*
X0138841Y0150571D01*
X0138819Y0150713D01*
X0138801Y0150855D01*
X0138787Y0150997D01*
X0138777Y0151139D01*
X0138771Y0151282D01*
X0138769Y0151425D01*
X0117509Y0126228D02*
X0117511Y0126371D01*
X0117517Y0126514D01*
X0117527Y0126656D01*
X0117541Y0126798D01*
X0117559Y0126940D01*
X0117581Y0127082D01*
X0117606Y0127222D01*
X0117636Y0127362D01*
X0117670Y0127501D01*
X0117707Y0127639D01*
X0117749Y0127776D01*
X0117794Y0127911D01*
X0117843Y0128045D01*
X0117895Y0128178D01*
X0117951Y0128310D01*
X0118011Y0128439D01*
X0118075Y0128567D01*
X0118142Y0128694D01*
X0118213Y0128818D01*
X0118287Y0128940D01*
X0118364Y0129060D01*
X0118445Y0129178D01*
X0118529Y0129294D01*
X0118616Y0129407D01*
X0118706Y0129518D01*
X0118800Y0129626D01*
X0118896Y0129732D01*
X0118995Y0129834D01*
X0119098Y0129934D01*
X0119202Y0130031D01*
X0119310Y0130126D01*
X0119420Y0130217D01*
X0119533Y0130305D01*
X0119648Y0130389D01*
X0119765Y0130471D01*
X0119885Y0130549D01*
X0120006Y0130624D01*
X0120130Y0130696D01*
X0120256Y0130764D01*
X0120383Y0130828D01*
X0120513Y0130889D01*
X0120644Y0130946D01*
X0120776Y0131000D01*
X0120910Y0131049D01*
X0121045Y0131096D01*
X0121182Y0131138D01*
X0121320Y0131176D01*
X0121458Y0131211D01*
X0121598Y0131241D01*
X0121738Y0131268D01*
X0121879Y0131291D01*
X0122021Y0131310D01*
X0122163Y0131325D01*
X0122306Y0131336D01*
X0122448Y0131343D01*
X0122591Y0131346D01*
X0122734Y0131345D01*
X0122877Y0131340D01*
X0123020Y0131331D01*
X0123162Y0131318D01*
X0123304Y0131301D01*
X0123445Y0131280D01*
X0123586Y0131255D01*
X0123726Y0131227D01*
X0123865Y0131194D01*
X0124003Y0131157D01*
X0124140Y0131117D01*
X0124276Y0131073D01*
X0124411Y0131025D01*
X0124544Y0130973D01*
X0124676Y0130918D01*
X0124806Y0130859D01*
X0124935Y0130796D01*
X0125061Y0130730D01*
X0125186Y0130660D01*
X0125309Y0130587D01*
X0125429Y0130511D01*
X0125548Y0130431D01*
X0125664Y0130347D01*
X0125778Y0130261D01*
X0125889Y0130171D01*
X0125998Y0130079D01*
X0126104Y0129983D01*
X0126208Y0129885D01*
X0126309Y0129783D01*
X0126406Y0129679D01*
X0126501Y0129572D01*
X0126593Y0129463D01*
X0126682Y0129351D01*
X0126768Y0129236D01*
X0126850Y0129120D01*
X0126929Y0129000D01*
X0127005Y0128879D01*
X0127077Y0128756D01*
X0127146Y0128631D01*
X0127211Y0128504D01*
X0127273Y0128375D01*
X0127331Y0128244D01*
X0127386Y0128112D01*
X0127436Y0127978D01*
X0127483Y0127843D01*
X0127527Y0127707D01*
X0127566Y0127570D01*
X0127601Y0127431D01*
X0127633Y0127292D01*
X0127661Y0127152D01*
X0127685Y0127011D01*
X0127705Y0126869D01*
X0127721Y0126727D01*
X0127733Y0126585D01*
X0127741Y0126442D01*
X0127745Y0126299D01*
X0127745Y0126157D01*
X0127741Y0126014D01*
X0127733Y0125871D01*
X0127721Y0125729D01*
X0127705Y0125587D01*
X0127685Y0125445D01*
X0127661Y0125304D01*
X0127633Y0125164D01*
X0127601Y0125025D01*
X0127566Y0124886D01*
X0127527Y0124749D01*
X0127483Y0124613D01*
X0127436Y0124478D01*
X0127386Y0124344D01*
X0127331Y0124212D01*
X0127273Y0124081D01*
X0127211Y0123952D01*
X0127146Y0123825D01*
X0127077Y0123700D01*
X0127005Y0123577D01*
X0126929Y0123456D01*
X0126850Y0123336D01*
X0126768Y0123220D01*
X0126682Y0123105D01*
X0126593Y0122993D01*
X0126501Y0122884D01*
X0126406Y0122777D01*
X0126309Y0122673D01*
X0126208Y0122571D01*
X0126104Y0122473D01*
X0125998Y0122377D01*
X0125889Y0122285D01*
X0125778Y0122195D01*
X0125664Y0122109D01*
X0125548Y0122025D01*
X0125429Y0121945D01*
X0125309Y0121869D01*
X0125186Y0121796D01*
X0125061Y0121726D01*
X0124935Y0121660D01*
X0124806Y0121597D01*
X0124676Y0121538D01*
X0124544Y0121483D01*
X0124411Y0121431D01*
X0124276Y0121383D01*
X0124140Y0121339D01*
X0124003Y0121299D01*
X0123865Y0121262D01*
X0123726Y0121229D01*
X0123586Y0121201D01*
X0123445Y0121176D01*
X0123304Y0121155D01*
X0123162Y0121138D01*
X0123020Y0121125D01*
X0122877Y0121116D01*
X0122734Y0121111D01*
X0122591Y0121110D01*
X0122448Y0121113D01*
X0122306Y0121120D01*
X0122163Y0121131D01*
X0122021Y0121146D01*
X0121879Y0121165D01*
X0121738Y0121188D01*
X0121598Y0121215D01*
X0121458Y0121245D01*
X0121320Y0121280D01*
X0121182Y0121318D01*
X0121045Y0121360D01*
X0120910Y0121407D01*
X0120776Y0121456D01*
X0120644Y0121510D01*
X0120513Y0121567D01*
X0120383Y0121628D01*
X0120256Y0121692D01*
X0120130Y0121760D01*
X0120006Y0121832D01*
X0119885Y0121907D01*
X0119765Y0121985D01*
X0119648Y0122067D01*
X0119533Y0122151D01*
X0119420Y0122239D01*
X0119310Y0122330D01*
X0119202Y0122425D01*
X0119098Y0122522D01*
X0118995Y0122622D01*
X0118896Y0122724D01*
X0118800Y0122830D01*
X0118706Y0122938D01*
X0118616Y0123049D01*
X0118529Y0123162D01*
X0118445Y0123278D01*
X0118364Y0123396D01*
X0118287Y0123516D01*
X0118213Y0123638D01*
X0118142Y0123762D01*
X0118075Y0123889D01*
X0118011Y0124017D01*
X0117951Y0124146D01*
X0117895Y0124278D01*
X0117843Y0124411D01*
X0117794Y0124545D01*
X0117749Y0124680D01*
X0117707Y0124817D01*
X0117670Y0124955D01*
X0117636Y0125094D01*
X0117606Y0125234D01*
X0117581Y0125374D01*
X0117559Y0125516D01*
X0117541Y0125658D01*
X0117527Y0125800D01*
X0117517Y0125942D01*
X0117511Y0126085D01*
X0117509Y0126228D01*
X0113572Y0107331D02*
X0113574Y0107474D01*
X0113580Y0107617D01*
X0113590Y0107759D01*
X0113604Y0107901D01*
X0113622Y0108043D01*
X0113644Y0108185D01*
X0113669Y0108325D01*
X0113699Y0108465D01*
X0113733Y0108604D01*
X0113770Y0108742D01*
X0113812Y0108879D01*
X0113857Y0109014D01*
X0113906Y0109148D01*
X0113958Y0109281D01*
X0114014Y0109413D01*
X0114074Y0109542D01*
X0114138Y0109670D01*
X0114205Y0109797D01*
X0114276Y0109921D01*
X0114350Y0110043D01*
X0114427Y0110163D01*
X0114508Y0110281D01*
X0114592Y0110397D01*
X0114679Y0110510D01*
X0114769Y0110621D01*
X0114863Y0110729D01*
X0114959Y0110835D01*
X0115058Y0110937D01*
X0115161Y0111037D01*
X0115265Y0111134D01*
X0115373Y0111229D01*
X0115483Y0111320D01*
X0115596Y0111408D01*
X0115711Y0111492D01*
X0115828Y0111574D01*
X0115948Y0111652D01*
X0116069Y0111727D01*
X0116193Y0111799D01*
X0116319Y0111867D01*
X0116446Y0111931D01*
X0116576Y0111992D01*
X0116707Y0112049D01*
X0116839Y0112103D01*
X0116973Y0112152D01*
X0117108Y0112199D01*
X0117245Y0112241D01*
X0117383Y0112279D01*
X0117521Y0112314D01*
X0117661Y0112344D01*
X0117801Y0112371D01*
X0117942Y0112394D01*
X0118084Y0112413D01*
X0118226Y0112428D01*
X0118369Y0112439D01*
X0118511Y0112446D01*
X0118654Y0112449D01*
X0118797Y0112448D01*
X0118940Y0112443D01*
X0119083Y0112434D01*
X0119225Y0112421D01*
X0119367Y0112404D01*
X0119508Y0112383D01*
X0119649Y0112358D01*
X0119789Y0112330D01*
X0119928Y0112297D01*
X0120066Y0112260D01*
X0120203Y0112220D01*
X0120339Y0112176D01*
X0120474Y0112128D01*
X0120607Y0112076D01*
X0120739Y0112021D01*
X0120869Y0111962D01*
X0120998Y0111899D01*
X0121124Y0111833D01*
X0121249Y0111763D01*
X0121372Y0111690D01*
X0121492Y0111614D01*
X0121611Y0111534D01*
X0121727Y0111450D01*
X0121841Y0111364D01*
X0121952Y0111274D01*
X0122061Y0111182D01*
X0122167Y0111086D01*
X0122271Y0110988D01*
X0122372Y0110886D01*
X0122469Y0110782D01*
X0122564Y0110675D01*
X0122656Y0110566D01*
X0122745Y0110454D01*
X0122831Y0110339D01*
X0122913Y0110223D01*
X0122992Y0110103D01*
X0123068Y0109982D01*
X0123140Y0109859D01*
X0123209Y0109734D01*
X0123274Y0109607D01*
X0123336Y0109478D01*
X0123394Y0109347D01*
X0123449Y0109215D01*
X0123499Y0109081D01*
X0123546Y0108946D01*
X0123590Y0108810D01*
X0123629Y0108673D01*
X0123664Y0108534D01*
X0123696Y0108395D01*
X0123724Y0108255D01*
X0123748Y0108114D01*
X0123768Y0107972D01*
X0123784Y0107830D01*
X0123796Y0107688D01*
X0123804Y0107545D01*
X0123808Y0107402D01*
X0123808Y0107260D01*
X0123804Y0107117D01*
X0123796Y0106974D01*
X0123784Y0106832D01*
X0123768Y0106690D01*
X0123748Y0106548D01*
X0123724Y0106407D01*
X0123696Y0106267D01*
X0123664Y0106128D01*
X0123629Y0105989D01*
X0123590Y0105852D01*
X0123546Y0105716D01*
X0123499Y0105581D01*
X0123449Y0105447D01*
X0123394Y0105315D01*
X0123336Y0105184D01*
X0123274Y0105055D01*
X0123209Y0104928D01*
X0123140Y0104803D01*
X0123068Y0104680D01*
X0122992Y0104559D01*
X0122913Y0104439D01*
X0122831Y0104323D01*
X0122745Y0104208D01*
X0122656Y0104096D01*
X0122564Y0103987D01*
X0122469Y0103880D01*
X0122372Y0103776D01*
X0122271Y0103674D01*
X0122167Y0103576D01*
X0122061Y0103480D01*
X0121952Y0103388D01*
X0121841Y0103298D01*
X0121727Y0103212D01*
X0121611Y0103128D01*
X0121492Y0103048D01*
X0121372Y0102972D01*
X0121249Y0102899D01*
X0121124Y0102829D01*
X0120998Y0102763D01*
X0120869Y0102700D01*
X0120739Y0102641D01*
X0120607Y0102586D01*
X0120474Y0102534D01*
X0120339Y0102486D01*
X0120203Y0102442D01*
X0120066Y0102402D01*
X0119928Y0102365D01*
X0119789Y0102332D01*
X0119649Y0102304D01*
X0119508Y0102279D01*
X0119367Y0102258D01*
X0119225Y0102241D01*
X0119083Y0102228D01*
X0118940Y0102219D01*
X0118797Y0102214D01*
X0118654Y0102213D01*
X0118511Y0102216D01*
X0118369Y0102223D01*
X0118226Y0102234D01*
X0118084Y0102249D01*
X0117942Y0102268D01*
X0117801Y0102291D01*
X0117661Y0102318D01*
X0117521Y0102348D01*
X0117383Y0102383D01*
X0117245Y0102421D01*
X0117108Y0102463D01*
X0116973Y0102510D01*
X0116839Y0102559D01*
X0116707Y0102613D01*
X0116576Y0102670D01*
X0116446Y0102731D01*
X0116319Y0102795D01*
X0116193Y0102863D01*
X0116069Y0102935D01*
X0115948Y0103010D01*
X0115828Y0103088D01*
X0115711Y0103170D01*
X0115596Y0103254D01*
X0115483Y0103342D01*
X0115373Y0103433D01*
X0115265Y0103528D01*
X0115161Y0103625D01*
X0115058Y0103725D01*
X0114959Y0103827D01*
X0114863Y0103933D01*
X0114769Y0104041D01*
X0114679Y0104152D01*
X0114592Y0104265D01*
X0114508Y0104381D01*
X0114427Y0104499D01*
X0114350Y0104619D01*
X0114276Y0104741D01*
X0114205Y0104865D01*
X0114138Y0104992D01*
X0114074Y0105120D01*
X0114014Y0105249D01*
X0113958Y0105381D01*
X0113906Y0105514D01*
X0113857Y0105648D01*
X0113812Y0105783D01*
X0113770Y0105920D01*
X0113733Y0106058D01*
X0113699Y0106197D01*
X0113669Y0106337D01*
X0113644Y0106477D01*
X0113622Y0106619D01*
X0113604Y0106761D01*
X0113590Y0106903D01*
X0113580Y0107045D01*
X0113574Y0107188D01*
X0113572Y0107331D01*
X0031289Y0111661D02*
X0031291Y0111804D01*
X0031297Y0111947D01*
X0031307Y0112089D01*
X0031321Y0112231D01*
X0031339Y0112373D01*
X0031361Y0112515D01*
X0031386Y0112655D01*
X0031416Y0112795D01*
X0031450Y0112934D01*
X0031487Y0113072D01*
X0031529Y0113209D01*
X0031574Y0113344D01*
X0031623Y0113478D01*
X0031675Y0113611D01*
X0031731Y0113743D01*
X0031791Y0113872D01*
X0031855Y0114000D01*
X0031922Y0114127D01*
X0031993Y0114251D01*
X0032067Y0114373D01*
X0032144Y0114493D01*
X0032225Y0114611D01*
X0032309Y0114727D01*
X0032396Y0114840D01*
X0032486Y0114951D01*
X0032580Y0115059D01*
X0032676Y0115165D01*
X0032775Y0115267D01*
X0032878Y0115367D01*
X0032982Y0115464D01*
X0033090Y0115559D01*
X0033200Y0115650D01*
X0033313Y0115738D01*
X0033428Y0115822D01*
X0033545Y0115904D01*
X0033665Y0115982D01*
X0033786Y0116057D01*
X0033910Y0116129D01*
X0034036Y0116197D01*
X0034163Y0116261D01*
X0034293Y0116322D01*
X0034424Y0116379D01*
X0034556Y0116433D01*
X0034690Y0116482D01*
X0034825Y0116529D01*
X0034962Y0116571D01*
X0035100Y0116609D01*
X0035238Y0116644D01*
X0035378Y0116674D01*
X0035518Y0116701D01*
X0035659Y0116724D01*
X0035801Y0116743D01*
X0035943Y0116758D01*
X0036086Y0116769D01*
X0036228Y0116776D01*
X0036371Y0116779D01*
X0036514Y0116778D01*
X0036657Y0116773D01*
X0036800Y0116764D01*
X0036942Y0116751D01*
X0037084Y0116734D01*
X0037225Y0116713D01*
X0037366Y0116688D01*
X0037506Y0116660D01*
X0037645Y0116627D01*
X0037783Y0116590D01*
X0037920Y0116550D01*
X0038056Y0116506D01*
X0038191Y0116458D01*
X0038324Y0116406D01*
X0038456Y0116351D01*
X0038586Y0116292D01*
X0038715Y0116229D01*
X0038841Y0116163D01*
X0038966Y0116093D01*
X0039089Y0116020D01*
X0039209Y0115944D01*
X0039328Y0115864D01*
X0039444Y0115780D01*
X0039558Y0115694D01*
X0039669Y0115604D01*
X0039778Y0115512D01*
X0039884Y0115416D01*
X0039988Y0115318D01*
X0040089Y0115216D01*
X0040186Y0115112D01*
X0040281Y0115005D01*
X0040373Y0114896D01*
X0040462Y0114784D01*
X0040548Y0114669D01*
X0040630Y0114553D01*
X0040709Y0114433D01*
X0040785Y0114312D01*
X0040857Y0114189D01*
X0040926Y0114064D01*
X0040991Y0113937D01*
X0041053Y0113808D01*
X0041111Y0113677D01*
X0041166Y0113545D01*
X0041216Y0113411D01*
X0041263Y0113276D01*
X0041307Y0113140D01*
X0041346Y0113003D01*
X0041381Y0112864D01*
X0041413Y0112725D01*
X0041441Y0112585D01*
X0041465Y0112444D01*
X0041485Y0112302D01*
X0041501Y0112160D01*
X0041513Y0112018D01*
X0041521Y0111875D01*
X0041525Y0111732D01*
X0041525Y0111590D01*
X0041521Y0111447D01*
X0041513Y0111304D01*
X0041501Y0111162D01*
X0041485Y0111020D01*
X0041465Y0110878D01*
X0041441Y0110737D01*
X0041413Y0110597D01*
X0041381Y0110458D01*
X0041346Y0110319D01*
X0041307Y0110182D01*
X0041263Y0110046D01*
X0041216Y0109911D01*
X0041166Y0109777D01*
X0041111Y0109645D01*
X0041053Y0109514D01*
X0040991Y0109385D01*
X0040926Y0109258D01*
X0040857Y0109133D01*
X0040785Y0109010D01*
X0040709Y0108889D01*
X0040630Y0108769D01*
X0040548Y0108653D01*
X0040462Y0108538D01*
X0040373Y0108426D01*
X0040281Y0108317D01*
X0040186Y0108210D01*
X0040089Y0108106D01*
X0039988Y0108004D01*
X0039884Y0107906D01*
X0039778Y0107810D01*
X0039669Y0107718D01*
X0039558Y0107628D01*
X0039444Y0107542D01*
X0039328Y0107458D01*
X0039209Y0107378D01*
X0039089Y0107302D01*
X0038966Y0107229D01*
X0038841Y0107159D01*
X0038715Y0107093D01*
X0038586Y0107030D01*
X0038456Y0106971D01*
X0038324Y0106916D01*
X0038191Y0106864D01*
X0038056Y0106816D01*
X0037920Y0106772D01*
X0037783Y0106732D01*
X0037645Y0106695D01*
X0037506Y0106662D01*
X0037366Y0106634D01*
X0037225Y0106609D01*
X0037084Y0106588D01*
X0036942Y0106571D01*
X0036800Y0106558D01*
X0036657Y0106549D01*
X0036514Y0106544D01*
X0036371Y0106543D01*
X0036228Y0106546D01*
X0036086Y0106553D01*
X0035943Y0106564D01*
X0035801Y0106579D01*
X0035659Y0106598D01*
X0035518Y0106621D01*
X0035378Y0106648D01*
X0035238Y0106678D01*
X0035100Y0106713D01*
X0034962Y0106751D01*
X0034825Y0106793D01*
X0034690Y0106840D01*
X0034556Y0106889D01*
X0034424Y0106943D01*
X0034293Y0107000D01*
X0034163Y0107061D01*
X0034036Y0107125D01*
X0033910Y0107193D01*
X0033786Y0107265D01*
X0033665Y0107340D01*
X0033545Y0107418D01*
X0033428Y0107500D01*
X0033313Y0107584D01*
X0033200Y0107672D01*
X0033090Y0107763D01*
X0032982Y0107858D01*
X0032878Y0107955D01*
X0032775Y0108055D01*
X0032676Y0108157D01*
X0032580Y0108263D01*
X0032486Y0108371D01*
X0032396Y0108482D01*
X0032309Y0108595D01*
X0032225Y0108711D01*
X0032144Y0108829D01*
X0032067Y0108949D01*
X0031993Y0109071D01*
X0031922Y0109195D01*
X0031855Y0109322D01*
X0031791Y0109450D01*
X0031731Y0109579D01*
X0031675Y0109711D01*
X0031623Y0109844D01*
X0031574Y0109978D01*
X0031529Y0110113D01*
X0031487Y0110250D01*
X0031450Y0110388D01*
X0031416Y0110527D01*
X0031386Y0110667D01*
X0031361Y0110807D01*
X0031339Y0110949D01*
X0031321Y0111091D01*
X0031307Y0111233D01*
X0031297Y0111375D01*
X0031291Y0111518D01*
X0031289Y0111661D01*
X0205895Y0107331D02*
X0205897Y0107500D01*
X0205903Y0107669D01*
X0205914Y0107838D01*
X0205928Y0108006D01*
X0205947Y0108174D01*
X0205970Y0108342D01*
X0205996Y0108509D01*
X0206027Y0108675D01*
X0206062Y0108841D01*
X0206101Y0109005D01*
X0206145Y0109169D01*
X0206192Y0109331D01*
X0206243Y0109492D01*
X0206298Y0109652D01*
X0206357Y0109811D01*
X0206419Y0109968D01*
X0206486Y0110123D01*
X0206557Y0110277D01*
X0206631Y0110429D01*
X0206709Y0110579D01*
X0206790Y0110727D01*
X0206875Y0110873D01*
X0206964Y0111017D01*
X0207056Y0111159D01*
X0207152Y0111298D01*
X0207251Y0111435D01*
X0207353Y0111570D01*
X0207459Y0111702D01*
X0207568Y0111831D01*
X0207680Y0111958D01*
X0207795Y0112082D01*
X0207913Y0112203D01*
X0208034Y0112321D01*
X0208158Y0112436D01*
X0208285Y0112548D01*
X0208414Y0112657D01*
X0208546Y0112763D01*
X0208681Y0112865D01*
X0208818Y0112964D01*
X0208957Y0113060D01*
X0209099Y0113152D01*
X0209243Y0113241D01*
X0209389Y0113326D01*
X0209537Y0113407D01*
X0209687Y0113485D01*
X0209839Y0113559D01*
X0209993Y0113630D01*
X0210148Y0113697D01*
X0210305Y0113759D01*
X0210464Y0113818D01*
X0210624Y0113873D01*
X0210785Y0113924D01*
X0210947Y0113971D01*
X0211111Y0114015D01*
X0211275Y0114054D01*
X0211441Y0114089D01*
X0211607Y0114120D01*
X0211774Y0114146D01*
X0211942Y0114169D01*
X0212110Y0114188D01*
X0212278Y0114202D01*
X0212447Y0114213D01*
X0212616Y0114219D01*
X0212785Y0114221D01*
X0212954Y0114219D01*
X0213123Y0114213D01*
X0213292Y0114202D01*
X0213460Y0114188D01*
X0213628Y0114169D01*
X0213796Y0114146D01*
X0213963Y0114120D01*
X0214129Y0114089D01*
X0214295Y0114054D01*
X0214459Y0114015D01*
X0214623Y0113971D01*
X0214785Y0113924D01*
X0214946Y0113873D01*
X0215106Y0113818D01*
X0215265Y0113759D01*
X0215422Y0113697D01*
X0215577Y0113630D01*
X0215731Y0113559D01*
X0215883Y0113485D01*
X0216033Y0113407D01*
X0216181Y0113326D01*
X0216327Y0113241D01*
X0216471Y0113152D01*
X0216613Y0113060D01*
X0216752Y0112964D01*
X0216889Y0112865D01*
X0217024Y0112763D01*
X0217156Y0112657D01*
X0217285Y0112548D01*
X0217412Y0112436D01*
X0217536Y0112321D01*
X0217657Y0112203D01*
X0217775Y0112082D01*
X0217890Y0111958D01*
X0218002Y0111831D01*
X0218111Y0111702D01*
X0218217Y0111570D01*
X0218319Y0111435D01*
X0218418Y0111298D01*
X0218514Y0111159D01*
X0218606Y0111017D01*
X0218695Y0110873D01*
X0218780Y0110727D01*
X0218861Y0110579D01*
X0218939Y0110429D01*
X0219013Y0110277D01*
X0219084Y0110123D01*
X0219151Y0109968D01*
X0219213Y0109811D01*
X0219272Y0109652D01*
X0219327Y0109492D01*
X0219378Y0109331D01*
X0219425Y0109169D01*
X0219469Y0109005D01*
X0219508Y0108841D01*
X0219543Y0108675D01*
X0219574Y0108509D01*
X0219600Y0108342D01*
X0219623Y0108174D01*
X0219642Y0108006D01*
X0219656Y0107838D01*
X0219667Y0107669D01*
X0219673Y0107500D01*
X0219675Y0107331D01*
X0219673Y0107162D01*
X0219667Y0106993D01*
X0219656Y0106824D01*
X0219642Y0106656D01*
X0219623Y0106488D01*
X0219600Y0106320D01*
X0219574Y0106153D01*
X0219543Y0105987D01*
X0219508Y0105821D01*
X0219469Y0105657D01*
X0219425Y0105493D01*
X0219378Y0105331D01*
X0219327Y0105170D01*
X0219272Y0105010D01*
X0219213Y0104851D01*
X0219151Y0104694D01*
X0219084Y0104539D01*
X0219013Y0104385D01*
X0218939Y0104233D01*
X0218861Y0104083D01*
X0218780Y0103935D01*
X0218695Y0103789D01*
X0218606Y0103645D01*
X0218514Y0103503D01*
X0218418Y0103364D01*
X0218319Y0103227D01*
X0218217Y0103092D01*
X0218111Y0102960D01*
X0218002Y0102831D01*
X0217890Y0102704D01*
X0217775Y0102580D01*
X0217657Y0102459D01*
X0217536Y0102341D01*
X0217412Y0102226D01*
X0217285Y0102114D01*
X0217156Y0102005D01*
X0217024Y0101899D01*
X0216889Y0101797D01*
X0216752Y0101698D01*
X0216613Y0101602D01*
X0216471Y0101510D01*
X0216327Y0101421D01*
X0216181Y0101336D01*
X0216033Y0101255D01*
X0215883Y0101177D01*
X0215731Y0101103D01*
X0215577Y0101032D01*
X0215422Y0100965D01*
X0215265Y0100903D01*
X0215106Y0100844D01*
X0214946Y0100789D01*
X0214785Y0100738D01*
X0214623Y0100691D01*
X0214459Y0100647D01*
X0214295Y0100608D01*
X0214129Y0100573D01*
X0213963Y0100542D01*
X0213796Y0100516D01*
X0213628Y0100493D01*
X0213460Y0100474D01*
X0213292Y0100460D01*
X0213123Y0100449D01*
X0212954Y0100443D01*
X0212785Y0100441D01*
X0212616Y0100443D01*
X0212447Y0100449D01*
X0212278Y0100460D01*
X0212110Y0100474D01*
X0211942Y0100493D01*
X0211774Y0100516D01*
X0211607Y0100542D01*
X0211441Y0100573D01*
X0211275Y0100608D01*
X0211111Y0100647D01*
X0210947Y0100691D01*
X0210785Y0100738D01*
X0210624Y0100789D01*
X0210464Y0100844D01*
X0210305Y0100903D01*
X0210148Y0100965D01*
X0209993Y0101032D01*
X0209839Y0101103D01*
X0209687Y0101177D01*
X0209537Y0101255D01*
X0209389Y0101336D01*
X0209243Y0101421D01*
X0209099Y0101510D01*
X0208957Y0101602D01*
X0208818Y0101698D01*
X0208681Y0101797D01*
X0208546Y0101899D01*
X0208414Y0102005D01*
X0208285Y0102114D01*
X0208158Y0102226D01*
X0208034Y0102341D01*
X0207913Y0102459D01*
X0207795Y0102580D01*
X0207680Y0102704D01*
X0207568Y0102831D01*
X0207459Y0102960D01*
X0207353Y0103092D01*
X0207251Y0103227D01*
X0207152Y0103364D01*
X0207056Y0103503D01*
X0206964Y0103645D01*
X0206875Y0103789D01*
X0206790Y0103935D01*
X0206709Y0104083D01*
X0206631Y0104233D01*
X0206557Y0104385D01*
X0206486Y0104539D01*
X0206419Y0104694D01*
X0206357Y0104851D01*
X0206298Y0105010D01*
X0206243Y0105170D01*
X0206192Y0105331D01*
X0206145Y0105493D01*
X0206101Y0105657D01*
X0206062Y0105821D01*
X0206027Y0105987D01*
X0205996Y0106153D01*
X0205970Y0106320D01*
X0205947Y0106488D01*
X0205928Y0106656D01*
X0205914Y0106824D01*
X0205903Y0106993D01*
X0205897Y0107162D01*
X0205895Y0107331D01*
X0235620Y0180953D02*
X0235622Y0181090D01*
X0235628Y0181228D01*
X0235638Y0181365D01*
X0235652Y0181501D01*
X0235670Y0181638D01*
X0235692Y0181773D01*
X0235718Y0181908D01*
X0235747Y0182042D01*
X0235781Y0182176D01*
X0235818Y0182308D01*
X0235860Y0182439D01*
X0235905Y0182569D01*
X0235954Y0182697D01*
X0236006Y0182824D01*
X0236063Y0182949D01*
X0236122Y0183073D01*
X0236186Y0183195D01*
X0236253Y0183315D01*
X0236323Y0183433D01*
X0236397Y0183549D01*
X0236474Y0183663D01*
X0236555Y0183774D01*
X0236638Y0183883D01*
X0236725Y0183990D01*
X0236815Y0184093D01*
X0236908Y0184195D01*
X0237004Y0184293D01*
X0237102Y0184389D01*
X0237204Y0184482D01*
X0237307Y0184572D01*
X0237414Y0184659D01*
X0237523Y0184742D01*
X0237634Y0184823D01*
X0237748Y0184900D01*
X0237864Y0184974D01*
X0237982Y0185044D01*
X0238102Y0185111D01*
X0238224Y0185175D01*
X0238348Y0185234D01*
X0238473Y0185291D01*
X0238600Y0185343D01*
X0238728Y0185392D01*
X0238858Y0185437D01*
X0238989Y0185479D01*
X0239121Y0185516D01*
X0239255Y0185550D01*
X0239389Y0185579D01*
X0239524Y0185605D01*
X0239659Y0185627D01*
X0239796Y0185645D01*
X0239932Y0185659D01*
X0240069Y0185669D01*
X0240207Y0185675D01*
X0240344Y0185677D01*
X0240481Y0185675D01*
X0240619Y0185669D01*
X0240756Y0185659D01*
X0240892Y0185645D01*
X0241029Y0185627D01*
X0241164Y0185605D01*
X0241299Y0185579D01*
X0241433Y0185550D01*
X0241567Y0185516D01*
X0241699Y0185479D01*
X0241830Y0185437D01*
X0241960Y0185392D01*
X0242088Y0185343D01*
X0242215Y0185291D01*
X0242340Y0185234D01*
X0242464Y0185175D01*
X0242586Y0185111D01*
X0242706Y0185044D01*
X0242824Y0184974D01*
X0242940Y0184900D01*
X0243054Y0184823D01*
X0243165Y0184742D01*
X0243274Y0184659D01*
X0243381Y0184572D01*
X0243484Y0184482D01*
X0243586Y0184389D01*
X0243684Y0184293D01*
X0243780Y0184195D01*
X0243873Y0184093D01*
X0243963Y0183990D01*
X0244050Y0183883D01*
X0244133Y0183774D01*
X0244214Y0183663D01*
X0244291Y0183549D01*
X0244365Y0183433D01*
X0244435Y0183315D01*
X0244502Y0183195D01*
X0244566Y0183073D01*
X0244625Y0182949D01*
X0244682Y0182824D01*
X0244734Y0182697D01*
X0244783Y0182569D01*
X0244828Y0182439D01*
X0244870Y0182308D01*
X0244907Y0182176D01*
X0244941Y0182042D01*
X0244970Y0181908D01*
X0244996Y0181773D01*
X0245018Y0181638D01*
X0245036Y0181501D01*
X0245050Y0181365D01*
X0245060Y0181228D01*
X0245066Y0181090D01*
X0245068Y0180953D01*
X0245066Y0180816D01*
X0245060Y0180678D01*
X0245050Y0180541D01*
X0245036Y0180405D01*
X0245018Y0180268D01*
X0244996Y0180133D01*
X0244970Y0179998D01*
X0244941Y0179864D01*
X0244907Y0179730D01*
X0244870Y0179598D01*
X0244828Y0179467D01*
X0244783Y0179337D01*
X0244734Y0179209D01*
X0244682Y0179082D01*
X0244625Y0178957D01*
X0244566Y0178833D01*
X0244502Y0178711D01*
X0244435Y0178591D01*
X0244365Y0178473D01*
X0244291Y0178357D01*
X0244214Y0178243D01*
X0244133Y0178132D01*
X0244050Y0178023D01*
X0243963Y0177916D01*
X0243873Y0177813D01*
X0243780Y0177711D01*
X0243684Y0177613D01*
X0243586Y0177517D01*
X0243484Y0177424D01*
X0243381Y0177334D01*
X0243274Y0177247D01*
X0243165Y0177164D01*
X0243054Y0177083D01*
X0242940Y0177006D01*
X0242824Y0176932D01*
X0242706Y0176862D01*
X0242586Y0176795D01*
X0242464Y0176731D01*
X0242340Y0176672D01*
X0242215Y0176615D01*
X0242088Y0176563D01*
X0241960Y0176514D01*
X0241830Y0176469D01*
X0241699Y0176427D01*
X0241567Y0176390D01*
X0241433Y0176356D01*
X0241299Y0176327D01*
X0241164Y0176301D01*
X0241029Y0176279D01*
X0240892Y0176261D01*
X0240756Y0176247D01*
X0240619Y0176237D01*
X0240481Y0176231D01*
X0240344Y0176229D01*
X0240207Y0176231D01*
X0240069Y0176237D01*
X0239932Y0176247D01*
X0239796Y0176261D01*
X0239659Y0176279D01*
X0239524Y0176301D01*
X0239389Y0176327D01*
X0239255Y0176356D01*
X0239121Y0176390D01*
X0238989Y0176427D01*
X0238858Y0176469D01*
X0238728Y0176514D01*
X0238600Y0176563D01*
X0238473Y0176615D01*
X0238348Y0176672D01*
X0238224Y0176731D01*
X0238102Y0176795D01*
X0237982Y0176862D01*
X0237864Y0176932D01*
X0237748Y0177006D01*
X0237634Y0177083D01*
X0237523Y0177164D01*
X0237414Y0177247D01*
X0237307Y0177334D01*
X0237204Y0177424D01*
X0237102Y0177517D01*
X0237004Y0177613D01*
X0236908Y0177711D01*
X0236815Y0177813D01*
X0236725Y0177916D01*
X0236638Y0178023D01*
X0236555Y0178132D01*
X0236474Y0178243D01*
X0236397Y0178357D01*
X0236323Y0178473D01*
X0236253Y0178591D01*
X0236186Y0178711D01*
X0236122Y0178833D01*
X0236063Y0178957D01*
X0236006Y0179082D01*
X0235954Y0179209D01*
X0235905Y0179337D01*
X0235860Y0179467D01*
X0235818Y0179598D01*
X0235781Y0179730D01*
X0235747Y0179864D01*
X0235718Y0179998D01*
X0235692Y0180133D01*
X0235670Y0180268D01*
X0235652Y0180405D01*
X0235638Y0180541D01*
X0235628Y0180678D01*
X0235622Y0180816D01*
X0235620Y0180953D01*
X0244281Y0141583D02*
X0244283Y0141776D01*
X0244290Y0141969D01*
X0244302Y0142162D01*
X0244319Y0142355D01*
X0244340Y0142547D01*
X0244366Y0142738D01*
X0244397Y0142929D01*
X0244432Y0143119D01*
X0244472Y0143308D01*
X0244517Y0143496D01*
X0244566Y0143683D01*
X0244620Y0143869D01*
X0244678Y0144053D01*
X0244741Y0144236D01*
X0244809Y0144417D01*
X0244880Y0144596D01*
X0244957Y0144774D01*
X0245037Y0144950D01*
X0245122Y0145123D01*
X0245211Y0145295D01*
X0245304Y0145464D01*
X0245401Y0145631D01*
X0245503Y0145796D01*
X0245608Y0145958D01*
X0245717Y0146117D01*
X0245831Y0146274D01*
X0245948Y0146427D01*
X0246068Y0146578D01*
X0246193Y0146726D01*
X0246321Y0146871D01*
X0246452Y0147012D01*
X0246587Y0147151D01*
X0246726Y0147286D01*
X0246867Y0147417D01*
X0247012Y0147545D01*
X0247160Y0147670D01*
X0247311Y0147790D01*
X0247464Y0147907D01*
X0247621Y0148021D01*
X0247780Y0148130D01*
X0247942Y0148235D01*
X0248107Y0148337D01*
X0248274Y0148434D01*
X0248443Y0148527D01*
X0248615Y0148616D01*
X0248788Y0148701D01*
X0248964Y0148781D01*
X0249142Y0148858D01*
X0249321Y0148929D01*
X0249502Y0148997D01*
X0249685Y0149060D01*
X0249869Y0149118D01*
X0250055Y0149172D01*
X0250242Y0149221D01*
X0250430Y0149266D01*
X0250619Y0149306D01*
X0250809Y0149341D01*
X0251000Y0149372D01*
X0251191Y0149398D01*
X0251383Y0149419D01*
X0251576Y0149436D01*
X0251769Y0149448D01*
X0251962Y0149455D01*
X0252155Y0149457D01*
X0252348Y0149455D01*
X0252541Y0149448D01*
X0252734Y0149436D01*
X0252927Y0149419D01*
X0253119Y0149398D01*
X0253310Y0149372D01*
X0253501Y0149341D01*
X0253691Y0149306D01*
X0253880Y0149266D01*
X0254068Y0149221D01*
X0254255Y0149172D01*
X0254441Y0149118D01*
X0254625Y0149060D01*
X0254808Y0148997D01*
X0254989Y0148929D01*
X0255168Y0148858D01*
X0255346Y0148781D01*
X0255522Y0148701D01*
X0255695Y0148616D01*
X0255867Y0148527D01*
X0256036Y0148434D01*
X0256203Y0148337D01*
X0256368Y0148235D01*
X0256530Y0148130D01*
X0256689Y0148021D01*
X0256846Y0147907D01*
X0256999Y0147790D01*
X0257150Y0147670D01*
X0257298Y0147545D01*
X0257443Y0147417D01*
X0257584Y0147286D01*
X0257723Y0147151D01*
X0257858Y0147012D01*
X0257989Y0146871D01*
X0258117Y0146726D01*
X0258242Y0146578D01*
X0258362Y0146427D01*
X0258479Y0146274D01*
X0258593Y0146117D01*
X0258702Y0145958D01*
X0258807Y0145796D01*
X0258909Y0145631D01*
X0259006Y0145464D01*
X0259099Y0145295D01*
X0259188Y0145123D01*
X0259273Y0144950D01*
X0259353Y0144774D01*
X0259430Y0144596D01*
X0259501Y0144417D01*
X0259569Y0144236D01*
X0259632Y0144053D01*
X0259690Y0143869D01*
X0259744Y0143683D01*
X0259793Y0143496D01*
X0259838Y0143308D01*
X0259878Y0143119D01*
X0259913Y0142929D01*
X0259944Y0142738D01*
X0259970Y0142547D01*
X0259991Y0142355D01*
X0260008Y0142162D01*
X0260020Y0141969D01*
X0260027Y0141776D01*
X0260029Y0141583D01*
X0260027Y0141390D01*
X0260020Y0141197D01*
X0260008Y0141004D01*
X0259991Y0140811D01*
X0259970Y0140619D01*
X0259944Y0140428D01*
X0259913Y0140237D01*
X0259878Y0140047D01*
X0259838Y0139858D01*
X0259793Y0139670D01*
X0259744Y0139483D01*
X0259690Y0139297D01*
X0259632Y0139113D01*
X0259569Y0138930D01*
X0259501Y0138749D01*
X0259430Y0138570D01*
X0259353Y0138392D01*
X0259273Y0138216D01*
X0259188Y0138043D01*
X0259099Y0137871D01*
X0259006Y0137702D01*
X0258909Y0137535D01*
X0258807Y0137370D01*
X0258702Y0137208D01*
X0258593Y0137049D01*
X0258479Y0136892D01*
X0258362Y0136739D01*
X0258242Y0136588D01*
X0258117Y0136440D01*
X0257989Y0136295D01*
X0257858Y0136154D01*
X0257723Y0136015D01*
X0257584Y0135880D01*
X0257443Y0135749D01*
X0257298Y0135621D01*
X0257150Y0135496D01*
X0256999Y0135376D01*
X0256846Y0135259D01*
X0256689Y0135145D01*
X0256530Y0135036D01*
X0256368Y0134931D01*
X0256203Y0134829D01*
X0256036Y0134732D01*
X0255867Y0134639D01*
X0255695Y0134550D01*
X0255522Y0134465D01*
X0255346Y0134385D01*
X0255168Y0134308D01*
X0254989Y0134237D01*
X0254808Y0134169D01*
X0254625Y0134106D01*
X0254441Y0134048D01*
X0254255Y0133994D01*
X0254068Y0133945D01*
X0253880Y0133900D01*
X0253691Y0133860D01*
X0253501Y0133825D01*
X0253310Y0133794D01*
X0253119Y0133768D01*
X0252927Y0133747D01*
X0252734Y0133730D01*
X0252541Y0133718D01*
X0252348Y0133711D01*
X0252155Y0133709D01*
X0251962Y0133711D01*
X0251769Y0133718D01*
X0251576Y0133730D01*
X0251383Y0133747D01*
X0251191Y0133768D01*
X0251000Y0133794D01*
X0250809Y0133825D01*
X0250619Y0133860D01*
X0250430Y0133900D01*
X0250242Y0133945D01*
X0250055Y0133994D01*
X0249869Y0134048D01*
X0249685Y0134106D01*
X0249502Y0134169D01*
X0249321Y0134237D01*
X0249142Y0134308D01*
X0248964Y0134385D01*
X0248788Y0134465D01*
X0248615Y0134550D01*
X0248443Y0134639D01*
X0248274Y0134732D01*
X0248107Y0134829D01*
X0247942Y0134931D01*
X0247780Y0135036D01*
X0247621Y0135145D01*
X0247464Y0135259D01*
X0247311Y0135376D01*
X0247160Y0135496D01*
X0247012Y0135621D01*
X0246867Y0135749D01*
X0246726Y0135880D01*
X0246587Y0136015D01*
X0246452Y0136154D01*
X0246321Y0136295D01*
X0246193Y0136440D01*
X0246068Y0136588D01*
X0245948Y0136739D01*
X0245831Y0136892D01*
X0245717Y0137049D01*
X0245608Y0137208D01*
X0245503Y0137370D01*
X0245401Y0137535D01*
X0245304Y0137702D01*
X0245211Y0137871D01*
X0245122Y0138043D01*
X0245037Y0138216D01*
X0244957Y0138392D01*
X0244880Y0138570D01*
X0244809Y0138749D01*
X0244741Y0138930D01*
X0244678Y0139113D01*
X0244620Y0139297D01*
X0244566Y0139483D01*
X0244517Y0139670D01*
X0244472Y0139858D01*
X0244432Y0140047D01*
X0244397Y0140237D01*
X0244366Y0140428D01*
X0244340Y0140619D01*
X0244319Y0140811D01*
X0244302Y0141004D01*
X0244290Y0141197D01*
X0244283Y0141390D01*
X0244281Y0141583D01*
X0288769Y0132921D02*
X0288771Y0133058D01*
X0288777Y0133196D01*
X0288787Y0133333D01*
X0288801Y0133469D01*
X0288819Y0133606D01*
X0288841Y0133741D01*
X0288867Y0133876D01*
X0288896Y0134010D01*
X0288930Y0134144D01*
X0288967Y0134276D01*
X0289009Y0134407D01*
X0289054Y0134537D01*
X0289103Y0134665D01*
X0289155Y0134792D01*
X0289212Y0134917D01*
X0289271Y0135041D01*
X0289335Y0135163D01*
X0289402Y0135283D01*
X0289472Y0135401D01*
X0289546Y0135517D01*
X0289623Y0135631D01*
X0289704Y0135742D01*
X0289787Y0135851D01*
X0289874Y0135958D01*
X0289964Y0136061D01*
X0290057Y0136163D01*
X0290153Y0136261D01*
X0290251Y0136357D01*
X0290353Y0136450D01*
X0290456Y0136540D01*
X0290563Y0136627D01*
X0290672Y0136710D01*
X0290783Y0136791D01*
X0290897Y0136868D01*
X0291013Y0136942D01*
X0291131Y0137012D01*
X0291251Y0137079D01*
X0291373Y0137143D01*
X0291497Y0137202D01*
X0291622Y0137259D01*
X0291749Y0137311D01*
X0291877Y0137360D01*
X0292007Y0137405D01*
X0292138Y0137447D01*
X0292270Y0137484D01*
X0292404Y0137518D01*
X0292538Y0137547D01*
X0292673Y0137573D01*
X0292808Y0137595D01*
X0292945Y0137613D01*
X0293081Y0137627D01*
X0293218Y0137637D01*
X0293356Y0137643D01*
X0293493Y0137645D01*
X0293630Y0137643D01*
X0293768Y0137637D01*
X0293905Y0137627D01*
X0294041Y0137613D01*
X0294178Y0137595D01*
X0294313Y0137573D01*
X0294448Y0137547D01*
X0294582Y0137518D01*
X0294716Y0137484D01*
X0294848Y0137447D01*
X0294979Y0137405D01*
X0295109Y0137360D01*
X0295237Y0137311D01*
X0295364Y0137259D01*
X0295489Y0137202D01*
X0295613Y0137143D01*
X0295735Y0137079D01*
X0295855Y0137012D01*
X0295973Y0136942D01*
X0296089Y0136868D01*
X0296203Y0136791D01*
X0296314Y0136710D01*
X0296423Y0136627D01*
X0296530Y0136540D01*
X0296633Y0136450D01*
X0296735Y0136357D01*
X0296833Y0136261D01*
X0296929Y0136163D01*
X0297022Y0136061D01*
X0297112Y0135958D01*
X0297199Y0135851D01*
X0297282Y0135742D01*
X0297363Y0135631D01*
X0297440Y0135517D01*
X0297514Y0135401D01*
X0297584Y0135283D01*
X0297651Y0135163D01*
X0297715Y0135041D01*
X0297774Y0134917D01*
X0297831Y0134792D01*
X0297883Y0134665D01*
X0297932Y0134537D01*
X0297977Y0134407D01*
X0298019Y0134276D01*
X0298056Y0134144D01*
X0298090Y0134010D01*
X0298119Y0133876D01*
X0298145Y0133741D01*
X0298167Y0133606D01*
X0298185Y0133469D01*
X0298199Y0133333D01*
X0298209Y0133196D01*
X0298215Y0133058D01*
X0298217Y0132921D01*
X0298215Y0132784D01*
X0298209Y0132646D01*
X0298199Y0132509D01*
X0298185Y0132373D01*
X0298167Y0132236D01*
X0298145Y0132101D01*
X0298119Y0131966D01*
X0298090Y0131832D01*
X0298056Y0131698D01*
X0298019Y0131566D01*
X0297977Y0131435D01*
X0297932Y0131305D01*
X0297883Y0131177D01*
X0297831Y0131050D01*
X0297774Y0130925D01*
X0297715Y0130801D01*
X0297651Y0130679D01*
X0297584Y0130559D01*
X0297514Y0130441D01*
X0297440Y0130325D01*
X0297363Y0130211D01*
X0297282Y0130100D01*
X0297199Y0129991D01*
X0297112Y0129884D01*
X0297022Y0129781D01*
X0296929Y0129679D01*
X0296833Y0129581D01*
X0296735Y0129485D01*
X0296633Y0129392D01*
X0296530Y0129302D01*
X0296423Y0129215D01*
X0296314Y0129132D01*
X0296203Y0129051D01*
X0296089Y0128974D01*
X0295973Y0128900D01*
X0295855Y0128830D01*
X0295735Y0128763D01*
X0295613Y0128699D01*
X0295489Y0128640D01*
X0295364Y0128583D01*
X0295237Y0128531D01*
X0295109Y0128482D01*
X0294979Y0128437D01*
X0294848Y0128395D01*
X0294716Y0128358D01*
X0294582Y0128324D01*
X0294448Y0128295D01*
X0294313Y0128269D01*
X0294178Y0128247D01*
X0294041Y0128229D01*
X0293905Y0128215D01*
X0293768Y0128205D01*
X0293630Y0128199D01*
X0293493Y0128197D01*
X0293356Y0128199D01*
X0293218Y0128205D01*
X0293081Y0128215D01*
X0292945Y0128229D01*
X0292808Y0128247D01*
X0292673Y0128269D01*
X0292538Y0128295D01*
X0292404Y0128324D01*
X0292270Y0128358D01*
X0292138Y0128395D01*
X0292007Y0128437D01*
X0291877Y0128482D01*
X0291749Y0128531D01*
X0291622Y0128583D01*
X0291497Y0128640D01*
X0291373Y0128699D01*
X0291251Y0128763D01*
X0291131Y0128830D01*
X0291013Y0128900D01*
X0290897Y0128974D01*
X0290783Y0129051D01*
X0290672Y0129132D01*
X0290563Y0129215D01*
X0290456Y0129302D01*
X0290353Y0129392D01*
X0290251Y0129485D01*
X0290153Y0129581D01*
X0290057Y0129679D01*
X0289964Y0129781D01*
X0289874Y0129884D01*
X0289787Y0129991D01*
X0289704Y0130100D01*
X0289623Y0130211D01*
X0289546Y0130325D01*
X0289472Y0130441D01*
X0289402Y0130559D01*
X0289335Y0130679D01*
X0289271Y0130801D01*
X0289212Y0130925D01*
X0289155Y0131050D01*
X0289103Y0131177D01*
X0289054Y0131305D01*
X0289009Y0131435D01*
X0288967Y0131566D01*
X0288930Y0131698D01*
X0288896Y0131832D01*
X0288867Y0131966D01*
X0288841Y0132101D01*
X0288819Y0132236D01*
X0288801Y0132373D01*
X0288787Y0132509D01*
X0288777Y0132646D01*
X0288771Y0132784D01*
X0288769Y0132921D01*
X0286407Y0443551D02*
X0286409Y0443694D01*
X0286415Y0443837D01*
X0286425Y0443979D01*
X0286439Y0444121D01*
X0286457Y0444263D01*
X0286479Y0444405D01*
X0286504Y0444545D01*
X0286534Y0444685D01*
X0286568Y0444824D01*
X0286605Y0444962D01*
X0286647Y0445099D01*
X0286692Y0445234D01*
X0286741Y0445368D01*
X0286793Y0445501D01*
X0286849Y0445633D01*
X0286909Y0445762D01*
X0286973Y0445890D01*
X0287040Y0446017D01*
X0287111Y0446141D01*
X0287185Y0446263D01*
X0287262Y0446383D01*
X0287343Y0446501D01*
X0287427Y0446617D01*
X0287514Y0446730D01*
X0287604Y0446841D01*
X0287698Y0446949D01*
X0287794Y0447055D01*
X0287893Y0447157D01*
X0287996Y0447257D01*
X0288100Y0447354D01*
X0288208Y0447449D01*
X0288318Y0447540D01*
X0288431Y0447628D01*
X0288546Y0447712D01*
X0288663Y0447794D01*
X0288783Y0447872D01*
X0288904Y0447947D01*
X0289028Y0448019D01*
X0289154Y0448087D01*
X0289281Y0448151D01*
X0289411Y0448212D01*
X0289542Y0448269D01*
X0289674Y0448323D01*
X0289808Y0448372D01*
X0289943Y0448419D01*
X0290080Y0448461D01*
X0290218Y0448499D01*
X0290356Y0448534D01*
X0290496Y0448564D01*
X0290636Y0448591D01*
X0290777Y0448614D01*
X0290919Y0448633D01*
X0291061Y0448648D01*
X0291204Y0448659D01*
X0291346Y0448666D01*
X0291489Y0448669D01*
X0291632Y0448668D01*
X0291775Y0448663D01*
X0291918Y0448654D01*
X0292060Y0448641D01*
X0292202Y0448624D01*
X0292343Y0448603D01*
X0292484Y0448578D01*
X0292624Y0448550D01*
X0292763Y0448517D01*
X0292901Y0448480D01*
X0293038Y0448440D01*
X0293174Y0448396D01*
X0293309Y0448348D01*
X0293442Y0448296D01*
X0293574Y0448241D01*
X0293704Y0448182D01*
X0293833Y0448119D01*
X0293959Y0448053D01*
X0294084Y0447983D01*
X0294207Y0447910D01*
X0294327Y0447834D01*
X0294446Y0447754D01*
X0294562Y0447670D01*
X0294676Y0447584D01*
X0294787Y0447494D01*
X0294896Y0447402D01*
X0295002Y0447306D01*
X0295106Y0447208D01*
X0295207Y0447106D01*
X0295304Y0447002D01*
X0295399Y0446895D01*
X0295491Y0446786D01*
X0295580Y0446674D01*
X0295666Y0446559D01*
X0295748Y0446443D01*
X0295827Y0446323D01*
X0295903Y0446202D01*
X0295975Y0446079D01*
X0296044Y0445954D01*
X0296109Y0445827D01*
X0296171Y0445698D01*
X0296229Y0445567D01*
X0296284Y0445435D01*
X0296334Y0445301D01*
X0296381Y0445166D01*
X0296425Y0445030D01*
X0296464Y0444893D01*
X0296499Y0444754D01*
X0296531Y0444615D01*
X0296559Y0444475D01*
X0296583Y0444334D01*
X0296603Y0444192D01*
X0296619Y0444050D01*
X0296631Y0443908D01*
X0296639Y0443765D01*
X0296643Y0443622D01*
X0296643Y0443480D01*
X0296639Y0443337D01*
X0296631Y0443194D01*
X0296619Y0443052D01*
X0296603Y0442910D01*
X0296583Y0442768D01*
X0296559Y0442627D01*
X0296531Y0442487D01*
X0296499Y0442348D01*
X0296464Y0442209D01*
X0296425Y0442072D01*
X0296381Y0441936D01*
X0296334Y0441801D01*
X0296284Y0441667D01*
X0296229Y0441535D01*
X0296171Y0441404D01*
X0296109Y0441275D01*
X0296044Y0441148D01*
X0295975Y0441023D01*
X0295903Y0440900D01*
X0295827Y0440779D01*
X0295748Y0440659D01*
X0295666Y0440543D01*
X0295580Y0440428D01*
X0295491Y0440316D01*
X0295399Y0440207D01*
X0295304Y0440100D01*
X0295207Y0439996D01*
X0295106Y0439894D01*
X0295002Y0439796D01*
X0294896Y0439700D01*
X0294787Y0439608D01*
X0294676Y0439518D01*
X0294562Y0439432D01*
X0294446Y0439348D01*
X0294327Y0439268D01*
X0294207Y0439192D01*
X0294084Y0439119D01*
X0293959Y0439049D01*
X0293833Y0438983D01*
X0293704Y0438920D01*
X0293574Y0438861D01*
X0293442Y0438806D01*
X0293309Y0438754D01*
X0293174Y0438706D01*
X0293038Y0438662D01*
X0292901Y0438622D01*
X0292763Y0438585D01*
X0292624Y0438552D01*
X0292484Y0438524D01*
X0292343Y0438499D01*
X0292202Y0438478D01*
X0292060Y0438461D01*
X0291918Y0438448D01*
X0291775Y0438439D01*
X0291632Y0438434D01*
X0291489Y0438433D01*
X0291346Y0438436D01*
X0291204Y0438443D01*
X0291061Y0438454D01*
X0290919Y0438469D01*
X0290777Y0438488D01*
X0290636Y0438511D01*
X0290496Y0438538D01*
X0290356Y0438568D01*
X0290218Y0438603D01*
X0290080Y0438641D01*
X0289943Y0438683D01*
X0289808Y0438730D01*
X0289674Y0438779D01*
X0289542Y0438833D01*
X0289411Y0438890D01*
X0289281Y0438951D01*
X0289154Y0439015D01*
X0289028Y0439083D01*
X0288904Y0439155D01*
X0288783Y0439230D01*
X0288663Y0439308D01*
X0288546Y0439390D01*
X0288431Y0439474D01*
X0288318Y0439562D01*
X0288208Y0439653D01*
X0288100Y0439748D01*
X0287996Y0439845D01*
X0287893Y0439945D01*
X0287794Y0440047D01*
X0287698Y0440153D01*
X0287604Y0440261D01*
X0287514Y0440372D01*
X0287427Y0440485D01*
X0287343Y0440601D01*
X0287262Y0440719D01*
X0287185Y0440839D01*
X0287111Y0440961D01*
X0287040Y0441085D01*
X0286973Y0441212D01*
X0286909Y0441340D01*
X0286849Y0441469D01*
X0286793Y0441601D01*
X0286741Y0441734D01*
X0286692Y0441868D01*
X0286647Y0442003D01*
X0286605Y0442140D01*
X0286568Y0442278D01*
X0286534Y0442417D01*
X0286504Y0442557D01*
X0286479Y0442697D01*
X0286457Y0442839D01*
X0286439Y0442981D01*
X0286425Y0443123D01*
X0286415Y0443265D01*
X0286409Y0443408D01*
X0286407Y0443551D01*
D12*
X0293100Y0364811D03*
X0293100Y0356937D03*
X0037194Y0416780D03*
X0037194Y0424654D03*
D13*
X0114950Y0387646D03*
X0114950Y0384496D03*
X0114950Y0381346D03*
X0114950Y0378197D03*
X0114950Y0375047D03*
X0114950Y0371898D03*
X0114950Y0368748D03*
X0114950Y0365598D03*
X0114950Y0362449D03*
X0114950Y0359299D03*
X0114950Y0356150D03*
X0114950Y0353000D03*
X0114950Y0349850D03*
X0114950Y0346701D03*
X0114950Y0343551D03*
X0114950Y0340402D03*
X0114950Y0337252D03*
X0114950Y0334102D03*
D14*
X0079512Y0208014D02*
X0079512Y0203694D01*
X0075192Y0203694D01*
X0075192Y0208014D01*
X0079512Y0208014D01*
X0079512Y0204773D02*
X0075192Y0204773D01*
X0075192Y0205852D02*
X0079512Y0205852D01*
X0079512Y0206931D02*
X0075192Y0206931D01*
X0075192Y0208010D02*
X0079512Y0208010D01*
X0075192Y0188132D02*
X0075192Y0183812D01*
X0075192Y0188132D02*
X0079512Y0188132D01*
X0079512Y0183812D01*
X0075192Y0183812D01*
X0075192Y0184891D02*
X0079512Y0184891D01*
X0079512Y0185970D02*
X0075192Y0185970D01*
X0075192Y0187049D02*
X0079512Y0187049D01*
X0079512Y0188128D02*
X0075192Y0188128D01*
X0057957Y0162257D02*
X0053637Y0162257D01*
X0053637Y0166577D01*
X0057957Y0166577D01*
X0057957Y0162257D01*
X0057957Y0163336D02*
X0053637Y0163336D01*
X0053637Y0164415D02*
X0057957Y0164415D01*
X0057957Y0165494D02*
X0053637Y0165494D01*
X0053637Y0166573D02*
X0057957Y0166573D01*
X0038075Y0166577D02*
X0033755Y0166577D01*
X0038075Y0166577D02*
X0038075Y0162257D01*
X0033755Y0162257D01*
X0033755Y0166577D01*
X0033755Y0163336D02*
X0038075Y0163336D01*
X0038075Y0164415D02*
X0033755Y0164415D01*
X0033755Y0165494D02*
X0038075Y0165494D01*
X0038075Y0166573D02*
X0033755Y0166573D01*
X0079512Y0145022D02*
X0079512Y0140702D01*
X0075192Y0140702D01*
X0075192Y0145022D01*
X0079512Y0145022D01*
X0079512Y0141781D02*
X0075192Y0141781D01*
X0075192Y0142860D02*
X0079512Y0142860D01*
X0079512Y0143939D02*
X0075192Y0143939D01*
X0075192Y0145018D02*
X0079512Y0145018D01*
X0075192Y0125140D02*
X0075192Y0120820D01*
X0075192Y0125140D02*
X0079512Y0125140D01*
X0079512Y0120820D01*
X0075192Y0120820D01*
X0075192Y0121899D02*
X0079512Y0121899D01*
X0079512Y0122978D02*
X0075192Y0122978D01*
X0075192Y0124057D02*
X0079512Y0124057D01*
X0079512Y0125136D02*
X0075192Y0125136D01*
X0096747Y0166577D02*
X0101067Y0166577D01*
X0101067Y0162257D01*
X0096747Y0162257D01*
X0096747Y0166577D01*
X0096747Y0163336D02*
X0101067Y0163336D01*
X0101067Y0164415D02*
X0096747Y0164415D01*
X0096747Y0165494D02*
X0101067Y0165494D01*
X0101067Y0166573D02*
X0096747Y0166573D01*
X0116629Y0162257D02*
X0120949Y0162257D01*
X0116629Y0162257D02*
X0116629Y0166577D01*
X0120949Y0166577D01*
X0120949Y0162257D01*
X0120949Y0163336D02*
X0116629Y0163336D01*
X0116629Y0164415D02*
X0120949Y0164415D01*
X0120949Y0165494D02*
X0116629Y0165494D01*
X0116629Y0166573D02*
X0120949Y0166573D01*
X0152731Y0132365D02*
X0157051Y0132365D01*
X0157051Y0128045D01*
X0152731Y0128045D01*
X0152731Y0132365D01*
X0152731Y0129124D02*
X0157051Y0129124D01*
X0157051Y0130203D02*
X0152731Y0130203D01*
X0152731Y0131282D02*
X0157051Y0131282D01*
X0157051Y0132361D02*
X0152731Y0132361D01*
X0172613Y0128045D02*
X0176933Y0128045D01*
X0172613Y0128045D02*
X0172613Y0132365D01*
X0176933Y0132365D01*
X0176933Y0128045D01*
X0176933Y0129124D02*
X0172613Y0129124D01*
X0172613Y0130203D02*
X0176933Y0130203D01*
X0176933Y0131282D02*
X0172613Y0131282D01*
X0172613Y0132361D02*
X0176933Y0132361D01*
X0191539Y0089451D02*
X0191539Y0085131D01*
X0187219Y0085131D01*
X0187219Y0089451D01*
X0191539Y0089451D01*
X0191539Y0086210D02*
X0187219Y0086210D01*
X0187219Y0087289D02*
X0191539Y0087289D01*
X0191539Y0088368D02*
X0187219Y0088368D01*
X0187219Y0089447D02*
X0191539Y0089447D01*
X0187219Y0079215D02*
X0187219Y0074895D01*
X0187219Y0079215D02*
X0191539Y0079215D01*
X0191539Y0074895D01*
X0187219Y0074895D01*
X0187219Y0075974D02*
X0191539Y0075974D01*
X0191539Y0077053D02*
X0187219Y0077053D01*
X0187219Y0078132D02*
X0191539Y0078132D01*
X0191539Y0079211D02*
X0187219Y0079211D01*
X0141550Y0079215D02*
X0141550Y0074895D01*
X0141550Y0079215D02*
X0145870Y0079215D01*
X0145870Y0074895D01*
X0141550Y0074895D01*
X0141550Y0075974D02*
X0145870Y0075974D01*
X0145870Y0077053D02*
X0141550Y0077053D01*
X0141550Y0078132D02*
X0145870Y0078132D01*
X0145870Y0079211D02*
X0141550Y0079211D01*
X0145870Y0085131D02*
X0145870Y0089451D01*
X0145870Y0085131D02*
X0141550Y0085131D01*
X0141550Y0089451D01*
X0145870Y0089451D01*
X0145870Y0086210D02*
X0141550Y0086210D01*
X0141550Y0087289D02*
X0145870Y0087289D01*
X0145870Y0088368D02*
X0141550Y0088368D01*
X0141550Y0089447D02*
X0145870Y0089447D01*
X0207849Y0155987D02*
X0212169Y0155987D01*
X0212169Y0151667D01*
X0207849Y0151667D01*
X0207849Y0155987D01*
X0207849Y0152746D02*
X0212169Y0152746D01*
X0212169Y0153825D02*
X0207849Y0153825D01*
X0207849Y0154904D02*
X0212169Y0154904D01*
X0212169Y0155983D02*
X0207849Y0155983D01*
X0227731Y0151667D02*
X0232051Y0151667D01*
X0227731Y0151667D02*
X0227731Y0155987D01*
X0232051Y0155987D01*
X0232051Y0151667D01*
X0232051Y0152746D02*
X0227731Y0152746D01*
X0227731Y0153825D02*
X0232051Y0153825D01*
X0232051Y0154904D02*
X0227731Y0154904D01*
X0227731Y0155983D02*
X0232051Y0155983D01*
X0251156Y0116617D02*
X0255476Y0116617D01*
X0255476Y0112297D01*
X0251156Y0112297D01*
X0251156Y0116617D01*
X0251156Y0113376D02*
X0255476Y0113376D01*
X0255476Y0114455D02*
X0251156Y0114455D01*
X0251156Y0115534D02*
X0255476Y0115534D01*
X0255476Y0116613D02*
X0251156Y0116613D01*
X0271038Y0112297D02*
X0275358Y0112297D01*
X0271038Y0112297D02*
X0271038Y0116617D01*
X0275358Y0116617D01*
X0275358Y0112297D01*
X0275358Y0113376D02*
X0271038Y0113376D01*
X0271038Y0114455D02*
X0275358Y0114455D01*
X0275358Y0115534D02*
X0271038Y0115534D01*
X0271038Y0116613D02*
X0275358Y0116613D01*
X0283046Y0169344D02*
X0287366Y0169344D01*
X0283046Y0169344D02*
X0283046Y0173664D01*
X0287366Y0173664D01*
X0287366Y0169344D01*
X0287366Y0170423D02*
X0283046Y0170423D01*
X0283046Y0171502D02*
X0287366Y0171502D01*
X0287366Y0172581D02*
X0283046Y0172581D01*
X0283046Y0173660D02*
X0287366Y0173660D01*
X0267484Y0173664D02*
X0263164Y0173664D01*
X0267484Y0173664D02*
X0267484Y0169344D01*
X0263164Y0169344D01*
X0263164Y0173664D01*
X0263164Y0170423D02*
X0267484Y0170423D01*
X0267484Y0171502D02*
X0263164Y0171502D01*
X0263164Y0172581D02*
X0267484Y0172581D01*
X0267484Y0173660D02*
X0263164Y0173660D01*
X0243862Y0210722D02*
X0239542Y0210722D01*
X0239542Y0215042D01*
X0243862Y0215042D01*
X0243862Y0210722D01*
X0243862Y0211801D02*
X0239542Y0211801D01*
X0239542Y0212880D02*
X0243862Y0212880D01*
X0243862Y0213959D02*
X0239542Y0213959D01*
X0239542Y0215038D02*
X0243862Y0215038D01*
X0223980Y0215042D02*
X0219660Y0215042D01*
X0223980Y0215042D02*
X0223980Y0210722D01*
X0219660Y0210722D01*
X0219660Y0215042D01*
X0219660Y0211801D02*
X0223980Y0211801D01*
X0223980Y0212880D02*
X0219660Y0212880D01*
X0219660Y0213959D02*
X0223980Y0213959D01*
X0223980Y0215038D02*
X0219660Y0215038D01*
X0188744Y0187100D02*
X0184424Y0187100D01*
X0184424Y0191420D01*
X0188744Y0191420D01*
X0188744Y0187100D01*
X0188744Y0188179D02*
X0184424Y0188179D01*
X0184424Y0189258D02*
X0188744Y0189258D01*
X0188744Y0190337D02*
X0184424Y0190337D01*
X0184424Y0191416D02*
X0188744Y0191416D01*
X0168862Y0191420D02*
X0164542Y0191420D01*
X0168862Y0191420D02*
X0168862Y0187100D01*
X0164542Y0187100D01*
X0164542Y0191420D01*
X0164542Y0188179D02*
X0168862Y0188179D01*
X0168862Y0189258D02*
X0164542Y0189258D01*
X0164542Y0190337D02*
X0168862Y0190337D01*
X0168862Y0191416D02*
X0164542Y0191416D01*
D15*
X0176643Y0189260D03*
X0164832Y0130205D03*
X0231761Y0212882D03*
X0263257Y0114457D03*
D16*
X0262470Y0118394D02*
X0262470Y0126268D01*
X0260796Y0126141D01*
X0259158Y0125777D01*
X0257588Y0125184D01*
X0256119Y0124374D01*
X0254779Y0123363D01*
X0253598Y0122171D01*
X0252598Y0120823D01*
X0251800Y0119347D01*
X0251220Y0117772D01*
X0250870Y0116131D01*
X0250757Y0114457D01*
X0250870Y0112782D01*
X0251220Y0111141D01*
X0251800Y0109566D01*
X0252598Y0108090D01*
X0253598Y0106742D01*
X0254779Y0105551D01*
X0256119Y0104539D01*
X0257588Y0103729D01*
X0259158Y0103136D01*
X0260796Y0102772D01*
X0262470Y0102646D01*
X0262470Y0110520D01*
X0261792Y0110697D01*
X0261155Y0110989D01*
X0260579Y0111387D01*
X0260080Y0111879D01*
X0259675Y0112451D01*
X0259374Y0113084D01*
X0259189Y0113759D01*
X0259123Y0114457D01*
X0259189Y0115154D01*
X0259374Y0115830D01*
X0259675Y0116463D01*
X0260080Y0117034D01*
X0260579Y0117526D01*
X0261155Y0117925D01*
X0261792Y0118217D01*
X0262470Y0118394D01*
X0262470Y0118546D02*
X0251505Y0118546D01*
X0251615Y0118845D02*
X0262470Y0118845D01*
X0262470Y0119143D02*
X0251724Y0119143D01*
X0251851Y0119442D02*
X0262470Y0119442D01*
X0262470Y0119740D02*
X0252012Y0119740D01*
X0252173Y0120039D02*
X0262470Y0120039D01*
X0262470Y0120337D02*
X0252335Y0120337D01*
X0252496Y0120636D02*
X0262470Y0120636D01*
X0262470Y0120934D02*
X0252680Y0120934D01*
X0252901Y0121233D02*
X0262470Y0121233D01*
X0262470Y0121531D02*
X0253123Y0121531D01*
X0253344Y0121830D02*
X0262470Y0121830D01*
X0262470Y0122128D02*
X0253566Y0122128D01*
X0253851Y0122427D02*
X0262470Y0122427D01*
X0262470Y0122725D02*
X0254147Y0122725D01*
X0254443Y0123024D02*
X0262470Y0123024D01*
X0262470Y0123322D02*
X0254739Y0123322D01*
X0255121Y0123621D02*
X0262470Y0123621D01*
X0262470Y0123919D02*
X0255516Y0123919D01*
X0255912Y0124218D02*
X0262470Y0124218D01*
X0262470Y0124516D02*
X0256377Y0124516D01*
X0256918Y0124815D02*
X0262470Y0124815D01*
X0262470Y0125113D02*
X0257459Y0125113D01*
X0258190Y0125412D02*
X0262470Y0125412D01*
X0262470Y0125710D02*
X0258980Y0125710D01*
X0260201Y0126009D02*
X0262470Y0126009D01*
X0264045Y0126009D02*
X0266314Y0126009D01*
X0265718Y0126141D02*
X0264045Y0126268D01*
X0264045Y0118394D01*
X0264722Y0118217D01*
X0265359Y0117925D01*
X0265936Y0117526D01*
X0266434Y0117034D01*
X0266840Y0116463D01*
X0267140Y0115830D01*
X0267326Y0115154D01*
X0267391Y0114457D01*
X0267326Y0113759D01*
X0267140Y0113084D01*
X0266840Y0112451D01*
X0266434Y0111879D01*
X0265936Y0111387D01*
X0265359Y0110989D01*
X0264722Y0110697D01*
X0264045Y0110520D01*
X0264045Y0102646D01*
X0265718Y0102772D01*
X0267356Y0103136D01*
X0268926Y0103729D01*
X0270396Y0104539D01*
X0271735Y0105551D01*
X0272917Y0106742D01*
X0273917Y0108090D01*
X0274715Y0109566D01*
X0275295Y0111141D01*
X0275645Y0112782D01*
X0275757Y0114457D01*
X0275645Y0116131D01*
X0275295Y0117772D01*
X0274715Y0119347D01*
X0273917Y0120823D01*
X0272917Y0122171D01*
X0271735Y0123363D01*
X0270396Y0124374D01*
X0268926Y0125184D01*
X0267356Y0125777D01*
X0265718Y0126141D01*
X0264045Y0125710D02*
X0267534Y0125710D01*
X0268324Y0125412D02*
X0264045Y0125412D01*
X0264045Y0125113D02*
X0269055Y0125113D01*
X0269596Y0124815D02*
X0264045Y0124815D01*
X0264045Y0124516D02*
X0270138Y0124516D01*
X0270603Y0124218D02*
X0264045Y0124218D01*
X0264045Y0123919D02*
X0270998Y0123919D01*
X0271393Y0123621D02*
X0264045Y0123621D01*
X0264045Y0123322D02*
X0271775Y0123322D01*
X0272071Y0123024D02*
X0264045Y0123024D01*
X0264045Y0122725D02*
X0272367Y0122725D01*
X0272663Y0122427D02*
X0264045Y0122427D01*
X0264045Y0122128D02*
X0272948Y0122128D01*
X0273170Y0121830D02*
X0264045Y0121830D01*
X0264045Y0121531D02*
X0273392Y0121531D01*
X0273613Y0121233D02*
X0264045Y0121233D01*
X0264045Y0120934D02*
X0273835Y0120934D01*
X0274018Y0120636D02*
X0264045Y0120636D01*
X0264045Y0120337D02*
X0274180Y0120337D01*
X0274341Y0120039D02*
X0264045Y0120039D01*
X0264045Y0119740D02*
X0274502Y0119740D01*
X0274664Y0119442D02*
X0264045Y0119442D01*
X0264045Y0119143D02*
X0274790Y0119143D01*
X0274900Y0118845D02*
X0264045Y0118845D01*
X0264045Y0118546D02*
X0275010Y0118546D01*
X0275120Y0118247D02*
X0264605Y0118247D01*
X0265306Y0117949D02*
X0275230Y0117949D01*
X0275321Y0117650D02*
X0265756Y0117650D01*
X0266112Y0117352D02*
X0275384Y0117352D01*
X0275448Y0117053D02*
X0266415Y0117053D01*
X0266633Y0116755D02*
X0275512Y0116755D01*
X0275575Y0116456D02*
X0266843Y0116456D01*
X0266984Y0116158D02*
X0275639Y0116158D01*
X0275663Y0115859D02*
X0267126Y0115859D01*
X0267214Y0115561D02*
X0275683Y0115561D01*
X0275703Y0115262D02*
X0267296Y0115262D01*
X0267343Y0114964D02*
X0275723Y0114964D01*
X0275743Y0114665D02*
X0267371Y0114665D01*
X0267383Y0114367D02*
X0275751Y0114367D01*
X0275731Y0114068D02*
X0267355Y0114068D01*
X0267327Y0113770D02*
X0275711Y0113770D01*
X0275691Y0113471D02*
X0267246Y0113471D01*
X0267164Y0113173D02*
X0275671Y0113173D01*
X0275651Y0112874D02*
X0267041Y0112874D01*
X0266899Y0112576D02*
X0275600Y0112576D01*
X0275537Y0112277D02*
X0266717Y0112277D01*
X0266505Y0111979D02*
X0275473Y0111979D01*
X0275410Y0111680D02*
X0266233Y0111680D01*
X0265928Y0111382D02*
X0275346Y0111382D01*
X0275273Y0111083D02*
X0265496Y0111083D01*
X0264914Y0110785D02*
X0275163Y0110785D01*
X0275054Y0110486D02*
X0264045Y0110486D01*
X0264045Y0110188D02*
X0274944Y0110188D01*
X0274834Y0109889D02*
X0264045Y0109889D01*
X0264045Y0109591D02*
X0274724Y0109591D01*
X0274567Y0109292D02*
X0264045Y0109292D01*
X0264045Y0108994D02*
X0274405Y0108994D01*
X0274244Y0108695D02*
X0264045Y0108695D01*
X0264045Y0108397D02*
X0274082Y0108397D01*
X0273921Y0108098D02*
X0264045Y0108098D01*
X0264045Y0107800D02*
X0273701Y0107800D01*
X0273480Y0107501D02*
X0264045Y0107501D01*
X0264045Y0107203D02*
X0273258Y0107203D01*
X0273037Y0106904D02*
X0264045Y0106904D01*
X0264045Y0106606D02*
X0272781Y0106606D01*
X0272485Y0106307D02*
X0264045Y0106307D01*
X0264045Y0106009D02*
X0272189Y0106009D01*
X0271893Y0105710D02*
X0264045Y0105710D01*
X0264045Y0105412D02*
X0271551Y0105412D01*
X0271155Y0105113D02*
X0264045Y0105113D01*
X0264045Y0104814D02*
X0270760Y0104814D01*
X0270353Y0104516D02*
X0264045Y0104516D01*
X0264045Y0104217D02*
X0269812Y0104217D01*
X0269271Y0103919D02*
X0264045Y0103919D01*
X0264045Y0103620D02*
X0268639Y0103620D01*
X0267849Y0103322D02*
X0264045Y0103322D01*
X0264045Y0103023D02*
X0266849Y0103023D01*
X0265091Y0102725D02*
X0264045Y0102725D01*
X0262470Y0102725D02*
X0261424Y0102725D01*
X0262470Y0103023D02*
X0259665Y0103023D01*
X0258666Y0103322D02*
X0262470Y0103322D01*
X0262470Y0103620D02*
X0257876Y0103620D01*
X0257244Y0103919D02*
X0262470Y0103919D01*
X0262470Y0104217D02*
X0256702Y0104217D01*
X0256161Y0104516D02*
X0262470Y0104516D01*
X0262470Y0104814D02*
X0255754Y0104814D01*
X0255359Y0105113D02*
X0262470Y0105113D01*
X0262470Y0105412D02*
X0254964Y0105412D01*
X0254622Y0105710D02*
X0262470Y0105710D01*
X0262470Y0106009D02*
X0254325Y0106009D01*
X0254029Y0106307D02*
X0262470Y0106307D01*
X0262470Y0106606D02*
X0253733Y0106606D01*
X0253478Y0106904D02*
X0262470Y0106904D01*
X0262470Y0107203D02*
X0253256Y0107203D01*
X0253035Y0107501D02*
X0262470Y0107501D01*
X0262470Y0107800D02*
X0252813Y0107800D01*
X0252593Y0108098D02*
X0262470Y0108098D01*
X0262470Y0108397D02*
X0252432Y0108397D01*
X0252271Y0108695D02*
X0262470Y0108695D01*
X0262470Y0108994D02*
X0252109Y0108994D01*
X0251948Y0109292D02*
X0262470Y0109292D01*
X0262470Y0109591D02*
X0251791Y0109591D01*
X0251681Y0109889D02*
X0262470Y0109889D01*
X0262470Y0110188D02*
X0251571Y0110188D01*
X0251461Y0110486D02*
X0262470Y0110486D01*
X0261600Y0110785D02*
X0251351Y0110785D01*
X0251241Y0111083D02*
X0261018Y0111083D01*
X0260586Y0111382D02*
X0251168Y0111382D01*
X0251105Y0111680D02*
X0260282Y0111680D01*
X0260009Y0111979D02*
X0251041Y0111979D01*
X0250978Y0112277D02*
X0259798Y0112277D01*
X0259615Y0112576D02*
X0250914Y0112576D01*
X0250864Y0112874D02*
X0259474Y0112874D01*
X0259350Y0113173D02*
X0250844Y0113173D01*
X0250824Y0113471D02*
X0259268Y0113471D01*
X0259188Y0113770D02*
X0250803Y0113770D01*
X0250783Y0114068D02*
X0259160Y0114068D01*
X0259132Y0114367D02*
X0250763Y0114367D01*
X0250771Y0114665D02*
X0259143Y0114665D01*
X0259171Y0114964D02*
X0250791Y0114964D01*
X0250811Y0115262D02*
X0259219Y0115262D01*
X0259301Y0115561D02*
X0250832Y0115561D01*
X0250852Y0115859D02*
X0259389Y0115859D01*
X0259530Y0116158D02*
X0250876Y0116158D01*
X0250939Y0116456D02*
X0259672Y0116456D01*
X0259882Y0116755D02*
X0251003Y0116755D01*
X0251067Y0117053D02*
X0260100Y0117053D01*
X0260402Y0117352D02*
X0251130Y0117352D01*
X0251194Y0117650D02*
X0260758Y0117650D01*
X0261208Y0117949D02*
X0251285Y0117949D01*
X0251395Y0118247D02*
X0261910Y0118247D01*
X0271634Y0160039D02*
X0274084Y0160039D01*
X0274084Y0159741D02*
X0273571Y0159741D01*
X0274084Y0159693D02*
X0272441Y0159846D01*
X0270836Y0160231D01*
X0269302Y0160840D01*
X0267871Y0161662D01*
X0266571Y0162679D01*
X0265429Y0163870D01*
X0264468Y0165212D01*
X0263708Y0166677D01*
X0263164Y0168236D01*
X0262848Y0169856D01*
X0262765Y0171504D01*
X0262848Y0173152D01*
X0263164Y0174772D01*
X0263708Y0176330D01*
X0264468Y0177795D01*
X0265429Y0179137D01*
X0266571Y0180329D01*
X0267871Y0181346D01*
X0269302Y0182168D01*
X0270836Y0182777D01*
X0272441Y0183162D01*
X0274084Y0183315D01*
X0274084Y0173472D01*
X0273681Y0173312D01*
X0273325Y0173063D01*
X0273037Y0172739D01*
X0272831Y0172357D01*
X0272719Y0171938D01*
X0272706Y0171504D01*
X0272719Y0171070D01*
X0272831Y0170651D01*
X0273037Y0170269D01*
X0273325Y0169945D01*
X0273681Y0169696D01*
X0274084Y0169535D01*
X0274084Y0159693D01*
X0274084Y0160338D02*
X0270567Y0160338D01*
X0269816Y0160636D02*
X0274084Y0160636D01*
X0274084Y0160935D02*
X0269138Y0160935D01*
X0268617Y0161233D02*
X0274084Y0161233D01*
X0274084Y0161532D02*
X0268097Y0161532D01*
X0267655Y0161830D02*
X0274084Y0161830D01*
X0274084Y0162129D02*
X0267274Y0162129D01*
X0266892Y0162427D02*
X0274084Y0162427D01*
X0274084Y0162726D02*
X0266526Y0162726D01*
X0266240Y0163024D02*
X0274084Y0163024D01*
X0274084Y0163323D02*
X0265954Y0163323D01*
X0265667Y0163621D02*
X0274084Y0163621D01*
X0274084Y0163920D02*
X0265393Y0163920D01*
X0265180Y0164218D02*
X0274084Y0164218D01*
X0274084Y0164517D02*
X0264966Y0164517D01*
X0264752Y0164815D02*
X0274084Y0164815D01*
X0274084Y0165114D02*
X0264539Y0165114D01*
X0264364Y0165412D02*
X0274084Y0165412D01*
X0274084Y0165711D02*
X0264209Y0165711D01*
X0264055Y0166009D02*
X0274084Y0166009D01*
X0274084Y0166308D02*
X0263900Y0166308D01*
X0263745Y0166606D02*
X0274084Y0166606D01*
X0274084Y0166905D02*
X0263629Y0166905D01*
X0263524Y0167203D02*
X0274084Y0167203D01*
X0274084Y0167502D02*
X0263420Y0167502D01*
X0263316Y0167800D02*
X0274084Y0167800D01*
X0274084Y0168099D02*
X0263212Y0168099D01*
X0263133Y0168397D02*
X0274084Y0168397D01*
X0274084Y0168696D02*
X0263074Y0168696D01*
X0263016Y0168994D02*
X0274084Y0168994D01*
X0274084Y0169293D02*
X0262958Y0169293D01*
X0262899Y0169591D02*
X0273943Y0169591D01*
X0273403Y0169890D02*
X0262846Y0169890D01*
X0262831Y0170188D02*
X0273108Y0170188D01*
X0272919Y0170487D02*
X0262816Y0170487D01*
X0262801Y0170785D02*
X0272795Y0170785D01*
X0272718Y0171084D02*
X0262786Y0171084D01*
X0262771Y0171383D02*
X0272710Y0171383D01*
X0272711Y0171681D02*
X0262774Y0171681D01*
X0262789Y0171980D02*
X0272730Y0171980D01*
X0272810Y0172278D02*
X0262804Y0172278D01*
X0262819Y0172577D02*
X0272949Y0172577D01*
X0273158Y0172875D02*
X0262834Y0172875D01*
X0262852Y0173174D02*
X0273483Y0173174D01*
X0274083Y0173472D02*
X0262910Y0173472D01*
X0262969Y0173771D02*
X0274084Y0173771D01*
X0274084Y0174069D02*
X0263027Y0174069D01*
X0263085Y0174368D02*
X0274084Y0174368D01*
X0274084Y0174666D02*
X0263144Y0174666D01*
X0263231Y0174965D02*
X0274084Y0174965D01*
X0274084Y0175263D02*
X0263336Y0175263D01*
X0263440Y0175562D02*
X0274084Y0175562D01*
X0274084Y0175860D02*
X0263544Y0175860D01*
X0263648Y0176159D02*
X0274084Y0176159D01*
X0274084Y0176457D02*
X0263774Y0176457D01*
X0263929Y0176756D02*
X0274084Y0176756D01*
X0274084Y0177054D02*
X0264083Y0177054D01*
X0264238Y0177353D02*
X0274084Y0177353D01*
X0274084Y0177651D02*
X0264393Y0177651D01*
X0264578Y0177950D02*
X0274084Y0177950D01*
X0274084Y0178248D02*
X0264792Y0178248D01*
X0265006Y0178547D02*
X0274084Y0178547D01*
X0274084Y0178845D02*
X0265220Y0178845D01*
X0265435Y0179144D02*
X0274084Y0179144D01*
X0274084Y0179442D02*
X0265721Y0179442D01*
X0266007Y0179741D02*
X0274084Y0179741D01*
X0274084Y0180039D02*
X0266293Y0180039D01*
X0266582Y0180338D02*
X0274084Y0180338D01*
X0274084Y0180636D02*
X0266963Y0180636D01*
X0267345Y0180935D02*
X0274084Y0180935D01*
X0274084Y0181233D02*
X0267727Y0181233D01*
X0268194Y0181532D02*
X0274084Y0181532D01*
X0274084Y0181830D02*
X0268714Y0181830D01*
X0269234Y0182129D02*
X0274084Y0182129D01*
X0274084Y0182427D02*
X0269956Y0182427D01*
X0270707Y0182726D02*
X0274084Y0182726D01*
X0274084Y0183024D02*
X0271866Y0183024D01*
X0276446Y0183024D02*
X0278664Y0183024D01*
X0278090Y0183162D02*
X0276446Y0183315D01*
X0276446Y0173472D01*
X0276849Y0173312D01*
X0277205Y0173063D01*
X0277493Y0172739D01*
X0277699Y0172357D01*
X0277812Y0171938D01*
X0277824Y0171504D01*
X0277812Y0171070D01*
X0277699Y0170651D01*
X0277493Y0170269D01*
X0277205Y0169945D01*
X0276849Y0169696D01*
X0276446Y0169535D01*
X0276446Y0159693D01*
X0278090Y0159846D01*
X0279694Y0160231D01*
X0281228Y0160840D01*
X0282660Y0161662D01*
X0283960Y0162679D01*
X0285101Y0163870D01*
X0286062Y0165212D01*
X0286822Y0166677D01*
X0287366Y0168236D01*
X0287682Y0169856D01*
X0287765Y0171504D01*
X0287682Y0173152D01*
X0287366Y0174772D01*
X0286822Y0176330D01*
X0286062Y0177795D01*
X0285101Y0179137D01*
X0283960Y0180329D01*
X0282660Y0181346D01*
X0281228Y0182168D01*
X0279694Y0182777D01*
X0278090Y0183162D01*
X0276446Y0182726D02*
X0279823Y0182726D01*
X0280575Y0182427D02*
X0276446Y0182427D01*
X0276446Y0182129D02*
X0281296Y0182129D01*
X0281816Y0181830D02*
X0276446Y0181830D01*
X0276446Y0181532D02*
X0282336Y0181532D01*
X0282804Y0181233D02*
X0276446Y0181233D01*
X0276446Y0180935D02*
X0283185Y0180935D01*
X0283567Y0180636D02*
X0276446Y0180636D01*
X0276446Y0180338D02*
X0283948Y0180338D01*
X0284237Y0180039D02*
X0276446Y0180039D01*
X0276446Y0179741D02*
X0284523Y0179741D01*
X0284809Y0179442D02*
X0276446Y0179442D01*
X0276446Y0179144D02*
X0285095Y0179144D01*
X0285311Y0178845D02*
X0276446Y0178845D01*
X0276446Y0178547D02*
X0285524Y0178547D01*
X0285738Y0178248D02*
X0276446Y0178248D01*
X0276446Y0177950D02*
X0285952Y0177950D01*
X0286137Y0177651D02*
X0276446Y0177651D01*
X0276446Y0177353D02*
X0286292Y0177353D01*
X0286447Y0177054D02*
X0276446Y0177054D01*
X0276446Y0176756D02*
X0286602Y0176756D01*
X0286756Y0176457D02*
X0276446Y0176457D01*
X0276446Y0176159D02*
X0286882Y0176159D01*
X0286986Y0175860D02*
X0276446Y0175860D01*
X0276446Y0175562D02*
X0287090Y0175562D01*
X0287195Y0175263D02*
X0276446Y0175263D01*
X0276446Y0174965D02*
X0287299Y0174965D01*
X0287387Y0174666D02*
X0276446Y0174666D01*
X0276446Y0174368D02*
X0287445Y0174368D01*
X0287503Y0174069D02*
X0276446Y0174069D01*
X0276446Y0173771D02*
X0287562Y0173771D01*
X0287620Y0173472D02*
X0276447Y0173472D01*
X0277047Y0173174D02*
X0287678Y0173174D01*
X0287696Y0172875D02*
X0277372Y0172875D01*
X0277581Y0172577D02*
X0287711Y0172577D01*
X0287726Y0172278D02*
X0277720Y0172278D01*
X0277800Y0171980D02*
X0287741Y0171980D01*
X0287756Y0171681D02*
X0277819Y0171681D01*
X0277821Y0171383D02*
X0287759Y0171383D01*
X0287744Y0171084D02*
X0277812Y0171084D01*
X0277735Y0170785D02*
X0287729Y0170785D01*
X0287714Y0170487D02*
X0277611Y0170487D01*
X0277422Y0170188D02*
X0287699Y0170188D01*
X0287684Y0169890D02*
X0277127Y0169890D01*
X0276587Y0169591D02*
X0287631Y0169591D01*
X0287572Y0169293D02*
X0276446Y0169293D01*
X0276446Y0168994D02*
X0287514Y0168994D01*
X0287456Y0168696D02*
X0276446Y0168696D01*
X0276446Y0168397D02*
X0287398Y0168397D01*
X0287318Y0168099D02*
X0276446Y0168099D01*
X0276446Y0167800D02*
X0287214Y0167800D01*
X0287110Y0167502D02*
X0276446Y0167502D01*
X0276446Y0167203D02*
X0287006Y0167203D01*
X0286902Y0166905D02*
X0276446Y0166905D01*
X0276446Y0166606D02*
X0286785Y0166606D01*
X0286630Y0166308D02*
X0276446Y0166308D01*
X0276446Y0166009D02*
X0286476Y0166009D01*
X0286321Y0165711D02*
X0276446Y0165711D01*
X0276446Y0165412D02*
X0286166Y0165412D01*
X0285992Y0165114D02*
X0276446Y0165114D01*
X0276446Y0164815D02*
X0285778Y0164815D01*
X0285564Y0164517D02*
X0276446Y0164517D01*
X0276446Y0164218D02*
X0285350Y0164218D01*
X0285137Y0163920D02*
X0276446Y0163920D01*
X0276446Y0163621D02*
X0284863Y0163621D01*
X0284577Y0163323D02*
X0276446Y0163323D01*
X0276446Y0163024D02*
X0284291Y0163024D01*
X0284004Y0162726D02*
X0276446Y0162726D01*
X0276446Y0162427D02*
X0283638Y0162427D01*
X0283256Y0162129D02*
X0276446Y0162129D01*
X0276446Y0161830D02*
X0282875Y0161830D01*
X0282433Y0161532D02*
X0276446Y0161532D01*
X0276446Y0161233D02*
X0281913Y0161233D01*
X0281393Y0160935D02*
X0276446Y0160935D01*
X0276446Y0160636D02*
X0280715Y0160636D01*
X0279963Y0160338D02*
X0276446Y0160338D01*
X0276446Y0160039D02*
X0278896Y0160039D01*
X0276959Y0159741D02*
X0276446Y0159741D01*
X0241421Y0205168D02*
X0242421Y0206515D01*
X0243219Y0207991D01*
X0243799Y0209566D01*
X0244148Y0211208D01*
X0244261Y0212882D01*
X0244148Y0214556D01*
X0243799Y0216198D01*
X0243219Y0217772D01*
X0242421Y0219249D01*
X0241421Y0220596D01*
X0240239Y0221788D01*
X0238900Y0222799D01*
X0237430Y0223610D01*
X0235860Y0224203D01*
X0234222Y0224566D01*
X0232549Y0224693D01*
X0232549Y0216819D01*
X0233226Y0216642D01*
X0233863Y0216350D01*
X0234440Y0215952D01*
X0234938Y0215459D01*
X0235344Y0214888D01*
X0235644Y0214255D01*
X0235830Y0213579D01*
X0235895Y0212882D01*
X0235830Y0212184D01*
X0235644Y0211509D01*
X0235344Y0210876D01*
X0234938Y0210304D01*
X0234440Y0209812D01*
X0233863Y0209414D01*
X0233226Y0209122D01*
X0232549Y0208945D01*
X0232549Y0201071D01*
X0234222Y0201198D01*
X0235860Y0201561D01*
X0237430Y0202154D01*
X0238900Y0202965D01*
X0240239Y0203976D01*
X0241421Y0205168D01*
X0241368Y0205114D02*
X0232549Y0205114D01*
X0232549Y0204816D02*
X0241072Y0204816D01*
X0240776Y0204517D02*
X0232549Y0204517D01*
X0232549Y0204219D02*
X0240480Y0204219D01*
X0240165Y0203920D02*
X0232549Y0203920D01*
X0232549Y0203622D02*
X0239770Y0203622D01*
X0239375Y0203323D02*
X0232549Y0203323D01*
X0232549Y0203025D02*
X0238979Y0203025D01*
X0238467Y0202726D02*
X0232549Y0202726D01*
X0232549Y0202428D02*
X0237926Y0202428D01*
X0237364Y0202129D02*
X0232549Y0202129D01*
X0232549Y0201831D02*
X0236574Y0201831D01*
X0235729Y0201532D02*
X0232549Y0201532D01*
X0232549Y0201234D02*
X0234384Y0201234D01*
X0230974Y0201234D02*
X0229138Y0201234D01*
X0229300Y0201198D02*
X0230974Y0201071D01*
X0230974Y0208945D01*
X0230296Y0209122D01*
X0229659Y0209414D01*
X0229083Y0209812D01*
X0228584Y0210304D01*
X0228179Y0210876D01*
X0227878Y0211509D01*
X0227693Y0212184D01*
X0227627Y0212882D01*
X0227693Y0213579D01*
X0227878Y0214255D01*
X0228179Y0214888D01*
X0228584Y0215459D01*
X0229083Y0215952D01*
X0229659Y0216350D01*
X0230296Y0216642D01*
X0230974Y0216819D01*
X0230974Y0224693D01*
X0229300Y0224566D01*
X0227662Y0224203D01*
X0226092Y0223610D01*
X0224623Y0222799D01*
X0223283Y0221788D01*
X0222102Y0220596D01*
X0221102Y0219249D01*
X0220304Y0217772D01*
X0219724Y0216198D01*
X0219374Y0214556D01*
X0219261Y0212882D01*
X0219374Y0211208D01*
X0219724Y0209566D01*
X0220304Y0207991D01*
X0221102Y0206515D01*
X0222102Y0205168D01*
X0223283Y0203976D01*
X0224623Y0202965D01*
X0226092Y0202154D01*
X0227662Y0201561D01*
X0229300Y0201198D01*
X0227793Y0201532D02*
X0230974Y0201532D01*
X0230974Y0201831D02*
X0226949Y0201831D01*
X0226158Y0202129D02*
X0230974Y0202129D01*
X0230974Y0202428D02*
X0225596Y0202428D01*
X0225055Y0202726D02*
X0230974Y0202726D01*
X0230974Y0203025D02*
X0224543Y0203025D01*
X0224148Y0203323D02*
X0230974Y0203323D01*
X0230974Y0203622D02*
X0223752Y0203622D01*
X0223357Y0203920D02*
X0230974Y0203920D01*
X0230974Y0204219D02*
X0223043Y0204219D01*
X0222747Y0204517D02*
X0230974Y0204517D01*
X0230974Y0204816D02*
X0222451Y0204816D01*
X0222155Y0205114D02*
X0230974Y0205114D01*
X0230974Y0205413D02*
X0221920Y0205413D01*
X0221698Y0205711D02*
X0230974Y0205711D01*
X0230974Y0206010D02*
X0221477Y0206010D01*
X0221255Y0206308D02*
X0230974Y0206308D01*
X0230974Y0206607D02*
X0221052Y0206607D01*
X0220891Y0206905D02*
X0230974Y0206905D01*
X0230974Y0207204D02*
X0220729Y0207204D01*
X0220568Y0207502D02*
X0230974Y0207502D01*
X0230974Y0207801D02*
X0220407Y0207801D01*
X0220264Y0208099D02*
X0230974Y0208099D01*
X0230974Y0208398D02*
X0220154Y0208398D01*
X0220044Y0208696D02*
X0230974Y0208696D01*
X0230782Y0208995D02*
X0219934Y0208995D01*
X0219824Y0209293D02*
X0229922Y0209293D01*
X0229401Y0209592D02*
X0219718Y0209592D01*
X0219655Y0209890D02*
X0229003Y0209890D01*
X0228701Y0210189D02*
X0219591Y0210189D01*
X0219527Y0210487D02*
X0228454Y0210487D01*
X0228242Y0210786D02*
X0219464Y0210786D01*
X0219400Y0211085D02*
X0228080Y0211085D01*
X0227938Y0211383D02*
X0219362Y0211383D01*
X0219342Y0211682D02*
X0227831Y0211682D01*
X0227749Y0211980D02*
X0219322Y0211980D01*
X0219302Y0212279D02*
X0227684Y0212279D01*
X0227656Y0212577D02*
X0219282Y0212577D01*
X0219262Y0212876D02*
X0227628Y0212876D01*
X0227655Y0213174D02*
X0219281Y0213174D01*
X0219301Y0213473D02*
X0227683Y0213473D01*
X0227745Y0213771D02*
X0219321Y0213771D01*
X0219341Y0214070D02*
X0227827Y0214070D01*
X0227932Y0214368D02*
X0219361Y0214368D01*
X0219397Y0214667D02*
X0228074Y0214667D01*
X0228233Y0214965D02*
X0219461Y0214965D01*
X0219525Y0215264D02*
X0228445Y0215264D01*
X0228688Y0215562D02*
X0219588Y0215562D01*
X0219652Y0215861D02*
X0228990Y0215861D01*
X0229383Y0216159D02*
X0219716Y0216159D01*
X0219820Y0216458D02*
X0229894Y0216458D01*
X0230734Y0216756D02*
X0219929Y0216756D01*
X0220039Y0217055D02*
X0230974Y0217055D01*
X0230974Y0217353D02*
X0220149Y0217353D01*
X0220259Y0217652D02*
X0230974Y0217652D01*
X0230974Y0217950D02*
X0220400Y0217950D01*
X0220561Y0218249D02*
X0230974Y0218249D01*
X0230974Y0218547D02*
X0220723Y0218547D01*
X0220884Y0218846D02*
X0230974Y0218846D01*
X0230974Y0219144D02*
X0221045Y0219144D01*
X0221246Y0219443D02*
X0230974Y0219443D01*
X0230974Y0219741D02*
X0221467Y0219741D01*
X0221689Y0220040D02*
X0230974Y0220040D01*
X0230974Y0220338D02*
X0221910Y0220338D01*
X0222142Y0220637D02*
X0230974Y0220637D01*
X0230974Y0220935D02*
X0222438Y0220935D01*
X0222734Y0221234D02*
X0230974Y0221234D01*
X0230974Y0221532D02*
X0223030Y0221532D01*
X0223340Y0221831D02*
X0230974Y0221831D01*
X0230974Y0222129D02*
X0223736Y0222129D01*
X0224131Y0222428D02*
X0230974Y0222428D01*
X0230974Y0222726D02*
X0224526Y0222726D01*
X0225032Y0223025D02*
X0230974Y0223025D01*
X0230974Y0223323D02*
X0225573Y0223323D01*
X0226125Y0223622D02*
X0230974Y0223622D01*
X0230974Y0223920D02*
X0226915Y0223920D01*
X0227736Y0224219D02*
X0230974Y0224219D01*
X0230974Y0224518D02*
X0229081Y0224518D01*
X0232549Y0224518D02*
X0234441Y0224518D01*
X0235786Y0224219D02*
X0232549Y0224219D01*
X0232549Y0223920D02*
X0236607Y0223920D01*
X0237397Y0223622D02*
X0232549Y0223622D01*
X0232549Y0223323D02*
X0237949Y0223323D01*
X0238490Y0223025D02*
X0232549Y0223025D01*
X0232549Y0222726D02*
X0238996Y0222726D01*
X0239391Y0222428D02*
X0232549Y0222428D01*
X0232549Y0222129D02*
X0239787Y0222129D01*
X0240182Y0221831D02*
X0232549Y0221831D01*
X0232549Y0221532D02*
X0240492Y0221532D01*
X0240788Y0221234D02*
X0232549Y0221234D01*
X0232549Y0220935D02*
X0241084Y0220935D01*
X0241380Y0220637D02*
X0232549Y0220637D01*
X0232549Y0220338D02*
X0241612Y0220338D01*
X0241833Y0220040D02*
X0232549Y0220040D01*
X0232549Y0219741D02*
X0242055Y0219741D01*
X0242277Y0219443D02*
X0232549Y0219443D01*
X0232549Y0219144D02*
X0242477Y0219144D01*
X0242638Y0218846D02*
X0232549Y0218846D01*
X0232549Y0218547D02*
X0242800Y0218547D01*
X0242961Y0218249D02*
X0232549Y0218249D01*
X0232549Y0217950D02*
X0243123Y0217950D01*
X0243263Y0217652D02*
X0232549Y0217652D01*
X0232549Y0217353D02*
X0243373Y0217353D01*
X0243483Y0217055D02*
X0232549Y0217055D01*
X0232789Y0216756D02*
X0243593Y0216756D01*
X0243703Y0216458D02*
X0233628Y0216458D01*
X0234139Y0216159D02*
X0243807Y0216159D01*
X0243870Y0215861D02*
X0234532Y0215861D01*
X0234834Y0215562D02*
X0243934Y0215562D01*
X0243998Y0215264D02*
X0235077Y0215264D01*
X0235289Y0214965D02*
X0244061Y0214965D01*
X0244125Y0214667D02*
X0235449Y0214667D01*
X0235590Y0214368D02*
X0244161Y0214368D01*
X0244181Y0214070D02*
X0235695Y0214070D01*
X0235777Y0213771D02*
X0244201Y0213771D01*
X0244221Y0213473D02*
X0235840Y0213473D01*
X0235868Y0213174D02*
X0244241Y0213174D01*
X0244261Y0212876D02*
X0235894Y0212876D01*
X0235866Y0212577D02*
X0244241Y0212577D01*
X0244221Y0212279D02*
X0235838Y0212279D01*
X0235773Y0211980D02*
X0244200Y0211980D01*
X0244180Y0211682D02*
X0235691Y0211682D01*
X0235584Y0211383D02*
X0244160Y0211383D01*
X0244122Y0211085D02*
X0235443Y0211085D01*
X0235280Y0210786D02*
X0244059Y0210786D01*
X0243995Y0210487D02*
X0235068Y0210487D01*
X0234821Y0210189D02*
X0243931Y0210189D01*
X0243868Y0209890D02*
X0234519Y0209890D01*
X0234121Y0209592D02*
X0243804Y0209592D01*
X0243698Y0209293D02*
X0233600Y0209293D01*
X0232740Y0208995D02*
X0243588Y0208995D01*
X0243478Y0208696D02*
X0232549Y0208696D01*
X0232549Y0208398D02*
X0243368Y0208398D01*
X0243258Y0208099D02*
X0232549Y0208099D01*
X0232549Y0207801D02*
X0243116Y0207801D01*
X0242954Y0207502D02*
X0232549Y0207502D01*
X0232549Y0207204D02*
X0242793Y0207204D01*
X0242632Y0206905D02*
X0232549Y0206905D01*
X0232549Y0206607D02*
X0242470Y0206607D01*
X0242267Y0206308D02*
X0232549Y0206308D01*
X0232549Y0206010D02*
X0242046Y0206010D01*
X0241824Y0205711D02*
X0232549Y0205711D01*
X0232549Y0205413D02*
X0241603Y0205413D01*
X0225096Y0164815D02*
X0221131Y0164815D01*
X0221131Y0164517D02*
X0225847Y0164517D01*
X0225913Y0164490D02*
X0224379Y0165100D01*
X0222775Y0165485D01*
X0221131Y0165638D01*
X0221131Y0155795D01*
X0221535Y0155635D01*
X0221890Y0155386D01*
X0222178Y0155062D01*
X0222384Y0154680D01*
X0222497Y0154261D01*
X0222509Y0153827D01*
X0222497Y0153393D01*
X0222384Y0152974D01*
X0222178Y0152592D01*
X0221890Y0152268D01*
X0221535Y0152019D01*
X0221131Y0151858D01*
X0221131Y0142016D01*
X0222775Y0142168D01*
X0224379Y0142554D01*
X0225913Y0143163D01*
X0227345Y0143985D01*
X0228645Y0145002D01*
X0229787Y0146193D01*
X0230747Y0147535D01*
X0231507Y0149000D01*
X0232051Y0150559D01*
X0232367Y0152178D01*
X0232450Y0153827D01*
X0232367Y0155475D01*
X0232051Y0157095D01*
X0231507Y0158653D01*
X0230747Y0160118D01*
X0229787Y0161460D01*
X0228645Y0162652D01*
X0227345Y0163669D01*
X0225913Y0164490D01*
X0226388Y0164218D02*
X0221131Y0164218D01*
X0221131Y0163920D02*
X0226908Y0163920D01*
X0227406Y0163621D02*
X0221131Y0163621D01*
X0221131Y0163323D02*
X0227787Y0163323D01*
X0228169Y0163024D02*
X0221131Y0163024D01*
X0221131Y0162726D02*
X0228550Y0162726D01*
X0228860Y0162427D02*
X0221131Y0162427D01*
X0221131Y0162129D02*
X0229146Y0162129D01*
X0229432Y0161830D02*
X0221131Y0161830D01*
X0221131Y0161532D02*
X0229718Y0161532D01*
X0229949Y0161233D02*
X0221131Y0161233D01*
X0221131Y0160935D02*
X0230163Y0160935D01*
X0230377Y0160636D02*
X0221131Y0160636D01*
X0221131Y0160338D02*
X0230590Y0160338D01*
X0230788Y0160039D02*
X0221131Y0160039D01*
X0221131Y0159741D02*
X0230943Y0159741D01*
X0231098Y0159442D02*
X0221131Y0159442D01*
X0221131Y0159144D02*
X0231253Y0159144D01*
X0231408Y0158845D02*
X0221131Y0158845D01*
X0221131Y0158547D02*
X0231544Y0158547D01*
X0231649Y0158248D02*
X0221131Y0158248D01*
X0221131Y0157949D02*
X0231753Y0157949D01*
X0231857Y0157651D02*
X0221131Y0157651D01*
X0221131Y0157352D02*
X0231961Y0157352D01*
X0232059Y0157054D02*
X0221131Y0157054D01*
X0221131Y0156755D02*
X0232117Y0156755D01*
X0232176Y0156457D02*
X0221131Y0156457D01*
X0221131Y0156158D02*
X0232234Y0156158D01*
X0232292Y0155860D02*
X0221131Y0155860D01*
X0221640Y0155561D02*
X0232351Y0155561D01*
X0232378Y0155263D02*
X0222000Y0155263D01*
X0222231Y0154964D02*
X0232393Y0154964D01*
X0232408Y0154666D02*
X0222388Y0154666D01*
X0222468Y0154367D02*
X0232423Y0154367D01*
X0232438Y0154069D02*
X0222502Y0154069D01*
X0222508Y0153770D02*
X0232447Y0153770D01*
X0232432Y0153472D02*
X0222499Y0153472D01*
X0222438Y0153173D02*
X0232417Y0153173D01*
X0232402Y0152875D02*
X0222331Y0152875D01*
X0222165Y0152576D02*
X0232387Y0152576D01*
X0232372Y0152278D02*
X0221899Y0152278D01*
X0221436Y0151979D02*
X0232329Y0151979D01*
X0232270Y0151681D02*
X0221131Y0151681D01*
X0221131Y0151382D02*
X0232212Y0151382D01*
X0232154Y0151084D02*
X0221131Y0151084D01*
X0221131Y0150785D02*
X0232095Y0150785D01*
X0232026Y0150487D02*
X0221131Y0150487D01*
X0221131Y0150188D02*
X0231922Y0150188D01*
X0231818Y0149890D02*
X0221131Y0149890D01*
X0221131Y0149591D02*
X0231713Y0149591D01*
X0231609Y0149293D02*
X0221131Y0149293D01*
X0221131Y0148994D02*
X0231504Y0148994D01*
X0231349Y0148696D02*
X0221131Y0148696D01*
X0221131Y0148397D02*
X0231194Y0148397D01*
X0231040Y0148099D02*
X0221131Y0148099D01*
X0221131Y0147800D02*
X0230885Y0147800D01*
X0230723Y0147502D02*
X0221131Y0147502D01*
X0221131Y0147203D02*
X0230509Y0147203D01*
X0230296Y0146905D02*
X0221131Y0146905D01*
X0221131Y0146606D02*
X0230082Y0146606D01*
X0229868Y0146308D02*
X0221131Y0146308D01*
X0221131Y0146009D02*
X0229610Y0146009D01*
X0229324Y0145711D02*
X0221131Y0145711D01*
X0221131Y0145412D02*
X0229038Y0145412D01*
X0228752Y0145114D02*
X0221131Y0145114D01*
X0221131Y0144815D02*
X0228406Y0144815D01*
X0228024Y0144516D02*
X0221131Y0144516D01*
X0221131Y0144218D02*
X0227643Y0144218D01*
X0227231Y0143919D02*
X0221131Y0143919D01*
X0221131Y0143621D02*
X0226711Y0143621D01*
X0226191Y0143322D02*
X0221131Y0143322D01*
X0221131Y0143024D02*
X0225563Y0143024D01*
X0224812Y0142725D02*
X0221131Y0142725D01*
X0221131Y0142427D02*
X0223852Y0142427D01*
X0222343Y0142128D02*
X0221131Y0142128D01*
X0218769Y0142128D02*
X0217557Y0142128D01*
X0217126Y0142168D02*
X0218769Y0142016D01*
X0218769Y0151858D01*
X0218366Y0152019D01*
X0218010Y0152268D01*
X0217722Y0152592D01*
X0217516Y0152974D01*
X0217404Y0153393D01*
X0217391Y0153827D01*
X0217404Y0154261D01*
X0217516Y0154680D01*
X0217722Y0155062D01*
X0218010Y0155386D01*
X0218366Y0155635D01*
X0218769Y0155795D01*
X0218769Y0165638D01*
X0217126Y0165485D01*
X0215521Y0165100D01*
X0213987Y0164490D01*
X0212556Y0163669D01*
X0211256Y0162652D01*
X0210114Y0161460D01*
X0209153Y0160118D01*
X0208393Y0158653D01*
X0207849Y0157095D01*
X0207533Y0155475D01*
X0207450Y0153827D01*
X0207533Y0152178D01*
X0207849Y0150559D01*
X0208393Y0149000D01*
X0209153Y0147535D01*
X0210114Y0146193D01*
X0211256Y0145002D01*
X0212556Y0143985D01*
X0213987Y0143163D01*
X0215521Y0142554D01*
X0217126Y0142168D01*
X0216049Y0142427D02*
X0218769Y0142427D01*
X0218769Y0142725D02*
X0215088Y0142725D01*
X0214337Y0143024D02*
X0218769Y0143024D01*
X0218769Y0143322D02*
X0213709Y0143322D01*
X0213189Y0143621D02*
X0218769Y0143621D01*
X0218769Y0143919D02*
X0212669Y0143919D01*
X0212257Y0144218D02*
X0218769Y0144218D01*
X0218769Y0144516D02*
X0211876Y0144516D01*
X0211494Y0144815D02*
X0218769Y0144815D01*
X0218769Y0145114D02*
X0211148Y0145114D01*
X0210862Y0145412D02*
X0218769Y0145412D01*
X0218769Y0145711D02*
X0210576Y0145711D01*
X0210290Y0146009D02*
X0218769Y0146009D01*
X0218769Y0146308D02*
X0210032Y0146308D01*
X0209818Y0146606D02*
X0218769Y0146606D01*
X0218769Y0146905D02*
X0209604Y0146905D01*
X0209391Y0147203D02*
X0218769Y0147203D01*
X0218769Y0147502D02*
X0209177Y0147502D01*
X0209016Y0147800D02*
X0218769Y0147800D01*
X0218769Y0148099D02*
X0208861Y0148099D01*
X0208706Y0148397D02*
X0218769Y0148397D01*
X0218769Y0148696D02*
X0208551Y0148696D01*
X0208396Y0148994D02*
X0218769Y0148994D01*
X0218769Y0149293D02*
X0208291Y0149293D01*
X0208187Y0149591D02*
X0218769Y0149591D01*
X0218769Y0149890D02*
X0208083Y0149890D01*
X0207978Y0150188D02*
X0218769Y0150188D01*
X0218769Y0150487D02*
X0207874Y0150487D01*
X0207805Y0150785D02*
X0218769Y0150785D01*
X0218769Y0151084D02*
X0207747Y0151084D01*
X0207688Y0151382D02*
X0218769Y0151382D01*
X0218769Y0151681D02*
X0207630Y0151681D01*
X0207572Y0151979D02*
X0218465Y0151979D01*
X0218001Y0152278D02*
X0207528Y0152278D01*
X0207513Y0152576D02*
X0217736Y0152576D01*
X0217569Y0152875D02*
X0207498Y0152875D01*
X0207483Y0153173D02*
X0217462Y0153173D01*
X0217401Y0153472D02*
X0207468Y0153472D01*
X0207453Y0153770D02*
X0217393Y0153770D01*
X0217398Y0154069D02*
X0207462Y0154069D01*
X0207477Y0154367D02*
X0217432Y0154367D01*
X0217512Y0154666D02*
X0207492Y0154666D01*
X0207507Y0154964D02*
X0217669Y0154964D01*
X0217901Y0155263D02*
X0207522Y0155263D01*
X0207550Y0155561D02*
X0218261Y0155561D01*
X0218769Y0155860D02*
X0207608Y0155860D01*
X0207666Y0156158D02*
X0218769Y0156158D01*
X0218769Y0156457D02*
X0207725Y0156457D01*
X0207783Y0156755D02*
X0218769Y0156755D01*
X0218769Y0157054D02*
X0207841Y0157054D01*
X0207939Y0157352D02*
X0218769Y0157352D01*
X0218769Y0157651D02*
X0208043Y0157651D01*
X0208147Y0157949D02*
X0218769Y0157949D01*
X0218769Y0158248D02*
X0208252Y0158248D01*
X0208356Y0158547D02*
X0218769Y0158547D01*
X0218769Y0158845D02*
X0208492Y0158845D01*
X0208647Y0159144D02*
X0218769Y0159144D01*
X0218769Y0159442D02*
X0208802Y0159442D01*
X0208957Y0159741D02*
X0218769Y0159741D01*
X0218769Y0160039D02*
X0209112Y0160039D01*
X0209310Y0160338D02*
X0218769Y0160338D01*
X0218769Y0160636D02*
X0209524Y0160636D01*
X0209737Y0160935D02*
X0218769Y0160935D01*
X0218769Y0161233D02*
X0209951Y0161233D01*
X0210182Y0161532D02*
X0218769Y0161532D01*
X0218769Y0161830D02*
X0210468Y0161830D01*
X0210754Y0162129D02*
X0218769Y0162129D01*
X0218769Y0162427D02*
X0211040Y0162427D01*
X0211350Y0162726D02*
X0218769Y0162726D01*
X0218769Y0163024D02*
X0211732Y0163024D01*
X0212113Y0163323D02*
X0218769Y0163323D01*
X0218769Y0163621D02*
X0212495Y0163621D01*
X0212993Y0163920D02*
X0218769Y0163920D01*
X0218769Y0164218D02*
X0213513Y0164218D01*
X0214053Y0164517D02*
X0218769Y0164517D01*
X0218769Y0164815D02*
X0214804Y0164815D01*
X0215578Y0165114D02*
X0218769Y0165114D01*
X0218769Y0165412D02*
X0216822Y0165412D01*
X0221131Y0165412D02*
X0223078Y0165412D01*
X0224322Y0165114D02*
X0221131Y0165114D01*
X0187535Y0183323D02*
X0177430Y0183323D01*
X0177430Y0183621D02*
X0187696Y0183621D01*
X0187858Y0183920D02*
X0177430Y0183920D01*
X0177430Y0184218D02*
X0188019Y0184218D01*
X0188101Y0184369D02*
X0188680Y0185944D01*
X0189030Y0187585D01*
X0189143Y0189260D01*
X0189030Y0190934D01*
X0188680Y0192576D01*
X0188101Y0194150D01*
X0187302Y0195627D01*
X0186302Y0196974D01*
X0185121Y0198166D01*
X0183782Y0199177D01*
X0182312Y0199988D01*
X0180742Y0200581D01*
X0179104Y0200944D01*
X0177430Y0201071D01*
X0177430Y0193197D01*
X0178108Y0193020D01*
X0178745Y0192728D01*
X0179322Y0192330D01*
X0179820Y0191837D01*
X0180226Y0191266D01*
X0180526Y0190633D01*
X0180711Y0189957D01*
X0180777Y0189260D01*
X0180711Y0188562D01*
X0180526Y0187887D01*
X0180226Y0187254D01*
X0179820Y0186682D01*
X0179322Y0186190D01*
X0178745Y0185792D01*
X0178108Y0185500D01*
X0177430Y0185323D01*
X0177430Y0177449D01*
X0179104Y0177576D01*
X0180742Y0177939D01*
X0182312Y0178532D01*
X0183782Y0179343D01*
X0185121Y0180354D01*
X0186302Y0181545D01*
X0187302Y0182893D01*
X0188101Y0184369D01*
X0188155Y0184517D02*
X0177430Y0184517D01*
X0177430Y0184816D02*
X0188265Y0184816D01*
X0188375Y0185114D02*
X0177430Y0185114D01*
X0177774Y0185413D02*
X0188485Y0185413D01*
X0188595Y0185711D02*
X0178569Y0185711D01*
X0179060Y0186010D02*
X0188694Y0186010D01*
X0188758Y0186308D02*
X0179441Y0186308D01*
X0179743Y0186607D02*
X0188822Y0186607D01*
X0188885Y0186905D02*
X0179978Y0186905D01*
X0180190Y0187204D02*
X0188949Y0187204D01*
X0189013Y0187502D02*
X0180343Y0187502D01*
X0180485Y0187801D02*
X0189045Y0187801D01*
X0189065Y0188099D02*
X0180584Y0188099D01*
X0180666Y0188398D02*
X0189085Y0188398D01*
X0189105Y0188696D02*
X0180724Y0188696D01*
X0180752Y0188995D02*
X0189125Y0188995D01*
X0189141Y0189293D02*
X0180774Y0189293D01*
X0180746Y0189592D02*
X0189121Y0189592D01*
X0189101Y0189890D02*
X0180718Y0189890D01*
X0180648Y0190189D02*
X0189081Y0190189D01*
X0189060Y0190487D02*
X0180566Y0190487D01*
X0180453Y0190786D02*
X0189040Y0190786D01*
X0188998Y0191084D02*
X0180312Y0191084D01*
X0180143Y0191383D02*
X0188935Y0191383D01*
X0188871Y0191681D02*
X0179931Y0191681D01*
X0179676Y0191980D02*
X0188807Y0191980D01*
X0188744Y0192278D02*
X0179374Y0192278D01*
X0178964Y0192577D02*
X0188680Y0192577D01*
X0188570Y0192875D02*
X0178423Y0192875D01*
X0177519Y0193174D02*
X0188460Y0193174D01*
X0188350Y0193472D02*
X0177430Y0193472D01*
X0177430Y0193771D02*
X0188240Y0193771D01*
X0188130Y0194069D02*
X0177430Y0194069D01*
X0177430Y0194368D02*
X0187983Y0194368D01*
X0187822Y0194666D02*
X0177430Y0194666D01*
X0177430Y0194965D02*
X0187660Y0194965D01*
X0187499Y0195263D02*
X0177430Y0195263D01*
X0177430Y0195562D02*
X0187337Y0195562D01*
X0187129Y0195860D02*
X0177430Y0195860D01*
X0177430Y0196159D02*
X0186907Y0196159D01*
X0186686Y0196457D02*
X0177430Y0196457D01*
X0177430Y0196756D02*
X0186464Y0196756D01*
X0186223Y0197054D02*
X0177430Y0197054D01*
X0177430Y0197353D02*
X0185927Y0197353D01*
X0185631Y0197652D02*
X0177430Y0197652D01*
X0177430Y0197950D02*
X0185335Y0197950D01*
X0185011Y0198249D02*
X0177430Y0198249D01*
X0177430Y0198547D02*
X0184616Y0198547D01*
X0184221Y0198846D02*
X0177430Y0198846D01*
X0177430Y0199144D02*
X0183825Y0199144D01*
X0183300Y0199443D02*
X0177430Y0199443D01*
X0177430Y0199741D02*
X0182759Y0199741D01*
X0182174Y0200040D02*
X0177430Y0200040D01*
X0177430Y0200338D02*
X0181384Y0200338D01*
X0180490Y0200637D02*
X0177430Y0200637D01*
X0177430Y0200935D02*
X0179144Y0200935D01*
X0175856Y0200935D02*
X0174142Y0200935D01*
X0174182Y0200944D02*
X0172544Y0200581D01*
X0170974Y0199988D01*
X0169505Y0199177D01*
X0168165Y0198166D01*
X0166984Y0196974D01*
X0165984Y0195627D01*
X0165185Y0194150D01*
X0164606Y0192576D01*
X0164256Y0190934D01*
X0164143Y0189260D01*
X0164256Y0187585D01*
X0164606Y0185944D01*
X0165185Y0184369D01*
X0165984Y0182893D01*
X0166984Y0181545D01*
X0168165Y0180354D01*
X0169505Y0179343D01*
X0170974Y0178532D01*
X0172544Y0177939D01*
X0174182Y0177576D01*
X0175856Y0177449D01*
X0175856Y0185323D01*
X0175178Y0185500D01*
X0174541Y0185792D01*
X0173964Y0186190D01*
X0173466Y0186682D01*
X0173060Y0187254D01*
X0172760Y0187887D01*
X0172575Y0188562D01*
X0172509Y0189260D01*
X0172575Y0189957D01*
X0172760Y0190633D01*
X0173060Y0191266D01*
X0173466Y0191837D01*
X0173964Y0192330D01*
X0174541Y0192728D01*
X0175178Y0193020D01*
X0175856Y0193197D01*
X0175856Y0201071D01*
X0174182Y0200944D01*
X0172797Y0200637D02*
X0175856Y0200637D01*
X0175856Y0200338D02*
X0171902Y0200338D01*
X0171112Y0200040D02*
X0175856Y0200040D01*
X0175856Y0199741D02*
X0170527Y0199741D01*
X0169986Y0199443D02*
X0175856Y0199443D01*
X0175856Y0199144D02*
X0169461Y0199144D01*
X0169065Y0198846D02*
X0175856Y0198846D01*
X0175856Y0198547D02*
X0168670Y0198547D01*
X0168275Y0198249D02*
X0175856Y0198249D01*
X0175856Y0197950D02*
X0167951Y0197950D01*
X0167655Y0197652D02*
X0175856Y0197652D01*
X0175856Y0197353D02*
X0167359Y0197353D01*
X0167063Y0197054D02*
X0175856Y0197054D01*
X0175856Y0196756D02*
X0166822Y0196756D01*
X0166600Y0196457D02*
X0175856Y0196457D01*
X0175856Y0196159D02*
X0166379Y0196159D01*
X0166157Y0195860D02*
X0175856Y0195860D01*
X0175856Y0195562D02*
X0165949Y0195562D01*
X0165787Y0195263D02*
X0175856Y0195263D01*
X0175856Y0194965D02*
X0165626Y0194965D01*
X0165464Y0194666D02*
X0175856Y0194666D01*
X0175856Y0194368D02*
X0165303Y0194368D01*
X0165156Y0194069D02*
X0175856Y0194069D01*
X0175856Y0193771D02*
X0165046Y0193771D01*
X0164936Y0193472D02*
X0175856Y0193472D01*
X0175767Y0193174D02*
X0164826Y0193174D01*
X0164716Y0192875D02*
X0174863Y0192875D01*
X0174322Y0192577D02*
X0164606Y0192577D01*
X0164542Y0192278D02*
X0173913Y0192278D01*
X0173610Y0191980D02*
X0164479Y0191980D01*
X0164415Y0191681D02*
X0173355Y0191681D01*
X0173143Y0191383D02*
X0164351Y0191383D01*
X0164288Y0191084D02*
X0172974Y0191084D01*
X0172833Y0190786D02*
X0164246Y0190786D01*
X0164226Y0190487D02*
X0172720Y0190487D01*
X0172638Y0190189D02*
X0164206Y0190189D01*
X0164185Y0189890D02*
X0172568Y0189890D01*
X0172540Y0189592D02*
X0164165Y0189592D01*
X0164145Y0189293D02*
X0172512Y0189293D01*
X0172534Y0188995D02*
X0164161Y0188995D01*
X0164181Y0188696D02*
X0172562Y0188696D01*
X0172620Y0188398D02*
X0164201Y0188398D01*
X0164221Y0188099D02*
X0172702Y0188099D01*
X0172801Y0187801D02*
X0164241Y0187801D01*
X0164273Y0187502D02*
X0172943Y0187502D01*
X0173096Y0187204D02*
X0164337Y0187204D01*
X0164401Y0186905D02*
X0173308Y0186905D01*
X0173543Y0186607D02*
X0164464Y0186607D01*
X0164528Y0186308D02*
X0173845Y0186308D01*
X0174226Y0186010D02*
X0164592Y0186010D01*
X0164691Y0185711D02*
X0174717Y0185711D01*
X0175512Y0185413D02*
X0164801Y0185413D01*
X0164911Y0185114D02*
X0175856Y0185114D01*
X0175856Y0184816D02*
X0165021Y0184816D01*
X0165131Y0184517D02*
X0175856Y0184517D01*
X0175856Y0184218D02*
X0165267Y0184218D01*
X0165428Y0183920D02*
X0175856Y0183920D01*
X0175856Y0183621D02*
X0165590Y0183621D01*
X0165751Y0183323D02*
X0175856Y0183323D01*
X0175856Y0183024D02*
X0165913Y0183024D01*
X0166108Y0182726D02*
X0175856Y0182726D01*
X0175856Y0182427D02*
X0166329Y0182427D01*
X0166551Y0182129D02*
X0175856Y0182129D01*
X0175856Y0181830D02*
X0166772Y0181830D01*
X0166997Y0181532D02*
X0175856Y0181532D01*
X0175856Y0181233D02*
X0167293Y0181233D01*
X0167589Y0180935D02*
X0175856Y0180935D01*
X0175856Y0180636D02*
X0167885Y0180636D01*
X0168187Y0180338D02*
X0175856Y0180338D01*
X0175856Y0180039D02*
X0168582Y0180039D01*
X0168977Y0179741D02*
X0175856Y0179741D01*
X0175856Y0179442D02*
X0169372Y0179442D01*
X0169865Y0179144D02*
X0175856Y0179144D01*
X0175856Y0178845D02*
X0170406Y0178845D01*
X0170948Y0178547D02*
X0175856Y0178547D01*
X0175856Y0178248D02*
X0171726Y0178248D01*
X0172516Y0177950D02*
X0175856Y0177950D01*
X0175856Y0177651D02*
X0173841Y0177651D01*
X0177430Y0177651D02*
X0179445Y0177651D01*
X0180770Y0177950D02*
X0177430Y0177950D01*
X0177430Y0178248D02*
X0181560Y0178248D01*
X0182339Y0178547D02*
X0177430Y0178547D01*
X0177430Y0178845D02*
X0182880Y0178845D01*
X0183421Y0179144D02*
X0177430Y0179144D01*
X0177430Y0179442D02*
X0183914Y0179442D01*
X0184309Y0179741D02*
X0177430Y0179741D01*
X0177430Y0180039D02*
X0184704Y0180039D01*
X0185100Y0180338D02*
X0177430Y0180338D01*
X0177430Y0180636D02*
X0185401Y0180636D01*
X0185697Y0180935D02*
X0177430Y0180935D01*
X0177430Y0181233D02*
X0185993Y0181233D01*
X0186289Y0181532D02*
X0177430Y0181532D01*
X0177430Y0181830D02*
X0186514Y0181830D01*
X0186735Y0182129D02*
X0177430Y0182129D01*
X0177430Y0182427D02*
X0186957Y0182427D01*
X0187178Y0182726D02*
X0177430Y0182726D01*
X0177430Y0183024D02*
X0187373Y0183024D01*
X0170501Y0140932D02*
X0168931Y0141525D01*
X0167293Y0141889D01*
X0165619Y0142016D01*
X0165619Y0134142D01*
X0166297Y0133965D01*
X0166934Y0133673D01*
X0167511Y0133274D01*
X0168009Y0132782D01*
X0168415Y0132211D01*
X0168715Y0131578D01*
X0168900Y0130902D01*
X0168966Y0130205D01*
X0168900Y0129507D01*
X0168715Y0128832D01*
X0168415Y0128199D01*
X0168009Y0127627D01*
X0167511Y0127135D01*
X0166934Y0126737D01*
X0166297Y0126445D01*
X0165619Y0126268D01*
X0165619Y0118394D01*
X0167293Y0118520D01*
X0168931Y0118884D01*
X0170501Y0119477D01*
X0171971Y0120287D01*
X0173310Y0121299D01*
X0174491Y0122490D01*
X0175491Y0123838D01*
X0176290Y0125314D01*
X0176869Y0126889D01*
X0177219Y0128530D01*
X0177332Y0130205D01*
X0177219Y0131879D01*
X0176869Y0133520D01*
X0176290Y0135095D01*
X0175491Y0136571D01*
X0174491Y0137919D01*
X0173310Y0139111D01*
X0171971Y0140122D01*
X0170501Y0140932D01*
X0170496Y0140934D02*
X0165619Y0140934D01*
X0165619Y0140636D02*
X0171039Y0140636D01*
X0171580Y0140337D02*
X0165619Y0140337D01*
X0165619Y0140039D02*
X0172081Y0140039D01*
X0172476Y0139740D02*
X0165619Y0139740D01*
X0165619Y0139442D02*
X0172871Y0139442D01*
X0173267Y0139143D02*
X0165619Y0139143D01*
X0165619Y0138845D02*
X0173573Y0138845D01*
X0173869Y0138546D02*
X0165619Y0138546D01*
X0165619Y0138248D02*
X0174166Y0138248D01*
X0174462Y0137949D02*
X0165619Y0137949D01*
X0165619Y0137651D02*
X0174691Y0137651D01*
X0174912Y0137352D02*
X0165619Y0137352D01*
X0165619Y0137054D02*
X0175134Y0137054D01*
X0175355Y0136755D02*
X0165619Y0136755D01*
X0165619Y0136457D02*
X0175554Y0136457D01*
X0175715Y0136158D02*
X0165619Y0136158D01*
X0165619Y0135860D02*
X0175876Y0135860D01*
X0176038Y0135561D02*
X0165619Y0135561D01*
X0165619Y0135263D02*
X0176199Y0135263D01*
X0176338Y0134964D02*
X0165619Y0134964D01*
X0165619Y0134666D02*
X0176448Y0134666D01*
X0176558Y0134367D02*
X0165619Y0134367D01*
X0165900Y0134069D02*
X0176668Y0134069D01*
X0176778Y0133770D02*
X0166722Y0133770D01*
X0167225Y0133472D02*
X0176880Y0133472D01*
X0176943Y0133173D02*
X0167613Y0133173D01*
X0167916Y0132875D02*
X0177007Y0132875D01*
X0177071Y0132576D02*
X0168155Y0132576D01*
X0168367Y0132278D02*
X0177134Y0132278D01*
X0177198Y0131979D02*
X0168525Y0131979D01*
X0168666Y0131680D02*
X0177233Y0131680D01*
X0177253Y0131382D02*
X0168769Y0131382D01*
X0168851Y0131083D02*
X0177273Y0131083D01*
X0177293Y0130785D02*
X0168911Y0130785D01*
X0168939Y0130486D02*
X0177313Y0130486D01*
X0177331Y0130188D02*
X0168964Y0130188D01*
X0168936Y0129889D02*
X0177311Y0129889D01*
X0177291Y0129591D02*
X0168908Y0129591D01*
X0168841Y0129292D02*
X0177271Y0129292D01*
X0177251Y0128994D02*
X0168759Y0128994D01*
X0168650Y0128695D02*
X0177230Y0128695D01*
X0177191Y0128397D02*
X0168509Y0128397D01*
X0168344Y0128098D02*
X0177127Y0128098D01*
X0177064Y0127800D02*
X0168132Y0127800D01*
X0167882Y0127501D02*
X0177000Y0127501D01*
X0176936Y0127203D02*
X0167579Y0127203D01*
X0167177Y0126904D02*
X0176873Y0126904D01*
X0176765Y0126606D02*
X0166649Y0126606D01*
X0165771Y0126307D02*
X0176655Y0126307D01*
X0176545Y0126009D02*
X0165619Y0126009D01*
X0165619Y0125710D02*
X0176435Y0125710D01*
X0176325Y0125412D02*
X0165619Y0125412D01*
X0165619Y0125113D02*
X0176181Y0125113D01*
X0176020Y0124815D02*
X0165619Y0124815D01*
X0165619Y0124516D02*
X0175858Y0124516D01*
X0175697Y0124218D02*
X0165619Y0124218D01*
X0165619Y0123919D02*
X0175535Y0123919D01*
X0175330Y0123621D02*
X0165619Y0123621D01*
X0165619Y0123322D02*
X0175109Y0123322D01*
X0174887Y0123024D02*
X0165619Y0123024D01*
X0165619Y0122725D02*
X0174666Y0122725D01*
X0174428Y0122427D02*
X0165619Y0122427D01*
X0165619Y0122128D02*
X0174132Y0122128D01*
X0173836Y0121830D02*
X0165619Y0121830D01*
X0165619Y0121531D02*
X0173540Y0121531D01*
X0173222Y0121233D02*
X0165619Y0121233D01*
X0165619Y0120934D02*
X0172827Y0120934D01*
X0172432Y0120636D02*
X0165619Y0120636D01*
X0165619Y0120337D02*
X0172036Y0120337D01*
X0171519Y0120039D02*
X0165619Y0120039D01*
X0165619Y0119740D02*
X0170978Y0119740D01*
X0170407Y0119442D02*
X0165619Y0119442D01*
X0165619Y0119143D02*
X0169617Y0119143D01*
X0168753Y0118845D02*
X0165619Y0118845D01*
X0165619Y0118546D02*
X0167408Y0118546D01*
X0164045Y0118546D02*
X0162256Y0118546D01*
X0162371Y0118520D02*
X0164045Y0118394D01*
X0164045Y0126268D01*
X0163367Y0126445D01*
X0162730Y0126737D01*
X0162153Y0127135D01*
X0161655Y0127627D01*
X0161249Y0128199D01*
X0160949Y0128832D01*
X0160764Y0129507D01*
X0160698Y0130205D01*
X0160764Y0130902D01*
X0160949Y0131578D01*
X0161249Y0132211D01*
X0161655Y0132782D01*
X0162153Y0133274D01*
X0162730Y0133673D01*
X0163367Y0133965D01*
X0164045Y0134142D01*
X0164045Y0142016D01*
X0162371Y0141889D01*
X0160733Y0141525D01*
X0159163Y0140932D01*
X0157694Y0140122D01*
X0156354Y0139111D01*
X0155173Y0137919D01*
X0154173Y0136571D01*
X0153374Y0135095D01*
X0152795Y0133520D01*
X0152445Y0131879D01*
X0152332Y0130205D01*
X0152445Y0128530D01*
X0152795Y0126889D01*
X0153374Y0125314D01*
X0154173Y0123838D01*
X0155173Y0122490D01*
X0156354Y0121299D01*
X0157694Y0120287D01*
X0159163Y0119477D01*
X0160733Y0118884D01*
X0162371Y0118520D01*
X0160911Y0118845D02*
X0164045Y0118845D01*
X0164045Y0119143D02*
X0160047Y0119143D01*
X0159257Y0119442D02*
X0164045Y0119442D01*
X0164045Y0119740D02*
X0158686Y0119740D01*
X0158145Y0120039D02*
X0164045Y0120039D01*
X0164045Y0120337D02*
X0157628Y0120337D01*
X0157232Y0120636D02*
X0164045Y0120636D01*
X0164045Y0120934D02*
X0156837Y0120934D01*
X0156442Y0121233D02*
X0164045Y0121233D01*
X0164045Y0121531D02*
X0156124Y0121531D01*
X0155828Y0121830D02*
X0164045Y0121830D01*
X0164045Y0122128D02*
X0155532Y0122128D01*
X0155236Y0122427D02*
X0164045Y0122427D01*
X0164045Y0122725D02*
X0154998Y0122725D01*
X0154777Y0123024D02*
X0164045Y0123024D01*
X0164045Y0123322D02*
X0154555Y0123322D01*
X0154334Y0123621D02*
X0164045Y0123621D01*
X0164045Y0123919D02*
X0154129Y0123919D01*
X0153967Y0124218D02*
X0164045Y0124218D01*
X0164045Y0124516D02*
X0153806Y0124516D01*
X0153645Y0124815D02*
X0164045Y0124815D01*
X0164045Y0125113D02*
X0153483Y0125113D01*
X0153339Y0125412D02*
X0164045Y0125412D01*
X0164045Y0125710D02*
X0153229Y0125710D01*
X0153119Y0126009D02*
X0164045Y0126009D01*
X0163893Y0126307D02*
X0153009Y0126307D01*
X0152899Y0126606D02*
X0163016Y0126606D01*
X0162487Y0126904D02*
X0152791Y0126904D01*
X0152728Y0127203D02*
X0162085Y0127203D01*
X0161782Y0127501D02*
X0152664Y0127501D01*
X0152600Y0127800D02*
X0161532Y0127800D01*
X0161321Y0128098D02*
X0152537Y0128098D01*
X0152473Y0128397D02*
X0161155Y0128397D01*
X0161014Y0128695D02*
X0152434Y0128695D01*
X0152414Y0128994D02*
X0160905Y0128994D01*
X0160823Y0129292D02*
X0152393Y0129292D01*
X0152373Y0129591D02*
X0160756Y0129591D01*
X0160728Y0129889D02*
X0152353Y0129889D01*
X0152333Y0130188D02*
X0160700Y0130188D01*
X0160725Y0130486D02*
X0152351Y0130486D01*
X0152371Y0130785D02*
X0160753Y0130785D01*
X0160813Y0131083D02*
X0152391Y0131083D01*
X0152411Y0131382D02*
X0160895Y0131382D01*
X0160998Y0131680D02*
X0152431Y0131680D01*
X0152466Y0131979D02*
X0161139Y0131979D01*
X0161297Y0132278D02*
X0152530Y0132278D01*
X0152593Y0132576D02*
X0161509Y0132576D01*
X0161748Y0132875D02*
X0152657Y0132875D01*
X0152721Y0133173D02*
X0162051Y0133173D01*
X0162439Y0133472D02*
X0152784Y0133472D01*
X0152887Y0133770D02*
X0162942Y0133770D01*
X0163765Y0134069D02*
X0152996Y0134069D01*
X0153106Y0134367D02*
X0164045Y0134367D01*
X0164045Y0134666D02*
X0153216Y0134666D01*
X0153326Y0134964D02*
X0164045Y0134964D01*
X0164045Y0135263D02*
X0153465Y0135263D01*
X0153626Y0135561D02*
X0164045Y0135561D01*
X0164045Y0135860D02*
X0153788Y0135860D01*
X0153949Y0136158D02*
X0164045Y0136158D01*
X0164045Y0136457D02*
X0154111Y0136457D01*
X0154309Y0136755D02*
X0164045Y0136755D01*
X0164045Y0137054D02*
X0154530Y0137054D01*
X0154752Y0137352D02*
X0164045Y0137352D01*
X0164045Y0137651D02*
X0154973Y0137651D01*
X0155203Y0137949D02*
X0164045Y0137949D01*
X0164045Y0138248D02*
X0155499Y0138248D01*
X0155795Y0138546D02*
X0164045Y0138546D01*
X0164045Y0138845D02*
X0156091Y0138845D01*
X0156397Y0139143D02*
X0164045Y0139143D01*
X0164045Y0139442D02*
X0156793Y0139442D01*
X0157188Y0139740D02*
X0164045Y0139740D01*
X0164045Y0140039D02*
X0157583Y0140039D01*
X0158084Y0140337D02*
X0164045Y0140337D01*
X0164045Y0140636D02*
X0158625Y0140636D01*
X0159168Y0140934D02*
X0164045Y0140934D01*
X0164045Y0141233D02*
X0159958Y0141233D01*
X0160760Y0141531D02*
X0164045Y0141531D01*
X0164045Y0141830D02*
X0162105Y0141830D01*
X0165619Y0141830D02*
X0167559Y0141830D01*
X0168904Y0141531D02*
X0165619Y0141531D01*
X0165619Y0141233D02*
X0169706Y0141233D01*
X0120405Y0159591D02*
X0120949Y0161149D01*
X0121265Y0162769D01*
X0121348Y0164417D01*
X0121265Y0166066D01*
X0120949Y0167686D01*
X0120405Y0169244D01*
X0119645Y0170709D01*
X0118684Y0172051D01*
X0117542Y0173242D01*
X0116242Y0174259D01*
X0114811Y0175081D01*
X0113277Y0175691D01*
X0111672Y0176076D01*
X0110029Y0176228D01*
X0110029Y0166386D01*
X0110432Y0166226D01*
X0110788Y0165977D01*
X0111076Y0165652D01*
X0111282Y0165270D01*
X0111394Y0164851D01*
X0111407Y0164417D01*
X0111394Y0163984D01*
X0111282Y0163564D01*
X0111076Y0163182D01*
X0110788Y0162858D01*
X0110432Y0162609D01*
X0110029Y0162449D01*
X0110029Y0152606D01*
X0111672Y0152759D01*
X0113277Y0153144D01*
X0114811Y0153754D01*
X0116242Y0154575D01*
X0117542Y0155592D01*
X0118684Y0156784D01*
X0119645Y0158126D01*
X0120405Y0159591D01*
X0120457Y0159741D02*
X0110029Y0159741D01*
X0110029Y0160039D02*
X0120561Y0160039D01*
X0120665Y0160338D02*
X0110029Y0160338D01*
X0110029Y0160636D02*
X0120770Y0160636D01*
X0120874Y0160935D02*
X0110029Y0160935D01*
X0110029Y0161233D02*
X0120965Y0161233D01*
X0121023Y0161532D02*
X0110029Y0161532D01*
X0110029Y0161830D02*
X0121082Y0161830D01*
X0121140Y0162129D02*
X0110029Y0162129D01*
X0110029Y0162427D02*
X0121198Y0162427D01*
X0121257Y0162726D02*
X0110599Y0162726D01*
X0110935Y0163024D02*
X0121278Y0163024D01*
X0121293Y0163323D02*
X0111152Y0163323D01*
X0111297Y0163621D02*
X0121308Y0163621D01*
X0121323Y0163920D02*
X0111377Y0163920D01*
X0111401Y0164218D02*
X0121338Y0164218D01*
X0121343Y0164517D02*
X0111404Y0164517D01*
X0111395Y0164815D02*
X0121328Y0164815D01*
X0121313Y0165114D02*
X0111324Y0165114D01*
X0111205Y0165412D02*
X0121298Y0165412D01*
X0121283Y0165711D02*
X0111024Y0165711D01*
X0110741Y0166009D02*
X0121268Y0166009D01*
X0121218Y0166308D02*
X0110225Y0166308D01*
X0110029Y0166606D02*
X0121159Y0166606D01*
X0121101Y0166905D02*
X0110029Y0166905D01*
X0110029Y0167203D02*
X0121043Y0167203D01*
X0120985Y0167502D02*
X0110029Y0167502D01*
X0110029Y0167800D02*
X0120909Y0167800D01*
X0120804Y0168099D02*
X0110029Y0168099D01*
X0110029Y0168397D02*
X0120700Y0168397D01*
X0120596Y0168696D02*
X0110029Y0168696D01*
X0110029Y0168994D02*
X0120492Y0168994D01*
X0120379Y0169293D02*
X0110029Y0169293D01*
X0110029Y0169591D02*
X0120225Y0169591D01*
X0120070Y0169890D02*
X0110029Y0169890D01*
X0110029Y0170188D02*
X0119915Y0170188D01*
X0119760Y0170487D02*
X0110029Y0170487D01*
X0110029Y0170785D02*
X0119590Y0170785D01*
X0119376Y0171084D02*
X0110029Y0171084D01*
X0110029Y0171383D02*
X0119163Y0171383D01*
X0118949Y0171681D02*
X0110029Y0171681D01*
X0110029Y0171980D02*
X0118735Y0171980D01*
X0118466Y0172278D02*
X0110029Y0172278D01*
X0110029Y0172577D02*
X0118180Y0172577D01*
X0117894Y0172875D02*
X0110029Y0172875D01*
X0110029Y0173174D02*
X0117608Y0173174D01*
X0117249Y0173472D02*
X0110029Y0173472D01*
X0110029Y0173771D02*
X0116867Y0173771D01*
X0116486Y0174069D02*
X0110029Y0174069D01*
X0110029Y0174368D02*
X0116054Y0174368D01*
X0115534Y0174666D02*
X0110029Y0174666D01*
X0110029Y0174965D02*
X0115014Y0174965D01*
X0114353Y0175263D02*
X0110029Y0175263D01*
X0110029Y0175562D02*
X0113601Y0175562D01*
X0112570Y0175860D02*
X0110029Y0175860D01*
X0110029Y0176159D02*
X0110778Y0176159D01*
X0107667Y0176159D02*
X0106917Y0176159D01*
X0107667Y0176228D02*
X0107667Y0166386D01*
X0107263Y0166226D01*
X0106908Y0165977D01*
X0106619Y0165652D01*
X0106414Y0165270D01*
X0106301Y0164851D01*
X0106289Y0164417D01*
X0106301Y0163984D01*
X0106414Y0163564D01*
X0106619Y0163182D01*
X0106908Y0162858D01*
X0107263Y0162609D01*
X0107667Y0162449D01*
X0107667Y0152606D01*
X0106023Y0152759D01*
X0104418Y0153144D01*
X0102885Y0153754D01*
X0101453Y0154575D01*
X0100153Y0155592D01*
X0099011Y0156784D01*
X0098051Y0158126D01*
X0097291Y0159591D01*
X0096747Y0161149D01*
X0096430Y0162769D01*
X0096348Y0164417D01*
X0096430Y0166066D01*
X0096747Y0167686D01*
X0097291Y0169244D01*
X0098051Y0170709D01*
X0099011Y0172051D01*
X0100153Y0173242D01*
X0101453Y0174259D01*
X0102885Y0175081D01*
X0104418Y0175691D01*
X0106023Y0176076D01*
X0107667Y0176228D01*
X0107667Y0175860D02*
X0105125Y0175860D01*
X0104094Y0175562D02*
X0107667Y0175562D01*
X0107667Y0175263D02*
X0103343Y0175263D01*
X0102682Y0174965D02*
X0107667Y0174965D01*
X0107667Y0174666D02*
X0102162Y0174666D01*
X0101642Y0174368D02*
X0107667Y0174368D01*
X0107667Y0174069D02*
X0101210Y0174069D01*
X0100828Y0173771D02*
X0107667Y0173771D01*
X0107667Y0173472D02*
X0100447Y0173472D01*
X0100087Y0173174D02*
X0107667Y0173174D01*
X0107667Y0172875D02*
X0099801Y0172875D01*
X0099515Y0172577D02*
X0107667Y0172577D01*
X0107667Y0172278D02*
X0099229Y0172278D01*
X0098960Y0171980D02*
X0107667Y0171980D01*
X0107667Y0171681D02*
X0098747Y0171681D01*
X0098533Y0171383D02*
X0107667Y0171383D01*
X0107667Y0171084D02*
X0098319Y0171084D01*
X0098105Y0170785D02*
X0107667Y0170785D01*
X0107667Y0170487D02*
X0097936Y0170487D01*
X0097781Y0170188D02*
X0107667Y0170188D01*
X0107667Y0169890D02*
X0097626Y0169890D01*
X0097471Y0169591D02*
X0107667Y0169591D01*
X0107667Y0169293D02*
X0097316Y0169293D01*
X0097204Y0168994D02*
X0107667Y0168994D01*
X0107667Y0168696D02*
X0097099Y0168696D01*
X0096995Y0168397D02*
X0107667Y0168397D01*
X0107667Y0168099D02*
X0096891Y0168099D01*
X0096787Y0167800D02*
X0107667Y0167800D01*
X0107667Y0167502D02*
X0096711Y0167502D01*
X0096653Y0167203D02*
X0107667Y0167203D01*
X0107667Y0166905D02*
X0096594Y0166905D01*
X0096536Y0166606D02*
X0107667Y0166606D01*
X0107470Y0166308D02*
X0096478Y0166308D01*
X0096428Y0166009D02*
X0106955Y0166009D01*
X0106671Y0165711D02*
X0096413Y0165711D01*
X0096398Y0165412D02*
X0106490Y0165412D01*
X0106372Y0165114D02*
X0096383Y0165114D01*
X0096368Y0164815D02*
X0106300Y0164815D01*
X0106292Y0164517D02*
X0096353Y0164517D01*
X0096358Y0164218D02*
X0106294Y0164218D01*
X0106318Y0163920D02*
X0096373Y0163920D01*
X0096388Y0163621D02*
X0106398Y0163621D01*
X0106544Y0163323D02*
X0096403Y0163323D01*
X0096418Y0163024D02*
X0106760Y0163024D01*
X0107097Y0162726D02*
X0096439Y0162726D01*
X0096497Y0162427D02*
X0107667Y0162427D01*
X0107667Y0162129D02*
X0096556Y0162129D01*
X0096614Y0161830D02*
X0107667Y0161830D01*
X0107667Y0161532D02*
X0096672Y0161532D01*
X0096730Y0161233D02*
X0107667Y0161233D01*
X0107667Y0160935D02*
X0096822Y0160935D01*
X0096926Y0160636D02*
X0107667Y0160636D01*
X0107667Y0160338D02*
X0097030Y0160338D01*
X0097134Y0160039D02*
X0107667Y0160039D01*
X0107667Y0159741D02*
X0097238Y0159741D01*
X0097368Y0159442D02*
X0107667Y0159442D01*
X0107667Y0159144D02*
X0097523Y0159144D01*
X0097678Y0158845D02*
X0107667Y0158845D01*
X0107667Y0158547D02*
X0097832Y0158547D01*
X0097987Y0158248D02*
X0107667Y0158248D01*
X0107667Y0157949D02*
X0098177Y0157949D01*
X0098391Y0157651D02*
X0107667Y0157651D01*
X0107667Y0157352D02*
X0098604Y0157352D01*
X0098818Y0157054D02*
X0107667Y0157054D01*
X0107667Y0156755D02*
X0099039Y0156755D01*
X0099325Y0156457D02*
X0107667Y0156457D01*
X0107667Y0156158D02*
X0099611Y0156158D01*
X0099897Y0155860D02*
X0107667Y0155860D01*
X0107667Y0155561D02*
X0100193Y0155561D01*
X0100574Y0155263D02*
X0107667Y0155263D01*
X0107667Y0154964D02*
X0100956Y0154964D01*
X0101337Y0154666D02*
X0107667Y0154666D01*
X0107667Y0154367D02*
X0101815Y0154367D01*
X0102335Y0154069D02*
X0107667Y0154069D01*
X0107667Y0153770D02*
X0102855Y0153770D01*
X0103594Y0153472D02*
X0107667Y0153472D01*
X0107667Y0153173D02*
X0104345Y0153173D01*
X0105541Y0152875D02*
X0107667Y0152875D01*
X0110029Y0152875D02*
X0112155Y0152875D01*
X0113351Y0153173D02*
X0110029Y0153173D01*
X0110029Y0153472D02*
X0114102Y0153472D01*
X0114840Y0153770D02*
X0110029Y0153770D01*
X0110029Y0154069D02*
X0115360Y0154069D01*
X0115880Y0154367D02*
X0110029Y0154367D01*
X0110029Y0154666D02*
X0116358Y0154666D01*
X0116740Y0154964D02*
X0110029Y0154964D01*
X0110029Y0155263D02*
X0117121Y0155263D01*
X0117503Y0155561D02*
X0110029Y0155561D01*
X0110029Y0155860D02*
X0117799Y0155860D01*
X0118085Y0156158D02*
X0110029Y0156158D01*
X0110029Y0156457D02*
X0118371Y0156457D01*
X0118657Y0156755D02*
X0110029Y0156755D01*
X0110029Y0157054D02*
X0118878Y0157054D01*
X0119091Y0157352D02*
X0110029Y0157352D01*
X0110029Y0157651D02*
X0119305Y0157651D01*
X0119519Y0157949D02*
X0110029Y0157949D01*
X0110029Y0158248D02*
X0119708Y0158248D01*
X0119863Y0158547D02*
X0110029Y0158547D01*
X0110029Y0158845D02*
X0120018Y0158845D01*
X0120173Y0159144D02*
X0110029Y0159144D01*
X0110029Y0159442D02*
X0120328Y0159442D01*
X0087194Y0140316D02*
X0086177Y0141616D01*
X0084985Y0142758D01*
X0083643Y0143718D01*
X0082178Y0144478D01*
X0080620Y0145022D01*
X0079000Y0145339D01*
X0077352Y0145421D01*
X0075703Y0145339D01*
X0074084Y0145022D01*
X0072525Y0144478D01*
X0071060Y0143718D01*
X0069718Y0142758D01*
X0068527Y0141616D01*
X0067510Y0140316D01*
X0066688Y0138884D01*
X0066078Y0137351D01*
X0065693Y0135746D01*
X0065541Y0134102D01*
X0075383Y0134102D01*
X0075543Y0134506D01*
X0075792Y0134861D01*
X0076117Y0135150D01*
X0076499Y0135355D01*
X0076918Y0135468D01*
X0077352Y0135480D01*
X0077785Y0135468D01*
X0078205Y0135355D01*
X0078587Y0135150D01*
X0078911Y0134861D01*
X0079160Y0134506D01*
X0079320Y0134102D01*
X0089163Y0134102D01*
X0089010Y0135746D01*
X0088625Y0137351D01*
X0088015Y0138884D01*
X0087194Y0140316D01*
X0087177Y0140337D02*
X0067526Y0140337D01*
X0067351Y0140039D02*
X0087353Y0140039D01*
X0087524Y0139740D02*
X0067179Y0139740D01*
X0067008Y0139442D02*
X0087695Y0139442D01*
X0087867Y0139143D02*
X0066837Y0139143D01*
X0066672Y0138845D02*
X0088031Y0138845D01*
X0088150Y0138546D02*
X0066554Y0138546D01*
X0066435Y0138248D02*
X0088268Y0138248D01*
X0088387Y0137949D02*
X0066316Y0137949D01*
X0066198Y0137651D02*
X0088506Y0137651D01*
X0088624Y0137352D02*
X0066079Y0137352D01*
X0066007Y0137054D02*
X0088696Y0137054D01*
X0088768Y0136755D02*
X0065936Y0136755D01*
X0065864Y0136457D02*
X0088839Y0136457D01*
X0088911Y0136158D02*
X0065792Y0136158D01*
X0065721Y0135860D02*
X0088983Y0135860D01*
X0089027Y0135561D02*
X0065676Y0135561D01*
X0065649Y0135263D02*
X0076326Y0135263D01*
X0075908Y0134964D02*
X0065621Y0134964D01*
X0065593Y0134666D02*
X0075656Y0134666D01*
X0075488Y0134367D02*
X0065565Y0134367D01*
X0065541Y0131740D02*
X0075383Y0131740D01*
X0075543Y0131337D01*
X0075792Y0130981D01*
X0076117Y0130693D01*
X0076499Y0130487D01*
X0076918Y0130375D01*
X0077352Y0130362D01*
X0077785Y0130375D01*
X0078205Y0130487D01*
X0078587Y0130693D01*
X0078911Y0130981D01*
X0079160Y0131337D01*
X0079320Y0131740D01*
X0089163Y0131740D01*
X0089010Y0130097D01*
X0088625Y0128492D01*
X0088015Y0126958D01*
X0087194Y0125527D01*
X0086177Y0124227D01*
X0084985Y0123085D01*
X0083643Y0122124D01*
X0082178Y0121364D01*
X0080620Y0120820D01*
X0079000Y0120504D01*
X0077352Y0120421D01*
X0075703Y0120504D01*
X0074084Y0120820D01*
X0072525Y0121364D01*
X0071060Y0122124D01*
X0069718Y0123085D01*
X0068527Y0124227D01*
X0067510Y0125527D01*
X0066688Y0126958D01*
X0066078Y0128492D01*
X0065693Y0130097D01*
X0065541Y0131740D01*
X0065546Y0131680D02*
X0075407Y0131680D01*
X0075526Y0131382D02*
X0065574Y0131382D01*
X0065602Y0131083D02*
X0075721Y0131083D01*
X0076013Y0130785D02*
X0065629Y0130785D01*
X0065657Y0130486D02*
X0076501Y0130486D01*
X0078203Y0130486D02*
X0089046Y0130486D01*
X0089018Y0130188D02*
X0065685Y0130188D01*
X0065743Y0129889D02*
X0088960Y0129889D01*
X0088889Y0129591D02*
X0065815Y0129591D01*
X0065886Y0129292D02*
X0088817Y0129292D01*
X0088745Y0128994D02*
X0065958Y0128994D01*
X0066030Y0128695D02*
X0088674Y0128695D01*
X0088587Y0128397D02*
X0066116Y0128397D01*
X0066235Y0128098D02*
X0088469Y0128098D01*
X0088350Y0127800D02*
X0066353Y0127800D01*
X0066472Y0127501D02*
X0088231Y0127501D01*
X0088113Y0127203D02*
X0066591Y0127203D01*
X0066719Y0126904D02*
X0087985Y0126904D01*
X0087813Y0126606D02*
X0066890Y0126606D01*
X0067062Y0126307D02*
X0087642Y0126307D01*
X0087470Y0126009D02*
X0067233Y0126009D01*
X0067404Y0125710D02*
X0087299Y0125710D01*
X0087104Y0125412D02*
X0067600Y0125412D01*
X0067833Y0125113D02*
X0086870Y0125113D01*
X0086637Y0124815D02*
X0068067Y0124815D01*
X0068300Y0124516D02*
X0086403Y0124516D01*
X0086167Y0124218D02*
X0068536Y0124218D01*
X0068848Y0123919D02*
X0085856Y0123919D01*
X0085544Y0123621D02*
X0069159Y0123621D01*
X0069471Y0123322D02*
X0085233Y0123322D01*
X0084900Y0123024D02*
X0069804Y0123024D01*
X0070221Y0122725D02*
X0084483Y0122725D01*
X0084066Y0122427D02*
X0070638Y0122427D01*
X0071055Y0122128D02*
X0083649Y0122128D01*
X0083076Y0121830D02*
X0071628Y0121830D01*
X0072203Y0121531D02*
X0082500Y0121531D01*
X0081801Y0121233D02*
X0072902Y0121233D01*
X0073758Y0120934D02*
X0080946Y0120934D01*
X0079674Y0120636D02*
X0075030Y0120636D01*
X0078690Y0130785D02*
X0089074Y0130785D01*
X0089102Y0131083D02*
X0078982Y0131083D01*
X0079178Y0131382D02*
X0089129Y0131382D01*
X0089157Y0131680D02*
X0079296Y0131680D01*
X0079215Y0134367D02*
X0089138Y0134367D01*
X0089110Y0134666D02*
X0079048Y0134666D01*
X0078795Y0134964D02*
X0089083Y0134964D01*
X0089055Y0135263D02*
X0078377Y0135263D01*
X0082680Y0144218D02*
X0072023Y0144218D01*
X0071448Y0143919D02*
X0083256Y0143919D01*
X0083779Y0143621D02*
X0070924Y0143621D01*
X0070507Y0143322D02*
X0084196Y0143322D01*
X0084613Y0143024D02*
X0070090Y0143024D01*
X0069685Y0142725D02*
X0085019Y0142725D01*
X0085330Y0142427D02*
X0069373Y0142427D01*
X0069062Y0142128D02*
X0085642Y0142128D01*
X0085953Y0141830D02*
X0068750Y0141830D01*
X0068461Y0141531D02*
X0086243Y0141531D01*
X0086476Y0141233D02*
X0068227Y0141233D01*
X0067994Y0140934D02*
X0086710Y0140934D01*
X0086943Y0140636D02*
X0067760Y0140636D01*
X0072634Y0144516D02*
X0082069Y0144516D01*
X0081213Y0144815D02*
X0073490Y0144815D01*
X0074551Y0145114D02*
X0080152Y0145114D01*
X0077536Y0145412D02*
X0077168Y0145412D01*
X0057956Y0161149D02*
X0058273Y0162769D01*
X0058356Y0164417D01*
X0058273Y0166066D01*
X0057956Y0167686D01*
X0057413Y0169244D01*
X0056653Y0170709D01*
X0055692Y0172051D01*
X0054550Y0173242D01*
X0053250Y0174259D01*
X0051819Y0175081D01*
X0050285Y0175691D01*
X0048680Y0176076D01*
X0047037Y0176228D01*
X0047037Y0166386D01*
X0047440Y0166226D01*
X0047795Y0165977D01*
X0048084Y0165652D01*
X0048290Y0165270D01*
X0048402Y0164851D01*
X0048415Y0164417D01*
X0048402Y0163984D01*
X0048290Y0163564D01*
X0048084Y0163182D01*
X0047795Y0162858D01*
X0047440Y0162609D01*
X0047037Y0162449D01*
X0047037Y0152606D01*
X0048680Y0152759D01*
X0050285Y0153144D01*
X0051819Y0153754D01*
X0053250Y0154575D01*
X0054550Y0155592D01*
X0055692Y0156784D01*
X0056653Y0158126D01*
X0057413Y0159591D01*
X0057956Y0161149D01*
X0057973Y0161233D02*
X0047037Y0161233D01*
X0047037Y0160935D02*
X0057882Y0160935D01*
X0057777Y0160636D02*
X0047037Y0160636D01*
X0047037Y0160338D02*
X0057673Y0160338D01*
X0057569Y0160039D02*
X0047037Y0160039D01*
X0047037Y0159741D02*
X0057465Y0159741D01*
X0057336Y0159442D02*
X0047037Y0159442D01*
X0047037Y0159144D02*
X0057181Y0159144D01*
X0057026Y0158845D02*
X0047037Y0158845D01*
X0047037Y0158547D02*
X0056871Y0158547D01*
X0056716Y0158248D02*
X0047037Y0158248D01*
X0047037Y0157949D02*
X0056527Y0157949D01*
X0056313Y0157651D02*
X0047037Y0157651D01*
X0047037Y0157352D02*
X0056099Y0157352D01*
X0055885Y0157054D02*
X0047037Y0157054D01*
X0047037Y0156755D02*
X0055665Y0156755D01*
X0055379Y0156457D02*
X0047037Y0156457D01*
X0047037Y0156158D02*
X0055093Y0156158D01*
X0054807Y0155860D02*
X0047037Y0155860D01*
X0047037Y0155561D02*
X0054511Y0155561D01*
X0054129Y0155263D02*
X0047037Y0155263D01*
X0047037Y0154964D02*
X0053748Y0154964D01*
X0053366Y0154666D02*
X0047037Y0154666D01*
X0047037Y0154367D02*
X0052888Y0154367D01*
X0052368Y0154069D02*
X0047037Y0154069D01*
X0047037Y0153770D02*
X0051848Y0153770D01*
X0051110Y0153472D02*
X0047037Y0153472D01*
X0047037Y0153173D02*
X0050359Y0153173D01*
X0049163Y0152875D02*
X0047037Y0152875D01*
X0044675Y0152875D02*
X0042549Y0152875D01*
X0043031Y0152759D02*
X0044675Y0152606D01*
X0044675Y0162449D01*
X0044271Y0162609D01*
X0043916Y0162858D01*
X0043627Y0163182D01*
X0043421Y0163564D01*
X0043309Y0163984D01*
X0043297Y0164417D01*
X0043309Y0164851D01*
X0043421Y0165270D01*
X0043627Y0165652D01*
X0043916Y0165977D01*
X0044271Y0166226D01*
X0044675Y0166386D01*
X0044675Y0176228D01*
X0043031Y0176076D01*
X0041426Y0175691D01*
X0039893Y0175081D01*
X0038461Y0174259D01*
X0037161Y0173242D01*
X0036019Y0172051D01*
X0035059Y0170709D01*
X0034299Y0169244D01*
X0033755Y0167686D01*
X0033438Y0166066D01*
X0033356Y0164417D01*
X0033438Y0162769D01*
X0033755Y0161149D01*
X0034299Y0159591D01*
X0035059Y0158126D01*
X0036019Y0156784D01*
X0037161Y0155592D01*
X0038461Y0154575D01*
X0039893Y0153754D01*
X0041426Y0153144D01*
X0043031Y0152759D01*
X0044675Y0153173D02*
X0041353Y0153173D01*
X0040602Y0153472D02*
X0044675Y0153472D01*
X0044675Y0153770D02*
X0039863Y0153770D01*
X0039343Y0154069D02*
X0044675Y0154069D01*
X0044675Y0154367D02*
X0038823Y0154367D01*
X0038345Y0154666D02*
X0044675Y0154666D01*
X0044675Y0154964D02*
X0037964Y0154964D01*
X0037582Y0155263D02*
X0044675Y0155263D01*
X0044675Y0155561D02*
X0037201Y0155561D01*
X0036905Y0155860D02*
X0044675Y0155860D01*
X0044675Y0156158D02*
X0036619Y0156158D01*
X0036332Y0156457D02*
X0044675Y0156457D01*
X0044675Y0156755D02*
X0036046Y0156755D01*
X0035826Y0157054D02*
X0044675Y0157054D01*
X0044675Y0157352D02*
X0035612Y0157352D01*
X0035398Y0157651D02*
X0044675Y0157651D01*
X0044675Y0157949D02*
X0035185Y0157949D01*
X0034995Y0158248D02*
X0044675Y0158248D01*
X0044675Y0158547D02*
X0034840Y0158547D01*
X0034685Y0158845D02*
X0044675Y0158845D01*
X0044675Y0159144D02*
X0034531Y0159144D01*
X0034376Y0159442D02*
X0044675Y0159442D01*
X0044675Y0159741D02*
X0034246Y0159741D01*
X0034142Y0160039D02*
X0044675Y0160039D01*
X0044675Y0160338D02*
X0034038Y0160338D01*
X0033934Y0160636D02*
X0044675Y0160636D01*
X0044675Y0160935D02*
X0033830Y0160935D01*
X0033738Y0161233D02*
X0044675Y0161233D01*
X0044675Y0161532D02*
X0033680Y0161532D01*
X0033622Y0161830D02*
X0044675Y0161830D01*
X0044675Y0162129D02*
X0033563Y0162129D01*
X0033505Y0162427D02*
X0044675Y0162427D01*
X0044105Y0162726D02*
X0033447Y0162726D01*
X0033426Y0163024D02*
X0043768Y0163024D01*
X0043552Y0163323D02*
X0033411Y0163323D01*
X0033396Y0163621D02*
X0043406Y0163621D01*
X0043326Y0163920D02*
X0033381Y0163920D01*
X0033366Y0164218D02*
X0043302Y0164218D01*
X0043299Y0164517D02*
X0033361Y0164517D01*
X0033376Y0164815D02*
X0043308Y0164815D01*
X0043379Y0165114D02*
X0033391Y0165114D01*
X0033406Y0165412D02*
X0043498Y0165412D01*
X0043679Y0165711D02*
X0033421Y0165711D01*
X0033436Y0166009D02*
X0043962Y0166009D01*
X0044478Y0166308D02*
X0033486Y0166308D01*
X0033544Y0166606D02*
X0044675Y0166606D01*
X0044675Y0166905D02*
X0033602Y0166905D01*
X0033661Y0167203D02*
X0044675Y0167203D01*
X0044675Y0167502D02*
X0033719Y0167502D01*
X0033795Y0167800D02*
X0044675Y0167800D01*
X0044675Y0168099D02*
X0033899Y0168099D01*
X0034003Y0168397D02*
X0044675Y0168397D01*
X0044675Y0168696D02*
X0034107Y0168696D01*
X0034212Y0168994D02*
X0044675Y0168994D01*
X0044675Y0169293D02*
X0034324Y0169293D01*
X0034479Y0169591D02*
X0044675Y0169591D01*
X0044675Y0169890D02*
X0034634Y0169890D01*
X0034789Y0170188D02*
X0044675Y0170188D01*
X0044675Y0170487D02*
X0034943Y0170487D01*
X0035113Y0170785D02*
X0044675Y0170785D01*
X0044675Y0171084D02*
X0035327Y0171084D01*
X0035541Y0171383D02*
X0044675Y0171383D01*
X0044675Y0171681D02*
X0035754Y0171681D01*
X0035968Y0171980D02*
X0044675Y0171980D01*
X0044675Y0172278D02*
X0036237Y0172278D01*
X0036523Y0172577D02*
X0044675Y0172577D01*
X0044675Y0172875D02*
X0036809Y0172875D01*
X0037095Y0173174D02*
X0044675Y0173174D01*
X0044675Y0173472D02*
X0037455Y0173472D01*
X0037836Y0173771D02*
X0044675Y0173771D01*
X0044675Y0174069D02*
X0038218Y0174069D01*
X0038650Y0174368D02*
X0044675Y0174368D01*
X0044675Y0174666D02*
X0039170Y0174666D01*
X0039690Y0174965D02*
X0044675Y0174965D01*
X0044675Y0175263D02*
X0040351Y0175263D01*
X0041102Y0175562D02*
X0044675Y0175562D01*
X0044675Y0175860D02*
X0042133Y0175860D01*
X0043925Y0176159D02*
X0044675Y0176159D01*
X0047037Y0176159D02*
X0047786Y0176159D01*
X0047037Y0175860D02*
X0049578Y0175860D01*
X0050609Y0175562D02*
X0047037Y0175562D01*
X0047037Y0175263D02*
X0051360Y0175263D01*
X0052022Y0174965D02*
X0047037Y0174965D01*
X0047037Y0174666D02*
X0052542Y0174666D01*
X0053062Y0174368D02*
X0047037Y0174368D01*
X0047037Y0174069D02*
X0053493Y0174069D01*
X0053875Y0173771D02*
X0047037Y0173771D01*
X0047037Y0173472D02*
X0054257Y0173472D01*
X0054616Y0173174D02*
X0047037Y0173174D01*
X0047037Y0172875D02*
X0054902Y0172875D01*
X0055188Y0172577D02*
X0047037Y0172577D01*
X0047037Y0172278D02*
X0055474Y0172278D01*
X0055743Y0171980D02*
X0047037Y0171980D01*
X0047037Y0171681D02*
X0055957Y0171681D01*
X0056171Y0171383D02*
X0047037Y0171383D01*
X0047037Y0171084D02*
X0056384Y0171084D01*
X0056598Y0170785D02*
X0047037Y0170785D01*
X0047037Y0170487D02*
X0056768Y0170487D01*
X0056923Y0170188D02*
X0047037Y0170188D01*
X0047037Y0169890D02*
X0057078Y0169890D01*
X0057232Y0169591D02*
X0047037Y0169591D01*
X0047037Y0169293D02*
X0057387Y0169293D01*
X0057500Y0168994D02*
X0047037Y0168994D01*
X0047037Y0168696D02*
X0057604Y0168696D01*
X0057708Y0168397D02*
X0047037Y0168397D01*
X0047037Y0168099D02*
X0057812Y0168099D01*
X0057916Y0167800D02*
X0047037Y0167800D01*
X0047037Y0167502D02*
X0057992Y0167502D01*
X0058051Y0167203D02*
X0047037Y0167203D01*
X0047037Y0166905D02*
X0058109Y0166905D01*
X0058167Y0166606D02*
X0047037Y0166606D01*
X0047233Y0166308D02*
X0058226Y0166308D01*
X0058276Y0166009D02*
X0047749Y0166009D01*
X0048032Y0165711D02*
X0058291Y0165711D01*
X0058306Y0165412D02*
X0048213Y0165412D01*
X0048332Y0165114D02*
X0058321Y0165114D01*
X0058336Y0164815D02*
X0048403Y0164815D01*
X0048412Y0164517D02*
X0058351Y0164517D01*
X0058346Y0164218D02*
X0048409Y0164218D01*
X0048385Y0163920D02*
X0058331Y0163920D01*
X0058316Y0163621D02*
X0048305Y0163621D01*
X0048160Y0163323D02*
X0058301Y0163323D01*
X0058286Y0163024D02*
X0047943Y0163024D01*
X0047606Y0162726D02*
X0058264Y0162726D01*
X0058206Y0162427D02*
X0047037Y0162427D01*
X0047037Y0162129D02*
X0058148Y0162129D01*
X0058090Y0161830D02*
X0047037Y0161830D01*
X0047037Y0161532D02*
X0058031Y0161532D01*
X0071060Y0185116D02*
X0069718Y0186077D01*
X0068527Y0187219D01*
X0067510Y0188519D01*
X0066688Y0189950D01*
X0066078Y0191484D01*
X0065693Y0193089D01*
X0065541Y0194732D01*
X0075383Y0194732D01*
X0075543Y0194329D01*
X0075792Y0193974D01*
X0076117Y0193685D01*
X0076499Y0193479D01*
X0076918Y0193367D01*
X0077352Y0193354D01*
X0077785Y0193367D01*
X0078205Y0193479D01*
X0078587Y0193685D01*
X0078911Y0193974D01*
X0079160Y0194329D01*
X0079320Y0194732D01*
X0089163Y0194732D01*
X0089010Y0193089D01*
X0088625Y0191484D01*
X0088015Y0189950D01*
X0087194Y0188519D01*
X0086177Y0187219D01*
X0084985Y0186077D01*
X0083643Y0185116D01*
X0082178Y0184356D01*
X0080620Y0183813D01*
X0079000Y0183496D01*
X0077352Y0183413D01*
X0075703Y0183496D01*
X0074084Y0183813D01*
X0072525Y0184356D01*
X0071060Y0185116D01*
X0071064Y0185114D02*
X0083639Y0185114D01*
X0084057Y0185413D02*
X0070646Y0185413D01*
X0070229Y0185711D02*
X0084474Y0185711D01*
X0084891Y0186010D02*
X0069812Y0186010D01*
X0069477Y0186308D02*
X0085226Y0186308D01*
X0085538Y0186607D02*
X0069166Y0186607D01*
X0068854Y0186905D02*
X0085849Y0186905D01*
X0086161Y0187204D02*
X0068543Y0187204D01*
X0068305Y0187502D02*
X0086398Y0187502D01*
X0086632Y0187801D02*
X0068071Y0187801D01*
X0067838Y0188099D02*
X0086865Y0188099D01*
X0087099Y0188398D02*
X0067604Y0188398D01*
X0067408Y0188696D02*
X0087296Y0188696D01*
X0087467Y0188995D02*
X0067236Y0188995D01*
X0067065Y0189293D02*
X0087638Y0189293D01*
X0087810Y0189592D02*
X0066894Y0189592D01*
X0066722Y0189890D02*
X0087981Y0189890D01*
X0088110Y0190189D02*
X0066593Y0190189D01*
X0066475Y0190487D02*
X0088229Y0190487D01*
X0088347Y0190786D02*
X0066356Y0190786D01*
X0066237Y0191084D02*
X0088466Y0191084D01*
X0088585Y0191383D02*
X0066119Y0191383D01*
X0066031Y0191681D02*
X0088672Y0191681D01*
X0088744Y0191980D02*
X0065960Y0191980D01*
X0065888Y0192278D02*
X0088815Y0192278D01*
X0088887Y0192577D02*
X0065816Y0192577D01*
X0065745Y0192875D02*
X0088959Y0192875D01*
X0089018Y0193174D02*
X0065686Y0193174D01*
X0065658Y0193472D02*
X0076524Y0193472D01*
X0076020Y0193771D02*
X0065630Y0193771D01*
X0065602Y0194069D02*
X0075725Y0194069D01*
X0075528Y0194368D02*
X0065575Y0194368D01*
X0065547Y0194666D02*
X0075409Y0194666D01*
X0075383Y0197094D02*
X0075543Y0197498D01*
X0075792Y0197853D01*
X0076117Y0198142D01*
X0076499Y0198348D01*
X0076918Y0198460D01*
X0077352Y0198472D01*
X0077785Y0198460D01*
X0078205Y0198348D01*
X0078587Y0198142D01*
X0078911Y0197853D01*
X0079160Y0197498D01*
X0079320Y0197094D01*
X0089163Y0197094D01*
X0089010Y0198738D01*
X0088625Y0200343D01*
X0088015Y0201877D01*
X0087194Y0203308D01*
X0086177Y0204608D01*
X0084985Y0205750D01*
X0083643Y0206711D01*
X0082178Y0207470D01*
X0080620Y0208014D01*
X0079000Y0208331D01*
X0077352Y0208413D01*
X0075703Y0208331D01*
X0074084Y0208014D01*
X0072525Y0207470D01*
X0071060Y0206711D01*
X0069718Y0205750D01*
X0068527Y0204608D01*
X0067510Y0203308D01*
X0066688Y0201877D01*
X0066078Y0200343D01*
X0065693Y0198738D01*
X0065541Y0197094D01*
X0075383Y0197094D01*
X0075486Y0197353D02*
X0065565Y0197353D01*
X0065592Y0197652D02*
X0075651Y0197652D01*
X0075901Y0197950D02*
X0065620Y0197950D01*
X0065648Y0198249D02*
X0076315Y0198249D01*
X0078389Y0198249D02*
X0089055Y0198249D01*
X0089028Y0198547D02*
X0065676Y0198547D01*
X0065719Y0198846D02*
X0088984Y0198846D01*
X0088913Y0199144D02*
X0065791Y0199144D01*
X0065862Y0199443D02*
X0088841Y0199443D01*
X0088769Y0199741D02*
X0065934Y0199741D01*
X0066006Y0200040D02*
X0088698Y0200040D01*
X0088626Y0200338D02*
X0066077Y0200338D01*
X0066195Y0200637D02*
X0088508Y0200637D01*
X0088390Y0200935D02*
X0066314Y0200935D01*
X0066433Y0201234D02*
X0088271Y0201234D01*
X0088152Y0201532D02*
X0066551Y0201532D01*
X0066670Y0201831D02*
X0088034Y0201831D01*
X0087870Y0202129D02*
X0066833Y0202129D01*
X0067004Y0202428D02*
X0087699Y0202428D01*
X0087528Y0202726D02*
X0067176Y0202726D01*
X0067347Y0203025D02*
X0087356Y0203025D01*
X0087182Y0203323D02*
X0067522Y0203323D01*
X0067755Y0203622D02*
X0086948Y0203622D01*
X0086715Y0203920D02*
X0067989Y0203920D01*
X0068222Y0204219D02*
X0086481Y0204219D01*
X0086248Y0204517D02*
X0068456Y0204517D01*
X0068744Y0204816D02*
X0085960Y0204816D01*
X0085648Y0205114D02*
X0069055Y0205114D01*
X0069367Y0205413D02*
X0085337Y0205413D01*
X0085025Y0205711D02*
X0069678Y0205711D01*
X0070081Y0206010D02*
X0084622Y0206010D01*
X0084205Y0206308D02*
X0070498Y0206308D01*
X0070915Y0206607D02*
X0083788Y0206607D01*
X0083268Y0206905D02*
X0071436Y0206905D01*
X0072011Y0207204D02*
X0082692Y0207204D01*
X0082087Y0207502D02*
X0072617Y0207502D01*
X0073472Y0207801D02*
X0081231Y0207801D01*
X0080184Y0208099D02*
X0074519Y0208099D01*
X0077043Y0208398D02*
X0077660Y0208398D01*
X0078802Y0197950D02*
X0089083Y0197950D01*
X0089111Y0197652D02*
X0079052Y0197652D01*
X0079217Y0197353D02*
X0089139Y0197353D01*
X0089157Y0194666D02*
X0079294Y0194666D01*
X0079175Y0194368D02*
X0089129Y0194368D01*
X0089101Y0194069D02*
X0078978Y0194069D01*
X0078683Y0193771D02*
X0089073Y0193771D01*
X0089046Y0193472D02*
X0078179Y0193472D01*
X0081783Y0184218D02*
X0072920Y0184218D01*
X0072215Y0184517D02*
X0082488Y0184517D01*
X0083063Y0184816D02*
X0071640Y0184816D01*
X0073776Y0183920D02*
X0080928Y0183920D01*
X0079642Y0183621D02*
X0075061Y0183621D01*
D17*
X0133482Y0089073D02*
X0132943Y0088630D01*
X0132499Y0088090D01*
X0132170Y0087474D01*
X0131967Y0086805D01*
X0131899Y0086110D01*
X0131899Y0083157D01*
X0141348Y0083157D01*
X0141513Y0083565D01*
X0141755Y0083932D01*
X0142065Y0084244D01*
X0142431Y0084488D01*
X0142838Y0084654D01*
X0143270Y0084737D01*
X0143710Y0084732D01*
X0144150Y0084737D01*
X0144582Y0084654D01*
X0144989Y0084488D01*
X0145355Y0084244D01*
X0145665Y0083932D01*
X0145907Y0083565D01*
X0146072Y0083157D01*
X0155521Y0083157D01*
X0155521Y0086110D01*
X0155453Y0086805D01*
X0155250Y0087474D01*
X0154921Y0088090D01*
X0154477Y0088630D01*
X0153937Y0089073D01*
X0153321Y0089402D01*
X0152653Y0089605D01*
X0151958Y0089673D01*
X0135462Y0089673D01*
X0134767Y0089605D01*
X0134098Y0089402D01*
X0133482Y0089073D01*
X0133796Y0089240D02*
X0153624Y0089240D01*
X0154451Y0088651D02*
X0132969Y0088651D01*
X0132485Y0088062D02*
X0154935Y0088062D01*
X0155250Y0087473D02*
X0132170Y0087473D01*
X0131991Y0086884D02*
X0155429Y0086884D01*
X0155503Y0086295D02*
X0131917Y0086295D01*
X0131899Y0085706D02*
X0155521Y0085706D01*
X0155521Y0085117D02*
X0131899Y0085117D01*
X0131899Y0084528D02*
X0142529Y0084528D01*
X0141762Y0083939D02*
X0131899Y0083939D01*
X0131899Y0083350D02*
X0141425Y0083350D01*
X0141348Y0081189D02*
X0131899Y0081189D01*
X0131899Y0078531D01*
X0131959Y0077848D01*
X0132136Y0077185D01*
X0132426Y0076563D01*
X0132820Y0076001D01*
X0133305Y0075516D01*
X0133867Y0075122D01*
X0134489Y0074832D01*
X0135152Y0074654D01*
X0135836Y0074594D01*
X0151584Y0074594D01*
X0152268Y0074654D01*
X0152931Y0074832D01*
X0153552Y0075122D01*
X0154115Y0075516D01*
X0154600Y0076001D01*
X0154994Y0076563D01*
X0155284Y0077185D01*
X0155461Y0077848D01*
X0155521Y0078531D01*
X0155521Y0081189D01*
X0146072Y0081189D01*
X0145907Y0080781D01*
X0145665Y0080414D01*
X0145355Y0080103D01*
X0144989Y0079859D01*
X0144582Y0079692D01*
X0144150Y0079610D01*
X0143710Y0079614D01*
X0143270Y0079610D01*
X0142838Y0079692D01*
X0142431Y0079859D01*
X0142065Y0080103D01*
X0141755Y0080414D01*
X0141513Y0080781D01*
X0141348Y0081189D01*
X0141427Y0080993D02*
X0131899Y0080993D01*
X0131899Y0080404D02*
X0141765Y0080404D01*
X0142538Y0079815D02*
X0131899Y0079815D01*
X0131899Y0079226D02*
X0155521Y0079226D01*
X0155521Y0078637D02*
X0131899Y0078637D01*
X0131941Y0078048D02*
X0155479Y0078048D01*
X0155357Y0077459D02*
X0132063Y0077459D01*
X0132283Y0076870D02*
X0155137Y0076870D01*
X0154796Y0076281D02*
X0132624Y0076281D01*
X0133129Y0075692D02*
X0154291Y0075692D01*
X0153511Y0075103D02*
X0133909Y0075103D01*
X0144882Y0079815D02*
X0155521Y0079815D01*
X0155521Y0080404D02*
X0145655Y0080404D01*
X0145993Y0080993D02*
X0155521Y0080993D01*
X0155521Y0083350D02*
X0145994Y0083350D01*
X0145658Y0083939D02*
X0155521Y0083939D01*
X0155521Y0084528D02*
X0144891Y0084528D01*
X0177568Y0084528D02*
X0188198Y0084528D01*
X0188101Y0084488D02*
X0188508Y0084654D01*
X0188940Y0084737D01*
X0189379Y0084732D01*
X0189819Y0084737D01*
X0190251Y0084654D01*
X0190658Y0084488D01*
X0191024Y0084244D01*
X0191334Y0083932D01*
X0191577Y0083565D01*
X0191741Y0083157D01*
X0201190Y0083157D01*
X0201190Y0086110D01*
X0201122Y0086805D01*
X0200919Y0087474D01*
X0200590Y0088090D01*
X0200147Y0088630D01*
X0199607Y0089073D01*
X0198991Y0089402D01*
X0198322Y0089605D01*
X0197627Y0089673D01*
X0181131Y0089673D01*
X0180436Y0089605D01*
X0179768Y0089402D01*
X0179152Y0089073D01*
X0178612Y0088630D01*
X0178169Y0088090D01*
X0177839Y0087474D01*
X0177637Y0086805D01*
X0177568Y0086110D01*
X0177568Y0083157D01*
X0187017Y0083157D01*
X0187182Y0083565D01*
X0187424Y0083932D01*
X0187735Y0084244D01*
X0188101Y0084488D01*
X0187431Y0083939D02*
X0177568Y0083939D01*
X0177568Y0083350D02*
X0187095Y0083350D01*
X0187017Y0081189D02*
X0177568Y0081189D01*
X0177568Y0078531D01*
X0177628Y0077848D01*
X0177806Y0077185D01*
X0178096Y0076563D01*
X0178489Y0076001D01*
X0178975Y0075516D01*
X0179537Y0075122D01*
X0180159Y0074832D01*
X0180822Y0074654D01*
X0181505Y0074594D01*
X0197253Y0074594D01*
X0197937Y0074654D01*
X0198600Y0074832D01*
X0199222Y0075122D01*
X0199784Y0075516D01*
X0200269Y0076001D01*
X0200663Y0076563D01*
X0200953Y0077185D01*
X0201130Y0077848D01*
X0201190Y0078531D01*
X0201190Y0081189D01*
X0191741Y0081189D01*
X0191577Y0080781D01*
X0191334Y0080414D01*
X0191024Y0080103D01*
X0190658Y0079859D01*
X0190251Y0079692D01*
X0189819Y0079610D01*
X0189379Y0079614D01*
X0188940Y0079610D01*
X0188508Y0079692D01*
X0188101Y0079859D01*
X0187735Y0080103D01*
X0187424Y0080414D01*
X0187182Y0080781D01*
X0187017Y0081189D01*
X0187096Y0080993D02*
X0177568Y0080993D01*
X0177568Y0080404D02*
X0187435Y0080404D01*
X0188207Y0079815D02*
X0177568Y0079815D01*
X0177568Y0079226D02*
X0201190Y0079226D01*
X0201190Y0078637D02*
X0177568Y0078637D01*
X0177611Y0078048D02*
X0201148Y0078048D01*
X0201026Y0077459D02*
X0177732Y0077459D01*
X0177953Y0076870D02*
X0200806Y0076870D01*
X0200465Y0076281D02*
X0178293Y0076281D01*
X0178798Y0075692D02*
X0199960Y0075692D01*
X0199180Y0075103D02*
X0179578Y0075103D01*
X0177568Y0085117D02*
X0201190Y0085117D01*
X0201190Y0085706D02*
X0177568Y0085706D01*
X0177586Y0086295D02*
X0201172Y0086295D01*
X0201098Y0086884D02*
X0177661Y0086884D01*
X0177839Y0087473D02*
X0200919Y0087473D01*
X0200605Y0088062D02*
X0178154Y0088062D01*
X0178638Y0088651D02*
X0200121Y0088651D01*
X0199294Y0089240D02*
X0179465Y0089240D01*
X0190560Y0084528D02*
X0201190Y0084528D01*
X0201190Y0083939D02*
X0191328Y0083939D01*
X0191664Y0083350D02*
X0201190Y0083350D01*
X0201190Y0080993D02*
X0191662Y0080993D01*
X0191324Y0080404D02*
X0201190Y0080404D01*
X0201190Y0079815D02*
X0190551Y0079815D01*
D18*
X0037194Y0400835D03*
X0037194Y0409102D03*
D19*
X0066722Y0467961D03*
X0078533Y0467961D03*
D20*
X0031289Y0334299D03*
X0031289Y0294929D03*
D21*
X0219281Y0048669D03*
X0219281Y0038669D03*
D22*
X0033289Y0354476D02*
X0029289Y0354476D01*
X0029289Y0383020D02*
X0033289Y0383020D01*
D23*
X0042037Y0378295D03*
X0042037Y0359201D03*
D24*
X0183257Y0054575D03*
X0163572Y0034890D03*
X0163572Y0025047D03*
X0202942Y0025047D03*
X0202942Y0034890D03*
D25*
X0203336Y0054575D03*
X0193100Y0054575D03*
X0183257Y0034890D03*
X0173415Y0054575D03*
X0163178Y0054575D03*
D26*
X0167115Y0066386D03*
X0149399Y0049654D03*
X0141525Y0058512D03*
X0126761Y0038827D03*
X0100186Y0046701D03*
X0090344Y0062449D03*
X0064753Y0082134D03*
X0052942Y0062449D03*
X0092312Y0219929D03*
X0076564Y0235677D03*
X0045068Y0235677D03*
X0099942Y0306543D03*
X0110029Y0306543D03*
X0119871Y0306543D03*
X0147430Y0306543D03*
X0169942Y0368748D03*
X0179942Y0371898D03*
X0184832Y0378197D03*
X0189942Y0362449D03*
X0165147Y0384496D03*
X0159942Y0381346D03*
X0155304Y0375047D03*
X0214360Y0345913D03*
X0230108Y0341976D03*
X0269478Y0362449D03*
X0287194Y0385283D03*
X0259942Y0450244D03*
X0237982Y0440402D03*
X0247824Y0235677D03*
X0204517Y0189260D03*
X0193690Y0139220D03*
X0218297Y0092114D03*
X0245856Y0157764D03*
X0279320Y0141189D03*
X0291131Y0196307D03*
X0159241Y0101819D03*
X0119871Y0219929D03*
X0062785Y0361661D03*
X0056879Y0361661D03*
X0056879Y0373472D03*
X0045068Y0401031D03*
X0075580Y0444339D03*
X0081486Y0439417D03*
X0081486Y0450244D03*
X0089942Y0377409D03*
M02*
