%
M48
M72
T01C0.01378
T02C0.02000
T03C0.03150
T04C0.03543
T05C0.03937
T06C0.04000
T07C0.05906
T08C0.06299
%
T01
X52942Y60449
X64753Y80134
X90344Y60449
X100186Y44701
X126761Y36827
X141525Y43717
X141525Y54543
X159241Y99819
X92312Y217929
X119871Y217929
X167115Y64386
X218297Y89976
X193690Y137220
X245856Y160843
X279320Y139189
X291131Y194307
X247824Y233677
X204517Y196276
X174989Y335252
X179942Y347850
X169942Y351000
X164342Y344701
X159241Y338402
X143493Y365567
X147430Y383283
X119871Y375409
X110029Y375409
X99942Y375409
X89942Y375409
X62785Y359661
X56879Y359661
X56879Y371472
X52942Y375803
X45068Y399031
X81486Y448244
X75580Y442339
X81486Y437417
X184832Y383283
X190738Y357299
X194675Y341551
X237982Y438402
X259942Y448244
X269478Y357299
T02
X35226Y356413
X35226Y384957
T03
X45974Y361138
X45974Y380232
T04
X66722Y465961
X78533Y465961
T05
X45856Y162417
X77352Y130921
X108848Y162417
X143710Y80173
X164832Y128205
X176643Y187260
X219950Y151827
X231761Y210882
X275265Y169504
X263257Y112457
X189379Y80173
X77352Y193913
T06
X219281Y42732
X219281Y32732
T07
X163178Y48441
X173808Y48441
X183257Y48441
X192706Y48441
X203336Y48441
X202942Y28756
X183257Y28756
X163572Y28756
T08
X31289Y292929
X31289Y332299
M30
