G75*
%MOIN*%
%OFA0B0*%
%FSLAX25Y25*%
%IPPOS*%
%LPD*%
%AMOC8*
5,1,8,0,0,1.08239X$1,22.5*
%
%ADD10C,0.00000*%
%ADD11C,0.00039*%
%ADD12R,0.06000X0.13000*%
%ADD13R,0.10000X0.10000*%
%ADD14C,0.01000*%
%ADD15R,0.03937X0.03150*%
%ADD16R,0.02756X0.05906*%
%ADD17R,0.08661X0.02362*%
%ADD18R,0.05118X0.05906*%
%ADD19R,0.15748X0.05512*%
%ADD20R,0.03937X0.18110*%
%ADD21R,0.06299X0.13386*%
%ADD22C,0.03740*%
%ADD23R,0.05315X0.01575*%
%ADD24R,0.05512X0.06299*%
%ADD25R,0.05512X0.04331*%
D10*
X0029320Y0017142D02*
X0029320Y0202181D01*
X0029453Y0202183D01*
X0029586Y0202189D01*
X0029718Y0202199D01*
X0029851Y0202212D01*
X0029982Y0202230D01*
X0030114Y0202251D01*
X0030244Y0202276D01*
X0030374Y0202305D01*
X0030503Y0202338D01*
X0030630Y0202375D01*
X0030757Y0202415D01*
X0030883Y0202459D01*
X0031007Y0202507D01*
X0031129Y0202558D01*
X0031250Y0202613D01*
X0031370Y0202672D01*
X0031487Y0202733D01*
X0031603Y0202799D01*
X0031717Y0202867D01*
X0031829Y0202939D01*
X0031938Y0203015D01*
X0032046Y0203093D01*
X0032151Y0203175D01*
X0032253Y0203259D01*
X0032353Y0203347D01*
X0032451Y0203437D01*
X0032545Y0203531D01*
X0032637Y0203627D01*
X0032726Y0203726D01*
X0032812Y0203827D01*
X0032895Y0203931D01*
X0032975Y0204037D01*
X0033052Y0204145D01*
X0033126Y0204256D01*
X0033196Y0204369D01*
X0033263Y0204483D01*
X0033327Y0204600D01*
X0033387Y0204719D01*
X0033444Y0204839D01*
X0033497Y0204961D01*
X0033546Y0205084D01*
X0033592Y0205209D01*
X0033635Y0205335D01*
X0033673Y0205462D01*
X0033708Y0205591D01*
X0033739Y0205720D01*
X0033766Y0205850D01*
X0033789Y0205981D01*
X0033809Y0206112D01*
X0033824Y0206245D01*
X0033836Y0206377D01*
X0033844Y0206510D01*
X0033848Y0206643D01*
X0033848Y0206775D01*
X0033844Y0206908D01*
X0033836Y0207041D01*
X0033824Y0207173D01*
X0033809Y0207306D01*
X0033789Y0207437D01*
X0033766Y0207568D01*
X0033739Y0207698D01*
X0033708Y0207827D01*
X0033673Y0207956D01*
X0033635Y0208083D01*
X0033592Y0208209D01*
X0033546Y0208334D01*
X0033497Y0208457D01*
X0033444Y0208579D01*
X0033387Y0208699D01*
X0033327Y0208818D01*
X0033263Y0208935D01*
X0033196Y0209049D01*
X0033126Y0209162D01*
X0033052Y0209273D01*
X0032975Y0209381D01*
X0032895Y0209487D01*
X0032812Y0209591D01*
X0032726Y0209692D01*
X0032637Y0209791D01*
X0032545Y0209887D01*
X0032451Y0209981D01*
X0032353Y0210071D01*
X0032253Y0210159D01*
X0032151Y0210243D01*
X0032046Y0210325D01*
X0031938Y0210403D01*
X0031829Y0210479D01*
X0031717Y0210551D01*
X0031603Y0210619D01*
X0031487Y0210685D01*
X0031370Y0210746D01*
X0031250Y0210805D01*
X0031129Y0210860D01*
X0031007Y0210911D01*
X0030883Y0210959D01*
X0030757Y0211003D01*
X0030630Y0211043D01*
X0030503Y0211080D01*
X0030374Y0211113D01*
X0030244Y0211142D01*
X0030114Y0211167D01*
X0029982Y0211188D01*
X0029851Y0211206D01*
X0029718Y0211219D01*
X0029586Y0211229D01*
X0029453Y0211235D01*
X0029320Y0211237D01*
X0029320Y0211236D02*
X0029320Y0276984D01*
X0022430Y0276984D01*
X0022430Y0347850D01*
X0029320Y0347850D01*
X0029320Y0462024D01*
X0049005Y0462024D01*
X0049005Y0469898D01*
X0050974Y0469898D01*
X0050974Y0471866D01*
X0060816Y0471866D01*
X0060816Y0469898D01*
X0084438Y0469898D01*
X0084438Y0471866D01*
X0094281Y0471866D01*
X0094281Y0469898D01*
X0096249Y0469898D01*
X0096249Y0462024D01*
X0302942Y0462024D01*
X0302942Y0083874D01*
X0228139Y0083874D01*
X0228139Y0017142D01*
X0029320Y0017142D01*
X0075383Y0130921D02*
X0075385Y0131009D01*
X0075391Y0131097D01*
X0075401Y0131185D01*
X0075415Y0131273D01*
X0075432Y0131359D01*
X0075454Y0131445D01*
X0075479Y0131529D01*
X0075509Y0131613D01*
X0075541Y0131695D01*
X0075578Y0131775D01*
X0075618Y0131854D01*
X0075662Y0131931D01*
X0075709Y0132006D01*
X0075759Y0132078D01*
X0075813Y0132149D01*
X0075869Y0132216D01*
X0075929Y0132282D01*
X0075991Y0132344D01*
X0076057Y0132404D01*
X0076124Y0132460D01*
X0076195Y0132514D01*
X0076267Y0132564D01*
X0076342Y0132611D01*
X0076419Y0132655D01*
X0076498Y0132695D01*
X0076578Y0132732D01*
X0076660Y0132764D01*
X0076744Y0132794D01*
X0076828Y0132819D01*
X0076914Y0132841D01*
X0077000Y0132858D01*
X0077088Y0132872D01*
X0077176Y0132882D01*
X0077264Y0132888D01*
X0077352Y0132890D01*
X0077440Y0132888D01*
X0077528Y0132882D01*
X0077616Y0132872D01*
X0077704Y0132858D01*
X0077790Y0132841D01*
X0077876Y0132819D01*
X0077960Y0132794D01*
X0078044Y0132764D01*
X0078126Y0132732D01*
X0078206Y0132695D01*
X0078285Y0132655D01*
X0078362Y0132611D01*
X0078437Y0132564D01*
X0078509Y0132514D01*
X0078580Y0132460D01*
X0078647Y0132404D01*
X0078713Y0132344D01*
X0078775Y0132282D01*
X0078835Y0132216D01*
X0078891Y0132149D01*
X0078945Y0132078D01*
X0078995Y0132006D01*
X0079042Y0131931D01*
X0079086Y0131854D01*
X0079126Y0131775D01*
X0079163Y0131695D01*
X0079195Y0131613D01*
X0079225Y0131529D01*
X0079250Y0131445D01*
X0079272Y0131359D01*
X0079289Y0131273D01*
X0079303Y0131185D01*
X0079313Y0131097D01*
X0079319Y0131009D01*
X0079321Y0130921D01*
X0079319Y0130833D01*
X0079313Y0130745D01*
X0079303Y0130657D01*
X0079289Y0130569D01*
X0079272Y0130483D01*
X0079250Y0130397D01*
X0079225Y0130313D01*
X0079195Y0130229D01*
X0079163Y0130147D01*
X0079126Y0130067D01*
X0079086Y0129988D01*
X0079042Y0129911D01*
X0078995Y0129836D01*
X0078945Y0129764D01*
X0078891Y0129693D01*
X0078835Y0129626D01*
X0078775Y0129560D01*
X0078713Y0129498D01*
X0078647Y0129438D01*
X0078580Y0129382D01*
X0078509Y0129328D01*
X0078437Y0129278D01*
X0078362Y0129231D01*
X0078285Y0129187D01*
X0078206Y0129147D01*
X0078126Y0129110D01*
X0078044Y0129078D01*
X0077960Y0129048D01*
X0077876Y0129023D01*
X0077790Y0129001D01*
X0077704Y0128984D01*
X0077616Y0128970D01*
X0077528Y0128960D01*
X0077440Y0128954D01*
X0077352Y0128952D01*
X0077264Y0128954D01*
X0077176Y0128960D01*
X0077088Y0128970D01*
X0077000Y0128984D01*
X0076914Y0129001D01*
X0076828Y0129023D01*
X0076744Y0129048D01*
X0076660Y0129078D01*
X0076578Y0129110D01*
X0076498Y0129147D01*
X0076419Y0129187D01*
X0076342Y0129231D01*
X0076267Y0129278D01*
X0076195Y0129328D01*
X0076124Y0129382D01*
X0076057Y0129438D01*
X0075991Y0129498D01*
X0075929Y0129560D01*
X0075869Y0129626D01*
X0075813Y0129693D01*
X0075759Y0129764D01*
X0075709Y0129836D01*
X0075662Y0129911D01*
X0075618Y0129988D01*
X0075578Y0130067D01*
X0075541Y0130147D01*
X0075509Y0130229D01*
X0075479Y0130313D01*
X0075454Y0130397D01*
X0075432Y0130483D01*
X0075415Y0130569D01*
X0075401Y0130657D01*
X0075391Y0130745D01*
X0075385Y0130833D01*
X0075383Y0130921D01*
X0043887Y0162417D02*
X0043889Y0162505D01*
X0043895Y0162593D01*
X0043905Y0162681D01*
X0043919Y0162769D01*
X0043936Y0162855D01*
X0043958Y0162941D01*
X0043983Y0163025D01*
X0044013Y0163109D01*
X0044045Y0163191D01*
X0044082Y0163271D01*
X0044122Y0163350D01*
X0044166Y0163427D01*
X0044213Y0163502D01*
X0044263Y0163574D01*
X0044317Y0163645D01*
X0044373Y0163712D01*
X0044433Y0163778D01*
X0044495Y0163840D01*
X0044561Y0163900D01*
X0044628Y0163956D01*
X0044699Y0164010D01*
X0044771Y0164060D01*
X0044846Y0164107D01*
X0044923Y0164151D01*
X0045002Y0164191D01*
X0045082Y0164228D01*
X0045164Y0164260D01*
X0045248Y0164290D01*
X0045332Y0164315D01*
X0045418Y0164337D01*
X0045504Y0164354D01*
X0045592Y0164368D01*
X0045680Y0164378D01*
X0045768Y0164384D01*
X0045856Y0164386D01*
X0045944Y0164384D01*
X0046032Y0164378D01*
X0046120Y0164368D01*
X0046208Y0164354D01*
X0046294Y0164337D01*
X0046380Y0164315D01*
X0046464Y0164290D01*
X0046548Y0164260D01*
X0046630Y0164228D01*
X0046710Y0164191D01*
X0046789Y0164151D01*
X0046866Y0164107D01*
X0046941Y0164060D01*
X0047013Y0164010D01*
X0047084Y0163956D01*
X0047151Y0163900D01*
X0047217Y0163840D01*
X0047279Y0163778D01*
X0047339Y0163712D01*
X0047395Y0163645D01*
X0047449Y0163574D01*
X0047499Y0163502D01*
X0047546Y0163427D01*
X0047590Y0163350D01*
X0047630Y0163271D01*
X0047667Y0163191D01*
X0047699Y0163109D01*
X0047729Y0163025D01*
X0047754Y0162941D01*
X0047776Y0162855D01*
X0047793Y0162769D01*
X0047807Y0162681D01*
X0047817Y0162593D01*
X0047823Y0162505D01*
X0047825Y0162417D01*
X0047823Y0162329D01*
X0047817Y0162241D01*
X0047807Y0162153D01*
X0047793Y0162065D01*
X0047776Y0161979D01*
X0047754Y0161893D01*
X0047729Y0161809D01*
X0047699Y0161725D01*
X0047667Y0161643D01*
X0047630Y0161563D01*
X0047590Y0161484D01*
X0047546Y0161407D01*
X0047499Y0161332D01*
X0047449Y0161260D01*
X0047395Y0161189D01*
X0047339Y0161122D01*
X0047279Y0161056D01*
X0047217Y0160994D01*
X0047151Y0160934D01*
X0047084Y0160878D01*
X0047013Y0160824D01*
X0046941Y0160774D01*
X0046866Y0160727D01*
X0046789Y0160683D01*
X0046710Y0160643D01*
X0046630Y0160606D01*
X0046548Y0160574D01*
X0046464Y0160544D01*
X0046380Y0160519D01*
X0046294Y0160497D01*
X0046208Y0160480D01*
X0046120Y0160466D01*
X0046032Y0160456D01*
X0045944Y0160450D01*
X0045856Y0160448D01*
X0045768Y0160450D01*
X0045680Y0160456D01*
X0045592Y0160466D01*
X0045504Y0160480D01*
X0045418Y0160497D01*
X0045332Y0160519D01*
X0045248Y0160544D01*
X0045164Y0160574D01*
X0045082Y0160606D01*
X0045002Y0160643D01*
X0044923Y0160683D01*
X0044846Y0160727D01*
X0044771Y0160774D01*
X0044699Y0160824D01*
X0044628Y0160878D01*
X0044561Y0160934D01*
X0044495Y0160994D01*
X0044433Y0161056D01*
X0044373Y0161122D01*
X0044317Y0161189D01*
X0044263Y0161260D01*
X0044213Y0161332D01*
X0044166Y0161407D01*
X0044122Y0161484D01*
X0044082Y0161563D01*
X0044045Y0161643D01*
X0044013Y0161725D01*
X0043983Y0161809D01*
X0043958Y0161893D01*
X0043936Y0161979D01*
X0043919Y0162065D01*
X0043905Y0162153D01*
X0043895Y0162241D01*
X0043889Y0162329D01*
X0043887Y0162417D01*
X0075383Y0193913D02*
X0075385Y0194001D01*
X0075391Y0194089D01*
X0075401Y0194177D01*
X0075415Y0194265D01*
X0075432Y0194351D01*
X0075454Y0194437D01*
X0075479Y0194521D01*
X0075509Y0194605D01*
X0075541Y0194687D01*
X0075578Y0194767D01*
X0075618Y0194846D01*
X0075662Y0194923D01*
X0075709Y0194998D01*
X0075759Y0195070D01*
X0075813Y0195141D01*
X0075869Y0195208D01*
X0075929Y0195274D01*
X0075991Y0195336D01*
X0076057Y0195396D01*
X0076124Y0195452D01*
X0076195Y0195506D01*
X0076267Y0195556D01*
X0076342Y0195603D01*
X0076419Y0195647D01*
X0076498Y0195687D01*
X0076578Y0195724D01*
X0076660Y0195756D01*
X0076744Y0195786D01*
X0076828Y0195811D01*
X0076914Y0195833D01*
X0077000Y0195850D01*
X0077088Y0195864D01*
X0077176Y0195874D01*
X0077264Y0195880D01*
X0077352Y0195882D01*
X0077440Y0195880D01*
X0077528Y0195874D01*
X0077616Y0195864D01*
X0077704Y0195850D01*
X0077790Y0195833D01*
X0077876Y0195811D01*
X0077960Y0195786D01*
X0078044Y0195756D01*
X0078126Y0195724D01*
X0078206Y0195687D01*
X0078285Y0195647D01*
X0078362Y0195603D01*
X0078437Y0195556D01*
X0078509Y0195506D01*
X0078580Y0195452D01*
X0078647Y0195396D01*
X0078713Y0195336D01*
X0078775Y0195274D01*
X0078835Y0195208D01*
X0078891Y0195141D01*
X0078945Y0195070D01*
X0078995Y0194998D01*
X0079042Y0194923D01*
X0079086Y0194846D01*
X0079126Y0194767D01*
X0079163Y0194687D01*
X0079195Y0194605D01*
X0079225Y0194521D01*
X0079250Y0194437D01*
X0079272Y0194351D01*
X0079289Y0194265D01*
X0079303Y0194177D01*
X0079313Y0194089D01*
X0079319Y0194001D01*
X0079321Y0193913D01*
X0079319Y0193825D01*
X0079313Y0193737D01*
X0079303Y0193649D01*
X0079289Y0193561D01*
X0079272Y0193475D01*
X0079250Y0193389D01*
X0079225Y0193305D01*
X0079195Y0193221D01*
X0079163Y0193139D01*
X0079126Y0193059D01*
X0079086Y0192980D01*
X0079042Y0192903D01*
X0078995Y0192828D01*
X0078945Y0192756D01*
X0078891Y0192685D01*
X0078835Y0192618D01*
X0078775Y0192552D01*
X0078713Y0192490D01*
X0078647Y0192430D01*
X0078580Y0192374D01*
X0078509Y0192320D01*
X0078437Y0192270D01*
X0078362Y0192223D01*
X0078285Y0192179D01*
X0078206Y0192139D01*
X0078126Y0192102D01*
X0078044Y0192070D01*
X0077960Y0192040D01*
X0077876Y0192015D01*
X0077790Y0191993D01*
X0077704Y0191976D01*
X0077616Y0191962D01*
X0077528Y0191952D01*
X0077440Y0191946D01*
X0077352Y0191944D01*
X0077264Y0191946D01*
X0077176Y0191952D01*
X0077088Y0191962D01*
X0077000Y0191976D01*
X0076914Y0191993D01*
X0076828Y0192015D01*
X0076744Y0192040D01*
X0076660Y0192070D01*
X0076578Y0192102D01*
X0076498Y0192139D01*
X0076419Y0192179D01*
X0076342Y0192223D01*
X0076267Y0192270D01*
X0076195Y0192320D01*
X0076124Y0192374D01*
X0076057Y0192430D01*
X0075991Y0192490D01*
X0075929Y0192552D01*
X0075869Y0192618D01*
X0075813Y0192685D01*
X0075759Y0192756D01*
X0075709Y0192828D01*
X0075662Y0192903D01*
X0075618Y0192980D01*
X0075578Y0193059D01*
X0075541Y0193139D01*
X0075509Y0193221D01*
X0075479Y0193305D01*
X0075454Y0193389D01*
X0075432Y0193475D01*
X0075415Y0193561D01*
X0075401Y0193649D01*
X0075391Y0193737D01*
X0075385Y0193825D01*
X0075383Y0193913D01*
X0106879Y0162417D02*
X0106881Y0162505D01*
X0106887Y0162593D01*
X0106897Y0162681D01*
X0106911Y0162769D01*
X0106928Y0162855D01*
X0106950Y0162941D01*
X0106975Y0163025D01*
X0107005Y0163109D01*
X0107037Y0163191D01*
X0107074Y0163271D01*
X0107114Y0163350D01*
X0107158Y0163427D01*
X0107205Y0163502D01*
X0107255Y0163574D01*
X0107309Y0163645D01*
X0107365Y0163712D01*
X0107425Y0163778D01*
X0107487Y0163840D01*
X0107553Y0163900D01*
X0107620Y0163956D01*
X0107691Y0164010D01*
X0107763Y0164060D01*
X0107838Y0164107D01*
X0107915Y0164151D01*
X0107994Y0164191D01*
X0108074Y0164228D01*
X0108156Y0164260D01*
X0108240Y0164290D01*
X0108324Y0164315D01*
X0108410Y0164337D01*
X0108496Y0164354D01*
X0108584Y0164368D01*
X0108672Y0164378D01*
X0108760Y0164384D01*
X0108848Y0164386D01*
X0108936Y0164384D01*
X0109024Y0164378D01*
X0109112Y0164368D01*
X0109200Y0164354D01*
X0109286Y0164337D01*
X0109372Y0164315D01*
X0109456Y0164290D01*
X0109540Y0164260D01*
X0109622Y0164228D01*
X0109702Y0164191D01*
X0109781Y0164151D01*
X0109858Y0164107D01*
X0109933Y0164060D01*
X0110005Y0164010D01*
X0110076Y0163956D01*
X0110143Y0163900D01*
X0110209Y0163840D01*
X0110271Y0163778D01*
X0110331Y0163712D01*
X0110387Y0163645D01*
X0110441Y0163574D01*
X0110491Y0163502D01*
X0110538Y0163427D01*
X0110582Y0163350D01*
X0110622Y0163271D01*
X0110659Y0163191D01*
X0110691Y0163109D01*
X0110721Y0163025D01*
X0110746Y0162941D01*
X0110768Y0162855D01*
X0110785Y0162769D01*
X0110799Y0162681D01*
X0110809Y0162593D01*
X0110815Y0162505D01*
X0110817Y0162417D01*
X0110815Y0162329D01*
X0110809Y0162241D01*
X0110799Y0162153D01*
X0110785Y0162065D01*
X0110768Y0161979D01*
X0110746Y0161893D01*
X0110721Y0161809D01*
X0110691Y0161725D01*
X0110659Y0161643D01*
X0110622Y0161563D01*
X0110582Y0161484D01*
X0110538Y0161407D01*
X0110491Y0161332D01*
X0110441Y0161260D01*
X0110387Y0161189D01*
X0110331Y0161122D01*
X0110271Y0161056D01*
X0110209Y0160994D01*
X0110143Y0160934D01*
X0110076Y0160878D01*
X0110005Y0160824D01*
X0109933Y0160774D01*
X0109858Y0160727D01*
X0109781Y0160683D01*
X0109702Y0160643D01*
X0109622Y0160606D01*
X0109540Y0160574D01*
X0109456Y0160544D01*
X0109372Y0160519D01*
X0109286Y0160497D01*
X0109200Y0160480D01*
X0109112Y0160466D01*
X0109024Y0160456D01*
X0108936Y0160450D01*
X0108848Y0160448D01*
X0108760Y0160450D01*
X0108672Y0160456D01*
X0108584Y0160466D01*
X0108496Y0160480D01*
X0108410Y0160497D01*
X0108324Y0160519D01*
X0108240Y0160544D01*
X0108156Y0160574D01*
X0108074Y0160606D01*
X0107994Y0160643D01*
X0107915Y0160683D01*
X0107838Y0160727D01*
X0107763Y0160774D01*
X0107691Y0160824D01*
X0107620Y0160878D01*
X0107553Y0160934D01*
X0107487Y0160994D01*
X0107425Y0161056D01*
X0107365Y0161122D01*
X0107309Y0161189D01*
X0107255Y0161260D01*
X0107205Y0161332D01*
X0107158Y0161407D01*
X0107114Y0161484D01*
X0107074Y0161563D01*
X0107037Y0161643D01*
X0107005Y0161725D01*
X0106975Y0161809D01*
X0106950Y0161893D01*
X0106928Y0161979D01*
X0106911Y0162065D01*
X0106897Y0162153D01*
X0106887Y0162241D01*
X0106881Y0162329D01*
X0106879Y0162417D01*
X0141741Y0080173D02*
X0141743Y0080261D01*
X0141749Y0080349D01*
X0141759Y0080437D01*
X0141773Y0080525D01*
X0141790Y0080611D01*
X0141812Y0080697D01*
X0141837Y0080781D01*
X0141867Y0080865D01*
X0141899Y0080947D01*
X0141936Y0081027D01*
X0141976Y0081106D01*
X0142020Y0081183D01*
X0142067Y0081258D01*
X0142117Y0081330D01*
X0142171Y0081401D01*
X0142227Y0081468D01*
X0142287Y0081534D01*
X0142349Y0081596D01*
X0142415Y0081656D01*
X0142482Y0081712D01*
X0142553Y0081766D01*
X0142625Y0081816D01*
X0142700Y0081863D01*
X0142777Y0081907D01*
X0142856Y0081947D01*
X0142936Y0081984D01*
X0143018Y0082016D01*
X0143102Y0082046D01*
X0143186Y0082071D01*
X0143272Y0082093D01*
X0143358Y0082110D01*
X0143446Y0082124D01*
X0143534Y0082134D01*
X0143622Y0082140D01*
X0143710Y0082142D01*
X0143798Y0082140D01*
X0143886Y0082134D01*
X0143974Y0082124D01*
X0144062Y0082110D01*
X0144148Y0082093D01*
X0144234Y0082071D01*
X0144318Y0082046D01*
X0144402Y0082016D01*
X0144484Y0081984D01*
X0144564Y0081947D01*
X0144643Y0081907D01*
X0144720Y0081863D01*
X0144795Y0081816D01*
X0144867Y0081766D01*
X0144938Y0081712D01*
X0145005Y0081656D01*
X0145071Y0081596D01*
X0145133Y0081534D01*
X0145193Y0081468D01*
X0145249Y0081401D01*
X0145303Y0081330D01*
X0145353Y0081258D01*
X0145400Y0081183D01*
X0145444Y0081106D01*
X0145484Y0081027D01*
X0145521Y0080947D01*
X0145553Y0080865D01*
X0145583Y0080781D01*
X0145608Y0080697D01*
X0145630Y0080611D01*
X0145647Y0080525D01*
X0145661Y0080437D01*
X0145671Y0080349D01*
X0145677Y0080261D01*
X0145679Y0080173D01*
X0145677Y0080085D01*
X0145671Y0079997D01*
X0145661Y0079909D01*
X0145647Y0079821D01*
X0145630Y0079735D01*
X0145608Y0079649D01*
X0145583Y0079565D01*
X0145553Y0079481D01*
X0145521Y0079399D01*
X0145484Y0079319D01*
X0145444Y0079240D01*
X0145400Y0079163D01*
X0145353Y0079088D01*
X0145303Y0079016D01*
X0145249Y0078945D01*
X0145193Y0078878D01*
X0145133Y0078812D01*
X0145071Y0078750D01*
X0145005Y0078690D01*
X0144938Y0078634D01*
X0144867Y0078580D01*
X0144795Y0078530D01*
X0144720Y0078483D01*
X0144643Y0078439D01*
X0144564Y0078399D01*
X0144484Y0078362D01*
X0144402Y0078330D01*
X0144318Y0078300D01*
X0144234Y0078275D01*
X0144148Y0078253D01*
X0144062Y0078236D01*
X0143974Y0078222D01*
X0143886Y0078212D01*
X0143798Y0078206D01*
X0143710Y0078204D01*
X0143622Y0078206D01*
X0143534Y0078212D01*
X0143446Y0078222D01*
X0143358Y0078236D01*
X0143272Y0078253D01*
X0143186Y0078275D01*
X0143102Y0078300D01*
X0143018Y0078330D01*
X0142936Y0078362D01*
X0142856Y0078399D01*
X0142777Y0078439D01*
X0142700Y0078483D01*
X0142625Y0078530D01*
X0142553Y0078580D01*
X0142482Y0078634D01*
X0142415Y0078690D01*
X0142349Y0078750D01*
X0142287Y0078812D01*
X0142227Y0078878D01*
X0142171Y0078945D01*
X0142117Y0079016D01*
X0142067Y0079088D01*
X0142020Y0079163D01*
X0141976Y0079240D01*
X0141936Y0079319D01*
X0141899Y0079399D01*
X0141867Y0079481D01*
X0141837Y0079565D01*
X0141812Y0079649D01*
X0141790Y0079735D01*
X0141773Y0079821D01*
X0141759Y0079909D01*
X0141749Y0079997D01*
X0141743Y0080085D01*
X0141741Y0080173D01*
X0162863Y0128205D02*
X0162865Y0128293D01*
X0162871Y0128381D01*
X0162881Y0128469D01*
X0162895Y0128557D01*
X0162912Y0128643D01*
X0162934Y0128729D01*
X0162959Y0128813D01*
X0162989Y0128897D01*
X0163021Y0128979D01*
X0163058Y0129059D01*
X0163098Y0129138D01*
X0163142Y0129215D01*
X0163189Y0129290D01*
X0163239Y0129362D01*
X0163293Y0129433D01*
X0163349Y0129500D01*
X0163409Y0129566D01*
X0163471Y0129628D01*
X0163537Y0129688D01*
X0163604Y0129744D01*
X0163675Y0129798D01*
X0163747Y0129848D01*
X0163822Y0129895D01*
X0163899Y0129939D01*
X0163978Y0129979D01*
X0164058Y0130016D01*
X0164140Y0130048D01*
X0164224Y0130078D01*
X0164308Y0130103D01*
X0164394Y0130125D01*
X0164480Y0130142D01*
X0164568Y0130156D01*
X0164656Y0130166D01*
X0164744Y0130172D01*
X0164832Y0130174D01*
X0164920Y0130172D01*
X0165008Y0130166D01*
X0165096Y0130156D01*
X0165184Y0130142D01*
X0165270Y0130125D01*
X0165356Y0130103D01*
X0165440Y0130078D01*
X0165524Y0130048D01*
X0165606Y0130016D01*
X0165686Y0129979D01*
X0165765Y0129939D01*
X0165842Y0129895D01*
X0165917Y0129848D01*
X0165989Y0129798D01*
X0166060Y0129744D01*
X0166127Y0129688D01*
X0166193Y0129628D01*
X0166255Y0129566D01*
X0166315Y0129500D01*
X0166371Y0129433D01*
X0166425Y0129362D01*
X0166475Y0129290D01*
X0166522Y0129215D01*
X0166566Y0129138D01*
X0166606Y0129059D01*
X0166643Y0128979D01*
X0166675Y0128897D01*
X0166705Y0128813D01*
X0166730Y0128729D01*
X0166752Y0128643D01*
X0166769Y0128557D01*
X0166783Y0128469D01*
X0166793Y0128381D01*
X0166799Y0128293D01*
X0166801Y0128205D01*
X0166799Y0128117D01*
X0166793Y0128029D01*
X0166783Y0127941D01*
X0166769Y0127853D01*
X0166752Y0127767D01*
X0166730Y0127681D01*
X0166705Y0127597D01*
X0166675Y0127513D01*
X0166643Y0127431D01*
X0166606Y0127351D01*
X0166566Y0127272D01*
X0166522Y0127195D01*
X0166475Y0127120D01*
X0166425Y0127048D01*
X0166371Y0126977D01*
X0166315Y0126910D01*
X0166255Y0126844D01*
X0166193Y0126782D01*
X0166127Y0126722D01*
X0166060Y0126666D01*
X0165989Y0126612D01*
X0165917Y0126562D01*
X0165842Y0126515D01*
X0165765Y0126471D01*
X0165686Y0126431D01*
X0165606Y0126394D01*
X0165524Y0126362D01*
X0165440Y0126332D01*
X0165356Y0126307D01*
X0165270Y0126285D01*
X0165184Y0126268D01*
X0165096Y0126254D01*
X0165008Y0126244D01*
X0164920Y0126238D01*
X0164832Y0126236D01*
X0164744Y0126238D01*
X0164656Y0126244D01*
X0164568Y0126254D01*
X0164480Y0126268D01*
X0164394Y0126285D01*
X0164308Y0126307D01*
X0164224Y0126332D01*
X0164140Y0126362D01*
X0164058Y0126394D01*
X0163978Y0126431D01*
X0163899Y0126471D01*
X0163822Y0126515D01*
X0163747Y0126562D01*
X0163675Y0126612D01*
X0163604Y0126666D01*
X0163537Y0126722D01*
X0163471Y0126782D01*
X0163409Y0126844D01*
X0163349Y0126910D01*
X0163293Y0126977D01*
X0163239Y0127048D01*
X0163189Y0127120D01*
X0163142Y0127195D01*
X0163098Y0127272D01*
X0163058Y0127351D01*
X0163021Y0127431D01*
X0162989Y0127513D01*
X0162959Y0127597D01*
X0162934Y0127681D01*
X0162912Y0127767D01*
X0162895Y0127853D01*
X0162881Y0127941D01*
X0162871Y0128029D01*
X0162865Y0128117D01*
X0162863Y0128205D01*
X0187410Y0080173D02*
X0187412Y0080261D01*
X0187418Y0080349D01*
X0187428Y0080437D01*
X0187442Y0080525D01*
X0187459Y0080611D01*
X0187481Y0080697D01*
X0187506Y0080781D01*
X0187536Y0080865D01*
X0187568Y0080947D01*
X0187605Y0081027D01*
X0187645Y0081106D01*
X0187689Y0081183D01*
X0187736Y0081258D01*
X0187786Y0081330D01*
X0187840Y0081401D01*
X0187896Y0081468D01*
X0187956Y0081534D01*
X0188018Y0081596D01*
X0188084Y0081656D01*
X0188151Y0081712D01*
X0188222Y0081766D01*
X0188294Y0081816D01*
X0188369Y0081863D01*
X0188446Y0081907D01*
X0188525Y0081947D01*
X0188605Y0081984D01*
X0188687Y0082016D01*
X0188771Y0082046D01*
X0188855Y0082071D01*
X0188941Y0082093D01*
X0189027Y0082110D01*
X0189115Y0082124D01*
X0189203Y0082134D01*
X0189291Y0082140D01*
X0189379Y0082142D01*
X0189467Y0082140D01*
X0189555Y0082134D01*
X0189643Y0082124D01*
X0189731Y0082110D01*
X0189817Y0082093D01*
X0189903Y0082071D01*
X0189987Y0082046D01*
X0190071Y0082016D01*
X0190153Y0081984D01*
X0190233Y0081947D01*
X0190312Y0081907D01*
X0190389Y0081863D01*
X0190464Y0081816D01*
X0190536Y0081766D01*
X0190607Y0081712D01*
X0190674Y0081656D01*
X0190740Y0081596D01*
X0190802Y0081534D01*
X0190862Y0081468D01*
X0190918Y0081401D01*
X0190972Y0081330D01*
X0191022Y0081258D01*
X0191069Y0081183D01*
X0191113Y0081106D01*
X0191153Y0081027D01*
X0191190Y0080947D01*
X0191222Y0080865D01*
X0191252Y0080781D01*
X0191277Y0080697D01*
X0191299Y0080611D01*
X0191316Y0080525D01*
X0191330Y0080437D01*
X0191340Y0080349D01*
X0191346Y0080261D01*
X0191348Y0080173D01*
X0191346Y0080085D01*
X0191340Y0079997D01*
X0191330Y0079909D01*
X0191316Y0079821D01*
X0191299Y0079735D01*
X0191277Y0079649D01*
X0191252Y0079565D01*
X0191222Y0079481D01*
X0191190Y0079399D01*
X0191153Y0079319D01*
X0191113Y0079240D01*
X0191069Y0079163D01*
X0191022Y0079088D01*
X0190972Y0079016D01*
X0190918Y0078945D01*
X0190862Y0078878D01*
X0190802Y0078812D01*
X0190740Y0078750D01*
X0190674Y0078690D01*
X0190607Y0078634D01*
X0190536Y0078580D01*
X0190464Y0078530D01*
X0190389Y0078483D01*
X0190312Y0078439D01*
X0190233Y0078399D01*
X0190153Y0078362D01*
X0190071Y0078330D01*
X0189987Y0078300D01*
X0189903Y0078275D01*
X0189817Y0078253D01*
X0189731Y0078236D01*
X0189643Y0078222D01*
X0189555Y0078212D01*
X0189467Y0078206D01*
X0189379Y0078204D01*
X0189291Y0078206D01*
X0189203Y0078212D01*
X0189115Y0078222D01*
X0189027Y0078236D01*
X0188941Y0078253D01*
X0188855Y0078275D01*
X0188771Y0078300D01*
X0188687Y0078330D01*
X0188605Y0078362D01*
X0188525Y0078399D01*
X0188446Y0078439D01*
X0188369Y0078483D01*
X0188294Y0078530D01*
X0188222Y0078580D01*
X0188151Y0078634D01*
X0188084Y0078690D01*
X0188018Y0078750D01*
X0187956Y0078812D01*
X0187896Y0078878D01*
X0187840Y0078945D01*
X0187786Y0079016D01*
X0187736Y0079088D01*
X0187689Y0079163D01*
X0187645Y0079240D01*
X0187605Y0079319D01*
X0187568Y0079399D01*
X0187536Y0079481D01*
X0187506Y0079565D01*
X0187481Y0079649D01*
X0187459Y0079735D01*
X0187442Y0079821D01*
X0187428Y0079909D01*
X0187418Y0079997D01*
X0187412Y0080085D01*
X0187410Y0080173D01*
X0180895Y0048638D02*
X0180897Y0048735D01*
X0180903Y0048832D01*
X0180913Y0048928D01*
X0180927Y0049024D01*
X0180945Y0049120D01*
X0180966Y0049214D01*
X0180992Y0049308D01*
X0181021Y0049400D01*
X0181055Y0049491D01*
X0181091Y0049581D01*
X0181132Y0049669D01*
X0181176Y0049755D01*
X0181224Y0049840D01*
X0181275Y0049922D01*
X0181329Y0050003D01*
X0181387Y0050081D01*
X0181448Y0050156D01*
X0181511Y0050229D01*
X0181578Y0050300D01*
X0181648Y0050367D01*
X0181720Y0050432D01*
X0181795Y0050493D01*
X0181873Y0050552D01*
X0181952Y0050607D01*
X0182034Y0050659D01*
X0182118Y0050707D01*
X0182204Y0050752D01*
X0182292Y0050794D01*
X0182381Y0050832D01*
X0182472Y0050866D01*
X0182564Y0050896D01*
X0182657Y0050923D01*
X0182752Y0050945D01*
X0182847Y0050964D01*
X0182943Y0050979D01*
X0183039Y0050990D01*
X0183136Y0050997D01*
X0183233Y0051000D01*
X0183330Y0050999D01*
X0183427Y0050994D01*
X0183523Y0050985D01*
X0183619Y0050972D01*
X0183715Y0050955D01*
X0183810Y0050934D01*
X0183903Y0050910D01*
X0183996Y0050881D01*
X0184088Y0050849D01*
X0184178Y0050813D01*
X0184266Y0050774D01*
X0184353Y0050730D01*
X0184438Y0050684D01*
X0184521Y0050633D01*
X0184602Y0050580D01*
X0184680Y0050523D01*
X0184757Y0050463D01*
X0184830Y0050400D01*
X0184901Y0050334D01*
X0184969Y0050265D01*
X0185035Y0050193D01*
X0185097Y0050119D01*
X0185156Y0050042D01*
X0185212Y0049963D01*
X0185265Y0049881D01*
X0185315Y0049798D01*
X0185360Y0049712D01*
X0185403Y0049625D01*
X0185442Y0049536D01*
X0185477Y0049446D01*
X0185508Y0049354D01*
X0185535Y0049261D01*
X0185559Y0049167D01*
X0185579Y0049072D01*
X0185595Y0048976D01*
X0185607Y0048880D01*
X0185615Y0048783D01*
X0185619Y0048686D01*
X0185619Y0048590D01*
X0185615Y0048493D01*
X0185607Y0048396D01*
X0185595Y0048300D01*
X0185579Y0048204D01*
X0185559Y0048109D01*
X0185535Y0048015D01*
X0185508Y0047922D01*
X0185477Y0047830D01*
X0185442Y0047740D01*
X0185403Y0047651D01*
X0185360Y0047564D01*
X0185315Y0047478D01*
X0185265Y0047395D01*
X0185212Y0047313D01*
X0185156Y0047234D01*
X0185097Y0047157D01*
X0185035Y0047083D01*
X0184969Y0047011D01*
X0184901Y0046942D01*
X0184830Y0046876D01*
X0184757Y0046813D01*
X0184680Y0046753D01*
X0184602Y0046696D01*
X0184521Y0046643D01*
X0184438Y0046592D01*
X0184353Y0046546D01*
X0184266Y0046502D01*
X0184178Y0046463D01*
X0184088Y0046427D01*
X0183996Y0046395D01*
X0183903Y0046366D01*
X0183810Y0046342D01*
X0183715Y0046321D01*
X0183619Y0046304D01*
X0183523Y0046291D01*
X0183427Y0046282D01*
X0183330Y0046277D01*
X0183233Y0046276D01*
X0183136Y0046279D01*
X0183039Y0046286D01*
X0182943Y0046297D01*
X0182847Y0046312D01*
X0182752Y0046331D01*
X0182657Y0046353D01*
X0182564Y0046380D01*
X0182472Y0046410D01*
X0182381Y0046444D01*
X0182292Y0046482D01*
X0182204Y0046524D01*
X0182118Y0046569D01*
X0182034Y0046617D01*
X0181952Y0046669D01*
X0181873Y0046724D01*
X0181795Y0046783D01*
X0181720Y0046844D01*
X0181648Y0046909D01*
X0181578Y0046976D01*
X0181511Y0047047D01*
X0181448Y0047120D01*
X0181387Y0047195D01*
X0181329Y0047273D01*
X0181275Y0047354D01*
X0181224Y0047436D01*
X0181176Y0047521D01*
X0181132Y0047607D01*
X0181091Y0047695D01*
X0181055Y0047785D01*
X0181021Y0047876D01*
X0180992Y0047968D01*
X0180966Y0048062D01*
X0180945Y0048156D01*
X0180927Y0048252D01*
X0180913Y0048348D01*
X0180903Y0048444D01*
X0180897Y0048541D01*
X0180895Y0048638D01*
X0161210Y0028953D02*
X0161212Y0029050D01*
X0161218Y0029147D01*
X0161228Y0029243D01*
X0161242Y0029339D01*
X0161260Y0029435D01*
X0161281Y0029529D01*
X0161307Y0029623D01*
X0161336Y0029715D01*
X0161370Y0029806D01*
X0161406Y0029896D01*
X0161447Y0029984D01*
X0161491Y0030070D01*
X0161539Y0030155D01*
X0161590Y0030237D01*
X0161644Y0030318D01*
X0161702Y0030396D01*
X0161763Y0030471D01*
X0161826Y0030544D01*
X0161893Y0030615D01*
X0161963Y0030682D01*
X0162035Y0030747D01*
X0162110Y0030808D01*
X0162188Y0030867D01*
X0162267Y0030922D01*
X0162349Y0030974D01*
X0162433Y0031022D01*
X0162519Y0031067D01*
X0162607Y0031109D01*
X0162696Y0031147D01*
X0162787Y0031181D01*
X0162879Y0031211D01*
X0162972Y0031238D01*
X0163067Y0031260D01*
X0163162Y0031279D01*
X0163258Y0031294D01*
X0163354Y0031305D01*
X0163451Y0031312D01*
X0163548Y0031315D01*
X0163645Y0031314D01*
X0163742Y0031309D01*
X0163838Y0031300D01*
X0163934Y0031287D01*
X0164030Y0031270D01*
X0164125Y0031249D01*
X0164218Y0031225D01*
X0164311Y0031196D01*
X0164403Y0031164D01*
X0164493Y0031128D01*
X0164581Y0031089D01*
X0164668Y0031045D01*
X0164753Y0030999D01*
X0164836Y0030948D01*
X0164917Y0030895D01*
X0164995Y0030838D01*
X0165072Y0030778D01*
X0165145Y0030715D01*
X0165216Y0030649D01*
X0165284Y0030580D01*
X0165350Y0030508D01*
X0165412Y0030434D01*
X0165471Y0030357D01*
X0165527Y0030278D01*
X0165580Y0030196D01*
X0165630Y0030113D01*
X0165675Y0030027D01*
X0165718Y0029940D01*
X0165757Y0029851D01*
X0165792Y0029761D01*
X0165823Y0029669D01*
X0165850Y0029576D01*
X0165874Y0029482D01*
X0165894Y0029387D01*
X0165910Y0029291D01*
X0165922Y0029195D01*
X0165930Y0029098D01*
X0165934Y0029001D01*
X0165934Y0028905D01*
X0165930Y0028808D01*
X0165922Y0028711D01*
X0165910Y0028615D01*
X0165894Y0028519D01*
X0165874Y0028424D01*
X0165850Y0028330D01*
X0165823Y0028237D01*
X0165792Y0028145D01*
X0165757Y0028055D01*
X0165718Y0027966D01*
X0165675Y0027879D01*
X0165630Y0027793D01*
X0165580Y0027710D01*
X0165527Y0027628D01*
X0165471Y0027549D01*
X0165412Y0027472D01*
X0165350Y0027398D01*
X0165284Y0027326D01*
X0165216Y0027257D01*
X0165145Y0027191D01*
X0165072Y0027128D01*
X0164995Y0027068D01*
X0164917Y0027011D01*
X0164836Y0026958D01*
X0164753Y0026907D01*
X0164668Y0026861D01*
X0164581Y0026817D01*
X0164493Y0026778D01*
X0164403Y0026742D01*
X0164311Y0026710D01*
X0164218Y0026681D01*
X0164125Y0026657D01*
X0164030Y0026636D01*
X0163934Y0026619D01*
X0163838Y0026606D01*
X0163742Y0026597D01*
X0163645Y0026592D01*
X0163548Y0026591D01*
X0163451Y0026594D01*
X0163354Y0026601D01*
X0163258Y0026612D01*
X0163162Y0026627D01*
X0163067Y0026646D01*
X0162972Y0026668D01*
X0162879Y0026695D01*
X0162787Y0026725D01*
X0162696Y0026759D01*
X0162607Y0026797D01*
X0162519Y0026839D01*
X0162433Y0026884D01*
X0162349Y0026932D01*
X0162267Y0026984D01*
X0162188Y0027039D01*
X0162110Y0027098D01*
X0162035Y0027159D01*
X0161963Y0027224D01*
X0161893Y0027291D01*
X0161826Y0027362D01*
X0161763Y0027435D01*
X0161702Y0027510D01*
X0161644Y0027588D01*
X0161590Y0027669D01*
X0161539Y0027751D01*
X0161491Y0027836D01*
X0161447Y0027922D01*
X0161406Y0028010D01*
X0161370Y0028100D01*
X0161336Y0028191D01*
X0161307Y0028283D01*
X0161281Y0028377D01*
X0161260Y0028471D01*
X0161242Y0028567D01*
X0161228Y0028663D01*
X0161218Y0028759D01*
X0161212Y0028856D01*
X0161210Y0028953D01*
X0161210Y0019110D02*
X0161212Y0019207D01*
X0161218Y0019304D01*
X0161228Y0019400D01*
X0161242Y0019496D01*
X0161260Y0019592D01*
X0161281Y0019686D01*
X0161307Y0019780D01*
X0161336Y0019872D01*
X0161370Y0019963D01*
X0161406Y0020053D01*
X0161447Y0020141D01*
X0161491Y0020227D01*
X0161539Y0020312D01*
X0161590Y0020394D01*
X0161644Y0020475D01*
X0161702Y0020553D01*
X0161763Y0020628D01*
X0161826Y0020701D01*
X0161893Y0020772D01*
X0161963Y0020839D01*
X0162035Y0020904D01*
X0162110Y0020965D01*
X0162188Y0021024D01*
X0162267Y0021079D01*
X0162349Y0021131D01*
X0162433Y0021179D01*
X0162519Y0021224D01*
X0162607Y0021266D01*
X0162696Y0021304D01*
X0162787Y0021338D01*
X0162879Y0021368D01*
X0162972Y0021395D01*
X0163067Y0021417D01*
X0163162Y0021436D01*
X0163258Y0021451D01*
X0163354Y0021462D01*
X0163451Y0021469D01*
X0163548Y0021472D01*
X0163645Y0021471D01*
X0163742Y0021466D01*
X0163838Y0021457D01*
X0163934Y0021444D01*
X0164030Y0021427D01*
X0164125Y0021406D01*
X0164218Y0021382D01*
X0164311Y0021353D01*
X0164403Y0021321D01*
X0164493Y0021285D01*
X0164581Y0021246D01*
X0164668Y0021202D01*
X0164753Y0021156D01*
X0164836Y0021105D01*
X0164917Y0021052D01*
X0164995Y0020995D01*
X0165072Y0020935D01*
X0165145Y0020872D01*
X0165216Y0020806D01*
X0165284Y0020737D01*
X0165350Y0020665D01*
X0165412Y0020591D01*
X0165471Y0020514D01*
X0165527Y0020435D01*
X0165580Y0020353D01*
X0165630Y0020270D01*
X0165675Y0020184D01*
X0165718Y0020097D01*
X0165757Y0020008D01*
X0165792Y0019918D01*
X0165823Y0019826D01*
X0165850Y0019733D01*
X0165874Y0019639D01*
X0165894Y0019544D01*
X0165910Y0019448D01*
X0165922Y0019352D01*
X0165930Y0019255D01*
X0165934Y0019158D01*
X0165934Y0019062D01*
X0165930Y0018965D01*
X0165922Y0018868D01*
X0165910Y0018772D01*
X0165894Y0018676D01*
X0165874Y0018581D01*
X0165850Y0018487D01*
X0165823Y0018394D01*
X0165792Y0018302D01*
X0165757Y0018212D01*
X0165718Y0018123D01*
X0165675Y0018036D01*
X0165630Y0017950D01*
X0165580Y0017867D01*
X0165527Y0017785D01*
X0165471Y0017706D01*
X0165412Y0017629D01*
X0165350Y0017555D01*
X0165284Y0017483D01*
X0165216Y0017414D01*
X0165145Y0017348D01*
X0165072Y0017285D01*
X0164995Y0017225D01*
X0164917Y0017168D01*
X0164836Y0017115D01*
X0164753Y0017064D01*
X0164668Y0017018D01*
X0164581Y0016974D01*
X0164493Y0016935D01*
X0164403Y0016899D01*
X0164311Y0016867D01*
X0164218Y0016838D01*
X0164125Y0016814D01*
X0164030Y0016793D01*
X0163934Y0016776D01*
X0163838Y0016763D01*
X0163742Y0016754D01*
X0163645Y0016749D01*
X0163548Y0016748D01*
X0163451Y0016751D01*
X0163354Y0016758D01*
X0163258Y0016769D01*
X0163162Y0016784D01*
X0163067Y0016803D01*
X0162972Y0016825D01*
X0162879Y0016852D01*
X0162787Y0016882D01*
X0162696Y0016916D01*
X0162607Y0016954D01*
X0162519Y0016996D01*
X0162433Y0017041D01*
X0162349Y0017089D01*
X0162267Y0017141D01*
X0162188Y0017196D01*
X0162110Y0017255D01*
X0162035Y0017316D01*
X0161963Y0017381D01*
X0161893Y0017448D01*
X0161826Y0017519D01*
X0161763Y0017592D01*
X0161702Y0017667D01*
X0161644Y0017745D01*
X0161590Y0017826D01*
X0161539Y0017908D01*
X0161491Y0017993D01*
X0161447Y0018079D01*
X0161406Y0018167D01*
X0161370Y0018257D01*
X0161336Y0018348D01*
X0161307Y0018440D01*
X0161281Y0018534D01*
X0161260Y0018628D01*
X0161242Y0018724D01*
X0161228Y0018820D01*
X0161218Y0018916D01*
X0161212Y0019013D01*
X0161210Y0019110D01*
X0200580Y0019110D02*
X0200582Y0019207D01*
X0200588Y0019304D01*
X0200598Y0019400D01*
X0200612Y0019496D01*
X0200630Y0019592D01*
X0200651Y0019686D01*
X0200677Y0019780D01*
X0200706Y0019872D01*
X0200740Y0019963D01*
X0200776Y0020053D01*
X0200817Y0020141D01*
X0200861Y0020227D01*
X0200909Y0020312D01*
X0200960Y0020394D01*
X0201014Y0020475D01*
X0201072Y0020553D01*
X0201133Y0020628D01*
X0201196Y0020701D01*
X0201263Y0020772D01*
X0201333Y0020839D01*
X0201405Y0020904D01*
X0201480Y0020965D01*
X0201558Y0021024D01*
X0201637Y0021079D01*
X0201719Y0021131D01*
X0201803Y0021179D01*
X0201889Y0021224D01*
X0201977Y0021266D01*
X0202066Y0021304D01*
X0202157Y0021338D01*
X0202249Y0021368D01*
X0202342Y0021395D01*
X0202437Y0021417D01*
X0202532Y0021436D01*
X0202628Y0021451D01*
X0202724Y0021462D01*
X0202821Y0021469D01*
X0202918Y0021472D01*
X0203015Y0021471D01*
X0203112Y0021466D01*
X0203208Y0021457D01*
X0203304Y0021444D01*
X0203400Y0021427D01*
X0203495Y0021406D01*
X0203588Y0021382D01*
X0203681Y0021353D01*
X0203773Y0021321D01*
X0203863Y0021285D01*
X0203951Y0021246D01*
X0204038Y0021202D01*
X0204123Y0021156D01*
X0204206Y0021105D01*
X0204287Y0021052D01*
X0204365Y0020995D01*
X0204442Y0020935D01*
X0204515Y0020872D01*
X0204586Y0020806D01*
X0204654Y0020737D01*
X0204720Y0020665D01*
X0204782Y0020591D01*
X0204841Y0020514D01*
X0204897Y0020435D01*
X0204950Y0020353D01*
X0205000Y0020270D01*
X0205045Y0020184D01*
X0205088Y0020097D01*
X0205127Y0020008D01*
X0205162Y0019918D01*
X0205193Y0019826D01*
X0205220Y0019733D01*
X0205244Y0019639D01*
X0205264Y0019544D01*
X0205280Y0019448D01*
X0205292Y0019352D01*
X0205300Y0019255D01*
X0205304Y0019158D01*
X0205304Y0019062D01*
X0205300Y0018965D01*
X0205292Y0018868D01*
X0205280Y0018772D01*
X0205264Y0018676D01*
X0205244Y0018581D01*
X0205220Y0018487D01*
X0205193Y0018394D01*
X0205162Y0018302D01*
X0205127Y0018212D01*
X0205088Y0018123D01*
X0205045Y0018036D01*
X0205000Y0017950D01*
X0204950Y0017867D01*
X0204897Y0017785D01*
X0204841Y0017706D01*
X0204782Y0017629D01*
X0204720Y0017555D01*
X0204654Y0017483D01*
X0204586Y0017414D01*
X0204515Y0017348D01*
X0204442Y0017285D01*
X0204365Y0017225D01*
X0204287Y0017168D01*
X0204206Y0017115D01*
X0204123Y0017064D01*
X0204038Y0017018D01*
X0203951Y0016974D01*
X0203863Y0016935D01*
X0203773Y0016899D01*
X0203681Y0016867D01*
X0203588Y0016838D01*
X0203495Y0016814D01*
X0203400Y0016793D01*
X0203304Y0016776D01*
X0203208Y0016763D01*
X0203112Y0016754D01*
X0203015Y0016749D01*
X0202918Y0016748D01*
X0202821Y0016751D01*
X0202724Y0016758D01*
X0202628Y0016769D01*
X0202532Y0016784D01*
X0202437Y0016803D01*
X0202342Y0016825D01*
X0202249Y0016852D01*
X0202157Y0016882D01*
X0202066Y0016916D01*
X0201977Y0016954D01*
X0201889Y0016996D01*
X0201803Y0017041D01*
X0201719Y0017089D01*
X0201637Y0017141D01*
X0201558Y0017196D01*
X0201480Y0017255D01*
X0201405Y0017316D01*
X0201333Y0017381D01*
X0201263Y0017448D01*
X0201196Y0017519D01*
X0201133Y0017592D01*
X0201072Y0017667D01*
X0201014Y0017745D01*
X0200960Y0017826D01*
X0200909Y0017908D01*
X0200861Y0017993D01*
X0200817Y0018079D01*
X0200776Y0018167D01*
X0200740Y0018257D01*
X0200706Y0018348D01*
X0200677Y0018440D01*
X0200651Y0018534D01*
X0200630Y0018628D01*
X0200612Y0018724D01*
X0200598Y0018820D01*
X0200588Y0018916D01*
X0200582Y0019013D01*
X0200580Y0019110D01*
X0200580Y0028953D02*
X0200582Y0029050D01*
X0200588Y0029147D01*
X0200598Y0029243D01*
X0200612Y0029339D01*
X0200630Y0029435D01*
X0200651Y0029529D01*
X0200677Y0029623D01*
X0200706Y0029715D01*
X0200740Y0029806D01*
X0200776Y0029896D01*
X0200817Y0029984D01*
X0200861Y0030070D01*
X0200909Y0030155D01*
X0200960Y0030237D01*
X0201014Y0030318D01*
X0201072Y0030396D01*
X0201133Y0030471D01*
X0201196Y0030544D01*
X0201263Y0030615D01*
X0201333Y0030682D01*
X0201405Y0030747D01*
X0201480Y0030808D01*
X0201558Y0030867D01*
X0201637Y0030922D01*
X0201719Y0030974D01*
X0201803Y0031022D01*
X0201889Y0031067D01*
X0201977Y0031109D01*
X0202066Y0031147D01*
X0202157Y0031181D01*
X0202249Y0031211D01*
X0202342Y0031238D01*
X0202437Y0031260D01*
X0202532Y0031279D01*
X0202628Y0031294D01*
X0202724Y0031305D01*
X0202821Y0031312D01*
X0202918Y0031315D01*
X0203015Y0031314D01*
X0203112Y0031309D01*
X0203208Y0031300D01*
X0203304Y0031287D01*
X0203400Y0031270D01*
X0203495Y0031249D01*
X0203588Y0031225D01*
X0203681Y0031196D01*
X0203773Y0031164D01*
X0203863Y0031128D01*
X0203951Y0031089D01*
X0204038Y0031045D01*
X0204123Y0030999D01*
X0204206Y0030948D01*
X0204287Y0030895D01*
X0204365Y0030838D01*
X0204442Y0030778D01*
X0204515Y0030715D01*
X0204586Y0030649D01*
X0204654Y0030580D01*
X0204720Y0030508D01*
X0204782Y0030434D01*
X0204841Y0030357D01*
X0204897Y0030278D01*
X0204950Y0030196D01*
X0205000Y0030113D01*
X0205045Y0030027D01*
X0205088Y0029940D01*
X0205127Y0029851D01*
X0205162Y0029761D01*
X0205193Y0029669D01*
X0205220Y0029576D01*
X0205244Y0029482D01*
X0205264Y0029387D01*
X0205280Y0029291D01*
X0205292Y0029195D01*
X0205300Y0029098D01*
X0205304Y0029001D01*
X0205304Y0028905D01*
X0205300Y0028808D01*
X0205292Y0028711D01*
X0205280Y0028615D01*
X0205264Y0028519D01*
X0205244Y0028424D01*
X0205220Y0028330D01*
X0205193Y0028237D01*
X0205162Y0028145D01*
X0205127Y0028055D01*
X0205088Y0027966D01*
X0205045Y0027879D01*
X0205000Y0027793D01*
X0204950Y0027710D01*
X0204897Y0027628D01*
X0204841Y0027549D01*
X0204782Y0027472D01*
X0204720Y0027398D01*
X0204654Y0027326D01*
X0204586Y0027257D01*
X0204515Y0027191D01*
X0204442Y0027128D01*
X0204365Y0027068D01*
X0204287Y0027011D01*
X0204206Y0026958D01*
X0204123Y0026907D01*
X0204038Y0026861D01*
X0203951Y0026817D01*
X0203863Y0026778D01*
X0203773Y0026742D01*
X0203681Y0026710D01*
X0203588Y0026681D01*
X0203495Y0026657D01*
X0203400Y0026636D01*
X0203304Y0026619D01*
X0203208Y0026606D01*
X0203112Y0026597D01*
X0203015Y0026592D01*
X0202918Y0026591D01*
X0202821Y0026594D01*
X0202724Y0026601D01*
X0202628Y0026612D01*
X0202532Y0026627D01*
X0202437Y0026646D01*
X0202342Y0026668D01*
X0202249Y0026695D01*
X0202157Y0026725D01*
X0202066Y0026759D01*
X0201977Y0026797D01*
X0201889Y0026839D01*
X0201803Y0026884D01*
X0201719Y0026932D01*
X0201637Y0026984D01*
X0201558Y0027039D01*
X0201480Y0027098D01*
X0201405Y0027159D01*
X0201333Y0027224D01*
X0201263Y0027291D01*
X0201196Y0027362D01*
X0201133Y0027435D01*
X0201072Y0027510D01*
X0201014Y0027588D01*
X0200960Y0027669D01*
X0200909Y0027751D01*
X0200861Y0027836D01*
X0200817Y0027922D01*
X0200776Y0028010D01*
X0200740Y0028100D01*
X0200706Y0028191D01*
X0200677Y0028283D01*
X0200651Y0028377D01*
X0200630Y0028471D01*
X0200612Y0028567D01*
X0200598Y0028663D01*
X0200588Y0028759D01*
X0200582Y0028856D01*
X0200580Y0028953D01*
X0261288Y0112457D02*
X0261290Y0112545D01*
X0261296Y0112633D01*
X0261306Y0112721D01*
X0261320Y0112809D01*
X0261337Y0112895D01*
X0261359Y0112981D01*
X0261384Y0113065D01*
X0261414Y0113149D01*
X0261446Y0113231D01*
X0261483Y0113311D01*
X0261523Y0113390D01*
X0261567Y0113467D01*
X0261614Y0113542D01*
X0261664Y0113614D01*
X0261718Y0113685D01*
X0261774Y0113752D01*
X0261834Y0113818D01*
X0261896Y0113880D01*
X0261962Y0113940D01*
X0262029Y0113996D01*
X0262100Y0114050D01*
X0262172Y0114100D01*
X0262247Y0114147D01*
X0262324Y0114191D01*
X0262403Y0114231D01*
X0262483Y0114268D01*
X0262565Y0114300D01*
X0262649Y0114330D01*
X0262733Y0114355D01*
X0262819Y0114377D01*
X0262905Y0114394D01*
X0262993Y0114408D01*
X0263081Y0114418D01*
X0263169Y0114424D01*
X0263257Y0114426D01*
X0263345Y0114424D01*
X0263433Y0114418D01*
X0263521Y0114408D01*
X0263609Y0114394D01*
X0263695Y0114377D01*
X0263781Y0114355D01*
X0263865Y0114330D01*
X0263949Y0114300D01*
X0264031Y0114268D01*
X0264111Y0114231D01*
X0264190Y0114191D01*
X0264267Y0114147D01*
X0264342Y0114100D01*
X0264414Y0114050D01*
X0264485Y0113996D01*
X0264552Y0113940D01*
X0264618Y0113880D01*
X0264680Y0113818D01*
X0264740Y0113752D01*
X0264796Y0113685D01*
X0264850Y0113614D01*
X0264900Y0113542D01*
X0264947Y0113467D01*
X0264991Y0113390D01*
X0265031Y0113311D01*
X0265068Y0113231D01*
X0265100Y0113149D01*
X0265130Y0113065D01*
X0265155Y0112981D01*
X0265177Y0112895D01*
X0265194Y0112809D01*
X0265208Y0112721D01*
X0265218Y0112633D01*
X0265224Y0112545D01*
X0265226Y0112457D01*
X0265224Y0112369D01*
X0265218Y0112281D01*
X0265208Y0112193D01*
X0265194Y0112105D01*
X0265177Y0112019D01*
X0265155Y0111933D01*
X0265130Y0111849D01*
X0265100Y0111765D01*
X0265068Y0111683D01*
X0265031Y0111603D01*
X0264991Y0111524D01*
X0264947Y0111447D01*
X0264900Y0111372D01*
X0264850Y0111300D01*
X0264796Y0111229D01*
X0264740Y0111162D01*
X0264680Y0111096D01*
X0264618Y0111034D01*
X0264552Y0110974D01*
X0264485Y0110918D01*
X0264414Y0110864D01*
X0264342Y0110814D01*
X0264267Y0110767D01*
X0264190Y0110723D01*
X0264111Y0110683D01*
X0264031Y0110646D01*
X0263949Y0110614D01*
X0263865Y0110584D01*
X0263781Y0110559D01*
X0263695Y0110537D01*
X0263609Y0110520D01*
X0263521Y0110506D01*
X0263433Y0110496D01*
X0263345Y0110490D01*
X0263257Y0110488D01*
X0263169Y0110490D01*
X0263081Y0110496D01*
X0262993Y0110506D01*
X0262905Y0110520D01*
X0262819Y0110537D01*
X0262733Y0110559D01*
X0262649Y0110584D01*
X0262565Y0110614D01*
X0262483Y0110646D01*
X0262403Y0110683D01*
X0262324Y0110723D01*
X0262247Y0110767D01*
X0262172Y0110814D01*
X0262100Y0110864D01*
X0262029Y0110918D01*
X0261962Y0110974D01*
X0261896Y0111034D01*
X0261834Y0111096D01*
X0261774Y0111162D01*
X0261718Y0111229D01*
X0261664Y0111300D01*
X0261614Y0111372D01*
X0261567Y0111447D01*
X0261523Y0111524D01*
X0261483Y0111603D01*
X0261446Y0111683D01*
X0261414Y0111765D01*
X0261384Y0111849D01*
X0261359Y0111933D01*
X0261337Y0112019D01*
X0261320Y0112105D01*
X0261306Y0112193D01*
X0261296Y0112281D01*
X0261290Y0112369D01*
X0261288Y0112457D01*
X0273296Y0169504D02*
X0273298Y0169592D01*
X0273304Y0169680D01*
X0273314Y0169768D01*
X0273328Y0169856D01*
X0273345Y0169942D01*
X0273367Y0170028D01*
X0273392Y0170112D01*
X0273422Y0170196D01*
X0273454Y0170278D01*
X0273491Y0170358D01*
X0273531Y0170437D01*
X0273575Y0170514D01*
X0273622Y0170589D01*
X0273672Y0170661D01*
X0273726Y0170732D01*
X0273782Y0170799D01*
X0273842Y0170865D01*
X0273904Y0170927D01*
X0273970Y0170987D01*
X0274037Y0171043D01*
X0274108Y0171097D01*
X0274180Y0171147D01*
X0274255Y0171194D01*
X0274332Y0171238D01*
X0274411Y0171278D01*
X0274491Y0171315D01*
X0274573Y0171347D01*
X0274657Y0171377D01*
X0274741Y0171402D01*
X0274827Y0171424D01*
X0274913Y0171441D01*
X0275001Y0171455D01*
X0275089Y0171465D01*
X0275177Y0171471D01*
X0275265Y0171473D01*
X0275353Y0171471D01*
X0275441Y0171465D01*
X0275529Y0171455D01*
X0275617Y0171441D01*
X0275703Y0171424D01*
X0275789Y0171402D01*
X0275873Y0171377D01*
X0275957Y0171347D01*
X0276039Y0171315D01*
X0276119Y0171278D01*
X0276198Y0171238D01*
X0276275Y0171194D01*
X0276350Y0171147D01*
X0276422Y0171097D01*
X0276493Y0171043D01*
X0276560Y0170987D01*
X0276626Y0170927D01*
X0276688Y0170865D01*
X0276748Y0170799D01*
X0276804Y0170732D01*
X0276858Y0170661D01*
X0276908Y0170589D01*
X0276955Y0170514D01*
X0276999Y0170437D01*
X0277039Y0170358D01*
X0277076Y0170278D01*
X0277108Y0170196D01*
X0277138Y0170112D01*
X0277163Y0170028D01*
X0277185Y0169942D01*
X0277202Y0169856D01*
X0277216Y0169768D01*
X0277226Y0169680D01*
X0277232Y0169592D01*
X0277234Y0169504D01*
X0277232Y0169416D01*
X0277226Y0169328D01*
X0277216Y0169240D01*
X0277202Y0169152D01*
X0277185Y0169066D01*
X0277163Y0168980D01*
X0277138Y0168896D01*
X0277108Y0168812D01*
X0277076Y0168730D01*
X0277039Y0168650D01*
X0276999Y0168571D01*
X0276955Y0168494D01*
X0276908Y0168419D01*
X0276858Y0168347D01*
X0276804Y0168276D01*
X0276748Y0168209D01*
X0276688Y0168143D01*
X0276626Y0168081D01*
X0276560Y0168021D01*
X0276493Y0167965D01*
X0276422Y0167911D01*
X0276350Y0167861D01*
X0276275Y0167814D01*
X0276198Y0167770D01*
X0276119Y0167730D01*
X0276039Y0167693D01*
X0275957Y0167661D01*
X0275873Y0167631D01*
X0275789Y0167606D01*
X0275703Y0167584D01*
X0275617Y0167567D01*
X0275529Y0167553D01*
X0275441Y0167543D01*
X0275353Y0167537D01*
X0275265Y0167535D01*
X0275177Y0167537D01*
X0275089Y0167543D01*
X0275001Y0167553D01*
X0274913Y0167567D01*
X0274827Y0167584D01*
X0274741Y0167606D01*
X0274657Y0167631D01*
X0274573Y0167661D01*
X0274491Y0167693D01*
X0274411Y0167730D01*
X0274332Y0167770D01*
X0274255Y0167814D01*
X0274180Y0167861D01*
X0274108Y0167911D01*
X0274037Y0167965D01*
X0273970Y0168021D01*
X0273904Y0168081D01*
X0273842Y0168143D01*
X0273782Y0168209D01*
X0273726Y0168276D01*
X0273672Y0168347D01*
X0273622Y0168419D01*
X0273575Y0168494D01*
X0273531Y0168571D01*
X0273491Y0168650D01*
X0273454Y0168730D01*
X0273422Y0168812D01*
X0273392Y0168896D01*
X0273367Y0168980D01*
X0273345Y0169066D01*
X0273328Y0169152D01*
X0273314Y0169240D01*
X0273304Y0169328D01*
X0273298Y0169416D01*
X0273296Y0169504D01*
X0229792Y0210882D02*
X0229794Y0210970D01*
X0229800Y0211058D01*
X0229810Y0211146D01*
X0229824Y0211234D01*
X0229841Y0211320D01*
X0229863Y0211406D01*
X0229888Y0211490D01*
X0229918Y0211574D01*
X0229950Y0211656D01*
X0229987Y0211736D01*
X0230027Y0211815D01*
X0230071Y0211892D01*
X0230118Y0211967D01*
X0230168Y0212039D01*
X0230222Y0212110D01*
X0230278Y0212177D01*
X0230338Y0212243D01*
X0230400Y0212305D01*
X0230466Y0212365D01*
X0230533Y0212421D01*
X0230604Y0212475D01*
X0230676Y0212525D01*
X0230751Y0212572D01*
X0230828Y0212616D01*
X0230907Y0212656D01*
X0230987Y0212693D01*
X0231069Y0212725D01*
X0231153Y0212755D01*
X0231237Y0212780D01*
X0231323Y0212802D01*
X0231409Y0212819D01*
X0231497Y0212833D01*
X0231585Y0212843D01*
X0231673Y0212849D01*
X0231761Y0212851D01*
X0231849Y0212849D01*
X0231937Y0212843D01*
X0232025Y0212833D01*
X0232113Y0212819D01*
X0232199Y0212802D01*
X0232285Y0212780D01*
X0232369Y0212755D01*
X0232453Y0212725D01*
X0232535Y0212693D01*
X0232615Y0212656D01*
X0232694Y0212616D01*
X0232771Y0212572D01*
X0232846Y0212525D01*
X0232918Y0212475D01*
X0232989Y0212421D01*
X0233056Y0212365D01*
X0233122Y0212305D01*
X0233184Y0212243D01*
X0233244Y0212177D01*
X0233300Y0212110D01*
X0233354Y0212039D01*
X0233404Y0211967D01*
X0233451Y0211892D01*
X0233495Y0211815D01*
X0233535Y0211736D01*
X0233572Y0211656D01*
X0233604Y0211574D01*
X0233634Y0211490D01*
X0233659Y0211406D01*
X0233681Y0211320D01*
X0233698Y0211234D01*
X0233712Y0211146D01*
X0233722Y0211058D01*
X0233728Y0210970D01*
X0233730Y0210882D01*
X0233728Y0210794D01*
X0233722Y0210706D01*
X0233712Y0210618D01*
X0233698Y0210530D01*
X0233681Y0210444D01*
X0233659Y0210358D01*
X0233634Y0210274D01*
X0233604Y0210190D01*
X0233572Y0210108D01*
X0233535Y0210028D01*
X0233495Y0209949D01*
X0233451Y0209872D01*
X0233404Y0209797D01*
X0233354Y0209725D01*
X0233300Y0209654D01*
X0233244Y0209587D01*
X0233184Y0209521D01*
X0233122Y0209459D01*
X0233056Y0209399D01*
X0232989Y0209343D01*
X0232918Y0209289D01*
X0232846Y0209239D01*
X0232771Y0209192D01*
X0232694Y0209148D01*
X0232615Y0209108D01*
X0232535Y0209071D01*
X0232453Y0209039D01*
X0232369Y0209009D01*
X0232285Y0208984D01*
X0232199Y0208962D01*
X0232113Y0208945D01*
X0232025Y0208931D01*
X0231937Y0208921D01*
X0231849Y0208915D01*
X0231761Y0208913D01*
X0231673Y0208915D01*
X0231585Y0208921D01*
X0231497Y0208931D01*
X0231409Y0208945D01*
X0231323Y0208962D01*
X0231237Y0208984D01*
X0231153Y0209009D01*
X0231069Y0209039D01*
X0230987Y0209071D01*
X0230907Y0209108D01*
X0230828Y0209148D01*
X0230751Y0209192D01*
X0230676Y0209239D01*
X0230604Y0209289D01*
X0230533Y0209343D01*
X0230466Y0209399D01*
X0230400Y0209459D01*
X0230338Y0209521D01*
X0230278Y0209587D01*
X0230222Y0209654D01*
X0230168Y0209725D01*
X0230118Y0209797D01*
X0230071Y0209872D01*
X0230027Y0209949D01*
X0229987Y0210028D01*
X0229950Y0210108D01*
X0229918Y0210190D01*
X0229888Y0210274D01*
X0229863Y0210358D01*
X0229841Y0210444D01*
X0229824Y0210530D01*
X0229810Y0210618D01*
X0229800Y0210706D01*
X0229794Y0210794D01*
X0229792Y0210882D01*
X0217981Y0151827D02*
X0217983Y0151915D01*
X0217989Y0152003D01*
X0217999Y0152091D01*
X0218013Y0152179D01*
X0218030Y0152265D01*
X0218052Y0152351D01*
X0218077Y0152435D01*
X0218107Y0152519D01*
X0218139Y0152601D01*
X0218176Y0152681D01*
X0218216Y0152760D01*
X0218260Y0152837D01*
X0218307Y0152912D01*
X0218357Y0152984D01*
X0218411Y0153055D01*
X0218467Y0153122D01*
X0218527Y0153188D01*
X0218589Y0153250D01*
X0218655Y0153310D01*
X0218722Y0153366D01*
X0218793Y0153420D01*
X0218865Y0153470D01*
X0218940Y0153517D01*
X0219017Y0153561D01*
X0219096Y0153601D01*
X0219176Y0153638D01*
X0219258Y0153670D01*
X0219342Y0153700D01*
X0219426Y0153725D01*
X0219512Y0153747D01*
X0219598Y0153764D01*
X0219686Y0153778D01*
X0219774Y0153788D01*
X0219862Y0153794D01*
X0219950Y0153796D01*
X0220038Y0153794D01*
X0220126Y0153788D01*
X0220214Y0153778D01*
X0220302Y0153764D01*
X0220388Y0153747D01*
X0220474Y0153725D01*
X0220558Y0153700D01*
X0220642Y0153670D01*
X0220724Y0153638D01*
X0220804Y0153601D01*
X0220883Y0153561D01*
X0220960Y0153517D01*
X0221035Y0153470D01*
X0221107Y0153420D01*
X0221178Y0153366D01*
X0221245Y0153310D01*
X0221311Y0153250D01*
X0221373Y0153188D01*
X0221433Y0153122D01*
X0221489Y0153055D01*
X0221543Y0152984D01*
X0221593Y0152912D01*
X0221640Y0152837D01*
X0221684Y0152760D01*
X0221724Y0152681D01*
X0221761Y0152601D01*
X0221793Y0152519D01*
X0221823Y0152435D01*
X0221848Y0152351D01*
X0221870Y0152265D01*
X0221887Y0152179D01*
X0221901Y0152091D01*
X0221911Y0152003D01*
X0221917Y0151915D01*
X0221919Y0151827D01*
X0221917Y0151739D01*
X0221911Y0151651D01*
X0221901Y0151563D01*
X0221887Y0151475D01*
X0221870Y0151389D01*
X0221848Y0151303D01*
X0221823Y0151219D01*
X0221793Y0151135D01*
X0221761Y0151053D01*
X0221724Y0150973D01*
X0221684Y0150894D01*
X0221640Y0150817D01*
X0221593Y0150742D01*
X0221543Y0150670D01*
X0221489Y0150599D01*
X0221433Y0150532D01*
X0221373Y0150466D01*
X0221311Y0150404D01*
X0221245Y0150344D01*
X0221178Y0150288D01*
X0221107Y0150234D01*
X0221035Y0150184D01*
X0220960Y0150137D01*
X0220883Y0150093D01*
X0220804Y0150053D01*
X0220724Y0150016D01*
X0220642Y0149984D01*
X0220558Y0149954D01*
X0220474Y0149929D01*
X0220388Y0149907D01*
X0220302Y0149890D01*
X0220214Y0149876D01*
X0220126Y0149866D01*
X0220038Y0149860D01*
X0219950Y0149858D01*
X0219862Y0149860D01*
X0219774Y0149866D01*
X0219686Y0149876D01*
X0219598Y0149890D01*
X0219512Y0149907D01*
X0219426Y0149929D01*
X0219342Y0149954D01*
X0219258Y0149984D01*
X0219176Y0150016D01*
X0219096Y0150053D01*
X0219017Y0150093D01*
X0218940Y0150137D01*
X0218865Y0150184D01*
X0218793Y0150234D01*
X0218722Y0150288D01*
X0218655Y0150344D01*
X0218589Y0150404D01*
X0218527Y0150466D01*
X0218467Y0150532D01*
X0218411Y0150599D01*
X0218357Y0150670D01*
X0218307Y0150742D01*
X0218260Y0150817D01*
X0218216Y0150894D01*
X0218176Y0150973D01*
X0218139Y0151053D01*
X0218107Y0151135D01*
X0218077Y0151219D01*
X0218052Y0151303D01*
X0218030Y0151389D01*
X0218013Y0151475D01*
X0217999Y0151563D01*
X0217989Y0151651D01*
X0217983Y0151739D01*
X0217981Y0151827D01*
X0174674Y0187260D02*
X0174676Y0187348D01*
X0174682Y0187436D01*
X0174692Y0187524D01*
X0174706Y0187612D01*
X0174723Y0187698D01*
X0174745Y0187784D01*
X0174770Y0187868D01*
X0174800Y0187952D01*
X0174832Y0188034D01*
X0174869Y0188114D01*
X0174909Y0188193D01*
X0174953Y0188270D01*
X0175000Y0188345D01*
X0175050Y0188417D01*
X0175104Y0188488D01*
X0175160Y0188555D01*
X0175220Y0188621D01*
X0175282Y0188683D01*
X0175348Y0188743D01*
X0175415Y0188799D01*
X0175486Y0188853D01*
X0175558Y0188903D01*
X0175633Y0188950D01*
X0175710Y0188994D01*
X0175789Y0189034D01*
X0175869Y0189071D01*
X0175951Y0189103D01*
X0176035Y0189133D01*
X0176119Y0189158D01*
X0176205Y0189180D01*
X0176291Y0189197D01*
X0176379Y0189211D01*
X0176467Y0189221D01*
X0176555Y0189227D01*
X0176643Y0189229D01*
X0176731Y0189227D01*
X0176819Y0189221D01*
X0176907Y0189211D01*
X0176995Y0189197D01*
X0177081Y0189180D01*
X0177167Y0189158D01*
X0177251Y0189133D01*
X0177335Y0189103D01*
X0177417Y0189071D01*
X0177497Y0189034D01*
X0177576Y0188994D01*
X0177653Y0188950D01*
X0177728Y0188903D01*
X0177800Y0188853D01*
X0177871Y0188799D01*
X0177938Y0188743D01*
X0178004Y0188683D01*
X0178066Y0188621D01*
X0178126Y0188555D01*
X0178182Y0188488D01*
X0178236Y0188417D01*
X0178286Y0188345D01*
X0178333Y0188270D01*
X0178377Y0188193D01*
X0178417Y0188114D01*
X0178454Y0188034D01*
X0178486Y0187952D01*
X0178516Y0187868D01*
X0178541Y0187784D01*
X0178563Y0187698D01*
X0178580Y0187612D01*
X0178594Y0187524D01*
X0178604Y0187436D01*
X0178610Y0187348D01*
X0178612Y0187260D01*
X0178610Y0187172D01*
X0178604Y0187084D01*
X0178594Y0186996D01*
X0178580Y0186908D01*
X0178563Y0186822D01*
X0178541Y0186736D01*
X0178516Y0186652D01*
X0178486Y0186568D01*
X0178454Y0186486D01*
X0178417Y0186406D01*
X0178377Y0186327D01*
X0178333Y0186250D01*
X0178286Y0186175D01*
X0178236Y0186103D01*
X0178182Y0186032D01*
X0178126Y0185965D01*
X0178066Y0185899D01*
X0178004Y0185837D01*
X0177938Y0185777D01*
X0177871Y0185721D01*
X0177800Y0185667D01*
X0177728Y0185617D01*
X0177653Y0185570D01*
X0177576Y0185526D01*
X0177497Y0185486D01*
X0177417Y0185449D01*
X0177335Y0185417D01*
X0177251Y0185387D01*
X0177167Y0185362D01*
X0177081Y0185340D01*
X0176995Y0185323D01*
X0176907Y0185309D01*
X0176819Y0185299D01*
X0176731Y0185293D01*
X0176643Y0185291D01*
X0176555Y0185293D01*
X0176467Y0185299D01*
X0176379Y0185309D01*
X0176291Y0185323D01*
X0176205Y0185340D01*
X0176119Y0185362D01*
X0176035Y0185387D01*
X0175951Y0185417D01*
X0175869Y0185449D01*
X0175789Y0185486D01*
X0175710Y0185526D01*
X0175633Y0185570D01*
X0175558Y0185617D01*
X0175486Y0185667D01*
X0175415Y0185721D01*
X0175348Y0185777D01*
X0175282Y0185837D01*
X0175220Y0185899D01*
X0175160Y0185965D01*
X0175104Y0186032D01*
X0175050Y0186103D01*
X0175000Y0186175D01*
X0174953Y0186250D01*
X0174909Y0186327D01*
X0174869Y0186406D01*
X0174832Y0186486D01*
X0174800Y0186568D01*
X0174770Y0186652D01*
X0174745Y0186736D01*
X0174723Y0186822D01*
X0174706Y0186908D01*
X0174692Y0186996D01*
X0174682Y0187084D01*
X0174676Y0187172D01*
X0174674Y0187260D01*
X0076761Y0465961D02*
X0076763Y0466045D01*
X0076769Y0466128D01*
X0076779Y0466211D01*
X0076793Y0466294D01*
X0076810Y0466376D01*
X0076832Y0466457D01*
X0076857Y0466536D01*
X0076886Y0466615D01*
X0076919Y0466692D01*
X0076955Y0466767D01*
X0076995Y0466841D01*
X0077038Y0466913D01*
X0077085Y0466982D01*
X0077135Y0467049D01*
X0077188Y0467114D01*
X0077244Y0467176D01*
X0077302Y0467236D01*
X0077364Y0467293D01*
X0077428Y0467346D01*
X0077495Y0467397D01*
X0077564Y0467444D01*
X0077635Y0467489D01*
X0077708Y0467529D01*
X0077783Y0467566D01*
X0077860Y0467600D01*
X0077938Y0467630D01*
X0078017Y0467656D01*
X0078098Y0467679D01*
X0078180Y0467697D01*
X0078262Y0467712D01*
X0078345Y0467723D01*
X0078428Y0467730D01*
X0078512Y0467733D01*
X0078596Y0467732D01*
X0078679Y0467727D01*
X0078763Y0467718D01*
X0078845Y0467705D01*
X0078927Y0467689D01*
X0079008Y0467668D01*
X0079089Y0467644D01*
X0079167Y0467616D01*
X0079245Y0467584D01*
X0079321Y0467548D01*
X0079395Y0467509D01*
X0079467Y0467467D01*
X0079537Y0467421D01*
X0079605Y0467372D01*
X0079670Y0467320D01*
X0079733Y0467265D01*
X0079793Y0467207D01*
X0079851Y0467146D01*
X0079905Y0467082D01*
X0079957Y0467016D01*
X0080005Y0466948D01*
X0080050Y0466877D01*
X0080091Y0466804D01*
X0080130Y0466730D01*
X0080164Y0466654D01*
X0080195Y0466576D01*
X0080222Y0466497D01*
X0080246Y0466416D01*
X0080265Y0466335D01*
X0080281Y0466253D01*
X0080293Y0466170D01*
X0080301Y0466086D01*
X0080305Y0466003D01*
X0080305Y0465919D01*
X0080301Y0465836D01*
X0080293Y0465752D01*
X0080281Y0465669D01*
X0080265Y0465587D01*
X0080246Y0465506D01*
X0080222Y0465425D01*
X0080195Y0465346D01*
X0080164Y0465268D01*
X0080130Y0465192D01*
X0080091Y0465118D01*
X0080050Y0465045D01*
X0080005Y0464974D01*
X0079957Y0464906D01*
X0079905Y0464840D01*
X0079851Y0464776D01*
X0079793Y0464715D01*
X0079733Y0464657D01*
X0079670Y0464602D01*
X0079605Y0464550D01*
X0079537Y0464501D01*
X0079467Y0464455D01*
X0079395Y0464413D01*
X0079321Y0464374D01*
X0079245Y0464338D01*
X0079167Y0464306D01*
X0079089Y0464278D01*
X0079008Y0464254D01*
X0078927Y0464233D01*
X0078845Y0464217D01*
X0078763Y0464204D01*
X0078679Y0464195D01*
X0078596Y0464190D01*
X0078512Y0464189D01*
X0078428Y0464192D01*
X0078345Y0464199D01*
X0078262Y0464210D01*
X0078180Y0464225D01*
X0078098Y0464243D01*
X0078017Y0464266D01*
X0077938Y0464292D01*
X0077860Y0464322D01*
X0077783Y0464356D01*
X0077708Y0464393D01*
X0077635Y0464433D01*
X0077564Y0464478D01*
X0077495Y0464525D01*
X0077428Y0464576D01*
X0077364Y0464629D01*
X0077302Y0464686D01*
X0077244Y0464746D01*
X0077188Y0464808D01*
X0077135Y0464873D01*
X0077085Y0464940D01*
X0077038Y0465009D01*
X0076995Y0465081D01*
X0076955Y0465155D01*
X0076919Y0465230D01*
X0076886Y0465307D01*
X0076857Y0465386D01*
X0076832Y0465465D01*
X0076810Y0465546D01*
X0076793Y0465628D01*
X0076779Y0465711D01*
X0076769Y0465794D01*
X0076763Y0465877D01*
X0076761Y0465961D01*
X0064950Y0465961D02*
X0064952Y0466045D01*
X0064958Y0466128D01*
X0064968Y0466211D01*
X0064982Y0466294D01*
X0064999Y0466376D01*
X0065021Y0466457D01*
X0065046Y0466536D01*
X0065075Y0466615D01*
X0065108Y0466692D01*
X0065144Y0466767D01*
X0065184Y0466841D01*
X0065227Y0466913D01*
X0065274Y0466982D01*
X0065324Y0467049D01*
X0065377Y0467114D01*
X0065433Y0467176D01*
X0065491Y0467236D01*
X0065553Y0467293D01*
X0065617Y0467346D01*
X0065684Y0467397D01*
X0065753Y0467444D01*
X0065824Y0467489D01*
X0065897Y0467529D01*
X0065972Y0467566D01*
X0066049Y0467600D01*
X0066127Y0467630D01*
X0066206Y0467656D01*
X0066287Y0467679D01*
X0066369Y0467697D01*
X0066451Y0467712D01*
X0066534Y0467723D01*
X0066617Y0467730D01*
X0066701Y0467733D01*
X0066785Y0467732D01*
X0066868Y0467727D01*
X0066952Y0467718D01*
X0067034Y0467705D01*
X0067116Y0467689D01*
X0067197Y0467668D01*
X0067278Y0467644D01*
X0067356Y0467616D01*
X0067434Y0467584D01*
X0067510Y0467548D01*
X0067584Y0467509D01*
X0067656Y0467467D01*
X0067726Y0467421D01*
X0067794Y0467372D01*
X0067859Y0467320D01*
X0067922Y0467265D01*
X0067982Y0467207D01*
X0068040Y0467146D01*
X0068094Y0467082D01*
X0068146Y0467016D01*
X0068194Y0466948D01*
X0068239Y0466877D01*
X0068280Y0466804D01*
X0068319Y0466730D01*
X0068353Y0466654D01*
X0068384Y0466576D01*
X0068411Y0466497D01*
X0068435Y0466416D01*
X0068454Y0466335D01*
X0068470Y0466253D01*
X0068482Y0466170D01*
X0068490Y0466086D01*
X0068494Y0466003D01*
X0068494Y0465919D01*
X0068490Y0465836D01*
X0068482Y0465752D01*
X0068470Y0465669D01*
X0068454Y0465587D01*
X0068435Y0465506D01*
X0068411Y0465425D01*
X0068384Y0465346D01*
X0068353Y0465268D01*
X0068319Y0465192D01*
X0068280Y0465118D01*
X0068239Y0465045D01*
X0068194Y0464974D01*
X0068146Y0464906D01*
X0068094Y0464840D01*
X0068040Y0464776D01*
X0067982Y0464715D01*
X0067922Y0464657D01*
X0067859Y0464602D01*
X0067794Y0464550D01*
X0067726Y0464501D01*
X0067656Y0464455D01*
X0067584Y0464413D01*
X0067510Y0464374D01*
X0067434Y0464338D01*
X0067356Y0464306D01*
X0067278Y0464278D01*
X0067197Y0464254D01*
X0067116Y0464233D01*
X0067034Y0464217D01*
X0066952Y0464204D01*
X0066868Y0464195D01*
X0066785Y0464190D01*
X0066701Y0464189D01*
X0066617Y0464192D01*
X0066534Y0464199D01*
X0066451Y0464210D01*
X0066369Y0464225D01*
X0066287Y0464243D01*
X0066206Y0464266D01*
X0066127Y0464292D01*
X0066049Y0464322D01*
X0065972Y0464356D01*
X0065897Y0464393D01*
X0065824Y0464433D01*
X0065753Y0464478D01*
X0065684Y0464525D01*
X0065617Y0464576D01*
X0065553Y0464629D01*
X0065491Y0464686D01*
X0065433Y0464746D01*
X0065377Y0464808D01*
X0065324Y0464873D01*
X0065274Y0464940D01*
X0065227Y0465009D01*
X0065184Y0465081D01*
X0065144Y0465155D01*
X0065108Y0465230D01*
X0065075Y0465307D01*
X0065046Y0465386D01*
X0065021Y0465465D01*
X0064999Y0465546D01*
X0064982Y0465628D01*
X0064968Y0465711D01*
X0064958Y0465794D01*
X0064952Y0465877D01*
X0064950Y0465961D01*
D11*
X0031683Y0441551D02*
X0031685Y0441694D01*
X0031691Y0441837D01*
X0031701Y0441979D01*
X0031715Y0442121D01*
X0031733Y0442263D01*
X0031755Y0442405D01*
X0031780Y0442545D01*
X0031810Y0442685D01*
X0031844Y0442824D01*
X0031881Y0442962D01*
X0031923Y0443099D01*
X0031968Y0443234D01*
X0032017Y0443368D01*
X0032069Y0443501D01*
X0032125Y0443633D01*
X0032185Y0443762D01*
X0032249Y0443890D01*
X0032316Y0444017D01*
X0032387Y0444141D01*
X0032461Y0444263D01*
X0032538Y0444383D01*
X0032619Y0444501D01*
X0032703Y0444617D01*
X0032790Y0444730D01*
X0032880Y0444841D01*
X0032974Y0444949D01*
X0033070Y0445055D01*
X0033169Y0445157D01*
X0033272Y0445257D01*
X0033376Y0445354D01*
X0033484Y0445449D01*
X0033594Y0445540D01*
X0033707Y0445628D01*
X0033822Y0445712D01*
X0033939Y0445794D01*
X0034059Y0445872D01*
X0034180Y0445947D01*
X0034304Y0446019D01*
X0034430Y0446087D01*
X0034557Y0446151D01*
X0034687Y0446212D01*
X0034818Y0446269D01*
X0034950Y0446323D01*
X0035084Y0446372D01*
X0035219Y0446419D01*
X0035356Y0446461D01*
X0035494Y0446499D01*
X0035632Y0446534D01*
X0035772Y0446564D01*
X0035912Y0446591D01*
X0036053Y0446614D01*
X0036195Y0446633D01*
X0036337Y0446648D01*
X0036480Y0446659D01*
X0036622Y0446666D01*
X0036765Y0446669D01*
X0036908Y0446668D01*
X0037051Y0446663D01*
X0037194Y0446654D01*
X0037336Y0446641D01*
X0037478Y0446624D01*
X0037619Y0446603D01*
X0037760Y0446578D01*
X0037900Y0446550D01*
X0038039Y0446517D01*
X0038177Y0446480D01*
X0038314Y0446440D01*
X0038450Y0446396D01*
X0038585Y0446348D01*
X0038718Y0446296D01*
X0038850Y0446241D01*
X0038980Y0446182D01*
X0039109Y0446119D01*
X0039235Y0446053D01*
X0039360Y0445983D01*
X0039483Y0445910D01*
X0039603Y0445834D01*
X0039722Y0445754D01*
X0039838Y0445670D01*
X0039952Y0445584D01*
X0040063Y0445494D01*
X0040172Y0445402D01*
X0040278Y0445306D01*
X0040382Y0445208D01*
X0040483Y0445106D01*
X0040580Y0445002D01*
X0040675Y0444895D01*
X0040767Y0444786D01*
X0040856Y0444674D01*
X0040942Y0444559D01*
X0041024Y0444443D01*
X0041103Y0444323D01*
X0041179Y0444202D01*
X0041251Y0444079D01*
X0041320Y0443954D01*
X0041385Y0443827D01*
X0041447Y0443698D01*
X0041505Y0443567D01*
X0041560Y0443435D01*
X0041610Y0443301D01*
X0041657Y0443166D01*
X0041701Y0443030D01*
X0041740Y0442893D01*
X0041775Y0442754D01*
X0041807Y0442615D01*
X0041835Y0442475D01*
X0041859Y0442334D01*
X0041879Y0442192D01*
X0041895Y0442050D01*
X0041907Y0441908D01*
X0041915Y0441765D01*
X0041919Y0441622D01*
X0041919Y0441480D01*
X0041915Y0441337D01*
X0041907Y0441194D01*
X0041895Y0441052D01*
X0041879Y0440910D01*
X0041859Y0440768D01*
X0041835Y0440627D01*
X0041807Y0440487D01*
X0041775Y0440348D01*
X0041740Y0440209D01*
X0041701Y0440072D01*
X0041657Y0439936D01*
X0041610Y0439801D01*
X0041560Y0439667D01*
X0041505Y0439535D01*
X0041447Y0439404D01*
X0041385Y0439275D01*
X0041320Y0439148D01*
X0041251Y0439023D01*
X0041179Y0438900D01*
X0041103Y0438779D01*
X0041024Y0438659D01*
X0040942Y0438543D01*
X0040856Y0438428D01*
X0040767Y0438316D01*
X0040675Y0438207D01*
X0040580Y0438100D01*
X0040483Y0437996D01*
X0040382Y0437894D01*
X0040278Y0437796D01*
X0040172Y0437700D01*
X0040063Y0437608D01*
X0039952Y0437518D01*
X0039838Y0437432D01*
X0039722Y0437348D01*
X0039603Y0437268D01*
X0039483Y0437192D01*
X0039360Y0437119D01*
X0039235Y0437049D01*
X0039109Y0436983D01*
X0038980Y0436920D01*
X0038850Y0436861D01*
X0038718Y0436806D01*
X0038585Y0436754D01*
X0038450Y0436706D01*
X0038314Y0436662D01*
X0038177Y0436622D01*
X0038039Y0436585D01*
X0037900Y0436552D01*
X0037760Y0436524D01*
X0037619Y0436499D01*
X0037478Y0436478D01*
X0037336Y0436461D01*
X0037194Y0436448D01*
X0037051Y0436439D01*
X0036908Y0436434D01*
X0036765Y0436433D01*
X0036622Y0436436D01*
X0036480Y0436443D01*
X0036337Y0436454D01*
X0036195Y0436469D01*
X0036053Y0436488D01*
X0035912Y0436511D01*
X0035772Y0436538D01*
X0035632Y0436568D01*
X0035494Y0436603D01*
X0035356Y0436641D01*
X0035219Y0436683D01*
X0035084Y0436730D01*
X0034950Y0436779D01*
X0034818Y0436833D01*
X0034687Y0436890D01*
X0034557Y0436951D01*
X0034430Y0437015D01*
X0034304Y0437083D01*
X0034180Y0437155D01*
X0034059Y0437230D01*
X0033939Y0437308D01*
X0033822Y0437390D01*
X0033707Y0437474D01*
X0033594Y0437562D01*
X0033484Y0437653D01*
X0033376Y0437748D01*
X0033272Y0437845D01*
X0033169Y0437945D01*
X0033070Y0438047D01*
X0032974Y0438153D01*
X0032880Y0438261D01*
X0032790Y0438372D01*
X0032703Y0438485D01*
X0032619Y0438601D01*
X0032538Y0438719D01*
X0032461Y0438839D01*
X0032387Y0438961D01*
X0032316Y0439085D01*
X0032249Y0439212D01*
X0032185Y0439340D01*
X0032125Y0439469D01*
X0032069Y0439601D01*
X0032017Y0439734D01*
X0031968Y0439868D01*
X0031923Y0440003D01*
X0031881Y0440140D01*
X0031844Y0440278D01*
X0031810Y0440417D01*
X0031780Y0440557D01*
X0031755Y0440697D01*
X0031733Y0440839D01*
X0031715Y0440981D01*
X0031701Y0441123D01*
X0031691Y0441265D01*
X0031685Y0441408D01*
X0031683Y0441551D01*
X0138769Y0149425D02*
X0138771Y0149568D01*
X0138777Y0149711D01*
X0138787Y0149853D01*
X0138801Y0149995D01*
X0138819Y0150137D01*
X0138841Y0150279D01*
X0138866Y0150419D01*
X0138896Y0150559D01*
X0138930Y0150698D01*
X0138967Y0150836D01*
X0139009Y0150973D01*
X0139054Y0151108D01*
X0139103Y0151242D01*
X0139155Y0151375D01*
X0139211Y0151507D01*
X0139271Y0151636D01*
X0139335Y0151764D01*
X0139402Y0151891D01*
X0139473Y0152015D01*
X0139547Y0152137D01*
X0139624Y0152257D01*
X0139705Y0152375D01*
X0139789Y0152491D01*
X0139876Y0152604D01*
X0139966Y0152715D01*
X0140060Y0152823D01*
X0140156Y0152929D01*
X0140255Y0153031D01*
X0140358Y0153131D01*
X0140462Y0153228D01*
X0140570Y0153323D01*
X0140680Y0153414D01*
X0140793Y0153502D01*
X0140908Y0153586D01*
X0141025Y0153668D01*
X0141145Y0153746D01*
X0141266Y0153821D01*
X0141390Y0153893D01*
X0141516Y0153961D01*
X0141643Y0154025D01*
X0141773Y0154086D01*
X0141904Y0154143D01*
X0142036Y0154197D01*
X0142170Y0154246D01*
X0142305Y0154293D01*
X0142442Y0154335D01*
X0142580Y0154373D01*
X0142718Y0154408D01*
X0142858Y0154438D01*
X0142998Y0154465D01*
X0143139Y0154488D01*
X0143281Y0154507D01*
X0143423Y0154522D01*
X0143566Y0154533D01*
X0143708Y0154540D01*
X0143851Y0154543D01*
X0143994Y0154542D01*
X0144137Y0154537D01*
X0144280Y0154528D01*
X0144422Y0154515D01*
X0144564Y0154498D01*
X0144705Y0154477D01*
X0144846Y0154452D01*
X0144986Y0154424D01*
X0145125Y0154391D01*
X0145263Y0154354D01*
X0145400Y0154314D01*
X0145536Y0154270D01*
X0145671Y0154222D01*
X0145804Y0154170D01*
X0145936Y0154115D01*
X0146066Y0154056D01*
X0146195Y0153993D01*
X0146321Y0153927D01*
X0146446Y0153857D01*
X0146569Y0153784D01*
X0146689Y0153708D01*
X0146808Y0153628D01*
X0146924Y0153544D01*
X0147038Y0153458D01*
X0147149Y0153368D01*
X0147258Y0153276D01*
X0147364Y0153180D01*
X0147468Y0153082D01*
X0147569Y0152980D01*
X0147666Y0152876D01*
X0147761Y0152769D01*
X0147853Y0152660D01*
X0147942Y0152548D01*
X0148028Y0152433D01*
X0148110Y0152317D01*
X0148189Y0152197D01*
X0148265Y0152076D01*
X0148337Y0151953D01*
X0148406Y0151828D01*
X0148471Y0151701D01*
X0148533Y0151572D01*
X0148591Y0151441D01*
X0148646Y0151309D01*
X0148696Y0151175D01*
X0148743Y0151040D01*
X0148787Y0150904D01*
X0148826Y0150767D01*
X0148861Y0150628D01*
X0148893Y0150489D01*
X0148921Y0150349D01*
X0148945Y0150208D01*
X0148965Y0150066D01*
X0148981Y0149924D01*
X0148993Y0149782D01*
X0149001Y0149639D01*
X0149005Y0149496D01*
X0149005Y0149354D01*
X0149001Y0149211D01*
X0148993Y0149068D01*
X0148981Y0148926D01*
X0148965Y0148784D01*
X0148945Y0148642D01*
X0148921Y0148501D01*
X0148893Y0148361D01*
X0148861Y0148222D01*
X0148826Y0148083D01*
X0148787Y0147946D01*
X0148743Y0147810D01*
X0148696Y0147675D01*
X0148646Y0147541D01*
X0148591Y0147409D01*
X0148533Y0147278D01*
X0148471Y0147149D01*
X0148406Y0147022D01*
X0148337Y0146897D01*
X0148265Y0146774D01*
X0148189Y0146653D01*
X0148110Y0146533D01*
X0148028Y0146417D01*
X0147942Y0146302D01*
X0147853Y0146190D01*
X0147761Y0146081D01*
X0147666Y0145974D01*
X0147569Y0145870D01*
X0147468Y0145768D01*
X0147364Y0145670D01*
X0147258Y0145574D01*
X0147149Y0145482D01*
X0147038Y0145392D01*
X0146924Y0145306D01*
X0146808Y0145222D01*
X0146689Y0145142D01*
X0146569Y0145066D01*
X0146446Y0144993D01*
X0146321Y0144923D01*
X0146195Y0144857D01*
X0146066Y0144794D01*
X0145936Y0144735D01*
X0145804Y0144680D01*
X0145671Y0144628D01*
X0145536Y0144580D01*
X0145400Y0144536D01*
X0145263Y0144496D01*
X0145125Y0144459D01*
X0144986Y0144426D01*
X0144846Y0144398D01*
X0144705Y0144373D01*
X0144564Y0144352D01*
X0144422Y0144335D01*
X0144280Y0144322D01*
X0144137Y0144313D01*
X0143994Y0144308D01*
X0143851Y0144307D01*
X0143708Y0144310D01*
X0143566Y0144317D01*
X0143423Y0144328D01*
X0143281Y0144343D01*
X0143139Y0144362D01*
X0142998Y0144385D01*
X0142858Y0144412D01*
X0142718Y0144442D01*
X0142580Y0144477D01*
X0142442Y0144515D01*
X0142305Y0144557D01*
X0142170Y0144604D01*
X0142036Y0144653D01*
X0141904Y0144707D01*
X0141773Y0144764D01*
X0141643Y0144825D01*
X0141516Y0144889D01*
X0141390Y0144957D01*
X0141266Y0145029D01*
X0141145Y0145104D01*
X0141025Y0145182D01*
X0140908Y0145264D01*
X0140793Y0145348D01*
X0140680Y0145436D01*
X0140570Y0145527D01*
X0140462Y0145622D01*
X0140358Y0145719D01*
X0140255Y0145819D01*
X0140156Y0145921D01*
X0140060Y0146027D01*
X0139966Y0146135D01*
X0139876Y0146246D01*
X0139789Y0146359D01*
X0139705Y0146475D01*
X0139624Y0146593D01*
X0139547Y0146713D01*
X0139473Y0146835D01*
X0139402Y0146959D01*
X0139335Y0147086D01*
X0139271Y0147214D01*
X0139211Y0147343D01*
X0139155Y0147475D01*
X0139103Y0147608D01*
X0139054Y0147742D01*
X0139009Y0147877D01*
X0138967Y0148014D01*
X0138930Y0148152D01*
X0138896Y0148291D01*
X0138866Y0148431D01*
X0138841Y0148571D01*
X0138819Y0148713D01*
X0138801Y0148855D01*
X0138787Y0148997D01*
X0138777Y0149139D01*
X0138771Y0149282D01*
X0138769Y0149425D01*
X0117509Y0124228D02*
X0117511Y0124371D01*
X0117517Y0124514D01*
X0117527Y0124656D01*
X0117541Y0124798D01*
X0117559Y0124940D01*
X0117581Y0125082D01*
X0117606Y0125222D01*
X0117636Y0125362D01*
X0117670Y0125501D01*
X0117707Y0125639D01*
X0117749Y0125776D01*
X0117794Y0125911D01*
X0117843Y0126045D01*
X0117895Y0126178D01*
X0117951Y0126310D01*
X0118011Y0126439D01*
X0118075Y0126567D01*
X0118142Y0126694D01*
X0118213Y0126818D01*
X0118287Y0126940D01*
X0118364Y0127060D01*
X0118445Y0127178D01*
X0118529Y0127294D01*
X0118616Y0127407D01*
X0118706Y0127518D01*
X0118800Y0127626D01*
X0118896Y0127732D01*
X0118995Y0127834D01*
X0119098Y0127934D01*
X0119202Y0128031D01*
X0119310Y0128126D01*
X0119420Y0128217D01*
X0119533Y0128305D01*
X0119648Y0128389D01*
X0119765Y0128471D01*
X0119885Y0128549D01*
X0120006Y0128624D01*
X0120130Y0128696D01*
X0120256Y0128764D01*
X0120383Y0128828D01*
X0120513Y0128889D01*
X0120644Y0128946D01*
X0120776Y0129000D01*
X0120910Y0129049D01*
X0121045Y0129096D01*
X0121182Y0129138D01*
X0121320Y0129176D01*
X0121458Y0129211D01*
X0121598Y0129241D01*
X0121738Y0129268D01*
X0121879Y0129291D01*
X0122021Y0129310D01*
X0122163Y0129325D01*
X0122306Y0129336D01*
X0122448Y0129343D01*
X0122591Y0129346D01*
X0122734Y0129345D01*
X0122877Y0129340D01*
X0123020Y0129331D01*
X0123162Y0129318D01*
X0123304Y0129301D01*
X0123445Y0129280D01*
X0123586Y0129255D01*
X0123726Y0129227D01*
X0123865Y0129194D01*
X0124003Y0129157D01*
X0124140Y0129117D01*
X0124276Y0129073D01*
X0124411Y0129025D01*
X0124544Y0128973D01*
X0124676Y0128918D01*
X0124806Y0128859D01*
X0124935Y0128796D01*
X0125061Y0128730D01*
X0125186Y0128660D01*
X0125309Y0128587D01*
X0125429Y0128511D01*
X0125548Y0128431D01*
X0125664Y0128347D01*
X0125778Y0128261D01*
X0125889Y0128171D01*
X0125998Y0128079D01*
X0126104Y0127983D01*
X0126208Y0127885D01*
X0126309Y0127783D01*
X0126406Y0127679D01*
X0126501Y0127572D01*
X0126593Y0127463D01*
X0126682Y0127351D01*
X0126768Y0127236D01*
X0126850Y0127120D01*
X0126929Y0127000D01*
X0127005Y0126879D01*
X0127077Y0126756D01*
X0127146Y0126631D01*
X0127211Y0126504D01*
X0127273Y0126375D01*
X0127331Y0126244D01*
X0127386Y0126112D01*
X0127436Y0125978D01*
X0127483Y0125843D01*
X0127527Y0125707D01*
X0127566Y0125570D01*
X0127601Y0125431D01*
X0127633Y0125292D01*
X0127661Y0125152D01*
X0127685Y0125011D01*
X0127705Y0124869D01*
X0127721Y0124727D01*
X0127733Y0124585D01*
X0127741Y0124442D01*
X0127745Y0124299D01*
X0127745Y0124157D01*
X0127741Y0124014D01*
X0127733Y0123871D01*
X0127721Y0123729D01*
X0127705Y0123587D01*
X0127685Y0123445D01*
X0127661Y0123304D01*
X0127633Y0123164D01*
X0127601Y0123025D01*
X0127566Y0122886D01*
X0127527Y0122749D01*
X0127483Y0122613D01*
X0127436Y0122478D01*
X0127386Y0122344D01*
X0127331Y0122212D01*
X0127273Y0122081D01*
X0127211Y0121952D01*
X0127146Y0121825D01*
X0127077Y0121700D01*
X0127005Y0121577D01*
X0126929Y0121456D01*
X0126850Y0121336D01*
X0126768Y0121220D01*
X0126682Y0121105D01*
X0126593Y0120993D01*
X0126501Y0120884D01*
X0126406Y0120777D01*
X0126309Y0120673D01*
X0126208Y0120571D01*
X0126104Y0120473D01*
X0125998Y0120377D01*
X0125889Y0120285D01*
X0125778Y0120195D01*
X0125664Y0120109D01*
X0125548Y0120025D01*
X0125429Y0119945D01*
X0125309Y0119869D01*
X0125186Y0119796D01*
X0125061Y0119726D01*
X0124935Y0119660D01*
X0124806Y0119597D01*
X0124676Y0119538D01*
X0124544Y0119483D01*
X0124411Y0119431D01*
X0124276Y0119383D01*
X0124140Y0119339D01*
X0124003Y0119299D01*
X0123865Y0119262D01*
X0123726Y0119229D01*
X0123586Y0119201D01*
X0123445Y0119176D01*
X0123304Y0119155D01*
X0123162Y0119138D01*
X0123020Y0119125D01*
X0122877Y0119116D01*
X0122734Y0119111D01*
X0122591Y0119110D01*
X0122448Y0119113D01*
X0122306Y0119120D01*
X0122163Y0119131D01*
X0122021Y0119146D01*
X0121879Y0119165D01*
X0121738Y0119188D01*
X0121598Y0119215D01*
X0121458Y0119245D01*
X0121320Y0119280D01*
X0121182Y0119318D01*
X0121045Y0119360D01*
X0120910Y0119407D01*
X0120776Y0119456D01*
X0120644Y0119510D01*
X0120513Y0119567D01*
X0120383Y0119628D01*
X0120256Y0119692D01*
X0120130Y0119760D01*
X0120006Y0119832D01*
X0119885Y0119907D01*
X0119765Y0119985D01*
X0119648Y0120067D01*
X0119533Y0120151D01*
X0119420Y0120239D01*
X0119310Y0120330D01*
X0119202Y0120425D01*
X0119098Y0120522D01*
X0118995Y0120622D01*
X0118896Y0120724D01*
X0118800Y0120830D01*
X0118706Y0120938D01*
X0118616Y0121049D01*
X0118529Y0121162D01*
X0118445Y0121278D01*
X0118364Y0121396D01*
X0118287Y0121516D01*
X0118213Y0121638D01*
X0118142Y0121762D01*
X0118075Y0121889D01*
X0118011Y0122017D01*
X0117951Y0122146D01*
X0117895Y0122278D01*
X0117843Y0122411D01*
X0117794Y0122545D01*
X0117749Y0122680D01*
X0117707Y0122817D01*
X0117670Y0122955D01*
X0117636Y0123094D01*
X0117606Y0123234D01*
X0117581Y0123374D01*
X0117559Y0123516D01*
X0117541Y0123658D01*
X0117527Y0123800D01*
X0117517Y0123942D01*
X0117511Y0124085D01*
X0117509Y0124228D01*
X0113572Y0105331D02*
X0113574Y0105474D01*
X0113580Y0105617D01*
X0113590Y0105759D01*
X0113604Y0105901D01*
X0113622Y0106043D01*
X0113644Y0106185D01*
X0113669Y0106325D01*
X0113699Y0106465D01*
X0113733Y0106604D01*
X0113770Y0106742D01*
X0113812Y0106879D01*
X0113857Y0107014D01*
X0113906Y0107148D01*
X0113958Y0107281D01*
X0114014Y0107413D01*
X0114074Y0107542D01*
X0114138Y0107670D01*
X0114205Y0107797D01*
X0114276Y0107921D01*
X0114350Y0108043D01*
X0114427Y0108163D01*
X0114508Y0108281D01*
X0114592Y0108397D01*
X0114679Y0108510D01*
X0114769Y0108621D01*
X0114863Y0108729D01*
X0114959Y0108835D01*
X0115058Y0108937D01*
X0115161Y0109037D01*
X0115265Y0109134D01*
X0115373Y0109229D01*
X0115483Y0109320D01*
X0115596Y0109408D01*
X0115711Y0109492D01*
X0115828Y0109574D01*
X0115948Y0109652D01*
X0116069Y0109727D01*
X0116193Y0109799D01*
X0116319Y0109867D01*
X0116446Y0109931D01*
X0116576Y0109992D01*
X0116707Y0110049D01*
X0116839Y0110103D01*
X0116973Y0110152D01*
X0117108Y0110199D01*
X0117245Y0110241D01*
X0117383Y0110279D01*
X0117521Y0110314D01*
X0117661Y0110344D01*
X0117801Y0110371D01*
X0117942Y0110394D01*
X0118084Y0110413D01*
X0118226Y0110428D01*
X0118369Y0110439D01*
X0118511Y0110446D01*
X0118654Y0110449D01*
X0118797Y0110448D01*
X0118940Y0110443D01*
X0119083Y0110434D01*
X0119225Y0110421D01*
X0119367Y0110404D01*
X0119508Y0110383D01*
X0119649Y0110358D01*
X0119789Y0110330D01*
X0119928Y0110297D01*
X0120066Y0110260D01*
X0120203Y0110220D01*
X0120339Y0110176D01*
X0120474Y0110128D01*
X0120607Y0110076D01*
X0120739Y0110021D01*
X0120869Y0109962D01*
X0120998Y0109899D01*
X0121124Y0109833D01*
X0121249Y0109763D01*
X0121372Y0109690D01*
X0121492Y0109614D01*
X0121611Y0109534D01*
X0121727Y0109450D01*
X0121841Y0109364D01*
X0121952Y0109274D01*
X0122061Y0109182D01*
X0122167Y0109086D01*
X0122271Y0108988D01*
X0122372Y0108886D01*
X0122469Y0108782D01*
X0122564Y0108675D01*
X0122656Y0108566D01*
X0122745Y0108454D01*
X0122831Y0108339D01*
X0122913Y0108223D01*
X0122992Y0108103D01*
X0123068Y0107982D01*
X0123140Y0107859D01*
X0123209Y0107734D01*
X0123274Y0107607D01*
X0123336Y0107478D01*
X0123394Y0107347D01*
X0123449Y0107215D01*
X0123499Y0107081D01*
X0123546Y0106946D01*
X0123590Y0106810D01*
X0123629Y0106673D01*
X0123664Y0106534D01*
X0123696Y0106395D01*
X0123724Y0106255D01*
X0123748Y0106114D01*
X0123768Y0105972D01*
X0123784Y0105830D01*
X0123796Y0105688D01*
X0123804Y0105545D01*
X0123808Y0105402D01*
X0123808Y0105260D01*
X0123804Y0105117D01*
X0123796Y0104974D01*
X0123784Y0104832D01*
X0123768Y0104690D01*
X0123748Y0104548D01*
X0123724Y0104407D01*
X0123696Y0104267D01*
X0123664Y0104128D01*
X0123629Y0103989D01*
X0123590Y0103852D01*
X0123546Y0103716D01*
X0123499Y0103581D01*
X0123449Y0103447D01*
X0123394Y0103315D01*
X0123336Y0103184D01*
X0123274Y0103055D01*
X0123209Y0102928D01*
X0123140Y0102803D01*
X0123068Y0102680D01*
X0122992Y0102559D01*
X0122913Y0102439D01*
X0122831Y0102323D01*
X0122745Y0102208D01*
X0122656Y0102096D01*
X0122564Y0101987D01*
X0122469Y0101880D01*
X0122372Y0101776D01*
X0122271Y0101674D01*
X0122167Y0101576D01*
X0122061Y0101480D01*
X0121952Y0101388D01*
X0121841Y0101298D01*
X0121727Y0101212D01*
X0121611Y0101128D01*
X0121492Y0101048D01*
X0121372Y0100972D01*
X0121249Y0100899D01*
X0121124Y0100829D01*
X0120998Y0100763D01*
X0120869Y0100700D01*
X0120739Y0100641D01*
X0120607Y0100586D01*
X0120474Y0100534D01*
X0120339Y0100486D01*
X0120203Y0100442D01*
X0120066Y0100402D01*
X0119928Y0100365D01*
X0119789Y0100332D01*
X0119649Y0100304D01*
X0119508Y0100279D01*
X0119367Y0100258D01*
X0119225Y0100241D01*
X0119083Y0100228D01*
X0118940Y0100219D01*
X0118797Y0100214D01*
X0118654Y0100213D01*
X0118511Y0100216D01*
X0118369Y0100223D01*
X0118226Y0100234D01*
X0118084Y0100249D01*
X0117942Y0100268D01*
X0117801Y0100291D01*
X0117661Y0100318D01*
X0117521Y0100348D01*
X0117383Y0100383D01*
X0117245Y0100421D01*
X0117108Y0100463D01*
X0116973Y0100510D01*
X0116839Y0100559D01*
X0116707Y0100613D01*
X0116576Y0100670D01*
X0116446Y0100731D01*
X0116319Y0100795D01*
X0116193Y0100863D01*
X0116069Y0100935D01*
X0115948Y0101010D01*
X0115828Y0101088D01*
X0115711Y0101170D01*
X0115596Y0101254D01*
X0115483Y0101342D01*
X0115373Y0101433D01*
X0115265Y0101528D01*
X0115161Y0101625D01*
X0115058Y0101725D01*
X0114959Y0101827D01*
X0114863Y0101933D01*
X0114769Y0102041D01*
X0114679Y0102152D01*
X0114592Y0102265D01*
X0114508Y0102381D01*
X0114427Y0102499D01*
X0114350Y0102619D01*
X0114276Y0102741D01*
X0114205Y0102865D01*
X0114138Y0102992D01*
X0114074Y0103120D01*
X0114014Y0103249D01*
X0113958Y0103381D01*
X0113906Y0103514D01*
X0113857Y0103648D01*
X0113812Y0103783D01*
X0113770Y0103920D01*
X0113733Y0104058D01*
X0113699Y0104197D01*
X0113669Y0104337D01*
X0113644Y0104477D01*
X0113622Y0104619D01*
X0113604Y0104761D01*
X0113590Y0104903D01*
X0113580Y0105045D01*
X0113574Y0105188D01*
X0113572Y0105331D01*
X0031289Y0109661D02*
X0031291Y0109804D01*
X0031297Y0109947D01*
X0031307Y0110089D01*
X0031321Y0110231D01*
X0031339Y0110373D01*
X0031361Y0110515D01*
X0031386Y0110655D01*
X0031416Y0110795D01*
X0031450Y0110934D01*
X0031487Y0111072D01*
X0031529Y0111209D01*
X0031574Y0111344D01*
X0031623Y0111478D01*
X0031675Y0111611D01*
X0031731Y0111743D01*
X0031791Y0111872D01*
X0031855Y0112000D01*
X0031922Y0112127D01*
X0031993Y0112251D01*
X0032067Y0112373D01*
X0032144Y0112493D01*
X0032225Y0112611D01*
X0032309Y0112727D01*
X0032396Y0112840D01*
X0032486Y0112951D01*
X0032580Y0113059D01*
X0032676Y0113165D01*
X0032775Y0113267D01*
X0032878Y0113367D01*
X0032982Y0113464D01*
X0033090Y0113559D01*
X0033200Y0113650D01*
X0033313Y0113738D01*
X0033428Y0113822D01*
X0033545Y0113904D01*
X0033665Y0113982D01*
X0033786Y0114057D01*
X0033910Y0114129D01*
X0034036Y0114197D01*
X0034163Y0114261D01*
X0034293Y0114322D01*
X0034424Y0114379D01*
X0034556Y0114433D01*
X0034690Y0114482D01*
X0034825Y0114529D01*
X0034962Y0114571D01*
X0035100Y0114609D01*
X0035238Y0114644D01*
X0035378Y0114674D01*
X0035518Y0114701D01*
X0035659Y0114724D01*
X0035801Y0114743D01*
X0035943Y0114758D01*
X0036086Y0114769D01*
X0036228Y0114776D01*
X0036371Y0114779D01*
X0036514Y0114778D01*
X0036657Y0114773D01*
X0036800Y0114764D01*
X0036942Y0114751D01*
X0037084Y0114734D01*
X0037225Y0114713D01*
X0037366Y0114688D01*
X0037506Y0114660D01*
X0037645Y0114627D01*
X0037783Y0114590D01*
X0037920Y0114550D01*
X0038056Y0114506D01*
X0038191Y0114458D01*
X0038324Y0114406D01*
X0038456Y0114351D01*
X0038586Y0114292D01*
X0038715Y0114229D01*
X0038841Y0114163D01*
X0038966Y0114093D01*
X0039089Y0114020D01*
X0039209Y0113944D01*
X0039328Y0113864D01*
X0039444Y0113780D01*
X0039558Y0113694D01*
X0039669Y0113604D01*
X0039778Y0113512D01*
X0039884Y0113416D01*
X0039988Y0113318D01*
X0040089Y0113216D01*
X0040186Y0113112D01*
X0040281Y0113005D01*
X0040373Y0112896D01*
X0040462Y0112784D01*
X0040548Y0112669D01*
X0040630Y0112553D01*
X0040709Y0112433D01*
X0040785Y0112312D01*
X0040857Y0112189D01*
X0040926Y0112064D01*
X0040991Y0111937D01*
X0041053Y0111808D01*
X0041111Y0111677D01*
X0041166Y0111545D01*
X0041216Y0111411D01*
X0041263Y0111276D01*
X0041307Y0111140D01*
X0041346Y0111003D01*
X0041381Y0110864D01*
X0041413Y0110725D01*
X0041441Y0110585D01*
X0041465Y0110444D01*
X0041485Y0110302D01*
X0041501Y0110160D01*
X0041513Y0110018D01*
X0041521Y0109875D01*
X0041525Y0109732D01*
X0041525Y0109590D01*
X0041521Y0109447D01*
X0041513Y0109304D01*
X0041501Y0109162D01*
X0041485Y0109020D01*
X0041465Y0108878D01*
X0041441Y0108737D01*
X0041413Y0108597D01*
X0041381Y0108458D01*
X0041346Y0108319D01*
X0041307Y0108182D01*
X0041263Y0108046D01*
X0041216Y0107911D01*
X0041166Y0107777D01*
X0041111Y0107645D01*
X0041053Y0107514D01*
X0040991Y0107385D01*
X0040926Y0107258D01*
X0040857Y0107133D01*
X0040785Y0107010D01*
X0040709Y0106889D01*
X0040630Y0106769D01*
X0040548Y0106653D01*
X0040462Y0106538D01*
X0040373Y0106426D01*
X0040281Y0106317D01*
X0040186Y0106210D01*
X0040089Y0106106D01*
X0039988Y0106004D01*
X0039884Y0105906D01*
X0039778Y0105810D01*
X0039669Y0105718D01*
X0039558Y0105628D01*
X0039444Y0105542D01*
X0039328Y0105458D01*
X0039209Y0105378D01*
X0039089Y0105302D01*
X0038966Y0105229D01*
X0038841Y0105159D01*
X0038715Y0105093D01*
X0038586Y0105030D01*
X0038456Y0104971D01*
X0038324Y0104916D01*
X0038191Y0104864D01*
X0038056Y0104816D01*
X0037920Y0104772D01*
X0037783Y0104732D01*
X0037645Y0104695D01*
X0037506Y0104662D01*
X0037366Y0104634D01*
X0037225Y0104609D01*
X0037084Y0104588D01*
X0036942Y0104571D01*
X0036800Y0104558D01*
X0036657Y0104549D01*
X0036514Y0104544D01*
X0036371Y0104543D01*
X0036228Y0104546D01*
X0036086Y0104553D01*
X0035943Y0104564D01*
X0035801Y0104579D01*
X0035659Y0104598D01*
X0035518Y0104621D01*
X0035378Y0104648D01*
X0035238Y0104678D01*
X0035100Y0104713D01*
X0034962Y0104751D01*
X0034825Y0104793D01*
X0034690Y0104840D01*
X0034556Y0104889D01*
X0034424Y0104943D01*
X0034293Y0105000D01*
X0034163Y0105061D01*
X0034036Y0105125D01*
X0033910Y0105193D01*
X0033786Y0105265D01*
X0033665Y0105340D01*
X0033545Y0105418D01*
X0033428Y0105500D01*
X0033313Y0105584D01*
X0033200Y0105672D01*
X0033090Y0105763D01*
X0032982Y0105858D01*
X0032878Y0105955D01*
X0032775Y0106055D01*
X0032676Y0106157D01*
X0032580Y0106263D01*
X0032486Y0106371D01*
X0032396Y0106482D01*
X0032309Y0106595D01*
X0032225Y0106711D01*
X0032144Y0106829D01*
X0032067Y0106949D01*
X0031993Y0107071D01*
X0031922Y0107195D01*
X0031855Y0107322D01*
X0031791Y0107450D01*
X0031731Y0107579D01*
X0031675Y0107711D01*
X0031623Y0107844D01*
X0031574Y0107978D01*
X0031529Y0108113D01*
X0031487Y0108250D01*
X0031450Y0108388D01*
X0031416Y0108527D01*
X0031386Y0108667D01*
X0031361Y0108807D01*
X0031339Y0108949D01*
X0031321Y0109091D01*
X0031307Y0109233D01*
X0031297Y0109375D01*
X0031291Y0109518D01*
X0031289Y0109661D01*
X0205895Y0105331D02*
X0205897Y0105500D01*
X0205903Y0105669D01*
X0205914Y0105838D01*
X0205928Y0106006D01*
X0205947Y0106174D01*
X0205970Y0106342D01*
X0205996Y0106509D01*
X0206027Y0106675D01*
X0206062Y0106841D01*
X0206101Y0107005D01*
X0206145Y0107169D01*
X0206192Y0107331D01*
X0206243Y0107492D01*
X0206298Y0107652D01*
X0206357Y0107811D01*
X0206419Y0107968D01*
X0206486Y0108123D01*
X0206557Y0108277D01*
X0206631Y0108429D01*
X0206709Y0108579D01*
X0206790Y0108727D01*
X0206875Y0108873D01*
X0206964Y0109017D01*
X0207056Y0109159D01*
X0207152Y0109298D01*
X0207251Y0109435D01*
X0207353Y0109570D01*
X0207459Y0109702D01*
X0207568Y0109831D01*
X0207680Y0109958D01*
X0207795Y0110082D01*
X0207913Y0110203D01*
X0208034Y0110321D01*
X0208158Y0110436D01*
X0208285Y0110548D01*
X0208414Y0110657D01*
X0208546Y0110763D01*
X0208681Y0110865D01*
X0208818Y0110964D01*
X0208957Y0111060D01*
X0209099Y0111152D01*
X0209243Y0111241D01*
X0209389Y0111326D01*
X0209537Y0111407D01*
X0209687Y0111485D01*
X0209839Y0111559D01*
X0209993Y0111630D01*
X0210148Y0111697D01*
X0210305Y0111759D01*
X0210464Y0111818D01*
X0210624Y0111873D01*
X0210785Y0111924D01*
X0210947Y0111971D01*
X0211111Y0112015D01*
X0211275Y0112054D01*
X0211441Y0112089D01*
X0211607Y0112120D01*
X0211774Y0112146D01*
X0211942Y0112169D01*
X0212110Y0112188D01*
X0212278Y0112202D01*
X0212447Y0112213D01*
X0212616Y0112219D01*
X0212785Y0112221D01*
X0212954Y0112219D01*
X0213123Y0112213D01*
X0213292Y0112202D01*
X0213460Y0112188D01*
X0213628Y0112169D01*
X0213796Y0112146D01*
X0213963Y0112120D01*
X0214129Y0112089D01*
X0214295Y0112054D01*
X0214459Y0112015D01*
X0214623Y0111971D01*
X0214785Y0111924D01*
X0214946Y0111873D01*
X0215106Y0111818D01*
X0215265Y0111759D01*
X0215422Y0111697D01*
X0215577Y0111630D01*
X0215731Y0111559D01*
X0215883Y0111485D01*
X0216033Y0111407D01*
X0216181Y0111326D01*
X0216327Y0111241D01*
X0216471Y0111152D01*
X0216613Y0111060D01*
X0216752Y0110964D01*
X0216889Y0110865D01*
X0217024Y0110763D01*
X0217156Y0110657D01*
X0217285Y0110548D01*
X0217412Y0110436D01*
X0217536Y0110321D01*
X0217657Y0110203D01*
X0217775Y0110082D01*
X0217890Y0109958D01*
X0218002Y0109831D01*
X0218111Y0109702D01*
X0218217Y0109570D01*
X0218319Y0109435D01*
X0218418Y0109298D01*
X0218514Y0109159D01*
X0218606Y0109017D01*
X0218695Y0108873D01*
X0218780Y0108727D01*
X0218861Y0108579D01*
X0218939Y0108429D01*
X0219013Y0108277D01*
X0219084Y0108123D01*
X0219151Y0107968D01*
X0219213Y0107811D01*
X0219272Y0107652D01*
X0219327Y0107492D01*
X0219378Y0107331D01*
X0219425Y0107169D01*
X0219469Y0107005D01*
X0219508Y0106841D01*
X0219543Y0106675D01*
X0219574Y0106509D01*
X0219600Y0106342D01*
X0219623Y0106174D01*
X0219642Y0106006D01*
X0219656Y0105838D01*
X0219667Y0105669D01*
X0219673Y0105500D01*
X0219675Y0105331D01*
X0219673Y0105162D01*
X0219667Y0104993D01*
X0219656Y0104824D01*
X0219642Y0104656D01*
X0219623Y0104488D01*
X0219600Y0104320D01*
X0219574Y0104153D01*
X0219543Y0103987D01*
X0219508Y0103821D01*
X0219469Y0103657D01*
X0219425Y0103493D01*
X0219378Y0103331D01*
X0219327Y0103170D01*
X0219272Y0103010D01*
X0219213Y0102851D01*
X0219151Y0102694D01*
X0219084Y0102539D01*
X0219013Y0102385D01*
X0218939Y0102233D01*
X0218861Y0102083D01*
X0218780Y0101935D01*
X0218695Y0101789D01*
X0218606Y0101645D01*
X0218514Y0101503D01*
X0218418Y0101364D01*
X0218319Y0101227D01*
X0218217Y0101092D01*
X0218111Y0100960D01*
X0218002Y0100831D01*
X0217890Y0100704D01*
X0217775Y0100580D01*
X0217657Y0100459D01*
X0217536Y0100341D01*
X0217412Y0100226D01*
X0217285Y0100114D01*
X0217156Y0100005D01*
X0217024Y0099899D01*
X0216889Y0099797D01*
X0216752Y0099698D01*
X0216613Y0099602D01*
X0216471Y0099510D01*
X0216327Y0099421D01*
X0216181Y0099336D01*
X0216033Y0099255D01*
X0215883Y0099177D01*
X0215731Y0099103D01*
X0215577Y0099032D01*
X0215422Y0098965D01*
X0215265Y0098903D01*
X0215106Y0098844D01*
X0214946Y0098789D01*
X0214785Y0098738D01*
X0214623Y0098691D01*
X0214459Y0098647D01*
X0214295Y0098608D01*
X0214129Y0098573D01*
X0213963Y0098542D01*
X0213796Y0098516D01*
X0213628Y0098493D01*
X0213460Y0098474D01*
X0213292Y0098460D01*
X0213123Y0098449D01*
X0212954Y0098443D01*
X0212785Y0098441D01*
X0212616Y0098443D01*
X0212447Y0098449D01*
X0212278Y0098460D01*
X0212110Y0098474D01*
X0211942Y0098493D01*
X0211774Y0098516D01*
X0211607Y0098542D01*
X0211441Y0098573D01*
X0211275Y0098608D01*
X0211111Y0098647D01*
X0210947Y0098691D01*
X0210785Y0098738D01*
X0210624Y0098789D01*
X0210464Y0098844D01*
X0210305Y0098903D01*
X0210148Y0098965D01*
X0209993Y0099032D01*
X0209839Y0099103D01*
X0209687Y0099177D01*
X0209537Y0099255D01*
X0209389Y0099336D01*
X0209243Y0099421D01*
X0209099Y0099510D01*
X0208957Y0099602D01*
X0208818Y0099698D01*
X0208681Y0099797D01*
X0208546Y0099899D01*
X0208414Y0100005D01*
X0208285Y0100114D01*
X0208158Y0100226D01*
X0208034Y0100341D01*
X0207913Y0100459D01*
X0207795Y0100580D01*
X0207680Y0100704D01*
X0207568Y0100831D01*
X0207459Y0100960D01*
X0207353Y0101092D01*
X0207251Y0101227D01*
X0207152Y0101364D01*
X0207056Y0101503D01*
X0206964Y0101645D01*
X0206875Y0101789D01*
X0206790Y0101935D01*
X0206709Y0102083D01*
X0206631Y0102233D01*
X0206557Y0102385D01*
X0206486Y0102539D01*
X0206419Y0102694D01*
X0206357Y0102851D01*
X0206298Y0103010D01*
X0206243Y0103170D01*
X0206192Y0103331D01*
X0206145Y0103493D01*
X0206101Y0103657D01*
X0206062Y0103821D01*
X0206027Y0103987D01*
X0205996Y0104153D01*
X0205970Y0104320D01*
X0205947Y0104488D01*
X0205928Y0104656D01*
X0205914Y0104824D01*
X0205903Y0104993D01*
X0205897Y0105162D01*
X0205895Y0105331D01*
X0244281Y0139583D02*
X0244283Y0139776D01*
X0244290Y0139969D01*
X0244302Y0140162D01*
X0244319Y0140355D01*
X0244340Y0140547D01*
X0244366Y0140738D01*
X0244397Y0140929D01*
X0244432Y0141119D01*
X0244472Y0141308D01*
X0244517Y0141496D01*
X0244566Y0141683D01*
X0244620Y0141869D01*
X0244678Y0142053D01*
X0244741Y0142236D01*
X0244809Y0142417D01*
X0244880Y0142596D01*
X0244957Y0142774D01*
X0245037Y0142950D01*
X0245122Y0143123D01*
X0245211Y0143295D01*
X0245304Y0143464D01*
X0245401Y0143631D01*
X0245503Y0143796D01*
X0245608Y0143958D01*
X0245717Y0144117D01*
X0245831Y0144274D01*
X0245948Y0144427D01*
X0246068Y0144578D01*
X0246193Y0144726D01*
X0246321Y0144871D01*
X0246452Y0145012D01*
X0246587Y0145151D01*
X0246726Y0145286D01*
X0246867Y0145417D01*
X0247012Y0145545D01*
X0247160Y0145670D01*
X0247311Y0145790D01*
X0247464Y0145907D01*
X0247621Y0146021D01*
X0247780Y0146130D01*
X0247942Y0146235D01*
X0248107Y0146337D01*
X0248274Y0146434D01*
X0248443Y0146527D01*
X0248615Y0146616D01*
X0248788Y0146701D01*
X0248964Y0146781D01*
X0249142Y0146858D01*
X0249321Y0146929D01*
X0249502Y0146997D01*
X0249685Y0147060D01*
X0249869Y0147118D01*
X0250055Y0147172D01*
X0250242Y0147221D01*
X0250430Y0147266D01*
X0250619Y0147306D01*
X0250809Y0147341D01*
X0251000Y0147372D01*
X0251191Y0147398D01*
X0251383Y0147419D01*
X0251576Y0147436D01*
X0251769Y0147448D01*
X0251962Y0147455D01*
X0252155Y0147457D01*
X0252348Y0147455D01*
X0252541Y0147448D01*
X0252734Y0147436D01*
X0252927Y0147419D01*
X0253119Y0147398D01*
X0253310Y0147372D01*
X0253501Y0147341D01*
X0253691Y0147306D01*
X0253880Y0147266D01*
X0254068Y0147221D01*
X0254255Y0147172D01*
X0254441Y0147118D01*
X0254625Y0147060D01*
X0254808Y0146997D01*
X0254989Y0146929D01*
X0255168Y0146858D01*
X0255346Y0146781D01*
X0255522Y0146701D01*
X0255695Y0146616D01*
X0255867Y0146527D01*
X0256036Y0146434D01*
X0256203Y0146337D01*
X0256368Y0146235D01*
X0256530Y0146130D01*
X0256689Y0146021D01*
X0256846Y0145907D01*
X0256999Y0145790D01*
X0257150Y0145670D01*
X0257298Y0145545D01*
X0257443Y0145417D01*
X0257584Y0145286D01*
X0257723Y0145151D01*
X0257858Y0145012D01*
X0257989Y0144871D01*
X0258117Y0144726D01*
X0258242Y0144578D01*
X0258362Y0144427D01*
X0258479Y0144274D01*
X0258593Y0144117D01*
X0258702Y0143958D01*
X0258807Y0143796D01*
X0258909Y0143631D01*
X0259006Y0143464D01*
X0259099Y0143295D01*
X0259188Y0143123D01*
X0259273Y0142950D01*
X0259353Y0142774D01*
X0259430Y0142596D01*
X0259501Y0142417D01*
X0259569Y0142236D01*
X0259632Y0142053D01*
X0259690Y0141869D01*
X0259744Y0141683D01*
X0259793Y0141496D01*
X0259838Y0141308D01*
X0259878Y0141119D01*
X0259913Y0140929D01*
X0259944Y0140738D01*
X0259970Y0140547D01*
X0259991Y0140355D01*
X0260008Y0140162D01*
X0260020Y0139969D01*
X0260027Y0139776D01*
X0260029Y0139583D01*
X0260027Y0139390D01*
X0260020Y0139197D01*
X0260008Y0139004D01*
X0259991Y0138811D01*
X0259970Y0138619D01*
X0259944Y0138428D01*
X0259913Y0138237D01*
X0259878Y0138047D01*
X0259838Y0137858D01*
X0259793Y0137670D01*
X0259744Y0137483D01*
X0259690Y0137297D01*
X0259632Y0137113D01*
X0259569Y0136930D01*
X0259501Y0136749D01*
X0259430Y0136570D01*
X0259353Y0136392D01*
X0259273Y0136216D01*
X0259188Y0136043D01*
X0259099Y0135871D01*
X0259006Y0135702D01*
X0258909Y0135535D01*
X0258807Y0135370D01*
X0258702Y0135208D01*
X0258593Y0135049D01*
X0258479Y0134892D01*
X0258362Y0134739D01*
X0258242Y0134588D01*
X0258117Y0134440D01*
X0257989Y0134295D01*
X0257858Y0134154D01*
X0257723Y0134015D01*
X0257584Y0133880D01*
X0257443Y0133749D01*
X0257298Y0133621D01*
X0257150Y0133496D01*
X0256999Y0133376D01*
X0256846Y0133259D01*
X0256689Y0133145D01*
X0256530Y0133036D01*
X0256368Y0132931D01*
X0256203Y0132829D01*
X0256036Y0132732D01*
X0255867Y0132639D01*
X0255695Y0132550D01*
X0255522Y0132465D01*
X0255346Y0132385D01*
X0255168Y0132308D01*
X0254989Y0132237D01*
X0254808Y0132169D01*
X0254625Y0132106D01*
X0254441Y0132048D01*
X0254255Y0131994D01*
X0254068Y0131945D01*
X0253880Y0131900D01*
X0253691Y0131860D01*
X0253501Y0131825D01*
X0253310Y0131794D01*
X0253119Y0131768D01*
X0252927Y0131747D01*
X0252734Y0131730D01*
X0252541Y0131718D01*
X0252348Y0131711D01*
X0252155Y0131709D01*
X0251962Y0131711D01*
X0251769Y0131718D01*
X0251576Y0131730D01*
X0251383Y0131747D01*
X0251191Y0131768D01*
X0251000Y0131794D01*
X0250809Y0131825D01*
X0250619Y0131860D01*
X0250430Y0131900D01*
X0250242Y0131945D01*
X0250055Y0131994D01*
X0249869Y0132048D01*
X0249685Y0132106D01*
X0249502Y0132169D01*
X0249321Y0132237D01*
X0249142Y0132308D01*
X0248964Y0132385D01*
X0248788Y0132465D01*
X0248615Y0132550D01*
X0248443Y0132639D01*
X0248274Y0132732D01*
X0248107Y0132829D01*
X0247942Y0132931D01*
X0247780Y0133036D01*
X0247621Y0133145D01*
X0247464Y0133259D01*
X0247311Y0133376D01*
X0247160Y0133496D01*
X0247012Y0133621D01*
X0246867Y0133749D01*
X0246726Y0133880D01*
X0246587Y0134015D01*
X0246452Y0134154D01*
X0246321Y0134295D01*
X0246193Y0134440D01*
X0246068Y0134588D01*
X0245948Y0134739D01*
X0245831Y0134892D01*
X0245717Y0135049D01*
X0245608Y0135208D01*
X0245503Y0135370D01*
X0245401Y0135535D01*
X0245304Y0135702D01*
X0245211Y0135871D01*
X0245122Y0136043D01*
X0245037Y0136216D01*
X0244957Y0136392D01*
X0244880Y0136570D01*
X0244809Y0136749D01*
X0244741Y0136930D01*
X0244678Y0137113D01*
X0244620Y0137297D01*
X0244566Y0137483D01*
X0244517Y0137670D01*
X0244472Y0137858D01*
X0244432Y0138047D01*
X0244397Y0138237D01*
X0244366Y0138428D01*
X0244340Y0138619D01*
X0244319Y0138811D01*
X0244302Y0139004D01*
X0244290Y0139197D01*
X0244283Y0139390D01*
X0244281Y0139583D01*
X0235620Y0178953D02*
X0235622Y0179090D01*
X0235628Y0179228D01*
X0235638Y0179365D01*
X0235652Y0179501D01*
X0235670Y0179638D01*
X0235692Y0179773D01*
X0235718Y0179908D01*
X0235747Y0180042D01*
X0235781Y0180176D01*
X0235818Y0180308D01*
X0235860Y0180439D01*
X0235905Y0180569D01*
X0235954Y0180697D01*
X0236006Y0180824D01*
X0236063Y0180949D01*
X0236122Y0181073D01*
X0236186Y0181195D01*
X0236253Y0181315D01*
X0236323Y0181433D01*
X0236397Y0181549D01*
X0236474Y0181663D01*
X0236555Y0181774D01*
X0236638Y0181883D01*
X0236725Y0181990D01*
X0236815Y0182093D01*
X0236908Y0182195D01*
X0237004Y0182293D01*
X0237102Y0182389D01*
X0237204Y0182482D01*
X0237307Y0182572D01*
X0237414Y0182659D01*
X0237523Y0182742D01*
X0237634Y0182823D01*
X0237748Y0182900D01*
X0237864Y0182974D01*
X0237982Y0183044D01*
X0238102Y0183111D01*
X0238224Y0183175D01*
X0238348Y0183234D01*
X0238473Y0183291D01*
X0238600Y0183343D01*
X0238728Y0183392D01*
X0238858Y0183437D01*
X0238989Y0183479D01*
X0239121Y0183516D01*
X0239255Y0183550D01*
X0239389Y0183579D01*
X0239524Y0183605D01*
X0239659Y0183627D01*
X0239796Y0183645D01*
X0239932Y0183659D01*
X0240069Y0183669D01*
X0240207Y0183675D01*
X0240344Y0183677D01*
X0240481Y0183675D01*
X0240619Y0183669D01*
X0240756Y0183659D01*
X0240892Y0183645D01*
X0241029Y0183627D01*
X0241164Y0183605D01*
X0241299Y0183579D01*
X0241433Y0183550D01*
X0241567Y0183516D01*
X0241699Y0183479D01*
X0241830Y0183437D01*
X0241960Y0183392D01*
X0242088Y0183343D01*
X0242215Y0183291D01*
X0242340Y0183234D01*
X0242464Y0183175D01*
X0242586Y0183111D01*
X0242706Y0183044D01*
X0242824Y0182974D01*
X0242940Y0182900D01*
X0243054Y0182823D01*
X0243165Y0182742D01*
X0243274Y0182659D01*
X0243381Y0182572D01*
X0243484Y0182482D01*
X0243586Y0182389D01*
X0243684Y0182293D01*
X0243780Y0182195D01*
X0243873Y0182093D01*
X0243963Y0181990D01*
X0244050Y0181883D01*
X0244133Y0181774D01*
X0244214Y0181663D01*
X0244291Y0181549D01*
X0244365Y0181433D01*
X0244435Y0181315D01*
X0244502Y0181195D01*
X0244566Y0181073D01*
X0244625Y0180949D01*
X0244682Y0180824D01*
X0244734Y0180697D01*
X0244783Y0180569D01*
X0244828Y0180439D01*
X0244870Y0180308D01*
X0244907Y0180176D01*
X0244941Y0180042D01*
X0244970Y0179908D01*
X0244996Y0179773D01*
X0245018Y0179638D01*
X0245036Y0179501D01*
X0245050Y0179365D01*
X0245060Y0179228D01*
X0245066Y0179090D01*
X0245068Y0178953D01*
X0245066Y0178816D01*
X0245060Y0178678D01*
X0245050Y0178541D01*
X0245036Y0178405D01*
X0245018Y0178268D01*
X0244996Y0178133D01*
X0244970Y0177998D01*
X0244941Y0177864D01*
X0244907Y0177730D01*
X0244870Y0177598D01*
X0244828Y0177467D01*
X0244783Y0177337D01*
X0244734Y0177209D01*
X0244682Y0177082D01*
X0244625Y0176957D01*
X0244566Y0176833D01*
X0244502Y0176711D01*
X0244435Y0176591D01*
X0244365Y0176473D01*
X0244291Y0176357D01*
X0244214Y0176243D01*
X0244133Y0176132D01*
X0244050Y0176023D01*
X0243963Y0175916D01*
X0243873Y0175813D01*
X0243780Y0175711D01*
X0243684Y0175613D01*
X0243586Y0175517D01*
X0243484Y0175424D01*
X0243381Y0175334D01*
X0243274Y0175247D01*
X0243165Y0175164D01*
X0243054Y0175083D01*
X0242940Y0175006D01*
X0242824Y0174932D01*
X0242706Y0174862D01*
X0242586Y0174795D01*
X0242464Y0174731D01*
X0242340Y0174672D01*
X0242215Y0174615D01*
X0242088Y0174563D01*
X0241960Y0174514D01*
X0241830Y0174469D01*
X0241699Y0174427D01*
X0241567Y0174390D01*
X0241433Y0174356D01*
X0241299Y0174327D01*
X0241164Y0174301D01*
X0241029Y0174279D01*
X0240892Y0174261D01*
X0240756Y0174247D01*
X0240619Y0174237D01*
X0240481Y0174231D01*
X0240344Y0174229D01*
X0240207Y0174231D01*
X0240069Y0174237D01*
X0239932Y0174247D01*
X0239796Y0174261D01*
X0239659Y0174279D01*
X0239524Y0174301D01*
X0239389Y0174327D01*
X0239255Y0174356D01*
X0239121Y0174390D01*
X0238989Y0174427D01*
X0238858Y0174469D01*
X0238728Y0174514D01*
X0238600Y0174563D01*
X0238473Y0174615D01*
X0238348Y0174672D01*
X0238224Y0174731D01*
X0238102Y0174795D01*
X0237982Y0174862D01*
X0237864Y0174932D01*
X0237748Y0175006D01*
X0237634Y0175083D01*
X0237523Y0175164D01*
X0237414Y0175247D01*
X0237307Y0175334D01*
X0237204Y0175424D01*
X0237102Y0175517D01*
X0237004Y0175613D01*
X0236908Y0175711D01*
X0236815Y0175813D01*
X0236725Y0175916D01*
X0236638Y0176023D01*
X0236555Y0176132D01*
X0236474Y0176243D01*
X0236397Y0176357D01*
X0236323Y0176473D01*
X0236253Y0176591D01*
X0236186Y0176711D01*
X0236122Y0176833D01*
X0236063Y0176957D01*
X0236006Y0177082D01*
X0235954Y0177209D01*
X0235905Y0177337D01*
X0235860Y0177467D01*
X0235818Y0177598D01*
X0235781Y0177730D01*
X0235747Y0177864D01*
X0235718Y0177998D01*
X0235692Y0178133D01*
X0235670Y0178268D01*
X0235652Y0178405D01*
X0235638Y0178541D01*
X0235628Y0178678D01*
X0235622Y0178816D01*
X0235620Y0178953D01*
X0288769Y0130921D02*
X0288771Y0131058D01*
X0288777Y0131196D01*
X0288787Y0131333D01*
X0288801Y0131469D01*
X0288819Y0131606D01*
X0288841Y0131741D01*
X0288867Y0131876D01*
X0288896Y0132010D01*
X0288930Y0132144D01*
X0288967Y0132276D01*
X0289009Y0132407D01*
X0289054Y0132537D01*
X0289103Y0132665D01*
X0289155Y0132792D01*
X0289212Y0132917D01*
X0289271Y0133041D01*
X0289335Y0133163D01*
X0289402Y0133283D01*
X0289472Y0133401D01*
X0289546Y0133517D01*
X0289623Y0133631D01*
X0289704Y0133742D01*
X0289787Y0133851D01*
X0289874Y0133958D01*
X0289964Y0134061D01*
X0290057Y0134163D01*
X0290153Y0134261D01*
X0290251Y0134357D01*
X0290353Y0134450D01*
X0290456Y0134540D01*
X0290563Y0134627D01*
X0290672Y0134710D01*
X0290783Y0134791D01*
X0290897Y0134868D01*
X0291013Y0134942D01*
X0291131Y0135012D01*
X0291251Y0135079D01*
X0291373Y0135143D01*
X0291497Y0135202D01*
X0291622Y0135259D01*
X0291749Y0135311D01*
X0291877Y0135360D01*
X0292007Y0135405D01*
X0292138Y0135447D01*
X0292270Y0135484D01*
X0292404Y0135518D01*
X0292538Y0135547D01*
X0292673Y0135573D01*
X0292808Y0135595D01*
X0292945Y0135613D01*
X0293081Y0135627D01*
X0293218Y0135637D01*
X0293356Y0135643D01*
X0293493Y0135645D01*
X0293630Y0135643D01*
X0293768Y0135637D01*
X0293905Y0135627D01*
X0294041Y0135613D01*
X0294178Y0135595D01*
X0294313Y0135573D01*
X0294448Y0135547D01*
X0294582Y0135518D01*
X0294716Y0135484D01*
X0294848Y0135447D01*
X0294979Y0135405D01*
X0295109Y0135360D01*
X0295237Y0135311D01*
X0295364Y0135259D01*
X0295489Y0135202D01*
X0295613Y0135143D01*
X0295735Y0135079D01*
X0295855Y0135012D01*
X0295973Y0134942D01*
X0296089Y0134868D01*
X0296203Y0134791D01*
X0296314Y0134710D01*
X0296423Y0134627D01*
X0296530Y0134540D01*
X0296633Y0134450D01*
X0296735Y0134357D01*
X0296833Y0134261D01*
X0296929Y0134163D01*
X0297022Y0134061D01*
X0297112Y0133958D01*
X0297199Y0133851D01*
X0297282Y0133742D01*
X0297363Y0133631D01*
X0297440Y0133517D01*
X0297514Y0133401D01*
X0297584Y0133283D01*
X0297651Y0133163D01*
X0297715Y0133041D01*
X0297774Y0132917D01*
X0297831Y0132792D01*
X0297883Y0132665D01*
X0297932Y0132537D01*
X0297977Y0132407D01*
X0298019Y0132276D01*
X0298056Y0132144D01*
X0298090Y0132010D01*
X0298119Y0131876D01*
X0298145Y0131741D01*
X0298167Y0131606D01*
X0298185Y0131469D01*
X0298199Y0131333D01*
X0298209Y0131196D01*
X0298215Y0131058D01*
X0298217Y0130921D01*
X0298215Y0130784D01*
X0298209Y0130646D01*
X0298199Y0130509D01*
X0298185Y0130373D01*
X0298167Y0130236D01*
X0298145Y0130101D01*
X0298119Y0129966D01*
X0298090Y0129832D01*
X0298056Y0129698D01*
X0298019Y0129566D01*
X0297977Y0129435D01*
X0297932Y0129305D01*
X0297883Y0129177D01*
X0297831Y0129050D01*
X0297774Y0128925D01*
X0297715Y0128801D01*
X0297651Y0128679D01*
X0297584Y0128559D01*
X0297514Y0128441D01*
X0297440Y0128325D01*
X0297363Y0128211D01*
X0297282Y0128100D01*
X0297199Y0127991D01*
X0297112Y0127884D01*
X0297022Y0127781D01*
X0296929Y0127679D01*
X0296833Y0127581D01*
X0296735Y0127485D01*
X0296633Y0127392D01*
X0296530Y0127302D01*
X0296423Y0127215D01*
X0296314Y0127132D01*
X0296203Y0127051D01*
X0296089Y0126974D01*
X0295973Y0126900D01*
X0295855Y0126830D01*
X0295735Y0126763D01*
X0295613Y0126699D01*
X0295489Y0126640D01*
X0295364Y0126583D01*
X0295237Y0126531D01*
X0295109Y0126482D01*
X0294979Y0126437D01*
X0294848Y0126395D01*
X0294716Y0126358D01*
X0294582Y0126324D01*
X0294448Y0126295D01*
X0294313Y0126269D01*
X0294178Y0126247D01*
X0294041Y0126229D01*
X0293905Y0126215D01*
X0293768Y0126205D01*
X0293630Y0126199D01*
X0293493Y0126197D01*
X0293356Y0126199D01*
X0293218Y0126205D01*
X0293081Y0126215D01*
X0292945Y0126229D01*
X0292808Y0126247D01*
X0292673Y0126269D01*
X0292538Y0126295D01*
X0292404Y0126324D01*
X0292270Y0126358D01*
X0292138Y0126395D01*
X0292007Y0126437D01*
X0291877Y0126482D01*
X0291749Y0126531D01*
X0291622Y0126583D01*
X0291497Y0126640D01*
X0291373Y0126699D01*
X0291251Y0126763D01*
X0291131Y0126830D01*
X0291013Y0126900D01*
X0290897Y0126974D01*
X0290783Y0127051D01*
X0290672Y0127132D01*
X0290563Y0127215D01*
X0290456Y0127302D01*
X0290353Y0127392D01*
X0290251Y0127485D01*
X0290153Y0127581D01*
X0290057Y0127679D01*
X0289964Y0127781D01*
X0289874Y0127884D01*
X0289787Y0127991D01*
X0289704Y0128100D01*
X0289623Y0128211D01*
X0289546Y0128325D01*
X0289472Y0128441D01*
X0289402Y0128559D01*
X0289335Y0128679D01*
X0289271Y0128801D01*
X0289212Y0128925D01*
X0289155Y0129050D01*
X0289103Y0129177D01*
X0289054Y0129305D01*
X0289009Y0129435D01*
X0288967Y0129566D01*
X0288930Y0129698D01*
X0288896Y0129832D01*
X0288867Y0129966D01*
X0288841Y0130101D01*
X0288819Y0130236D01*
X0288801Y0130373D01*
X0288787Y0130509D01*
X0288777Y0130646D01*
X0288771Y0130784D01*
X0288769Y0130921D01*
X0286407Y0441551D02*
X0286409Y0441694D01*
X0286415Y0441837D01*
X0286425Y0441979D01*
X0286439Y0442121D01*
X0286457Y0442263D01*
X0286479Y0442405D01*
X0286504Y0442545D01*
X0286534Y0442685D01*
X0286568Y0442824D01*
X0286605Y0442962D01*
X0286647Y0443099D01*
X0286692Y0443234D01*
X0286741Y0443368D01*
X0286793Y0443501D01*
X0286849Y0443633D01*
X0286909Y0443762D01*
X0286973Y0443890D01*
X0287040Y0444017D01*
X0287111Y0444141D01*
X0287185Y0444263D01*
X0287262Y0444383D01*
X0287343Y0444501D01*
X0287427Y0444617D01*
X0287514Y0444730D01*
X0287604Y0444841D01*
X0287698Y0444949D01*
X0287794Y0445055D01*
X0287893Y0445157D01*
X0287996Y0445257D01*
X0288100Y0445354D01*
X0288208Y0445449D01*
X0288318Y0445540D01*
X0288431Y0445628D01*
X0288546Y0445712D01*
X0288663Y0445794D01*
X0288783Y0445872D01*
X0288904Y0445947D01*
X0289028Y0446019D01*
X0289154Y0446087D01*
X0289281Y0446151D01*
X0289411Y0446212D01*
X0289542Y0446269D01*
X0289674Y0446323D01*
X0289808Y0446372D01*
X0289943Y0446419D01*
X0290080Y0446461D01*
X0290218Y0446499D01*
X0290356Y0446534D01*
X0290496Y0446564D01*
X0290636Y0446591D01*
X0290777Y0446614D01*
X0290919Y0446633D01*
X0291061Y0446648D01*
X0291204Y0446659D01*
X0291346Y0446666D01*
X0291489Y0446669D01*
X0291632Y0446668D01*
X0291775Y0446663D01*
X0291918Y0446654D01*
X0292060Y0446641D01*
X0292202Y0446624D01*
X0292343Y0446603D01*
X0292484Y0446578D01*
X0292624Y0446550D01*
X0292763Y0446517D01*
X0292901Y0446480D01*
X0293038Y0446440D01*
X0293174Y0446396D01*
X0293309Y0446348D01*
X0293442Y0446296D01*
X0293574Y0446241D01*
X0293704Y0446182D01*
X0293833Y0446119D01*
X0293959Y0446053D01*
X0294084Y0445983D01*
X0294207Y0445910D01*
X0294327Y0445834D01*
X0294446Y0445754D01*
X0294562Y0445670D01*
X0294676Y0445584D01*
X0294787Y0445494D01*
X0294896Y0445402D01*
X0295002Y0445306D01*
X0295106Y0445208D01*
X0295207Y0445106D01*
X0295304Y0445002D01*
X0295399Y0444895D01*
X0295491Y0444786D01*
X0295580Y0444674D01*
X0295666Y0444559D01*
X0295748Y0444443D01*
X0295827Y0444323D01*
X0295903Y0444202D01*
X0295975Y0444079D01*
X0296044Y0443954D01*
X0296109Y0443827D01*
X0296171Y0443698D01*
X0296229Y0443567D01*
X0296284Y0443435D01*
X0296334Y0443301D01*
X0296381Y0443166D01*
X0296425Y0443030D01*
X0296464Y0442893D01*
X0296499Y0442754D01*
X0296531Y0442615D01*
X0296559Y0442475D01*
X0296583Y0442334D01*
X0296603Y0442192D01*
X0296619Y0442050D01*
X0296631Y0441908D01*
X0296639Y0441765D01*
X0296643Y0441622D01*
X0296643Y0441480D01*
X0296639Y0441337D01*
X0296631Y0441194D01*
X0296619Y0441052D01*
X0296603Y0440910D01*
X0296583Y0440768D01*
X0296559Y0440627D01*
X0296531Y0440487D01*
X0296499Y0440348D01*
X0296464Y0440209D01*
X0296425Y0440072D01*
X0296381Y0439936D01*
X0296334Y0439801D01*
X0296284Y0439667D01*
X0296229Y0439535D01*
X0296171Y0439404D01*
X0296109Y0439275D01*
X0296044Y0439148D01*
X0295975Y0439023D01*
X0295903Y0438900D01*
X0295827Y0438779D01*
X0295748Y0438659D01*
X0295666Y0438543D01*
X0295580Y0438428D01*
X0295491Y0438316D01*
X0295399Y0438207D01*
X0295304Y0438100D01*
X0295207Y0437996D01*
X0295106Y0437894D01*
X0295002Y0437796D01*
X0294896Y0437700D01*
X0294787Y0437608D01*
X0294676Y0437518D01*
X0294562Y0437432D01*
X0294446Y0437348D01*
X0294327Y0437268D01*
X0294207Y0437192D01*
X0294084Y0437119D01*
X0293959Y0437049D01*
X0293833Y0436983D01*
X0293704Y0436920D01*
X0293574Y0436861D01*
X0293442Y0436806D01*
X0293309Y0436754D01*
X0293174Y0436706D01*
X0293038Y0436662D01*
X0292901Y0436622D01*
X0292763Y0436585D01*
X0292624Y0436552D01*
X0292484Y0436524D01*
X0292343Y0436499D01*
X0292202Y0436478D01*
X0292060Y0436461D01*
X0291918Y0436448D01*
X0291775Y0436439D01*
X0291632Y0436434D01*
X0291489Y0436433D01*
X0291346Y0436436D01*
X0291204Y0436443D01*
X0291061Y0436454D01*
X0290919Y0436469D01*
X0290777Y0436488D01*
X0290636Y0436511D01*
X0290496Y0436538D01*
X0290356Y0436568D01*
X0290218Y0436603D01*
X0290080Y0436641D01*
X0289943Y0436683D01*
X0289808Y0436730D01*
X0289674Y0436779D01*
X0289542Y0436833D01*
X0289411Y0436890D01*
X0289281Y0436951D01*
X0289154Y0437015D01*
X0289028Y0437083D01*
X0288904Y0437155D01*
X0288783Y0437230D01*
X0288663Y0437308D01*
X0288546Y0437390D01*
X0288431Y0437474D01*
X0288318Y0437562D01*
X0288208Y0437653D01*
X0288100Y0437748D01*
X0287996Y0437845D01*
X0287893Y0437945D01*
X0287794Y0438047D01*
X0287698Y0438153D01*
X0287604Y0438261D01*
X0287514Y0438372D01*
X0287427Y0438485D01*
X0287343Y0438601D01*
X0287262Y0438719D01*
X0287185Y0438839D01*
X0287111Y0438961D01*
X0287040Y0439085D01*
X0286973Y0439212D01*
X0286909Y0439340D01*
X0286849Y0439469D01*
X0286793Y0439601D01*
X0286741Y0439734D01*
X0286692Y0439868D01*
X0286647Y0440003D01*
X0286605Y0440140D01*
X0286568Y0440278D01*
X0286534Y0440417D01*
X0286504Y0440557D01*
X0286479Y0440697D01*
X0286457Y0440839D01*
X0286439Y0440981D01*
X0286425Y0441123D01*
X0286415Y0441265D01*
X0286409Y0441408D01*
X0286407Y0441551D01*
D12*
X0269942Y0417543D03*
X0259942Y0417543D03*
X0249942Y0417543D03*
X0249942Y0400543D03*
X0259942Y0400543D03*
X0269942Y0400543D03*
X0239942Y0400543D03*
X0229942Y0400543D03*
X0219942Y0400543D03*
X0209942Y0400543D03*
X0199942Y0400543D03*
X0189942Y0400543D03*
X0179942Y0400543D03*
X0169942Y0400543D03*
X0169942Y0417543D03*
X0179942Y0417543D03*
X0189942Y0417543D03*
X0199942Y0417543D03*
X0209942Y0417543D03*
X0219942Y0417543D03*
X0229942Y0417543D03*
X0239942Y0417543D03*
X0159942Y0417543D03*
X0149942Y0417543D03*
X0139942Y0417543D03*
X0129942Y0417543D03*
X0119942Y0417543D03*
X0109942Y0417543D03*
X0099942Y0417543D03*
X0089942Y0417543D03*
X0089942Y0400543D03*
X0099942Y0400543D03*
X0109942Y0400543D03*
X0119942Y0400543D03*
X0129942Y0400543D03*
X0139942Y0400543D03*
X0149942Y0400543D03*
X0159942Y0400543D03*
X0079942Y0400543D03*
X0079942Y0417543D03*
D13*
X0074005Y0263795D03*
X0074005Y0207496D03*
X0165738Y0207496D03*
X0165738Y0221866D03*
X0165738Y0249425D03*
X0165738Y0263795D03*
D14*
X0174674Y0187260D02*
X0174676Y0187348D01*
X0174682Y0187436D01*
X0174692Y0187524D01*
X0174706Y0187612D01*
X0174723Y0187698D01*
X0174745Y0187784D01*
X0174770Y0187868D01*
X0174800Y0187952D01*
X0174832Y0188034D01*
X0174869Y0188114D01*
X0174909Y0188193D01*
X0174953Y0188270D01*
X0175000Y0188345D01*
X0175050Y0188417D01*
X0175104Y0188488D01*
X0175160Y0188555D01*
X0175220Y0188621D01*
X0175282Y0188683D01*
X0175348Y0188743D01*
X0175415Y0188799D01*
X0175486Y0188853D01*
X0175558Y0188903D01*
X0175633Y0188950D01*
X0175710Y0188994D01*
X0175789Y0189034D01*
X0175869Y0189071D01*
X0175951Y0189103D01*
X0176035Y0189133D01*
X0176119Y0189158D01*
X0176205Y0189180D01*
X0176291Y0189197D01*
X0176379Y0189211D01*
X0176467Y0189221D01*
X0176555Y0189227D01*
X0176643Y0189229D01*
X0176731Y0189227D01*
X0176819Y0189221D01*
X0176907Y0189211D01*
X0176995Y0189197D01*
X0177081Y0189180D01*
X0177167Y0189158D01*
X0177251Y0189133D01*
X0177335Y0189103D01*
X0177417Y0189071D01*
X0177497Y0189034D01*
X0177576Y0188994D01*
X0177653Y0188950D01*
X0177728Y0188903D01*
X0177800Y0188853D01*
X0177871Y0188799D01*
X0177938Y0188743D01*
X0178004Y0188683D01*
X0178066Y0188621D01*
X0178126Y0188555D01*
X0178182Y0188488D01*
X0178236Y0188417D01*
X0178286Y0188345D01*
X0178333Y0188270D01*
X0178377Y0188193D01*
X0178417Y0188114D01*
X0178454Y0188034D01*
X0178486Y0187952D01*
X0178516Y0187868D01*
X0178541Y0187784D01*
X0178563Y0187698D01*
X0178580Y0187612D01*
X0178594Y0187524D01*
X0178604Y0187436D01*
X0178610Y0187348D01*
X0178612Y0187260D01*
X0178610Y0187172D01*
X0178604Y0187084D01*
X0178594Y0186996D01*
X0178580Y0186908D01*
X0178563Y0186822D01*
X0178541Y0186736D01*
X0178516Y0186652D01*
X0178486Y0186568D01*
X0178454Y0186486D01*
X0178417Y0186406D01*
X0178377Y0186327D01*
X0178333Y0186250D01*
X0178286Y0186175D01*
X0178236Y0186103D01*
X0178182Y0186032D01*
X0178126Y0185965D01*
X0178066Y0185899D01*
X0178004Y0185837D01*
X0177938Y0185777D01*
X0177871Y0185721D01*
X0177800Y0185667D01*
X0177728Y0185617D01*
X0177653Y0185570D01*
X0177576Y0185526D01*
X0177497Y0185486D01*
X0177417Y0185449D01*
X0177335Y0185417D01*
X0177251Y0185387D01*
X0177167Y0185362D01*
X0177081Y0185340D01*
X0176995Y0185323D01*
X0176907Y0185309D01*
X0176819Y0185299D01*
X0176731Y0185293D01*
X0176643Y0185291D01*
X0176555Y0185293D01*
X0176467Y0185299D01*
X0176379Y0185309D01*
X0176291Y0185323D01*
X0176205Y0185340D01*
X0176119Y0185362D01*
X0176035Y0185387D01*
X0175951Y0185417D01*
X0175869Y0185449D01*
X0175789Y0185486D01*
X0175710Y0185526D01*
X0175633Y0185570D01*
X0175558Y0185617D01*
X0175486Y0185667D01*
X0175415Y0185721D01*
X0175348Y0185777D01*
X0175282Y0185837D01*
X0175220Y0185899D01*
X0175160Y0185965D01*
X0175104Y0186032D01*
X0175050Y0186103D01*
X0175000Y0186175D01*
X0174953Y0186250D01*
X0174909Y0186327D01*
X0174869Y0186406D01*
X0174832Y0186486D01*
X0174800Y0186568D01*
X0174770Y0186652D01*
X0174745Y0186736D01*
X0174723Y0186822D01*
X0174706Y0186908D01*
X0174692Y0186996D01*
X0174682Y0187084D01*
X0174676Y0187172D01*
X0174674Y0187260D01*
X0162863Y0128205D02*
X0162865Y0128293D01*
X0162871Y0128381D01*
X0162881Y0128469D01*
X0162895Y0128557D01*
X0162912Y0128643D01*
X0162934Y0128729D01*
X0162959Y0128813D01*
X0162989Y0128897D01*
X0163021Y0128979D01*
X0163058Y0129059D01*
X0163098Y0129138D01*
X0163142Y0129215D01*
X0163189Y0129290D01*
X0163239Y0129362D01*
X0163293Y0129433D01*
X0163349Y0129500D01*
X0163409Y0129566D01*
X0163471Y0129628D01*
X0163537Y0129688D01*
X0163604Y0129744D01*
X0163675Y0129798D01*
X0163747Y0129848D01*
X0163822Y0129895D01*
X0163899Y0129939D01*
X0163978Y0129979D01*
X0164058Y0130016D01*
X0164140Y0130048D01*
X0164224Y0130078D01*
X0164308Y0130103D01*
X0164394Y0130125D01*
X0164480Y0130142D01*
X0164568Y0130156D01*
X0164656Y0130166D01*
X0164744Y0130172D01*
X0164832Y0130174D01*
X0164920Y0130172D01*
X0165008Y0130166D01*
X0165096Y0130156D01*
X0165184Y0130142D01*
X0165270Y0130125D01*
X0165356Y0130103D01*
X0165440Y0130078D01*
X0165524Y0130048D01*
X0165606Y0130016D01*
X0165686Y0129979D01*
X0165765Y0129939D01*
X0165842Y0129895D01*
X0165917Y0129848D01*
X0165989Y0129798D01*
X0166060Y0129744D01*
X0166127Y0129688D01*
X0166193Y0129628D01*
X0166255Y0129566D01*
X0166315Y0129500D01*
X0166371Y0129433D01*
X0166425Y0129362D01*
X0166475Y0129290D01*
X0166522Y0129215D01*
X0166566Y0129138D01*
X0166606Y0129059D01*
X0166643Y0128979D01*
X0166675Y0128897D01*
X0166705Y0128813D01*
X0166730Y0128729D01*
X0166752Y0128643D01*
X0166769Y0128557D01*
X0166783Y0128469D01*
X0166793Y0128381D01*
X0166799Y0128293D01*
X0166801Y0128205D01*
X0166799Y0128117D01*
X0166793Y0128029D01*
X0166783Y0127941D01*
X0166769Y0127853D01*
X0166752Y0127767D01*
X0166730Y0127681D01*
X0166705Y0127597D01*
X0166675Y0127513D01*
X0166643Y0127431D01*
X0166606Y0127351D01*
X0166566Y0127272D01*
X0166522Y0127195D01*
X0166475Y0127120D01*
X0166425Y0127048D01*
X0166371Y0126977D01*
X0166315Y0126910D01*
X0166255Y0126844D01*
X0166193Y0126782D01*
X0166127Y0126722D01*
X0166060Y0126666D01*
X0165989Y0126612D01*
X0165917Y0126562D01*
X0165842Y0126515D01*
X0165765Y0126471D01*
X0165686Y0126431D01*
X0165606Y0126394D01*
X0165524Y0126362D01*
X0165440Y0126332D01*
X0165356Y0126307D01*
X0165270Y0126285D01*
X0165184Y0126268D01*
X0165096Y0126254D01*
X0165008Y0126244D01*
X0164920Y0126238D01*
X0164832Y0126236D01*
X0164744Y0126238D01*
X0164656Y0126244D01*
X0164568Y0126254D01*
X0164480Y0126268D01*
X0164394Y0126285D01*
X0164308Y0126307D01*
X0164224Y0126332D01*
X0164140Y0126362D01*
X0164058Y0126394D01*
X0163978Y0126431D01*
X0163899Y0126471D01*
X0163822Y0126515D01*
X0163747Y0126562D01*
X0163675Y0126612D01*
X0163604Y0126666D01*
X0163537Y0126722D01*
X0163471Y0126782D01*
X0163409Y0126844D01*
X0163349Y0126910D01*
X0163293Y0126977D01*
X0163239Y0127048D01*
X0163189Y0127120D01*
X0163142Y0127195D01*
X0163098Y0127272D01*
X0163058Y0127351D01*
X0163021Y0127431D01*
X0162989Y0127513D01*
X0162959Y0127597D01*
X0162934Y0127681D01*
X0162912Y0127767D01*
X0162895Y0127853D01*
X0162881Y0127941D01*
X0162871Y0128029D01*
X0162865Y0128117D01*
X0162863Y0128205D01*
X0141741Y0080173D02*
X0141743Y0080261D01*
X0141749Y0080349D01*
X0141759Y0080437D01*
X0141773Y0080525D01*
X0141790Y0080611D01*
X0141812Y0080697D01*
X0141837Y0080781D01*
X0141867Y0080865D01*
X0141899Y0080947D01*
X0141936Y0081027D01*
X0141976Y0081106D01*
X0142020Y0081183D01*
X0142067Y0081258D01*
X0142117Y0081330D01*
X0142171Y0081401D01*
X0142227Y0081468D01*
X0142287Y0081534D01*
X0142349Y0081596D01*
X0142415Y0081656D01*
X0142482Y0081712D01*
X0142553Y0081766D01*
X0142625Y0081816D01*
X0142700Y0081863D01*
X0142777Y0081907D01*
X0142856Y0081947D01*
X0142936Y0081984D01*
X0143018Y0082016D01*
X0143102Y0082046D01*
X0143186Y0082071D01*
X0143272Y0082093D01*
X0143358Y0082110D01*
X0143446Y0082124D01*
X0143534Y0082134D01*
X0143622Y0082140D01*
X0143710Y0082142D01*
X0143798Y0082140D01*
X0143886Y0082134D01*
X0143974Y0082124D01*
X0144062Y0082110D01*
X0144148Y0082093D01*
X0144234Y0082071D01*
X0144318Y0082046D01*
X0144402Y0082016D01*
X0144484Y0081984D01*
X0144564Y0081947D01*
X0144643Y0081907D01*
X0144720Y0081863D01*
X0144795Y0081816D01*
X0144867Y0081766D01*
X0144938Y0081712D01*
X0145005Y0081656D01*
X0145071Y0081596D01*
X0145133Y0081534D01*
X0145193Y0081468D01*
X0145249Y0081401D01*
X0145303Y0081330D01*
X0145353Y0081258D01*
X0145400Y0081183D01*
X0145444Y0081106D01*
X0145484Y0081027D01*
X0145521Y0080947D01*
X0145553Y0080865D01*
X0145583Y0080781D01*
X0145608Y0080697D01*
X0145630Y0080611D01*
X0145647Y0080525D01*
X0145661Y0080437D01*
X0145671Y0080349D01*
X0145677Y0080261D01*
X0145679Y0080173D01*
X0145677Y0080085D01*
X0145671Y0079997D01*
X0145661Y0079909D01*
X0145647Y0079821D01*
X0145630Y0079735D01*
X0145608Y0079649D01*
X0145583Y0079565D01*
X0145553Y0079481D01*
X0145521Y0079399D01*
X0145484Y0079319D01*
X0145444Y0079240D01*
X0145400Y0079163D01*
X0145353Y0079088D01*
X0145303Y0079016D01*
X0145249Y0078945D01*
X0145193Y0078878D01*
X0145133Y0078812D01*
X0145071Y0078750D01*
X0145005Y0078690D01*
X0144938Y0078634D01*
X0144867Y0078580D01*
X0144795Y0078530D01*
X0144720Y0078483D01*
X0144643Y0078439D01*
X0144564Y0078399D01*
X0144484Y0078362D01*
X0144402Y0078330D01*
X0144318Y0078300D01*
X0144234Y0078275D01*
X0144148Y0078253D01*
X0144062Y0078236D01*
X0143974Y0078222D01*
X0143886Y0078212D01*
X0143798Y0078206D01*
X0143710Y0078204D01*
X0143622Y0078206D01*
X0143534Y0078212D01*
X0143446Y0078222D01*
X0143358Y0078236D01*
X0143272Y0078253D01*
X0143186Y0078275D01*
X0143102Y0078300D01*
X0143018Y0078330D01*
X0142936Y0078362D01*
X0142856Y0078399D01*
X0142777Y0078439D01*
X0142700Y0078483D01*
X0142625Y0078530D01*
X0142553Y0078580D01*
X0142482Y0078634D01*
X0142415Y0078690D01*
X0142349Y0078750D01*
X0142287Y0078812D01*
X0142227Y0078878D01*
X0142171Y0078945D01*
X0142117Y0079016D01*
X0142067Y0079088D01*
X0142020Y0079163D01*
X0141976Y0079240D01*
X0141936Y0079319D01*
X0141899Y0079399D01*
X0141867Y0079481D01*
X0141837Y0079565D01*
X0141812Y0079649D01*
X0141790Y0079735D01*
X0141773Y0079821D01*
X0141759Y0079909D01*
X0141749Y0079997D01*
X0141743Y0080085D01*
X0141741Y0080173D01*
X0187410Y0080173D02*
X0187412Y0080261D01*
X0187418Y0080349D01*
X0187428Y0080437D01*
X0187442Y0080525D01*
X0187459Y0080611D01*
X0187481Y0080697D01*
X0187506Y0080781D01*
X0187536Y0080865D01*
X0187568Y0080947D01*
X0187605Y0081027D01*
X0187645Y0081106D01*
X0187689Y0081183D01*
X0187736Y0081258D01*
X0187786Y0081330D01*
X0187840Y0081401D01*
X0187896Y0081468D01*
X0187956Y0081534D01*
X0188018Y0081596D01*
X0188084Y0081656D01*
X0188151Y0081712D01*
X0188222Y0081766D01*
X0188294Y0081816D01*
X0188369Y0081863D01*
X0188446Y0081907D01*
X0188525Y0081947D01*
X0188605Y0081984D01*
X0188687Y0082016D01*
X0188771Y0082046D01*
X0188855Y0082071D01*
X0188941Y0082093D01*
X0189027Y0082110D01*
X0189115Y0082124D01*
X0189203Y0082134D01*
X0189291Y0082140D01*
X0189379Y0082142D01*
X0189467Y0082140D01*
X0189555Y0082134D01*
X0189643Y0082124D01*
X0189731Y0082110D01*
X0189817Y0082093D01*
X0189903Y0082071D01*
X0189987Y0082046D01*
X0190071Y0082016D01*
X0190153Y0081984D01*
X0190233Y0081947D01*
X0190312Y0081907D01*
X0190389Y0081863D01*
X0190464Y0081816D01*
X0190536Y0081766D01*
X0190607Y0081712D01*
X0190674Y0081656D01*
X0190740Y0081596D01*
X0190802Y0081534D01*
X0190862Y0081468D01*
X0190918Y0081401D01*
X0190972Y0081330D01*
X0191022Y0081258D01*
X0191069Y0081183D01*
X0191113Y0081106D01*
X0191153Y0081027D01*
X0191190Y0080947D01*
X0191222Y0080865D01*
X0191252Y0080781D01*
X0191277Y0080697D01*
X0191299Y0080611D01*
X0191316Y0080525D01*
X0191330Y0080437D01*
X0191340Y0080349D01*
X0191346Y0080261D01*
X0191348Y0080173D01*
X0191346Y0080085D01*
X0191340Y0079997D01*
X0191330Y0079909D01*
X0191316Y0079821D01*
X0191299Y0079735D01*
X0191277Y0079649D01*
X0191252Y0079565D01*
X0191222Y0079481D01*
X0191190Y0079399D01*
X0191153Y0079319D01*
X0191113Y0079240D01*
X0191069Y0079163D01*
X0191022Y0079088D01*
X0190972Y0079016D01*
X0190918Y0078945D01*
X0190862Y0078878D01*
X0190802Y0078812D01*
X0190740Y0078750D01*
X0190674Y0078690D01*
X0190607Y0078634D01*
X0190536Y0078580D01*
X0190464Y0078530D01*
X0190389Y0078483D01*
X0190312Y0078439D01*
X0190233Y0078399D01*
X0190153Y0078362D01*
X0190071Y0078330D01*
X0189987Y0078300D01*
X0189903Y0078275D01*
X0189817Y0078253D01*
X0189731Y0078236D01*
X0189643Y0078222D01*
X0189555Y0078212D01*
X0189467Y0078206D01*
X0189379Y0078204D01*
X0189291Y0078206D01*
X0189203Y0078212D01*
X0189115Y0078222D01*
X0189027Y0078236D01*
X0188941Y0078253D01*
X0188855Y0078275D01*
X0188771Y0078300D01*
X0188687Y0078330D01*
X0188605Y0078362D01*
X0188525Y0078399D01*
X0188446Y0078439D01*
X0188369Y0078483D01*
X0188294Y0078530D01*
X0188222Y0078580D01*
X0188151Y0078634D01*
X0188084Y0078690D01*
X0188018Y0078750D01*
X0187956Y0078812D01*
X0187896Y0078878D01*
X0187840Y0078945D01*
X0187786Y0079016D01*
X0187736Y0079088D01*
X0187689Y0079163D01*
X0187645Y0079240D01*
X0187605Y0079319D01*
X0187568Y0079399D01*
X0187536Y0079481D01*
X0187506Y0079565D01*
X0187481Y0079649D01*
X0187459Y0079735D01*
X0187442Y0079821D01*
X0187428Y0079909D01*
X0187418Y0079997D01*
X0187412Y0080085D01*
X0187410Y0080173D01*
X0217981Y0151827D02*
X0217983Y0151915D01*
X0217989Y0152003D01*
X0217999Y0152091D01*
X0218013Y0152179D01*
X0218030Y0152265D01*
X0218052Y0152351D01*
X0218077Y0152435D01*
X0218107Y0152519D01*
X0218139Y0152601D01*
X0218176Y0152681D01*
X0218216Y0152760D01*
X0218260Y0152837D01*
X0218307Y0152912D01*
X0218357Y0152984D01*
X0218411Y0153055D01*
X0218467Y0153122D01*
X0218527Y0153188D01*
X0218589Y0153250D01*
X0218655Y0153310D01*
X0218722Y0153366D01*
X0218793Y0153420D01*
X0218865Y0153470D01*
X0218940Y0153517D01*
X0219017Y0153561D01*
X0219096Y0153601D01*
X0219176Y0153638D01*
X0219258Y0153670D01*
X0219342Y0153700D01*
X0219426Y0153725D01*
X0219512Y0153747D01*
X0219598Y0153764D01*
X0219686Y0153778D01*
X0219774Y0153788D01*
X0219862Y0153794D01*
X0219950Y0153796D01*
X0220038Y0153794D01*
X0220126Y0153788D01*
X0220214Y0153778D01*
X0220302Y0153764D01*
X0220388Y0153747D01*
X0220474Y0153725D01*
X0220558Y0153700D01*
X0220642Y0153670D01*
X0220724Y0153638D01*
X0220804Y0153601D01*
X0220883Y0153561D01*
X0220960Y0153517D01*
X0221035Y0153470D01*
X0221107Y0153420D01*
X0221178Y0153366D01*
X0221245Y0153310D01*
X0221311Y0153250D01*
X0221373Y0153188D01*
X0221433Y0153122D01*
X0221489Y0153055D01*
X0221543Y0152984D01*
X0221593Y0152912D01*
X0221640Y0152837D01*
X0221684Y0152760D01*
X0221724Y0152681D01*
X0221761Y0152601D01*
X0221793Y0152519D01*
X0221823Y0152435D01*
X0221848Y0152351D01*
X0221870Y0152265D01*
X0221887Y0152179D01*
X0221901Y0152091D01*
X0221911Y0152003D01*
X0221917Y0151915D01*
X0221919Y0151827D01*
X0221917Y0151739D01*
X0221911Y0151651D01*
X0221901Y0151563D01*
X0221887Y0151475D01*
X0221870Y0151389D01*
X0221848Y0151303D01*
X0221823Y0151219D01*
X0221793Y0151135D01*
X0221761Y0151053D01*
X0221724Y0150973D01*
X0221684Y0150894D01*
X0221640Y0150817D01*
X0221593Y0150742D01*
X0221543Y0150670D01*
X0221489Y0150599D01*
X0221433Y0150532D01*
X0221373Y0150466D01*
X0221311Y0150404D01*
X0221245Y0150344D01*
X0221178Y0150288D01*
X0221107Y0150234D01*
X0221035Y0150184D01*
X0220960Y0150137D01*
X0220883Y0150093D01*
X0220804Y0150053D01*
X0220724Y0150016D01*
X0220642Y0149984D01*
X0220558Y0149954D01*
X0220474Y0149929D01*
X0220388Y0149907D01*
X0220302Y0149890D01*
X0220214Y0149876D01*
X0220126Y0149866D01*
X0220038Y0149860D01*
X0219950Y0149858D01*
X0219862Y0149860D01*
X0219774Y0149866D01*
X0219686Y0149876D01*
X0219598Y0149890D01*
X0219512Y0149907D01*
X0219426Y0149929D01*
X0219342Y0149954D01*
X0219258Y0149984D01*
X0219176Y0150016D01*
X0219096Y0150053D01*
X0219017Y0150093D01*
X0218940Y0150137D01*
X0218865Y0150184D01*
X0218793Y0150234D01*
X0218722Y0150288D01*
X0218655Y0150344D01*
X0218589Y0150404D01*
X0218527Y0150466D01*
X0218467Y0150532D01*
X0218411Y0150599D01*
X0218357Y0150670D01*
X0218307Y0150742D01*
X0218260Y0150817D01*
X0218216Y0150894D01*
X0218176Y0150973D01*
X0218139Y0151053D01*
X0218107Y0151135D01*
X0218077Y0151219D01*
X0218052Y0151303D01*
X0218030Y0151389D01*
X0218013Y0151475D01*
X0217999Y0151563D01*
X0217989Y0151651D01*
X0217983Y0151739D01*
X0217981Y0151827D01*
X0229792Y0210882D02*
X0229794Y0210970D01*
X0229800Y0211058D01*
X0229810Y0211146D01*
X0229824Y0211234D01*
X0229841Y0211320D01*
X0229863Y0211406D01*
X0229888Y0211490D01*
X0229918Y0211574D01*
X0229950Y0211656D01*
X0229987Y0211736D01*
X0230027Y0211815D01*
X0230071Y0211892D01*
X0230118Y0211967D01*
X0230168Y0212039D01*
X0230222Y0212110D01*
X0230278Y0212177D01*
X0230338Y0212243D01*
X0230400Y0212305D01*
X0230466Y0212365D01*
X0230533Y0212421D01*
X0230604Y0212475D01*
X0230676Y0212525D01*
X0230751Y0212572D01*
X0230828Y0212616D01*
X0230907Y0212656D01*
X0230987Y0212693D01*
X0231069Y0212725D01*
X0231153Y0212755D01*
X0231237Y0212780D01*
X0231323Y0212802D01*
X0231409Y0212819D01*
X0231497Y0212833D01*
X0231585Y0212843D01*
X0231673Y0212849D01*
X0231761Y0212851D01*
X0231849Y0212849D01*
X0231937Y0212843D01*
X0232025Y0212833D01*
X0232113Y0212819D01*
X0232199Y0212802D01*
X0232285Y0212780D01*
X0232369Y0212755D01*
X0232453Y0212725D01*
X0232535Y0212693D01*
X0232615Y0212656D01*
X0232694Y0212616D01*
X0232771Y0212572D01*
X0232846Y0212525D01*
X0232918Y0212475D01*
X0232989Y0212421D01*
X0233056Y0212365D01*
X0233122Y0212305D01*
X0233184Y0212243D01*
X0233244Y0212177D01*
X0233300Y0212110D01*
X0233354Y0212039D01*
X0233404Y0211967D01*
X0233451Y0211892D01*
X0233495Y0211815D01*
X0233535Y0211736D01*
X0233572Y0211656D01*
X0233604Y0211574D01*
X0233634Y0211490D01*
X0233659Y0211406D01*
X0233681Y0211320D01*
X0233698Y0211234D01*
X0233712Y0211146D01*
X0233722Y0211058D01*
X0233728Y0210970D01*
X0233730Y0210882D01*
X0233728Y0210794D01*
X0233722Y0210706D01*
X0233712Y0210618D01*
X0233698Y0210530D01*
X0233681Y0210444D01*
X0233659Y0210358D01*
X0233634Y0210274D01*
X0233604Y0210190D01*
X0233572Y0210108D01*
X0233535Y0210028D01*
X0233495Y0209949D01*
X0233451Y0209872D01*
X0233404Y0209797D01*
X0233354Y0209725D01*
X0233300Y0209654D01*
X0233244Y0209587D01*
X0233184Y0209521D01*
X0233122Y0209459D01*
X0233056Y0209399D01*
X0232989Y0209343D01*
X0232918Y0209289D01*
X0232846Y0209239D01*
X0232771Y0209192D01*
X0232694Y0209148D01*
X0232615Y0209108D01*
X0232535Y0209071D01*
X0232453Y0209039D01*
X0232369Y0209009D01*
X0232285Y0208984D01*
X0232199Y0208962D01*
X0232113Y0208945D01*
X0232025Y0208931D01*
X0231937Y0208921D01*
X0231849Y0208915D01*
X0231761Y0208913D01*
X0231673Y0208915D01*
X0231585Y0208921D01*
X0231497Y0208931D01*
X0231409Y0208945D01*
X0231323Y0208962D01*
X0231237Y0208984D01*
X0231153Y0209009D01*
X0231069Y0209039D01*
X0230987Y0209071D01*
X0230907Y0209108D01*
X0230828Y0209148D01*
X0230751Y0209192D01*
X0230676Y0209239D01*
X0230604Y0209289D01*
X0230533Y0209343D01*
X0230466Y0209399D01*
X0230400Y0209459D01*
X0230338Y0209521D01*
X0230278Y0209587D01*
X0230222Y0209654D01*
X0230168Y0209725D01*
X0230118Y0209797D01*
X0230071Y0209872D01*
X0230027Y0209949D01*
X0229987Y0210028D01*
X0229950Y0210108D01*
X0229918Y0210190D01*
X0229888Y0210274D01*
X0229863Y0210358D01*
X0229841Y0210444D01*
X0229824Y0210530D01*
X0229810Y0210618D01*
X0229800Y0210706D01*
X0229794Y0210794D01*
X0229792Y0210882D01*
X0273296Y0169504D02*
X0273298Y0169592D01*
X0273304Y0169680D01*
X0273314Y0169768D01*
X0273328Y0169856D01*
X0273345Y0169942D01*
X0273367Y0170028D01*
X0273392Y0170112D01*
X0273422Y0170196D01*
X0273454Y0170278D01*
X0273491Y0170358D01*
X0273531Y0170437D01*
X0273575Y0170514D01*
X0273622Y0170589D01*
X0273672Y0170661D01*
X0273726Y0170732D01*
X0273782Y0170799D01*
X0273842Y0170865D01*
X0273904Y0170927D01*
X0273970Y0170987D01*
X0274037Y0171043D01*
X0274108Y0171097D01*
X0274180Y0171147D01*
X0274255Y0171194D01*
X0274332Y0171238D01*
X0274411Y0171278D01*
X0274491Y0171315D01*
X0274573Y0171347D01*
X0274657Y0171377D01*
X0274741Y0171402D01*
X0274827Y0171424D01*
X0274913Y0171441D01*
X0275001Y0171455D01*
X0275089Y0171465D01*
X0275177Y0171471D01*
X0275265Y0171473D01*
X0275353Y0171471D01*
X0275441Y0171465D01*
X0275529Y0171455D01*
X0275617Y0171441D01*
X0275703Y0171424D01*
X0275789Y0171402D01*
X0275873Y0171377D01*
X0275957Y0171347D01*
X0276039Y0171315D01*
X0276119Y0171278D01*
X0276198Y0171238D01*
X0276275Y0171194D01*
X0276350Y0171147D01*
X0276422Y0171097D01*
X0276493Y0171043D01*
X0276560Y0170987D01*
X0276626Y0170927D01*
X0276688Y0170865D01*
X0276748Y0170799D01*
X0276804Y0170732D01*
X0276858Y0170661D01*
X0276908Y0170589D01*
X0276955Y0170514D01*
X0276999Y0170437D01*
X0277039Y0170358D01*
X0277076Y0170278D01*
X0277108Y0170196D01*
X0277138Y0170112D01*
X0277163Y0170028D01*
X0277185Y0169942D01*
X0277202Y0169856D01*
X0277216Y0169768D01*
X0277226Y0169680D01*
X0277232Y0169592D01*
X0277234Y0169504D01*
X0277232Y0169416D01*
X0277226Y0169328D01*
X0277216Y0169240D01*
X0277202Y0169152D01*
X0277185Y0169066D01*
X0277163Y0168980D01*
X0277138Y0168896D01*
X0277108Y0168812D01*
X0277076Y0168730D01*
X0277039Y0168650D01*
X0276999Y0168571D01*
X0276955Y0168494D01*
X0276908Y0168419D01*
X0276858Y0168347D01*
X0276804Y0168276D01*
X0276748Y0168209D01*
X0276688Y0168143D01*
X0276626Y0168081D01*
X0276560Y0168021D01*
X0276493Y0167965D01*
X0276422Y0167911D01*
X0276350Y0167861D01*
X0276275Y0167814D01*
X0276198Y0167770D01*
X0276119Y0167730D01*
X0276039Y0167693D01*
X0275957Y0167661D01*
X0275873Y0167631D01*
X0275789Y0167606D01*
X0275703Y0167584D01*
X0275617Y0167567D01*
X0275529Y0167553D01*
X0275441Y0167543D01*
X0275353Y0167537D01*
X0275265Y0167535D01*
X0275177Y0167537D01*
X0275089Y0167543D01*
X0275001Y0167553D01*
X0274913Y0167567D01*
X0274827Y0167584D01*
X0274741Y0167606D01*
X0274657Y0167631D01*
X0274573Y0167661D01*
X0274491Y0167693D01*
X0274411Y0167730D01*
X0274332Y0167770D01*
X0274255Y0167814D01*
X0274180Y0167861D01*
X0274108Y0167911D01*
X0274037Y0167965D01*
X0273970Y0168021D01*
X0273904Y0168081D01*
X0273842Y0168143D01*
X0273782Y0168209D01*
X0273726Y0168276D01*
X0273672Y0168347D01*
X0273622Y0168419D01*
X0273575Y0168494D01*
X0273531Y0168571D01*
X0273491Y0168650D01*
X0273454Y0168730D01*
X0273422Y0168812D01*
X0273392Y0168896D01*
X0273367Y0168980D01*
X0273345Y0169066D01*
X0273328Y0169152D01*
X0273314Y0169240D01*
X0273304Y0169328D01*
X0273298Y0169416D01*
X0273296Y0169504D01*
X0261288Y0112457D02*
X0261290Y0112545D01*
X0261296Y0112633D01*
X0261306Y0112721D01*
X0261320Y0112809D01*
X0261337Y0112895D01*
X0261359Y0112981D01*
X0261384Y0113065D01*
X0261414Y0113149D01*
X0261446Y0113231D01*
X0261483Y0113311D01*
X0261523Y0113390D01*
X0261567Y0113467D01*
X0261614Y0113542D01*
X0261664Y0113614D01*
X0261718Y0113685D01*
X0261774Y0113752D01*
X0261834Y0113818D01*
X0261896Y0113880D01*
X0261962Y0113940D01*
X0262029Y0113996D01*
X0262100Y0114050D01*
X0262172Y0114100D01*
X0262247Y0114147D01*
X0262324Y0114191D01*
X0262403Y0114231D01*
X0262483Y0114268D01*
X0262565Y0114300D01*
X0262649Y0114330D01*
X0262733Y0114355D01*
X0262819Y0114377D01*
X0262905Y0114394D01*
X0262993Y0114408D01*
X0263081Y0114418D01*
X0263169Y0114424D01*
X0263257Y0114426D01*
X0263345Y0114424D01*
X0263433Y0114418D01*
X0263521Y0114408D01*
X0263609Y0114394D01*
X0263695Y0114377D01*
X0263781Y0114355D01*
X0263865Y0114330D01*
X0263949Y0114300D01*
X0264031Y0114268D01*
X0264111Y0114231D01*
X0264190Y0114191D01*
X0264267Y0114147D01*
X0264342Y0114100D01*
X0264414Y0114050D01*
X0264485Y0113996D01*
X0264552Y0113940D01*
X0264618Y0113880D01*
X0264680Y0113818D01*
X0264740Y0113752D01*
X0264796Y0113685D01*
X0264850Y0113614D01*
X0264900Y0113542D01*
X0264947Y0113467D01*
X0264991Y0113390D01*
X0265031Y0113311D01*
X0265068Y0113231D01*
X0265100Y0113149D01*
X0265130Y0113065D01*
X0265155Y0112981D01*
X0265177Y0112895D01*
X0265194Y0112809D01*
X0265208Y0112721D01*
X0265218Y0112633D01*
X0265224Y0112545D01*
X0265226Y0112457D01*
X0265224Y0112369D01*
X0265218Y0112281D01*
X0265208Y0112193D01*
X0265194Y0112105D01*
X0265177Y0112019D01*
X0265155Y0111933D01*
X0265130Y0111849D01*
X0265100Y0111765D01*
X0265068Y0111683D01*
X0265031Y0111603D01*
X0264991Y0111524D01*
X0264947Y0111447D01*
X0264900Y0111372D01*
X0264850Y0111300D01*
X0264796Y0111229D01*
X0264740Y0111162D01*
X0264680Y0111096D01*
X0264618Y0111034D01*
X0264552Y0110974D01*
X0264485Y0110918D01*
X0264414Y0110864D01*
X0264342Y0110814D01*
X0264267Y0110767D01*
X0264190Y0110723D01*
X0264111Y0110683D01*
X0264031Y0110646D01*
X0263949Y0110614D01*
X0263865Y0110584D01*
X0263781Y0110559D01*
X0263695Y0110537D01*
X0263609Y0110520D01*
X0263521Y0110506D01*
X0263433Y0110496D01*
X0263345Y0110490D01*
X0263257Y0110488D01*
X0263169Y0110490D01*
X0263081Y0110496D01*
X0262993Y0110506D01*
X0262905Y0110520D01*
X0262819Y0110537D01*
X0262733Y0110559D01*
X0262649Y0110584D01*
X0262565Y0110614D01*
X0262483Y0110646D01*
X0262403Y0110683D01*
X0262324Y0110723D01*
X0262247Y0110767D01*
X0262172Y0110814D01*
X0262100Y0110864D01*
X0262029Y0110918D01*
X0261962Y0110974D01*
X0261896Y0111034D01*
X0261834Y0111096D01*
X0261774Y0111162D01*
X0261718Y0111229D01*
X0261664Y0111300D01*
X0261614Y0111372D01*
X0261567Y0111447D01*
X0261523Y0111524D01*
X0261483Y0111603D01*
X0261446Y0111683D01*
X0261414Y0111765D01*
X0261384Y0111849D01*
X0261359Y0111933D01*
X0261337Y0112019D01*
X0261320Y0112105D01*
X0261306Y0112193D01*
X0261296Y0112281D01*
X0261290Y0112369D01*
X0261288Y0112457D01*
X0106879Y0162417D02*
X0106881Y0162505D01*
X0106887Y0162593D01*
X0106897Y0162681D01*
X0106911Y0162769D01*
X0106928Y0162855D01*
X0106950Y0162941D01*
X0106975Y0163025D01*
X0107005Y0163109D01*
X0107037Y0163191D01*
X0107074Y0163271D01*
X0107114Y0163350D01*
X0107158Y0163427D01*
X0107205Y0163502D01*
X0107255Y0163574D01*
X0107309Y0163645D01*
X0107365Y0163712D01*
X0107425Y0163778D01*
X0107487Y0163840D01*
X0107553Y0163900D01*
X0107620Y0163956D01*
X0107691Y0164010D01*
X0107763Y0164060D01*
X0107838Y0164107D01*
X0107915Y0164151D01*
X0107994Y0164191D01*
X0108074Y0164228D01*
X0108156Y0164260D01*
X0108240Y0164290D01*
X0108324Y0164315D01*
X0108410Y0164337D01*
X0108496Y0164354D01*
X0108584Y0164368D01*
X0108672Y0164378D01*
X0108760Y0164384D01*
X0108848Y0164386D01*
X0108936Y0164384D01*
X0109024Y0164378D01*
X0109112Y0164368D01*
X0109200Y0164354D01*
X0109286Y0164337D01*
X0109372Y0164315D01*
X0109456Y0164290D01*
X0109540Y0164260D01*
X0109622Y0164228D01*
X0109702Y0164191D01*
X0109781Y0164151D01*
X0109858Y0164107D01*
X0109933Y0164060D01*
X0110005Y0164010D01*
X0110076Y0163956D01*
X0110143Y0163900D01*
X0110209Y0163840D01*
X0110271Y0163778D01*
X0110331Y0163712D01*
X0110387Y0163645D01*
X0110441Y0163574D01*
X0110491Y0163502D01*
X0110538Y0163427D01*
X0110582Y0163350D01*
X0110622Y0163271D01*
X0110659Y0163191D01*
X0110691Y0163109D01*
X0110721Y0163025D01*
X0110746Y0162941D01*
X0110768Y0162855D01*
X0110785Y0162769D01*
X0110799Y0162681D01*
X0110809Y0162593D01*
X0110815Y0162505D01*
X0110817Y0162417D01*
X0110815Y0162329D01*
X0110809Y0162241D01*
X0110799Y0162153D01*
X0110785Y0162065D01*
X0110768Y0161979D01*
X0110746Y0161893D01*
X0110721Y0161809D01*
X0110691Y0161725D01*
X0110659Y0161643D01*
X0110622Y0161563D01*
X0110582Y0161484D01*
X0110538Y0161407D01*
X0110491Y0161332D01*
X0110441Y0161260D01*
X0110387Y0161189D01*
X0110331Y0161122D01*
X0110271Y0161056D01*
X0110209Y0160994D01*
X0110143Y0160934D01*
X0110076Y0160878D01*
X0110005Y0160824D01*
X0109933Y0160774D01*
X0109858Y0160727D01*
X0109781Y0160683D01*
X0109702Y0160643D01*
X0109622Y0160606D01*
X0109540Y0160574D01*
X0109456Y0160544D01*
X0109372Y0160519D01*
X0109286Y0160497D01*
X0109200Y0160480D01*
X0109112Y0160466D01*
X0109024Y0160456D01*
X0108936Y0160450D01*
X0108848Y0160448D01*
X0108760Y0160450D01*
X0108672Y0160456D01*
X0108584Y0160466D01*
X0108496Y0160480D01*
X0108410Y0160497D01*
X0108324Y0160519D01*
X0108240Y0160544D01*
X0108156Y0160574D01*
X0108074Y0160606D01*
X0107994Y0160643D01*
X0107915Y0160683D01*
X0107838Y0160727D01*
X0107763Y0160774D01*
X0107691Y0160824D01*
X0107620Y0160878D01*
X0107553Y0160934D01*
X0107487Y0160994D01*
X0107425Y0161056D01*
X0107365Y0161122D01*
X0107309Y0161189D01*
X0107255Y0161260D01*
X0107205Y0161332D01*
X0107158Y0161407D01*
X0107114Y0161484D01*
X0107074Y0161563D01*
X0107037Y0161643D01*
X0107005Y0161725D01*
X0106975Y0161809D01*
X0106950Y0161893D01*
X0106928Y0161979D01*
X0106911Y0162065D01*
X0106897Y0162153D01*
X0106887Y0162241D01*
X0106881Y0162329D01*
X0106879Y0162417D01*
X0075383Y0130921D02*
X0075385Y0131009D01*
X0075391Y0131097D01*
X0075401Y0131185D01*
X0075415Y0131273D01*
X0075432Y0131359D01*
X0075454Y0131445D01*
X0075479Y0131529D01*
X0075509Y0131613D01*
X0075541Y0131695D01*
X0075578Y0131775D01*
X0075618Y0131854D01*
X0075662Y0131931D01*
X0075709Y0132006D01*
X0075759Y0132078D01*
X0075813Y0132149D01*
X0075869Y0132216D01*
X0075929Y0132282D01*
X0075991Y0132344D01*
X0076057Y0132404D01*
X0076124Y0132460D01*
X0076195Y0132514D01*
X0076267Y0132564D01*
X0076342Y0132611D01*
X0076419Y0132655D01*
X0076498Y0132695D01*
X0076578Y0132732D01*
X0076660Y0132764D01*
X0076744Y0132794D01*
X0076828Y0132819D01*
X0076914Y0132841D01*
X0077000Y0132858D01*
X0077088Y0132872D01*
X0077176Y0132882D01*
X0077264Y0132888D01*
X0077352Y0132890D01*
X0077440Y0132888D01*
X0077528Y0132882D01*
X0077616Y0132872D01*
X0077704Y0132858D01*
X0077790Y0132841D01*
X0077876Y0132819D01*
X0077960Y0132794D01*
X0078044Y0132764D01*
X0078126Y0132732D01*
X0078206Y0132695D01*
X0078285Y0132655D01*
X0078362Y0132611D01*
X0078437Y0132564D01*
X0078509Y0132514D01*
X0078580Y0132460D01*
X0078647Y0132404D01*
X0078713Y0132344D01*
X0078775Y0132282D01*
X0078835Y0132216D01*
X0078891Y0132149D01*
X0078945Y0132078D01*
X0078995Y0132006D01*
X0079042Y0131931D01*
X0079086Y0131854D01*
X0079126Y0131775D01*
X0079163Y0131695D01*
X0079195Y0131613D01*
X0079225Y0131529D01*
X0079250Y0131445D01*
X0079272Y0131359D01*
X0079289Y0131273D01*
X0079303Y0131185D01*
X0079313Y0131097D01*
X0079319Y0131009D01*
X0079321Y0130921D01*
X0079319Y0130833D01*
X0079313Y0130745D01*
X0079303Y0130657D01*
X0079289Y0130569D01*
X0079272Y0130483D01*
X0079250Y0130397D01*
X0079225Y0130313D01*
X0079195Y0130229D01*
X0079163Y0130147D01*
X0079126Y0130067D01*
X0079086Y0129988D01*
X0079042Y0129911D01*
X0078995Y0129836D01*
X0078945Y0129764D01*
X0078891Y0129693D01*
X0078835Y0129626D01*
X0078775Y0129560D01*
X0078713Y0129498D01*
X0078647Y0129438D01*
X0078580Y0129382D01*
X0078509Y0129328D01*
X0078437Y0129278D01*
X0078362Y0129231D01*
X0078285Y0129187D01*
X0078206Y0129147D01*
X0078126Y0129110D01*
X0078044Y0129078D01*
X0077960Y0129048D01*
X0077876Y0129023D01*
X0077790Y0129001D01*
X0077704Y0128984D01*
X0077616Y0128970D01*
X0077528Y0128960D01*
X0077440Y0128954D01*
X0077352Y0128952D01*
X0077264Y0128954D01*
X0077176Y0128960D01*
X0077088Y0128970D01*
X0077000Y0128984D01*
X0076914Y0129001D01*
X0076828Y0129023D01*
X0076744Y0129048D01*
X0076660Y0129078D01*
X0076578Y0129110D01*
X0076498Y0129147D01*
X0076419Y0129187D01*
X0076342Y0129231D01*
X0076267Y0129278D01*
X0076195Y0129328D01*
X0076124Y0129382D01*
X0076057Y0129438D01*
X0075991Y0129498D01*
X0075929Y0129560D01*
X0075869Y0129626D01*
X0075813Y0129693D01*
X0075759Y0129764D01*
X0075709Y0129836D01*
X0075662Y0129911D01*
X0075618Y0129988D01*
X0075578Y0130067D01*
X0075541Y0130147D01*
X0075509Y0130229D01*
X0075479Y0130313D01*
X0075454Y0130397D01*
X0075432Y0130483D01*
X0075415Y0130569D01*
X0075401Y0130657D01*
X0075391Y0130745D01*
X0075385Y0130833D01*
X0075383Y0130921D01*
X0043887Y0162417D02*
X0043889Y0162505D01*
X0043895Y0162593D01*
X0043905Y0162681D01*
X0043919Y0162769D01*
X0043936Y0162855D01*
X0043958Y0162941D01*
X0043983Y0163025D01*
X0044013Y0163109D01*
X0044045Y0163191D01*
X0044082Y0163271D01*
X0044122Y0163350D01*
X0044166Y0163427D01*
X0044213Y0163502D01*
X0044263Y0163574D01*
X0044317Y0163645D01*
X0044373Y0163712D01*
X0044433Y0163778D01*
X0044495Y0163840D01*
X0044561Y0163900D01*
X0044628Y0163956D01*
X0044699Y0164010D01*
X0044771Y0164060D01*
X0044846Y0164107D01*
X0044923Y0164151D01*
X0045002Y0164191D01*
X0045082Y0164228D01*
X0045164Y0164260D01*
X0045248Y0164290D01*
X0045332Y0164315D01*
X0045418Y0164337D01*
X0045504Y0164354D01*
X0045592Y0164368D01*
X0045680Y0164378D01*
X0045768Y0164384D01*
X0045856Y0164386D01*
X0045944Y0164384D01*
X0046032Y0164378D01*
X0046120Y0164368D01*
X0046208Y0164354D01*
X0046294Y0164337D01*
X0046380Y0164315D01*
X0046464Y0164290D01*
X0046548Y0164260D01*
X0046630Y0164228D01*
X0046710Y0164191D01*
X0046789Y0164151D01*
X0046866Y0164107D01*
X0046941Y0164060D01*
X0047013Y0164010D01*
X0047084Y0163956D01*
X0047151Y0163900D01*
X0047217Y0163840D01*
X0047279Y0163778D01*
X0047339Y0163712D01*
X0047395Y0163645D01*
X0047449Y0163574D01*
X0047499Y0163502D01*
X0047546Y0163427D01*
X0047590Y0163350D01*
X0047630Y0163271D01*
X0047667Y0163191D01*
X0047699Y0163109D01*
X0047729Y0163025D01*
X0047754Y0162941D01*
X0047776Y0162855D01*
X0047793Y0162769D01*
X0047807Y0162681D01*
X0047817Y0162593D01*
X0047823Y0162505D01*
X0047825Y0162417D01*
X0047823Y0162329D01*
X0047817Y0162241D01*
X0047807Y0162153D01*
X0047793Y0162065D01*
X0047776Y0161979D01*
X0047754Y0161893D01*
X0047729Y0161809D01*
X0047699Y0161725D01*
X0047667Y0161643D01*
X0047630Y0161563D01*
X0047590Y0161484D01*
X0047546Y0161407D01*
X0047499Y0161332D01*
X0047449Y0161260D01*
X0047395Y0161189D01*
X0047339Y0161122D01*
X0047279Y0161056D01*
X0047217Y0160994D01*
X0047151Y0160934D01*
X0047084Y0160878D01*
X0047013Y0160824D01*
X0046941Y0160774D01*
X0046866Y0160727D01*
X0046789Y0160683D01*
X0046710Y0160643D01*
X0046630Y0160606D01*
X0046548Y0160574D01*
X0046464Y0160544D01*
X0046380Y0160519D01*
X0046294Y0160497D01*
X0046208Y0160480D01*
X0046120Y0160466D01*
X0046032Y0160456D01*
X0045944Y0160450D01*
X0045856Y0160448D01*
X0045768Y0160450D01*
X0045680Y0160456D01*
X0045592Y0160466D01*
X0045504Y0160480D01*
X0045418Y0160497D01*
X0045332Y0160519D01*
X0045248Y0160544D01*
X0045164Y0160574D01*
X0045082Y0160606D01*
X0045002Y0160643D01*
X0044923Y0160683D01*
X0044846Y0160727D01*
X0044771Y0160774D01*
X0044699Y0160824D01*
X0044628Y0160878D01*
X0044561Y0160934D01*
X0044495Y0160994D01*
X0044433Y0161056D01*
X0044373Y0161122D01*
X0044317Y0161189D01*
X0044263Y0161260D01*
X0044213Y0161332D01*
X0044166Y0161407D01*
X0044122Y0161484D01*
X0044082Y0161563D01*
X0044045Y0161643D01*
X0044013Y0161725D01*
X0043983Y0161809D01*
X0043958Y0161893D01*
X0043936Y0161979D01*
X0043919Y0162065D01*
X0043905Y0162153D01*
X0043895Y0162241D01*
X0043889Y0162329D01*
X0043887Y0162417D01*
X0075383Y0193913D02*
X0075385Y0194001D01*
X0075391Y0194089D01*
X0075401Y0194177D01*
X0075415Y0194265D01*
X0075432Y0194351D01*
X0075454Y0194437D01*
X0075479Y0194521D01*
X0075509Y0194605D01*
X0075541Y0194687D01*
X0075578Y0194767D01*
X0075618Y0194846D01*
X0075662Y0194923D01*
X0075709Y0194998D01*
X0075759Y0195070D01*
X0075813Y0195141D01*
X0075869Y0195208D01*
X0075929Y0195274D01*
X0075991Y0195336D01*
X0076057Y0195396D01*
X0076124Y0195452D01*
X0076195Y0195506D01*
X0076267Y0195556D01*
X0076342Y0195603D01*
X0076419Y0195647D01*
X0076498Y0195687D01*
X0076578Y0195724D01*
X0076660Y0195756D01*
X0076744Y0195786D01*
X0076828Y0195811D01*
X0076914Y0195833D01*
X0077000Y0195850D01*
X0077088Y0195864D01*
X0077176Y0195874D01*
X0077264Y0195880D01*
X0077352Y0195882D01*
X0077440Y0195880D01*
X0077528Y0195874D01*
X0077616Y0195864D01*
X0077704Y0195850D01*
X0077790Y0195833D01*
X0077876Y0195811D01*
X0077960Y0195786D01*
X0078044Y0195756D01*
X0078126Y0195724D01*
X0078206Y0195687D01*
X0078285Y0195647D01*
X0078362Y0195603D01*
X0078437Y0195556D01*
X0078509Y0195506D01*
X0078580Y0195452D01*
X0078647Y0195396D01*
X0078713Y0195336D01*
X0078775Y0195274D01*
X0078835Y0195208D01*
X0078891Y0195141D01*
X0078945Y0195070D01*
X0078995Y0194998D01*
X0079042Y0194923D01*
X0079086Y0194846D01*
X0079126Y0194767D01*
X0079163Y0194687D01*
X0079195Y0194605D01*
X0079225Y0194521D01*
X0079250Y0194437D01*
X0079272Y0194351D01*
X0079289Y0194265D01*
X0079303Y0194177D01*
X0079313Y0194089D01*
X0079319Y0194001D01*
X0079321Y0193913D01*
X0079319Y0193825D01*
X0079313Y0193737D01*
X0079303Y0193649D01*
X0079289Y0193561D01*
X0079272Y0193475D01*
X0079250Y0193389D01*
X0079225Y0193305D01*
X0079195Y0193221D01*
X0079163Y0193139D01*
X0079126Y0193059D01*
X0079086Y0192980D01*
X0079042Y0192903D01*
X0078995Y0192828D01*
X0078945Y0192756D01*
X0078891Y0192685D01*
X0078835Y0192618D01*
X0078775Y0192552D01*
X0078713Y0192490D01*
X0078647Y0192430D01*
X0078580Y0192374D01*
X0078509Y0192320D01*
X0078437Y0192270D01*
X0078362Y0192223D01*
X0078285Y0192179D01*
X0078206Y0192139D01*
X0078126Y0192102D01*
X0078044Y0192070D01*
X0077960Y0192040D01*
X0077876Y0192015D01*
X0077790Y0191993D01*
X0077704Y0191976D01*
X0077616Y0191962D01*
X0077528Y0191952D01*
X0077440Y0191946D01*
X0077352Y0191944D01*
X0077264Y0191946D01*
X0077176Y0191952D01*
X0077088Y0191962D01*
X0077000Y0191976D01*
X0076914Y0191993D01*
X0076828Y0192015D01*
X0076744Y0192040D01*
X0076660Y0192070D01*
X0076578Y0192102D01*
X0076498Y0192139D01*
X0076419Y0192179D01*
X0076342Y0192223D01*
X0076267Y0192270D01*
X0076195Y0192320D01*
X0076124Y0192374D01*
X0076057Y0192430D01*
X0075991Y0192490D01*
X0075929Y0192552D01*
X0075869Y0192618D01*
X0075813Y0192685D01*
X0075759Y0192756D01*
X0075709Y0192828D01*
X0075662Y0192903D01*
X0075618Y0192980D01*
X0075578Y0193059D01*
X0075541Y0193139D01*
X0075509Y0193221D01*
X0075479Y0193305D01*
X0075454Y0193389D01*
X0075432Y0193475D01*
X0075415Y0193561D01*
X0075401Y0193649D01*
X0075391Y0193737D01*
X0075385Y0193825D01*
X0075383Y0193913D01*
D15*
X0088966Y0461630D03*
X0088966Y0470291D03*
X0056289Y0470291D03*
X0056289Y0461630D03*
D16*
X0063769Y0457102D03*
X0075580Y0457102D03*
X0081486Y0457102D03*
D17*
X0086801Y0050232D03*
X0086801Y0045232D03*
X0086801Y0040232D03*
X0086801Y0035232D03*
X0066328Y0035232D03*
X0066328Y0040232D03*
X0066328Y0045232D03*
X0066328Y0050232D03*
D18*
X0052352Y0048638D03*
X0045659Y0048638D03*
X0045659Y0036827D03*
X0052352Y0036827D03*
X0112588Y0036827D03*
X0119281Y0036827D03*
D19*
X0074596Y0296866D03*
X0074596Y0304740D03*
X0074596Y0312614D03*
X0074596Y0320488D03*
X0074596Y0328362D03*
D20*
X0189753Y0256118D03*
X0197627Y0256118D03*
D21*
X0207076Y0235646D03*
X0180304Y0235646D03*
D22*
X0037096Y0364091D02*
X0033356Y0364091D01*
X0033356Y0367831D01*
X0037096Y0367831D01*
X0037096Y0364091D01*
X0037096Y0367830D02*
X0033356Y0367830D01*
X0033356Y0373539D02*
X0037096Y0373539D01*
X0033356Y0373539D02*
X0033356Y0377279D01*
X0037096Y0377279D01*
X0037096Y0373539D01*
X0037096Y0377278D02*
X0033356Y0377278D01*
D23*
X0046545Y0375803D03*
X0046545Y0373244D03*
X0046545Y0370685D03*
X0046545Y0368126D03*
X0046545Y0365567D03*
D24*
X0110423Y0048441D03*
X0121446Y0048441D03*
D25*
X0080501Y0060449D03*
X0080501Y0068323D03*
X0219281Y0064386D03*
X0219281Y0056512D03*
M02*
