G75*
%MOIN*%
%OFA0B0*%
%FSLAX25Y25*%
%IPPOS*%
%LPD*%
%AMOC8*
5,1,8,0,0,1.08239X$1,22.5*
%
%ADD10C,0.00000*%
%ADD11C,0.00039*%
%ADD12C,0.01000*%
%ADD13C,0.01400*%
%ADD14C,0.00600*%
%ADD15C,0.00800*%
%ADD16C,0.00500*%
D10*
X0021709Y0041556D02*
X0021709Y0143918D01*
X0021711Y0144042D01*
X0021717Y0144165D01*
X0021726Y0144289D01*
X0021740Y0144411D01*
X0021757Y0144534D01*
X0021779Y0144656D01*
X0021804Y0144777D01*
X0021833Y0144897D01*
X0021865Y0145016D01*
X0021902Y0145135D01*
X0021942Y0145252D01*
X0021985Y0145367D01*
X0022033Y0145482D01*
X0022084Y0145594D01*
X0022138Y0145705D01*
X0022196Y0145815D01*
X0022257Y0145922D01*
X0022322Y0146028D01*
X0022390Y0146131D01*
X0022461Y0146232D01*
X0022535Y0146331D01*
X0022612Y0146428D01*
X0022693Y0146522D01*
X0022776Y0146613D01*
X0022862Y0146702D01*
X0022951Y0146788D01*
X0023042Y0146871D01*
X0023136Y0146952D01*
X0023233Y0147029D01*
X0023332Y0147103D01*
X0023433Y0147174D01*
X0023536Y0147242D01*
X0023642Y0147307D01*
X0023749Y0147368D01*
X0023859Y0147426D01*
X0023970Y0147480D01*
X0024082Y0147531D01*
X0024197Y0147579D01*
X0024312Y0147622D01*
X0024429Y0147662D01*
X0024548Y0147699D01*
X0024667Y0147731D01*
X0024787Y0147760D01*
X0024908Y0147785D01*
X0025030Y0147807D01*
X0025153Y0147824D01*
X0025275Y0147838D01*
X0025399Y0147847D01*
X0025522Y0147853D01*
X0025646Y0147855D01*
X0028599Y0147855D01*
X0028599Y0218721D01*
X0028601Y0218845D01*
X0028607Y0218968D01*
X0028616Y0219092D01*
X0028630Y0219214D01*
X0028647Y0219337D01*
X0028669Y0219459D01*
X0028694Y0219580D01*
X0028723Y0219700D01*
X0028755Y0219819D01*
X0028792Y0219938D01*
X0028832Y0220055D01*
X0028875Y0220170D01*
X0028923Y0220285D01*
X0028974Y0220397D01*
X0029028Y0220508D01*
X0029086Y0220618D01*
X0029147Y0220725D01*
X0029212Y0220831D01*
X0029280Y0220934D01*
X0029351Y0221035D01*
X0029425Y0221134D01*
X0029502Y0221231D01*
X0029583Y0221325D01*
X0029666Y0221416D01*
X0029752Y0221505D01*
X0029841Y0221591D01*
X0029932Y0221674D01*
X0030026Y0221755D01*
X0030123Y0221832D01*
X0030222Y0221906D01*
X0030323Y0221977D01*
X0030426Y0222045D01*
X0030532Y0222110D01*
X0030639Y0222171D01*
X0030749Y0222229D01*
X0030860Y0222283D01*
X0030972Y0222334D01*
X0031087Y0222382D01*
X0031202Y0222425D01*
X0031319Y0222465D01*
X0031438Y0222502D01*
X0031557Y0222534D01*
X0031677Y0222563D01*
X0031798Y0222588D01*
X0031920Y0222610D01*
X0032043Y0222627D01*
X0032165Y0222641D01*
X0032289Y0222650D01*
X0032412Y0222656D01*
X0032536Y0222658D01*
X0048284Y0222658D01*
X0048284Y0226595D01*
X0050253Y0226595D01*
X0050253Y0228564D01*
X0060095Y0228564D01*
X0060095Y0226595D01*
X0083717Y0226595D01*
X0083717Y0228564D01*
X0093560Y0228564D01*
X0093560Y0226595D01*
X0095528Y0226595D01*
X0095528Y0222658D01*
X0103402Y0222658D01*
X0103402Y0206910D01*
X0064032Y0167540D01*
X0064032Y0116359D01*
X0087654Y0092737D01*
X0087654Y0053367D01*
X0075843Y0041556D01*
X0075843Y0002186D01*
X0028599Y0002186D01*
X0028599Y0037619D01*
X0025646Y0037619D01*
X0025522Y0037621D01*
X0025399Y0037627D01*
X0025275Y0037636D01*
X0025153Y0037650D01*
X0025030Y0037667D01*
X0024908Y0037689D01*
X0024787Y0037714D01*
X0024667Y0037743D01*
X0024548Y0037775D01*
X0024429Y0037812D01*
X0024312Y0037852D01*
X0024197Y0037895D01*
X0024082Y0037943D01*
X0023970Y0037994D01*
X0023859Y0038048D01*
X0023749Y0038106D01*
X0023642Y0038167D01*
X0023536Y0038232D01*
X0023433Y0038300D01*
X0023332Y0038371D01*
X0023233Y0038445D01*
X0023136Y0038522D01*
X0023042Y0038603D01*
X0022951Y0038686D01*
X0022862Y0038772D01*
X0022776Y0038861D01*
X0022693Y0038952D01*
X0022612Y0039046D01*
X0022535Y0039143D01*
X0022461Y0039242D01*
X0022390Y0039343D01*
X0022322Y0039446D01*
X0022257Y0039552D01*
X0022196Y0039659D01*
X0022138Y0039769D01*
X0022084Y0039880D01*
X0022033Y0039992D01*
X0021985Y0040107D01*
X0021942Y0040222D01*
X0021902Y0040339D01*
X0021865Y0040458D01*
X0021833Y0040577D01*
X0021804Y0040697D01*
X0021779Y0040818D01*
X0021757Y0040940D01*
X0021740Y0041063D01*
X0021726Y0041185D01*
X0021717Y0041309D01*
X0021711Y0041432D01*
X0021709Y0041556D01*
X0064229Y0222658D02*
X0064231Y0222742D01*
X0064237Y0222825D01*
X0064247Y0222908D01*
X0064261Y0222991D01*
X0064278Y0223073D01*
X0064300Y0223154D01*
X0064325Y0223233D01*
X0064354Y0223312D01*
X0064387Y0223389D01*
X0064423Y0223464D01*
X0064463Y0223538D01*
X0064506Y0223610D01*
X0064553Y0223679D01*
X0064603Y0223746D01*
X0064656Y0223811D01*
X0064712Y0223873D01*
X0064770Y0223933D01*
X0064832Y0223990D01*
X0064896Y0224043D01*
X0064963Y0224094D01*
X0065032Y0224141D01*
X0065103Y0224186D01*
X0065176Y0224226D01*
X0065251Y0224263D01*
X0065328Y0224297D01*
X0065406Y0224327D01*
X0065485Y0224353D01*
X0065566Y0224376D01*
X0065648Y0224394D01*
X0065730Y0224409D01*
X0065813Y0224420D01*
X0065896Y0224427D01*
X0065980Y0224430D01*
X0066064Y0224429D01*
X0066147Y0224424D01*
X0066231Y0224415D01*
X0066313Y0224402D01*
X0066395Y0224386D01*
X0066476Y0224365D01*
X0066557Y0224341D01*
X0066635Y0224313D01*
X0066713Y0224281D01*
X0066789Y0224245D01*
X0066863Y0224206D01*
X0066935Y0224164D01*
X0067005Y0224118D01*
X0067073Y0224069D01*
X0067138Y0224017D01*
X0067201Y0223962D01*
X0067261Y0223904D01*
X0067319Y0223843D01*
X0067373Y0223779D01*
X0067425Y0223713D01*
X0067473Y0223645D01*
X0067518Y0223574D01*
X0067559Y0223501D01*
X0067598Y0223427D01*
X0067632Y0223351D01*
X0067663Y0223273D01*
X0067690Y0223194D01*
X0067714Y0223113D01*
X0067733Y0223032D01*
X0067749Y0222950D01*
X0067761Y0222867D01*
X0067769Y0222783D01*
X0067773Y0222700D01*
X0067773Y0222616D01*
X0067769Y0222533D01*
X0067761Y0222449D01*
X0067749Y0222366D01*
X0067733Y0222284D01*
X0067714Y0222203D01*
X0067690Y0222122D01*
X0067663Y0222043D01*
X0067632Y0221965D01*
X0067598Y0221889D01*
X0067559Y0221815D01*
X0067518Y0221742D01*
X0067473Y0221671D01*
X0067425Y0221603D01*
X0067373Y0221537D01*
X0067319Y0221473D01*
X0067261Y0221412D01*
X0067201Y0221354D01*
X0067138Y0221299D01*
X0067073Y0221247D01*
X0067005Y0221198D01*
X0066935Y0221152D01*
X0066863Y0221110D01*
X0066789Y0221071D01*
X0066713Y0221035D01*
X0066635Y0221003D01*
X0066557Y0220975D01*
X0066476Y0220951D01*
X0066395Y0220930D01*
X0066313Y0220914D01*
X0066231Y0220901D01*
X0066147Y0220892D01*
X0066064Y0220887D01*
X0065980Y0220886D01*
X0065896Y0220889D01*
X0065813Y0220896D01*
X0065730Y0220907D01*
X0065648Y0220922D01*
X0065566Y0220940D01*
X0065485Y0220963D01*
X0065406Y0220989D01*
X0065328Y0221019D01*
X0065251Y0221053D01*
X0065176Y0221090D01*
X0065103Y0221130D01*
X0065032Y0221175D01*
X0064963Y0221222D01*
X0064896Y0221273D01*
X0064832Y0221326D01*
X0064770Y0221383D01*
X0064712Y0221443D01*
X0064656Y0221505D01*
X0064603Y0221570D01*
X0064553Y0221637D01*
X0064506Y0221706D01*
X0064463Y0221778D01*
X0064423Y0221852D01*
X0064387Y0221927D01*
X0064354Y0222004D01*
X0064325Y0222083D01*
X0064300Y0222162D01*
X0064278Y0222243D01*
X0064261Y0222325D01*
X0064247Y0222408D01*
X0064237Y0222491D01*
X0064231Y0222574D01*
X0064229Y0222658D01*
X0076040Y0222658D02*
X0076042Y0222742D01*
X0076048Y0222825D01*
X0076058Y0222908D01*
X0076072Y0222991D01*
X0076089Y0223073D01*
X0076111Y0223154D01*
X0076136Y0223233D01*
X0076165Y0223312D01*
X0076198Y0223389D01*
X0076234Y0223464D01*
X0076274Y0223538D01*
X0076317Y0223610D01*
X0076364Y0223679D01*
X0076414Y0223746D01*
X0076467Y0223811D01*
X0076523Y0223873D01*
X0076581Y0223933D01*
X0076643Y0223990D01*
X0076707Y0224043D01*
X0076774Y0224094D01*
X0076843Y0224141D01*
X0076914Y0224186D01*
X0076987Y0224226D01*
X0077062Y0224263D01*
X0077139Y0224297D01*
X0077217Y0224327D01*
X0077296Y0224353D01*
X0077377Y0224376D01*
X0077459Y0224394D01*
X0077541Y0224409D01*
X0077624Y0224420D01*
X0077707Y0224427D01*
X0077791Y0224430D01*
X0077875Y0224429D01*
X0077958Y0224424D01*
X0078042Y0224415D01*
X0078124Y0224402D01*
X0078206Y0224386D01*
X0078287Y0224365D01*
X0078368Y0224341D01*
X0078446Y0224313D01*
X0078524Y0224281D01*
X0078600Y0224245D01*
X0078674Y0224206D01*
X0078746Y0224164D01*
X0078816Y0224118D01*
X0078884Y0224069D01*
X0078949Y0224017D01*
X0079012Y0223962D01*
X0079072Y0223904D01*
X0079130Y0223843D01*
X0079184Y0223779D01*
X0079236Y0223713D01*
X0079284Y0223645D01*
X0079329Y0223574D01*
X0079370Y0223501D01*
X0079409Y0223427D01*
X0079443Y0223351D01*
X0079474Y0223273D01*
X0079501Y0223194D01*
X0079525Y0223113D01*
X0079544Y0223032D01*
X0079560Y0222950D01*
X0079572Y0222867D01*
X0079580Y0222783D01*
X0079584Y0222700D01*
X0079584Y0222616D01*
X0079580Y0222533D01*
X0079572Y0222449D01*
X0079560Y0222366D01*
X0079544Y0222284D01*
X0079525Y0222203D01*
X0079501Y0222122D01*
X0079474Y0222043D01*
X0079443Y0221965D01*
X0079409Y0221889D01*
X0079370Y0221815D01*
X0079329Y0221742D01*
X0079284Y0221671D01*
X0079236Y0221603D01*
X0079184Y0221537D01*
X0079130Y0221473D01*
X0079072Y0221412D01*
X0079012Y0221354D01*
X0078949Y0221299D01*
X0078884Y0221247D01*
X0078816Y0221198D01*
X0078746Y0221152D01*
X0078674Y0221110D01*
X0078600Y0221071D01*
X0078524Y0221035D01*
X0078446Y0221003D01*
X0078368Y0220975D01*
X0078287Y0220951D01*
X0078206Y0220930D01*
X0078124Y0220914D01*
X0078042Y0220901D01*
X0077958Y0220892D01*
X0077875Y0220887D01*
X0077791Y0220886D01*
X0077707Y0220889D01*
X0077624Y0220896D01*
X0077541Y0220907D01*
X0077459Y0220922D01*
X0077377Y0220940D01*
X0077296Y0220963D01*
X0077217Y0220989D01*
X0077139Y0221019D01*
X0077062Y0221053D01*
X0076987Y0221090D01*
X0076914Y0221130D01*
X0076843Y0221175D01*
X0076774Y0221222D01*
X0076707Y0221273D01*
X0076643Y0221326D01*
X0076581Y0221383D01*
X0076523Y0221443D01*
X0076467Y0221505D01*
X0076414Y0221570D01*
X0076364Y0221637D01*
X0076317Y0221706D01*
X0076274Y0221778D01*
X0076234Y0221852D01*
X0076198Y0221927D01*
X0076165Y0222004D01*
X0076136Y0222083D01*
X0076111Y0222162D01*
X0076089Y0222243D01*
X0076072Y0222325D01*
X0076058Y0222408D01*
X0076048Y0222491D01*
X0076042Y0222574D01*
X0076040Y0222658D01*
D11*
X0030961Y0198249D02*
X0030963Y0198392D01*
X0030969Y0198535D01*
X0030979Y0198677D01*
X0030993Y0198819D01*
X0031011Y0198961D01*
X0031033Y0199103D01*
X0031058Y0199243D01*
X0031088Y0199383D01*
X0031122Y0199522D01*
X0031159Y0199660D01*
X0031201Y0199797D01*
X0031246Y0199932D01*
X0031295Y0200066D01*
X0031347Y0200199D01*
X0031403Y0200331D01*
X0031463Y0200460D01*
X0031527Y0200588D01*
X0031594Y0200715D01*
X0031665Y0200839D01*
X0031739Y0200961D01*
X0031816Y0201081D01*
X0031897Y0201199D01*
X0031981Y0201315D01*
X0032068Y0201428D01*
X0032158Y0201539D01*
X0032252Y0201647D01*
X0032348Y0201753D01*
X0032447Y0201855D01*
X0032550Y0201955D01*
X0032654Y0202052D01*
X0032762Y0202147D01*
X0032872Y0202238D01*
X0032985Y0202326D01*
X0033100Y0202410D01*
X0033217Y0202492D01*
X0033337Y0202570D01*
X0033458Y0202645D01*
X0033582Y0202717D01*
X0033708Y0202785D01*
X0033835Y0202849D01*
X0033965Y0202910D01*
X0034096Y0202967D01*
X0034228Y0203021D01*
X0034362Y0203070D01*
X0034497Y0203117D01*
X0034634Y0203159D01*
X0034772Y0203197D01*
X0034910Y0203232D01*
X0035050Y0203262D01*
X0035190Y0203289D01*
X0035331Y0203312D01*
X0035473Y0203331D01*
X0035615Y0203346D01*
X0035758Y0203357D01*
X0035900Y0203364D01*
X0036043Y0203367D01*
X0036186Y0203366D01*
X0036329Y0203361D01*
X0036472Y0203352D01*
X0036614Y0203339D01*
X0036756Y0203322D01*
X0036897Y0203301D01*
X0037038Y0203276D01*
X0037178Y0203248D01*
X0037317Y0203215D01*
X0037455Y0203178D01*
X0037592Y0203138D01*
X0037728Y0203094D01*
X0037863Y0203046D01*
X0037996Y0202994D01*
X0038128Y0202939D01*
X0038258Y0202880D01*
X0038387Y0202817D01*
X0038513Y0202751D01*
X0038638Y0202681D01*
X0038761Y0202608D01*
X0038881Y0202532D01*
X0039000Y0202452D01*
X0039116Y0202368D01*
X0039230Y0202282D01*
X0039341Y0202192D01*
X0039450Y0202100D01*
X0039556Y0202004D01*
X0039660Y0201906D01*
X0039761Y0201804D01*
X0039858Y0201700D01*
X0039953Y0201593D01*
X0040045Y0201484D01*
X0040134Y0201372D01*
X0040220Y0201257D01*
X0040302Y0201141D01*
X0040381Y0201021D01*
X0040457Y0200900D01*
X0040529Y0200777D01*
X0040598Y0200652D01*
X0040663Y0200525D01*
X0040725Y0200396D01*
X0040783Y0200265D01*
X0040838Y0200133D01*
X0040888Y0199999D01*
X0040935Y0199864D01*
X0040979Y0199728D01*
X0041018Y0199591D01*
X0041053Y0199452D01*
X0041085Y0199313D01*
X0041113Y0199173D01*
X0041137Y0199032D01*
X0041157Y0198890D01*
X0041173Y0198748D01*
X0041185Y0198606D01*
X0041193Y0198463D01*
X0041197Y0198320D01*
X0041197Y0198178D01*
X0041193Y0198035D01*
X0041185Y0197892D01*
X0041173Y0197750D01*
X0041157Y0197608D01*
X0041137Y0197466D01*
X0041113Y0197325D01*
X0041085Y0197185D01*
X0041053Y0197046D01*
X0041018Y0196907D01*
X0040979Y0196770D01*
X0040935Y0196634D01*
X0040888Y0196499D01*
X0040838Y0196365D01*
X0040783Y0196233D01*
X0040725Y0196102D01*
X0040663Y0195973D01*
X0040598Y0195846D01*
X0040529Y0195721D01*
X0040457Y0195598D01*
X0040381Y0195477D01*
X0040302Y0195357D01*
X0040220Y0195241D01*
X0040134Y0195126D01*
X0040045Y0195014D01*
X0039953Y0194905D01*
X0039858Y0194798D01*
X0039761Y0194694D01*
X0039660Y0194592D01*
X0039556Y0194494D01*
X0039450Y0194398D01*
X0039341Y0194306D01*
X0039230Y0194216D01*
X0039116Y0194130D01*
X0039000Y0194046D01*
X0038881Y0193966D01*
X0038761Y0193890D01*
X0038638Y0193817D01*
X0038513Y0193747D01*
X0038387Y0193681D01*
X0038258Y0193618D01*
X0038128Y0193559D01*
X0037996Y0193504D01*
X0037863Y0193452D01*
X0037728Y0193404D01*
X0037592Y0193360D01*
X0037455Y0193320D01*
X0037317Y0193283D01*
X0037178Y0193250D01*
X0037038Y0193222D01*
X0036897Y0193197D01*
X0036756Y0193176D01*
X0036614Y0193159D01*
X0036472Y0193146D01*
X0036329Y0193137D01*
X0036186Y0193132D01*
X0036043Y0193131D01*
X0035900Y0193134D01*
X0035758Y0193141D01*
X0035615Y0193152D01*
X0035473Y0193167D01*
X0035331Y0193186D01*
X0035190Y0193209D01*
X0035050Y0193236D01*
X0034910Y0193266D01*
X0034772Y0193301D01*
X0034634Y0193339D01*
X0034497Y0193381D01*
X0034362Y0193428D01*
X0034228Y0193477D01*
X0034096Y0193531D01*
X0033965Y0193588D01*
X0033835Y0193649D01*
X0033708Y0193713D01*
X0033582Y0193781D01*
X0033458Y0193853D01*
X0033337Y0193928D01*
X0033217Y0194006D01*
X0033100Y0194088D01*
X0032985Y0194172D01*
X0032872Y0194260D01*
X0032762Y0194351D01*
X0032654Y0194446D01*
X0032550Y0194543D01*
X0032447Y0194643D01*
X0032348Y0194745D01*
X0032252Y0194851D01*
X0032158Y0194959D01*
X0032068Y0195070D01*
X0031981Y0195183D01*
X0031897Y0195299D01*
X0031816Y0195417D01*
X0031739Y0195537D01*
X0031665Y0195659D01*
X0031594Y0195783D01*
X0031527Y0195910D01*
X0031463Y0196038D01*
X0031403Y0196167D01*
X0031347Y0196299D01*
X0031295Y0196432D01*
X0031246Y0196566D01*
X0031201Y0196701D01*
X0031159Y0196838D01*
X0031122Y0196976D01*
X0031088Y0197115D01*
X0031058Y0197255D01*
X0031033Y0197395D01*
X0031011Y0197537D01*
X0030993Y0197679D01*
X0030979Y0197821D01*
X0030969Y0197963D01*
X0030963Y0198106D01*
X0030961Y0198249D01*
X0030961Y0026989D02*
X0030963Y0027132D01*
X0030969Y0027275D01*
X0030979Y0027417D01*
X0030993Y0027559D01*
X0031011Y0027701D01*
X0031033Y0027843D01*
X0031058Y0027983D01*
X0031088Y0028123D01*
X0031122Y0028262D01*
X0031159Y0028400D01*
X0031201Y0028537D01*
X0031246Y0028672D01*
X0031295Y0028806D01*
X0031347Y0028939D01*
X0031403Y0029071D01*
X0031463Y0029200D01*
X0031527Y0029328D01*
X0031594Y0029455D01*
X0031665Y0029579D01*
X0031739Y0029701D01*
X0031816Y0029821D01*
X0031897Y0029939D01*
X0031981Y0030055D01*
X0032068Y0030168D01*
X0032158Y0030279D01*
X0032252Y0030387D01*
X0032348Y0030493D01*
X0032447Y0030595D01*
X0032550Y0030695D01*
X0032654Y0030792D01*
X0032762Y0030887D01*
X0032872Y0030978D01*
X0032985Y0031066D01*
X0033100Y0031150D01*
X0033217Y0031232D01*
X0033337Y0031310D01*
X0033458Y0031385D01*
X0033582Y0031457D01*
X0033708Y0031525D01*
X0033835Y0031589D01*
X0033965Y0031650D01*
X0034096Y0031707D01*
X0034228Y0031761D01*
X0034362Y0031810D01*
X0034497Y0031857D01*
X0034634Y0031899D01*
X0034772Y0031937D01*
X0034910Y0031972D01*
X0035050Y0032002D01*
X0035190Y0032029D01*
X0035331Y0032052D01*
X0035473Y0032071D01*
X0035615Y0032086D01*
X0035758Y0032097D01*
X0035900Y0032104D01*
X0036043Y0032107D01*
X0036186Y0032106D01*
X0036329Y0032101D01*
X0036472Y0032092D01*
X0036614Y0032079D01*
X0036756Y0032062D01*
X0036897Y0032041D01*
X0037038Y0032016D01*
X0037178Y0031988D01*
X0037317Y0031955D01*
X0037455Y0031918D01*
X0037592Y0031878D01*
X0037728Y0031834D01*
X0037863Y0031786D01*
X0037996Y0031734D01*
X0038128Y0031679D01*
X0038258Y0031620D01*
X0038387Y0031557D01*
X0038513Y0031491D01*
X0038638Y0031421D01*
X0038761Y0031348D01*
X0038881Y0031272D01*
X0039000Y0031192D01*
X0039116Y0031108D01*
X0039230Y0031022D01*
X0039341Y0030932D01*
X0039450Y0030840D01*
X0039556Y0030744D01*
X0039660Y0030646D01*
X0039761Y0030544D01*
X0039858Y0030440D01*
X0039953Y0030333D01*
X0040045Y0030224D01*
X0040134Y0030112D01*
X0040220Y0029997D01*
X0040302Y0029881D01*
X0040381Y0029761D01*
X0040457Y0029640D01*
X0040529Y0029517D01*
X0040598Y0029392D01*
X0040663Y0029265D01*
X0040725Y0029136D01*
X0040783Y0029005D01*
X0040838Y0028873D01*
X0040888Y0028739D01*
X0040935Y0028604D01*
X0040979Y0028468D01*
X0041018Y0028331D01*
X0041053Y0028192D01*
X0041085Y0028053D01*
X0041113Y0027913D01*
X0041137Y0027772D01*
X0041157Y0027630D01*
X0041173Y0027488D01*
X0041185Y0027346D01*
X0041193Y0027203D01*
X0041197Y0027060D01*
X0041197Y0026918D01*
X0041193Y0026775D01*
X0041185Y0026632D01*
X0041173Y0026490D01*
X0041157Y0026348D01*
X0041137Y0026206D01*
X0041113Y0026065D01*
X0041085Y0025925D01*
X0041053Y0025786D01*
X0041018Y0025647D01*
X0040979Y0025510D01*
X0040935Y0025374D01*
X0040888Y0025239D01*
X0040838Y0025105D01*
X0040783Y0024973D01*
X0040725Y0024842D01*
X0040663Y0024713D01*
X0040598Y0024586D01*
X0040529Y0024461D01*
X0040457Y0024338D01*
X0040381Y0024217D01*
X0040302Y0024097D01*
X0040220Y0023981D01*
X0040134Y0023866D01*
X0040045Y0023754D01*
X0039953Y0023645D01*
X0039858Y0023538D01*
X0039761Y0023434D01*
X0039660Y0023332D01*
X0039556Y0023234D01*
X0039450Y0023138D01*
X0039341Y0023046D01*
X0039230Y0022956D01*
X0039116Y0022870D01*
X0039000Y0022786D01*
X0038881Y0022706D01*
X0038761Y0022630D01*
X0038638Y0022557D01*
X0038513Y0022487D01*
X0038387Y0022421D01*
X0038258Y0022358D01*
X0038128Y0022299D01*
X0037996Y0022244D01*
X0037863Y0022192D01*
X0037728Y0022144D01*
X0037592Y0022100D01*
X0037455Y0022060D01*
X0037317Y0022023D01*
X0037178Y0021990D01*
X0037038Y0021962D01*
X0036897Y0021937D01*
X0036756Y0021916D01*
X0036614Y0021899D01*
X0036472Y0021886D01*
X0036329Y0021877D01*
X0036186Y0021872D01*
X0036043Y0021871D01*
X0035900Y0021874D01*
X0035758Y0021881D01*
X0035615Y0021892D01*
X0035473Y0021907D01*
X0035331Y0021926D01*
X0035190Y0021949D01*
X0035050Y0021976D01*
X0034910Y0022006D01*
X0034772Y0022041D01*
X0034634Y0022079D01*
X0034497Y0022121D01*
X0034362Y0022168D01*
X0034228Y0022217D01*
X0034096Y0022271D01*
X0033965Y0022328D01*
X0033835Y0022389D01*
X0033708Y0022453D01*
X0033582Y0022521D01*
X0033458Y0022593D01*
X0033337Y0022668D01*
X0033217Y0022746D01*
X0033100Y0022828D01*
X0032985Y0022912D01*
X0032872Y0023000D01*
X0032762Y0023091D01*
X0032654Y0023186D01*
X0032550Y0023283D01*
X0032447Y0023383D01*
X0032348Y0023485D01*
X0032252Y0023591D01*
X0032158Y0023699D01*
X0032068Y0023810D01*
X0031981Y0023923D01*
X0031897Y0024039D01*
X0031816Y0024157D01*
X0031739Y0024277D01*
X0031665Y0024399D01*
X0031594Y0024523D01*
X0031527Y0024650D01*
X0031463Y0024778D01*
X0031403Y0024907D01*
X0031347Y0025039D01*
X0031295Y0025172D01*
X0031246Y0025306D01*
X0031201Y0025441D01*
X0031159Y0025578D01*
X0031122Y0025716D01*
X0031088Y0025855D01*
X0031058Y0025995D01*
X0031033Y0026135D01*
X0031011Y0026277D01*
X0030993Y0026419D01*
X0030979Y0026561D01*
X0030969Y0026703D01*
X0030963Y0026846D01*
X0030961Y0026989D01*
D12*
X0043048Y0016595D02*
X0043048Y0008721D01*
X0043050Y0008581D01*
X0043056Y0008441D01*
X0043066Y0008301D01*
X0043079Y0008161D01*
X0043097Y0008022D01*
X0043119Y0007883D01*
X0043144Y0007746D01*
X0043173Y0007608D01*
X0043206Y0007472D01*
X0043243Y0007337D01*
X0043284Y0007203D01*
X0043329Y0007070D01*
X0043377Y0006938D01*
X0043429Y0006808D01*
X0043484Y0006679D01*
X0043543Y0006552D01*
X0043606Y0006426D01*
X0043672Y0006302D01*
X0043741Y0006181D01*
X0043814Y0006061D01*
X0043891Y0005943D01*
X0043970Y0005828D01*
X0044053Y0005714D01*
X0044139Y0005604D01*
X0044228Y0005495D01*
X0044320Y0005389D01*
X0044415Y0005286D01*
X0044512Y0005185D01*
X0044613Y0005088D01*
X0044716Y0004993D01*
X0044822Y0004901D01*
X0044931Y0004812D01*
X0045041Y0004726D01*
X0045155Y0004643D01*
X0045270Y0004564D01*
X0045388Y0004487D01*
X0045508Y0004414D01*
X0045629Y0004345D01*
X0045753Y0004279D01*
X0045879Y0004216D01*
X0046006Y0004157D01*
X0046135Y0004102D01*
X0046265Y0004050D01*
X0046397Y0004002D01*
X0046530Y0003957D01*
X0046664Y0003916D01*
X0046799Y0003879D01*
X0046935Y0003846D01*
X0047073Y0003817D01*
X0047210Y0003792D01*
X0047349Y0003770D01*
X0047488Y0003752D01*
X0047628Y0003739D01*
X0047768Y0003729D01*
X0047908Y0003723D01*
X0048048Y0003721D01*
X0048188Y0003723D01*
X0048328Y0003729D01*
X0048468Y0003739D01*
X0048608Y0003752D01*
X0048747Y0003770D01*
X0048886Y0003792D01*
X0049023Y0003817D01*
X0049161Y0003846D01*
X0049297Y0003879D01*
X0049432Y0003916D01*
X0049566Y0003957D01*
X0049699Y0004002D01*
X0049831Y0004050D01*
X0049961Y0004102D01*
X0050090Y0004157D01*
X0050217Y0004216D01*
X0050343Y0004279D01*
X0050467Y0004345D01*
X0050588Y0004414D01*
X0050708Y0004487D01*
X0050826Y0004564D01*
X0050941Y0004643D01*
X0051055Y0004726D01*
X0051165Y0004812D01*
X0051274Y0004901D01*
X0051380Y0004993D01*
X0051483Y0005088D01*
X0051584Y0005185D01*
X0051681Y0005286D01*
X0051776Y0005389D01*
X0051868Y0005495D01*
X0051957Y0005604D01*
X0052043Y0005714D01*
X0052126Y0005828D01*
X0052205Y0005943D01*
X0052282Y0006061D01*
X0052355Y0006181D01*
X0052424Y0006302D01*
X0052490Y0006426D01*
X0052553Y0006552D01*
X0052612Y0006679D01*
X0052667Y0006808D01*
X0052719Y0006938D01*
X0052767Y0007070D01*
X0052812Y0007203D01*
X0052853Y0007337D01*
X0052890Y0007472D01*
X0052923Y0007608D01*
X0052952Y0007746D01*
X0052977Y0007883D01*
X0052999Y0008022D01*
X0053017Y0008161D01*
X0053030Y0008301D01*
X0053040Y0008441D01*
X0053046Y0008581D01*
X0053048Y0008721D01*
X0053048Y0016595D01*
X0053050Y0016735D01*
X0053056Y0016875D01*
X0053066Y0017015D01*
X0053079Y0017155D01*
X0053097Y0017294D01*
X0053119Y0017433D01*
X0053144Y0017570D01*
X0053173Y0017708D01*
X0053206Y0017844D01*
X0053243Y0017979D01*
X0053284Y0018113D01*
X0053329Y0018246D01*
X0053377Y0018378D01*
X0053429Y0018508D01*
X0053484Y0018637D01*
X0053543Y0018764D01*
X0053606Y0018890D01*
X0053672Y0019014D01*
X0053741Y0019135D01*
X0053814Y0019255D01*
X0053891Y0019373D01*
X0053970Y0019488D01*
X0054053Y0019602D01*
X0054139Y0019712D01*
X0054228Y0019821D01*
X0054320Y0019927D01*
X0054415Y0020030D01*
X0054512Y0020131D01*
X0054613Y0020228D01*
X0054716Y0020323D01*
X0054822Y0020415D01*
X0054931Y0020504D01*
X0055041Y0020590D01*
X0055155Y0020673D01*
X0055270Y0020752D01*
X0055388Y0020829D01*
X0055508Y0020902D01*
X0055629Y0020971D01*
X0055753Y0021037D01*
X0055879Y0021100D01*
X0056006Y0021159D01*
X0056135Y0021214D01*
X0056265Y0021266D01*
X0056397Y0021314D01*
X0056530Y0021359D01*
X0056664Y0021400D01*
X0056799Y0021437D01*
X0056935Y0021470D01*
X0057073Y0021499D01*
X0057210Y0021524D01*
X0057349Y0021546D01*
X0057488Y0021564D01*
X0057628Y0021577D01*
X0057768Y0021587D01*
X0057908Y0021593D01*
X0058048Y0021595D01*
X0058188Y0021593D01*
X0058328Y0021587D01*
X0058468Y0021577D01*
X0058608Y0021564D01*
X0058747Y0021546D01*
X0058886Y0021524D01*
X0059023Y0021499D01*
X0059161Y0021470D01*
X0059297Y0021437D01*
X0059432Y0021400D01*
X0059566Y0021359D01*
X0059699Y0021314D01*
X0059831Y0021266D01*
X0059961Y0021214D01*
X0060090Y0021159D01*
X0060217Y0021100D01*
X0060343Y0021037D01*
X0060467Y0020971D01*
X0060588Y0020902D01*
X0060708Y0020829D01*
X0060826Y0020752D01*
X0060941Y0020673D01*
X0061055Y0020590D01*
X0061165Y0020504D01*
X0061274Y0020415D01*
X0061380Y0020323D01*
X0061483Y0020228D01*
X0061584Y0020131D01*
X0061681Y0020030D01*
X0061776Y0019927D01*
X0061868Y0019821D01*
X0061957Y0019712D01*
X0062043Y0019602D01*
X0062126Y0019488D01*
X0062205Y0019373D01*
X0062282Y0019255D01*
X0062355Y0019135D01*
X0062424Y0019014D01*
X0062490Y0018890D01*
X0062553Y0018764D01*
X0062612Y0018637D01*
X0062667Y0018508D01*
X0062719Y0018378D01*
X0062767Y0018246D01*
X0062812Y0018113D01*
X0062853Y0017979D01*
X0062890Y0017844D01*
X0062923Y0017708D01*
X0062952Y0017570D01*
X0062977Y0017433D01*
X0062999Y0017294D01*
X0063017Y0017155D01*
X0063030Y0017015D01*
X0063040Y0016875D01*
X0063046Y0016735D01*
X0063048Y0016595D01*
X0063048Y0008721D01*
X0063050Y0008581D01*
X0063056Y0008441D01*
X0063066Y0008301D01*
X0063079Y0008161D01*
X0063097Y0008022D01*
X0063119Y0007883D01*
X0063144Y0007746D01*
X0063173Y0007608D01*
X0063206Y0007472D01*
X0063243Y0007337D01*
X0063284Y0007203D01*
X0063329Y0007070D01*
X0063377Y0006938D01*
X0063429Y0006808D01*
X0063484Y0006679D01*
X0063543Y0006552D01*
X0063606Y0006426D01*
X0063672Y0006302D01*
X0063741Y0006181D01*
X0063814Y0006061D01*
X0063891Y0005943D01*
X0063970Y0005828D01*
X0064053Y0005714D01*
X0064139Y0005604D01*
X0064228Y0005495D01*
X0064320Y0005389D01*
X0064415Y0005286D01*
X0064512Y0005185D01*
X0064613Y0005088D01*
X0064716Y0004993D01*
X0064822Y0004901D01*
X0064931Y0004812D01*
X0065041Y0004726D01*
X0065155Y0004643D01*
X0065270Y0004564D01*
X0065388Y0004487D01*
X0065508Y0004414D01*
X0065629Y0004345D01*
X0065753Y0004279D01*
X0065879Y0004216D01*
X0066006Y0004157D01*
X0066135Y0004102D01*
X0066265Y0004050D01*
X0066397Y0004002D01*
X0066530Y0003957D01*
X0066664Y0003916D01*
X0066799Y0003879D01*
X0066935Y0003846D01*
X0067073Y0003817D01*
X0067210Y0003792D01*
X0067349Y0003770D01*
X0067488Y0003752D01*
X0067628Y0003739D01*
X0067768Y0003729D01*
X0067908Y0003723D01*
X0068048Y0003721D01*
X0068188Y0003723D01*
X0068328Y0003729D01*
X0068468Y0003739D01*
X0068608Y0003752D01*
X0068747Y0003770D01*
X0068886Y0003792D01*
X0069023Y0003817D01*
X0069161Y0003846D01*
X0069297Y0003879D01*
X0069432Y0003916D01*
X0069566Y0003957D01*
X0069699Y0004002D01*
X0069831Y0004050D01*
X0069961Y0004102D01*
X0070090Y0004157D01*
X0070217Y0004216D01*
X0070343Y0004279D01*
X0070467Y0004345D01*
X0070588Y0004414D01*
X0070708Y0004487D01*
X0070826Y0004564D01*
X0070941Y0004643D01*
X0071055Y0004726D01*
X0071165Y0004812D01*
X0071274Y0004901D01*
X0071380Y0004993D01*
X0071483Y0005088D01*
X0071584Y0005185D01*
X0071681Y0005286D01*
X0071776Y0005389D01*
X0071868Y0005495D01*
X0071957Y0005604D01*
X0072043Y0005714D01*
X0072126Y0005828D01*
X0072205Y0005943D01*
X0072282Y0006061D01*
X0072355Y0006181D01*
X0072424Y0006302D01*
X0072490Y0006426D01*
X0072553Y0006552D01*
X0072612Y0006679D01*
X0072667Y0006808D01*
X0072719Y0006938D01*
X0072767Y0007070D01*
X0072812Y0007203D01*
X0072853Y0007337D01*
X0072890Y0007472D01*
X0072923Y0007608D01*
X0072952Y0007746D01*
X0072977Y0007883D01*
X0072999Y0008022D01*
X0073017Y0008161D01*
X0073030Y0008301D01*
X0073040Y0008441D01*
X0073046Y0008581D01*
X0073048Y0008721D01*
X0073048Y0016595D01*
X0073046Y0016735D01*
X0073040Y0016875D01*
X0073030Y0017015D01*
X0073017Y0017155D01*
X0072999Y0017294D01*
X0072977Y0017433D01*
X0072952Y0017570D01*
X0072923Y0017708D01*
X0072890Y0017844D01*
X0072853Y0017979D01*
X0072812Y0018113D01*
X0072767Y0018246D01*
X0072719Y0018378D01*
X0072667Y0018508D01*
X0072612Y0018637D01*
X0072553Y0018764D01*
X0072490Y0018890D01*
X0072424Y0019014D01*
X0072355Y0019135D01*
X0072282Y0019255D01*
X0072205Y0019373D01*
X0072126Y0019488D01*
X0072043Y0019602D01*
X0071957Y0019712D01*
X0071868Y0019821D01*
X0071776Y0019927D01*
X0071681Y0020030D01*
X0071584Y0020131D01*
X0071483Y0020228D01*
X0071380Y0020323D01*
X0071274Y0020415D01*
X0071165Y0020504D01*
X0071055Y0020590D01*
X0070941Y0020673D01*
X0070826Y0020752D01*
X0070708Y0020829D01*
X0070588Y0020902D01*
X0070467Y0020971D01*
X0070343Y0021037D01*
X0070217Y0021100D01*
X0070090Y0021159D01*
X0069961Y0021214D01*
X0069831Y0021266D01*
X0069699Y0021314D01*
X0069566Y0021359D01*
X0069432Y0021400D01*
X0069297Y0021437D01*
X0069161Y0021470D01*
X0069023Y0021499D01*
X0068886Y0021524D01*
X0068747Y0021546D01*
X0068608Y0021564D01*
X0068468Y0021577D01*
X0068328Y0021587D01*
X0068188Y0021593D01*
X0068048Y0021595D01*
X0067908Y0021593D01*
X0067768Y0021587D01*
X0067628Y0021577D01*
X0067488Y0021564D01*
X0067349Y0021546D01*
X0067210Y0021524D01*
X0067073Y0021499D01*
X0066935Y0021470D01*
X0066799Y0021437D01*
X0066664Y0021400D01*
X0066530Y0021359D01*
X0066397Y0021314D01*
X0066265Y0021266D01*
X0066135Y0021214D01*
X0066006Y0021159D01*
X0065879Y0021100D01*
X0065753Y0021037D01*
X0065629Y0020971D01*
X0065508Y0020902D01*
X0065388Y0020829D01*
X0065270Y0020752D01*
X0065155Y0020673D01*
X0065041Y0020590D01*
X0064931Y0020504D01*
X0064822Y0020415D01*
X0064716Y0020323D01*
X0064613Y0020228D01*
X0064512Y0020131D01*
X0064415Y0020030D01*
X0064320Y0019927D01*
X0064228Y0019821D01*
X0064139Y0019712D01*
X0064053Y0019602D01*
X0063970Y0019488D01*
X0063891Y0019373D01*
X0063814Y0019255D01*
X0063741Y0019135D01*
X0063672Y0019014D01*
X0063606Y0018890D01*
X0063543Y0018764D01*
X0063484Y0018637D01*
X0063429Y0018508D01*
X0063377Y0018378D01*
X0063329Y0018246D01*
X0063284Y0018113D01*
X0063243Y0017979D01*
X0063206Y0017844D01*
X0063173Y0017708D01*
X0063144Y0017570D01*
X0063119Y0017433D01*
X0063097Y0017294D01*
X0063079Y0017155D01*
X0063066Y0017015D01*
X0063056Y0016875D01*
X0063050Y0016735D01*
X0063048Y0016595D01*
X0063048Y0008721D02*
X0063046Y0008581D01*
X0063040Y0008441D01*
X0063030Y0008301D01*
X0063017Y0008161D01*
X0062999Y0008022D01*
X0062977Y0007883D01*
X0062952Y0007746D01*
X0062923Y0007608D01*
X0062890Y0007472D01*
X0062853Y0007337D01*
X0062812Y0007203D01*
X0062767Y0007070D01*
X0062719Y0006938D01*
X0062667Y0006808D01*
X0062612Y0006679D01*
X0062553Y0006552D01*
X0062490Y0006426D01*
X0062424Y0006302D01*
X0062355Y0006181D01*
X0062282Y0006061D01*
X0062205Y0005943D01*
X0062126Y0005828D01*
X0062043Y0005714D01*
X0061957Y0005604D01*
X0061868Y0005495D01*
X0061776Y0005389D01*
X0061681Y0005286D01*
X0061584Y0005185D01*
X0061483Y0005088D01*
X0061380Y0004993D01*
X0061274Y0004901D01*
X0061165Y0004812D01*
X0061055Y0004726D01*
X0060941Y0004643D01*
X0060826Y0004564D01*
X0060708Y0004487D01*
X0060588Y0004414D01*
X0060467Y0004345D01*
X0060343Y0004279D01*
X0060217Y0004216D01*
X0060090Y0004157D01*
X0059961Y0004102D01*
X0059831Y0004050D01*
X0059699Y0004002D01*
X0059566Y0003957D01*
X0059432Y0003916D01*
X0059297Y0003879D01*
X0059161Y0003846D01*
X0059023Y0003817D01*
X0058886Y0003792D01*
X0058747Y0003770D01*
X0058608Y0003752D01*
X0058468Y0003739D01*
X0058328Y0003729D01*
X0058188Y0003723D01*
X0058048Y0003721D01*
X0057908Y0003723D01*
X0057768Y0003729D01*
X0057628Y0003739D01*
X0057488Y0003752D01*
X0057349Y0003770D01*
X0057210Y0003792D01*
X0057073Y0003817D01*
X0056935Y0003846D01*
X0056799Y0003879D01*
X0056664Y0003916D01*
X0056530Y0003957D01*
X0056397Y0004002D01*
X0056265Y0004050D01*
X0056135Y0004102D01*
X0056006Y0004157D01*
X0055879Y0004216D01*
X0055753Y0004279D01*
X0055629Y0004345D01*
X0055508Y0004414D01*
X0055388Y0004487D01*
X0055270Y0004564D01*
X0055155Y0004643D01*
X0055041Y0004726D01*
X0054931Y0004812D01*
X0054822Y0004901D01*
X0054716Y0004993D01*
X0054613Y0005088D01*
X0054512Y0005185D01*
X0054415Y0005286D01*
X0054320Y0005389D01*
X0054228Y0005495D01*
X0054139Y0005604D01*
X0054053Y0005714D01*
X0053970Y0005828D01*
X0053891Y0005943D01*
X0053814Y0006061D01*
X0053741Y0006181D01*
X0053672Y0006302D01*
X0053606Y0006426D01*
X0053543Y0006552D01*
X0053484Y0006679D01*
X0053429Y0006808D01*
X0053377Y0006938D01*
X0053329Y0007070D01*
X0053284Y0007203D01*
X0053243Y0007337D01*
X0053206Y0007472D01*
X0053173Y0007608D01*
X0053144Y0007746D01*
X0053119Y0007883D01*
X0053097Y0008022D01*
X0053079Y0008161D01*
X0053066Y0008301D01*
X0053056Y0008441D01*
X0053050Y0008581D01*
X0053048Y0008721D01*
X0053048Y0016595D02*
X0053046Y0016735D01*
X0053040Y0016875D01*
X0053030Y0017015D01*
X0053017Y0017155D01*
X0052999Y0017294D01*
X0052977Y0017433D01*
X0052952Y0017570D01*
X0052923Y0017708D01*
X0052890Y0017844D01*
X0052853Y0017979D01*
X0052812Y0018113D01*
X0052767Y0018246D01*
X0052719Y0018378D01*
X0052667Y0018508D01*
X0052612Y0018637D01*
X0052553Y0018764D01*
X0052490Y0018890D01*
X0052424Y0019014D01*
X0052355Y0019135D01*
X0052282Y0019255D01*
X0052205Y0019373D01*
X0052126Y0019488D01*
X0052043Y0019602D01*
X0051957Y0019712D01*
X0051868Y0019821D01*
X0051776Y0019927D01*
X0051681Y0020030D01*
X0051584Y0020131D01*
X0051483Y0020228D01*
X0051380Y0020323D01*
X0051274Y0020415D01*
X0051165Y0020504D01*
X0051055Y0020590D01*
X0050941Y0020673D01*
X0050826Y0020752D01*
X0050708Y0020829D01*
X0050588Y0020902D01*
X0050467Y0020971D01*
X0050343Y0021037D01*
X0050217Y0021100D01*
X0050090Y0021159D01*
X0049961Y0021214D01*
X0049831Y0021266D01*
X0049699Y0021314D01*
X0049566Y0021359D01*
X0049432Y0021400D01*
X0049297Y0021437D01*
X0049161Y0021470D01*
X0049023Y0021499D01*
X0048886Y0021524D01*
X0048747Y0021546D01*
X0048608Y0021564D01*
X0048468Y0021577D01*
X0048328Y0021587D01*
X0048188Y0021593D01*
X0048048Y0021595D01*
X0047908Y0021593D01*
X0047768Y0021587D01*
X0047628Y0021577D01*
X0047488Y0021564D01*
X0047349Y0021546D01*
X0047210Y0021524D01*
X0047073Y0021499D01*
X0046935Y0021470D01*
X0046799Y0021437D01*
X0046664Y0021400D01*
X0046530Y0021359D01*
X0046397Y0021314D01*
X0046265Y0021266D01*
X0046135Y0021214D01*
X0046006Y0021159D01*
X0045879Y0021100D01*
X0045753Y0021037D01*
X0045629Y0020971D01*
X0045508Y0020902D01*
X0045388Y0020829D01*
X0045270Y0020752D01*
X0045155Y0020673D01*
X0045041Y0020590D01*
X0044931Y0020504D01*
X0044822Y0020415D01*
X0044716Y0020323D01*
X0044613Y0020228D01*
X0044512Y0020131D01*
X0044415Y0020030D01*
X0044320Y0019927D01*
X0044228Y0019821D01*
X0044139Y0019712D01*
X0044053Y0019602D01*
X0043970Y0019488D01*
X0043891Y0019373D01*
X0043814Y0019255D01*
X0043741Y0019135D01*
X0043672Y0019014D01*
X0043606Y0018890D01*
X0043543Y0018764D01*
X0043484Y0018637D01*
X0043429Y0018508D01*
X0043377Y0018378D01*
X0043329Y0018246D01*
X0043284Y0018113D01*
X0043243Y0017979D01*
X0043206Y0017844D01*
X0043173Y0017708D01*
X0043144Y0017570D01*
X0043119Y0017433D01*
X0043097Y0017294D01*
X0043079Y0017155D01*
X0043066Y0017015D01*
X0043056Y0016875D01*
X0043050Y0016735D01*
X0043048Y0016595D01*
X0041316Y0206910D02*
X0041316Y0214784D01*
X0041318Y0214924D01*
X0041324Y0215064D01*
X0041334Y0215204D01*
X0041347Y0215344D01*
X0041365Y0215483D01*
X0041387Y0215622D01*
X0041412Y0215759D01*
X0041441Y0215897D01*
X0041474Y0216033D01*
X0041511Y0216168D01*
X0041552Y0216302D01*
X0041597Y0216435D01*
X0041645Y0216567D01*
X0041697Y0216697D01*
X0041752Y0216826D01*
X0041811Y0216953D01*
X0041874Y0217079D01*
X0041940Y0217203D01*
X0042009Y0217324D01*
X0042082Y0217444D01*
X0042159Y0217562D01*
X0042238Y0217677D01*
X0042321Y0217791D01*
X0042407Y0217901D01*
X0042496Y0218010D01*
X0042588Y0218116D01*
X0042683Y0218219D01*
X0042780Y0218320D01*
X0042881Y0218417D01*
X0042984Y0218512D01*
X0043090Y0218604D01*
X0043199Y0218693D01*
X0043309Y0218779D01*
X0043423Y0218862D01*
X0043538Y0218941D01*
X0043656Y0219018D01*
X0043776Y0219091D01*
X0043897Y0219160D01*
X0044021Y0219226D01*
X0044147Y0219289D01*
X0044274Y0219348D01*
X0044403Y0219403D01*
X0044533Y0219455D01*
X0044665Y0219503D01*
X0044798Y0219548D01*
X0044932Y0219589D01*
X0045067Y0219626D01*
X0045203Y0219659D01*
X0045341Y0219688D01*
X0045478Y0219713D01*
X0045617Y0219735D01*
X0045756Y0219753D01*
X0045896Y0219766D01*
X0046036Y0219776D01*
X0046176Y0219782D01*
X0046316Y0219784D01*
X0046456Y0219782D01*
X0046596Y0219776D01*
X0046736Y0219766D01*
X0046876Y0219753D01*
X0047015Y0219735D01*
X0047154Y0219713D01*
X0047291Y0219688D01*
X0047429Y0219659D01*
X0047565Y0219626D01*
X0047700Y0219589D01*
X0047834Y0219548D01*
X0047967Y0219503D01*
X0048099Y0219455D01*
X0048229Y0219403D01*
X0048358Y0219348D01*
X0048485Y0219289D01*
X0048611Y0219226D01*
X0048735Y0219160D01*
X0048856Y0219091D01*
X0048976Y0219018D01*
X0049094Y0218941D01*
X0049209Y0218862D01*
X0049323Y0218779D01*
X0049433Y0218693D01*
X0049542Y0218604D01*
X0049648Y0218512D01*
X0049751Y0218417D01*
X0049852Y0218320D01*
X0049949Y0218219D01*
X0050044Y0218116D01*
X0050136Y0218010D01*
X0050225Y0217901D01*
X0050311Y0217791D01*
X0050394Y0217677D01*
X0050473Y0217562D01*
X0050550Y0217444D01*
X0050623Y0217324D01*
X0050692Y0217203D01*
X0050758Y0217079D01*
X0050821Y0216953D01*
X0050880Y0216826D01*
X0050935Y0216697D01*
X0050987Y0216567D01*
X0051035Y0216435D01*
X0051080Y0216302D01*
X0051121Y0216168D01*
X0051158Y0216033D01*
X0051191Y0215897D01*
X0051220Y0215759D01*
X0051245Y0215622D01*
X0051267Y0215483D01*
X0051285Y0215344D01*
X0051298Y0215204D01*
X0051308Y0215064D01*
X0051314Y0214924D01*
X0051316Y0214784D01*
X0051316Y0206910D01*
X0051314Y0206770D01*
X0051308Y0206630D01*
X0051298Y0206490D01*
X0051285Y0206350D01*
X0051267Y0206211D01*
X0051245Y0206072D01*
X0051220Y0205935D01*
X0051191Y0205797D01*
X0051158Y0205661D01*
X0051121Y0205526D01*
X0051080Y0205392D01*
X0051035Y0205259D01*
X0050987Y0205127D01*
X0050935Y0204997D01*
X0050880Y0204868D01*
X0050821Y0204741D01*
X0050758Y0204615D01*
X0050692Y0204491D01*
X0050623Y0204370D01*
X0050550Y0204250D01*
X0050473Y0204132D01*
X0050394Y0204017D01*
X0050311Y0203903D01*
X0050225Y0203793D01*
X0050136Y0203684D01*
X0050044Y0203578D01*
X0049949Y0203475D01*
X0049852Y0203374D01*
X0049751Y0203277D01*
X0049648Y0203182D01*
X0049542Y0203090D01*
X0049433Y0203001D01*
X0049323Y0202915D01*
X0049209Y0202832D01*
X0049094Y0202753D01*
X0048976Y0202676D01*
X0048856Y0202603D01*
X0048735Y0202534D01*
X0048611Y0202468D01*
X0048485Y0202405D01*
X0048358Y0202346D01*
X0048229Y0202291D01*
X0048099Y0202239D01*
X0047967Y0202191D01*
X0047834Y0202146D01*
X0047700Y0202105D01*
X0047565Y0202068D01*
X0047429Y0202035D01*
X0047291Y0202006D01*
X0047154Y0201981D01*
X0047015Y0201959D01*
X0046876Y0201941D01*
X0046736Y0201928D01*
X0046596Y0201918D01*
X0046456Y0201912D01*
X0046316Y0201910D01*
X0046176Y0201912D01*
X0046036Y0201918D01*
X0045896Y0201928D01*
X0045756Y0201941D01*
X0045617Y0201959D01*
X0045478Y0201981D01*
X0045341Y0202006D01*
X0045203Y0202035D01*
X0045067Y0202068D01*
X0044932Y0202105D01*
X0044798Y0202146D01*
X0044665Y0202191D01*
X0044533Y0202239D01*
X0044403Y0202291D01*
X0044274Y0202346D01*
X0044147Y0202405D01*
X0044021Y0202468D01*
X0043897Y0202534D01*
X0043776Y0202603D01*
X0043656Y0202676D01*
X0043538Y0202753D01*
X0043423Y0202832D01*
X0043309Y0202915D01*
X0043199Y0203001D01*
X0043090Y0203090D01*
X0042984Y0203182D01*
X0042881Y0203277D01*
X0042780Y0203374D01*
X0042683Y0203475D01*
X0042588Y0203578D01*
X0042496Y0203684D01*
X0042407Y0203793D01*
X0042321Y0203903D01*
X0042238Y0204017D01*
X0042159Y0204132D01*
X0042082Y0204250D01*
X0042009Y0204370D01*
X0041940Y0204491D01*
X0041874Y0204615D01*
X0041811Y0204741D01*
X0041752Y0204868D01*
X0041697Y0204997D01*
X0041645Y0205127D01*
X0041597Y0205259D01*
X0041552Y0205392D01*
X0041511Y0205526D01*
X0041474Y0205661D01*
X0041441Y0205797D01*
X0041412Y0205935D01*
X0041387Y0206072D01*
X0041365Y0206211D01*
X0041347Y0206350D01*
X0041334Y0206490D01*
X0041324Y0206630D01*
X0041318Y0206770D01*
X0041316Y0206910D01*
X0041314Y0206770D01*
X0041308Y0206630D01*
X0041298Y0206490D01*
X0041285Y0206350D01*
X0041267Y0206211D01*
X0041245Y0206072D01*
X0041220Y0205935D01*
X0041191Y0205797D01*
X0041158Y0205661D01*
X0041121Y0205526D01*
X0041080Y0205392D01*
X0041035Y0205259D01*
X0040987Y0205127D01*
X0040935Y0204997D01*
X0040880Y0204868D01*
X0040821Y0204741D01*
X0040758Y0204615D01*
X0040692Y0204491D01*
X0040623Y0204370D01*
X0040550Y0204250D01*
X0040473Y0204132D01*
X0040394Y0204017D01*
X0040311Y0203903D01*
X0040225Y0203793D01*
X0040136Y0203684D01*
X0040044Y0203578D01*
X0039949Y0203475D01*
X0039852Y0203374D01*
X0039751Y0203277D01*
X0039648Y0203182D01*
X0039542Y0203090D01*
X0039433Y0203001D01*
X0039323Y0202915D01*
X0039209Y0202832D01*
X0039094Y0202753D01*
X0038976Y0202676D01*
X0038856Y0202603D01*
X0038735Y0202534D01*
X0038611Y0202468D01*
X0038485Y0202405D01*
X0038358Y0202346D01*
X0038229Y0202291D01*
X0038099Y0202239D01*
X0037967Y0202191D01*
X0037834Y0202146D01*
X0037700Y0202105D01*
X0037565Y0202068D01*
X0037429Y0202035D01*
X0037291Y0202006D01*
X0037154Y0201981D01*
X0037015Y0201959D01*
X0036876Y0201941D01*
X0036736Y0201928D01*
X0036596Y0201918D01*
X0036456Y0201912D01*
X0036316Y0201910D01*
X0036176Y0201912D01*
X0036036Y0201918D01*
X0035896Y0201928D01*
X0035756Y0201941D01*
X0035617Y0201959D01*
X0035478Y0201981D01*
X0035341Y0202006D01*
X0035203Y0202035D01*
X0035067Y0202068D01*
X0034932Y0202105D01*
X0034798Y0202146D01*
X0034665Y0202191D01*
X0034533Y0202239D01*
X0034403Y0202291D01*
X0034274Y0202346D01*
X0034147Y0202405D01*
X0034021Y0202468D01*
X0033897Y0202534D01*
X0033776Y0202603D01*
X0033656Y0202676D01*
X0033538Y0202753D01*
X0033423Y0202832D01*
X0033309Y0202915D01*
X0033199Y0203001D01*
X0033090Y0203090D01*
X0032984Y0203182D01*
X0032881Y0203277D01*
X0032780Y0203374D01*
X0032683Y0203475D01*
X0032588Y0203578D01*
X0032496Y0203684D01*
X0032407Y0203793D01*
X0032321Y0203903D01*
X0032238Y0204017D01*
X0032159Y0204132D01*
X0032082Y0204250D01*
X0032009Y0204370D01*
X0031940Y0204491D01*
X0031874Y0204615D01*
X0031811Y0204741D01*
X0031752Y0204868D01*
X0031697Y0204997D01*
X0031645Y0205127D01*
X0031597Y0205259D01*
X0031552Y0205392D01*
X0031511Y0205526D01*
X0031474Y0205661D01*
X0031441Y0205797D01*
X0031412Y0205935D01*
X0031387Y0206072D01*
X0031365Y0206211D01*
X0031347Y0206350D01*
X0031334Y0206490D01*
X0031324Y0206630D01*
X0031318Y0206770D01*
X0031316Y0206910D01*
X0031316Y0214784D01*
X0031318Y0214924D01*
X0031324Y0215064D01*
X0031334Y0215204D01*
X0031347Y0215344D01*
X0031365Y0215483D01*
X0031387Y0215622D01*
X0031412Y0215759D01*
X0031441Y0215897D01*
X0031474Y0216033D01*
X0031511Y0216168D01*
X0031552Y0216302D01*
X0031597Y0216435D01*
X0031645Y0216567D01*
X0031697Y0216697D01*
X0031752Y0216826D01*
X0031811Y0216953D01*
X0031874Y0217079D01*
X0031940Y0217203D01*
X0032009Y0217324D01*
X0032082Y0217444D01*
X0032159Y0217562D01*
X0032238Y0217677D01*
X0032321Y0217791D01*
X0032407Y0217901D01*
X0032496Y0218010D01*
X0032588Y0218116D01*
X0032683Y0218219D01*
X0032780Y0218320D01*
X0032881Y0218417D01*
X0032984Y0218512D01*
X0033090Y0218604D01*
X0033199Y0218693D01*
X0033309Y0218779D01*
X0033423Y0218862D01*
X0033538Y0218941D01*
X0033656Y0219018D01*
X0033776Y0219091D01*
X0033897Y0219160D01*
X0034021Y0219226D01*
X0034147Y0219289D01*
X0034274Y0219348D01*
X0034403Y0219403D01*
X0034533Y0219455D01*
X0034665Y0219503D01*
X0034798Y0219548D01*
X0034932Y0219589D01*
X0035067Y0219626D01*
X0035203Y0219659D01*
X0035341Y0219688D01*
X0035478Y0219713D01*
X0035617Y0219735D01*
X0035756Y0219753D01*
X0035896Y0219766D01*
X0036036Y0219776D01*
X0036176Y0219782D01*
X0036316Y0219784D01*
X0036456Y0219782D01*
X0036596Y0219776D01*
X0036736Y0219766D01*
X0036876Y0219753D01*
X0037015Y0219735D01*
X0037154Y0219713D01*
X0037291Y0219688D01*
X0037429Y0219659D01*
X0037565Y0219626D01*
X0037700Y0219589D01*
X0037834Y0219548D01*
X0037967Y0219503D01*
X0038099Y0219455D01*
X0038229Y0219403D01*
X0038358Y0219348D01*
X0038485Y0219289D01*
X0038611Y0219226D01*
X0038735Y0219160D01*
X0038856Y0219091D01*
X0038976Y0219018D01*
X0039094Y0218941D01*
X0039209Y0218862D01*
X0039323Y0218779D01*
X0039433Y0218693D01*
X0039542Y0218604D01*
X0039648Y0218512D01*
X0039751Y0218417D01*
X0039852Y0218320D01*
X0039949Y0218219D01*
X0040044Y0218116D01*
X0040136Y0218010D01*
X0040225Y0217901D01*
X0040311Y0217791D01*
X0040394Y0217677D01*
X0040473Y0217562D01*
X0040550Y0217444D01*
X0040623Y0217324D01*
X0040692Y0217203D01*
X0040758Y0217079D01*
X0040821Y0216953D01*
X0040880Y0216826D01*
X0040935Y0216697D01*
X0040987Y0216567D01*
X0041035Y0216435D01*
X0041080Y0216302D01*
X0041121Y0216168D01*
X0041158Y0216033D01*
X0041191Y0215897D01*
X0041220Y0215759D01*
X0041245Y0215622D01*
X0041267Y0215483D01*
X0041285Y0215344D01*
X0041298Y0215204D01*
X0041308Y0215064D01*
X0041314Y0214924D01*
X0041316Y0214784D01*
D13*
X0043990Y0206913D02*
X0047726Y0206913D01*
X0045858Y0208781D02*
X0045858Y0205045D01*
X0037726Y0206913D02*
X0033990Y0206913D01*
X0057197Y0018466D02*
X0057197Y0014730D01*
X0059065Y0016598D02*
X0055328Y0016598D01*
X0065328Y0016598D02*
X0069065Y0016598D01*
D14*
X0051357Y0016237D02*
X0050638Y0015517D01*
X0049919Y0016237D01*
X0049919Y0017675D01*
X0048820Y0017316D02*
X0048820Y0015877D01*
X0048460Y0015517D01*
X0047741Y0015517D01*
X0047381Y0015877D01*
X0047381Y0017316D01*
X0047741Y0017675D01*
X0048460Y0017675D01*
X0048820Y0017316D01*
X0051357Y0017675D02*
X0051357Y0016237D01*
X0046282Y0015517D02*
X0044844Y0015517D01*
X0046282Y0015517D02*
X0046282Y0017675D01*
D15*
X0058717Y0217540D02*
X0085095Y0217540D01*
X0085095Y0227777D01*
X0058717Y0227777D01*
X0058717Y0217540D01*
D16*
X0068381Y0205529D02*
X0070183Y0205529D01*
X0069282Y0205529D02*
X0069282Y0208231D01*
X0070183Y0207330D01*
X0071328Y0207781D02*
X0071778Y0208231D01*
X0072679Y0208231D01*
X0073129Y0207781D01*
X0073129Y0207330D01*
X0072679Y0206880D01*
X0071778Y0206880D01*
X0071328Y0206430D01*
X0071328Y0205979D01*
X0071778Y0205529D01*
X0072679Y0205529D01*
X0073129Y0205979D01*
X0074274Y0205979D02*
X0074274Y0208231D01*
X0074274Y0205979D02*
X0074725Y0205529D01*
X0075626Y0205529D01*
X0076076Y0205979D01*
X0076076Y0208231D01*
X0072229Y0208682D02*
X0072229Y0205079D01*
X0066001Y0094903D02*
X0056158Y0094903D01*
X0056158Y0051595D01*
X0066001Y0051595D01*
X0066001Y0094903D01*
X0044383Y0038971D02*
X0043032Y0038971D01*
X0042581Y0038521D01*
X0042581Y0037620D01*
X0043032Y0037170D01*
X0044383Y0037170D01*
X0043482Y0037170D02*
X0042581Y0036269D01*
X0041436Y0036269D02*
X0039635Y0036269D01*
X0040536Y0036269D02*
X0040536Y0038971D01*
X0041436Y0038071D01*
X0038490Y0038521D02*
X0038040Y0038971D01*
X0037139Y0038971D01*
X0036688Y0038521D01*
X0038490Y0036719D01*
X0038040Y0036269D01*
X0037139Y0036269D01*
X0036688Y0036719D01*
X0036688Y0038521D01*
X0038490Y0038521D02*
X0038490Y0036719D01*
X0044383Y0036269D02*
X0044383Y0038971D01*
X0038441Y0073249D02*
X0038443Y0073337D01*
X0038449Y0073425D01*
X0038459Y0073513D01*
X0038473Y0073601D01*
X0038490Y0073687D01*
X0038512Y0073773D01*
X0038537Y0073857D01*
X0038567Y0073941D01*
X0038599Y0074023D01*
X0038636Y0074103D01*
X0038676Y0074182D01*
X0038720Y0074259D01*
X0038767Y0074334D01*
X0038817Y0074406D01*
X0038871Y0074477D01*
X0038927Y0074544D01*
X0038987Y0074610D01*
X0039049Y0074672D01*
X0039115Y0074732D01*
X0039182Y0074788D01*
X0039253Y0074842D01*
X0039325Y0074892D01*
X0039400Y0074939D01*
X0039477Y0074983D01*
X0039556Y0075023D01*
X0039636Y0075060D01*
X0039718Y0075092D01*
X0039802Y0075122D01*
X0039886Y0075147D01*
X0039972Y0075169D01*
X0040058Y0075186D01*
X0040146Y0075200D01*
X0040234Y0075210D01*
X0040322Y0075216D01*
X0040410Y0075218D01*
X0040498Y0075216D01*
X0040586Y0075210D01*
X0040674Y0075200D01*
X0040762Y0075186D01*
X0040848Y0075169D01*
X0040934Y0075147D01*
X0041018Y0075122D01*
X0041102Y0075092D01*
X0041184Y0075060D01*
X0041264Y0075023D01*
X0041343Y0074983D01*
X0041420Y0074939D01*
X0041495Y0074892D01*
X0041567Y0074842D01*
X0041638Y0074788D01*
X0041705Y0074732D01*
X0041771Y0074672D01*
X0041833Y0074610D01*
X0041893Y0074544D01*
X0041949Y0074477D01*
X0042003Y0074406D01*
X0042053Y0074334D01*
X0042100Y0074259D01*
X0042144Y0074182D01*
X0042184Y0074103D01*
X0042221Y0074023D01*
X0042253Y0073941D01*
X0042283Y0073857D01*
X0042308Y0073773D01*
X0042330Y0073687D01*
X0042347Y0073601D01*
X0042361Y0073513D01*
X0042371Y0073425D01*
X0042377Y0073337D01*
X0042379Y0073249D01*
X0042377Y0073161D01*
X0042371Y0073073D01*
X0042361Y0072985D01*
X0042347Y0072897D01*
X0042330Y0072811D01*
X0042308Y0072725D01*
X0042283Y0072641D01*
X0042253Y0072557D01*
X0042221Y0072475D01*
X0042184Y0072395D01*
X0042144Y0072316D01*
X0042100Y0072239D01*
X0042053Y0072164D01*
X0042003Y0072092D01*
X0041949Y0072021D01*
X0041893Y0071954D01*
X0041833Y0071888D01*
X0041771Y0071826D01*
X0041705Y0071766D01*
X0041638Y0071710D01*
X0041567Y0071656D01*
X0041495Y0071606D01*
X0041420Y0071559D01*
X0041343Y0071515D01*
X0041264Y0071475D01*
X0041184Y0071438D01*
X0041102Y0071406D01*
X0041018Y0071376D01*
X0040934Y0071351D01*
X0040848Y0071329D01*
X0040762Y0071312D01*
X0040674Y0071298D01*
X0040586Y0071288D01*
X0040498Y0071282D01*
X0040410Y0071280D01*
X0040322Y0071282D01*
X0040234Y0071288D01*
X0040146Y0071298D01*
X0040058Y0071312D01*
X0039972Y0071329D01*
X0039886Y0071351D01*
X0039802Y0071376D01*
X0039718Y0071406D01*
X0039636Y0071438D01*
X0039556Y0071475D01*
X0039477Y0071515D01*
X0039400Y0071559D01*
X0039325Y0071606D01*
X0039253Y0071656D01*
X0039182Y0071710D01*
X0039115Y0071766D01*
X0039049Y0071826D01*
X0038987Y0071888D01*
X0038927Y0071954D01*
X0038871Y0072021D01*
X0038817Y0072092D01*
X0038767Y0072164D01*
X0038720Y0072239D01*
X0038676Y0072316D01*
X0038636Y0072395D01*
X0038599Y0072475D01*
X0038567Y0072557D01*
X0038537Y0072641D01*
X0038512Y0072725D01*
X0038490Y0072811D01*
X0038473Y0072897D01*
X0038459Y0072985D01*
X0038449Y0073073D01*
X0038443Y0073161D01*
X0038441Y0073249D01*
X0013048Y0073249D02*
X0013056Y0073920D01*
X0013081Y0074592D01*
X0013122Y0075262D01*
X0013180Y0075931D01*
X0013254Y0076598D01*
X0013344Y0077264D01*
X0013451Y0077927D01*
X0013574Y0078587D01*
X0013713Y0079244D01*
X0013868Y0079897D01*
X0014039Y0080547D01*
X0014226Y0081192D01*
X0014429Y0081832D01*
X0014647Y0082467D01*
X0014881Y0083096D01*
X0015131Y0083720D01*
X0015395Y0084337D01*
X0015675Y0084948D01*
X0015970Y0085551D01*
X0016279Y0086147D01*
X0016603Y0086736D01*
X0016941Y0087316D01*
X0017293Y0087888D01*
X0017659Y0088451D01*
X0018039Y0089004D01*
X0018433Y0089549D01*
X0018839Y0090083D01*
X0019259Y0090607D01*
X0019691Y0091121D01*
X0020136Y0091624D01*
X0020593Y0092116D01*
X0021062Y0092597D01*
X0021543Y0093066D01*
X0022035Y0093523D01*
X0022538Y0093968D01*
X0023052Y0094400D01*
X0023576Y0094820D01*
X0024110Y0095226D01*
X0024655Y0095620D01*
X0025208Y0096000D01*
X0025771Y0096366D01*
X0026343Y0096718D01*
X0026923Y0097056D01*
X0027512Y0097380D01*
X0028108Y0097689D01*
X0028711Y0097984D01*
X0029322Y0098264D01*
X0029939Y0098528D01*
X0030563Y0098778D01*
X0031192Y0099012D01*
X0031827Y0099230D01*
X0032467Y0099433D01*
X0033112Y0099620D01*
X0033762Y0099791D01*
X0034415Y0099946D01*
X0035072Y0100085D01*
X0035732Y0100208D01*
X0036395Y0100315D01*
X0037061Y0100405D01*
X0037728Y0100479D01*
X0038397Y0100537D01*
X0039067Y0100578D01*
X0039739Y0100603D01*
X0040410Y0100611D01*
X0041081Y0100603D01*
X0041753Y0100578D01*
X0042423Y0100537D01*
X0043092Y0100479D01*
X0043759Y0100405D01*
X0044425Y0100315D01*
X0045088Y0100208D01*
X0045748Y0100085D01*
X0046405Y0099946D01*
X0047058Y0099791D01*
X0047708Y0099620D01*
X0048353Y0099433D01*
X0048993Y0099230D01*
X0049628Y0099012D01*
X0050257Y0098778D01*
X0050881Y0098528D01*
X0051498Y0098264D01*
X0052109Y0097984D01*
X0052712Y0097689D01*
X0053308Y0097380D01*
X0053897Y0097056D01*
X0054477Y0096718D01*
X0055049Y0096366D01*
X0055612Y0096000D01*
X0056165Y0095620D01*
X0056710Y0095226D01*
X0057244Y0094820D01*
X0057768Y0094400D01*
X0058282Y0093968D01*
X0058785Y0093523D01*
X0059277Y0093066D01*
X0059758Y0092597D01*
X0060227Y0092116D01*
X0060684Y0091624D01*
X0061129Y0091121D01*
X0061561Y0090607D01*
X0061981Y0090083D01*
X0062387Y0089549D01*
X0062781Y0089004D01*
X0063161Y0088451D01*
X0063527Y0087888D01*
X0063879Y0087316D01*
X0064217Y0086736D01*
X0064541Y0086147D01*
X0064850Y0085551D01*
X0065145Y0084948D01*
X0065425Y0084337D01*
X0065689Y0083720D01*
X0065939Y0083096D01*
X0066173Y0082467D01*
X0066391Y0081832D01*
X0066594Y0081192D01*
X0066781Y0080547D01*
X0066952Y0079897D01*
X0067107Y0079244D01*
X0067246Y0078587D01*
X0067369Y0077927D01*
X0067476Y0077264D01*
X0067566Y0076598D01*
X0067640Y0075931D01*
X0067698Y0075262D01*
X0067739Y0074592D01*
X0067764Y0073920D01*
X0067772Y0073249D01*
X0067764Y0072578D01*
X0067739Y0071906D01*
X0067698Y0071236D01*
X0067640Y0070567D01*
X0067566Y0069900D01*
X0067476Y0069234D01*
X0067369Y0068571D01*
X0067246Y0067911D01*
X0067107Y0067254D01*
X0066952Y0066601D01*
X0066781Y0065951D01*
X0066594Y0065306D01*
X0066391Y0064666D01*
X0066173Y0064031D01*
X0065939Y0063402D01*
X0065689Y0062778D01*
X0065425Y0062161D01*
X0065145Y0061550D01*
X0064850Y0060947D01*
X0064541Y0060351D01*
X0064217Y0059762D01*
X0063879Y0059182D01*
X0063527Y0058610D01*
X0063161Y0058047D01*
X0062781Y0057494D01*
X0062387Y0056949D01*
X0061981Y0056415D01*
X0061561Y0055891D01*
X0061129Y0055377D01*
X0060684Y0054874D01*
X0060227Y0054382D01*
X0059758Y0053901D01*
X0059277Y0053432D01*
X0058785Y0052975D01*
X0058282Y0052530D01*
X0057768Y0052098D01*
X0057244Y0051678D01*
X0056710Y0051272D01*
X0056165Y0050878D01*
X0055612Y0050498D01*
X0055049Y0050132D01*
X0054477Y0049780D01*
X0053897Y0049442D01*
X0053308Y0049118D01*
X0052712Y0048809D01*
X0052109Y0048514D01*
X0051498Y0048234D01*
X0050881Y0047970D01*
X0050257Y0047720D01*
X0049628Y0047486D01*
X0048993Y0047268D01*
X0048353Y0047065D01*
X0047708Y0046878D01*
X0047058Y0046707D01*
X0046405Y0046552D01*
X0045748Y0046413D01*
X0045088Y0046290D01*
X0044425Y0046183D01*
X0043759Y0046093D01*
X0043092Y0046019D01*
X0042423Y0045961D01*
X0041753Y0045920D01*
X0041081Y0045895D01*
X0040410Y0045887D01*
X0039739Y0045895D01*
X0039067Y0045920D01*
X0038397Y0045961D01*
X0037728Y0046019D01*
X0037061Y0046093D01*
X0036395Y0046183D01*
X0035732Y0046290D01*
X0035072Y0046413D01*
X0034415Y0046552D01*
X0033762Y0046707D01*
X0033112Y0046878D01*
X0032467Y0047065D01*
X0031827Y0047268D01*
X0031192Y0047486D01*
X0030563Y0047720D01*
X0029939Y0047970D01*
X0029322Y0048234D01*
X0028711Y0048514D01*
X0028108Y0048809D01*
X0027512Y0049118D01*
X0026923Y0049442D01*
X0026343Y0049780D01*
X0025771Y0050132D01*
X0025208Y0050498D01*
X0024655Y0050878D01*
X0024110Y0051272D01*
X0023576Y0051678D01*
X0023052Y0052098D01*
X0022538Y0052530D01*
X0022035Y0052975D01*
X0021543Y0053432D01*
X0021062Y0053901D01*
X0020593Y0054382D01*
X0020136Y0054874D01*
X0019691Y0055377D01*
X0019259Y0055891D01*
X0018839Y0056415D01*
X0018433Y0056949D01*
X0018039Y0057494D01*
X0017659Y0058047D01*
X0017293Y0058610D01*
X0016941Y0059182D01*
X0016603Y0059762D01*
X0016279Y0060351D01*
X0015970Y0060947D01*
X0015675Y0061550D01*
X0015395Y0062161D01*
X0015131Y0062778D01*
X0014881Y0063402D01*
X0014647Y0064031D01*
X0014429Y0064666D01*
X0014226Y0065306D01*
X0014039Y0065951D01*
X0013868Y0066601D01*
X0013713Y0067254D01*
X0013574Y0067911D01*
X0013451Y0068571D01*
X0013344Y0069234D01*
X0013254Y0069900D01*
X0013180Y0070567D01*
X0013122Y0071236D01*
X0013081Y0071906D01*
X0013056Y0072578D01*
X0013048Y0073249D01*
M02*
