G75*
%MOIN*%
%OFA0B0*%
%FSLAX25Y25*%
%IPPOS*%
%LPD*%
%AMOC8*
5,1,8,0,0,1.08239X$1,22.5*
%
%ADD10C,0.00000*%
%ADD11C,0.00039*%
%ADD12C,0.00600*%
%ADD13R,0.00079X0.03071*%
%ADD14R,0.00079X0.03937*%
%ADD15R,0.00079X0.08661*%
%ADD16R,0.00079X0.02677*%
%ADD17R,0.00079X0.17402*%
%ADD18R,0.00079X0.04016*%
%ADD19R,0.00079X0.09213*%
%ADD20R,0.00079X0.03543*%
%ADD21R,0.00079X0.17480*%
%ADD22R,0.00079X0.00079*%
%ADD23R,0.00079X0.32047*%
%ADD24R,0.00079X0.04488*%
%ADD25R,0.00079X0.09370*%
%ADD26R,0.00079X0.31969*%
%ADD27R,0.00079X0.05118*%
%ADD28R,0.00079X0.09685*%
%ADD29R,0.00079X0.05512*%
%ADD30R,0.00079X0.09843*%
%ADD31R,0.00079X0.04882*%
%ADD32R,0.00079X0.06220*%
%ADD33R,0.00079X0.10000*%
%ADD34R,0.00079X0.05433*%
%ADD35R,0.00079X0.06535*%
%ADD36R,0.00079X0.10236*%
%ADD37R,0.00079X0.05748*%
%ADD38R,0.00079X0.00157*%
%ADD39R,0.00079X0.06850*%
%ADD40R,0.00079X0.10551*%
%ADD41R,0.00079X0.06063*%
%ADD42R,0.00079X0.07165*%
%ADD43R,0.00079X0.10630*%
%ADD44R,0.00079X0.06299*%
%ADD45R,0.00079X0.02362*%
%ADD46R,0.00079X0.03858*%
%ADD47R,0.00079X0.01024*%
%ADD48R,0.00079X0.00945*%
%ADD49R,0.00079X0.00866*%
%ADD50R,0.00079X0.02520*%
%ADD51R,0.00079X0.02598*%
%ADD52R,0.00079X0.00787*%
%ADD53R,0.00079X0.31890*%
%ADD54R,0.00079X0.02283*%
%ADD55R,0.00079X0.01969*%
%ADD56R,0.00079X0.03465*%
%ADD57R,0.00079X0.01811*%
%ADD58R,0.00079X0.02992*%
%ADD59R,0.00079X0.01732*%
%ADD60R,0.00079X0.02756*%
%ADD61R,0.00079X0.01890*%
%ADD62R,0.00079X0.00236*%
%ADD63R,0.00079X0.01575*%
%ADD64R,0.00079X0.01496*%
%ADD65R,0.00079X0.00709*%
%ADD66R,0.00079X0.02441*%
%ADD67R,0.00079X0.01417*%
%ADD68R,0.00079X0.01339*%
%ADD69R,0.00079X0.02205*%
%ADD70R,0.00079X0.01181*%
%ADD71R,0.00079X0.01260*%
%ADD72R,0.00079X0.31811*%
%ADD73R,0.00079X0.01102*%
%ADD74R,0.00079X0.02047*%
%ADD75R,0.00079X0.00315*%
%ADD76R,0.00079X0.01654*%
%ADD77R,0.00079X0.31732*%
%ADD78R,0.00079X0.04646*%
%ADD79R,0.00079X0.07323*%
%ADD80R,0.00079X0.07008*%
%ADD81R,0.00079X0.05039*%
%ADD82R,0.00079X0.00394*%
%ADD83R,0.00079X0.04173*%
%ADD84R,0.00079X0.02126*%
%ADD85R,0.00079X0.06693*%
%ADD86R,0.00079X0.04961*%
%ADD87R,0.00079X0.03307*%
%ADD88R,0.00079X0.03622*%
%ADD89R,0.00079X0.00551*%
%ADD90R,0.00079X0.06457*%
%ADD91R,0.00079X0.02913*%
%ADD92R,0.00079X0.00472*%
%ADD93R,0.00079X0.02835*%
%ADD94R,0.00079X0.04803*%
%ADD95R,0.00079X0.06378*%
%ADD96R,0.00079X0.05984*%
%ADD97R,0.00079X0.06142*%
%ADD98R,0.00079X0.03228*%
%ADD99R,0.00079X0.03386*%
%ADD100R,0.00079X0.05906*%
%ADD101R,0.00079X0.00630*%
%ADD102R,0.00079X0.04094*%
%ADD103R,0.00079X0.04567*%
%ADD104R,0.00079X0.03780*%
%ADD105R,0.00079X0.05591*%
%ADD106R,0.00079X0.04252*%
%ADD107R,0.00079X0.04331*%
%ADD108R,0.00079X0.04409*%
%ADD109R,0.00079X0.03701*%
%ADD110R,0.00079X0.05827*%
%ADD111R,0.00079X0.03150*%
%ADD112R,0.00079X0.05197*%
%ADD113R,0.00079X0.05354*%
%ADD114R,0.00079X0.30315*%
%ADD115R,0.00079X0.30394*%
%ADD116R,0.00079X0.30472*%
%ADD117R,0.00079X0.22126*%
%ADD118R,0.00079X0.07795*%
%ADD119R,0.00079X0.22047*%
%ADD120R,0.00079X0.07638*%
%ADD121R,0.00079X0.21969*%
%ADD122R,0.00079X0.21890*%
%ADD123R,0.00079X0.21811*%
%ADD124R,0.00079X0.05669*%
%ADD125R,0.00079X0.22283*%
%ADD126R,0.00079X0.06614*%
%ADD127R,0.00079X0.25906*%
%ADD128R,0.00079X0.25984*%
%ADD129R,0.00079X0.26063*%
%ADD130R,0.00079X0.26142*%
%ADD131R,0.00079X0.26220*%
%ADD132R,0.00079X0.07402*%
%ADD133R,0.00079X0.17008*%
%ADD134R,0.00079X0.26299*%
%ADD135R,0.00079X0.07244*%
%ADD136R,0.00079X0.05276*%
%ADD137R,0.00079X0.17087*%
%ADD138R,0.00079X0.26378*%
%ADD139R,0.00079X0.06772*%
%ADD140C,0.01000*%
%ADD141C,0.01400*%
%ADD142R,0.02559X0.05512*%
%ADD143C,0.00500*%
%ADD144C,0.00060*%
%ADD145C,0.00100*%
D10*
X0021709Y0041556D02*
X0021709Y0143918D01*
X0021711Y0144042D01*
X0021717Y0144165D01*
X0021726Y0144289D01*
X0021740Y0144411D01*
X0021757Y0144534D01*
X0021779Y0144656D01*
X0021804Y0144777D01*
X0021833Y0144897D01*
X0021865Y0145016D01*
X0021902Y0145135D01*
X0021942Y0145252D01*
X0021985Y0145367D01*
X0022033Y0145482D01*
X0022084Y0145594D01*
X0022138Y0145705D01*
X0022196Y0145815D01*
X0022257Y0145922D01*
X0022322Y0146028D01*
X0022390Y0146131D01*
X0022461Y0146232D01*
X0022535Y0146331D01*
X0022612Y0146428D01*
X0022693Y0146522D01*
X0022776Y0146613D01*
X0022862Y0146702D01*
X0022951Y0146788D01*
X0023042Y0146871D01*
X0023136Y0146952D01*
X0023233Y0147029D01*
X0023332Y0147103D01*
X0023433Y0147174D01*
X0023536Y0147242D01*
X0023642Y0147307D01*
X0023749Y0147368D01*
X0023859Y0147426D01*
X0023970Y0147480D01*
X0024082Y0147531D01*
X0024197Y0147579D01*
X0024312Y0147622D01*
X0024429Y0147662D01*
X0024548Y0147699D01*
X0024667Y0147731D01*
X0024787Y0147760D01*
X0024908Y0147785D01*
X0025030Y0147807D01*
X0025153Y0147824D01*
X0025275Y0147838D01*
X0025399Y0147847D01*
X0025522Y0147853D01*
X0025646Y0147855D01*
X0028599Y0147855D01*
X0028599Y0218721D01*
X0028601Y0218845D01*
X0028607Y0218968D01*
X0028616Y0219092D01*
X0028630Y0219214D01*
X0028647Y0219337D01*
X0028669Y0219459D01*
X0028694Y0219580D01*
X0028723Y0219700D01*
X0028755Y0219819D01*
X0028792Y0219938D01*
X0028832Y0220055D01*
X0028875Y0220170D01*
X0028923Y0220285D01*
X0028974Y0220397D01*
X0029028Y0220508D01*
X0029086Y0220618D01*
X0029147Y0220725D01*
X0029212Y0220831D01*
X0029280Y0220934D01*
X0029351Y0221035D01*
X0029425Y0221134D01*
X0029502Y0221231D01*
X0029583Y0221325D01*
X0029666Y0221416D01*
X0029752Y0221505D01*
X0029841Y0221591D01*
X0029932Y0221674D01*
X0030026Y0221755D01*
X0030123Y0221832D01*
X0030222Y0221906D01*
X0030323Y0221977D01*
X0030426Y0222045D01*
X0030532Y0222110D01*
X0030639Y0222171D01*
X0030749Y0222229D01*
X0030860Y0222283D01*
X0030972Y0222334D01*
X0031087Y0222382D01*
X0031202Y0222425D01*
X0031319Y0222465D01*
X0031438Y0222502D01*
X0031557Y0222534D01*
X0031677Y0222563D01*
X0031798Y0222588D01*
X0031920Y0222610D01*
X0032043Y0222627D01*
X0032165Y0222641D01*
X0032289Y0222650D01*
X0032412Y0222656D01*
X0032536Y0222658D01*
X0048284Y0222658D01*
X0048284Y0226595D01*
X0050253Y0226595D01*
X0050253Y0228564D01*
X0060095Y0228564D01*
X0060095Y0226595D01*
X0083717Y0226595D01*
X0083717Y0228564D01*
X0093560Y0228564D01*
X0093560Y0226595D01*
X0095528Y0226595D01*
X0095528Y0222658D01*
X0103402Y0222658D01*
X0103402Y0206910D01*
X0064032Y0167540D01*
X0064032Y0116359D01*
X0087654Y0092737D01*
X0087654Y0053367D01*
X0075843Y0041556D01*
X0075843Y0002186D01*
X0028599Y0002186D01*
X0028599Y0037619D01*
X0025646Y0037619D01*
X0025522Y0037621D01*
X0025399Y0037627D01*
X0025275Y0037636D01*
X0025153Y0037650D01*
X0025030Y0037667D01*
X0024908Y0037689D01*
X0024787Y0037714D01*
X0024667Y0037743D01*
X0024548Y0037775D01*
X0024429Y0037812D01*
X0024312Y0037852D01*
X0024197Y0037895D01*
X0024082Y0037943D01*
X0023970Y0037994D01*
X0023859Y0038048D01*
X0023749Y0038106D01*
X0023642Y0038167D01*
X0023536Y0038232D01*
X0023433Y0038300D01*
X0023332Y0038371D01*
X0023233Y0038445D01*
X0023136Y0038522D01*
X0023042Y0038603D01*
X0022951Y0038686D01*
X0022862Y0038772D01*
X0022776Y0038861D01*
X0022693Y0038952D01*
X0022612Y0039046D01*
X0022535Y0039143D01*
X0022461Y0039242D01*
X0022390Y0039343D01*
X0022322Y0039446D01*
X0022257Y0039552D01*
X0022196Y0039659D01*
X0022138Y0039769D01*
X0022084Y0039880D01*
X0022033Y0039992D01*
X0021985Y0040107D01*
X0021942Y0040222D01*
X0021902Y0040339D01*
X0021865Y0040458D01*
X0021833Y0040577D01*
X0021804Y0040697D01*
X0021779Y0040818D01*
X0021757Y0040940D01*
X0021740Y0041063D01*
X0021726Y0041185D01*
X0021717Y0041309D01*
X0021711Y0041432D01*
X0021709Y0041556D01*
X0064229Y0222658D02*
X0064231Y0222742D01*
X0064237Y0222825D01*
X0064247Y0222908D01*
X0064261Y0222991D01*
X0064278Y0223073D01*
X0064300Y0223154D01*
X0064325Y0223233D01*
X0064354Y0223312D01*
X0064387Y0223389D01*
X0064423Y0223464D01*
X0064463Y0223538D01*
X0064506Y0223610D01*
X0064553Y0223679D01*
X0064603Y0223746D01*
X0064656Y0223811D01*
X0064712Y0223873D01*
X0064770Y0223933D01*
X0064832Y0223990D01*
X0064896Y0224043D01*
X0064963Y0224094D01*
X0065032Y0224141D01*
X0065103Y0224186D01*
X0065176Y0224226D01*
X0065251Y0224263D01*
X0065328Y0224297D01*
X0065406Y0224327D01*
X0065485Y0224353D01*
X0065566Y0224376D01*
X0065648Y0224394D01*
X0065730Y0224409D01*
X0065813Y0224420D01*
X0065896Y0224427D01*
X0065980Y0224430D01*
X0066064Y0224429D01*
X0066147Y0224424D01*
X0066231Y0224415D01*
X0066313Y0224402D01*
X0066395Y0224386D01*
X0066476Y0224365D01*
X0066557Y0224341D01*
X0066635Y0224313D01*
X0066713Y0224281D01*
X0066789Y0224245D01*
X0066863Y0224206D01*
X0066935Y0224164D01*
X0067005Y0224118D01*
X0067073Y0224069D01*
X0067138Y0224017D01*
X0067201Y0223962D01*
X0067261Y0223904D01*
X0067319Y0223843D01*
X0067373Y0223779D01*
X0067425Y0223713D01*
X0067473Y0223645D01*
X0067518Y0223574D01*
X0067559Y0223501D01*
X0067598Y0223427D01*
X0067632Y0223351D01*
X0067663Y0223273D01*
X0067690Y0223194D01*
X0067714Y0223113D01*
X0067733Y0223032D01*
X0067749Y0222950D01*
X0067761Y0222867D01*
X0067769Y0222783D01*
X0067773Y0222700D01*
X0067773Y0222616D01*
X0067769Y0222533D01*
X0067761Y0222449D01*
X0067749Y0222366D01*
X0067733Y0222284D01*
X0067714Y0222203D01*
X0067690Y0222122D01*
X0067663Y0222043D01*
X0067632Y0221965D01*
X0067598Y0221889D01*
X0067559Y0221815D01*
X0067518Y0221742D01*
X0067473Y0221671D01*
X0067425Y0221603D01*
X0067373Y0221537D01*
X0067319Y0221473D01*
X0067261Y0221412D01*
X0067201Y0221354D01*
X0067138Y0221299D01*
X0067073Y0221247D01*
X0067005Y0221198D01*
X0066935Y0221152D01*
X0066863Y0221110D01*
X0066789Y0221071D01*
X0066713Y0221035D01*
X0066635Y0221003D01*
X0066557Y0220975D01*
X0066476Y0220951D01*
X0066395Y0220930D01*
X0066313Y0220914D01*
X0066231Y0220901D01*
X0066147Y0220892D01*
X0066064Y0220887D01*
X0065980Y0220886D01*
X0065896Y0220889D01*
X0065813Y0220896D01*
X0065730Y0220907D01*
X0065648Y0220922D01*
X0065566Y0220940D01*
X0065485Y0220963D01*
X0065406Y0220989D01*
X0065328Y0221019D01*
X0065251Y0221053D01*
X0065176Y0221090D01*
X0065103Y0221130D01*
X0065032Y0221175D01*
X0064963Y0221222D01*
X0064896Y0221273D01*
X0064832Y0221326D01*
X0064770Y0221383D01*
X0064712Y0221443D01*
X0064656Y0221505D01*
X0064603Y0221570D01*
X0064553Y0221637D01*
X0064506Y0221706D01*
X0064463Y0221778D01*
X0064423Y0221852D01*
X0064387Y0221927D01*
X0064354Y0222004D01*
X0064325Y0222083D01*
X0064300Y0222162D01*
X0064278Y0222243D01*
X0064261Y0222325D01*
X0064247Y0222408D01*
X0064237Y0222491D01*
X0064231Y0222574D01*
X0064229Y0222658D01*
X0076040Y0222658D02*
X0076042Y0222742D01*
X0076048Y0222825D01*
X0076058Y0222908D01*
X0076072Y0222991D01*
X0076089Y0223073D01*
X0076111Y0223154D01*
X0076136Y0223233D01*
X0076165Y0223312D01*
X0076198Y0223389D01*
X0076234Y0223464D01*
X0076274Y0223538D01*
X0076317Y0223610D01*
X0076364Y0223679D01*
X0076414Y0223746D01*
X0076467Y0223811D01*
X0076523Y0223873D01*
X0076581Y0223933D01*
X0076643Y0223990D01*
X0076707Y0224043D01*
X0076774Y0224094D01*
X0076843Y0224141D01*
X0076914Y0224186D01*
X0076987Y0224226D01*
X0077062Y0224263D01*
X0077139Y0224297D01*
X0077217Y0224327D01*
X0077296Y0224353D01*
X0077377Y0224376D01*
X0077459Y0224394D01*
X0077541Y0224409D01*
X0077624Y0224420D01*
X0077707Y0224427D01*
X0077791Y0224430D01*
X0077875Y0224429D01*
X0077958Y0224424D01*
X0078042Y0224415D01*
X0078124Y0224402D01*
X0078206Y0224386D01*
X0078287Y0224365D01*
X0078368Y0224341D01*
X0078446Y0224313D01*
X0078524Y0224281D01*
X0078600Y0224245D01*
X0078674Y0224206D01*
X0078746Y0224164D01*
X0078816Y0224118D01*
X0078884Y0224069D01*
X0078949Y0224017D01*
X0079012Y0223962D01*
X0079072Y0223904D01*
X0079130Y0223843D01*
X0079184Y0223779D01*
X0079236Y0223713D01*
X0079284Y0223645D01*
X0079329Y0223574D01*
X0079370Y0223501D01*
X0079409Y0223427D01*
X0079443Y0223351D01*
X0079474Y0223273D01*
X0079501Y0223194D01*
X0079525Y0223113D01*
X0079544Y0223032D01*
X0079560Y0222950D01*
X0079572Y0222867D01*
X0079580Y0222783D01*
X0079584Y0222700D01*
X0079584Y0222616D01*
X0079580Y0222533D01*
X0079572Y0222449D01*
X0079560Y0222366D01*
X0079544Y0222284D01*
X0079525Y0222203D01*
X0079501Y0222122D01*
X0079474Y0222043D01*
X0079443Y0221965D01*
X0079409Y0221889D01*
X0079370Y0221815D01*
X0079329Y0221742D01*
X0079284Y0221671D01*
X0079236Y0221603D01*
X0079184Y0221537D01*
X0079130Y0221473D01*
X0079072Y0221412D01*
X0079012Y0221354D01*
X0078949Y0221299D01*
X0078884Y0221247D01*
X0078816Y0221198D01*
X0078746Y0221152D01*
X0078674Y0221110D01*
X0078600Y0221071D01*
X0078524Y0221035D01*
X0078446Y0221003D01*
X0078368Y0220975D01*
X0078287Y0220951D01*
X0078206Y0220930D01*
X0078124Y0220914D01*
X0078042Y0220901D01*
X0077958Y0220892D01*
X0077875Y0220887D01*
X0077791Y0220886D01*
X0077707Y0220889D01*
X0077624Y0220896D01*
X0077541Y0220907D01*
X0077459Y0220922D01*
X0077377Y0220940D01*
X0077296Y0220963D01*
X0077217Y0220989D01*
X0077139Y0221019D01*
X0077062Y0221053D01*
X0076987Y0221090D01*
X0076914Y0221130D01*
X0076843Y0221175D01*
X0076774Y0221222D01*
X0076707Y0221273D01*
X0076643Y0221326D01*
X0076581Y0221383D01*
X0076523Y0221443D01*
X0076467Y0221505D01*
X0076414Y0221570D01*
X0076364Y0221637D01*
X0076317Y0221706D01*
X0076274Y0221778D01*
X0076234Y0221852D01*
X0076198Y0221927D01*
X0076165Y0222004D01*
X0076136Y0222083D01*
X0076111Y0222162D01*
X0076089Y0222243D01*
X0076072Y0222325D01*
X0076058Y0222408D01*
X0076048Y0222491D01*
X0076042Y0222574D01*
X0076040Y0222658D01*
D11*
X0030961Y0198249D02*
X0030963Y0198392D01*
X0030969Y0198535D01*
X0030979Y0198677D01*
X0030993Y0198819D01*
X0031011Y0198961D01*
X0031033Y0199103D01*
X0031058Y0199243D01*
X0031088Y0199383D01*
X0031122Y0199522D01*
X0031159Y0199660D01*
X0031201Y0199797D01*
X0031246Y0199932D01*
X0031295Y0200066D01*
X0031347Y0200199D01*
X0031403Y0200331D01*
X0031463Y0200460D01*
X0031527Y0200588D01*
X0031594Y0200715D01*
X0031665Y0200839D01*
X0031739Y0200961D01*
X0031816Y0201081D01*
X0031897Y0201199D01*
X0031981Y0201315D01*
X0032068Y0201428D01*
X0032158Y0201539D01*
X0032252Y0201647D01*
X0032348Y0201753D01*
X0032447Y0201855D01*
X0032550Y0201955D01*
X0032654Y0202052D01*
X0032762Y0202147D01*
X0032872Y0202238D01*
X0032985Y0202326D01*
X0033100Y0202410D01*
X0033217Y0202492D01*
X0033337Y0202570D01*
X0033458Y0202645D01*
X0033582Y0202717D01*
X0033708Y0202785D01*
X0033835Y0202849D01*
X0033965Y0202910D01*
X0034096Y0202967D01*
X0034228Y0203021D01*
X0034362Y0203070D01*
X0034497Y0203117D01*
X0034634Y0203159D01*
X0034772Y0203197D01*
X0034910Y0203232D01*
X0035050Y0203262D01*
X0035190Y0203289D01*
X0035331Y0203312D01*
X0035473Y0203331D01*
X0035615Y0203346D01*
X0035758Y0203357D01*
X0035900Y0203364D01*
X0036043Y0203367D01*
X0036186Y0203366D01*
X0036329Y0203361D01*
X0036472Y0203352D01*
X0036614Y0203339D01*
X0036756Y0203322D01*
X0036897Y0203301D01*
X0037038Y0203276D01*
X0037178Y0203248D01*
X0037317Y0203215D01*
X0037455Y0203178D01*
X0037592Y0203138D01*
X0037728Y0203094D01*
X0037863Y0203046D01*
X0037996Y0202994D01*
X0038128Y0202939D01*
X0038258Y0202880D01*
X0038387Y0202817D01*
X0038513Y0202751D01*
X0038638Y0202681D01*
X0038761Y0202608D01*
X0038881Y0202532D01*
X0039000Y0202452D01*
X0039116Y0202368D01*
X0039230Y0202282D01*
X0039341Y0202192D01*
X0039450Y0202100D01*
X0039556Y0202004D01*
X0039660Y0201906D01*
X0039761Y0201804D01*
X0039858Y0201700D01*
X0039953Y0201593D01*
X0040045Y0201484D01*
X0040134Y0201372D01*
X0040220Y0201257D01*
X0040302Y0201141D01*
X0040381Y0201021D01*
X0040457Y0200900D01*
X0040529Y0200777D01*
X0040598Y0200652D01*
X0040663Y0200525D01*
X0040725Y0200396D01*
X0040783Y0200265D01*
X0040838Y0200133D01*
X0040888Y0199999D01*
X0040935Y0199864D01*
X0040979Y0199728D01*
X0041018Y0199591D01*
X0041053Y0199452D01*
X0041085Y0199313D01*
X0041113Y0199173D01*
X0041137Y0199032D01*
X0041157Y0198890D01*
X0041173Y0198748D01*
X0041185Y0198606D01*
X0041193Y0198463D01*
X0041197Y0198320D01*
X0041197Y0198178D01*
X0041193Y0198035D01*
X0041185Y0197892D01*
X0041173Y0197750D01*
X0041157Y0197608D01*
X0041137Y0197466D01*
X0041113Y0197325D01*
X0041085Y0197185D01*
X0041053Y0197046D01*
X0041018Y0196907D01*
X0040979Y0196770D01*
X0040935Y0196634D01*
X0040888Y0196499D01*
X0040838Y0196365D01*
X0040783Y0196233D01*
X0040725Y0196102D01*
X0040663Y0195973D01*
X0040598Y0195846D01*
X0040529Y0195721D01*
X0040457Y0195598D01*
X0040381Y0195477D01*
X0040302Y0195357D01*
X0040220Y0195241D01*
X0040134Y0195126D01*
X0040045Y0195014D01*
X0039953Y0194905D01*
X0039858Y0194798D01*
X0039761Y0194694D01*
X0039660Y0194592D01*
X0039556Y0194494D01*
X0039450Y0194398D01*
X0039341Y0194306D01*
X0039230Y0194216D01*
X0039116Y0194130D01*
X0039000Y0194046D01*
X0038881Y0193966D01*
X0038761Y0193890D01*
X0038638Y0193817D01*
X0038513Y0193747D01*
X0038387Y0193681D01*
X0038258Y0193618D01*
X0038128Y0193559D01*
X0037996Y0193504D01*
X0037863Y0193452D01*
X0037728Y0193404D01*
X0037592Y0193360D01*
X0037455Y0193320D01*
X0037317Y0193283D01*
X0037178Y0193250D01*
X0037038Y0193222D01*
X0036897Y0193197D01*
X0036756Y0193176D01*
X0036614Y0193159D01*
X0036472Y0193146D01*
X0036329Y0193137D01*
X0036186Y0193132D01*
X0036043Y0193131D01*
X0035900Y0193134D01*
X0035758Y0193141D01*
X0035615Y0193152D01*
X0035473Y0193167D01*
X0035331Y0193186D01*
X0035190Y0193209D01*
X0035050Y0193236D01*
X0034910Y0193266D01*
X0034772Y0193301D01*
X0034634Y0193339D01*
X0034497Y0193381D01*
X0034362Y0193428D01*
X0034228Y0193477D01*
X0034096Y0193531D01*
X0033965Y0193588D01*
X0033835Y0193649D01*
X0033708Y0193713D01*
X0033582Y0193781D01*
X0033458Y0193853D01*
X0033337Y0193928D01*
X0033217Y0194006D01*
X0033100Y0194088D01*
X0032985Y0194172D01*
X0032872Y0194260D01*
X0032762Y0194351D01*
X0032654Y0194446D01*
X0032550Y0194543D01*
X0032447Y0194643D01*
X0032348Y0194745D01*
X0032252Y0194851D01*
X0032158Y0194959D01*
X0032068Y0195070D01*
X0031981Y0195183D01*
X0031897Y0195299D01*
X0031816Y0195417D01*
X0031739Y0195537D01*
X0031665Y0195659D01*
X0031594Y0195783D01*
X0031527Y0195910D01*
X0031463Y0196038D01*
X0031403Y0196167D01*
X0031347Y0196299D01*
X0031295Y0196432D01*
X0031246Y0196566D01*
X0031201Y0196701D01*
X0031159Y0196838D01*
X0031122Y0196976D01*
X0031088Y0197115D01*
X0031058Y0197255D01*
X0031033Y0197395D01*
X0031011Y0197537D01*
X0030993Y0197679D01*
X0030979Y0197821D01*
X0030969Y0197963D01*
X0030963Y0198106D01*
X0030961Y0198249D01*
X0030961Y0026989D02*
X0030963Y0027132D01*
X0030969Y0027275D01*
X0030979Y0027417D01*
X0030993Y0027559D01*
X0031011Y0027701D01*
X0031033Y0027843D01*
X0031058Y0027983D01*
X0031088Y0028123D01*
X0031122Y0028262D01*
X0031159Y0028400D01*
X0031201Y0028537D01*
X0031246Y0028672D01*
X0031295Y0028806D01*
X0031347Y0028939D01*
X0031403Y0029071D01*
X0031463Y0029200D01*
X0031527Y0029328D01*
X0031594Y0029455D01*
X0031665Y0029579D01*
X0031739Y0029701D01*
X0031816Y0029821D01*
X0031897Y0029939D01*
X0031981Y0030055D01*
X0032068Y0030168D01*
X0032158Y0030279D01*
X0032252Y0030387D01*
X0032348Y0030493D01*
X0032447Y0030595D01*
X0032550Y0030695D01*
X0032654Y0030792D01*
X0032762Y0030887D01*
X0032872Y0030978D01*
X0032985Y0031066D01*
X0033100Y0031150D01*
X0033217Y0031232D01*
X0033337Y0031310D01*
X0033458Y0031385D01*
X0033582Y0031457D01*
X0033708Y0031525D01*
X0033835Y0031589D01*
X0033965Y0031650D01*
X0034096Y0031707D01*
X0034228Y0031761D01*
X0034362Y0031810D01*
X0034497Y0031857D01*
X0034634Y0031899D01*
X0034772Y0031937D01*
X0034910Y0031972D01*
X0035050Y0032002D01*
X0035190Y0032029D01*
X0035331Y0032052D01*
X0035473Y0032071D01*
X0035615Y0032086D01*
X0035758Y0032097D01*
X0035900Y0032104D01*
X0036043Y0032107D01*
X0036186Y0032106D01*
X0036329Y0032101D01*
X0036472Y0032092D01*
X0036614Y0032079D01*
X0036756Y0032062D01*
X0036897Y0032041D01*
X0037038Y0032016D01*
X0037178Y0031988D01*
X0037317Y0031955D01*
X0037455Y0031918D01*
X0037592Y0031878D01*
X0037728Y0031834D01*
X0037863Y0031786D01*
X0037996Y0031734D01*
X0038128Y0031679D01*
X0038258Y0031620D01*
X0038387Y0031557D01*
X0038513Y0031491D01*
X0038638Y0031421D01*
X0038761Y0031348D01*
X0038881Y0031272D01*
X0039000Y0031192D01*
X0039116Y0031108D01*
X0039230Y0031022D01*
X0039341Y0030932D01*
X0039450Y0030840D01*
X0039556Y0030744D01*
X0039660Y0030646D01*
X0039761Y0030544D01*
X0039858Y0030440D01*
X0039953Y0030333D01*
X0040045Y0030224D01*
X0040134Y0030112D01*
X0040220Y0029997D01*
X0040302Y0029881D01*
X0040381Y0029761D01*
X0040457Y0029640D01*
X0040529Y0029517D01*
X0040598Y0029392D01*
X0040663Y0029265D01*
X0040725Y0029136D01*
X0040783Y0029005D01*
X0040838Y0028873D01*
X0040888Y0028739D01*
X0040935Y0028604D01*
X0040979Y0028468D01*
X0041018Y0028331D01*
X0041053Y0028192D01*
X0041085Y0028053D01*
X0041113Y0027913D01*
X0041137Y0027772D01*
X0041157Y0027630D01*
X0041173Y0027488D01*
X0041185Y0027346D01*
X0041193Y0027203D01*
X0041197Y0027060D01*
X0041197Y0026918D01*
X0041193Y0026775D01*
X0041185Y0026632D01*
X0041173Y0026490D01*
X0041157Y0026348D01*
X0041137Y0026206D01*
X0041113Y0026065D01*
X0041085Y0025925D01*
X0041053Y0025786D01*
X0041018Y0025647D01*
X0040979Y0025510D01*
X0040935Y0025374D01*
X0040888Y0025239D01*
X0040838Y0025105D01*
X0040783Y0024973D01*
X0040725Y0024842D01*
X0040663Y0024713D01*
X0040598Y0024586D01*
X0040529Y0024461D01*
X0040457Y0024338D01*
X0040381Y0024217D01*
X0040302Y0024097D01*
X0040220Y0023981D01*
X0040134Y0023866D01*
X0040045Y0023754D01*
X0039953Y0023645D01*
X0039858Y0023538D01*
X0039761Y0023434D01*
X0039660Y0023332D01*
X0039556Y0023234D01*
X0039450Y0023138D01*
X0039341Y0023046D01*
X0039230Y0022956D01*
X0039116Y0022870D01*
X0039000Y0022786D01*
X0038881Y0022706D01*
X0038761Y0022630D01*
X0038638Y0022557D01*
X0038513Y0022487D01*
X0038387Y0022421D01*
X0038258Y0022358D01*
X0038128Y0022299D01*
X0037996Y0022244D01*
X0037863Y0022192D01*
X0037728Y0022144D01*
X0037592Y0022100D01*
X0037455Y0022060D01*
X0037317Y0022023D01*
X0037178Y0021990D01*
X0037038Y0021962D01*
X0036897Y0021937D01*
X0036756Y0021916D01*
X0036614Y0021899D01*
X0036472Y0021886D01*
X0036329Y0021877D01*
X0036186Y0021872D01*
X0036043Y0021871D01*
X0035900Y0021874D01*
X0035758Y0021881D01*
X0035615Y0021892D01*
X0035473Y0021907D01*
X0035331Y0021926D01*
X0035190Y0021949D01*
X0035050Y0021976D01*
X0034910Y0022006D01*
X0034772Y0022041D01*
X0034634Y0022079D01*
X0034497Y0022121D01*
X0034362Y0022168D01*
X0034228Y0022217D01*
X0034096Y0022271D01*
X0033965Y0022328D01*
X0033835Y0022389D01*
X0033708Y0022453D01*
X0033582Y0022521D01*
X0033458Y0022593D01*
X0033337Y0022668D01*
X0033217Y0022746D01*
X0033100Y0022828D01*
X0032985Y0022912D01*
X0032872Y0023000D01*
X0032762Y0023091D01*
X0032654Y0023186D01*
X0032550Y0023283D01*
X0032447Y0023383D01*
X0032348Y0023485D01*
X0032252Y0023591D01*
X0032158Y0023699D01*
X0032068Y0023810D01*
X0031981Y0023923D01*
X0031897Y0024039D01*
X0031816Y0024157D01*
X0031739Y0024277D01*
X0031665Y0024399D01*
X0031594Y0024523D01*
X0031527Y0024650D01*
X0031463Y0024778D01*
X0031403Y0024907D01*
X0031347Y0025039D01*
X0031295Y0025172D01*
X0031246Y0025306D01*
X0031201Y0025441D01*
X0031159Y0025578D01*
X0031122Y0025716D01*
X0031088Y0025855D01*
X0031058Y0025995D01*
X0031033Y0026135D01*
X0031011Y0026277D01*
X0030993Y0026419D01*
X0030979Y0026561D01*
X0030969Y0026703D01*
X0030963Y0026846D01*
X0030961Y0026989D01*
D12*
X0044345Y0017675D02*
X0044345Y0016237D01*
X0045064Y0015517D01*
X0045783Y0016237D01*
X0045783Y0017675D01*
X0046882Y0017316D02*
X0046882Y0015877D01*
X0047242Y0015517D01*
X0047961Y0015517D01*
X0048321Y0015877D01*
X0048321Y0017316D01*
X0047961Y0017675D01*
X0047242Y0017675D01*
X0046882Y0017316D01*
X0049420Y0017675D02*
X0049420Y0015517D01*
X0050858Y0015517D01*
D13*
X0033323Y0057619D03*
X0033245Y0057619D03*
X0031119Y0053288D03*
X0028284Y0067462D03*
X0026946Y0076359D03*
X0031197Y0080454D03*
X0030961Y0070296D03*
X0033166Y0104076D03*
X0033087Y0113840D03*
X0031512Y0114154D03*
X0029071Y0123840D03*
X0027024Y0114784D03*
X0024662Y0134548D03*
X0035449Y0122895D03*
X0035528Y0122895D03*
D14*
X0025449Y0131595D03*
X0024662Y0128997D03*
X0024741Y0128918D03*
X0024820Y0128840D03*
X0024898Y0128840D03*
X0024977Y0128761D03*
X0025056Y0128761D03*
X0025134Y0128682D03*
X0025292Y0128603D03*
D15*
X0024662Y0117580D03*
D16*
X0024662Y0105296D03*
X0030489Y0110966D03*
X0031197Y0114430D03*
X0029623Y0123800D03*
X0032615Y0131202D03*
X0034977Y0105926D03*
X0028993Y0078997D03*
X0028914Y0078997D03*
X0028835Y0078997D03*
X0028835Y0073406D03*
X0028914Y0073406D03*
X0028993Y0073406D03*
X0030883Y0075847D03*
X0032300Y0057658D03*
X0032772Y0057501D03*
X0032851Y0057501D03*
X0032930Y0057501D03*
X0033009Y0057501D03*
X0030961Y0053091D03*
X0026709Y0066320D03*
D17*
X0025292Y0092186D03*
X0025213Y0092186D03*
X0025134Y0092186D03*
X0024662Y0092265D03*
D18*
X0027497Y0104942D03*
X0024820Y0105257D03*
X0025213Y0128643D03*
X0024741Y0134469D03*
X0027260Y0134154D03*
X0032930Y0104154D03*
X0035607Y0103918D03*
X0029150Y0067068D03*
D19*
X0024741Y0117383D03*
D20*
X0027260Y0114548D03*
X0027339Y0114548D03*
X0027418Y0114548D03*
X0029150Y0114233D03*
X0027260Y0104942D03*
X0024741Y0105257D03*
X0033087Y0104154D03*
X0033087Y0133446D03*
X0028835Y0067304D03*
D21*
X0025056Y0092225D03*
X0024977Y0092225D03*
X0024898Y0092225D03*
X0024820Y0092225D03*
X0024741Y0092225D03*
D22*
X0026631Y0092028D03*
X0026473Y0084154D03*
X0027260Y0080454D03*
X0028048Y0078170D03*
X0029308Y0080217D03*
X0029938Y0084154D03*
X0030646Y0079981D03*
X0030095Y0068406D03*
X0027575Y0064469D03*
X0027418Y0063052D03*
X0027260Y0063052D03*
X0026788Y0062895D03*
X0026788Y0062737D03*
X0026788Y0062580D03*
X0026788Y0062422D03*
X0026788Y0062265D03*
X0026788Y0060690D03*
X0026788Y0060532D03*
X0026788Y0060375D03*
X0026788Y0060217D03*
X0026788Y0060060D03*
X0026788Y0059903D03*
X0027733Y0056595D03*
X0027575Y0048879D03*
X0027812Y0048800D03*
X0027969Y0048800D03*
X0032930Y0042737D03*
X0025056Y0081950D03*
X0024977Y0081950D03*
X0024898Y0081950D03*
X0024820Y0081950D03*
X0024741Y0081950D03*
X0025371Y0101792D03*
X0026158Y0111714D03*
X0025528Y0113288D03*
X0025371Y0113918D03*
X0026631Y0119588D03*
X0026316Y0121477D03*
X0025371Y0133603D03*
X0027733Y0133761D03*
X0028914Y0137304D03*
X0028520Y0129351D03*
X0030410Y0123525D03*
X0030883Y0117540D03*
X0031985Y0115651D03*
X0030725Y0111714D03*
X0030095Y0109666D03*
X0030883Y0107777D03*
X0029623Y0113603D03*
X0028520Y0107777D03*
X0032615Y0123525D03*
X0032851Y0123288D03*
X0031827Y0129036D03*
X0031827Y0129194D03*
X0031827Y0129351D03*
X0031827Y0129509D03*
X0031827Y0129666D03*
X0031827Y0129824D03*
X0031827Y0129981D03*
X0031827Y0130139D03*
X0031827Y0130296D03*
X0031827Y0130454D03*
X0031827Y0130611D03*
X0031827Y0131556D03*
X0031827Y0131714D03*
X0031827Y0131871D03*
X0031827Y0132028D03*
X0031827Y0132186D03*
X0031827Y0132343D03*
X0031827Y0132501D03*
X0031827Y0132658D03*
X0031827Y0132816D03*
X0031827Y0132973D03*
X0031827Y0133131D03*
X0031827Y0133288D03*
X0031827Y0133446D03*
X0031827Y0133603D03*
X0031827Y0133761D03*
X0031827Y0133918D03*
X0031827Y0134076D03*
X0031827Y0134233D03*
X0033087Y0135336D03*
X0033560Y0132973D03*
X0034977Y0132501D03*
X0035607Y0135336D03*
X0035764Y0111871D03*
X0033560Y0103525D03*
X0033087Y0099903D03*
X0035607Y0101792D03*
X0035764Y0102422D03*
X0034977Y0103052D03*
X0034032Y0089981D03*
D23*
X0024898Y0064863D03*
X0024741Y0064863D03*
D24*
X0026709Y0076359D03*
X0031197Y0070296D03*
X0024898Y0105257D03*
X0027497Y0124154D03*
X0027654Y0134312D03*
X0024820Y0134469D03*
D25*
X0024820Y0117304D03*
D26*
X0024820Y0064824D03*
X0024977Y0064824D03*
X0025056Y0064824D03*
X0025134Y0064824D03*
X0025213Y0064824D03*
X0025292Y0064824D03*
D27*
X0035449Y0103840D03*
X0024898Y0134391D03*
D28*
X0024898Y0117147D03*
D29*
X0024977Y0134351D03*
X0032694Y0096950D03*
X0031591Y0085847D03*
X0031512Y0085847D03*
X0031434Y0085847D03*
X0031355Y0085847D03*
X0031276Y0085847D03*
X0031197Y0085847D03*
X0031119Y0085847D03*
X0031749Y0085769D03*
X0031827Y0085769D03*
X0031906Y0085769D03*
X0029544Y0086084D03*
X0029386Y0086162D03*
X0029229Y0086162D03*
X0029150Y0086162D03*
X0029071Y0086162D03*
X0028993Y0086162D03*
X0028914Y0086162D03*
X0028757Y0086241D03*
X0027497Y0051595D03*
D30*
X0024977Y0117068D03*
D31*
X0026946Y0124194D03*
X0024977Y0105217D03*
D32*
X0027182Y0094154D03*
X0025056Y0134312D03*
X0035686Y0114627D03*
X0033245Y0045808D03*
X0033087Y0045808D03*
X0033481Y0045729D03*
X0033638Y0045729D03*
D33*
X0025056Y0116989D03*
D34*
X0025056Y0105257D03*
X0028835Y0086202D03*
X0031434Y0131635D03*
X0031512Y0131635D03*
X0031040Y0131714D03*
D35*
X0035607Y0114469D03*
X0025134Y0134312D03*
X0031197Y0059509D03*
X0034505Y0045651D03*
X0034662Y0045651D03*
X0034898Y0045572D03*
X0035056Y0045572D03*
D36*
X0025134Y0116950D03*
D37*
X0025134Y0105257D03*
X0032694Y0085572D03*
X0032851Y0085493D03*
X0032930Y0085493D03*
X0033009Y0085493D03*
X0033087Y0085493D03*
X0033166Y0085493D03*
X0033323Y0085493D03*
X0033402Y0085414D03*
X0033481Y0085414D03*
X0035764Y0114863D03*
X0027260Y0051714D03*
D38*
X0027733Y0048840D03*
X0027890Y0048840D03*
X0027182Y0063091D03*
X0027182Y0080414D03*
X0025607Y0081910D03*
X0025528Y0081910D03*
X0025449Y0081910D03*
X0025371Y0081910D03*
X0025292Y0081910D03*
X0025213Y0081910D03*
X0025134Y0081910D03*
X0030725Y0079942D03*
X0032772Y0123249D03*
D39*
X0035449Y0114312D03*
X0025213Y0134312D03*
D40*
X0025213Y0116792D03*
D41*
X0025213Y0105257D03*
X0027418Y0094076D03*
X0027497Y0093997D03*
X0027103Y0086202D03*
X0026946Y0086202D03*
X0027654Y0086123D03*
X0029780Y0065729D03*
X0032615Y0045887D03*
X0032772Y0045887D03*
X0032930Y0045887D03*
X0033087Y0096753D03*
D42*
X0035213Y0114233D03*
X0025292Y0134233D03*
D43*
X0025292Y0116753D03*
D44*
X0025292Y0105217D03*
X0027103Y0094194D03*
X0033166Y0096792D03*
X0035134Y0133170D03*
X0026946Y0051989D03*
X0033402Y0045769D03*
X0033560Y0045769D03*
X0033796Y0045690D03*
X0033953Y0045690D03*
D45*
X0031040Y0057973D03*
X0031119Y0065454D03*
X0030725Y0070336D03*
X0029623Y0073328D03*
X0028363Y0079076D03*
X0027182Y0076399D03*
X0026867Y0058525D03*
X0029465Y0056005D03*
X0029544Y0056005D03*
X0034977Y0101753D03*
X0032536Y0131123D03*
X0027024Y0105060D03*
X0025528Y0102855D03*
X0025371Y0107343D03*
X0025371Y0136792D03*
D46*
X0025371Y0131556D03*
X0027418Y0104942D03*
X0026788Y0076438D03*
X0029071Y0067147D03*
X0030016Y0064706D03*
X0031119Y0070217D03*
X0033009Y0133525D03*
D47*
X0031985Y0131084D03*
X0031906Y0136123D03*
X0031827Y0136202D03*
X0033245Y0138170D03*
X0033323Y0138170D03*
X0033402Y0138091D03*
X0033481Y0138013D03*
X0033166Y0138249D03*
X0033087Y0138328D03*
X0032379Y0138800D03*
X0029701Y0127462D03*
X0029544Y0127540D03*
X0029465Y0127619D03*
X0029308Y0127619D03*
X0029229Y0127698D03*
X0029150Y0127777D03*
X0029071Y0127777D03*
X0029938Y0127304D03*
X0030095Y0127225D03*
X0030253Y0127147D03*
X0030331Y0127068D03*
X0030410Y0126989D03*
X0030489Y0126989D03*
X0032221Y0125887D03*
X0032379Y0125808D03*
X0032457Y0125729D03*
X0032615Y0125651D03*
X0032772Y0125572D03*
X0033009Y0125414D03*
X0033166Y0125336D03*
X0033245Y0125257D03*
X0033323Y0125257D03*
X0033402Y0125257D03*
X0033481Y0125178D03*
X0033560Y0125099D03*
X0033717Y0125021D03*
X0031749Y0123446D03*
X0032064Y0112737D03*
X0033166Y0108800D03*
X0033245Y0108721D03*
X0033323Y0108721D03*
X0033402Y0108643D03*
X0033481Y0108564D03*
X0034190Y0110139D03*
X0034347Y0110296D03*
X0034426Y0110375D03*
X0034505Y0110454D03*
X0031985Y0106674D03*
X0031827Y0106753D03*
X0031749Y0106832D03*
X0032221Y0102028D03*
X0032142Y0101950D03*
X0032064Y0095336D03*
X0032221Y0095178D03*
X0032379Y0095021D03*
X0032536Y0094863D03*
X0030804Y0093131D03*
X0030961Y0092973D03*
X0031119Y0092816D03*
X0031276Y0092658D03*
X0031355Y0092658D03*
X0031434Y0092580D03*
X0030646Y0093288D03*
X0033402Y0090690D03*
X0034111Y0090454D03*
X0034190Y0090454D03*
X0034268Y0090454D03*
X0034347Y0090454D03*
X0034505Y0090454D03*
X0034662Y0090375D03*
X0034741Y0090375D03*
X0034820Y0090375D03*
X0034898Y0090375D03*
X0029701Y0076123D03*
X0029623Y0076123D03*
X0028520Y0070611D03*
X0029623Y0070454D03*
X0029701Y0070454D03*
X0030174Y0067619D03*
X0030410Y0065651D03*
X0030804Y0065572D03*
X0029071Y0058879D03*
X0027969Y0066438D03*
X0027103Y0066202D03*
X0027812Y0073525D03*
X0028284Y0076280D03*
X0028363Y0076280D03*
X0025686Y0091714D03*
X0028442Y0102501D03*
X0028520Y0102422D03*
X0028678Y0102265D03*
X0028757Y0102186D03*
X0028835Y0102107D03*
X0029150Y0101950D03*
X0028127Y0106989D03*
X0026867Y0105021D03*
X0026394Y0109036D03*
X0026473Y0109115D03*
X0026709Y0109351D03*
X0026867Y0109430D03*
X0027890Y0109981D03*
X0026552Y0110690D03*
X0026473Y0110769D03*
X0026394Y0110847D03*
X0026079Y0118800D03*
X0026001Y0118800D03*
X0027890Y0112895D03*
X0029623Y0110296D03*
X0029701Y0110296D03*
X0027182Y0128958D03*
X0027103Y0129036D03*
X0025607Y0126989D03*
X0025449Y0127068D03*
X0025371Y0127068D03*
X0028127Y0136438D03*
X0026631Y0138643D03*
X0026709Y0138800D03*
X0026788Y0138800D03*
X0026867Y0138879D03*
X0026946Y0138958D03*
X0027103Y0139036D03*
X0027260Y0139115D03*
X0026394Y0138485D03*
X0031355Y0048406D03*
X0031512Y0048406D03*
X0031670Y0048406D03*
X0031906Y0048328D03*
X0032064Y0048328D03*
D48*
X0031749Y0048367D03*
X0031591Y0048367D03*
X0031434Y0048367D03*
X0031197Y0048446D03*
X0031040Y0048446D03*
X0027890Y0066399D03*
X0028835Y0070572D03*
X0028442Y0070651D03*
X0029465Y0070493D03*
X0029544Y0070493D03*
X0029465Y0076162D03*
X0029308Y0076162D03*
X0028599Y0076241D03*
X0028520Y0076241D03*
X0028442Y0076241D03*
X0025843Y0083800D03*
X0025371Y0083879D03*
X0026316Y0091595D03*
X0026394Y0091595D03*
X0026473Y0091595D03*
X0026552Y0091595D03*
X0026079Y0091674D03*
X0026001Y0091674D03*
X0025922Y0091674D03*
X0025843Y0091674D03*
X0025764Y0091674D03*
X0025528Y0091753D03*
X0025449Y0091753D03*
X0025371Y0091753D03*
X0029229Y0101910D03*
X0029071Y0101989D03*
X0028993Y0102068D03*
X0028914Y0102068D03*
X0029544Y0101832D03*
X0030095Y0101674D03*
X0031512Y0101674D03*
X0031749Y0101753D03*
X0031827Y0101753D03*
X0031906Y0101832D03*
X0031985Y0101832D03*
X0032064Y0101910D03*
X0031906Y0106714D03*
X0031670Y0106871D03*
X0031591Y0106950D03*
X0031512Y0107028D03*
X0031434Y0107028D03*
X0030804Y0107343D03*
X0032142Y0112619D03*
X0033087Y0117658D03*
X0033087Y0121123D03*
X0033245Y0121202D03*
X0033402Y0121202D03*
X0033638Y0121280D03*
X0033717Y0121280D03*
X0033875Y0121359D03*
X0034190Y0121438D03*
X0034347Y0121517D03*
X0034426Y0121517D03*
X0034898Y0124273D03*
X0034820Y0124351D03*
X0034662Y0124430D03*
X0034505Y0124509D03*
X0034347Y0124588D03*
X0034268Y0124666D03*
X0034111Y0124745D03*
X0034032Y0124824D03*
X0033875Y0124903D03*
X0033638Y0125060D03*
X0033087Y0125375D03*
X0032930Y0125454D03*
X0032851Y0125532D03*
X0032694Y0125611D03*
X0032536Y0125690D03*
X0032300Y0125847D03*
X0031985Y0126084D03*
X0031827Y0126162D03*
X0031591Y0126320D03*
X0031512Y0126399D03*
X0031434Y0126399D03*
X0031197Y0126477D03*
X0031119Y0126556D03*
X0030883Y0126714D03*
X0030725Y0126792D03*
X0030174Y0127186D03*
X0030016Y0127265D03*
X0029859Y0127343D03*
X0029780Y0127422D03*
X0029623Y0127501D03*
X0029386Y0127658D03*
X0028993Y0127816D03*
X0028835Y0127973D03*
X0028678Y0128052D03*
X0028442Y0128210D03*
X0028363Y0128288D03*
X0028205Y0128367D03*
X0028048Y0128446D03*
X0027890Y0128525D03*
X0027812Y0128603D03*
X0027654Y0128682D03*
X0027575Y0128761D03*
X0027418Y0128840D03*
X0027339Y0128840D03*
X0027024Y0129076D03*
X0025528Y0127028D03*
X0025843Y0126792D03*
X0026158Y0126635D03*
X0026316Y0126556D03*
X0026709Y0126320D03*
X0026001Y0121832D03*
X0025449Y0121674D03*
X0025371Y0121674D03*
X0025843Y0118840D03*
X0025922Y0118840D03*
X0026631Y0110651D03*
X0026709Y0110572D03*
X0027969Y0110021D03*
X0028048Y0110021D03*
X0028127Y0110021D03*
X0028205Y0110021D03*
X0028678Y0110099D03*
X0028757Y0110099D03*
X0028835Y0110099D03*
X0028914Y0110099D03*
X0028993Y0110099D03*
X0029544Y0110257D03*
X0029150Y0107501D03*
X0028599Y0107343D03*
X0028363Y0107186D03*
X0028284Y0107107D03*
X0028205Y0107028D03*
X0027575Y0119391D03*
X0027733Y0119469D03*
X0027812Y0119469D03*
X0028048Y0119548D03*
X0028284Y0119627D03*
X0029071Y0119863D03*
X0029150Y0119863D03*
X0029308Y0119942D03*
X0029386Y0119942D03*
X0030568Y0124194D03*
X0030253Y0124351D03*
X0030095Y0124430D03*
X0030961Y0129469D03*
X0030253Y0129548D03*
X0031670Y0136320D03*
X0031591Y0136399D03*
X0031512Y0136399D03*
X0031434Y0136477D03*
X0031197Y0136556D03*
X0031749Y0136241D03*
X0032851Y0138446D03*
X0032930Y0138446D03*
X0033009Y0138367D03*
X0032772Y0138525D03*
X0032615Y0138603D03*
X0032536Y0138682D03*
X0032300Y0138840D03*
X0032221Y0138918D03*
X0032142Y0138918D03*
X0032064Y0138997D03*
X0031985Y0138997D03*
X0031906Y0139076D03*
X0031827Y0139076D03*
X0031670Y0139154D03*
X0031434Y0139233D03*
X0031197Y0139312D03*
X0031119Y0139312D03*
X0030568Y0139469D03*
X0028993Y0136871D03*
X0028284Y0136556D03*
X0028205Y0136477D03*
X0026552Y0138603D03*
X0027024Y0138997D03*
X0027182Y0139076D03*
X0027339Y0139154D03*
X0027418Y0139154D03*
X0027575Y0139233D03*
X0027733Y0139312D03*
X0027969Y0139391D03*
X0028048Y0139391D03*
X0031827Y0123485D03*
X0034268Y0110257D03*
X0034111Y0110099D03*
X0034032Y0110021D03*
X0033953Y0110021D03*
X0033875Y0109942D03*
X0033796Y0109942D03*
X0033481Y0090651D03*
X0033560Y0090572D03*
X0033638Y0090572D03*
X0033717Y0090572D03*
X0033796Y0090572D03*
X0034426Y0090414D03*
X0034583Y0090414D03*
X0034977Y0090336D03*
X0032142Y0088052D03*
X0031119Y0081517D03*
X0031040Y0081517D03*
X0030961Y0081517D03*
D49*
X0030883Y0081556D03*
X0030804Y0081556D03*
X0030725Y0081556D03*
X0030646Y0081556D03*
X0030568Y0081556D03*
X0030489Y0081556D03*
X0030410Y0081556D03*
X0030253Y0081556D03*
X0030410Y0083603D03*
X0030568Y0083603D03*
X0029859Y0083761D03*
X0029780Y0083761D03*
X0029701Y0083761D03*
X0029623Y0083761D03*
X0031197Y0090847D03*
X0031355Y0090847D03*
X0030095Y0091005D03*
X0028993Y0091162D03*
X0027890Y0091320D03*
X0026867Y0091477D03*
X0026788Y0091477D03*
X0026237Y0091635D03*
X0026158Y0091635D03*
X0025607Y0091714D03*
X0025607Y0083840D03*
X0025686Y0083840D03*
X0025764Y0083840D03*
X0025528Y0083840D03*
X0025449Y0083840D03*
X0026001Y0083761D03*
X0026079Y0083761D03*
X0026158Y0083761D03*
X0026237Y0083761D03*
X0026316Y0083761D03*
X0026788Y0080139D03*
X0028678Y0076202D03*
X0028757Y0076202D03*
X0028835Y0076202D03*
X0028914Y0076202D03*
X0028993Y0076202D03*
X0029071Y0076202D03*
X0029150Y0076202D03*
X0029229Y0076123D03*
X0029386Y0076123D03*
X0029544Y0076123D03*
X0028914Y0070611D03*
X0028993Y0070532D03*
X0029071Y0070532D03*
X0029150Y0070532D03*
X0029229Y0070532D03*
X0029308Y0070532D03*
X0029386Y0070532D03*
X0028757Y0070611D03*
X0028678Y0070611D03*
X0028599Y0070611D03*
X0027812Y0066359D03*
X0027733Y0066359D03*
X0026788Y0063446D03*
X0030410Y0063603D03*
X0030725Y0065572D03*
X0030489Y0065651D03*
X0030568Y0048485D03*
X0030725Y0048485D03*
X0030883Y0048485D03*
X0031119Y0048406D03*
X0031276Y0048406D03*
X0034347Y0082816D03*
X0032615Y0088013D03*
X0032536Y0088013D03*
X0032457Y0088013D03*
X0032379Y0088013D03*
X0032300Y0088013D03*
X0032064Y0088091D03*
X0031985Y0088091D03*
X0033875Y0090532D03*
X0033953Y0090532D03*
X0034032Y0090532D03*
X0034505Y0099036D03*
X0033560Y0104076D03*
X0032615Y0099194D03*
X0032142Y0099036D03*
X0031434Y0101635D03*
X0031355Y0101635D03*
X0031276Y0101635D03*
X0031197Y0101635D03*
X0031119Y0101635D03*
X0031040Y0101556D03*
X0030883Y0101556D03*
X0030725Y0101556D03*
X0030568Y0101556D03*
X0030410Y0101635D03*
X0030331Y0101635D03*
X0030253Y0101635D03*
X0030174Y0101635D03*
X0029938Y0101714D03*
X0029859Y0101714D03*
X0029780Y0101714D03*
X0029701Y0101792D03*
X0029623Y0101792D03*
X0029465Y0101871D03*
X0029386Y0101871D03*
X0029308Y0101871D03*
X0029938Y0099036D03*
X0031591Y0101714D03*
X0031670Y0101714D03*
X0031355Y0107068D03*
X0031276Y0107068D03*
X0031197Y0107147D03*
X0031119Y0107147D03*
X0031040Y0107225D03*
X0030961Y0107225D03*
X0030725Y0107383D03*
X0030646Y0107383D03*
X0030568Y0107383D03*
X0030489Y0107462D03*
X0030410Y0107462D03*
X0030331Y0107462D03*
X0030253Y0107462D03*
X0030174Y0107462D03*
X0030095Y0107540D03*
X0029938Y0107540D03*
X0029859Y0107540D03*
X0029780Y0107540D03*
X0029701Y0107540D03*
X0029623Y0107540D03*
X0029544Y0107540D03*
X0029465Y0107540D03*
X0029308Y0107540D03*
X0029071Y0107462D03*
X0028993Y0107462D03*
X0028914Y0107462D03*
X0028835Y0107383D03*
X0028757Y0107383D03*
X0028678Y0107383D03*
X0028520Y0107225D03*
X0028442Y0107225D03*
X0028442Y0110060D03*
X0028520Y0110060D03*
X0028599Y0110060D03*
X0028363Y0110060D03*
X0028284Y0110060D03*
X0029308Y0110217D03*
X0029386Y0110217D03*
X0029465Y0110217D03*
X0028678Y0112737D03*
X0028127Y0112737D03*
X0028048Y0112737D03*
X0027969Y0112816D03*
X0026788Y0110532D03*
X0026867Y0110454D03*
X0028048Y0115729D03*
X0027969Y0115808D03*
X0027890Y0115808D03*
X0027812Y0115808D03*
X0027733Y0115808D03*
X0028205Y0115729D03*
X0028284Y0115729D03*
X0028363Y0115729D03*
X0028442Y0115729D03*
X0028520Y0115729D03*
X0028678Y0115729D03*
X0028757Y0115651D03*
X0029150Y0118249D03*
X0029308Y0118249D03*
X0030410Y0118091D03*
X0031040Y0117934D03*
X0031119Y0117934D03*
X0031197Y0117934D03*
X0031276Y0117934D03*
X0031355Y0117934D03*
X0031434Y0117934D03*
X0031512Y0117934D03*
X0031591Y0117855D03*
X0031670Y0117855D03*
X0031749Y0117855D03*
X0031827Y0117855D03*
X0031906Y0117855D03*
X0031985Y0117855D03*
X0032142Y0117777D03*
X0032221Y0117777D03*
X0032300Y0117777D03*
X0032379Y0117777D03*
X0032457Y0117777D03*
X0032536Y0117777D03*
X0032615Y0117777D03*
X0032694Y0117698D03*
X0032772Y0117698D03*
X0032851Y0117698D03*
X0032930Y0117698D03*
X0033009Y0117698D03*
X0033245Y0117619D03*
X0033323Y0117619D03*
X0033402Y0117619D03*
X0033481Y0117619D03*
X0033560Y0117619D03*
X0033638Y0117619D03*
X0033717Y0117619D03*
X0033875Y0117540D03*
X0033953Y0117540D03*
X0034032Y0117540D03*
X0034111Y0117540D03*
X0034190Y0117540D03*
X0034268Y0117540D03*
X0034347Y0117462D03*
X0034426Y0117462D03*
X0034505Y0117462D03*
X0034583Y0117462D03*
X0034662Y0117462D03*
X0034741Y0117462D03*
X0034820Y0117462D03*
X0034898Y0117383D03*
X0034977Y0117383D03*
X0034111Y0121399D03*
X0034032Y0121399D03*
X0033953Y0121399D03*
X0033796Y0121320D03*
X0033560Y0121241D03*
X0033481Y0121241D03*
X0033323Y0121162D03*
X0033166Y0121162D03*
X0032615Y0120926D03*
X0032300Y0120847D03*
X0031985Y0120769D03*
X0031512Y0120611D03*
X0031197Y0120532D03*
X0030883Y0120454D03*
X0030410Y0120296D03*
X0030174Y0120217D03*
X0029938Y0120139D03*
X0029465Y0119981D03*
X0029229Y0119903D03*
X0028993Y0119824D03*
X0028914Y0119824D03*
X0028835Y0119824D03*
X0028757Y0119745D03*
X0028678Y0119745D03*
X0028599Y0119745D03*
X0028520Y0119666D03*
X0028442Y0119666D03*
X0028363Y0119666D03*
X0028205Y0119588D03*
X0028127Y0119588D03*
X0027969Y0119509D03*
X0027890Y0119509D03*
X0027654Y0119430D03*
X0028205Y0118406D03*
X0026631Y0122028D03*
X0026552Y0122028D03*
X0026473Y0122028D03*
X0026237Y0121871D03*
X0026158Y0121871D03*
X0026079Y0121871D03*
X0025922Y0121792D03*
X0025843Y0121792D03*
X0025764Y0121792D03*
X0025686Y0121714D03*
X0025607Y0121714D03*
X0025528Y0121714D03*
X0025686Y0118800D03*
X0025764Y0118800D03*
X0025371Y0118721D03*
X0026631Y0126359D03*
X0026552Y0126438D03*
X0026473Y0126438D03*
X0026394Y0126517D03*
X0026237Y0126595D03*
X0026079Y0126674D03*
X0026001Y0126753D03*
X0025922Y0126753D03*
X0025764Y0126832D03*
X0025686Y0126910D03*
X0027260Y0128879D03*
X0027497Y0128800D03*
X0027733Y0128643D03*
X0027969Y0128485D03*
X0028127Y0128406D03*
X0028284Y0128328D03*
X0028520Y0128170D03*
X0028599Y0128091D03*
X0028757Y0128013D03*
X0028914Y0127934D03*
X0029150Y0129666D03*
X0029229Y0129666D03*
X0029308Y0129666D03*
X0029386Y0129666D03*
X0029465Y0129666D03*
X0029544Y0129666D03*
X0029623Y0129588D03*
X0029780Y0129588D03*
X0029859Y0129588D03*
X0029938Y0129588D03*
X0030016Y0129588D03*
X0030095Y0129588D03*
X0030331Y0129509D03*
X0030410Y0129509D03*
X0030489Y0129509D03*
X0030568Y0129509D03*
X0030646Y0129509D03*
X0030725Y0129430D03*
X0030804Y0129430D03*
X0030883Y0129430D03*
X0030568Y0126910D03*
X0030646Y0126832D03*
X0030804Y0126753D03*
X0030961Y0126674D03*
X0031040Y0126595D03*
X0031276Y0126438D03*
X0031355Y0126438D03*
X0031670Y0126280D03*
X0031749Y0126202D03*
X0031906Y0126123D03*
X0032064Y0126044D03*
X0032142Y0125966D03*
X0030646Y0124154D03*
X0030725Y0124076D03*
X0030489Y0124233D03*
X0030410Y0124233D03*
X0030331Y0124312D03*
X0030174Y0124391D03*
X0030016Y0124469D03*
X0029938Y0124548D03*
X0030489Y0123131D03*
X0030568Y0123131D03*
X0030646Y0123131D03*
X0030725Y0123131D03*
X0030095Y0122973D03*
X0031906Y0123446D03*
X0031985Y0123446D03*
X0032457Y0115099D03*
X0032615Y0112580D03*
X0032221Y0112580D03*
X0033166Y0109824D03*
X0033245Y0109824D03*
X0033323Y0109824D03*
X0033402Y0109824D03*
X0033481Y0109824D03*
X0033560Y0109903D03*
X0033638Y0109903D03*
X0033717Y0109903D03*
X0034268Y0121477D03*
X0034505Y0121556D03*
X0034583Y0121556D03*
X0034662Y0121556D03*
X0034741Y0121635D03*
X0034820Y0121635D03*
X0034898Y0121635D03*
X0034977Y0121714D03*
X0034977Y0124233D03*
X0034741Y0124391D03*
X0034583Y0124469D03*
X0034426Y0124548D03*
X0034190Y0124706D03*
X0033953Y0124863D03*
X0033796Y0124942D03*
X0033560Y0133525D03*
X0032694Y0138564D03*
X0032457Y0138721D03*
X0031749Y0139115D03*
X0031591Y0139194D03*
X0031512Y0139194D03*
X0031355Y0139273D03*
X0031276Y0139273D03*
X0031040Y0139351D03*
X0030961Y0139351D03*
X0030883Y0139351D03*
X0030804Y0139430D03*
X0030725Y0139430D03*
X0030646Y0139430D03*
X0030410Y0139509D03*
X0030331Y0139509D03*
X0030253Y0139509D03*
X0030174Y0139509D03*
X0030095Y0139509D03*
X0029938Y0139509D03*
X0029859Y0139588D03*
X0029780Y0139588D03*
X0029701Y0139588D03*
X0029623Y0139588D03*
X0029544Y0139588D03*
X0029465Y0139588D03*
X0029386Y0139588D03*
X0029308Y0139588D03*
X0029229Y0139588D03*
X0029150Y0139588D03*
X0029071Y0139588D03*
X0028993Y0139588D03*
X0028914Y0139588D03*
X0028835Y0139509D03*
X0028678Y0139509D03*
X0028599Y0139509D03*
X0028520Y0139509D03*
X0028442Y0139509D03*
X0028363Y0139509D03*
X0028284Y0139430D03*
X0028205Y0139430D03*
X0028127Y0139430D03*
X0027890Y0139351D03*
X0027812Y0139351D03*
X0027654Y0139273D03*
X0027497Y0139194D03*
X0028442Y0136674D03*
X0028520Y0136674D03*
X0028363Y0136595D03*
X0028678Y0136753D03*
X0028835Y0136832D03*
X0029071Y0136910D03*
X0029150Y0136910D03*
X0029229Y0136910D03*
X0029308Y0136910D03*
X0029386Y0136910D03*
X0029465Y0136989D03*
X0029623Y0136989D03*
X0029780Y0136989D03*
X0029938Y0136989D03*
X0030016Y0136910D03*
X0030095Y0136910D03*
X0030174Y0136910D03*
X0030253Y0136910D03*
X0030331Y0136910D03*
X0030410Y0136832D03*
X0030725Y0136753D03*
X0030883Y0136674D03*
X0030961Y0136674D03*
X0031040Y0136674D03*
X0031119Y0136595D03*
X0031276Y0136517D03*
X0031355Y0136517D03*
X0030883Y0133997D03*
X0029938Y0134154D03*
X0028993Y0129745D03*
X0028914Y0129745D03*
X0028835Y0129745D03*
X0028757Y0129745D03*
X0028678Y0129745D03*
X0028599Y0129745D03*
X0028048Y0129903D03*
X0028048Y0132422D03*
X0025686Y0100454D03*
X0028363Y0088643D03*
D50*
X0028520Y0079076D03*
X0028599Y0079076D03*
X0028599Y0073406D03*
X0029308Y0073328D03*
X0029386Y0073328D03*
X0029465Y0073328D03*
X0027182Y0070808D03*
X0027103Y0076399D03*
X0031119Y0057895D03*
X0032694Y0057501D03*
X0030883Y0053013D03*
X0029386Y0056005D03*
X0029308Y0056005D03*
X0029229Y0056005D03*
X0029150Y0056005D03*
X0028835Y0056084D03*
X0028757Y0056084D03*
X0028678Y0056084D03*
X0025449Y0103170D03*
X0025449Y0112540D03*
X0025371Y0112540D03*
X0033481Y0114115D03*
D51*
X0035843Y0122895D03*
X0034977Y0131084D03*
X0034977Y0135336D03*
X0029780Y0123761D03*
X0029701Y0123761D03*
X0025764Y0130611D03*
X0025371Y0103210D03*
X0028678Y0079036D03*
X0028757Y0079036D03*
X0029071Y0078958D03*
X0029150Y0078958D03*
X0029229Y0078958D03*
X0028757Y0073446D03*
X0028678Y0073446D03*
X0028520Y0073446D03*
X0029071Y0073367D03*
X0029150Y0073367D03*
X0029229Y0073367D03*
X0030804Y0070296D03*
X0032379Y0057619D03*
X0032457Y0057540D03*
X0032536Y0057540D03*
X0032615Y0057540D03*
X0029071Y0056044D03*
X0028993Y0056044D03*
X0028914Y0056044D03*
X0035764Y0103840D03*
D52*
X0034898Y0098997D03*
X0034820Y0098997D03*
X0034741Y0098997D03*
X0034662Y0098997D03*
X0034583Y0098997D03*
X0034347Y0099076D03*
X0034268Y0099076D03*
X0034190Y0099076D03*
X0034111Y0099076D03*
X0032536Y0099154D03*
X0032457Y0099154D03*
X0032379Y0099076D03*
X0032300Y0099076D03*
X0032221Y0099076D03*
X0032064Y0098997D03*
X0031985Y0098997D03*
X0031906Y0098997D03*
X0031827Y0098997D03*
X0031749Y0098997D03*
X0031434Y0098918D03*
X0031355Y0098918D03*
X0031276Y0098918D03*
X0031197Y0098918D03*
X0031119Y0098918D03*
X0031040Y0098918D03*
X0030961Y0098918D03*
X0030883Y0098918D03*
X0030804Y0098918D03*
X0030725Y0098918D03*
X0030646Y0098918D03*
X0030331Y0098997D03*
X0030253Y0098997D03*
X0030174Y0098997D03*
X0030095Y0098997D03*
X0030016Y0098997D03*
X0029859Y0099076D03*
X0029780Y0099076D03*
X0029701Y0099076D03*
X0029623Y0099076D03*
X0029544Y0099154D03*
X0029465Y0099154D03*
X0029386Y0099154D03*
X0029308Y0099154D03*
X0029229Y0099154D03*
X0030016Y0101674D03*
X0030489Y0101595D03*
X0030646Y0101595D03*
X0030804Y0101595D03*
X0030961Y0101595D03*
X0030883Y0107265D03*
X0030016Y0107501D03*
X0029386Y0107501D03*
X0029229Y0107501D03*
X0029229Y0110178D03*
X0029150Y0110178D03*
X0029071Y0110178D03*
X0028599Y0112698D03*
X0028442Y0112698D03*
X0028363Y0112698D03*
X0028284Y0112698D03*
X0028205Y0112698D03*
X0028599Y0115690D03*
X0028127Y0115769D03*
X0028757Y0118288D03*
X0028835Y0118288D03*
X0028914Y0118288D03*
X0028993Y0118288D03*
X0029071Y0118288D03*
X0029386Y0118210D03*
X0029465Y0118210D03*
X0029544Y0118210D03*
X0029623Y0118210D03*
X0029701Y0118210D03*
X0029780Y0118210D03*
X0029938Y0118131D03*
X0030016Y0118131D03*
X0030095Y0118131D03*
X0030174Y0118131D03*
X0030253Y0118131D03*
X0030331Y0118131D03*
X0030489Y0118052D03*
X0030568Y0118052D03*
X0030646Y0118052D03*
X0030725Y0118052D03*
X0030804Y0118052D03*
X0032064Y0117816D03*
X0033166Y0117658D03*
X0033796Y0117580D03*
X0032772Y0120966D03*
X0032694Y0120966D03*
X0032851Y0121044D03*
X0032930Y0121044D03*
X0033009Y0121044D03*
X0032536Y0120887D03*
X0032457Y0120887D03*
X0032379Y0120887D03*
X0032221Y0120808D03*
X0032142Y0120808D03*
X0032064Y0120808D03*
X0031906Y0120729D03*
X0031827Y0120729D03*
X0031749Y0120651D03*
X0031670Y0120651D03*
X0031591Y0120651D03*
X0031434Y0120572D03*
X0031355Y0120572D03*
X0031276Y0120572D03*
X0031119Y0120493D03*
X0031040Y0120493D03*
X0030961Y0120493D03*
X0030804Y0120414D03*
X0030725Y0120414D03*
X0030646Y0120336D03*
X0030568Y0120336D03*
X0030489Y0120336D03*
X0030331Y0120257D03*
X0030253Y0120257D03*
X0030095Y0120178D03*
X0030016Y0120178D03*
X0029859Y0120099D03*
X0029780Y0120099D03*
X0029701Y0120099D03*
X0029623Y0120021D03*
X0029544Y0120021D03*
X0028599Y0118367D03*
X0028520Y0118367D03*
X0028442Y0118367D03*
X0028363Y0118367D03*
X0028284Y0118367D03*
X0028048Y0118446D03*
X0027969Y0118446D03*
X0027890Y0118446D03*
X0027812Y0118446D03*
X0027733Y0118446D03*
X0026709Y0122068D03*
X0026394Y0121989D03*
X0026316Y0121989D03*
X0025607Y0118761D03*
X0025528Y0118761D03*
X0025449Y0118761D03*
X0027497Y0129942D03*
X0027575Y0129942D03*
X0027654Y0129942D03*
X0027733Y0129942D03*
X0027812Y0129942D03*
X0027890Y0129942D03*
X0028127Y0129863D03*
X0028205Y0129863D03*
X0028284Y0129863D03*
X0028363Y0129863D03*
X0028442Y0129863D03*
X0029071Y0129706D03*
X0029701Y0129627D03*
X0030174Y0129548D03*
X0028520Y0132383D03*
X0028442Y0132383D03*
X0028363Y0132383D03*
X0028284Y0132383D03*
X0028205Y0132383D03*
X0027969Y0132462D03*
X0027890Y0132462D03*
X0029544Y0134194D03*
X0029623Y0134194D03*
X0029701Y0134194D03*
X0029780Y0134194D03*
X0030016Y0134115D03*
X0030095Y0134115D03*
X0030174Y0134115D03*
X0030253Y0134115D03*
X0030331Y0134115D03*
X0030489Y0134036D03*
X0030568Y0134036D03*
X0030646Y0134036D03*
X0030725Y0134036D03*
X0030804Y0134036D03*
X0030961Y0133958D03*
X0030804Y0136714D03*
X0030646Y0136792D03*
X0030568Y0136792D03*
X0030489Y0136792D03*
X0029859Y0136950D03*
X0029701Y0136950D03*
X0029544Y0136950D03*
X0028914Y0136792D03*
X0028757Y0136792D03*
X0028599Y0136714D03*
X0028757Y0139548D03*
X0030016Y0139548D03*
X0030489Y0139469D03*
X0031906Y0131123D03*
X0032064Y0123406D03*
X0032142Y0123406D03*
X0032142Y0115139D03*
X0032064Y0115139D03*
X0032221Y0115139D03*
X0032300Y0115139D03*
X0032379Y0115139D03*
X0032615Y0115060D03*
X0032694Y0115060D03*
X0032379Y0112540D03*
X0032300Y0112540D03*
X0030410Y0123013D03*
X0030331Y0123013D03*
X0030253Y0123013D03*
X0030174Y0123013D03*
X0030016Y0122934D03*
X0029938Y0122934D03*
X0027260Y0130021D03*
X0027182Y0130021D03*
X0027103Y0130021D03*
X0027024Y0130021D03*
X0025607Y0100493D03*
X0025528Y0100493D03*
X0025449Y0100493D03*
X0025371Y0100493D03*
X0025843Y0100414D03*
X0025922Y0100414D03*
X0026001Y0100414D03*
X0026079Y0100414D03*
X0026631Y0091517D03*
X0026709Y0091517D03*
X0027812Y0091359D03*
X0027969Y0091280D03*
X0028048Y0091280D03*
X0028127Y0091280D03*
X0028205Y0091280D03*
X0028284Y0091280D03*
X0028363Y0091280D03*
X0028520Y0091202D03*
X0028599Y0091202D03*
X0028678Y0091202D03*
X0028757Y0091202D03*
X0028835Y0091202D03*
X0028914Y0091202D03*
X0029071Y0091123D03*
X0029150Y0091123D03*
X0029229Y0091123D03*
X0029308Y0091123D03*
X0029386Y0091123D03*
X0029465Y0091123D03*
X0029544Y0091123D03*
X0029701Y0091044D03*
X0029780Y0091044D03*
X0029859Y0091044D03*
X0029938Y0091044D03*
X0030016Y0091044D03*
X0030253Y0090966D03*
X0030331Y0090966D03*
X0030410Y0090966D03*
X0030489Y0090966D03*
X0030568Y0090966D03*
X0030804Y0090887D03*
X0030883Y0090887D03*
X0030961Y0090887D03*
X0031040Y0090887D03*
X0031119Y0090887D03*
X0031276Y0090808D03*
X0031434Y0090808D03*
X0031512Y0090808D03*
X0031591Y0090808D03*
X0031670Y0090808D03*
X0031749Y0090808D03*
X0031906Y0090729D03*
X0031985Y0090729D03*
X0032064Y0090729D03*
X0032142Y0090729D03*
X0032221Y0090729D03*
X0032221Y0088052D03*
X0030961Y0083564D03*
X0030883Y0083564D03*
X0030804Y0083564D03*
X0030725Y0083564D03*
X0030646Y0083564D03*
X0030331Y0083643D03*
X0030253Y0083643D03*
X0030174Y0083643D03*
X0030095Y0083643D03*
X0030016Y0083643D03*
X0030016Y0081595D03*
X0029938Y0081595D03*
X0029859Y0081595D03*
X0030095Y0081595D03*
X0030174Y0081595D03*
X0030331Y0081595D03*
X0030253Y0073249D03*
X0027654Y0066320D03*
X0027182Y0066162D03*
X0030410Y0048525D03*
X0030646Y0048446D03*
X0030804Y0048446D03*
X0030961Y0048446D03*
X0034977Y0082698D03*
X0034820Y0082777D03*
X0034741Y0082777D03*
X0034662Y0082777D03*
X0034583Y0082777D03*
X0034505Y0082777D03*
X0034426Y0082777D03*
X0034268Y0082855D03*
X0034190Y0082855D03*
X0034111Y0082855D03*
X0034032Y0082855D03*
X0033953Y0082855D03*
X0033875Y0082855D03*
X0033717Y0082934D03*
X0033638Y0082934D03*
X0033560Y0082934D03*
X0028678Y0088603D03*
X0028599Y0088603D03*
X0028520Y0088603D03*
X0028442Y0088603D03*
X0028205Y0088682D03*
X0028127Y0088682D03*
X0028048Y0088682D03*
X0027969Y0088682D03*
X0027890Y0088682D03*
X0026867Y0083643D03*
X0026788Y0083643D03*
X0026709Y0083643D03*
X0026631Y0083643D03*
X0026552Y0083643D03*
X0026394Y0083721D03*
X0025922Y0083800D03*
D53*
X0025922Y0064784D03*
X0026001Y0064784D03*
X0025843Y0064784D03*
X0025764Y0064784D03*
X0025686Y0064784D03*
X0025607Y0064784D03*
X0025528Y0064784D03*
X0025449Y0064784D03*
X0025371Y0064784D03*
D54*
X0027260Y0070769D03*
X0028363Y0073525D03*
X0029544Y0078879D03*
X0029623Y0078879D03*
X0030725Y0075887D03*
X0029780Y0073288D03*
X0029701Y0073288D03*
X0028284Y0079115D03*
X0028363Y0056123D03*
X0028442Y0056123D03*
X0029623Y0055966D03*
X0030725Y0052973D03*
X0025449Y0107383D03*
X0029623Y0114863D03*
X0031119Y0114627D03*
X0030646Y0110690D03*
X0025449Y0136832D03*
D55*
X0025528Y0137068D03*
X0026001Y0130139D03*
X0025528Y0112186D03*
X0025528Y0107619D03*
X0026946Y0105099D03*
X0025607Y0102580D03*
X0028993Y0098721D03*
X0029071Y0098643D03*
X0030804Y0110532D03*
X0030253Y0110611D03*
X0034820Y0106517D03*
X0034898Y0101477D03*
X0032300Y0091241D03*
X0030568Y0075966D03*
X0029859Y0073210D03*
X0030489Y0070375D03*
X0031040Y0065572D03*
X0030095Y0063761D03*
X0030804Y0058249D03*
X0029859Y0055966D03*
X0028127Y0056202D03*
X0027497Y0070769D03*
X0028127Y0073525D03*
X0027339Y0076359D03*
X0028127Y0079036D03*
X0034820Y0130454D03*
D56*
X0035686Y0133170D03*
X0025528Y0131280D03*
X0031040Y0070257D03*
X0028757Y0067343D03*
D57*
X0028127Y0063997D03*
X0028048Y0063997D03*
X0028205Y0063918D03*
X0028284Y0063918D03*
X0028363Y0063840D03*
X0027260Y0058800D03*
X0028048Y0056202D03*
X0027575Y0053367D03*
X0030095Y0052816D03*
X0030174Y0052816D03*
X0030174Y0063761D03*
X0030410Y0070375D03*
X0030489Y0075966D03*
X0027575Y0076359D03*
X0028048Y0073525D03*
X0027575Y0070769D03*
X0032457Y0091162D03*
X0032379Y0091241D03*
X0034820Y0101241D03*
X0034741Y0106753D03*
X0034662Y0106910D03*
X0033009Y0109351D03*
X0028835Y0098879D03*
X0026394Y0100847D03*
X0025764Y0102186D03*
X0025607Y0107855D03*
X0026946Y0129509D03*
X0026788Y0129588D03*
X0026079Y0130060D03*
X0025607Y0137304D03*
X0032694Y0132028D03*
X0032379Y0131084D03*
X0033481Y0133446D03*
X0034741Y0136123D03*
D58*
X0029150Y0123879D03*
X0025607Y0131044D03*
X0027103Y0104981D03*
X0033166Y0113879D03*
X0027024Y0070887D03*
X0028127Y0067422D03*
X0028205Y0067422D03*
D59*
X0028048Y0067973D03*
X0027654Y0070729D03*
X0027969Y0064036D03*
X0028442Y0063800D03*
X0029938Y0067737D03*
X0029938Y0073249D03*
X0028048Y0079154D03*
X0032536Y0091123D03*
X0033953Y0099627D03*
X0033481Y0104036D03*
X0034583Y0107107D03*
X0032930Y0109391D03*
X0030961Y0110336D03*
X0028599Y0099076D03*
X0028757Y0098918D03*
X0026473Y0100808D03*
X0025843Y0102068D03*
X0025686Y0107973D03*
X0027024Y0109942D03*
X0025686Y0111832D03*
X0025607Y0111989D03*
X0026867Y0129548D03*
X0026709Y0129627D03*
X0026158Y0129942D03*
X0025686Y0137422D03*
X0030804Y0123643D03*
X0034662Y0136320D03*
X0030883Y0061123D03*
X0030646Y0058367D03*
X0030568Y0058367D03*
X0027654Y0053328D03*
D60*
X0026788Y0058406D03*
X0027103Y0070847D03*
X0027024Y0076438D03*
X0032221Y0057698D03*
X0033245Y0104076D03*
X0033323Y0104076D03*
X0033402Y0113997D03*
X0035764Y0133210D03*
X0029465Y0133210D03*
X0029386Y0133210D03*
X0029308Y0133210D03*
X0029071Y0133288D03*
X0028993Y0133288D03*
X0028914Y0133288D03*
X0028757Y0133288D03*
X0028678Y0133367D03*
X0029544Y0123840D03*
X0025686Y0130847D03*
D61*
X0026946Y0109942D03*
X0027733Y0103564D03*
X0028914Y0098761D03*
X0030883Y0110414D03*
X0032694Y0105532D03*
X0033087Y0109312D03*
X0034032Y0099627D03*
X0029938Y0078840D03*
X0027497Y0076399D03*
X0030961Y0061202D03*
X0030725Y0058288D03*
X0029938Y0055926D03*
X0030253Y0052855D03*
X0030331Y0052855D03*
X0027182Y0058761D03*
X0025686Y0102383D03*
X0032694Y0134981D03*
D62*
X0032694Y0123288D03*
X0032615Y0123288D03*
X0026237Y0081871D03*
X0026158Y0081871D03*
X0026079Y0081871D03*
X0026001Y0081871D03*
X0025922Y0081871D03*
X0025843Y0081871D03*
X0025764Y0081871D03*
X0025686Y0081871D03*
X0027103Y0080454D03*
X0027103Y0063131D03*
X0028048Y0048800D03*
X0028127Y0048721D03*
X0028284Y0048721D03*
X0030804Y0079903D03*
D63*
X0030331Y0076005D03*
X0030016Y0073249D03*
X0030253Y0070414D03*
X0030016Y0067737D03*
X0028520Y0063721D03*
X0027969Y0067973D03*
X0027812Y0070729D03*
X0027969Y0073564D03*
X0027969Y0079154D03*
X0032694Y0091044D03*
X0033796Y0099548D03*
X0034505Y0107265D03*
X0032694Y0109469D03*
X0031197Y0110178D03*
X0031119Y0110257D03*
X0030174Y0110572D03*
X0027812Y0103328D03*
X0026552Y0100729D03*
X0026001Y0101753D03*
X0025922Y0101910D03*
X0028284Y0099312D03*
X0028363Y0099233D03*
X0027182Y0109942D03*
X0025764Y0111674D03*
X0026946Y0118918D03*
X0027103Y0118918D03*
X0026473Y0129706D03*
X0026394Y0129706D03*
X0025764Y0137580D03*
X0027733Y0132855D03*
X0030961Y0123564D03*
X0031040Y0123564D03*
X0034662Y0130021D03*
X0034741Y0130257D03*
X0034505Y0136714D03*
X0032694Y0102698D03*
X0030646Y0061044D03*
X0030489Y0058446D03*
X0030410Y0058446D03*
X0027575Y0058840D03*
X0027497Y0058840D03*
X0027812Y0053249D03*
X0027969Y0053170D03*
X0028048Y0053170D03*
D64*
X0028127Y0053131D03*
X0028205Y0053052D03*
X0028284Y0053052D03*
X0028363Y0053052D03*
X0028835Y0052895D03*
X0028993Y0052895D03*
X0029308Y0052816D03*
X0029386Y0052816D03*
X0029465Y0052816D03*
X0029544Y0052816D03*
X0029623Y0052816D03*
X0029701Y0052816D03*
X0030095Y0055887D03*
X0030253Y0058564D03*
X0030568Y0061084D03*
X0030961Y0065493D03*
X0030174Y0065729D03*
X0027812Y0064076D03*
X0027733Y0058879D03*
X0027654Y0058879D03*
X0027890Y0056202D03*
X0027733Y0076359D03*
X0030095Y0078800D03*
X0032772Y0091005D03*
X0033638Y0099509D03*
X0033717Y0099509D03*
X0034662Y0100926D03*
X0034426Y0107383D03*
X0034347Y0107540D03*
X0034820Y0110847D03*
X0032615Y0109509D03*
X0032536Y0109509D03*
X0032457Y0109588D03*
X0031355Y0110139D03*
X0031276Y0110139D03*
X0030095Y0110532D03*
X0027733Y0113210D03*
X0027260Y0109981D03*
X0025843Y0108328D03*
X0025764Y0108170D03*
X0026079Y0101635D03*
X0026631Y0100690D03*
X0028048Y0099509D03*
X0028127Y0099430D03*
X0028205Y0099351D03*
X0027890Y0103210D03*
X0027024Y0118958D03*
X0026316Y0129745D03*
X0026237Y0129824D03*
X0025843Y0137777D03*
X0031119Y0123525D03*
X0032221Y0131084D03*
X0032536Y0135336D03*
X0034426Y0136832D03*
X0034347Y0136989D03*
X0034583Y0129903D03*
X0032536Y0105887D03*
X0032615Y0102501D03*
D65*
X0031670Y0098958D03*
X0031591Y0098958D03*
X0031512Y0098958D03*
X0030568Y0098958D03*
X0030489Y0098958D03*
X0030410Y0098958D03*
X0029623Y0091084D03*
X0030174Y0091005D03*
X0030646Y0090926D03*
X0030725Y0090926D03*
X0031827Y0090769D03*
X0031040Y0083525D03*
X0030489Y0083603D03*
X0029938Y0083682D03*
X0029780Y0081635D03*
X0029701Y0081635D03*
X0029623Y0081635D03*
X0029544Y0081635D03*
X0029465Y0081635D03*
X0029386Y0081635D03*
X0029308Y0081635D03*
X0029229Y0081635D03*
X0029150Y0081635D03*
X0030253Y0078800D03*
X0031119Y0079588D03*
X0030253Y0067619D03*
X0030646Y0065572D03*
X0030253Y0055808D03*
X0030253Y0048564D03*
X0030331Y0048485D03*
X0030489Y0048485D03*
X0030095Y0048564D03*
X0029938Y0048564D03*
X0027418Y0066202D03*
X0027575Y0066280D03*
X0026867Y0080217D03*
X0026473Y0083682D03*
X0027812Y0088721D03*
X0028284Y0088643D03*
X0028442Y0091241D03*
X0025764Y0100454D03*
X0028520Y0112658D03*
X0029229Y0118249D03*
X0028678Y0118328D03*
X0028127Y0118406D03*
X0027654Y0118485D03*
X0027575Y0118485D03*
X0029859Y0118170D03*
X0030883Y0118013D03*
X0030961Y0118013D03*
X0031985Y0115178D03*
X0032536Y0115099D03*
X0032536Y0112501D03*
X0032457Y0112501D03*
X0034426Y0099036D03*
X0034977Y0098958D03*
X0033796Y0082895D03*
X0034898Y0082737D03*
X0028520Y0129824D03*
X0027969Y0129903D03*
X0027418Y0129981D03*
X0027339Y0129981D03*
X0028127Y0132422D03*
X0028599Y0132343D03*
X0029859Y0134154D03*
X0030410Y0134076D03*
X0031827Y0131084D03*
D66*
X0033402Y0133525D03*
X0029859Y0123761D03*
X0030410Y0110847D03*
X0030568Y0110847D03*
X0026867Y0115178D03*
X0025843Y0130532D03*
X0026946Y0134312D03*
X0033402Y0104076D03*
X0029465Y0078879D03*
X0029386Y0078879D03*
X0029308Y0078879D03*
X0028442Y0079036D03*
X0028442Y0073446D03*
X0029544Y0073288D03*
X0030804Y0075887D03*
X0028599Y0056123D03*
X0028520Y0056123D03*
X0030804Y0052973D03*
D67*
X0030331Y0058525D03*
X0030174Y0058603D03*
X0030331Y0061044D03*
X0030410Y0061044D03*
X0030489Y0061044D03*
X0028520Y0053013D03*
X0028442Y0053013D03*
X0028599Y0052934D03*
X0028678Y0052934D03*
X0028757Y0052934D03*
X0029071Y0052855D03*
X0029150Y0052855D03*
X0029229Y0052855D03*
X0027890Y0058918D03*
X0027812Y0058918D03*
X0026946Y0066241D03*
X0027890Y0070729D03*
X0027890Y0073564D03*
X0027890Y0076320D03*
X0027812Y0076320D03*
X0030174Y0076005D03*
X0030253Y0076005D03*
X0030095Y0073249D03*
X0030095Y0070414D03*
X0030174Y0070414D03*
X0032851Y0090966D03*
X0033560Y0099469D03*
X0032457Y0106005D03*
X0032379Y0109627D03*
X0032300Y0109627D03*
X0031670Y0109942D03*
X0031512Y0110021D03*
X0031434Y0110099D03*
X0031197Y0123564D03*
X0034505Y0129784D03*
X0035843Y0133249D03*
X0034268Y0137107D03*
X0034190Y0137186D03*
X0032457Y0135454D03*
X0026867Y0118918D03*
X0026788Y0118918D03*
X0026709Y0118918D03*
X0025843Y0111517D03*
X0027339Y0109942D03*
X0027418Y0109942D03*
X0026709Y0100651D03*
X0027890Y0099627D03*
X0027969Y0099548D03*
X0034268Y0107658D03*
X0035843Y0103800D03*
D68*
X0034583Y0100769D03*
X0034505Y0100690D03*
X0034426Y0100454D03*
X0034347Y0100375D03*
X0034190Y0107777D03*
X0034111Y0107855D03*
X0034032Y0107934D03*
X0032379Y0106123D03*
X0032221Y0109666D03*
X0032142Y0109666D03*
X0032064Y0109745D03*
X0031985Y0109824D03*
X0031906Y0109824D03*
X0031827Y0109824D03*
X0031749Y0109903D03*
X0031591Y0109981D03*
X0030016Y0110454D03*
X0027575Y0109981D03*
X0027497Y0109981D03*
X0027812Y0106595D03*
X0027969Y0103052D03*
X0028048Y0102895D03*
X0026788Y0100532D03*
X0026867Y0100454D03*
X0026946Y0100375D03*
X0027103Y0100217D03*
X0027260Y0100060D03*
X0027418Y0100060D03*
X0027497Y0099981D03*
X0027575Y0099903D03*
X0027654Y0099824D03*
X0027733Y0099745D03*
X0027812Y0099666D03*
X0025922Y0108485D03*
X0026001Y0108564D03*
X0026001Y0111320D03*
X0025922Y0111399D03*
X0031276Y0123525D03*
X0031355Y0123525D03*
X0031434Y0123525D03*
X0033717Y0129194D03*
X0033402Y0129588D03*
X0033245Y0129666D03*
X0034426Y0129666D03*
X0034111Y0137304D03*
X0034032Y0137383D03*
X0032379Y0135572D03*
X0032142Y0131084D03*
X0027812Y0136044D03*
X0025922Y0137855D03*
X0026001Y0138013D03*
X0032536Y0102343D03*
X0032930Y0090926D03*
X0033009Y0090847D03*
X0030095Y0076044D03*
X0027890Y0079115D03*
X0027969Y0070690D03*
X0027890Y0067934D03*
X0027733Y0064076D03*
X0028599Y0063603D03*
X0029938Y0061005D03*
X0030095Y0061005D03*
X0030174Y0061005D03*
X0030253Y0061005D03*
X0030095Y0058643D03*
X0028914Y0052895D03*
X0028048Y0058958D03*
X0026788Y0061477D03*
D69*
X0026946Y0058603D03*
X0028284Y0056162D03*
X0029701Y0055926D03*
X0030961Y0058052D03*
X0030646Y0052934D03*
X0030646Y0070336D03*
X0029701Y0078840D03*
X0028284Y0073485D03*
X0027260Y0076399D03*
X0026158Y0101123D03*
X0030331Y0110729D03*
X0025922Y0130336D03*
X0034898Y0135690D03*
X0034898Y0106241D03*
D70*
X0033796Y0108249D03*
X0034111Y0100139D03*
X0031749Y0095651D03*
X0031670Y0095729D03*
X0031591Y0095808D03*
X0031512Y0095887D03*
X0031434Y0095966D03*
X0031355Y0096044D03*
X0031276Y0096044D03*
X0031197Y0096123D03*
X0031119Y0096202D03*
X0031040Y0096280D03*
X0030961Y0096359D03*
X0030883Y0096438D03*
X0031827Y0095572D03*
X0031985Y0095414D03*
X0032142Y0095257D03*
X0032300Y0095099D03*
X0032457Y0094942D03*
X0032615Y0094784D03*
X0030883Y0093052D03*
X0031040Y0092895D03*
X0031197Y0092737D03*
X0031512Y0092422D03*
X0031670Y0092265D03*
X0031827Y0092107D03*
X0031985Y0091950D03*
X0032142Y0091792D03*
X0033166Y0090769D03*
X0030725Y0093210D03*
X0030568Y0093367D03*
X0030410Y0093525D03*
X0030253Y0093682D03*
X0030095Y0093840D03*
X0030016Y0093918D03*
X0029938Y0093997D03*
X0029859Y0094076D03*
X0029780Y0094154D03*
X0029701Y0094233D03*
X0029623Y0094312D03*
X0029544Y0094391D03*
X0029465Y0094469D03*
X0029308Y0094627D03*
X0028520Y0095414D03*
X0028442Y0095493D03*
X0028363Y0095572D03*
X0028284Y0095651D03*
X0028205Y0095729D03*
X0028127Y0095808D03*
X0028048Y0095887D03*
X0027969Y0095966D03*
X0027890Y0096044D03*
X0027812Y0096123D03*
X0029308Y0098013D03*
X0029386Y0098013D03*
X0029465Y0097934D03*
X0029544Y0097855D03*
X0029623Y0097777D03*
X0029701Y0097698D03*
X0029780Y0097619D03*
X0029859Y0097540D03*
X0029938Y0097462D03*
X0030016Y0097383D03*
X0029229Y0098091D03*
X0028127Y0102816D03*
X0027890Y0106753D03*
X0027733Y0109981D03*
X0027654Y0109981D03*
X0026473Y0118879D03*
X0026316Y0108958D03*
X0026237Y0108879D03*
X0026158Y0108800D03*
X0029859Y0110375D03*
X0031591Y0123525D03*
X0032851Y0130217D03*
X0032694Y0130375D03*
X0032064Y0131084D03*
X0032142Y0135887D03*
X0033717Y0137777D03*
X0034111Y0129273D03*
X0033953Y0129115D03*
X0027890Y0136202D03*
X0026867Y0134391D03*
X0026079Y0138091D03*
X0026158Y0138249D03*
X0029938Y0076044D03*
X0030016Y0076044D03*
X0029859Y0070454D03*
X0028205Y0070690D03*
X0028127Y0070690D03*
X0028048Y0070690D03*
X0027024Y0066202D03*
X0027024Y0061477D03*
X0027103Y0061399D03*
X0027182Y0061399D03*
X0027260Y0061399D03*
X0027339Y0061399D03*
X0027418Y0061399D03*
X0027497Y0061399D03*
X0027575Y0061399D03*
X0027654Y0061399D03*
X0027812Y0061320D03*
X0027890Y0061320D03*
X0027969Y0061320D03*
X0028048Y0061320D03*
X0028127Y0061320D03*
X0028284Y0061241D03*
X0028363Y0061241D03*
X0028442Y0061241D03*
X0028520Y0061241D03*
X0028599Y0061241D03*
X0028678Y0061241D03*
X0028757Y0061241D03*
X0028914Y0061162D03*
X0028993Y0061162D03*
X0029071Y0061162D03*
X0029150Y0061162D03*
X0029229Y0061162D03*
X0029386Y0061162D03*
X0029150Y0058879D03*
X0029544Y0058800D03*
X0029623Y0058800D03*
X0029701Y0058800D03*
X0029780Y0058721D03*
X0029859Y0058721D03*
X0028442Y0058958D03*
X0028363Y0058958D03*
X0028284Y0058958D03*
X0028205Y0058958D03*
X0028127Y0058958D03*
X0027812Y0056202D03*
X0026867Y0061477D03*
X0032142Y0048328D03*
D71*
X0030016Y0058682D03*
X0029938Y0058682D03*
X0030016Y0061044D03*
X0029859Y0061044D03*
X0029780Y0061044D03*
X0029701Y0061044D03*
X0029623Y0061044D03*
X0029544Y0061044D03*
X0029465Y0061044D03*
X0029308Y0061123D03*
X0028835Y0061202D03*
X0028205Y0061280D03*
X0027733Y0061359D03*
X0026946Y0061438D03*
X0027969Y0058918D03*
X0030331Y0063643D03*
X0030883Y0065532D03*
X0030253Y0065690D03*
X0030095Y0067658D03*
X0030016Y0070414D03*
X0029938Y0070414D03*
X0028048Y0076320D03*
X0027969Y0076320D03*
X0033087Y0090808D03*
X0034190Y0100178D03*
X0034268Y0100257D03*
X0033953Y0108052D03*
X0033875Y0108131D03*
X0034662Y0110651D03*
X0034741Y0110729D03*
X0031985Y0112855D03*
X0032300Y0106241D03*
X0032457Y0102225D03*
X0029938Y0110414D03*
X0028757Y0112934D03*
X0026631Y0118840D03*
X0026552Y0118840D03*
X0026079Y0111202D03*
X0026079Y0108682D03*
X0027024Y0100336D03*
X0027182Y0100178D03*
X0027339Y0100021D03*
X0031512Y0123485D03*
X0033638Y0129312D03*
X0033560Y0129391D03*
X0033481Y0129469D03*
X0033323Y0129706D03*
X0033166Y0129784D03*
X0033087Y0129863D03*
X0033009Y0129942D03*
X0032930Y0130099D03*
X0032772Y0130257D03*
X0033796Y0129154D03*
X0033875Y0129076D03*
X0034032Y0129154D03*
X0034190Y0129391D03*
X0034268Y0129469D03*
X0034347Y0129548D03*
X0033953Y0137501D03*
X0033875Y0137580D03*
X0033796Y0137658D03*
X0032221Y0135769D03*
X0032300Y0135690D03*
D72*
X0026473Y0064745D03*
X0026394Y0064745D03*
X0026316Y0064745D03*
X0026237Y0064745D03*
X0026158Y0064745D03*
X0026079Y0064745D03*
D73*
X0027654Y0064115D03*
X0028678Y0063485D03*
X0030331Y0065690D03*
X0029780Y0070493D03*
X0030174Y0073249D03*
X0029859Y0076084D03*
X0029780Y0076084D03*
X0030174Y0078840D03*
X0027812Y0079154D03*
X0026709Y0080021D03*
X0028127Y0076320D03*
X0028205Y0076320D03*
X0028284Y0070651D03*
X0028363Y0070651D03*
X0027812Y0067973D03*
X0028048Y0066477D03*
X0028520Y0058918D03*
X0028599Y0058918D03*
X0028678Y0058918D03*
X0028757Y0058918D03*
X0028835Y0058918D03*
X0028914Y0058918D03*
X0028993Y0058918D03*
X0029229Y0058840D03*
X0029308Y0058840D03*
X0029386Y0058840D03*
X0029465Y0058840D03*
X0030174Y0055847D03*
X0031827Y0048367D03*
X0031985Y0048367D03*
X0033245Y0090729D03*
X0033323Y0090729D03*
X0032221Y0091753D03*
X0032064Y0091910D03*
X0031906Y0092068D03*
X0031749Y0092225D03*
X0031591Y0092383D03*
X0030489Y0093485D03*
X0030331Y0093643D03*
X0030174Y0093800D03*
X0029386Y0094588D03*
X0029229Y0094666D03*
X0029150Y0094745D03*
X0029071Y0094824D03*
X0028993Y0094903D03*
X0028914Y0094981D03*
X0028835Y0095060D03*
X0028757Y0095139D03*
X0028678Y0095217D03*
X0028599Y0095296D03*
X0030331Y0097028D03*
X0030410Y0096950D03*
X0030489Y0096871D03*
X0030568Y0096792D03*
X0030646Y0096714D03*
X0030725Y0096635D03*
X0030804Y0096556D03*
X0030253Y0097107D03*
X0030174Y0097186D03*
X0030095Y0097265D03*
X0028599Y0102304D03*
X0028363Y0102540D03*
X0028284Y0102619D03*
X0028205Y0102698D03*
X0027969Y0106871D03*
X0028048Y0106950D03*
X0026552Y0109233D03*
X0026631Y0109312D03*
X0026788Y0109391D03*
X0027812Y0110021D03*
X0027812Y0113013D03*
X0026158Y0111044D03*
X0026237Y0110966D03*
X0026316Y0110887D03*
X0026316Y0118840D03*
X0026394Y0118840D03*
X0026237Y0118840D03*
X0026158Y0118840D03*
X0027812Y0132619D03*
X0027969Y0136241D03*
X0028048Y0136320D03*
X0026473Y0138525D03*
X0026316Y0138367D03*
X0026237Y0138288D03*
X0031670Y0123485D03*
X0032694Y0112698D03*
X0033560Y0108525D03*
X0033638Y0108446D03*
X0033717Y0108367D03*
X0034583Y0110493D03*
X0032064Y0106556D03*
X0032142Y0106477D03*
X0032221Y0106399D03*
X0032379Y0102147D03*
X0032300Y0102068D03*
X0031906Y0095532D03*
X0029780Y0110336D03*
X0032064Y0136005D03*
X0031985Y0136084D03*
X0033638Y0137895D03*
X0033560Y0137973D03*
D74*
X0034977Y0111359D03*
X0030725Y0110572D03*
X0029150Y0098603D03*
X0026316Y0100966D03*
X0026237Y0101044D03*
X0029859Y0078840D03*
X0030646Y0075926D03*
X0030883Y0058131D03*
X0030489Y0052855D03*
X0030410Y0052855D03*
X0028205Y0056162D03*
X0027103Y0058682D03*
X0027418Y0076399D03*
D75*
X0026709Y0081832D03*
X0026631Y0081832D03*
X0026552Y0081832D03*
X0026473Y0081832D03*
X0026394Y0081832D03*
X0026316Y0081832D03*
X0027024Y0063249D03*
X0028205Y0048761D03*
X0028442Y0048682D03*
X0028599Y0048682D03*
X0028757Y0048682D03*
X0030883Y0079863D03*
D76*
X0030016Y0078800D03*
X0030410Y0075966D03*
X0030331Y0070375D03*
X0030095Y0065729D03*
X0030253Y0063682D03*
X0030725Y0061084D03*
X0030804Y0061084D03*
X0030016Y0055887D03*
X0030016Y0052816D03*
X0029938Y0052816D03*
X0029859Y0052816D03*
X0029780Y0052816D03*
X0027890Y0053210D03*
X0027733Y0053288D03*
X0027969Y0056202D03*
X0027418Y0058800D03*
X0027339Y0058800D03*
X0027890Y0063997D03*
X0026867Y0066280D03*
X0027733Y0070769D03*
X0027654Y0076359D03*
X0032615Y0091084D03*
X0033875Y0099588D03*
X0034741Y0101084D03*
X0032615Y0105729D03*
X0032772Y0109430D03*
X0032851Y0109430D03*
X0031040Y0110296D03*
X0028520Y0099115D03*
X0028442Y0099194D03*
X0028678Y0098958D03*
X0027733Y0106359D03*
X0027103Y0109981D03*
X0027182Y0118958D03*
X0027260Y0118958D03*
X0027339Y0118958D03*
X0027418Y0118958D03*
X0027497Y0118958D03*
X0030883Y0123603D03*
X0032300Y0131084D03*
X0032615Y0135178D03*
X0034583Y0136517D03*
X0034898Y0111084D03*
X0027733Y0135808D03*
X0026631Y0129666D03*
X0026552Y0129666D03*
D77*
X0026552Y0064706D03*
X0026631Y0064706D03*
D78*
X0026709Y0070926D03*
X0029465Y0066595D03*
X0035528Y0103840D03*
X0032772Y0133525D03*
X0027260Y0124154D03*
X0027182Y0124154D03*
D79*
X0035134Y0114154D03*
X0026709Y0060454D03*
D80*
X0026709Y0052343D03*
X0035371Y0114312D03*
D81*
X0026788Y0124194D03*
D82*
X0032457Y0123367D03*
X0032536Y0123367D03*
X0027418Y0081792D03*
X0027339Y0081792D03*
X0027260Y0081792D03*
X0027182Y0081792D03*
X0027103Y0081792D03*
X0027024Y0081792D03*
X0026946Y0081792D03*
X0026867Y0081792D03*
X0026788Y0081792D03*
X0027733Y0067934D03*
X0030961Y0079745D03*
X0028678Y0048721D03*
X0028520Y0048721D03*
X0028363Y0048721D03*
X0028914Y0048643D03*
X0029071Y0048643D03*
D83*
X0026788Y0070926D03*
X0032851Y0104154D03*
X0027575Y0104942D03*
X0032930Y0133525D03*
X0035607Y0133131D03*
X0027418Y0134233D03*
D84*
X0032457Y0131162D03*
X0034820Y0135887D03*
X0034898Y0130690D03*
X0033560Y0114312D03*
X0029780Y0078879D03*
X0028205Y0079036D03*
X0028205Y0073525D03*
X0027418Y0070769D03*
X0027339Y0070769D03*
X0026788Y0066280D03*
X0027024Y0058643D03*
X0029780Y0055966D03*
X0030568Y0052895D03*
X0031040Y0061241D03*
X0031119Y0061320D03*
X0030568Y0070375D03*
D85*
X0026788Y0052186D03*
X0035134Y0045572D03*
X0035292Y0045572D03*
X0035449Y0045572D03*
X0035686Y0045493D03*
X0033481Y0096753D03*
X0035056Y0133210D03*
D86*
X0026867Y0124233D03*
D87*
X0029308Y0114351D03*
X0029386Y0114351D03*
X0031749Y0114036D03*
X0032772Y0113800D03*
X0032851Y0113800D03*
X0035134Y0122934D03*
X0026867Y0076399D03*
X0026946Y0070887D03*
X0028520Y0067422D03*
X0028599Y0067422D03*
X0031040Y0075769D03*
D88*
X0031119Y0075769D03*
X0028914Y0067265D03*
X0026867Y0070887D03*
X0036158Y0048761D03*
X0036237Y0048761D03*
X0036316Y0048761D03*
X0036394Y0048761D03*
X0036552Y0048682D03*
X0036631Y0048682D03*
X0036946Y0048603D03*
X0037024Y0048603D03*
X0037103Y0048603D03*
X0029071Y0114273D03*
X0027497Y0114509D03*
X0027182Y0134194D03*
D89*
X0032379Y0123367D03*
X0028520Y0081714D03*
X0028442Y0081714D03*
X0028363Y0081714D03*
X0028284Y0081714D03*
X0028205Y0081714D03*
X0028127Y0081714D03*
X0028048Y0081714D03*
X0026946Y0080296D03*
X0027733Y0079194D03*
X0031040Y0079666D03*
X0027575Y0064076D03*
X0026867Y0063367D03*
X0027733Y0056202D03*
X0029150Y0048643D03*
X0029308Y0048643D03*
X0029465Y0048643D03*
X0029701Y0048564D03*
X0029859Y0048564D03*
D90*
X0026867Y0052068D03*
X0034190Y0045690D03*
X0034347Y0045690D03*
X0034583Y0045611D03*
X0034741Y0045611D03*
X0026946Y0094273D03*
X0033245Y0096792D03*
X0033323Y0096792D03*
D91*
X0033245Y0113918D03*
X0031434Y0114233D03*
X0029386Y0123840D03*
X0029308Y0123840D03*
X0029229Y0123840D03*
X0026946Y0114863D03*
X0033245Y0133446D03*
X0035607Y0122895D03*
X0030961Y0075887D03*
X0030883Y0070296D03*
X0031197Y0065414D03*
X0033166Y0057540D03*
X0031040Y0053210D03*
D92*
X0029544Y0048603D03*
X0029386Y0048603D03*
X0029229Y0048603D03*
X0028993Y0048682D03*
X0028835Y0048682D03*
X0026946Y0063328D03*
X0027024Y0080336D03*
X0027497Y0081753D03*
X0027575Y0081753D03*
X0027654Y0081753D03*
X0027733Y0081753D03*
X0027812Y0081753D03*
X0027890Y0081753D03*
X0027969Y0081753D03*
D93*
X0033087Y0057501D03*
X0033323Y0113958D03*
X0031355Y0114351D03*
X0031276Y0114351D03*
X0029544Y0114588D03*
X0029465Y0123800D03*
X0029229Y0133249D03*
X0029150Y0133249D03*
X0028835Y0133328D03*
X0027024Y0134273D03*
X0033323Y0133485D03*
X0035686Y0122855D03*
X0035764Y0122855D03*
D94*
X0035528Y0133210D03*
X0027103Y0124154D03*
X0027024Y0124154D03*
D95*
X0027024Y0094233D03*
X0035056Y0103918D03*
X0034032Y0045729D03*
X0034111Y0045651D03*
X0034268Y0045651D03*
X0034426Y0045651D03*
X0033875Y0045729D03*
X0033717Y0045729D03*
D96*
X0032851Y0045847D03*
X0032694Y0045847D03*
X0032457Y0045926D03*
X0032300Y0045926D03*
X0029859Y0065690D03*
X0027103Y0051832D03*
X0027182Y0086162D03*
X0027260Y0086162D03*
X0027339Y0086162D03*
X0027418Y0086162D03*
X0027497Y0086162D03*
X0027575Y0086162D03*
X0027024Y0086241D03*
X0027575Y0093958D03*
X0033009Y0096792D03*
X0035213Y0133170D03*
X0035292Y0133170D03*
D97*
X0035134Y0103879D03*
X0027260Y0094115D03*
X0027339Y0094036D03*
X0029623Y0065769D03*
X0029701Y0065769D03*
X0027024Y0051910D03*
X0033009Y0045769D03*
X0033166Y0045769D03*
X0033323Y0045769D03*
D98*
X0027182Y0105021D03*
X0027103Y0114706D03*
X0027103Y0134233D03*
X0031670Y0114076D03*
X0032930Y0113840D03*
X0033009Y0113840D03*
X0035213Y0122895D03*
X0035292Y0122895D03*
X0033166Y0133446D03*
D99*
X0035056Y0122973D03*
X0031906Y0113997D03*
X0031827Y0113997D03*
X0029229Y0114312D03*
X0027182Y0114627D03*
X0035686Y0103840D03*
X0028678Y0067383D03*
X0031197Y0053367D03*
D100*
X0032221Y0045887D03*
X0032379Y0045887D03*
X0032536Y0045887D03*
X0027182Y0051792D03*
X0027733Y0086123D03*
X0027654Y0093918D03*
X0032930Y0096832D03*
D101*
X0029071Y0081674D03*
X0028993Y0081674D03*
X0028914Y0081674D03*
X0028835Y0081674D03*
X0028757Y0081674D03*
X0028678Y0081674D03*
X0028599Y0081674D03*
X0027733Y0073564D03*
X0027497Y0066241D03*
X0027339Y0066162D03*
X0027260Y0066162D03*
X0030568Y0065611D03*
X0029780Y0048603D03*
X0029623Y0048603D03*
X0030016Y0048525D03*
X0030174Y0048525D03*
X0032221Y0123406D03*
X0032300Y0123406D03*
D102*
X0027339Y0134194D03*
X0029229Y0066950D03*
X0029938Y0064745D03*
D103*
X0027418Y0124115D03*
X0027339Y0124115D03*
D104*
X0028835Y0114194D03*
X0027339Y0104981D03*
X0035764Y0048918D03*
X0036079Y0048840D03*
X0037182Y0048525D03*
X0037260Y0048525D03*
X0037575Y0048446D03*
X0037654Y0048446D03*
X0037969Y0048367D03*
X0038442Y0048288D03*
X0038599Y0048210D03*
X0038678Y0048210D03*
X0038993Y0048131D03*
X0039071Y0048131D03*
X0039229Y0048131D03*
X0039386Y0048052D03*
X0039465Y0048052D03*
X0039780Y0047973D03*
X0039859Y0047973D03*
X0040174Y0047895D03*
D105*
X0031670Y0085808D03*
X0029465Y0086123D03*
X0029308Y0086123D03*
X0027418Y0051635D03*
X0027339Y0051635D03*
D106*
X0029308Y0066871D03*
X0027497Y0134273D03*
D107*
X0027575Y0134312D03*
X0031197Y0075729D03*
X0029386Y0066832D03*
D108*
X0032772Y0104194D03*
X0027654Y0104903D03*
X0027575Y0124115D03*
X0032851Y0133485D03*
D109*
X0028993Y0114233D03*
X0028914Y0114233D03*
X0027654Y0114391D03*
X0027575Y0114469D03*
X0033009Y0104154D03*
X0028993Y0067225D03*
X0035843Y0048879D03*
X0035922Y0048879D03*
X0036001Y0048879D03*
X0036473Y0048721D03*
X0036709Y0048643D03*
X0036788Y0048643D03*
X0036867Y0048643D03*
X0037339Y0048485D03*
X0037418Y0048485D03*
X0037497Y0048485D03*
X0037733Y0048406D03*
X0037812Y0048406D03*
X0037890Y0048406D03*
X0038048Y0048328D03*
X0038127Y0048328D03*
X0038205Y0048328D03*
X0038284Y0048328D03*
X0038363Y0048249D03*
X0038520Y0048249D03*
X0038757Y0048170D03*
X0038835Y0048170D03*
X0038914Y0048170D03*
X0039150Y0048091D03*
X0039308Y0048091D03*
X0039544Y0048013D03*
X0039623Y0048013D03*
X0039701Y0048013D03*
X0039938Y0047934D03*
X0040016Y0047934D03*
X0040095Y0047934D03*
X0040253Y0047855D03*
X0040331Y0047855D03*
D110*
X0033245Y0085454D03*
X0032772Y0085532D03*
X0035213Y0103879D03*
X0035292Y0103879D03*
X0027733Y0093879D03*
D111*
X0031591Y0114115D03*
X0029465Y0114430D03*
X0035371Y0122934D03*
X0028442Y0067422D03*
X0028363Y0067422D03*
D112*
X0029544Y0066320D03*
X0035843Y0115139D03*
D113*
X0035371Y0103879D03*
X0031749Y0131595D03*
X0031670Y0131595D03*
X0031591Y0131595D03*
X0031355Y0131674D03*
X0031276Y0131674D03*
X0031197Y0131674D03*
X0031119Y0131674D03*
D114*
X0031276Y0066832D03*
X0031355Y0066832D03*
X0031434Y0066832D03*
X0031512Y0066832D03*
D115*
X0031591Y0066792D03*
X0031670Y0066792D03*
X0031749Y0066792D03*
X0031827Y0066792D03*
X0031906Y0066792D03*
D116*
X0031985Y0066753D03*
D117*
X0032064Y0070926D03*
X0033166Y0070926D03*
D118*
X0032064Y0055414D03*
D119*
X0032142Y0070966D03*
X0033087Y0070966D03*
D120*
X0032142Y0055336D03*
D121*
X0032221Y0071005D03*
X0032930Y0071005D03*
X0033009Y0071005D03*
D122*
X0032851Y0071044D03*
X0032379Y0071044D03*
X0032300Y0071044D03*
D123*
X0032457Y0071084D03*
X0032536Y0071084D03*
X0032615Y0071084D03*
X0032694Y0071084D03*
X0032772Y0071084D03*
D124*
X0032772Y0096871D03*
X0032851Y0096871D03*
X0035371Y0133170D03*
D125*
X0033323Y0070847D03*
X0033245Y0070847D03*
D126*
X0034820Y0045611D03*
X0034977Y0045611D03*
X0035213Y0045532D03*
X0035371Y0045532D03*
X0035528Y0045532D03*
X0033402Y0096714D03*
X0035528Y0114430D03*
D127*
X0033481Y0069036D03*
X0033402Y0069036D03*
D128*
X0033560Y0068997D03*
X0033638Y0068997D03*
X0033717Y0068997D03*
X0033796Y0068997D03*
D129*
X0033875Y0068958D03*
X0033953Y0068958D03*
X0034032Y0068958D03*
X0034111Y0068958D03*
X0034190Y0068958D03*
D130*
X0034268Y0068918D03*
X0034347Y0068918D03*
X0034426Y0068918D03*
X0034505Y0068918D03*
X0034583Y0068918D03*
D131*
X0034662Y0068879D03*
X0034741Y0068879D03*
X0034820Y0068879D03*
X0034898Y0068879D03*
X0034977Y0068879D03*
D132*
X0035056Y0114115D03*
D133*
X0035056Y0090808D03*
X0035134Y0090808D03*
X0035213Y0090808D03*
X0035292Y0090808D03*
X0035371Y0090808D03*
X0035528Y0090808D03*
X0035686Y0090729D03*
X0035764Y0090729D03*
X0035843Y0090729D03*
D134*
X0035371Y0068840D03*
X0035292Y0068840D03*
X0035213Y0068840D03*
X0035134Y0068840D03*
X0035056Y0068840D03*
D135*
X0035292Y0114194D03*
D136*
X0035449Y0133210D03*
D137*
X0035449Y0090769D03*
X0035607Y0090769D03*
D138*
X0035607Y0068800D03*
X0035686Y0068800D03*
X0035528Y0068800D03*
X0035449Y0068800D03*
D139*
X0035607Y0045532D03*
D140*
X0043048Y0016595D02*
X0043048Y0008721D01*
X0043050Y0008581D01*
X0043056Y0008441D01*
X0043066Y0008301D01*
X0043079Y0008161D01*
X0043097Y0008022D01*
X0043119Y0007883D01*
X0043144Y0007746D01*
X0043173Y0007608D01*
X0043206Y0007472D01*
X0043243Y0007337D01*
X0043284Y0007203D01*
X0043329Y0007070D01*
X0043377Y0006938D01*
X0043429Y0006808D01*
X0043484Y0006679D01*
X0043543Y0006552D01*
X0043606Y0006426D01*
X0043672Y0006302D01*
X0043741Y0006181D01*
X0043814Y0006061D01*
X0043891Y0005943D01*
X0043970Y0005828D01*
X0044053Y0005714D01*
X0044139Y0005604D01*
X0044228Y0005495D01*
X0044320Y0005389D01*
X0044415Y0005286D01*
X0044512Y0005185D01*
X0044613Y0005088D01*
X0044716Y0004993D01*
X0044822Y0004901D01*
X0044931Y0004812D01*
X0045041Y0004726D01*
X0045155Y0004643D01*
X0045270Y0004564D01*
X0045388Y0004487D01*
X0045508Y0004414D01*
X0045629Y0004345D01*
X0045753Y0004279D01*
X0045879Y0004216D01*
X0046006Y0004157D01*
X0046135Y0004102D01*
X0046265Y0004050D01*
X0046397Y0004002D01*
X0046530Y0003957D01*
X0046664Y0003916D01*
X0046799Y0003879D01*
X0046935Y0003846D01*
X0047073Y0003817D01*
X0047210Y0003792D01*
X0047349Y0003770D01*
X0047488Y0003752D01*
X0047628Y0003739D01*
X0047768Y0003729D01*
X0047908Y0003723D01*
X0048048Y0003721D01*
X0048188Y0003723D01*
X0048328Y0003729D01*
X0048468Y0003739D01*
X0048608Y0003752D01*
X0048747Y0003770D01*
X0048886Y0003792D01*
X0049023Y0003817D01*
X0049161Y0003846D01*
X0049297Y0003879D01*
X0049432Y0003916D01*
X0049566Y0003957D01*
X0049699Y0004002D01*
X0049831Y0004050D01*
X0049961Y0004102D01*
X0050090Y0004157D01*
X0050217Y0004216D01*
X0050343Y0004279D01*
X0050467Y0004345D01*
X0050588Y0004414D01*
X0050708Y0004487D01*
X0050826Y0004564D01*
X0050941Y0004643D01*
X0051055Y0004726D01*
X0051165Y0004812D01*
X0051274Y0004901D01*
X0051380Y0004993D01*
X0051483Y0005088D01*
X0051584Y0005185D01*
X0051681Y0005286D01*
X0051776Y0005389D01*
X0051868Y0005495D01*
X0051957Y0005604D01*
X0052043Y0005714D01*
X0052126Y0005828D01*
X0052205Y0005943D01*
X0052282Y0006061D01*
X0052355Y0006181D01*
X0052424Y0006302D01*
X0052490Y0006426D01*
X0052553Y0006552D01*
X0052612Y0006679D01*
X0052667Y0006808D01*
X0052719Y0006938D01*
X0052767Y0007070D01*
X0052812Y0007203D01*
X0052853Y0007337D01*
X0052890Y0007472D01*
X0052923Y0007608D01*
X0052952Y0007746D01*
X0052977Y0007883D01*
X0052999Y0008022D01*
X0053017Y0008161D01*
X0053030Y0008301D01*
X0053040Y0008441D01*
X0053046Y0008581D01*
X0053048Y0008721D01*
X0053048Y0016595D01*
X0053050Y0016735D01*
X0053056Y0016875D01*
X0053066Y0017015D01*
X0053079Y0017155D01*
X0053097Y0017294D01*
X0053119Y0017433D01*
X0053144Y0017570D01*
X0053173Y0017708D01*
X0053206Y0017844D01*
X0053243Y0017979D01*
X0053284Y0018113D01*
X0053329Y0018246D01*
X0053377Y0018378D01*
X0053429Y0018508D01*
X0053484Y0018637D01*
X0053543Y0018764D01*
X0053606Y0018890D01*
X0053672Y0019014D01*
X0053741Y0019135D01*
X0053814Y0019255D01*
X0053891Y0019373D01*
X0053970Y0019488D01*
X0054053Y0019602D01*
X0054139Y0019712D01*
X0054228Y0019821D01*
X0054320Y0019927D01*
X0054415Y0020030D01*
X0054512Y0020131D01*
X0054613Y0020228D01*
X0054716Y0020323D01*
X0054822Y0020415D01*
X0054931Y0020504D01*
X0055041Y0020590D01*
X0055155Y0020673D01*
X0055270Y0020752D01*
X0055388Y0020829D01*
X0055508Y0020902D01*
X0055629Y0020971D01*
X0055753Y0021037D01*
X0055879Y0021100D01*
X0056006Y0021159D01*
X0056135Y0021214D01*
X0056265Y0021266D01*
X0056397Y0021314D01*
X0056530Y0021359D01*
X0056664Y0021400D01*
X0056799Y0021437D01*
X0056935Y0021470D01*
X0057073Y0021499D01*
X0057210Y0021524D01*
X0057349Y0021546D01*
X0057488Y0021564D01*
X0057628Y0021577D01*
X0057768Y0021587D01*
X0057908Y0021593D01*
X0058048Y0021595D01*
X0058188Y0021593D01*
X0058328Y0021587D01*
X0058468Y0021577D01*
X0058608Y0021564D01*
X0058747Y0021546D01*
X0058886Y0021524D01*
X0059023Y0021499D01*
X0059161Y0021470D01*
X0059297Y0021437D01*
X0059432Y0021400D01*
X0059566Y0021359D01*
X0059699Y0021314D01*
X0059831Y0021266D01*
X0059961Y0021214D01*
X0060090Y0021159D01*
X0060217Y0021100D01*
X0060343Y0021037D01*
X0060467Y0020971D01*
X0060588Y0020902D01*
X0060708Y0020829D01*
X0060826Y0020752D01*
X0060941Y0020673D01*
X0061055Y0020590D01*
X0061165Y0020504D01*
X0061274Y0020415D01*
X0061380Y0020323D01*
X0061483Y0020228D01*
X0061584Y0020131D01*
X0061681Y0020030D01*
X0061776Y0019927D01*
X0061868Y0019821D01*
X0061957Y0019712D01*
X0062043Y0019602D01*
X0062126Y0019488D01*
X0062205Y0019373D01*
X0062282Y0019255D01*
X0062355Y0019135D01*
X0062424Y0019014D01*
X0062490Y0018890D01*
X0062553Y0018764D01*
X0062612Y0018637D01*
X0062667Y0018508D01*
X0062719Y0018378D01*
X0062767Y0018246D01*
X0062812Y0018113D01*
X0062853Y0017979D01*
X0062890Y0017844D01*
X0062923Y0017708D01*
X0062952Y0017570D01*
X0062977Y0017433D01*
X0062999Y0017294D01*
X0063017Y0017155D01*
X0063030Y0017015D01*
X0063040Y0016875D01*
X0063046Y0016735D01*
X0063048Y0016595D01*
X0063048Y0008721D01*
X0063050Y0008581D01*
X0063056Y0008441D01*
X0063066Y0008301D01*
X0063079Y0008161D01*
X0063097Y0008022D01*
X0063119Y0007883D01*
X0063144Y0007746D01*
X0063173Y0007608D01*
X0063206Y0007472D01*
X0063243Y0007337D01*
X0063284Y0007203D01*
X0063329Y0007070D01*
X0063377Y0006938D01*
X0063429Y0006808D01*
X0063484Y0006679D01*
X0063543Y0006552D01*
X0063606Y0006426D01*
X0063672Y0006302D01*
X0063741Y0006181D01*
X0063814Y0006061D01*
X0063891Y0005943D01*
X0063970Y0005828D01*
X0064053Y0005714D01*
X0064139Y0005604D01*
X0064228Y0005495D01*
X0064320Y0005389D01*
X0064415Y0005286D01*
X0064512Y0005185D01*
X0064613Y0005088D01*
X0064716Y0004993D01*
X0064822Y0004901D01*
X0064931Y0004812D01*
X0065041Y0004726D01*
X0065155Y0004643D01*
X0065270Y0004564D01*
X0065388Y0004487D01*
X0065508Y0004414D01*
X0065629Y0004345D01*
X0065753Y0004279D01*
X0065879Y0004216D01*
X0066006Y0004157D01*
X0066135Y0004102D01*
X0066265Y0004050D01*
X0066397Y0004002D01*
X0066530Y0003957D01*
X0066664Y0003916D01*
X0066799Y0003879D01*
X0066935Y0003846D01*
X0067073Y0003817D01*
X0067210Y0003792D01*
X0067349Y0003770D01*
X0067488Y0003752D01*
X0067628Y0003739D01*
X0067768Y0003729D01*
X0067908Y0003723D01*
X0068048Y0003721D01*
X0068188Y0003723D01*
X0068328Y0003729D01*
X0068468Y0003739D01*
X0068608Y0003752D01*
X0068747Y0003770D01*
X0068886Y0003792D01*
X0069023Y0003817D01*
X0069161Y0003846D01*
X0069297Y0003879D01*
X0069432Y0003916D01*
X0069566Y0003957D01*
X0069699Y0004002D01*
X0069831Y0004050D01*
X0069961Y0004102D01*
X0070090Y0004157D01*
X0070217Y0004216D01*
X0070343Y0004279D01*
X0070467Y0004345D01*
X0070588Y0004414D01*
X0070708Y0004487D01*
X0070826Y0004564D01*
X0070941Y0004643D01*
X0071055Y0004726D01*
X0071165Y0004812D01*
X0071274Y0004901D01*
X0071380Y0004993D01*
X0071483Y0005088D01*
X0071584Y0005185D01*
X0071681Y0005286D01*
X0071776Y0005389D01*
X0071868Y0005495D01*
X0071957Y0005604D01*
X0072043Y0005714D01*
X0072126Y0005828D01*
X0072205Y0005943D01*
X0072282Y0006061D01*
X0072355Y0006181D01*
X0072424Y0006302D01*
X0072490Y0006426D01*
X0072553Y0006552D01*
X0072612Y0006679D01*
X0072667Y0006808D01*
X0072719Y0006938D01*
X0072767Y0007070D01*
X0072812Y0007203D01*
X0072853Y0007337D01*
X0072890Y0007472D01*
X0072923Y0007608D01*
X0072952Y0007746D01*
X0072977Y0007883D01*
X0072999Y0008022D01*
X0073017Y0008161D01*
X0073030Y0008301D01*
X0073040Y0008441D01*
X0073046Y0008581D01*
X0073048Y0008721D01*
X0073048Y0016595D01*
X0073046Y0016735D01*
X0073040Y0016875D01*
X0073030Y0017015D01*
X0073017Y0017155D01*
X0072999Y0017294D01*
X0072977Y0017433D01*
X0072952Y0017570D01*
X0072923Y0017708D01*
X0072890Y0017844D01*
X0072853Y0017979D01*
X0072812Y0018113D01*
X0072767Y0018246D01*
X0072719Y0018378D01*
X0072667Y0018508D01*
X0072612Y0018637D01*
X0072553Y0018764D01*
X0072490Y0018890D01*
X0072424Y0019014D01*
X0072355Y0019135D01*
X0072282Y0019255D01*
X0072205Y0019373D01*
X0072126Y0019488D01*
X0072043Y0019602D01*
X0071957Y0019712D01*
X0071868Y0019821D01*
X0071776Y0019927D01*
X0071681Y0020030D01*
X0071584Y0020131D01*
X0071483Y0020228D01*
X0071380Y0020323D01*
X0071274Y0020415D01*
X0071165Y0020504D01*
X0071055Y0020590D01*
X0070941Y0020673D01*
X0070826Y0020752D01*
X0070708Y0020829D01*
X0070588Y0020902D01*
X0070467Y0020971D01*
X0070343Y0021037D01*
X0070217Y0021100D01*
X0070090Y0021159D01*
X0069961Y0021214D01*
X0069831Y0021266D01*
X0069699Y0021314D01*
X0069566Y0021359D01*
X0069432Y0021400D01*
X0069297Y0021437D01*
X0069161Y0021470D01*
X0069023Y0021499D01*
X0068886Y0021524D01*
X0068747Y0021546D01*
X0068608Y0021564D01*
X0068468Y0021577D01*
X0068328Y0021587D01*
X0068188Y0021593D01*
X0068048Y0021595D01*
X0067908Y0021593D01*
X0067768Y0021587D01*
X0067628Y0021577D01*
X0067488Y0021564D01*
X0067349Y0021546D01*
X0067210Y0021524D01*
X0067073Y0021499D01*
X0066935Y0021470D01*
X0066799Y0021437D01*
X0066664Y0021400D01*
X0066530Y0021359D01*
X0066397Y0021314D01*
X0066265Y0021266D01*
X0066135Y0021214D01*
X0066006Y0021159D01*
X0065879Y0021100D01*
X0065753Y0021037D01*
X0065629Y0020971D01*
X0065508Y0020902D01*
X0065388Y0020829D01*
X0065270Y0020752D01*
X0065155Y0020673D01*
X0065041Y0020590D01*
X0064931Y0020504D01*
X0064822Y0020415D01*
X0064716Y0020323D01*
X0064613Y0020228D01*
X0064512Y0020131D01*
X0064415Y0020030D01*
X0064320Y0019927D01*
X0064228Y0019821D01*
X0064139Y0019712D01*
X0064053Y0019602D01*
X0063970Y0019488D01*
X0063891Y0019373D01*
X0063814Y0019255D01*
X0063741Y0019135D01*
X0063672Y0019014D01*
X0063606Y0018890D01*
X0063543Y0018764D01*
X0063484Y0018637D01*
X0063429Y0018508D01*
X0063377Y0018378D01*
X0063329Y0018246D01*
X0063284Y0018113D01*
X0063243Y0017979D01*
X0063206Y0017844D01*
X0063173Y0017708D01*
X0063144Y0017570D01*
X0063119Y0017433D01*
X0063097Y0017294D01*
X0063079Y0017155D01*
X0063066Y0017015D01*
X0063056Y0016875D01*
X0063050Y0016735D01*
X0063048Y0016595D01*
X0063048Y0008721D02*
X0063046Y0008581D01*
X0063040Y0008441D01*
X0063030Y0008301D01*
X0063017Y0008161D01*
X0062999Y0008022D01*
X0062977Y0007883D01*
X0062952Y0007746D01*
X0062923Y0007608D01*
X0062890Y0007472D01*
X0062853Y0007337D01*
X0062812Y0007203D01*
X0062767Y0007070D01*
X0062719Y0006938D01*
X0062667Y0006808D01*
X0062612Y0006679D01*
X0062553Y0006552D01*
X0062490Y0006426D01*
X0062424Y0006302D01*
X0062355Y0006181D01*
X0062282Y0006061D01*
X0062205Y0005943D01*
X0062126Y0005828D01*
X0062043Y0005714D01*
X0061957Y0005604D01*
X0061868Y0005495D01*
X0061776Y0005389D01*
X0061681Y0005286D01*
X0061584Y0005185D01*
X0061483Y0005088D01*
X0061380Y0004993D01*
X0061274Y0004901D01*
X0061165Y0004812D01*
X0061055Y0004726D01*
X0060941Y0004643D01*
X0060826Y0004564D01*
X0060708Y0004487D01*
X0060588Y0004414D01*
X0060467Y0004345D01*
X0060343Y0004279D01*
X0060217Y0004216D01*
X0060090Y0004157D01*
X0059961Y0004102D01*
X0059831Y0004050D01*
X0059699Y0004002D01*
X0059566Y0003957D01*
X0059432Y0003916D01*
X0059297Y0003879D01*
X0059161Y0003846D01*
X0059023Y0003817D01*
X0058886Y0003792D01*
X0058747Y0003770D01*
X0058608Y0003752D01*
X0058468Y0003739D01*
X0058328Y0003729D01*
X0058188Y0003723D01*
X0058048Y0003721D01*
X0057908Y0003723D01*
X0057768Y0003729D01*
X0057628Y0003739D01*
X0057488Y0003752D01*
X0057349Y0003770D01*
X0057210Y0003792D01*
X0057073Y0003817D01*
X0056935Y0003846D01*
X0056799Y0003879D01*
X0056664Y0003916D01*
X0056530Y0003957D01*
X0056397Y0004002D01*
X0056265Y0004050D01*
X0056135Y0004102D01*
X0056006Y0004157D01*
X0055879Y0004216D01*
X0055753Y0004279D01*
X0055629Y0004345D01*
X0055508Y0004414D01*
X0055388Y0004487D01*
X0055270Y0004564D01*
X0055155Y0004643D01*
X0055041Y0004726D01*
X0054931Y0004812D01*
X0054822Y0004901D01*
X0054716Y0004993D01*
X0054613Y0005088D01*
X0054512Y0005185D01*
X0054415Y0005286D01*
X0054320Y0005389D01*
X0054228Y0005495D01*
X0054139Y0005604D01*
X0054053Y0005714D01*
X0053970Y0005828D01*
X0053891Y0005943D01*
X0053814Y0006061D01*
X0053741Y0006181D01*
X0053672Y0006302D01*
X0053606Y0006426D01*
X0053543Y0006552D01*
X0053484Y0006679D01*
X0053429Y0006808D01*
X0053377Y0006938D01*
X0053329Y0007070D01*
X0053284Y0007203D01*
X0053243Y0007337D01*
X0053206Y0007472D01*
X0053173Y0007608D01*
X0053144Y0007746D01*
X0053119Y0007883D01*
X0053097Y0008022D01*
X0053079Y0008161D01*
X0053066Y0008301D01*
X0053056Y0008441D01*
X0053050Y0008581D01*
X0053048Y0008721D01*
X0053048Y0016595D02*
X0053046Y0016735D01*
X0053040Y0016875D01*
X0053030Y0017015D01*
X0053017Y0017155D01*
X0052999Y0017294D01*
X0052977Y0017433D01*
X0052952Y0017570D01*
X0052923Y0017708D01*
X0052890Y0017844D01*
X0052853Y0017979D01*
X0052812Y0018113D01*
X0052767Y0018246D01*
X0052719Y0018378D01*
X0052667Y0018508D01*
X0052612Y0018637D01*
X0052553Y0018764D01*
X0052490Y0018890D01*
X0052424Y0019014D01*
X0052355Y0019135D01*
X0052282Y0019255D01*
X0052205Y0019373D01*
X0052126Y0019488D01*
X0052043Y0019602D01*
X0051957Y0019712D01*
X0051868Y0019821D01*
X0051776Y0019927D01*
X0051681Y0020030D01*
X0051584Y0020131D01*
X0051483Y0020228D01*
X0051380Y0020323D01*
X0051274Y0020415D01*
X0051165Y0020504D01*
X0051055Y0020590D01*
X0050941Y0020673D01*
X0050826Y0020752D01*
X0050708Y0020829D01*
X0050588Y0020902D01*
X0050467Y0020971D01*
X0050343Y0021037D01*
X0050217Y0021100D01*
X0050090Y0021159D01*
X0049961Y0021214D01*
X0049831Y0021266D01*
X0049699Y0021314D01*
X0049566Y0021359D01*
X0049432Y0021400D01*
X0049297Y0021437D01*
X0049161Y0021470D01*
X0049023Y0021499D01*
X0048886Y0021524D01*
X0048747Y0021546D01*
X0048608Y0021564D01*
X0048468Y0021577D01*
X0048328Y0021587D01*
X0048188Y0021593D01*
X0048048Y0021595D01*
X0047908Y0021593D01*
X0047768Y0021587D01*
X0047628Y0021577D01*
X0047488Y0021564D01*
X0047349Y0021546D01*
X0047210Y0021524D01*
X0047073Y0021499D01*
X0046935Y0021470D01*
X0046799Y0021437D01*
X0046664Y0021400D01*
X0046530Y0021359D01*
X0046397Y0021314D01*
X0046265Y0021266D01*
X0046135Y0021214D01*
X0046006Y0021159D01*
X0045879Y0021100D01*
X0045753Y0021037D01*
X0045629Y0020971D01*
X0045508Y0020902D01*
X0045388Y0020829D01*
X0045270Y0020752D01*
X0045155Y0020673D01*
X0045041Y0020590D01*
X0044931Y0020504D01*
X0044822Y0020415D01*
X0044716Y0020323D01*
X0044613Y0020228D01*
X0044512Y0020131D01*
X0044415Y0020030D01*
X0044320Y0019927D01*
X0044228Y0019821D01*
X0044139Y0019712D01*
X0044053Y0019602D01*
X0043970Y0019488D01*
X0043891Y0019373D01*
X0043814Y0019255D01*
X0043741Y0019135D01*
X0043672Y0019014D01*
X0043606Y0018890D01*
X0043543Y0018764D01*
X0043484Y0018637D01*
X0043429Y0018508D01*
X0043377Y0018378D01*
X0043329Y0018246D01*
X0043284Y0018113D01*
X0043243Y0017979D01*
X0043206Y0017844D01*
X0043173Y0017708D01*
X0043144Y0017570D01*
X0043119Y0017433D01*
X0043097Y0017294D01*
X0043079Y0017155D01*
X0043066Y0017015D01*
X0043056Y0016875D01*
X0043050Y0016735D01*
X0043048Y0016595D01*
X0041316Y0206910D02*
X0041316Y0214784D01*
X0041318Y0214924D01*
X0041324Y0215064D01*
X0041334Y0215204D01*
X0041347Y0215344D01*
X0041365Y0215483D01*
X0041387Y0215622D01*
X0041412Y0215759D01*
X0041441Y0215897D01*
X0041474Y0216033D01*
X0041511Y0216168D01*
X0041552Y0216302D01*
X0041597Y0216435D01*
X0041645Y0216567D01*
X0041697Y0216697D01*
X0041752Y0216826D01*
X0041811Y0216953D01*
X0041874Y0217079D01*
X0041940Y0217203D01*
X0042009Y0217324D01*
X0042082Y0217444D01*
X0042159Y0217562D01*
X0042238Y0217677D01*
X0042321Y0217791D01*
X0042407Y0217901D01*
X0042496Y0218010D01*
X0042588Y0218116D01*
X0042683Y0218219D01*
X0042780Y0218320D01*
X0042881Y0218417D01*
X0042984Y0218512D01*
X0043090Y0218604D01*
X0043199Y0218693D01*
X0043309Y0218779D01*
X0043423Y0218862D01*
X0043538Y0218941D01*
X0043656Y0219018D01*
X0043776Y0219091D01*
X0043897Y0219160D01*
X0044021Y0219226D01*
X0044147Y0219289D01*
X0044274Y0219348D01*
X0044403Y0219403D01*
X0044533Y0219455D01*
X0044665Y0219503D01*
X0044798Y0219548D01*
X0044932Y0219589D01*
X0045067Y0219626D01*
X0045203Y0219659D01*
X0045341Y0219688D01*
X0045478Y0219713D01*
X0045617Y0219735D01*
X0045756Y0219753D01*
X0045896Y0219766D01*
X0046036Y0219776D01*
X0046176Y0219782D01*
X0046316Y0219784D01*
X0046456Y0219782D01*
X0046596Y0219776D01*
X0046736Y0219766D01*
X0046876Y0219753D01*
X0047015Y0219735D01*
X0047154Y0219713D01*
X0047291Y0219688D01*
X0047429Y0219659D01*
X0047565Y0219626D01*
X0047700Y0219589D01*
X0047834Y0219548D01*
X0047967Y0219503D01*
X0048099Y0219455D01*
X0048229Y0219403D01*
X0048358Y0219348D01*
X0048485Y0219289D01*
X0048611Y0219226D01*
X0048735Y0219160D01*
X0048856Y0219091D01*
X0048976Y0219018D01*
X0049094Y0218941D01*
X0049209Y0218862D01*
X0049323Y0218779D01*
X0049433Y0218693D01*
X0049542Y0218604D01*
X0049648Y0218512D01*
X0049751Y0218417D01*
X0049852Y0218320D01*
X0049949Y0218219D01*
X0050044Y0218116D01*
X0050136Y0218010D01*
X0050225Y0217901D01*
X0050311Y0217791D01*
X0050394Y0217677D01*
X0050473Y0217562D01*
X0050550Y0217444D01*
X0050623Y0217324D01*
X0050692Y0217203D01*
X0050758Y0217079D01*
X0050821Y0216953D01*
X0050880Y0216826D01*
X0050935Y0216697D01*
X0050987Y0216567D01*
X0051035Y0216435D01*
X0051080Y0216302D01*
X0051121Y0216168D01*
X0051158Y0216033D01*
X0051191Y0215897D01*
X0051220Y0215759D01*
X0051245Y0215622D01*
X0051267Y0215483D01*
X0051285Y0215344D01*
X0051298Y0215204D01*
X0051308Y0215064D01*
X0051314Y0214924D01*
X0051316Y0214784D01*
X0051316Y0206910D01*
X0051314Y0206770D01*
X0051308Y0206630D01*
X0051298Y0206490D01*
X0051285Y0206350D01*
X0051267Y0206211D01*
X0051245Y0206072D01*
X0051220Y0205935D01*
X0051191Y0205797D01*
X0051158Y0205661D01*
X0051121Y0205526D01*
X0051080Y0205392D01*
X0051035Y0205259D01*
X0050987Y0205127D01*
X0050935Y0204997D01*
X0050880Y0204868D01*
X0050821Y0204741D01*
X0050758Y0204615D01*
X0050692Y0204491D01*
X0050623Y0204370D01*
X0050550Y0204250D01*
X0050473Y0204132D01*
X0050394Y0204017D01*
X0050311Y0203903D01*
X0050225Y0203793D01*
X0050136Y0203684D01*
X0050044Y0203578D01*
X0049949Y0203475D01*
X0049852Y0203374D01*
X0049751Y0203277D01*
X0049648Y0203182D01*
X0049542Y0203090D01*
X0049433Y0203001D01*
X0049323Y0202915D01*
X0049209Y0202832D01*
X0049094Y0202753D01*
X0048976Y0202676D01*
X0048856Y0202603D01*
X0048735Y0202534D01*
X0048611Y0202468D01*
X0048485Y0202405D01*
X0048358Y0202346D01*
X0048229Y0202291D01*
X0048099Y0202239D01*
X0047967Y0202191D01*
X0047834Y0202146D01*
X0047700Y0202105D01*
X0047565Y0202068D01*
X0047429Y0202035D01*
X0047291Y0202006D01*
X0047154Y0201981D01*
X0047015Y0201959D01*
X0046876Y0201941D01*
X0046736Y0201928D01*
X0046596Y0201918D01*
X0046456Y0201912D01*
X0046316Y0201910D01*
X0046176Y0201912D01*
X0046036Y0201918D01*
X0045896Y0201928D01*
X0045756Y0201941D01*
X0045617Y0201959D01*
X0045478Y0201981D01*
X0045341Y0202006D01*
X0045203Y0202035D01*
X0045067Y0202068D01*
X0044932Y0202105D01*
X0044798Y0202146D01*
X0044665Y0202191D01*
X0044533Y0202239D01*
X0044403Y0202291D01*
X0044274Y0202346D01*
X0044147Y0202405D01*
X0044021Y0202468D01*
X0043897Y0202534D01*
X0043776Y0202603D01*
X0043656Y0202676D01*
X0043538Y0202753D01*
X0043423Y0202832D01*
X0043309Y0202915D01*
X0043199Y0203001D01*
X0043090Y0203090D01*
X0042984Y0203182D01*
X0042881Y0203277D01*
X0042780Y0203374D01*
X0042683Y0203475D01*
X0042588Y0203578D01*
X0042496Y0203684D01*
X0042407Y0203793D01*
X0042321Y0203903D01*
X0042238Y0204017D01*
X0042159Y0204132D01*
X0042082Y0204250D01*
X0042009Y0204370D01*
X0041940Y0204491D01*
X0041874Y0204615D01*
X0041811Y0204741D01*
X0041752Y0204868D01*
X0041697Y0204997D01*
X0041645Y0205127D01*
X0041597Y0205259D01*
X0041552Y0205392D01*
X0041511Y0205526D01*
X0041474Y0205661D01*
X0041441Y0205797D01*
X0041412Y0205935D01*
X0041387Y0206072D01*
X0041365Y0206211D01*
X0041347Y0206350D01*
X0041334Y0206490D01*
X0041324Y0206630D01*
X0041318Y0206770D01*
X0041316Y0206910D01*
X0041314Y0206770D01*
X0041308Y0206630D01*
X0041298Y0206490D01*
X0041285Y0206350D01*
X0041267Y0206211D01*
X0041245Y0206072D01*
X0041220Y0205935D01*
X0041191Y0205797D01*
X0041158Y0205661D01*
X0041121Y0205526D01*
X0041080Y0205392D01*
X0041035Y0205259D01*
X0040987Y0205127D01*
X0040935Y0204997D01*
X0040880Y0204868D01*
X0040821Y0204741D01*
X0040758Y0204615D01*
X0040692Y0204491D01*
X0040623Y0204370D01*
X0040550Y0204250D01*
X0040473Y0204132D01*
X0040394Y0204017D01*
X0040311Y0203903D01*
X0040225Y0203793D01*
X0040136Y0203684D01*
X0040044Y0203578D01*
X0039949Y0203475D01*
X0039852Y0203374D01*
X0039751Y0203277D01*
X0039648Y0203182D01*
X0039542Y0203090D01*
X0039433Y0203001D01*
X0039323Y0202915D01*
X0039209Y0202832D01*
X0039094Y0202753D01*
X0038976Y0202676D01*
X0038856Y0202603D01*
X0038735Y0202534D01*
X0038611Y0202468D01*
X0038485Y0202405D01*
X0038358Y0202346D01*
X0038229Y0202291D01*
X0038099Y0202239D01*
X0037967Y0202191D01*
X0037834Y0202146D01*
X0037700Y0202105D01*
X0037565Y0202068D01*
X0037429Y0202035D01*
X0037291Y0202006D01*
X0037154Y0201981D01*
X0037015Y0201959D01*
X0036876Y0201941D01*
X0036736Y0201928D01*
X0036596Y0201918D01*
X0036456Y0201912D01*
X0036316Y0201910D01*
X0036176Y0201912D01*
X0036036Y0201918D01*
X0035896Y0201928D01*
X0035756Y0201941D01*
X0035617Y0201959D01*
X0035478Y0201981D01*
X0035341Y0202006D01*
X0035203Y0202035D01*
X0035067Y0202068D01*
X0034932Y0202105D01*
X0034798Y0202146D01*
X0034665Y0202191D01*
X0034533Y0202239D01*
X0034403Y0202291D01*
X0034274Y0202346D01*
X0034147Y0202405D01*
X0034021Y0202468D01*
X0033897Y0202534D01*
X0033776Y0202603D01*
X0033656Y0202676D01*
X0033538Y0202753D01*
X0033423Y0202832D01*
X0033309Y0202915D01*
X0033199Y0203001D01*
X0033090Y0203090D01*
X0032984Y0203182D01*
X0032881Y0203277D01*
X0032780Y0203374D01*
X0032683Y0203475D01*
X0032588Y0203578D01*
X0032496Y0203684D01*
X0032407Y0203793D01*
X0032321Y0203903D01*
X0032238Y0204017D01*
X0032159Y0204132D01*
X0032082Y0204250D01*
X0032009Y0204370D01*
X0031940Y0204491D01*
X0031874Y0204615D01*
X0031811Y0204741D01*
X0031752Y0204868D01*
X0031697Y0204997D01*
X0031645Y0205127D01*
X0031597Y0205259D01*
X0031552Y0205392D01*
X0031511Y0205526D01*
X0031474Y0205661D01*
X0031441Y0205797D01*
X0031412Y0205935D01*
X0031387Y0206072D01*
X0031365Y0206211D01*
X0031347Y0206350D01*
X0031334Y0206490D01*
X0031324Y0206630D01*
X0031318Y0206770D01*
X0031316Y0206910D01*
X0031316Y0214784D01*
X0031318Y0214924D01*
X0031324Y0215064D01*
X0031334Y0215204D01*
X0031347Y0215344D01*
X0031365Y0215483D01*
X0031387Y0215622D01*
X0031412Y0215759D01*
X0031441Y0215897D01*
X0031474Y0216033D01*
X0031511Y0216168D01*
X0031552Y0216302D01*
X0031597Y0216435D01*
X0031645Y0216567D01*
X0031697Y0216697D01*
X0031752Y0216826D01*
X0031811Y0216953D01*
X0031874Y0217079D01*
X0031940Y0217203D01*
X0032009Y0217324D01*
X0032082Y0217444D01*
X0032159Y0217562D01*
X0032238Y0217677D01*
X0032321Y0217791D01*
X0032407Y0217901D01*
X0032496Y0218010D01*
X0032588Y0218116D01*
X0032683Y0218219D01*
X0032780Y0218320D01*
X0032881Y0218417D01*
X0032984Y0218512D01*
X0033090Y0218604D01*
X0033199Y0218693D01*
X0033309Y0218779D01*
X0033423Y0218862D01*
X0033538Y0218941D01*
X0033656Y0219018D01*
X0033776Y0219091D01*
X0033897Y0219160D01*
X0034021Y0219226D01*
X0034147Y0219289D01*
X0034274Y0219348D01*
X0034403Y0219403D01*
X0034533Y0219455D01*
X0034665Y0219503D01*
X0034798Y0219548D01*
X0034932Y0219589D01*
X0035067Y0219626D01*
X0035203Y0219659D01*
X0035341Y0219688D01*
X0035478Y0219713D01*
X0035617Y0219735D01*
X0035756Y0219753D01*
X0035896Y0219766D01*
X0036036Y0219776D01*
X0036176Y0219782D01*
X0036316Y0219784D01*
X0036456Y0219782D01*
X0036596Y0219776D01*
X0036736Y0219766D01*
X0036876Y0219753D01*
X0037015Y0219735D01*
X0037154Y0219713D01*
X0037291Y0219688D01*
X0037429Y0219659D01*
X0037565Y0219626D01*
X0037700Y0219589D01*
X0037834Y0219548D01*
X0037967Y0219503D01*
X0038099Y0219455D01*
X0038229Y0219403D01*
X0038358Y0219348D01*
X0038485Y0219289D01*
X0038611Y0219226D01*
X0038735Y0219160D01*
X0038856Y0219091D01*
X0038976Y0219018D01*
X0039094Y0218941D01*
X0039209Y0218862D01*
X0039323Y0218779D01*
X0039433Y0218693D01*
X0039542Y0218604D01*
X0039648Y0218512D01*
X0039751Y0218417D01*
X0039852Y0218320D01*
X0039949Y0218219D01*
X0040044Y0218116D01*
X0040136Y0218010D01*
X0040225Y0217901D01*
X0040311Y0217791D01*
X0040394Y0217677D01*
X0040473Y0217562D01*
X0040550Y0217444D01*
X0040623Y0217324D01*
X0040692Y0217203D01*
X0040758Y0217079D01*
X0040821Y0216953D01*
X0040880Y0216826D01*
X0040935Y0216697D01*
X0040987Y0216567D01*
X0041035Y0216435D01*
X0041080Y0216302D01*
X0041121Y0216168D01*
X0041158Y0216033D01*
X0041191Y0215897D01*
X0041220Y0215759D01*
X0041245Y0215622D01*
X0041267Y0215483D01*
X0041285Y0215344D01*
X0041298Y0215204D01*
X0041308Y0215064D01*
X0041314Y0214924D01*
X0041316Y0214784D01*
D141*
X0043990Y0206913D02*
X0047726Y0206913D01*
X0045858Y0208781D02*
X0045858Y0205045D01*
X0037726Y0206913D02*
X0033990Y0206913D01*
X0057197Y0018466D02*
X0057197Y0014730D01*
X0059065Y0016598D02*
X0055328Y0016598D01*
X0065328Y0016598D02*
X0069065Y0016598D01*
D142*
X0045258Y0149830D03*
X0039458Y0149830D03*
D143*
X0039308Y0157848D02*
X0041110Y0157848D01*
X0041484Y0158316D02*
X0040583Y0159217D01*
X0040209Y0159199D02*
X0039308Y0159199D01*
X0039682Y0159217D02*
X0041033Y0159217D01*
X0041484Y0159667D01*
X0041484Y0160568D01*
X0041033Y0161019D01*
X0039682Y0161019D01*
X0039682Y0158316D01*
X0039308Y0157848D02*
X0039308Y0160550D01*
X0041110Y0160550D01*
X0042255Y0160550D02*
X0043606Y0160550D01*
X0044056Y0160100D01*
X0044056Y0158298D01*
X0043606Y0157848D01*
X0042255Y0157848D01*
X0042255Y0160550D01*
X0042629Y0160568D02*
X0043079Y0161019D01*
X0043980Y0161019D01*
X0044430Y0160568D01*
X0044430Y0160118D01*
X0042629Y0158316D01*
X0044430Y0158316D01*
X0045201Y0157848D02*
X0047003Y0157848D01*
X0046102Y0157848D02*
X0046102Y0160550D01*
X0045201Y0159649D01*
X0038163Y0157848D02*
X0036362Y0157848D01*
X0036362Y0160550D01*
X0033579Y0174709D02*
X0033579Y0177809D01*
X0032179Y0176309D02*
X0035079Y0176309D01*
X0034726Y0219747D02*
X0035043Y0220064D01*
X0035043Y0220381D01*
X0034726Y0220698D01*
X0033775Y0220698D01*
X0033775Y0220064D01*
X0034092Y0219747D01*
X0034726Y0219747D01*
X0033775Y0220698D02*
X0034409Y0221332D01*
X0035043Y0221649D01*
X0032833Y0221649D02*
X0032199Y0221649D01*
X0032516Y0221649D02*
X0032516Y0220064D01*
X0032199Y0219747D01*
X0031883Y0219747D01*
X0031566Y0220064D01*
X0069433Y0004312D02*
X0070067Y0004312D01*
X0069750Y0004312D02*
X0069750Y0002727D01*
X0069433Y0002410D01*
X0069116Y0002410D01*
X0068799Y0002727D01*
X0071009Y0002727D02*
X0071326Y0002410D01*
X0071960Y0002410D01*
X0072277Y0002727D01*
X0072277Y0003361D01*
X0071960Y0003678D01*
X0071643Y0003678D01*
X0071009Y0003361D01*
X0071009Y0004312D01*
X0072277Y0004312D01*
D144*
X0042350Y0175778D02*
X0042350Y0175238D01*
X0042349Y0175239D02*
X0042199Y0175236D01*
X0042049Y0175229D01*
X0041899Y0175219D01*
X0041750Y0175204D01*
X0041601Y0175186D01*
X0041453Y0175164D01*
X0041305Y0175137D01*
X0041158Y0175107D01*
X0041011Y0175073D01*
X0040866Y0175036D01*
X0040722Y0174994D01*
X0040579Y0174949D01*
X0040437Y0174900D01*
X0040296Y0174847D01*
X0040157Y0174791D01*
X0040020Y0174731D01*
X0039884Y0174667D01*
X0039750Y0174600D01*
X0039617Y0174529D01*
X0039487Y0174455D01*
X0039358Y0174378D01*
X0039232Y0174297D01*
X0039107Y0174213D01*
X0038985Y0174126D01*
X0038865Y0174035D01*
X0038748Y0173942D01*
X0038633Y0173845D01*
X0038521Y0173745D01*
X0038411Y0173643D01*
X0038304Y0173538D01*
X0038200Y0173430D01*
X0038099Y0173319D01*
X0038001Y0173205D01*
X0037905Y0173089D01*
X0037813Y0172971D01*
X0037382Y0173294D01*
X0037381Y0173295D01*
X0037476Y0173418D01*
X0037575Y0173538D01*
X0037676Y0173656D01*
X0037781Y0173771D01*
X0037888Y0173884D01*
X0037998Y0173994D01*
X0038110Y0174101D01*
X0038225Y0174206D01*
X0038343Y0174307D01*
X0038463Y0174406D01*
X0038586Y0174502D01*
X0038711Y0174594D01*
X0038838Y0174684D01*
X0038968Y0174770D01*
X0039099Y0174853D01*
X0039233Y0174933D01*
X0039368Y0175009D01*
X0039506Y0175082D01*
X0039645Y0175151D01*
X0039786Y0175217D01*
X0039928Y0175280D01*
X0040072Y0175339D01*
X0040217Y0175394D01*
X0040364Y0175446D01*
X0040512Y0175494D01*
X0040661Y0175539D01*
X0040811Y0175580D01*
X0040962Y0175617D01*
X0041114Y0175650D01*
X0041266Y0175679D01*
X0041420Y0175705D01*
X0041574Y0175727D01*
X0041728Y0175745D01*
X0041883Y0175759D01*
X0042038Y0175770D01*
X0042194Y0175776D01*
X0042349Y0175779D01*
X0042349Y0175723D01*
X0042195Y0175720D01*
X0042041Y0175714D01*
X0041887Y0175704D01*
X0041734Y0175689D01*
X0041581Y0175672D01*
X0041428Y0175650D01*
X0041276Y0175624D01*
X0041125Y0175595D01*
X0040974Y0175562D01*
X0040825Y0175525D01*
X0040676Y0175485D01*
X0040528Y0175441D01*
X0040382Y0175393D01*
X0040236Y0175342D01*
X0040092Y0175287D01*
X0039950Y0175228D01*
X0039809Y0175166D01*
X0039669Y0175101D01*
X0039531Y0175032D01*
X0039395Y0174960D01*
X0039261Y0174884D01*
X0039129Y0174805D01*
X0038998Y0174723D01*
X0038870Y0174637D01*
X0038744Y0174549D01*
X0038620Y0174457D01*
X0038499Y0174362D01*
X0038379Y0174265D01*
X0038263Y0174164D01*
X0038148Y0174061D01*
X0038037Y0173954D01*
X0037928Y0173845D01*
X0037822Y0173733D01*
X0037718Y0173619D01*
X0037618Y0173502D01*
X0037520Y0173383D01*
X0037426Y0173261D01*
X0037471Y0173228D01*
X0037564Y0173348D01*
X0037661Y0173467D01*
X0037761Y0173582D01*
X0037863Y0173696D01*
X0037968Y0173806D01*
X0038076Y0173914D01*
X0038187Y0174020D01*
X0038300Y0174122D01*
X0038416Y0174222D01*
X0038534Y0174319D01*
X0038654Y0174413D01*
X0038777Y0174503D01*
X0038902Y0174591D01*
X0039029Y0174676D01*
X0039158Y0174757D01*
X0039289Y0174836D01*
X0039422Y0174911D01*
X0039557Y0174982D01*
X0039694Y0175051D01*
X0039832Y0175115D01*
X0039972Y0175177D01*
X0040113Y0175235D01*
X0040256Y0175289D01*
X0040400Y0175340D01*
X0040545Y0175387D01*
X0040691Y0175431D01*
X0040838Y0175471D01*
X0040987Y0175508D01*
X0041136Y0175540D01*
X0041286Y0175569D01*
X0041436Y0175594D01*
X0041588Y0175616D01*
X0041739Y0175634D01*
X0041891Y0175648D01*
X0042044Y0175658D01*
X0042196Y0175664D01*
X0042349Y0175667D01*
X0042349Y0175611D01*
X0042194Y0175608D01*
X0042038Y0175601D01*
X0041883Y0175591D01*
X0041728Y0175576D01*
X0041574Y0175558D01*
X0041420Y0175535D01*
X0041267Y0175509D01*
X0041114Y0175478D01*
X0040962Y0175444D01*
X0040812Y0175406D01*
X0040662Y0175364D01*
X0040513Y0175319D01*
X0040366Y0175269D01*
X0040220Y0175216D01*
X0040075Y0175159D01*
X0039932Y0175099D01*
X0039790Y0175035D01*
X0039650Y0174967D01*
X0039512Y0174895D01*
X0039376Y0174821D01*
X0039241Y0174742D01*
X0039109Y0174661D01*
X0038979Y0174576D01*
X0038851Y0174487D01*
X0038725Y0174396D01*
X0038602Y0174301D01*
X0038481Y0174203D01*
X0038362Y0174103D01*
X0038247Y0173999D01*
X0038134Y0173892D01*
X0038023Y0173782D01*
X0037916Y0173670D01*
X0037811Y0173555D01*
X0037710Y0173437D01*
X0037611Y0173317D01*
X0037515Y0173194D01*
X0037560Y0173161D01*
X0037655Y0173282D01*
X0037753Y0173401D01*
X0037853Y0173518D01*
X0037957Y0173632D01*
X0038063Y0173743D01*
X0038173Y0173852D01*
X0038285Y0173958D01*
X0038399Y0174060D01*
X0038517Y0174160D01*
X0038636Y0174257D01*
X0038759Y0174351D01*
X0038883Y0174442D01*
X0039010Y0174529D01*
X0039139Y0174614D01*
X0039270Y0174694D01*
X0039403Y0174772D01*
X0039538Y0174846D01*
X0039675Y0174917D01*
X0039814Y0174984D01*
X0039954Y0175047D01*
X0040096Y0175107D01*
X0040239Y0175164D01*
X0040384Y0175216D01*
X0040530Y0175265D01*
X0040678Y0175311D01*
X0040826Y0175352D01*
X0040975Y0175390D01*
X0041126Y0175424D01*
X0041277Y0175454D01*
X0041429Y0175480D01*
X0041581Y0175502D01*
X0041734Y0175520D01*
X0041887Y0175535D01*
X0042041Y0175546D01*
X0042195Y0175552D01*
X0042349Y0175555D01*
X0042349Y0175499D01*
X0042196Y0175496D01*
X0042044Y0175490D01*
X0041892Y0175479D01*
X0041740Y0175465D01*
X0041588Y0175447D01*
X0041437Y0175424D01*
X0041287Y0175399D01*
X0041137Y0175369D01*
X0040988Y0175335D01*
X0040840Y0175298D01*
X0040693Y0175257D01*
X0040547Y0175212D01*
X0040403Y0175164D01*
X0040259Y0175111D01*
X0040117Y0175056D01*
X0039977Y0174996D01*
X0039838Y0174933D01*
X0039700Y0174867D01*
X0039565Y0174797D01*
X0039431Y0174723D01*
X0039299Y0174646D01*
X0039169Y0174566D01*
X0039041Y0174483D01*
X0038916Y0174396D01*
X0038792Y0174306D01*
X0038671Y0174213D01*
X0038552Y0174117D01*
X0038436Y0174018D01*
X0038323Y0173917D01*
X0038212Y0173812D01*
X0038103Y0173704D01*
X0037998Y0173594D01*
X0037895Y0173481D01*
X0037796Y0173365D01*
X0037699Y0173247D01*
X0037605Y0173127D01*
X0037650Y0173093D01*
X0037743Y0173213D01*
X0037839Y0173330D01*
X0037937Y0173444D01*
X0038039Y0173556D01*
X0038144Y0173665D01*
X0038251Y0173772D01*
X0038361Y0173875D01*
X0038473Y0173976D01*
X0038588Y0174074D01*
X0038706Y0174170D01*
X0038826Y0174262D01*
X0038948Y0174351D01*
X0039072Y0174436D01*
X0039199Y0174519D01*
X0039328Y0174598D01*
X0039458Y0174674D01*
X0039591Y0174747D01*
X0039725Y0174817D01*
X0039861Y0174882D01*
X0039999Y0174945D01*
X0040138Y0175004D01*
X0040279Y0175059D01*
X0040421Y0175111D01*
X0040564Y0175159D01*
X0040709Y0175203D01*
X0040854Y0175244D01*
X0041001Y0175281D01*
X0041149Y0175314D01*
X0041297Y0175343D01*
X0041446Y0175369D01*
X0041595Y0175391D01*
X0041745Y0175409D01*
X0041896Y0175423D01*
X0042047Y0175434D01*
X0042198Y0175440D01*
X0042349Y0175443D01*
X0042349Y0175387D01*
X0042199Y0175384D01*
X0042050Y0175378D01*
X0041900Y0175367D01*
X0041751Y0175353D01*
X0041603Y0175335D01*
X0041454Y0175314D01*
X0041307Y0175288D01*
X0041160Y0175259D01*
X0041014Y0175226D01*
X0040869Y0175190D01*
X0040725Y0175149D01*
X0040581Y0175105D01*
X0040439Y0175058D01*
X0040299Y0175007D01*
X0040159Y0174952D01*
X0040021Y0174893D01*
X0039885Y0174832D01*
X0039750Y0174766D01*
X0039617Y0174698D01*
X0039486Y0174626D01*
X0039357Y0174550D01*
X0039229Y0174472D01*
X0039104Y0174390D01*
X0038980Y0174305D01*
X0038859Y0174217D01*
X0038741Y0174126D01*
X0038624Y0174031D01*
X0038510Y0173934D01*
X0038399Y0173834D01*
X0038290Y0173732D01*
X0038184Y0173626D01*
X0038080Y0173518D01*
X0037979Y0173407D01*
X0037882Y0173294D01*
X0037787Y0173178D01*
X0037695Y0173060D01*
X0037739Y0173026D01*
X0037831Y0173143D01*
X0037925Y0173258D01*
X0038022Y0173370D01*
X0038121Y0173480D01*
X0038224Y0173587D01*
X0038329Y0173691D01*
X0038437Y0173793D01*
X0038547Y0173892D01*
X0038660Y0173988D01*
X0038775Y0174082D01*
X0038893Y0174172D01*
X0039013Y0174259D01*
X0039135Y0174343D01*
X0039259Y0174425D01*
X0039385Y0174502D01*
X0039514Y0174577D01*
X0039644Y0174648D01*
X0039775Y0174716D01*
X0039909Y0174781D01*
X0040044Y0174842D01*
X0040180Y0174900D01*
X0040318Y0174954D01*
X0040458Y0175005D01*
X0040598Y0175052D01*
X0040740Y0175096D01*
X0040883Y0175136D01*
X0041027Y0175172D01*
X0041171Y0175204D01*
X0041317Y0175233D01*
X0041463Y0175258D01*
X0041610Y0175280D01*
X0041757Y0175298D01*
X0041905Y0175312D01*
X0042053Y0175322D01*
X0042201Y0175328D01*
X0042349Y0175331D01*
X0042349Y0175275D01*
X0042198Y0175272D01*
X0042047Y0175265D01*
X0041896Y0175255D01*
X0041746Y0175240D01*
X0041596Y0175222D01*
X0041447Y0175199D01*
X0041298Y0175173D01*
X0041150Y0175143D01*
X0041003Y0175108D01*
X0040857Y0175070D01*
X0040712Y0175029D01*
X0040568Y0174983D01*
X0040425Y0174934D01*
X0040283Y0174881D01*
X0040143Y0174824D01*
X0040005Y0174764D01*
X0039868Y0174700D01*
X0039733Y0174632D01*
X0039600Y0174561D01*
X0039468Y0174486D01*
X0039339Y0174409D01*
X0039212Y0174327D01*
X0039087Y0174243D01*
X0038964Y0174155D01*
X0038843Y0174064D01*
X0038725Y0173969D01*
X0038610Y0173872D01*
X0038497Y0173772D01*
X0038386Y0173669D01*
X0038279Y0173563D01*
X0038174Y0173454D01*
X0038072Y0173343D01*
X0037973Y0173228D01*
X0037877Y0173112D01*
X0037784Y0172993D01*
X0047462Y0173177D02*
X0047023Y0172863D01*
X0047023Y0172864D02*
X0046934Y0172984D01*
X0046842Y0173102D01*
X0046746Y0173217D01*
X0046648Y0173330D01*
X0046547Y0173440D01*
X0046443Y0173548D01*
X0046336Y0173652D01*
X0046226Y0173754D01*
X0046114Y0173853D01*
X0046000Y0173949D01*
X0045882Y0174042D01*
X0045763Y0174132D01*
X0045641Y0174219D01*
X0045517Y0174303D01*
X0045391Y0174383D01*
X0045262Y0174460D01*
X0045132Y0174534D01*
X0045000Y0174604D01*
X0044866Y0174671D01*
X0044730Y0174734D01*
X0044593Y0174793D01*
X0044455Y0174850D01*
X0044314Y0174902D01*
X0044173Y0174951D01*
X0044030Y0174996D01*
X0043886Y0175037D01*
X0043742Y0175074D01*
X0043596Y0175108D01*
X0043449Y0175138D01*
X0043302Y0175164D01*
X0043154Y0175186D01*
X0043005Y0175205D01*
X0042856Y0175219D01*
X0042707Y0175230D01*
X0042558Y0175236D01*
X0042408Y0175239D01*
X0042408Y0175778D01*
X0042408Y0175779D01*
X0042563Y0175776D01*
X0042718Y0175770D01*
X0042873Y0175759D01*
X0043028Y0175745D01*
X0043182Y0175727D01*
X0043336Y0175705D01*
X0043489Y0175680D01*
X0043641Y0175650D01*
X0043793Y0175617D01*
X0043944Y0175580D01*
X0044094Y0175540D01*
X0044243Y0175495D01*
X0044390Y0175447D01*
X0044537Y0175396D01*
X0044682Y0175340D01*
X0044825Y0175282D01*
X0044968Y0175219D01*
X0045108Y0175153D01*
X0045247Y0175084D01*
X0045384Y0175011D01*
X0045520Y0174935D01*
X0045653Y0174856D01*
X0045784Y0174773D01*
X0045914Y0174687D01*
X0046041Y0174598D01*
X0046166Y0174506D01*
X0046288Y0174410D01*
X0046408Y0174312D01*
X0046526Y0174211D01*
X0046641Y0174107D01*
X0046754Y0174000D01*
X0046864Y0173890D01*
X0046971Y0173778D01*
X0047075Y0173663D01*
X0047176Y0173545D01*
X0047275Y0173425D01*
X0047370Y0173302D01*
X0047463Y0173178D01*
X0047417Y0173145D01*
X0047325Y0173269D01*
X0047231Y0173390D01*
X0047133Y0173509D01*
X0047033Y0173626D01*
X0046929Y0173740D01*
X0046823Y0173851D01*
X0046715Y0173960D01*
X0046603Y0174066D01*
X0046489Y0174169D01*
X0046372Y0174269D01*
X0046253Y0174367D01*
X0046132Y0174461D01*
X0046008Y0174553D01*
X0045882Y0174641D01*
X0045754Y0174726D01*
X0045624Y0174808D01*
X0045492Y0174887D01*
X0045357Y0174962D01*
X0045221Y0175034D01*
X0045084Y0175103D01*
X0044945Y0175168D01*
X0044804Y0175230D01*
X0044661Y0175288D01*
X0044517Y0175343D01*
X0044372Y0175394D01*
X0044226Y0175442D01*
X0044079Y0175486D01*
X0043930Y0175526D01*
X0043781Y0175563D01*
X0043630Y0175595D01*
X0043479Y0175625D01*
X0043328Y0175650D01*
X0043175Y0175672D01*
X0043022Y0175689D01*
X0042869Y0175704D01*
X0042716Y0175714D01*
X0042562Y0175720D01*
X0042408Y0175723D01*
X0042408Y0175667D01*
X0042565Y0175664D01*
X0042721Y0175657D01*
X0042877Y0175647D01*
X0043033Y0175632D01*
X0043189Y0175613D01*
X0043344Y0175591D01*
X0043498Y0175564D01*
X0043652Y0175534D01*
X0043804Y0175500D01*
X0043956Y0175461D01*
X0044107Y0175419D01*
X0044257Y0175373D01*
X0044405Y0175324D01*
X0044552Y0175270D01*
X0044698Y0175213D01*
X0044842Y0175152D01*
X0044985Y0175088D01*
X0045126Y0175020D01*
X0045265Y0174948D01*
X0045403Y0174873D01*
X0045538Y0174794D01*
X0045671Y0174712D01*
X0045803Y0174627D01*
X0045932Y0174538D01*
X0046058Y0174446D01*
X0046183Y0174351D01*
X0046305Y0174253D01*
X0046424Y0174151D01*
X0046541Y0174047D01*
X0046655Y0173940D01*
X0046766Y0173830D01*
X0046874Y0173717D01*
X0046980Y0173601D01*
X0047082Y0173483D01*
X0047182Y0173362D01*
X0047278Y0173238D01*
X0047371Y0173113D01*
X0047326Y0173080D01*
X0047234Y0173205D01*
X0047138Y0173327D01*
X0047039Y0173447D01*
X0046938Y0173564D01*
X0046833Y0173679D01*
X0046726Y0173790D01*
X0046616Y0173900D01*
X0046503Y0174006D01*
X0046387Y0174109D01*
X0046269Y0174210D01*
X0046148Y0174307D01*
X0046025Y0174401D01*
X0045899Y0174493D01*
X0045771Y0174580D01*
X0045641Y0174665D01*
X0045509Y0174746D01*
X0045375Y0174824D01*
X0045239Y0174899D01*
X0045101Y0174970D01*
X0044961Y0175037D01*
X0044820Y0175101D01*
X0044677Y0175161D01*
X0044533Y0175218D01*
X0044387Y0175271D01*
X0044240Y0175320D01*
X0044091Y0175366D01*
X0043942Y0175407D01*
X0043791Y0175445D01*
X0043640Y0175479D01*
X0043488Y0175509D01*
X0043335Y0175535D01*
X0043181Y0175558D01*
X0043027Y0175576D01*
X0042873Y0175591D01*
X0042718Y0175602D01*
X0042563Y0175608D01*
X0042408Y0175611D01*
X0042408Y0175555D01*
X0042562Y0175552D01*
X0042715Y0175546D01*
X0042869Y0175535D01*
X0043022Y0175521D01*
X0043174Y0175502D01*
X0043326Y0175480D01*
X0043478Y0175454D01*
X0043629Y0175424D01*
X0043779Y0175391D01*
X0043928Y0175353D01*
X0044076Y0175312D01*
X0044223Y0175267D01*
X0044368Y0175218D01*
X0044513Y0175166D01*
X0044656Y0175109D01*
X0044798Y0175050D01*
X0044938Y0174986D01*
X0045076Y0174920D01*
X0045213Y0174849D01*
X0045348Y0174775D01*
X0045480Y0174698D01*
X0045611Y0174618D01*
X0045740Y0174534D01*
X0045867Y0174447D01*
X0045991Y0174357D01*
X0046113Y0174263D01*
X0046233Y0174167D01*
X0046350Y0174067D01*
X0046465Y0173965D01*
X0046577Y0173859D01*
X0046686Y0173751D01*
X0046792Y0173640D01*
X0046896Y0173527D01*
X0046997Y0173411D01*
X0047094Y0173292D01*
X0047189Y0173171D01*
X0047280Y0173048D01*
X0047235Y0173015D01*
X0047144Y0173137D01*
X0047050Y0173257D01*
X0046954Y0173375D01*
X0046854Y0173490D01*
X0046751Y0173602D01*
X0046646Y0173712D01*
X0046538Y0173819D01*
X0046427Y0173924D01*
X0046313Y0174025D01*
X0046197Y0174124D01*
X0046079Y0174219D01*
X0045958Y0174312D01*
X0045834Y0174401D01*
X0045709Y0174487D01*
X0045581Y0174570D01*
X0045452Y0174650D01*
X0045320Y0174727D01*
X0045186Y0174800D01*
X0045051Y0174869D01*
X0044914Y0174936D01*
X0044775Y0174998D01*
X0044635Y0175058D01*
X0044493Y0175113D01*
X0044350Y0175165D01*
X0044206Y0175213D01*
X0044060Y0175258D01*
X0043913Y0175299D01*
X0043766Y0175336D01*
X0043617Y0175369D01*
X0043468Y0175399D01*
X0043318Y0175425D01*
X0043167Y0175447D01*
X0043016Y0175465D01*
X0042864Y0175479D01*
X0042712Y0175490D01*
X0042560Y0175496D01*
X0042408Y0175499D01*
X0042408Y0175443D01*
X0042559Y0175440D01*
X0042710Y0175434D01*
X0042860Y0175423D01*
X0043010Y0175409D01*
X0043160Y0175391D01*
X0043309Y0175369D01*
X0043458Y0175344D01*
X0043606Y0175315D01*
X0043753Y0175282D01*
X0043899Y0175245D01*
X0044044Y0175204D01*
X0044189Y0175160D01*
X0044332Y0175112D01*
X0044473Y0175061D01*
X0044614Y0175006D01*
X0044753Y0174947D01*
X0044890Y0174885D01*
X0045026Y0174819D01*
X0045160Y0174750D01*
X0045293Y0174678D01*
X0045423Y0174602D01*
X0045551Y0174523D01*
X0045678Y0174441D01*
X0045802Y0174355D01*
X0045924Y0174267D01*
X0046044Y0174175D01*
X0046161Y0174081D01*
X0046276Y0173983D01*
X0046389Y0173882D01*
X0046499Y0173779D01*
X0046606Y0173673D01*
X0046710Y0173564D01*
X0046812Y0173453D01*
X0046911Y0173339D01*
X0047007Y0173222D01*
X0047099Y0173104D01*
X0047189Y0172982D01*
X0047144Y0172950D01*
X0047055Y0173070D01*
X0046963Y0173188D01*
X0046868Y0173303D01*
X0046770Y0173416D01*
X0046669Y0173526D01*
X0046566Y0173634D01*
X0046460Y0173739D01*
X0046351Y0173841D01*
X0046239Y0173941D01*
X0046125Y0174037D01*
X0046009Y0174131D01*
X0045891Y0174222D01*
X0045770Y0174310D01*
X0045647Y0174394D01*
X0045521Y0174476D01*
X0045394Y0174554D01*
X0045265Y0174629D01*
X0045134Y0174701D01*
X0045001Y0174769D01*
X0044867Y0174834D01*
X0044730Y0174896D01*
X0044593Y0174954D01*
X0044454Y0175008D01*
X0044313Y0175059D01*
X0044172Y0175107D01*
X0044029Y0175150D01*
X0043885Y0175191D01*
X0043740Y0175227D01*
X0043594Y0175260D01*
X0043448Y0175289D01*
X0043301Y0175314D01*
X0043153Y0175336D01*
X0043004Y0175354D01*
X0042856Y0175368D01*
X0042707Y0175378D01*
X0042557Y0175384D01*
X0042408Y0175387D01*
X0042408Y0175331D01*
X0042560Y0175328D01*
X0042712Y0175321D01*
X0042864Y0175311D01*
X0043015Y0175296D01*
X0043166Y0175277D01*
X0043316Y0175255D01*
X0043466Y0175228D01*
X0043615Y0175198D01*
X0043763Y0175164D01*
X0043910Y0175126D01*
X0044057Y0175084D01*
X0044202Y0175038D01*
X0044345Y0174989D01*
X0044488Y0174935D01*
X0044629Y0174878D01*
X0044768Y0174818D01*
X0044906Y0174754D01*
X0045042Y0174686D01*
X0045176Y0174614D01*
X0045309Y0174540D01*
X0045439Y0174461D01*
X0045567Y0174380D01*
X0045694Y0174295D01*
X0045817Y0174206D01*
X0045939Y0174115D01*
X0046058Y0174021D01*
X0046174Y0173923D01*
X0046288Y0173822D01*
X0046400Y0173719D01*
X0046508Y0173612D01*
X0046614Y0173503D01*
X0046717Y0173391D01*
X0046817Y0173276D01*
X0046914Y0173159D01*
X0047007Y0173039D01*
X0047098Y0172917D01*
X0047053Y0172885D01*
X0046963Y0173006D01*
X0046870Y0173124D01*
X0046774Y0173240D01*
X0046675Y0173354D01*
X0046573Y0173465D01*
X0046468Y0173573D01*
X0046361Y0173678D01*
X0046251Y0173781D01*
X0046138Y0173881D01*
X0046022Y0173977D01*
X0045905Y0174071D01*
X0045784Y0174161D01*
X0045662Y0174249D01*
X0045537Y0174333D01*
X0045410Y0174414D01*
X0045281Y0174491D01*
X0045149Y0174565D01*
X0045016Y0174636D01*
X0044882Y0174703D01*
X0044745Y0174767D01*
X0044607Y0174827D01*
X0044468Y0174883D01*
X0044326Y0174936D01*
X0044184Y0174985D01*
X0044041Y0175030D01*
X0043896Y0175072D01*
X0043750Y0175109D01*
X0043603Y0175143D01*
X0043456Y0175173D01*
X0043308Y0175200D01*
X0043159Y0175222D01*
X0043009Y0175240D01*
X0042859Y0175255D01*
X0042709Y0175265D01*
X0042559Y0175272D01*
X0042408Y0175275D01*
X0037449Y0165637D02*
X0037875Y0165968D01*
X0037874Y0165968D02*
X0037967Y0165853D01*
X0038062Y0165741D01*
X0038160Y0165631D01*
X0038261Y0165524D01*
X0038365Y0165420D01*
X0038472Y0165318D01*
X0038581Y0165219D01*
X0038692Y0165123D01*
X0038806Y0165029D01*
X0038922Y0164939D01*
X0039041Y0164852D01*
X0039162Y0164768D01*
X0039284Y0164687D01*
X0039409Y0164609D01*
X0039536Y0164534D01*
X0039665Y0164463D01*
X0039795Y0164394D01*
X0039928Y0164330D01*
X0040062Y0164269D01*
X0040197Y0164211D01*
X0040334Y0164156D01*
X0040472Y0164106D01*
X0040612Y0164058D01*
X0040752Y0164015D01*
X0040894Y0163975D01*
X0041036Y0163938D01*
X0041180Y0163906D01*
X0041324Y0163877D01*
X0041469Y0163852D01*
X0041615Y0163830D01*
X0041761Y0163812D01*
X0041908Y0163798D01*
X0042055Y0163788D01*
X0042202Y0163782D01*
X0042349Y0163779D01*
X0042349Y0163240D01*
X0042349Y0163239D01*
X0042192Y0163242D01*
X0042036Y0163248D01*
X0041879Y0163259D01*
X0041723Y0163273D01*
X0041567Y0163292D01*
X0041412Y0163314D01*
X0041258Y0163340D01*
X0041104Y0163370D01*
X0040951Y0163404D01*
X0040798Y0163442D01*
X0040647Y0163483D01*
X0040497Y0163528D01*
X0040348Y0163577D01*
X0040200Y0163630D01*
X0040054Y0163686D01*
X0039909Y0163746D01*
X0039766Y0163810D01*
X0039624Y0163877D01*
X0039484Y0163947D01*
X0039346Y0164021D01*
X0039210Y0164099D01*
X0039075Y0164180D01*
X0038943Y0164264D01*
X0038813Y0164352D01*
X0038685Y0164442D01*
X0038560Y0164536D01*
X0038437Y0164633D01*
X0038316Y0164734D01*
X0038198Y0164837D01*
X0038082Y0164943D01*
X0037970Y0165051D01*
X0037859Y0165163D01*
X0037752Y0165277D01*
X0037648Y0165394D01*
X0037546Y0165514D01*
X0037448Y0165636D01*
X0037492Y0165671D01*
X0037590Y0165550D01*
X0037690Y0165431D01*
X0037794Y0165315D01*
X0037900Y0165202D01*
X0038009Y0165091D01*
X0038121Y0164983D01*
X0038235Y0164878D01*
X0038352Y0164776D01*
X0038472Y0164677D01*
X0038594Y0164581D01*
X0038718Y0164488D01*
X0038845Y0164398D01*
X0038974Y0164311D01*
X0039105Y0164227D01*
X0039238Y0164147D01*
X0039373Y0164070D01*
X0039510Y0163997D01*
X0039649Y0163927D01*
X0039789Y0163860D01*
X0039931Y0163797D01*
X0040075Y0163738D01*
X0040220Y0163682D01*
X0040366Y0163630D01*
X0040514Y0163582D01*
X0040662Y0163537D01*
X0040812Y0163496D01*
X0040963Y0163458D01*
X0041115Y0163425D01*
X0041267Y0163395D01*
X0041421Y0163369D01*
X0041574Y0163347D01*
X0041729Y0163329D01*
X0041883Y0163315D01*
X0042038Y0163304D01*
X0042194Y0163298D01*
X0042349Y0163295D01*
X0042349Y0163351D01*
X0042195Y0163354D01*
X0042041Y0163360D01*
X0041888Y0163371D01*
X0041734Y0163385D01*
X0041581Y0163403D01*
X0041429Y0163425D01*
X0041277Y0163450D01*
X0041126Y0163480D01*
X0040976Y0163513D01*
X0040826Y0163550D01*
X0040678Y0163591D01*
X0040530Y0163635D01*
X0040384Y0163683D01*
X0040239Y0163735D01*
X0040095Y0163790D01*
X0039953Y0163849D01*
X0039812Y0163911D01*
X0039673Y0163977D01*
X0039536Y0164047D01*
X0039400Y0164119D01*
X0039266Y0164196D01*
X0039135Y0164275D01*
X0039005Y0164358D01*
X0038877Y0164444D01*
X0038752Y0164533D01*
X0038628Y0164625D01*
X0038507Y0164720D01*
X0038389Y0164819D01*
X0038273Y0164920D01*
X0038159Y0165024D01*
X0038049Y0165131D01*
X0037940Y0165240D01*
X0037835Y0165353D01*
X0037733Y0165468D01*
X0037633Y0165585D01*
X0037537Y0165705D01*
X0037581Y0165739D01*
X0037676Y0165621D01*
X0037775Y0165504D01*
X0037877Y0165390D01*
X0037981Y0165279D01*
X0038088Y0165170D01*
X0038198Y0165065D01*
X0038310Y0164961D01*
X0038425Y0164861D01*
X0038543Y0164764D01*
X0038662Y0164669D01*
X0038785Y0164578D01*
X0038909Y0164490D01*
X0039036Y0164405D01*
X0039164Y0164323D01*
X0039295Y0164244D01*
X0039427Y0164168D01*
X0039562Y0164096D01*
X0039698Y0164028D01*
X0039836Y0163962D01*
X0039975Y0163900D01*
X0040116Y0163842D01*
X0040259Y0163787D01*
X0040402Y0163736D01*
X0040547Y0163688D01*
X0040693Y0163644D01*
X0040840Y0163604D01*
X0040988Y0163568D01*
X0041137Y0163535D01*
X0041287Y0163505D01*
X0041437Y0163480D01*
X0041588Y0163458D01*
X0041740Y0163441D01*
X0041892Y0163426D01*
X0042044Y0163416D01*
X0042196Y0163410D01*
X0042349Y0163407D01*
X0042349Y0163463D01*
X0042198Y0163466D01*
X0042047Y0163472D01*
X0041896Y0163482D01*
X0041746Y0163496D01*
X0041596Y0163514D01*
X0041446Y0163535D01*
X0041297Y0163561D01*
X0041149Y0163590D01*
X0041001Y0163622D01*
X0040854Y0163658D01*
X0040709Y0163698D01*
X0040564Y0163742D01*
X0040420Y0163789D01*
X0040278Y0163840D01*
X0040137Y0163894D01*
X0039997Y0163952D01*
X0039859Y0164013D01*
X0039723Y0164078D01*
X0039588Y0164146D01*
X0039454Y0164217D01*
X0039323Y0164292D01*
X0039194Y0164370D01*
X0039066Y0164451D01*
X0038941Y0164536D01*
X0038818Y0164623D01*
X0038697Y0164714D01*
X0038578Y0164807D01*
X0038462Y0164904D01*
X0038348Y0165003D01*
X0038236Y0165105D01*
X0038128Y0165210D01*
X0038022Y0165318D01*
X0037918Y0165428D01*
X0037818Y0165541D01*
X0037720Y0165656D01*
X0037625Y0165774D01*
X0037669Y0165808D01*
X0037766Y0165688D01*
X0037866Y0165571D01*
X0037968Y0165456D01*
X0038074Y0165344D01*
X0038182Y0165235D01*
X0038294Y0165128D01*
X0038408Y0165025D01*
X0038524Y0164924D01*
X0038643Y0164827D01*
X0038765Y0164732D01*
X0038889Y0164641D01*
X0039015Y0164553D01*
X0039144Y0164468D01*
X0039274Y0164386D01*
X0039407Y0164308D01*
X0039542Y0164234D01*
X0039678Y0164162D01*
X0039817Y0164095D01*
X0039957Y0164031D01*
X0040098Y0163970D01*
X0040241Y0163913D01*
X0040386Y0163860D01*
X0040532Y0163811D01*
X0040679Y0163765D01*
X0040827Y0163724D01*
X0040976Y0163686D01*
X0041126Y0163651D01*
X0041277Y0163621D01*
X0041429Y0163595D01*
X0041581Y0163572D01*
X0041734Y0163554D01*
X0041888Y0163539D01*
X0042041Y0163529D01*
X0042195Y0163522D01*
X0042349Y0163519D01*
X0042349Y0163575D01*
X0042196Y0163578D01*
X0042044Y0163584D01*
X0041892Y0163595D01*
X0041740Y0163609D01*
X0041589Y0163628D01*
X0041438Y0163650D01*
X0041287Y0163676D01*
X0041138Y0163706D01*
X0040989Y0163740D01*
X0040841Y0163778D01*
X0040695Y0163819D01*
X0040549Y0163864D01*
X0040404Y0163913D01*
X0040261Y0163966D01*
X0040119Y0164022D01*
X0039979Y0164082D01*
X0039840Y0164145D01*
X0039703Y0164212D01*
X0039568Y0164283D01*
X0039435Y0164357D01*
X0039303Y0164434D01*
X0039174Y0164515D01*
X0039047Y0164599D01*
X0038922Y0164686D01*
X0038799Y0164777D01*
X0038678Y0164870D01*
X0038560Y0164967D01*
X0038445Y0165067D01*
X0038332Y0165169D01*
X0038222Y0165275D01*
X0038114Y0165383D01*
X0038010Y0165494D01*
X0037908Y0165608D01*
X0037809Y0165724D01*
X0037713Y0165842D01*
X0037758Y0165877D01*
X0037852Y0165759D01*
X0037950Y0165644D01*
X0038051Y0165532D01*
X0038155Y0165422D01*
X0038261Y0165314D01*
X0038370Y0165210D01*
X0038482Y0165108D01*
X0038596Y0165010D01*
X0038713Y0164914D01*
X0038833Y0164821D01*
X0038954Y0164732D01*
X0039078Y0164645D01*
X0039204Y0164562D01*
X0039332Y0164482D01*
X0039463Y0164405D01*
X0039595Y0164332D01*
X0039729Y0164262D01*
X0039864Y0164196D01*
X0040002Y0164133D01*
X0040141Y0164074D01*
X0040281Y0164018D01*
X0040423Y0163966D01*
X0040566Y0163918D01*
X0040710Y0163873D01*
X0040856Y0163832D01*
X0041002Y0163795D01*
X0041149Y0163761D01*
X0041298Y0163731D01*
X0041446Y0163705D01*
X0041596Y0163683D01*
X0041746Y0163665D01*
X0041896Y0163651D01*
X0042047Y0163640D01*
X0042198Y0163634D01*
X0042349Y0163631D01*
X0042349Y0163687D01*
X0042199Y0163690D01*
X0042050Y0163696D01*
X0041901Y0163707D01*
X0041752Y0163721D01*
X0041603Y0163739D01*
X0041455Y0163761D01*
X0041308Y0163786D01*
X0041161Y0163816D01*
X0041015Y0163849D01*
X0040870Y0163886D01*
X0040726Y0163927D01*
X0040583Y0163971D01*
X0040442Y0164019D01*
X0040301Y0164070D01*
X0040162Y0164126D01*
X0040024Y0164184D01*
X0039888Y0164247D01*
X0039754Y0164312D01*
X0039621Y0164382D01*
X0039490Y0164454D01*
X0039362Y0164530D01*
X0039235Y0164609D01*
X0039110Y0164692D01*
X0038987Y0164777D01*
X0038867Y0164866D01*
X0038748Y0164958D01*
X0038633Y0165053D01*
X0038519Y0165150D01*
X0038409Y0165251D01*
X0038301Y0165354D01*
X0038195Y0165460D01*
X0038092Y0165569D01*
X0037993Y0165681D01*
X0037896Y0165795D01*
X0037802Y0165911D01*
X0037846Y0165946D01*
X0037939Y0165830D01*
X0038035Y0165717D01*
X0038134Y0165607D01*
X0038235Y0165499D01*
X0038340Y0165394D01*
X0038447Y0165292D01*
X0038557Y0165192D01*
X0038669Y0165095D01*
X0038783Y0165001D01*
X0038900Y0164910D01*
X0039020Y0164823D01*
X0039141Y0164738D01*
X0039265Y0164656D01*
X0039391Y0164578D01*
X0039518Y0164503D01*
X0039648Y0164431D01*
X0039779Y0164362D01*
X0039912Y0164297D01*
X0040047Y0164236D01*
X0040183Y0164177D01*
X0040321Y0164123D01*
X0040460Y0164072D01*
X0040600Y0164024D01*
X0040742Y0163980D01*
X0040885Y0163940D01*
X0041028Y0163903D01*
X0041173Y0163871D01*
X0041318Y0163841D01*
X0041464Y0163816D01*
X0041610Y0163794D01*
X0041758Y0163777D01*
X0041905Y0163763D01*
X0042053Y0163752D01*
X0042201Y0163746D01*
X0042349Y0163743D01*
X0042409Y0163240D02*
X0042409Y0163780D01*
X0042409Y0163779D02*
X0042556Y0163782D01*
X0042703Y0163788D01*
X0042850Y0163798D01*
X0042997Y0163812D01*
X0043143Y0163830D01*
X0043289Y0163852D01*
X0043434Y0163877D01*
X0043578Y0163906D01*
X0043722Y0163938D01*
X0043864Y0163975D01*
X0044006Y0164015D01*
X0044146Y0164058D01*
X0044286Y0164106D01*
X0044424Y0164156D01*
X0044561Y0164211D01*
X0044696Y0164269D01*
X0044830Y0164330D01*
X0044963Y0164394D01*
X0045093Y0164463D01*
X0045222Y0164534D01*
X0045349Y0164609D01*
X0045474Y0164687D01*
X0045596Y0164768D01*
X0045717Y0164852D01*
X0045836Y0164939D01*
X0045952Y0165029D01*
X0046066Y0165123D01*
X0046177Y0165219D01*
X0046286Y0165318D01*
X0046393Y0165420D01*
X0046497Y0165524D01*
X0046598Y0165631D01*
X0046696Y0165741D01*
X0046791Y0165853D01*
X0046884Y0165968D01*
X0047309Y0165637D01*
X0047310Y0165636D01*
X0047212Y0165514D01*
X0047110Y0165394D01*
X0047006Y0165277D01*
X0046899Y0165163D01*
X0046788Y0165051D01*
X0046676Y0164943D01*
X0046560Y0164837D01*
X0046442Y0164734D01*
X0046321Y0164633D01*
X0046198Y0164536D01*
X0046073Y0164442D01*
X0045945Y0164352D01*
X0045815Y0164264D01*
X0045683Y0164180D01*
X0045548Y0164099D01*
X0045412Y0164021D01*
X0045274Y0163947D01*
X0045134Y0163877D01*
X0044992Y0163810D01*
X0044849Y0163746D01*
X0044704Y0163686D01*
X0044558Y0163630D01*
X0044410Y0163577D01*
X0044261Y0163528D01*
X0044111Y0163483D01*
X0043960Y0163442D01*
X0043807Y0163404D01*
X0043654Y0163370D01*
X0043500Y0163340D01*
X0043346Y0163314D01*
X0043191Y0163292D01*
X0043035Y0163273D01*
X0042879Y0163259D01*
X0042722Y0163248D01*
X0042566Y0163242D01*
X0042409Y0163239D01*
X0042409Y0163295D01*
X0042564Y0163298D01*
X0042720Y0163304D01*
X0042875Y0163315D01*
X0043029Y0163329D01*
X0043184Y0163347D01*
X0043337Y0163369D01*
X0043491Y0163395D01*
X0043643Y0163425D01*
X0043795Y0163458D01*
X0043946Y0163496D01*
X0044096Y0163537D01*
X0044244Y0163582D01*
X0044392Y0163630D01*
X0044538Y0163682D01*
X0044683Y0163738D01*
X0044827Y0163797D01*
X0044969Y0163860D01*
X0045109Y0163927D01*
X0045248Y0163997D01*
X0045385Y0164070D01*
X0045520Y0164147D01*
X0045653Y0164227D01*
X0045784Y0164311D01*
X0045913Y0164398D01*
X0046040Y0164488D01*
X0046164Y0164581D01*
X0046286Y0164677D01*
X0046406Y0164776D01*
X0046523Y0164878D01*
X0046637Y0164983D01*
X0046749Y0165091D01*
X0046858Y0165202D01*
X0046964Y0165315D01*
X0047068Y0165431D01*
X0047168Y0165550D01*
X0047266Y0165671D01*
X0047221Y0165705D01*
X0047125Y0165585D01*
X0047025Y0165468D01*
X0046923Y0165353D01*
X0046818Y0165240D01*
X0046709Y0165131D01*
X0046599Y0165024D01*
X0046485Y0164920D01*
X0046369Y0164819D01*
X0046251Y0164720D01*
X0046130Y0164625D01*
X0046006Y0164533D01*
X0045881Y0164444D01*
X0045753Y0164358D01*
X0045623Y0164275D01*
X0045492Y0164196D01*
X0045358Y0164119D01*
X0045222Y0164047D01*
X0045085Y0163977D01*
X0044946Y0163911D01*
X0044805Y0163849D01*
X0044663Y0163790D01*
X0044519Y0163735D01*
X0044374Y0163683D01*
X0044228Y0163635D01*
X0044080Y0163591D01*
X0043932Y0163550D01*
X0043782Y0163513D01*
X0043632Y0163480D01*
X0043481Y0163450D01*
X0043329Y0163425D01*
X0043177Y0163403D01*
X0043024Y0163385D01*
X0042870Y0163371D01*
X0042717Y0163360D01*
X0042563Y0163354D01*
X0042409Y0163351D01*
X0042409Y0163407D01*
X0042562Y0163410D01*
X0042714Y0163416D01*
X0042866Y0163426D01*
X0043018Y0163441D01*
X0043170Y0163458D01*
X0043321Y0163480D01*
X0043471Y0163505D01*
X0043621Y0163535D01*
X0043770Y0163568D01*
X0043918Y0163604D01*
X0044065Y0163644D01*
X0044211Y0163688D01*
X0044356Y0163736D01*
X0044499Y0163787D01*
X0044642Y0163842D01*
X0044783Y0163900D01*
X0044922Y0163962D01*
X0045060Y0164028D01*
X0045196Y0164096D01*
X0045331Y0164168D01*
X0045463Y0164244D01*
X0045594Y0164323D01*
X0045722Y0164405D01*
X0045849Y0164490D01*
X0045973Y0164578D01*
X0046096Y0164669D01*
X0046215Y0164764D01*
X0046333Y0164861D01*
X0046448Y0164961D01*
X0046560Y0165065D01*
X0046670Y0165170D01*
X0046777Y0165279D01*
X0046881Y0165390D01*
X0046983Y0165504D01*
X0047082Y0165621D01*
X0047177Y0165739D01*
X0047133Y0165774D01*
X0047038Y0165656D01*
X0046940Y0165541D01*
X0046840Y0165428D01*
X0046736Y0165318D01*
X0046630Y0165210D01*
X0046522Y0165105D01*
X0046410Y0165003D01*
X0046296Y0164904D01*
X0046180Y0164807D01*
X0046061Y0164714D01*
X0045940Y0164623D01*
X0045817Y0164536D01*
X0045692Y0164451D01*
X0045564Y0164370D01*
X0045435Y0164292D01*
X0045304Y0164217D01*
X0045170Y0164146D01*
X0045035Y0164078D01*
X0044899Y0164013D01*
X0044761Y0163952D01*
X0044621Y0163894D01*
X0044480Y0163840D01*
X0044338Y0163789D01*
X0044194Y0163742D01*
X0044049Y0163698D01*
X0043904Y0163658D01*
X0043757Y0163622D01*
X0043609Y0163590D01*
X0043461Y0163561D01*
X0043312Y0163535D01*
X0043162Y0163514D01*
X0043012Y0163496D01*
X0042862Y0163482D01*
X0042711Y0163472D01*
X0042560Y0163466D01*
X0042409Y0163463D01*
X0042409Y0163519D01*
X0042563Y0163522D01*
X0042717Y0163529D01*
X0042870Y0163539D01*
X0043024Y0163554D01*
X0043177Y0163572D01*
X0043329Y0163595D01*
X0043481Y0163621D01*
X0043632Y0163651D01*
X0043782Y0163686D01*
X0043931Y0163724D01*
X0044079Y0163765D01*
X0044226Y0163811D01*
X0044372Y0163860D01*
X0044517Y0163913D01*
X0044660Y0163970D01*
X0044801Y0164031D01*
X0044941Y0164095D01*
X0045080Y0164162D01*
X0045216Y0164234D01*
X0045351Y0164308D01*
X0045484Y0164386D01*
X0045614Y0164468D01*
X0045743Y0164553D01*
X0045869Y0164641D01*
X0045993Y0164732D01*
X0046115Y0164827D01*
X0046234Y0164924D01*
X0046350Y0165025D01*
X0046464Y0165128D01*
X0046576Y0165235D01*
X0046684Y0165344D01*
X0046790Y0165456D01*
X0046892Y0165571D01*
X0046992Y0165688D01*
X0047089Y0165808D01*
X0047045Y0165842D01*
X0046949Y0165724D01*
X0046850Y0165608D01*
X0046748Y0165494D01*
X0046644Y0165383D01*
X0046536Y0165275D01*
X0046426Y0165169D01*
X0046313Y0165067D01*
X0046198Y0164967D01*
X0046080Y0164870D01*
X0045959Y0164777D01*
X0045836Y0164686D01*
X0045711Y0164599D01*
X0045584Y0164515D01*
X0045455Y0164434D01*
X0045323Y0164357D01*
X0045190Y0164283D01*
X0045055Y0164212D01*
X0044918Y0164145D01*
X0044779Y0164082D01*
X0044639Y0164022D01*
X0044497Y0163966D01*
X0044354Y0163913D01*
X0044209Y0163864D01*
X0044063Y0163819D01*
X0043917Y0163778D01*
X0043769Y0163740D01*
X0043620Y0163706D01*
X0043471Y0163676D01*
X0043320Y0163650D01*
X0043169Y0163628D01*
X0043018Y0163609D01*
X0042866Y0163595D01*
X0042714Y0163584D01*
X0042562Y0163578D01*
X0042409Y0163575D01*
X0042409Y0163631D01*
X0042560Y0163634D01*
X0042711Y0163640D01*
X0042862Y0163651D01*
X0043012Y0163665D01*
X0043162Y0163683D01*
X0043312Y0163705D01*
X0043460Y0163731D01*
X0043609Y0163761D01*
X0043756Y0163795D01*
X0043902Y0163832D01*
X0044048Y0163873D01*
X0044192Y0163918D01*
X0044335Y0163966D01*
X0044477Y0164018D01*
X0044617Y0164074D01*
X0044756Y0164133D01*
X0044894Y0164196D01*
X0045029Y0164262D01*
X0045163Y0164332D01*
X0045295Y0164405D01*
X0045426Y0164482D01*
X0045554Y0164562D01*
X0045680Y0164645D01*
X0045804Y0164732D01*
X0045925Y0164821D01*
X0046045Y0164914D01*
X0046162Y0165010D01*
X0046276Y0165108D01*
X0046388Y0165210D01*
X0046497Y0165314D01*
X0046603Y0165422D01*
X0046707Y0165532D01*
X0046808Y0165644D01*
X0046906Y0165759D01*
X0047000Y0165877D01*
X0046956Y0165911D01*
X0046862Y0165795D01*
X0046765Y0165681D01*
X0046666Y0165569D01*
X0046563Y0165460D01*
X0046457Y0165354D01*
X0046349Y0165251D01*
X0046239Y0165150D01*
X0046125Y0165053D01*
X0046010Y0164958D01*
X0045891Y0164866D01*
X0045771Y0164777D01*
X0045648Y0164692D01*
X0045523Y0164609D01*
X0045396Y0164530D01*
X0045268Y0164454D01*
X0045137Y0164382D01*
X0045004Y0164312D01*
X0044870Y0164247D01*
X0044734Y0164184D01*
X0044596Y0164126D01*
X0044457Y0164070D01*
X0044316Y0164019D01*
X0044175Y0163971D01*
X0044032Y0163927D01*
X0043888Y0163886D01*
X0043743Y0163849D01*
X0043597Y0163816D01*
X0043450Y0163786D01*
X0043303Y0163761D01*
X0043155Y0163739D01*
X0043006Y0163721D01*
X0042857Y0163707D01*
X0042708Y0163696D01*
X0042559Y0163690D01*
X0042409Y0163687D01*
X0042409Y0163743D01*
X0042557Y0163746D01*
X0042705Y0163752D01*
X0042853Y0163763D01*
X0043000Y0163777D01*
X0043148Y0163794D01*
X0043294Y0163816D01*
X0043440Y0163841D01*
X0043585Y0163871D01*
X0043730Y0163903D01*
X0043873Y0163940D01*
X0044016Y0163980D01*
X0044158Y0164024D01*
X0044298Y0164072D01*
X0044437Y0164123D01*
X0044575Y0164177D01*
X0044711Y0164236D01*
X0044846Y0164297D01*
X0044979Y0164362D01*
X0045110Y0164431D01*
X0045240Y0164503D01*
X0045367Y0164578D01*
X0045493Y0164656D01*
X0045617Y0164738D01*
X0045738Y0164823D01*
X0045858Y0164910D01*
X0045975Y0165001D01*
X0046089Y0165095D01*
X0046201Y0165192D01*
X0046311Y0165292D01*
X0046418Y0165394D01*
X0046523Y0165499D01*
X0046624Y0165607D01*
X0046723Y0165717D01*
X0046819Y0165830D01*
X0046912Y0165946D01*
D145*
X0042329Y0177958D02*
X0042329Y0177058D01*
X0042329Y0177059D02*
X0042146Y0177055D01*
X0041963Y0177048D01*
X0041780Y0177035D01*
X0041597Y0177018D01*
X0041415Y0176997D01*
X0041234Y0176972D01*
X0041053Y0176942D01*
X0040873Y0176907D01*
X0040694Y0176869D01*
X0040516Y0176826D01*
X0040339Y0176778D01*
X0040164Y0176727D01*
X0039989Y0176671D01*
X0039816Y0176611D01*
X0039645Y0176546D01*
X0039475Y0176478D01*
X0039306Y0176406D01*
X0039140Y0176329D01*
X0038976Y0176248D01*
X0038813Y0176164D01*
X0038653Y0176075D01*
X0038494Y0175983D01*
X0038338Y0175887D01*
X0038185Y0175787D01*
X0038034Y0175683D01*
X0037885Y0175576D01*
X0037739Y0175465D01*
X0037596Y0175351D01*
X0037456Y0175233D01*
X0037319Y0175112D01*
X0037184Y0174988D01*
X0037053Y0174860D01*
X0036924Y0174729D01*
X0036799Y0174595D01*
X0036678Y0174459D01*
X0036559Y0174319D01*
X0036444Y0174176D01*
X0036333Y0174031D01*
X0036225Y0173883D01*
X0036121Y0173732D01*
X0036020Y0173579D01*
X0035923Y0173424D01*
X0035830Y0173266D01*
X0035741Y0173106D01*
X0034947Y0173529D01*
X0035047Y0173709D01*
X0035151Y0173886D01*
X0035259Y0174060D01*
X0035372Y0174232D01*
X0035489Y0174400D01*
X0035610Y0174566D01*
X0035734Y0174729D01*
X0035863Y0174889D01*
X0035996Y0175046D01*
X0036132Y0175199D01*
X0036272Y0175349D01*
X0036416Y0175496D01*
X0036563Y0175639D01*
X0036714Y0175779D01*
X0036868Y0175914D01*
X0037025Y0176046D01*
X0037185Y0176174D01*
X0037349Y0176299D01*
X0037515Y0176419D01*
X0037685Y0176535D01*
X0037857Y0176647D01*
X0038031Y0176755D01*
X0038209Y0176858D01*
X0038388Y0176957D01*
X0038571Y0177052D01*
X0038755Y0177142D01*
X0038941Y0177228D01*
X0039130Y0177309D01*
X0039320Y0177386D01*
X0039513Y0177458D01*
X0039707Y0177525D01*
X0039902Y0177588D01*
X0040099Y0177646D01*
X0040297Y0177699D01*
X0040497Y0177747D01*
X0040698Y0177790D01*
X0040899Y0177828D01*
X0041102Y0177862D01*
X0041305Y0177890D01*
X0041509Y0177914D01*
X0041714Y0177933D01*
X0041918Y0177946D01*
X0042123Y0177955D01*
X0042329Y0177959D01*
X0042329Y0177865D01*
X0042126Y0177861D01*
X0041923Y0177853D01*
X0041720Y0177839D01*
X0041518Y0177821D01*
X0041317Y0177797D01*
X0041116Y0177769D01*
X0040915Y0177736D01*
X0040716Y0177698D01*
X0040518Y0177655D01*
X0040320Y0177607D01*
X0040124Y0177555D01*
X0039929Y0177498D01*
X0039736Y0177436D01*
X0039544Y0177369D01*
X0039354Y0177298D01*
X0039166Y0177223D01*
X0038980Y0177142D01*
X0038795Y0177057D01*
X0038613Y0176968D01*
X0038433Y0176874D01*
X0038255Y0176776D01*
X0038080Y0176674D01*
X0037907Y0176568D01*
X0037737Y0176457D01*
X0037569Y0176342D01*
X0037405Y0176223D01*
X0037243Y0176100D01*
X0037085Y0175974D01*
X0036929Y0175843D01*
X0036777Y0175709D01*
X0036628Y0175571D01*
X0036482Y0175430D01*
X0036340Y0175285D01*
X0036202Y0175136D01*
X0036067Y0174985D01*
X0035936Y0174830D01*
X0035809Y0174672D01*
X0035685Y0174510D01*
X0035566Y0174346D01*
X0035450Y0174179D01*
X0035339Y0174010D01*
X0035231Y0173837D01*
X0035128Y0173662D01*
X0035030Y0173485D01*
X0035113Y0173441D01*
X0035210Y0173616D01*
X0035312Y0173789D01*
X0035418Y0173959D01*
X0035528Y0174127D01*
X0035642Y0174292D01*
X0035761Y0174454D01*
X0035883Y0174614D01*
X0036009Y0174770D01*
X0036138Y0174923D01*
X0036272Y0175073D01*
X0036408Y0175220D01*
X0036549Y0175363D01*
X0036693Y0175503D01*
X0036840Y0175639D01*
X0036991Y0175772D01*
X0037144Y0175901D01*
X0037301Y0176026D01*
X0037461Y0176148D01*
X0037624Y0176265D01*
X0037789Y0176379D01*
X0037957Y0176488D01*
X0038128Y0176594D01*
X0038301Y0176695D01*
X0038477Y0176792D01*
X0038655Y0176884D01*
X0038835Y0176972D01*
X0039018Y0177056D01*
X0039202Y0177136D01*
X0039388Y0177211D01*
X0039576Y0177281D01*
X0039766Y0177347D01*
X0039957Y0177408D01*
X0040149Y0177464D01*
X0040343Y0177516D01*
X0040538Y0177563D01*
X0040734Y0177606D01*
X0040932Y0177643D01*
X0041130Y0177676D01*
X0041328Y0177704D01*
X0041528Y0177727D01*
X0041727Y0177745D01*
X0041928Y0177759D01*
X0042128Y0177767D01*
X0042329Y0177771D01*
X0042329Y0177677D01*
X0042130Y0177673D01*
X0041932Y0177665D01*
X0041734Y0177652D01*
X0041537Y0177633D01*
X0041340Y0177611D01*
X0041143Y0177583D01*
X0040948Y0177551D01*
X0040753Y0177513D01*
X0040559Y0177472D01*
X0040366Y0177425D01*
X0040174Y0177374D01*
X0039984Y0177318D01*
X0039795Y0177258D01*
X0039608Y0177193D01*
X0039422Y0177123D01*
X0039238Y0177049D01*
X0039056Y0176970D01*
X0038876Y0176887D01*
X0038697Y0176800D01*
X0038521Y0176709D01*
X0038348Y0176613D01*
X0038176Y0176513D01*
X0038008Y0176409D01*
X0037841Y0176301D01*
X0037678Y0176188D01*
X0037517Y0176072D01*
X0037359Y0175952D01*
X0037204Y0175828D01*
X0037052Y0175701D01*
X0036903Y0175570D01*
X0036758Y0175435D01*
X0036615Y0175297D01*
X0036477Y0175155D01*
X0036341Y0175010D01*
X0036209Y0174862D01*
X0036081Y0174710D01*
X0035957Y0174556D01*
X0035836Y0174399D01*
X0035719Y0174238D01*
X0035606Y0174075D01*
X0035498Y0173909D01*
X0035393Y0173741D01*
X0035292Y0173570D01*
X0035196Y0173397D01*
X0035278Y0173352D01*
X0035374Y0173524D01*
X0035473Y0173693D01*
X0035577Y0173859D01*
X0035685Y0174023D01*
X0035796Y0174184D01*
X0035912Y0174343D01*
X0036031Y0174498D01*
X0036154Y0174651D01*
X0036281Y0174800D01*
X0036411Y0174947D01*
X0036545Y0175090D01*
X0036682Y0175230D01*
X0036823Y0175367D01*
X0036966Y0175500D01*
X0037113Y0175630D01*
X0037264Y0175756D01*
X0037417Y0175878D01*
X0037573Y0175997D01*
X0037732Y0176112D01*
X0037894Y0176222D01*
X0038058Y0176329D01*
X0038225Y0176432D01*
X0038394Y0176531D01*
X0038566Y0176626D01*
X0038740Y0176716D01*
X0038916Y0176803D01*
X0039094Y0176884D01*
X0039274Y0176962D01*
X0039456Y0177035D01*
X0039639Y0177104D01*
X0039825Y0177168D01*
X0040011Y0177228D01*
X0040199Y0177283D01*
X0040389Y0177334D01*
X0040579Y0177380D01*
X0040771Y0177421D01*
X0040964Y0177458D01*
X0041157Y0177490D01*
X0041351Y0177517D01*
X0041546Y0177540D01*
X0041741Y0177558D01*
X0041937Y0177571D01*
X0042133Y0177579D01*
X0042329Y0177583D01*
X0042329Y0177489D01*
X0042135Y0177485D01*
X0041941Y0177477D01*
X0041748Y0177464D01*
X0041555Y0177446D01*
X0041363Y0177424D01*
X0041171Y0177397D01*
X0040980Y0177365D01*
X0040789Y0177329D01*
X0040600Y0177288D01*
X0040412Y0177243D01*
X0040225Y0177193D01*
X0040039Y0177138D01*
X0039854Y0177079D01*
X0039671Y0177016D01*
X0039490Y0176948D01*
X0039310Y0176875D01*
X0039132Y0176799D01*
X0038956Y0176718D01*
X0038782Y0176632D01*
X0038610Y0176543D01*
X0038440Y0176449D01*
X0038273Y0176352D01*
X0038108Y0176250D01*
X0037946Y0176144D01*
X0037786Y0176035D01*
X0037629Y0175921D01*
X0037475Y0175804D01*
X0037323Y0175683D01*
X0037175Y0175559D01*
X0037030Y0175431D01*
X0036887Y0175299D01*
X0036748Y0175164D01*
X0036613Y0175026D01*
X0036481Y0174884D01*
X0036352Y0174739D01*
X0036227Y0174591D01*
X0036105Y0174440D01*
X0035987Y0174287D01*
X0035873Y0174130D01*
X0035763Y0173971D01*
X0035657Y0173809D01*
X0035554Y0173644D01*
X0035456Y0173477D01*
X0035361Y0173308D01*
X0035444Y0173264D01*
X0035538Y0173431D01*
X0035635Y0173596D01*
X0035736Y0173759D01*
X0035841Y0173919D01*
X0035950Y0174076D01*
X0036063Y0174231D01*
X0036179Y0174383D01*
X0036299Y0174532D01*
X0036423Y0174678D01*
X0036550Y0174821D01*
X0036681Y0174961D01*
X0036815Y0175097D01*
X0036952Y0175231D01*
X0037093Y0175361D01*
X0037236Y0175488D01*
X0037383Y0175611D01*
X0037533Y0175730D01*
X0037685Y0175846D01*
X0037840Y0175958D01*
X0037998Y0176066D01*
X0038159Y0176171D01*
X0038322Y0176271D01*
X0038487Y0176368D01*
X0038654Y0176460D01*
X0038824Y0176548D01*
X0038996Y0176633D01*
X0039170Y0176713D01*
X0039346Y0176788D01*
X0039524Y0176860D01*
X0039703Y0176927D01*
X0039884Y0176990D01*
X0040066Y0177048D01*
X0040250Y0177102D01*
X0040435Y0177152D01*
X0040621Y0177196D01*
X0040808Y0177237D01*
X0040996Y0177273D01*
X0041185Y0177304D01*
X0041374Y0177331D01*
X0041564Y0177353D01*
X0041755Y0177370D01*
X0041946Y0177383D01*
X0042137Y0177391D01*
X0042329Y0177395D01*
X0042329Y0177301D01*
X0042140Y0177297D01*
X0041951Y0177289D01*
X0041762Y0177277D01*
X0041574Y0177259D01*
X0041386Y0177237D01*
X0041199Y0177211D01*
X0041012Y0177180D01*
X0040826Y0177145D01*
X0040641Y0177105D01*
X0040457Y0177060D01*
X0040275Y0177011D01*
X0040093Y0176958D01*
X0039913Y0176901D01*
X0039735Y0176839D01*
X0039557Y0176772D01*
X0039382Y0176702D01*
X0039208Y0176627D01*
X0039036Y0176548D01*
X0038867Y0176464D01*
X0038699Y0176377D01*
X0038533Y0176286D01*
X0038370Y0176190D01*
X0038209Y0176091D01*
X0038050Y0175988D01*
X0037894Y0175881D01*
X0037741Y0175770D01*
X0037590Y0175656D01*
X0037443Y0175538D01*
X0037298Y0175416D01*
X0037156Y0175291D01*
X0037017Y0175163D01*
X0036882Y0175031D01*
X0036749Y0174896D01*
X0036620Y0174758D01*
X0036494Y0174616D01*
X0036372Y0174472D01*
X0036253Y0174325D01*
X0036138Y0174175D01*
X0036027Y0174022D01*
X0035919Y0173866D01*
X0035815Y0173708D01*
X0035715Y0173548D01*
X0035619Y0173385D01*
X0035527Y0173220D01*
X0035610Y0173175D01*
X0035701Y0173339D01*
X0035796Y0173500D01*
X0035895Y0173658D01*
X0035997Y0173814D01*
X0036104Y0173968D01*
X0036214Y0174119D01*
X0036328Y0174267D01*
X0036445Y0174413D01*
X0036566Y0174555D01*
X0036690Y0174695D01*
X0036817Y0174831D01*
X0036948Y0174965D01*
X0037082Y0175095D01*
X0037219Y0175222D01*
X0037359Y0175345D01*
X0037502Y0175465D01*
X0037648Y0175582D01*
X0037797Y0175695D01*
X0037949Y0175804D01*
X0038103Y0175910D01*
X0038259Y0176012D01*
X0038418Y0176110D01*
X0038580Y0176204D01*
X0038743Y0176294D01*
X0038909Y0176381D01*
X0039077Y0176463D01*
X0039246Y0176541D01*
X0039418Y0176615D01*
X0039591Y0176684D01*
X0039766Y0176750D01*
X0039943Y0176811D01*
X0040121Y0176868D01*
X0040300Y0176921D01*
X0040480Y0176969D01*
X0040662Y0177013D01*
X0040845Y0177053D01*
X0041028Y0177088D01*
X0041212Y0177118D01*
X0041397Y0177144D01*
X0041583Y0177166D01*
X0041769Y0177183D01*
X0041955Y0177195D01*
X0042142Y0177203D01*
X0042329Y0177207D01*
X0042329Y0177113D01*
X0042144Y0177109D01*
X0041960Y0177101D01*
X0041776Y0177089D01*
X0041592Y0177072D01*
X0041409Y0177051D01*
X0041226Y0177025D01*
X0041044Y0176995D01*
X0040863Y0176960D01*
X0040683Y0176921D01*
X0040503Y0176878D01*
X0040325Y0176830D01*
X0040148Y0176778D01*
X0039972Y0176722D01*
X0039798Y0176662D01*
X0039625Y0176597D01*
X0039454Y0176528D01*
X0039285Y0176455D01*
X0039117Y0176378D01*
X0038951Y0176297D01*
X0038788Y0176211D01*
X0038626Y0176122D01*
X0038467Y0176029D01*
X0038310Y0175932D01*
X0038155Y0175832D01*
X0038003Y0175727D01*
X0037853Y0175619D01*
X0037706Y0175508D01*
X0037562Y0175393D01*
X0037421Y0175274D01*
X0037282Y0175152D01*
X0037147Y0175027D01*
X0037015Y0174898D01*
X0036885Y0174766D01*
X0036759Y0174632D01*
X0036637Y0174494D01*
X0036518Y0174353D01*
X0036402Y0174209D01*
X0036289Y0174063D01*
X0036181Y0173914D01*
X0036076Y0173762D01*
X0035974Y0173608D01*
X0035877Y0173451D01*
X0035783Y0173292D01*
X0035693Y0173131D01*
X0035067Y0165274D02*
X0035848Y0165720D01*
X0035941Y0165563D01*
X0036038Y0165409D01*
X0036139Y0165257D01*
X0036244Y0165108D01*
X0036352Y0164961D01*
X0036463Y0164816D01*
X0036578Y0164675D01*
X0036697Y0164536D01*
X0036819Y0164401D01*
X0036944Y0164268D01*
X0037072Y0164138D01*
X0037203Y0164012D01*
X0037337Y0163888D01*
X0037474Y0163768D01*
X0037614Y0163651D01*
X0037757Y0163538D01*
X0037903Y0163428D01*
X0038051Y0163322D01*
X0038202Y0163219D01*
X0038355Y0163120D01*
X0038510Y0163025D01*
X0038668Y0162934D01*
X0038828Y0162846D01*
X0038990Y0162762D01*
X0039153Y0162682D01*
X0039319Y0162606D01*
X0039487Y0162535D01*
X0039656Y0162467D01*
X0039827Y0162403D01*
X0039999Y0162344D01*
X0040173Y0162288D01*
X0040348Y0162237D01*
X0040524Y0162190D01*
X0040701Y0162148D01*
X0040880Y0162109D01*
X0041059Y0162075D01*
X0041239Y0162045D01*
X0041419Y0162020D01*
X0041600Y0161999D01*
X0041782Y0161983D01*
X0041964Y0161970D01*
X0042146Y0161963D01*
X0042328Y0161959D01*
X0042329Y0161060D01*
X0042328Y0161059D01*
X0042124Y0161063D01*
X0041920Y0161071D01*
X0041716Y0161085D01*
X0041512Y0161103D01*
X0041309Y0161127D01*
X0041107Y0161155D01*
X0040905Y0161188D01*
X0040705Y0161226D01*
X0040505Y0161269D01*
X0040306Y0161317D01*
X0040109Y0161369D01*
X0039913Y0161427D01*
X0039718Y0161489D01*
X0039525Y0161555D01*
X0039333Y0161627D01*
X0039144Y0161703D01*
X0038956Y0161783D01*
X0038770Y0161868D01*
X0038586Y0161958D01*
X0038405Y0162051D01*
X0038226Y0162150D01*
X0038049Y0162252D01*
X0037875Y0162359D01*
X0037703Y0162470D01*
X0037534Y0162585D01*
X0037368Y0162704D01*
X0037205Y0162827D01*
X0037045Y0162954D01*
X0036888Y0163085D01*
X0036734Y0163220D01*
X0036584Y0163358D01*
X0036437Y0163500D01*
X0036293Y0163645D01*
X0036153Y0163794D01*
X0036017Y0163946D01*
X0035884Y0164102D01*
X0035756Y0164260D01*
X0035631Y0164422D01*
X0035510Y0164587D01*
X0035393Y0164754D01*
X0035280Y0164925D01*
X0035171Y0165098D01*
X0035066Y0165273D01*
X0035148Y0165320D01*
X0035251Y0165146D01*
X0035359Y0164975D01*
X0035471Y0164807D01*
X0035586Y0164641D01*
X0035706Y0164478D01*
X0035830Y0164319D01*
X0035957Y0164162D01*
X0036088Y0164008D01*
X0036223Y0163858D01*
X0036361Y0163710D01*
X0036503Y0163567D01*
X0036649Y0163426D01*
X0036797Y0163290D01*
X0036949Y0163157D01*
X0037105Y0163027D01*
X0037263Y0162902D01*
X0037424Y0162780D01*
X0037588Y0162662D01*
X0037755Y0162548D01*
X0037925Y0162439D01*
X0038097Y0162333D01*
X0038272Y0162232D01*
X0038449Y0162134D01*
X0038628Y0162042D01*
X0038810Y0161953D01*
X0038994Y0161869D01*
X0039179Y0161789D01*
X0039367Y0161714D01*
X0039556Y0161644D01*
X0039747Y0161578D01*
X0039940Y0161517D01*
X0040134Y0161460D01*
X0040329Y0161408D01*
X0040525Y0161361D01*
X0040723Y0161319D01*
X0040921Y0161281D01*
X0041121Y0161248D01*
X0041321Y0161220D01*
X0041522Y0161197D01*
X0041723Y0161179D01*
X0041924Y0161165D01*
X0042126Y0161157D01*
X0042328Y0161153D01*
X0042328Y0161247D01*
X0042129Y0161251D01*
X0041929Y0161259D01*
X0041730Y0161272D01*
X0041531Y0161291D01*
X0041332Y0161313D01*
X0041135Y0161341D01*
X0040937Y0161374D01*
X0040741Y0161411D01*
X0040546Y0161453D01*
X0040352Y0161499D01*
X0040159Y0161551D01*
X0039967Y0161607D01*
X0039777Y0161667D01*
X0039588Y0161732D01*
X0039401Y0161802D01*
X0039215Y0161876D01*
X0039032Y0161955D01*
X0038850Y0162038D01*
X0038670Y0162126D01*
X0038493Y0162217D01*
X0038318Y0162313D01*
X0038145Y0162414D01*
X0037975Y0162518D01*
X0037807Y0162627D01*
X0037642Y0162739D01*
X0037480Y0162855D01*
X0037321Y0162976D01*
X0037164Y0163100D01*
X0037011Y0163228D01*
X0036860Y0163359D01*
X0036713Y0163495D01*
X0036570Y0163633D01*
X0036429Y0163775D01*
X0036292Y0163921D01*
X0036159Y0164070D01*
X0036029Y0164222D01*
X0035903Y0164377D01*
X0035781Y0164535D01*
X0035663Y0164696D01*
X0035549Y0164859D01*
X0035438Y0165026D01*
X0035332Y0165195D01*
X0035230Y0165366D01*
X0035311Y0165413D01*
X0035412Y0165243D01*
X0035517Y0165076D01*
X0035627Y0164912D01*
X0035740Y0164750D01*
X0035857Y0164591D01*
X0035977Y0164435D01*
X0036102Y0164281D01*
X0036230Y0164131D01*
X0036362Y0163984D01*
X0036497Y0163840D01*
X0036636Y0163700D01*
X0036778Y0163563D01*
X0036923Y0163429D01*
X0037072Y0163299D01*
X0037224Y0163173D01*
X0037378Y0163050D01*
X0037536Y0162931D01*
X0037696Y0162816D01*
X0037859Y0162705D01*
X0038025Y0162598D01*
X0038193Y0162494D01*
X0038364Y0162395D01*
X0038537Y0162300D01*
X0038713Y0162210D01*
X0038890Y0162123D01*
X0039070Y0162041D01*
X0039251Y0161963D01*
X0039434Y0161890D01*
X0039619Y0161821D01*
X0039806Y0161757D01*
X0039994Y0161697D01*
X0040184Y0161641D01*
X0040374Y0161591D01*
X0040566Y0161544D01*
X0040759Y0161503D01*
X0040953Y0161466D01*
X0041148Y0161434D01*
X0041344Y0161407D01*
X0041540Y0161384D01*
X0041737Y0161366D01*
X0041934Y0161353D01*
X0042131Y0161345D01*
X0042328Y0161341D01*
X0042328Y0161435D01*
X0042133Y0161439D01*
X0041938Y0161447D01*
X0041743Y0161460D01*
X0041549Y0161478D01*
X0041355Y0161500D01*
X0041162Y0161527D01*
X0040969Y0161559D01*
X0040778Y0161595D01*
X0040587Y0161636D01*
X0040397Y0161682D01*
X0040209Y0161732D01*
X0040021Y0161787D01*
X0039835Y0161846D01*
X0039651Y0161909D01*
X0039468Y0161978D01*
X0039287Y0162050D01*
X0039108Y0162127D01*
X0038930Y0162208D01*
X0038755Y0162294D01*
X0038581Y0162383D01*
X0038410Y0162477D01*
X0038242Y0162575D01*
X0038075Y0162677D01*
X0037911Y0162783D01*
X0037750Y0162893D01*
X0037592Y0163007D01*
X0037436Y0163124D01*
X0037283Y0163246D01*
X0037133Y0163371D01*
X0036986Y0163499D01*
X0036843Y0163631D01*
X0036702Y0163767D01*
X0036565Y0163906D01*
X0036431Y0164048D01*
X0036301Y0164193D01*
X0036174Y0164341D01*
X0036051Y0164493D01*
X0035932Y0164647D01*
X0035816Y0164804D01*
X0035705Y0164964D01*
X0035597Y0165127D01*
X0035493Y0165292D01*
X0035393Y0165460D01*
X0035474Y0165506D01*
X0035573Y0165341D01*
X0035676Y0165177D01*
X0035783Y0165017D01*
X0035893Y0164859D01*
X0036007Y0164703D01*
X0036125Y0164551D01*
X0036247Y0164401D01*
X0036372Y0164255D01*
X0036501Y0164111D01*
X0036633Y0163971D01*
X0036768Y0163833D01*
X0036907Y0163699D01*
X0037049Y0163569D01*
X0037194Y0163442D01*
X0037342Y0163318D01*
X0037493Y0163199D01*
X0037647Y0163082D01*
X0037804Y0162970D01*
X0037963Y0162861D01*
X0038125Y0162757D01*
X0038290Y0162656D01*
X0038456Y0162559D01*
X0038626Y0162466D01*
X0038797Y0162378D01*
X0038970Y0162293D01*
X0039146Y0162213D01*
X0039323Y0162137D01*
X0039502Y0162065D01*
X0039683Y0161998D01*
X0039865Y0161935D01*
X0040049Y0161877D01*
X0040234Y0161823D01*
X0040420Y0161773D01*
X0040608Y0161728D01*
X0040796Y0161687D01*
X0040985Y0161651D01*
X0041176Y0161620D01*
X0041367Y0161593D01*
X0041558Y0161571D01*
X0041750Y0161554D01*
X0041943Y0161541D01*
X0042135Y0161533D01*
X0042328Y0161529D01*
X0042328Y0161623D01*
X0042138Y0161627D01*
X0041947Y0161635D01*
X0041757Y0161647D01*
X0041567Y0161665D01*
X0041378Y0161687D01*
X0041190Y0161713D01*
X0041002Y0161744D01*
X0040814Y0161780D01*
X0040628Y0161820D01*
X0040443Y0161864D01*
X0040259Y0161913D01*
X0040076Y0161967D01*
X0039894Y0162024D01*
X0039714Y0162087D01*
X0039536Y0162153D01*
X0039359Y0162224D01*
X0039184Y0162299D01*
X0039010Y0162378D01*
X0038839Y0162462D01*
X0038670Y0162549D01*
X0038503Y0162641D01*
X0038338Y0162737D01*
X0038175Y0162836D01*
X0038015Y0162940D01*
X0037858Y0163047D01*
X0037703Y0163158D01*
X0037551Y0163273D01*
X0037402Y0163391D01*
X0037256Y0163513D01*
X0037112Y0163639D01*
X0036972Y0163768D01*
X0036835Y0163900D01*
X0036701Y0164036D01*
X0036570Y0164174D01*
X0036443Y0164316D01*
X0036319Y0164461D01*
X0036199Y0164609D01*
X0036083Y0164760D01*
X0035970Y0164913D01*
X0035861Y0165069D01*
X0035755Y0165228D01*
X0035654Y0165389D01*
X0035556Y0165553D01*
X0035638Y0165600D01*
X0035734Y0165438D01*
X0035834Y0165279D01*
X0035938Y0165122D01*
X0036046Y0164967D01*
X0036158Y0164816D01*
X0036273Y0164667D01*
X0036392Y0164521D01*
X0036514Y0164378D01*
X0036640Y0164238D01*
X0036769Y0164101D01*
X0036901Y0163967D01*
X0037037Y0163836D01*
X0037175Y0163709D01*
X0037317Y0163585D01*
X0037461Y0163464D01*
X0037609Y0163347D01*
X0037759Y0163234D01*
X0037912Y0163124D01*
X0038068Y0163018D01*
X0038226Y0162916D01*
X0038386Y0162817D01*
X0038549Y0162723D01*
X0038714Y0162632D01*
X0038881Y0162546D01*
X0039050Y0162463D01*
X0039221Y0162385D01*
X0039394Y0162311D01*
X0039569Y0162241D01*
X0039746Y0162175D01*
X0039924Y0162114D01*
X0040103Y0162057D01*
X0040284Y0162004D01*
X0040466Y0161955D01*
X0040649Y0161911D01*
X0040833Y0161872D01*
X0041018Y0161837D01*
X0041203Y0161806D01*
X0041390Y0161780D01*
X0041577Y0161758D01*
X0041764Y0161741D01*
X0041952Y0161729D01*
X0042140Y0161721D01*
X0042328Y0161717D01*
X0042328Y0161811D01*
X0042142Y0161815D01*
X0041957Y0161823D01*
X0041771Y0161835D01*
X0041586Y0161852D01*
X0041401Y0161873D01*
X0041217Y0161899D01*
X0041034Y0161929D01*
X0040851Y0161964D01*
X0040669Y0162003D01*
X0040488Y0162047D01*
X0040309Y0162094D01*
X0040130Y0162147D01*
X0039953Y0162203D01*
X0039777Y0162264D01*
X0039603Y0162329D01*
X0039430Y0162398D01*
X0039259Y0162471D01*
X0039090Y0162548D01*
X0038923Y0162630D01*
X0038758Y0162715D01*
X0038595Y0162805D01*
X0038434Y0162898D01*
X0038276Y0162995D01*
X0038120Y0163096D01*
X0037966Y0163201D01*
X0037815Y0163309D01*
X0037666Y0163421D01*
X0037521Y0163537D01*
X0037378Y0163656D01*
X0037238Y0163778D01*
X0037101Y0163904D01*
X0036967Y0164033D01*
X0036837Y0164166D01*
X0036709Y0164301D01*
X0036585Y0164439D01*
X0036464Y0164581D01*
X0036347Y0164725D01*
X0036233Y0164872D01*
X0036123Y0165022D01*
X0036016Y0165174D01*
X0035914Y0165329D01*
X0035815Y0165487D01*
X0035719Y0165646D01*
X0035801Y0165693D01*
X0035895Y0165535D01*
X0035993Y0165380D01*
X0036094Y0165227D01*
X0036200Y0165076D01*
X0036309Y0164928D01*
X0036421Y0164783D01*
X0036537Y0164641D01*
X0036656Y0164501D01*
X0036779Y0164364D01*
X0036905Y0164231D01*
X0037034Y0164100D01*
X0037166Y0163972D01*
X0037301Y0163848D01*
X0037439Y0163727D01*
X0037580Y0163610D01*
X0037724Y0163496D01*
X0037871Y0163385D01*
X0038020Y0163278D01*
X0038172Y0163174D01*
X0038326Y0163075D01*
X0038482Y0162979D01*
X0038641Y0162887D01*
X0038802Y0162798D01*
X0038965Y0162714D01*
X0039130Y0162633D01*
X0039297Y0162557D01*
X0039466Y0162485D01*
X0039637Y0162416D01*
X0039809Y0162352D01*
X0039982Y0162292D01*
X0040157Y0162236D01*
X0040334Y0162185D01*
X0040511Y0162138D01*
X0040690Y0162095D01*
X0040869Y0162056D01*
X0041050Y0162022D01*
X0041231Y0161992D01*
X0041413Y0161967D01*
X0041595Y0161945D01*
X0041778Y0161929D01*
X0041961Y0161916D01*
X0042145Y0161909D01*
X0042328Y0161905D01*
X0042428Y0161060D02*
X0042428Y0161960D01*
X0042429Y0161959D02*
X0042613Y0161963D01*
X0042798Y0161971D01*
X0042982Y0161983D01*
X0043165Y0162000D01*
X0043349Y0162022D01*
X0043531Y0162047D01*
X0043713Y0162078D01*
X0043894Y0162113D01*
X0044075Y0162152D01*
X0044254Y0162196D01*
X0044432Y0162244D01*
X0044609Y0162296D01*
X0044785Y0162353D01*
X0044959Y0162413D01*
X0045131Y0162479D01*
X0045302Y0162548D01*
X0045472Y0162621D01*
X0045639Y0162699D01*
X0045804Y0162781D01*
X0045968Y0162866D01*
X0046129Y0162956D01*
X0046288Y0163050D01*
X0046445Y0163147D01*
X0046599Y0163248D01*
X0046751Y0163353D01*
X0046900Y0163462D01*
X0047046Y0163574D01*
X0047190Y0163690D01*
X0047330Y0163809D01*
X0047468Y0163932D01*
X0047603Y0164058D01*
X0047735Y0164187D01*
X0047863Y0164320D01*
X0047988Y0164455D01*
X0048110Y0164594D01*
X0048797Y0164013D01*
X0048661Y0163857D01*
X0048520Y0163705D01*
X0048376Y0163556D01*
X0048229Y0163411D01*
X0048078Y0163270D01*
X0047924Y0163133D01*
X0047766Y0162999D01*
X0047605Y0162869D01*
X0047441Y0162743D01*
X0047274Y0162621D01*
X0047104Y0162503D01*
X0046931Y0162390D01*
X0046755Y0162281D01*
X0046577Y0162176D01*
X0046396Y0162075D01*
X0046213Y0161979D01*
X0046028Y0161887D01*
X0045840Y0161800D01*
X0045650Y0161718D01*
X0045459Y0161640D01*
X0045265Y0161567D01*
X0045070Y0161499D01*
X0044873Y0161435D01*
X0044675Y0161377D01*
X0044475Y0161323D01*
X0044274Y0161274D01*
X0044072Y0161230D01*
X0043869Y0161191D01*
X0043665Y0161157D01*
X0043460Y0161128D01*
X0043255Y0161104D01*
X0043049Y0161086D01*
X0042842Y0161072D01*
X0042636Y0161063D01*
X0042429Y0161059D01*
X0042429Y0161153D01*
X0042633Y0161157D01*
X0042838Y0161166D01*
X0043042Y0161179D01*
X0043245Y0161198D01*
X0043448Y0161222D01*
X0043651Y0161250D01*
X0043853Y0161284D01*
X0044053Y0161322D01*
X0044253Y0161366D01*
X0044452Y0161414D01*
X0044649Y0161467D01*
X0044846Y0161525D01*
X0045040Y0161588D01*
X0045233Y0161656D01*
X0045425Y0161728D01*
X0045614Y0161805D01*
X0045802Y0161886D01*
X0045987Y0161972D01*
X0046170Y0162063D01*
X0046352Y0162158D01*
X0046530Y0162257D01*
X0046706Y0162361D01*
X0046880Y0162469D01*
X0047051Y0162581D01*
X0047219Y0162698D01*
X0047384Y0162818D01*
X0047547Y0162943D01*
X0047706Y0163071D01*
X0047862Y0163203D01*
X0048014Y0163339D01*
X0048164Y0163479D01*
X0048309Y0163622D01*
X0048452Y0163769D01*
X0048590Y0163920D01*
X0048725Y0164073D01*
X0048654Y0164134D01*
X0048520Y0163982D01*
X0048383Y0163833D01*
X0048242Y0163688D01*
X0048098Y0163547D01*
X0047951Y0163408D01*
X0047800Y0163274D01*
X0047646Y0163143D01*
X0047488Y0163016D01*
X0047328Y0162893D01*
X0047164Y0162774D01*
X0046998Y0162659D01*
X0046829Y0162548D01*
X0046658Y0162441D01*
X0046483Y0162339D01*
X0046307Y0162240D01*
X0046128Y0162146D01*
X0045946Y0162057D01*
X0045763Y0161972D01*
X0045578Y0161891D01*
X0045390Y0161815D01*
X0045201Y0161744D01*
X0045010Y0161677D01*
X0044818Y0161615D01*
X0044624Y0161558D01*
X0044429Y0161505D01*
X0044232Y0161458D01*
X0044035Y0161415D01*
X0043836Y0161377D01*
X0043637Y0161343D01*
X0043437Y0161315D01*
X0043236Y0161292D01*
X0043035Y0161273D01*
X0042833Y0161259D01*
X0042631Y0161251D01*
X0042429Y0161247D01*
X0042429Y0161341D01*
X0042629Y0161345D01*
X0042828Y0161353D01*
X0043028Y0161367D01*
X0043227Y0161385D01*
X0043425Y0161408D01*
X0043623Y0161436D01*
X0043820Y0161469D01*
X0044016Y0161507D01*
X0044212Y0161549D01*
X0044406Y0161596D01*
X0044599Y0161648D01*
X0044790Y0161705D01*
X0044981Y0161766D01*
X0045169Y0161832D01*
X0045356Y0161903D01*
X0045541Y0161978D01*
X0045725Y0162058D01*
X0045906Y0162142D01*
X0046085Y0162230D01*
X0046262Y0162323D01*
X0046437Y0162420D01*
X0046609Y0162522D01*
X0046778Y0162627D01*
X0046946Y0162737D01*
X0047110Y0162851D01*
X0047271Y0162968D01*
X0047430Y0163090D01*
X0047585Y0163215D01*
X0047738Y0163345D01*
X0047887Y0163478D01*
X0048033Y0163614D01*
X0048175Y0163754D01*
X0048314Y0163898D01*
X0048450Y0164045D01*
X0048582Y0164195D01*
X0048510Y0164255D01*
X0048380Y0164107D01*
X0048246Y0163962D01*
X0048108Y0163820D01*
X0047967Y0163682D01*
X0047823Y0163547D01*
X0047676Y0163415D01*
X0047525Y0163288D01*
X0047371Y0163164D01*
X0047215Y0163043D01*
X0047055Y0162927D01*
X0046893Y0162815D01*
X0046728Y0162706D01*
X0046560Y0162602D01*
X0046390Y0162502D01*
X0046217Y0162406D01*
X0046042Y0162314D01*
X0045865Y0162226D01*
X0045686Y0162143D01*
X0045505Y0162065D01*
X0045322Y0161990D01*
X0045137Y0161921D01*
X0044951Y0161856D01*
X0044763Y0161795D01*
X0044573Y0161739D01*
X0044383Y0161688D01*
X0044191Y0161641D01*
X0043998Y0161599D01*
X0043804Y0161562D01*
X0043609Y0161529D01*
X0043413Y0161502D01*
X0043217Y0161479D01*
X0043021Y0161461D01*
X0042824Y0161447D01*
X0042626Y0161439D01*
X0042429Y0161435D01*
X0042429Y0161529D01*
X0042624Y0161533D01*
X0042819Y0161541D01*
X0043014Y0161554D01*
X0043208Y0161572D01*
X0043402Y0161595D01*
X0043595Y0161622D01*
X0043788Y0161654D01*
X0043979Y0161691D01*
X0044170Y0161733D01*
X0044360Y0161779D01*
X0044548Y0161829D01*
X0044735Y0161885D01*
X0044921Y0161945D01*
X0045105Y0162009D01*
X0045288Y0162078D01*
X0045469Y0162151D01*
X0045648Y0162229D01*
X0045825Y0162311D01*
X0046000Y0162398D01*
X0046172Y0162488D01*
X0046343Y0162583D01*
X0046511Y0162682D01*
X0046677Y0162785D01*
X0046840Y0162892D01*
X0047001Y0163003D01*
X0047158Y0163118D01*
X0047313Y0163237D01*
X0047465Y0163360D01*
X0047614Y0163486D01*
X0047760Y0163616D01*
X0047902Y0163749D01*
X0048041Y0163886D01*
X0048177Y0164026D01*
X0048309Y0164170D01*
X0048438Y0164316D01*
X0048366Y0164377D01*
X0048239Y0164232D01*
X0048108Y0164090D01*
X0047974Y0163952D01*
X0047837Y0163817D01*
X0047696Y0163685D01*
X0047552Y0163557D01*
X0047405Y0163432D01*
X0047255Y0163311D01*
X0047102Y0163194D01*
X0046946Y0163080D01*
X0046787Y0162970D01*
X0046626Y0162864D01*
X0046462Y0162763D01*
X0046296Y0162665D01*
X0046128Y0162571D01*
X0045957Y0162481D01*
X0045784Y0162396D01*
X0045609Y0162315D01*
X0045432Y0162238D01*
X0045254Y0162166D01*
X0045073Y0162097D01*
X0044891Y0162034D01*
X0044708Y0161975D01*
X0044523Y0161920D01*
X0044337Y0161870D01*
X0044149Y0161824D01*
X0043961Y0161783D01*
X0043771Y0161747D01*
X0043581Y0161715D01*
X0043390Y0161688D01*
X0043199Y0161666D01*
X0043007Y0161648D01*
X0042814Y0161635D01*
X0042622Y0161627D01*
X0042429Y0161623D01*
X0042429Y0161717D01*
X0042619Y0161721D01*
X0042810Y0161729D01*
X0043000Y0161742D01*
X0043189Y0161759D01*
X0043379Y0161781D01*
X0043567Y0161808D01*
X0043755Y0161839D01*
X0043942Y0161875D01*
X0044128Y0161916D01*
X0044313Y0161961D01*
X0044497Y0162010D01*
X0044680Y0162065D01*
X0044861Y0162123D01*
X0045041Y0162186D01*
X0045219Y0162253D01*
X0045396Y0162325D01*
X0045571Y0162401D01*
X0045743Y0162481D01*
X0045914Y0162565D01*
X0046083Y0162654D01*
X0046249Y0162746D01*
X0046414Y0162843D01*
X0046575Y0162943D01*
X0046735Y0163048D01*
X0046891Y0163156D01*
X0047045Y0163269D01*
X0047196Y0163385D01*
X0047345Y0163504D01*
X0047490Y0163627D01*
X0047632Y0163754D01*
X0047771Y0163884D01*
X0047907Y0164018D01*
X0048040Y0164154D01*
X0048169Y0164294D01*
X0048295Y0164438D01*
X0048223Y0164498D01*
X0048099Y0164357D01*
X0047971Y0164219D01*
X0047840Y0164084D01*
X0047706Y0163952D01*
X0047569Y0163823D01*
X0047428Y0163698D01*
X0047284Y0163576D01*
X0047138Y0163458D01*
X0046989Y0163344D01*
X0046837Y0163233D01*
X0046682Y0163126D01*
X0046525Y0163023D01*
X0046365Y0162923D01*
X0046203Y0162828D01*
X0046038Y0162736D01*
X0045872Y0162649D01*
X0045703Y0162566D01*
X0045532Y0162486D01*
X0045360Y0162411D01*
X0045185Y0162341D01*
X0045009Y0162274D01*
X0044832Y0162212D01*
X0044652Y0162154D01*
X0044472Y0162101D01*
X0044290Y0162052D01*
X0044108Y0162008D01*
X0043924Y0161968D01*
X0043739Y0161932D01*
X0043553Y0161901D01*
X0043367Y0161875D01*
X0043180Y0161853D01*
X0042993Y0161836D01*
X0042805Y0161823D01*
X0042617Y0161815D01*
X0042429Y0161811D01*
X0042429Y0161905D01*
X0042615Y0161909D01*
X0042800Y0161917D01*
X0042986Y0161929D01*
X0043171Y0161946D01*
X0043355Y0161968D01*
X0043539Y0161994D01*
X0043723Y0162025D01*
X0043905Y0162060D01*
X0044087Y0162099D01*
X0044267Y0162143D01*
X0044447Y0162192D01*
X0044625Y0162244D01*
X0044802Y0162301D01*
X0044977Y0162363D01*
X0045151Y0162428D01*
X0045323Y0162498D01*
X0045494Y0162572D01*
X0045662Y0162650D01*
X0045829Y0162733D01*
X0045993Y0162819D01*
X0046156Y0162909D01*
X0046316Y0163004D01*
X0046474Y0163102D01*
X0046629Y0163204D01*
X0046782Y0163309D01*
X0046932Y0163419D01*
X0047080Y0163532D01*
X0047224Y0163649D01*
X0047366Y0163769D01*
X0047505Y0163892D01*
X0047641Y0164019D01*
X0047773Y0164149D01*
X0047902Y0164283D01*
X0048029Y0164419D01*
X0048151Y0164559D01*
X0048838Y0174957D02*
X0048146Y0174380D01*
X0048147Y0174381D02*
X0048028Y0174518D01*
X0047907Y0174652D01*
X0047782Y0174783D01*
X0047654Y0174911D01*
X0047523Y0175035D01*
X0047389Y0175157D01*
X0047252Y0175276D01*
X0047113Y0175391D01*
X0046970Y0175502D01*
X0046825Y0175611D01*
X0046678Y0175716D01*
X0046528Y0175817D01*
X0046376Y0175914D01*
X0046221Y0176008D01*
X0046064Y0176099D01*
X0045905Y0176185D01*
X0045744Y0176268D01*
X0045581Y0176346D01*
X0045416Y0176421D01*
X0045250Y0176492D01*
X0045082Y0176559D01*
X0044912Y0176621D01*
X0044741Y0176680D01*
X0044568Y0176735D01*
X0044395Y0176785D01*
X0044220Y0176831D01*
X0044044Y0176873D01*
X0043867Y0176911D01*
X0043689Y0176944D01*
X0043510Y0176974D01*
X0043331Y0176999D01*
X0043151Y0177019D01*
X0042971Y0177036D01*
X0042791Y0177048D01*
X0042610Y0177055D01*
X0042429Y0177059D01*
X0042428Y0177958D01*
X0042429Y0177959D01*
X0042632Y0177955D01*
X0042834Y0177947D01*
X0043037Y0177933D01*
X0043239Y0177915D01*
X0043440Y0177892D01*
X0043641Y0177864D01*
X0043841Y0177831D01*
X0044041Y0177794D01*
X0044239Y0177752D01*
X0044437Y0177705D01*
X0044633Y0177653D01*
X0044827Y0177596D01*
X0045021Y0177535D01*
X0045213Y0177470D01*
X0045403Y0177399D01*
X0045592Y0177324D01*
X0045778Y0177245D01*
X0045963Y0177161D01*
X0046146Y0177073D01*
X0046326Y0176980D01*
X0046504Y0176884D01*
X0046680Y0176782D01*
X0046853Y0176677D01*
X0047024Y0176568D01*
X0047192Y0176454D01*
X0047358Y0176337D01*
X0047520Y0176215D01*
X0047680Y0176090D01*
X0047836Y0175961D01*
X0047989Y0175828D01*
X0048139Y0175691D01*
X0048286Y0175551D01*
X0048429Y0175408D01*
X0048569Y0175261D01*
X0048706Y0175111D01*
X0048838Y0174957D01*
X0048766Y0174897D01*
X0048635Y0175049D01*
X0048500Y0175197D01*
X0048362Y0175342D01*
X0048220Y0175484D01*
X0048075Y0175623D01*
X0047927Y0175758D01*
X0047775Y0175889D01*
X0047620Y0176017D01*
X0047463Y0176141D01*
X0047302Y0176261D01*
X0047139Y0176377D01*
X0046972Y0176489D01*
X0046804Y0176597D01*
X0046632Y0176702D01*
X0046458Y0176802D01*
X0046282Y0176897D01*
X0046104Y0176989D01*
X0045923Y0177076D01*
X0045740Y0177159D01*
X0045556Y0177238D01*
X0045370Y0177312D01*
X0045181Y0177381D01*
X0044992Y0177446D01*
X0044800Y0177506D01*
X0044608Y0177562D01*
X0044414Y0177613D01*
X0044219Y0177660D01*
X0044023Y0177702D01*
X0043826Y0177739D01*
X0043628Y0177771D01*
X0043429Y0177799D01*
X0043230Y0177822D01*
X0043030Y0177840D01*
X0042830Y0177853D01*
X0042629Y0177861D01*
X0042429Y0177865D01*
X0042429Y0177771D01*
X0042627Y0177767D01*
X0042825Y0177759D01*
X0043023Y0177746D01*
X0043221Y0177728D01*
X0043418Y0177705D01*
X0043614Y0177678D01*
X0043810Y0177646D01*
X0044004Y0177610D01*
X0044198Y0177568D01*
X0044391Y0177522D01*
X0044583Y0177472D01*
X0044773Y0177416D01*
X0044962Y0177357D01*
X0045150Y0177292D01*
X0045336Y0177224D01*
X0045520Y0177151D01*
X0045703Y0177073D01*
X0045883Y0176991D01*
X0046062Y0176905D01*
X0046238Y0176814D01*
X0046412Y0176720D01*
X0046584Y0176621D01*
X0046754Y0176518D01*
X0046921Y0176411D01*
X0047085Y0176300D01*
X0047246Y0176185D01*
X0047405Y0176066D01*
X0047561Y0175944D01*
X0047714Y0175818D01*
X0047864Y0175688D01*
X0048011Y0175554D01*
X0048154Y0175417D01*
X0048294Y0175277D01*
X0048431Y0175134D01*
X0048564Y0174987D01*
X0048694Y0174837D01*
X0048622Y0174777D01*
X0048493Y0174925D01*
X0048362Y0175070D01*
X0048227Y0175212D01*
X0048088Y0175350D01*
X0047946Y0175486D01*
X0047801Y0175618D01*
X0047653Y0175746D01*
X0047502Y0175871D01*
X0047348Y0175992D01*
X0047191Y0176109D01*
X0047031Y0176223D01*
X0046869Y0176332D01*
X0046704Y0176438D01*
X0046536Y0176540D01*
X0046366Y0176638D01*
X0046194Y0176731D01*
X0046020Y0176821D01*
X0045843Y0176906D01*
X0045665Y0176987D01*
X0045485Y0177064D01*
X0045302Y0177136D01*
X0045119Y0177204D01*
X0044933Y0177267D01*
X0044746Y0177326D01*
X0044558Y0177381D01*
X0044369Y0177431D01*
X0044178Y0177476D01*
X0043986Y0177517D01*
X0043794Y0177554D01*
X0043600Y0177585D01*
X0043406Y0177612D01*
X0043211Y0177634D01*
X0043016Y0177652D01*
X0042821Y0177665D01*
X0042625Y0177673D01*
X0042429Y0177677D01*
X0042429Y0177583D01*
X0042623Y0177579D01*
X0042816Y0177571D01*
X0043009Y0177558D01*
X0043202Y0177541D01*
X0043395Y0177519D01*
X0043587Y0177492D01*
X0043778Y0177461D01*
X0043968Y0177425D01*
X0044158Y0177385D01*
X0044346Y0177340D01*
X0044533Y0177290D01*
X0044719Y0177236D01*
X0044904Y0177178D01*
X0045087Y0177115D01*
X0045269Y0177048D01*
X0045449Y0176977D01*
X0045627Y0176901D01*
X0045804Y0176821D01*
X0045978Y0176737D01*
X0046150Y0176648D01*
X0046320Y0176556D01*
X0046488Y0176459D01*
X0046654Y0176358D01*
X0046817Y0176254D01*
X0046977Y0176146D01*
X0047135Y0176033D01*
X0047290Y0175917D01*
X0047443Y0175798D01*
X0047592Y0175674D01*
X0047739Y0175548D01*
X0047882Y0175417D01*
X0048022Y0175284D01*
X0048159Y0175147D01*
X0048292Y0175006D01*
X0048423Y0174863D01*
X0048549Y0174716D01*
X0048477Y0174656D01*
X0048352Y0174801D01*
X0048223Y0174943D01*
X0048091Y0175081D01*
X0047956Y0175217D01*
X0047817Y0175349D01*
X0047676Y0175478D01*
X0047531Y0175603D01*
X0047384Y0175725D01*
X0047233Y0175843D01*
X0047080Y0175958D01*
X0046924Y0176068D01*
X0046765Y0176176D01*
X0046604Y0176279D01*
X0046440Y0176378D01*
X0046274Y0176474D01*
X0046106Y0176565D01*
X0045936Y0176652D01*
X0045764Y0176736D01*
X0045589Y0176815D01*
X0045413Y0176890D01*
X0045235Y0176960D01*
X0045056Y0177027D01*
X0044875Y0177089D01*
X0044692Y0177146D01*
X0044508Y0177200D01*
X0044323Y0177249D01*
X0044137Y0177293D01*
X0043950Y0177333D01*
X0043762Y0177368D01*
X0043573Y0177399D01*
X0043383Y0177426D01*
X0043193Y0177447D01*
X0043003Y0177465D01*
X0042812Y0177477D01*
X0042620Y0177485D01*
X0042429Y0177489D01*
X0042429Y0177395D01*
X0042618Y0177391D01*
X0042807Y0177383D01*
X0042996Y0177371D01*
X0043184Y0177354D01*
X0043372Y0177332D01*
X0043559Y0177306D01*
X0043746Y0177276D01*
X0043932Y0177241D01*
X0044117Y0177201D01*
X0044301Y0177157D01*
X0044483Y0177109D01*
X0044665Y0177056D01*
X0044845Y0176999D01*
X0045024Y0176938D01*
X0045202Y0176872D01*
X0045378Y0176803D01*
X0045552Y0176729D01*
X0045724Y0176651D01*
X0045894Y0176568D01*
X0046062Y0176482D01*
X0046228Y0176392D01*
X0046392Y0176297D01*
X0046554Y0176199D01*
X0046713Y0176097D01*
X0046870Y0175991D01*
X0047024Y0175882D01*
X0047176Y0175768D01*
X0047324Y0175652D01*
X0047470Y0175531D01*
X0047613Y0175408D01*
X0047753Y0175280D01*
X0047890Y0175150D01*
X0048024Y0175016D01*
X0048154Y0174879D01*
X0048281Y0174739D01*
X0048405Y0174596D01*
X0048333Y0174536D01*
X0048210Y0174677D01*
X0048085Y0174815D01*
X0047956Y0174951D01*
X0047824Y0175083D01*
X0047689Y0175212D01*
X0047550Y0175337D01*
X0047409Y0175460D01*
X0047265Y0175579D01*
X0047118Y0175694D01*
X0046969Y0175806D01*
X0046816Y0175914D01*
X0046661Y0176019D01*
X0046504Y0176119D01*
X0046344Y0176216D01*
X0046183Y0176310D01*
X0046018Y0176399D01*
X0045852Y0176484D01*
X0045684Y0176565D01*
X0045514Y0176643D01*
X0045342Y0176716D01*
X0045168Y0176785D01*
X0044993Y0176849D01*
X0044816Y0176910D01*
X0044638Y0176966D01*
X0044459Y0177018D01*
X0044278Y0177066D01*
X0044096Y0177109D01*
X0043914Y0177148D01*
X0043730Y0177183D01*
X0043546Y0177213D01*
X0043361Y0177239D01*
X0043175Y0177260D01*
X0042989Y0177277D01*
X0042802Y0177289D01*
X0042616Y0177297D01*
X0042429Y0177301D01*
X0042429Y0177207D01*
X0042613Y0177203D01*
X0042798Y0177196D01*
X0042982Y0177183D01*
X0043166Y0177167D01*
X0043349Y0177146D01*
X0043532Y0177120D01*
X0043714Y0177090D01*
X0043895Y0177056D01*
X0044076Y0177018D01*
X0044255Y0176975D01*
X0044434Y0176928D01*
X0044611Y0176876D01*
X0044787Y0176821D01*
X0044962Y0176761D01*
X0045135Y0176697D01*
X0045306Y0176629D01*
X0045476Y0176557D01*
X0045644Y0176480D01*
X0045810Y0176400D01*
X0045974Y0176316D01*
X0046137Y0176228D01*
X0046297Y0176136D01*
X0046454Y0176040D01*
X0046610Y0175940D01*
X0046763Y0175837D01*
X0046913Y0175730D01*
X0047061Y0175620D01*
X0047206Y0175506D01*
X0047348Y0175388D01*
X0047488Y0175267D01*
X0047624Y0175143D01*
X0047758Y0175016D01*
X0047888Y0174885D01*
X0048016Y0174752D01*
X0048140Y0174615D01*
X0048260Y0174476D01*
X0048188Y0174415D01*
X0048069Y0174553D01*
X0047946Y0174688D01*
X0047821Y0174820D01*
X0047692Y0174949D01*
X0047560Y0175075D01*
X0047425Y0175197D01*
X0047287Y0175317D01*
X0047147Y0175433D01*
X0047003Y0175545D01*
X0046857Y0175654D01*
X0046709Y0175760D01*
X0046558Y0175862D01*
X0046404Y0175960D01*
X0046249Y0176055D01*
X0046091Y0176146D01*
X0045930Y0176233D01*
X0045768Y0176316D01*
X0045604Y0176395D01*
X0045438Y0176470D01*
X0045270Y0176542D01*
X0045101Y0176609D01*
X0044930Y0176672D01*
X0044758Y0176731D01*
X0044584Y0176786D01*
X0044409Y0176837D01*
X0044233Y0176884D01*
X0044055Y0176926D01*
X0043877Y0176964D01*
X0043698Y0176998D01*
X0043518Y0177027D01*
X0043338Y0177052D01*
X0043157Y0177073D01*
X0042975Y0177090D01*
X0042793Y0177102D01*
X0042611Y0177109D01*
X0042429Y0177113D01*
M02*
