G75*
%MOIN*%
%OFA0B0*%
%FSLAX25Y25*%
%IPPOS*%
%LPD*%
%AMOC8*
5,1,8,0,0,1.08239X$1,22.5*
%
%ADD10C,0.00000*%
%ADD11C,0.00039*%
%ADD12R,0.05512X0.04331*%
%ADD13R,0.15748X0.01575*%
%ADD14C,0.01000*%
%ADD15R,0.04724X0.04724*%
D10*
X0029320Y0023079D02*
X0029320Y0200244D01*
X0029453Y0200246D01*
X0029586Y0200252D01*
X0029718Y0200262D01*
X0029851Y0200275D01*
X0029982Y0200293D01*
X0030114Y0200314D01*
X0030244Y0200339D01*
X0030374Y0200368D01*
X0030503Y0200401D01*
X0030630Y0200438D01*
X0030757Y0200478D01*
X0030883Y0200522D01*
X0031007Y0200570D01*
X0031129Y0200621D01*
X0031250Y0200676D01*
X0031370Y0200735D01*
X0031487Y0200796D01*
X0031603Y0200862D01*
X0031717Y0200930D01*
X0031829Y0201002D01*
X0031938Y0201078D01*
X0032046Y0201156D01*
X0032151Y0201238D01*
X0032253Y0201322D01*
X0032353Y0201410D01*
X0032451Y0201500D01*
X0032545Y0201594D01*
X0032637Y0201690D01*
X0032726Y0201789D01*
X0032812Y0201890D01*
X0032895Y0201994D01*
X0032975Y0202100D01*
X0033052Y0202208D01*
X0033126Y0202319D01*
X0033196Y0202432D01*
X0033263Y0202546D01*
X0033327Y0202663D01*
X0033387Y0202782D01*
X0033444Y0202902D01*
X0033497Y0203024D01*
X0033546Y0203147D01*
X0033592Y0203272D01*
X0033635Y0203398D01*
X0033673Y0203525D01*
X0033708Y0203654D01*
X0033739Y0203783D01*
X0033766Y0203913D01*
X0033789Y0204044D01*
X0033809Y0204175D01*
X0033824Y0204308D01*
X0033836Y0204440D01*
X0033844Y0204573D01*
X0033848Y0204706D01*
X0033848Y0204838D01*
X0033844Y0204971D01*
X0033836Y0205104D01*
X0033824Y0205236D01*
X0033809Y0205369D01*
X0033789Y0205500D01*
X0033766Y0205631D01*
X0033739Y0205761D01*
X0033708Y0205890D01*
X0033673Y0206019D01*
X0033635Y0206146D01*
X0033592Y0206272D01*
X0033546Y0206397D01*
X0033497Y0206520D01*
X0033444Y0206642D01*
X0033387Y0206762D01*
X0033327Y0206881D01*
X0033263Y0206998D01*
X0033196Y0207112D01*
X0033126Y0207225D01*
X0033052Y0207336D01*
X0032975Y0207444D01*
X0032895Y0207550D01*
X0032812Y0207654D01*
X0032726Y0207755D01*
X0032637Y0207854D01*
X0032545Y0207950D01*
X0032451Y0208044D01*
X0032353Y0208134D01*
X0032253Y0208222D01*
X0032151Y0208306D01*
X0032046Y0208388D01*
X0031938Y0208466D01*
X0031829Y0208542D01*
X0031717Y0208614D01*
X0031603Y0208682D01*
X0031487Y0208748D01*
X0031370Y0208809D01*
X0031250Y0208868D01*
X0031129Y0208923D01*
X0031007Y0208974D01*
X0030883Y0209022D01*
X0030757Y0209066D01*
X0030630Y0209106D01*
X0030503Y0209143D01*
X0030374Y0209176D01*
X0030244Y0209205D01*
X0030114Y0209230D01*
X0029982Y0209251D01*
X0029851Y0209269D01*
X0029718Y0209282D01*
X0029586Y0209292D01*
X0029453Y0209298D01*
X0029320Y0209300D01*
X0029320Y0209299D02*
X0029320Y0278984D01*
X0026367Y0278984D01*
X0026243Y0278986D01*
X0026120Y0278992D01*
X0025996Y0279001D01*
X0025874Y0279015D01*
X0025751Y0279032D01*
X0025629Y0279054D01*
X0025508Y0279079D01*
X0025388Y0279108D01*
X0025269Y0279140D01*
X0025150Y0279177D01*
X0025033Y0279217D01*
X0024918Y0279260D01*
X0024803Y0279308D01*
X0024691Y0279359D01*
X0024580Y0279413D01*
X0024470Y0279471D01*
X0024363Y0279532D01*
X0024257Y0279597D01*
X0024154Y0279665D01*
X0024053Y0279736D01*
X0023954Y0279810D01*
X0023857Y0279887D01*
X0023763Y0279968D01*
X0023672Y0280051D01*
X0023583Y0280137D01*
X0023497Y0280226D01*
X0023414Y0280317D01*
X0023333Y0280411D01*
X0023256Y0280508D01*
X0023182Y0280607D01*
X0023111Y0280708D01*
X0023043Y0280811D01*
X0022978Y0280917D01*
X0022917Y0281024D01*
X0022859Y0281134D01*
X0022805Y0281245D01*
X0022754Y0281357D01*
X0022706Y0281472D01*
X0022663Y0281587D01*
X0022623Y0281704D01*
X0022586Y0281823D01*
X0022554Y0281942D01*
X0022525Y0282062D01*
X0022500Y0282183D01*
X0022478Y0282305D01*
X0022461Y0282428D01*
X0022447Y0282550D01*
X0022438Y0282674D01*
X0022432Y0282797D01*
X0022430Y0282921D01*
X0022430Y0385283D01*
X0022432Y0385407D01*
X0022438Y0385530D01*
X0022447Y0385654D01*
X0022461Y0385776D01*
X0022478Y0385899D01*
X0022500Y0386021D01*
X0022525Y0386142D01*
X0022554Y0386262D01*
X0022586Y0386381D01*
X0022623Y0386500D01*
X0022663Y0386617D01*
X0022706Y0386732D01*
X0022754Y0386847D01*
X0022805Y0386959D01*
X0022859Y0387070D01*
X0022917Y0387180D01*
X0022978Y0387287D01*
X0023043Y0387393D01*
X0023111Y0387496D01*
X0023182Y0387597D01*
X0023256Y0387696D01*
X0023333Y0387793D01*
X0023414Y0387887D01*
X0023497Y0387978D01*
X0023583Y0388067D01*
X0023672Y0388153D01*
X0023763Y0388236D01*
X0023857Y0388317D01*
X0023954Y0388394D01*
X0024053Y0388468D01*
X0024154Y0388539D01*
X0024257Y0388607D01*
X0024363Y0388672D01*
X0024470Y0388733D01*
X0024580Y0388791D01*
X0024691Y0388845D01*
X0024803Y0388896D01*
X0024918Y0388944D01*
X0025033Y0388987D01*
X0025150Y0389027D01*
X0025269Y0389064D01*
X0025388Y0389096D01*
X0025508Y0389125D01*
X0025629Y0389150D01*
X0025751Y0389172D01*
X0025874Y0389189D01*
X0025996Y0389203D01*
X0026120Y0389212D01*
X0026243Y0389218D01*
X0026367Y0389220D01*
X0029320Y0389220D01*
X0029320Y0460087D01*
X0029322Y0460211D01*
X0029328Y0460334D01*
X0029337Y0460458D01*
X0029351Y0460580D01*
X0029368Y0460703D01*
X0029390Y0460825D01*
X0029415Y0460946D01*
X0029444Y0461066D01*
X0029476Y0461185D01*
X0029513Y0461304D01*
X0029553Y0461421D01*
X0029596Y0461536D01*
X0029644Y0461651D01*
X0029695Y0461763D01*
X0029749Y0461874D01*
X0029807Y0461984D01*
X0029868Y0462091D01*
X0029933Y0462197D01*
X0030001Y0462300D01*
X0030072Y0462401D01*
X0030146Y0462500D01*
X0030223Y0462597D01*
X0030304Y0462691D01*
X0030387Y0462782D01*
X0030473Y0462871D01*
X0030562Y0462957D01*
X0030653Y0463040D01*
X0030747Y0463121D01*
X0030844Y0463198D01*
X0030943Y0463272D01*
X0031044Y0463343D01*
X0031147Y0463411D01*
X0031253Y0463476D01*
X0031360Y0463537D01*
X0031470Y0463595D01*
X0031581Y0463649D01*
X0031693Y0463700D01*
X0031808Y0463748D01*
X0031923Y0463791D01*
X0032040Y0463831D01*
X0032159Y0463868D01*
X0032278Y0463900D01*
X0032398Y0463929D01*
X0032519Y0463954D01*
X0032641Y0463976D01*
X0032764Y0463993D01*
X0032886Y0464007D01*
X0033010Y0464016D01*
X0033133Y0464022D01*
X0033257Y0464024D01*
X0049005Y0464024D01*
X0049005Y0471898D01*
X0050974Y0471898D01*
X0050974Y0473866D01*
X0060816Y0473866D01*
X0060816Y0471898D01*
X0084438Y0471898D01*
X0084438Y0473866D01*
X0094281Y0473866D01*
X0094281Y0471898D01*
X0096249Y0471898D01*
X0096249Y0464024D01*
X0299005Y0464024D01*
X0299129Y0464022D01*
X0299252Y0464016D01*
X0299376Y0464007D01*
X0299498Y0463993D01*
X0299621Y0463976D01*
X0299743Y0463954D01*
X0299864Y0463929D01*
X0299984Y0463900D01*
X0300103Y0463868D01*
X0300222Y0463831D01*
X0300339Y0463791D01*
X0300454Y0463748D01*
X0300569Y0463700D01*
X0300681Y0463649D01*
X0300792Y0463595D01*
X0300902Y0463537D01*
X0301009Y0463476D01*
X0301115Y0463411D01*
X0301218Y0463343D01*
X0301319Y0463272D01*
X0301418Y0463198D01*
X0301515Y0463121D01*
X0301609Y0463040D01*
X0301700Y0462957D01*
X0301789Y0462871D01*
X0301875Y0462782D01*
X0301958Y0462691D01*
X0302039Y0462597D01*
X0302116Y0462500D01*
X0302190Y0462401D01*
X0302261Y0462300D01*
X0302329Y0462197D01*
X0302394Y0462091D01*
X0302455Y0461984D01*
X0302513Y0461874D01*
X0302567Y0461763D01*
X0302618Y0461651D01*
X0302666Y0461536D01*
X0302709Y0461421D01*
X0302749Y0461304D01*
X0302786Y0461185D01*
X0302818Y0461066D01*
X0302847Y0460946D01*
X0302872Y0460825D01*
X0302894Y0460703D01*
X0302911Y0460580D01*
X0302925Y0460458D01*
X0302934Y0460334D01*
X0302940Y0460211D01*
X0302942Y0460087D01*
X0302942Y0089811D01*
X0302940Y0089687D01*
X0302934Y0089564D01*
X0302925Y0089440D01*
X0302911Y0089318D01*
X0302894Y0089195D01*
X0302872Y0089073D01*
X0302847Y0088952D01*
X0302818Y0088832D01*
X0302786Y0088713D01*
X0302749Y0088594D01*
X0302709Y0088477D01*
X0302666Y0088362D01*
X0302618Y0088247D01*
X0302567Y0088135D01*
X0302513Y0088024D01*
X0302455Y0087914D01*
X0302394Y0087807D01*
X0302329Y0087701D01*
X0302261Y0087598D01*
X0302190Y0087497D01*
X0302116Y0087398D01*
X0302039Y0087301D01*
X0301958Y0087207D01*
X0301875Y0087116D01*
X0301789Y0087027D01*
X0301700Y0086941D01*
X0301609Y0086858D01*
X0301515Y0086777D01*
X0301418Y0086700D01*
X0301319Y0086626D01*
X0301218Y0086555D01*
X0301115Y0086487D01*
X0301009Y0086422D01*
X0300902Y0086361D01*
X0300792Y0086303D01*
X0300681Y0086249D01*
X0300569Y0086198D01*
X0300454Y0086150D01*
X0300339Y0086107D01*
X0300222Y0086067D01*
X0300103Y0086030D01*
X0299984Y0085998D01*
X0299864Y0085969D01*
X0299743Y0085944D01*
X0299621Y0085922D01*
X0299498Y0085905D01*
X0299376Y0085891D01*
X0299252Y0085882D01*
X0299129Y0085876D01*
X0299005Y0085874D01*
X0232076Y0085874D01*
X0231952Y0085872D01*
X0231829Y0085866D01*
X0231705Y0085857D01*
X0231583Y0085843D01*
X0231460Y0085826D01*
X0231338Y0085804D01*
X0231217Y0085779D01*
X0231097Y0085750D01*
X0230978Y0085718D01*
X0230859Y0085681D01*
X0230742Y0085641D01*
X0230627Y0085598D01*
X0230512Y0085550D01*
X0230400Y0085499D01*
X0230289Y0085445D01*
X0230179Y0085387D01*
X0230072Y0085326D01*
X0229966Y0085261D01*
X0229863Y0085193D01*
X0229762Y0085122D01*
X0229663Y0085048D01*
X0229566Y0084971D01*
X0229472Y0084890D01*
X0229381Y0084807D01*
X0229292Y0084721D01*
X0229206Y0084632D01*
X0229123Y0084541D01*
X0229042Y0084447D01*
X0228965Y0084350D01*
X0228891Y0084251D01*
X0228820Y0084150D01*
X0228752Y0084047D01*
X0228687Y0083941D01*
X0228626Y0083834D01*
X0228568Y0083724D01*
X0228514Y0083613D01*
X0228463Y0083501D01*
X0228415Y0083386D01*
X0228372Y0083271D01*
X0228332Y0083154D01*
X0228295Y0083035D01*
X0228263Y0082916D01*
X0228234Y0082796D01*
X0228209Y0082675D01*
X0228187Y0082553D01*
X0228170Y0082430D01*
X0228156Y0082308D01*
X0228147Y0082184D01*
X0228141Y0082061D01*
X0228139Y0081937D01*
X0228139Y0023079D01*
X0228137Y0022955D01*
X0228131Y0022832D01*
X0228122Y0022708D01*
X0228108Y0022586D01*
X0228091Y0022463D01*
X0228069Y0022341D01*
X0228044Y0022220D01*
X0228015Y0022100D01*
X0227983Y0021981D01*
X0227946Y0021862D01*
X0227906Y0021745D01*
X0227863Y0021630D01*
X0227815Y0021515D01*
X0227764Y0021403D01*
X0227710Y0021292D01*
X0227652Y0021182D01*
X0227591Y0021075D01*
X0227526Y0020969D01*
X0227458Y0020866D01*
X0227387Y0020765D01*
X0227313Y0020666D01*
X0227236Y0020569D01*
X0227155Y0020475D01*
X0227072Y0020384D01*
X0226986Y0020295D01*
X0226897Y0020209D01*
X0226806Y0020126D01*
X0226712Y0020045D01*
X0226615Y0019968D01*
X0226516Y0019894D01*
X0226415Y0019823D01*
X0226312Y0019755D01*
X0226206Y0019690D01*
X0226099Y0019629D01*
X0225989Y0019571D01*
X0225878Y0019517D01*
X0225766Y0019466D01*
X0225651Y0019418D01*
X0225536Y0019375D01*
X0225419Y0019335D01*
X0225300Y0019298D01*
X0225181Y0019266D01*
X0225061Y0019237D01*
X0224940Y0019212D01*
X0224818Y0019190D01*
X0224695Y0019173D01*
X0224573Y0019159D01*
X0224449Y0019150D01*
X0224326Y0019144D01*
X0224202Y0019142D01*
X0033257Y0019142D01*
X0033133Y0019144D01*
X0033010Y0019150D01*
X0032886Y0019159D01*
X0032764Y0019173D01*
X0032641Y0019190D01*
X0032519Y0019212D01*
X0032398Y0019237D01*
X0032278Y0019266D01*
X0032159Y0019298D01*
X0032040Y0019335D01*
X0031923Y0019375D01*
X0031808Y0019418D01*
X0031693Y0019466D01*
X0031581Y0019517D01*
X0031470Y0019571D01*
X0031360Y0019629D01*
X0031253Y0019690D01*
X0031147Y0019755D01*
X0031044Y0019823D01*
X0030943Y0019894D01*
X0030844Y0019968D01*
X0030747Y0020045D01*
X0030653Y0020126D01*
X0030562Y0020209D01*
X0030473Y0020295D01*
X0030387Y0020384D01*
X0030304Y0020475D01*
X0030223Y0020569D01*
X0030146Y0020666D01*
X0030072Y0020765D01*
X0030001Y0020866D01*
X0029933Y0020969D01*
X0029868Y0021075D01*
X0029807Y0021182D01*
X0029749Y0021292D01*
X0029695Y0021403D01*
X0029644Y0021515D01*
X0029596Y0021630D01*
X0029553Y0021745D01*
X0029513Y0021862D01*
X0029476Y0021981D01*
X0029444Y0022100D01*
X0029415Y0022220D01*
X0029390Y0022341D01*
X0029368Y0022463D01*
X0029351Y0022586D01*
X0029337Y0022708D01*
X0029328Y0022832D01*
X0029322Y0022955D01*
X0029320Y0023079D01*
X0161210Y0025047D02*
X0161212Y0025144D01*
X0161218Y0025241D01*
X0161228Y0025337D01*
X0161242Y0025433D01*
X0161260Y0025529D01*
X0161281Y0025623D01*
X0161307Y0025717D01*
X0161336Y0025809D01*
X0161370Y0025900D01*
X0161406Y0025990D01*
X0161447Y0026078D01*
X0161491Y0026164D01*
X0161539Y0026249D01*
X0161590Y0026331D01*
X0161644Y0026412D01*
X0161702Y0026490D01*
X0161763Y0026565D01*
X0161826Y0026638D01*
X0161893Y0026709D01*
X0161963Y0026776D01*
X0162035Y0026841D01*
X0162110Y0026902D01*
X0162188Y0026961D01*
X0162267Y0027016D01*
X0162349Y0027068D01*
X0162433Y0027116D01*
X0162519Y0027161D01*
X0162607Y0027203D01*
X0162696Y0027241D01*
X0162787Y0027275D01*
X0162879Y0027305D01*
X0162972Y0027332D01*
X0163067Y0027354D01*
X0163162Y0027373D01*
X0163258Y0027388D01*
X0163354Y0027399D01*
X0163451Y0027406D01*
X0163548Y0027409D01*
X0163645Y0027408D01*
X0163742Y0027403D01*
X0163838Y0027394D01*
X0163934Y0027381D01*
X0164030Y0027364D01*
X0164125Y0027343D01*
X0164218Y0027319D01*
X0164311Y0027290D01*
X0164403Y0027258D01*
X0164493Y0027222D01*
X0164581Y0027183D01*
X0164668Y0027139D01*
X0164753Y0027093D01*
X0164836Y0027042D01*
X0164917Y0026989D01*
X0164995Y0026932D01*
X0165072Y0026872D01*
X0165145Y0026809D01*
X0165216Y0026743D01*
X0165284Y0026674D01*
X0165350Y0026602D01*
X0165412Y0026528D01*
X0165471Y0026451D01*
X0165527Y0026372D01*
X0165580Y0026290D01*
X0165630Y0026207D01*
X0165675Y0026121D01*
X0165718Y0026034D01*
X0165757Y0025945D01*
X0165792Y0025855D01*
X0165823Y0025763D01*
X0165850Y0025670D01*
X0165874Y0025576D01*
X0165894Y0025481D01*
X0165910Y0025385D01*
X0165922Y0025289D01*
X0165930Y0025192D01*
X0165934Y0025095D01*
X0165934Y0024999D01*
X0165930Y0024902D01*
X0165922Y0024805D01*
X0165910Y0024709D01*
X0165894Y0024613D01*
X0165874Y0024518D01*
X0165850Y0024424D01*
X0165823Y0024331D01*
X0165792Y0024239D01*
X0165757Y0024149D01*
X0165718Y0024060D01*
X0165675Y0023973D01*
X0165630Y0023887D01*
X0165580Y0023804D01*
X0165527Y0023722D01*
X0165471Y0023643D01*
X0165412Y0023566D01*
X0165350Y0023492D01*
X0165284Y0023420D01*
X0165216Y0023351D01*
X0165145Y0023285D01*
X0165072Y0023222D01*
X0164995Y0023162D01*
X0164917Y0023105D01*
X0164836Y0023052D01*
X0164753Y0023001D01*
X0164668Y0022955D01*
X0164581Y0022911D01*
X0164493Y0022872D01*
X0164403Y0022836D01*
X0164311Y0022804D01*
X0164218Y0022775D01*
X0164125Y0022751D01*
X0164030Y0022730D01*
X0163934Y0022713D01*
X0163838Y0022700D01*
X0163742Y0022691D01*
X0163645Y0022686D01*
X0163548Y0022685D01*
X0163451Y0022688D01*
X0163354Y0022695D01*
X0163258Y0022706D01*
X0163162Y0022721D01*
X0163067Y0022740D01*
X0162972Y0022762D01*
X0162879Y0022789D01*
X0162787Y0022819D01*
X0162696Y0022853D01*
X0162607Y0022891D01*
X0162519Y0022933D01*
X0162433Y0022978D01*
X0162349Y0023026D01*
X0162267Y0023078D01*
X0162188Y0023133D01*
X0162110Y0023192D01*
X0162035Y0023253D01*
X0161963Y0023318D01*
X0161893Y0023385D01*
X0161826Y0023456D01*
X0161763Y0023529D01*
X0161702Y0023604D01*
X0161644Y0023682D01*
X0161590Y0023763D01*
X0161539Y0023845D01*
X0161491Y0023930D01*
X0161447Y0024016D01*
X0161406Y0024104D01*
X0161370Y0024194D01*
X0161336Y0024285D01*
X0161307Y0024377D01*
X0161281Y0024471D01*
X0161260Y0024565D01*
X0161242Y0024661D01*
X0161228Y0024757D01*
X0161218Y0024853D01*
X0161212Y0024950D01*
X0161210Y0025047D01*
X0161210Y0034890D02*
X0161212Y0034987D01*
X0161218Y0035084D01*
X0161228Y0035180D01*
X0161242Y0035276D01*
X0161260Y0035372D01*
X0161281Y0035466D01*
X0161307Y0035560D01*
X0161336Y0035652D01*
X0161370Y0035743D01*
X0161406Y0035833D01*
X0161447Y0035921D01*
X0161491Y0036007D01*
X0161539Y0036092D01*
X0161590Y0036174D01*
X0161644Y0036255D01*
X0161702Y0036333D01*
X0161763Y0036408D01*
X0161826Y0036481D01*
X0161893Y0036552D01*
X0161963Y0036619D01*
X0162035Y0036684D01*
X0162110Y0036745D01*
X0162188Y0036804D01*
X0162267Y0036859D01*
X0162349Y0036911D01*
X0162433Y0036959D01*
X0162519Y0037004D01*
X0162607Y0037046D01*
X0162696Y0037084D01*
X0162787Y0037118D01*
X0162879Y0037148D01*
X0162972Y0037175D01*
X0163067Y0037197D01*
X0163162Y0037216D01*
X0163258Y0037231D01*
X0163354Y0037242D01*
X0163451Y0037249D01*
X0163548Y0037252D01*
X0163645Y0037251D01*
X0163742Y0037246D01*
X0163838Y0037237D01*
X0163934Y0037224D01*
X0164030Y0037207D01*
X0164125Y0037186D01*
X0164218Y0037162D01*
X0164311Y0037133D01*
X0164403Y0037101D01*
X0164493Y0037065D01*
X0164581Y0037026D01*
X0164668Y0036982D01*
X0164753Y0036936D01*
X0164836Y0036885D01*
X0164917Y0036832D01*
X0164995Y0036775D01*
X0165072Y0036715D01*
X0165145Y0036652D01*
X0165216Y0036586D01*
X0165284Y0036517D01*
X0165350Y0036445D01*
X0165412Y0036371D01*
X0165471Y0036294D01*
X0165527Y0036215D01*
X0165580Y0036133D01*
X0165630Y0036050D01*
X0165675Y0035964D01*
X0165718Y0035877D01*
X0165757Y0035788D01*
X0165792Y0035698D01*
X0165823Y0035606D01*
X0165850Y0035513D01*
X0165874Y0035419D01*
X0165894Y0035324D01*
X0165910Y0035228D01*
X0165922Y0035132D01*
X0165930Y0035035D01*
X0165934Y0034938D01*
X0165934Y0034842D01*
X0165930Y0034745D01*
X0165922Y0034648D01*
X0165910Y0034552D01*
X0165894Y0034456D01*
X0165874Y0034361D01*
X0165850Y0034267D01*
X0165823Y0034174D01*
X0165792Y0034082D01*
X0165757Y0033992D01*
X0165718Y0033903D01*
X0165675Y0033816D01*
X0165630Y0033730D01*
X0165580Y0033647D01*
X0165527Y0033565D01*
X0165471Y0033486D01*
X0165412Y0033409D01*
X0165350Y0033335D01*
X0165284Y0033263D01*
X0165216Y0033194D01*
X0165145Y0033128D01*
X0165072Y0033065D01*
X0164995Y0033005D01*
X0164917Y0032948D01*
X0164836Y0032895D01*
X0164753Y0032844D01*
X0164668Y0032798D01*
X0164581Y0032754D01*
X0164493Y0032715D01*
X0164403Y0032679D01*
X0164311Y0032647D01*
X0164218Y0032618D01*
X0164125Y0032594D01*
X0164030Y0032573D01*
X0163934Y0032556D01*
X0163838Y0032543D01*
X0163742Y0032534D01*
X0163645Y0032529D01*
X0163548Y0032528D01*
X0163451Y0032531D01*
X0163354Y0032538D01*
X0163258Y0032549D01*
X0163162Y0032564D01*
X0163067Y0032583D01*
X0162972Y0032605D01*
X0162879Y0032632D01*
X0162787Y0032662D01*
X0162696Y0032696D01*
X0162607Y0032734D01*
X0162519Y0032776D01*
X0162433Y0032821D01*
X0162349Y0032869D01*
X0162267Y0032921D01*
X0162188Y0032976D01*
X0162110Y0033035D01*
X0162035Y0033096D01*
X0161963Y0033161D01*
X0161893Y0033228D01*
X0161826Y0033299D01*
X0161763Y0033372D01*
X0161702Y0033447D01*
X0161644Y0033525D01*
X0161590Y0033606D01*
X0161539Y0033688D01*
X0161491Y0033773D01*
X0161447Y0033859D01*
X0161406Y0033947D01*
X0161370Y0034037D01*
X0161336Y0034128D01*
X0161307Y0034220D01*
X0161281Y0034314D01*
X0161260Y0034408D01*
X0161242Y0034504D01*
X0161228Y0034600D01*
X0161218Y0034696D01*
X0161212Y0034793D01*
X0161210Y0034890D01*
X0180895Y0054575D02*
X0180897Y0054672D01*
X0180903Y0054769D01*
X0180913Y0054865D01*
X0180927Y0054961D01*
X0180945Y0055057D01*
X0180966Y0055151D01*
X0180992Y0055245D01*
X0181021Y0055337D01*
X0181055Y0055428D01*
X0181091Y0055518D01*
X0181132Y0055606D01*
X0181176Y0055692D01*
X0181224Y0055777D01*
X0181275Y0055859D01*
X0181329Y0055940D01*
X0181387Y0056018D01*
X0181448Y0056093D01*
X0181511Y0056166D01*
X0181578Y0056237D01*
X0181648Y0056304D01*
X0181720Y0056369D01*
X0181795Y0056430D01*
X0181873Y0056489D01*
X0181952Y0056544D01*
X0182034Y0056596D01*
X0182118Y0056644D01*
X0182204Y0056689D01*
X0182292Y0056731D01*
X0182381Y0056769D01*
X0182472Y0056803D01*
X0182564Y0056833D01*
X0182657Y0056860D01*
X0182752Y0056882D01*
X0182847Y0056901D01*
X0182943Y0056916D01*
X0183039Y0056927D01*
X0183136Y0056934D01*
X0183233Y0056937D01*
X0183330Y0056936D01*
X0183427Y0056931D01*
X0183523Y0056922D01*
X0183619Y0056909D01*
X0183715Y0056892D01*
X0183810Y0056871D01*
X0183903Y0056847D01*
X0183996Y0056818D01*
X0184088Y0056786D01*
X0184178Y0056750D01*
X0184266Y0056711D01*
X0184353Y0056667D01*
X0184438Y0056621D01*
X0184521Y0056570D01*
X0184602Y0056517D01*
X0184680Y0056460D01*
X0184757Y0056400D01*
X0184830Y0056337D01*
X0184901Y0056271D01*
X0184969Y0056202D01*
X0185035Y0056130D01*
X0185097Y0056056D01*
X0185156Y0055979D01*
X0185212Y0055900D01*
X0185265Y0055818D01*
X0185315Y0055735D01*
X0185360Y0055649D01*
X0185403Y0055562D01*
X0185442Y0055473D01*
X0185477Y0055383D01*
X0185508Y0055291D01*
X0185535Y0055198D01*
X0185559Y0055104D01*
X0185579Y0055009D01*
X0185595Y0054913D01*
X0185607Y0054817D01*
X0185615Y0054720D01*
X0185619Y0054623D01*
X0185619Y0054527D01*
X0185615Y0054430D01*
X0185607Y0054333D01*
X0185595Y0054237D01*
X0185579Y0054141D01*
X0185559Y0054046D01*
X0185535Y0053952D01*
X0185508Y0053859D01*
X0185477Y0053767D01*
X0185442Y0053677D01*
X0185403Y0053588D01*
X0185360Y0053501D01*
X0185315Y0053415D01*
X0185265Y0053332D01*
X0185212Y0053250D01*
X0185156Y0053171D01*
X0185097Y0053094D01*
X0185035Y0053020D01*
X0184969Y0052948D01*
X0184901Y0052879D01*
X0184830Y0052813D01*
X0184757Y0052750D01*
X0184680Y0052690D01*
X0184602Y0052633D01*
X0184521Y0052580D01*
X0184438Y0052529D01*
X0184353Y0052483D01*
X0184266Y0052439D01*
X0184178Y0052400D01*
X0184088Y0052364D01*
X0183996Y0052332D01*
X0183903Y0052303D01*
X0183810Y0052279D01*
X0183715Y0052258D01*
X0183619Y0052241D01*
X0183523Y0052228D01*
X0183427Y0052219D01*
X0183330Y0052214D01*
X0183233Y0052213D01*
X0183136Y0052216D01*
X0183039Y0052223D01*
X0182943Y0052234D01*
X0182847Y0052249D01*
X0182752Y0052268D01*
X0182657Y0052290D01*
X0182564Y0052317D01*
X0182472Y0052347D01*
X0182381Y0052381D01*
X0182292Y0052419D01*
X0182204Y0052461D01*
X0182118Y0052506D01*
X0182034Y0052554D01*
X0181952Y0052606D01*
X0181873Y0052661D01*
X0181795Y0052720D01*
X0181720Y0052781D01*
X0181648Y0052846D01*
X0181578Y0052913D01*
X0181511Y0052984D01*
X0181448Y0053057D01*
X0181387Y0053132D01*
X0181329Y0053210D01*
X0181275Y0053291D01*
X0181224Y0053373D01*
X0181176Y0053458D01*
X0181132Y0053544D01*
X0181091Y0053632D01*
X0181055Y0053722D01*
X0181021Y0053813D01*
X0180992Y0053905D01*
X0180966Y0053999D01*
X0180945Y0054093D01*
X0180927Y0054189D01*
X0180913Y0054285D01*
X0180903Y0054381D01*
X0180897Y0054478D01*
X0180895Y0054575D01*
X0200580Y0034890D02*
X0200582Y0034987D01*
X0200588Y0035084D01*
X0200598Y0035180D01*
X0200612Y0035276D01*
X0200630Y0035372D01*
X0200651Y0035466D01*
X0200677Y0035560D01*
X0200706Y0035652D01*
X0200740Y0035743D01*
X0200776Y0035833D01*
X0200817Y0035921D01*
X0200861Y0036007D01*
X0200909Y0036092D01*
X0200960Y0036174D01*
X0201014Y0036255D01*
X0201072Y0036333D01*
X0201133Y0036408D01*
X0201196Y0036481D01*
X0201263Y0036552D01*
X0201333Y0036619D01*
X0201405Y0036684D01*
X0201480Y0036745D01*
X0201558Y0036804D01*
X0201637Y0036859D01*
X0201719Y0036911D01*
X0201803Y0036959D01*
X0201889Y0037004D01*
X0201977Y0037046D01*
X0202066Y0037084D01*
X0202157Y0037118D01*
X0202249Y0037148D01*
X0202342Y0037175D01*
X0202437Y0037197D01*
X0202532Y0037216D01*
X0202628Y0037231D01*
X0202724Y0037242D01*
X0202821Y0037249D01*
X0202918Y0037252D01*
X0203015Y0037251D01*
X0203112Y0037246D01*
X0203208Y0037237D01*
X0203304Y0037224D01*
X0203400Y0037207D01*
X0203495Y0037186D01*
X0203588Y0037162D01*
X0203681Y0037133D01*
X0203773Y0037101D01*
X0203863Y0037065D01*
X0203951Y0037026D01*
X0204038Y0036982D01*
X0204123Y0036936D01*
X0204206Y0036885D01*
X0204287Y0036832D01*
X0204365Y0036775D01*
X0204442Y0036715D01*
X0204515Y0036652D01*
X0204586Y0036586D01*
X0204654Y0036517D01*
X0204720Y0036445D01*
X0204782Y0036371D01*
X0204841Y0036294D01*
X0204897Y0036215D01*
X0204950Y0036133D01*
X0205000Y0036050D01*
X0205045Y0035964D01*
X0205088Y0035877D01*
X0205127Y0035788D01*
X0205162Y0035698D01*
X0205193Y0035606D01*
X0205220Y0035513D01*
X0205244Y0035419D01*
X0205264Y0035324D01*
X0205280Y0035228D01*
X0205292Y0035132D01*
X0205300Y0035035D01*
X0205304Y0034938D01*
X0205304Y0034842D01*
X0205300Y0034745D01*
X0205292Y0034648D01*
X0205280Y0034552D01*
X0205264Y0034456D01*
X0205244Y0034361D01*
X0205220Y0034267D01*
X0205193Y0034174D01*
X0205162Y0034082D01*
X0205127Y0033992D01*
X0205088Y0033903D01*
X0205045Y0033816D01*
X0205000Y0033730D01*
X0204950Y0033647D01*
X0204897Y0033565D01*
X0204841Y0033486D01*
X0204782Y0033409D01*
X0204720Y0033335D01*
X0204654Y0033263D01*
X0204586Y0033194D01*
X0204515Y0033128D01*
X0204442Y0033065D01*
X0204365Y0033005D01*
X0204287Y0032948D01*
X0204206Y0032895D01*
X0204123Y0032844D01*
X0204038Y0032798D01*
X0203951Y0032754D01*
X0203863Y0032715D01*
X0203773Y0032679D01*
X0203681Y0032647D01*
X0203588Y0032618D01*
X0203495Y0032594D01*
X0203400Y0032573D01*
X0203304Y0032556D01*
X0203208Y0032543D01*
X0203112Y0032534D01*
X0203015Y0032529D01*
X0202918Y0032528D01*
X0202821Y0032531D01*
X0202724Y0032538D01*
X0202628Y0032549D01*
X0202532Y0032564D01*
X0202437Y0032583D01*
X0202342Y0032605D01*
X0202249Y0032632D01*
X0202157Y0032662D01*
X0202066Y0032696D01*
X0201977Y0032734D01*
X0201889Y0032776D01*
X0201803Y0032821D01*
X0201719Y0032869D01*
X0201637Y0032921D01*
X0201558Y0032976D01*
X0201480Y0033035D01*
X0201405Y0033096D01*
X0201333Y0033161D01*
X0201263Y0033228D01*
X0201196Y0033299D01*
X0201133Y0033372D01*
X0201072Y0033447D01*
X0201014Y0033525D01*
X0200960Y0033606D01*
X0200909Y0033688D01*
X0200861Y0033773D01*
X0200817Y0033859D01*
X0200776Y0033947D01*
X0200740Y0034037D01*
X0200706Y0034128D01*
X0200677Y0034220D01*
X0200651Y0034314D01*
X0200630Y0034408D01*
X0200612Y0034504D01*
X0200598Y0034600D01*
X0200588Y0034696D01*
X0200582Y0034793D01*
X0200580Y0034890D01*
X0200580Y0025047D02*
X0200582Y0025144D01*
X0200588Y0025241D01*
X0200598Y0025337D01*
X0200612Y0025433D01*
X0200630Y0025529D01*
X0200651Y0025623D01*
X0200677Y0025717D01*
X0200706Y0025809D01*
X0200740Y0025900D01*
X0200776Y0025990D01*
X0200817Y0026078D01*
X0200861Y0026164D01*
X0200909Y0026249D01*
X0200960Y0026331D01*
X0201014Y0026412D01*
X0201072Y0026490D01*
X0201133Y0026565D01*
X0201196Y0026638D01*
X0201263Y0026709D01*
X0201333Y0026776D01*
X0201405Y0026841D01*
X0201480Y0026902D01*
X0201558Y0026961D01*
X0201637Y0027016D01*
X0201719Y0027068D01*
X0201803Y0027116D01*
X0201889Y0027161D01*
X0201977Y0027203D01*
X0202066Y0027241D01*
X0202157Y0027275D01*
X0202249Y0027305D01*
X0202342Y0027332D01*
X0202437Y0027354D01*
X0202532Y0027373D01*
X0202628Y0027388D01*
X0202724Y0027399D01*
X0202821Y0027406D01*
X0202918Y0027409D01*
X0203015Y0027408D01*
X0203112Y0027403D01*
X0203208Y0027394D01*
X0203304Y0027381D01*
X0203400Y0027364D01*
X0203495Y0027343D01*
X0203588Y0027319D01*
X0203681Y0027290D01*
X0203773Y0027258D01*
X0203863Y0027222D01*
X0203951Y0027183D01*
X0204038Y0027139D01*
X0204123Y0027093D01*
X0204206Y0027042D01*
X0204287Y0026989D01*
X0204365Y0026932D01*
X0204442Y0026872D01*
X0204515Y0026809D01*
X0204586Y0026743D01*
X0204654Y0026674D01*
X0204720Y0026602D01*
X0204782Y0026528D01*
X0204841Y0026451D01*
X0204897Y0026372D01*
X0204950Y0026290D01*
X0205000Y0026207D01*
X0205045Y0026121D01*
X0205088Y0026034D01*
X0205127Y0025945D01*
X0205162Y0025855D01*
X0205193Y0025763D01*
X0205220Y0025670D01*
X0205244Y0025576D01*
X0205264Y0025481D01*
X0205280Y0025385D01*
X0205292Y0025289D01*
X0205300Y0025192D01*
X0205304Y0025095D01*
X0205304Y0024999D01*
X0205300Y0024902D01*
X0205292Y0024805D01*
X0205280Y0024709D01*
X0205264Y0024613D01*
X0205244Y0024518D01*
X0205220Y0024424D01*
X0205193Y0024331D01*
X0205162Y0024239D01*
X0205127Y0024149D01*
X0205088Y0024060D01*
X0205045Y0023973D01*
X0205000Y0023887D01*
X0204950Y0023804D01*
X0204897Y0023722D01*
X0204841Y0023643D01*
X0204782Y0023566D01*
X0204720Y0023492D01*
X0204654Y0023420D01*
X0204586Y0023351D01*
X0204515Y0023285D01*
X0204442Y0023222D01*
X0204365Y0023162D01*
X0204287Y0023105D01*
X0204206Y0023052D01*
X0204123Y0023001D01*
X0204038Y0022955D01*
X0203951Y0022911D01*
X0203863Y0022872D01*
X0203773Y0022836D01*
X0203681Y0022804D01*
X0203588Y0022775D01*
X0203495Y0022751D01*
X0203400Y0022730D01*
X0203304Y0022713D01*
X0203208Y0022700D01*
X0203112Y0022691D01*
X0203015Y0022686D01*
X0202918Y0022685D01*
X0202821Y0022688D01*
X0202724Y0022695D01*
X0202628Y0022706D01*
X0202532Y0022721D01*
X0202437Y0022740D01*
X0202342Y0022762D01*
X0202249Y0022789D01*
X0202157Y0022819D01*
X0202066Y0022853D01*
X0201977Y0022891D01*
X0201889Y0022933D01*
X0201803Y0022978D01*
X0201719Y0023026D01*
X0201637Y0023078D01*
X0201558Y0023133D01*
X0201480Y0023192D01*
X0201405Y0023253D01*
X0201333Y0023318D01*
X0201263Y0023385D01*
X0201196Y0023456D01*
X0201133Y0023529D01*
X0201072Y0023604D01*
X0201014Y0023682D01*
X0200960Y0023763D01*
X0200909Y0023845D01*
X0200861Y0023930D01*
X0200817Y0024016D01*
X0200776Y0024104D01*
X0200740Y0024194D01*
X0200706Y0024285D01*
X0200677Y0024377D01*
X0200651Y0024471D01*
X0200630Y0024565D01*
X0200612Y0024661D01*
X0200598Y0024757D01*
X0200588Y0024853D01*
X0200582Y0024950D01*
X0200580Y0025047D01*
X0260895Y0114457D02*
X0260897Y0114554D01*
X0260903Y0114651D01*
X0260913Y0114747D01*
X0260927Y0114843D01*
X0260945Y0114939D01*
X0260966Y0115033D01*
X0260992Y0115127D01*
X0261021Y0115219D01*
X0261055Y0115310D01*
X0261091Y0115400D01*
X0261132Y0115488D01*
X0261176Y0115574D01*
X0261224Y0115659D01*
X0261275Y0115741D01*
X0261329Y0115822D01*
X0261387Y0115900D01*
X0261448Y0115975D01*
X0261511Y0116048D01*
X0261578Y0116119D01*
X0261648Y0116186D01*
X0261720Y0116251D01*
X0261795Y0116312D01*
X0261873Y0116371D01*
X0261952Y0116426D01*
X0262034Y0116478D01*
X0262118Y0116526D01*
X0262204Y0116571D01*
X0262292Y0116613D01*
X0262381Y0116651D01*
X0262472Y0116685D01*
X0262564Y0116715D01*
X0262657Y0116742D01*
X0262752Y0116764D01*
X0262847Y0116783D01*
X0262943Y0116798D01*
X0263039Y0116809D01*
X0263136Y0116816D01*
X0263233Y0116819D01*
X0263330Y0116818D01*
X0263427Y0116813D01*
X0263523Y0116804D01*
X0263619Y0116791D01*
X0263715Y0116774D01*
X0263810Y0116753D01*
X0263903Y0116729D01*
X0263996Y0116700D01*
X0264088Y0116668D01*
X0264178Y0116632D01*
X0264266Y0116593D01*
X0264353Y0116549D01*
X0264438Y0116503D01*
X0264521Y0116452D01*
X0264602Y0116399D01*
X0264680Y0116342D01*
X0264757Y0116282D01*
X0264830Y0116219D01*
X0264901Y0116153D01*
X0264969Y0116084D01*
X0265035Y0116012D01*
X0265097Y0115938D01*
X0265156Y0115861D01*
X0265212Y0115782D01*
X0265265Y0115700D01*
X0265315Y0115617D01*
X0265360Y0115531D01*
X0265403Y0115444D01*
X0265442Y0115355D01*
X0265477Y0115265D01*
X0265508Y0115173D01*
X0265535Y0115080D01*
X0265559Y0114986D01*
X0265579Y0114891D01*
X0265595Y0114795D01*
X0265607Y0114699D01*
X0265615Y0114602D01*
X0265619Y0114505D01*
X0265619Y0114409D01*
X0265615Y0114312D01*
X0265607Y0114215D01*
X0265595Y0114119D01*
X0265579Y0114023D01*
X0265559Y0113928D01*
X0265535Y0113834D01*
X0265508Y0113741D01*
X0265477Y0113649D01*
X0265442Y0113559D01*
X0265403Y0113470D01*
X0265360Y0113383D01*
X0265315Y0113297D01*
X0265265Y0113214D01*
X0265212Y0113132D01*
X0265156Y0113053D01*
X0265097Y0112976D01*
X0265035Y0112902D01*
X0264969Y0112830D01*
X0264901Y0112761D01*
X0264830Y0112695D01*
X0264757Y0112632D01*
X0264680Y0112572D01*
X0264602Y0112515D01*
X0264521Y0112462D01*
X0264438Y0112411D01*
X0264353Y0112365D01*
X0264266Y0112321D01*
X0264178Y0112282D01*
X0264088Y0112246D01*
X0263996Y0112214D01*
X0263903Y0112185D01*
X0263810Y0112161D01*
X0263715Y0112140D01*
X0263619Y0112123D01*
X0263523Y0112110D01*
X0263427Y0112101D01*
X0263330Y0112096D01*
X0263233Y0112095D01*
X0263136Y0112098D01*
X0263039Y0112105D01*
X0262943Y0112116D01*
X0262847Y0112131D01*
X0262752Y0112150D01*
X0262657Y0112172D01*
X0262564Y0112199D01*
X0262472Y0112229D01*
X0262381Y0112263D01*
X0262292Y0112301D01*
X0262204Y0112343D01*
X0262118Y0112388D01*
X0262034Y0112436D01*
X0261952Y0112488D01*
X0261873Y0112543D01*
X0261795Y0112602D01*
X0261720Y0112663D01*
X0261648Y0112728D01*
X0261578Y0112795D01*
X0261511Y0112866D01*
X0261448Y0112939D01*
X0261387Y0113014D01*
X0261329Y0113092D01*
X0261275Y0113173D01*
X0261224Y0113255D01*
X0261176Y0113340D01*
X0261132Y0113426D01*
X0261091Y0113514D01*
X0261055Y0113604D01*
X0261021Y0113695D01*
X0260992Y0113787D01*
X0260966Y0113881D01*
X0260945Y0113975D01*
X0260927Y0114071D01*
X0260913Y0114167D01*
X0260903Y0114263D01*
X0260897Y0114360D01*
X0260895Y0114457D01*
X0229399Y0212882D02*
X0229401Y0212979D01*
X0229407Y0213076D01*
X0229417Y0213172D01*
X0229431Y0213268D01*
X0229449Y0213364D01*
X0229470Y0213458D01*
X0229496Y0213552D01*
X0229525Y0213644D01*
X0229559Y0213735D01*
X0229595Y0213825D01*
X0229636Y0213913D01*
X0229680Y0213999D01*
X0229728Y0214084D01*
X0229779Y0214166D01*
X0229833Y0214247D01*
X0229891Y0214325D01*
X0229952Y0214400D01*
X0230015Y0214473D01*
X0230082Y0214544D01*
X0230152Y0214611D01*
X0230224Y0214676D01*
X0230299Y0214737D01*
X0230377Y0214796D01*
X0230456Y0214851D01*
X0230538Y0214903D01*
X0230622Y0214951D01*
X0230708Y0214996D01*
X0230796Y0215038D01*
X0230885Y0215076D01*
X0230976Y0215110D01*
X0231068Y0215140D01*
X0231161Y0215167D01*
X0231256Y0215189D01*
X0231351Y0215208D01*
X0231447Y0215223D01*
X0231543Y0215234D01*
X0231640Y0215241D01*
X0231737Y0215244D01*
X0231834Y0215243D01*
X0231931Y0215238D01*
X0232027Y0215229D01*
X0232123Y0215216D01*
X0232219Y0215199D01*
X0232314Y0215178D01*
X0232407Y0215154D01*
X0232500Y0215125D01*
X0232592Y0215093D01*
X0232682Y0215057D01*
X0232770Y0215018D01*
X0232857Y0214974D01*
X0232942Y0214928D01*
X0233025Y0214877D01*
X0233106Y0214824D01*
X0233184Y0214767D01*
X0233261Y0214707D01*
X0233334Y0214644D01*
X0233405Y0214578D01*
X0233473Y0214509D01*
X0233539Y0214437D01*
X0233601Y0214363D01*
X0233660Y0214286D01*
X0233716Y0214207D01*
X0233769Y0214125D01*
X0233819Y0214042D01*
X0233864Y0213956D01*
X0233907Y0213869D01*
X0233946Y0213780D01*
X0233981Y0213690D01*
X0234012Y0213598D01*
X0234039Y0213505D01*
X0234063Y0213411D01*
X0234083Y0213316D01*
X0234099Y0213220D01*
X0234111Y0213124D01*
X0234119Y0213027D01*
X0234123Y0212930D01*
X0234123Y0212834D01*
X0234119Y0212737D01*
X0234111Y0212640D01*
X0234099Y0212544D01*
X0234083Y0212448D01*
X0234063Y0212353D01*
X0234039Y0212259D01*
X0234012Y0212166D01*
X0233981Y0212074D01*
X0233946Y0211984D01*
X0233907Y0211895D01*
X0233864Y0211808D01*
X0233819Y0211722D01*
X0233769Y0211639D01*
X0233716Y0211557D01*
X0233660Y0211478D01*
X0233601Y0211401D01*
X0233539Y0211327D01*
X0233473Y0211255D01*
X0233405Y0211186D01*
X0233334Y0211120D01*
X0233261Y0211057D01*
X0233184Y0210997D01*
X0233106Y0210940D01*
X0233025Y0210887D01*
X0232942Y0210836D01*
X0232857Y0210790D01*
X0232770Y0210746D01*
X0232682Y0210707D01*
X0232592Y0210671D01*
X0232500Y0210639D01*
X0232407Y0210610D01*
X0232314Y0210586D01*
X0232219Y0210565D01*
X0232123Y0210548D01*
X0232027Y0210535D01*
X0231931Y0210526D01*
X0231834Y0210521D01*
X0231737Y0210520D01*
X0231640Y0210523D01*
X0231543Y0210530D01*
X0231447Y0210541D01*
X0231351Y0210556D01*
X0231256Y0210575D01*
X0231161Y0210597D01*
X0231068Y0210624D01*
X0230976Y0210654D01*
X0230885Y0210688D01*
X0230796Y0210726D01*
X0230708Y0210768D01*
X0230622Y0210813D01*
X0230538Y0210861D01*
X0230456Y0210913D01*
X0230377Y0210968D01*
X0230299Y0211027D01*
X0230224Y0211088D01*
X0230152Y0211153D01*
X0230082Y0211220D01*
X0230015Y0211291D01*
X0229952Y0211364D01*
X0229891Y0211439D01*
X0229833Y0211517D01*
X0229779Y0211598D01*
X0229728Y0211680D01*
X0229680Y0211765D01*
X0229636Y0211851D01*
X0229595Y0211939D01*
X0229559Y0212029D01*
X0229525Y0212120D01*
X0229496Y0212212D01*
X0229470Y0212306D01*
X0229449Y0212400D01*
X0229431Y0212496D01*
X0229417Y0212592D01*
X0229407Y0212688D01*
X0229401Y0212785D01*
X0229399Y0212882D01*
X0174281Y0189260D02*
X0174283Y0189357D01*
X0174289Y0189454D01*
X0174299Y0189550D01*
X0174313Y0189646D01*
X0174331Y0189742D01*
X0174352Y0189836D01*
X0174378Y0189930D01*
X0174407Y0190022D01*
X0174441Y0190113D01*
X0174477Y0190203D01*
X0174518Y0190291D01*
X0174562Y0190377D01*
X0174610Y0190462D01*
X0174661Y0190544D01*
X0174715Y0190625D01*
X0174773Y0190703D01*
X0174834Y0190778D01*
X0174897Y0190851D01*
X0174964Y0190922D01*
X0175034Y0190989D01*
X0175106Y0191054D01*
X0175181Y0191115D01*
X0175259Y0191174D01*
X0175338Y0191229D01*
X0175420Y0191281D01*
X0175504Y0191329D01*
X0175590Y0191374D01*
X0175678Y0191416D01*
X0175767Y0191454D01*
X0175858Y0191488D01*
X0175950Y0191518D01*
X0176043Y0191545D01*
X0176138Y0191567D01*
X0176233Y0191586D01*
X0176329Y0191601D01*
X0176425Y0191612D01*
X0176522Y0191619D01*
X0176619Y0191622D01*
X0176716Y0191621D01*
X0176813Y0191616D01*
X0176909Y0191607D01*
X0177005Y0191594D01*
X0177101Y0191577D01*
X0177196Y0191556D01*
X0177289Y0191532D01*
X0177382Y0191503D01*
X0177474Y0191471D01*
X0177564Y0191435D01*
X0177652Y0191396D01*
X0177739Y0191352D01*
X0177824Y0191306D01*
X0177907Y0191255D01*
X0177988Y0191202D01*
X0178066Y0191145D01*
X0178143Y0191085D01*
X0178216Y0191022D01*
X0178287Y0190956D01*
X0178355Y0190887D01*
X0178421Y0190815D01*
X0178483Y0190741D01*
X0178542Y0190664D01*
X0178598Y0190585D01*
X0178651Y0190503D01*
X0178701Y0190420D01*
X0178746Y0190334D01*
X0178789Y0190247D01*
X0178828Y0190158D01*
X0178863Y0190068D01*
X0178894Y0189976D01*
X0178921Y0189883D01*
X0178945Y0189789D01*
X0178965Y0189694D01*
X0178981Y0189598D01*
X0178993Y0189502D01*
X0179001Y0189405D01*
X0179005Y0189308D01*
X0179005Y0189212D01*
X0179001Y0189115D01*
X0178993Y0189018D01*
X0178981Y0188922D01*
X0178965Y0188826D01*
X0178945Y0188731D01*
X0178921Y0188637D01*
X0178894Y0188544D01*
X0178863Y0188452D01*
X0178828Y0188362D01*
X0178789Y0188273D01*
X0178746Y0188186D01*
X0178701Y0188100D01*
X0178651Y0188017D01*
X0178598Y0187935D01*
X0178542Y0187856D01*
X0178483Y0187779D01*
X0178421Y0187705D01*
X0178355Y0187633D01*
X0178287Y0187564D01*
X0178216Y0187498D01*
X0178143Y0187435D01*
X0178066Y0187375D01*
X0177988Y0187318D01*
X0177907Y0187265D01*
X0177824Y0187214D01*
X0177739Y0187168D01*
X0177652Y0187124D01*
X0177564Y0187085D01*
X0177474Y0187049D01*
X0177382Y0187017D01*
X0177289Y0186988D01*
X0177196Y0186964D01*
X0177101Y0186943D01*
X0177005Y0186926D01*
X0176909Y0186913D01*
X0176813Y0186904D01*
X0176716Y0186899D01*
X0176619Y0186898D01*
X0176522Y0186901D01*
X0176425Y0186908D01*
X0176329Y0186919D01*
X0176233Y0186934D01*
X0176138Y0186953D01*
X0176043Y0186975D01*
X0175950Y0187002D01*
X0175858Y0187032D01*
X0175767Y0187066D01*
X0175678Y0187104D01*
X0175590Y0187146D01*
X0175504Y0187191D01*
X0175420Y0187239D01*
X0175338Y0187291D01*
X0175259Y0187346D01*
X0175181Y0187405D01*
X0175106Y0187466D01*
X0175034Y0187531D01*
X0174964Y0187598D01*
X0174897Y0187669D01*
X0174834Y0187742D01*
X0174773Y0187817D01*
X0174715Y0187895D01*
X0174661Y0187976D01*
X0174610Y0188058D01*
X0174562Y0188143D01*
X0174518Y0188229D01*
X0174477Y0188317D01*
X0174441Y0188407D01*
X0174407Y0188498D01*
X0174378Y0188590D01*
X0174352Y0188684D01*
X0174331Y0188778D01*
X0174313Y0188874D01*
X0174299Y0188970D01*
X0174289Y0189066D01*
X0174283Y0189163D01*
X0174281Y0189260D01*
X0162470Y0130205D02*
X0162472Y0130302D01*
X0162478Y0130399D01*
X0162488Y0130495D01*
X0162502Y0130591D01*
X0162520Y0130687D01*
X0162541Y0130781D01*
X0162567Y0130875D01*
X0162596Y0130967D01*
X0162630Y0131058D01*
X0162666Y0131148D01*
X0162707Y0131236D01*
X0162751Y0131322D01*
X0162799Y0131407D01*
X0162850Y0131489D01*
X0162904Y0131570D01*
X0162962Y0131648D01*
X0163023Y0131723D01*
X0163086Y0131796D01*
X0163153Y0131867D01*
X0163223Y0131934D01*
X0163295Y0131999D01*
X0163370Y0132060D01*
X0163448Y0132119D01*
X0163527Y0132174D01*
X0163609Y0132226D01*
X0163693Y0132274D01*
X0163779Y0132319D01*
X0163867Y0132361D01*
X0163956Y0132399D01*
X0164047Y0132433D01*
X0164139Y0132463D01*
X0164232Y0132490D01*
X0164327Y0132512D01*
X0164422Y0132531D01*
X0164518Y0132546D01*
X0164614Y0132557D01*
X0164711Y0132564D01*
X0164808Y0132567D01*
X0164905Y0132566D01*
X0165002Y0132561D01*
X0165098Y0132552D01*
X0165194Y0132539D01*
X0165290Y0132522D01*
X0165385Y0132501D01*
X0165478Y0132477D01*
X0165571Y0132448D01*
X0165663Y0132416D01*
X0165753Y0132380D01*
X0165841Y0132341D01*
X0165928Y0132297D01*
X0166013Y0132251D01*
X0166096Y0132200D01*
X0166177Y0132147D01*
X0166255Y0132090D01*
X0166332Y0132030D01*
X0166405Y0131967D01*
X0166476Y0131901D01*
X0166544Y0131832D01*
X0166610Y0131760D01*
X0166672Y0131686D01*
X0166731Y0131609D01*
X0166787Y0131530D01*
X0166840Y0131448D01*
X0166890Y0131365D01*
X0166935Y0131279D01*
X0166978Y0131192D01*
X0167017Y0131103D01*
X0167052Y0131013D01*
X0167083Y0130921D01*
X0167110Y0130828D01*
X0167134Y0130734D01*
X0167154Y0130639D01*
X0167170Y0130543D01*
X0167182Y0130447D01*
X0167190Y0130350D01*
X0167194Y0130253D01*
X0167194Y0130157D01*
X0167190Y0130060D01*
X0167182Y0129963D01*
X0167170Y0129867D01*
X0167154Y0129771D01*
X0167134Y0129676D01*
X0167110Y0129582D01*
X0167083Y0129489D01*
X0167052Y0129397D01*
X0167017Y0129307D01*
X0166978Y0129218D01*
X0166935Y0129131D01*
X0166890Y0129045D01*
X0166840Y0128962D01*
X0166787Y0128880D01*
X0166731Y0128801D01*
X0166672Y0128724D01*
X0166610Y0128650D01*
X0166544Y0128578D01*
X0166476Y0128509D01*
X0166405Y0128443D01*
X0166332Y0128380D01*
X0166255Y0128320D01*
X0166177Y0128263D01*
X0166096Y0128210D01*
X0166013Y0128159D01*
X0165928Y0128113D01*
X0165841Y0128069D01*
X0165753Y0128030D01*
X0165663Y0127994D01*
X0165571Y0127962D01*
X0165478Y0127933D01*
X0165385Y0127909D01*
X0165290Y0127888D01*
X0165194Y0127871D01*
X0165098Y0127858D01*
X0165002Y0127849D01*
X0164905Y0127844D01*
X0164808Y0127843D01*
X0164711Y0127846D01*
X0164614Y0127853D01*
X0164518Y0127864D01*
X0164422Y0127879D01*
X0164327Y0127898D01*
X0164232Y0127920D01*
X0164139Y0127947D01*
X0164047Y0127977D01*
X0163956Y0128011D01*
X0163867Y0128049D01*
X0163779Y0128091D01*
X0163693Y0128136D01*
X0163609Y0128184D01*
X0163527Y0128236D01*
X0163448Y0128291D01*
X0163370Y0128350D01*
X0163295Y0128411D01*
X0163223Y0128476D01*
X0163153Y0128543D01*
X0163086Y0128614D01*
X0163023Y0128687D01*
X0162962Y0128762D01*
X0162904Y0128840D01*
X0162850Y0128921D01*
X0162799Y0129003D01*
X0162751Y0129088D01*
X0162707Y0129174D01*
X0162666Y0129262D01*
X0162630Y0129352D01*
X0162596Y0129443D01*
X0162567Y0129535D01*
X0162541Y0129629D01*
X0162520Y0129723D01*
X0162502Y0129819D01*
X0162488Y0129915D01*
X0162478Y0130011D01*
X0162472Y0130108D01*
X0162470Y0130205D01*
X0076761Y0467961D02*
X0076763Y0468045D01*
X0076769Y0468128D01*
X0076779Y0468211D01*
X0076793Y0468294D01*
X0076810Y0468376D01*
X0076832Y0468457D01*
X0076857Y0468536D01*
X0076886Y0468615D01*
X0076919Y0468692D01*
X0076955Y0468767D01*
X0076995Y0468841D01*
X0077038Y0468913D01*
X0077085Y0468982D01*
X0077135Y0469049D01*
X0077188Y0469114D01*
X0077244Y0469176D01*
X0077302Y0469236D01*
X0077364Y0469293D01*
X0077428Y0469346D01*
X0077495Y0469397D01*
X0077564Y0469444D01*
X0077635Y0469489D01*
X0077708Y0469529D01*
X0077783Y0469566D01*
X0077860Y0469600D01*
X0077938Y0469630D01*
X0078017Y0469656D01*
X0078098Y0469679D01*
X0078180Y0469697D01*
X0078262Y0469712D01*
X0078345Y0469723D01*
X0078428Y0469730D01*
X0078512Y0469733D01*
X0078596Y0469732D01*
X0078679Y0469727D01*
X0078763Y0469718D01*
X0078845Y0469705D01*
X0078927Y0469689D01*
X0079008Y0469668D01*
X0079089Y0469644D01*
X0079167Y0469616D01*
X0079245Y0469584D01*
X0079321Y0469548D01*
X0079395Y0469509D01*
X0079467Y0469467D01*
X0079537Y0469421D01*
X0079605Y0469372D01*
X0079670Y0469320D01*
X0079733Y0469265D01*
X0079793Y0469207D01*
X0079851Y0469146D01*
X0079905Y0469082D01*
X0079957Y0469016D01*
X0080005Y0468948D01*
X0080050Y0468877D01*
X0080091Y0468804D01*
X0080130Y0468730D01*
X0080164Y0468654D01*
X0080195Y0468576D01*
X0080222Y0468497D01*
X0080246Y0468416D01*
X0080265Y0468335D01*
X0080281Y0468253D01*
X0080293Y0468170D01*
X0080301Y0468086D01*
X0080305Y0468003D01*
X0080305Y0467919D01*
X0080301Y0467836D01*
X0080293Y0467752D01*
X0080281Y0467669D01*
X0080265Y0467587D01*
X0080246Y0467506D01*
X0080222Y0467425D01*
X0080195Y0467346D01*
X0080164Y0467268D01*
X0080130Y0467192D01*
X0080091Y0467118D01*
X0080050Y0467045D01*
X0080005Y0466974D01*
X0079957Y0466906D01*
X0079905Y0466840D01*
X0079851Y0466776D01*
X0079793Y0466715D01*
X0079733Y0466657D01*
X0079670Y0466602D01*
X0079605Y0466550D01*
X0079537Y0466501D01*
X0079467Y0466455D01*
X0079395Y0466413D01*
X0079321Y0466374D01*
X0079245Y0466338D01*
X0079167Y0466306D01*
X0079089Y0466278D01*
X0079008Y0466254D01*
X0078927Y0466233D01*
X0078845Y0466217D01*
X0078763Y0466204D01*
X0078679Y0466195D01*
X0078596Y0466190D01*
X0078512Y0466189D01*
X0078428Y0466192D01*
X0078345Y0466199D01*
X0078262Y0466210D01*
X0078180Y0466225D01*
X0078098Y0466243D01*
X0078017Y0466266D01*
X0077938Y0466292D01*
X0077860Y0466322D01*
X0077783Y0466356D01*
X0077708Y0466393D01*
X0077635Y0466433D01*
X0077564Y0466478D01*
X0077495Y0466525D01*
X0077428Y0466576D01*
X0077364Y0466629D01*
X0077302Y0466686D01*
X0077244Y0466746D01*
X0077188Y0466808D01*
X0077135Y0466873D01*
X0077085Y0466940D01*
X0077038Y0467009D01*
X0076995Y0467081D01*
X0076955Y0467155D01*
X0076919Y0467230D01*
X0076886Y0467307D01*
X0076857Y0467386D01*
X0076832Y0467465D01*
X0076810Y0467546D01*
X0076793Y0467628D01*
X0076779Y0467711D01*
X0076769Y0467794D01*
X0076763Y0467877D01*
X0076761Y0467961D01*
X0064950Y0467961D02*
X0064952Y0468045D01*
X0064958Y0468128D01*
X0064968Y0468211D01*
X0064982Y0468294D01*
X0064999Y0468376D01*
X0065021Y0468457D01*
X0065046Y0468536D01*
X0065075Y0468615D01*
X0065108Y0468692D01*
X0065144Y0468767D01*
X0065184Y0468841D01*
X0065227Y0468913D01*
X0065274Y0468982D01*
X0065324Y0469049D01*
X0065377Y0469114D01*
X0065433Y0469176D01*
X0065491Y0469236D01*
X0065553Y0469293D01*
X0065617Y0469346D01*
X0065684Y0469397D01*
X0065753Y0469444D01*
X0065824Y0469489D01*
X0065897Y0469529D01*
X0065972Y0469566D01*
X0066049Y0469600D01*
X0066127Y0469630D01*
X0066206Y0469656D01*
X0066287Y0469679D01*
X0066369Y0469697D01*
X0066451Y0469712D01*
X0066534Y0469723D01*
X0066617Y0469730D01*
X0066701Y0469733D01*
X0066785Y0469732D01*
X0066868Y0469727D01*
X0066952Y0469718D01*
X0067034Y0469705D01*
X0067116Y0469689D01*
X0067197Y0469668D01*
X0067278Y0469644D01*
X0067356Y0469616D01*
X0067434Y0469584D01*
X0067510Y0469548D01*
X0067584Y0469509D01*
X0067656Y0469467D01*
X0067726Y0469421D01*
X0067794Y0469372D01*
X0067859Y0469320D01*
X0067922Y0469265D01*
X0067982Y0469207D01*
X0068040Y0469146D01*
X0068094Y0469082D01*
X0068146Y0469016D01*
X0068194Y0468948D01*
X0068239Y0468877D01*
X0068280Y0468804D01*
X0068319Y0468730D01*
X0068353Y0468654D01*
X0068384Y0468576D01*
X0068411Y0468497D01*
X0068435Y0468416D01*
X0068454Y0468335D01*
X0068470Y0468253D01*
X0068482Y0468170D01*
X0068490Y0468086D01*
X0068494Y0468003D01*
X0068494Y0467919D01*
X0068490Y0467836D01*
X0068482Y0467752D01*
X0068470Y0467669D01*
X0068454Y0467587D01*
X0068435Y0467506D01*
X0068411Y0467425D01*
X0068384Y0467346D01*
X0068353Y0467268D01*
X0068319Y0467192D01*
X0068280Y0467118D01*
X0068239Y0467045D01*
X0068194Y0466974D01*
X0068146Y0466906D01*
X0068094Y0466840D01*
X0068040Y0466776D01*
X0067982Y0466715D01*
X0067922Y0466657D01*
X0067859Y0466602D01*
X0067794Y0466550D01*
X0067726Y0466501D01*
X0067656Y0466455D01*
X0067584Y0466413D01*
X0067510Y0466374D01*
X0067434Y0466338D01*
X0067356Y0466306D01*
X0067278Y0466278D01*
X0067197Y0466254D01*
X0067116Y0466233D01*
X0067034Y0466217D01*
X0066952Y0466204D01*
X0066868Y0466195D01*
X0066785Y0466190D01*
X0066701Y0466189D01*
X0066617Y0466192D01*
X0066534Y0466199D01*
X0066451Y0466210D01*
X0066369Y0466225D01*
X0066287Y0466243D01*
X0066206Y0466266D01*
X0066127Y0466292D01*
X0066049Y0466322D01*
X0065972Y0466356D01*
X0065897Y0466393D01*
X0065824Y0466433D01*
X0065753Y0466478D01*
X0065684Y0466525D01*
X0065617Y0466576D01*
X0065553Y0466629D01*
X0065491Y0466686D01*
X0065433Y0466746D01*
X0065377Y0466808D01*
X0065324Y0466873D01*
X0065274Y0466940D01*
X0065227Y0467009D01*
X0065184Y0467081D01*
X0065144Y0467155D01*
X0065108Y0467230D01*
X0065075Y0467307D01*
X0065046Y0467386D01*
X0065021Y0467465D01*
X0064999Y0467546D01*
X0064982Y0467628D01*
X0064968Y0467711D01*
X0064958Y0467794D01*
X0064952Y0467877D01*
X0064950Y0467961D01*
D11*
X0031683Y0439614D02*
X0031685Y0439757D01*
X0031691Y0439900D01*
X0031701Y0440042D01*
X0031715Y0440184D01*
X0031733Y0440326D01*
X0031755Y0440468D01*
X0031780Y0440608D01*
X0031810Y0440748D01*
X0031844Y0440887D01*
X0031881Y0441025D01*
X0031923Y0441162D01*
X0031968Y0441297D01*
X0032017Y0441431D01*
X0032069Y0441564D01*
X0032125Y0441696D01*
X0032185Y0441825D01*
X0032249Y0441953D01*
X0032316Y0442080D01*
X0032387Y0442204D01*
X0032461Y0442326D01*
X0032538Y0442446D01*
X0032619Y0442564D01*
X0032703Y0442680D01*
X0032790Y0442793D01*
X0032880Y0442904D01*
X0032974Y0443012D01*
X0033070Y0443118D01*
X0033169Y0443220D01*
X0033272Y0443320D01*
X0033376Y0443417D01*
X0033484Y0443512D01*
X0033594Y0443603D01*
X0033707Y0443691D01*
X0033822Y0443775D01*
X0033939Y0443857D01*
X0034059Y0443935D01*
X0034180Y0444010D01*
X0034304Y0444082D01*
X0034430Y0444150D01*
X0034557Y0444214D01*
X0034687Y0444275D01*
X0034818Y0444332D01*
X0034950Y0444386D01*
X0035084Y0444435D01*
X0035219Y0444482D01*
X0035356Y0444524D01*
X0035494Y0444562D01*
X0035632Y0444597D01*
X0035772Y0444627D01*
X0035912Y0444654D01*
X0036053Y0444677D01*
X0036195Y0444696D01*
X0036337Y0444711D01*
X0036480Y0444722D01*
X0036622Y0444729D01*
X0036765Y0444732D01*
X0036908Y0444731D01*
X0037051Y0444726D01*
X0037194Y0444717D01*
X0037336Y0444704D01*
X0037478Y0444687D01*
X0037619Y0444666D01*
X0037760Y0444641D01*
X0037900Y0444613D01*
X0038039Y0444580D01*
X0038177Y0444543D01*
X0038314Y0444503D01*
X0038450Y0444459D01*
X0038585Y0444411D01*
X0038718Y0444359D01*
X0038850Y0444304D01*
X0038980Y0444245D01*
X0039109Y0444182D01*
X0039235Y0444116D01*
X0039360Y0444046D01*
X0039483Y0443973D01*
X0039603Y0443897D01*
X0039722Y0443817D01*
X0039838Y0443733D01*
X0039952Y0443647D01*
X0040063Y0443557D01*
X0040172Y0443465D01*
X0040278Y0443369D01*
X0040382Y0443271D01*
X0040483Y0443169D01*
X0040580Y0443065D01*
X0040675Y0442958D01*
X0040767Y0442849D01*
X0040856Y0442737D01*
X0040942Y0442622D01*
X0041024Y0442506D01*
X0041103Y0442386D01*
X0041179Y0442265D01*
X0041251Y0442142D01*
X0041320Y0442017D01*
X0041385Y0441890D01*
X0041447Y0441761D01*
X0041505Y0441630D01*
X0041560Y0441498D01*
X0041610Y0441364D01*
X0041657Y0441229D01*
X0041701Y0441093D01*
X0041740Y0440956D01*
X0041775Y0440817D01*
X0041807Y0440678D01*
X0041835Y0440538D01*
X0041859Y0440397D01*
X0041879Y0440255D01*
X0041895Y0440113D01*
X0041907Y0439971D01*
X0041915Y0439828D01*
X0041919Y0439685D01*
X0041919Y0439543D01*
X0041915Y0439400D01*
X0041907Y0439257D01*
X0041895Y0439115D01*
X0041879Y0438973D01*
X0041859Y0438831D01*
X0041835Y0438690D01*
X0041807Y0438550D01*
X0041775Y0438411D01*
X0041740Y0438272D01*
X0041701Y0438135D01*
X0041657Y0437999D01*
X0041610Y0437864D01*
X0041560Y0437730D01*
X0041505Y0437598D01*
X0041447Y0437467D01*
X0041385Y0437338D01*
X0041320Y0437211D01*
X0041251Y0437086D01*
X0041179Y0436963D01*
X0041103Y0436842D01*
X0041024Y0436722D01*
X0040942Y0436606D01*
X0040856Y0436491D01*
X0040767Y0436379D01*
X0040675Y0436270D01*
X0040580Y0436163D01*
X0040483Y0436059D01*
X0040382Y0435957D01*
X0040278Y0435859D01*
X0040172Y0435763D01*
X0040063Y0435671D01*
X0039952Y0435581D01*
X0039838Y0435495D01*
X0039722Y0435411D01*
X0039603Y0435331D01*
X0039483Y0435255D01*
X0039360Y0435182D01*
X0039235Y0435112D01*
X0039109Y0435046D01*
X0038980Y0434983D01*
X0038850Y0434924D01*
X0038718Y0434869D01*
X0038585Y0434817D01*
X0038450Y0434769D01*
X0038314Y0434725D01*
X0038177Y0434685D01*
X0038039Y0434648D01*
X0037900Y0434615D01*
X0037760Y0434587D01*
X0037619Y0434562D01*
X0037478Y0434541D01*
X0037336Y0434524D01*
X0037194Y0434511D01*
X0037051Y0434502D01*
X0036908Y0434497D01*
X0036765Y0434496D01*
X0036622Y0434499D01*
X0036480Y0434506D01*
X0036337Y0434517D01*
X0036195Y0434532D01*
X0036053Y0434551D01*
X0035912Y0434574D01*
X0035772Y0434601D01*
X0035632Y0434631D01*
X0035494Y0434666D01*
X0035356Y0434704D01*
X0035219Y0434746D01*
X0035084Y0434793D01*
X0034950Y0434842D01*
X0034818Y0434896D01*
X0034687Y0434953D01*
X0034557Y0435014D01*
X0034430Y0435078D01*
X0034304Y0435146D01*
X0034180Y0435218D01*
X0034059Y0435293D01*
X0033939Y0435371D01*
X0033822Y0435453D01*
X0033707Y0435537D01*
X0033594Y0435625D01*
X0033484Y0435716D01*
X0033376Y0435811D01*
X0033272Y0435908D01*
X0033169Y0436008D01*
X0033070Y0436110D01*
X0032974Y0436216D01*
X0032880Y0436324D01*
X0032790Y0436435D01*
X0032703Y0436548D01*
X0032619Y0436664D01*
X0032538Y0436782D01*
X0032461Y0436902D01*
X0032387Y0437024D01*
X0032316Y0437148D01*
X0032249Y0437275D01*
X0032185Y0437403D01*
X0032125Y0437532D01*
X0032069Y0437664D01*
X0032017Y0437797D01*
X0031968Y0437931D01*
X0031923Y0438066D01*
X0031881Y0438203D01*
X0031844Y0438341D01*
X0031810Y0438480D01*
X0031780Y0438620D01*
X0031755Y0438760D01*
X0031733Y0438902D01*
X0031715Y0439044D01*
X0031701Y0439186D01*
X0031691Y0439328D01*
X0031685Y0439471D01*
X0031683Y0439614D01*
X0138769Y0151425D02*
X0138771Y0151568D01*
X0138777Y0151711D01*
X0138787Y0151853D01*
X0138801Y0151995D01*
X0138819Y0152137D01*
X0138841Y0152279D01*
X0138866Y0152419D01*
X0138896Y0152559D01*
X0138930Y0152698D01*
X0138967Y0152836D01*
X0139009Y0152973D01*
X0139054Y0153108D01*
X0139103Y0153242D01*
X0139155Y0153375D01*
X0139211Y0153507D01*
X0139271Y0153636D01*
X0139335Y0153764D01*
X0139402Y0153891D01*
X0139473Y0154015D01*
X0139547Y0154137D01*
X0139624Y0154257D01*
X0139705Y0154375D01*
X0139789Y0154491D01*
X0139876Y0154604D01*
X0139966Y0154715D01*
X0140060Y0154823D01*
X0140156Y0154929D01*
X0140255Y0155031D01*
X0140358Y0155131D01*
X0140462Y0155228D01*
X0140570Y0155323D01*
X0140680Y0155414D01*
X0140793Y0155502D01*
X0140908Y0155586D01*
X0141025Y0155668D01*
X0141145Y0155746D01*
X0141266Y0155821D01*
X0141390Y0155893D01*
X0141516Y0155961D01*
X0141643Y0156025D01*
X0141773Y0156086D01*
X0141904Y0156143D01*
X0142036Y0156197D01*
X0142170Y0156246D01*
X0142305Y0156293D01*
X0142442Y0156335D01*
X0142580Y0156373D01*
X0142718Y0156408D01*
X0142858Y0156438D01*
X0142998Y0156465D01*
X0143139Y0156488D01*
X0143281Y0156507D01*
X0143423Y0156522D01*
X0143566Y0156533D01*
X0143708Y0156540D01*
X0143851Y0156543D01*
X0143994Y0156542D01*
X0144137Y0156537D01*
X0144280Y0156528D01*
X0144422Y0156515D01*
X0144564Y0156498D01*
X0144705Y0156477D01*
X0144846Y0156452D01*
X0144986Y0156424D01*
X0145125Y0156391D01*
X0145263Y0156354D01*
X0145400Y0156314D01*
X0145536Y0156270D01*
X0145671Y0156222D01*
X0145804Y0156170D01*
X0145936Y0156115D01*
X0146066Y0156056D01*
X0146195Y0155993D01*
X0146321Y0155927D01*
X0146446Y0155857D01*
X0146569Y0155784D01*
X0146689Y0155708D01*
X0146808Y0155628D01*
X0146924Y0155544D01*
X0147038Y0155458D01*
X0147149Y0155368D01*
X0147258Y0155276D01*
X0147364Y0155180D01*
X0147468Y0155082D01*
X0147569Y0154980D01*
X0147666Y0154876D01*
X0147761Y0154769D01*
X0147853Y0154660D01*
X0147942Y0154548D01*
X0148028Y0154433D01*
X0148110Y0154317D01*
X0148189Y0154197D01*
X0148265Y0154076D01*
X0148337Y0153953D01*
X0148406Y0153828D01*
X0148471Y0153701D01*
X0148533Y0153572D01*
X0148591Y0153441D01*
X0148646Y0153309D01*
X0148696Y0153175D01*
X0148743Y0153040D01*
X0148787Y0152904D01*
X0148826Y0152767D01*
X0148861Y0152628D01*
X0148893Y0152489D01*
X0148921Y0152349D01*
X0148945Y0152208D01*
X0148965Y0152066D01*
X0148981Y0151924D01*
X0148993Y0151782D01*
X0149001Y0151639D01*
X0149005Y0151496D01*
X0149005Y0151354D01*
X0149001Y0151211D01*
X0148993Y0151068D01*
X0148981Y0150926D01*
X0148965Y0150784D01*
X0148945Y0150642D01*
X0148921Y0150501D01*
X0148893Y0150361D01*
X0148861Y0150222D01*
X0148826Y0150083D01*
X0148787Y0149946D01*
X0148743Y0149810D01*
X0148696Y0149675D01*
X0148646Y0149541D01*
X0148591Y0149409D01*
X0148533Y0149278D01*
X0148471Y0149149D01*
X0148406Y0149022D01*
X0148337Y0148897D01*
X0148265Y0148774D01*
X0148189Y0148653D01*
X0148110Y0148533D01*
X0148028Y0148417D01*
X0147942Y0148302D01*
X0147853Y0148190D01*
X0147761Y0148081D01*
X0147666Y0147974D01*
X0147569Y0147870D01*
X0147468Y0147768D01*
X0147364Y0147670D01*
X0147258Y0147574D01*
X0147149Y0147482D01*
X0147038Y0147392D01*
X0146924Y0147306D01*
X0146808Y0147222D01*
X0146689Y0147142D01*
X0146569Y0147066D01*
X0146446Y0146993D01*
X0146321Y0146923D01*
X0146195Y0146857D01*
X0146066Y0146794D01*
X0145936Y0146735D01*
X0145804Y0146680D01*
X0145671Y0146628D01*
X0145536Y0146580D01*
X0145400Y0146536D01*
X0145263Y0146496D01*
X0145125Y0146459D01*
X0144986Y0146426D01*
X0144846Y0146398D01*
X0144705Y0146373D01*
X0144564Y0146352D01*
X0144422Y0146335D01*
X0144280Y0146322D01*
X0144137Y0146313D01*
X0143994Y0146308D01*
X0143851Y0146307D01*
X0143708Y0146310D01*
X0143566Y0146317D01*
X0143423Y0146328D01*
X0143281Y0146343D01*
X0143139Y0146362D01*
X0142998Y0146385D01*
X0142858Y0146412D01*
X0142718Y0146442D01*
X0142580Y0146477D01*
X0142442Y0146515D01*
X0142305Y0146557D01*
X0142170Y0146604D01*
X0142036Y0146653D01*
X0141904Y0146707D01*
X0141773Y0146764D01*
X0141643Y0146825D01*
X0141516Y0146889D01*
X0141390Y0146957D01*
X0141266Y0147029D01*
X0141145Y0147104D01*
X0141025Y0147182D01*
X0140908Y0147264D01*
X0140793Y0147348D01*
X0140680Y0147436D01*
X0140570Y0147527D01*
X0140462Y0147622D01*
X0140358Y0147719D01*
X0140255Y0147819D01*
X0140156Y0147921D01*
X0140060Y0148027D01*
X0139966Y0148135D01*
X0139876Y0148246D01*
X0139789Y0148359D01*
X0139705Y0148475D01*
X0139624Y0148593D01*
X0139547Y0148713D01*
X0139473Y0148835D01*
X0139402Y0148959D01*
X0139335Y0149086D01*
X0139271Y0149214D01*
X0139211Y0149343D01*
X0139155Y0149475D01*
X0139103Y0149608D01*
X0139054Y0149742D01*
X0139009Y0149877D01*
X0138967Y0150014D01*
X0138930Y0150152D01*
X0138896Y0150291D01*
X0138866Y0150431D01*
X0138841Y0150571D01*
X0138819Y0150713D01*
X0138801Y0150855D01*
X0138787Y0150997D01*
X0138777Y0151139D01*
X0138771Y0151282D01*
X0138769Y0151425D01*
X0117509Y0126228D02*
X0117511Y0126371D01*
X0117517Y0126514D01*
X0117527Y0126656D01*
X0117541Y0126798D01*
X0117559Y0126940D01*
X0117581Y0127082D01*
X0117606Y0127222D01*
X0117636Y0127362D01*
X0117670Y0127501D01*
X0117707Y0127639D01*
X0117749Y0127776D01*
X0117794Y0127911D01*
X0117843Y0128045D01*
X0117895Y0128178D01*
X0117951Y0128310D01*
X0118011Y0128439D01*
X0118075Y0128567D01*
X0118142Y0128694D01*
X0118213Y0128818D01*
X0118287Y0128940D01*
X0118364Y0129060D01*
X0118445Y0129178D01*
X0118529Y0129294D01*
X0118616Y0129407D01*
X0118706Y0129518D01*
X0118800Y0129626D01*
X0118896Y0129732D01*
X0118995Y0129834D01*
X0119098Y0129934D01*
X0119202Y0130031D01*
X0119310Y0130126D01*
X0119420Y0130217D01*
X0119533Y0130305D01*
X0119648Y0130389D01*
X0119765Y0130471D01*
X0119885Y0130549D01*
X0120006Y0130624D01*
X0120130Y0130696D01*
X0120256Y0130764D01*
X0120383Y0130828D01*
X0120513Y0130889D01*
X0120644Y0130946D01*
X0120776Y0131000D01*
X0120910Y0131049D01*
X0121045Y0131096D01*
X0121182Y0131138D01*
X0121320Y0131176D01*
X0121458Y0131211D01*
X0121598Y0131241D01*
X0121738Y0131268D01*
X0121879Y0131291D01*
X0122021Y0131310D01*
X0122163Y0131325D01*
X0122306Y0131336D01*
X0122448Y0131343D01*
X0122591Y0131346D01*
X0122734Y0131345D01*
X0122877Y0131340D01*
X0123020Y0131331D01*
X0123162Y0131318D01*
X0123304Y0131301D01*
X0123445Y0131280D01*
X0123586Y0131255D01*
X0123726Y0131227D01*
X0123865Y0131194D01*
X0124003Y0131157D01*
X0124140Y0131117D01*
X0124276Y0131073D01*
X0124411Y0131025D01*
X0124544Y0130973D01*
X0124676Y0130918D01*
X0124806Y0130859D01*
X0124935Y0130796D01*
X0125061Y0130730D01*
X0125186Y0130660D01*
X0125309Y0130587D01*
X0125429Y0130511D01*
X0125548Y0130431D01*
X0125664Y0130347D01*
X0125778Y0130261D01*
X0125889Y0130171D01*
X0125998Y0130079D01*
X0126104Y0129983D01*
X0126208Y0129885D01*
X0126309Y0129783D01*
X0126406Y0129679D01*
X0126501Y0129572D01*
X0126593Y0129463D01*
X0126682Y0129351D01*
X0126768Y0129236D01*
X0126850Y0129120D01*
X0126929Y0129000D01*
X0127005Y0128879D01*
X0127077Y0128756D01*
X0127146Y0128631D01*
X0127211Y0128504D01*
X0127273Y0128375D01*
X0127331Y0128244D01*
X0127386Y0128112D01*
X0127436Y0127978D01*
X0127483Y0127843D01*
X0127527Y0127707D01*
X0127566Y0127570D01*
X0127601Y0127431D01*
X0127633Y0127292D01*
X0127661Y0127152D01*
X0127685Y0127011D01*
X0127705Y0126869D01*
X0127721Y0126727D01*
X0127733Y0126585D01*
X0127741Y0126442D01*
X0127745Y0126299D01*
X0127745Y0126157D01*
X0127741Y0126014D01*
X0127733Y0125871D01*
X0127721Y0125729D01*
X0127705Y0125587D01*
X0127685Y0125445D01*
X0127661Y0125304D01*
X0127633Y0125164D01*
X0127601Y0125025D01*
X0127566Y0124886D01*
X0127527Y0124749D01*
X0127483Y0124613D01*
X0127436Y0124478D01*
X0127386Y0124344D01*
X0127331Y0124212D01*
X0127273Y0124081D01*
X0127211Y0123952D01*
X0127146Y0123825D01*
X0127077Y0123700D01*
X0127005Y0123577D01*
X0126929Y0123456D01*
X0126850Y0123336D01*
X0126768Y0123220D01*
X0126682Y0123105D01*
X0126593Y0122993D01*
X0126501Y0122884D01*
X0126406Y0122777D01*
X0126309Y0122673D01*
X0126208Y0122571D01*
X0126104Y0122473D01*
X0125998Y0122377D01*
X0125889Y0122285D01*
X0125778Y0122195D01*
X0125664Y0122109D01*
X0125548Y0122025D01*
X0125429Y0121945D01*
X0125309Y0121869D01*
X0125186Y0121796D01*
X0125061Y0121726D01*
X0124935Y0121660D01*
X0124806Y0121597D01*
X0124676Y0121538D01*
X0124544Y0121483D01*
X0124411Y0121431D01*
X0124276Y0121383D01*
X0124140Y0121339D01*
X0124003Y0121299D01*
X0123865Y0121262D01*
X0123726Y0121229D01*
X0123586Y0121201D01*
X0123445Y0121176D01*
X0123304Y0121155D01*
X0123162Y0121138D01*
X0123020Y0121125D01*
X0122877Y0121116D01*
X0122734Y0121111D01*
X0122591Y0121110D01*
X0122448Y0121113D01*
X0122306Y0121120D01*
X0122163Y0121131D01*
X0122021Y0121146D01*
X0121879Y0121165D01*
X0121738Y0121188D01*
X0121598Y0121215D01*
X0121458Y0121245D01*
X0121320Y0121280D01*
X0121182Y0121318D01*
X0121045Y0121360D01*
X0120910Y0121407D01*
X0120776Y0121456D01*
X0120644Y0121510D01*
X0120513Y0121567D01*
X0120383Y0121628D01*
X0120256Y0121692D01*
X0120130Y0121760D01*
X0120006Y0121832D01*
X0119885Y0121907D01*
X0119765Y0121985D01*
X0119648Y0122067D01*
X0119533Y0122151D01*
X0119420Y0122239D01*
X0119310Y0122330D01*
X0119202Y0122425D01*
X0119098Y0122522D01*
X0118995Y0122622D01*
X0118896Y0122724D01*
X0118800Y0122830D01*
X0118706Y0122938D01*
X0118616Y0123049D01*
X0118529Y0123162D01*
X0118445Y0123278D01*
X0118364Y0123396D01*
X0118287Y0123516D01*
X0118213Y0123638D01*
X0118142Y0123762D01*
X0118075Y0123889D01*
X0118011Y0124017D01*
X0117951Y0124146D01*
X0117895Y0124278D01*
X0117843Y0124411D01*
X0117794Y0124545D01*
X0117749Y0124680D01*
X0117707Y0124817D01*
X0117670Y0124955D01*
X0117636Y0125094D01*
X0117606Y0125234D01*
X0117581Y0125374D01*
X0117559Y0125516D01*
X0117541Y0125658D01*
X0117527Y0125800D01*
X0117517Y0125942D01*
X0117511Y0126085D01*
X0117509Y0126228D01*
X0113572Y0107331D02*
X0113574Y0107474D01*
X0113580Y0107617D01*
X0113590Y0107759D01*
X0113604Y0107901D01*
X0113622Y0108043D01*
X0113644Y0108185D01*
X0113669Y0108325D01*
X0113699Y0108465D01*
X0113733Y0108604D01*
X0113770Y0108742D01*
X0113812Y0108879D01*
X0113857Y0109014D01*
X0113906Y0109148D01*
X0113958Y0109281D01*
X0114014Y0109413D01*
X0114074Y0109542D01*
X0114138Y0109670D01*
X0114205Y0109797D01*
X0114276Y0109921D01*
X0114350Y0110043D01*
X0114427Y0110163D01*
X0114508Y0110281D01*
X0114592Y0110397D01*
X0114679Y0110510D01*
X0114769Y0110621D01*
X0114863Y0110729D01*
X0114959Y0110835D01*
X0115058Y0110937D01*
X0115161Y0111037D01*
X0115265Y0111134D01*
X0115373Y0111229D01*
X0115483Y0111320D01*
X0115596Y0111408D01*
X0115711Y0111492D01*
X0115828Y0111574D01*
X0115948Y0111652D01*
X0116069Y0111727D01*
X0116193Y0111799D01*
X0116319Y0111867D01*
X0116446Y0111931D01*
X0116576Y0111992D01*
X0116707Y0112049D01*
X0116839Y0112103D01*
X0116973Y0112152D01*
X0117108Y0112199D01*
X0117245Y0112241D01*
X0117383Y0112279D01*
X0117521Y0112314D01*
X0117661Y0112344D01*
X0117801Y0112371D01*
X0117942Y0112394D01*
X0118084Y0112413D01*
X0118226Y0112428D01*
X0118369Y0112439D01*
X0118511Y0112446D01*
X0118654Y0112449D01*
X0118797Y0112448D01*
X0118940Y0112443D01*
X0119083Y0112434D01*
X0119225Y0112421D01*
X0119367Y0112404D01*
X0119508Y0112383D01*
X0119649Y0112358D01*
X0119789Y0112330D01*
X0119928Y0112297D01*
X0120066Y0112260D01*
X0120203Y0112220D01*
X0120339Y0112176D01*
X0120474Y0112128D01*
X0120607Y0112076D01*
X0120739Y0112021D01*
X0120869Y0111962D01*
X0120998Y0111899D01*
X0121124Y0111833D01*
X0121249Y0111763D01*
X0121372Y0111690D01*
X0121492Y0111614D01*
X0121611Y0111534D01*
X0121727Y0111450D01*
X0121841Y0111364D01*
X0121952Y0111274D01*
X0122061Y0111182D01*
X0122167Y0111086D01*
X0122271Y0110988D01*
X0122372Y0110886D01*
X0122469Y0110782D01*
X0122564Y0110675D01*
X0122656Y0110566D01*
X0122745Y0110454D01*
X0122831Y0110339D01*
X0122913Y0110223D01*
X0122992Y0110103D01*
X0123068Y0109982D01*
X0123140Y0109859D01*
X0123209Y0109734D01*
X0123274Y0109607D01*
X0123336Y0109478D01*
X0123394Y0109347D01*
X0123449Y0109215D01*
X0123499Y0109081D01*
X0123546Y0108946D01*
X0123590Y0108810D01*
X0123629Y0108673D01*
X0123664Y0108534D01*
X0123696Y0108395D01*
X0123724Y0108255D01*
X0123748Y0108114D01*
X0123768Y0107972D01*
X0123784Y0107830D01*
X0123796Y0107688D01*
X0123804Y0107545D01*
X0123808Y0107402D01*
X0123808Y0107260D01*
X0123804Y0107117D01*
X0123796Y0106974D01*
X0123784Y0106832D01*
X0123768Y0106690D01*
X0123748Y0106548D01*
X0123724Y0106407D01*
X0123696Y0106267D01*
X0123664Y0106128D01*
X0123629Y0105989D01*
X0123590Y0105852D01*
X0123546Y0105716D01*
X0123499Y0105581D01*
X0123449Y0105447D01*
X0123394Y0105315D01*
X0123336Y0105184D01*
X0123274Y0105055D01*
X0123209Y0104928D01*
X0123140Y0104803D01*
X0123068Y0104680D01*
X0122992Y0104559D01*
X0122913Y0104439D01*
X0122831Y0104323D01*
X0122745Y0104208D01*
X0122656Y0104096D01*
X0122564Y0103987D01*
X0122469Y0103880D01*
X0122372Y0103776D01*
X0122271Y0103674D01*
X0122167Y0103576D01*
X0122061Y0103480D01*
X0121952Y0103388D01*
X0121841Y0103298D01*
X0121727Y0103212D01*
X0121611Y0103128D01*
X0121492Y0103048D01*
X0121372Y0102972D01*
X0121249Y0102899D01*
X0121124Y0102829D01*
X0120998Y0102763D01*
X0120869Y0102700D01*
X0120739Y0102641D01*
X0120607Y0102586D01*
X0120474Y0102534D01*
X0120339Y0102486D01*
X0120203Y0102442D01*
X0120066Y0102402D01*
X0119928Y0102365D01*
X0119789Y0102332D01*
X0119649Y0102304D01*
X0119508Y0102279D01*
X0119367Y0102258D01*
X0119225Y0102241D01*
X0119083Y0102228D01*
X0118940Y0102219D01*
X0118797Y0102214D01*
X0118654Y0102213D01*
X0118511Y0102216D01*
X0118369Y0102223D01*
X0118226Y0102234D01*
X0118084Y0102249D01*
X0117942Y0102268D01*
X0117801Y0102291D01*
X0117661Y0102318D01*
X0117521Y0102348D01*
X0117383Y0102383D01*
X0117245Y0102421D01*
X0117108Y0102463D01*
X0116973Y0102510D01*
X0116839Y0102559D01*
X0116707Y0102613D01*
X0116576Y0102670D01*
X0116446Y0102731D01*
X0116319Y0102795D01*
X0116193Y0102863D01*
X0116069Y0102935D01*
X0115948Y0103010D01*
X0115828Y0103088D01*
X0115711Y0103170D01*
X0115596Y0103254D01*
X0115483Y0103342D01*
X0115373Y0103433D01*
X0115265Y0103528D01*
X0115161Y0103625D01*
X0115058Y0103725D01*
X0114959Y0103827D01*
X0114863Y0103933D01*
X0114769Y0104041D01*
X0114679Y0104152D01*
X0114592Y0104265D01*
X0114508Y0104381D01*
X0114427Y0104499D01*
X0114350Y0104619D01*
X0114276Y0104741D01*
X0114205Y0104865D01*
X0114138Y0104992D01*
X0114074Y0105120D01*
X0114014Y0105249D01*
X0113958Y0105381D01*
X0113906Y0105514D01*
X0113857Y0105648D01*
X0113812Y0105783D01*
X0113770Y0105920D01*
X0113733Y0106058D01*
X0113699Y0106197D01*
X0113669Y0106337D01*
X0113644Y0106477D01*
X0113622Y0106619D01*
X0113604Y0106761D01*
X0113590Y0106903D01*
X0113580Y0107045D01*
X0113574Y0107188D01*
X0113572Y0107331D01*
X0031289Y0111661D02*
X0031291Y0111804D01*
X0031297Y0111947D01*
X0031307Y0112089D01*
X0031321Y0112231D01*
X0031339Y0112373D01*
X0031361Y0112515D01*
X0031386Y0112655D01*
X0031416Y0112795D01*
X0031450Y0112934D01*
X0031487Y0113072D01*
X0031529Y0113209D01*
X0031574Y0113344D01*
X0031623Y0113478D01*
X0031675Y0113611D01*
X0031731Y0113743D01*
X0031791Y0113872D01*
X0031855Y0114000D01*
X0031922Y0114127D01*
X0031993Y0114251D01*
X0032067Y0114373D01*
X0032144Y0114493D01*
X0032225Y0114611D01*
X0032309Y0114727D01*
X0032396Y0114840D01*
X0032486Y0114951D01*
X0032580Y0115059D01*
X0032676Y0115165D01*
X0032775Y0115267D01*
X0032878Y0115367D01*
X0032982Y0115464D01*
X0033090Y0115559D01*
X0033200Y0115650D01*
X0033313Y0115738D01*
X0033428Y0115822D01*
X0033545Y0115904D01*
X0033665Y0115982D01*
X0033786Y0116057D01*
X0033910Y0116129D01*
X0034036Y0116197D01*
X0034163Y0116261D01*
X0034293Y0116322D01*
X0034424Y0116379D01*
X0034556Y0116433D01*
X0034690Y0116482D01*
X0034825Y0116529D01*
X0034962Y0116571D01*
X0035100Y0116609D01*
X0035238Y0116644D01*
X0035378Y0116674D01*
X0035518Y0116701D01*
X0035659Y0116724D01*
X0035801Y0116743D01*
X0035943Y0116758D01*
X0036086Y0116769D01*
X0036228Y0116776D01*
X0036371Y0116779D01*
X0036514Y0116778D01*
X0036657Y0116773D01*
X0036800Y0116764D01*
X0036942Y0116751D01*
X0037084Y0116734D01*
X0037225Y0116713D01*
X0037366Y0116688D01*
X0037506Y0116660D01*
X0037645Y0116627D01*
X0037783Y0116590D01*
X0037920Y0116550D01*
X0038056Y0116506D01*
X0038191Y0116458D01*
X0038324Y0116406D01*
X0038456Y0116351D01*
X0038586Y0116292D01*
X0038715Y0116229D01*
X0038841Y0116163D01*
X0038966Y0116093D01*
X0039089Y0116020D01*
X0039209Y0115944D01*
X0039328Y0115864D01*
X0039444Y0115780D01*
X0039558Y0115694D01*
X0039669Y0115604D01*
X0039778Y0115512D01*
X0039884Y0115416D01*
X0039988Y0115318D01*
X0040089Y0115216D01*
X0040186Y0115112D01*
X0040281Y0115005D01*
X0040373Y0114896D01*
X0040462Y0114784D01*
X0040548Y0114669D01*
X0040630Y0114553D01*
X0040709Y0114433D01*
X0040785Y0114312D01*
X0040857Y0114189D01*
X0040926Y0114064D01*
X0040991Y0113937D01*
X0041053Y0113808D01*
X0041111Y0113677D01*
X0041166Y0113545D01*
X0041216Y0113411D01*
X0041263Y0113276D01*
X0041307Y0113140D01*
X0041346Y0113003D01*
X0041381Y0112864D01*
X0041413Y0112725D01*
X0041441Y0112585D01*
X0041465Y0112444D01*
X0041485Y0112302D01*
X0041501Y0112160D01*
X0041513Y0112018D01*
X0041521Y0111875D01*
X0041525Y0111732D01*
X0041525Y0111590D01*
X0041521Y0111447D01*
X0041513Y0111304D01*
X0041501Y0111162D01*
X0041485Y0111020D01*
X0041465Y0110878D01*
X0041441Y0110737D01*
X0041413Y0110597D01*
X0041381Y0110458D01*
X0041346Y0110319D01*
X0041307Y0110182D01*
X0041263Y0110046D01*
X0041216Y0109911D01*
X0041166Y0109777D01*
X0041111Y0109645D01*
X0041053Y0109514D01*
X0040991Y0109385D01*
X0040926Y0109258D01*
X0040857Y0109133D01*
X0040785Y0109010D01*
X0040709Y0108889D01*
X0040630Y0108769D01*
X0040548Y0108653D01*
X0040462Y0108538D01*
X0040373Y0108426D01*
X0040281Y0108317D01*
X0040186Y0108210D01*
X0040089Y0108106D01*
X0039988Y0108004D01*
X0039884Y0107906D01*
X0039778Y0107810D01*
X0039669Y0107718D01*
X0039558Y0107628D01*
X0039444Y0107542D01*
X0039328Y0107458D01*
X0039209Y0107378D01*
X0039089Y0107302D01*
X0038966Y0107229D01*
X0038841Y0107159D01*
X0038715Y0107093D01*
X0038586Y0107030D01*
X0038456Y0106971D01*
X0038324Y0106916D01*
X0038191Y0106864D01*
X0038056Y0106816D01*
X0037920Y0106772D01*
X0037783Y0106732D01*
X0037645Y0106695D01*
X0037506Y0106662D01*
X0037366Y0106634D01*
X0037225Y0106609D01*
X0037084Y0106588D01*
X0036942Y0106571D01*
X0036800Y0106558D01*
X0036657Y0106549D01*
X0036514Y0106544D01*
X0036371Y0106543D01*
X0036228Y0106546D01*
X0036086Y0106553D01*
X0035943Y0106564D01*
X0035801Y0106579D01*
X0035659Y0106598D01*
X0035518Y0106621D01*
X0035378Y0106648D01*
X0035238Y0106678D01*
X0035100Y0106713D01*
X0034962Y0106751D01*
X0034825Y0106793D01*
X0034690Y0106840D01*
X0034556Y0106889D01*
X0034424Y0106943D01*
X0034293Y0107000D01*
X0034163Y0107061D01*
X0034036Y0107125D01*
X0033910Y0107193D01*
X0033786Y0107265D01*
X0033665Y0107340D01*
X0033545Y0107418D01*
X0033428Y0107500D01*
X0033313Y0107584D01*
X0033200Y0107672D01*
X0033090Y0107763D01*
X0032982Y0107858D01*
X0032878Y0107955D01*
X0032775Y0108055D01*
X0032676Y0108157D01*
X0032580Y0108263D01*
X0032486Y0108371D01*
X0032396Y0108482D01*
X0032309Y0108595D01*
X0032225Y0108711D01*
X0032144Y0108829D01*
X0032067Y0108949D01*
X0031993Y0109071D01*
X0031922Y0109195D01*
X0031855Y0109322D01*
X0031791Y0109450D01*
X0031731Y0109579D01*
X0031675Y0109711D01*
X0031623Y0109844D01*
X0031574Y0109978D01*
X0031529Y0110113D01*
X0031487Y0110250D01*
X0031450Y0110388D01*
X0031416Y0110527D01*
X0031386Y0110667D01*
X0031361Y0110807D01*
X0031339Y0110949D01*
X0031321Y0111091D01*
X0031307Y0111233D01*
X0031297Y0111375D01*
X0031291Y0111518D01*
X0031289Y0111661D01*
X0205895Y0107331D02*
X0205897Y0107500D01*
X0205903Y0107669D01*
X0205914Y0107838D01*
X0205928Y0108006D01*
X0205947Y0108174D01*
X0205970Y0108342D01*
X0205996Y0108509D01*
X0206027Y0108675D01*
X0206062Y0108841D01*
X0206101Y0109005D01*
X0206145Y0109169D01*
X0206192Y0109331D01*
X0206243Y0109492D01*
X0206298Y0109652D01*
X0206357Y0109811D01*
X0206419Y0109968D01*
X0206486Y0110123D01*
X0206557Y0110277D01*
X0206631Y0110429D01*
X0206709Y0110579D01*
X0206790Y0110727D01*
X0206875Y0110873D01*
X0206964Y0111017D01*
X0207056Y0111159D01*
X0207152Y0111298D01*
X0207251Y0111435D01*
X0207353Y0111570D01*
X0207459Y0111702D01*
X0207568Y0111831D01*
X0207680Y0111958D01*
X0207795Y0112082D01*
X0207913Y0112203D01*
X0208034Y0112321D01*
X0208158Y0112436D01*
X0208285Y0112548D01*
X0208414Y0112657D01*
X0208546Y0112763D01*
X0208681Y0112865D01*
X0208818Y0112964D01*
X0208957Y0113060D01*
X0209099Y0113152D01*
X0209243Y0113241D01*
X0209389Y0113326D01*
X0209537Y0113407D01*
X0209687Y0113485D01*
X0209839Y0113559D01*
X0209993Y0113630D01*
X0210148Y0113697D01*
X0210305Y0113759D01*
X0210464Y0113818D01*
X0210624Y0113873D01*
X0210785Y0113924D01*
X0210947Y0113971D01*
X0211111Y0114015D01*
X0211275Y0114054D01*
X0211441Y0114089D01*
X0211607Y0114120D01*
X0211774Y0114146D01*
X0211942Y0114169D01*
X0212110Y0114188D01*
X0212278Y0114202D01*
X0212447Y0114213D01*
X0212616Y0114219D01*
X0212785Y0114221D01*
X0212954Y0114219D01*
X0213123Y0114213D01*
X0213292Y0114202D01*
X0213460Y0114188D01*
X0213628Y0114169D01*
X0213796Y0114146D01*
X0213963Y0114120D01*
X0214129Y0114089D01*
X0214295Y0114054D01*
X0214459Y0114015D01*
X0214623Y0113971D01*
X0214785Y0113924D01*
X0214946Y0113873D01*
X0215106Y0113818D01*
X0215265Y0113759D01*
X0215422Y0113697D01*
X0215577Y0113630D01*
X0215731Y0113559D01*
X0215883Y0113485D01*
X0216033Y0113407D01*
X0216181Y0113326D01*
X0216327Y0113241D01*
X0216471Y0113152D01*
X0216613Y0113060D01*
X0216752Y0112964D01*
X0216889Y0112865D01*
X0217024Y0112763D01*
X0217156Y0112657D01*
X0217285Y0112548D01*
X0217412Y0112436D01*
X0217536Y0112321D01*
X0217657Y0112203D01*
X0217775Y0112082D01*
X0217890Y0111958D01*
X0218002Y0111831D01*
X0218111Y0111702D01*
X0218217Y0111570D01*
X0218319Y0111435D01*
X0218418Y0111298D01*
X0218514Y0111159D01*
X0218606Y0111017D01*
X0218695Y0110873D01*
X0218780Y0110727D01*
X0218861Y0110579D01*
X0218939Y0110429D01*
X0219013Y0110277D01*
X0219084Y0110123D01*
X0219151Y0109968D01*
X0219213Y0109811D01*
X0219272Y0109652D01*
X0219327Y0109492D01*
X0219378Y0109331D01*
X0219425Y0109169D01*
X0219469Y0109005D01*
X0219508Y0108841D01*
X0219543Y0108675D01*
X0219574Y0108509D01*
X0219600Y0108342D01*
X0219623Y0108174D01*
X0219642Y0108006D01*
X0219656Y0107838D01*
X0219667Y0107669D01*
X0219673Y0107500D01*
X0219675Y0107331D01*
X0219673Y0107162D01*
X0219667Y0106993D01*
X0219656Y0106824D01*
X0219642Y0106656D01*
X0219623Y0106488D01*
X0219600Y0106320D01*
X0219574Y0106153D01*
X0219543Y0105987D01*
X0219508Y0105821D01*
X0219469Y0105657D01*
X0219425Y0105493D01*
X0219378Y0105331D01*
X0219327Y0105170D01*
X0219272Y0105010D01*
X0219213Y0104851D01*
X0219151Y0104694D01*
X0219084Y0104539D01*
X0219013Y0104385D01*
X0218939Y0104233D01*
X0218861Y0104083D01*
X0218780Y0103935D01*
X0218695Y0103789D01*
X0218606Y0103645D01*
X0218514Y0103503D01*
X0218418Y0103364D01*
X0218319Y0103227D01*
X0218217Y0103092D01*
X0218111Y0102960D01*
X0218002Y0102831D01*
X0217890Y0102704D01*
X0217775Y0102580D01*
X0217657Y0102459D01*
X0217536Y0102341D01*
X0217412Y0102226D01*
X0217285Y0102114D01*
X0217156Y0102005D01*
X0217024Y0101899D01*
X0216889Y0101797D01*
X0216752Y0101698D01*
X0216613Y0101602D01*
X0216471Y0101510D01*
X0216327Y0101421D01*
X0216181Y0101336D01*
X0216033Y0101255D01*
X0215883Y0101177D01*
X0215731Y0101103D01*
X0215577Y0101032D01*
X0215422Y0100965D01*
X0215265Y0100903D01*
X0215106Y0100844D01*
X0214946Y0100789D01*
X0214785Y0100738D01*
X0214623Y0100691D01*
X0214459Y0100647D01*
X0214295Y0100608D01*
X0214129Y0100573D01*
X0213963Y0100542D01*
X0213796Y0100516D01*
X0213628Y0100493D01*
X0213460Y0100474D01*
X0213292Y0100460D01*
X0213123Y0100449D01*
X0212954Y0100443D01*
X0212785Y0100441D01*
X0212616Y0100443D01*
X0212447Y0100449D01*
X0212278Y0100460D01*
X0212110Y0100474D01*
X0211942Y0100493D01*
X0211774Y0100516D01*
X0211607Y0100542D01*
X0211441Y0100573D01*
X0211275Y0100608D01*
X0211111Y0100647D01*
X0210947Y0100691D01*
X0210785Y0100738D01*
X0210624Y0100789D01*
X0210464Y0100844D01*
X0210305Y0100903D01*
X0210148Y0100965D01*
X0209993Y0101032D01*
X0209839Y0101103D01*
X0209687Y0101177D01*
X0209537Y0101255D01*
X0209389Y0101336D01*
X0209243Y0101421D01*
X0209099Y0101510D01*
X0208957Y0101602D01*
X0208818Y0101698D01*
X0208681Y0101797D01*
X0208546Y0101899D01*
X0208414Y0102005D01*
X0208285Y0102114D01*
X0208158Y0102226D01*
X0208034Y0102341D01*
X0207913Y0102459D01*
X0207795Y0102580D01*
X0207680Y0102704D01*
X0207568Y0102831D01*
X0207459Y0102960D01*
X0207353Y0103092D01*
X0207251Y0103227D01*
X0207152Y0103364D01*
X0207056Y0103503D01*
X0206964Y0103645D01*
X0206875Y0103789D01*
X0206790Y0103935D01*
X0206709Y0104083D01*
X0206631Y0104233D01*
X0206557Y0104385D01*
X0206486Y0104539D01*
X0206419Y0104694D01*
X0206357Y0104851D01*
X0206298Y0105010D01*
X0206243Y0105170D01*
X0206192Y0105331D01*
X0206145Y0105493D01*
X0206101Y0105657D01*
X0206062Y0105821D01*
X0206027Y0105987D01*
X0205996Y0106153D01*
X0205970Y0106320D01*
X0205947Y0106488D01*
X0205928Y0106656D01*
X0205914Y0106824D01*
X0205903Y0106993D01*
X0205897Y0107162D01*
X0205895Y0107331D01*
X0235620Y0180953D02*
X0235622Y0181090D01*
X0235628Y0181228D01*
X0235638Y0181365D01*
X0235652Y0181501D01*
X0235670Y0181638D01*
X0235692Y0181773D01*
X0235718Y0181908D01*
X0235747Y0182042D01*
X0235781Y0182176D01*
X0235818Y0182308D01*
X0235860Y0182439D01*
X0235905Y0182569D01*
X0235954Y0182697D01*
X0236006Y0182824D01*
X0236063Y0182949D01*
X0236122Y0183073D01*
X0236186Y0183195D01*
X0236253Y0183315D01*
X0236323Y0183433D01*
X0236397Y0183549D01*
X0236474Y0183663D01*
X0236555Y0183774D01*
X0236638Y0183883D01*
X0236725Y0183990D01*
X0236815Y0184093D01*
X0236908Y0184195D01*
X0237004Y0184293D01*
X0237102Y0184389D01*
X0237204Y0184482D01*
X0237307Y0184572D01*
X0237414Y0184659D01*
X0237523Y0184742D01*
X0237634Y0184823D01*
X0237748Y0184900D01*
X0237864Y0184974D01*
X0237982Y0185044D01*
X0238102Y0185111D01*
X0238224Y0185175D01*
X0238348Y0185234D01*
X0238473Y0185291D01*
X0238600Y0185343D01*
X0238728Y0185392D01*
X0238858Y0185437D01*
X0238989Y0185479D01*
X0239121Y0185516D01*
X0239255Y0185550D01*
X0239389Y0185579D01*
X0239524Y0185605D01*
X0239659Y0185627D01*
X0239796Y0185645D01*
X0239932Y0185659D01*
X0240069Y0185669D01*
X0240207Y0185675D01*
X0240344Y0185677D01*
X0240481Y0185675D01*
X0240619Y0185669D01*
X0240756Y0185659D01*
X0240892Y0185645D01*
X0241029Y0185627D01*
X0241164Y0185605D01*
X0241299Y0185579D01*
X0241433Y0185550D01*
X0241567Y0185516D01*
X0241699Y0185479D01*
X0241830Y0185437D01*
X0241960Y0185392D01*
X0242088Y0185343D01*
X0242215Y0185291D01*
X0242340Y0185234D01*
X0242464Y0185175D01*
X0242586Y0185111D01*
X0242706Y0185044D01*
X0242824Y0184974D01*
X0242940Y0184900D01*
X0243054Y0184823D01*
X0243165Y0184742D01*
X0243274Y0184659D01*
X0243381Y0184572D01*
X0243484Y0184482D01*
X0243586Y0184389D01*
X0243684Y0184293D01*
X0243780Y0184195D01*
X0243873Y0184093D01*
X0243963Y0183990D01*
X0244050Y0183883D01*
X0244133Y0183774D01*
X0244214Y0183663D01*
X0244291Y0183549D01*
X0244365Y0183433D01*
X0244435Y0183315D01*
X0244502Y0183195D01*
X0244566Y0183073D01*
X0244625Y0182949D01*
X0244682Y0182824D01*
X0244734Y0182697D01*
X0244783Y0182569D01*
X0244828Y0182439D01*
X0244870Y0182308D01*
X0244907Y0182176D01*
X0244941Y0182042D01*
X0244970Y0181908D01*
X0244996Y0181773D01*
X0245018Y0181638D01*
X0245036Y0181501D01*
X0245050Y0181365D01*
X0245060Y0181228D01*
X0245066Y0181090D01*
X0245068Y0180953D01*
X0245066Y0180816D01*
X0245060Y0180678D01*
X0245050Y0180541D01*
X0245036Y0180405D01*
X0245018Y0180268D01*
X0244996Y0180133D01*
X0244970Y0179998D01*
X0244941Y0179864D01*
X0244907Y0179730D01*
X0244870Y0179598D01*
X0244828Y0179467D01*
X0244783Y0179337D01*
X0244734Y0179209D01*
X0244682Y0179082D01*
X0244625Y0178957D01*
X0244566Y0178833D01*
X0244502Y0178711D01*
X0244435Y0178591D01*
X0244365Y0178473D01*
X0244291Y0178357D01*
X0244214Y0178243D01*
X0244133Y0178132D01*
X0244050Y0178023D01*
X0243963Y0177916D01*
X0243873Y0177813D01*
X0243780Y0177711D01*
X0243684Y0177613D01*
X0243586Y0177517D01*
X0243484Y0177424D01*
X0243381Y0177334D01*
X0243274Y0177247D01*
X0243165Y0177164D01*
X0243054Y0177083D01*
X0242940Y0177006D01*
X0242824Y0176932D01*
X0242706Y0176862D01*
X0242586Y0176795D01*
X0242464Y0176731D01*
X0242340Y0176672D01*
X0242215Y0176615D01*
X0242088Y0176563D01*
X0241960Y0176514D01*
X0241830Y0176469D01*
X0241699Y0176427D01*
X0241567Y0176390D01*
X0241433Y0176356D01*
X0241299Y0176327D01*
X0241164Y0176301D01*
X0241029Y0176279D01*
X0240892Y0176261D01*
X0240756Y0176247D01*
X0240619Y0176237D01*
X0240481Y0176231D01*
X0240344Y0176229D01*
X0240207Y0176231D01*
X0240069Y0176237D01*
X0239932Y0176247D01*
X0239796Y0176261D01*
X0239659Y0176279D01*
X0239524Y0176301D01*
X0239389Y0176327D01*
X0239255Y0176356D01*
X0239121Y0176390D01*
X0238989Y0176427D01*
X0238858Y0176469D01*
X0238728Y0176514D01*
X0238600Y0176563D01*
X0238473Y0176615D01*
X0238348Y0176672D01*
X0238224Y0176731D01*
X0238102Y0176795D01*
X0237982Y0176862D01*
X0237864Y0176932D01*
X0237748Y0177006D01*
X0237634Y0177083D01*
X0237523Y0177164D01*
X0237414Y0177247D01*
X0237307Y0177334D01*
X0237204Y0177424D01*
X0237102Y0177517D01*
X0237004Y0177613D01*
X0236908Y0177711D01*
X0236815Y0177813D01*
X0236725Y0177916D01*
X0236638Y0178023D01*
X0236555Y0178132D01*
X0236474Y0178243D01*
X0236397Y0178357D01*
X0236323Y0178473D01*
X0236253Y0178591D01*
X0236186Y0178711D01*
X0236122Y0178833D01*
X0236063Y0178957D01*
X0236006Y0179082D01*
X0235954Y0179209D01*
X0235905Y0179337D01*
X0235860Y0179467D01*
X0235818Y0179598D01*
X0235781Y0179730D01*
X0235747Y0179864D01*
X0235718Y0179998D01*
X0235692Y0180133D01*
X0235670Y0180268D01*
X0235652Y0180405D01*
X0235638Y0180541D01*
X0235628Y0180678D01*
X0235622Y0180816D01*
X0235620Y0180953D01*
X0244281Y0141583D02*
X0244283Y0141776D01*
X0244290Y0141969D01*
X0244302Y0142162D01*
X0244319Y0142355D01*
X0244340Y0142547D01*
X0244366Y0142738D01*
X0244397Y0142929D01*
X0244432Y0143119D01*
X0244472Y0143308D01*
X0244517Y0143496D01*
X0244566Y0143683D01*
X0244620Y0143869D01*
X0244678Y0144053D01*
X0244741Y0144236D01*
X0244809Y0144417D01*
X0244880Y0144596D01*
X0244957Y0144774D01*
X0245037Y0144950D01*
X0245122Y0145123D01*
X0245211Y0145295D01*
X0245304Y0145464D01*
X0245401Y0145631D01*
X0245503Y0145796D01*
X0245608Y0145958D01*
X0245717Y0146117D01*
X0245831Y0146274D01*
X0245948Y0146427D01*
X0246068Y0146578D01*
X0246193Y0146726D01*
X0246321Y0146871D01*
X0246452Y0147012D01*
X0246587Y0147151D01*
X0246726Y0147286D01*
X0246867Y0147417D01*
X0247012Y0147545D01*
X0247160Y0147670D01*
X0247311Y0147790D01*
X0247464Y0147907D01*
X0247621Y0148021D01*
X0247780Y0148130D01*
X0247942Y0148235D01*
X0248107Y0148337D01*
X0248274Y0148434D01*
X0248443Y0148527D01*
X0248615Y0148616D01*
X0248788Y0148701D01*
X0248964Y0148781D01*
X0249142Y0148858D01*
X0249321Y0148929D01*
X0249502Y0148997D01*
X0249685Y0149060D01*
X0249869Y0149118D01*
X0250055Y0149172D01*
X0250242Y0149221D01*
X0250430Y0149266D01*
X0250619Y0149306D01*
X0250809Y0149341D01*
X0251000Y0149372D01*
X0251191Y0149398D01*
X0251383Y0149419D01*
X0251576Y0149436D01*
X0251769Y0149448D01*
X0251962Y0149455D01*
X0252155Y0149457D01*
X0252348Y0149455D01*
X0252541Y0149448D01*
X0252734Y0149436D01*
X0252927Y0149419D01*
X0253119Y0149398D01*
X0253310Y0149372D01*
X0253501Y0149341D01*
X0253691Y0149306D01*
X0253880Y0149266D01*
X0254068Y0149221D01*
X0254255Y0149172D01*
X0254441Y0149118D01*
X0254625Y0149060D01*
X0254808Y0148997D01*
X0254989Y0148929D01*
X0255168Y0148858D01*
X0255346Y0148781D01*
X0255522Y0148701D01*
X0255695Y0148616D01*
X0255867Y0148527D01*
X0256036Y0148434D01*
X0256203Y0148337D01*
X0256368Y0148235D01*
X0256530Y0148130D01*
X0256689Y0148021D01*
X0256846Y0147907D01*
X0256999Y0147790D01*
X0257150Y0147670D01*
X0257298Y0147545D01*
X0257443Y0147417D01*
X0257584Y0147286D01*
X0257723Y0147151D01*
X0257858Y0147012D01*
X0257989Y0146871D01*
X0258117Y0146726D01*
X0258242Y0146578D01*
X0258362Y0146427D01*
X0258479Y0146274D01*
X0258593Y0146117D01*
X0258702Y0145958D01*
X0258807Y0145796D01*
X0258909Y0145631D01*
X0259006Y0145464D01*
X0259099Y0145295D01*
X0259188Y0145123D01*
X0259273Y0144950D01*
X0259353Y0144774D01*
X0259430Y0144596D01*
X0259501Y0144417D01*
X0259569Y0144236D01*
X0259632Y0144053D01*
X0259690Y0143869D01*
X0259744Y0143683D01*
X0259793Y0143496D01*
X0259838Y0143308D01*
X0259878Y0143119D01*
X0259913Y0142929D01*
X0259944Y0142738D01*
X0259970Y0142547D01*
X0259991Y0142355D01*
X0260008Y0142162D01*
X0260020Y0141969D01*
X0260027Y0141776D01*
X0260029Y0141583D01*
X0260027Y0141390D01*
X0260020Y0141197D01*
X0260008Y0141004D01*
X0259991Y0140811D01*
X0259970Y0140619D01*
X0259944Y0140428D01*
X0259913Y0140237D01*
X0259878Y0140047D01*
X0259838Y0139858D01*
X0259793Y0139670D01*
X0259744Y0139483D01*
X0259690Y0139297D01*
X0259632Y0139113D01*
X0259569Y0138930D01*
X0259501Y0138749D01*
X0259430Y0138570D01*
X0259353Y0138392D01*
X0259273Y0138216D01*
X0259188Y0138043D01*
X0259099Y0137871D01*
X0259006Y0137702D01*
X0258909Y0137535D01*
X0258807Y0137370D01*
X0258702Y0137208D01*
X0258593Y0137049D01*
X0258479Y0136892D01*
X0258362Y0136739D01*
X0258242Y0136588D01*
X0258117Y0136440D01*
X0257989Y0136295D01*
X0257858Y0136154D01*
X0257723Y0136015D01*
X0257584Y0135880D01*
X0257443Y0135749D01*
X0257298Y0135621D01*
X0257150Y0135496D01*
X0256999Y0135376D01*
X0256846Y0135259D01*
X0256689Y0135145D01*
X0256530Y0135036D01*
X0256368Y0134931D01*
X0256203Y0134829D01*
X0256036Y0134732D01*
X0255867Y0134639D01*
X0255695Y0134550D01*
X0255522Y0134465D01*
X0255346Y0134385D01*
X0255168Y0134308D01*
X0254989Y0134237D01*
X0254808Y0134169D01*
X0254625Y0134106D01*
X0254441Y0134048D01*
X0254255Y0133994D01*
X0254068Y0133945D01*
X0253880Y0133900D01*
X0253691Y0133860D01*
X0253501Y0133825D01*
X0253310Y0133794D01*
X0253119Y0133768D01*
X0252927Y0133747D01*
X0252734Y0133730D01*
X0252541Y0133718D01*
X0252348Y0133711D01*
X0252155Y0133709D01*
X0251962Y0133711D01*
X0251769Y0133718D01*
X0251576Y0133730D01*
X0251383Y0133747D01*
X0251191Y0133768D01*
X0251000Y0133794D01*
X0250809Y0133825D01*
X0250619Y0133860D01*
X0250430Y0133900D01*
X0250242Y0133945D01*
X0250055Y0133994D01*
X0249869Y0134048D01*
X0249685Y0134106D01*
X0249502Y0134169D01*
X0249321Y0134237D01*
X0249142Y0134308D01*
X0248964Y0134385D01*
X0248788Y0134465D01*
X0248615Y0134550D01*
X0248443Y0134639D01*
X0248274Y0134732D01*
X0248107Y0134829D01*
X0247942Y0134931D01*
X0247780Y0135036D01*
X0247621Y0135145D01*
X0247464Y0135259D01*
X0247311Y0135376D01*
X0247160Y0135496D01*
X0247012Y0135621D01*
X0246867Y0135749D01*
X0246726Y0135880D01*
X0246587Y0136015D01*
X0246452Y0136154D01*
X0246321Y0136295D01*
X0246193Y0136440D01*
X0246068Y0136588D01*
X0245948Y0136739D01*
X0245831Y0136892D01*
X0245717Y0137049D01*
X0245608Y0137208D01*
X0245503Y0137370D01*
X0245401Y0137535D01*
X0245304Y0137702D01*
X0245211Y0137871D01*
X0245122Y0138043D01*
X0245037Y0138216D01*
X0244957Y0138392D01*
X0244880Y0138570D01*
X0244809Y0138749D01*
X0244741Y0138930D01*
X0244678Y0139113D01*
X0244620Y0139297D01*
X0244566Y0139483D01*
X0244517Y0139670D01*
X0244472Y0139858D01*
X0244432Y0140047D01*
X0244397Y0140237D01*
X0244366Y0140428D01*
X0244340Y0140619D01*
X0244319Y0140811D01*
X0244302Y0141004D01*
X0244290Y0141197D01*
X0244283Y0141390D01*
X0244281Y0141583D01*
X0288769Y0132921D02*
X0288771Y0133058D01*
X0288777Y0133196D01*
X0288787Y0133333D01*
X0288801Y0133469D01*
X0288819Y0133606D01*
X0288841Y0133741D01*
X0288867Y0133876D01*
X0288896Y0134010D01*
X0288930Y0134144D01*
X0288967Y0134276D01*
X0289009Y0134407D01*
X0289054Y0134537D01*
X0289103Y0134665D01*
X0289155Y0134792D01*
X0289212Y0134917D01*
X0289271Y0135041D01*
X0289335Y0135163D01*
X0289402Y0135283D01*
X0289472Y0135401D01*
X0289546Y0135517D01*
X0289623Y0135631D01*
X0289704Y0135742D01*
X0289787Y0135851D01*
X0289874Y0135958D01*
X0289964Y0136061D01*
X0290057Y0136163D01*
X0290153Y0136261D01*
X0290251Y0136357D01*
X0290353Y0136450D01*
X0290456Y0136540D01*
X0290563Y0136627D01*
X0290672Y0136710D01*
X0290783Y0136791D01*
X0290897Y0136868D01*
X0291013Y0136942D01*
X0291131Y0137012D01*
X0291251Y0137079D01*
X0291373Y0137143D01*
X0291497Y0137202D01*
X0291622Y0137259D01*
X0291749Y0137311D01*
X0291877Y0137360D01*
X0292007Y0137405D01*
X0292138Y0137447D01*
X0292270Y0137484D01*
X0292404Y0137518D01*
X0292538Y0137547D01*
X0292673Y0137573D01*
X0292808Y0137595D01*
X0292945Y0137613D01*
X0293081Y0137627D01*
X0293218Y0137637D01*
X0293356Y0137643D01*
X0293493Y0137645D01*
X0293630Y0137643D01*
X0293768Y0137637D01*
X0293905Y0137627D01*
X0294041Y0137613D01*
X0294178Y0137595D01*
X0294313Y0137573D01*
X0294448Y0137547D01*
X0294582Y0137518D01*
X0294716Y0137484D01*
X0294848Y0137447D01*
X0294979Y0137405D01*
X0295109Y0137360D01*
X0295237Y0137311D01*
X0295364Y0137259D01*
X0295489Y0137202D01*
X0295613Y0137143D01*
X0295735Y0137079D01*
X0295855Y0137012D01*
X0295973Y0136942D01*
X0296089Y0136868D01*
X0296203Y0136791D01*
X0296314Y0136710D01*
X0296423Y0136627D01*
X0296530Y0136540D01*
X0296633Y0136450D01*
X0296735Y0136357D01*
X0296833Y0136261D01*
X0296929Y0136163D01*
X0297022Y0136061D01*
X0297112Y0135958D01*
X0297199Y0135851D01*
X0297282Y0135742D01*
X0297363Y0135631D01*
X0297440Y0135517D01*
X0297514Y0135401D01*
X0297584Y0135283D01*
X0297651Y0135163D01*
X0297715Y0135041D01*
X0297774Y0134917D01*
X0297831Y0134792D01*
X0297883Y0134665D01*
X0297932Y0134537D01*
X0297977Y0134407D01*
X0298019Y0134276D01*
X0298056Y0134144D01*
X0298090Y0134010D01*
X0298119Y0133876D01*
X0298145Y0133741D01*
X0298167Y0133606D01*
X0298185Y0133469D01*
X0298199Y0133333D01*
X0298209Y0133196D01*
X0298215Y0133058D01*
X0298217Y0132921D01*
X0298215Y0132784D01*
X0298209Y0132646D01*
X0298199Y0132509D01*
X0298185Y0132373D01*
X0298167Y0132236D01*
X0298145Y0132101D01*
X0298119Y0131966D01*
X0298090Y0131832D01*
X0298056Y0131698D01*
X0298019Y0131566D01*
X0297977Y0131435D01*
X0297932Y0131305D01*
X0297883Y0131177D01*
X0297831Y0131050D01*
X0297774Y0130925D01*
X0297715Y0130801D01*
X0297651Y0130679D01*
X0297584Y0130559D01*
X0297514Y0130441D01*
X0297440Y0130325D01*
X0297363Y0130211D01*
X0297282Y0130100D01*
X0297199Y0129991D01*
X0297112Y0129884D01*
X0297022Y0129781D01*
X0296929Y0129679D01*
X0296833Y0129581D01*
X0296735Y0129485D01*
X0296633Y0129392D01*
X0296530Y0129302D01*
X0296423Y0129215D01*
X0296314Y0129132D01*
X0296203Y0129051D01*
X0296089Y0128974D01*
X0295973Y0128900D01*
X0295855Y0128830D01*
X0295735Y0128763D01*
X0295613Y0128699D01*
X0295489Y0128640D01*
X0295364Y0128583D01*
X0295237Y0128531D01*
X0295109Y0128482D01*
X0294979Y0128437D01*
X0294848Y0128395D01*
X0294716Y0128358D01*
X0294582Y0128324D01*
X0294448Y0128295D01*
X0294313Y0128269D01*
X0294178Y0128247D01*
X0294041Y0128229D01*
X0293905Y0128215D01*
X0293768Y0128205D01*
X0293630Y0128199D01*
X0293493Y0128197D01*
X0293356Y0128199D01*
X0293218Y0128205D01*
X0293081Y0128215D01*
X0292945Y0128229D01*
X0292808Y0128247D01*
X0292673Y0128269D01*
X0292538Y0128295D01*
X0292404Y0128324D01*
X0292270Y0128358D01*
X0292138Y0128395D01*
X0292007Y0128437D01*
X0291877Y0128482D01*
X0291749Y0128531D01*
X0291622Y0128583D01*
X0291497Y0128640D01*
X0291373Y0128699D01*
X0291251Y0128763D01*
X0291131Y0128830D01*
X0291013Y0128900D01*
X0290897Y0128974D01*
X0290783Y0129051D01*
X0290672Y0129132D01*
X0290563Y0129215D01*
X0290456Y0129302D01*
X0290353Y0129392D01*
X0290251Y0129485D01*
X0290153Y0129581D01*
X0290057Y0129679D01*
X0289964Y0129781D01*
X0289874Y0129884D01*
X0289787Y0129991D01*
X0289704Y0130100D01*
X0289623Y0130211D01*
X0289546Y0130325D01*
X0289472Y0130441D01*
X0289402Y0130559D01*
X0289335Y0130679D01*
X0289271Y0130801D01*
X0289212Y0130925D01*
X0289155Y0131050D01*
X0289103Y0131177D01*
X0289054Y0131305D01*
X0289009Y0131435D01*
X0288967Y0131566D01*
X0288930Y0131698D01*
X0288896Y0131832D01*
X0288867Y0131966D01*
X0288841Y0132101D01*
X0288819Y0132236D01*
X0288801Y0132373D01*
X0288787Y0132509D01*
X0288777Y0132646D01*
X0288771Y0132784D01*
X0288769Y0132921D01*
X0286407Y0443551D02*
X0286409Y0443694D01*
X0286415Y0443837D01*
X0286425Y0443979D01*
X0286439Y0444121D01*
X0286457Y0444263D01*
X0286479Y0444405D01*
X0286504Y0444545D01*
X0286534Y0444685D01*
X0286568Y0444824D01*
X0286605Y0444962D01*
X0286647Y0445099D01*
X0286692Y0445234D01*
X0286741Y0445368D01*
X0286793Y0445501D01*
X0286849Y0445633D01*
X0286909Y0445762D01*
X0286973Y0445890D01*
X0287040Y0446017D01*
X0287111Y0446141D01*
X0287185Y0446263D01*
X0287262Y0446383D01*
X0287343Y0446501D01*
X0287427Y0446617D01*
X0287514Y0446730D01*
X0287604Y0446841D01*
X0287698Y0446949D01*
X0287794Y0447055D01*
X0287893Y0447157D01*
X0287996Y0447257D01*
X0288100Y0447354D01*
X0288208Y0447449D01*
X0288318Y0447540D01*
X0288431Y0447628D01*
X0288546Y0447712D01*
X0288663Y0447794D01*
X0288783Y0447872D01*
X0288904Y0447947D01*
X0289028Y0448019D01*
X0289154Y0448087D01*
X0289281Y0448151D01*
X0289411Y0448212D01*
X0289542Y0448269D01*
X0289674Y0448323D01*
X0289808Y0448372D01*
X0289943Y0448419D01*
X0290080Y0448461D01*
X0290218Y0448499D01*
X0290356Y0448534D01*
X0290496Y0448564D01*
X0290636Y0448591D01*
X0290777Y0448614D01*
X0290919Y0448633D01*
X0291061Y0448648D01*
X0291204Y0448659D01*
X0291346Y0448666D01*
X0291489Y0448669D01*
X0291632Y0448668D01*
X0291775Y0448663D01*
X0291918Y0448654D01*
X0292060Y0448641D01*
X0292202Y0448624D01*
X0292343Y0448603D01*
X0292484Y0448578D01*
X0292624Y0448550D01*
X0292763Y0448517D01*
X0292901Y0448480D01*
X0293038Y0448440D01*
X0293174Y0448396D01*
X0293309Y0448348D01*
X0293442Y0448296D01*
X0293574Y0448241D01*
X0293704Y0448182D01*
X0293833Y0448119D01*
X0293959Y0448053D01*
X0294084Y0447983D01*
X0294207Y0447910D01*
X0294327Y0447834D01*
X0294446Y0447754D01*
X0294562Y0447670D01*
X0294676Y0447584D01*
X0294787Y0447494D01*
X0294896Y0447402D01*
X0295002Y0447306D01*
X0295106Y0447208D01*
X0295207Y0447106D01*
X0295304Y0447002D01*
X0295399Y0446895D01*
X0295491Y0446786D01*
X0295580Y0446674D01*
X0295666Y0446559D01*
X0295748Y0446443D01*
X0295827Y0446323D01*
X0295903Y0446202D01*
X0295975Y0446079D01*
X0296044Y0445954D01*
X0296109Y0445827D01*
X0296171Y0445698D01*
X0296229Y0445567D01*
X0296284Y0445435D01*
X0296334Y0445301D01*
X0296381Y0445166D01*
X0296425Y0445030D01*
X0296464Y0444893D01*
X0296499Y0444754D01*
X0296531Y0444615D01*
X0296559Y0444475D01*
X0296583Y0444334D01*
X0296603Y0444192D01*
X0296619Y0444050D01*
X0296631Y0443908D01*
X0296639Y0443765D01*
X0296643Y0443622D01*
X0296643Y0443480D01*
X0296639Y0443337D01*
X0296631Y0443194D01*
X0296619Y0443052D01*
X0296603Y0442910D01*
X0296583Y0442768D01*
X0296559Y0442627D01*
X0296531Y0442487D01*
X0296499Y0442348D01*
X0296464Y0442209D01*
X0296425Y0442072D01*
X0296381Y0441936D01*
X0296334Y0441801D01*
X0296284Y0441667D01*
X0296229Y0441535D01*
X0296171Y0441404D01*
X0296109Y0441275D01*
X0296044Y0441148D01*
X0295975Y0441023D01*
X0295903Y0440900D01*
X0295827Y0440779D01*
X0295748Y0440659D01*
X0295666Y0440543D01*
X0295580Y0440428D01*
X0295491Y0440316D01*
X0295399Y0440207D01*
X0295304Y0440100D01*
X0295207Y0439996D01*
X0295106Y0439894D01*
X0295002Y0439796D01*
X0294896Y0439700D01*
X0294787Y0439608D01*
X0294676Y0439518D01*
X0294562Y0439432D01*
X0294446Y0439348D01*
X0294327Y0439268D01*
X0294207Y0439192D01*
X0294084Y0439119D01*
X0293959Y0439049D01*
X0293833Y0438983D01*
X0293704Y0438920D01*
X0293574Y0438861D01*
X0293442Y0438806D01*
X0293309Y0438754D01*
X0293174Y0438706D01*
X0293038Y0438662D01*
X0292901Y0438622D01*
X0292763Y0438585D01*
X0292624Y0438552D01*
X0292484Y0438524D01*
X0292343Y0438499D01*
X0292202Y0438478D01*
X0292060Y0438461D01*
X0291918Y0438448D01*
X0291775Y0438439D01*
X0291632Y0438434D01*
X0291489Y0438433D01*
X0291346Y0438436D01*
X0291204Y0438443D01*
X0291061Y0438454D01*
X0290919Y0438469D01*
X0290777Y0438488D01*
X0290636Y0438511D01*
X0290496Y0438538D01*
X0290356Y0438568D01*
X0290218Y0438603D01*
X0290080Y0438641D01*
X0289943Y0438683D01*
X0289808Y0438730D01*
X0289674Y0438779D01*
X0289542Y0438833D01*
X0289411Y0438890D01*
X0289281Y0438951D01*
X0289154Y0439015D01*
X0289028Y0439083D01*
X0288904Y0439155D01*
X0288783Y0439230D01*
X0288663Y0439308D01*
X0288546Y0439390D01*
X0288431Y0439474D01*
X0288318Y0439562D01*
X0288208Y0439653D01*
X0288100Y0439748D01*
X0287996Y0439845D01*
X0287893Y0439945D01*
X0287794Y0440047D01*
X0287698Y0440153D01*
X0287604Y0440261D01*
X0287514Y0440372D01*
X0287427Y0440485D01*
X0287343Y0440601D01*
X0287262Y0440719D01*
X0287185Y0440839D01*
X0287111Y0440961D01*
X0287040Y0441085D01*
X0286973Y0441212D01*
X0286909Y0441340D01*
X0286849Y0441469D01*
X0286793Y0441601D01*
X0286741Y0441734D01*
X0286692Y0441868D01*
X0286647Y0442003D01*
X0286605Y0442140D01*
X0286568Y0442278D01*
X0286534Y0442417D01*
X0286504Y0442557D01*
X0286479Y0442697D01*
X0286457Y0442839D01*
X0286439Y0442981D01*
X0286425Y0443123D01*
X0286415Y0443265D01*
X0286409Y0443408D01*
X0286407Y0443551D01*
D12*
X0293100Y0364811D03*
X0293100Y0356937D03*
X0037194Y0416780D03*
X0037194Y0424654D03*
D13*
X0114950Y0387646D03*
X0114950Y0384496D03*
X0114950Y0381346D03*
X0114950Y0378197D03*
X0114950Y0375047D03*
X0114950Y0371898D03*
X0114950Y0368748D03*
X0114950Y0365598D03*
X0114950Y0362449D03*
X0114950Y0359299D03*
X0114950Y0356150D03*
X0114950Y0353000D03*
X0114950Y0349850D03*
X0114950Y0346701D03*
X0114950Y0343551D03*
X0114950Y0340402D03*
X0114950Y0337252D03*
X0114950Y0334102D03*
D14*
X0078336Y0207724D02*
X0078336Y0186465D01*
X0080304Y0184496D02*
X0080304Y0203787D01*
X0082273Y0206543D02*
X0082273Y0188433D01*
X0084241Y0186465D02*
X0084241Y0201425D01*
X0086210Y0203787D02*
X0086210Y0191976D01*
X0089155Y0193937D02*
X0089155Y0189031D01*
X0089155Y0193937D02*
X0090155Y0193937D01*
X0090155Y0189031D01*
X0089155Y0189031D01*
X0089155Y0190030D02*
X0090155Y0190030D01*
X0090155Y0191029D02*
X0089155Y0191029D01*
X0089155Y0192028D02*
X0090155Y0192028D01*
X0090155Y0193027D02*
X0089155Y0193027D01*
X0089163Y0197882D02*
X0089108Y0198170D01*
X0089047Y0198457D01*
X0088978Y0198743D01*
X0088902Y0199027D01*
X0088820Y0199309D01*
X0088730Y0199589D01*
X0088634Y0199866D01*
X0088531Y0200141D01*
X0088422Y0200414D01*
X0088305Y0200684D01*
X0088182Y0200951D01*
X0088053Y0201214D01*
X0087917Y0201475D01*
X0087775Y0201732D01*
X0087626Y0201985D01*
X0087472Y0202235D01*
X0087311Y0202481D01*
X0087144Y0202723D01*
X0086972Y0202961D01*
X0086794Y0203194D01*
X0086610Y0203423D01*
X0086420Y0203648D01*
X0086225Y0203867D01*
X0086025Y0204082D01*
X0085819Y0204292D01*
X0085609Y0204497D01*
X0085393Y0204697D01*
X0085173Y0204891D01*
X0084948Y0205080D01*
X0084718Y0205263D01*
X0084484Y0205441D01*
X0084246Y0205613D01*
X0084003Y0205778D01*
X0083757Y0205938D01*
X0083507Y0206092D01*
X0083253Y0206240D01*
X0082995Y0206381D01*
X0082734Y0206516D01*
X0082470Y0206645D01*
X0082203Y0206767D01*
X0081933Y0206883D01*
X0081660Y0206991D01*
X0081385Y0207094D01*
X0081107Y0207189D01*
X0080827Y0207278D01*
X0080545Y0207359D01*
X0080260Y0207434D01*
X0079975Y0207502D01*
X0079687Y0207562D01*
X0079398Y0207616D01*
X0079108Y0207663D01*
X0078817Y0207702D01*
X0078525Y0207734D01*
X0078233Y0207760D01*
X0077939Y0207778D01*
X0077646Y0207788D01*
X0077352Y0207792D01*
X0077058Y0207788D01*
X0076765Y0207778D01*
X0076471Y0207760D01*
X0076179Y0207734D01*
X0075887Y0207702D01*
X0075596Y0207663D01*
X0075306Y0207616D01*
X0075017Y0207562D01*
X0074729Y0207502D01*
X0074444Y0207434D01*
X0074159Y0207359D01*
X0073877Y0207278D01*
X0073597Y0207189D01*
X0073319Y0207094D01*
X0073044Y0206991D01*
X0072771Y0206883D01*
X0072501Y0206767D01*
X0072234Y0206645D01*
X0071970Y0206516D01*
X0071709Y0206381D01*
X0071451Y0206240D01*
X0071197Y0206092D01*
X0070947Y0205938D01*
X0070701Y0205778D01*
X0070458Y0205613D01*
X0070220Y0205441D01*
X0069986Y0205263D01*
X0069756Y0205080D01*
X0069531Y0204891D01*
X0069311Y0204697D01*
X0069095Y0204497D01*
X0068885Y0204292D01*
X0068679Y0204082D01*
X0068479Y0203867D01*
X0068284Y0203648D01*
X0068094Y0203423D01*
X0067910Y0203194D01*
X0067732Y0202961D01*
X0067560Y0202723D01*
X0067393Y0202481D01*
X0067232Y0202235D01*
X0067078Y0201985D01*
X0066929Y0201732D01*
X0066787Y0201475D01*
X0066651Y0201214D01*
X0066522Y0200951D01*
X0066399Y0200684D01*
X0066282Y0200414D01*
X0066173Y0200141D01*
X0066070Y0199866D01*
X0065974Y0199589D01*
X0065884Y0199309D01*
X0065802Y0199027D01*
X0065726Y0198743D01*
X0065657Y0198457D01*
X0065596Y0198170D01*
X0065541Y0197882D01*
X0065549Y0197890D02*
X0065549Y0202796D01*
X0065549Y0197890D02*
X0064549Y0197890D01*
X0064549Y0202796D01*
X0065549Y0202796D01*
X0065549Y0198889D02*
X0064549Y0198889D01*
X0064549Y0199888D02*
X0065549Y0199888D01*
X0065549Y0200887D02*
X0064549Y0200887D01*
X0064549Y0201886D02*
X0065549Y0201886D01*
X0068493Y0199850D02*
X0068493Y0188039D01*
X0070462Y0190402D02*
X0070462Y0205362D01*
X0072430Y0203394D02*
X0072430Y0185283D01*
X0074399Y0188039D02*
X0074399Y0207331D01*
X0076367Y0205362D02*
X0076367Y0184102D01*
X0065541Y0193944D02*
X0065596Y0193656D01*
X0065657Y0193369D01*
X0065726Y0193083D01*
X0065802Y0192799D01*
X0065884Y0192517D01*
X0065974Y0192237D01*
X0066070Y0191960D01*
X0066173Y0191685D01*
X0066282Y0191412D01*
X0066399Y0191142D01*
X0066522Y0190875D01*
X0066651Y0190612D01*
X0066787Y0190351D01*
X0066929Y0190094D01*
X0067078Y0189841D01*
X0067232Y0189591D01*
X0067393Y0189345D01*
X0067560Y0189103D01*
X0067732Y0188865D01*
X0067910Y0188632D01*
X0068094Y0188403D01*
X0068284Y0188178D01*
X0068479Y0187959D01*
X0068679Y0187744D01*
X0068885Y0187534D01*
X0069095Y0187329D01*
X0069311Y0187129D01*
X0069531Y0186935D01*
X0069756Y0186746D01*
X0069986Y0186563D01*
X0070220Y0186385D01*
X0070458Y0186213D01*
X0070701Y0186048D01*
X0070947Y0185888D01*
X0071197Y0185734D01*
X0071451Y0185586D01*
X0071709Y0185445D01*
X0071970Y0185310D01*
X0072234Y0185181D01*
X0072501Y0185059D01*
X0072771Y0184943D01*
X0073044Y0184835D01*
X0073319Y0184732D01*
X0073597Y0184637D01*
X0073877Y0184548D01*
X0074159Y0184467D01*
X0074444Y0184392D01*
X0074729Y0184324D01*
X0075017Y0184264D01*
X0075306Y0184210D01*
X0075596Y0184163D01*
X0075887Y0184124D01*
X0076179Y0184092D01*
X0076471Y0184066D01*
X0076765Y0184048D01*
X0077058Y0184038D01*
X0077352Y0184034D01*
X0077646Y0184038D01*
X0077939Y0184048D01*
X0078233Y0184066D01*
X0078525Y0184092D01*
X0078817Y0184124D01*
X0079108Y0184163D01*
X0079398Y0184210D01*
X0079687Y0184264D01*
X0079975Y0184324D01*
X0080260Y0184392D01*
X0080545Y0184467D01*
X0080827Y0184548D01*
X0081107Y0184637D01*
X0081385Y0184732D01*
X0081660Y0184835D01*
X0081933Y0184943D01*
X0082203Y0185059D01*
X0082470Y0185181D01*
X0082734Y0185310D01*
X0082995Y0185445D01*
X0083253Y0185586D01*
X0083507Y0185734D01*
X0083757Y0185888D01*
X0084003Y0186048D01*
X0084246Y0186213D01*
X0084484Y0186385D01*
X0084718Y0186563D01*
X0084948Y0186746D01*
X0085173Y0186935D01*
X0085393Y0187129D01*
X0085609Y0187329D01*
X0085819Y0187534D01*
X0086025Y0187744D01*
X0086225Y0187959D01*
X0086420Y0188178D01*
X0086610Y0188403D01*
X0086794Y0188632D01*
X0086972Y0188865D01*
X0087144Y0189103D01*
X0087311Y0189345D01*
X0087472Y0189591D01*
X0087626Y0189841D01*
X0087775Y0190094D01*
X0087917Y0190351D01*
X0088053Y0190612D01*
X0088182Y0190875D01*
X0088305Y0191142D01*
X0088422Y0191412D01*
X0088531Y0191685D01*
X0088634Y0191960D01*
X0088730Y0192237D01*
X0088820Y0192517D01*
X0088902Y0192799D01*
X0088978Y0193083D01*
X0089047Y0193369D01*
X0089108Y0193656D01*
X0089163Y0193944D01*
X0100974Y0173276D02*
X0112785Y0173276D01*
X0110824Y0176220D02*
X0115730Y0176220D01*
X0110824Y0176220D02*
X0110824Y0177220D01*
X0115730Y0177220D01*
X0115730Y0176220D01*
X0115730Y0177219D02*
X0110824Y0177219D01*
X0118297Y0171307D02*
X0103336Y0171307D01*
X0100974Y0167370D02*
X0120265Y0167370D01*
X0118297Y0165402D02*
X0097037Y0165402D01*
X0099399Y0163433D02*
X0120659Y0163433D01*
X0119478Y0159496D02*
X0101367Y0159496D01*
X0099399Y0157528D02*
X0114360Y0157528D01*
X0116722Y0155559D02*
X0104911Y0155559D01*
X0106872Y0152614D02*
X0101966Y0152614D01*
X0106872Y0152614D02*
X0106872Y0151614D01*
X0101966Y0151614D01*
X0101966Y0152614D01*
X0101966Y0152613D02*
X0106872Y0152613D01*
X0110817Y0152606D02*
X0111105Y0152661D01*
X0111392Y0152722D01*
X0111678Y0152791D01*
X0111962Y0152867D01*
X0112244Y0152949D01*
X0112524Y0153039D01*
X0112801Y0153135D01*
X0113076Y0153238D01*
X0113349Y0153347D01*
X0113619Y0153464D01*
X0113886Y0153587D01*
X0114149Y0153716D01*
X0114410Y0153852D01*
X0114667Y0153994D01*
X0114920Y0154143D01*
X0115170Y0154297D01*
X0115416Y0154458D01*
X0115658Y0154625D01*
X0115896Y0154797D01*
X0116129Y0154975D01*
X0116358Y0155159D01*
X0116583Y0155349D01*
X0116802Y0155544D01*
X0117017Y0155744D01*
X0117227Y0155950D01*
X0117432Y0156160D01*
X0117632Y0156376D01*
X0117826Y0156596D01*
X0118015Y0156821D01*
X0118198Y0157051D01*
X0118376Y0157285D01*
X0118548Y0157523D01*
X0118713Y0157766D01*
X0118873Y0158012D01*
X0119027Y0158262D01*
X0119175Y0158516D01*
X0119316Y0158774D01*
X0119451Y0159035D01*
X0119580Y0159299D01*
X0119702Y0159566D01*
X0119818Y0159836D01*
X0119926Y0160109D01*
X0120029Y0160384D01*
X0120124Y0160662D01*
X0120213Y0160942D01*
X0120294Y0161224D01*
X0120369Y0161509D01*
X0120437Y0161794D01*
X0120497Y0162082D01*
X0120551Y0162371D01*
X0120598Y0162661D01*
X0120637Y0162952D01*
X0120669Y0163244D01*
X0120695Y0163536D01*
X0120713Y0163830D01*
X0120723Y0164123D01*
X0120727Y0164417D01*
X0120723Y0164711D01*
X0120713Y0165004D01*
X0120695Y0165298D01*
X0120669Y0165590D01*
X0120637Y0165882D01*
X0120598Y0166173D01*
X0120551Y0166463D01*
X0120497Y0166752D01*
X0120437Y0167040D01*
X0120369Y0167325D01*
X0120294Y0167610D01*
X0120213Y0167892D01*
X0120124Y0168172D01*
X0120029Y0168450D01*
X0119926Y0168725D01*
X0119818Y0168998D01*
X0119702Y0169268D01*
X0119580Y0169535D01*
X0119451Y0169799D01*
X0119316Y0170060D01*
X0119175Y0170318D01*
X0119027Y0170572D01*
X0118873Y0170822D01*
X0118713Y0171068D01*
X0118548Y0171311D01*
X0118376Y0171549D01*
X0118198Y0171783D01*
X0118015Y0172013D01*
X0117826Y0172238D01*
X0117632Y0172458D01*
X0117432Y0172674D01*
X0117227Y0172884D01*
X0117017Y0173090D01*
X0116802Y0173290D01*
X0116583Y0173485D01*
X0116358Y0173675D01*
X0116129Y0173859D01*
X0115896Y0174037D01*
X0115658Y0174209D01*
X0115416Y0174376D01*
X0115170Y0174537D01*
X0114920Y0174691D01*
X0114667Y0174840D01*
X0114410Y0174982D01*
X0114149Y0175118D01*
X0113886Y0175247D01*
X0113619Y0175370D01*
X0113349Y0175487D01*
X0113076Y0175596D01*
X0112801Y0175699D01*
X0112524Y0175795D01*
X0112244Y0175885D01*
X0111962Y0175967D01*
X0111678Y0176043D01*
X0111392Y0176112D01*
X0111105Y0176173D01*
X0110817Y0176228D01*
X0116328Y0169339D02*
X0098218Y0169339D01*
X0097430Y0161465D02*
X0116722Y0161465D01*
X0106879Y0152606D02*
X0106591Y0152661D01*
X0106304Y0152722D01*
X0106018Y0152791D01*
X0105734Y0152867D01*
X0105452Y0152949D01*
X0105172Y0153039D01*
X0104895Y0153135D01*
X0104620Y0153238D01*
X0104347Y0153347D01*
X0104077Y0153464D01*
X0103810Y0153587D01*
X0103547Y0153716D01*
X0103286Y0153852D01*
X0103029Y0153994D01*
X0102776Y0154143D01*
X0102526Y0154297D01*
X0102280Y0154458D01*
X0102038Y0154625D01*
X0101800Y0154797D01*
X0101567Y0154975D01*
X0101338Y0155159D01*
X0101113Y0155349D01*
X0100894Y0155544D01*
X0100679Y0155744D01*
X0100469Y0155950D01*
X0100264Y0156160D01*
X0100064Y0156376D01*
X0099870Y0156596D01*
X0099681Y0156821D01*
X0099498Y0157051D01*
X0099320Y0157285D01*
X0099148Y0157523D01*
X0098983Y0157766D01*
X0098823Y0158012D01*
X0098669Y0158262D01*
X0098521Y0158516D01*
X0098380Y0158774D01*
X0098245Y0159035D01*
X0098116Y0159299D01*
X0097994Y0159566D01*
X0097878Y0159836D01*
X0097770Y0160109D01*
X0097667Y0160384D01*
X0097572Y0160662D01*
X0097483Y0160942D01*
X0097402Y0161224D01*
X0097327Y0161509D01*
X0097259Y0161794D01*
X0097199Y0162082D01*
X0097145Y0162371D01*
X0097098Y0162661D01*
X0097059Y0162952D01*
X0097027Y0163244D01*
X0097001Y0163536D01*
X0096983Y0163830D01*
X0096973Y0164123D01*
X0096969Y0164417D01*
X0096973Y0164711D01*
X0096983Y0165004D01*
X0097001Y0165298D01*
X0097027Y0165590D01*
X0097059Y0165882D01*
X0097098Y0166173D01*
X0097145Y0166463D01*
X0097199Y0166752D01*
X0097259Y0167040D01*
X0097327Y0167325D01*
X0097402Y0167610D01*
X0097483Y0167892D01*
X0097572Y0168172D01*
X0097667Y0168450D01*
X0097770Y0168725D01*
X0097878Y0168998D01*
X0097994Y0169268D01*
X0098116Y0169535D01*
X0098245Y0169799D01*
X0098380Y0170060D01*
X0098521Y0170318D01*
X0098669Y0170572D01*
X0098823Y0170822D01*
X0098983Y0171068D01*
X0099148Y0171311D01*
X0099320Y0171549D01*
X0099498Y0171783D01*
X0099681Y0172013D01*
X0099870Y0172238D01*
X0100064Y0172458D01*
X0100264Y0172674D01*
X0100469Y0172884D01*
X0100679Y0173090D01*
X0100894Y0173290D01*
X0101113Y0173485D01*
X0101338Y0173675D01*
X0101567Y0173859D01*
X0101800Y0174037D01*
X0102038Y0174209D01*
X0102280Y0174376D01*
X0102526Y0174537D01*
X0102776Y0174691D01*
X0103029Y0174840D01*
X0103286Y0174982D01*
X0103547Y0175118D01*
X0103810Y0175247D01*
X0104077Y0175370D01*
X0104347Y0175487D01*
X0104620Y0175596D01*
X0104895Y0175699D01*
X0105172Y0175795D01*
X0105452Y0175885D01*
X0105734Y0175967D01*
X0106018Y0176043D01*
X0106304Y0176112D01*
X0106591Y0176173D01*
X0106879Y0176228D01*
X0086210Y0140795D02*
X0086210Y0128984D01*
X0089155Y0130945D02*
X0089155Y0126039D01*
X0089155Y0130945D02*
X0090155Y0130945D01*
X0090155Y0126039D01*
X0089155Y0126039D01*
X0089155Y0127038D02*
X0090155Y0127038D01*
X0090155Y0128037D02*
X0089155Y0128037D01*
X0089155Y0129036D02*
X0090155Y0129036D01*
X0090155Y0130035D02*
X0089155Y0130035D01*
X0084241Y0123472D02*
X0084241Y0138433D01*
X0082273Y0143551D02*
X0082273Y0125441D01*
X0080304Y0121504D02*
X0080304Y0140795D01*
X0076367Y0142370D02*
X0076367Y0121110D01*
X0078336Y0123472D02*
X0078336Y0144732D01*
X0074399Y0144339D02*
X0074399Y0125047D01*
X0072430Y0122291D02*
X0072430Y0140402D01*
X0070462Y0142370D02*
X0070462Y0127409D01*
X0068493Y0125047D02*
X0068493Y0136858D01*
X0065549Y0134897D02*
X0065549Y0139803D01*
X0065549Y0134897D02*
X0064549Y0134897D01*
X0064549Y0139803D01*
X0065549Y0139803D01*
X0065549Y0135896D02*
X0064549Y0135896D01*
X0064549Y0136895D02*
X0065549Y0136895D01*
X0065549Y0137894D02*
X0064549Y0137894D01*
X0064549Y0138893D02*
X0065549Y0138893D01*
X0065541Y0130952D02*
X0065596Y0130664D01*
X0065657Y0130377D01*
X0065726Y0130091D01*
X0065802Y0129807D01*
X0065884Y0129525D01*
X0065974Y0129245D01*
X0066070Y0128968D01*
X0066173Y0128693D01*
X0066282Y0128420D01*
X0066399Y0128150D01*
X0066522Y0127883D01*
X0066651Y0127620D01*
X0066787Y0127359D01*
X0066929Y0127102D01*
X0067078Y0126849D01*
X0067232Y0126599D01*
X0067393Y0126353D01*
X0067560Y0126111D01*
X0067732Y0125873D01*
X0067910Y0125640D01*
X0068094Y0125411D01*
X0068284Y0125186D01*
X0068479Y0124967D01*
X0068679Y0124752D01*
X0068885Y0124542D01*
X0069095Y0124337D01*
X0069311Y0124137D01*
X0069531Y0123943D01*
X0069756Y0123754D01*
X0069986Y0123571D01*
X0070220Y0123393D01*
X0070458Y0123221D01*
X0070701Y0123056D01*
X0070947Y0122896D01*
X0071197Y0122742D01*
X0071451Y0122594D01*
X0071709Y0122453D01*
X0071970Y0122318D01*
X0072234Y0122189D01*
X0072501Y0122067D01*
X0072771Y0121951D01*
X0073044Y0121843D01*
X0073319Y0121740D01*
X0073597Y0121645D01*
X0073877Y0121556D01*
X0074159Y0121475D01*
X0074444Y0121400D01*
X0074729Y0121332D01*
X0075017Y0121272D01*
X0075306Y0121218D01*
X0075596Y0121171D01*
X0075887Y0121132D01*
X0076179Y0121100D01*
X0076471Y0121074D01*
X0076765Y0121056D01*
X0077058Y0121046D01*
X0077352Y0121042D01*
X0077646Y0121046D01*
X0077939Y0121056D01*
X0078233Y0121074D01*
X0078525Y0121100D01*
X0078817Y0121132D01*
X0079108Y0121171D01*
X0079398Y0121218D01*
X0079687Y0121272D01*
X0079975Y0121332D01*
X0080260Y0121400D01*
X0080545Y0121475D01*
X0080827Y0121556D01*
X0081107Y0121645D01*
X0081385Y0121740D01*
X0081660Y0121843D01*
X0081933Y0121951D01*
X0082203Y0122067D01*
X0082470Y0122189D01*
X0082734Y0122318D01*
X0082995Y0122453D01*
X0083253Y0122594D01*
X0083507Y0122742D01*
X0083757Y0122896D01*
X0084003Y0123056D01*
X0084246Y0123221D01*
X0084484Y0123393D01*
X0084718Y0123571D01*
X0084948Y0123754D01*
X0085173Y0123943D01*
X0085393Y0124137D01*
X0085609Y0124337D01*
X0085819Y0124542D01*
X0086025Y0124752D01*
X0086225Y0124967D01*
X0086420Y0125186D01*
X0086610Y0125411D01*
X0086794Y0125640D01*
X0086972Y0125873D01*
X0087144Y0126111D01*
X0087311Y0126353D01*
X0087472Y0126599D01*
X0087626Y0126849D01*
X0087775Y0127102D01*
X0087917Y0127359D01*
X0088053Y0127620D01*
X0088182Y0127883D01*
X0088305Y0128150D01*
X0088422Y0128420D01*
X0088531Y0128693D01*
X0088634Y0128968D01*
X0088730Y0129245D01*
X0088820Y0129525D01*
X0088902Y0129807D01*
X0088978Y0130091D01*
X0089047Y0130377D01*
X0089108Y0130664D01*
X0089163Y0130952D01*
X0089163Y0134890D02*
X0089108Y0135178D01*
X0089047Y0135465D01*
X0088978Y0135751D01*
X0088902Y0136035D01*
X0088820Y0136317D01*
X0088730Y0136597D01*
X0088634Y0136874D01*
X0088531Y0137149D01*
X0088422Y0137422D01*
X0088305Y0137692D01*
X0088182Y0137959D01*
X0088053Y0138222D01*
X0087917Y0138483D01*
X0087775Y0138740D01*
X0087626Y0138993D01*
X0087472Y0139243D01*
X0087311Y0139489D01*
X0087144Y0139731D01*
X0086972Y0139969D01*
X0086794Y0140202D01*
X0086610Y0140431D01*
X0086420Y0140656D01*
X0086225Y0140875D01*
X0086025Y0141090D01*
X0085819Y0141300D01*
X0085609Y0141505D01*
X0085393Y0141705D01*
X0085173Y0141899D01*
X0084948Y0142088D01*
X0084718Y0142271D01*
X0084484Y0142449D01*
X0084246Y0142621D01*
X0084003Y0142786D01*
X0083757Y0142946D01*
X0083507Y0143100D01*
X0083253Y0143248D01*
X0082995Y0143389D01*
X0082734Y0143524D01*
X0082470Y0143653D01*
X0082203Y0143775D01*
X0081933Y0143891D01*
X0081660Y0143999D01*
X0081385Y0144102D01*
X0081107Y0144197D01*
X0080827Y0144286D01*
X0080545Y0144367D01*
X0080260Y0144442D01*
X0079975Y0144510D01*
X0079687Y0144570D01*
X0079398Y0144624D01*
X0079108Y0144671D01*
X0078817Y0144710D01*
X0078525Y0144742D01*
X0078233Y0144768D01*
X0077939Y0144786D01*
X0077646Y0144796D01*
X0077352Y0144800D01*
X0077058Y0144796D01*
X0076765Y0144786D01*
X0076471Y0144768D01*
X0076179Y0144742D01*
X0075887Y0144710D01*
X0075596Y0144671D01*
X0075306Y0144624D01*
X0075017Y0144570D01*
X0074729Y0144510D01*
X0074444Y0144442D01*
X0074159Y0144367D01*
X0073877Y0144286D01*
X0073597Y0144197D01*
X0073319Y0144102D01*
X0073044Y0143999D01*
X0072771Y0143891D01*
X0072501Y0143775D01*
X0072234Y0143653D01*
X0071970Y0143524D01*
X0071709Y0143389D01*
X0071451Y0143248D01*
X0071197Y0143100D01*
X0070947Y0142946D01*
X0070701Y0142786D01*
X0070458Y0142621D01*
X0070220Y0142449D01*
X0069986Y0142271D01*
X0069756Y0142088D01*
X0069531Y0141899D01*
X0069311Y0141705D01*
X0069095Y0141505D01*
X0068885Y0141300D01*
X0068679Y0141090D01*
X0068479Y0140875D01*
X0068284Y0140656D01*
X0068094Y0140431D01*
X0067910Y0140202D01*
X0067732Y0139969D01*
X0067560Y0139731D01*
X0067393Y0139489D01*
X0067232Y0139243D01*
X0067078Y0138993D01*
X0066929Y0138740D01*
X0066787Y0138483D01*
X0066651Y0138222D01*
X0066522Y0137959D01*
X0066399Y0137692D01*
X0066282Y0137422D01*
X0066173Y0137149D01*
X0066070Y0136874D01*
X0065974Y0136597D01*
X0065884Y0136317D01*
X0065802Y0136035D01*
X0065726Y0135751D01*
X0065657Y0135465D01*
X0065596Y0135178D01*
X0065541Y0134890D01*
X0053730Y0155559D02*
X0041919Y0155559D01*
X0043880Y0152614D02*
X0038974Y0152614D01*
X0043880Y0152614D02*
X0043880Y0151614D01*
X0038974Y0151614D01*
X0038974Y0152614D01*
X0038974Y0152613D02*
X0043880Y0152613D01*
X0038375Y0159496D02*
X0056486Y0159496D01*
X0053730Y0161465D02*
X0034438Y0161465D01*
X0036407Y0163433D02*
X0057667Y0163433D01*
X0055304Y0165402D02*
X0034045Y0165402D01*
X0035226Y0169339D02*
X0053336Y0169339D01*
X0055304Y0171307D02*
X0040344Y0171307D01*
X0037982Y0173276D02*
X0049793Y0173276D01*
X0047832Y0176220D02*
X0052738Y0176220D01*
X0047832Y0176220D02*
X0047832Y0177220D01*
X0052738Y0177220D01*
X0052738Y0176220D01*
X0052738Y0177219D02*
X0047832Y0177219D01*
X0043887Y0176228D02*
X0043599Y0176173D01*
X0043312Y0176112D01*
X0043026Y0176043D01*
X0042742Y0175967D01*
X0042460Y0175885D01*
X0042180Y0175795D01*
X0041903Y0175699D01*
X0041628Y0175596D01*
X0041355Y0175487D01*
X0041085Y0175370D01*
X0040818Y0175247D01*
X0040555Y0175118D01*
X0040294Y0174982D01*
X0040037Y0174840D01*
X0039784Y0174691D01*
X0039534Y0174537D01*
X0039288Y0174376D01*
X0039046Y0174209D01*
X0038808Y0174037D01*
X0038575Y0173859D01*
X0038346Y0173675D01*
X0038121Y0173485D01*
X0037902Y0173290D01*
X0037687Y0173090D01*
X0037477Y0172884D01*
X0037272Y0172674D01*
X0037072Y0172458D01*
X0036878Y0172238D01*
X0036689Y0172013D01*
X0036506Y0171783D01*
X0036328Y0171549D01*
X0036156Y0171311D01*
X0035991Y0171068D01*
X0035831Y0170822D01*
X0035677Y0170572D01*
X0035529Y0170318D01*
X0035388Y0170060D01*
X0035253Y0169799D01*
X0035124Y0169535D01*
X0035002Y0169268D01*
X0034886Y0168998D01*
X0034778Y0168725D01*
X0034675Y0168450D01*
X0034580Y0168172D01*
X0034491Y0167892D01*
X0034410Y0167610D01*
X0034335Y0167325D01*
X0034267Y0167040D01*
X0034207Y0166752D01*
X0034153Y0166463D01*
X0034106Y0166173D01*
X0034067Y0165882D01*
X0034035Y0165590D01*
X0034009Y0165298D01*
X0033991Y0165004D01*
X0033981Y0164711D01*
X0033977Y0164417D01*
X0033981Y0164123D01*
X0033991Y0163830D01*
X0034009Y0163536D01*
X0034035Y0163244D01*
X0034067Y0162952D01*
X0034106Y0162661D01*
X0034153Y0162371D01*
X0034207Y0162082D01*
X0034267Y0161794D01*
X0034335Y0161509D01*
X0034410Y0161224D01*
X0034491Y0160942D01*
X0034580Y0160662D01*
X0034675Y0160384D01*
X0034778Y0160109D01*
X0034886Y0159836D01*
X0035002Y0159566D01*
X0035124Y0159299D01*
X0035253Y0159035D01*
X0035388Y0158774D01*
X0035529Y0158516D01*
X0035677Y0158262D01*
X0035831Y0158012D01*
X0035991Y0157766D01*
X0036156Y0157523D01*
X0036328Y0157285D01*
X0036506Y0157051D01*
X0036689Y0156821D01*
X0036878Y0156596D01*
X0037072Y0156376D01*
X0037272Y0156160D01*
X0037477Y0155950D01*
X0037687Y0155744D01*
X0037902Y0155544D01*
X0038121Y0155349D01*
X0038346Y0155159D01*
X0038575Y0154975D01*
X0038808Y0154797D01*
X0039046Y0154625D01*
X0039288Y0154458D01*
X0039534Y0154297D01*
X0039784Y0154143D01*
X0040037Y0153994D01*
X0040294Y0153852D01*
X0040555Y0153716D01*
X0040818Y0153587D01*
X0041085Y0153464D01*
X0041355Y0153347D01*
X0041628Y0153238D01*
X0041903Y0153135D01*
X0042180Y0153039D01*
X0042460Y0152949D01*
X0042742Y0152867D01*
X0043026Y0152791D01*
X0043312Y0152722D01*
X0043599Y0152661D01*
X0043887Y0152606D01*
X0036407Y0157528D02*
X0051367Y0157528D01*
X0047825Y0152606D02*
X0048113Y0152661D01*
X0048400Y0152722D01*
X0048686Y0152791D01*
X0048970Y0152867D01*
X0049252Y0152949D01*
X0049532Y0153039D01*
X0049809Y0153135D01*
X0050084Y0153238D01*
X0050357Y0153347D01*
X0050627Y0153464D01*
X0050894Y0153587D01*
X0051157Y0153716D01*
X0051418Y0153852D01*
X0051675Y0153994D01*
X0051928Y0154143D01*
X0052178Y0154297D01*
X0052424Y0154458D01*
X0052666Y0154625D01*
X0052904Y0154797D01*
X0053137Y0154975D01*
X0053366Y0155159D01*
X0053591Y0155349D01*
X0053810Y0155544D01*
X0054025Y0155744D01*
X0054235Y0155950D01*
X0054440Y0156160D01*
X0054640Y0156376D01*
X0054834Y0156596D01*
X0055023Y0156821D01*
X0055206Y0157051D01*
X0055384Y0157285D01*
X0055556Y0157523D01*
X0055721Y0157766D01*
X0055881Y0158012D01*
X0056035Y0158262D01*
X0056183Y0158516D01*
X0056324Y0158774D01*
X0056459Y0159035D01*
X0056588Y0159299D01*
X0056710Y0159566D01*
X0056826Y0159836D01*
X0056934Y0160109D01*
X0057037Y0160384D01*
X0057132Y0160662D01*
X0057221Y0160942D01*
X0057302Y0161224D01*
X0057377Y0161509D01*
X0057445Y0161794D01*
X0057505Y0162082D01*
X0057559Y0162371D01*
X0057606Y0162661D01*
X0057645Y0162952D01*
X0057677Y0163244D01*
X0057703Y0163536D01*
X0057721Y0163830D01*
X0057731Y0164123D01*
X0057735Y0164417D01*
X0057731Y0164711D01*
X0057721Y0165004D01*
X0057703Y0165298D01*
X0057677Y0165590D01*
X0057645Y0165882D01*
X0057606Y0166173D01*
X0057559Y0166463D01*
X0057505Y0166752D01*
X0057445Y0167040D01*
X0057377Y0167325D01*
X0057302Y0167610D01*
X0057221Y0167892D01*
X0057132Y0168172D01*
X0057037Y0168450D01*
X0056934Y0168725D01*
X0056826Y0168998D01*
X0056710Y0169268D01*
X0056588Y0169535D01*
X0056459Y0169799D01*
X0056324Y0170060D01*
X0056183Y0170318D01*
X0056035Y0170572D01*
X0055881Y0170822D01*
X0055721Y0171068D01*
X0055556Y0171311D01*
X0055384Y0171549D01*
X0055206Y0171783D01*
X0055023Y0172013D01*
X0054834Y0172238D01*
X0054640Y0172458D01*
X0054440Y0172674D01*
X0054235Y0172884D01*
X0054025Y0173090D01*
X0053810Y0173290D01*
X0053591Y0173485D01*
X0053366Y0173675D01*
X0053137Y0173859D01*
X0052904Y0174037D01*
X0052666Y0174209D01*
X0052424Y0174376D01*
X0052178Y0174537D01*
X0051928Y0174691D01*
X0051675Y0174840D01*
X0051418Y0174982D01*
X0051157Y0175118D01*
X0050894Y0175247D01*
X0050627Y0175370D01*
X0050357Y0175487D01*
X0050084Y0175596D01*
X0049809Y0175699D01*
X0049532Y0175795D01*
X0049252Y0175885D01*
X0048970Y0175967D01*
X0048686Y0176043D01*
X0048400Y0176112D01*
X0048113Y0176173D01*
X0047825Y0176228D01*
X0057273Y0167370D02*
X0037982Y0167370D01*
X0131702Y0081189D02*
X0152962Y0081189D01*
X0155324Y0079220D02*
X0134852Y0079220D01*
X0132883Y0077252D02*
X0151387Y0077252D01*
X0152175Y0075283D02*
X0140757Y0075283D01*
X0137797Y0074307D02*
X0132891Y0074307D01*
X0137797Y0074307D02*
X0137797Y0073307D01*
X0132891Y0073307D01*
X0132891Y0074307D01*
X0132891Y0074306D02*
X0137797Y0074306D01*
X0137805Y0074299D02*
X0137612Y0074336D01*
X0137421Y0074377D01*
X0137230Y0074423D01*
X0137041Y0074473D01*
X0136853Y0074528D01*
X0136667Y0074588D01*
X0136482Y0074652D01*
X0136298Y0074720D01*
X0136116Y0074794D01*
X0135937Y0074871D01*
X0135759Y0074953D01*
X0135583Y0075039D01*
X0135409Y0075130D01*
X0135238Y0075225D01*
X0135069Y0075324D01*
X0134902Y0075427D01*
X0134739Y0075534D01*
X0134577Y0075645D01*
X0134419Y0075760D01*
X0134263Y0075879D01*
X0134110Y0076002D01*
X0133961Y0076128D01*
X0133814Y0076258D01*
X0133671Y0076391D01*
X0133531Y0076528D01*
X0133394Y0076669D01*
X0133261Y0076812D01*
X0133132Y0076959D01*
X0133006Y0077109D01*
X0132884Y0077262D01*
X0132765Y0077418D01*
X0132651Y0077577D01*
X0132540Y0077739D01*
X0132434Y0077903D01*
X0132331Y0078070D01*
X0132233Y0078239D01*
X0132138Y0078411D01*
X0132048Y0078585D01*
X0131963Y0078761D01*
X0131881Y0078939D01*
X0131804Y0079119D01*
X0131732Y0079301D01*
X0131664Y0079485D01*
X0131600Y0079670D01*
X0131541Y0079857D01*
X0131486Y0080045D01*
X0131437Y0080234D01*
X0131392Y0080425D01*
X0131351Y0080616D01*
X0131315Y0080809D01*
X0131284Y0081002D01*
X0131258Y0081196D01*
X0131236Y0081391D01*
X0131220Y0081586D01*
X0131208Y0081781D01*
X0131200Y0081977D01*
X0131198Y0082173D01*
X0131200Y0082369D01*
X0131208Y0082565D01*
X0131220Y0082760D01*
X0131236Y0082955D01*
X0131258Y0083150D01*
X0131284Y0083344D01*
X0131315Y0083537D01*
X0131351Y0083730D01*
X0131392Y0083921D01*
X0131437Y0084112D01*
X0131486Y0084301D01*
X0131541Y0084489D01*
X0131600Y0084676D01*
X0131664Y0084861D01*
X0131732Y0085045D01*
X0131804Y0085227D01*
X0131881Y0085407D01*
X0131963Y0085585D01*
X0132048Y0085761D01*
X0132138Y0085935D01*
X0132233Y0086107D01*
X0132331Y0086276D01*
X0132434Y0086443D01*
X0132540Y0086607D01*
X0132651Y0086769D01*
X0132765Y0086928D01*
X0132884Y0087084D01*
X0133006Y0087237D01*
X0133132Y0087387D01*
X0133261Y0087534D01*
X0133394Y0087677D01*
X0133531Y0087818D01*
X0133671Y0087955D01*
X0133814Y0088088D01*
X0133961Y0088218D01*
X0134110Y0088344D01*
X0134263Y0088467D01*
X0134419Y0088586D01*
X0134577Y0088701D01*
X0134739Y0088812D01*
X0134902Y0088919D01*
X0135069Y0089022D01*
X0135238Y0089121D01*
X0135409Y0089216D01*
X0135583Y0089307D01*
X0135759Y0089393D01*
X0135937Y0089475D01*
X0136116Y0089552D01*
X0136298Y0089626D01*
X0136482Y0089694D01*
X0136667Y0089758D01*
X0136853Y0089818D01*
X0137041Y0089873D01*
X0137230Y0089923D01*
X0137421Y0089969D01*
X0137612Y0090010D01*
X0137805Y0090047D01*
X0135245Y0089063D02*
X0146663Y0089063D01*
X0149615Y0090047D02*
X0149808Y0090010D01*
X0149999Y0089969D01*
X0150190Y0089923D01*
X0150379Y0089873D01*
X0150567Y0089818D01*
X0150753Y0089758D01*
X0150938Y0089694D01*
X0151122Y0089626D01*
X0151304Y0089552D01*
X0151483Y0089475D01*
X0151661Y0089393D01*
X0151837Y0089307D01*
X0152011Y0089216D01*
X0152182Y0089121D01*
X0152351Y0089022D01*
X0152518Y0088919D01*
X0152681Y0088812D01*
X0152843Y0088701D01*
X0153001Y0088586D01*
X0153157Y0088467D01*
X0153310Y0088344D01*
X0153459Y0088218D01*
X0153606Y0088088D01*
X0153749Y0087955D01*
X0153889Y0087818D01*
X0154026Y0087677D01*
X0154159Y0087534D01*
X0154288Y0087387D01*
X0154414Y0087237D01*
X0154536Y0087084D01*
X0154655Y0086928D01*
X0154769Y0086769D01*
X0154880Y0086607D01*
X0154986Y0086443D01*
X0155089Y0086276D01*
X0155187Y0086107D01*
X0155282Y0085935D01*
X0155372Y0085761D01*
X0155457Y0085585D01*
X0155539Y0085407D01*
X0155616Y0085227D01*
X0155688Y0085045D01*
X0155756Y0084861D01*
X0155820Y0084676D01*
X0155879Y0084489D01*
X0155934Y0084301D01*
X0155983Y0084112D01*
X0156028Y0083921D01*
X0156069Y0083730D01*
X0156105Y0083537D01*
X0156136Y0083344D01*
X0156162Y0083150D01*
X0156184Y0082955D01*
X0156200Y0082760D01*
X0156212Y0082565D01*
X0156220Y0082369D01*
X0156222Y0082173D01*
X0156220Y0081977D01*
X0156212Y0081781D01*
X0156200Y0081586D01*
X0156184Y0081391D01*
X0156162Y0081196D01*
X0156136Y0081002D01*
X0156105Y0080809D01*
X0156069Y0080616D01*
X0156028Y0080425D01*
X0155983Y0080234D01*
X0155934Y0080045D01*
X0155879Y0079857D01*
X0155820Y0079670D01*
X0155756Y0079485D01*
X0155688Y0079301D01*
X0155616Y0079119D01*
X0155539Y0078939D01*
X0155457Y0078761D01*
X0155372Y0078585D01*
X0155282Y0078411D01*
X0155187Y0078239D01*
X0155089Y0078070D01*
X0154986Y0077903D01*
X0154880Y0077739D01*
X0154769Y0077577D01*
X0154655Y0077418D01*
X0154536Y0077262D01*
X0154414Y0077109D01*
X0154288Y0076959D01*
X0154159Y0076812D01*
X0154026Y0076669D01*
X0153889Y0076528D01*
X0153749Y0076391D01*
X0153606Y0076258D01*
X0153459Y0076128D01*
X0153310Y0076002D01*
X0153157Y0075879D01*
X0153001Y0075760D01*
X0152843Y0075645D01*
X0152681Y0075534D01*
X0152518Y0075427D01*
X0152351Y0075324D01*
X0152182Y0075225D01*
X0152011Y0075130D01*
X0151837Y0075039D01*
X0151661Y0074953D01*
X0151483Y0074871D01*
X0151304Y0074794D01*
X0151122Y0074720D01*
X0150938Y0074652D01*
X0150753Y0074588D01*
X0150567Y0074528D01*
X0150379Y0074473D01*
X0150190Y0074423D01*
X0149999Y0074377D01*
X0149808Y0074336D01*
X0149615Y0074299D01*
X0156112Y0083157D02*
X0134458Y0083157D01*
X0132096Y0085126D02*
X0152568Y0085126D01*
X0154537Y0087094D02*
X0136033Y0087094D01*
X0149623Y0090039D02*
X0154529Y0090039D01*
X0149623Y0090039D02*
X0149623Y0091039D01*
X0154529Y0091039D01*
X0154529Y0090039D01*
X0154529Y0091038D02*
X0149623Y0091038D01*
X0157950Y0118402D02*
X0162856Y0118402D01*
X0162856Y0117402D01*
X0157950Y0117402D01*
X0157950Y0118402D01*
X0157950Y0118401D02*
X0162856Y0118401D01*
X0160895Y0121346D02*
X0172706Y0121346D01*
X0170344Y0123315D02*
X0155383Y0123315D01*
X0157352Y0125283D02*
X0164832Y0125283D01*
X0175462Y0125283D01*
X0176643Y0129220D02*
X0169556Y0129220D01*
X0167785Y0133157D02*
X0176249Y0133157D01*
X0172312Y0135126D02*
X0164832Y0135126D01*
X0154202Y0135126D01*
X0153021Y0131189D02*
X0160108Y0131189D01*
X0161879Y0127252D02*
X0153415Y0127252D01*
X0159320Y0137094D02*
X0174281Y0137094D01*
X0168769Y0139063D02*
X0156958Y0139063D01*
X0164832Y0135127D02*
X0164701Y0135126D01*
X0164569Y0135122D01*
X0164438Y0135113D01*
X0164306Y0135101D01*
X0164176Y0135085D01*
X0164045Y0135065D01*
X0163916Y0135041D01*
X0163787Y0135013D01*
X0163659Y0134982D01*
X0163532Y0134947D01*
X0163406Y0134908D01*
X0163282Y0134865D01*
X0163158Y0134819D01*
X0163036Y0134769D01*
X0162916Y0134716D01*
X0162797Y0134659D01*
X0162680Y0134599D01*
X0162565Y0134535D01*
X0162451Y0134468D01*
X0162340Y0134397D01*
X0162231Y0134324D01*
X0162124Y0134247D01*
X0162019Y0134167D01*
X0161917Y0134084D01*
X0161817Y0133998D01*
X0161720Y0133909D01*
X0161625Y0133817D01*
X0161534Y0133723D01*
X0161445Y0133625D01*
X0161359Y0133526D01*
X0161276Y0133423D01*
X0161195Y0133319D01*
X0161119Y0133212D01*
X0161045Y0133103D01*
X0160974Y0132992D01*
X0160907Y0132878D01*
X0160843Y0132763D01*
X0160783Y0132646D01*
X0160726Y0132527D01*
X0160672Y0132407D01*
X0160623Y0132285D01*
X0160576Y0132161D01*
X0160534Y0132037D01*
X0160495Y0131911D01*
X0160460Y0131784D01*
X0160428Y0131656D01*
X0160400Y0131527D01*
X0160377Y0131398D01*
X0160357Y0131267D01*
X0160340Y0131137D01*
X0160328Y0131006D01*
X0160320Y0130874D01*
X0160315Y0130742D01*
X0160314Y0130611D01*
X0160317Y0130479D01*
X0160324Y0130347D01*
X0160335Y0130216D01*
X0160350Y0130085D01*
X0160369Y0129955D01*
X0160391Y0129825D01*
X0160417Y0129696D01*
X0160447Y0129568D01*
X0160481Y0129440D01*
X0160519Y0129314D01*
X0160560Y0129189D01*
X0160605Y0129065D01*
X0160653Y0128943D01*
X0160705Y0128822D01*
X0160761Y0128702D01*
X0160820Y0128585D01*
X0160883Y0128469D01*
X0160949Y0128355D01*
X0161018Y0128243D01*
X0161091Y0128133D01*
X0161166Y0128025D01*
X0161245Y0127919D01*
X0161327Y0127816D01*
X0161412Y0127716D01*
X0161500Y0127617D01*
X0161591Y0127522D01*
X0161684Y0127429D01*
X0161781Y0127339D01*
X0161879Y0127252D01*
X0164832Y0125283D02*
X0164963Y0125284D01*
X0165095Y0125288D01*
X0165226Y0125297D01*
X0165358Y0125309D01*
X0165488Y0125325D01*
X0165619Y0125345D01*
X0165748Y0125369D01*
X0165877Y0125397D01*
X0166005Y0125428D01*
X0166132Y0125463D01*
X0166258Y0125502D01*
X0166382Y0125545D01*
X0166506Y0125591D01*
X0166628Y0125641D01*
X0166748Y0125694D01*
X0166867Y0125751D01*
X0166984Y0125811D01*
X0167099Y0125875D01*
X0167213Y0125942D01*
X0167324Y0126013D01*
X0167433Y0126086D01*
X0167540Y0126163D01*
X0167645Y0126243D01*
X0167747Y0126326D01*
X0167847Y0126412D01*
X0167944Y0126501D01*
X0168039Y0126593D01*
X0168130Y0126687D01*
X0168219Y0126785D01*
X0168305Y0126884D01*
X0168388Y0126987D01*
X0168469Y0127091D01*
X0168545Y0127198D01*
X0168619Y0127307D01*
X0168690Y0127418D01*
X0168757Y0127532D01*
X0168821Y0127647D01*
X0168881Y0127764D01*
X0168938Y0127883D01*
X0168992Y0128003D01*
X0169041Y0128125D01*
X0169088Y0128249D01*
X0169130Y0128373D01*
X0169169Y0128499D01*
X0169204Y0128626D01*
X0169236Y0128754D01*
X0169264Y0128883D01*
X0169287Y0129012D01*
X0169307Y0129143D01*
X0169324Y0129273D01*
X0169336Y0129404D01*
X0169344Y0129536D01*
X0169349Y0129668D01*
X0169350Y0129799D01*
X0169347Y0129931D01*
X0169340Y0130063D01*
X0169329Y0130194D01*
X0169314Y0130325D01*
X0169295Y0130455D01*
X0169273Y0130585D01*
X0169247Y0130714D01*
X0169217Y0130842D01*
X0169183Y0130970D01*
X0169145Y0131096D01*
X0169104Y0131221D01*
X0169059Y0131345D01*
X0169011Y0131467D01*
X0168959Y0131588D01*
X0168903Y0131708D01*
X0168844Y0131825D01*
X0168781Y0131941D01*
X0168715Y0132055D01*
X0168646Y0132167D01*
X0168573Y0132277D01*
X0168498Y0132385D01*
X0168419Y0132491D01*
X0168337Y0132594D01*
X0168252Y0132694D01*
X0168164Y0132793D01*
X0168073Y0132888D01*
X0167980Y0132981D01*
X0167883Y0133071D01*
X0167785Y0133158D01*
X0162863Y0142016D02*
X0162575Y0141961D01*
X0162288Y0141900D01*
X0162002Y0141831D01*
X0161718Y0141755D01*
X0161436Y0141673D01*
X0161156Y0141583D01*
X0160879Y0141487D01*
X0160604Y0141384D01*
X0160331Y0141275D01*
X0160061Y0141158D01*
X0159794Y0141035D01*
X0159531Y0140906D01*
X0159270Y0140770D01*
X0159013Y0140628D01*
X0158760Y0140479D01*
X0158510Y0140325D01*
X0158264Y0140164D01*
X0158022Y0139997D01*
X0157784Y0139825D01*
X0157551Y0139647D01*
X0157322Y0139463D01*
X0157097Y0139273D01*
X0156878Y0139078D01*
X0156663Y0138878D01*
X0156453Y0138672D01*
X0156248Y0138462D01*
X0156048Y0138246D01*
X0155854Y0138026D01*
X0155665Y0137801D01*
X0155482Y0137571D01*
X0155304Y0137337D01*
X0155132Y0137099D01*
X0154967Y0136856D01*
X0154807Y0136610D01*
X0154653Y0136360D01*
X0154505Y0136106D01*
X0154364Y0135848D01*
X0154229Y0135587D01*
X0154100Y0135323D01*
X0153978Y0135056D01*
X0153862Y0134786D01*
X0153754Y0134513D01*
X0153651Y0134238D01*
X0153556Y0133960D01*
X0153467Y0133680D01*
X0153386Y0133398D01*
X0153311Y0133113D01*
X0153243Y0132828D01*
X0153183Y0132540D01*
X0153129Y0132251D01*
X0153082Y0131961D01*
X0153043Y0131670D01*
X0153011Y0131378D01*
X0152985Y0131086D01*
X0152967Y0130792D01*
X0152957Y0130499D01*
X0152953Y0130205D01*
X0152957Y0129911D01*
X0152967Y0129618D01*
X0152985Y0129324D01*
X0153011Y0129032D01*
X0153043Y0128740D01*
X0153082Y0128449D01*
X0153129Y0128159D01*
X0153183Y0127870D01*
X0153243Y0127582D01*
X0153311Y0127297D01*
X0153386Y0127012D01*
X0153467Y0126730D01*
X0153556Y0126450D01*
X0153651Y0126172D01*
X0153754Y0125897D01*
X0153862Y0125624D01*
X0153978Y0125354D01*
X0154100Y0125087D01*
X0154229Y0124823D01*
X0154364Y0124562D01*
X0154505Y0124304D01*
X0154653Y0124050D01*
X0154807Y0123800D01*
X0154967Y0123554D01*
X0155132Y0123311D01*
X0155304Y0123073D01*
X0155482Y0122839D01*
X0155665Y0122609D01*
X0155854Y0122384D01*
X0156048Y0122164D01*
X0156248Y0121948D01*
X0156453Y0121738D01*
X0156663Y0121532D01*
X0156878Y0121332D01*
X0157097Y0121137D01*
X0157322Y0120947D01*
X0157551Y0120763D01*
X0157784Y0120585D01*
X0158022Y0120413D01*
X0158264Y0120246D01*
X0158510Y0120085D01*
X0158760Y0119931D01*
X0159013Y0119782D01*
X0159270Y0119640D01*
X0159531Y0119504D01*
X0159794Y0119375D01*
X0160061Y0119252D01*
X0160331Y0119135D01*
X0160604Y0119026D01*
X0160879Y0118923D01*
X0161156Y0118827D01*
X0161436Y0118737D01*
X0161718Y0118655D01*
X0162002Y0118579D01*
X0162288Y0118510D01*
X0162575Y0118449D01*
X0162863Y0118394D01*
X0166801Y0118394D02*
X0167089Y0118449D01*
X0167376Y0118510D01*
X0167662Y0118579D01*
X0167946Y0118655D01*
X0168228Y0118737D01*
X0168508Y0118827D01*
X0168785Y0118923D01*
X0169060Y0119026D01*
X0169333Y0119135D01*
X0169603Y0119252D01*
X0169870Y0119375D01*
X0170133Y0119504D01*
X0170394Y0119640D01*
X0170651Y0119782D01*
X0170904Y0119931D01*
X0171154Y0120085D01*
X0171400Y0120246D01*
X0171642Y0120413D01*
X0171880Y0120585D01*
X0172113Y0120763D01*
X0172342Y0120947D01*
X0172567Y0121137D01*
X0172786Y0121332D01*
X0173001Y0121532D01*
X0173211Y0121738D01*
X0173416Y0121948D01*
X0173616Y0122164D01*
X0173810Y0122384D01*
X0173999Y0122609D01*
X0174182Y0122839D01*
X0174360Y0123073D01*
X0174532Y0123311D01*
X0174697Y0123554D01*
X0174857Y0123800D01*
X0175011Y0124050D01*
X0175159Y0124304D01*
X0175300Y0124562D01*
X0175435Y0124823D01*
X0175564Y0125087D01*
X0175686Y0125354D01*
X0175802Y0125624D01*
X0175910Y0125897D01*
X0176013Y0126172D01*
X0176108Y0126450D01*
X0176197Y0126730D01*
X0176278Y0127012D01*
X0176353Y0127297D01*
X0176421Y0127582D01*
X0176481Y0127870D01*
X0176535Y0128159D01*
X0176582Y0128449D01*
X0176621Y0128740D01*
X0176653Y0129032D01*
X0176679Y0129324D01*
X0176697Y0129618D01*
X0176707Y0129911D01*
X0176711Y0130205D01*
X0176707Y0130499D01*
X0176697Y0130792D01*
X0176679Y0131086D01*
X0176653Y0131378D01*
X0176621Y0131670D01*
X0176582Y0131961D01*
X0176535Y0132251D01*
X0176481Y0132540D01*
X0176421Y0132828D01*
X0176353Y0133113D01*
X0176278Y0133398D01*
X0176197Y0133680D01*
X0176108Y0133960D01*
X0176013Y0134238D01*
X0175910Y0134513D01*
X0175802Y0134786D01*
X0175686Y0135056D01*
X0175564Y0135323D01*
X0175435Y0135587D01*
X0175300Y0135848D01*
X0175159Y0136106D01*
X0175011Y0136360D01*
X0174857Y0136610D01*
X0174697Y0136856D01*
X0174532Y0137099D01*
X0174360Y0137337D01*
X0174182Y0137571D01*
X0173999Y0137801D01*
X0173810Y0138026D01*
X0173616Y0138246D01*
X0173416Y0138462D01*
X0173211Y0138672D01*
X0173001Y0138878D01*
X0172786Y0139078D01*
X0172567Y0139273D01*
X0172342Y0139463D01*
X0172113Y0139647D01*
X0171880Y0139825D01*
X0171642Y0139997D01*
X0171400Y0140164D01*
X0171154Y0140325D01*
X0170904Y0140479D01*
X0170651Y0140628D01*
X0170394Y0140770D01*
X0170133Y0140906D01*
X0169870Y0141035D01*
X0169603Y0141158D01*
X0169333Y0141275D01*
X0169060Y0141384D01*
X0168785Y0141487D01*
X0168508Y0141583D01*
X0168228Y0141673D01*
X0167946Y0141755D01*
X0167662Y0141831D01*
X0167376Y0141900D01*
X0167089Y0141961D01*
X0166801Y0142016D01*
X0166808Y0142008D02*
X0171714Y0142008D01*
X0166808Y0142008D02*
X0166808Y0143008D01*
X0171714Y0143008D01*
X0171714Y0142008D01*
X0171714Y0143007D02*
X0166808Y0143007D01*
X0169761Y0177457D02*
X0174667Y0177457D01*
X0174667Y0176457D01*
X0169761Y0176457D01*
X0169761Y0177457D01*
X0169761Y0177456D02*
X0174667Y0177456D01*
X0172706Y0180402D02*
X0184517Y0180402D01*
X0182155Y0182370D02*
X0167194Y0182370D01*
X0169163Y0184339D02*
X0176643Y0184339D01*
X0187273Y0184339D01*
X0188454Y0188276D02*
X0181367Y0188276D01*
X0179596Y0192213D02*
X0188060Y0192213D01*
X0186092Y0196150D02*
X0171131Y0196150D01*
X0168769Y0198118D02*
X0180580Y0198118D01*
X0178619Y0201063D02*
X0183525Y0201063D01*
X0178619Y0201063D02*
X0178619Y0202063D01*
X0183525Y0202063D01*
X0183525Y0201063D01*
X0183525Y0202062D02*
X0178619Y0202062D01*
X0176643Y0194181D02*
X0166013Y0194181D01*
X0164832Y0190244D02*
X0171919Y0190244D01*
X0173690Y0186307D02*
X0165226Y0186307D01*
X0178612Y0177449D02*
X0178900Y0177504D01*
X0179187Y0177565D01*
X0179473Y0177634D01*
X0179757Y0177710D01*
X0180039Y0177792D01*
X0180319Y0177882D01*
X0180596Y0177978D01*
X0180871Y0178081D01*
X0181144Y0178190D01*
X0181414Y0178307D01*
X0181681Y0178430D01*
X0181944Y0178559D01*
X0182205Y0178695D01*
X0182462Y0178837D01*
X0182715Y0178986D01*
X0182965Y0179140D01*
X0183211Y0179301D01*
X0183453Y0179468D01*
X0183691Y0179640D01*
X0183924Y0179818D01*
X0184153Y0180002D01*
X0184378Y0180192D01*
X0184597Y0180387D01*
X0184812Y0180587D01*
X0185022Y0180793D01*
X0185227Y0181003D01*
X0185427Y0181219D01*
X0185621Y0181439D01*
X0185810Y0181664D01*
X0185993Y0181894D01*
X0186171Y0182128D01*
X0186343Y0182366D01*
X0186508Y0182609D01*
X0186668Y0182855D01*
X0186822Y0183105D01*
X0186970Y0183359D01*
X0187111Y0183617D01*
X0187246Y0183878D01*
X0187375Y0184142D01*
X0187497Y0184409D01*
X0187613Y0184679D01*
X0187721Y0184952D01*
X0187824Y0185227D01*
X0187919Y0185505D01*
X0188008Y0185785D01*
X0188089Y0186067D01*
X0188164Y0186352D01*
X0188232Y0186637D01*
X0188292Y0186925D01*
X0188346Y0187214D01*
X0188393Y0187504D01*
X0188432Y0187795D01*
X0188464Y0188087D01*
X0188490Y0188379D01*
X0188508Y0188673D01*
X0188518Y0188966D01*
X0188522Y0189260D01*
X0188518Y0189554D01*
X0188508Y0189847D01*
X0188490Y0190141D01*
X0188464Y0190433D01*
X0188432Y0190725D01*
X0188393Y0191016D01*
X0188346Y0191306D01*
X0188292Y0191595D01*
X0188232Y0191883D01*
X0188164Y0192168D01*
X0188089Y0192453D01*
X0188008Y0192735D01*
X0187919Y0193015D01*
X0187824Y0193293D01*
X0187721Y0193568D01*
X0187613Y0193841D01*
X0187497Y0194111D01*
X0187375Y0194378D01*
X0187246Y0194642D01*
X0187111Y0194903D01*
X0186970Y0195161D01*
X0186822Y0195415D01*
X0186668Y0195665D01*
X0186508Y0195911D01*
X0186343Y0196154D01*
X0186171Y0196392D01*
X0185993Y0196626D01*
X0185810Y0196856D01*
X0185621Y0197081D01*
X0185427Y0197301D01*
X0185227Y0197517D01*
X0185022Y0197727D01*
X0184812Y0197933D01*
X0184597Y0198133D01*
X0184378Y0198328D01*
X0184153Y0198518D01*
X0183924Y0198702D01*
X0183691Y0198880D01*
X0183453Y0199052D01*
X0183211Y0199219D01*
X0182965Y0199380D01*
X0182715Y0199534D01*
X0182462Y0199683D01*
X0182205Y0199825D01*
X0181944Y0199961D01*
X0181681Y0200090D01*
X0181414Y0200213D01*
X0181144Y0200330D01*
X0180871Y0200439D01*
X0180596Y0200542D01*
X0180319Y0200638D01*
X0180039Y0200728D01*
X0179757Y0200810D01*
X0179473Y0200886D01*
X0179187Y0200955D01*
X0178900Y0201016D01*
X0178612Y0201071D01*
X0176643Y0194181D02*
X0184123Y0194181D01*
X0176643Y0194182D02*
X0176512Y0194181D01*
X0176380Y0194177D01*
X0176249Y0194168D01*
X0176117Y0194156D01*
X0175987Y0194140D01*
X0175856Y0194120D01*
X0175727Y0194096D01*
X0175598Y0194068D01*
X0175470Y0194037D01*
X0175343Y0194002D01*
X0175217Y0193963D01*
X0175093Y0193920D01*
X0174969Y0193874D01*
X0174847Y0193824D01*
X0174727Y0193771D01*
X0174608Y0193714D01*
X0174491Y0193654D01*
X0174376Y0193590D01*
X0174262Y0193523D01*
X0174151Y0193452D01*
X0174042Y0193379D01*
X0173935Y0193302D01*
X0173830Y0193222D01*
X0173728Y0193139D01*
X0173628Y0193053D01*
X0173531Y0192964D01*
X0173436Y0192872D01*
X0173345Y0192778D01*
X0173256Y0192680D01*
X0173170Y0192581D01*
X0173087Y0192478D01*
X0173006Y0192374D01*
X0172930Y0192267D01*
X0172856Y0192158D01*
X0172785Y0192047D01*
X0172718Y0191933D01*
X0172654Y0191818D01*
X0172594Y0191701D01*
X0172537Y0191582D01*
X0172483Y0191462D01*
X0172434Y0191340D01*
X0172387Y0191216D01*
X0172345Y0191092D01*
X0172306Y0190966D01*
X0172271Y0190839D01*
X0172239Y0190711D01*
X0172211Y0190582D01*
X0172188Y0190453D01*
X0172168Y0190322D01*
X0172151Y0190192D01*
X0172139Y0190061D01*
X0172131Y0189929D01*
X0172126Y0189797D01*
X0172125Y0189666D01*
X0172128Y0189534D01*
X0172135Y0189402D01*
X0172146Y0189271D01*
X0172161Y0189140D01*
X0172180Y0189010D01*
X0172202Y0188880D01*
X0172228Y0188751D01*
X0172258Y0188623D01*
X0172292Y0188495D01*
X0172330Y0188369D01*
X0172371Y0188244D01*
X0172416Y0188120D01*
X0172464Y0187998D01*
X0172516Y0187877D01*
X0172572Y0187757D01*
X0172631Y0187640D01*
X0172694Y0187524D01*
X0172760Y0187410D01*
X0172829Y0187298D01*
X0172902Y0187188D01*
X0172977Y0187080D01*
X0173056Y0186974D01*
X0173138Y0186871D01*
X0173223Y0186771D01*
X0173311Y0186672D01*
X0173402Y0186577D01*
X0173495Y0186484D01*
X0173592Y0186394D01*
X0173690Y0186307D01*
X0176643Y0184338D02*
X0176774Y0184339D01*
X0176906Y0184343D01*
X0177037Y0184352D01*
X0177169Y0184364D01*
X0177299Y0184380D01*
X0177430Y0184400D01*
X0177559Y0184424D01*
X0177688Y0184452D01*
X0177816Y0184483D01*
X0177943Y0184518D01*
X0178069Y0184557D01*
X0178193Y0184600D01*
X0178317Y0184646D01*
X0178439Y0184696D01*
X0178559Y0184749D01*
X0178678Y0184806D01*
X0178795Y0184866D01*
X0178910Y0184930D01*
X0179024Y0184997D01*
X0179135Y0185068D01*
X0179244Y0185141D01*
X0179351Y0185218D01*
X0179456Y0185298D01*
X0179558Y0185381D01*
X0179658Y0185467D01*
X0179755Y0185556D01*
X0179850Y0185648D01*
X0179941Y0185742D01*
X0180030Y0185840D01*
X0180116Y0185939D01*
X0180199Y0186042D01*
X0180280Y0186146D01*
X0180356Y0186253D01*
X0180430Y0186362D01*
X0180501Y0186473D01*
X0180568Y0186587D01*
X0180632Y0186702D01*
X0180692Y0186819D01*
X0180749Y0186938D01*
X0180803Y0187058D01*
X0180852Y0187180D01*
X0180899Y0187304D01*
X0180941Y0187428D01*
X0180980Y0187554D01*
X0181015Y0187681D01*
X0181047Y0187809D01*
X0181075Y0187938D01*
X0181098Y0188067D01*
X0181118Y0188198D01*
X0181135Y0188328D01*
X0181147Y0188459D01*
X0181155Y0188591D01*
X0181160Y0188723D01*
X0181161Y0188854D01*
X0181158Y0188986D01*
X0181151Y0189118D01*
X0181140Y0189249D01*
X0181125Y0189380D01*
X0181106Y0189510D01*
X0181084Y0189640D01*
X0181058Y0189769D01*
X0181028Y0189897D01*
X0180994Y0190025D01*
X0180956Y0190151D01*
X0180915Y0190276D01*
X0180870Y0190400D01*
X0180822Y0190522D01*
X0180770Y0190643D01*
X0180714Y0190763D01*
X0180655Y0190880D01*
X0180592Y0190996D01*
X0180526Y0191110D01*
X0180457Y0191222D01*
X0180384Y0191332D01*
X0180309Y0191440D01*
X0180230Y0191546D01*
X0180148Y0191649D01*
X0180063Y0191749D01*
X0179975Y0191848D01*
X0179884Y0191943D01*
X0179791Y0192036D01*
X0179694Y0192126D01*
X0179596Y0192213D01*
X0174674Y0201071D02*
X0174386Y0201016D01*
X0174099Y0200955D01*
X0173813Y0200886D01*
X0173529Y0200810D01*
X0173247Y0200728D01*
X0172967Y0200638D01*
X0172690Y0200542D01*
X0172415Y0200439D01*
X0172142Y0200330D01*
X0171872Y0200213D01*
X0171605Y0200090D01*
X0171342Y0199961D01*
X0171081Y0199825D01*
X0170824Y0199683D01*
X0170571Y0199534D01*
X0170321Y0199380D01*
X0170075Y0199219D01*
X0169833Y0199052D01*
X0169595Y0198880D01*
X0169362Y0198702D01*
X0169133Y0198518D01*
X0168908Y0198328D01*
X0168689Y0198133D01*
X0168474Y0197933D01*
X0168264Y0197727D01*
X0168059Y0197517D01*
X0167859Y0197301D01*
X0167665Y0197081D01*
X0167476Y0196856D01*
X0167293Y0196626D01*
X0167115Y0196392D01*
X0166943Y0196154D01*
X0166778Y0195911D01*
X0166618Y0195665D01*
X0166464Y0195415D01*
X0166316Y0195161D01*
X0166175Y0194903D01*
X0166040Y0194642D01*
X0165911Y0194378D01*
X0165789Y0194111D01*
X0165673Y0193841D01*
X0165565Y0193568D01*
X0165462Y0193293D01*
X0165367Y0193015D01*
X0165278Y0192735D01*
X0165197Y0192453D01*
X0165122Y0192168D01*
X0165054Y0191883D01*
X0164994Y0191595D01*
X0164940Y0191306D01*
X0164893Y0191016D01*
X0164854Y0190725D01*
X0164822Y0190433D01*
X0164796Y0190141D01*
X0164778Y0189847D01*
X0164768Y0189554D01*
X0164764Y0189260D01*
X0164768Y0188966D01*
X0164778Y0188673D01*
X0164796Y0188379D01*
X0164822Y0188087D01*
X0164854Y0187795D01*
X0164893Y0187504D01*
X0164940Y0187214D01*
X0164994Y0186925D01*
X0165054Y0186637D01*
X0165122Y0186352D01*
X0165197Y0186067D01*
X0165278Y0185785D01*
X0165367Y0185505D01*
X0165462Y0185227D01*
X0165565Y0184952D01*
X0165673Y0184679D01*
X0165789Y0184409D01*
X0165911Y0184142D01*
X0166040Y0183878D01*
X0166175Y0183617D01*
X0166316Y0183359D01*
X0166464Y0183105D01*
X0166618Y0182855D01*
X0166778Y0182609D01*
X0166943Y0182366D01*
X0167115Y0182128D01*
X0167293Y0181894D01*
X0167476Y0181664D01*
X0167665Y0181439D01*
X0167859Y0181219D01*
X0168059Y0181003D01*
X0168264Y0180793D01*
X0168474Y0180587D01*
X0168689Y0180387D01*
X0168908Y0180192D01*
X0169133Y0180002D01*
X0169362Y0179818D01*
X0169595Y0179640D01*
X0169833Y0179468D01*
X0170075Y0179301D01*
X0170321Y0179140D01*
X0170571Y0178986D01*
X0170824Y0178837D01*
X0171081Y0178695D01*
X0171342Y0178559D01*
X0171605Y0178430D01*
X0171872Y0178307D01*
X0172142Y0178190D01*
X0172415Y0178081D01*
X0172690Y0177978D01*
X0172967Y0177882D01*
X0173247Y0177792D01*
X0173529Y0177710D01*
X0173813Y0177634D01*
X0174099Y0177565D01*
X0174386Y0177504D01*
X0174674Y0177449D01*
X0209320Y0158748D02*
X0227430Y0158748D01*
X0229399Y0160717D02*
X0214438Y0160717D01*
X0212076Y0162685D02*
X0223887Y0162685D01*
X0221926Y0165630D02*
X0226832Y0165630D01*
X0221926Y0165630D02*
X0221926Y0166630D01*
X0226832Y0166630D01*
X0226832Y0165630D01*
X0226832Y0166629D02*
X0221926Y0166629D01*
X0217981Y0165638D02*
X0217693Y0165583D01*
X0217406Y0165522D01*
X0217120Y0165453D01*
X0216836Y0165377D01*
X0216554Y0165295D01*
X0216274Y0165205D01*
X0215997Y0165109D01*
X0215722Y0165006D01*
X0215449Y0164897D01*
X0215179Y0164780D01*
X0214912Y0164657D01*
X0214649Y0164528D01*
X0214388Y0164392D01*
X0214131Y0164250D01*
X0213878Y0164101D01*
X0213628Y0163947D01*
X0213382Y0163786D01*
X0213140Y0163619D01*
X0212902Y0163447D01*
X0212669Y0163269D01*
X0212440Y0163085D01*
X0212215Y0162895D01*
X0211996Y0162700D01*
X0211781Y0162500D01*
X0211571Y0162294D01*
X0211366Y0162084D01*
X0211166Y0161868D01*
X0210972Y0161648D01*
X0210783Y0161423D01*
X0210600Y0161193D01*
X0210422Y0160959D01*
X0210250Y0160721D01*
X0210085Y0160478D01*
X0209925Y0160232D01*
X0209771Y0159982D01*
X0209623Y0159728D01*
X0209482Y0159470D01*
X0209347Y0159209D01*
X0209218Y0158945D01*
X0209096Y0158678D01*
X0208980Y0158408D01*
X0208872Y0158135D01*
X0208769Y0157860D01*
X0208674Y0157582D01*
X0208585Y0157302D01*
X0208504Y0157020D01*
X0208429Y0156735D01*
X0208361Y0156450D01*
X0208301Y0156162D01*
X0208247Y0155873D01*
X0208200Y0155583D01*
X0208161Y0155292D01*
X0208129Y0155000D01*
X0208103Y0154708D01*
X0208085Y0154414D01*
X0208075Y0154121D01*
X0208071Y0153827D01*
X0208075Y0153533D01*
X0208085Y0153240D01*
X0208103Y0152946D01*
X0208129Y0152654D01*
X0208161Y0152362D01*
X0208200Y0152071D01*
X0208247Y0151781D01*
X0208301Y0151492D01*
X0208361Y0151204D01*
X0208429Y0150919D01*
X0208504Y0150634D01*
X0208585Y0150352D01*
X0208674Y0150072D01*
X0208769Y0149794D01*
X0208872Y0149519D01*
X0208980Y0149246D01*
X0209096Y0148976D01*
X0209218Y0148709D01*
X0209347Y0148445D01*
X0209482Y0148184D01*
X0209623Y0147926D01*
X0209771Y0147672D01*
X0209925Y0147422D01*
X0210085Y0147176D01*
X0210250Y0146933D01*
X0210422Y0146695D01*
X0210600Y0146461D01*
X0210783Y0146231D01*
X0210972Y0146006D01*
X0211166Y0145786D01*
X0211366Y0145570D01*
X0211571Y0145360D01*
X0211781Y0145154D01*
X0211996Y0144954D01*
X0212215Y0144759D01*
X0212440Y0144569D01*
X0212669Y0144385D01*
X0212902Y0144207D01*
X0213140Y0144035D01*
X0213382Y0143868D01*
X0213628Y0143707D01*
X0213878Y0143553D01*
X0214131Y0143404D01*
X0214388Y0143262D01*
X0214649Y0143126D01*
X0214912Y0142997D01*
X0215179Y0142874D01*
X0215449Y0142757D01*
X0215722Y0142648D01*
X0215997Y0142545D01*
X0216274Y0142449D01*
X0216554Y0142359D01*
X0216836Y0142277D01*
X0217120Y0142201D01*
X0217406Y0142132D01*
X0217693Y0142071D01*
X0217981Y0142016D01*
X0217974Y0142024D02*
X0213068Y0142024D01*
X0217974Y0142024D02*
X0217974Y0141024D01*
X0213068Y0141024D01*
X0213068Y0142024D01*
X0213068Y0142023D02*
X0217974Y0142023D01*
X0216013Y0144969D02*
X0227824Y0144969D01*
X0225462Y0146937D02*
X0210501Y0146937D01*
X0212470Y0148906D02*
X0230580Y0148906D01*
X0227824Y0150874D02*
X0208533Y0150874D01*
X0210501Y0152843D02*
X0231761Y0152843D01*
X0229399Y0154811D02*
X0208139Y0154811D01*
X0212076Y0156780D02*
X0231367Y0156780D01*
X0221919Y0165638D02*
X0222207Y0165583D01*
X0222494Y0165522D01*
X0222780Y0165453D01*
X0223064Y0165377D01*
X0223346Y0165295D01*
X0223626Y0165205D01*
X0223903Y0165109D01*
X0224178Y0165006D01*
X0224451Y0164897D01*
X0224721Y0164780D01*
X0224988Y0164657D01*
X0225251Y0164528D01*
X0225512Y0164392D01*
X0225769Y0164250D01*
X0226022Y0164101D01*
X0226272Y0163947D01*
X0226518Y0163786D01*
X0226760Y0163619D01*
X0226998Y0163447D01*
X0227231Y0163269D01*
X0227460Y0163085D01*
X0227685Y0162895D01*
X0227904Y0162700D01*
X0228119Y0162500D01*
X0228329Y0162294D01*
X0228534Y0162084D01*
X0228734Y0161868D01*
X0228928Y0161648D01*
X0229117Y0161423D01*
X0229300Y0161193D01*
X0229478Y0160959D01*
X0229650Y0160721D01*
X0229815Y0160478D01*
X0229975Y0160232D01*
X0230129Y0159982D01*
X0230277Y0159728D01*
X0230418Y0159470D01*
X0230553Y0159209D01*
X0230682Y0158945D01*
X0230804Y0158678D01*
X0230920Y0158408D01*
X0231028Y0158135D01*
X0231131Y0157860D01*
X0231226Y0157582D01*
X0231315Y0157302D01*
X0231396Y0157020D01*
X0231471Y0156735D01*
X0231539Y0156450D01*
X0231599Y0156162D01*
X0231653Y0155873D01*
X0231700Y0155583D01*
X0231739Y0155292D01*
X0231771Y0155000D01*
X0231797Y0154708D01*
X0231815Y0154414D01*
X0231825Y0154121D01*
X0231829Y0153827D01*
X0231825Y0153533D01*
X0231815Y0153240D01*
X0231797Y0152946D01*
X0231771Y0152654D01*
X0231739Y0152362D01*
X0231700Y0152071D01*
X0231653Y0151781D01*
X0231599Y0151492D01*
X0231539Y0151204D01*
X0231471Y0150919D01*
X0231396Y0150634D01*
X0231315Y0150352D01*
X0231226Y0150072D01*
X0231131Y0149794D01*
X0231028Y0149519D01*
X0230920Y0149246D01*
X0230804Y0148976D01*
X0230682Y0148709D01*
X0230553Y0148445D01*
X0230418Y0148184D01*
X0230277Y0147926D01*
X0230129Y0147672D01*
X0229975Y0147422D01*
X0229815Y0147176D01*
X0229650Y0146933D01*
X0229478Y0146695D01*
X0229300Y0146461D01*
X0229117Y0146231D01*
X0228928Y0146006D01*
X0228734Y0145786D01*
X0228534Y0145570D01*
X0228329Y0145360D01*
X0228119Y0145154D01*
X0227904Y0144954D01*
X0227685Y0144759D01*
X0227460Y0144569D01*
X0227231Y0144385D01*
X0226998Y0144207D01*
X0226760Y0144035D01*
X0226518Y0143868D01*
X0226272Y0143707D01*
X0226022Y0143553D01*
X0225769Y0143404D01*
X0225512Y0143262D01*
X0225251Y0143126D01*
X0224988Y0142997D01*
X0224721Y0142874D01*
X0224451Y0142757D01*
X0224178Y0142648D01*
X0223903Y0142545D01*
X0223626Y0142449D01*
X0223346Y0142359D01*
X0223064Y0142277D01*
X0222780Y0142201D01*
X0222494Y0142132D01*
X0222207Y0142071D01*
X0221919Y0142016D01*
X0252627Y0119378D02*
X0263257Y0119378D01*
X0270738Y0119378D01*
X0272706Y0121346D02*
X0257745Y0121346D01*
X0255383Y0123315D02*
X0267194Y0123315D01*
X0265233Y0126260D02*
X0270139Y0126260D01*
X0265233Y0126260D02*
X0265233Y0127260D01*
X0270139Y0127260D01*
X0270139Y0126260D01*
X0270139Y0127259D02*
X0265233Y0127259D01*
X0266210Y0117409D02*
X0274675Y0117409D01*
X0275068Y0113472D02*
X0267982Y0113472D01*
X0268769Y0107567D02*
X0253808Y0107567D01*
X0255777Y0109535D02*
X0263257Y0109535D01*
X0273887Y0109535D01*
X0271131Y0105598D02*
X0259320Y0105598D01*
X0261281Y0102654D02*
X0256375Y0102654D01*
X0261281Y0102654D02*
X0261281Y0101654D01*
X0256375Y0101654D01*
X0256375Y0102654D01*
X0256375Y0102653D02*
X0261281Y0102653D01*
X0260304Y0111504D02*
X0251840Y0111504D01*
X0251446Y0115441D02*
X0258533Y0115441D01*
X0260304Y0111504D02*
X0260206Y0111591D01*
X0260109Y0111681D01*
X0260016Y0111774D01*
X0259925Y0111869D01*
X0259837Y0111968D01*
X0259752Y0112068D01*
X0259670Y0112171D01*
X0259591Y0112277D01*
X0259516Y0112385D01*
X0259443Y0112495D01*
X0259374Y0112607D01*
X0259308Y0112721D01*
X0259245Y0112837D01*
X0259186Y0112954D01*
X0259130Y0113074D01*
X0259078Y0113195D01*
X0259030Y0113317D01*
X0258985Y0113441D01*
X0258944Y0113566D01*
X0258906Y0113692D01*
X0258872Y0113820D01*
X0258842Y0113948D01*
X0258816Y0114077D01*
X0258794Y0114207D01*
X0258775Y0114337D01*
X0258760Y0114468D01*
X0258749Y0114599D01*
X0258742Y0114731D01*
X0258739Y0114863D01*
X0258740Y0114994D01*
X0258745Y0115126D01*
X0258753Y0115258D01*
X0258765Y0115389D01*
X0258782Y0115519D01*
X0258802Y0115650D01*
X0258825Y0115779D01*
X0258853Y0115908D01*
X0258885Y0116036D01*
X0258920Y0116163D01*
X0258959Y0116289D01*
X0259001Y0116413D01*
X0259048Y0116537D01*
X0259097Y0116659D01*
X0259151Y0116779D01*
X0259208Y0116898D01*
X0259268Y0117015D01*
X0259332Y0117130D01*
X0259399Y0117244D01*
X0259470Y0117355D01*
X0259544Y0117464D01*
X0259620Y0117571D01*
X0259701Y0117675D01*
X0259784Y0117778D01*
X0259870Y0117877D01*
X0259959Y0117975D01*
X0260050Y0118069D01*
X0260145Y0118161D01*
X0260242Y0118250D01*
X0260342Y0118336D01*
X0260444Y0118419D01*
X0260549Y0118499D01*
X0260656Y0118576D01*
X0260765Y0118649D01*
X0260876Y0118720D01*
X0260990Y0118787D01*
X0261105Y0118851D01*
X0261222Y0118911D01*
X0261341Y0118968D01*
X0261461Y0119021D01*
X0261583Y0119071D01*
X0261707Y0119117D01*
X0261831Y0119160D01*
X0261957Y0119199D01*
X0262084Y0119234D01*
X0262212Y0119265D01*
X0262341Y0119293D01*
X0262470Y0119317D01*
X0262601Y0119337D01*
X0262731Y0119353D01*
X0262863Y0119365D01*
X0262994Y0119374D01*
X0263126Y0119378D01*
X0263257Y0119379D01*
X0261288Y0126268D02*
X0261000Y0126213D01*
X0260713Y0126152D01*
X0260427Y0126083D01*
X0260143Y0126007D01*
X0259861Y0125925D01*
X0259581Y0125835D01*
X0259304Y0125739D01*
X0259029Y0125636D01*
X0258756Y0125527D01*
X0258486Y0125410D01*
X0258219Y0125287D01*
X0257956Y0125158D01*
X0257695Y0125022D01*
X0257438Y0124880D01*
X0257185Y0124731D01*
X0256935Y0124577D01*
X0256689Y0124416D01*
X0256447Y0124249D01*
X0256209Y0124077D01*
X0255976Y0123899D01*
X0255747Y0123715D01*
X0255522Y0123525D01*
X0255303Y0123330D01*
X0255088Y0123130D01*
X0254878Y0122924D01*
X0254673Y0122714D01*
X0254473Y0122498D01*
X0254279Y0122278D01*
X0254090Y0122053D01*
X0253907Y0121823D01*
X0253729Y0121589D01*
X0253557Y0121351D01*
X0253392Y0121108D01*
X0253232Y0120862D01*
X0253078Y0120612D01*
X0252930Y0120358D01*
X0252789Y0120100D01*
X0252654Y0119839D01*
X0252525Y0119575D01*
X0252403Y0119308D01*
X0252287Y0119038D01*
X0252179Y0118765D01*
X0252076Y0118490D01*
X0251981Y0118212D01*
X0251892Y0117932D01*
X0251811Y0117650D01*
X0251736Y0117365D01*
X0251668Y0117080D01*
X0251608Y0116792D01*
X0251554Y0116503D01*
X0251507Y0116213D01*
X0251468Y0115922D01*
X0251436Y0115630D01*
X0251410Y0115338D01*
X0251392Y0115044D01*
X0251382Y0114751D01*
X0251378Y0114457D01*
X0251382Y0114163D01*
X0251392Y0113870D01*
X0251410Y0113576D01*
X0251436Y0113284D01*
X0251468Y0112992D01*
X0251507Y0112701D01*
X0251554Y0112411D01*
X0251608Y0112122D01*
X0251668Y0111834D01*
X0251736Y0111549D01*
X0251811Y0111264D01*
X0251892Y0110982D01*
X0251981Y0110702D01*
X0252076Y0110424D01*
X0252179Y0110149D01*
X0252287Y0109876D01*
X0252403Y0109606D01*
X0252525Y0109339D01*
X0252654Y0109075D01*
X0252789Y0108814D01*
X0252930Y0108556D01*
X0253078Y0108302D01*
X0253232Y0108052D01*
X0253392Y0107806D01*
X0253557Y0107563D01*
X0253729Y0107325D01*
X0253907Y0107091D01*
X0254090Y0106861D01*
X0254279Y0106636D01*
X0254473Y0106416D01*
X0254673Y0106200D01*
X0254878Y0105990D01*
X0255088Y0105784D01*
X0255303Y0105584D01*
X0255522Y0105389D01*
X0255747Y0105199D01*
X0255976Y0105015D01*
X0256209Y0104837D01*
X0256447Y0104665D01*
X0256689Y0104498D01*
X0256935Y0104337D01*
X0257185Y0104183D01*
X0257438Y0104034D01*
X0257695Y0103892D01*
X0257956Y0103756D01*
X0258219Y0103627D01*
X0258486Y0103504D01*
X0258756Y0103387D01*
X0259029Y0103278D01*
X0259304Y0103175D01*
X0259581Y0103079D01*
X0259861Y0102989D01*
X0260143Y0102907D01*
X0260427Y0102831D01*
X0260713Y0102762D01*
X0261000Y0102701D01*
X0261288Y0102646D01*
X0263258Y0109535D02*
X0263389Y0109536D01*
X0263521Y0109540D01*
X0263652Y0109549D01*
X0263784Y0109561D01*
X0263914Y0109577D01*
X0264045Y0109597D01*
X0264174Y0109621D01*
X0264303Y0109649D01*
X0264431Y0109680D01*
X0264558Y0109715D01*
X0264684Y0109754D01*
X0264808Y0109797D01*
X0264932Y0109843D01*
X0265054Y0109893D01*
X0265174Y0109946D01*
X0265293Y0110003D01*
X0265410Y0110063D01*
X0265525Y0110127D01*
X0265639Y0110194D01*
X0265750Y0110265D01*
X0265859Y0110338D01*
X0265966Y0110415D01*
X0266071Y0110495D01*
X0266173Y0110578D01*
X0266273Y0110664D01*
X0266370Y0110753D01*
X0266465Y0110845D01*
X0266556Y0110939D01*
X0266645Y0111037D01*
X0266731Y0111136D01*
X0266814Y0111239D01*
X0266895Y0111343D01*
X0266971Y0111450D01*
X0267045Y0111559D01*
X0267116Y0111670D01*
X0267183Y0111784D01*
X0267247Y0111899D01*
X0267307Y0112016D01*
X0267364Y0112135D01*
X0267418Y0112255D01*
X0267467Y0112377D01*
X0267514Y0112501D01*
X0267556Y0112625D01*
X0267595Y0112751D01*
X0267630Y0112878D01*
X0267662Y0113006D01*
X0267690Y0113135D01*
X0267713Y0113264D01*
X0267733Y0113395D01*
X0267750Y0113525D01*
X0267762Y0113656D01*
X0267770Y0113788D01*
X0267775Y0113920D01*
X0267776Y0114051D01*
X0267773Y0114183D01*
X0267766Y0114315D01*
X0267755Y0114446D01*
X0267740Y0114577D01*
X0267721Y0114707D01*
X0267699Y0114837D01*
X0267673Y0114966D01*
X0267643Y0115094D01*
X0267609Y0115222D01*
X0267571Y0115348D01*
X0267530Y0115473D01*
X0267485Y0115597D01*
X0267437Y0115719D01*
X0267385Y0115840D01*
X0267329Y0115960D01*
X0267270Y0116077D01*
X0267207Y0116193D01*
X0267141Y0116307D01*
X0267072Y0116419D01*
X0266999Y0116529D01*
X0266924Y0116637D01*
X0266845Y0116743D01*
X0266763Y0116846D01*
X0266678Y0116946D01*
X0266590Y0117045D01*
X0266499Y0117140D01*
X0266406Y0117233D01*
X0266309Y0117323D01*
X0266211Y0117410D01*
X0265226Y0126268D02*
X0265514Y0126213D01*
X0265801Y0126152D01*
X0266087Y0126083D01*
X0266371Y0126007D01*
X0266653Y0125925D01*
X0266933Y0125835D01*
X0267210Y0125739D01*
X0267485Y0125636D01*
X0267758Y0125527D01*
X0268028Y0125410D01*
X0268295Y0125287D01*
X0268558Y0125158D01*
X0268819Y0125022D01*
X0269076Y0124880D01*
X0269329Y0124731D01*
X0269579Y0124577D01*
X0269825Y0124416D01*
X0270067Y0124249D01*
X0270305Y0124077D01*
X0270538Y0123899D01*
X0270767Y0123715D01*
X0270992Y0123525D01*
X0271211Y0123330D01*
X0271426Y0123130D01*
X0271636Y0122924D01*
X0271841Y0122714D01*
X0272041Y0122498D01*
X0272235Y0122278D01*
X0272424Y0122053D01*
X0272607Y0121823D01*
X0272785Y0121589D01*
X0272957Y0121351D01*
X0273122Y0121108D01*
X0273282Y0120862D01*
X0273436Y0120612D01*
X0273584Y0120358D01*
X0273725Y0120100D01*
X0273860Y0119839D01*
X0273989Y0119575D01*
X0274111Y0119308D01*
X0274227Y0119038D01*
X0274335Y0118765D01*
X0274438Y0118490D01*
X0274533Y0118212D01*
X0274622Y0117932D01*
X0274703Y0117650D01*
X0274778Y0117365D01*
X0274846Y0117080D01*
X0274906Y0116792D01*
X0274960Y0116503D01*
X0275007Y0116213D01*
X0275046Y0115922D01*
X0275078Y0115630D01*
X0275104Y0115338D01*
X0275122Y0115044D01*
X0275132Y0114751D01*
X0275136Y0114457D01*
X0275132Y0114163D01*
X0275122Y0113870D01*
X0275104Y0113576D01*
X0275078Y0113284D01*
X0275046Y0112992D01*
X0275007Y0112701D01*
X0274960Y0112411D01*
X0274906Y0112122D01*
X0274846Y0111834D01*
X0274778Y0111549D01*
X0274703Y0111264D01*
X0274622Y0110982D01*
X0274533Y0110702D01*
X0274438Y0110424D01*
X0274335Y0110149D01*
X0274227Y0109876D01*
X0274111Y0109606D01*
X0273989Y0109339D01*
X0273860Y0109075D01*
X0273725Y0108814D01*
X0273584Y0108556D01*
X0273436Y0108302D01*
X0273282Y0108052D01*
X0273122Y0107806D01*
X0272957Y0107563D01*
X0272785Y0107325D01*
X0272607Y0107091D01*
X0272424Y0106861D01*
X0272235Y0106636D01*
X0272041Y0106416D01*
X0271841Y0106200D01*
X0271636Y0105990D01*
X0271426Y0105784D01*
X0271211Y0105584D01*
X0270992Y0105389D01*
X0270767Y0105199D01*
X0270538Y0105015D01*
X0270305Y0104837D01*
X0270067Y0104665D01*
X0269825Y0104498D01*
X0269579Y0104337D01*
X0269329Y0104183D01*
X0269076Y0104034D01*
X0268819Y0103892D01*
X0268558Y0103756D01*
X0268295Y0103627D01*
X0268028Y0103504D01*
X0267758Y0103387D01*
X0267485Y0103278D01*
X0267210Y0103175D01*
X0266933Y0103079D01*
X0266653Y0102989D01*
X0266371Y0102907D01*
X0266087Y0102831D01*
X0265801Y0102762D01*
X0265514Y0102701D01*
X0265226Y0102646D01*
X0268383Y0159701D02*
X0273289Y0159701D01*
X0273289Y0158701D01*
X0268383Y0158701D01*
X0268383Y0159701D01*
X0268383Y0159700D02*
X0273289Y0159700D01*
X0271328Y0162646D02*
X0283139Y0162646D01*
X0280777Y0164614D02*
X0265816Y0164614D01*
X0267785Y0166583D02*
X0285895Y0166583D01*
X0283139Y0168551D02*
X0263848Y0168551D01*
X0265816Y0170520D02*
X0287076Y0170520D01*
X0284714Y0172488D02*
X0263454Y0172488D01*
X0264635Y0176425D02*
X0282745Y0176425D01*
X0284714Y0178394D02*
X0269753Y0178394D01*
X0267391Y0180362D02*
X0279202Y0180362D01*
X0277241Y0183307D02*
X0282147Y0183307D01*
X0277241Y0183307D02*
X0277241Y0184307D01*
X0282147Y0184307D01*
X0282147Y0183307D01*
X0282147Y0184306D02*
X0277241Y0184306D01*
X0273296Y0183315D02*
X0273008Y0183260D01*
X0272721Y0183199D01*
X0272435Y0183130D01*
X0272151Y0183054D01*
X0271869Y0182972D01*
X0271589Y0182882D01*
X0271312Y0182786D01*
X0271037Y0182683D01*
X0270764Y0182574D01*
X0270494Y0182457D01*
X0270227Y0182334D01*
X0269964Y0182205D01*
X0269703Y0182069D01*
X0269446Y0181927D01*
X0269193Y0181778D01*
X0268943Y0181624D01*
X0268697Y0181463D01*
X0268455Y0181296D01*
X0268217Y0181124D01*
X0267984Y0180946D01*
X0267755Y0180762D01*
X0267530Y0180572D01*
X0267311Y0180377D01*
X0267096Y0180177D01*
X0266886Y0179971D01*
X0266681Y0179761D01*
X0266481Y0179545D01*
X0266287Y0179325D01*
X0266098Y0179100D01*
X0265915Y0178870D01*
X0265737Y0178636D01*
X0265565Y0178398D01*
X0265400Y0178155D01*
X0265240Y0177909D01*
X0265086Y0177659D01*
X0264938Y0177405D01*
X0264797Y0177147D01*
X0264662Y0176886D01*
X0264533Y0176622D01*
X0264411Y0176355D01*
X0264295Y0176085D01*
X0264187Y0175812D01*
X0264084Y0175537D01*
X0263989Y0175259D01*
X0263900Y0174979D01*
X0263819Y0174697D01*
X0263744Y0174412D01*
X0263676Y0174127D01*
X0263616Y0173839D01*
X0263562Y0173550D01*
X0263515Y0173260D01*
X0263476Y0172969D01*
X0263444Y0172677D01*
X0263418Y0172385D01*
X0263400Y0172091D01*
X0263390Y0171798D01*
X0263386Y0171504D01*
X0263390Y0171210D01*
X0263400Y0170917D01*
X0263418Y0170623D01*
X0263444Y0170331D01*
X0263476Y0170039D01*
X0263515Y0169748D01*
X0263562Y0169458D01*
X0263616Y0169169D01*
X0263676Y0168881D01*
X0263744Y0168596D01*
X0263819Y0168311D01*
X0263900Y0168029D01*
X0263989Y0167749D01*
X0264084Y0167471D01*
X0264187Y0167196D01*
X0264295Y0166923D01*
X0264411Y0166653D01*
X0264533Y0166386D01*
X0264662Y0166122D01*
X0264797Y0165861D01*
X0264938Y0165603D01*
X0265086Y0165349D01*
X0265240Y0165099D01*
X0265400Y0164853D01*
X0265565Y0164610D01*
X0265737Y0164372D01*
X0265915Y0164138D01*
X0266098Y0163908D01*
X0266287Y0163683D01*
X0266481Y0163463D01*
X0266681Y0163247D01*
X0266886Y0163037D01*
X0267096Y0162831D01*
X0267311Y0162631D01*
X0267530Y0162436D01*
X0267755Y0162246D01*
X0267984Y0162062D01*
X0268217Y0161884D01*
X0268455Y0161712D01*
X0268697Y0161545D01*
X0268943Y0161384D01*
X0269193Y0161230D01*
X0269446Y0161081D01*
X0269703Y0160939D01*
X0269964Y0160803D01*
X0270227Y0160674D01*
X0270494Y0160551D01*
X0270764Y0160434D01*
X0271037Y0160325D01*
X0271312Y0160222D01*
X0271589Y0160126D01*
X0271869Y0160036D01*
X0272151Y0159954D01*
X0272435Y0159878D01*
X0272721Y0159809D01*
X0273008Y0159748D01*
X0273296Y0159693D01*
X0277234Y0159693D02*
X0277522Y0159748D01*
X0277809Y0159809D01*
X0278095Y0159878D01*
X0278379Y0159954D01*
X0278661Y0160036D01*
X0278941Y0160126D01*
X0279218Y0160222D01*
X0279493Y0160325D01*
X0279766Y0160434D01*
X0280036Y0160551D01*
X0280303Y0160674D01*
X0280566Y0160803D01*
X0280827Y0160939D01*
X0281084Y0161081D01*
X0281337Y0161230D01*
X0281587Y0161384D01*
X0281833Y0161545D01*
X0282075Y0161712D01*
X0282313Y0161884D01*
X0282546Y0162062D01*
X0282775Y0162246D01*
X0283000Y0162436D01*
X0283219Y0162631D01*
X0283434Y0162831D01*
X0283644Y0163037D01*
X0283849Y0163247D01*
X0284049Y0163463D01*
X0284243Y0163683D01*
X0284432Y0163908D01*
X0284615Y0164138D01*
X0284793Y0164372D01*
X0284965Y0164610D01*
X0285130Y0164853D01*
X0285290Y0165099D01*
X0285444Y0165349D01*
X0285592Y0165603D01*
X0285733Y0165861D01*
X0285868Y0166122D01*
X0285997Y0166386D01*
X0286119Y0166653D01*
X0286235Y0166923D01*
X0286343Y0167196D01*
X0286446Y0167471D01*
X0286541Y0167749D01*
X0286630Y0168029D01*
X0286711Y0168311D01*
X0286786Y0168596D01*
X0286854Y0168881D01*
X0286914Y0169169D01*
X0286968Y0169458D01*
X0287015Y0169748D01*
X0287054Y0170039D01*
X0287086Y0170331D01*
X0287112Y0170623D01*
X0287130Y0170917D01*
X0287140Y0171210D01*
X0287144Y0171504D01*
X0287140Y0171798D01*
X0287130Y0172091D01*
X0287112Y0172385D01*
X0287086Y0172677D01*
X0287054Y0172969D01*
X0287015Y0173260D01*
X0286968Y0173550D01*
X0286914Y0173839D01*
X0286854Y0174127D01*
X0286786Y0174412D01*
X0286711Y0174697D01*
X0286630Y0174979D01*
X0286541Y0175259D01*
X0286446Y0175537D01*
X0286343Y0175812D01*
X0286235Y0176085D01*
X0286119Y0176355D01*
X0285997Y0176622D01*
X0285868Y0176886D01*
X0285733Y0177147D01*
X0285592Y0177405D01*
X0285444Y0177659D01*
X0285290Y0177909D01*
X0285130Y0178155D01*
X0284965Y0178398D01*
X0284793Y0178636D01*
X0284615Y0178870D01*
X0284432Y0179100D01*
X0284243Y0179325D01*
X0284049Y0179545D01*
X0283849Y0179761D01*
X0283644Y0179971D01*
X0283434Y0180177D01*
X0283219Y0180377D01*
X0283000Y0180572D01*
X0282775Y0180762D01*
X0282546Y0180946D01*
X0282313Y0181124D01*
X0282075Y0181296D01*
X0281833Y0181463D01*
X0281587Y0181624D01*
X0281337Y0181778D01*
X0281084Y0181927D01*
X0280827Y0182069D01*
X0280566Y0182205D01*
X0280303Y0182334D01*
X0280036Y0182457D01*
X0279766Y0182574D01*
X0279493Y0182683D01*
X0279218Y0182786D01*
X0278941Y0182882D01*
X0278661Y0182972D01*
X0278379Y0183054D01*
X0278095Y0183130D01*
X0277809Y0183199D01*
X0277522Y0183260D01*
X0277234Y0183315D01*
X0286682Y0174457D02*
X0267391Y0174457D01*
X0242391Y0207961D02*
X0231761Y0207961D01*
X0224281Y0207961D01*
X0222312Y0205992D02*
X0237273Y0205992D01*
X0239635Y0204024D02*
X0227824Y0204024D01*
X0229785Y0201079D02*
X0224879Y0201079D01*
X0229785Y0201079D02*
X0229785Y0200079D01*
X0224879Y0200079D01*
X0224879Y0201079D01*
X0224879Y0201078D02*
X0229785Y0201078D01*
X0228808Y0209929D02*
X0220344Y0209929D01*
X0219950Y0213866D02*
X0227037Y0213866D01*
X0228808Y0209929D02*
X0228710Y0210016D01*
X0228613Y0210106D01*
X0228520Y0210199D01*
X0228429Y0210294D01*
X0228341Y0210393D01*
X0228256Y0210493D01*
X0228174Y0210596D01*
X0228095Y0210702D01*
X0228020Y0210810D01*
X0227947Y0210920D01*
X0227878Y0211032D01*
X0227812Y0211146D01*
X0227749Y0211262D01*
X0227690Y0211379D01*
X0227634Y0211499D01*
X0227582Y0211620D01*
X0227534Y0211742D01*
X0227489Y0211866D01*
X0227448Y0211991D01*
X0227410Y0212117D01*
X0227376Y0212245D01*
X0227346Y0212373D01*
X0227320Y0212502D01*
X0227298Y0212632D01*
X0227279Y0212762D01*
X0227264Y0212893D01*
X0227253Y0213024D01*
X0227246Y0213156D01*
X0227243Y0213288D01*
X0227244Y0213419D01*
X0227249Y0213551D01*
X0227257Y0213683D01*
X0227269Y0213814D01*
X0227286Y0213944D01*
X0227306Y0214075D01*
X0227329Y0214204D01*
X0227357Y0214333D01*
X0227389Y0214461D01*
X0227424Y0214588D01*
X0227463Y0214714D01*
X0227505Y0214838D01*
X0227552Y0214962D01*
X0227601Y0215084D01*
X0227655Y0215204D01*
X0227712Y0215323D01*
X0227772Y0215440D01*
X0227836Y0215555D01*
X0227903Y0215669D01*
X0227974Y0215780D01*
X0228048Y0215889D01*
X0228124Y0215996D01*
X0228205Y0216100D01*
X0228288Y0216203D01*
X0228374Y0216302D01*
X0228463Y0216400D01*
X0228554Y0216494D01*
X0228649Y0216586D01*
X0228746Y0216675D01*
X0228846Y0216761D01*
X0228948Y0216844D01*
X0229053Y0216924D01*
X0229160Y0217001D01*
X0229269Y0217074D01*
X0229380Y0217145D01*
X0229494Y0217212D01*
X0229609Y0217276D01*
X0229726Y0217336D01*
X0229845Y0217393D01*
X0229965Y0217446D01*
X0230087Y0217496D01*
X0230211Y0217542D01*
X0230335Y0217585D01*
X0230461Y0217624D01*
X0230588Y0217659D01*
X0230716Y0217690D01*
X0230845Y0217718D01*
X0230974Y0217742D01*
X0231105Y0217762D01*
X0231235Y0217778D01*
X0231367Y0217790D01*
X0231498Y0217799D01*
X0231630Y0217803D01*
X0231761Y0217804D01*
X0231761Y0217803D02*
X0221131Y0217803D01*
X0223887Y0221740D02*
X0235698Y0221740D01*
X0233737Y0224685D02*
X0238643Y0224685D01*
X0233737Y0224685D02*
X0233737Y0225685D01*
X0238643Y0225685D01*
X0238643Y0224685D01*
X0238643Y0225684D02*
X0233737Y0225684D01*
X0231761Y0217803D02*
X0239241Y0217803D01*
X0241210Y0219772D02*
X0226249Y0219772D01*
X0233730Y0224693D02*
X0234018Y0224638D01*
X0234305Y0224577D01*
X0234591Y0224508D01*
X0234875Y0224432D01*
X0235157Y0224350D01*
X0235437Y0224260D01*
X0235714Y0224164D01*
X0235989Y0224061D01*
X0236262Y0223952D01*
X0236532Y0223835D01*
X0236799Y0223712D01*
X0237062Y0223583D01*
X0237323Y0223447D01*
X0237580Y0223305D01*
X0237833Y0223156D01*
X0238083Y0223002D01*
X0238329Y0222841D01*
X0238571Y0222674D01*
X0238809Y0222502D01*
X0239042Y0222324D01*
X0239271Y0222140D01*
X0239496Y0221950D01*
X0239715Y0221755D01*
X0239930Y0221555D01*
X0240140Y0221349D01*
X0240345Y0221139D01*
X0240545Y0220923D01*
X0240739Y0220703D01*
X0240928Y0220478D01*
X0241111Y0220248D01*
X0241289Y0220014D01*
X0241461Y0219776D01*
X0241626Y0219533D01*
X0241786Y0219287D01*
X0241940Y0219037D01*
X0242088Y0218783D01*
X0242229Y0218525D01*
X0242364Y0218264D01*
X0242493Y0218000D01*
X0242615Y0217733D01*
X0242731Y0217463D01*
X0242839Y0217190D01*
X0242942Y0216915D01*
X0243037Y0216637D01*
X0243126Y0216357D01*
X0243207Y0216075D01*
X0243282Y0215790D01*
X0243350Y0215505D01*
X0243410Y0215217D01*
X0243464Y0214928D01*
X0243511Y0214638D01*
X0243550Y0214347D01*
X0243582Y0214055D01*
X0243608Y0213763D01*
X0243626Y0213469D01*
X0243636Y0213176D01*
X0243640Y0212882D01*
X0243636Y0212588D01*
X0243626Y0212295D01*
X0243608Y0212001D01*
X0243582Y0211709D01*
X0243550Y0211417D01*
X0243511Y0211126D01*
X0243464Y0210836D01*
X0243410Y0210547D01*
X0243350Y0210259D01*
X0243282Y0209974D01*
X0243207Y0209689D01*
X0243126Y0209407D01*
X0243037Y0209127D01*
X0242942Y0208849D01*
X0242839Y0208574D01*
X0242731Y0208301D01*
X0242615Y0208031D01*
X0242493Y0207764D01*
X0242364Y0207500D01*
X0242229Y0207239D01*
X0242088Y0206981D01*
X0241940Y0206727D01*
X0241786Y0206477D01*
X0241626Y0206231D01*
X0241461Y0205988D01*
X0241289Y0205750D01*
X0241111Y0205516D01*
X0240928Y0205286D01*
X0240739Y0205061D01*
X0240545Y0204841D01*
X0240345Y0204625D01*
X0240140Y0204415D01*
X0239930Y0204209D01*
X0239715Y0204009D01*
X0239496Y0203814D01*
X0239271Y0203624D01*
X0239042Y0203440D01*
X0238809Y0203262D01*
X0238571Y0203090D01*
X0238329Y0202923D01*
X0238083Y0202762D01*
X0237833Y0202608D01*
X0237580Y0202459D01*
X0237323Y0202317D01*
X0237062Y0202181D01*
X0236799Y0202052D01*
X0236532Y0201929D01*
X0236262Y0201812D01*
X0235989Y0201703D01*
X0235714Y0201600D01*
X0235437Y0201504D01*
X0235157Y0201414D01*
X0234875Y0201332D01*
X0234591Y0201256D01*
X0234305Y0201187D01*
X0234018Y0201126D01*
X0233730Y0201071D01*
X0236486Y0211898D02*
X0243572Y0211898D01*
X0243178Y0215835D02*
X0234714Y0215835D01*
X0229792Y0224693D02*
X0229504Y0224638D01*
X0229217Y0224577D01*
X0228931Y0224508D01*
X0228647Y0224432D01*
X0228365Y0224350D01*
X0228085Y0224260D01*
X0227808Y0224164D01*
X0227533Y0224061D01*
X0227260Y0223952D01*
X0226990Y0223835D01*
X0226723Y0223712D01*
X0226460Y0223583D01*
X0226199Y0223447D01*
X0225942Y0223305D01*
X0225689Y0223156D01*
X0225439Y0223002D01*
X0225193Y0222841D01*
X0224951Y0222674D01*
X0224713Y0222502D01*
X0224480Y0222324D01*
X0224251Y0222140D01*
X0224026Y0221950D01*
X0223807Y0221755D01*
X0223592Y0221555D01*
X0223382Y0221349D01*
X0223177Y0221139D01*
X0222977Y0220923D01*
X0222783Y0220703D01*
X0222594Y0220478D01*
X0222411Y0220248D01*
X0222233Y0220014D01*
X0222061Y0219776D01*
X0221896Y0219533D01*
X0221736Y0219287D01*
X0221582Y0219037D01*
X0221434Y0218783D01*
X0221293Y0218525D01*
X0221158Y0218264D01*
X0221029Y0218000D01*
X0220907Y0217733D01*
X0220791Y0217463D01*
X0220683Y0217190D01*
X0220580Y0216915D01*
X0220485Y0216637D01*
X0220396Y0216357D01*
X0220315Y0216075D01*
X0220240Y0215790D01*
X0220172Y0215505D01*
X0220112Y0215217D01*
X0220058Y0214928D01*
X0220011Y0214638D01*
X0219972Y0214347D01*
X0219940Y0214055D01*
X0219914Y0213763D01*
X0219896Y0213469D01*
X0219886Y0213176D01*
X0219882Y0212882D01*
X0219886Y0212588D01*
X0219896Y0212295D01*
X0219914Y0212001D01*
X0219940Y0211709D01*
X0219972Y0211417D01*
X0220011Y0211126D01*
X0220058Y0210836D01*
X0220112Y0210547D01*
X0220172Y0210259D01*
X0220240Y0209974D01*
X0220315Y0209689D01*
X0220396Y0209407D01*
X0220485Y0209127D01*
X0220580Y0208849D01*
X0220683Y0208574D01*
X0220791Y0208301D01*
X0220907Y0208031D01*
X0221029Y0207764D01*
X0221158Y0207500D01*
X0221293Y0207239D01*
X0221434Y0206981D01*
X0221582Y0206727D01*
X0221736Y0206477D01*
X0221896Y0206231D01*
X0222061Y0205988D01*
X0222233Y0205750D01*
X0222411Y0205516D01*
X0222594Y0205286D01*
X0222783Y0205061D01*
X0222977Y0204841D01*
X0223177Y0204625D01*
X0223382Y0204415D01*
X0223592Y0204209D01*
X0223807Y0204009D01*
X0224026Y0203814D01*
X0224251Y0203624D01*
X0224480Y0203440D01*
X0224713Y0203262D01*
X0224951Y0203090D01*
X0225193Y0202923D01*
X0225439Y0202762D01*
X0225689Y0202608D01*
X0225942Y0202459D01*
X0226199Y0202317D01*
X0226460Y0202181D01*
X0226723Y0202052D01*
X0226990Y0201929D01*
X0227260Y0201812D01*
X0227533Y0201703D01*
X0227808Y0201600D01*
X0228085Y0201504D01*
X0228365Y0201414D01*
X0228647Y0201332D01*
X0228931Y0201256D01*
X0229217Y0201187D01*
X0229504Y0201126D01*
X0229792Y0201071D01*
X0231762Y0207960D02*
X0231893Y0207961D01*
X0232025Y0207965D01*
X0232156Y0207974D01*
X0232288Y0207986D01*
X0232418Y0208002D01*
X0232549Y0208022D01*
X0232678Y0208046D01*
X0232807Y0208074D01*
X0232935Y0208105D01*
X0233062Y0208140D01*
X0233188Y0208179D01*
X0233312Y0208222D01*
X0233436Y0208268D01*
X0233558Y0208318D01*
X0233678Y0208371D01*
X0233797Y0208428D01*
X0233914Y0208488D01*
X0234029Y0208552D01*
X0234143Y0208619D01*
X0234254Y0208690D01*
X0234363Y0208763D01*
X0234470Y0208840D01*
X0234575Y0208920D01*
X0234677Y0209003D01*
X0234777Y0209089D01*
X0234874Y0209178D01*
X0234969Y0209270D01*
X0235060Y0209364D01*
X0235149Y0209462D01*
X0235235Y0209561D01*
X0235318Y0209664D01*
X0235399Y0209768D01*
X0235475Y0209875D01*
X0235549Y0209984D01*
X0235620Y0210095D01*
X0235687Y0210209D01*
X0235751Y0210324D01*
X0235811Y0210441D01*
X0235868Y0210560D01*
X0235922Y0210680D01*
X0235971Y0210802D01*
X0236018Y0210926D01*
X0236060Y0211050D01*
X0236099Y0211176D01*
X0236134Y0211303D01*
X0236166Y0211431D01*
X0236194Y0211560D01*
X0236217Y0211689D01*
X0236237Y0211820D01*
X0236254Y0211950D01*
X0236266Y0212081D01*
X0236274Y0212213D01*
X0236279Y0212345D01*
X0236280Y0212476D01*
X0236277Y0212608D01*
X0236270Y0212740D01*
X0236259Y0212871D01*
X0236244Y0213002D01*
X0236225Y0213132D01*
X0236203Y0213262D01*
X0236177Y0213391D01*
X0236147Y0213519D01*
X0236113Y0213647D01*
X0236075Y0213773D01*
X0236034Y0213898D01*
X0235989Y0214022D01*
X0235941Y0214144D01*
X0235889Y0214265D01*
X0235833Y0214385D01*
X0235774Y0214502D01*
X0235711Y0214618D01*
X0235645Y0214732D01*
X0235576Y0214844D01*
X0235503Y0214954D01*
X0235428Y0215062D01*
X0235349Y0215168D01*
X0235267Y0215271D01*
X0235182Y0215371D01*
X0235094Y0215470D01*
X0235003Y0215565D01*
X0234910Y0215658D01*
X0234813Y0215748D01*
X0234715Y0215835D01*
X0200198Y0090039D02*
X0195292Y0090039D01*
X0195292Y0091039D01*
X0200198Y0091039D01*
X0200198Y0090039D01*
X0200198Y0091038D02*
X0195292Y0091038D01*
X0192332Y0089063D02*
X0180915Y0089063D01*
X0181702Y0087094D02*
X0200206Y0087094D01*
X0198238Y0085126D02*
X0177765Y0085126D01*
X0180127Y0083157D02*
X0201781Y0083157D01*
X0198631Y0081189D02*
X0177371Y0081189D01*
X0180521Y0079220D02*
X0200993Y0079220D01*
X0197056Y0077252D02*
X0178552Y0077252D01*
X0178560Y0074307D02*
X0183466Y0074307D01*
X0183466Y0073307D01*
X0178560Y0073307D01*
X0178560Y0074307D01*
X0178560Y0074306D02*
X0183466Y0074306D01*
X0186427Y0075283D02*
X0197844Y0075283D01*
X0195284Y0074299D02*
X0195477Y0074336D01*
X0195668Y0074377D01*
X0195859Y0074423D01*
X0196048Y0074473D01*
X0196236Y0074528D01*
X0196422Y0074588D01*
X0196607Y0074652D01*
X0196791Y0074720D01*
X0196973Y0074794D01*
X0197152Y0074871D01*
X0197330Y0074953D01*
X0197506Y0075039D01*
X0197680Y0075130D01*
X0197851Y0075225D01*
X0198020Y0075324D01*
X0198187Y0075427D01*
X0198350Y0075534D01*
X0198512Y0075645D01*
X0198670Y0075760D01*
X0198826Y0075879D01*
X0198979Y0076002D01*
X0199128Y0076128D01*
X0199275Y0076258D01*
X0199418Y0076391D01*
X0199558Y0076528D01*
X0199695Y0076669D01*
X0199828Y0076812D01*
X0199957Y0076959D01*
X0200083Y0077109D01*
X0200205Y0077262D01*
X0200324Y0077418D01*
X0200438Y0077577D01*
X0200549Y0077739D01*
X0200655Y0077903D01*
X0200758Y0078070D01*
X0200856Y0078239D01*
X0200951Y0078411D01*
X0201041Y0078585D01*
X0201126Y0078761D01*
X0201208Y0078939D01*
X0201285Y0079119D01*
X0201357Y0079301D01*
X0201425Y0079485D01*
X0201489Y0079670D01*
X0201548Y0079857D01*
X0201603Y0080045D01*
X0201652Y0080234D01*
X0201697Y0080425D01*
X0201738Y0080616D01*
X0201774Y0080809D01*
X0201805Y0081002D01*
X0201831Y0081196D01*
X0201853Y0081391D01*
X0201869Y0081586D01*
X0201881Y0081781D01*
X0201889Y0081977D01*
X0201891Y0082173D01*
X0201889Y0082369D01*
X0201881Y0082565D01*
X0201869Y0082760D01*
X0201853Y0082955D01*
X0201831Y0083150D01*
X0201805Y0083344D01*
X0201774Y0083537D01*
X0201738Y0083730D01*
X0201697Y0083921D01*
X0201652Y0084112D01*
X0201603Y0084301D01*
X0201548Y0084489D01*
X0201489Y0084676D01*
X0201425Y0084861D01*
X0201357Y0085045D01*
X0201285Y0085227D01*
X0201208Y0085407D01*
X0201126Y0085585D01*
X0201041Y0085761D01*
X0200951Y0085935D01*
X0200856Y0086107D01*
X0200758Y0086276D01*
X0200655Y0086443D01*
X0200549Y0086607D01*
X0200438Y0086769D01*
X0200324Y0086928D01*
X0200205Y0087084D01*
X0200083Y0087237D01*
X0199957Y0087387D01*
X0199828Y0087534D01*
X0199695Y0087677D01*
X0199558Y0087818D01*
X0199418Y0087955D01*
X0199275Y0088088D01*
X0199128Y0088218D01*
X0198979Y0088344D01*
X0198826Y0088467D01*
X0198670Y0088586D01*
X0198512Y0088701D01*
X0198350Y0088812D01*
X0198187Y0088919D01*
X0198020Y0089022D01*
X0197851Y0089121D01*
X0197680Y0089216D01*
X0197506Y0089307D01*
X0197330Y0089393D01*
X0197152Y0089475D01*
X0196973Y0089552D01*
X0196791Y0089626D01*
X0196607Y0089694D01*
X0196422Y0089758D01*
X0196236Y0089818D01*
X0196048Y0089873D01*
X0195859Y0089923D01*
X0195668Y0089969D01*
X0195477Y0090010D01*
X0195284Y0090047D01*
X0183474Y0090047D02*
X0183281Y0090010D01*
X0183090Y0089969D01*
X0182899Y0089923D01*
X0182710Y0089873D01*
X0182522Y0089818D01*
X0182336Y0089758D01*
X0182151Y0089694D01*
X0181967Y0089626D01*
X0181785Y0089552D01*
X0181606Y0089475D01*
X0181428Y0089393D01*
X0181252Y0089307D01*
X0181078Y0089216D01*
X0180907Y0089121D01*
X0180738Y0089022D01*
X0180571Y0088919D01*
X0180408Y0088812D01*
X0180246Y0088701D01*
X0180088Y0088586D01*
X0179932Y0088467D01*
X0179779Y0088344D01*
X0179630Y0088218D01*
X0179483Y0088088D01*
X0179340Y0087955D01*
X0179200Y0087818D01*
X0179063Y0087677D01*
X0178930Y0087534D01*
X0178801Y0087387D01*
X0178675Y0087237D01*
X0178553Y0087084D01*
X0178434Y0086928D01*
X0178320Y0086769D01*
X0178209Y0086607D01*
X0178103Y0086443D01*
X0178000Y0086276D01*
X0177902Y0086107D01*
X0177807Y0085935D01*
X0177717Y0085761D01*
X0177632Y0085585D01*
X0177550Y0085407D01*
X0177473Y0085227D01*
X0177401Y0085045D01*
X0177333Y0084861D01*
X0177269Y0084676D01*
X0177210Y0084489D01*
X0177155Y0084301D01*
X0177106Y0084112D01*
X0177061Y0083921D01*
X0177020Y0083730D01*
X0176984Y0083537D01*
X0176953Y0083344D01*
X0176927Y0083150D01*
X0176905Y0082955D01*
X0176889Y0082760D01*
X0176877Y0082565D01*
X0176869Y0082369D01*
X0176867Y0082173D01*
X0176869Y0081977D01*
X0176877Y0081781D01*
X0176889Y0081586D01*
X0176905Y0081391D01*
X0176927Y0081196D01*
X0176953Y0081002D01*
X0176984Y0080809D01*
X0177020Y0080616D01*
X0177061Y0080425D01*
X0177106Y0080234D01*
X0177155Y0080045D01*
X0177210Y0079857D01*
X0177269Y0079670D01*
X0177333Y0079485D01*
X0177401Y0079301D01*
X0177473Y0079119D01*
X0177550Y0078939D01*
X0177632Y0078761D01*
X0177717Y0078585D01*
X0177807Y0078411D01*
X0177902Y0078239D01*
X0178000Y0078070D01*
X0178103Y0077903D01*
X0178209Y0077739D01*
X0178320Y0077577D01*
X0178434Y0077418D01*
X0178553Y0077262D01*
X0178675Y0077109D01*
X0178801Y0076959D01*
X0178930Y0076812D01*
X0179063Y0076669D01*
X0179200Y0076528D01*
X0179340Y0076391D01*
X0179483Y0076258D01*
X0179630Y0076128D01*
X0179779Y0076002D01*
X0179932Y0075879D01*
X0180088Y0075760D01*
X0180246Y0075645D01*
X0180408Y0075534D01*
X0180571Y0075427D01*
X0180738Y0075324D01*
X0180907Y0075225D01*
X0181078Y0075130D01*
X0181252Y0075039D01*
X0181428Y0074953D01*
X0181606Y0074871D01*
X0181785Y0074794D01*
X0181967Y0074720D01*
X0182151Y0074652D01*
X0182336Y0074588D01*
X0182522Y0074528D01*
X0182710Y0074473D01*
X0182899Y0074423D01*
X0183090Y0074377D01*
X0183281Y0074336D01*
X0183474Y0074299D01*
D15*
X0037194Y0400835D03*
X0037194Y0409102D03*
M02*
